# Blender v2.81 (sub 16) OBJ File: 'garbage.blend'
# www.blender.org
v 0.265776 2.002753 0.091617
v 0.257878 1.987321 0.114443
v 0.250704 1.962140 0.126108
v 0.246176 1.933958 0.123485
v 0.245507 1.910326 0.107278
v 0.245203 2.004134 0.073140
v 0.222243 1.989713 0.082442
v 0.209556 1.964903 0.089156
v 0.210541 1.936351 0.091483
v 0.224933 1.911708 0.088801
v 0.219431 1.953702 0.035833
v 0.219093 1.926650 0.045305
v 0.229870 1.906107 0.062140
v 0.275651 1.991552 0.038294
v 0.270454 1.939738 0.019463
v 0.263279 1.914557 0.031128
v 0.255381 1.899125 0.053955
v 0.296225 1.990170 0.056770
v 0.310617 1.965527 0.054088
v 0.311601 1.936975 0.056416
v 0.298914 1.912165 0.063130
v 0.275955 1.897744 0.072431
v 0.291288 1.995771 0.083432
v 0.302065 1.975227 0.100267
v 0.301726 1.948176 0.109738
v 0.290362 1.921865 0.109309
v 0.271018 1.903344 0.099093
v 0.250140 1.998533 0.046479
v 0.230795 1.980013 0.036263
v 0.274982 1.967920 0.022086
v 0.321353 1.975144 0.003990
v 0.324261 1.974949 0.006601
v 0.296662 1.990607 0.025304
v 0.300337 1.948292 0.012389
v 0.306846 1.989923 0.034450
v 0.316134 1.947231 0.026575
v 0.238629 1.990690 -0.010338
v 0.249088 1.987828 -0.013693
v 0.247934 1.996593 0.004776
v 0.239122 1.970578 0.000945
v 0.252727 1.995282 0.003239
v 0.243929 1.969263 -0.000597
vt 0.274240 0.539347
vt 0.265397 0.539709
vt 0.266768 0.532487
vt 0.231414 0.551290
vt 0.214659 0.541092
vt 0.231357 0.542861
vt 0.231940 0.569242
vt 0.215985 0.562822
vt 0.231472 0.559719
vt 0.230890 0.533338
vt 0.220414 0.530957
vt 0.213134 0.552274
vt 0.289666 0.544440
vt 0.282983 0.540904
vt 0.290637 0.536818
vt 0.279682 0.529141
vt 0.275518 0.536619
vt 0.273707 0.532162
vt 0.280945 0.538772
vt 0.286431 0.530872
vt 0.290637 0.551375
vt 0.284312 0.543753
vt 0.278488 0.537315
vt 0.276318 0.541045
vt 0.804698 0.251197
vt 0.792375 0.255919
vt 0.792638 0.252041
vt 0.786357 0.239035
vt 0.792578 0.249274
vt 0.791489 0.249454
vt 0.271776 0.541127
vt 0.760733 0.199751
vt 0.757502 0.209505
vt 0.750621 0.206121
vt 0.278108 0.542645
vt 0.273009 0.544115
vt 0.772804 0.201934
vt 0.766718 0.213101
vt 0.766203 0.208706
vt 0.264007 0.548518
vt 0.277612 0.547903
vt 0.268747 0.555467
vt 0.275021 0.546378
vt 0.280714 0.548498
vt 0.281954 0.545638
vt 0.276612 0.557409
vt 0.240880 0.530957
vt 0.248168 0.561486
vt 0.249693 0.550306
vt 0.246843 0.539760
vt 0.242415 0.571620
vt 0.762287 0.211045
vt 0.762255 0.210544
vt 0.761023 0.221925
vt 0.757316 0.212491
vt 0.750922 0.216572
vt 0.772804 0.220841
vt 0.791613 0.252007
vt 0.791097 0.255536
vt 0.780068 0.250772
vt 0.780487 0.263708
vt 0.804698 0.264828
vt 0.798786 0.238814
vt 0.221949 0.571626
vt 0.283377 0.553479
vn -0.2113 -0.9637 0.1633
vn -0.6663 0.0377 0.7447
vn -0.3416 0.8292 0.4424
vn -0.6183 -0.4325 0.6562
vn -0.5707 0.4734 0.6709
vn -0.5881 0.7627 -0.2691
vn -0.8648 -0.4990 -0.0553
vn -0.8884 0.3877 -0.2460
vn 0.2113 0.9637 -0.1633
vn -0.9839 -0.0480 -0.1721
vn -0.3848 -0.6974 -0.6046
vn 0.4577 -0.5939 -0.6617
vn -0.3654 -0.3035 -0.8800
vn 0.2462 0.9675 -0.0580
vn 0.3416 -0.8292 -0.4424
vn 0.8152 0.4344 0.3831
vn 0.5707 -0.4734 -0.6709
vn 0.1989 -0.9357 -0.2914
vn 0.5881 -0.7627 0.2691
vn 0.9839 0.0480 0.1721
vn 0.8884 -0.3877 0.2460
vn 0.8648 0.4990 0.0553
vn 0.1081 -0.5644 0.8184
vn 0.3654 0.3035 0.8800
vn 0.2699 -0.1321 0.9538
vn 0.3848 0.6974 0.6046
vn 0.5143 -0.5955 -0.6172
vn 0.3183 0.9036 -0.2868
vn -0.3829 0.4780 -0.7905
vn 0.0539 0.9984 0.0146
vn 0.9615 -0.0967 0.2571
vn -0.2638 0.1313 -0.9556
vn -0.3828 -0.4591 -0.8017
vn 0.1116 0.9005 -0.4204
vn -0.8717 0.3815 -0.3074
vn -0.3818 -0.7290 -0.5681
vn 0.8089 0.3168 -0.4953
vn -0.6185 0.7822 0.0753
vn -0.2114 -0.9637 0.1633
vn 0.5892 -0.0195 -0.8077
vn 0.8594 0.3946 0.3252
vn 0.2698 -0.1321 0.9538
vn 0.5143 -0.5955 -0.6171
vn -0.4328 0.5182 -0.7377
vn 0.9850 0.0475 0.1659
vn -0.3625 -0.0078 -0.9320
vn -0.9721 -0.1325 -0.1938
vn 0.8293 0.4234 -0.3646
vn -0.6924 0.7215 0.0031
s off
f 17/1/1 27/2/1 5/3/1
f 3/4/2 9/5/2 4/6/2
f 1/7/3 7/8/3 2/9/3
f 5/10/4 9/5/4 10/11/4
f 2/9/5 8/12/5 3/4/5
f 6/13/6 29/14/6 7/15/6
f 9/16/7 13/17/7 10/18/7
f 7/15/8 11/19/8 8/20/8
f 1/21/9 28/22/9 6/13/9
f 8/20/10 12/23/10 9/16/10
f 13/17/11 16/24/11 17/1/11
f 30/25/12 42/26/12 38/27/12
f 11/19/13 16/24/13 12/23/13
f 28/28/14 41/29/14 39/30/14
f 16/24/15 22/31/15 17/1/15
f 19/32/16 35/33/16 18/34/16
f 15/35/17 21/36/17 16/24/17
f 20/37/18 34/38/18 36/39/18
f 22/31/19 26/40/19 27/2/19
f 19/41/20 25/42/20 20/43/20
f 1/21/9 18/44/9 14/45/9
f 20/43/21 26/40/21 21/36/21
f 18/44/22 24/46/22 19/41/22
f 27/47/23 4/6/23 5/10/23
f 24/48/24 3/4/24 25/49/24
f 25/49/25 4/6/25 26/50/25
f 23/51/26 2/9/26 24/48/26
f 13/17/1 5/3/1 10/18/1
f 31/52/27 36/39/27 34/38/27
f 31/52/28 35/33/28 32/53/28
f 30/54/29 33/55/29 31/52/29
f 18/34/30 33/55/30 14/56/30
f 19/32/31 36/39/31 32/53/31
f 30/54/32 34/38/32 15/57/32
f 37/58/33 42/26/33 40/59/33
f 37/58/34 41/29/34 38/27/34
f 29/60/35 40/59/35 11/61/35
f 11/61/36 42/26/36 15/62/36
f 30/25/37 41/29/37 14/63/37
f 29/60/38 39/30/38 37/58/38
f 17/1/39 22/31/39 27/2/39
f 3/4/2 8/12/2 9/5/2
f 1/7/3 6/64/3 7/8/3
f 5/10/4 4/6/4 9/5/4
f 2/9/5 7/8/5 8/12/5
f 6/13/6 28/22/6 29/14/6
f 9/16/7 12/23/7 13/17/7
f 7/15/8 29/14/8 11/19/8
f 1/21/9 14/45/9 28/22/9
f 8/20/10 11/19/10 12/23/10
f 13/17/11 12/23/11 16/24/11
f 30/25/40 15/62/40 42/26/40
f 11/19/13 15/35/13 16/24/13
f 28/28/14 14/63/14 41/29/14
f 16/24/15 21/36/15 22/31/15
f 19/32/41 32/53/41 35/33/41
f 15/35/17 20/43/17 21/36/17
f 20/37/18 15/57/18 34/38/18
f 22/31/19 21/36/19 26/40/19
f 19/41/20 24/46/20 25/42/20
f 1/21/9 23/65/9 18/44/9
f 20/43/21 25/42/21 26/40/21
f 18/44/22 23/65/22 24/46/22
f 27/47/23 26/50/23 4/6/23
f 24/48/24 2/9/24 3/4/24
f 25/49/42 3/4/42 4/6/42
f 23/51/26 1/7/26 2/9/26
f 13/17/39 17/1/39 5/3/39
f 31/52/43 32/53/43 36/39/43
f 31/52/28 33/55/28 35/33/28
f 30/54/44 14/56/44 33/55/44
f 18/34/30 35/33/30 33/55/30
f 19/32/45 20/37/45 36/39/45
f 30/54/46 31/52/46 34/38/46
f 37/58/33 38/27/33 42/26/33
f 37/58/34 39/30/34 41/29/34
f 29/60/47 37/58/47 40/59/47
f 11/61/36 40/59/36 42/26/36
f 30/25/48 38/27/48 41/29/48
f 29/60/49 28/28/49 39/30/49
v 1.396898 2.181274 1.529181
v 1.373435 2.167742 1.538561
v 1.360227 2.143581 1.546523
v 1.360813 2.115265 1.550935
v 1.375036 2.090381 1.550613
v 1.402829 2.173724 1.503212
v 1.383708 2.154665 1.493581
v 1.372089 2.128482 1.494586
v 1.371085 2.102189 1.505955
v 1.380966 2.082832 1.524644
v 1.423568 2.112974 1.481332
v 1.415668 2.088759 1.494478
v 1.406706 2.075078 1.518017
v 1.448378 2.165766 1.515928
v 1.463186 2.112566 1.520017
v 1.449978 2.088406 1.527980
v 1.426515 2.074874 1.537360
v 1.442447 2.173316 1.541897
v 1.452328 2.153959 1.560586
v 1.451324 2.127666 1.571955
v 1.439705 2.101482 1.572959
v 1.420584 2.082424 1.563329
v 1.416707 2.181070 1.548523
v 1.407745 2.167389 1.572063
v 1.399845 2.143174 1.585208
v 1.395123 2.114912 1.584437
v 1.394845 2.090178 1.569955
v 1.428569 2.165970 1.496585
v 1.428290 2.141236 1.482104
v 1.462600 2.140882 1.515606
v 1.501032 2.158820 1.542646
v 1.500194 2.159887 1.546316
v 1.470040 2.169207 1.527328
v 1.483887 2.128481 1.538305
v 1.467105 2.172944 1.540183
v 1.479334 2.134278 1.558244
v 1.472503 2.146750 1.463081
v 1.480624 2.146667 1.471011
v 1.463816 2.157320 1.475835
v 1.463305 2.129595 1.475456
v 1.467538 2.157282 1.479470
v 1.467037 2.129556 1.479100
vt 0.274240 0.539347
vt 0.265397 0.539709
vt 0.266768 0.532487
vt 0.231414 0.551290
vt 0.214659 0.541092
vt 0.231357 0.542861
vt 0.231940 0.569242
vt 0.215985 0.562822
vt 0.231472 0.559719
vt 0.230890 0.533338
vt 0.220414 0.530957
vt 0.213134 0.552274
vt 0.289666 0.544440
vt 0.282983 0.540904
vt 0.290637 0.536818
vt 0.279682 0.529141
vt 0.275518 0.536619
vt 0.273707 0.532162
vt 0.280945 0.538772
vt 0.286431 0.530872
vt 0.290637 0.551375
vt 0.284312 0.543753
vt 0.278488 0.537315
vt 0.276318 0.541045
vt 0.804698 0.251197
vt 0.792375 0.255919
vt 0.792638 0.252041
vt 0.786357 0.239035
vt 0.792578 0.249274
vt 0.791489 0.249454
vt 0.271776 0.541127
vt 0.760733 0.199751
vt 0.757502 0.209505
vt 0.750621 0.206121
vt 0.278108 0.542645
vt 0.273009 0.544115
vt 0.772804 0.201934
vt 0.766718 0.213101
vt 0.766203 0.208706
vt 0.264007 0.548518
vt 0.277612 0.547903
vt 0.268747 0.555467
vt 0.275021 0.546378
vt 0.280714 0.548498
vt 0.281954 0.545638
vt 0.276612 0.557409
vt 0.240880 0.530957
vt 0.248168 0.561486
vt 0.249693 0.550306
vt 0.246843 0.539760
vt 0.242415 0.571620
vt 0.762287 0.211045
vt 0.762255 0.210544
vt 0.761023 0.221925
vt 0.757316 0.212491
vt 0.750922 0.216572
vt 0.772804 0.220841
vt 0.791613 0.252007
vt 0.791097 0.255536
vt 0.780068 0.250772
vt 0.780487 0.263708
vt 0.804698 0.264828
vt 0.798786 0.238814
vt 0.221949 0.571626
vt 0.283377 0.553479
vn -0.2280 -0.9477 0.2234
vn -0.9768 -0.0526 -0.2078
vn -0.5688 0.7458 -0.3467
vn -0.8672 -0.4950 -0.0542
vn -0.8737 0.3759 -0.3088
vn -0.0695 0.5046 -0.8605
vn -0.3680 -0.7362 -0.5679
vn -0.2304 0.0650 -0.9709
vn 0.2280 0.9477 -0.2235
vn -0.3334 -0.3634 -0.8699
vn 0.3500 -0.8616 -0.3675
vn 0.8123 -0.5218 0.2606
vn 0.5918 -0.5251 -0.6116
vn 0.1534 0.9772 -0.1468
vn 0.5688 -0.7458 0.3467
vn 0.0595 0.7089 0.7028
vn 0.8737 -0.3759 0.3088
vn 0.3691 -0.8664 0.3362
vn 0.0695 -0.5046 0.8605
vn 0.3334 0.3634 0.8699
vn 0.2279 0.9477 -0.2235
vn 0.2304 -0.0650 0.9709
vn 0.3680 0.7362 0.5680
vn -0.6485 -0.3792 0.6601
vn -0.5918 0.5251 0.6116
vn -0.6949 0.0966 0.7126
vn -0.3500 0.8616 0.3675
vn -0.2280 -0.9477 0.2235
vn 0.8014 -0.4999 0.3284
vn 0.3892 0.9045 -0.1742
vn 0.4905 0.2201 -0.8432
vn -0.0050 0.9599 -0.2802
vn 0.2512 0.2329 0.9395
vn 0.6994 -0.0959 -0.7083
vn 0.5180 -0.6654 -0.5375
vn 0.4038 0.8204 -0.4049
vn -0.1686 0.0550 -0.9842
vn 0.3203 -0.8852 -0.3374
vn 0.8231 0.4663 0.3241
vn -0.3846 0.5649 -0.7301
vn -0.3680 -0.7362 -0.5680
vn 0.9933 0.0375 0.1091
vn 0.1324 0.6760 0.7249
vn 0.2280 0.9477 -0.2234
vn -0.6948 0.0966 0.7126
vn -0.2279 -0.9477 0.2235
vn 0.3892 0.9045 -0.1741
vn 0.4193 0.2509 -0.8725
vn 0.3394 0.3624 0.8680
vn 0.6329 -0.2529 -0.7317
vn 0.4038 0.8204 -0.4048
vn -0.3072 -0.4429 -0.8423
vn 0.7175 0.5922 0.3668
vn -0.3570 0.4749 -0.8044
s off
f 59/66/50 69/67/50 47/68/50
f 45/69/51 51/70/51 46/71/51
f 43/72/52 49/73/52 44/74/52
f 47/75/53 51/70/53 52/76/53
f 44/74/54 50/77/54 45/69/54
f 48/78/55 71/79/55 49/80/55
f 51/81/56 55/82/56 52/83/56
f 49/80/57 53/84/57 50/85/57
f 43/86/58 70/87/58 48/78/58
f 50/85/59 54/88/59 51/81/59
f 55/82/60 58/89/60 59/66/60
f 72/90/61 84/91/61 80/92/61
f 53/84/62 58/89/62 54/88/62
f 70/93/63 83/94/63 81/95/63
f 58/89/64 64/96/64 59/66/64
f 61/97/65 77/98/65 60/99/65
f 57/100/66 63/101/66 58/89/66
f 62/102/67 76/103/67 78/104/67
f 64/96/68 68/105/68 69/67/68
f 61/106/69 67/107/69 62/108/69
f 43/86/70 60/109/70 56/110/70
f 62/108/71 68/105/71 63/101/71
f 60/109/72 66/111/72 61/106/72
f 69/112/73 46/71/73 47/75/73
f 66/113/74 45/69/74 67/114/74
f 67/114/75 46/71/75 68/115/75
f 65/116/76 44/74/76 66/113/76
f 55/82/77 47/68/77 52/83/77
f 73/117/78 78/104/78 76/103/78
f 73/117/79 77/98/79 74/118/79
f 72/119/80 75/120/80 73/117/80
f 60/99/81 75/120/81 56/121/81
f 61/97/82 78/104/82 74/118/82
f 72/119/83 76/103/83 57/122/83
f 79/123/84 84/91/84 82/124/84
f 79/123/85 83/94/85 80/92/85
f 71/125/86 82/124/86 53/126/86
f 53/126/87 84/91/87 57/127/87
f 72/90/88 83/94/88 56/128/88
f 71/125/89 81/95/89 79/123/89
f 59/66/77 64/96/77 69/67/77
f 45/69/51 50/77/51 51/70/51
f 43/72/52 48/129/52 49/73/52
f 47/75/53 46/71/53 51/70/53
f 44/74/54 49/73/54 50/77/54
f 48/78/55 70/87/55 71/79/55
f 51/81/90 54/88/90 55/82/90
f 49/80/57 71/79/57 53/84/57
f 43/86/58 56/110/58 70/87/58
f 50/85/59 53/84/59 54/88/59
f 55/82/60 54/88/60 58/89/60
f 72/90/91 57/127/91 84/91/91
f 53/84/62 57/100/62 58/89/62
f 70/93/63 56/128/63 83/94/63
f 58/89/64 63/101/64 64/96/64
f 61/97/92 74/118/92 77/98/92
f 57/100/66 62/108/66 63/101/66
f 62/102/67 57/122/67 76/103/67
f 64/96/68 63/101/68 68/105/68
f 61/106/69 66/111/69 67/107/69
f 43/86/93 65/130/93 60/109/93
f 62/108/71 67/107/71 68/105/71
f 60/109/72 65/130/72 66/111/72
f 69/112/73 68/115/73 46/71/73
f 66/113/74 44/74/74 45/69/74
f 67/114/94 45/69/94 46/71/94
f 65/116/76 43/72/76 44/74/76
f 55/82/95 59/66/95 47/68/95
f 73/117/78 74/118/78 78/104/78
f 73/117/96 75/120/96 77/98/96
f 72/119/97 56/121/97 75/120/97
f 60/99/81 77/98/81 75/120/81
f 61/97/98 62/102/98 78/104/98
f 72/119/99 73/117/99 76/103/99
f 79/123/84 80/92/84 84/91/84
f 79/123/100 81/95/100 83/94/100
f 71/125/101 79/123/101 82/124/101
f 53/126/87 82/124/87 84/91/87
f 72/90/102 80/92/102 83/94/102
f 71/125/103 70/93/103 81/95/103
