# Blender v2.81 (sub 16) OBJ File: 'garbage.blend'
# www.blender.org
v 0.344204 1.641910 -0.964964
v 0.347977 1.626624 -0.941012
v 0.341982 1.603563 -0.925079
v 0.327828 1.578906 -0.921435
v 0.309305 1.559260 -0.931056
v 0.318566 1.652310 -0.966004
v 0.303569 1.644636 -0.942813
v 0.290705 1.624362 -0.927158
v 0.283421 1.596918 -0.923236
v 0.283667 1.569660 -0.932095
v 0.260250 1.618406 -0.973020
v 0.257046 1.591761 -0.962953
v 0.268439 1.566682 -0.955026
v 0.313749 1.635955 -1.010826
v 0.281072 1.591652 -1.016802
v 0.275078 1.568591 -1.000869
v 0.278850 1.553304 -0.976917
v 0.339388 1.625555 -1.009786
v 0.339634 1.598296 -1.018646
v 0.332350 1.570853 -1.014723
v 0.319485 1.550578 -0.999069
v 0.304489 1.542905 -0.975878
v 0.354615 1.628533 -0.986855
v 0.366009 1.603454 -0.978929
v 0.362805 1.576809 -0.968862
v 0.345860 1.555736 -0.959352
v 0.319716 1.545883 -0.952947
v 0.303338 1.649332 -0.988934
v 0.277195 1.639479 -0.982530
v 0.295227 1.616309 -1.020446
v 0.318706 1.611149 -1.064629
v 0.322330 1.609679 -1.064482
v 0.319967 1.630345 -1.034084
v 0.300390 1.591327 -1.042159
v 0.332658 1.625197 -1.033570
v 0.320075 1.583343 -1.041361
v 0.256791 1.653735 -1.024093
v 0.261059 1.648251 -1.033067
v 0.274814 1.654189 -1.019109
v 0.257609 1.633082 -1.013854
v 0.276770 1.651675 -1.023222
v 0.259570 1.630561 -1.017978
vt 0.274240 0.539347
vt 0.265397 0.539709
vt 0.266768 0.532487
vt 0.231414 0.551290
vt 0.214659 0.541092
vt 0.231357 0.542861
vt 0.231940 0.569242
vt 0.215985 0.562822
vt 0.231472 0.559719
vt 0.230890 0.533338
vt 0.220414 0.530957
vt 0.213134 0.552274
vt 0.289666 0.544440
vt 0.282983 0.540904
vt 0.290637 0.536818
vt 0.279682 0.529141
vt 0.275518 0.536619
vt 0.273707 0.532162
vt 0.280945 0.538772
vt 0.286431 0.530872
vt 0.290637 0.551375
vt 0.284312 0.543753
vt 0.278488 0.537315
vt 0.276318 0.541045
vt 0.804698 0.251197
vt 0.792375 0.255919
vt 0.792638 0.252041
vt 0.786357 0.239035
vt 0.792578 0.249274
vt 0.791489 0.249454
vt 0.271776 0.541127
vt 0.760733 0.199751
vt 0.757502 0.209505
vt 0.750621 0.206121
vt 0.278108 0.542645
vt 0.273009 0.544115
vt 0.772804 0.201934
vt 0.766718 0.213101
vt 0.766203 0.208706
vt 0.264007 0.548518
vt 0.277612 0.547903
vt 0.268747 0.555467
vt 0.275021 0.546378
vt 0.280714 0.548498
vt 0.281954 0.545638
vt 0.276612 0.557409
vt 0.240880 0.530957
vt 0.248168 0.561486
vt 0.249693 0.550306
vt 0.246843 0.539760
vt 0.242415 0.571620
vt 0.762287 0.211045
vt 0.762255 0.210544
vt 0.761023 0.221925
vt 0.757316 0.212491
vt 0.750922 0.216572
vt 0.772804 0.220841
vt 0.791613 0.252007
vt 0.791097 0.255536
vt 0.780068 0.250772
vt 0.780487 0.263708
vt 0.804698 0.264828
vt 0.798786 0.238814
vt 0.221949 0.571626
vt 0.283377 0.553479
vn -0.3639 -0.8617 0.3535
vn 0.0156 0.1374 0.9904
vn 0.3141 0.8220 0.4751
vn -0.1623 -0.3063 0.9380
vn 0.1801 0.5270 0.8306
vn -0.3300 0.9389 0.0972
vn -0.8065 -0.1894 0.5601
vn -0.6500 0.6778 0.3436
vn 0.3639 0.8617 -0.3535
vn -0.8145 0.2882 0.5035
vn -0.8824 -0.4472 -0.1464
vn -0.2934 -0.6060 -0.7394
vn -0.9124 -0.0440 -0.4070
vn 0.4560 0.8393 -0.2960
vn -0.3141 -0.8220 -0.4751
vn 0.9573 0.0972 -0.2724
vn -0.1801 -0.5270 -0.8306
vn -0.3541 -0.8988 -0.2583
vn 0.3301 -0.9389 -0.0972
vn 0.8145 -0.2882 -0.5035
vn 0.6500 -0.6778 -0.3436
vn 0.8065 0.1893 -0.5601
vn 0.4060 -0.6811 0.6093
vn 0.9124 0.0440 0.4070
vn 0.7479 -0.3455 0.5668
vn 0.8824 0.4472 0.1464
vn -0.2261 -0.6316 -0.7415
vn 0.3409 0.7895 -0.5103
vn -0.6096 0.6823 -0.4036
vn 0.3773 0.9182 -0.1206
vn 0.8046 -0.4291 -0.4104
vn -0.7450 0.3432 -0.5720
vn -0.9266 -0.1958 -0.3210
vn 0.1106 0.8706 -0.4794
vn -0.6792 0.6756 0.2867
vn -0.8677 -0.4830 -0.1175
vn 0.3593 0.1148 -0.9261
vn -0.1274 0.9173 0.3772
vn -0.3301 0.9389 0.0972
vn -0.8065 -0.1893 0.5601
vn -0.1034 -0.0871 -0.9908
vn 0.9385 0.0543 -0.3408
vn 0.3300 -0.9389 -0.0972
vn -0.2262 -0.6316 -0.7415
vn 0.3410 0.7895 -0.5103
vn -0.5979 0.7280 -0.3354
vn 0.8112 -0.2881 -0.5089
vn -0.8453 0.2401 -0.4773
vn -0.8479 0.2082 0.4876
vn 0.4914 0.1897 -0.8500
vn -0.2449 0.8939 0.3754
s off
f 17/1/1 27/2/1 5/3/1
f 3/4/2 9/5/2 4/6/2
f 1/7/3 7/8/3 2/9/3
f 5/10/4 9/5/4 10/11/4
f 2/9/5 8/12/5 3/4/5
f 6/13/6 29/14/6 7/15/6
f 9/16/7 13/17/7 10/18/7
f 7/15/8 11/19/8 8/20/8
f 1/21/9 28/22/9 6/13/9
f 8/20/10 12/23/10 9/16/10
f 13/17/11 16/24/11 17/1/11
f 30/25/12 42/26/12 38/27/12
f 11/19/13 16/24/13 12/23/13
f 28/28/14 41/29/14 39/30/14
f 16/24/15 22/31/15 17/1/15
f 19/32/16 35/33/16 18/34/16
f 15/35/17 21/36/17 16/24/17
f 20/37/18 34/38/18 36/39/18
f 22/31/19 26/40/19 27/2/19
f 19/41/20 25/42/20 20/43/20
f 1/21/9 18/44/9 14/45/9
f 20/43/21 26/40/21 21/36/21
f 18/44/22 24/46/22 19/41/22
f 27/47/23 4/6/23 5/10/23
f 24/48/24 3/4/24 25/49/24
f 25/49/25 4/6/25 26/50/25
f 23/51/26 2/9/26 24/48/26
f 13/17/1 5/3/1 10/18/1
f 31/52/27 36/39/27 34/38/27
f 31/52/28 35/33/28 32/53/28
f 30/54/29 33/55/29 31/52/29
f 18/34/30 33/55/30 14/56/30
f 19/32/31 36/39/31 32/53/31
f 30/54/32 34/38/32 15/57/32
f 37/58/33 42/26/33 40/59/33
f 37/58/34 41/29/34 38/27/34
f 29/60/35 40/59/35 11/61/35
f 11/61/36 42/26/36 15/62/36
f 30/25/37 41/29/37 14/63/37
f 29/60/38 39/30/38 37/58/38
f 17/1/1 22/31/1 27/2/1
f 3/4/2 8/12/2 9/5/2
f 1/7/3 6/64/3 7/8/3
f 5/10/4 4/6/4 9/5/4
f 2/9/5 7/8/5 8/12/5
f 6/13/39 28/22/39 29/14/39
f 9/16/40 12/23/40 13/17/40
f 7/15/8 29/14/8 11/19/8
f 1/21/9 14/45/9 28/22/9
f 8/20/10 11/19/10 12/23/10
f 13/17/11 12/23/11 16/24/11
f 30/25/41 15/62/41 42/26/41
f 11/19/13 15/35/13 16/24/13
f 28/28/14 14/63/14 41/29/14
f 16/24/15 21/36/15 22/31/15
f 19/32/42 32/53/42 35/33/42
f 15/35/17 20/43/17 21/36/17
f 20/37/18 15/57/18 34/38/18
f 22/31/43 21/36/43 26/40/43
f 19/41/20 24/46/20 25/42/20
f 1/21/9 23/65/9 18/44/9
f 20/43/21 25/42/21 26/40/21
f 18/44/22 23/65/22 24/46/22
f 27/47/23 26/50/23 4/6/23
f 24/48/24 2/9/24 3/4/24
f 25/49/25 3/4/25 4/6/25
f 23/51/26 1/7/26 2/9/26
f 13/17/1 17/1/1 5/3/1
f 31/52/44 32/53/44 36/39/44
f 31/52/45 33/55/45 35/33/45
f 30/54/46 14/56/46 33/55/46
f 18/34/30 35/33/30 33/55/30
f 19/32/47 20/37/47 36/39/47
f 30/54/48 31/52/48 34/38/48
f 37/58/33 38/27/33 42/26/33
f 37/58/34 39/30/34 41/29/34
f 29/60/49 37/58/49 40/59/49
f 11/61/36 40/59/36 42/26/36
f 30/25/50 38/27/50 41/29/50
f 29/60/51 28/28/51 39/30/51
v 3.090345 1.191528 -1.365592
v 3.086077 1.174921 -1.342622
v 3.081896 1.148974 -1.331181
v 3.078923 1.120640 -1.334335
v 3.077952 1.097511 -1.351238
v 3.067775 1.192056 -1.381618
v 3.046984 1.175836 -1.370382
v 3.036756 1.150030 -1.363235
v 3.039829 1.121555 -1.362095
v 3.055382 1.098039 -1.367265
v 3.041260 1.141121 -1.417702
v 3.043730 1.113839 -1.409264
v 3.057634 1.093585 -1.394498
v 3.094849 1.182619 -1.420058
v 3.090905 1.131156 -1.440114
v 3.086724 1.105209 -1.428673
v 3.082457 1.088602 -1.405704
v 3.117419 1.182091 -1.404031
v 3.132972 1.158575 -1.409201
v 3.136046 1.130099 -1.408060
v 3.125817 1.104294 -1.400914
v 3.105027 1.088074 -1.389677
v 3.115167 1.186545 -1.376798
v 3.129071 1.166291 -1.362032
v 3.131541 1.139009 -1.353594
v 3.121916 1.112010 -1.353745
v 3.102775 1.092528 -1.362444
v 3.070027 1.187601 -1.408852
v 3.050885 1.168120 -1.417551
v 3.093879 1.159490 -1.436961
v 3.137356 1.170389 -1.459786
v 3.140545 1.170314 -1.457521
v 3.114280 1.183493 -1.435315
v 3.119189 1.141930 -1.450122
v 3.125452 1.183232 -1.427382
v 3.136518 1.141525 -1.437817
v 3.052716 1.180690 -1.464302
v 3.062893 1.178647 -1.468896
v 3.063266 1.186759 -1.450099
v 3.055769 1.160331 -1.453899
v 3.067930 1.185823 -1.452204
v 3.060447 1.159392 -1.456011
vt 0.274240 0.539347
vt 0.265397 0.539709
vt 0.266768 0.532487
vt 0.231414 0.551290
vt 0.214659 0.541092
vt 0.231357 0.542861
vt 0.231940 0.569242
vt 0.215985 0.562822
vt 0.231472 0.559719
vt 0.230890 0.533338
vt 0.220414 0.530957
vt 0.213134 0.552274
vt 0.289666 0.544440
vt 0.282983 0.540904
vt 0.290637 0.536818
vt 0.279682 0.529141
vt 0.275518 0.536619
vt 0.273707 0.532162
vt 0.280945 0.538772
vt 0.286431 0.530872
vt 0.290637 0.551375
vt 0.284312 0.543753
vt 0.278488 0.537315
vt 0.276318 0.541045
vt 0.804698 0.251197
vt 0.792375 0.255919
vt 0.792638 0.252041
vt 0.786357 0.239035
vt 0.792578 0.249274
vt 0.791489 0.249454
vt 0.271776 0.541127
vt 0.760733 0.199751
vt 0.757502 0.209505
vt 0.750621 0.206121
vt 0.278108 0.542645
vt 0.273009 0.544115
vt 0.772804 0.201934
vt 0.766718 0.213101
vt 0.766203 0.208706
vt 0.264007 0.548518
vt 0.277612 0.547903
vt 0.268747 0.555467
vt 0.275021 0.546378
vt 0.280714 0.548498
vt 0.281954 0.545638
vt 0.276612 0.557409
vt 0.240880 0.530957
vt 0.248168 0.561486
vt 0.249693 0.550306
vt 0.246843 0.539760
vt 0.242415 0.571620
vt 0.762287 0.211045
vt 0.762255 0.210544
vt 0.761023 0.221925
vt 0.757316 0.212491
vt 0.750922 0.216572
vt 0.772804 0.220841
vt 0.791613 0.252007
vt 0.791097 0.255536
vt 0.780068 0.250772
vt 0.780487 0.263708
vt 0.804698 0.264828
vt 0.798786 0.238814
vt 0.221949 0.571626
vt 0.283377 0.553479
vn -0.1292 -0.9803 0.1497
vn -0.5792 -0.0299 0.8147
vn -0.3422 0.7905 0.5079
vn -0.5114 -0.4930 0.7039
vn -0.5208 0.4133 0.7470
vn -0.6625 0.7286 -0.1740
vn -0.8317 -0.5548 0.0220
vn -0.9335 0.3335 -0.1318
vn 0.1292 0.9803 -0.1497
vn -0.9919 -0.1096 -0.0641
vn -0.4049 -0.7036 -0.5840
vn 0.4174 -0.5414 -0.7298
vn -0.4419 -0.3014 -0.8449
vn 0.1753 0.9833 -0.0488
vn 0.3422 -0.7905 -0.5080
vn 0.8235 0.4773 0.3066
vn 0.5208 -0.4133 -0.7470
vn 0.2245 -0.9109 -0.3462
vn 0.6625 -0.7286 0.1740
vn 0.9919 0.1096 0.0641
vn 0.9335 -0.3335 0.1318
vn 0.8317 0.5549 -0.0220
vn 0.2357 -0.5798 0.7799
vn 0.4419 0.3013 0.8449
vn 0.3835 -0.1418 0.9126
vn 0.4049 0.7036 0.5840
vn 0.4787 -0.5405 -0.6919
vn 0.2251 0.9313 -0.2864
vn -0.4995 0.4742 -0.7250
vn -0.0091 0.9989 0.0457
vn 0.9886 -0.0387 0.1456
vn -0.3777 0.1415 -0.9151
vn -0.4405 -0.4600 -0.7710
vn 0.0054 0.9181 -0.3963
vn -0.9235 0.3303 -0.1949
vn -0.3957 -0.7361 -0.5492
vn 0.7259 0.3857 -0.5694
vn -0.6550 0.7357 0.1721
vn -0.3422 0.7905 0.5080
vn -0.8316 -0.5549 0.0220
vn 0.4945 0.0447 -0.8680
vn -0.4419 -0.3013 -0.8449
vn 0.8634 0.4423 0.2428
vn 0.4049 0.7036 0.5839
vn 0.4787 -0.5404 -0.6920
vn -0.5456 0.5093 -0.6656
vn 0.9923 0.1094 0.0578
vn -0.4639 -0.0047 -0.8859
vn -0.4404 -0.4600 -0.7710
vn -0.9771 -0.1926 -0.0900
vn -0.3957 -0.7360 -0.5492
vn 0.7540 0.4895 -0.4380
vn -0.7326 0.6723 0.1063
s off
f 59/66/52 69/67/52 47/68/52
f 45/69/53 51/70/53 46/71/53
f 43/72/54 49/73/54 44/74/54
f 47/75/55 51/70/55 52/76/55
f 44/74/56 50/77/56 45/69/56
f 48/78/57 71/79/57 49/80/57
f 51/81/58 55/82/58 52/83/58
f 49/80/59 53/84/59 50/85/59
f 43/86/60 70/87/60 48/78/60
f 50/85/61 54/88/61 51/81/61
f 55/82/62 58/89/62 59/66/62
f 72/90/63 84/91/63 80/92/63
f 53/84/64 58/89/64 54/88/64
f 70/93/65 83/94/65 81/95/65
f 58/89/66 64/96/66 59/66/66
f 61/97/67 77/98/67 60/99/67
f 57/100/68 63/101/68 58/89/68
f 62/102/69 76/103/69 78/104/69
f 64/96/70 68/105/70 69/67/70
f 61/106/71 67/107/71 62/108/71
f 43/86/60 60/109/60 56/110/60
f 62/108/72 68/105/72 63/101/72
f 60/109/73 66/111/73 61/106/73
f 69/112/74 46/71/74 47/75/74
f 66/113/75 45/69/75 67/114/75
f 67/114/76 46/71/76 68/115/76
f 65/116/77 44/74/77 66/113/77
f 55/82/52 47/68/52 52/83/52
f 73/117/78 78/104/78 76/103/78
f 73/117/79 77/98/79 74/118/79
f 72/119/80 75/120/80 73/117/80
f 60/99/81 75/120/81 56/121/81
f 61/97/82 78/104/82 74/118/82
f 72/119/83 76/103/83 57/122/83
f 79/123/84 84/91/84 82/124/84
f 79/123/85 83/94/85 80/92/85
f 71/125/86 82/124/86 53/126/86
f 53/126/87 84/91/87 57/127/87
f 72/90/88 83/94/88 56/128/88
f 71/125/89 81/95/89 79/123/89
f 59/66/52 64/96/52 69/67/52
f 45/69/53 50/77/53 51/70/53
f 43/72/90 48/129/90 49/73/90
f 47/75/55 46/71/55 51/70/55
f 44/74/56 49/73/56 50/77/56
f 48/78/57 70/87/57 71/79/57
f 51/81/91 54/88/91 55/82/91
f 49/80/59 71/79/59 53/84/59
f 43/86/60 56/110/60 70/87/60
f 50/85/61 53/84/61 54/88/61
f 55/82/62 54/88/62 58/89/62
f 72/90/92 57/127/92 84/91/92
f 53/84/93 57/100/93 58/89/93
f 70/93/65 56/128/65 83/94/65
f 58/89/66 63/101/66 64/96/66
f 61/97/94 74/118/94 77/98/94
f 57/100/68 62/108/68 63/101/68
f 62/102/69 57/122/69 76/103/69
f 64/96/70 63/101/70 68/105/70
f 61/106/71 66/111/71 67/107/71
f 43/86/60 65/130/60 60/109/60
f 62/108/72 67/107/72 68/105/72
f 60/109/73 65/130/73 66/111/73
f 69/112/74 68/115/74 46/71/74
f 66/113/75 44/74/75 45/69/75
f 67/114/76 45/69/76 46/71/76
f 65/116/95 43/72/95 44/74/95
f 55/82/52 59/66/52 47/68/52
f 73/117/96 74/118/96 78/104/96
f 73/117/79 75/120/79 77/98/79
f 72/119/97 56/121/97 75/120/97
f 60/99/81 77/98/81 75/120/81
f 61/97/98 62/102/98 78/104/98
f 72/119/99 73/117/99 76/103/99
f 79/123/100 80/92/100 84/91/100
f 79/123/85 81/95/85 83/94/85
f 71/125/101 79/123/101 82/124/101
f 53/126/102 82/124/102 84/91/102
f 72/90/103 80/92/103 83/94/103
f 71/125/104 70/93/104 81/95/104
