# Blender v2.81 (sub 16) OBJ File: 'garbage.blend'
# www.blender.org
v -0.326441 2.087436 -1.086341
v -0.325034 2.058824 -1.087343
v -0.334972 2.033184 -1.079256
v -0.353592 2.017384 -1.064247
v -0.375905 2.015659 -1.046337
v -0.319537 2.096701 -1.061180
v -0.313076 2.074872 -1.043763
v -0.321164 2.051714 -1.028935
v -0.341633 2.033432 -1.020667
v -0.369001 2.024924 -1.021177
v -0.353566 2.088441 -1.003101
v -0.369695 2.065239 -0.998295
v -0.385202 2.043288 -1.008260
v -0.358844 2.124164 -1.060507
v -0.399777 2.106639 -1.027588
v -0.409715 2.080999 -1.019501
v -0.408308 2.052387 -1.020504
v -0.365748 2.114899 -1.085667
v -0.393116 2.106391 -1.086177
v -0.413586 2.088109 -1.077909
v -0.421673 2.064951 -1.063081
v -0.415212 2.043122 -1.045664
v -0.349547 2.096535 -1.098584
v -0.365054 2.074584 -1.108549
v -0.381183 2.051382 -1.103743
v -0.393612 2.033144 -1.085454
v -0.399010 2.024758 -1.058581
v -0.335739 2.115065 -1.048263
v -0.341137 2.106679 -1.021391
v -0.381157 2.122439 -1.042597
v -0.409838 2.153132 -1.070262
v -0.410813 2.151823 -1.073818
v -0.376548 2.139241 -1.068894
v -0.413853 2.125216 -1.049337
v -0.379965 2.134655 -1.081348
v -0.419154 2.118102 -1.068655
v -0.354152 2.150586 -1.005586
v -0.363625 2.154317 -1.010606
v -0.350214 2.145085 -1.023025
v -0.365125 2.130309 -1.004901
v -0.354556 2.146794 -1.025325
v -0.369479 2.132024 -1.007208
vt 0.274240 0.539347
vt 0.265397 0.539709
vt 0.266768 0.532487
vt 0.231414 0.551290
vt 0.214659 0.541092
vt 0.231357 0.542861
vt 0.231940 0.569242
vt 0.215985 0.562822
vt 0.231472 0.559719
vt 0.230890 0.533338
vt 0.220414 0.530957
vt 0.213134 0.552274
vt 0.289666 0.544440
vt 0.282983 0.540904
vt 0.290637 0.536818
vt 0.279682 0.529141
vt 0.275518 0.536619
vt 0.273707 0.532162
vt 0.280945 0.538772
vt 0.286431 0.530872
vt 0.290637 0.551375
vt 0.284312 0.543753
vt 0.278488 0.537315
vt 0.276318 0.541045
vt 0.804698 0.251197
vt 0.792375 0.255919
vt 0.792638 0.252041
vt 0.786357 0.239035
vt 0.792578 0.249274
vt 0.791489 0.249454
vt 0.271776 0.541127
vt 0.760733 0.199751
vt 0.757502 0.209505
vt 0.750621 0.206121
vt 0.278108 0.542645
vt 0.273009 0.544115
vt 0.772804 0.201934
vt 0.766718 0.213101
vt 0.766203 0.208706
vt 0.264007 0.548518
vt 0.277612 0.547903
vt 0.268747 0.555467
vt 0.275021 0.546378
vt 0.280714 0.548498
vt 0.281954 0.545638
vt 0.276612 0.557409
vt 0.240880 0.530957
vt 0.248168 0.561486
vt 0.249693 0.550306
vt 0.246843 0.539760
vt 0.242415 0.571620
vt 0.762287 0.211045
vt 0.762255 0.210544
vt 0.761023 0.221925
vt 0.757316 0.212491
vt 0.750922 0.216572
vt 0.772804 0.220841
vt 0.791613 0.252007
vt 0.791097 0.255536
vt 0.780068 0.250772
vt 0.780487 0.263708
vt 0.804698 0.264828
vt 0.798786 0.238814
vt 0.221949 0.571626
vt 0.283377 0.553479
vn -0.5157 -0.7484 0.4171
vn 0.6819 -0.7270 0.0806
vn 0.9572 0.0570 -0.2837
vn 0.2820 -0.9228 0.2624
vn 0.9150 -0.3887 -0.1080
vn 0.8107 0.4925 0.3166
vn 0.1354 -0.4873 0.8627
vn 0.7262 0.1725 0.6655
vn 0.5157 0.7484 -0.4171
vn 0.4930 -0.1658 0.8541
vn -0.4842 -0.0544 0.8733
vn -0.9317 0.2800 0.2316
vn -0.3054 0.3921 0.8678
vn 0.5341 0.6799 -0.5025
vn -0.9572 -0.0570 0.2837
vn -0.0396 0.1861 -0.9817
vn -0.9150 0.3887 0.1080
vn -0.8971 -0.2736 0.3469
vn -0.8107 -0.4925 -0.3166
vn -0.4930 0.1658 -0.8541
vn -0.7262 -0.1725 -0.6655
vn -0.1354 0.4873 -0.8627
vn -0.1911 -0.9254 -0.3272
vn 0.3054 -0.3921 -0.8678
vn 0.0723 -0.7304 -0.6792
vn 0.4842 0.0544 -0.8733
vn -0.9512 0.2606 0.1651
vn 0.3658 0.8364 -0.4083
vn 0.3022 0.7784 0.5503
vn 0.6962 0.5903 -0.4084
vn -0.5552 0.0100 -0.8317
vn -0.0771 0.7329 0.6759
vn -0.3807 0.2362 0.8940
vn 0.4408 0.8798 -0.1780
vn 0.6906 0.2203 0.6889
vn -0.4963 -0.0999 0.8624
vn -0.4241 0.7843 -0.4528
vn 0.9617 0.2334 0.1436
vn -0.6444 0.7647 0.0055
vn 0.5340 0.6800 -0.5025
vn -0.1147 0.2189 -0.9690
vn 0.3658 0.8363 -0.4084
vn 0.3792 0.7481 0.5445
vn -0.4961 0.1706 -0.8513
vn -0.1108 0.6062 0.7875
vn 0.4172 -0.1958 0.8875
vn -0.3140 0.7530 -0.5783
vn 0.9370 0.2325 0.2608
s off
f 17/1/1 27/2/1 5/3/1
f 3/4/2 9/5/2 4/6/2
f 1/7/3 7/8/3 2/9/3
f 5/10/4 9/5/4 10/11/4
f 2/9/5 8/12/5 3/4/5
f 6/13/6 29/14/6 7/15/6
f 9/16/7 13/17/7 10/18/7
f 7/15/8 11/19/8 8/20/8
f 1/21/9 28/22/9 6/13/9
f 8/20/10 12/23/10 9/16/10
f 13/17/11 16/24/11 17/1/11
f 30/25/12 42/26/12 38/27/12
f 11/19/13 16/24/13 12/23/13
f 28/28/14 41/29/14 39/30/14
f 16/24/15 22/31/15 17/1/15
f 19/32/16 35/33/16 18/34/16
f 15/35/17 21/36/17 16/24/17
f 20/37/18 34/38/18 36/39/18
f 22/31/19 26/40/19 27/2/19
f 19/41/20 25/42/20 20/43/20
f 1/21/9 18/44/9 14/45/9
f 20/43/21 26/40/21 21/36/21
f 18/44/22 24/46/22 19/41/22
f 27/47/23 4/6/23 5/10/23
f 24/48/24 3/4/24 25/49/24
f 25/49/25 4/6/25 26/50/25
f 23/51/26 2/9/26 24/48/26
f 13/17/1 5/3/1 10/18/1
f 31/52/27 36/39/27 34/38/27
f 31/52/28 35/33/28 32/53/28
f 30/54/29 33/55/29 31/52/29
f 18/34/30 33/55/30 14/56/30
f 19/32/31 36/39/31 32/53/31
f 30/54/32 34/38/32 15/57/32
f 37/58/33 42/26/33 40/59/33
f 37/58/34 41/29/34 38/27/34
f 29/60/35 40/59/35 11/61/35
f 11/61/36 42/26/36 15/62/36
f 30/25/37 41/29/37 14/63/37
f 29/60/38 39/30/38 37/58/38
f 17/1/1 22/31/1 27/2/1
f 3/4/2 8/12/2 9/5/2
f 1/7/3 6/64/3 7/8/3
f 5/10/4 4/6/4 9/5/4
f 2/9/5 7/8/5 8/12/5
f 6/13/6 28/22/6 29/14/6
f 9/16/7 12/23/7 13/17/7
f 7/15/8 29/14/8 11/19/8
f 1/21/9 14/45/9 28/22/9
f 8/20/10 11/19/10 12/23/10
f 13/17/11 12/23/11 16/24/11
f 30/25/39 15/62/39 42/26/39
f 11/19/13 15/35/13 16/24/13
f 28/28/40 14/63/40 41/29/40
f 16/24/15 21/36/15 22/31/15
f 19/32/41 32/53/41 35/33/41
f 15/35/17 20/43/17 21/36/17
f 20/37/18 15/57/18 34/38/18
f 22/31/19 21/36/19 26/40/19
f 19/41/20 24/46/20 25/42/20
f 1/21/9 23/65/9 18/44/9
f 20/43/21 25/42/21 26/40/21
f 18/44/22 23/65/22 24/46/22
f 27/47/23 26/50/23 4/6/23
f 24/48/24 2/9/24 3/4/24
f 25/49/25 3/4/25 4/6/25
f 23/51/26 1/7/26 2/9/26
f 13/17/1 17/1/1 5/3/1
f 31/52/27 32/53/27 36/39/27
f 31/52/42 33/55/42 35/33/42
f 30/54/43 14/56/43 33/55/43
f 18/34/30 35/33/30 33/55/30
f 19/32/44 20/37/44 36/39/44
f 30/54/45 31/52/45 34/38/45
f 37/58/33 38/27/33 42/26/33
f 37/58/34 39/30/34 41/29/34
f 29/60/46 37/58/46 40/59/46
f 11/61/36 40/59/36 42/26/36
f 30/25/47 38/27/47 41/29/47
f 29/60/48 28/28/48 39/30/48
v 1.611017 1.236713 -3.421151
v 1.621915 1.215694 -3.404994
v 1.620999 1.188663 -3.395504
v 1.608516 1.162862 -3.395224
v 1.587810 1.145204 -3.404229
v 1.586375 1.244761 -3.411427
v 1.579233 1.229633 -3.388152
v 1.571715 1.204758 -3.376057
v 1.565834 1.176801 -3.378382
v 1.563168 1.153252 -3.394506
v 1.528544 1.209350 -3.410429
v 1.528447 1.180778 -3.408149
v 1.541582 1.155548 -3.411691
v 1.567847 1.241305 -3.455523
v 1.534657 1.197847 -3.464248
v 1.533742 1.170815 -3.454758
v 1.544639 1.149797 -3.438601
v 1.592489 1.233258 -3.465247
v 1.589823 1.209709 -3.481370
v 1.583942 1.181752 -3.483696
v 1.576424 1.156876 -3.471601
v 1.569282 1.141749 -3.448325
v 1.614074 1.230961 -3.448061
v 1.627210 1.205732 -3.451603
v 1.627113 1.177159 -3.449324
v 1.613811 1.152900 -3.441833
v 1.590867 1.139453 -3.431139
v 1.564790 1.247057 -3.428614
v 1.541846 1.233610 -3.417919
v 1.547141 1.223648 -3.464528
v 1.555787 1.233127 -3.513163
v 1.559270 1.231990 -3.514537
v 1.566539 1.243006 -3.480150
v 1.545192 1.206306 -3.493122
v 1.578737 1.239022 -3.484963
v 1.564112 1.200127 -3.500588
v 1.509683 1.257173 -3.445440
v 1.510936 1.254815 -3.456472
v 1.528366 1.257743 -3.446132
v 1.513501 1.234624 -3.442440
v 1.528941 1.256663 -3.451188
v 1.514077 1.233540 -3.447511
vt 0.274240 0.539347
vt 0.265397 0.539709
vt 0.266768 0.532487
vt 0.231414 0.551290
vt 0.214659 0.541092
vt 0.231357 0.542861
vt 0.231940 0.569242
vt 0.215985 0.562822
vt 0.231472 0.559719
vt 0.230890 0.533338
vt 0.220414 0.530957
vt 0.213134 0.552274
vt 0.289666 0.544440
vt 0.282983 0.540904
vt 0.290637 0.536818
vt 0.279682 0.529141
vt 0.275518 0.536619
vt 0.273707 0.532162
vt 0.280945 0.538772
vt 0.286431 0.530872
vt 0.290637 0.551375
vt 0.284312 0.543753
vt 0.278488 0.537315
vt 0.276318 0.541045
vt 0.804698 0.251197
vt 0.792375 0.255919
vt 0.792638 0.252041
vt 0.786357 0.239035
vt 0.792578 0.249274
vt 0.791489 0.249454
vt 0.271776 0.541127
vt 0.760733 0.199751
vt 0.757502 0.209505
vt 0.750621 0.206121
vt 0.278108 0.542645
vt 0.273009 0.544115
vt 0.772804 0.201934
vt 0.766718 0.213101
vt 0.766203 0.208706
vt 0.264007 0.548518
vt 0.277612 0.547903
vt 0.268747 0.555467
vt 0.275021 0.546378
vt 0.280714 0.548498
vt 0.281954 0.545638
vt 0.276612 0.557409
vt 0.240880 0.530957
vt 0.248168 0.561486
vt 0.249693 0.550306
vt 0.246843 0.539760
vt 0.242415 0.571620
vt 0.762287 0.211045
vt 0.762255 0.210544
vt 0.761023 0.221925
vt 0.757316 0.212491
vt 0.750922 0.216572
vt 0.772804 0.220841
vt 0.791613 0.252007
vt 0.791097 0.255536
vt 0.780068 0.250772
vt 0.780487 0.263708
vt 0.804698 0.264828
vt 0.798786 0.238814
vt 0.221949 0.571626
vt 0.283377 0.553479
vn -0.2420 -0.9541 0.1764
vn 0.3217 -0.1455 0.9356
vn 0.4505 0.6791 0.5796
vn 0.1337 -0.5701 0.8106
vn 0.4311 0.2859 0.8558
vn -0.2782 0.8421 0.4620
vn -0.5950 -0.4071 0.6930
vn -0.5080 0.4960 0.7043
vn 0.2420 0.9541 -0.1764
vn -0.6174 0.0646 0.7840
vn -0.8871 -0.4616 -0.0021
vn -0.5111 -0.3966 -0.7625
vn -0.9937 -0.0056 -0.1117
vn 0.3473 0.9243 -0.1581
vn -0.4505 -0.6791 -0.5796
vn 0.8268 0.2510 -0.5033
vn -0.4311 -0.2859 -0.8558
vn -0.4220 -0.8169 -0.3933
vn 0.2782 -0.8421 -0.4620
vn 0.6174 -0.0646 -0.7840
vn 0.5080 -0.4960 -0.7043
vn 0.5950 0.4071 -0.6930
vn 0.5703 -0.7877 0.2331
vn 0.9937 0.0056 0.1117
vn 0.8843 -0.4258 0.1915
vn 0.8871 0.4616 0.0021
vn -0.4480 -0.4148 -0.7920
vn 0.1713 0.9272 -0.3332
vn -0.7004 0.7136 0.0146
vn 0.3271 0.9438 0.0478
vn 0.6359 -0.2264 -0.7378
vn -0.8832 0.4252 -0.1977
vn -0.9816 -0.1761 -0.0739
vn -0.0377 0.9763 -0.2129
vn -0.5533 0.5074 0.6606
vn -0.8644 -0.5027 0.0093
vn 0.0562 0.4005 -0.9146
vn 0.0009 0.7601 0.6498
vn -0.6173 0.0646 0.7840
vn -0.4050 0.1862 -0.8951
vn -0.9937 -0.0055 -0.1117
vn 0.7876 0.2277 -0.5726
vn 0.8871 0.4615 0.0021
vn -0.4479 -0.4148 -0.7920
vn -0.6679 0.7392 0.0865
vn 0.6125 -0.0633 -0.7879
vn -0.9500 0.2915 -0.1121
vn -0.9816 -0.1760 -0.0739
vn -0.6544 -0.0102 0.7560
vn -0.8644 -0.5028 0.0093
vn 0.2058 0.4620 -0.8627
vn -0.1116 0.7282 0.6762
s off
f 59/66/49 69/67/49 47/68/49
f 45/69/50 51/70/50 46/71/50
f 43/72/51 49/73/51 44/74/51
f 47/75/52 51/70/52 52/76/52
f 44/74/53 50/77/53 45/69/53
f 48/78/54 71/79/54 49/80/54
f 51/81/55 55/82/55 52/83/55
f 49/80/56 53/84/56 50/85/56
f 43/86/57 70/87/57 48/78/57
f 50/85/58 54/88/58 51/81/58
f 55/82/59 58/89/59 59/66/59
f 72/90/60 84/91/60 80/92/60
f 53/84/61 58/89/61 54/88/61
f 70/93/62 83/94/62 81/95/62
f 58/89/63 64/96/63 59/66/63
f 61/97/64 77/98/64 60/99/64
f 57/100/65 63/101/65 58/89/65
f 62/102/66 76/103/66 78/104/66
f 64/96/67 68/105/67 69/67/67
f 61/106/68 67/107/68 62/108/68
f 43/86/57 60/109/57 56/110/57
f 62/108/69 68/105/69 63/101/69
f 60/109/70 66/111/70 61/106/70
f 69/112/71 46/71/71 47/75/71
f 66/113/72 45/69/72 67/114/72
f 67/114/73 46/71/73 68/115/73
f 65/116/74 44/74/74 66/113/74
f 55/82/49 47/68/49 52/83/49
f 73/117/75 78/104/75 76/103/75
f 73/117/76 77/98/76 74/118/76
f 72/119/77 75/120/77 73/117/77
f 60/99/78 75/120/78 56/121/78
f 61/97/79 78/104/79 74/118/79
f 72/119/80 76/103/80 57/122/80
f 79/123/81 84/91/81 82/124/81
f 79/123/82 83/94/82 80/92/82
f 71/125/83 82/124/83 53/126/83
f 53/126/84 84/91/84 57/127/84
f 72/90/85 83/94/85 56/128/85
f 71/125/86 81/95/86 79/123/86
f 59/66/49 64/96/49 69/67/49
f 45/69/50 50/77/50 51/70/50
f 43/72/51 48/129/51 49/73/51
f 47/75/52 46/71/52 51/70/52
f 44/74/53 49/73/53 50/77/53
f 48/78/54 70/87/54 71/79/54
f 51/81/55 54/88/55 55/82/55
f 49/80/56 71/79/56 53/84/56
f 43/86/57 56/110/57 70/87/57
f 50/85/87 53/84/87 54/88/87
f 55/82/59 54/88/59 58/89/59
f 72/90/88 57/127/88 84/91/88
f 53/84/89 57/100/89 58/89/89
f 70/93/62 56/128/62 83/94/62
f 58/89/63 63/101/63 64/96/63
f 61/97/90 74/118/90 77/98/90
f 57/100/65 62/108/65 63/101/65
f 62/102/66 57/122/66 76/103/66
f 64/96/67 63/101/67 68/105/67
f 61/106/68 66/111/68 67/107/68
f 43/86/57 65/130/57 60/109/57
f 62/108/69 67/107/69 68/105/69
f 60/109/70 65/130/70 66/111/70
f 69/112/71 68/115/71 46/71/71
f 66/113/72 44/74/72 45/69/72
f 67/114/73 45/69/73 46/71/73
f 65/116/91 43/72/91 44/74/91
f 55/82/49 59/66/49 47/68/49
f 73/117/92 74/118/92 78/104/92
f 73/117/76 75/120/76 77/98/76
f 72/119/93 56/121/93 75/120/93
f 60/99/78 77/98/78 75/120/78
f 61/97/94 62/102/94 78/104/94
f 72/119/95 73/117/95 76/103/95
f 79/123/96 80/92/96 84/91/96
f 79/123/82 81/95/82 83/94/82
f 71/125/97 79/123/97 82/124/97
f 53/126/98 82/124/98 84/91/98
f 72/90/99 80/92/99 83/94/99
f 71/125/100 70/93/100 81/95/100
