# Blender v2.81 (sub 16) OBJ File: 'garbage.blend'
# www.blender.org
v -0.618599 2.106687 0.787169
v -0.628360 2.085532 0.770473
v -0.631630 2.057541 0.765235
v -0.627533 2.030216 0.772859
v -0.617166 2.010877 0.791303
v -0.590916 2.107105 0.787260
v -0.580411 2.086256 0.770630
v -0.576263 2.058378 0.765417
v -0.579583 2.030940 0.773017
v -0.589482 2.011295 0.791393
v -0.548768 2.060860 0.813418
v -0.555772 2.033090 0.814587
v -0.575734 2.012536 0.815394
v -0.591104 2.109169 0.835170
v -0.576640 2.062505 0.861238
v -0.579909 2.034515 0.856000
v -0.589670 2.013359 0.839304
v -0.618788 2.108751 0.835080
v -0.628686 2.089107 0.853456
v -0.632007 2.061669 0.861056
v -0.627859 2.033791 0.855842
v -0.617354 2.012941 0.839213
v -0.632535 2.107510 0.811079
v -0.652498 2.086957 0.811886
v -0.659502 2.059187 0.813055
v -0.651670 2.031641 0.814272
v -0.631102 2.011700 0.815212
v -0.577168 2.108347 0.811261
v -0.556599 2.088406 0.812201
v -0.580737 2.089831 0.853613
v -0.603211 2.110947 0.893351
v -0.607123 2.110888 0.893338
v -0.598269 2.115700 0.857910
v -0.594016 2.078887 0.882355
v -0.611972 2.115493 0.857865
v -0.615272 2.078566 0.882285
v -0.531227 2.109881 0.847443
v -0.536940 2.110219 0.857246
v -0.547982 2.114525 0.840548
v -0.539799 2.088537 0.845718
v -0.550601 2.114680 0.845040
v -0.542425 2.088692 0.850223
vt 0.274240 0.539347
vt 0.265397 0.539709
vt 0.266768 0.532487
vt 0.231414 0.551290
vt 0.214659 0.541092
vt 0.231357 0.542861
vt 0.231940 0.569242
vt 0.215985 0.562822
vt 0.231472 0.559719
vt 0.230890 0.533338
vt 0.220414 0.530957
vt 0.213134 0.552274
vt 0.289666 0.544440
vt 0.282983 0.540904
vt 0.290637 0.536818
vt 0.279682 0.529141
vt 0.275518 0.536619
vt 0.273707 0.532162
vt 0.280945 0.538772
vt 0.286431 0.530872
vt 0.290637 0.551375
vt 0.284312 0.543753
vt 0.278488 0.537315
vt 0.276318 0.541045
vt 0.804698 0.251197
vt 0.792375 0.255919
vt 0.792638 0.252041
vt 0.786357 0.239035
vt 0.792578 0.249274
vt 0.791489 0.249454
vt 0.271776 0.541127
vt 0.760733 0.199751
vt 0.757502 0.209505
vt 0.750621 0.206121
vt 0.278108 0.542645
vt 0.273009 0.544115
vt 0.772804 0.201934
vt 0.766718 0.213101
vt 0.766203 0.208706
vt 0.264007 0.548518
vt 0.277612 0.547903
vt 0.268747 0.555467
vt 0.275021 0.546378
vt 0.280714 0.548498
vt 0.281954 0.545638
vt 0.276612 0.557409
vt 0.240880 0.530957
vt 0.248168 0.561486
vt 0.249693 0.550306
vt 0.246843 0.539760
vt 0.242415 0.571620
vt 0.762287 0.211045
vt 0.762255 0.210544
vt 0.761023 0.221925
vt 0.757316 0.212491
vt 0.750922 0.216572
vt 0.772804 0.220841
vt 0.791613 0.252007
vt 0.791097 0.255536
vt 0.780068 0.250772
vt 0.780487 0.263708
vt 0.804698 0.264828
vt 0.798786 0.238814
vt 0.221949 0.571626
vt 0.283377 0.553479
vn 0.0150 -0.9990 0.0431
vn 0.0072 -0.2677 -0.9635
vn -0.0068 0.6214 -0.7834
vn 0.0128 -0.6865 -0.7270
vn 0.0004 0.1839 -0.9829
vn 0.6463 0.6476 -0.4037
vn 0.6658 -0.6603 -0.3473
vn 0.8420 0.2176 -0.4936
vn -0.0149 0.9990 -0.0431
vn 0.8488 -0.2340 -0.4741
vn 0.6629 -0.6278 0.4080
vn 0.0737 -0.3262 0.9424
vn 0.8450 -0.1921 0.4991
vn -0.1106 0.9890 -0.0984
vn 0.0068 -0.6214 0.7834
vn -0.8480 0.5205 0.0996
vn -0.0004 -0.1839 0.9829
vn 0.0098 -0.7862 0.6180
vn -0.6463 -0.6476 0.4037
vn -0.8488 0.2340 0.4741
vn -0.8420 -0.2176 0.4936
vn -0.6658 0.6604 0.3473
vn -0.6433 -0.6801 -0.3516
vn -0.8450 0.1921 -0.4991
vn -0.8382 -0.2595 -0.4796
vn -0.6629 0.6278 -0.4080
vn 0.0149 -0.9990 0.0431
vn 0.0018 -0.3240 0.9461
vn -0.0154 0.9913 0.1308
vn 0.8274 0.5298 0.1864
vn -0.0136 0.9599 -0.2800
vn -0.8936 0.0739 0.4428
vn 0.8349 0.2605 0.4849
vn 0.8005 -0.3602 0.4790
vn 0.2276 0.9687 0.0993
vn 0.8701 0.2281 -0.4370
vn 0.6353 -0.6647 0.3932
vn -0.2662 0.5867 0.7648
vn 0.4418 0.5888 -0.6768
vn -0.0150 0.9990 -0.0431
vn 0.0929 0.2805 0.9554
vn -0.1106 0.9890 -0.0985
vn -0.8442 0.5045 0.1809
vn 0.0098 -0.7861 0.6180
vn -0.6658 0.6603 0.3473
vn 0.8312 0.5459 0.1051
vn -0.8455 0.2351 0.4794
vn 0.8880 0.1008 0.4487
vn 0.8512 -0.3074 -0.4255
vn -0.3641 0.6661 0.6510
vn 0.5427 0.5290 -0.6524
s off
f 17/1/1 27/2/1 5/3/1
f 3/4/2 9/5/2 4/6/2
f 1/7/3 7/8/3 2/9/3
f 5/10/4 9/5/4 10/11/4
f 2/9/5 8/12/5 3/4/5
f 6/13/6 29/14/6 7/15/6
f 9/16/7 13/17/7 10/18/7
f 7/15/8 11/19/8 8/20/8
f 1/21/9 28/22/9 6/13/9
f 8/20/10 12/23/10 9/16/10
f 13/17/11 16/24/11 17/1/11
f 30/25/12 42/26/12 38/27/12
f 11/19/13 16/24/13 12/23/13
f 28/28/14 41/29/14 39/30/14
f 16/24/15 22/31/15 17/1/15
f 19/32/16 35/33/16 18/34/16
f 15/35/17 21/36/17 16/24/17
f 20/37/18 34/38/18 36/39/18
f 22/31/19 26/40/19 27/2/19
f 19/41/20 25/42/20 20/43/20
f 1/21/9 18/44/9 14/45/9
f 20/43/21 26/40/21 21/36/21
f 18/44/22 24/46/22 19/41/22
f 27/47/23 4/6/23 5/10/23
f 24/48/24 3/4/24 25/49/24
f 25/49/25 4/6/25 26/50/25
f 23/51/26 2/9/26 24/48/26
f 13/17/27 5/3/27 10/18/27
f 31/52/28 36/39/28 34/38/28
f 31/52/29 35/33/29 32/53/29
f 30/54/30 33/55/30 31/52/30
f 18/34/31 33/55/31 14/56/31
f 19/32/32 36/39/32 32/53/32
f 30/54/33 34/38/33 15/57/33
f 37/58/34 42/26/34 40/59/34
f 37/58/35 41/29/35 38/27/35
f 29/60/36 40/59/36 11/61/36
f 11/61/37 42/26/37 15/62/37
f 30/25/38 41/29/38 14/63/38
f 29/60/39 39/30/39 37/58/39
f 17/1/27 22/31/27 27/2/27
f 3/4/2 8/12/2 9/5/2
f 1/7/3 6/64/3 7/8/3
f 5/10/4 4/6/4 9/5/4
f 2/9/5 7/8/5 8/12/5
f 6/13/6 28/22/6 29/14/6
f 9/16/7 12/23/7 13/17/7
f 7/15/8 29/14/8 11/19/8
f 1/21/40 14/45/40 28/22/40
f 8/20/10 11/19/10 12/23/10
f 13/17/11 12/23/11 16/24/11
f 30/25/41 15/62/41 42/26/41
f 11/19/13 15/35/13 16/24/13
f 28/28/42 14/63/42 41/29/42
f 16/24/15 21/36/15 22/31/15
f 19/32/43 32/53/43 35/33/43
f 15/35/17 20/43/17 21/36/17
f 20/37/44 15/57/44 34/38/44
f 22/31/19 21/36/19 26/40/19
f 19/41/20 24/46/20 25/42/20
f 1/21/9 23/65/9 18/44/9
f 20/43/21 25/42/21 26/40/21
f 18/44/45 23/65/45 24/46/45
f 27/47/23 26/50/23 4/6/23
f 24/48/24 2/9/24 3/4/24
f 25/49/25 3/4/25 4/6/25
f 23/51/26 1/7/26 2/9/26
f 13/17/27 17/1/27 5/3/27
f 31/52/28 32/53/28 36/39/28
f 31/52/29 33/55/29 35/33/29
f 30/54/46 14/56/46 33/55/46
f 18/34/31 35/33/31 33/55/31
f 19/32/47 20/37/47 36/39/47
f 30/54/48 31/52/48 34/38/48
f 37/58/34 38/27/34 42/26/34
f 37/58/35 39/30/35 41/29/35
f 29/60/49 37/58/49 40/59/49
f 11/61/37 40/59/37 42/26/37
f 30/25/50 38/27/50 41/29/50
f 29/60/51 28/28/51 39/30/51
v -2.185627 1.611011 0.003116
v -2.182026 1.599391 -0.022838
v -2.177788 1.576345 -0.039346
v -2.174049 1.548050 -0.041987
v -2.171810 1.522086 -0.030051
v -2.162378 1.609063 0.018025
v -2.141758 1.596016 0.002985
v -2.131291 1.572448 -0.009529
v -2.133781 1.544675 -0.016164
v -2.148561 1.520137 -0.015143
v -2.133151 1.552855 0.042229
v -2.135392 1.527706 0.028659
v -2.149492 1.510340 0.010736
v -2.187487 1.591418 0.054874
v -2.181509 1.537158 0.064169
v -2.177271 1.514112 0.047660
v -2.173671 1.502492 0.021707
v -2.210736 1.593366 0.039965
v -2.225516 1.568828 0.040987
v -2.228006 1.541055 0.034352
v -2.217539 1.517487 0.021838
v -2.196919 1.504440 0.006798
v -2.209805 1.603163 0.014087
v -2.223905 1.585797 -0.003836
v -2.226146 1.560648 -0.017406
v -2.215928 1.534456 -0.022986
v -2.195989 1.514237 -0.019081
v -2.163308 1.599266 0.043904
v -2.143369 1.579047 0.047809
v -2.185248 1.565454 0.066810
v -2.227889 1.570310 0.093042
v -2.231174 1.570585 0.090936
v -2.206229 1.588676 0.070759
v -2.209548 1.544881 0.077224
v -2.217737 1.589641 0.063379
v -2.227398 1.546377 0.065777
v -2.143382 1.582103 0.096158
v -2.153294 1.578885 0.100656
v -2.154689 1.590525 0.083867
v -2.146446 1.564107 0.082058
v -2.159232 1.589050 0.085928
v -2.151002 1.562629 0.084125
vt 0.274240 0.539347
vt 0.265397 0.539709
vt 0.266768 0.532487
vt 0.231414 0.551290
vt 0.214659 0.541092
vt 0.231357 0.542861
vt 0.231940 0.569242
vt 0.215985 0.562822
vt 0.231472 0.559719
vt 0.230890 0.533338
vt 0.220414 0.530957
vt 0.213134 0.552274
vt 0.289666 0.544440
vt 0.282983 0.540904
vt 0.290637 0.536818
vt 0.279682 0.529141
vt 0.275518 0.536619
vt 0.273707 0.532162
vt 0.280945 0.538772
vt 0.286431 0.530872
vt 0.290637 0.551375
vt 0.284312 0.543753
vt 0.278488 0.537315
vt 0.276318 0.541045
vt 0.804698 0.251197
vt 0.792375 0.255919
vt 0.792638 0.252041
vt 0.786357 0.239035
vt 0.792578 0.249274
vt 0.791489 0.249454
vt 0.271776 0.541127
vt 0.760733 0.199751
vt 0.757502 0.209505
vt 0.750621 0.206121
vt 0.278108 0.542645
vt 0.273009 0.544115
vt 0.772804 0.201934
vt 0.766718 0.213101
vt 0.766203 0.208706
vt 0.264007 0.548518
vt 0.277612 0.547903
vt 0.268747 0.555467
vt 0.275021 0.546378
vt 0.280714 0.548498
vt 0.281954 0.545638
vt 0.276612 0.557409
vt 0.240880 0.530957
vt 0.248168 0.561486
vt 0.249693 0.550306
vt 0.246843 0.539760
vt 0.242415 0.571620
vt 0.762287 0.211045
vt 0.762255 0.210544
vt 0.761023 0.221925
vt 0.757316 0.212491
vt 0.750922 0.216572
vt 0.772804 0.220841
vt 0.791613 0.252007
vt 0.791097 0.255536
vt 0.780068 0.250772
vt 0.780487 0.263708
vt 0.804698 0.264828
vt 0.798786 0.238814
vt 0.221949 0.571626
vt 0.283377 0.553479
vn 0.1441 -0.9272 -0.3458
vn 0.5426 0.1489 -0.8267
vn 0.3015 0.8851 -0.3545
vn 0.4901 -0.3288 -0.8073
vn 0.4775 0.5680 -0.6704
vn 0.6533 0.7000 0.2885
vn 0.8419 -0.5140 -0.1643
vn 0.9308 0.3294 0.1582
vn -0.1441 0.9272 0.3458
vn 0.9960 -0.0897 0.0018
vn 0.4461 -0.7921 0.4166
vn -0.3722 -0.6870 0.6240
vn 0.4859 -0.4482 0.7503
vn -0.1947 0.9486 0.2495
vn -0.3015 -0.8851 0.3545
vn -0.8468 0.5029 -0.1732
vn -0.4775 -0.5680 0.6704
vn -0.1885 -0.9677 0.1675
vn -0.6533 -0.7000 -0.2885
vn -0.9960 0.0897 -0.0018
vn -0.9308 -0.3294 -0.1582
vn -0.8419 0.5140 0.1643
vn -0.2575 -0.4218 -0.8693
vn -0.4859 0.4482 -0.7503
vn -0.4208 0.0290 -0.9067
vn -0.4461 0.7921 -0.4166
vn -0.4351 -0.6805 0.5895
vn -0.2327 0.8493 0.4739
vn 0.5209 0.3372 0.7842
vn -0.0151 0.9882 0.1527
vn -0.9930 -0.0395 -0.1111
vn 0.4151 -0.0300 0.9093
vn 0.4846 -0.5892 0.6466
vn -0.0079 0.8215 0.5702
vn 0.9238 0.3136 0.2198
vn 0.4361 -0.8173 0.3765
vn -0.7080 0.2436 0.6628
vn 0.6302 0.7749 -0.0488
vn -0.4559 -0.1422 0.8786
vn 0.4859 -0.4482 0.7504
vn -0.8830 0.4549 -0.1160
vn -0.4859 0.4482 -0.7504
vn -0.4351 -0.6805 0.5896
vn -0.2327 0.8493 0.4738
vn 0.5634 0.3847 0.7311
vn -0.9961 0.0883 0.0043
vn 0.5031 -0.1648 0.8483
vn 0.4846 -0.5891 0.6466
vn 0.9842 -0.1765 0.0114
vn -0.7443 0.3704 0.5557
vn 0.7120 0.7022 0.0000
s off
f 59/66/52 69/67/52 47/68/52
f 45/69/53 51/70/53 46/71/53
f 43/72/54 49/73/54 44/74/54
f 47/75/55 51/70/55 52/76/55
f 44/74/56 50/77/56 45/69/56
f 48/78/57 71/79/57 49/80/57
f 51/81/58 55/82/58 52/83/58
f 49/80/59 53/84/59 50/85/59
f 43/86/60 70/87/60 48/78/60
f 50/85/61 54/88/61 51/81/61
f 55/82/62 58/89/62 59/66/62
f 72/90/63 84/91/63 80/92/63
f 53/84/64 58/89/64 54/88/64
f 70/93/65 83/94/65 81/95/65
f 58/89/66 64/96/66 59/66/66
f 61/97/67 77/98/67 60/99/67
f 57/100/68 63/101/68 58/89/68
f 62/102/69 76/103/69 78/104/69
f 64/96/70 68/105/70 69/67/70
f 61/106/71 67/107/71 62/108/71
f 43/86/60 60/109/60 56/110/60
f 62/108/72 68/105/72 63/101/72
f 60/109/73 66/111/73 61/106/73
f 69/112/74 46/71/74 47/75/74
f 66/113/75 45/69/75 67/114/75
f 67/114/76 46/71/76 68/115/76
f 65/116/77 44/74/77 66/113/77
f 55/82/52 47/68/52 52/83/52
f 73/117/78 78/104/78 76/103/78
f 73/117/79 77/98/79 74/118/79
f 72/119/80 75/120/80 73/117/80
f 60/99/81 75/120/81 56/121/81
f 61/97/82 78/104/82 74/118/82
f 72/119/83 76/103/83 57/122/83
f 79/123/84 84/91/84 82/124/84
f 79/123/85 83/94/85 80/92/85
f 71/125/86 82/124/86 53/126/86
f 53/126/87 84/91/87 57/127/87
f 72/90/88 83/94/88 56/128/88
f 71/125/89 81/95/89 79/123/89
f 59/66/52 64/96/52 69/67/52
f 45/69/53 50/77/53 51/70/53
f 43/72/54 48/129/54 49/73/54
f 47/75/55 46/71/55 51/70/55
f 44/74/56 49/73/56 50/77/56
f 48/78/57 70/87/57 71/79/57
f 51/81/58 54/88/58 55/82/58
f 49/80/59 71/79/59 53/84/59
f 43/86/60 56/110/60 70/87/60
f 50/85/61 53/84/61 54/88/61
f 55/82/62 54/88/62 58/89/62
f 72/90/90 57/127/90 84/91/90
f 53/84/91 57/100/91 58/89/91
f 70/93/65 56/128/65 83/94/65
f 58/89/66 63/101/66 64/96/66
f 61/97/92 74/118/92 77/98/92
f 57/100/68 62/108/68 63/101/68
f 62/102/69 57/122/69 76/103/69
f 64/96/70 63/101/70 68/105/70
f 61/106/71 66/111/71 67/107/71
f 43/86/60 65/130/60 60/109/60
f 62/108/72 67/107/72 68/105/72
f 60/109/73 65/130/73 66/111/73
f 69/112/74 68/115/74 46/71/74
f 66/113/93 44/74/93 45/69/93
f 67/114/76 45/69/76 46/71/76
f 65/116/77 43/72/77 44/74/77
f 55/82/52 59/66/52 47/68/52
f 73/117/94 74/118/94 78/104/94
f 73/117/95 75/120/95 77/98/95
f 72/119/96 56/121/96 75/120/96
f 60/99/81 77/98/81 75/120/81
f 61/97/97 62/102/97 78/104/97
f 72/119/98 73/117/98 76/103/98
f 79/123/99 80/92/99 84/91/99
f 79/123/85 81/95/85 83/94/85
f 71/125/100 79/123/100 82/124/100
f 53/126/87 82/124/87 84/91/87
f 72/90/101 80/92/101 83/94/101
f 71/125/102 70/93/102 81/95/102
