# Blender v2.81 (sub 16) OBJ File: 'garbage.blend'
# www.blender.org
v -0.580081 2.311009 -0.736246
v -0.577477 2.289598 -0.755124
v -0.580640 2.261916 -0.761855
v -0.588723 2.235381 -0.754634
v -0.599559 2.217102 -0.735398
v -0.562580 2.307570 -0.715069
v -0.547164 2.283642 -0.718445
v -0.545638 2.255039 -0.719502
v -0.558410 2.229424 -0.717956
v -0.582058 2.213663 -0.714221
v -0.563997 2.259317 -0.667435
v -0.574310 2.233130 -0.672865
v -0.591238 2.215802 -0.688188
v -0.598440 2.315287 -0.684179
v -0.617359 2.270473 -0.657722
v -0.620522 2.242791 -0.664453
v -0.617918 2.221380 -0.683331
v -0.615941 2.318726 -0.705356
v -0.639589 2.302965 -0.701621
v -0.652361 2.277350 -0.700075
v -0.650835 2.248747 -0.701132
v -0.635420 2.224819 -0.704508
v -0.606762 2.316587 -0.731389
v -0.623690 2.299260 -0.746712
v -0.634002 2.273072 -0.752142
v -0.634935 2.245042 -0.746223
v -0.626240 2.222680 -0.730541
v -0.571759 2.309710 -0.689036
v -0.563064 2.287347 -0.673354
v -0.609276 2.297008 -0.664943
v -0.649625 2.325598 -0.655746
v -0.652098 2.326084 -0.658738
v -0.618931 2.325395 -0.674743
v -0.641305 2.291497 -0.656820
v -0.627594 2.327097 -0.685226
v -0.654742 2.294137 -0.673080
v -0.569724 2.309087 -0.630575
v -0.580662 2.311373 -0.628584
v -0.574278 2.315175 -0.647665
v -0.577688 2.289093 -0.638875
v -0.579291 2.316223 -0.646753
v -0.582715 2.290144 -0.637960
vt 0.274240 0.539347
vt 0.265397 0.539709
vt 0.266768 0.532487
vt 0.231414 0.551290
vt 0.214659 0.541092
vt 0.231357 0.542861
vt 0.231940 0.569242
vt 0.215985 0.562822
vt 0.231472 0.559719
vt 0.230890 0.533338
vt 0.220414 0.530957
vt 0.213134 0.552274
vt 0.289666 0.544440
vt 0.282983 0.540904
vt 0.290637 0.536818
vt 0.279682 0.529141
vt 0.275518 0.536619
vt 0.273707 0.532162
vt 0.280945 0.538772
vt 0.286431 0.530872
vt 0.290637 0.551375
vt 0.284312 0.543753
vt 0.278488 0.537315
vt 0.276318 0.541045
vt 0.804698 0.251197
vt 0.792375 0.255919
vt 0.792638 0.252041
vt 0.786357 0.239035
vt 0.792578 0.249274
vt 0.791489 0.249454
vt 0.271776 0.541127
vt 0.760733 0.199751
vt 0.757502 0.209505
vt 0.750621 0.206121
vt 0.278108 0.542645
vt 0.273009 0.544115
vt 0.772804 0.201934
vt 0.766718 0.213101
vt 0.766203 0.208706
vt 0.264007 0.548518
vt 0.277612 0.547903
vt 0.268747 0.555467
vt 0.275021 0.546378
vt 0.280714 0.548498
vt 0.281954 0.545638
vt 0.276612 0.557409
vt 0.240880 0.530957
vt 0.248168 0.561486
vt 0.249693 0.550306
vt 0.246843 0.539760
vt 0.242415 0.571620
vt 0.762287 0.211045
vt 0.762255 0.210544
vt 0.761023 0.221925
vt 0.757316 0.212491
vt 0.750922 0.216572
vt 0.772804 0.220841
vt 0.791613 0.252007
vt 0.791097 0.255536
vt 0.780068 0.250772
vt 0.780487 0.263708
vt 0.804698 0.264828
vt 0.798786 0.238814
vt 0.221949 0.571626
vt 0.283377 0.553479
vn -0.2031 -0.9791 0.0088
vn 0.6825 -0.3781 -0.6255
vn 0.6982 0.5193 -0.4927
vn 0.4323 -0.7626 -0.4811
vn 0.7743 0.0646 -0.6295
vn 0.8294 0.4988 0.2515
vn 0.5635 -0.7831 0.2630
vn 0.9434 0.0382 0.3295
vn 0.2031 0.9791 -0.0088
vn 0.8516 -0.4045 0.3335
vn -0.0018 -0.6615 0.7500
vn -0.7226 -0.2196 0.6555
vn 0.1231 -0.2477 0.9610
vn 0.1826 0.9761 -0.1178
vn -0.6982 -0.5193 0.4927
vn -0.5172 0.6418 -0.5663
vn -0.7743 -0.0646 0.6295
vn -0.6013 -0.7013 0.3830
vn -0.8294 -0.4989 -0.2515
vn -0.8516 0.4045 -0.3335
vn -0.9434 -0.0382 -0.3295
vn -0.5635 0.7831 -0.2630
vn -0.2641 -0.6205 -0.7384
vn -0.1231 0.2477 -0.9610
vn -0.2149 -0.1949 -0.9570
vn 0.0018 0.6615 -0.7500
vn -0.7704 -0.2070 0.6031
vn 0.0704 0.9922 0.1030
vn 0.4778 0.4275 0.7674
vn 0.3755 0.9125 -0.1621
vn -0.8851 0.2496 -0.3927
vn 0.2090 0.1970 0.9579
vn 0.0799 -0.4092 0.9090
vn 0.2436 0.9323 0.2672
vn 0.9203 0.0512 0.3878
vn -0.0147 -0.6956 0.7182
vn -0.6390 0.7043 0.3093
vn 0.8955 0.4373 -0.0828
vn -0.6109 0.3757 0.6969
vn -0.5789 0.6351 -0.5113
vn 0.2031 0.9791 -0.0089
vn -0.5635 0.7831 -0.2631
vn 0.0703 0.9922 0.1030
vn 0.5444 0.4332 0.7183
vn -0.8533 0.4057 -0.3275
vn 0.2411 0.0283 0.9701
vn 0.0799 -0.4092 0.9089
vn 0.8032 -0.4712 0.3645
vn -0.0147 -0.6957 0.7182
vn -0.6007 0.7826 0.1635
vn 0.9301 0.3673 0.0081
s off
f 17/1/1 27/2/1 5/3/1
f 3/4/2 9/5/2 4/6/2
f 1/7/3 7/8/3 2/9/3
f 5/10/4 9/5/4 10/11/4
f 2/9/5 8/12/5 3/4/5
f 6/13/6 29/14/6 7/15/6
f 9/16/7 13/17/7 10/18/7
f 7/15/8 11/19/8 8/20/8
f 1/21/9 28/22/9 6/13/9
f 8/20/10 12/23/10 9/16/10
f 13/17/11 16/24/11 17/1/11
f 30/25/12 42/26/12 38/27/12
f 11/19/13 16/24/13 12/23/13
f 28/28/14 41/29/14 39/30/14
f 16/24/15 22/31/15 17/1/15
f 19/32/16 35/33/16 18/34/16
f 15/35/17 21/36/17 16/24/17
f 20/37/18 34/38/18 36/39/18
f 22/31/19 26/40/19 27/2/19
f 19/41/20 25/42/20 20/43/20
f 1/21/9 18/44/9 14/45/9
f 20/43/21 26/40/21 21/36/21
f 18/44/22 24/46/22 19/41/22
f 27/47/23 4/6/23 5/10/23
f 24/48/24 3/4/24 25/49/24
f 25/49/25 4/6/25 26/50/25
f 23/51/26 2/9/26 24/48/26
f 13/17/1 5/3/1 10/18/1
f 31/52/27 36/39/27 34/38/27
f 31/52/28 35/33/28 32/53/28
f 30/54/29 33/55/29 31/52/29
f 18/34/30 33/55/30 14/56/30
f 19/32/31 36/39/31 32/53/31
f 30/54/32 34/38/32 15/57/32
f 37/58/33 42/26/33 40/59/33
f 37/58/34 41/29/34 38/27/34
f 29/60/35 40/59/35 11/61/35
f 11/61/36 42/26/36 15/62/36
f 30/25/37 41/29/37 14/63/37
f 29/60/38 39/30/38 37/58/38
f 17/1/1 22/31/1 27/2/1
f 3/4/2 8/12/2 9/5/2
f 1/7/3 6/64/3 7/8/3
f 5/10/4 4/6/4 9/5/4
f 2/9/5 7/8/5 8/12/5
f 6/13/6 28/22/6 29/14/6
f 9/16/7 12/23/7 13/17/7
f 7/15/8 29/14/8 11/19/8
f 1/21/9 14/45/9 28/22/9
f 8/20/10 11/19/10 12/23/10
f 13/17/11 12/23/11 16/24/11
f 30/25/39 15/62/39 42/26/39
f 11/19/13 15/35/13 16/24/13
f 28/28/14 14/63/14 41/29/14
f 16/24/15 21/36/15 22/31/15
f 19/32/40 32/53/40 35/33/40
f 15/35/17 20/43/17 21/36/17
f 20/37/18 15/57/18 34/38/18
f 22/31/19 21/36/19 26/40/19
f 19/41/20 24/46/20 25/42/20
f 1/21/41 23/65/41 18/44/41
f 20/43/21 25/42/21 26/40/21
f 18/44/42 23/65/42 24/46/42
f 27/47/23 26/50/23 4/6/23
f 24/48/24 2/9/24 3/4/24
f 25/49/25 3/4/25 4/6/25
f 23/51/26 1/7/26 2/9/26
f 13/17/1 17/1/1 5/3/1
f 31/52/27 32/53/27 36/39/27
f 31/52/43 33/55/43 35/33/43
f 30/54/44 14/56/44 33/55/44
f 18/34/30 35/33/30 33/55/30
f 19/32/45 20/37/45 36/39/45
f 30/54/46 31/52/46 34/38/46
f 37/58/47 38/27/47 42/26/47
f 37/58/34 39/30/34 41/29/34
f 29/60/48 37/58/48 40/59/48
f 11/61/49 40/59/49 42/26/49
f 30/25/50 38/27/50 41/29/50
f 29/60/51 28/28/51 39/30/51
v 0.400640 1.707204 -3.533198
v 0.410368 1.680611 -3.528751
v 0.405355 1.652610 -3.525226
v 0.386944 1.630704 -3.523569
v 0.360067 1.620762 -3.524223
v 0.386342 1.716192 -3.511259
v 0.385603 1.696180 -3.490751
v 0.376759 1.670588 -3.481348
v 0.362178 1.646273 -3.485569
v 0.345769 1.629751 -3.502284
v 0.326755 1.693334 -3.488316
v 0.318874 1.665972 -3.491604
v 0.320768 1.641124 -3.505767
v 0.350637 1.729950 -3.540165
v 0.305349 1.698102 -3.539161
v 0.300336 1.670101 -3.535637
v 0.310064 1.643509 -3.531190
v 0.364935 1.720961 -3.562104
v 0.348526 1.704439 -3.578818
v 0.333946 1.680124 -3.583040
v 0.325101 1.654532 -3.573637
v 0.324363 1.634520 -3.553129
v 0.389937 1.709588 -3.558620
v 0.391830 1.684740 -3.572784
v 0.383949 1.657378 -3.576072
v 0.368405 1.634833 -3.567602
v 0.349364 1.623146 -3.549645
v 0.361340 1.727566 -3.514742
v 0.342299 1.715879 -3.496785
v 0.323760 1.720008 -3.540819
v 0.313173 1.742305 -3.584645
v 0.315194 1.741034 -3.587746
v 0.339493 1.739379 -3.560114
v 0.304522 1.713001 -3.567332
v 0.346570 1.734930 -3.570974
v 0.315500 1.706099 -3.584177
v 0.310413 1.752220 -3.499885
v 0.306025 1.753198 -3.510308
v 0.326166 1.749571 -3.509616
v 0.308017 1.729548 -3.503388
v 0.324155 1.750019 -3.514392
v 0.306000 1.729997 -3.508178
vt 0.274240 0.539347
vt 0.265397 0.539709
vt 0.266768 0.532487
vt 0.231414 0.551290
vt 0.214659 0.541092
vt 0.231357 0.542861
vt 0.231940 0.569242
vt 0.215985 0.562822
vt 0.231472 0.559719
vt 0.230890 0.533338
vt 0.220414 0.530957
vt 0.213134 0.552274
vt 0.289666 0.544440
vt 0.282983 0.540904
vt 0.290637 0.536818
vt 0.279682 0.529141
vt 0.275518 0.536619
vt 0.273707 0.532162
vt 0.280945 0.538772
vt 0.286431 0.530872
vt 0.290637 0.551375
vt 0.284312 0.543753
vt 0.278488 0.537315
vt 0.276318 0.541045
vt 0.804698 0.251197
vt 0.792375 0.255919
vt 0.792638 0.252041
vt 0.786357 0.239035
vt 0.792578 0.249274
vt 0.791489 0.249454
vt 0.271776 0.541127
vt 0.760733 0.199751
vt 0.757502 0.209505
vt 0.750621 0.206121
vt 0.278108 0.542645
vt 0.273009 0.544115
vt 0.772804 0.201934
vt 0.766718 0.213101
vt 0.766203 0.208706
vt 0.264007 0.548518
vt 0.277612 0.547903
vt 0.268747 0.555467
vt 0.275021 0.546378
vt 0.280714 0.548498
vt 0.281954 0.545638
vt 0.276612 0.557409
vt 0.240880 0.530957
vt 0.248168 0.561486
vt 0.249693 0.550306
vt 0.246843 0.539760
vt 0.242415 0.571620
vt 0.762287 0.211045
vt 0.762255 0.210544
vt 0.761023 0.221925
vt 0.757316 0.212491
vt 0.750922 0.216572
vt 0.772804 0.220841
vt 0.791613 0.252007
vt 0.791097 0.255536
vt 0.780068 0.250772
vt 0.780487 0.263708
vt 0.804698 0.264828
vt 0.798786 0.238814
vt 0.221949 0.571626
vt 0.283377 0.553479
vn -0.4230 -0.9013 0.0936
vn 0.6297 -0.4832 0.6083
vn 0.8398 0.3732 0.3944
vn 0.2859 -0.8069 0.5169
vn 0.8209 -0.0757 0.5660
vn 0.2203 0.6941 0.6853
vn -0.3336 -0.4859 0.8078
vn 0.0226 0.3379 0.9409
vn 0.4230 0.9013 -0.0936
vn -0.1686 -0.0696 0.9832
vn -0.8964 -0.2690 0.3522
vn -0.8830 -0.0420 -0.4676
vn -0.8939 0.2099 0.3960
vn 0.5112 0.8487 -0.1357
vn -0.8398 -0.3732 -0.3944
vn 0.5639 0.2395 -0.7904
vn -0.8209 0.0757 -0.5660
vn -0.7780 -0.5645 -0.2757
vn -0.2203 -0.6941 -0.6853
vn 0.1687 0.0696 -0.9832
vn -0.0226 -0.3379 -0.9409
vn 0.3336 0.4859 -0.8078
vn 0.3426 -0.9110 -0.2297
vn 0.8939 -0.2099 -0.3960
vn 0.7027 -0.6173 -0.3537
vn 0.8964 0.2690 -0.3522
vn -0.8475 -0.0613 -0.5272
vn 0.2875 0.9374 -0.1967
vn -0.3697 0.7890 0.4907
vn 0.5883 0.8069 0.0528
vn 0.1545 -0.0991 -0.9830
vn -0.7046 0.6185 0.3478
vn -0.9198 0.0368 0.3907
vn 0.1766 0.9841 0.0180
vn -0.0312 0.3703 0.9284
vn -0.8849 -0.3151 0.3430
vn -0.2212 0.6461 -0.7305
vn 0.5127 0.5088 0.6915
vn -0.1687 -0.0696 0.9832
vn -0.6706 0.5239 -0.5252
vn 0.5112 0.8487 -0.1356
vn 0.4937 0.2462 -0.8340
vn 0.1686 0.0696 -0.9832
vn 0.8964 0.2691 -0.3522
vn -0.8475 -0.0613 -0.5273
vn -0.3034 0.7848 0.5405
vn 0.1633 0.0729 -0.9839
vn -0.7657 0.4794 0.4289
vn -0.9198 0.0369 0.3907
vn 0.1766 0.9841 0.0179
vn -0.2351 -0.1241 0.9640
vn -0.0530 0.6603 -0.7491
vn 0.4187 0.4913 0.7637
s off
f 59/66/52 69/67/52 47/68/52
f 45/69/53 51/70/53 46/71/53
f 43/72/54 49/73/54 44/74/54
f 47/75/55 51/70/55 52/76/55
f 44/74/56 50/77/56 45/69/56
f 48/78/57 71/79/57 49/80/57
f 51/81/58 55/82/58 52/83/58
f 49/80/59 53/84/59 50/85/59
f 43/86/60 70/87/60 48/78/60
f 50/85/61 54/88/61 51/81/61
f 55/82/62 58/89/62 59/66/62
f 72/90/63 84/91/63 80/92/63
f 53/84/64 58/89/64 54/88/64
f 70/93/65 83/94/65 81/95/65
f 58/89/66 64/96/66 59/66/66
f 61/97/67 77/98/67 60/99/67
f 57/100/68 63/101/68 58/89/68
f 62/102/69 76/103/69 78/104/69
f 64/96/70 68/105/70 69/67/70
f 61/106/71 67/107/71 62/108/71
f 43/86/60 60/109/60 56/110/60
f 62/108/72 68/105/72 63/101/72
f 60/109/73 66/111/73 61/106/73
f 69/112/74 46/71/74 47/75/74
f 66/113/75 45/69/75 67/114/75
f 67/114/76 46/71/76 68/115/76
f 65/116/77 44/74/77 66/113/77
f 55/82/52 47/68/52 52/83/52
f 73/117/78 78/104/78 76/103/78
f 73/117/79 77/98/79 74/118/79
f 72/119/80 75/120/80 73/117/80
f 60/99/81 75/120/81 56/121/81
f 61/97/82 78/104/82 74/118/82
f 72/119/83 76/103/83 57/122/83
f 79/123/84 84/91/84 82/124/84
f 79/123/85 83/94/85 80/92/85
f 71/125/86 82/124/86 53/126/86
f 53/126/87 84/91/87 57/127/87
f 72/90/88 83/94/88 56/128/88
f 71/125/89 81/95/89 79/123/89
f 59/66/52 64/96/52 69/67/52
f 45/69/53 50/77/53 51/70/53
f 43/72/54 48/129/54 49/73/54
f 47/75/55 46/71/55 51/70/55
f 44/74/56 49/73/56 50/77/56
f 48/78/57 70/87/57 71/79/57
f 51/81/58 54/88/58 55/82/58
f 49/80/59 71/79/59 53/84/59
f 43/86/60 56/110/60 70/87/60
f 50/85/90 53/84/90 54/88/90
f 55/82/62 54/88/62 58/89/62
f 72/90/91 57/127/91 84/91/91
f 53/84/64 57/100/64 58/89/64
f 70/93/92 56/128/92 83/94/92
f 58/89/66 63/101/66 64/96/66
f 61/97/93 74/118/93 77/98/93
f 57/100/68 62/108/68 63/101/68
f 62/102/69 57/122/69 76/103/69
f 64/96/70 63/101/70 68/105/70
f 61/106/94 66/111/94 67/107/94
f 43/86/60 65/130/60 60/109/60
f 62/108/72 67/107/72 68/105/72
f 60/109/73 65/130/73 66/111/73
f 69/112/74 68/115/74 46/71/74
f 66/113/75 44/74/75 45/69/75
f 67/114/76 45/69/76 46/71/76
f 65/116/95 43/72/95 44/74/95
f 55/82/52 59/66/52 47/68/52
f 73/117/96 74/118/96 78/104/96
f 73/117/79 75/120/79 77/98/79
f 72/119/97 56/121/97 75/120/97
f 60/99/81 77/98/81 75/120/81
f 61/97/98 62/102/98 78/104/98
f 72/119/99 73/117/99 76/103/99
f 79/123/100 80/92/100 84/91/100
f 79/123/101 81/95/101 83/94/101
f 71/125/102 79/123/102 82/124/102
f 53/126/87 82/124/87 84/91/87
f 72/90/103 80/92/103 83/94/103
f 71/125/104 70/93/104 81/95/104
