# Blender v2.81 (sub 16) OBJ File: 'garbage.blend'
# www.blender.org
v -0.483231 2.117441 0.980300
v -0.496902 2.096277 0.966631
v -0.501241 2.068284 0.962260
v -0.495087 2.040960 0.968355
v -0.480087 2.021629 0.983285
v -0.456507 2.118093 0.973089
v -0.450615 2.097407 0.954142
v -0.447794 2.069588 0.947839
v -0.448800 2.042090 0.955866
v -0.453364 2.022281 0.976075
v -0.408630 2.072090 0.986904
v -0.414883 2.044257 0.989698
v -0.433782 2.023532 0.995608
v -0.444066 2.119943 1.019365
v -0.422912 2.073288 1.040391
v -0.427252 2.045295 1.036019
v -0.440923 2.024131 1.022351
v -0.470789 2.119291 1.026576
v -0.475353 2.099482 1.046784
v -0.476359 2.071984 1.054812
v -0.473538 2.044165 1.048508
v -0.467646 2.023479 1.029562
v -0.490372 2.118040 1.007043
v -0.509270 2.097315 1.012952
v -0.515524 2.069482 1.015746
v -0.507456 2.041998 1.014676
v -0.487229 2.022228 1.010029
v -0.436925 2.119344 0.992622
v -0.416698 2.099574 0.987974
v -0.429066 2.100612 1.034295
v -0.440410 2.121361 1.078689
v -0.444186 2.121268 1.079708
v -0.445025 2.126312 1.043231
v -0.434218 2.089428 1.065449
v -0.458253 2.125990 1.046800
v -0.454736 2.088928 1.070985
v -0.383078 2.121107 1.015417
v -0.386006 2.121353 1.026381
v -0.401091 2.125640 1.013215
v -0.391652 2.099699 1.015875
v -0.402433 2.125752 1.018240
v -0.392998 2.099812 1.020914
vt 0.274240 0.539347
vt 0.265397 0.539709
vt 0.266768 0.532487
vt 0.231414 0.551290
vt 0.214659 0.541092
vt 0.231357 0.542861
vt 0.231940 0.569242
vt 0.215985 0.562822
vt 0.231472 0.559719
vt 0.230890 0.533338
vt 0.220414 0.530957
vt 0.213134 0.552274
vt 0.289666 0.544440
vt 0.282983 0.540904
vt 0.290637 0.536818
vt 0.279682 0.529141
vt 0.275518 0.536619
vt 0.273707 0.532162
vt 0.280945 0.538772
vt 0.286431 0.530872
vt 0.290637 0.551375
vt 0.284312 0.543753
vt 0.278488 0.537315
vt 0.276318 0.541045
vt 0.804698 0.251197
vt 0.792375 0.255919
vt 0.792638 0.252041
vt 0.786357 0.239035
vt 0.792578 0.249274
vt 0.791489 0.249454
vt 0.271776 0.541127
vt 0.760733 0.199751
vt 0.757502 0.209505
vt 0.750621 0.206121
vt 0.278108 0.542645
vt 0.273009 0.544115
vt 0.772804 0.201934
vt 0.766718 0.213101
vt 0.766203 0.208706
vt 0.264007 0.548518
vt 0.277612 0.547903
vt 0.268747 0.555467
vt 0.275021 0.546378
vt 0.280714 0.548498
vt 0.281954 0.545638
vt 0.276612 0.557409
vt 0.240880 0.530957
vt 0.248168 0.561486
vt 0.249693 0.550306
vt 0.246843 0.539760
vt 0.242415 0.571620
vt 0.762287 0.211045
vt 0.762255 0.210544
vt 0.761023 0.221925
vt 0.757316 0.212491
vt 0.750922 0.216572
vt 0.772804 0.220841
vt 0.791613 0.252007
vt 0.791097 0.255536
vt 0.780068 0.250772
vt 0.780487 0.263708
vt 0.804698 0.264828
vt 0.798786 0.238814
vt 0.221949 0.571626
vt 0.283377 0.553479
vn 0.0328 -0.9990 0.0311
vn -0.2453 -0.2634 -0.9330
vn -0.2176 0.6248 -0.7498
vn -0.1747 -0.6831 -0.7091
vn -0.2601 0.1882 -0.9470
vn 0.5124 0.6548 -0.5556
vn 0.5553 -0.6531 -0.5148
vn 0.6805 0.2269 -0.6967
vn -0.0328 0.9990 -0.0311
vn 0.6953 -0.2247 -0.6827
vn 0.7514 -0.6240 0.2146
vn 0.3219 -0.3297 0.8875
vn 0.9480 -0.1872 0.2573
vn -0.1395 0.9884 -0.0593
vn 0.2176 -0.6248 0.7498
vn -0.7953 0.5129 0.3231
vn 0.2601 -0.1882 0.9471
vn 0.1780 -0.7888 0.5884
vn -0.5124 -0.6548 0.5556
vn -0.6953 0.2247 0.6827
vn -0.6805 -0.2269 0.6967
vn -0.5553 0.6531 0.5149
vn -0.7085 -0.6840 -0.1739
vn -0.9480 0.1872 -0.2573
vn -0.9332 -0.2645 -0.2433
vn -0.7514 0.6240 -0.2146
vn 0.2535 -0.3281 0.9100
vn 0.0127 0.9905 0.1367
vn 0.8435 0.5359 -0.0350
vn -0.0937 0.9610 -0.2602
vn -0.7456 0.0643 0.6633
vn 0.9314 0.2654 0.2493
vn 0.9010 -0.3555 0.2486
vn 0.2390 0.9701 0.0421
vn 0.7224 0.2373 -0.6495
vn 0.7211 -0.6610 0.2074
vn -0.0591 0.5810 0.8117
vn 0.2434 0.5956 -0.7655
vn -0.1747 -0.6832 -0.7091
vn -0.2601 0.1882 -0.9471
vn 0.3396 0.2770 0.8988
vn -0.1395 0.9884 -0.0594
vn -0.7701 0.4966 0.4004
vn 0.2601 -0.1882 0.9470
vn -0.5553 0.6532 0.5148
vn 0.2536 -0.3281 0.9100
vn 0.8257 0.5524 -0.1143
vn -0.6908 0.2258 0.6869
vn 0.9742 0.1063 0.1992
vn 0.2390 0.9701 0.0420
vn 0.7109 -0.2983 -0.6369
vn 0.7211 -0.6611 0.2074
vn -0.1841 0.6601 0.7282
vn 0.3477 0.5365 -0.7690
s off
f 17/1/1 27/2/1 5/3/1
f 3/4/2 9/5/2 4/6/2
f 1/7/3 7/8/3 2/9/3
f 5/10/4 9/5/4 10/11/4
f 2/9/5 8/12/5 3/4/5
f 6/13/6 29/14/6 7/15/6
f 9/16/7 13/17/7 10/18/7
f 7/15/8 11/19/8 8/20/8
f 1/21/9 28/22/9 6/13/9
f 8/20/10 12/23/10 9/16/10
f 13/17/11 16/24/11 17/1/11
f 30/25/12 42/26/12 38/27/12
f 11/19/13 16/24/13 12/23/13
f 28/28/14 41/29/14 39/30/14
f 16/24/15 22/31/15 17/1/15
f 19/32/16 35/33/16 18/34/16
f 15/35/17 21/36/17 16/24/17
f 20/37/18 34/38/18 36/39/18
f 22/31/19 26/40/19 27/2/19
f 19/41/20 25/42/20 20/43/20
f 1/21/9 18/44/9 14/45/9
f 20/43/21 26/40/21 21/36/21
f 18/44/22 24/46/22 19/41/22
f 27/47/23 4/6/23 5/10/23
f 24/48/24 3/4/24 25/49/24
f 25/49/25 4/6/25 26/50/25
f 23/51/26 2/9/26 24/48/26
f 13/17/1 5/3/1 10/18/1
f 31/52/27 36/39/27 34/38/27
f 31/52/28 35/33/28 32/53/28
f 30/54/29 33/55/29 31/52/29
f 18/34/30 33/55/30 14/56/30
f 19/32/31 36/39/31 32/53/31
f 30/54/32 34/38/32 15/57/32
f 37/58/33 42/26/33 40/59/33
f 37/58/34 41/29/34 38/27/34
f 29/60/35 40/59/35 11/61/35
f 11/61/36 42/26/36 15/62/36
f 30/25/37 41/29/37 14/63/37
f 29/60/38 39/30/38 37/58/38
f 17/1/1 22/31/1 27/2/1
f 3/4/2 8/12/2 9/5/2
f 1/7/3 6/64/3 7/8/3
f 5/10/39 4/6/39 9/5/39
f 2/9/40 7/8/40 8/12/40
f 6/13/6 28/22/6 29/14/6
f 9/16/7 12/23/7 13/17/7
f 7/15/8 29/14/8 11/19/8
f 1/21/9 14/45/9 28/22/9
f 8/20/10 11/19/10 12/23/10
f 13/17/11 12/23/11 16/24/11
f 30/25/41 15/62/41 42/26/41
f 11/19/13 15/35/13 16/24/13
f 28/28/42 14/63/42 41/29/42
f 16/24/15 21/36/15 22/31/15
f 19/32/43 32/53/43 35/33/43
f 15/35/44 20/43/44 21/36/44
f 20/37/18 15/57/18 34/38/18
f 22/31/19 21/36/19 26/40/19
f 19/41/20 24/46/20 25/42/20
f 1/21/9 23/65/9 18/44/9
f 20/43/21 25/42/21 26/40/21
f 18/44/45 23/65/45 24/46/45
f 27/47/23 26/50/23 4/6/23
f 24/48/24 2/9/24 3/4/24
f 25/49/25 3/4/25 4/6/25
f 23/51/26 1/7/26 2/9/26
f 13/17/1 17/1/1 5/3/1
f 31/52/46 32/53/46 36/39/46
f 31/52/28 33/55/28 35/33/28
f 30/54/47 14/56/47 33/55/47
f 18/34/30 35/33/30 33/55/30
f 19/32/48 20/37/48 36/39/48
f 30/54/49 31/52/49 34/38/49
f 37/58/33 38/27/33 42/26/33
f 37/58/50 39/30/50 41/29/50
f 29/60/51 37/58/51 40/59/51
f 11/61/52 40/59/52 42/26/52
f 30/25/53 38/27/53 41/29/53
f 29/60/54 28/28/54 39/30/54
v -2.021756 1.530557 0.728568
v -2.022091 1.509230 0.709420
v -2.019012 1.481424 0.703177
v -2.013346 1.454591 0.711511
v -2.006609 1.435919 0.732189
v -1.996037 1.535026 0.737794
v -1.977544 1.516971 0.725399
v -1.967574 1.490363 0.721628
v -1.968799 1.462332 0.727490
v -1.980890 1.440389 0.741415
v -1.957914 1.493990 0.776032
v -1.960433 1.465473 0.774605
v -1.976060 1.442202 0.768617
v -2.012096 1.534184 0.782972
v -1.999693 1.488680 0.811984
v -1.996615 1.460874 0.805741
v -1.996950 1.439547 0.786593
v -2.037815 1.529715 0.773746
v -2.049906 1.507772 0.787671
v -2.051131 1.479741 0.793533
v -2.041162 1.453133 0.789762
v -2.022669 1.435078 0.777368
v -2.042645 1.527901 0.746544
v -2.058272 1.504630 0.740556
v -2.060791 1.476113 0.739129
v -2.049527 1.449991 0.742647
v -2.027499 1.433264 0.750166
v -1.991207 1.536840 0.764996
v -1.969178 1.520112 0.772514
v -2.005359 1.515513 0.803650
v -2.042559 1.530700 0.833909
v -2.046193 1.530068 0.832605
v -2.027194 1.538228 0.802123
v -2.025344 1.501048 0.826311
v -2.039925 1.536016 0.797557
v -2.045092 1.497617 0.819228
v -1.960358 1.542942 0.814324
v -1.968922 1.541853 0.821694
v -1.974478 1.545480 0.802322
v -1.964416 1.520712 0.809699
v -1.978403 1.544981 0.805699
v -1.968352 1.520211 0.813086
vt 0.274240 0.539347
vt 0.265397 0.539709
vt 0.266768 0.532487
vt 0.231414 0.551290
vt 0.214659 0.541092
vt 0.231357 0.542861
vt 0.231940 0.569242
vt 0.215985 0.562822
vt 0.231472 0.559719
vt 0.230890 0.533338
vt 0.220414 0.530957
vt 0.213134 0.552274
vt 0.289666 0.544440
vt 0.282983 0.540904
vt 0.290637 0.536818
vt 0.279682 0.529141
vt 0.275518 0.536619
vt 0.273707 0.532162
vt 0.280945 0.538772
vt 0.286431 0.530872
vt 0.290637 0.551375
vt 0.284312 0.543753
vt 0.278488 0.537315
vt 0.276318 0.541045
vt 0.804698 0.251197
vt 0.792375 0.255919
vt 0.792638 0.252041
vt 0.786357 0.239035
vt 0.792578 0.249274
vt 0.791489 0.249454
vt 0.271776 0.541127
vt 0.760733 0.199751
vt 0.757502 0.209505
vt 0.750621 0.206121
vt 0.278108 0.542645
vt 0.273009 0.544115
vt 0.772804 0.201934
vt 0.766718 0.213101
vt 0.766203 0.208706
vt 0.264007 0.548518
vt 0.277612 0.547903
vt 0.268747 0.555467
vt 0.275021 0.546378
vt 0.280714 0.548498
vt 0.281954 0.545638
vt 0.276612 0.557409
vt 0.240880 0.530957
vt 0.248168 0.561486
vt 0.249693 0.550306
vt 0.246843 0.539760
vt 0.242415 0.571620
vt 0.762287 0.211045
vt 0.762255 0.210544
vt 0.761023 0.221925
vt 0.757316 0.212491
vt 0.750922 0.216572
vt 0.772804 0.220841
vt 0.791613 0.252007
vt 0.791097 0.255536
vt 0.780068 0.250772
vt 0.780487 0.263708
vt 0.804698 0.264828
vt 0.798786 0.238814
vt 0.221949 0.571626
vt 0.283377 0.553479
vn 0.1579 -0.9867 0.0378
vn 0.3619 -0.2059 -0.9092
vn 0.1498 0.6592 -0.7369
vn 0.3565 -0.6327 -0.6874
vn 0.2905 0.2401 -0.9262
vn 0.6313 0.7583 -0.1627
vn 0.8381 -0.5337 -0.1132
vn 0.9111 0.3678 -0.1863
vn -0.1579 0.9867 -0.0378
vn 0.9825 -0.0783 -0.1692
vn 0.5849 -0.5469 0.5989
vn -0.1857 -0.3674 0.9113
vn 0.6563 -0.0954 0.7485
vn -0.2275 0.9661 -0.1217
vn -0.1498 -0.6592 0.7369
vn -0.9054 0.3836 -0.1817
vn -0.2905 -0.2401 0.9262
vn -0.0672 -0.8116 0.5804
vn -0.6313 -0.7583 0.1627
vn -0.9825 0.0783 0.1692
vn -0.9111 -0.3678 0.1863
vn -0.8381 0.5336 0.1132
vn -0.3782 -0.7450 -0.5495
vn -0.6562 0.0954 -0.7485
vn -0.5849 -0.3507 -0.7314
vn -0.5849 0.5469 -0.5989
vn -0.2543 -0.3759 0.8911
vn -0.2136 0.9687 0.1262
vn 0.6272 0.6334 0.4532
vn -0.0736 0.9625 -0.2612
vn -0.9887 -0.0845 0.1237
vn 0.5799 0.3508 0.7353
vn 0.6479 -0.2667 0.7135
vn 0.0268 0.9839 0.1765
vn 0.9172 0.3789 -0.1236
vn 0.5699 -0.5865 0.5756
vn -0.5893 0.4947 0.6387
vn 0.5386 0.6865 -0.4885
vn 0.3619 -0.2060 -0.9092
vn -0.2680 0.2337 0.9346
vn 0.6562 -0.0954 0.7485
vn -0.9258 0.3635 -0.1039
vn -0.8381 0.5337 0.1132
vn 0.6546 0.6547 0.3779
vn -0.9813 0.0795 0.1753
vn 0.6664 0.2031 0.7174
vn 0.9805 -0.1534 -0.1231
vn 0.5698 -0.5865 0.5755
vn -0.6562 0.5655 0.4996
vn 0.6342 0.6408 -0.4326
s off
f 59/66/55 69/67/55 47/68/55
f 45/69/56 51/70/56 46/71/56
f 43/72/57 49/73/57 44/74/57
f 47/75/58 51/70/58 52/76/58
f 44/74/59 50/77/59 45/69/59
f 48/78/60 71/79/60 49/80/60
f 51/81/61 55/82/61 52/83/61
f 49/80/62 53/84/62 50/85/62
f 43/86/63 70/87/63 48/78/63
f 50/85/64 54/88/64 51/81/64
f 55/82/65 58/89/65 59/66/65
f 72/90/66 84/91/66 80/92/66
f 53/84/67 58/89/67 54/88/67
f 70/93/68 83/94/68 81/95/68
f 58/89/69 64/96/69 59/66/69
f 61/97/70 77/98/70 60/99/70
f 57/100/71 63/101/71 58/89/71
f 62/102/72 76/103/72 78/104/72
f 64/96/73 68/105/73 69/67/73
f 61/106/74 67/107/74 62/108/74
f 43/86/63 60/109/63 56/110/63
f 62/108/75 68/105/75 63/101/75
f 60/109/76 66/111/76 61/106/76
f 69/112/77 46/71/77 47/75/77
f 66/113/78 45/69/78 67/114/78
f 67/114/79 46/71/79 68/115/79
f 65/116/80 44/74/80 66/113/80
f 55/82/55 47/68/55 52/83/55
f 73/117/81 78/104/81 76/103/81
f 73/117/82 77/98/82 74/118/82
f 72/119/83 75/120/83 73/117/83
f 60/99/84 75/120/84 56/121/84
f 61/97/85 78/104/85 74/118/85
f 72/119/86 76/103/86 57/122/86
f 79/123/87 84/91/87 82/124/87
f 79/123/88 83/94/88 80/92/88
f 71/125/89 82/124/89 53/126/89
f 53/126/90 84/91/90 57/127/90
f 72/90/91 83/94/91 56/128/91
f 71/125/92 81/95/92 79/123/92
f 59/66/55 64/96/55 69/67/55
f 45/69/93 50/77/93 51/70/93
f 43/72/57 48/129/57 49/73/57
f 47/75/58 46/71/58 51/70/58
f 44/74/59 49/73/59 50/77/59
f 48/78/60 70/87/60 71/79/60
f 51/81/61 54/88/61 55/82/61
f 49/80/62 71/79/62 53/84/62
f 43/86/63 56/110/63 70/87/63
f 50/85/64 53/84/64 54/88/64
f 55/82/65 54/88/65 58/89/65
f 72/90/94 57/127/94 84/91/94
f 53/84/95 57/100/95 58/89/95
f 70/93/68 56/128/68 83/94/68
f 58/89/69 63/101/69 64/96/69
f 61/97/96 74/118/96 77/98/96
f 57/100/71 62/108/71 63/101/71
f 62/102/72 57/122/72 76/103/72
f 64/96/73 63/101/73 68/105/73
f 61/106/74 66/111/74 67/107/74
f 43/86/63 65/130/63 60/109/63
f 62/108/75 67/107/75 68/105/75
f 60/109/97 65/130/97 66/111/97
f 69/112/77 68/115/77 46/71/77
f 66/113/78 44/74/78 45/69/78
f 67/114/79 45/69/79 46/71/79
f 65/116/80 43/72/80 44/74/80
f 55/82/55 59/66/55 47/68/55
f 73/117/81 74/118/81 78/104/81
f 73/117/82 75/120/82 77/98/82
f 72/119/98 56/121/98 75/120/98
f 60/99/84 77/98/84 75/120/84
f 61/97/99 62/102/99 78/104/99
f 72/119/100 73/117/100 76/103/100
f 79/123/87 80/92/87 84/91/87
f 79/123/88 81/95/88 83/94/88
f 71/125/101 79/123/101 82/124/101
f 53/126/102 82/124/102 84/91/102
f 72/90/103 80/92/103 83/94/103
f 71/125/104 70/93/104 81/95/104
