# Blender v2.81 (sub 16) OBJ File: 'garbage.blend'
# www.blender.org
v 0.050291 2.120160 0.889186
v 0.040516 2.101766 0.908876
v 0.034454 2.074936 0.916940
v 0.033728 2.046860 0.911215
v 0.038534 2.025059 0.893236
v 0.033091 2.121363 0.867523
v 0.010726 2.103851 0.871355
v 0.000055 2.077344 0.873613
v 0.003938 2.048944 0.873693
v 0.021334 2.026263 0.871573
v 0.019972 2.072690 0.822156
v 0.021187 2.044914 0.829130
v 0.031293 2.023936 0.845844
v 0.070208 2.115505 0.837728
v 0.074288 2.065628 0.814025
v 0.068226 2.038799 0.822088
v 0.058451 2.020405 0.841779
v 0.087408 2.114302 0.859391
v 0.104804 2.091620 0.857271
v 0.108687 2.063221 0.857351
v 0.098016 2.036714 0.859610
v 0.075651 2.019201 0.863442
v 0.077449 2.116629 0.885120
v 0.087555 2.095651 0.901835
v 0.088770 2.067875 0.908809
v 0.080767 2.040744 0.904173
v 0.065692 2.021528 0.889171
v 0.043050 2.119036 0.841794
v 0.027975 2.099820 0.826791
v 0.075014 2.093705 0.819749
v 0.122610 2.107327 0.810862
v 0.125041 2.107157 0.813923
v 0.093067 2.117992 0.828652
v 0.103739 2.077796 0.813120
v 0.101581 2.117396 0.839376
v 0.116945 2.076872 0.829753
v 0.042229 2.115931 0.783383
v 0.053363 2.114483 0.781716
v 0.048117 2.121156 0.800350
v 0.043149 2.094921 0.792858
v 0.053219 2.120493 0.799586
v 0.048267 2.094255 0.792092
vt 0.274240 0.539347
vt 0.265397 0.539709
vt 0.266768 0.532487
vt 0.231414 0.551290
vt 0.214659 0.541092
vt 0.231357 0.542861
vt 0.231940 0.569242
vt 0.215985 0.562822
vt 0.231472 0.559719
vt 0.230890 0.533338
vt 0.220414 0.530957
vt 0.213134 0.552274
vt 0.289666 0.544440
vt 0.282983 0.540904
vt 0.290637 0.536818
vt 0.279682 0.529141
vt 0.275518 0.536619
vt 0.273707 0.532162
vt 0.280945 0.538772
vt 0.286431 0.530872
vt 0.290637 0.551375
vt 0.284312 0.543753
vt 0.278488 0.537315
vt 0.276318 0.541045
vt 0.804698 0.251197
vt 0.792375 0.255919
vt 0.792638 0.252041
vt 0.786357 0.239035
vt 0.792578 0.249274
vt 0.791489 0.249454
vt 0.271776 0.541127
vt 0.760733 0.199751
vt 0.757502 0.209505
vt 0.750621 0.206121
vt 0.278108 0.542645
vt 0.273009 0.544115
vt 0.772804 0.201934
vt 0.766718 0.213101
vt 0.766203 0.208706
vt 0.264007 0.548518
vt 0.277612 0.547903
vt 0.268747 0.555467
vt 0.275021 0.546378
vt 0.280714 0.548498
vt 0.281954 0.545638
vt 0.276612 0.557409
vt 0.240880 0.530957
vt 0.248168 0.561486
vt 0.249693 0.550306
vt 0.246843 0.539760
vt 0.242415 0.571620
vt 0.762287 0.211045
vt 0.762255 0.210544
vt 0.761023 0.221925
vt 0.757316 0.212491
vt 0.750922 0.216572
vt 0.772804 0.220841
vt 0.791613 0.252007
vt 0.791097 0.255536
vt 0.780068 0.250772
vt 0.780487 0.263708
vt 0.804698 0.264828
vt 0.798786 0.238814
vt 0.221949 0.571626
vt 0.283377 0.553479
vn -0.1226 -0.9916 0.0422
vn -0.7817 -0.1051 0.6148
vn -0.5048 0.7415 0.4420
vn -0.6653 -0.5568 0.4973
vn -0.7262 0.3431 0.5957
vn -0.6190 0.7238 -0.3050
vn -0.7795 -0.5745 -0.2497
vn -0.8733 0.3203 -0.3670
vn 0.1226 0.9916 -0.0422
vn -0.9288 -0.1280 -0.3479
vn -0.1944 -0.6668 -0.7194
vn 0.6280 -0.4746 -0.6168
vn -0.1748 -0.2470 -0.9531
vn 0.1385 0.9881 0.0675
vn 0.5048 -0.7415 -0.4420
vn 0.6834 0.4721 0.5569
vn 0.7262 -0.3431 -0.5957
vn 0.3521 -0.8765 -0.3282
vn 0.6190 -0.7238 0.3050
vn 0.9288 0.1280 0.3479
vn 0.8733 -0.3203 0.3670
vn 0.7795 0.5745 0.2497
vn 0.0339 -0.6314 0.7747
vn 0.1748 0.2470 0.9531
vn 0.1194 -0.2013 0.9722
vn 0.1944 0.6668 0.7194
vn 0.6761 -0.4751 -0.5632
vn 0.2550 0.9554 -0.1493
vn -0.2976 0.5157 -0.8034
vn -0.0654 0.9921 0.1071
vn 0.9094 -0.0261 0.4152
vn -0.1131 0.2013 -0.9730
vn -0.1870 -0.4107 -0.8924
vn 0.0754 0.9453 -0.3173
vn -0.8460 0.3221 -0.4248
vn -0.1939 -0.7016 -0.6857
vn 0.8383 0.4448 -0.3152
vn -0.7088 0.7048 0.0288
vn -0.7795 -0.5745 -0.2498
vn 0.7147 0.1220 -0.6887
vn 0.1386 0.9881 0.0675
vn 0.7409 0.4430 0.5047
vn 0.7263 -0.3431 -0.5957
vn 0.2549 0.9554 -0.1493
vn -0.3599 0.5451 -0.7572
vn 0.9309 0.1282 0.3420
vn -0.1975 0.0514 -0.9790
vn -0.9037 -0.2083 -0.3741
vn 0.8240 0.5390 -0.1746
vn -0.7620 0.6448 -0.0602
s off
f 17/1/1 27/2/1 5/3/1
f 3/4/2 9/5/2 4/6/2
f 1/7/3 7/8/3 2/9/3
f 5/10/4 9/5/4 10/11/4
f 2/9/5 8/12/5 3/4/5
f 6/13/6 29/14/6 7/15/6
f 9/16/7 13/17/7 10/18/7
f 7/15/8 11/19/8 8/20/8
f 1/21/9 28/22/9 6/13/9
f 8/20/10 12/23/10 9/16/10
f 13/17/11 16/24/11 17/1/11
f 30/25/12 42/26/12 38/27/12
f 11/19/13 16/24/13 12/23/13
f 28/28/14 41/29/14 39/30/14
f 16/24/15 22/31/15 17/1/15
f 19/32/16 35/33/16 18/34/16
f 15/35/17 21/36/17 16/24/17
f 20/37/18 34/38/18 36/39/18
f 22/31/19 26/40/19 27/2/19
f 19/41/20 25/42/20 20/43/20
f 1/21/9 18/44/9 14/45/9
f 20/43/21 26/40/21 21/36/21
f 18/44/22 24/46/22 19/41/22
f 27/47/23 4/6/23 5/10/23
f 24/48/24 3/4/24 25/49/24
f 25/49/25 4/6/25 26/50/25
f 23/51/26 2/9/26 24/48/26
f 13/17/1 5/3/1 10/18/1
f 31/52/27 36/39/27 34/38/27
f 31/52/28 35/33/28 32/53/28
f 30/54/29 33/55/29 31/52/29
f 18/34/30 33/55/30 14/56/30
f 19/32/31 36/39/31 32/53/31
f 30/54/32 34/38/32 15/57/32
f 37/58/33 42/26/33 40/59/33
f 37/58/34 41/29/34 38/27/34
f 29/60/35 40/59/35 11/61/35
f 11/61/36 42/26/36 15/62/36
f 30/25/37 41/29/37 14/63/37
f 29/60/38 39/30/38 37/58/38
f 17/1/1 22/31/1 27/2/1
f 3/4/2 8/12/2 9/5/2
f 1/7/3 6/64/3 7/8/3
f 5/10/4 4/6/4 9/5/4
f 2/9/5 7/8/5 8/12/5
f 6/13/6 28/22/6 29/14/6
f 9/16/39 12/23/39 13/17/39
f 7/15/8 29/14/8 11/19/8
f 1/21/9 14/45/9 28/22/9
f 8/20/10 11/19/10 12/23/10
f 13/17/11 12/23/11 16/24/11
f 30/25/40 15/62/40 42/26/40
f 11/19/13 15/35/13 16/24/13
f 28/28/41 14/63/41 41/29/41
f 16/24/15 21/36/15 22/31/15
f 19/32/42 32/53/42 35/33/42
f 15/35/43 20/43/43 21/36/43
f 20/37/18 15/57/18 34/38/18
f 22/31/19 21/36/19 26/40/19
f 19/41/20 24/46/20 25/42/20
f 1/21/9 23/65/9 18/44/9
f 20/43/21 25/42/21 26/40/21
f 18/44/22 23/65/22 24/46/22
f 27/47/23 26/50/23 4/6/23
f 24/48/24 2/9/24 3/4/24
f 25/49/25 3/4/25 4/6/25
f 23/51/26 1/7/26 2/9/26
f 13/17/1 17/1/1 5/3/1
f 31/52/27 32/53/27 36/39/27
f 31/52/44 33/55/44 35/33/44
f 30/54/45 14/56/45 33/55/45
f 18/34/30 35/33/30 33/55/30
f 19/32/46 20/37/46 36/39/46
f 30/54/47 31/52/47 34/38/47
f 37/58/33 38/27/33 42/26/33
f 37/58/34 39/30/34 41/29/34
f 29/60/48 37/58/48 40/59/48
f 11/61/36 40/59/36 42/26/36
f 30/25/49 38/27/49 41/29/49
f 29/60/50 28/28/50 39/30/50
v -0.652395 1.978123 1.944922
v -0.662200 1.952057 1.938136
v -0.660319 1.923526 1.940156
v -0.647257 1.900176 1.950439
v -0.626514 1.888263 1.966231
v -0.627591 1.982545 1.933444
v -0.619238 1.959716 1.918256
v -0.610710 1.932371 1.917199
v -0.604295 1.907836 1.930558
v -0.601709 1.892685 1.954753
v -0.568981 1.951704 1.948041
v -0.568156 1.924578 1.957268
v -0.580845 1.902351 1.970173
v -0.610666 1.997455 1.975763
v -0.576861 1.962192 2.001838
v -0.574980 1.933661 2.003858
v -0.584784 1.907595 1.997072
v -0.635471 1.993033 1.987241
v -0.632885 1.977882 2.011436
v -0.626469 1.953347 2.024795
v -0.617942 1.926001 2.023738
v -0.609589 1.903173 2.008550
v -0.656335 1.983366 1.971821
v -0.669024 1.961139 1.984726
v -0.668199 1.934014 1.993953
v -0.654081 1.909259 1.997029
v -0.630453 1.893507 1.993130
v -0.606727 1.992211 1.948864
v -0.583099 1.976459 1.944965
v -0.589923 1.985542 1.991555
v -0.600609 2.013151 2.032218
v -0.604114 2.012527 2.033840
v -0.610327 2.008793 1.997727
v -0.588664 1.980990 2.024719
v -0.622605 2.006604 2.003409
v -0.607709 1.977594 2.033532
v -0.552536 2.010107 1.961720
v -0.554151 2.012257 1.972747
v -0.571240 2.010239 1.961648
v -0.555730 1.988087 1.967799
v -0.571980 2.011224 1.966702
v -0.556472 1.989075 1.972868
vt 0.274240 0.539347
vt 0.265397 0.539709
vt 0.266768 0.532487
vt 0.231414 0.551290
vt 0.214659 0.541092
vt 0.231357 0.542861
vt 0.231940 0.569242
vt 0.215985 0.562822
vt 0.231472 0.559719
vt 0.230890 0.533338
vt 0.220414 0.530957
vt 0.213134 0.552274
vt 0.289666 0.544440
vt 0.282983 0.540904
vt 0.290637 0.536818
vt 0.279682 0.529141
vt 0.275518 0.536619
vt 0.273707 0.532162
vt 0.280945 0.538772
vt 0.286431 0.530872
vt 0.290637 0.551375
vt 0.284312 0.543753
vt 0.278488 0.537315
vt 0.276318 0.541045
vt 0.804698 0.251197
vt 0.792375 0.255919
vt 0.792638 0.252041
vt 0.786357 0.239035
vt 0.792578 0.249274
vt 0.791489 0.249454
vt 0.271776 0.541127
vt 0.760733 0.199751
vt 0.757502 0.209505
vt 0.750621 0.206121
vt 0.278108 0.542645
vt 0.273009 0.544115
vt 0.772804 0.201934
vt 0.766718 0.213101
vt 0.766203 0.208706
vt 0.264007 0.548518
vt 0.277612 0.547903
vt 0.268747 0.555467
vt 0.275021 0.546378
vt 0.280714 0.548498
vt 0.281954 0.545638
vt 0.276612 0.557409
vt 0.240880 0.530957
vt 0.248168 0.561486
vt 0.249693 0.550306
vt 0.246843 0.539760
vt 0.242415 0.571620
vt 0.762287 0.211045
vt 0.762255 0.210544
vt 0.761023 0.221925
vt 0.757316 0.212491
vt 0.750922 0.216572
vt 0.772804 0.220841
vt 0.791613 0.252007
vt 0.791097 0.255536
vt 0.780068 0.250772
vt 0.780487 0.263708
vt 0.804698 0.264828
vt 0.798786 0.238814
vt 0.221949 0.571626
vt 0.283377 0.553479
vn 0.2699 -0.9369 0.2222
vn -0.2828 -0.5147 -0.8094
vn -0.4435 0.3783 -0.8125
vn -0.0901 -0.8484 -0.5216
vn -0.4048 -0.0911 -0.9099
vn 0.2764 0.6004 -0.7504
vn 0.6298 -0.6263 -0.4595
vn 0.5229 0.1951 -0.8298
vn -0.2698 0.9369 -0.2222
vn 0.6449 -0.2285 -0.7293
vn 0.8966 -0.3913 0.2076
vn 0.4908 -0.0446 0.8701
vn 0.9887 0.0744 0.1303
vn -0.3737 0.8986 -0.2299
vn 0.4434 -0.3783 0.8125
vn -0.8507 0.3999 0.3413
vn 0.4048 0.0911 0.9099
vn 0.4251 -0.5794 0.6954
vn -0.2764 -0.6004 0.7504
vn -0.6449 0.2285 0.7293
vn -0.2699 0.9369 -0.2222
vn -0.5229 -0.1951 0.8298
vn -0.6298 0.6263 0.4595
vn -0.5432 -0.8354 0.0833
vn -0.9887 -0.0744 -0.1303
vn -0.8667 -0.4980 -0.0299
vn -0.8966 0.3913 -0.2076
vn 0.4270 -0.0519 0.9028
vn -0.2045 0.9766 -0.0658
vn 0.6842 0.6742 -0.2780
vn -0.3462 0.8358 -0.4261
vn -0.6580 0.0611 0.7505
vn 0.8654 0.4998 0.0358
vn 0.9818 -0.0974 0.1628
vn 0.0077 0.9817 -0.1904
vn 0.5663 0.2244 -0.7930
vn 0.8752 -0.4344 0.2129
vn -0.0997 0.7270 0.6794
vn 0.0065 0.4410 -0.8975
vn -0.4434 0.3783 -0.8125
vn 0.3667 0.5390 0.7583
vn 0.4435 -0.3783 0.8125
vn -0.8136 0.4072 0.4151
vn 0.4251 -0.5795 0.6954
vn 0.4271 -0.0519 0.9027
vn -0.2046 0.9766 -0.0658
vn 0.6539 0.6681 -0.3550
vn -0.6402 0.2314 0.7325
vn 0.9383 0.3457 0.0119
vn 0.9818 -0.0975 0.1628
vn 0.0077 0.9817 -0.1902
vn 0.6825 -0.2848 -0.6731
vn -0.2485 0.7576 0.6035
vn 0.1206 0.4052 -0.9062
s off
f 59/66/51 69/67/51 47/68/51
f 45/69/52 51/70/52 46/71/52
f 43/72/53 49/73/53 44/74/53
f 47/75/54 51/70/54 52/76/54
f 44/74/55 50/77/55 45/69/55
f 48/78/56 71/79/56 49/80/56
f 51/81/57 55/82/57 52/83/57
f 49/80/58 53/84/58 50/85/58
f 43/86/59 70/87/59 48/78/59
f 50/85/60 54/88/60 51/81/60
f 55/82/61 58/89/61 59/66/61
f 72/90/62 84/91/62 80/92/62
f 53/84/63 58/89/63 54/88/63
f 70/93/64 83/94/64 81/95/64
f 58/89/65 64/96/65 59/66/65
f 61/97/66 77/98/66 60/99/66
f 57/100/67 63/101/67 58/89/67
f 62/102/68 76/103/68 78/104/68
f 64/96/69 68/105/69 69/67/69
f 61/106/70 67/107/70 62/108/70
f 43/86/71 60/109/71 56/110/71
f 62/108/72 68/105/72 63/101/72
f 60/109/73 66/111/73 61/106/73
f 69/112/74 46/71/74 47/75/74
f 66/113/75 45/69/75 67/114/75
f 67/114/76 46/71/76 68/115/76
f 65/116/77 44/74/77 66/113/77
f 55/82/51 47/68/51 52/83/51
f 73/117/78 78/104/78 76/103/78
f 73/117/79 77/98/79 74/118/79
f 72/119/80 75/120/80 73/117/80
f 60/99/81 75/120/81 56/121/81
f 61/97/82 78/104/82 74/118/82
f 72/119/83 76/103/83 57/122/83
f 79/123/84 84/91/84 82/124/84
f 79/123/85 83/94/85 80/92/85
f 71/125/86 82/124/86 53/126/86
f 53/126/87 84/91/87 57/127/87
f 72/90/88 83/94/88 56/128/88
f 71/125/89 81/95/89 79/123/89
f 59/66/51 64/96/51 69/67/51
f 45/69/52 50/77/52 51/70/52
f 43/72/90 48/129/90 49/73/90
f 47/75/54 46/71/54 51/70/54
f 44/74/55 49/73/55 50/77/55
f 48/78/56 70/87/56 71/79/56
f 51/81/57 54/88/57 55/82/57
f 49/80/58 71/79/58 53/84/58
f 43/86/71 56/110/71 70/87/71
f 50/85/60 53/84/60 54/88/60
f 55/82/61 54/88/61 58/89/61
f 72/90/91 57/127/91 84/91/91
f 53/84/63 57/100/63 58/89/63
f 70/93/64 56/128/64 83/94/64
f 58/89/92 63/101/92 64/96/92
f 61/97/93 74/118/93 77/98/93
f 57/100/67 62/108/67 63/101/67
f 62/102/94 57/122/94 76/103/94
f 64/96/69 63/101/69 68/105/69
f 61/106/70 66/111/70 67/107/70
f 43/86/71 65/130/71 60/109/71
f 62/108/72 67/107/72 68/105/72
f 60/109/73 65/130/73 66/111/73
f 69/112/74 68/115/74 46/71/74
f 66/113/75 44/74/75 45/69/75
f 67/114/76 45/69/76 46/71/76
f 65/116/77 43/72/77 44/74/77
f 55/82/51 59/66/51 47/68/51
f 73/117/95 74/118/95 78/104/95
f 73/117/96 75/120/96 77/98/96
f 72/119/97 56/121/97 75/120/97
f 60/99/81 77/98/81 75/120/81
f 61/97/98 62/102/98 78/104/98
f 72/119/99 73/117/99 76/103/99
f 79/123/100 80/92/100 84/91/100
f 79/123/101 81/95/101 83/94/101
f 71/125/102 79/123/102 82/124/102
f 53/126/87 82/124/87 84/91/87
f 72/90/103 80/92/103 83/94/103
f 71/125/104 70/93/104 81/95/104
