# Blender v2.81 (sub 16) OBJ File: 'garbage.blend'
# www.blender.org
v -0.715392 2.095451 0.103215
v -0.713434 2.076525 0.081778
v -0.713844 2.049412 0.072486
v -0.716513 2.021378 0.077830
v -0.720725 1.999934 0.096378
v -0.693839 2.093016 0.120422
v -0.676103 2.072307 0.111582
v -0.670737 2.044542 0.106901
v -0.679181 2.017160 0.107634
v -0.699172 1.997499 0.113585
v -0.679167 2.041103 0.161521
v -0.686481 2.014182 0.154937
v -0.703386 1.995779 0.140895
v -0.723822 2.092012 0.157835
v -0.730703 2.042534 0.181727
v -0.731113 2.015421 0.172435
v -0.729154 1.996495 0.150998
v -0.745375 2.094447 0.140628
v -0.765365 2.074786 0.146579
v -0.773809 2.047404 0.147312
v -0.768444 2.019639 0.142631
v -0.750708 1.998930 0.133791
v -0.741160 2.096167 0.113318
v -0.758065 2.077764 0.099276
v -0.765380 2.050843 0.092692
v -0.761144 2.022617 0.095329
v -0.746493 2.000649 0.106481
v -0.698054 2.091297 0.147732
v -0.683403 2.069329 0.158884
v -0.728034 2.070568 0.176383
v -0.769525 2.091290 0.195852
v -0.772571 2.091634 0.193421
v -0.743347 2.097773 0.171859
v -0.756782 2.059226 0.189308
v -0.754016 2.098978 0.163341
v -0.773330 2.061096 0.176096
v -0.684753 2.085779 0.204432
v -0.695317 2.086073 0.208574
v -0.693329 2.092553 0.189252
v -0.691224 2.065583 0.195360
v -0.698170 2.092688 0.191150
v -0.696079 2.065718 0.197264
vt 0.274240 0.539347
vt 0.265397 0.539709
vt 0.266768 0.532487
vt 0.231414 0.551290
vt 0.214659 0.541092
vt 0.231357 0.542861
vt 0.231940 0.569242
vt 0.215985 0.562822
vt 0.231472 0.559719
vt 0.230890 0.533338
vt 0.220414 0.530957
vt 0.213134 0.552274
vt 0.289666 0.544440
vt 0.282983 0.540904
vt 0.290637 0.536818
vt 0.279682 0.529141
vt 0.275518 0.536619
vt 0.273707 0.532162
vt 0.280945 0.538772
vt 0.286431 0.530872
vt 0.290637 0.551375
vt 0.284312 0.543753
vt 0.278488 0.537315
vt 0.276318 0.541045
vt 0.804698 0.251197
vt 0.792375 0.255919
vt 0.792638 0.252041
vt 0.786357 0.239035
vt 0.792578 0.249274
vt 0.791489 0.249454
vt 0.271776 0.541127
vt 0.760733 0.199751
vt 0.757502 0.209505
vt 0.750621 0.206121
vt 0.278108 0.542645
vt 0.273009 0.544115
vt 0.772804 0.201934
vt 0.766718 0.213101
vt 0.766203 0.208706
vt 0.264007 0.548518
vt 0.277612 0.547903
vt 0.268747 0.555467
vt 0.275021 0.546378
vt 0.280714 0.548498
vt 0.281954 0.545638
vt 0.276612 0.557409
vt 0.240880 0.530957
vt 0.248168 0.561486
vt 0.249693 0.550306
vt 0.246843 0.539760
vt 0.242415 0.571620
vt 0.762287 0.211045
vt 0.762255 0.210544
vt 0.761023 0.221925
vt 0.757316 0.212491
vt 0.750922 0.216572
vt 0.772804 0.220841
vt 0.791613 0.252007
vt 0.791097 0.255536
vt 0.780068 0.250772
vt 0.780487 0.263708
vt 0.804698 0.264828
vt 0.798786 0.238814
vt 0.221949 0.571626
vt 0.283377 0.553479
vn -0.0556 -0.9959 -0.0713
vn 0.5965 -0.2047 -0.7761
vn 0.5090 0.6678 -0.5431
vn 0.4362 -0.6361 -0.6364
vn 0.6216 0.2455 -0.7439
vn 0.7823 0.6023 0.1587
vn 0.7095 -0.7016 0.0653
vn 0.9738 0.1611 0.1604
vn 0.0556 0.9959 0.0713
vn 0.9487 -0.2891 0.1282
vn 0.2369 -0.7175 0.6551
vn -0.5442 -0.3918 0.7418
vn 0.3396 -0.3095 0.8882
vn 0.0152 0.9994 -0.0320
vn -0.5090 -0.6678 0.5431
vn -0.7026 0.5974 -0.3865
vn -0.6216 -0.2455 0.7439
vn -0.4100 -0.8210 0.3973
vn -0.7823 -0.6023 -0.1587
vn -0.9487 0.2891 -0.1282
vn -0.9738 -0.1611 -0.1604
vn -0.7095 0.7016 -0.0653
vn -0.3097 -0.5865 -0.7484
vn -0.3396 0.3095 -0.8882
vn -0.3648 -0.1407 -0.9204
vn -0.2369 0.7175 -0.6551
vn -0.6025 -0.3824 0.7005
vn -0.0537 0.9772 0.2055
vn 0.5503 0.4289 0.7163
vn 0.2030 0.9722 -0.1167
vn -0.9705 0.1367 -0.1985
vn 0.3589 0.1417 0.9226
vn 0.3107 -0.4705 0.8259
vn 0.1546 0.9318 0.3284
vn 0.9608 0.1650 0.2230
vn 0.2232 -0.7503 0.6223
vn -0.6615 0.5607 0.4980
vn 0.7910 0.5825 -0.1869
vn -0.5128 0.2076 0.8330
vn -0.7511 0.5759 -0.3227
vn 0.6048 0.4497 0.6573
vn -0.9494 0.2895 -0.1219
vn 0.4165 -0.0200 0.9089
vn 0.9172 -0.3653 0.1591
vn 0.2231 -0.7503 0.6223
vn -0.6636 0.6569 0.3580
vn 0.8521 0.5112 -0.1124
s off
f 17/1/1 27/2/1 5/3/1
f 3/4/2 9/5/2 4/6/2
f 1/7/3 7/8/3 2/9/3
f 5/10/4 9/5/4 10/11/4
f 2/9/5 8/12/5 3/4/5
f 6/13/6 29/14/6 7/15/6
f 9/16/7 13/17/7 10/18/7
f 7/15/8 11/19/8 8/20/8
f 1/21/9 28/22/9 6/13/9
f 8/20/10 12/23/10 9/16/10
f 13/17/11 16/24/11 17/1/11
f 30/25/12 42/26/12 38/27/12
f 11/19/13 16/24/13 12/23/13
f 28/28/14 41/29/14 39/30/14
f 16/24/15 22/31/15 17/1/15
f 19/32/16 35/33/16 18/34/16
f 15/35/17 21/36/17 16/24/17
f 20/37/18 34/38/18 36/39/18
f 22/31/19 26/40/19 27/2/19
f 19/41/20 25/42/20 20/43/20
f 1/21/9 18/44/9 14/45/9
f 20/43/21 26/40/21 21/36/21
f 18/44/22 24/46/22 19/41/22
f 27/47/23 4/6/23 5/10/23
f 24/48/24 3/4/24 25/49/24
f 25/49/25 4/6/25 26/50/25
f 23/51/26 2/9/26 24/48/26
f 13/17/1 5/3/1 10/18/1
f 31/52/27 36/39/27 34/38/27
f 31/52/28 35/33/28 32/53/28
f 30/54/29 33/55/29 31/52/29
f 18/34/30 33/55/30 14/56/30
f 19/32/31 36/39/31 32/53/31
f 30/54/32 34/38/32 15/57/32
f 37/58/33 42/26/33 40/59/33
f 37/58/34 41/29/34 38/27/34
f 29/60/35 40/59/35 11/61/35
f 11/61/36 42/26/36 15/62/36
f 30/25/37 41/29/37 14/63/37
f 29/60/38 39/30/38 37/58/38
f 17/1/1 22/31/1 27/2/1
f 3/4/2 8/12/2 9/5/2
f 1/7/3 6/64/3 7/8/3
f 5/10/4 4/6/4 9/5/4
f 2/9/5 7/8/5 8/12/5
f 6/13/6 28/22/6 29/14/6
f 9/16/7 12/23/7 13/17/7
f 7/15/8 29/14/8 11/19/8
f 1/21/9 14/45/9 28/22/9
f 8/20/10 11/19/10 12/23/10
f 13/17/11 12/23/11 16/24/11
f 30/25/39 15/62/39 42/26/39
f 11/19/13 15/35/13 16/24/13
f 28/28/14 14/63/14 41/29/14
f 16/24/15 21/36/15 22/31/15
f 19/32/40 32/53/40 35/33/40
f 15/35/17 20/43/17 21/36/17
f 20/37/18 15/57/18 34/38/18
f 22/31/19 21/36/19 26/40/19
f 19/41/20 24/46/20 25/42/20
f 1/21/9 23/65/9 18/44/9
f 20/43/21 25/42/21 26/40/21
f 18/44/22 23/65/22 24/46/22
f 27/47/23 26/50/23 4/6/23
f 24/48/24 2/9/24 3/4/24
f 25/49/25 3/4/25 4/6/25
f 23/51/26 1/7/26 2/9/26
f 13/17/1 17/1/1 5/3/1
f 31/52/27 32/53/27 36/39/27
f 31/52/28 33/55/28 35/33/28
f 30/54/41 14/56/41 33/55/41
f 18/34/30 35/33/30 33/55/30
f 19/32/42 20/37/42 36/39/42
f 30/54/43 31/52/43 34/38/43
f 37/58/33 38/27/33 42/26/33
f 37/58/34 39/30/34 41/29/34
f 29/60/44 37/58/44 40/59/44
f 11/61/45 40/59/45 42/26/45
f 30/25/46 38/27/46 41/29/46
f 29/60/47 28/28/47 39/30/47
v -1.604394 2.101942 -2.121254
v -1.590192 2.083172 -2.137612
v -1.585387 2.056175 -2.145959
v -1.591266 2.028186 -2.144060
v -1.606254 2.006703 -2.132422
v -1.597732 2.098684 -2.094579
v -1.578653 2.077529 -2.091409
v -1.572063 2.049659 -2.092609
v -1.579727 2.022542 -2.097857
v -1.599592 2.003444 -2.105747
v -1.611938 2.045953 -2.054366
v -1.614260 2.019333 -2.064738
v -1.619530 2.001592 -2.086626
v -1.644269 2.098237 -2.083011
v -1.665136 2.048764 -2.069474
v -1.660331 2.021767 -2.077821
v -1.646129 2.002997 -2.094179
v -1.650931 2.101495 -2.109686
v -1.670796 2.082397 -2.117576
v -1.678460 2.055281 -2.122824
v -1.671870 2.027411 -2.124024
v -1.652791 2.006255 -2.120855
v -1.630993 2.103348 -2.128808
v -1.636263 2.085607 -2.150695
v -1.638585 2.058986 -2.161067
v -1.637338 2.030620 -2.157143
v -1.632854 2.008108 -2.139976
v -1.617669 2.096831 -2.075457
v -1.613186 2.074320 -2.058290
v -1.659257 2.076754 -2.071373
v -1.703667 2.098545 -2.080477
v -1.704608 2.099006 -2.084247
v -1.668188 2.104456 -2.083534
v -1.690160 2.066172 -2.078803
v -1.671485 2.106069 -2.096738
v -1.695275 2.068674 -2.099284
v -1.641565 2.090364 -2.022454
v -1.652470 2.090940 -2.025551
v -1.639057 2.097543 -2.039543
v -1.641584 2.070464 -2.034117
v -1.644054 2.097807 -2.040962
v -1.646596 2.070729 -2.035540
vt 0.274240 0.539347
vt 0.265397 0.539709
vt 0.266768 0.532487
vt 0.231414 0.551290
vt 0.214659 0.541092
vt 0.231357 0.542861
vt 0.231940 0.569242
vt 0.215985 0.562822
vt 0.231472 0.559719
vt 0.230890 0.533338
vt 0.220414 0.530957
vt 0.213134 0.552274
vt 0.289666 0.544440
vt 0.282983 0.540904
vt 0.290637 0.536818
vt 0.279682 0.529141
vt 0.275518 0.536619
vt 0.273707 0.532162
vt 0.280945 0.538772
vt 0.286431 0.530872
vt 0.290637 0.551375
vt 0.284312 0.543753
vt 0.278488 0.537315
vt 0.276318 0.541045
vt 0.804698 0.251197
vt 0.792375 0.255919
vt 0.792638 0.252041
vt 0.786357 0.239035
vt 0.792578 0.249274
vt 0.791489 0.249454
vt 0.271776 0.541127
vt 0.760733 0.199751
vt 0.757502 0.209505
vt 0.750621 0.206121
vt 0.278108 0.542645
vt 0.273009 0.544115
vt 0.772804 0.201934
vt 0.766718 0.213101
vt 0.766203 0.208706
vt 0.264007 0.548518
vt 0.277612 0.547903
vt 0.268747 0.555467
vt 0.275021 0.546378
vt 0.280714 0.548498
vt 0.281954 0.545638
vt 0.276612 0.557409
vt 0.240880 0.530957
vt 0.248168 0.561486
vt 0.249693 0.550306
vt 0.246843 0.539760
vt 0.242415 0.571620
vt 0.762287 0.211045
vt 0.762255 0.210544
vt 0.761023 0.221925
vt 0.757316 0.212491
vt 0.750922 0.216572
vt 0.772804 0.220841
vt 0.791613 0.252007
vt 0.791097 0.255536
vt 0.780068 0.250772
vt 0.780487 0.263708
vt 0.804698 0.264828
vt 0.798786 0.238814
vt 0.221949 0.571626
vt 0.283377 0.553479
vn -0.0194 -0.9930 -0.1165
vn 0.9409 -0.2154 -0.2613
vn 0.7463 0.6571 -0.1061
vn 0.7209 -0.6430 -0.2586
vn 0.9497 0.2336 -0.2087
vn 0.5370 0.5766 0.6158
vn 0.5116 -0.7236 0.4633
vn 0.6800 0.1297 0.7216
vn 0.0194 0.9930 0.1164
vn 0.6713 -0.3192 0.6690
vn -0.2220 -0.7306 0.6457
vn -0.8896 -0.3821 0.2501
vn -0.2741 -0.3283 0.9039
vn 0.0500 0.9987 0.0100
vn -0.7463 -0.6571 0.1061
vn -0.3134 0.6223 -0.7173
vn -0.9497 -0.2335 0.2087
vn -0.5820 -0.8119 0.0462
vn -0.5370 -0.5766 -0.6158
vn -0.6713 0.3192 -0.6690
vn -0.6800 -0.1297 -0.7216
vn -0.5116 0.7236 -0.4633
vn 0.1966 -0.5695 -0.7981
vn 0.2741 0.3283 -0.9040
vn 0.2653 -0.1206 -0.9566
vn 0.2220 0.7306 -0.6457
vn -0.0194 -0.9930 -0.1164
vn -0.9108 -0.3706 0.1822
vn -0.1492 0.9763 0.1565
vn 0.0113 0.4050 0.9143
vn 0.2501 0.9666 0.0556
vn -0.6488 0.1682 -0.7421
vn -0.2712 0.1218 0.9548
vn -0.2622 -0.4877 0.8327
vn -0.0589 0.9234 0.3793
vn 0.6318 0.1334 0.7635
vn -0.2137 -0.7627 0.6104
vn -0.8175 0.5758 0.0101
vn 0.7530 0.5599 0.3457
vn 0.0194 0.9930 0.1165
vn -0.9089 0.2152 0.3573
vn 0.0500 0.9987 0.0099
vn -0.3910 0.6017 -0.6965
vn -0.9497 -0.2336 0.2087
vn 0.2741 0.3283 -0.9039
vn 0.0907 0.4247 0.9008
vn -0.6756 0.3195 -0.6644
vn -0.2201 -0.0414 0.9746
vn -0.0589 0.9234 0.3792
vn 0.6260 -0.3947 0.6725
vn -0.2136 -0.7627 0.6104
vn -0.7325 0.6734 -0.1000
vn 0.7551 0.4860 0.4400
s off
f 59/66/48 69/67/48 47/68/48
f 45/69/49 51/70/49 46/71/49
f 43/72/50 49/73/50 44/74/50
f 47/75/51 51/70/51 52/76/51
f 44/74/52 50/77/52 45/69/52
f 48/78/53 71/79/53 49/80/53
f 51/81/54 55/82/54 52/83/54
f 49/80/55 53/84/55 50/85/55
f 43/86/56 70/87/56 48/78/56
f 50/85/57 54/88/57 51/81/57
f 55/82/58 58/89/58 59/66/58
f 72/90/59 84/91/59 80/92/59
f 53/84/60 58/89/60 54/88/60
f 70/93/61 83/94/61 81/95/61
f 58/89/62 64/96/62 59/66/62
f 61/97/63 77/98/63 60/99/63
f 57/100/64 63/101/64 58/89/64
f 62/102/65 76/103/65 78/104/65
f 64/96/66 68/105/66 69/67/66
f 61/106/67 67/107/67 62/108/67
f 43/86/56 60/109/56 56/110/56
f 62/108/68 68/105/68 63/101/68
f 60/109/69 66/111/69 61/106/69
f 69/112/70 46/71/70 47/75/70
f 66/113/71 45/69/71 67/114/71
f 67/114/72 46/71/72 68/115/72
f 65/116/73 44/74/73 66/113/73
f 55/82/74 47/68/74 52/83/74
f 73/117/75 78/104/75 76/103/75
f 73/117/76 77/98/76 74/118/76
f 72/119/77 75/120/77 73/117/77
f 60/99/78 75/120/78 56/121/78
f 61/97/79 78/104/79 74/118/79
f 72/119/80 76/103/80 57/122/80
f 79/123/81 84/91/81 82/124/81
f 79/123/82 83/94/82 80/92/82
f 71/125/83 82/124/83 53/126/83
f 53/126/84 84/91/84 57/127/84
f 72/90/85 83/94/85 56/128/85
f 71/125/86 81/95/86 79/123/86
f 59/66/48 64/96/48 69/67/48
f 45/69/49 50/77/49 51/70/49
f 43/72/50 48/129/50 49/73/50
f 47/75/51 46/71/51 51/70/51
f 44/74/52 49/73/52 50/77/52
f 48/78/53 70/87/53 71/79/53
f 51/81/54 54/88/54 55/82/54
f 49/80/55 71/79/55 53/84/55
f 43/86/87 56/110/87 70/87/87
f 50/85/57 53/84/57 54/88/57
f 55/82/58 54/88/58 58/89/58
f 72/90/88 57/127/88 84/91/88
f 53/84/60 57/100/60 58/89/60
f 70/93/89 56/128/89 83/94/89
f 58/89/62 63/101/62 64/96/62
f 61/97/90 74/118/90 77/98/90
f 57/100/91 62/108/91 63/101/91
f 62/102/65 57/122/65 76/103/65
f 64/96/66 63/101/66 68/105/66
f 61/106/67 66/111/67 67/107/67
f 43/86/56 65/130/56 60/109/56
f 62/108/68 67/107/68 68/105/68
f 60/109/69 65/130/69 66/111/69
f 69/112/70 68/115/70 46/71/70
f 66/113/92 44/74/92 45/69/92
f 67/114/72 45/69/72 46/71/72
f 65/116/73 43/72/73 44/74/73
f 55/82/74 59/66/74 47/68/74
f 73/117/75 74/118/75 78/104/75
f 73/117/76 75/120/76 77/98/76
f 72/119/93 56/121/93 75/120/93
f 60/99/78 77/98/78 75/120/78
f 61/97/94 62/102/94 78/104/94
f 72/119/95 73/117/95 76/103/95
f 79/123/81 80/92/81 84/91/81
f 79/123/96 81/95/96 83/94/96
f 71/125/97 79/123/97 82/124/97
f 53/126/98 82/124/98 84/91/98
f 72/90/99 80/92/99 83/94/99
f 71/125/100 70/93/100 81/95/100
