# Blender v2.81 (sub 16) OBJ File: 'garbage.blend'
# www.blender.org
v 0.313910 1.935601 -0.195947
v 0.306493 1.921671 -0.172020
v 0.298938 1.897416 -0.158746
v 0.293269 1.869334 -0.159683
v 0.291004 1.844951 -0.174580
v 0.292586 1.936837 -0.213563
v 0.269559 1.923812 -0.202531
v 0.256290 1.899888 -0.193978
v 0.256334 1.871475 -0.190195
v 0.269680 1.846187 -0.192196
v 0.263328 1.885608 -0.247014
v 0.262429 1.859108 -0.236125
v 0.273199 1.839047 -0.218714
v 0.320947 1.921321 -0.248983
v 0.313013 1.868856 -0.264818
v 0.305458 1.844601 -0.251544
v 0.298041 1.830671 -0.227616
v 0.342271 1.920085 -0.231367
v 0.355617 1.894797 -0.233369
v 0.355661 1.866384 -0.229586
v 0.342392 1.842460 -0.221033
v 0.319366 1.829435 -0.210000
v 0.338752 1.927225 -0.204849
v 0.349522 1.907164 -0.187438
v 0.348624 1.880664 -0.176550
v 0.336298 1.854827 -0.175102
v 0.315847 1.836575 -0.183482
v 0.296104 1.929697 -0.240081
v 0.275654 1.911445 -0.248462
v 0.318682 1.896938 -0.263881
v 0.364421 1.901423 -0.284321
v 0.367434 1.901249 -0.281832
v 0.341300 1.918900 -0.262803
v 0.342838 1.875871 -0.273619
v 0.351855 1.918288 -0.254083
v 0.359211 1.874922 -0.260094
v 0.281757 1.919421 -0.295855
v 0.291942 1.915987 -0.299505
v 0.291946 1.925721 -0.281489
v 0.282024 1.899907 -0.283561
v 0.296613 1.924147 -0.283162
v 0.286705 1.898328 -0.285239
vt 0.274240 0.539347
vt 0.265397 0.539709
vt 0.266768 0.532487
vt 0.231414 0.551290
vt 0.214659 0.541092
vt 0.231357 0.542861
vt 0.231940 0.569242
vt 0.215985 0.562822
vt 0.231472 0.559719
vt 0.230890 0.533338
vt 0.220414 0.530957
vt 0.213134 0.552274
vt 0.289666 0.544440
vt 0.282983 0.540904
vt 0.290637 0.536818
vt 0.279682 0.529141
vt 0.275518 0.536619
vt 0.273707 0.532162
vt 0.280945 0.538772
vt 0.286431 0.530872
vt 0.290637 0.551375
vt 0.284312 0.543753
vt 0.278488 0.537315
vt 0.276318 0.541045
vt 0.804698 0.251197
vt 0.792375 0.255919
vt 0.792638 0.252041
vt 0.786357 0.239035
vt 0.792578 0.249274
vt 0.791489 0.249454
vt 0.271776 0.541127
vt 0.760733 0.199751
vt 0.757502 0.209505
vt 0.750621 0.206121
vt 0.278108 0.542645
vt 0.273009 0.544115
vt 0.772804 0.201934
vt 0.766718 0.213101
vt 0.766203 0.208706
vt 0.264007 0.548518
vt 0.277612 0.547903
vt 0.268747 0.555467
vt 0.275021 0.546378
vt 0.280714 0.548498
vt 0.281954 0.545638
vt 0.276612 0.557409
vt 0.240880 0.530957
vt 0.248168 0.561486
vt 0.249693 0.550306
vt 0.246843 0.539760
vt 0.242415 0.571620
vt 0.762287 0.211045
vt 0.762255 0.210544
vt 0.761023 0.221925
vt 0.757316 0.212491
vt 0.750922 0.216572
vt 0.772804 0.220841
vt 0.791613 0.252007
vt 0.791097 0.255536
vt 0.780068 0.250772
vt 0.780487 0.263708
vt 0.804698 0.264828
vt 0.798786 0.238814
vt 0.221949 0.571626
vt 0.283377 0.553479
vn -0.2388 -0.9452 0.2228
vn -0.6301 0.1015 0.7699
vn -0.2907 0.8633 0.4125
vn -0.6034 -0.3742 0.7042
vn -0.5221 0.5288 0.6691
vn -0.5714 0.7703 -0.2832
vn -0.8841 -0.4672 0.0085
vn -0.8838 0.4089 -0.2274
vn 0.2388 0.9452 -0.2228
vn -0.9918 -0.0184 -0.1266
vn -0.4370 -0.7118 -0.5499
vn 0.4053 -0.6442 -0.6487
vn -0.4157 -0.3336 -0.8461
vn 0.2785 0.9530 -0.1195
vn 0.2907 -0.8633 -0.4125
vn 0.8470 0.4214 0.3240
vn 0.5221 -0.5288 -0.6691
vn 0.1511 -0.9564 -0.2501
vn 0.5714 -0.7703 0.2832
vn 0.9918 0.0184 0.1266
vn 0.8838 -0.4089 0.2274
vn 0.8841 0.4672 -0.0085
vn 0.1243 -0.5257 0.8415
vn 0.4157 0.3336 0.8461
vn 0.3077 -0.0937 0.9469
vn 0.4370 0.7118 0.5498
vn 0.4637 -0.6457 -0.6066
vn 0.3378 0.8747 -0.3475
vn -0.4006 0.4516 -0.7972
vn 0.0910 0.9950 -0.0403
vn 0.9680 -0.1207 0.2200
vn -0.3018 0.0926 -0.9489
vn -0.4352 -0.4841 -0.7591
vn 0.1253 0.8728 -0.4716
vn -0.8702 0.3989 -0.2891
vn -0.4335 -0.7416 -0.5119
vn 0.7967 0.2595 -0.5458
vn -0.5854 0.8085 0.0607
vn -0.4370 -0.7118 -0.5498
vn 0.5510 -0.0835 -0.8303
vn 0.8870 0.3770 0.2665
vn 0.4637 -0.6458 -0.6066
vn -0.4465 0.4963 -0.7445
vn 0.9926 0.0176 0.1204
vn -0.4043 -0.0412 -0.9137
vn -0.4352 -0.4842 -0.7591
vn 0.1253 0.8729 -0.4716
vn -0.9840 -0.1044 -0.1443
vn 0.8269 0.3717 -0.4220
vn -0.6647 0.7471 -0.0050
s off
f 17/1/1 27/2/1 5/3/1
f 3/4/2 9/5/2 4/6/2
f 1/7/3 7/8/3 2/9/3
f 5/10/4 9/5/4 10/11/4
f 2/9/5 8/12/5 3/4/5
f 6/13/6 29/14/6 7/15/6
f 9/16/7 13/17/7 10/18/7
f 7/15/8 11/19/8 8/20/8
f 1/21/9 28/22/9 6/13/9
f 8/20/10 12/23/10 9/16/10
f 13/17/11 16/24/11 17/1/11
f 30/25/12 42/26/12 38/27/12
f 11/19/13 16/24/13 12/23/13
f 28/28/14 41/29/14 39/30/14
f 16/24/15 22/31/15 17/1/15
f 19/32/16 35/33/16 18/34/16
f 15/35/17 21/36/17 16/24/17
f 20/37/18 34/38/18 36/39/18
f 22/31/19 26/40/19 27/2/19
f 19/41/20 25/42/20 20/43/20
f 1/21/9 18/44/9 14/45/9
f 20/43/21 26/40/21 21/36/21
f 18/44/22 24/46/22 19/41/22
f 27/47/23 4/6/23 5/10/23
f 24/48/24 3/4/24 25/49/24
f 25/49/25 4/6/25 26/50/25
f 23/51/26 2/9/26 24/48/26
f 13/17/1 5/3/1 10/18/1
f 31/52/27 36/39/27 34/38/27
f 31/52/28 35/33/28 32/53/28
f 30/54/29 33/55/29 31/52/29
f 18/34/30 33/55/30 14/56/30
f 19/32/31 36/39/31 32/53/31
f 30/54/32 34/38/32 15/57/32
f 37/58/33 42/26/33 40/59/33
f 37/58/34 41/29/34 38/27/34
f 29/60/35 40/59/35 11/61/35
f 11/61/36 42/26/36 15/62/36
f 30/25/37 41/29/37 14/63/37
f 29/60/38 39/30/38 37/58/38
f 17/1/1 22/31/1 27/2/1
f 3/4/2 8/12/2 9/5/2
f 1/7/3 6/64/3 7/8/3
f 5/10/4 4/6/4 9/5/4
f 2/9/5 7/8/5 8/12/5
f 6/13/6 28/22/6 29/14/6
f 9/16/7 12/23/7 13/17/7
f 7/15/8 29/14/8 11/19/8
f 1/21/9 14/45/9 28/22/9
f 8/20/10 11/19/10 12/23/10
f 13/17/39 12/23/39 16/24/39
f 30/25/40 15/62/40 42/26/40
f 11/19/13 15/35/13 16/24/13
f 28/28/14 14/63/14 41/29/14
f 16/24/15 21/36/15 22/31/15
f 19/32/41 32/53/41 35/33/41
f 15/35/17 20/43/17 21/36/17
f 20/37/18 15/57/18 34/38/18
f 22/31/19 21/36/19 26/40/19
f 19/41/20 24/46/20 25/42/20
f 1/21/9 23/65/9 18/44/9
f 20/43/21 25/42/21 26/40/21
f 18/44/22 23/65/22 24/46/22
f 27/47/23 26/50/23 4/6/23
f 24/48/24 2/9/24 3/4/24
f 25/49/25 3/4/25 4/6/25
f 23/51/26 1/7/26 2/9/26
f 13/17/1 17/1/1 5/3/1
f 31/52/42 32/53/42 36/39/42
f 31/52/28 33/55/28 35/33/28
f 30/54/43 14/56/43 33/55/43
f 18/34/30 35/33/30 33/55/30
f 19/32/44 20/37/44 36/39/44
f 30/54/45 31/52/45 34/38/45
f 37/58/46 38/27/46 42/26/46
f 37/58/47 39/30/47 41/29/47
f 29/60/48 37/58/48 40/59/48
f 11/61/36 40/59/36 42/26/36
f 30/25/49 38/27/49 41/29/49
f 29/60/50 28/28/50 39/30/50
v 2.063398 1.900405 0.974313
v 2.042912 1.887074 0.989287
v 2.031124 1.862871 0.999130
v 2.031192 1.834283 1.001205
v 2.043097 1.808969 0.994955
v 2.060965 1.894846 0.947299
v 2.038699 1.877446 0.942498
v 2.026259 1.851754 0.945102
v 2.026978 1.824655 0.954415
v 2.040664 1.803410 0.967941
v 2.070505 1.835386 0.916110
v 2.065297 1.810480 0.929307
v 2.062788 1.795226 0.953444
v 2.107644 1.884036 0.945320
v 2.119617 1.830133 0.941145
v 2.107828 1.805931 0.950988
v 2.087343 1.792600 0.965962
v 2.110076 1.889594 0.972334
v 2.123762 1.868349 0.985860
v 2.124481 1.841250 0.995173
v 2.112041 1.815559 0.997777
v 2.089775 1.798158 0.992976
v 2.087953 1.897779 0.986830
v 2.085444 1.882525 1.010968
v 2.080235 1.857619 1.024165
v 2.073723 1.829734 1.022886
v 2.067652 1.806343 1.007472
v 2.083088 1.886662 0.932803
v 2.077018 1.863270 0.917389
v 2.119549 1.858722 0.939070
v 2.165271 1.872766 0.954634
v 2.165615 1.873551 0.958451
v 2.131869 1.885636 0.949975
v 2.145730 1.843609 0.953504
v 2.133073 1.888387 0.963347
v 2.147598 1.847877 0.974245
v 2.113965 1.868608 0.886512
v 2.124032 1.867532 0.891643
v 2.110084 1.878400 0.901968
v 2.107737 1.850848 0.899847
v 2.114697 1.877907 0.904320
v 2.112364 1.850353 0.902206
vt 0.274240 0.539347
vt 0.265397 0.539709
vt 0.266768 0.532487
vt 0.231414 0.551290
vt 0.214659 0.541092
vt 0.231357 0.542861
vt 0.231940 0.569242
vt 0.215985 0.562822
vt 0.231472 0.559719
vt 0.230890 0.533338
vt 0.220414 0.530957
vt 0.213134 0.552274
vt 0.289666 0.544440
vt 0.282983 0.540904
vt 0.290637 0.536818
vt 0.279682 0.529141
vt 0.275518 0.536619
vt 0.273707 0.532162
vt 0.280945 0.538772
vt 0.286431 0.530872
vt 0.290637 0.551375
vt 0.284312 0.543753
vt 0.278488 0.537315
vt 0.276318 0.541045
vt 0.804698 0.251197
vt 0.792375 0.255919
vt 0.792638 0.252041
vt 0.786357 0.239035
vt 0.792578 0.249274
vt 0.791489 0.249454
vt 0.271776 0.541127
vt 0.760733 0.199751
vt 0.757502 0.209505
vt 0.750621 0.206121
vt 0.278108 0.542645
vt 0.273009 0.544115
vt 0.772804 0.201934
vt 0.766718 0.213101
vt 0.766203 0.208706
vt 0.264007 0.548518
vt 0.277612 0.547903
vt 0.268747 0.555467
vt 0.275021 0.546378
vt 0.280714 0.548498
vt 0.281954 0.545638
vt 0.276612 0.557409
vt 0.240880 0.530957
vt 0.248168 0.561486
vt 0.249693 0.550306
vt 0.246843 0.539760
vt 0.242415 0.571620
vt 0.762287 0.211045
vt 0.762255 0.210544
vt 0.761023 0.221925
vt 0.757316 0.212491
vt 0.750922 0.216572
vt 0.772804 0.220841
vt 0.791613 0.252007
vt 0.791097 0.255536
vt 0.780068 0.250772
vt 0.780487 0.263708
vt 0.804698 0.264828
vt 0.798786 0.238814
vt 0.221949 0.571626
vt 0.283377 0.553479
vn -0.2117 -0.9533 0.2152
vn -0.9960 0.0041 0.0888
vn -0.5972 0.7945 -0.1097
vn -0.8744 -0.4537 0.1721
vn -0.9003 0.4351 -0.0085
vn -0.2869 0.5779 -0.7640
vn -0.5640 -0.6703 -0.4823
vn -0.5004 0.1559 -0.8517
vn 0.2117 0.9534 -0.2152
vn -0.5961 -0.2751 -0.7544
vn 0.1718 -0.8407 -0.5134
vn 0.8184 -0.5739 -0.0292
vn 0.3521 -0.4947 -0.7946
vn 0.1649 0.9792 -0.1181
vn 0.5972 -0.7945 0.1097
vn 0.3076 0.6440 0.7004
vn 0.9003 -0.4351 0.0085
vn 0.3961 -0.9058 0.1507
vn 0.2869 -0.5779 0.7640
vn 0.5961 0.2751 0.7544
vn 0.5004 -0.1559 0.8517
vn 0.5640 0.6703 0.4823
vn -0.4490 -0.4075 0.7952
vn -0.3521 0.4947 0.7946
vn -0.4478 0.0637 0.8919
vn -0.1718 0.8407 0.5134
vn -0.2117 -0.9534 0.2152
vn 0.8293 -0.5574 0.0400
vn 0.3773 0.8998 -0.2191
vn 0.2346 0.2709 -0.9336
vn -0.0264 0.9796 -0.1992
vn 0.5298 0.1425 0.8361
vn 0.4535 -0.0634 -0.8890
vn 0.2946 -0.6377 -0.7117
vn 0.3182 0.8349 -0.4491
vn -0.4459 0.1447 -0.8833
vn 0.1509 -0.8655 -0.4776
vn 0.9097 0.4041 0.0961
vn -0.5453 0.6394 -0.5420
vn 0.2117 0.9533 -0.2152
vn 0.9819 -0.0114 -0.1888
vn 0.1649 0.9792 -0.1180
vn 0.3814 0.6065 0.6976
vn 0.2868 -0.5779 0.7640
vn 0.5640 0.6703 0.4822
vn -0.1718 0.8408 0.5134
vn 0.8293 -0.5573 0.0400
vn 0.1600 0.3069 -0.9382
vn 0.6011 0.2740 0.7507
vn 0.3733 -0.2152 -0.9024
vn 0.3182 0.8349 -0.4490
vn -0.5679 -0.3575 -0.7414
vn 0.8293 0.5300 0.1768
vn -0.5465 0.5551 -0.6271
s off
f 59/66/51 69/67/51 47/68/51
f 45/69/52 51/70/52 46/71/52
f 43/72/53 49/73/53 44/74/53
f 47/75/54 51/70/54 52/76/54
f 44/74/55 50/77/55 45/69/55
f 48/78/56 71/79/56 49/80/56
f 51/81/57 55/82/57 52/83/57
f 49/80/58 53/84/58 50/85/58
f 43/86/59 70/87/59 48/78/59
f 50/85/60 54/88/60 51/81/60
f 55/82/61 58/89/61 59/66/61
f 72/90/62 84/91/62 80/92/62
f 53/84/63 58/89/63 54/88/63
f 70/93/64 83/94/64 81/95/64
f 58/89/65 64/96/65 59/66/65
f 61/97/66 77/98/66 60/99/66
f 57/100/67 63/101/67 58/89/67
f 62/102/68 76/103/68 78/104/68
f 64/96/69 68/105/69 69/67/69
f 61/106/70 67/107/70 62/108/70
f 43/86/59 60/109/59 56/110/59
f 62/108/71 68/105/71 63/101/71
f 60/109/72 66/111/72 61/106/72
f 69/112/73 46/71/73 47/75/73
f 66/113/74 45/69/74 67/114/74
f 67/114/75 46/71/75 68/115/75
f 65/116/76 44/74/76 66/113/76
f 55/82/77 47/68/77 52/83/77
f 73/117/78 78/104/78 76/103/78
f 73/117/79 77/98/79 74/118/79
f 72/119/80 75/120/80 73/117/80
f 60/99/81 75/120/81 56/121/81
f 61/97/82 78/104/82 74/118/82
f 72/119/83 76/103/83 57/122/83
f 79/123/84 84/91/84 82/124/84
f 79/123/85 83/94/85 80/92/85
f 71/125/86 82/124/86 53/126/86
f 53/126/87 84/91/87 57/127/87
f 72/90/88 83/94/88 56/128/88
f 71/125/89 81/95/89 79/123/89
f 59/66/77 64/96/77 69/67/77
f 45/69/52 50/77/52 51/70/52
f 43/72/53 48/129/53 49/73/53
f 47/75/54 46/71/54 51/70/54
f 44/74/55 49/73/55 50/77/55
f 48/78/56 70/87/56 71/79/56
f 51/81/57 54/88/57 55/82/57
f 49/80/58 71/79/58 53/84/58
f 43/86/90 56/110/90 70/87/90
f 50/85/60 53/84/60 54/88/60
f 55/82/61 54/88/61 58/89/61
f 72/90/91 57/127/91 84/91/91
f 53/84/63 57/100/63 58/89/63
f 70/93/92 56/128/92 83/94/92
f 58/89/65 63/101/65 64/96/65
f 61/97/93 74/118/93 77/98/93
f 57/100/67 62/108/67 63/101/67
f 62/102/68 57/122/68 76/103/68
f 64/96/94 63/101/94 68/105/94
f 61/106/70 66/111/70 67/107/70
f 43/86/59 65/130/59 60/109/59
f 62/108/71 67/107/71 68/105/71
f 60/109/95 65/130/95 66/111/95
f 69/112/73 68/115/73 46/71/73
f 66/113/74 44/74/74 45/69/74
f 67/114/75 45/69/75 46/71/75
f 65/116/96 43/72/96 44/74/96
f 55/82/51 59/66/51 47/68/51
f 73/117/97 74/118/97 78/104/97
f 73/117/79 75/120/79 77/98/79
f 72/119/98 56/121/98 75/120/98
f 60/99/81 77/98/81 75/120/81
f 61/97/99 62/102/99 78/104/99
f 72/119/100 73/117/100 76/103/100
f 79/123/84 80/92/84 84/91/84
f 79/123/101 81/95/101 83/94/101
f 71/125/102 79/123/102 82/124/102
f 53/126/87 82/124/87 84/91/87
f 72/90/103 80/92/103 83/94/103
f 71/125/104 70/93/104 81/95/104
