# Blender v2.81 (sub 16) OBJ File: 'garbage.blend'
# www.blender.org
v 0.350419 1.803122 -0.596908
v 0.344521 1.794316 -0.570275
v 0.336409 1.773597 -0.552206
v 0.328257 1.746516 -0.547540
v 0.322249 1.720330 -0.557529
v 0.327462 1.803575 -0.612378
v 0.304758 1.795101 -0.597071
v 0.290494 1.774503 -0.583146
v 0.288494 1.747301 -0.574336
v 0.299292 1.720783 -0.572999
v 0.290346 1.750761 -0.633171
v 0.288365 1.726739 -0.617658
v 0.299217 1.708912 -0.598012
v 0.350270 1.779379 -0.646933
v 0.336111 1.726112 -0.652256
v 0.327999 1.705392 -0.634186
v 0.322100 1.696587 -0.607554
v 0.373228 1.778926 -0.631462
v 0.384026 1.752408 -0.630126
v 0.382025 1.725205 -0.621315
v 0.367762 1.704608 -0.607391
v 0.345057 1.696134 -0.592084
v 0.373302 1.790797 -0.606450
v 0.384155 1.772970 -0.586803
v 0.382174 1.748948 -0.571290
v 0.367890 1.725170 -0.564068
v 0.345132 1.708005 -0.567071
v 0.327388 1.791703 -0.637390
v 0.304629 1.774539 -0.640394
v 0.344263 1.753193 -0.656921
v 0.387670 1.749319 -0.682037
v 0.390914 1.749255 -0.679851
v 0.368679 1.772524 -0.661939
v 0.365272 1.728362 -0.664936
v 0.380043 1.772300 -0.654282
v 0.382899 1.728014 -0.653058
v 0.306111 1.773660 -0.688809
v 0.315492 1.768608 -0.692721
v 0.318336 1.781206 -0.676832
v 0.306046 1.756600 -0.673286
v 0.322636 1.778891 -0.678625
v 0.310357 1.754278 -0.675084
vt 0.274240 0.539347
vt 0.265397 0.539709
vt 0.266768 0.532487
vt 0.231414 0.551290
vt 0.214659 0.541092
vt 0.231357 0.542861
vt 0.231940 0.569242
vt 0.215985 0.562822
vt 0.231472 0.559719
vt 0.230890 0.533338
vt 0.220414 0.530957
vt 0.213134 0.552274
vt 0.289666 0.544440
vt 0.282983 0.540904
vt 0.290637 0.536818
vt 0.279682 0.529141
vt 0.275518 0.536619
vt 0.273707 0.532162
vt 0.280945 0.538772
vt 0.286431 0.530872
vt 0.290637 0.551375
vt 0.284312 0.543753
vt 0.278488 0.537315
vt 0.276318 0.541045
vt 0.804698 0.251197
vt 0.792375 0.255919
vt 0.792638 0.252041
vt 0.786357 0.239035
vt 0.792578 0.249274
vt 0.791489 0.249454
vt 0.271776 0.541127
vt 0.760733 0.199751
vt 0.757502 0.209505
vt 0.750621 0.206121
vt 0.278108 0.542645
vt 0.273009 0.544115
vt 0.772804 0.201934
vt 0.766718 0.213101
vt 0.766203 0.208706
vt 0.264007 0.548518
vt 0.277612 0.547903
vt 0.268747 0.555467
vt 0.275021 0.546378
vt 0.280714 0.548498
vt 0.281954 0.545638
vt 0.276612 0.557409
vt 0.240880 0.530957
vt 0.248168 0.561486
vt 0.249693 0.550306
vt 0.246843 0.539760
vt 0.242415 0.571620
vt 0.762287 0.211045
vt 0.762255 0.210544
vt 0.761023 0.221925
vt 0.757316 0.212491
vt 0.750922 0.216572
vt 0.772804 0.220841
vt 0.791613 0.252007
vt 0.791097 0.255536
vt 0.780068 0.250772
vt 0.780487 0.263708
vt 0.804698 0.264828
vt 0.798786 0.238814
vt 0.221949 0.571626
vt 0.283377 0.553479
vn -0.2937 -0.8632 0.4106
vn -0.5297 0.2964 0.7947
vn -0.1672 0.9465 0.2759
vn -0.5518 -0.1837 0.8135
vn -0.3969 0.6866 0.6091
vn -0.5303 0.7665 -0.3622
vn -0.9149 -0.3637 0.1753
vn -0.8648 0.4547 -0.2132
vn 0.2937 0.8632 -0.4106
vn -0.9975 0.0644 -0.0276
vn -0.5553 -0.7451 -0.3693
vn 0.2735 -0.7840 -0.5573
vn -0.5342 -0.4271 -0.7295
vn 0.3451 0.8843 -0.3145
vn 0.1673 -0.9465 -0.2759
vn 0.9110 0.3791 0.1620
vn 0.3969 -0.6866 -0.6091
vn 0.0390 -0.9954 -0.0870
vn 0.5303 -0.7665 0.3622
vn 0.9975 -0.0644 0.0276
vn 0.8648 -0.4547 0.2132
vn 0.9149 0.3637 -0.1753
vn 0.1708 -0.3851 0.9069
vn 0.5342 0.4271 0.7295
vn 0.4014 0.0368 0.9151
vn 0.5553 0.7451 0.3694
vn 0.3359 -0.7844 -0.5214
vn 0.3717 0.7626 -0.5293
vn -0.4458 0.3491 -0.8243
vn 0.1719 0.9586 -0.2270
vn 0.9723 -0.1824 0.1463
vn -0.3959 -0.0389 -0.9175
vn -0.5570 -0.5578 -0.6153
vn 0.1474 0.7620 -0.6306
vn -0.8590 0.4330 -0.2732
vn -0.5502 -0.7683 -0.3272
vn 0.7508 0.0779 -0.6559
vn -0.5028 0.8639 -0.0311
vn -0.1673 0.9465 0.2759
vn -0.5553 -0.7451 -0.3694
vn 0.4462 -0.2807 -0.8498
vn 0.1672 -0.9465 -0.2759
vn 0.9404 0.3217 0.1099
vn 0.3717 0.7627 -0.5293
vn -0.4815 0.4066 -0.7764
vn 0.9976 -0.0664 0.0216
vn -0.5051 -0.1533 -0.8493
vn -0.9993 -0.0236 -0.0302
vn 0.8042 0.2058 -0.5577
vn -0.5939 0.8009 -0.0769
s off
f 17/1/1 27/2/1 5/3/1
f 3/4/2 9/5/2 4/6/2
f 1/7/3 7/8/3 2/9/3
f 5/10/4 9/5/4 10/11/4
f 2/9/5 8/12/5 3/4/5
f 6/13/6 29/14/6 7/15/6
f 9/16/7 13/17/7 10/18/7
f 7/15/8 11/19/8 8/20/8
f 1/21/9 28/22/9 6/13/9
f 8/20/10 12/23/10 9/16/10
f 13/17/11 16/24/11 17/1/11
f 30/25/12 42/26/12 38/27/12
f 11/19/13 16/24/13 12/23/13
f 28/28/14 41/29/14 39/30/14
f 16/24/15 22/31/15 17/1/15
f 19/32/16 35/33/16 18/34/16
f 15/35/17 21/36/17 16/24/17
f 20/37/18 34/38/18 36/39/18
f 22/31/19 26/40/19 27/2/19
f 19/41/20 25/42/20 20/43/20
f 1/21/9 18/44/9 14/45/9
f 20/43/21 26/40/21 21/36/21
f 18/44/22 24/46/22 19/41/22
f 27/47/23 4/6/23 5/10/23
f 24/48/24 3/4/24 25/49/24
f 25/49/25 4/6/25 26/50/25
f 23/51/26 2/9/26 24/48/26
f 13/17/1 5/3/1 10/18/1
f 31/52/27 36/39/27 34/38/27
f 31/52/28 35/33/28 32/53/28
f 30/54/29 33/55/29 31/52/29
f 18/34/30 33/55/30 14/56/30
f 19/32/31 36/39/31 32/53/31
f 30/54/32 34/38/32 15/57/32
f 37/58/33 42/26/33 40/59/33
f 37/58/34 41/29/34 38/27/34
f 29/60/35 40/59/35 11/61/35
f 11/61/36 42/26/36 15/62/36
f 30/25/37 41/29/37 14/63/37
f 29/60/38 39/30/38 37/58/38
f 17/1/1 22/31/1 27/2/1
f 3/4/2 8/12/2 9/5/2
f 1/7/39 6/64/39 7/8/39
f 5/10/4 4/6/4 9/5/4
f 2/9/5 7/8/5 8/12/5
f 6/13/6 28/22/6 29/14/6
f 9/16/7 12/23/7 13/17/7
f 7/15/8 29/14/8 11/19/8
f 1/21/9 14/45/9 28/22/9
f 8/20/10 11/19/10 12/23/10
f 13/17/40 12/23/40 16/24/40
f 30/25/41 15/62/41 42/26/41
f 11/19/13 15/35/13 16/24/13
f 28/28/14 14/63/14 41/29/14
f 16/24/42 21/36/42 22/31/42
f 19/32/43 32/53/43 35/33/43
f 15/35/17 20/43/17 21/36/17
f 20/37/18 15/57/18 34/38/18
f 22/31/19 21/36/19 26/40/19
f 19/41/20 24/46/20 25/42/20
f 1/21/9 23/65/9 18/44/9
f 20/43/21 25/42/21 26/40/21
f 18/44/22 23/65/22 24/46/22
f 27/47/23 26/50/23 4/6/23
f 24/48/24 2/9/24 3/4/24
f 25/49/25 3/4/25 4/6/25
f 23/51/26 1/7/26 2/9/26
f 13/17/1 17/1/1 5/3/1
f 31/52/27 32/53/27 36/39/27
f 31/52/44 33/55/44 35/33/44
f 30/54/45 14/56/45 33/55/45
f 18/34/30 35/33/30 33/55/30
f 19/32/46 20/37/46 36/39/46
f 30/54/47 31/52/47 34/38/47
f 37/58/33 38/27/33 42/26/33
f 37/58/34 39/30/34 41/29/34
f 29/60/48 37/58/48 40/59/48
f 11/61/36 40/59/36 42/26/36
f 30/25/49 38/27/49 41/29/49
f 29/60/50 28/28/50 39/30/50
v 2.775093 1.509387 -0.083611
v 2.761270 1.493800 -0.063925
v 2.753232 1.468286 -0.053627
v 2.753134 1.439682 -0.055477
v 2.761000 1.415653 -0.068980
v 2.762552 1.507432 -0.108217
v 2.739549 1.490413 -0.106544
v 2.728151 1.464375 -0.102840
v 2.731413 1.436295 -0.098097
v 2.748460 1.413698 -0.093586
v 2.757780 1.452843 -0.148176
v 2.757072 1.426309 -0.137359
v 2.763274 1.407932 -0.116254
v 2.804722 1.497856 -0.128948
v 2.812490 1.445223 -0.144300
v 2.804452 1.419709 -0.134003
v 2.790629 1.404122 -0.114316
v 2.817262 1.499811 -0.104341
v 2.834309 1.477214 -0.099831
v 2.837571 1.449134 -0.095087
v 2.826173 1.423096 -0.091383
v 2.803169 1.406077 -0.089710
v 2.802448 1.505577 -0.081673
v 2.808650 1.487200 -0.060568
v 2.807942 1.460666 -0.049751
v 2.800514 1.433083 -0.052120
v 2.788355 1.411843 -0.067041
v 2.777367 1.501666 -0.130886
v 2.765208 1.480426 -0.145807
v 2.812588 1.473827 -0.142450
v 2.861247 1.486525 -0.143479
v 2.863019 1.486802 -0.140002
v 2.828968 1.499274 -0.133551
v 2.841757 1.457418 -0.140992
v 2.835175 1.500242 -0.121371
v 2.851385 1.458920 -0.122099
v 2.788079 1.490519 -0.187305
v 2.799293 1.488957 -0.186511
v 2.790583 1.498091 -0.170386
v 2.786712 1.471028 -0.175047
v 2.795723 1.497375 -0.170022
v 2.791867 1.470310 -0.174682
vt 0.274240 0.539347
vt 0.265397 0.539709
vt 0.266768 0.532487
vt 0.231414 0.551290
vt 0.214659 0.541092
vt 0.231357 0.542861
vt 0.231940 0.569242
vt 0.215985 0.562822
vt 0.231472 0.559719
vt 0.230890 0.533338
vt 0.220414 0.530957
vt 0.213134 0.552274
vt 0.289666 0.544440
vt 0.282983 0.540904
vt 0.290637 0.536818
vt 0.279682 0.529141
vt 0.275518 0.536619
vt 0.273707 0.532162
vt 0.280945 0.538772
vt 0.286431 0.530872
vt 0.290637 0.551375
vt 0.284312 0.543753
vt 0.278488 0.537315
vt 0.276318 0.541045
vt 0.804698 0.251197
vt 0.792375 0.255919
vt 0.792638 0.252041
vt 0.786357 0.239035
vt 0.792578 0.249274
vt 0.791489 0.249454
vt 0.271776 0.541127
vt 0.760733 0.199751
vt 0.757502 0.209505
vt 0.750621 0.206121
vt 0.278108 0.542645
vt 0.273009 0.544115
vt 0.772804 0.201934
vt 0.766718 0.213101
vt 0.766203 0.208706
vt 0.264007 0.548518
vt 0.277612 0.547903
vt 0.268747 0.555467
vt 0.275021 0.546378
vt 0.280714 0.548498
vt 0.281954 0.545638
vt 0.276612 0.557409
vt 0.240880 0.530957
vt 0.248168 0.561486
vt 0.249693 0.550306
vt 0.246843 0.539760
vt 0.242415 0.571620
vt 0.762287 0.211045
vt 0.762255 0.210544
vt 0.761023 0.221925
vt 0.757316 0.212491
vt 0.750922 0.216572
vt 0.772804 0.220841
vt 0.791613 0.252007
vt 0.791097 0.255536
vt 0.780068 0.250772
vt 0.780487 0.263708
vt 0.804698 0.264828
vt 0.798786 0.238814
vt 0.221949 0.571626
vt 0.283377 0.553479
vn -0.1469 -0.9773 0.1526
vn -0.8898 -0.0264 0.4556
vn -0.5685 0.7907 0.2269
vn -0.7609 -0.4889 0.4267
vn -0.8234 0.4154 0.3866
vn -0.5327 0.6690 -0.5183
vn -0.7251 -0.6106 -0.3186
vn -0.7772 0.2586 -0.5737
vn 0.1469 0.9773 -0.1526
vn -0.8436 -0.1833 -0.5047
vn -0.0604 -0.7615 -0.6453
vn 0.7288 -0.5494 -0.4086
vn 0.0130 -0.3778 -0.9258
vn 0.1408 0.9891 -0.0424
vn 0.5685 -0.7907 -0.2269
vn 0.5681 0.5507 0.6115
vn 0.8234 -0.4154 -0.3866
vn 0.3938 -0.9102 -0.1283
vn 0.5327 -0.6690 0.5183
vn 0.8436 0.1832 0.5047
vn 0.7772 -0.2586 0.5737
vn 0.7251 0.6106 0.3186
vn -0.1320 -0.5181 0.8451
vn -0.0130 0.3778 0.9258
vn -0.0794 -0.0641 0.9948
vn 0.0603 0.7615 0.6453
vn 0.7653 -0.5421 -0.3470
vn 0.2972 0.9279 -0.2251
vn -0.1229 0.3971 -0.9095
vn -0.0669 0.9967 -0.0451
vn 0.8084 0.0398 0.5873
vn 0.0857 0.0640 -0.9943
vn -0.0141 -0.5316 -0.8469
vn 0.1543 0.8931 -0.4225
vn -0.7389 0.2527 -0.6246
vn -0.0672 -0.7913 -0.6078
vn 0.8923 0.4046 -0.2002
vn -0.6872 0.6956 -0.2096
vn -0.5685 0.7908 0.2269
vn -0.7609 -0.4889 0.4266
vn -0.8436 -0.1832 -0.5047
vn -0.0603 -0.7615 -0.6453
vn 0.8391 0.0322 -0.5430
vn 0.6343 0.5152 0.5763
vn 0.0604 0.7615 0.6453
vn 0.7653 -0.5422 -0.3469
vn 0.2972 0.9279 -0.2252
vn -0.1926 0.4320 -0.8811
vn 0.8469 0.1827 0.4993
vn 0.0014 -0.0861 -0.9963
vn 0.1543 0.8931 -0.4226
vn -0.8154 -0.2662 -0.5141
vn 0.8522 0.5172 -0.0795
vn -0.7229 0.6233 -0.2983
s off
f 59/66/51 69/67/51 47/68/51
f 45/69/52 51/70/52 46/71/52
f 43/72/53 49/73/53 44/74/53
f 47/75/54 51/70/54 52/76/54
f 44/74/55 50/77/55 45/69/55
f 48/78/56 71/79/56 49/80/56
f 51/81/57 55/82/57 52/83/57
f 49/80/58 53/84/58 50/85/58
f 43/86/59 70/87/59 48/78/59
f 50/85/60 54/88/60 51/81/60
f 55/82/61 58/89/61 59/66/61
f 72/90/62 84/91/62 80/92/62
f 53/84/63 58/89/63 54/88/63
f 70/93/64 83/94/64 81/95/64
f 58/89/65 64/96/65 59/66/65
f 61/97/66 77/98/66 60/99/66
f 57/100/67 63/101/67 58/89/67
f 62/102/68 76/103/68 78/104/68
f 64/96/69 68/105/69 69/67/69
f 61/106/70 67/107/70 62/108/70
f 43/86/59 60/109/59 56/110/59
f 62/108/71 68/105/71 63/101/71
f 60/109/72 66/111/72 61/106/72
f 69/112/73 46/71/73 47/75/73
f 66/113/74 45/69/74 67/114/74
f 67/114/75 46/71/75 68/115/75
f 65/116/76 44/74/76 66/113/76
f 55/82/51 47/68/51 52/83/51
f 73/117/77 78/104/77 76/103/77
f 73/117/78 77/98/78 74/118/78
f 72/119/79 75/120/79 73/117/79
f 60/99/80 75/120/80 56/121/80
f 61/97/81 78/104/81 74/118/81
f 72/119/82 76/103/82 57/122/82
f 79/123/83 84/91/83 82/124/83
f 79/123/84 83/94/84 80/92/84
f 71/125/85 82/124/85 53/126/85
f 53/126/86 84/91/86 57/127/86
f 72/90/87 83/94/87 56/128/87
f 71/125/88 81/95/88 79/123/88
f 59/66/51 64/96/51 69/67/51
f 45/69/52 50/77/52 51/70/52
f 43/72/89 48/129/89 49/73/89
f 47/75/90 46/71/90 51/70/90
f 44/74/55 49/73/55 50/77/55
f 48/78/56 70/87/56 71/79/56
f 51/81/57 54/88/57 55/82/57
f 49/80/58 71/79/58 53/84/58
f 43/86/59 56/110/59 70/87/59
f 50/85/91 53/84/91 54/88/91
f 55/82/92 54/88/92 58/89/92
f 72/90/93 57/127/93 84/91/93
f 53/84/63 57/100/63 58/89/63
f 70/93/64 56/128/64 83/94/64
f 58/89/65 63/101/65 64/96/65
f 61/97/94 74/118/94 77/98/94
f 57/100/67 62/108/67 63/101/67
f 62/102/68 57/122/68 76/103/68
f 64/96/69 63/101/69 68/105/69
f 61/106/70 66/111/70 67/107/70
f 43/86/59 65/130/59 60/109/59
f 62/108/71 67/107/71 68/105/71
f 60/109/72 65/130/72 66/111/72
f 69/112/73 68/115/73 46/71/73
f 66/113/74 44/74/74 45/69/74
f 67/114/75 45/69/75 46/71/75
f 65/116/95 43/72/95 44/74/95
f 55/82/51 59/66/51 47/68/51
f 73/117/96 74/118/96 78/104/96
f 73/117/97 75/120/97 77/98/97
f 72/119/98 56/121/98 75/120/98
f 60/99/80 77/98/80 75/120/80
f 61/97/99 62/102/99 78/104/99
f 72/119/100 73/117/100 76/103/100
f 79/123/83 80/92/83 84/91/83
f 79/123/101 81/95/101 83/94/101
f 71/125/102 79/123/102 82/124/102
f 53/126/86 82/124/86 84/91/86
f 72/90/103 80/92/103 83/94/103
f 71/125/104 70/93/104 81/95/104
