# Blender v2.81 (sub 16) OBJ File: 'garbage.blend'
# www.blender.org
v -0.556833 2.112040 0.887838
v -0.568523 2.090871 0.872448
v -0.572307 2.062876 0.867596
v -0.567171 2.035555 0.874582
v -0.554492 2.016230 0.891533
v -0.529359 2.112581 0.884457
v -0.520936 2.091808 0.866592
v -0.517358 2.063958 0.860834
v -0.519584 2.036492 0.868725
v -0.527018 2.016771 0.888152
v -0.484070 2.066475 0.905013
v -0.490755 2.038672 0.906986
v -0.510373 2.018029 0.910242
v -0.523545 2.114557 0.932017
v -0.505730 2.067911 0.955954
v -0.509514 2.039916 0.951102
v -0.521203 2.018747 0.935713
v -0.551019 2.114016 0.935398
v -0.558452 2.094295 0.954825
v -0.560679 2.066829 0.962717
v -0.557101 2.038979 0.956959
v -0.548678 2.018206 0.939094
v -0.567663 2.112758 0.913309
v -0.587281 2.092114 0.916565
v -0.593967 2.064312 0.918538
v -0.585929 2.036798 0.918698
v -0.565322 2.016947 0.917004
v -0.512715 2.113840 0.906546
v -0.492107 2.093989 0.904852
v -0.510866 2.095232 0.948969
v -0.528265 2.116176 0.991260
v -0.532148 2.116099 0.991738
v -0.527828 2.121015 0.955491
v -0.520389 2.084177 0.979123
v -0.541428 2.120747 0.957165
v -0.541484 2.083761 0.981719
v -0.462604 2.115513 0.936685
v -0.467044 2.115807 0.947127
v -0.480112 2.120095 0.931956
v -0.471236 2.094134 0.935998
v -0.482147 2.120230 0.936742
v -0.473277 2.094269 0.940797
vt 0.274240 0.539347
vt 0.265397 0.539709
vt 0.266768 0.532487
vt 0.231414 0.551290
vt 0.214659 0.541092
vt 0.231357 0.542861
vt 0.231940 0.569242
vt 0.215985 0.562822
vt 0.231472 0.559719
vt 0.230890 0.533338
vt 0.220414 0.530957
vt 0.213134 0.552274
vt 0.289666 0.544440
vt 0.282983 0.540904
vt 0.290637 0.536818
vt 0.279682 0.529141
vt 0.275518 0.536619
vt 0.273707 0.532162
vt 0.280945 0.538772
vt 0.286431 0.530872
vt 0.290637 0.551375
vt 0.284312 0.543753
vt 0.278488 0.537315
vt 0.276318 0.541045
vt 0.804698 0.251197
vt 0.792375 0.255919
vt 0.792638 0.252041
vt 0.786357 0.239035
vt 0.792578 0.249274
vt 0.791489 0.249454
vt 0.271776 0.541127
vt 0.760733 0.199751
vt 0.757502 0.209505
vt 0.750621 0.206121
vt 0.278108 0.542645
vt 0.273009 0.544115
vt 0.772804 0.201934
vt 0.766718 0.213101
vt 0.766203 0.208706
vt 0.264007 0.548518
vt 0.277612 0.547903
vt 0.268747 0.555467
vt 0.275021 0.546378
vt 0.280714 0.548498
vt 0.281954 0.545638
vt 0.276612 0.557409
vt 0.240880 0.530957
vt 0.248168 0.561486
vt 0.249693 0.550306
vt 0.246843 0.539760
vt 0.242415 0.571620
vt 0.762287 0.211045
vt 0.762255 0.210544
vt 0.761023 0.221925
vt 0.757316 0.212491
vt 0.750922 0.216572
vt 0.772804 0.220841
vt 0.791613 0.252007
vt 0.791097 0.255536
vt 0.780068 0.250772
vt 0.780487 0.263708
vt 0.804698 0.264828
vt 0.798786 0.238814
vt 0.221949 0.571626
vt 0.283377 0.553479
vn 0.0244 -0.9990 0.0385
vn -0.1126 -0.2660 -0.9574
vn -0.1076 0.6228 -0.7749
vn -0.0757 -0.6851 -0.7245
vn -0.1236 0.1857 -0.9748
vn 0.5878 0.6512 -0.4800
vn 0.6198 -0.6568 -0.4296
vn 0.7726 0.2222 -0.5948
vn -0.0244 0.9990 -0.0386
vn 0.7836 -0.2294 -0.5774
vn 0.7114 -0.6256 0.3201
vn 0.1927 -0.3276 0.9250
vn 0.9017 -0.1893 0.3887
vn -0.1262 0.9886 -0.0815
vn 0.1076 -0.6228 0.7749
vn -0.8310 0.5166 0.2064
vn 0.1236 -0.1857 0.9748
vn 0.0906 -0.7872 0.6100
vn -0.5878 -0.6512 0.4800
vn -0.7836 0.2294 0.5774
vn -0.0244 0.9990 -0.0385
vn -0.7726 -0.2222 0.5948
vn -0.6198 0.6568 0.4296
vn -0.6795 -0.6823 -0.2697
vn -0.9017 0.1893 -0.3887
vn -0.8907 -0.2624 -0.3713
vn -0.7114 0.6256 -0.3201
vn 0.1218 -0.3257 0.9376
vn -0.0030 0.9910 0.1340
vn 0.8420 0.5331 0.0824
vn -0.0526 0.9604 -0.2738
vn -0.8313 0.0691 0.5516
vn 0.8880 0.2633 0.3770
vn 0.8558 -0.3575 0.3740
vn 0.2342 0.9695 0.0723
vn 0.8074 0.2327 -0.5421
vn 0.6824 -0.6626 0.3088
vn -0.1706 0.5841 0.7935
vn 0.3509 0.5920 -0.7255
vn 0.0244 -0.9990 0.0386
vn 0.2108 0.2792 0.9368
vn -0.1262 0.9887 -0.0815
vn -0.8170 0.5004 0.2866
vn -0.9017 0.1892 -0.3887
vn 0.8356 0.5494 0.0013
vn -0.0526 0.9603 -0.2738
vn -0.7797 0.2305 0.5822
vn 0.9368 0.1039 0.3340
vn 0.2342 0.9695 0.0724
vn 0.7924 -0.3029 -0.5296
vn -0.2823 0.6633 0.6931
vn 0.4544 0.5326 -0.7141
s off
f 17/1/1 27/2/1 5/3/1
f 3/4/2 9/5/2 4/6/2
f 1/7/3 7/8/3 2/9/3
f 5/10/4 9/5/4 10/11/4
f 2/9/5 8/12/5 3/4/5
f 6/13/6 29/14/6 7/15/6
f 9/16/7 13/17/7 10/18/7
f 7/15/8 11/19/8 8/20/8
f 1/21/9 28/22/9 6/13/9
f 8/20/10 12/23/10 9/16/10
f 13/17/11 16/24/11 17/1/11
f 30/25/12 42/26/12 38/27/12
f 11/19/13 16/24/13 12/23/13
f 28/28/14 41/29/14 39/30/14
f 16/24/15 22/31/15 17/1/15
f 19/32/16 35/33/16 18/34/16
f 15/35/17 21/36/17 16/24/17
f 20/37/18 34/38/18 36/39/18
f 22/31/19 26/40/19 27/2/19
f 19/41/20 25/42/20 20/43/20
f 1/21/21 18/44/21 14/45/21
f 20/43/22 26/40/22 21/36/22
f 18/44/23 24/46/23 19/41/23
f 27/47/24 4/6/24 5/10/24
f 24/48/25 3/4/25 25/49/25
f 25/49/26 4/6/26 26/50/26
f 23/51/27 2/9/27 24/48/27
f 13/17/1 5/3/1 10/18/1
f 31/52/28 36/39/28 34/38/28
f 31/52/29 35/33/29 32/53/29
f 30/54/30 33/55/30 31/52/30
f 18/34/31 33/55/31 14/56/31
f 19/32/32 36/39/32 32/53/32
f 30/54/33 34/38/33 15/57/33
f 37/58/34 42/26/34 40/59/34
f 37/58/35 41/29/35 38/27/35
f 29/60/36 40/59/36 11/61/36
f 11/61/37 42/26/37 15/62/37
f 30/25/38 41/29/38 14/63/38
f 29/60/39 39/30/39 37/58/39
f 17/1/40 22/31/40 27/2/40
f 3/4/2 8/12/2 9/5/2
f 1/7/3 6/64/3 7/8/3
f 5/10/4 4/6/4 9/5/4
f 2/9/5 7/8/5 8/12/5
f 6/13/6 28/22/6 29/14/6
f 9/16/7 12/23/7 13/17/7
f 7/15/8 29/14/8 11/19/8
f 1/21/21 14/45/21 28/22/21
f 8/20/10 11/19/10 12/23/10
f 13/17/11 12/23/11 16/24/11
f 30/25/41 15/62/41 42/26/41
f 11/19/13 15/35/13 16/24/13
f 28/28/42 14/63/42 41/29/42
f 16/24/15 21/36/15 22/31/15
f 19/32/43 32/53/43 35/33/43
f 15/35/17 20/43/17 21/36/17
f 20/37/18 15/57/18 34/38/18
f 22/31/19 21/36/19 26/40/19
f 19/41/20 24/46/20 25/42/20
f 1/21/21 23/65/21 18/44/21
f 20/43/22 25/42/22 26/40/22
f 18/44/23 23/65/23 24/46/23
f 27/47/24 26/50/24 4/6/24
f 24/48/44 2/9/44 3/4/44
f 25/49/26 3/4/26 4/6/26
f 23/51/27 1/7/27 2/9/27
f 13/17/1 17/1/1 5/3/1
f 31/52/28 32/53/28 36/39/28
f 31/52/29 33/55/29 35/33/29
f 30/54/45 14/56/45 33/55/45
f 18/34/46 35/33/46 33/55/46
f 19/32/47 20/37/47 36/39/47
f 30/54/48 31/52/48 34/38/48
f 37/58/34 38/27/34 42/26/34
f 37/58/49 39/30/49 41/29/49
f 29/60/50 37/58/50 40/59/50
f 11/61/37 40/59/37 42/26/37
f 30/25/51 38/27/51 41/29/51
f 29/60/52 28/28/52 39/30/52
v -2.122277 1.539065 0.365213
v -2.120103 1.522140 0.342182
v -2.116405 1.496109 0.330766
v -2.112175 1.467947 0.334024
v -2.108545 1.445200 0.351083
v -2.098065 1.540599 0.378554
v -2.078166 1.524796 0.365290
v -2.067981 1.499176 0.357449
v -2.070239 1.470604 0.357132
v -2.084333 1.446734 0.364424
v -2.065993 1.491223 0.412212
v -2.068517 1.463716 0.404559
v -2.083339 1.442757 0.391806
v -2.120289 1.531112 0.419976
v -2.112429 1.480203 0.440293
v -2.108732 1.454172 0.428877
v -2.106557 1.437247 0.405846
v -2.144501 1.529578 0.406635
v -2.158596 1.505709 0.413927
v -2.160853 1.477136 0.413610
v -2.150668 1.451516 0.405769
v -2.130769 1.435714 0.392505
v -2.145495 1.533555 0.379253
v -2.160317 1.512596 0.366500
v -2.162841 1.485089 0.358846
v -2.152389 1.458404 0.358342
v -2.131763 1.439690 0.365123
v -2.097071 1.536622 0.405936
v -2.076445 1.517909 0.412717
v -2.116659 1.508365 0.437035
v -2.157600 1.518391 0.464481
v -2.161022 1.518174 0.462596
v -2.137883 1.531700 0.437331
v -2.139732 1.490311 0.453279
v -2.149868 1.530941 0.430727
v -2.158322 1.489133 0.443036
v -2.073374 1.531348 0.459160
v -2.082893 1.529089 0.464916
v -2.085656 1.536809 0.446153
v -2.076923 1.510701 0.449507
v -2.090019 1.535774 0.448791
v -2.081298 1.509663 0.452153
vt 0.274240 0.539347
vt 0.265397 0.539709
vt 0.266768 0.532487
vt 0.231414 0.551290
vt 0.214659 0.541092
vt 0.231357 0.542861
vt 0.231940 0.569242
vt 0.215985 0.562822
vt 0.231472 0.559719
vt 0.230890 0.533338
vt 0.220414 0.530957
vt 0.213134 0.552274
vt 0.289666 0.544440
vt 0.282983 0.540904
vt 0.290637 0.536818
vt 0.279682 0.529141
vt 0.275518 0.536619
vt 0.273707 0.532162
vt 0.280945 0.538772
vt 0.286431 0.530872
vt 0.290637 0.551375
vt 0.284312 0.543753
vt 0.278488 0.537315
vt 0.276318 0.541045
vt 0.804698 0.251197
vt 0.792375 0.255919
vt 0.792638 0.252041
vt 0.786357 0.239035
vt 0.792578 0.249274
vt 0.791489 0.249454
vt 0.271776 0.541127
vt 0.760733 0.199751
vt 0.757502 0.209505
vt 0.750621 0.206121
vt 0.278108 0.542645
vt 0.273009 0.544115
vt 0.772804 0.201934
vt 0.766718 0.213101
vt 0.766203 0.208706
vt 0.264007 0.548518
vt 0.277612 0.547903
vt 0.268747 0.555467
vt 0.275021 0.546378
vt 0.280714 0.548498
vt 0.281954 0.545638
vt 0.276612 0.557409
vt 0.240880 0.530957
vt 0.248168 0.561486
vt 0.249693 0.550306
vt 0.246843 0.539760
vt 0.242415 0.571620
vt 0.762287 0.211045
vt 0.762255 0.210544
vt 0.761023 0.221925
vt 0.757316 0.212491
vt 0.750922 0.216572
vt 0.772804 0.220841
vt 0.791613 0.252007
vt 0.791097 0.255536
vt 0.780068 0.250772
vt 0.780487 0.263708
vt 0.804698 0.264828
vt 0.798786 0.238814
vt 0.221949 0.571626
vt 0.283377 0.553479
vn 0.1432 -0.9787 -0.1473
vn 0.4838 -0.0285 -0.8747
vn 0.2566 0.7902 -0.5565
vn 0.4440 -0.4911 -0.7494
vn 0.4191 0.4139 -0.8081
vn 0.6539 0.7517 0.0854
vn 0.8414 -0.5297 -0.1075
vn 0.9311 0.3643 0.0191
vn -0.1432 0.9787 0.1473
vn 0.9958 -0.0781 -0.0475
vn 0.4911 -0.6792 0.5455
vn -0.3143 -0.5392 0.7814
vn 0.5444 -0.2709 0.7939
vn -0.2005 0.9783 0.0524
vn -0.2566 -0.7902 0.5565
vn -0.8680 0.4458 -0.2186
vn -0.4191 -0.4139 0.8081
vn -0.1541 -0.9102 0.3844
vn -0.6539 -0.7517 -0.0854
vn -0.9958 0.0781 0.0475
vn -0.9311 -0.3643 -0.0191
vn -0.8414 0.5296 0.1075
vn -0.3036 -0.6022 -0.7384
vn -0.5444 0.2709 -0.7939
vn -0.4796 -0.1716 -0.8605
vn -0.4911 0.6792 -0.5455
vn -0.3794 -0.5409 0.7507
vn -0.2214 0.9295 0.2949
vn 0.5628 0.5036 0.6555
vn -0.0286 0.9976 -0.0628
vn -0.9969 -0.0716 -0.0314
vn 0.4742 0.1711 0.8637
vn 0.5396 -0.4309 0.7232
vn 0.0098 0.9252 0.3793
vn 0.9285 0.3621 0.0830
vn 0.4791 -0.7126 0.5126
vn -0.6689 0.3747 0.6420
vn 0.6071 0.7517 -0.2577
vn 0.4440 -0.4912 -0.7494
vn 0.9958 -0.0782 -0.0475
vn -0.3941 0.0470 0.9179
vn 0.5444 -0.2708 0.7939
vn -0.8992 0.4110 -0.1501
vn -0.9958 0.0782 0.0475
vn -0.8414 0.5297 0.1075
vn -0.5444 0.2708 -0.7939
vn -0.4910 0.6792 -0.5455
vn 0.6006 0.5388 0.5907
vn -0.9955 0.0781 0.0538
vn 0.5612 0.0271 0.8272
vn 0.5396 -0.4309 0.7233
vn 0.0098 0.9252 0.3792
vn 0.9868 -0.1609 -0.0187
vn 0.4791 -0.7126 0.5125
vn -0.7150 0.4750 0.5129
vn 0.6936 0.6920 -0.2001
s off
f 59/66/53 69/67/53 47/68/53
f 45/69/54 51/70/54 46/71/54
f 43/72/55 49/73/55 44/74/55
f 47/75/56 51/70/56 52/76/56
f 44/74/57 50/77/57 45/69/57
f 48/78/58 71/79/58 49/80/58
f 51/81/59 55/82/59 52/83/59
f 49/80/60 53/84/60 50/85/60
f 43/86/61 70/87/61 48/78/61
f 50/85/62 54/88/62 51/81/62
f 55/82/63 58/89/63 59/66/63
f 72/90/64 84/91/64 80/92/64
f 53/84/65 58/89/65 54/88/65
f 70/93/66 83/94/66 81/95/66
f 58/89/67 64/96/67 59/66/67
f 61/97/68 77/98/68 60/99/68
f 57/100/69 63/101/69 58/89/69
f 62/102/70 76/103/70 78/104/70
f 64/96/71 68/105/71 69/67/71
f 61/106/72 67/107/72 62/108/72
f 43/86/61 60/109/61 56/110/61
f 62/108/73 68/105/73 63/101/73
f 60/109/74 66/111/74 61/106/74
f 69/112/75 46/71/75 47/75/75
f 66/113/76 45/69/76 67/114/76
f 67/114/77 46/71/77 68/115/77
f 65/116/78 44/74/78 66/113/78
f 55/82/53 47/68/53 52/83/53
f 73/117/79 78/104/79 76/103/79
f 73/117/80 77/98/80 74/118/80
f 72/119/81 75/120/81 73/117/81
f 60/99/82 75/120/82 56/121/82
f 61/97/83 78/104/83 74/118/83
f 72/119/84 76/103/84 57/122/84
f 79/123/85 84/91/85 82/124/85
f 79/123/86 83/94/86 80/92/86
f 71/125/87 82/124/87 53/126/87
f 53/126/88 84/91/88 57/127/88
f 72/90/89 83/94/89 56/128/89
f 71/125/90 81/95/90 79/123/90
f 59/66/53 64/96/53 69/67/53
f 45/69/54 50/77/54 51/70/54
f 43/72/55 48/129/55 49/73/55
f 47/75/91 46/71/91 51/70/91
f 44/74/57 49/73/57 50/77/57
f 48/78/58 70/87/58 71/79/58
f 51/81/59 54/88/59 55/82/59
f 49/80/60 71/79/60 53/84/60
f 43/86/61 56/110/61 70/87/61
f 50/85/92 53/84/92 54/88/92
f 55/82/63 54/88/63 58/89/63
f 72/90/93 57/127/93 84/91/93
f 53/84/94 57/100/94 58/89/94
f 70/93/66 56/128/66 83/94/66
f 58/89/67 63/101/67 64/96/67
f 61/97/95 74/118/95 77/98/95
f 57/100/69 62/108/69 63/101/69
f 62/102/70 57/122/70 76/103/70
f 64/96/71 63/101/71 68/105/71
f 61/106/96 66/111/96 67/107/96
f 43/86/61 65/130/61 60/109/61
f 62/108/73 67/107/73 68/105/73
f 60/109/97 65/130/97 66/111/97
f 69/112/75 68/115/75 46/71/75
f 66/113/98 44/74/98 45/69/98
f 67/114/77 45/69/77 46/71/77
f 65/116/99 43/72/99 44/74/99
f 55/82/53 59/66/53 47/68/53
f 73/117/79 74/118/79 78/104/79
f 73/117/80 75/120/80 77/98/80
f 72/119/100 56/121/100 75/120/100
f 60/99/82 77/98/82 75/120/82
f 61/97/101 62/102/101 78/104/101
f 72/119/102 73/117/102 76/103/102
f 79/123/103 80/92/103 84/91/103
f 79/123/104 81/95/104 83/94/104
f 71/125/105 79/123/105 82/124/105
f 53/126/106 82/124/106 84/91/106
f 72/90/107 80/92/107 83/94/107
f 71/125/108 70/93/108 81/95/108
