# Blender v2.81 (sub 16) OBJ File: 'garbage.blend'
# www.blender.org
v 0.355256 1.717570 -0.750880
v 0.345271 1.709431 -0.725274
v 0.334874 1.689037 -0.708023
v 0.326850 1.661854 -0.703749
v 0.323350 1.635164 -0.713598
v 0.335186 1.716721 -0.769933
v 0.310509 1.707960 -0.758276
v 0.294735 1.687338 -0.746130
v 0.292089 1.660382 -0.736751
v 0.303280 1.634314 -0.732652
v 0.303592 1.661997 -0.794562
v 0.299760 1.638436 -0.778694
v 0.307709 1.621644 -0.756868
v 0.364114 1.692230 -0.799311
v 0.352590 1.638356 -0.804886
v 0.342193 1.617962 -0.787635
v 0.332208 1.609823 -0.762030
v 0.384184 1.693079 -0.780258
v 0.395375 1.667011 -0.776158
v 0.392729 1.640055 -0.766779
v 0.376954 1.619434 -0.754633
v 0.352278 1.610673 -0.742976
v 0.379755 1.705750 -0.756042
v 0.387704 1.688957 -0.734215
v 0.383871 1.665396 -0.718347
v 0.369283 1.641379 -0.712690
v 0.347849 1.623343 -0.718760
v 0.339615 1.704050 -0.794149
v 0.318181 1.686014 -0.800219
v 0.360614 1.665540 -0.809160
v 0.407685 1.662372 -0.826601
v 0.410521 1.662492 -0.823909
v 0.384952 1.685539 -0.810804
v 0.383375 1.641212 -0.812654
v 0.394887 1.685960 -0.801372
v 0.398785 1.641864 -0.798024
v 0.327714 1.683620 -0.847658
v 0.337757 1.678774 -0.849774
v 0.337554 1.691972 -0.834119
v 0.325565 1.667080 -0.831726
v 0.342157 1.689751 -0.835089
v 0.330181 1.664852 -0.832698
vt 0.274240 0.539347
vt 0.265397 0.539709
vt 0.266768 0.532487
vt 0.231414 0.551290
vt 0.214659 0.541092
vt 0.231357 0.542861
vt 0.231940 0.569242
vt 0.215985 0.562822
vt 0.231472 0.559719
vt 0.230890 0.533338
vt 0.220414 0.530957
vt 0.213134 0.552274
vt 0.289666 0.544440
vt 0.282983 0.540904
vt 0.290637 0.536818
vt 0.279682 0.529141
vt 0.275518 0.536619
vt 0.273707 0.532162
vt 0.280945 0.538772
vt 0.286431 0.530872
vt 0.290637 0.551375
vt 0.284312 0.543753
vt 0.278488 0.537315
vt 0.276318 0.541045
vt 0.804698 0.251197
vt 0.792375 0.255919
vt 0.792638 0.252041
vt 0.786357 0.239035
vt 0.792578 0.249274
vt 0.791489 0.249454
vt 0.271776 0.541127
vt 0.760733 0.199751
vt 0.757502 0.209505
vt 0.750621 0.206121
vt 0.278108 0.542645
vt 0.273009 0.544115
vt 0.772804 0.201934
vt 0.766718 0.213101
vt 0.766203 0.208706
vt 0.264007 0.548518
vt 0.277612 0.547903
vt 0.268747 0.555467
vt 0.275021 0.546378
vt 0.280714 0.548498
vt 0.281954 0.545638
vt 0.276612 0.557409
vt 0.240880 0.530957
vt 0.248168 0.561486
vt 0.249693 0.550306
vt 0.246843 0.539760
vt 0.242415 0.571620
vt 0.762287 0.211045
vt 0.762255 0.210544
vt 0.761023 0.221925
vt 0.757316 0.212491
vt 0.750922 0.216572
vt 0.772804 0.220841
vt 0.791613 0.252007
vt 0.791097 0.255536
vt 0.780068 0.250772
vt 0.780487 0.263708
vt 0.804698 0.264828
vt 0.798786 0.238814
vt 0.221949 0.571626
vt 0.283377 0.553479
vn -0.3327 -0.8592 0.3887
vn -0.6628 0.3033 0.6846
vn -0.2382 0.9485 0.2086
vn -0.6738 -0.1764 0.7176
vn -0.5124 0.6917 0.5089
vn -0.4848 0.7354 -0.4735
vn -0.9203 -0.3895 0.0355
vn -0.8301 0.4171 -0.3700
vn 0.3327 0.8592 -0.3887
vn -0.9805 0.0286 -0.1943
vn -0.4643 -0.7756 -0.4276
vn 0.3850 -0.7916 -0.4746
vn -0.3929 -0.4689 -0.7911
vn 0.3667 0.8851 -0.2864
vn 0.2382 -0.9485 -0.2086
vn 0.8600 0.4158 0.2958
vn 0.5124 -0.6917 -0.5089
vn 0.0818 -0.9958 -0.0418
vn 0.4848 -0.7354 0.4735
vn 0.9805 -0.0286 0.1943
vn 0.8301 -0.4171 0.3700
vn 0.9203 0.3895 -0.0355
vn 0.0288 -0.3494 0.9365
vn 0.3929 0.4689 0.7911
vn 0.2425 0.0804 0.9668
vn 0.4643 0.7756 0.4276
vn 0.4405 -0.7887 -0.4288
vn 0.4322 0.7576 -0.4890
vn -0.3125 0.3064 -0.8991
vn 0.1793 0.9562 -0.2315
vn 0.9393 -0.1435 0.3115
vn -0.2366 -0.0824 -0.9681
vn -0.4305 -0.5965 -0.6774
vn 0.2280 0.7459 -0.6259
vn -0.8139 0.3937 -0.4274
vn -0.4656 -0.7972 -0.3843
vn 0.8468 0.0828 -0.5254
vn -0.5155 0.8443 -0.1462
vn 0.5892 -0.2923 -0.7532
vn 0.8993 0.3577 0.2514
vn 0.8301 -0.4171 0.3701
vn 0.3929 0.4688 0.7911
vn 0.4322 0.7576 -0.4891
vn -0.3574 0.3642 -0.8600
vn 0.9816 -0.0308 0.1885
vn -0.3522 -0.1982 -0.9147
vn -0.9792 -0.0594 -0.1938
vn 0.8793 0.2156 -0.4246
vn -0.5958 0.7768 -0.2040
s off
f 17/1/1 27/2/1 5/3/1
f 3/4/2 9/5/2 4/6/2
f 1/7/3 7/8/3 2/9/3
f 5/10/4 9/5/4 10/11/4
f 2/9/5 8/12/5 3/4/5
f 6/13/6 29/14/6 7/15/6
f 9/16/7 13/17/7 10/18/7
f 7/15/8 11/19/8 8/20/8
f 1/21/9 28/22/9 6/13/9
f 8/20/10 12/23/10 9/16/10
f 13/17/11 16/24/11 17/1/11
f 30/25/12 42/26/12 38/27/12
f 11/19/13 16/24/13 12/23/13
f 28/28/14 41/29/14 39/30/14
f 16/24/15 22/31/15 17/1/15
f 19/32/16 35/33/16 18/34/16
f 15/35/17 21/36/17 16/24/17
f 20/37/18 34/38/18 36/39/18
f 22/31/19 26/40/19 27/2/19
f 19/41/20 25/42/20 20/43/20
f 1/21/9 18/44/9 14/45/9
f 20/43/21 26/40/21 21/36/21
f 18/44/22 24/46/22 19/41/22
f 27/47/23 4/6/23 5/10/23
f 24/48/24 3/4/24 25/49/24
f 25/49/25 4/6/25 26/50/25
f 23/51/26 2/9/26 24/48/26
f 13/17/1 5/3/1 10/18/1
f 31/52/27 36/39/27 34/38/27
f 31/52/28 35/33/28 32/53/28
f 30/54/29 33/55/29 31/52/29
f 18/34/30 33/55/30 14/56/30
f 19/32/31 36/39/31 32/53/31
f 30/54/32 34/38/32 15/57/32
f 37/58/33 42/26/33 40/59/33
f 37/58/34 41/29/34 38/27/34
f 29/60/35 40/59/35 11/61/35
f 11/61/36 42/26/36 15/62/36
f 30/25/37 41/29/37 14/63/37
f 29/60/38 39/30/38 37/58/38
f 17/1/1 22/31/1 27/2/1
f 3/4/2 8/12/2 9/5/2
f 1/7/3 6/64/3 7/8/3
f 5/10/4 4/6/4 9/5/4
f 2/9/5 7/8/5 8/12/5
f 6/13/6 28/22/6 29/14/6
f 9/16/7 12/23/7 13/17/7
f 7/15/8 29/14/8 11/19/8
f 1/21/9 14/45/9 28/22/9
f 8/20/10 11/19/10 12/23/10
f 13/17/11 12/23/11 16/24/11
f 30/25/39 15/62/39 42/26/39
f 11/19/13 15/35/13 16/24/13
f 28/28/14 14/63/14 41/29/14
f 16/24/15 21/36/15 22/31/15
f 19/32/40 32/53/40 35/33/40
f 15/35/17 20/43/17 21/36/17
f 20/37/18 15/57/18 34/38/18
f 22/31/19 21/36/19 26/40/19
f 19/41/20 24/46/20 25/42/20
f 1/21/9 23/65/9 18/44/9
f 20/43/41 25/42/41 26/40/41
f 18/44/22 23/65/22 24/46/22
f 27/47/23 26/50/23 4/6/23
f 24/48/42 2/9/42 3/4/42
f 25/49/25 3/4/25 4/6/25
f 23/51/26 1/7/26 2/9/26
f 13/17/1 17/1/1 5/3/1
f 31/52/27 32/53/27 36/39/27
f 31/52/43 33/55/43 35/33/43
f 30/54/44 14/56/44 33/55/44
f 18/34/30 35/33/30 33/55/30
f 19/32/45 20/37/45 36/39/45
f 30/54/46 31/52/46 34/38/46
f 37/58/33 38/27/33 42/26/33
f 37/58/34 39/30/34 41/29/34
f 29/60/47 37/58/47 40/59/47
f 11/61/36 40/59/36 42/26/36
f 30/25/48 38/27/48 41/29/48
f 29/60/49 28/28/49 39/30/49
v 2.982648 1.342721 -0.605300
v 2.972427 1.326128 -0.584281
v 2.966041 1.300118 -0.574069
v 2.965200 1.271661 -0.577399
v 2.970129 1.248382 -0.593380
v 2.965803 1.342181 -0.627266
v 2.943252 1.325192 -0.622328
v 2.932352 1.299037 -0.618002
v 2.936024 1.270725 -0.615447
v 2.953285 1.247841 -0.615347
v 2.953048 1.289905 -0.668544
v 2.953948 1.262816 -0.659218
v 2.963633 1.243275 -0.640618
v 3.003344 1.333589 -0.655842
v 3.007433 1.281853 -0.675153
v 3.001046 1.255843 -0.664941
v 2.990826 1.239250 -0.643922
v 3.020189 1.334129 -0.633875
v 3.037449 1.311246 -0.633776
v 3.041122 1.282934 -0.631220
v 3.030222 1.256779 -0.626894
v 3.007670 1.239790 -0.621956
v 3.009840 1.338696 -0.608604
v 3.019526 1.319155 -0.590005
v 3.020426 1.292066 -0.580678
v 3.012299 1.264688 -0.583123
v 2.997322 1.244356 -0.596685
v 2.976151 1.337615 -0.652538
v 2.961175 1.317283 -0.666099
v 3.008274 1.310310 -0.671823
v 3.056104 1.322843 -0.681052
v 3.058484 1.322919 -0.677948
v 3.026362 1.335158 -0.664720
v 3.036983 1.293725 -0.676605
v 3.034699 1.335426 -0.653846
v 3.049916 1.294139 -0.659739
v 2.976234 1.329558 -0.710479
v 2.987382 1.327908 -0.711834
v 2.981890 1.336173 -0.693923
v 2.976849 1.309425 -0.699240
v 2.986999 1.335416 -0.694544
v 2.981973 1.308667 -0.699862
vt 0.274240 0.539347
vt 0.265397 0.539709
vt 0.266768 0.532487
vt 0.231414 0.551290
vt 0.214659 0.541092
vt 0.231357 0.542861
vt 0.231940 0.569242
vt 0.215985 0.562822
vt 0.231472 0.559719
vt 0.230890 0.533338
vt 0.220414 0.530957
vt 0.213134 0.552274
vt 0.289666 0.544440
vt 0.282983 0.540904
vt 0.290637 0.536818
vt 0.279682 0.529141
vt 0.275518 0.536619
vt 0.273707 0.532162
vt 0.280945 0.538772
vt 0.286431 0.530872
vt 0.290637 0.551375
vt 0.284312 0.543753
vt 0.278488 0.537315
vt 0.276318 0.541045
vt 0.804698 0.251197
vt 0.792375 0.255919
vt 0.792638 0.252041
vt 0.786357 0.239035
vt 0.792578 0.249274
vt 0.791489 0.249454
vt 0.271776 0.541127
vt 0.760733 0.199751
vt 0.757502 0.209505
vt 0.750621 0.206121
vt 0.278108 0.542645
vt 0.273009 0.544115
vt 0.772804 0.201934
vt 0.766718 0.213101
vt 0.766203 0.208706
vt 0.264007 0.548518
vt 0.277612 0.547903
vt 0.268747 0.555467
vt 0.275021 0.546378
vt 0.280714 0.548498
vt 0.281954 0.545638
vt 0.276612 0.557409
vt 0.240880 0.530957
vt 0.248168 0.561486
vt 0.249693 0.550306
vt 0.246843 0.539760
vt 0.242415 0.571620
vt 0.762287 0.211045
vt 0.762255 0.210544
vt 0.761023 0.221925
vt 0.757316 0.212491
vt 0.750922 0.216572
vt 0.772804 0.220841
vt 0.791613 0.252007
vt 0.791097 0.255536
vt 0.780068 0.250772
vt 0.780487 0.263708
vt 0.804698 0.264828
vt 0.798786 0.238814
vt 0.221949 0.571626
vt 0.283377 0.553479
vn -0.1305 -0.9836 0.1243
vn -0.7921 -0.0478 0.6086
vn -0.5063 0.7794 0.3691
vn -0.6772 -0.5085 0.5318
vn -0.7331 0.3969 0.5524
vn -0.6087 0.6989 -0.3755
vn -0.7796 -0.5890 -0.2128
vn -0.8650 0.2931 -0.4072
vn 0.1305 0.9836 -0.1243
vn -0.9240 -0.1515 -0.3510
vn -0.1879 -0.7244 -0.6633
vn 0.6342 -0.5291 -0.5638
vn -0.1615 -0.3261 -0.9315
vn 0.1447 0.9894 -0.0144
vn 0.5063 -0.7794 -0.3691
vn 0.6779 0.5136 0.5259
vn 0.7331 -0.3969 -0.5524
vn 0.3508 -0.9033 -0.2468
vn 0.6087 -0.6989 0.3755
vn 0.9240 0.1515 0.3510
vn 0.8650 -0.2931 0.4072
vn 0.7796 0.5890 0.2128
vn 0.0170 -0.5634 0.8260
vn 0.1615 0.3261 0.9315
vn 0.1025 -0.1186 0.9876
vn 0.1878 0.7244 0.6633
vn 0.6814 -0.5253 -0.5096
vn 0.2643 0.9376 -0.2258
vn -0.2810 0.4473 -0.8491
vn -0.0598 0.9980 0.0213
vn 0.9025 0.0039 0.4308
vn -0.0962 0.1185 -0.9883
vn -0.1758 -0.4839 -0.8573
vn 0.0874 0.9144 -0.3952
vn -0.8368 0.2899 -0.4645
vn -0.1881 -0.7562 -0.6268
vn 0.8465 0.4113 -0.3381
vn -0.7039 0.7090 -0.0428
vn -0.1878 -0.7244 -0.6633
vn 0.7264 0.0587 -0.6848
vn 0.7361 0.4799 0.4773
vn 0.3508 -0.9034 -0.2468
vn 0.1879 0.7244 0.6633
vn 0.2643 0.9377 -0.2257
vn -0.3439 0.4809 -0.8065
vn 0.9263 0.1513 0.3451
vn -0.1816 -0.0309 -0.9829
vn -0.8992 -0.2339 -0.3698
vn 0.8306 0.5173 -0.2062
vn -0.7562 0.6419 -0.1272
s off
f 59/66/50 69/67/50 47/68/50
f 45/69/51 51/70/51 46/71/51
f 43/72/52 49/73/52 44/74/52
f 47/75/53 51/70/53 52/76/53
f 44/74/54 50/77/54 45/69/54
f 48/78/55 71/79/55 49/80/55
f 51/81/56 55/82/56 52/83/56
f 49/80/57 53/84/57 50/85/57
f 43/86/58 70/87/58 48/78/58
f 50/85/59 54/88/59 51/81/59
f 55/82/60 58/89/60 59/66/60
f 72/90/61 84/91/61 80/92/61
f 53/84/62 58/89/62 54/88/62
f 70/93/63 83/94/63 81/95/63
f 58/89/64 64/96/64 59/66/64
f 61/97/65 77/98/65 60/99/65
f 57/100/66 63/101/66 58/89/66
f 62/102/67 76/103/67 78/104/67
f 64/96/68 68/105/68 69/67/68
f 61/106/69 67/107/69 62/108/69
f 43/86/58 60/109/58 56/110/58
f 62/108/70 68/105/70 63/101/70
f 60/109/71 66/111/71 61/106/71
f 69/112/72 46/71/72 47/75/72
f 66/113/73 45/69/73 67/114/73
f 67/114/74 46/71/74 68/115/74
f 65/116/75 44/74/75 66/113/75
f 55/82/50 47/68/50 52/83/50
f 73/117/76 78/104/76 76/103/76
f 73/117/77 77/98/77 74/118/77
f 72/119/78 75/120/78 73/117/78
f 60/99/79 75/120/79 56/121/79
f 61/97/80 78/104/80 74/118/80
f 72/119/81 76/103/81 57/122/81
f 79/123/82 84/91/82 82/124/82
f 79/123/83 83/94/83 80/92/83
f 71/125/84 82/124/84 53/126/84
f 53/126/85 84/91/85 57/127/85
f 72/90/86 83/94/86 56/128/86
f 71/125/87 81/95/87 79/123/87
f 59/66/50 64/96/50 69/67/50
f 45/69/51 50/77/51 51/70/51
f 43/72/52 48/129/52 49/73/52
f 47/75/53 46/71/53 51/70/53
f 44/74/54 49/73/54 50/77/54
f 48/78/55 70/87/55 71/79/55
f 51/81/56 54/88/56 55/82/56
f 49/80/57 71/79/57 53/84/57
f 43/86/58 56/110/58 70/87/58
f 50/85/59 53/84/59 54/88/59
f 55/82/88 54/88/88 58/89/88
f 72/90/89 57/127/89 84/91/89
f 53/84/62 57/100/62 58/89/62
f 70/93/63 56/128/63 83/94/63
f 58/89/64 63/101/64 64/96/64
f 61/97/90 74/118/90 77/98/90
f 57/100/66 62/108/66 63/101/66
f 62/102/91 57/122/91 76/103/91
f 64/96/68 63/101/68 68/105/68
f 61/106/69 66/111/69 67/107/69
f 43/86/58 65/130/58 60/109/58
f 62/108/70 67/107/70 68/105/70
f 60/109/71 65/130/71 66/111/71
f 69/112/72 68/115/72 46/71/72
f 66/113/73 44/74/73 45/69/73
f 67/114/74 45/69/74 46/71/74
f 65/116/92 43/72/92 44/74/92
f 55/82/50 59/66/50 47/68/50
f 73/117/76 74/118/76 78/104/76
f 73/117/93 75/120/93 77/98/93
f 72/119/94 56/121/94 75/120/94
f 60/99/79 77/98/79 75/120/79
f 61/97/95 62/102/95 78/104/95
f 72/119/96 73/117/96 76/103/96
f 79/123/82 80/92/82 84/91/82
f 79/123/83 81/95/83 83/94/83
f 71/125/97 79/123/97 82/124/97
f 53/126/85 82/124/85 84/91/85
f 72/90/98 80/92/98 83/94/98
f 71/125/99 70/93/99 81/95/99
