# Blender v2.81 (sub 16) OBJ File: 'garbage.blend'
# www.blender.org
v -0.661906 2.239800 -0.321900
v -0.662781 2.229382 -0.348589
v -0.664674 2.207064 -0.366475
v -0.667078 2.178825 -0.370765
v -0.669349 2.152233 -0.360310
v -0.638491 2.232241 -0.309204
v -0.622226 2.216289 -0.326598
v -0.617845 2.191945 -0.341082
v -0.626523 2.165732 -0.348775
v -0.645935 2.144674 -0.347614
v -0.619752 2.169851 -0.290343
v -0.628175 2.146598 -0.304833
v -0.646888 2.133627 -0.322245
v -0.663813 2.217706 -0.271161
v -0.668488 2.162875 -0.264996
v -0.670381 2.140557 -0.282882
v -0.671256 2.130139 -0.309571
v -0.687227 2.225266 -0.283857
v -0.706638 2.204207 -0.282696
v -0.715316 2.177994 -0.290389
v -0.710936 2.153650 -0.304873
v -0.694670 2.137698 -0.322267
v -0.686273 2.236312 -0.309226
v -0.704987 2.223341 -0.326638
v -0.713409 2.200088 -0.341128
v -0.709284 2.172784 -0.348814
v -0.693717 2.148746 -0.347637
v -0.639445 2.221194 -0.283834
v -0.623877 2.197155 -0.282657
v -0.666084 2.191114 -0.260706
v -0.704665 2.202794 -0.230623
v -0.707974 2.203862 -0.232417
v -0.681445 2.217795 -0.253835
v -0.693242 2.175251 -0.249175
v -0.693035 2.221537 -0.260120
v -0.711219 2.181055 -0.258923
v -0.619560 2.197040 -0.234404
v -0.629550 2.195611 -0.229208
v -0.629788 2.208345 -0.245241
v -0.627347 2.180978 -0.249012
v -0.634367 2.207690 -0.242860
v -0.631939 2.180321 -0.246624
vt 0.274240 0.539347
vt 0.265397 0.539709
vt 0.266768 0.532487
vt 0.231414 0.551290
vt 0.214659 0.541092
vt 0.231357 0.542861
vt 0.231940 0.569242
vt 0.215985 0.562822
vt 0.231472 0.559719
vt 0.230890 0.533338
vt 0.220414 0.530957
vt 0.213134 0.552274
vt 0.289666 0.544440
vt 0.282983 0.540904
vt 0.290637 0.536818
vt 0.279682 0.529141
vt 0.275518 0.536619
vt 0.273707 0.532162
vt 0.280945 0.538772
vt 0.286431 0.530872
vt 0.290637 0.551375
vt 0.284312 0.543753
vt 0.278488 0.537315
vt 0.276318 0.541045
vt 0.804698 0.251197
vt 0.792375 0.255919
vt 0.792638 0.252041
vt 0.786357 0.239035
vt 0.792578 0.249274
vt 0.791489 0.249454
vt 0.271776 0.541127
vt 0.760733 0.199751
vt 0.757502 0.209505
vt 0.750621 0.206121
vt 0.278108 0.542645
vt 0.273009 0.544115
vt 0.772804 0.201934
vt 0.766718 0.213101
vt 0.766203 0.208706
vt 0.264007 0.548518
vt 0.277612 0.547903
vt 0.268747 0.555467
vt 0.275021 0.546378
vt 0.280714 0.548498
vt 0.281954 0.545638
vt 0.276612 0.557409
vt 0.240880 0.530957
vt 0.248168 0.561486
vt 0.249693 0.550306
vt 0.246843 0.539760
vt 0.242415 0.571620
vt 0.762287 0.211045
vt 0.762255 0.210544
vt 0.761023 0.221925
vt 0.757316 0.212491
vt 0.750922 0.216572
vt 0.772804 0.220841
vt 0.791613 0.252007
vt 0.791097 0.255536
vt 0.780068 0.250772
vt 0.780487 0.263708
vt 0.804698 0.264828
vt 0.798786 0.238814
vt 0.221949 0.571626
vt 0.283377 0.553479
vn -0.0776 -0.9130 -0.4005
vn 0.4968 0.0889 -0.8633
vn 0.4500 0.8268 -0.3375
vn 0.3483 -0.3686 -0.8619
vn 0.5319 0.5016 -0.6822
vn 0.8040 0.5335 0.2625
vn 0.7024 -0.6619 -0.2618
vn 0.9881 0.1237 0.0910
vn 0.0776 0.9130 0.4005
vn 0.9531 -0.2891 -0.0901
vn 0.3032 -0.8910 0.3379
vn -0.4574 -0.6362 0.6213
vn 0.4387 -0.5843 0.6827
vn 0.0253 0.9504 0.3101
vn -0.4499 -0.8268 0.3375
vn -0.7353 0.6737 -0.0741
vn -0.5319 -0.5016 0.6822
vn -0.3711 -0.9183 0.1377
vn -0.8040 -0.5335 -0.2625
vn -0.9531 0.2891 0.0901
vn -0.9881 -0.1237 -0.0910
vn -0.7024 0.6619 0.2618
vn -0.4049 -0.3044 -0.8622
vn -0.4387 0.5843 -0.6827
vn -0.4738 0.1716 -0.8638
vn -0.3032 0.8910 -0.3379
vn -0.5200 -0.6150 0.5928
vn -0.0152 0.8466 0.5320
vn 0.6377 0.1740 0.7504
vn 0.2012 0.9589 0.1999
vn -0.9853 0.1693 -0.0250
vn 0.4682 -0.1716 0.8668
vn 0.4004 -0.7152 0.5729
vn 0.2057 0.7678 0.6068
vn 0.9827 0.1056 0.1521
vn 0.2852 -0.9111 0.2977
vn -0.5896 0.3386 0.7333
vn 0.7712 0.6330 -0.0675
vn 0.4499 0.8268 -0.3375
vn -0.4069 -0.1032 0.9076
vn -0.4500 -0.8268 0.3375
vn -0.7761 0.6304 -0.0163
vn -0.0151 0.8466 0.5320
vn 0.6850 0.2151 0.6961
vn -0.9530 0.2873 0.0961
vn 0.5216 -0.3172 0.7920
vn 0.4003 -0.7152 0.5729
vn 0.9244 -0.3721 -0.0836
vn 0.2853 -0.9111 0.2977
vn -0.6069 0.4767 0.6359
vn 0.8397 0.5423 -0.0295
s off
f 17/1/1 27/2/1 5/3/1
f 3/4/2 9/5/2 4/6/2
f 1/7/3 7/8/3 2/9/3
f 5/10/4 9/5/4 10/11/4
f 2/9/5 8/12/5 3/4/5
f 6/13/6 29/14/6 7/15/6
f 9/16/7 13/17/7 10/18/7
f 7/15/8 11/19/8 8/20/8
f 1/21/9 28/22/9 6/13/9
f 8/20/10 12/23/10 9/16/10
f 13/17/11 16/24/11 17/1/11
f 30/25/12 42/26/12 38/27/12
f 11/19/13 16/24/13 12/23/13
f 28/28/14 41/29/14 39/30/14
f 16/24/15 22/31/15 17/1/15
f 19/32/16 35/33/16 18/34/16
f 15/35/17 21/36/17 16/24/17
f 20/37/18 34/38/18 36/39/18
f 22/31/19 26/40/19 27/2/19
f 19/41/20 25/42/20 20/43/20
f 1/21/9 18/44/9 14/45/9
f 20/43/21 26/40/21 21/36/21
f 18/44/22 24/46/22 19/41/22
f 27/47/23 4/6/23 5/10/23
f 24/48/24 3/4/24 25/49/24
f 25/49/25 4/6/25 26/50/25
f 23/51/26 2/9/26 24/48/26
f 13/17/1 5/3/1 10/18/1
f 31/52/27 36/39/27 34/38/27
f 31/52/28 35/33/28 32/53/28
f 30/54/29 33/55/29 31/52/29
f 18/34/30 33/55/30 14/56/30
f 19/32/31 36/39/31 32/53/31
f 30/54/32 34/38/32 15/57/32
f 37/58/33 42/26/33 40/59/33
f 37/58/34 41/29/34 38/27/34
f 29/60/35 40/59/35 11/61/35
f 11/61/36 42/26/36 15/62/36
f 30/25/37 41/29/37 14/63/37
f 29/60/38 39/30/38 37/58/38
f 17/1/1 22/31/1 27/2/1
f 3/4/2 8/12/2 9/5/2
f 1/7/39 6/64/39 7/8/39
f 5/10/4 4/6/4 9/5/4
f 2/9/5 7/8/5 8/12/5
f 6/13/6 28/22/6 29/14/6
f 9/16/7 12/23/7 13/17/7
f 7/15/8 29/14/8 11/19/8
f 1/21/9 14/45/9 28/22/9
f 8/20/10 11/19/10 12/23/10
f 13/17/11 12/23/11 16/24/11
f 30/25/40 15/62/40 42/26/40
f 11/19/13 15/35/13 16/24/13
f 28/28/14 14/63/14 41/29/14
f 16/24/41 21/36/41 22/31/41
f 19/32/42 32/53/42 35/33/42
f 15/35/17 20/43/17 21/36/17
f 20/37/18 15/57/18 34/38/18
f 22/31/19 21/36/19 26/40/19
f 19/41/20 24/46/20 25/42/20
f 1/21/9 23/65/9 18/44/9
f 20/43/21 25/42/21 26/40/21
f 18/44/22 23/65/22 24/46/22
f 27/47/23 26/50/23 4/6/23
f 24/48/24 2/9/24 3/4/24
f 25/49/25 3/4/25 4/6/25
f 23/51/26 1/7/26 2/9/26
f 13/17/1 17/1/1 5/3/1
f 31/52/27 32/53/27 36/39/27
f 31/52/43 33/55/43 35/33/43
f 30/54/44 14/56/44 33/55/44
f 18/34/30 35/33/30 33/55/30
f 19/32/45 20/37/45 36/39/45
f 30/54/46 31/52/46 34/38/46
f 37/58/47 38/27/47 42/26/47
f 37/58/34 39/30/34 41/29/34
f 29/60/48 37/58/48 40/59/48
f 11/61/49 40/59/49 42/26/49
f 30/25/50 38/27/50 41/29/50
f 29/60/51 28/28/51 39/30/51
v -0.564589 2.064317 -3.110292
v -0.553033 2.038298 -3.113615
v -0.555677 2.009757 -3.113451
v -0.571812 1.986342 -3.109843
v -0.597115 1.974328 -3.103758
v -0.571390 2.068698 -3.083813
v -0.564813 2.045886 -3.067753
v -0.569280 2.018519 -3.060494
v -0.583592 1.993930 -3.063981
v -0.603916 1.978709 -3.077279
v -0.619629 2.037650 -3.047642
v -0.627196 2.010499 -3.052850
v -0.629091 1.988274 -3.070853
v -0.614938 2.083449 -3.097439
v -0.656376 2.048020 -3.087746
v -0.659020 2.019479 -3.087582
v -0.647464 1.993459 -3.090905
v -0.608137 2.079068 -3.123918
v -0.628460 2.063847 -3.137217
v -0.642773 2.039258 -3.140703
v -0.647239 2.011891 -3.133444
v -0.640663 1.989079 -3.117384
v -0.582962 2.069503 -3.130344
v -0.584857 2.047278 -3.148347
v -0.592424 2.020127 -3.153556
v -0.603635 1.995323 -3.144575
v -0.615488 1.979513 -3.123810
v -0.596565 2.078264 -3.077387
v -0.608417 2.062454 -3.056623
v -0.640241 2.071434 -3.091354
v -0.665101 2.098969 -3.125322
v -0.664140 2.098350 -3.129064
v -0.632216 2.094728 -3.111053
v -0.666717 2.066792 -3.111345
v -0.628849 2.092560 -3.124160
v -0.661495 2.063429 -3.131675
v -0.640849 2.095970 -3.043511
v -0.648381 2.098095 -3.051731
v -0.628971 2.096156 -3.057959
v -0.643456 2.073943 -3.049841
v -0.632423 2.097130 -3.061727
v -0.646918 2.074920 -3.053620
vt 0.274240 0.539347
vt 0.265397 0.539709
vt 0.266768 0.532487
vt 0.231414 0.551290
vt 0.214659 0.541092
vt 0.231357 0.542861
vt 0.231940 0.569242
vt 0.215985 0.562822
vt 0.231472 0.559719
vt 0.230890 0.533338
vt 0.220414 0.530957
vt 0.213134 0.552274
vt 0.289666 0.544440
vt 0.282983 0.540904
vt 0.290637 0.536818
vt 0.279682 0.529141
vt 0.275518 0.536619
vt 0.273707 0.532162
vt 0.280945 0.538772
vt 0.286431 0.530872
vt 0.290637 0.551375
vt 0.284312 0.543753
vt 0.278488 0.537315
vt 0.276318 0.541045
vt 0.804698 0.251197
vt 0.792375 0.255919
vt 0.792638 0.252041
vt 0.786357 0.239035
vt 0.792578 0.249274
vt 0.791489 0.249454
vt 0.271776 0.541127
vt 0.760733 0.199751
vt 0.757502 0.209505
vt 0.750621 0.206121
vt 0.278108 0.542645
vt 0.273009 0.544115
vt 0.772804 0.201934
vt 0.766718 0.213101
vt 0.766203 0.208706
vt 0.264007 0.548518
vt 0.277612 0.547903
vt 0.268747 0.555467
vt 0.275021 0.546378
vt 0.280714 0.548498
vt 0.281954 0.545638
vt 0.276612 0.557409
vt 0.240880 0.530957
vt 0.248168 0.561486
vt 0.249693 0.550306
vt 0.246843 0.539760
vt 0.242415 0.571620
vt 0.762287 0.211045
vt 0.762255 0.210544
vt 0.761023 0.221925
vt 0.757316 0.212491
vt 0.750922 0.216572
vt 0.772804 0.220841
vt 0.791613 0.252007
vt 0.791097 0.255536
vt 0.780068 0.250772
vt 0.780487 0.263708
vt 0.804698 0.264828
vt 0.798786 0.238814
vt 0.221949 0.571626
vt 0.283377 0.553479
vn -0.3391 -0.9383 0.0681
vn 0.8079 -0.5117 0.2922
vn 0.9085 0.3817 0.1702
vn 0.4644 -0.8468 0.2594
vn 0.9613 -0.0875 0.2614
vn 0.4044 0.6016 0.6889
vn -0.0396 -0.6269 0.7781
vn 0.3117 0.1958 0.9298
vn 0.3391 0.9383 -0.0681
vn 0.1584 -0.2284 0.9606
vn -0.7261 -0.3944 0.5633
vn -0.9843 -0.0483 -0.1697
vn -0.7262 0.0712 0.6838
vn 0.4109 0.9003 -0.1437
vn -0.9085 -0.3817 -0.1702
vn 0.2717 0.4014 -0.8747
vn -0.9613 0.0875 -0.2614
vn -0.8053 -0.5825 -0.1105
vn -0.4044 -0.6016 -0.6889
vn -0.1584 0.2284 -0.9606
vn -0.3117 -0.1958 -0.9298
vn 0.0396 0.6269 -0.7781
vn 0.2820 -0.8341 -0.4741
vn 0.7262 -0.0712 -0.6838
vn 0.5729 -0.4954 -0.6530
vn 0.7261 0.3944 -0.5633
vn -0.9692 -0.0555 -0.2398
vn 0.1765 0.9774 -0.1163
vn -0.2197 0.6730 0.7063
vn 0.5458 0.8379 0.0016
vn -0.1659 0.0610 -0.9843
vn -0.5766 0.4973 0.6483
vn -0.7464 -0.1007 0.6578
vn 0.1388 0.9822 0.1267
vn 0.2557 0.2249 0.9402
vn -0.7165 -0.4375 0.5434
vn -0.4662 0.7255 -0.5062
vn 0.6896 0.4433 0.5726
vn -0.8214 0.5360 -0.1949
vn 0.1910 0.4084 -0.8926
vn 0.1765 0.9774 -0.1164
vn -0.1409 0.6671 0.7315
vn -0.1638 0.2313 -0.9590
vn -0.6036 0.3430 0.7198
vn -0.7464 -0.1007 0.6579
vn 0.1388 0.9822 0.1268
vn 0.0912 -0.2850 0.9542
vn -0.3135 0.7568 -0.5736
vn 0.6244 0.4073 0.6665
s off
f 59/66/52 69/67/52 47/68/52
f 45/69/53 51/70/53 46/71/53
f 43/72/54 49/73/54 44/74/54
f 47/75/55 51/70/55 52/76/55
f 44/74/56 50/77/56 45/69/56
f 48/78/57 71/79/57 49/80/57
f 51/81/58 55/82/58 52/83/58
f 49/80/59 53/84/59 50/85/59
f 43/86/60 70/87/60 48/78/60
f 50/85/61 54/88/61 51/81/61
f 55/82/62 58/89/62 59/66/62
f 72/90/63 84/91/63 80/92/63
f 53/84/64 58/89/64 54/88/64
f 70/93/65 83/94/65 81/95/65
f 58/89/66 64/96/66 59/66/66
f 61/97/67 77/98/67 60/99/67
f 57/100/68 63/101/68 58/89/68
f 62/102/69 76/103/69 78/104/69
f 64/96/70 68/105/70 69/67/70
f 61/106/71 67/107/71 62/108/71
f 43/86/60 60/109/60 56/110/60
f 62/108/72 68/105/72 63/101/72
f 60/109/73 66/111/73 61/106/73
f 69/112/74 46/71/74 47/75/74
f 66/113/75 45/69/75 67/114/75
f 67/114/76 46/71/76 68/115/76
f 65/116/77 44/74/77 66/113/77
f 55/82/52 47/68/52 52/83/52
f 73/117/78 78/104/78 76/103/78
f 73/117/79 77/98/79 74/118/79
f 72/119/80 75/120/80 73/117/80
f 60/99/81 75/120/81 56/121/81
f 61/97/82 78/104/82 74/118/82
f 72/119/83 76/103/83 57/122/83
f 79/123/84 84/91/84 82/124/84
f 79/123/85 83/94/85 80/92/85
f 71/125/86 82/124/86 53/126/86
f 53/126/87 84/91/87 57/127/87
f 72/90/88 83/94/88 56/128/88
f 71/125/89 81/95/89 79/123/89
f 59/66/52 64/96/52 69/67/52
f 45/69/53 50/77/53 51/70/53
f 43/72/54 48/129/54 49/73/54
f 47/75/55 46/71/55 51/70/55
f 44/74/56 49/73/56 50/77/56
f 48/78/57 70/87/57 71/79/57
f 51/81/58 54/88/58 55/82/58
f 49/80/59 71/79/59 53/84/59
f 43/86/60 56/110/60 70/87/60
f 50/85/61 53/84/61 54/88/61
f 55/82/62 54/88/62 58/89/62
f 72/90/90 57/127/90 84/91/90
f 53/84/64 57/100/64 58/89/64
f 70/93/65 56/128/65 83/94/65
f 58/89/66 63/101/66 64/96/66
f 61/97/91 74/118/91 77/98/91
f 57/100/68 62/108/68 63/101/68
f 62/102/69 57/122/69 76/103/69
f 64/96/70 63/101/70 68/105/70
f 61/106/71 66/111/71 67/107/71
f 43/86/60 65/130/60 60/109/60
f 62/108/72 67/107/72 68/105/72
f 60/109/73 65/130/73 66/111/73
f 69/112/74 68/115/74 46/71/74
f 66/113/75 44/74/75 45/69/75
f 67/114/76 45/69/76 46/71/76
f 65/116/77 43/72/77 44/74/77
f 55/82/52 59/66/52 47/68/52
f 73/117/78 74/118/78 78/104/78
f 73/117/92 75/120/92 77/98/92
f 72/119/93 56/121/93 75/120/93
f 60/99/81 77/98/81 75/120/81
f 61/97/94 62/102/94 78/104/94
f 72/119/95 73/117/95 76/103/95
f 79/123/96 80/92/96 84/91/96
f 79/123/97 81/95/97 83/94/97
f 71/125/98 79/123/98 82/124/98
f 53/126/87 82/124/87 84/91/87
f 72/90/99 80/92/99 83/94/99
f 71/125/100 70/93/100 81/95/100
