# Blender v2.81 (sub 16) OBJ File: 'garbage.blend'
# www.blender.org
v 0.321743 1.920119 -0.253381
v 0.314450 1.906567 -0.229200
v 0.306818 1.882554 -0.215535
v 0.300891 1.854515 -0.216048
v 0.298258 1.829961 -0.230602
v 0.300250 1.921318 -0.270794
v 0.277224 1.908644 -0.259359
v 0.263833 1.884952 -0.250360
v 0.263665 1.856591 -0.246208
v 0.276766 1.831160 -0.248015
v 0.270198 1.869924 -0.303274
v 0.269177 1.843577 -0.292033
v 0.279948 1.823646 -0.274472
v 0.328108 1.905090 -0.306295
v 0.319548 1.852498 -0.321363
v 0.311916 1.828485 -0.307698
v 0.304623 1.814933 -0.283516
v 0.349600 1.903891 -0.288883
v 0.362700 1.878461 -0.290690
v 0.362532 1.850100 -0.286537
v 0.349141 1.826408 -0.277538
v 0.326115 1.813734 -0.266103
v 0.346417 1.911406 -0.262426
v 0.357188 1.891475 -0.244865
v 0.356167 1.865128 -0.233623
v 0.343629 1.839423 -0.231713
v 0.322933 1.821248 -0.239646
v 0.303433 1.913804 -0.297251
v 0.282736 1.895629 -0.305184
v 0.325474 1.880537 -0.320849
v 0.371038 1.884347 -0.341811
v 0.374075 1.884178 -0.339350
v 0.348295 1.902308 -0.320288
v 0.349342 1.859130 -0.330558
v 0.358934 1.901714 -0.311669
v 0.365844 1.858209 -0.317188
v 0.288422 1.902935 -0.352737
v 0.298538 1.899363 -0.356445
v 0.298813 1.909329 -0.338559
v 0.288643 1.883579 -0.340193
v 0.303449 1.907692 -0.340259
v 0.293293 1.881938 -0.341897
vt 0.274240 0.539347
vt 0.265397 0.539709
vt 0.266768 0.532487
vt 0.231414 0.551290
vt 0.214659 0.541092
vt 0.231357 0.542861
vt 0.231940 0.569242
vt 0.215985 0.562822
vt 0.231472 0.559719
vt 0.230890 0.533338
vt 0.220414 0.530957
vt 0.213134 0.552274
vt 0.289666 0.544440
vt 0.282983 0.540904
vt 0.290637 0.536818
vt 0.279682 0.529141
vt 0.275518 0.536619
vt 0.273707 0.532162
vt 0.280945 0.538772
vt 0.286431 0.530872
vt 0.290637 0.551375
vt 0.284312 0.543753
vt 0.278488 0.537315
vt 0.276318 0.541045
vt 0.804698 0.251197
vt 0.792375 0.255919
vt 0.792638 0.252041
vt 0.786357 0.239035
vt 0.792578 0.249274
vt 0.791489 0.249454
vt 0.271776 0.541127
vt 0.760733 0.199751
vt 0.757502 0.209505
vt 0.750621 0.206121
vt 0.278108 0.542645
vt 0.273009 0.544115
vt 0.772804 0.201934
vt 0.766718 0.213101
vt 0.766203 0.208706
vt 0.264007 0.548518
vt 0.277612 0.547903
vt 0.268747 0.555467
vt 0.275021 0.546378
vt 0.280714 0.548498
vt 0.281954 0.545638
vt 0.276612 0.557409
vt 0.240880 0.530957
vt 0.248168 0.561486
vt 0.249693 0.550306
vt 0.246843 0.539760
vt 0.242415 0.571620
vt 0.762287 0.211045
vt 0.762255 0.210544
vt 0.761023 0.221925
vt 0.757316 0.212491
vt 0.750922 0.216572
vt 0.772804 0.220841
vt 0.791613 0.252007
vt 0.791097 0.255536
vt 0.780068 0.250772
vt 0.780487 0.263708
vt 0.804698 0.264828
vt 0.798786 0.238814
vt 0.221949 0.571626
vt 0.283377 0.553479
vn -0.2449 -0.9400 0.2375
vn -0.6212 0.1171 0.7748
vn -0.2788 0.8712 0.4041
vn -0.5994 -0.3596 0.7151
vn -0.5105 0.5421 0.6675
vn -0.5674 0.7716 -0.2874
vn -0.8881 -0.4591 0.0236
vn -0.8825 0.4138 -0.2237
vn 0.2449 0.9400 -0.2375
vn -0.9932 -0.0111 -0.1163
vn -0.4489 -0.7149 -0.5360
vn 0.3928 -0.6562 -0.6443
vn -0.4273 -0.3408 -0.8374
vn 0.2857 0.9488 -0.1347
vn 0.2788 -0.8712 -0.4041
vn 0.8540 0.4179 0.3099
vn 0.5105 -0.5421 -0.6675
vn 0.1401 -0.9608 -0.2391
vn 0.5674 -0.7716 0.2874
vn 0.9932 0.0112 0.1163
vn 0.8825 -0.4138 0.2237
vn 0.8881 0.4591 -0.0236
vn 0.1283 -0.5158 0.8470
vn 0.4273 0.3408 0.8374
vn 0.3166 -0.0842 0.9448
vn 0.4489 0.7149 0.5360
vn 0.4517 -0.6577 -0.6028
vn 0.3419 0.8671 -0.3623
vn -0.4047 0.4449 -0.7989
vn 0.0994 0.9936 -0.0542
vn 0.9691 -0.1266 0.2117
vn -0.3107 0.0830 -0.9469
vn -0.4473 -0.4900 -0.7482
vn 0.1281 0.8655 -0.4842
vn -0.8696 0.4030 -0.2854
vn -0.4453 -0.7443 -0.4978
vn 0.7933 0.2452 -0.5572
vn -0.5776 0.8144 0.0561
vn -0.9932 -0.0112 -0.1163
vn 0.5416 -0.0992 -0.8347
vn 0.8930 0.3725 0.2525
vn -0.4497 0.4906 -0.7464
vn 0.9939 0.0102 0.1101
vn -0.4140 -0.0494 -0.9089
vn -0.9863 -0.0974 -0.1329
vn 0.8258 0.3588 -0.4352
vn -0.6581 0.7529 -0.0080
s off
f 17/1/1 27/2/1 5/3/1
f 3/4/2 9/5/2 4/6/2
f 1/7/3 7/8/3 2/9/3
f 5/10/4 9/5/4 10/11/4
f 2/9/5 8/12/5 3/4/5
f 6/13/6 29/14/6 7/15/6
f 9/16/7 13/17/7 10/18/7
f 7/15/8 11/19/8 8/20/8
f 1/21/9 28/22/9 6/13/9
f 8/20/10 12/23/10 9/16/10
f 13/17/11 16/24/11 17/1/11
f 30/25/12 42/26/12 38/27/12
f 11/19/13 16/24/13 12/23/13
f 28/28/14 41/29/14 39/30/14
f 16/24/15 22/31/15 17/1/15
f 19/32/16 35/33/16 18/34/16
f 15/35/17 21/36/17 16/24/17
f 20/37/18 34/38/18 36/39/18
f 22/31/19 26/40/19 27/2/19
f 19/41/20 25/42/20 20/43/20
f 1/21/9 18/44/9 14/45/9
f 20/43/21 26/40/21 21/36/21
f 18/44/22 24/46/22 19/41/22
f 27/47/23 4/6/23 5/10/23
f 24/48/24 3/4/24 25/49/24
f 25/49/25 4/6/25 26/50/25
f 23/51/26 2/9/26 24/48/26
f 13/17/1 5/3/1 10/18/1
f 31/52/27 36/39/27 34/38/27
f 31/52/28 35/33/28 32/53/28
f 30/54/29 33/55/29 31/52/29
f 18/34/30 33/55/30 14/56/30
f 19/32/31 36/39/31 32/53/31
f 30/54/32 34/38/32 15/57/32
f 37/58/33 42/26/33 40/59/33
f 37/58/34 41/29/34 38/27/34
f 29/60/35 40/59/35 11/61/35
f 11/61/36 42/26/36 15/62/36
f 30/25/37 41/29/37 14/63/37
f 29/60/38 39/30/38 37/58/38
f 17/1/1 22/31/1 27/2/1
f 3/4/2 8/12/2 9/5/2
f 1/7/3 6/64/3 7/8/3
f 5/10/4 4/6/4 9/5/4
f 2/9/5 7/8/5 8/12/5
f 6/13/6 28/22/6 29/14/6
f 9/16/7 12/23/7 13/17/7
f 7/15/8 29/14/8 11/19/8
f 1/21/9 14/45/9 28/22/9
f 8/20/39 11/19/39 12/23/39
f 13/17/11 12/23/11 16/24/11
f 30/25/40 15/62/40 42/26/40
f 11/19/13 15/35/13 16/24/13
f 28/28/14 14/63/14 41/29/14
f 16/24/15 21/36/15 22/31/15
f 19/32/41 32/53/41 35/33/41
f 15/35/17 20/43/17 21/36/17
f 20/37/18 15/57/18 34/38/18
f 22/31/19 21/36/19 26/40/19
f 19/41/20 24/46/20 25/42/20
f 1/21/9 23/65/9 18/44/9
f 20/43/21 25/42/21 26/40/21
f 18/44/22 23/65/22 24/46/22
f 27/47/23 26/50/23 4/6/23
f 24/48/24 2/9/24 3/4/24
f 25/49/25 3/4/25 4/6/25
f 23/51/26 1/7/26 2/9/26
f 13/17/1 17/1/1 5/3/1
f 31/52/27 32/53/27 36/39/27
f 31/52/28 33/55/28 35/33/28
f 30/54/42 14/56/42 33/55/42
f 18/34/30 35/33/30 33/55/30
f 19/32/43 20/37/43 36/39/43
f 30/54/44 31/52/44 34/38/44
f 37/58/33 38/27/33 42/26/33
f 37/58/34 39/30/34 41/29/34
f 29/60/45 37/58/45 40/59/45
f 11/61/36 40/59/36 42/26/36
f 30/25/46 38/27/46 41/29/46
f 29/60/47 28/28/47 39/30/47
v 2.182699 1.843074 0.840702
v 2.163000 1.829515 0.856503
v 2.151683 1.805163 0.866528
v 2.151781 1.776542 0.868089
v 2.163268 1.751322 0.860769
v 2.178822 1.838003 0.813761
v 2.156285 1.820732 0.809840
v 2.143929 1.795020 0.812646
v 2.145066 1.767758 0.821426
v 2.159391 1.746250 0.833828
v 2.186531 1.779090 0.781061
v 2.181960 1.753963 0.794073
v 2.180692 1.738285 0.818036
v 2.225300 1.827144 0.809117
v 2.236886 1.773303 0.803358
v 2.225569 1.748951 0.813382
v 2.205869 1.735392 0.829184
v 2.229177 1.832216 0.836058
v 2.243502 1.810708 0.848460
v 2.244639 1.783446 0.857240
v 2.232284 1.757734 0.860045
v 2.209746 1.740463 0.856125
v 2.207876 1.840181 0.851850
v 2.206608 1.824503 0.875813
v 2.202038 1.799376 0.888825
v 2.195390 1.771530 0.887399
v 2.188446 1.748428 0.871918
v 2.200123 1.830038 0.797968
v 2.193179 1.806936 0.782487
v 2.236787 1.801924 0.801796
v 2.283309 1.815605 0.815158
v 2.283857 1.816322 0.818965
v 2.249742 1.828617 0.812507
v 2.263655 1.786508 0.814550
v 2.251661 1.831127 0.825842
v 2.266631 1.790402 0.835236
v 2.228451 1.812756 0.749791
v 2.238773 1.811570 0.754362
v 2.225422 1.822278 0.765603
v 2.222890 1.794773 0.763122
v 2.230153 1.821734 0.767698
v 2.227634 1.794227 0.765223
vt 0.274240 0.539347
vt 0.265397 0.539709
vt 0.266768 0.532487
vt 0.231414 0.551290
vt 0.214659 0.541092
vt 0.231357 0.542861
vt 0.231940 0.569242
vt 0.215985 0.562822
vt 0.231472 0.559719
vt 0.230890 0.533338
vt 0.220414 0.530957
vt 0.213134 0.552274
vt 0.289666 0.544440
vt 0.282983 0.540904
vt 0.290637 0.536818
vt 0.279682 0.529141
vt 0.275518 0.536619
vt 0.273707 0.532162
vt 0.280945 0.538772
vt 0.286431 0.530872
vt 0.290637 0.551375
vt 0.284312 0.543753
vt 0.278488 0.537315
vt 0.276318 0.541045
vt 0.804698 0.251197
vt 0.792375 0.255919
vt 0.792638 0.252041
vt 0.786357 0.239035
vt 0.792578 0.249274
vt 0.791489 0.249454
vt 0.271776 0.541127
vt 0.760733 0.199751
vt 0.757502 0.209505
vt 0.750621 0.206121
vt 0.278108 0.542645
vt 0.273009 0.544115
vt 0.772804 0.201934
vt 0.766718 0.213101
vt 0.766203 0.208706
vt 0.264007 0.548518
vt 0.277612 0.547903
vt 0.268747 0.555467
vt 0.275021 0.546378
vt 0.280714 0.548498
vt 0.281954 0.545638
vt 0.276612 0.557409
vt 0.240880 0.530957
vt 0.248168 0.561486
vt 0.249693 0.550306
vt 0.246843 0.539760
vt 0.242415 0.571620
vt 0.762287 0.211045
vt 0.762255 0.210544
vt 0.761023 0.221925
vt 0.757316 0.212491
vt 0.750922 0.216572
vt 0.772804 0.220841
vt 0.791613 0.252007
vt 0.791097 0.255536
vt 0.780068 0.250772
vt 0.780487 0.263708
vt 0.804698 0.264828
vt 0.798786 0.238814
vt 0.221949 0.571626
vt 0.283377 0.553479
vn -0.2026 -0.9566 0.2092
vn -0.9899 0.0043 0.1416
vn -0.6000 0.7974 -0.0638
vn -0.8653 -0.4551 0.2102
vn -0.8983 0.4368 0.0470
vn -0.3254 0.5919 -0.7374
vn -0.5906 -0.6606 -0.4634
vn -0.5444 0.1720 -0.8210
vn 0.2026 0.9567 -0.2092
vn -0.6360 -0.2605 -0.7264
vn 0.1420 -0.8318 -0.5366
vn 0.8141 -0.5748 -0.0828
vn 0.3081 -0.4810 -0.8208
vn 0.1611 0.9809 -0.1092
vn 0.6000 -0.7974 0.0638
vn 0.3460 0.6309 0.6944
vn 0.8983 -0.4368 -0.0470
vn 0.4010 -0.9090 0.1134
vn 0.3254 -0.5919 0.7374
vn 0.6360 0.2605 0.7264
vn 0.2026 0.9566 -0.2092
vn 0.5444 -0.1720 0.8210
vn 0.5906 0.6606 0.4635
vn -0.4073 -0.4208 0.8106
vn -0.3081 0.4810 0.8208
vn -0.3997 0.0486 0.9153
vn -0.1420 0.8318 0.5366
vn 0.8287 -0.5595 -0.0139
vn 0.3676 0.9029 -0.2228
vn 0.1855 0.2871 -0.9398
vn -0.0342 0.9830 -0.1801
vn 0.5738 0.1266 0.8092
vn 0.4055 -0.0484 -0.9128
vn 0.2547 -0.6254 -0.7375
vn 0.2963 0.8422 -0.4505
vn -0.4917 0.1612 -0.8557
vn 0.1229 -0.8572 -0.5002
vn 0.9146 0.4007 0.0548
vn -0.5716 0.6500 -0.5009
vn -0.2026 -0.9567 0.2092
vn 0.9705 -0.0098 -0.2408
vn 0.3081 -0.4811 -0.8208
vn 0.4196 0.5933 0.6870
vn 0.3254 -0.5920 0.7374
vn 0.5906 0.6606 0.4634
vn -0.3081 0.4811 0.8208
vn 0.3676 0.9029 -0.2229
vn 0.1109 0.3233 -0.9398
vn 0.6408 0.2594 0.7225
vn 0.3243 -0.1997 -0.9246
vn 0.2547 -0.6255 -0.7375
vn 0.2962 0.8423 -0.4504
vn -0.6074 -0.3432 -0.7164
vn 0.1230 -0.8572 -0.5002
vn 0.8390 0.5253 0.1420
vn -0.5774 0.5671 -0.5873
s off
f 59/66/48 69/67/48 47/68/48
f 45/69/49 51/70/49 46/71/49
f 43/72/50 49/73/50 44/74/50
f 47/75/51 51/70/51 52/76/51
f 44/74/52 50/77/52 45/69/52
f 48/78/53 71/79/53 49/80/53
f 51/81/54 55/82/54 52/83/54
f 49/80/55 53/84/55 50/85/55
f 43/86/56 70/87/56 48/78/56
f 50/85/57 54/88/57 51/81/57
f 55/82/58 58/89/58 59/66/58
f 72/90/59 84/91/59 80/92/59
f 53/84/60 58/89/60 54/88/60
f 70/93/61 83/94/61 81/95/61
f 58/89/62 64/96/62 59/66/62
f 61/97/63 77/98/63 60/99/63
f 57/100/64 63/101/64 58/89/64
f 62/102/65 76/103/65 78/104/65
f 64/96/66 68/105/66 69/67/66
f 61/106/67 67/107/67 62/108/67
f 43/86/68 60/109/68 56/110/68
f 62/108/69 68/105/69 63/101/69
f 60/109/70 66/111/70 61/106/70
f 69/112/71 46/71/71 47/75/71
f 66/113/72 45/69/72 67/114/72
f 67/114/73 46/71/73 68/115/73
f 65/116/74 44/74/74 66/113/74
f 55/82/48 47/68/48 52/83/48
f 73/117/75 78/104/75 76/103/75
f 73/117/76 77/98/76 74/118/76
f 72/119/77 75/120/77 73/117/77
f 60/99/78 75/120/78 56/121/78
f 61/97/79 78/104/79 74/118/79
f 72/119/80 76/103/80 57/122/80
f 79/123/81 84/91/81 82/124/81
f 79/123/82 83/94/82 80/92/82
f 71/125/83 82/124/83 53/126/83
f 53/126/84 84/91/84 57/127/84
f 72/90/85 83/94/85 56/128/85
f 71/125/86 81/95/86 79/123/86
f 59/66/87 64/96/87 69/67/87
f 45/69/49 50/77/49 51/70/49
f 43/72/50 48/129/50 49/73/50
f 47/75/51 46/71/51 51/70/51
f 44/74/52 49/73/52 50/77/52
f 48/78/53 70/87/53 71/79/53
f 51/81/54 54/88/54 55/82/54
f 49/80/55 71/79/55 53/84/55
f 43/86/68 56/110/68 70/87/68
f 50/85/57 53/84/57 54/88/57
f 55/82/58 54/88/58 58/89/58
f 72/90/88 57/127/88 84/91/88
f 53/84/89 57/100/89 58/89/89
f 70/93/61 56/128/61 83/94/61
f 58/89/62 63/101/62 64/96/62
f 61/97/90 74/118/90 77/98/90
f 57/100/64 62/108/64 63/101/64
f 62/102/65 57/122/65 76/103/65
f 64/96/91 63/101/91 68/105/91
f 61/106/67 66/111/67 67/107/67
f 43/86/68 65/130/68 60/109/68
f 62/108/69 67/107/69 68/105/69
f 60/109/92 65/130/92 66/111/92
f 69/112/71 68/115/71 46/71/71
f 66/113/93 44/74/93 45/69/93
f 67/114/73 45/69/73 46/71/73
f 65/116/74 43/72/74 44/74/74
f 55/82/87 59/66/87 47/68/87
f 73/117/75 74/118/75 78/104/75
f 73/117/94 75/120/94 77/98/94
f 72/119/95 56/121/95 75/120/95
f 60/99/78 77/98/78 75/120/78
f 61/97/96 62/102/96 78/104/96
f 72/119/97 73/117/97 76/103/97
f 79/123/98 80/92/98 84/91/98
f 79/123/99 81/95/99 83/94/99
f 71/125/100 79/123/100 82/124/100
f 53/126/101 82/124/101 84/91/101
f 72/90/102 80/92/102 83/94/102
f 71/125/103 70/93/103 81/95/103
