# Blender v2.81 (sub 16) OBJ File: 'garbage.blend'
# www.blender.org
v -0.618651 2.314685 -0.617010
v -0.617050 2.296809 -0.639359
v -0.619489 2.270410 -0.650256
v -0.625314 2.242561 -0.646779
v -0.632965 2.220723 -0.629861
v -0.598741 2.309132 -0.598589
v -0.582566 2.287192 -0.607453
v -0.579670 2.259305 -0.613413
v -0.590830 2.232943 -0.614873
v -0.613055 2.215171 -0.611440
v -0.592307 2.253893 -0.559773
v -0.601774 2.228257 -0.568419
v -0.619374 2.212465 -0.584620
v -0.631288 2.309273 -0.563370
v -0.644764 2.259587 -0.542975
v -0.647203 2.233188 -0.553872
v -0.645602 2.215312 -0.576221
v -0.651198 2.314826 -0.581791
v -0.673423 2.297054 -0.578358
v -0.684583 2.270692 -0.579818
v -0.681687 2.242805 -0.585778
v -0.665511 2.220865 -0.594642
v -0.644879 2.317532 -0.608611
v -0.662479 2.301740 -0.624812
v -0.671946 2.276103 -0.633458
v -0.670743 2.247491 -0.632232
v -0.659193 2.223570 -0.621462
v -0.605060 2.306427 -0.571769
v -0.593510 2.282506 -0.560999
v -0.638939 2.287436 -0.546452
v -0.679452 2.311289 -0.528573
v -0.682266 2.312074 -0.531176
v -0.651101 2.316279 -0.550352
v -0.669528 2.278467 -0.536157
v -0.660956 2.319028 -0.559470
v -0.684815 2.282730 -0.550301
v -0.596488 2.296593 -0.514742
v -0.607241 2.297760 -0.511299
v -0.603232 2.305006 -0.530027
v -0.604269 2.277680 -0.525409
v -0.608160 2.305541 -0.528449
v -0.609211 2.278216 -0.523826
vt 0.274240 0.539347
vt 0.265397 0.539709
vt 0.266768 0.532487
vt 0.231414 0.551290
vt 0.214659 0.541092
vt 0.231357 0.542861
vt 0.231940 0.569242
vt 0.215985 0.562822
vt 0.231472 0.559719
vt 0.230890 0.533338
vt 0.220414 0.530957
vt 0.213134 0.552274
vt 0.289666 0.544440
vt 0.282983 0.540904
vt 0.290637 0.536818
vt 0.279682 0.529141
vt 0.275518 0.536619
vt 0.273707 0.532162
vt 0.280945 0.538772
vt 0.286431 0.530872
vt 0.290637 0.551375
vt 0.284312 0.543753
vt 0.278488 0.537315
vt 0.276318 0.541045
vt 0.804698 0.251197
vt 0.792375 0.255919
vt 0.792638 0.252041
vt 0.786357 0.239035
vt 0.792578 0.249274
vt 0.791489 0.249454
vt 0.271776 0.541127
vt 0.760733 0.199751
vt 0.757502 0.209505
vt 0.750621 0.206121
vt 0.278108 0.542645
vt 0.273009 0.544115
vt 0.772804 0.201934
vt 0.766718 0.213101
vt 0.766203 0.208706
vt 0.264007 0.548518
vt 0.277612 0.547903
vt 0.268747 0.555467
vt 0.275021 0.546378
vt 0.280714 0.548498
vt 0.281954 0.545638
vt 0.276612 0.557409
vt 0.240880 0.530957
vt 0.248168 0.561486
vt 0.249693 0.550306
vt 0.246843 0.539760
vt 0.242415 0.571620
vt 0.762287 0.211045
vt 0.762255 0.210544
vt 0.761023 0.221925
vt 0.757316 0.212491
vt 0.750922 0.216572
vt 0.772804 0.220841
vt 0.791613 0.252007
vt 0.791097 0.255536
vt 0.780068 0.250772
vt 0.780487 0.263708
vt 0.804698 0.264828
vt 0.798786 0.238814
vt 0.221949 0.571626
vt 0.283377 0.553479
vn -0.1492 -0.9797 -0.1340
vn 0.6274 -0.2243 -0.7457
vn 0.6107 0.6391 -0.4674
vn 0.4153 -0.6436 -0.6429
vn 0.6949 0.2186 -0.6851
vn 0.8250 0.5089 0.2457
vn 0.6296 -0.7738 0.0703
vn 0.9709 0.0508 0.2339
vn 0.1492 0.9797 0.1340
vn 0.9035 -0.3921 0.1733
vn 0.1165 -0.7715 0.6254
vn -0.6325 -0.3718 0.6795
vn 0.2423 -0.3892 0.8887
vn 0.1169 0.9927 0.0287
vn -0.6107 -0.6391 0.4674
vn -0.6100 0.6864 -0.3959
vn -0.6949 -0.2186 0.6851
vn -0.5172 -0.7939 0.3197
vn -0.8250 -0.5090 -0.2457
vn -0.9035 0.3921 -0.1733
vn -0.9709 -0.0508 -0.2339
vn -0.6296 0.7738 -0.0703
vn -0.3119 -0.5112 -0.8009
vn -0.2423 0.3892 -0.8887
vn -0.3098 -0.0537 -0.9493
vn -0.1165 0.7715 -0.6254
vn -0.6864 -0.3543 0.6351
vn 0.0293 0.9653 0.2594
vn 0.5374 0.3315 0.7755
vn 0.3067 0.9507 -0.0449
vn -0.9353 0.2467 -0.2538
vn 0.3039 0.0552 0.9511
vn 0.2021 -0.5429 0.8151
vn 0.2226 0.8922 0.3928
vn 0.9539 0.0528 0.2955
vn 0.1020 -0.8010 0.5899
vn -0.6365 0.5992 0.4856
vn 0.8565 0.5065 -0.0991
vn 0.8250 0.5090 0.2457
vn -0.5482 0.2155 0.8081
vn -0.6648 0.6667 -0.3369
vn -0.8250 -0.5089 -0.2457
vn -0.6296 0.7737 -0.0703
vn 0.0293 0.9653 0.2593
vn 0.5977 0.3496 0.7215
vn -0.9046 0.3922 -0.1671
vn 0.3460 -0.1107 0.9317
vn 0.2226 0.8922 0.3929
vn 0.8624 -0.4662 0.1975
vn 0.1020 -0.8010 0.5900
vn -0.6189 0.7023 0.3518
vn 0.9046 0.4255 -0.0251
s off
f 17/1/1 27/2/1 5/3/1
f 3/4/2 9/5/2 4/6/2
f 1/7/3 7/8/3 2/9/3
f 5/10/4 9/5/4 10/11/4
f 2/9/5 8/12/5 3/4/5
f 6/13/6 29/14/6 7/15/6
f 9/16/7 13/17/7 10/18/7
f 7/15/8 11/19/8 8/20/8
f 1/21/9 28/22/9 6/13/9
f 8/20/10 12/23/10 9/16/10
f 13/17/11 16/24/11 17/1/11
f 30/25/12 42/26/12 38/27/12
f 11/19/13 16/24/13 12/23/13
f 28/28/14 41/29/14 39/30/14
f 16/24/15 22/31/15 17/1/15
f 19/32/16 35/33/16 18/34/16
f 15/35/17 21/36/17 16/24/17
f 20/37/18 34/38/18 36/39/18
f 22/31/19 26/40/19 27/2/19
f 19/41/20 25/42/20 20/43/20
f 1/21/9 18/44/9 14/45/9
f 20/43/21 26/40/21 21/36/21
f 18/44/22 24/46/22 19/41/22
f 27/47/23 4/6/23 5/10/23
f 24/48/24 3/4/24 25/49/24
f 25/49/25 4/6/25 26/50/25
f 23/51/26 2/9/26 24/48/26
f 13/17/1 5/3/1 10/18/1
f 31/52/27 36/39/27 34/38/27
f 31/52/28 35/33/28 32/53/28
f 30/54/29 33/55/29 31/52/29
f 18/34/30 33/55/30 14/56/30
f 19/32/31 36/39/31 32/53/31
f 30/54/32 34/38/32 15/57/32
f 37/58/33 42/26/33 40/59/33
f 37/58/34 41/29/34 38/27/34
f 29/60/35 40/59/35 11/61/35
f 11/61/36 42/26/36 15/62/36
f 30/25/37 41/29/37 14/63/37
f 29/60/38 39/30/38 37/58/38
f 17/1/1 22/31/1 27/2/1
f 3/4/2 8/12/2 9/5/2
f 1/7/3 6/64/3 7/8/3
f 5/10/4 4/6/4 9/5/4
f 2/9/5 7/8/5 8/12/5
f 6/13/39 28/22/39 29/14/39
f 9/16/7 12/23/7 13/17/7
f 7/15/8 29/14/8 11/19/8
f 1/21/9 14/45/9 28/22/9
f 8/20/10 11/19/10 12/23/10
f 13/17/11 12/23/11 16/24/11
f 30/25/40 15/62/40 42/26/40
f 11/19/13 15/35/13 16/24/13
f 28/28/14 14/63/14 41/29/14
f 16/24/15 21/36/15 22/31/15
f 19/32/41 32/53/41 35/33/41
f 15/35/17 20/43/17 21/36/17
f 20/37/18 15/57/18 34/38/18
f 22/31/42 21/36/42 26/40/42
f 19/41/20 24/46/20 25/42/20
f 1/21/9 23/65/9 18/44/9
f 20/43/21 25/42/21 26/40/21
f 18/44/43 23/65/43 24/46/43
f 27/47/23 26/50/23 4/6/23
f 24/48/24 2/9/24 3/4/24
f 25/49/25 3/4/25 4/6/25
f 23/51/26 1/7/26 2/9/26
f 13/17/1 17/1/1 5/3/1
f 31/52/27 32/53/27 36/39/27
f 31/52/44 33/55/44 35/33/44
f 30/54/45 14/56/45 33/55/45
f 18/34/30 35/33/30 33/55/30
f 19/32/46 20/37/46 36/39/46
f 30/54/47 31/52/47 34/38/47
f 37/58/33 38/27/33 42/26/33
f 37/58/48 39/30/48 41/29/48
f 29/60/49 37/58/49 40/59/49
f 11/61/50 40/59/50 42/26/50
f 30/25/51 38/27/51 41/29/51
f 29/60/52 28/28/52 39/30/52
v 0.113490 1.829572 -3.441242
v 0.122085 1.802318 -3.439023
v 0.115860 1.774461 -3.436404
v 0.096484 1.753466 -3.434086
v 0.069147 1.744959 -3.432691
v 0.101779 1.838095 -3.417646
v 0.101800 1.817080 -3.398154
v 0.092437 1.791507 -3.389212
v 0.076199 1.768229 -3.393217
v 0.057436 1.753482 -3.409095
v 0.043354 1.817117 -3.390337
v 0.033692 1.790407 -3.394191
v 0.032894 1.766287 -3.409657
v 0.064408 1.855182 -3.442367
v 0.017695 1.825680 -3.438654
v 0.011470 1.797824 -3.436034
v 0.020065 1.770569 -3.433815
v 0.076119 1.846659 -3.465963
v 0.057356 1.831913 -3.481841
v 0.041118 1.808635 -3.485845
v 0.031755 1.783062 -3.476903
v 0.031776 1.762046 -3.457411
v 0.100661 1.833854 -3.465400
v 0.099863 1.809734 -3.480867
v 0.090201 1.783025 -3.484720
v 0.074262 1.760883 -3.475929
v 0.056318 1.749241 -3.456849
v 0.077237 1.850900 -3.418209
v 0.059293 1.839259 -3.399128
v 0.037071 1.846675 -3.440972
v 0.023787 1.871792 -3.482476
v 0.025442 1.870587 -3.485811
v 0.052032 1.866220 -3.460700
v 0.015132 1.842085 -3.465867
v 0.057829 1.862002 -3.472379
v 0.024124 1.835541 -3.483983
v 0.029335 1.877295 -3.397452
v 0.024075 1.879050 -3.407356
v 0.043961 1.874368 -3.408737
v 0.025368 1.854994 -3.401808
v 0.041551 1.875173 -3.413276
v 0.022950 1.855801 -3.406360
vt 0.274240 0.539347
vt 0.265397 0.539709
vt 0.266768 0.532487
vt 0.231414 0.551290
vt 0.214659 0.541092
vt 0.231357 0.542861
vt 0.231940 0.569242
vt 0.215985 0.562822
vt 0.231472 0.559719
vt 0.230890 0.533338
vt 0.220414 0.530957
vt 0.213134 0.552274
vt 0.289666 0.544440
vt 0.282983 0.540904
vt 0.290637 0.536818
vt 0.279682 0.529141
vt 0.275518 0.536619
vt 0.273707 0.532162
vt 0.280945 0.538772
vt 0.286431 0.530872
vt 0.290637 0.551375
vt 0.284312 0.543753
vt 0.278488 0.537315
vt 0.276318 0.541045
vt 0.804698 0.251197
vt 0.792375 0.255919
vt 0.792638 0.252041
vt 0.786357 0.239035
vt 0.792578 0.249274
vt 0.791489 0.249454
vt 0.271776 0.541127
vt 0.760733 0.199751
vt 0.757502 0.209505
vt 0.750621 0.206121
vt 0.278108 0.542645
vt 0.273009 0.544115
vt 0.772804 0.201934
vt 0.766718 0.213101
vt 0.766203 0.208706
vt 0.264007 0.548518
vt 0.277612 0.547903
vt 0.268747 0.555467
vt 0.275021 0.546378
vt 0.280714 0.548498
vt 0.281954 0.545638
vt 0.276612 0.557409
vt 0.240880 0.530957
vt 0.248168 0.561486
vt 0.249693 0.550306
vt 0.246843 0.539760
vt 0.242415 0.571620
vt 0.762287 0.211045
vt 0.762255 0.210544
vt 0.761023 0.221925
vt 0.757316 0.212491
vt 0.750922 0.216572
vt 0.772804 0.220841
vt 0.791613 0.252007
vt 0.791097 0.255536
vt 0.780068 0.250772
vt 0.780487 0.263708
vt 0.804698 0.264828
vt 0.798786 0.238814
vt 0.221949 0.571626
vt 0.283377 0.553479
vn -0.4623 -0.8822 0.0892
vn 0.6546 -0.5465 0.5223
vn 0.8918 0.3082 0.3313
vn 0.2864 -0.8469 0.4481
vn 0.8636 -0.1477 0.4820
vn 0.3203 0.6444 0.6944
vn -0.2850 -0.5107 0.8111
vn 0.1272 0.2856 0.9499
vn 0.4623 0.8822 -0.0892
vn -0.0818 -0.1133 0.9902
vn -0.8741 -0.2414 0.4215
vn -0.9229 0.0282 -0.3840
vn -0.8409 0.2338 0.4880
vn 0.5432 0.8275 -0.1419
vn -0.8918 -0.3082 -0.3313
vn 0.5019 0.2523 -0.8273
vn -0.8636 0.1477 -0.4820
vn -0.8302 -0.5085 -0.2284
vn -0.3203 -0.6444 -0.6944
vn 0.0818 0.1133 -0.9902
vn -0.1272 -0.2856 -0.9499
vn 0.2850 0.5107 -0.8111
vn 0.2688 -0.9137 -0.3047
vn 0.8409 -0.2338 -0.4880
vn 0.6319 -0.6326 -0.4477
vn 0.8741 0.2414 -0.4215
vn -0.4624 -0.8822 0.0892
vn -0.8942 0.0103 -0.4476
vn 0.3202 0.9306 -0.1773
vn -0.2787 0.7795 0.5609
vn 0.6347 0.7719 0.0362
vn 0.0584 -0.0542 -0.9968
vn -0.6343 0.6342 0.4421
vn -0.8768 0.0628 0.4768
vn 0.2321 0.9715 0.0489
vn 0.0744 0.3212 0.9441
vn -0.8661 -0.2874 0.4090
vn -0.2506 0.6947 -0.6743
vn 0.6013 0.4443 0.6641
vn -0.2851 -0.5107 0.8111
vn 0.1272 0.2855 0.9499
vn -0.8741 -0.2413 0.4215
vn -0.6855 0.5847 -0.4338
vn 0.5432 0.8275 -0.1418
vn 0.4285 0.2649 -0.8639
vn 0.2851 0.5107 -0.8111
vn -0.8942 0.0103 -0.4475
vn 0.3202 0.9306 -0.1772
vn -0.2086 0.7692 0.6040
vn 0.6348 0.7719 0.0363
vn 0.0766 0.1169 -0.9902
vn -0.6954 0.4943 0.5217
vn -0.1527 -0.1632 0.9747
vn -0.0842 0.7012 -0.7079
vn 0.5134 0.4278 0.7439
s off
f 59/66/53 69/67/53 47/68/53
f 45/69/54 51/70/54 46/71/54
f 43/72/55 49/73/55 44/74/55
f 47/75/56 51/70/56 52/76/56
f 44/74/57 50/77/57 45/69/57
f 48/78/58 71/79/58 49/80/58
f 51/81/59 55/82/59 52/83/59
f 49/80/60 53/84/60 50/85/60
f 43/86/61 70/87/61 48/78/61
f 50/85/62 54/88/62 51/81/62
f 55/82/63 58/89/63 59/66/63
f 72/90/64 84/91/64 80/92/64
f 53/84/65 58/89/65 54/88/65
f 70/93/66 83/94/66 81/95/66
f 58/89/67 64/96/67 59/66/67
f 61/97/68 77/98/68 60/99/68
f 57/100/69 63/101/69 58/89/69
f 62/102/70 76/103/70 78/104/70
f 64/96/71 68/105/71 69/67/71
f 61/106/72 67/107/72 62/108/72
f 43/86/61 60/109/61 56/110/61
f 62/108/73 68/105/73 63/101/73
f 60/109/74 66/111/74 61/106/74
f 69/112/75 46/71/75 47/75/75
f 66/113/76 45/69/76 67/114/76
f 67/114/77 46/71/77 68/115/77
f 65/116/78 44/74/78 66/113/78
f 55/82/79 47/68/79 52/83/79
f 73/117/80 78/104/80 76/103/80
f 73/117/81 77/98/81 74/118/81
f 72/119/82 75/120/82 73/117/82
f 60/99/83 75/120/83 56/121/83
f 61/97/84 78/104/84 74/118/84
f 72/119/85 76/103/85 57/122/85
f 79/123/86 84/91/86 82/124/86
f 79/123/87 83/94/87 80/92/87
f 71/125/88 82/124/88 53/126/88
f 53/126/89 84/91/89 57/127/89
f 72/90/90 83/94/90 56/128/90
f 71/125/91 81/95/91 79/123/91
f 59/66/53 64/96/53 69/67/53
f 45/69/54 50/77/54 51/70/54
f 43/72/55 48/129/55 49/73/55
f 47/75/56 46/71/56 51/70/56
f 44/74/57 49/73/57 50/77/57
f 48/78/58 70/87/58 71/79/58
f 51/81/92 54/88/92 55/82/92
f 49/80/93 71/79/93 53/84/93
f 43/86/61 56/110/61 70/87/61
f 50/85/62 53/84/62 54/88/62
f 55/82/94 54/88/94 58/89/94
f 72/90/95 57/127/95 84/91/95
f 53/84/65 57/100/65 58/89/65
f 70/93/96 56/128/96 83/94/96
f 58/89/67 63/101/67 64/96/67
f 61/97/97 74/118/97 77/98/97
f 57/100/69 62/108/69 63/101/69
f 62/102/70 57/122/70 76/103/70
f 64/96/71 63/101/71 68/105/71
f 61/106/72 66/111/72 67/107/72
f 43/86/61 65/130/61 60/109/61
f 62/108/73 67/107/73 68/105/73
f 60/109/98 65/130/98 66/111/98
f 69/112/75 68/115/75 46/71/75
f 66/113/76 44/74/76 45/69/76
f 67/114/77 45/69/77 46/71/77
f 65/116/78 43/72/78 44/74/78
f 55/82/53 59/66/53 47/68/53
f 73/117/99 74/118/99 78/104/99
f 73/117/100 75/120/100 77/98/100
f 72/119/101 56/121/101 75/120/101
f 60/99/102 77/98/102 75/120/102
f 61/97/103 62/102/103 78/104/103
f 72/119/104 73/117/104 76/103/104
f 79/123/86 80/92/86 84/91/86
f 79/123/87 81/95/87 83/94/87
f 71/125/105 79/123/105 82/124/105
f 53/126/89 82/124/89 84/91/89
f 72/90/106 80/92/106 83/94/106
f 71/125/107 70/93/107 81/95/107
