# Blender v2.81 (sub 16) OBJ File: 'garbage.blend'
# www.blender.org
v 0.268801 1.633689 -1.057163
v 0.278044 1.615481 -1.037048
v 0.274361 1.591646 -1.021558
v 0.258739 1.568571 -1.014843
v 0.235363 1.552439 -1.018704
v 0.246139 1.647079 -1.048578
v 0.238793 1.638673 -1.022178
v 0.229038 1.618427 -1.004387
v 0.219487 1.591764 -0.999973
v 0.212701 1.565829 -1.010119
v 0.184479 1.621262 -1.037139
v 0.180898 1.594219 -1.028337
v 0.190421 1.567247 -1.026495
v 0.224242 1.636524 -1.089916
v 0.185243 1.597316 -1.087062
v 0.181560 1.573482 -1.071572
v 0.190804 1.555274 -1.051456
v 0.246904 1.623133 -1.098501
v 0.240117 1.597199 -1.108646
v 0.230567 1.570536 -1.104232
v 0.220812 1.550289 -1.086442
v 0.213465 1.541884 -1.060041
v 0.269183 1.621716 -1.082125
v 0.278707 1.594743 -1.080282
v 0.275126 1.567701 -1.071480
v 0.259401 1.547834 -1.058078
v 0.235745 1.540466 -1.043665
v 0.223860 1.648496 -1.064954
v 0.200204 1.641129 -1.050542
v 0.200866 1.620391 -1.093776
v 0.207182 1.617487 -1.143592
v 0.210384 1.615594 -1.144806
v 0.221420 1.632861 -1.114199
v 0.194697 1.597565 -1.117505
v 0.232637 1.626233 -1.118449
v 0.212097 1.587284 -1.124097
v 0.169442 1.662246 -1.081442
v 0.169599 1.657337 -1.091676
v 0.187949 1.660018 -1.082993
v 0.170554 1.640624 -1.073484
v 0.188021 1.657768 -1.087683
v 0.170626 1.638368 -1.078187
vt 0.274240 0.539347
vt 0.265397 0.539709
vt 0.266768 0.532487
vt 0.231414 0.551290
vt 0.214659 0.541092
vt 0.231357 0.542861
vt 0.231940 0.569242
vt 0.215985 0.562822
vt 0.231472 0.559719
vt 0.230890 0.533338
vt 0.220414 0.530957
vt 0.213134 0.552274
vt 0.289666 0.544440
vt 0.282983 0.540904
vt 0.290637 0.536818
vt 0.279682 0.529141
vt 0.275518 0.536619
vt 0.273707 0.532162
vt 0.280945 0.538772
vt 0.286431 0.530872
vt 0.290637 0.551375
vt 0.284312 0.543753
vt 0.278488 0.537315
vt 0.276318 0.541045
vt 0.804698 0.251197
vt 0.792375 0.255919
vt 0.792638 0.252041
vt 0.786357 0.239035
vt 0.792578 0.249274
vt 0.791489 0.249454
vt 0.271776 0.541127
vt 0.760733 0.199751
vt 0.757502 0.209505
vt 0.750621 0.206121
vt 0.278108 0.542645
vt 0.273009 0.544115
vt 0.772804 0.201934
vt 0.766718 0.213101
vt 0.766203 0.208706
vt 0.264007 0.548518
vt 0.277612 0.547903
vt 0.268747 0.555467
vt 0.275021 0.546378
vt 0.280714 0.548498
vt 0.281954 0.545638
vt 0.276612 0.557409
vt 0.240880 0.530957
vt 0.248168 0.561486
vt 0.249693 0.550306
vt 0.246843 0.539760
vt 0.242415 0.571620
vt 0.762287 0.211045
vt 0.762255 0.210544
vt 0.761023 0.221925
vt 0.757316 0.212491
vt 0.750922 0.216572
vt 0.772804 0.220841
vt 0.791613 0.252007
vt 0.791097 0.255536
vt 0.780068 0.250772
vt 0.780487 0.263708
vt 0.804698 0.264828
vt 0.798786 0.238814
vt 0.221949 0.571626
vt 0.283377 0.553479
vn -0.3486 -0.8471 0.4010
vn 0.3660 0.0229 0.9303
vn 0.5734 0.7210 0.3891
vn 0.1169 -0.3882 0.9141
vn 0.5236 0.4059 0.7491
vn -0.1350 0.9544 0.2663
vn -0.5915 -0.1548 0.7913
vn -0.3893 0.7067 0.5908
vn 0.3486 0.8472 -0.4010
vn -0.5469 0.3237 0.7721
vn -0.9367 -0.3212 0.1397
vn -0.6103 -0.4807 -0.6296
vn -0.9917 0.1093 -0.0676
vn 0.4503 0.8077 -0.3805
vn -0.5734 -0.7210 -0.3891
vn 0.8143 0.0139 -0.5802
vn -0.5236 -0.4059 -0.7491
vn -0.5496 -0.8164 -0.1773
vn 0.1350 -0.9544 -0.2663
vn 0.5469 -0.3237 -0.7721
vn 0.3486 0.8471 -0.4010
vn 0.3893 -0.7067 -0.5908
vn 0.5915 0.1548 -0.7913
vn 0.4802 -0.7880 0.3853
vn 0.9917 -0.1093 0.0676
vn 0.8341 -0.4923 0.2489
vn 0.9367 0.3212 -0.1397
vn -0.5523 -0.5137 -0.6566
vn 0.2642 0.7961 -0.5445
vn -0.6008 0.7900 -0.1222
vn 0.4474 0.8752 -0.1840
vn 0.5479 -0.4721 -0.6907
vn -0.8335 0.4902 -0.2549
vn -0.9988 -0.0484 0.0079
vn 0.0722 0.8997 -0.4304
vn -0.4358 0.7143 0.5475
vn -0.9186 -0.3615 0.1593
vn 0.0419 0.1748 -0.9837
vn 0.1439 0.8779 0.4567
vn 0.5236 0.4059 0.7490
vn -0.4404 0.0371 -0.8971
vn 0.7676 -0.0185 -0.6406
vn 0.2642 0.7961 -0.5444
vn -0.5603 0.8261 -0.0595
vn 0.5420 -0.3226 -0.7760
vn -0.9105 0.3897 -0.1382
vn 0.0722 0.8997 -0.4305
vn -0.5951 0.2505 0.7636
vn 0.2014 0.2246 -0.9534
vn 0.0305 0.8688 0.4942
s off
f 17/1/1 27/2/1 5/3/1
f 3/4/2 9/5/2 4/6/2
f 1/7/3 7/8/3 2/9/3
f 5/10/4 9/5/4 10/11/4
f 2/9/5 8/12/5 3/4/5
f 6/13/6 29/14/6 7/15/6
f 9/16/7 13/17/7 10/18/7
f 7/15/8 11/19/8 8/20/8
f 1/21/9 28/22/9 6/13/9
f 8/20/10 12/23/10 9/16/10
f 13/17/11 16/24/11 17/1/11
f 30/25/12 42/26/12 38/27/12
f 11/19/13 16/24/13 12/23/13
f 28/28/14 41/29/14 39/30/14
f 16/24/15 22/31/15 17/1/15
f 19/32/16 35/33/16 18/34/16
f 15/35/17 21/36/17 16/24/17
f 20/37/18 34/38/18 36/39/18
f 22/31/19 26/40/19 27/2/19
f 19/41/20 25/42/20 20/43/20
f 1/21/21 18/44/21 14/45/21
f 20/43/22 26/40/22 21/36/22
f 18/44/23 24/46/23 19/41/23
f 27/47/24 4/6/24 5/10/24
f 24/48/25 3/4/25 25/49/25
f 25/49/26 4/6/26 26/50/26
f 23/51/27 2/9/27 24/48/27
f 13/17/1 5/3/1 10/18/1
f 31/52/28 36/39/28 34/38/28
f 31/52/29 35/33/29 32/53/29
f 30/54/30 33/55/30 31/52/30
f 18/34/31 33/55/31 14/56/31
f 19/32/32 36/39/32 32/53/32
f 30/54/33 34/38/33 15/57/33
f 37/58/34 42/26/34 40/59/34
f 37/58/35 41/29/35 38/27/35
f 29/60/36 40/59/36 11/61/36
f 11/61/37 42/26/37 15/62/37
f 30/25/38 41/29/38 14/63/38
f 29/60/39 39/30/39 37/58/39
f 17/1/1 22/31/1 27/2/1
f 3/4/2 8/12/2 9/5/2
f 1/7/3 6/64/3 7/8/3
f 5/10/4 4/6/4 9/5/4
f 2/9/40 7/8/40 8/12/40
f 6/13/6 28/22/6 29/14/6
f 9/16/7 12/23/7 13/17/7
f 7/15/8 29/14/8 11/19/8
f 1/21/21 14/45/21 28/22/21
f 8/20/10 11/19/10 12/23/10
f 13/17/11 12/23/11 16/24/11
f 30/25/41 15/62/41 42/26/41
f 11/19/13 15/35/13 16/24/13
f 28/28/14 14/63/14 41/29/14
f 16/24/15 21/36/15 22/31/15
f 19/32/42 32/53/42 35/33/42
f 15/35/17 20/43/17 21/36/17
f 20/37/18 15/57/18 34/38/18
f 22/31/19 21/36/19 26/40/19
f 19/41/20 24/46/20 25/42/20
f 1/21/21 23/65/21 18/44/21
f 20/43/22 25/42/22 26/40/22
f 18/44/23 23/65/23 24/46/23
f 27/47/24 26/50/24 4/6/24
f 24/48/25 2/9/25 3/4/25
f 25/49/26 3/4/26 4/6/26
f 23/51/27 1/7/27 2/9/27
f 13/17/1 17/1/1 5/3/1
f 31/52/28 32/53/28 36/39/28
f 31/52/43 33/55/43 35/33/43
f 30/54/44 14/56/44 33/55/44
f 18/34/31 35/33/31 33/55/31
f 19/32/45 20/37/45 36/39/45
f 30/54/46 31/52/46 34/38/46
f 37/58/34 38/27/34 42/26/34
f 37/58/47 39/30/47 41/29/47
f 29/60/48 37/58/48 40/59/48
f 11/61/37 40/59/37 42/26/37
f 30/25/49 38/27/49 41/29/49
f 29/60/50 28/28/50 39/30/50
v 3.019266 1.131326 -1.733989
v 3.016762 1.117326 -1.709102
v 3.013209 1.092829 -1.694649
v 3.009558 1.064400 -1.694503
v 3.006788 1.039654 -1.708701
v 2.995402 1.130705 -1.748013
v 2.975428 1.116252 -1.733393
v 2.965480 1.091589 -1.722698
v 2.968224 1.063325 -1.718793
v 2.982924 1.039034 -1.722726
v 2.965116 1.076910 -1.776089
v 2.967909 1.050613 -1.765032
v 2.982742 1.031695 -1.749421
v 3.018902 1.116647 -1.787380
v 3.012481 1.063472 -1.801432
v 3.008928 1.038976 -1.786979
v 3.006424 1.024976 -1.762093
v 3.042766 1.117267 -1.773356
v 3.057466 1.092976 -1.777289
v 3.060209 1.064713 -1.773384
v 3.050261 1.040050 -1.762689
v 3.030288 1.025596 -1.748069
v 3.042948 1.124607 -1.746661
v 3.057781 1.105688 -1.731050
v 3.060573 1.079391 -1.719993
v 3.050577 1.052762 -1.716450
v 3.030470 1.032936 -1.721373
v 2.995219 1.123366 -1.774709
v 2.975113 1.103540 -1.779631
v 3.016132 1.091902 -1.801579
v 3.057621 1.099311 -1.829033
v 3.060994 1.099398 -1.827051
v 3.036947 1.115454 -1.804233
v 3.039946 1.072462 -1.814889
v 3.048760 1.115761 -1.797291
v 3.058269 1.072939 -1.804122
v 2.973069 1.111088 -1.827442
v 2.982778 1.108334 -1.832637
v 2.984898 1.118362 -1.814911
v 2.976714 1.091866 -1.815225
v 2.989348 1.117100 -1.817291
v 2.981176 1.090600 -1.817612
vt 0.274240 0.539347
vt 0.265397 0.539709
vt 0.266768 0.532487
vt 0.231414 0.551290
vt 0.214659 0.541092
vt 0.231357 0.542861
vt 0.231940 0.569242
vt 0.215985 0.562822
vt 0.231472 0.559719
vt 0.230890 0.533338
vt 0.220414 0.530957
vt 0.213134 0.552274
vt 0.289666 0.544440
vt 0.282983 0.540904
vt 0.290637 0.536818
vt 0.279682 0.529141
vt 0.275518 0.536619
vt 0.273707 0.532162
vt 0.280945 0.538772
vt 0.286431 0.530872
vt 0.290637 0.551375
vt 0.284312 0.543753
vt 0.278488 0.537315
vt 0.276318 0.541045
vt 0.804698 0.251197
vt 0.792375 0.255919
vt 0.792638 0.252041
vt 0.786357 0.239035
vt 0.792578 0.249274
vt 0.791489 0.249454
vt 0.271776 0.541127
vt 0.760733 0.199751
vt 0.757502 0.209505
vt 0.750621 0.206121
vt 0.278108 0.542645
vt 0.273009 0.544115
vt 0.772804 0.201934
vt 0.766718 0.213101
vt 0.766203 0.208706
vt 0.264007 0.548518
vt 0.277612 0.547903
vt 0.268747 0.555467
vt 0.275021 0.546378
vt 0.280714 0.548498
vt 0.281954 0.545638
vt 0.276612 0.557409
vt 0.240880 0.530957
vt 0.248168 0.561486
vt 0.249693 0.550306
vt 0.246843 0.539760
vt 0.242415 0.571620
vt 0.762287 0.211045
vt 0.762255 0.210544
vt 0.761023 0.221925
vt 0.757316 0.212491
vt 0.750922 0.216572
vt 0.772804 0.220841
vt 0.791613 0.252007
vt 0.791097 0.255536
vt 0.780068 0.250772
vt 0.780487 0.263708
vt 0.804698 0.264828
vt 0.798786 0.238814
vt 0.221949 0.571626
vt 0.283377 0.553479
vn -0.1301 -0.9558 0.2637
vn -0.5068 0.0695 0.8593
vn -0.2853 0.8473 0.4480
vn -0.4556 -0.4041 0.7932
vn -0.4480 0.5016 0.7401
vn -0.6643 0.7219 -0.1939
vn -0.8347 -0.5296 0.1513
vn -0.9364 0.3399 -0.0871
vn 0.1301 0.9558 -0.2637
vn -0.9952 -0.0922 0.0321
vn -0.4642 -0.7512 -0.4693
vn 0.3446 -0.6248 -0.7007
vn -0.5179 -0.3777 -0.7676
vn 0.1849 0.9683 -0.1680
vn 0.2853 -0.8473 -0.4480
vn 0.8539 0.4871 0.1832
vn 0.4480 -0.5016 -0.7401
vn 0.1803 -0.9473 -0.2649
vn 0.6643 -0.7219 0.1939
vn 0.9952 0.0922 -0.0321
vn 0.9364 -0.3399 0.0871
vn 0.8347 0.5296 -0.1513
vn 0.2939 -0.5002 0.8145
vn 0.5179 0.3777 0.7675
vn 0.4590 -0.0544 0.8867
vn 0.4642 0.7512 0.4693
vn 0.4089 -0.6213 -0.6684
vn 0.2131 0.8905 -0.4020
vn -0.5534 0.4073 -0.7265
vn 0.0096 0.9981 -0.0604
vn 0.9968 -0.0467 0.0647
vn -0.4535 0.0536 -0.8897
vn -0.5123 -0.5278 -0.6775
vn -0.0156 0.8711 -0.4909
vn -0.9320 0.3299 -0.1501
vn -0.4526 -0.7800 -0.4322
vn 0.6794 0.3065 -0.6667
vn -0.6268 0.7651 0.1476
vn 0.4180 -0.0584 -0.9066
vn -0.5179 -0.3777 -0.7675
vn 0.1848 0.9683 -0.1680
vn 0.8875 0.4448 0.1203
vn 0.4479 -0.5016 -0.7401
vn 0.5179 0.3777 0.7676
vn 0.4090 -0.6213 -0.6683
vn -0.5937 0.4495 -0.6675
vn 0.9951 0.0913 -0.0384
vn -0.5390 -0.0865 -0.8379
vn -0.5122 -0.5278 -0.6776
vn -0.0155 0.8711 -0.4909
vn -0.9840 -0.1777 0.0140
vn -0.4525 -0.7800 -0.4322
vn 0.7203 0.4228 -0.5499
vn -0.7107 0.6970 0.0957
s off
f 59/66/51 69/67/51 47/68/51
f 45/69/52 51/70/52 46/71/52
f 43/72/53 49/73/53 44/74/53
f 47/75/54 51/70/54 52/76/54
f 44/74/55 50/77/55 45/69/55
f 48/78/56 71/79/56 49/80/56
f 51/81/57 55/82/57 52/83/57
f 49/80/58 53/84/58 50/85/58
f 43/86/59 70/87/59 48/78/59
f 50/85/60 54/88/60 51/81/60
f 55/82/61 58/89/61 59/66/61
f 72/90/62 84/91/62 80/92/62
f 53/84/63 58/89/63 54/88/63
f 70/93/64 83/94/64 81/95/64
f 58/89/65 64/96/65 59/66/65
f 61/97/66 77/98/66 60/99/66
f 57/100/67 63/101/67 58/89/67
f 62/102/68 76/103/68 78/104/68
f 64/96/69 68/105/69 69/67/69
f 61/106/70 67/107/70 62/108/70
f 43/86/59 60/109/59 56/110/59
f 62/108/71 68/105/71 63/101/71
f 60/109/72 66/111/72 61/106/72
f 69/112/73 46/71/73 47/75/73
f 66/113/74 45/69/74 67/114/74
f 67/114/75 46/71/75 68/115/75
f 65/116/76 44/74/76 66/113/76
f 55/82/51 47/68/51 52/83/51
f 73/117/77 78/104/77 76/103/77
f 73/117/78 77/98/78 74/118/78
f 72/119/79 75/120/79 73/117/79
f 60/99/80 75/120/80 56/121/80
f 61/97/81 78/104/81 74/118/81
f 72/119/82 76/103/82 57/122/82
f 79/123/83 84/91/83 82/124/83
f 79/123/84 83/94/84 80/92/84
f 71/125/85 82/124/85 53/126/85
f 53/126/86 84/91/86 57/127/86
f 72/90/87 83/94/87 56/128/87
f 71/125/88 81/95/88 79/123/88
f 59/66/51 64/96/51 69/67/51
f 45/69/52 50/77/52 51/70/52
f 43/72/53 48/129/53 49/73/53
f 47/75/54 46/71/54 51/70/54
f 44/74/55 49/73/55 50/77/55
f 48/78/56 70/87/56 71/79/56
f 51/81/57 54/88/57 55/82/57
f 49/80/58 71/79/58 53/84/58
f 43/86/59 56/110/59 70/87/59
f 50/85/60 53/84/60 54/88/60
f 55/82/61 54/88/61 58/89/61
f 72/90/89 57/127/89 84/91/89
f 53/84/90 57/100/90 58/89/90
f 70/93/91 56/128/91 83/94/91
f 58/89/65 63/101/65 64/96/65
f 61/97/92 74/118/92 77/98/92
f 57/100/93 62/108/93 63/101/93
f 62/102/68 57/122/68 76/103/68
f 64/96/69 63/101/69 68/105/69
f 61/106/70 66/111/70 67/107/70
f 43/86/59 65/130/59 60/109/59
f 62/108/71 67/107/71 68/105/71
f 60/109/72 65/130/72 66/111/72
f 69/112/73 68/115/73 46/71/73
f 66/113/94 44/74/94 45/69/94
f 67/114/75 45/69/75 46/71/75
f 65/116/76 43/72/76 44/74/76
f 55/82/51 59/66/51 47/68/51
f 73/117/95 74/118/95 78/104/95
f 73/117/78 75/120/78 77/98/78
f 72/119/96 56/121/96 75/120/96
f 60/99/80 77/98/80 75/120/80
f 61/97/97 62/102/97 78/104/97
f 72/119/98 73/117/98 76/103/98
f 79/123/99 80/92/99 84/91/99
f 79/123/100 81/95/100 83/94/100
f 71/125/101 79/123/101 82/124/101
f 53/126/102 82/124/102 84/91/102
f 72/90/103 80/92/103 83/94/103
f 71/125/104 70/93/104 81/95/104
