# Blender v2.81 (sub 16) OBJ File: 'garbage.blend'
# www.blender.org
v 0.026316 2.124510 0.943991
v 0.015997 2.105834 0.963131
v 0.009979 2.078864 0.970745
v 0.009875 2.050825 0.964793
v 0.015712 2.029232 0.946869
v 0.010003 2.125651 0.921650
v -0.012258 2.107810 0.924434
v -0.022647 2.081145 0.926062
v -0.018380 2.052801 0.926096
v -0.000601 2.030372 0.924528
v -0.000578 2.077160 0.875433
v 0.000733 2.049349 0.882250
v 0.010434 2.028379 0.899213
v 0.048385 2.120525 0.893362
v 0.054118 2.070893 0.869487
v 0.048100 2.043922 0.877100
v 0.037782 2.025246 0.896240
v 0.064699 2.119384 0.915704
v 0.082478 2.096956 0.914135
v 0.086745 2.068611 0.914169
v 0.076356 2.041946 0.915797
v 0.054095 2.024106 0.918582
v 0.053664 2.121377 0.941018
v 0.063365 2.100407 0.957981
v 0.064675 2.072597 0.964799
v 0.057243 2.045398 0.959643
v 0.043060 2.026098 0.943896
v 0.021038 2.123658 0.896335
v 0.006855 2.104358 0.880588
v 0.054223 2.098931 0.875439
v 0.101951 2.113261 0.868611
v 0.104256 2.113100 0.871768
v 0.071560 2.123389 0.885250
v 0.083411 2.083463 0.869879
v 0.079635 2.122825 0.896309
v 0.095936 2.082587 0.887032
v 0.022651 2.120996 0.837919
v 0.033863 2.119712 0.836700
v 0.027767 2.126169 0.855151
v 0.023472 2.099928 0.847272
v 0.032905 2.125580 0.854592
v 0.028625 2.099337 0.846712
vt 0.274240 0.539347
vt 0.265397 0.539709
vt 0.266768 0.532487
vt 0.231414 0.551290
vt 0.214659 0.541092
vt 0.231357 0.542861
vt 0.231940 0.569242
vt 0.215985 0.562822
vt 0.231472 0.559719
vt 0.230890 0.533338
vt 0.220414 0.530957
vt 0.213134 0.552274
vt 0.289666 0.544440
vt 0.282983 0.540904
vt 0.290637 0.536818
vt 0.279682 0.529141
vt 0.275518 0.536619
vt 0.273707 0.532162
vt 0.280945 0.538772
vt 0.286431 0.530872
vt 0.290637 0.551375
vt 0.284312 0.543753
vt 0.278488 0.537315
vt 0.276318 0.541045
vt 0.804698 0.251197
vt 0.792375 0.255919
vt 0.792638 0.252041
vt 0.786357 0.239035
vt 0.792578 0.249274
vt 0.791489 0.249454
vt 0.271776 0.541127
vt 0.760733 0.199751
vt 0.757502 0.209505
vt 0.750621 0.206121
vt 0.278108 0.542645
vt 0.273009 0.544115
vt 0.772804 0.201934
vt 0.766718 0.213101
vt 0.766203 0.208706
vt 0.264007 0.548518
vt 0.277612 0.547903
vt 0.268747 0.555467
vt 0.275021 0.546378
vt 0.280714 0.548498
vt 0.281954 0.545638
vt 0.276612 0.557409
vt 0.240880 0.530957
vt 0.248168 0.561486
vt 0.249693 0.550306
vt 0.246843 0.539760
vt 0.242415 0.571620
vt 0.762287 0.211045
vt 0.762255 0.210544
vt 0.761023 0.221925
vt 0.757316 0.212491
vt 0.750922 0.216572
vt 0.772804 0.220841
vt 0.791613 0.252007
vt 0.791097 0.255536
vt 0.780068 0.250772
vt 0.780487 0.263708
vt 0.804698 0.264828
vt 0.798786 0.238814
vt 0.221949 0.571626
vt 0.283377 0.553479
vn -0.1106 -0.9934 0.0300
vn -0.8047 -0.1204 0.5814
vn -0.5327 0.7311 0.4263
vn -0.6774 -0.5695 0.4655
vn -0.7547 0.3287 0.5678
vn -0.6159 0.7177 -0.3249
vn -0.7606 -0.5830 -0.2857
vn -0.8619 0.3114 -0.4002
vn 0.1106 0.9934 -0.0300
vn -0.9119 -0.1377 -0.3866
vn -0.1556 -0.6638 -0.7316
vn 0.6592 -0.4613 -0.5939
vn -0.1322 -0.2419 -0.9613
vn 0.1221 0.9893 0.0803
vn 0.5327 -0.7312 -0.4263
vn 0.6535 0.4769 0.5878
vn 0.7547 -0.3287 -0.5678
vn 0.3772 -0.8691 -0.3198
vn 0.6159 -0.7177 0.3249
vn 0.9119 0.1377 0.3866
vn 0.8619 -0.3114 0.4002
vn 0.7606 0.5830 0.2857
vn 0.0108 -0.6369 0.7709
vn 0.1322 0.2419 0.9613
vn 0.0822 -0.2072 0.9748
vn 0.1556 0.6638 0.7316
vn 0.7051 -0.4616 -0.5384
vn 0.2477 0.9598 -0.1318
vn -0.2715 0.5179 -0.8112
vn -0.0834 0.9903 0.1114
vn 0.8919 -0.0171 0.4519
vn -0.0759 0.2073 -0.9753
vn -0.1446 -0.4062 -0.9023
vn 0.0753 0.9487 -0.3071
vn -0.8323 0.3140 -0.4569
vn -0.1560 -0.6988 -0.6981
vn 0.8443 0.4585 -0.2774
vn -0.7190 0.6950 0.0048
vn -0.6774 -0.5695 0.4656
vn -0.9119 -0.1377 -0.3867
vn 0.7405 0.1369 -0.6579
vn 0.1221 0.9893 0.0802
vn 0.7135 0.4490 0.5379
vn 0.6159 -0.7177 0.3250
vn 0.9119 0.1377 0.3867
vn 0.2477 0.9598 -0.1319
vn -0.3361 0.5461 -0.7674
vn 0.9143 0.1381 0.3808
vn -0.1579 0.0563 -0.9858
vn -0.8847 -0.2175 -0.4123
vn -0.1559 -0.6987 -0.6982
vn 0.8230 0.5513 -0.1368
vn -0.7677 0.6349 -0.0867
s off
f 17/1/1 27/2/1 5/3/1
f 3/4/2 9/5/2 4/6/2
f 1/7/3 7/8/3 2/9/3
f 5/10/4 9/5/4 10/11/4
f 2/9/5 8/12/5 3/4/5
f 6/13/6 29/14/6 7/15/6
f 9/16/7 13/17/7 10/18/7
f 7/15/8 11/19/8 8/20/8
f 1/21/9 28/22/9 6/13/9
f 8/20/10 12/23/10 9/16/10
f 13/17/11 16/24/11 17/1/11
f 30/25/12 42/26/12 38/27/12
f 11/19/13 16/24/13 12/23/13
f 28/28/14 41/29/14 39/30/14
f 16/24/15 22/31/15 17/1/15
f 19/32/16 35/33/16 18/34/16
f 15/35/17 21/36/17 16/24/17
f 20/37/18 34/38/18 36/39/18
f 22/31/19 26/40/19 27/2/19
f 19/41/20 25/42/20 20/43/20
f 1/21/9 18/44/9 14/45/9
f 20/43/21 26/40/21 21/36/21
f 18/44/22 24/46/22 19/41/22
f 27/47/23 4/6/23 5/10/23
f 24/48/24 3/4/24 25/49/24
f 25/49/25 4/6/25 26/50/25
f 23/51/26 2/9/26 24/48/26
f 13/17/1 5/3/1 10/18/1
f 31/52/27 36/39/27 34/38/27
f 31/52/28 35/33/28 32/53/28
f 30/54/29 33/55/29 31/52/29
f 18/34/30 33/55/30 14/56/30
f 19/32/31 36/39/31 32/53/31
f 30/54/32 34/38/32 15/57/32
f 37/58/33 42/26/33 40/59/33
f 37/58/34 41/29/34 38/27/34
f 29/60/35 40/59/35 11/61/35
f 11/61/36 42/26/36 15/62/36
f 30/25/37 41/29/37 14/63/37
f 29/60/38 39/30/38 37/58/38
f 17/1/1 22/31/1 27/2/1
f 3/4/2 8/12/2 9/5/2
f 1/7/3 6/64/3 7/8/3
f 5/10/39 4/6/39 9/5/39
f 2/9/5 7/8/5 8/12/5
f 6/13/6 28/22/6 29/14/6
f 9/16/7 12/23/7 13/17/7
f 7/15/8 29/14/8 11/19/8
f 1/21/9 14/45/9 28/22/9
f 8/20/40 11/19/40 12/23/40
f 13/17/11 12/23/11 16/24/11
f 30/25/41 15/62/41 42/26/41
f 11/19/13 15/35/13 16/24/13
f 28/28/42 14/63/42 41/29/42
f 16/24/15 21/36/15 22/31/15
f 19/32/43 32/53/43 35/33/43
f 15/35/17 20/43/17 21/36/17
f 20/37/18 15/57/18 34/38/18
f 22/31/44 21/36/44 26/40/44
f 19/41/45 24/46/45 25/42/45
f 1/21/9 23/65/9 18/44/9
f 20/43/21 25/42/21 26/40/21
f 18/44/22 23/65/22 24/46/22
f 27/47/23 26/50/23 4/6/23
f 24/48/24 2/9/24 3/4/24
f 25/49/25 3/4/25 4/6/25
f 23/51/26 1/7/26 2/9/26
f 13/17/1 17/1/1 5/3/1
f 31/52/27 32/53/27 36/39/27
f 31/52/46 33/55/46 35/33/46
f 30/54/47 14/56/47 33/55/47
f 18/34/30 35/33/30 33/55/30
f 19/32/48 20/37/48 36/39/48
f 30/54/49 31/52/49 34/38/49
f 37/58/33 38/27/33 42/26/33
f 37/58/34 39/30/34 41/29/34
f 29/60/50 37/58/50 40/59/50
f 11/61/51 40/59/51 42/26/51
f 30/25/52 38/27/52 41/29/52
f 29/60/53 28/28/53 39/30/53
v -0.778538 1.933393 1.915315
v -0.787864 1.907388 1.907675
v -0.785967 1.878840 1.909401
v -0.773356 1.855397 1.920031
v -0.753408 1.843342 1.936715
v -0.753190 1.938063 1.905202
v -0.743961 1.915477 1.890159
v -0.735272 1.888180 1.889176
v -0.729453 1.863486 1.902515
v -0.728061 1.848012 1.926603
v -0.695284 1.907235 1.922404
v -0.694822 1.879988 1.931291
v -0.708067 1.857539 1.943217
v -0.738549 1.952449 1.948543
v -0.705991 1.916951 1.975857
v -0.704094 1.888402 1.977583
v -0.713420 1.862397 1.969943
v -0.763897 1.947779 1.958655
v -0.762505 1.932305 1.982743
v -0.756685 1.907611 1.996082
v -0.747997 1.880313 1.995099
v -0.738768 1.857727 1.980056
v -0.783891 1.938251 1.942041
v -0.797136 1.915802 1.953967
v -0.796674 1.888555 1.962854
v -0.782628 1.863811 1.966323
v -0.758762 1.848199 1.963442
v -0.733196 1.947591 1.921816
v -0.709330 1.931980 1.918936
v -0.718602 1.940393 1.965227
v -0.731504 1.967400 2.005652
v -0.735086 1.966740 2.007081
v -0.739400 1.963483 1.970647
v -0.719047 1.935388 1.998347
v -0.751947 1.961172 1.975653
v -0.738509 1.931803 2.006112
v -0.679824 1.965503 1.937713
v -0.682018 1.967494 1.948669
v -0.698499 1.965568 1.936671
v -0.683233 1.943390 1.943318
v -0.699505 1.966481 1.941693
v -0.684242 1.944305 1.948354
vt 0.274240 0.539347
vt 0.265397 0.539709
vt 0.266768 0.532487
vt 0.231414 0.551290
vt 0.214659 0.541092
vt 0.231357 0.542861
vt 0.231940 0.569242
vt 0.215985 0.562822
vt 0.231472 0.559719
vt 0.230890 0.533338
vt 0.220414 0.530957
vt 0.213134 0.552274
vt 0.289666 0.544440
vt 0.282983 0.540904
vt 0.290637 0.536818
vt 0.279682 0.529141
vt 0.275518 0.536619
vt 0.273707 0.532162
vt 0.280945 0.538772
vt 0.286431 0.530872
vt 0.290637 0.551375
vt 0.284312 0.543753
vt 0.278488 0.537315
vt 0.276318 0.541045
vt 0.804698 0.251197
vt 0.792375 0.255919
vt 0.792638 0.252041
vt 0.786357 0.239035
vt 0.792578 0.249274
vt 0.791489 0.249454
vt 0.271776 0.541127
vt 0.760733 0.199751
vt 0.757502 0.209505
vt 0.750621 0.206121
vt 0.278108 0.542645
vt 0.273009 0.544115
vt 0.772804 0.201934
vt 0.766718 0.213101
vt 0.766203 0.208706
vt 0.264007 0.548518
vt 0.277612 0.547903
vt 0.268747 0.555467
vt 0.275021 0.546378
vt 0.280714 0.548498
vt 0.281954 0.545638
vt 0.276612 0.557409
vt 0.240880 0.530957
vt 0.248168 0.561486
vt 0.249693 0.550306
vt 0.246843 0.539760
vt 0.242415 0.571620
vt 0.762287 0.211045
vt 0.762255 0.210544
vt 0.761023 0.221925
vt 0.757316 0.212491
vt 0.750922 0.216572
vt 0.772804 0.220841
vt 0.791613 0.252007
vt 0.791097 0.255536
vt 0.780068 0.250772
vt 0.780487 0.263708
vt 0.804698 0.264828
vt 0.798786 0.238814
vt 0.221949 0.571626
vt 0.283377 0.553479
vn 0.2620 -0.9389 0.2231
vn -0.2382 -0.5044 -0.8299
vn -0.4023 0.3879 -0.8293
vn -0.0593 -0.8414 -0.5371
vn -0.3566 -0.0800 -0.9308
vn 0.3124 0.6117 -0.7268
vn 0.6555 -0.6176 -0.4346
vn 0.5644 0.2084 -0.7988
vn -0.2620 0.9389 -0.2231
vn 0.6828 -0.2160 -0.6979
vn 0.8863 -0.3909 0.2486
vn 0.4452 -0.0549 0.8938
vn 0.9803 0.0762 0.1825
vn -0.3651 0.9003 -0.2368
vn 0.4023 -0.3879 0.8293
vn -0.8690 0.3920 0.3020
vn 0.3566 0.0800 0.9308
vn 0.3909 -0.5875 0.7085
vn -0.3124 -0.6117 0.7268
vn -0.6829 0.2161 0.6979
vn -0.5644 -0.2084 0.7988
vn -0.6555 0.6176 0.4346
vn -0.5432 -0.8385 0.0436
vn -0.9803 -0.0762 -0.1825
vn -0.8618 -0.5006 -0.0816
vn -0.8863 0.3909 -0.2486
vn 0.3798 -0.0628 0.9229
vn -0.2051 0.9767 -0.0630
vn 0.6948 0.6805 -0.2329
vn -0.3272 0.8404 -0.4321
vn -0.6963 0.0484 0.7161
vn 0.8602 0.5024 0.0875
vn 0.9725 -0.0962 0.2122
vn 0.0133 0.9843 -0.1763
vn 0.6057 0.2374 -0.7594
vn 0.8649 -0.4341 0.2521
vn -0.1379 0.7172 0.6831
vn 0.0512 0.4533 -0.8899
vn -0.2382 -0.5045 -0.8299
vn 0.6829 -0.2161 -0.6979
vn 0.3245 0.5298 0.7836
vn -0.8358 0.3985 0.3778
vn 0.3909 -0.5875 0.7086
vn 0.3799 -0.0628 0.9229
vn 0.6686 0.6753 -0.3114
vn -0.6784 0.2190 0.7013
vn 0.9349 0.3489 0.0653
vn 0.9725 -0.0962 0.2123
vn 0.7178 -0.2730 -0.6405
vn -0.2828 0.7483 0.6000
vn 0.1657 0.4181 -0.8931
s off
f 59/66/54 69/67/54 47/68/54
f 45/69/55 51/70/55 46/71/55
f 43/72/56 49/73/56 44/74/56
f 47/75/57 51/70/57 52/76/57
f 44/74/58 50/77/58 45/69/58
f 48/78/59 71/79/59 49/80/59
f 51/81/60 55/82/60 52/83/60
f 49/80/61 53/84/61 50/85/61
f 43/86/62 70/87/62 48/78/62
f 50/85/63 54/88/63 51/81/63
f 55/82/64 58/89/64 59/66/64
f 72/90/65 84/91/65 80/92/65
f 53/84/66 58/89/66 54/88/66
f 70/93/67 83/94/67 81/95/67
f 58/89/68 64/96/68 59/66/68
f 61/97/69 77/98/69 60/99/69
f 57/100/70 63/101/70 58/89/70
f 62/102/71 76/103/71 78/104/71
f 64/96/72 68/105/72 69/67/72
f 61/106/73 67/107/73 62/108/73
f 43/86/62 60/109/62 56/110/62
f 62/108/74 68/105/74 63/101/74
f 60/109/75 66/111/75 61/106/75
f 69/112/76 46/71/76 47/75/76
f 66/113/77 45/69/77 67/114/77
f 67/114/78 46/71/78 68/115/78
f 65/116/79 44/74/79 66/113/79
f 55/82/54 47/68/54 52/83/54
f 73/117/80 78/104/80 76/103/80
f 73/117/81 77/98/81 74/118/81
f 72/119/82 75/120/82 73/117/82
f 60/99/83 75/120/83 56/121/83
f 61/97/84 78/104/84 74/118/84
f 72/119/85 76/103/85 57/122/85
f 79/123/86 84/91/86 82/124/86
f 79/123/87 83/94/87 80/92/87
f 71/125/88 82/124/88 53/126/88
f 53/126/89 84/91/89 57/127/89
f 72/90/90 83/94/90 56/128/90
f 71/125/91 81/95/91 79/123/91
f 59/66/54 64/96/54 69/67/54
f 45/69/92 50/77/92 51/70/92
f 43/72/56 48/129/56 49/73/56
f 47/75/57 46/71/57 51/70/57
f 44/74/58 49/73/58 50/77/58
f 48/78/59 70/87/59 71/79/59
f 51/81/60 54/88/60 55/82/60
f 49/80/61 71/79/61 53/84/61
f 43/86/62 56/110/62 70/87/62
f 50/85/93 53/84/93 54/88/93
f 55/82/64 54/88/64 58/89/64
f 72/90/94 57/127/94 84/91/94
f 53/84/66 57/100/66 58/89/66
f 70/93/67 56/128/67 83/94/67
f 58/89/68 63/101/68 64/96/68
f 61/97/95 74/118/95 77/98/95
f 57/100/70 62/108/70 63/101/70
f 62/102/96 57/122/96 76/103/96
f 64/96/72 63/101/72 68/105/72
f 61/106/73 66/111/73 67/107/73
f 43/86/62 65/130/62 60/109/62
f 62/108/74 67/107/74 68/105/74
f 60/109/75 65/130/75 66/111/75
f 69/112/76 68/115/76 46/71/76
f 66/113/77 44/74/77 45/69/77
f 67/114/78 45/69/78 46/71/78
f 65/116/79 43/72/79 44/74/79
f 55/82/54 59/66/54 47/68/54
f 73/117/97 74/118/97 78/104/97
f 73/117/81 75/120/81 77/98/81
f 72/119/98 56/121/98 75/120/98
f 60/99/83 77/98/83 75/120/83
f 61/97/99 62/102/99 78/104/99
f 72/119/100 73/117/100 76/103/100
f 79/123/101 80/92/101 84/91/101
f 79/123/87 81/95/87 83/94/87
f 71/125/102 79/123/102 82/124/102
f 53/126/89 82/124/89 84/91/89
f 72/90/103 80/92/103 83/94/103
f 71/125/104 70/93/104 81/95/104
