# Blender v2.81 (sub 16) OBJ File: 'garbage.blend'
# www.blender.org
v 0.286686 1.977749 -0.023454
v 0.278961 1.962862 -0.000210
v 0.271634 1.938010 0.012049
v 0.266668 1.909851 0.010037
v 0.265394 1.885932 -0.005706
v 0.265823 1.979078 -0.041607
v 0.242825 1.965164 -0.031652
v 0.229908 1.940668 -0.024258
v 0.230533 1.912153 -0.021405
v 0.244531 1.887261 -0.023859
v 0.238720 1.928329 -0.077515
v 0.238164 1.901468 -0.067528
v 0.248937 1.881092 -0.050488
v 0.295497 1.965411 -0.076712
v 0.289258 1.913333 -0.094466
v 0.281931 1.888481 -0.082208
v 0.274206 1.873593 -0.058963
v 0.316360 1.964082 -0.058558
v 0.330359 1.939190 -0.061012
v 0.330983 1.910675 -0.058160
v 0.318066 1.886179 -0.050765
v 0.295069 1.872265 -0.040810
v 0.311954 1.970251 -0.031930
v 0.322727 1.949875 -0.014890
v 0.322171 1.923014 -0.004902
v 0.310435 1.896864 -0.004643
v 0.290663 1.878434 -0.014181
v 0.270229 1.972909 -0.068236
v 0.250457 1.954479 -0.077775
v 0.294223 1.941491 -0.092455
v 0.340378 1.947712 -0.111456
v 0.343326 1.947524 -0.108891
v 0.316269 1.963922 -0.090030
v 0.319133 1.921325 -0.102200
v 0.326596 1.963265 -0.081045
v 0.335152 1.920304 -0.088262
v 0.257648 1.964168 -0.124694
v 0.268007 1.961094 -0.128169
v 0.267289 1.970219 -0.109852
v 0.258051 1.944266 -0.113041
v 0.272037 1.968811 -0.111444
v 0.262812 1.942853 -0.114638
vt 0.274240 0.539347
vt 0.265397 0.539709
vt 0.266768 0.532487
vt 0.231414 0.551290
vt 0.214659 0.541092
vt 0.231357 0.542861
vt 0.231940 0.569242
vt 0.215985 0.562822
vt 0.231472 0.559719
vt 0.230890 0.533338
vt 0.220414 0.530957
vt 0.213134 0.552274
vt 0.289666 0.544440
vt 0.282983 0.540904
vt 0.290637 0.536818
vt 0.279682 0.529141
vt 0.275518 0.536619
vt 0.273707 0.532162
vt 0.280945 0.538772
vt 0.286431 0.530872
vt 0.290637 0.551375
vt 0.284312 0.543753
vt 0.278488 0.537315
vt 0.276318 0.541045
vt 0.804698 0.251197
vt 0.792375 0.255919
vt 0.792638 0.252041
vt 0.786357 0.239035
vt 0.792578 0.249274
vt 0.791489 0.249454
vt 0.271776 0.541127
vt 0.760733 0.199751
vt 0.757502 0.209505
vt 0.750621 0.206121
vt 0.278108 0.542645
vt 0.273009 0.544115
vt 0.772804 0.201934
vt 0.766718 0.213101
vt 0.766203 0.208706
vt 0.264007 0.548518
vt 0.277612 0.547903
vt 0.268747 0.555467
vt 0.275021 0.546378
vt 0.280714 0.548498
vt 0.281954 0.545638
vt 0.276612 0.557409
vt 0.240880 0.530957
vt 0.248168 0.561486
vt 0.249693 0.550306
vt 0.246843 0.539760
vt 0.242415 0.571620
vt 0.762287 0.211045
vt 0.762255 0.210544
vt 0.761023 0.221925
vt 0.757316 0.212491
vt 0.750922 0.216572
vt 0.772804 0.220841
vt 0.791613 0.252007
vt 0.791097 0.255536
vt 0.780068 0.250772
vt 0.780487 0.263708
vt 0.804698 0.264828
vt 0.798786 0.238814
vt 0.221949 0.571626
vt 0.283377 0.553479
vn -0.2220 -0.9573 0.1851
vn -0.6530 0.0612 0.7549
vn -0.3224 0.8422 0.4322
vn -0.6131 -0.4113 0.6745
vn -0.5526 0.4940 0.6712
vn -0.5819 0.7659 -0.2737
vn -0.8725 -0.4876 -0.0314
vn -0.8869 0.3957 -0.2384
vn 0.2220 0.9573 -0.1851
vn -0.9873 -0.0371 -0.1548
vn -0.4047 -0.7030 -0.5848
vn 0.4380 -0.6127 -0.6578
vn -0.3845 -0.3147 -0.8678
vn 0.2586 0.9626 -0.0805
vn 0.3224 -0.8422 -0.4322
vn 0.8276 0.4298 0.3611
vn 0.5526 -0.4940 -0.6712
vn 0.1808 -0.9437 -0.2769
vn 0.5819 -0.7659 0.2737
vn 0.9873 0.0371 0.1548
vn 0.8869 -0.3957 0.2384
vn 0.8725 0.4876 0.0314
vn 0.1141 -0.5504 0.8271
vn 0.3845 0.3147 0.8678
vn 0.2841 -0.1181 0.9515
vn 0.4048 0.7030 0.5848
vn 0.4953 -0.6143 -0.6142
vn 0.3259 0.8934 -0.3092
vn -0.3896 0.4686 -0.7929
vn 0.0681 0.9977 -0.0052
vn 0.9643 -0.1056 0.2428
vn -0.2781 0.1172 -0.9534
vn -0.4028 -0.4685 -0.7863
vn 0.1170 0.8907 -0.4392
vn -0.8714 0.3881 -0.3000
vn -0.4015 -0.7340 -0.5477
vn 0.8048 0.2958 -0.5146
vn -0.6061 0.7922 0.0707
vn -0.2220 -0.9573 0.1850
vn -0.5526 0.4940 0.6713
vn -0.4048 -0.7030 -0.5848
vn 0.5751 -0.0431 -0.8170
vn 0.8702 0.3883 0.3033
vn 0.4047 0.7030 0.5848
vn -0.4379 0.5104 -0.7401
vn 0.0681 0.9977 -0.0053
vn 0.9882 0.0365 0.1485
vn -0.3783 -0.0201 -0.9255
vn -0.9770 -0.1222 -0.1750
vn -0.4015 -0.7340 -0.5478
vn 0.8289 0.4046 -0.3864
vn -0.6821 0.7313 0.0009
s off
f 17/1/1 27/2/1 5/3/1
f 3/4/2 9/5/2 4/6/2
f 1/7/3 7/8/3 2/9/3
f 5/10/4 9/5/4 10/11/4
f 2/9/5 8/12/5 3/4/5
f 6/13/6 29/14/6 7/15/6
f 9/16/7 13/17/7 10/18/7
f 7/15/8 11/19/8 8/20/8
f 1/21/9 28/22/9 6/13/9
f 8/20/10 12/23/10 9/16/10
f 13/17/11 16/24/11 17/1/11
f 30/25/12 42/26/12 38/27/12
f 11/19/13 16/24/13 12/23/13
f 28/28/14 41/29/14 39/30/14
f 16/24/15 22/31/15 17/1/15
f 19/32/16 35/33/16 18/34/16
f 15/35/17 21/36/17 16/24/17
f 20/37/18 34/38/18 36/39/18
f 22/31/19 26/40/19 27/2/19
f 19/41/20 25/42/20 20/43/20
f 1/21/9 18/44/9 14/45/9
f 20/43/21 26/40/21 21/36/21
f 18/44/22 24/46/22 19/41/22
f 27/47/23 4/6/23 5/10/23
f 24/48/24 3/4/24 25/49/24
f 25/49/25 4/6/25 26/50/25
f 23/51/26 2/9/26 24/48/26
f 13/17/1 5/3/1 10/18/1
f 31/52/27 36/39/27 34/38/27
f 31/52/28 35/33/28 32/53/28
f 30/54/29 33/55/29 31/52/29
f 18/34/30 33/55/30 14/56/30
f 19/32/31 36/39/31 32/53/31
f 30/54/32 34/38/32 15/57/32
f 37/58/33 42/26/33 40/59/33
f 37/58/34 41/29/34 38/27/34
f 29/60/35 40/59/35 11/61/35
f 11/61/36 42/26/36 15/62/36
f 30/25/37 41/29/37 14/63/37
f 29/60/38 39/30/38 37/58/38
f 17/1/39 22/31/39 27/2/39
f 3/4/2 8/12/2 9/5/2
f 1/7/3 6/64/3 7/8/3
f 5/10/4 4/6/4 9/5/4
f 2/9/40 7/8/40 8/12/40
f 6/13/6 28/22/6 29/14/6
f 9/16/7 12/23/7 13/17/7
f 7/15/8 29/14/8 11/19/8
f 1/21/9 14/45/9 28/22/9
f 8/20/10 11/19/10 12/23/10
f 13/17/41 12/23/41 16/24/41
f 30/25/42 15/62/42 42/26/42
f 11/19/13 15/35/13 16/24/13
f 28/28/14 14/63/14 41/29/14
f 16/24/15 21/36/15 22/31/15
f 19/32/43 32/53/43 35/33/43
f 15/35/17 20/43/17 21/36/17
f 20/37/18 15/57/18 34/38/18
f 22/31/19 21/36/19 26/40/19
f 19/41/20 24/46/20 25/42/20
f 1/21/9 23/65/9 18/44/9
f 20/43/21 25/42/21 26/40/21
f 18/44/22 23/65/22 24/46/22
f 27/47/23 26/50/23 4/6/23
f 24/48/24 2/9/24 3/4/24
f 25/49/25 3/4/25 4/6/25
f 23/51/44 1/7/44 2/9/44
f 13/17/1 17/1/1 5/3/1
f 31/52/27 32/53/27 36/39/27
f 31/52/28 33/55/28 35/33/28
f 30/54/45 14/56/45 33/55/45
f 18/34/46 35/33/46 33/55/46
f 19/32/47 20/37/47 36/39/47
f 30/54/48 31/52/48 34/38/48
f 37/58/33 38/27/33 42/26/33
f 37/58/34 39/30/34 41/29/34
f 29/60/49 37/58/49 40/59/49
f 11/61/50 40/59/50 42/26/50
f 30/25/51 38/27/51 41/29/51
f 29/60/52 28/28/52 39/30/52
v 1.676411 2.072268 1.331296
v 1.653895 2.059209 1.343301
v 1.640967 2.035245 1.352254
v 1.641089 2.006796 1.355757
v 1.654230 1.981486 1.352870
v 1.678619 2.065377 1.304571
v 1.657721 2.047274 1.297013
v 1.645384 2.021463 1.298805
v 1.644915 1.994861 1.309469
v 1.656438 1.974596 1.326145
v 1.694090 2.004728 1.278462
v 1.687096 1.980368 1.291850
v 1.680791 1.966228 1.315973
v 1.725117 2.055532 1.310952
v 1.738380 2.001774 1.311567
v 1.725451 1.977810 1.320521
v 1.702936 1.964751 1.332526
v 1.722908 2.062423 1.337677
v 1.734432 2.042158 1.354353
v 1.733963 2.015555 1.365016
v 1.721626 1.989745 1.366809
v 1.700727 1.971642 1.359251
v 1.698555 2.070791 1.347848
v 1.692251 2.056651 1.371971
v 1.685256 2.032291 1.385360
v 1.679445 2.004238 1.384427
v 1.676374 1.980009 1.369423
v 1.702972 2.057009 1.294399
v 1.699902 2.032781 1.279395
v 1.738258 2.030223 1.308065
v 1.780521 2.046012 1.330301
v 1.780209 2.046985 1.334078
v 1.748194 2.057894 1.319493
v 1.761859 2.016404 1.327408
v 1.747101 2.061305 1.332722
v 1.760164 2.021694 1.347927
v 1.741423 2.037469 1.254878
v 1.750501 2.036864 1.261664
v 1.734868 2.047896 1.268956
v 1.733299 2.020229 1.267871
v 1.739028 2.047619 1.272066
v 1.737472 2.019951 1.270991
vt 0.274240 0.539347
vt 0.265397 0.539709
vt 0.266768 0.532487
vt 0.231414 0.551290
vt 0.214659 0.541092
vt 0.231357 0.542861
vt 0.231940 0.569242
vt 0.215985 0.562822
vt 0.231472 0.559719
vt 0.230890 0.533338
vt 0.220414 0.530957
vt 0.213134 0.552274
vt 0.289666 0.544440
vt 0.282983 0.540904
vt 0.290637 0.536818
vt 0.279682 0.529141
vt 0.275518 0.536619
vt 0.273707 0.532162
vt 0.280945 0.538772
vt 0.286431 0.530872
vt 0.290637 0.551375
vt 0.284312 0.543753
vt 0.278488 0.537315
vt 0.276318 0.541045
vt 0.804698 0.251197
vt 0.792375 0.255919
vt 0.792638 0.252041
vt 0.786357 0.239035
vt 0.792578 0.249274
vt 0.791489 0.249454
vt 0.271776 0.541127
vt 0.760733 0.199751
vt 0.757502 0.209505
vt 0.750621 0.206121
vt 0.278108 0.542645
vt 0.273009 0.544115
vt 0.772804 0.201934
vt 0.766718 0.213101
vt 0.766203 0.208706
vt 0.264007 0.548518
vt 0.277612 0.547903
vt 0.268747 0.555467
vt 0.275021 0.546378
vt 0.280714 0.548498
vt 0.281954 0.545638
vt 0.276612 0.557409
vt 0.240880 0.530957
vt 0.248168 0.561486
vt 0.249693 0.550306
vt 0.246843 0.539760
vt 0.242415 0.571620
vt 0.762287 0.211045
vt 0.762255 0.210544
vt 0.761023 0.221925
vt 0.757316 0.212491
vt 0.750922 0.216572
vt 0.772804 0.220841
vt 0.791613 0.252007
vt 0.791097 0.255536
vt 0.780068 0.250772
vt 0.780487 0.263708
vt 0.804698 0.264828
vt 0.798786 0.238814
vt 0.221949 0.571626
vt 0.283377 0.553479
vn -0.2313 -0.9465 0.2249
vn -0.9968 -0.0140 -0.0788
vn -0.5815 0.7748 -0.2478
vn -0.8844 -0.4645 0.0467
vn -0.8922 0.4139 -0.1805
vn -0.1629 0.5343 -0.8295
vn -0.4657 -0.7050 -0.5349
vn -0.3527 0.1040 -0.9299
vn 0.2313 0.9465 -0.2249
vn -0.4572 -0.3239 -0.8283
vn 0.2673 -0.8602 -0.4343
vn 0.8198 -0.5561 0.1367
vn 0.4873 -0.5239 -0.6986
vn 0.1685 0.9759 -0.1383
vn 0.5816 -0.7748 0.2478
vn 0.1767 0.6834 0.7084
vn 0.8922 -0.4139 0.1805
vn 0.3780 -0.8885 0.2603
vn 0.1629 -0.5343 0.8294
vn 0.4572 0.3239 0.8283
vn 0.2313 0.9465 -0.2250
vn 0.3527 -0.1040 0.9299
vn 0.4657 0.7050 0.5349
vn -0.5701 -0.3791 0.7289
vn -0.4873 0.5239 0.6986
vn -0.5918 0.0960 0.8003
vn -0.2673 0.8602 0.4343
vn 0.8186 -0.5361 0.2059
vn 0.3959 0.8966 -0.1984
vn 0.3839 0.2313 -0.8939
vn -0.0065 0.9682 -0.2502
vn 0.3801 0.1940 0.9044
vn 0.5969 -0.0955 -0.7966
vn 0.4187 -0.6641 -0.6194
vn 0.3772 0.8195 -0.4314
vn -0.2935 0.0925 -0.9515
vn 0.2410 -0.8837 -0.4012
vn 0.8749 0.4285 0.2258
vn -0.4558 0.6005 -0.6570
vn -0.5816 0.7748 -0.2478
vn 0.9998 0.0016 -0.0216
vn 0.2505 0.6474 0.7198
vn 0.1629 -0.5343 0.8295
vn 0.4572 0.3239 0.8282
vn 0.8187 -0.5361 0.2059
vn 0.3959 0.8966 -0.1985
vn 0.3106 0.2654 -0.9127
vn 0.4629 0.3228 0.8256
vn 0.5222 -0.2495 -0.8155
vn -0.4305 -0.4050 -0.8066
vn 0.2410 -0.8837 -0.4013
vn 0.7804 0.5563 0.2855
vn -0.4414 0.5122 -0.7368
s off
f 59/66/53 69/67/53 47/68/53
f 45/69/54 51/70/54 46/71/54
f 43/72/55 49/73/55 44/74/55
f 47/75/56 51/70/56 52/76/56
f 44/74/57 50/77/57 45/69/57
f 48/78/58 71/79/58 49/80/58
f 51/81/59 55/82/59 52/83/59
f 49/80/60 53/84/60 50/85/60
f 43/86/61 70/87/61 48/78/61
f 50/85/62 54/88/62 51/81/62
f 55/82/63 58/89/63 59/66/63
f 72/90/64 84/91/64 80/92/64
f 53/84/65 58/89/65 54/88/65
f 70/93/66 83/94/66 81/95/66
f 58/89/67 64/96/67 59/66/67
f 61/97/68 77/98/68 60/99/68
f 57/100/69 63/101/69 58/89/69
f 62/102/70 76/103/70 78/104/70
f 64/96/71 68/105/71 69/67/71
f 61/106/72 67/107/72 62/108/72
f 43/86/73 60/109/73 56/110/73
f 62/108/74 68/105/74 63/101/74
f 60/109/75 66/111/75 61/106/75
f 69/112/76 46/71/76 47/75/76
f 66/113/77 45/69/77 67/114/77
f 67/114/78 46/71/78 68/115/78
f 65/116/79 44/74/79 66/113/79
f 55/82/53 47/68/53 52/83/53
f 73/117/80 78/104/80 76/103/80
f 73/117/81 77/98/81 74/118/81
f 72/119/82 75/120/82 73/117/82
f 60/99/83 75/120/83 56/121/83
f 61/97/84 78/104/84 74/118/84
f 72/119/85 76/103/85 57/122/85
f 79/123/86 84/91/86 82/124/86
f 79/123/87 83/94/87 80/92/87
f 71/125/88 82/124/88 53/126/88
f 53/126/89 84/91/89 57/127/89
f 72/90/90 83/94/90 56/128/90
f 71/125/91 81/95/91 79/123/91
f 59/66/53 64/96/53 69/67/53
f 45/69/54 50/77/54 51/70/54
f 43/72/92 48/129/92 49/73/92
f 47/75/56 46/71/56 51/70/56
f 44/74/57 49/73/57 50/77/57
f 48/78/58 70/87/58 71/79/58
f 51/81/59 54/88/59 55/82/59
f 49/80/60 71/79/60 53/84/60
f 43/86/61 56/110/61 70/87/61
f 50/85/62 53/84/62 54/88/62
f 55/82/63 54/88/63 58/89/63
f 72/90/93 57/127/93 84/91/93
f 53/84/65 57/100/65 58/89/65
f 70/93/66 56/128/66 83/94/66
f 58/89/67 63/101/67 64/96/67
f 61/97/94 74/118/94 77/98/94
f 57/100/69 62/108/69 63/101/69
f 62/102/70 57/122/70 76/103/70
f 64/96/95 63/101/95 68/105/95
f 61/106/96 66/111/96 67/107/96
f 43/86/61 65/130/61 60/109/61
f 62/108/74 67/107/74 68/105/74
f 60/109/75 65/130/75 66/111/75
f 69/112/76 68/115/76 46/71/76
f 66/113/77 44/74/77 45/69/77
f 67/114/78 45/69/78 46/71/78
f 65/116/79 43/72/79 44/74/79
f 55/82/53 59/66/53 47/68/53
f 73/117/97 74/118/97 78/104/97
f 73/117/98 75/120/98 77/98/98
f 72/119/99 56/121/99 75/120/99
f 60/99/83 77/98/83 75/120/83
f 61/97/100 62/102/100 78/104/100
f 72/119/101 73/117/101 76/103/101
f 79/123/86 80/92/86 84/91/86
f 79/123/87 81/95/87 83/94/87
f 71/125/102 79/123/102 82/124/102
f 53/126/103 82/124/103 84/91/103
f 72/90/104 80/92/104 83/94/104
f 71/125/105 70/93/105 81/95/105
