# Blender v2.81 (sub 16) OBJ File: 'garbage.blend'
# www.blender.org
v -0.734088 2.089880 0.275959
v -0.734968 2.069550 0.255771
v -0.736120 2.041858 0.248463
v -0.737234 2.014223 0.255991
v -0.738013 1.994051 0.276340
v -0.710096 2.088952 0.289746
v -0.693413 2.067943 0.279651
v -0.688136 2.040003 0.276036
v -0.695679 2.012616 0.279871
v -0.714021 1.993123 0.290127
v -0.687997 2.040217 0.331410
v -0.695558 2.012802 0.327825
v -0.713951 1.993230 0.317813
v -0.733949 2.090094 0.331332
v -0.735842 2.042287 0.359209
v -0.736993 2.014595 0.351900
v -0.737874 1.994265 0.331713
v -0.757941 2.091022 0.317545
v -0.776283 2.071529 0.327801
v -0.783826 2.044142 0.331635
v -0.778549 2.016202 0.328021
v -0.761866 1.995193 0.317926
v -0.758011 2.090915 0.289859
v -0.776404 2.071343 0.279846
v -0.783965 2.043928 0.276262
v -0.778670 2.016016 0.280066
v -0.761936 1.995086 0.290239
v -0.710026 2.089059 0.317432
v -0.693292 2.068129 0.327605
v -0.734727 2.069922 0.351680
v -0.773246 2.091330 0.375929
v -0.776637 2.091461 0.373980
v -0.751230 2.096524 0.347798
v -0.760859 2.059080 0.369619
v -0.763106 2.096983 0.340973
v -0.779280 2.059793 0.359033
v -0.688050 2.087661 0.371629
v -0.697858 2.088085 0.377327
v -0.699020 2.093246 0.357546
v -0.695329 2.066795 0.365019
v -0.703515 2.093440 0.360157
v -0.699836 2.066990 0.367638
vt 0.274240 0.539347
vt 0.265397 0.539709
vt 0.266768 0.532487
vt 0.231414 0.551290
vt 0.214659 0.541092
vt 0.231357 0.542861
vt 0.231940 0.569242
vt 0.215985 0.562822
vt 0.231472 0.559719
vt 0.230890 0.533338
vt 0.220414 0.530957
vt 0.213134 0.552274
vt 0.289666 0.544440
vt 0.282983 0.540904
vt 0.290637 0.536818
vt 0.279682 0.529141
vt 0.275518 0.536619
vt 0.273707 0.532162
vt 0.280945 0.538772
vt 0.286431 0.530872
vt 0.290637 0.551375
vt 0.284312 0.543753
vt 0.278488 0.537315
vt 0.276318 0.541045
vt 0.804698 0.251197
vt 0.792375 0.255919
vt 0.792638 0.252041
vt 0.786357 0.239035
vt 0.792578 0.249274
vt 0.791489 0.249454
vt 0.271776 0.541127
vt 0.760733 0.199751
vt 0.757502 0.209505
vt 0.750621 0.206121
vt 0.278108 0.542645
vt 0.273009 0.544115
vt 0.772804 0.201934
vt 0.766718 0.213101
vt 0.766203 0.208706
vt 0.264007 0.548518
vt 0.277612 0.547903
vt 0.268747 0.555467
vt 0.275021 0.546378
vt 0.280714 0.548498
vt 0.281954 0.545638
vt 0.276612 0.557409
vt 0.240880 0.530957
vt 0.248168 0.561486
vt 0.249693 0.550306
vt 0.246843 0.539760
vt 0.242415 0.571620
vt 0.762287 0.211045
vt 0.762255 0.210544
vt 0.761023 0.221925
vt 0.757316 0.212491
vt 0.750922 0.216572
vt 0.772804 0.220841
vt 0.791613 0.252007
vt 0.791097 0.255536
vt 0.780068 0.250772
vt 0.780487 0.263708
vt 0.804698 0.264828
vt 0.798786 0.238814
vt 0.221949 0.571626
vt 0.283377 0.553479
vn -0.0409 -0.9992 0.0040
vn 0.4753 -0.2491 -0.8439
vn 0.4028 0.6361 -0.6581
vn 0.3492 -0.6721 -0.6529
vn 0.4938 0.2027 -0.8456
vn 0.7821 0.6232 -0.0044
vn 0.7285 -0.6850 0.0008
vn 0.9825 0.1860 -0.0032
vn 0.0409 0.9992 -0.0040
vn 0.9640 -0.2657 -0.0014
vn 0.3525 -0.6670 0.6564
vn -0.4140 -0.3476 0.8413
vn 0.4795 -0.2425 0.8434
vn -0.0149 0.9949 -0.0998
vn -0.4028 -0.6361 0.6581
vn -0.7684 0.5590 -0.3116
vn -0.4938 -0.2027 0.8456
vn -0.3235 -0.7975 0.5092
vn -0.7821 -0.6232 0.0044
vn -0.9640 0.2657 0.0014
vn -0.9825 -0.1860 0.0032
vn -0.7285 0.6850 -0.0008
vn -0.4061 -0.6412 -0.6512
vn -0.4795 0.2425 -0.8434
vn -0.4980 -0.2092 -0.8416
vn -0.3525 0.6670 -0.6564
vn -0.4781 -0.3419 0.8090
vn -0.0460 0.9882 0.1464
vn 0.6428 0.4853 0.5927
vn 0.1583 0.9647 -0.2106
vn -0.9926 0.1086 -0.0545
vn 0.4925 0.2102 0.8445
vn 0.4454 -0.4078 0.7970
vn 0.1798 0.9544 0.2384
vn 0.9792 0.1940 0.0602
vn 0.3347 -0.7022 0.6284
vn -0.5911 0.5840 0.5563
vn 0.7381 0.5797 -0.3451
vn 0.4753 -0.2491 -0.8438
vn -0.3840 0.2571 0.8868
vn -0.8059 0.5413 -0.2398
vn -0.4781 -0.3420 0.8090
vn -0.0460 0.9881 0.1465
vn 0.6870 0.5027 0.5247
vn 0.1583 0.9647 -0.2105
vn -0.9638 0.2665 0.0077
vn 0.5514 0.0489 0.8328
vn 0.9396 -0.3401 0.0390
vn 0.3347 -0.7022 0.6283
vn -0.6170 0.6703 0.4124
vn 0.8117 0.5146 -0.2764
s off
f 17/1/1 27/2/1 5/3/1
f 3/4/2 9/5/2 4/6/2
f 1/7/3 7/8/3 2/9/3
f 5/10/4 9/5/4 10/11/4
f 2/9/5 8/12/5 3/4/5
f 6/13/6 29/14/6 7/15/6
f 9/16/7 13/17/7 10/18/7
f 7/15/8 11/19/8 8/20/8
f 1/21/9 28/22/9 6/13/9
f 8/20/10 12/23/10 9/16/10
f 13/17/11 16/24/11 17/1/11
f 30/25/12 42/26/12 38/27/12
f 11/19/13 16/24/13 12/23/13
f 28/28/14 41/29/14 39/30/14
f 16/24/15 22/31/15 17/1/15
f 19/32/16 35/33/16 18/34/16
f 15/35/17 21/36/17 16/24/17
f 20/37/18 34/38/18 36/39/18
f 22/31/19 26/40/19 27/2/19
f 19/41/20 25/42/20 20/43/20
f 1/21/9 18/44/9 14/45/9
f 20/43/21 26/40/21 21/36/21
f 18/44/22 24/46/22 19/41/22
f 27/47/23 4/6/23 5/10/23
f 24/48/24 3/4/24 25/49/24
f 25/49/25 4/6/25 26/50/25
f 23/51/26 2/9/26 24/48/26
f 13/17/1 5/3/1 10/18/1
f 31/52/27 36/39/27 34/38/27
f 31/52/28 35/33/28 32/53/28
f 30/54/29 33/55/29 31/52/29
f 18/34/30 33/55/30 14/56/30
f 19/32/31 36/39/31 32/53/31
f 30/54/32 34/38/32 15/57/32
f 37/58/33 42/26/33 40/59/33
f 37/58/34 41/29/34 38/27/34
f 29/60/35 40/59/35 11/61/35
f 11/61/36 42/26/36 15/62/36
f 30/25/37 41/29/37 14/63/37
f 29/60/38 39/30/38 37/58/38
f 17/1/1 22/31/1 27/2/1
f 3/4/39 8/12/39 9/5/39
f 1/7/3 6/64/3 7/8/3
f 5/10/4 4/6/4 9/5/4
f 2/9/5 7/8/5 8/12/5
f 6/13/6 28/22/6 29/14/6
f 9/16/7 12/23/7 13/17/7
f 7/15/8 29/14/8 11/19/8
f 1/21/9 14/45/9 28/22/9
f 8/20/10 11/19/10 12/23/10
f 13/17/11 12/23/11 16/24/11
f 30/25/40 15/62/40 42/26/40
f 11/19/13 15/35/13 16/24/13
f 28/28/14 14/63/14 41/29/14
f 16/24/15 21/36/15 22/31/15
f 19/32/41 32/53/41 35/33/41
f 15/35/17 20/43/17 21/36/17
f 20/37/18 15/57/18 34/38/18
f 22/31/19 21/36/19 26/40/19
f 19/41/20 24/46/20 25/42/20
f 1/21/9 23/65/9 18/44/9
f 20/43/21 25/42/21 26/40/21
f 18/44/22 23/65/22 24/46/22
f 27/47/23 26/50/23 4/6/23
f 24/48/24 2/9/24 3/4/24
f 25/49/25 3/4/25 4/6/25
f 23/51/26 1/7/26 2/9/26
f 13/17/1 17/1/1 5/3/1
f 31/52/42 32/53/42 36/39/42
f 31/52/43 33/55/43 35/33/43
f 30/54/44 14/56/44 33/55/44
f 18/34/45 35/33/45 33/55/45
f 19/32/46 20/37/46 36/39/46
f 30/54/47 31/52/47 34/38/47
f 37/58/33 38/27/33 42/26/33
f 37/58/34 39/30/34 41/29/34
f 29/60/48 37/58/48 40/59/48
f 11/61/49 40/59/49 42/26/49
f 30/25/50 38/27/50 41/29/50
f 29/60/51 28/28/51 39/30/51
v -1.903082 2.039540 -1.623266
v -1.890157 2.024108 -1.643672
v -1.884099 1.998709 -1.655496
v -1.886532 1.970149 -1.655571
v -1.896804 1.946081 -1.643875
v -1.891404 2.034885 -1.598598
v -1.869929 2.016045 -1.600946
v -1.860742 1.989399 -1.606161
v -1.866305 1.962087 -1.612845
v -1.885126 1.941426 -1.619208
v -1.892430 1.977601 -1.562310
v -1.893747 1.951869 -1.574869
v -1.900970 1.935526 -1.597282
v -1.934771 2.027741 -1.579415
v -1.947476 1.975113 -1.567794
v -1.941418 1.949714 -1.579619
v -1.928493 1.934282 -1.600024
v -1.946449 2.032397 -1.604083
v -1.965270 2.011736 -1.610446
v -1.970833 1.984423 -1.617130
v -1.961646 1.957777 -1.622345
v -1.940171 1.938937 -1.624692
v -1.930605 2.038296 -1.626009
v -1.937828 2.021953 -1.648422
v -1.939144 1.996221 -1.660981
v -1.934203 1.967995 -1.660321
v -1.924327 1.944837 -1.646618
v -1.907248 2.028986 -1.576673
v -1.897372 2.005827 -1.562970
v -1.945042 2.003673 -1.567720
v -1.992425 2.020527 -1.566824
v -1.994076 2.021184 -1.570310
v -1.958914 2.030993 -1.575218
v -1.975477 1.990036 -1.570867
v -1.964694 2.033298 -1.587429
v -1.984444 1.993610 -1.589807
v -1.920352 2.015176 -1.521358
v -1.931635 2.014666 -1.522482
v -1.921749 2.024026 -1.537777
v -1.920364 1.996480 -1.534868
v -1.926920 2.023792 -1.538293
v -1.925550 1.996246 -1.535385
vt 0.274240 0.539347
vt 0.265397 0.539709
vt 0.266768 0.532487
vt 0.231414 0.551290
vt 0.214659 0.541092
vt 0.231357 0.542861
vt 0.231940 0.569242
vt 0.215985 0.562822
vt 0.231472 0.559719
vt 0.230890 0.533338
vt 0.220414 0.530957
vt 0.213134 0.552274
vt 0.289666 0.544440
vt 0.282983 0.540904
vt 0.290637 0.536818
vt 0.279682 0.529141
vt 0.275518 0.536619
vt 0.273707 0.532162
vt 0.280945 0.538772
vt 0.286431 0.530872
vt 0.290637 0.551375
vt 0.284312 0.543753
vt 0.278488 0.537315
vt 0.276318 0.541045
vt 0.804698 0.251197
vt 0.792375 0.255919
vt 0.792638 0.252041
vt 0.786357 0.239035
vt 0.792578 0.249274
vt 0.791489 0.249454
vt 0.271776 0.541127
vt 0.760733 0.199751
vt 0.757502 0.209505
vt 0.750621 0.206121
vt 0.278108 0.542645
vt 0.273009 0.544115
vt 0.772804 0.201934
vt 0.766718 0.213101
vt 0.766203 0.208706
vt 0.264007 0.548518
vt 0.277612 0.547903
vt 0.268747 0.555467
vt 0.275021 0.546378
vt 0.280714 0.548498
vt 0.281954 0.545638
vt 0.276612 0.557409
vt 0.240880 0.530957
vt 0.248168 0.561486
vt 0.249693 0.550306
vt 0.246843 0.539760
vt 0.242415 0.571620
vt 0.762287 0.211045
vt 0.762255 0.210544
vt 0.761023 0.221925
vt 0.757316 0.212491
vt 0.750922 0.216572
vt 0.772804 0.220841
vt 0.791613 0.252007
vt 0.791097 0.255536
vt 0.780068 0.250772
vt 0.780487 0.263708
vt 0.804698 0.264828
vt 0.798786 0.238814
vt 0.221949 0.571626
vt 0.283377 0.553479
vn 0.0655 -0.9744 -0.2149
vn 0.8957 -0.0752 -0.4382
vn 0.6407 0.7505 -0.1617
vn 0.7264 -0.5253 -0.4431
vn 0.8661 0.3654 -0.3411
vn 0.5751 0.5842 0.5728
vn 0.6608 -0.6917 0.2914
vn 0.7815 0.1510 0.6054
vn -0.0655 0.9744 0.2149
vn 0.8111 -0.2896 0.5082
vn -0.0228 -0.8043 0.5938
vn -0.7841 -0.5084 0.3559
vn -0.0698 -0.4347 0.8979
vn -0.0554 0.9928 0.1060
vn -0.6408 -0.7505 0.1617
vn -0.5021 0.6374 -0.5845
vn -0.8661 -0.3654 0.3411
vn -0.4745 -0.8783 0.0589
vn -0.5751 -0.5842 -0.5727
vn -0.8111 0.2896 -0.5082
vn -0.7815 -0.1510 -0.6054
vn -0.6608 0.6917 -0.2914
vn 0.1085 -0.4716 -0.8751
vn 0.0698 0.4347 -0.8979
vn 0.0994 -0.0059 -0.9950
vn 0.0228 0.8043 -0.5938
vn -0.8183 -0.4938 0.2942
vn -0.2213 0.9338 0.2810
vn 0.1332 0.3246 0.9364
vn 0.1520 0.9819 0.1133
vn -0.7864 0.1492 -0.5995
vn -0.1057 0.0064 0.9944
vn -0.0542 -0.5848 0.8093
vn -0.0872 0.8738 0.4784
vn 0.7416 0.1452 0.6550
vn -0.0176 -0.8320 0.5545
vn -0.8587 0.4680 0.2089
vn 0.7393 0.6170 0.2697
vn 0.6408 0.7505 -0.1617
vn 0.7265 -0.5253 -0.4431
vn 0.5751 0.5841 0.5727
vn -0.8470 0.0708 0.5269
vn -0.0554 0.9928 0.1059
vn -0.6407 -0.7505 0.1617
vn -0.5720 0.6057 -0.5531
vn -0.8111 0.2895 -0.5082
vn -0.2213 0.9339 0.2810
vn 0.2063 0.3550 0.9118
vn 0.1520 0.9819 0.1134
vn -0.8146 0.2890 -0.5030
vn -0.0348 -0.1504 0.9880
vn 0.7755 -0.3701 0.5114
vn -0.8058 0.5842 0.0969
vn 0.7662 0.5363 0.3540
s off
f 59/66/52 69/67/52 47/68/52
f 45/69/53 51/70/53 46/71/53
f 43/72/54 49/73/54 44/74/54
f 47/75/55 51/70/55 52/76/55
f 44/74/56 50/77/56 45/69/56
f 48/78/57 71/79/57 49/80/57
f 51/81/58 55/82/58 52/83/58
f 49/80/59 53/84/59 50/85/59
f 43/86/60 70/87/60 48/78/60
f 50/85/61 54/88/61 51/81/61
f 55/82/62 58/89/62 59/66/62
f 72/90/63 84/91/63 80/92/63
f 53/84/64 58/89/64 54/88/64
f 70/93/65 83/94/65 81/95/65
f 58/89/66 64/96/66 59/66/66
f 61/97/67 77/98/67 60/99/67
f 57/100/68 63/101/68 58/89/68
f 62/102/69 76/103/69 78/104/69
f 64/96/70 68/105/70 69/67/70
f 61/106/71 67/107/71 62/108/71
f 43/86/60 60/109/60 56/110/60
f 62/108/72 68/105/72 63/101/72
f 60/109/73 66/111/73 61/106/73
f 69/112/74 46/71/74 47/75/74
f 66/113/75 45/69/75 67/114/75
f 67/114/76 46/71/76 68/115/76
f 65/116/77 44/74/77 66/113/77
f 55/82/52 47/68/52 52/83/52
f 73/117/78 78/104/78 76/103/78
f 73/117/79 77/98/79 74/118/79
f 72/119/80 75/120/80 73/117/80
f 60/99/81 75/120/81 56/121/81
f 61/97/82 78/104/82 74/118/82
f 72/119/83 76/103/83 57/122/83
f 79/123/84 84/91/84 82/124/84
f 79/123/85 83/94/85 80/92/85
f 71/125/86 82/124/86 53/126/86
f 53/126/87 84/91/87 57/127/87
f 72/90/88 83/94/88 56/128/88
f 71/125/89 81/95/89 79/123/89
f 59/66/52 64/96/52 69/67/52
f 45/69/53 50/77/53 51/70/53
f 43/72/90 48/129/90 49/73/90
f 47/75/91 46/71/91 51/70/91
f 44/74/56 49/73/56 50/77/56
f 48/78/92 70/87/92 71/79/92
f 51/81/58 54/88/58 55/82/58
f 49/80/59 71/79/59 53/84/59
f 43/86/60 56/110/60 70/87/60
f 50/85/61 53/84/61 54/88/61
f 55/82/62 54/88/62 58/89/62
f 72/90/93 57/127/93 84/91/93
f 53/84/64 57/100/64 58/89/64
f 70/93/94 56/128/94 83/94/94
f 58/89/95 63/101/95 64/96/95
f 61/97/96 74/118/96 77/98/96
f 57/100/68 62/108/68 63/101/68
f 62/102/69 57/122/69 76/103/69
f 64/96/70 63/101/70 68/105/70
f 61/106/97 66/111/97 67/107/97
f 43/86/60 65/130/60 60/109/60
f 62/108/72 67/107/72 68/105/72
f 60/109/73 65/130/73 66/111/73
f 69/112/74 68/115/74 46/71/74
f 66/113/75 44/74/75 45/69/75
f 67/114/76 45/69/76 46/71/76
f 65/116/77 43/72/77 44/74/77
f 55/82/52 59/66/52 47/68/52
f 73/117/78 74/118/78 78/104/78
f 73/117/98 75/120/98 77/98/98
f 72/119/99 56/121/99 75/120/99
f 60/99/100 77/98/100 75/120/100
f 61/97/101 62/102/101 78/104/101
f 72/119/102 73/117/102 76/103/102
f 79/123/84 80/92/84 84/91/84
f 79/123/85 81/95/85 83/94/85
f 71/125/103 79/123/103 82/124/103
f 53/126/87 82/124/87 84/91/87
f 72/90/104 80/92/104 83/94/104
f 71/125/105 70/93/105 81/95/105
