# Blender v2.81 (sub 16) OBJ File: 'garbage.blend'
# www.blender.org
v 0.348548 1.826940 -0.539842
v 0.342320 1.816695 -0.513806
v 0.334300 1.794938 -0.496957
v 0.326639 1.767497 -0.493809
v 0.321388 1.741726 -0.505206
v 0.325894 1.827698 -0.555740
v 0.303081 1.818009 -0.541343
v 0.288991 1.796455 -0.528753
v 0.287400 1.768811 -0.521345
v 0.298734 1.742485 -0.521104
v 0.290327 1.775245 -0.579887
v 0.288557 1.750443 -0.565628
v 0.299402 1.731880 -0.546670
v 0.349885 1.805730 -0.590975
v 0.336973 1.752518 -0.599224
v 0.328953 1.730761 -0.582375
v 0.322725 1.720516 -0.556339
v 0.372539 1.804971 -0.575077
v 0.383873 1.778645 -0.574835
v 0.382282 1.751001 -0.567428
v 0.368192 1.729447 -0.554838
v 0.345379 1.719758 -0.540441
v 0.371871 1.815576 -0.549510
v 0.382716 1.797013 -0.530553
v 0.380946 1.772211 -0.516294
v 0.367035 1.747815 -0.510555
v 0.344711 1.730362 -0.514874
v 0.326562 1.817094 -0.581307
v 0.304238 1.799641 -0.585625
v 0.344634 1.779959 -0.602372
v 0.388597 1.778231 -0.626750
v 0.391798 1.778123 -0.624503
v 0.368725 1.800010 -0.605921
v 0.366322 1.755994 -0.611173
v 0.379939 1.799635 -0.598052
v 0.383716 1.755411 -0.598967
v 0.306684 1.801215 -0.633984
v 0.316246 1.796556 -0.637948
v 0.318509 1.808400 -0.621398
v 0.306680 1.783402 -0.619330
v 0.322891 1.806265 -0.623215
v 0.311075 1.781261 -0.621152
vt 0.274240 0.539347
vt 0.265397 0.539709
vt 0.266768 0.532487
vt 0.231414 0.551290
vt 0.214659 0.541092
vt 0.231357 0.542861
vt 0.231940 0.569242
vt 0.215985 0.562822
vt 0.231472 0.559719
vt 0.230890 0.533338
vt 0.220414 0.530957
vt 0.213134 0.552274
vt 0.289666 0.544440
vt 0.282983 0.540904
vt 0.290637 0.536818
vt 0.279682 0.529141
vt 0.275518 0.536619
vt 0.273707 0.532162
vt 0.280945 0.538772
vt 0.286431 0.530872
vt 0.290637 0.551375
vt 0.284312 0.543753
vt 0.278488 0.537315
vt 0.276318 0.541045
vt 0.804698 0.251197
vt 0.792375 0.255919
vt 0.792638 0.252041
vt 0.786357 0.239035
vt 0.792578 0.249274
vt 0.791489 0.249454
vt 0.271776 0.541127
vt 0.760733 0.199751
vt 0.757502 0.209505
vt 0.750621 0.206121
vt 0.278108 0.542645
vt 0.273009 0.544115
vt 0.772804 0.201934
vt 0.766718 0.213101
vt 0.766203 0.208706
vt 0.264007 0.548518
vt 0.277612 0.547903
vt 0.268747 0.555467
vt 0.275021 0.546378
vt 0.280714 0.548498
vt 0.281954 0.545638
vt 0.276612 0.557409
vt 0.240880 0.530957
vt 0.248168 0.561486
vt 0.249693 0.550306
vt 0.246843 0.539760
vt 0.242415 0.571620
vt 0.762287 0.211045
vt 0.762255 0.210544
vt 0.761023 0.221925
vt 0.757316 0.212491
vt 0.750922 0.216572
vt 0.772804 0.220841
vt 0.791613 0.252007
vt 0.791097 0.255536
vt 0.780068 0.250772
vt 0.780487 0.263708
vt 0.804698 0.264828
vt 0.798786 0.238814
vt 0.221949 0.571626
vt 0.283377 0.553479
vn -0.2832 -0.8885 0.3611
vn -0.5513 0.2454 0.7974
vn -0.1928 0.9279 0.3190
vn -0.5636 -0.2353 0.7918
vn -0.4233 0.6471 0.6341
vn -0.5394 0.7727 -0.3346
vn -0.9101 -0.3906 0.1382
vn -0.8699 0.4471 -0.2082
vn 0.2832 0.8885 -0.3611
vn -0.9980 0.0454 -0.0449
vn -0.5320 -0.7369 -0.4172
vn 0.3010 -0.7494 -0.5898
vn -0.5106 -0.4008 -0.7607
vn 0.3322 0.9058 -0.2631
vn 0.1928 -0.9279 -0.3190
vn 0.8994 0.3890 0.1993
vn 0.4233 -0.6471 -0.6341
vn 0.0619 -0.9888 -0.1355
vn 0.5394 -0.7727 0.3346
vn 0.9980 -0.0454 0.0449
vn 0.8699 -0.4471 0.2082
vn 0.9101 0.3906 -0.1382
vn 0.1612 -0.4264 0.8900
vn 0.5106 0.4008 0.7606
vn 0.3826 -0.0008 0.9239
vn 0.5320 0.7369 0.4172
vn 0.3627 -0.7504 -0.5526
vn 0.3656 0.7956 -0.4831
vn -0.4369 0.3807 -0.8150
vn 0.1558 0.9721 -0.1756
vn 0.9729 -0.1697 0.1570
vn -0.3770 -0.0010 -0.9262
vn -0.5328 -0.5375 -0.6536
vn 0.1434 0.7954 -0.5888
vn -0.8625 0.4286 -0.2690
vn -0.5272 -0.7620 -0.3761
vn 0.7617 0.1259 -0.6356
vn -0.5204 0.8539 0.0015
vn -0.5636 -0.2354 0.7918
vn 0.4686 -0.2287 -0.8533
vn -0.5106 -0.4008 -0.7606
vn 0.9310 0.3349 0.1450
vn 0.0619 -0.9888 -0.1354
vn -0.4748 0.4350 -0.7650
vn 0.9981 -0.0471 0.0388
vn -0.4850 -0.1208 -0.8661
vn 0.1434 0.7954 -0.5889
vn -0.9978 -0.0424 -0.0519
vn 0.8103 0.2498 -0.5301
vn -0.6092 0.7915 -0.0493
s off
f 17/1/1 27/2/1 5/3/1
f 3/4/2 9/5/2 4/6/2
f 1/7/3 7/8/3 2/9/3
f 5/10/4 9/5/4 10/11/4
f 2/9/5 8/12/5 3/4/5
f 6/13/6 29/14/6 7/15/6
f 9/16/7 13/17/7 10/18/7
f 7/15/8 11/19/8 8/20/8
f 1/21/9 28/22/9 6/13/9
f 8/20/10 12/23/10 9/16/10
f 13/17/11 16/24/11 17/1/11
f 30/25/12 42/26/12 38/27/12
f 11/19/13 16/24/13 12/23/13
f 28/28/14 41/29/14 39/30/14
f 16/24/15 22/31/15 17/1/15
f 19/32/16 35/33/16 18/34/16
f 15/35/17 21/36/17 16/24/17
f 20/37/18 34/38/18 36/39/18
f 22/31/19 26/40/19 27/2/19
f 19/41/20 25/42/20 20/43/20
f 1/21/9 18/44/9 14/45/9
f 20/43/21 26/40/21 21/36/21
f 18/44/22 24/46/22 19/41/22
f 27/47/23 4/6/23 5/10/23
f 24/48/24 3/4/24 25/49/24
f 25/49/25 4/6/25 26/50/25
f 23/51/26 2/9/26 24/48/26
f 13/17/1 5/3/1 10/18/1
f 31/52/27 36/39/27 34/38/27
f 31/52/28 35/33/28 32/53/28
f 30/54/29 33/55/29 31/52/29
f 18/34/30 33/55/30 14/56/30
f 19/32/31 36/39/31 32/53/31
f 30/54/32 34/38/32 15/57/32
f 37/58/33 42/26/33 40/59/33
f 37/58/34 41/29/34 38/27/34
f 29/60/35 40/59/35 11/61/35
f 11/61/36 42/26/36 15/62/36
f 30/25/37 41/29/37 14/63/37
f 29/60/38 39/30/38 37/58/38
f 17/1/1 22/31/1 27/2/1
f 3/4/2 8/12/2 9/5/2
f 1/7/3 6/64/3 7/8/3
f 5/10/39 4/6/39 9/5/39
f 2/9/5 7/8/5 8/12/5
f 6/13/6 28/22/6 29/14/6
f 9/16/7 12/23/7 13/17/7
f 7/15/8 29/14/8 11/19/8
f 1/21/9 14/45/9 28/22/9
f 8/20/10 11/19/10 12/23/10
f 13/17/11 12/23/11 16/24/11
f 30/25/40 15/62/40 42/26/40
f 11/19/41 15/35/41 16/24/41
f 28/28/14 14/63/14 41/29/14
f 16/24/15 21/36/15 22/31/15
f 19/32/42 32/53/42 35/33/42
f 15/35/17 20/43/17 21/36/17
f 20/37/43 15/57/43 34/38/43
f 22/31/19 21/36/19 26/40/19
f 19/41/20 24/46/20 25/42/20
f 1/21/9 23/65/9 18/44/9
f 20/43/21 25/42/21 26/40/21
f 18/44/22 23/65/22 24/46/22
f 27/47/23 26/50/23 4/6/23
f 24/48/24 2/9/24 3/4/24
f 25/49/25 3/4/25 4/6/25
f 23/51/26 1/7/26 2/9/26
f 13/17/1 17/1/1 5/3/1
f 31/52/27 32/53/27 36/39/27
f 31/52/28 33/55/28 35/33/28
f 30/54/44 14/56/44 33/55/44
f 18/34/30 35/33/30 33/55/30
f 19/32/45 20/37/45 36/39/45
f 30/54/46 31/52/46 34/38/46
f 37/58/33 38/27/33 42/26/33
f 37/58/47 39/30/47 41/29/47
f 29/60/48 37/58/48 40/59/48
f 11/61/36 40/59/36 42/26/36
f 30/25/49 38/27/49 41/29/49
f 29/60/50 28/28/50 39/30/50
v 2.694097 1.564198 0.083587
v 2.679199 1.548967 0.102761
v 2.670614 1.523641 0.113080
v 2.670642 1.495007 0.111781
v 2.679277 1.470737 0.099210
v 2.682966 1.561746 0.058356
v 2.659918 1.544719 0.059059
v 2.648350 1.518736 0.062617
v 2.651361 1.490759 0.068078
v 2.668145 1.468284 0.073978
v 2.680497 1.506390 0.019253
v 2.679201 1.480067 0.030524
v 2.684218 1.462111 0.052296
v 2.726244 1.551852 0.040223
v 2.734907 1.498948 0.026353
v 2.726322 1.473623 0.036672
v 2.711424 1.458391 0.055846
v 2.737376 1.554305 0.065455
v 2.754159 1.531830 0.071355
v 2.757171 1.503853 0.076816
v 2.745603 1.477870 0.080375
v 2.722555 1.460843 0.081078
v 2.721303 1.560478 0.087137
v 2.726320 1.542522 0.108909
v 2.725024 1.516199 0.120180
v 2.717763 1.488562 0.117929
v 2.706482 1.467016 0.102759
v 2.699039 1.555573 0.036674
v 2.687758 1.534027 0.021504
v 2.734879 1.527583 0.027653
v 2.783508 1.540351 0.029121
v 2.785081 1.540697 0.032687
v 2.750710 1.553228 0.036967
v 2.763932 1.511260 0.031069
v 2.756220 1.554441 0.049456
v 2.772479 1.513143 0.050442
v 2.712923 1.543362 -0.018827
v 2.724076 1.541837 -0.017371
v 2.714464 1.551263 -0.001943
v 2.710883 1.524108 -0.006290
v 2.719576 1.550564 -0.001276
v 2.716009 1.523407 -0.005621
vt 0.274240 0.539347
vt 0.265397 0.539709
vt 0.266768 0.532487
vt 0.231414 0.551290
vt 0.214659 0.541092
vt 0.231357 0.542861
vt 0.231940 0.569242
vt 0.215985 0.562822
vt 0.231472 0.559719
vt 0.230890 0.533338
vt 0.220414 0.530957
vt 0.213134 0.552274
vt 0.289666 0.544440
vt 0.282983 0.540904
vt 0.290637 0.536818
vt 0.279682 0.529141
vt 0.275518 0.536619
vt 0.273707 0.532162
vt 0.280945 0.538772
vt 0.286431 0.530872
vt 0.290637 0.551375
vt 0.284312 0.543753
vt 0.278488 0.537315
vt 0.276318 0.541045
vt 0.804698 0.251197
vt 0.792375 0.255919
vt 0.792638 0.252041
vt 0.786357 0.239035
vt 0.792578 0.249274
vt 0.791489 0.249454
vt 0.271776 0.541127
vt 0.760733 0.199751
vt 0.757502 0.209505
vt 0.750621 0.206121
vt 0.278108 0.542645
vt 0.273009 0.544115
vt 0.772804 0.201934
vt 0.766718 0.213101
vt 0.766203 0.208706
vt 0.264007 0.548518
vt 0.277612 0.547903
vt 0.268747 0.555467
vt 0.275021 0.546378
vt 0.280714 0.548498
vt 0.281954 0.545638
vt 0.276612 0.557409
vt 0.240880 0.530957
vt 0.248168 0.561486
vt 0.249693 0.550306
vt 0.246843 0.539760
vt 0.242415 0.571620
vt 0.762287 0.211045
vt 0.762255 0.210544
vt 0.761023 0.221925
vt 0.757316 0.212491
vt 0.750922 0.216572
vt 0.772804 0.220841
vt 0.791613 0.252007
vt 0.791097 0.255536
vt 0.780068 0.250772
vt 0.780487 0.263708
vt 0.804698 0.264828
vt 0.798786 0.238814
vt 0.221949 0.571626
vt 0.283377 0.553479
vn -0.1545 -0.9745 0.1629
vn -0.9140 -0.0193 0.4051
vn -0.5811 0.7939 0.1792
vn -0.7834 -0.4820 0.3925
vn -0.8442 0.4212 0.3315
vn -0.5032 0.6579 -0.5603
vn -0.7055 -0.6179 -0.3470
vn -0.7438 0.2460 -0.6215
vn 0.1545 0.9745 -0.1629
vn -0.8137 -0.1945 -0.5478
vn -0.0233 -0.7739 -0.6329
vn 0.7511 -0.5559 -0.3562
vn 0.0654 -0.3955 -0.9161
vn 0.1422 0.9884 -0.0535
vn 0.5810 -0.7939 -0.1792
vn 0.5323 0.5634 0.6318
vn 0.8442 -0.4212 -0.3315
vn 0.4011 -0.9118 -0.0884
vn 0.5032 -0.6579 0.5603
vn 0.8137 0.1945 0.5478
vn 0.7438 -0.2460 0.6215
vn 0.7055 0.6180 0.3470
vn -0.1791 -0.5020 0.8461
vn -0.0654 0.3955 0.9161
vn -0.1353 -0.0451 0.9898
vn 0.0233 0.7739 0.6329
vn 0.7841 -0.5473 -0.2927
vn 0.3087 0.9239 -0.2260
vn -0.0717 0.3793 -0.9225
vn -0.0650 0.9956 -0.0681
vn 0.7740 0.0526 0.6310
vn 0.1416 0.0450 -0.9889
vn 0.0341 -0.5478 -0.8359
vn 0.1772 0.8851 -0.4303
vn -0.7027 0.2392 -0.6700
vn -0.0322 -0.8029 -0.5952
vn 0.9018 0.4024 -0.1574
vn -0.6749 0.6901 -0.2613
vn -0.9141 -0.0193 0.4051
vn -0.5810 0.7939 0.1792
vn -0.7055 -0.6180 -0.3470
vn 0.8684 0.0233 -0.4954
vn 0.5811 -0.7939 -0.1792
vn 0.6004 0.5274 0.6011
vn 0.4011 -0.9118 -0.0883
vn 0.7055 0.6179 0.3470
vn 0.7841 -0.5472 -0.2927
vn -0.1429 0.4146 -0.8987
vn 0.8173 0.1939 0.5427
vn 0.0576 -0.1052 -0.9928
vn 0.0341 -0.5479 -0.8359
vn 0.1772 0.8851 -0.4304
vn -0.7849 -0.2776 -0.5540
vn 0.8549 0.5172 -0.0414
vn -0.7054 0.6161 -0.3505
s off
f 59/66/51 69/67/51 47/68/51
f 45/69/52 51/70/52 46/71/52
f 43/72/53 49/73/53 44/74/53
f 47/75/54 51/70/54 52/76/54
f 44/74/55 50/77/55 45/69/55
f 48/78/56 71/79/56 49/80/56
f 51/81/57 55/82/57 52/83/57
f 49/80/58 53/84/58 50/85/58
f 43/86/59 70/87/59 48/78/59
f 50/85/60 54/88/60 51/81/60
f 55/82/61 58/89/61 59/66/61
f 72/90/62 84/91/62 80/92/62
f 53/84/63 58/89/63 54/88/63
f 70/93/64 83/94/64 81/95/64
f 58/89/65 64/96/65 59/66/65
f 61/97/66 77/98/66 60/99/66
f 57/100/67 63/101/67 58/89/67
f 62/102/68 76/103/68 78/104/68
f 64/96/69 68/105/69 69/67/69
f 61/106/70 67/107/70 62/108/70
f 43/86/59 60/109/59 56/110/59
f 62/108/71 68/105/71 63/101/71
f 60/109/72 66/111/72 61/106/72
f 69/112/73 46/71/73 47/75/73
f 66/113/74 45/69/74 67/114/74
f 67/114/75 46/71/75 68/115/75
f 65/116/76 44/74/76 66/113/76
f 55/82/51 47/68/51 52/83/51
f 73/117/77 78/104/77 76/103/77
f 73/117/78 77/98/78 74/118/78
f 72/119/79 75/120/79 73/117/79
f 60/99/80 75/120/80 56/121/80
f 61/97/81 78/104/81 74/118/81
f 72/119/82 76/103/82 57/122/82
f 79/123/83 84/91/83 82/124/83
f 79/123/84 83/94/84 80/92/84
f 71/125/85 82/124/85 53/126/85
f 53/126/86 84/91/86 57/127/86
f 72/90/87 83/94/87 56/128/87
f 71/125/88 81/95/88 79/123/88
f 59/66/51 64/96/51 69/67/51
f 45/69/89 50/77/89 51/70/89
f 43/72/90 48/129/90 49/73/90
f 47/75/54 46/71/54 51/70/54
f 44/74/55 49/73/55 50/77/55
f 48/78/56 70/87/56 71/79/56
f 51/81/91 54/88/91 55/82/91
f 49/80/58 71/79/58 53/84/58
f 43/86/59 56/110/59 70/87/59
f 50/85/60 53/84/60 54/88/60
f 55/82/61 54/88/61 58/89/61
f 72/90/92 57/127/92 84/91/92
f 53/84/63 57/100/63 58/89/63
f 70/93/64 56/128/64 83/94/64
f 58/89/93 63/101/93 64/96/93
f 61/97/94 74/118/94 77/98/94
f 57/100/67 62/108/67 63/101/67
f 62/102/95 57/122/95 76/103/95
f 64/96/69 63/101/69 68/105/69
f 61/106/70 66/111/70 67/107/70
f 43/86/59 65/130/59 60/109/59
f 62/108/71 67/107/71 68/105/71
f 60/109/96 65/130/96 66/111/96
f 69/112/73 68/115/73 46/71/73
f 66/113/74 44/74/74 45/69/74
f 67/114/75 45/69/75 46/71/75
f 65/116/76 43/72/76 44/74/76
f 55/82/51 59/66/51 47/68/51
f 73/117/97 74/118/97 78/104/97
f 73/117/78 75/120/78 77/98/78
f 72/119/98 56/121/98 75/120/98
f 60/99/80 77/98/80 75/120/80
f 61/97/99 62/102/99 78/104/99
f 72/119/100 73/117/100 76/103/100
f 79/123/101 80/92/101 84/91/101
f 79/123/102 81/95/102 83/94/102
f 71/125/103 79/123/103 82/124/103
f 53/126/86 82/124/86 84/91/86
f 72/90/104 80/92/104 83/94/104
f 71/125/105 70/93/105 81/95/105
