# Blender v2.81 (sub 16) OBJ File: 'garbage.blend'
# www.blender.org
v -0.643835 2.296573 -0.496459
v -0.643389 2.282083 -0.521186
v -0.645510 2.257340 -0.535499
v -0.649631 2.228974 -0.535564
v -0.654646 2.204586 -0.521363
v -0.622096 2.289759 -0.480726
v -0.605735 2.270280 -0.493936
v -0.602031 2.243711 -0.504034
v -0.611977 2.217171 -0.508314
v -0.632906 2.197772 -0.505630
v -0.609492 2.230191 -0.450857
v -0.618438 2.205462 -0.462262
v -0.636637 2.191012 -0.479042
v -0.651296 2.283053 -0.443282
v -0.660431 2.230299 -0.429145
v -0.662553 2.205556 -0.443459
v -0.662106 2.191066 -0.468186
v -0.673035 2.289868 -0.459014
v -0.693965 2.270468 -0.456330
v -0.703910 2.243928 -0.460611
v -0.700207 2.217359 -0.470709
v -0.683846 2.197880 -0.483919
v -0.669305 2.296628 -0.485603
v -0.687504 2.282177 -0.502383
v -0.696450 2.257448 -0.513788
v -0.693746 2.229068 -0.516761
v -0.680116 2.204640 -0.510507
v -0.625826 2.282999 -0.454137
v -0.612196 2.258571 -0.447883
v -0.656311 2.258665 -0.429080
v -0.696160 2.277305 -0.404697
v -0.699232 2.278268 -0.406920
v -0.670170 2.286974 -0.427806
v -0.685371 2.246511 -0.417681
v -0.680931 2.290347 -0.435594
v -0.702063 2.251743 -0.429760
v -0.611668 2.265935 -0.400003
v -0.622110 2.265957 -0.395552
v -0.620168 2.275948 -0.413320
v -0.619448 2.248234 -0.412581
v -0.624953 2.275958 -0.411281
v -0.624247 2.248245 -0.410535
vt 0.274240 0.539347
vt 0.265397 0.539709
vt 0.266768 0.532487
vt 0.231414 0.551290
vt 0.214659 0.541092
vt 0.231357 0.542861
vt 0.231940 0.569242
vt 0.215985 0.562822
vt 0.231472 0.559719
vt 0.230890 0.533338
vt 0.220414 0.530957
vt 0.213134 0.552274
vt 0.289666 0.544440
vt 0.282983 0.540904
vt 0.290637 0.536818
vt 0.279682 0.529141
vt 0.275518 0.536619
vt 0.273707 0.532162
vt 0.280945 0.538772
vt 0.286431 0.530872
vt 0.290637 0.551375
vt 0.284312 0.543753
vt 0.278488 0.537315
vt 0.276318 0.541045
vt 0.804698 0.251197
vt 0.792375 0.255919
vt 0.792638 0.252041
vt 0.786357 0.239035
vt 0.792578 0.249274
vt 0.791489 0.249454
vt 0.271776 0.541127
vt 0.760733 0.199751
vt 0.757502 0.209505
vt 0.750621 0.206121
vt 0.278108 0.542645
vt 0.273009 0.544115
vt 0.772804 0.201934
vt 0.766718 0.213101
vt 0.766203 0.208706
vt 0.264007 0.548518
vt 0.277612 0.547903
vt 0.268747 0.555467
vt 0.275021 0.546378
vt 0.280714 0.548498
vt 0.281954 0.545638
vt 0.276612 0.557409
vt 0.240880 0.530957
vt 0.248168 0.561486
vt 0.249693 0.550306
vt 0.246843 0.539760
vt 0.242415 0.571620
vt 0.762287 0.211045
vt 0.762255 0.210544
vt 0.761023 0.221925
vt 0.757316 0.212491
vt 0.750922 0.216572
vt 0.772804 0.220841
vt 0.791613 0.252007
vt 0.791097 0.255536
vt 0.780068 0.250772
vt 0.780487 0.263708
vt 0.804698 0.264828
vt 0.798786 0.238814
vt 0.221949 0.571626
vt 0.283377 0.553479
vn -0.1127 -0.9591 -0.2597
vn 0.5677 -0.0806 -0.8193
vn 0.5341 0.7336 -0.4202
vn 0.3865 -0.5222 -0.7602
vn 0.6186 0.3530 -0.7019
vn 0.8180 0.5196 0.2469
vn 0.6704 -0.7361 -0.0931
vn 0.9844 0.0773 0.1578
vn 0.1127 0.9591 0.2597
vn 0.9335 -0.3563 0.0404
vn 0.2101 -0.8419 0.4971
vn -0.5496 -0.4999 0.6694
vn 0.3404 -0.4925 0.8010
vn 0.0704 0.9846 0.1603
vn -0.5341 -0.7336 0.4202
vn -0.6761 0.6959 -0.2422
vn -0.6186 -0.3530 0.7019
vn -0.4468 -0.8605 0.2447
vn -0.8180 -0.5196 -0.2469
vn -0.9335 0.3563 -0.0404
vn -0.9844 -0.0773 -0.1578
vn -0.6704 0.7361 0.0931
vn -0.3577 -0.4139 -0.8371
vn -0.3403 0.4925 -0.8010
vn -0.3913 0.0589 -0.9184
vn -0.2101 0.8419 -0.4971
vn -0.6081 -0.4797 0.6325
vn 0.0054 0.9203 0.3911
vn 0.5884 0.2535 0.7678
vn 0.2546 0.9648 0.0661
vn -0.9653 0.2218 -0.1379
vn 0.3855 -0.0581 0.9209
vn 0.3012 -0.6368 0.7098
vn 0.2134 0.8415 0.4964
vn 0.9730 0.0696 0.2202
vn 0.1938 -0.8670 0.4591
vn -0.6185 0.4865 0.6170
vn 0.8183 0.5667 -0.0962
vn -0.1127 -0.9591 -0.2596
vn 0.5341 0.7336 -0.4203
vn -0.4828 0.0681 0.8731
vn 0.3403 -0.4925 0.8010
vn 0.0704 0.9845 0.1603
vn -0.5341 -0.7336 0.4203
vn -0.7243 0.6650 -0.1822
vn 0.0054 0.9203 0.3912
vn 0.6426 0.2826 0.7122
vn -0.9340 0.3555 -0.0341
vn 0.4337 -0.2168 0.8746
vn 0.3012 -0.6367 0.7098
vn 0.2134 0.8414 0.4965
vn 0.8984 -0.4354 0.0571
vn -0.6181 0.6080 0.4983
vn 0.8768 0.4793 -0.0387
s off
f 17/1/1 27/2/1 5/3/1
f 3/4/2 9/5/2 4/6/2
f 1/7/3 7/8/3 2/9/3
f 5/10/4 9/5/4 10/11/4
f 2/9/5 8/12/5 3/4/5
f 6/13/6 29/14/6 7/15/6
f 9/16/7 13/17/7 10/18/7
f 7/15/8 11/19/8 8/20/8
f 1/21/9 28/22/9 6/13/9
f 8/20/10 12/23/10 9/16/10
f 13/17/11 16/24/11 17/1/11
f 30/25/12 42/26/12 38/27/12
f 11/19/13 16/24/13 12/23/13
f 28/28/14 41/29/14 39/30/14
f 16/24/15 22/31/15 17/1/15
f 19/32/16 35/33/16 18/34/16
f 15/35/17 21/36/17 16/24/17
f 20/37/18 34/38/18 36/39/18
f 22/31/19 26/40/19 27/2/19
f 19/41/20 25/42/20 20/43/20
f 1/21/9 18/44/9 14/45/9
f 20/43/21 26/40/21 21/36/21
f 18/44/22 24/46/22 19/41/22
f 27/47/23 4/6/23 5/10/23
f 24/48/24 3/4/24 25/49/24
f 25/49/25 4/6/25 26/50/25
f 23/51/26 2/9/26 24/48/26
f 13/17/1 5/3/1 10/18/1
f 31/52/27 36/39/27 34/38/27
f 31/52/28 35/33/28 32/53/28
f 30/54/29 33/55/29 31/52/29
f 18/34/30 33/55/30 14/56/30
f 19/32/31 36/39/31 32/53/31
f 30/54/32 34/38/32 15/57/32
f 37/58/33 42/26/33 40/59/33
f 37/58/34 41/29/34 38/27/34
f 29/60/35 40/59/35 11/61/35
f 11/61/36 42/26/36 15/62/36
f 30/25/37 41/29/37 14/63/37
f 29/60/38 39/30/38 37/58/38
f 17/1/39 22/31/39 27/2/39
f 3/4/2 8/12/2 9/5/2
f 1/7/40 6/64/40 7/8/40
f 5/10/4 4/6/4 9/5/4
f 2/9/5 7/8/5 8/12/5
f 6/13/6 28/22/6 29/14/6
f 9/16/7 12/23/7 13/17/7
f 7/15/8 29/14/8 11/19/8
f 1/21/9 14/45/9 28/22/9
f 8/20/10 11/19/10 12/23/10
f 13/17/11 12/23/11 16/24/11
f 30/25/41 15/62/41 42/26/41
f 11/19/42 15/35/42 16/24/42
f 28/28/43 14/63/43 41/29/43
f 16/24/44 21/36/44 22/31/44
f 19/32/45 32/53/45 35/33/45
f 15/35/17 20/43/17 21/36/17
f 20/37/18 15/57/18 34/38/18
f 22/31/19 21/36/19 26/40/19
f 19/41/20 24/46/20 25/42/20
f 1/21/9 23/65/9 18/44/9
f 20/43/21 25/42/21 26/40/21
f 18/44/22 23/65/22 24/46/22
f 27/47/23 26/50/23 4/6/23
f 24/48/24 2/9/24 3/4/24
f 25/49/25 3/4/25 4/6/25
f 23/51/26 1/7/26 2/9/26
f 13/17/1 17/1/1 5/3/1
f 31/52/27 32/53/27 36/39/27
f 31/52/46 33/55/46 35/33/46
f 30/54/47 14/56/47 33/55/47
f 18/34/30 35/33/30 33/55/30
f 19/32/48 20/37/48 36/39/48
f 30/54/49 31/52/49 34/38/49
f 37/58/50 38/27/50 42/26/50
f 37/58/51 39/30/51 41/29/51
f 29/60/52 37/58/52 40/59/52
f 11/61/36 40/59/36 42/26/36
f 30/25/53 38/27/53 41/29/53
f 29/60/54 28/28/54 39/30/54
v -0.160300 1.942291 -3.326703
v -0.151494 1.915031 -3.325702
v -0.157466 1.887078 -3.323567
v -0.176616 1.865921 -3.320869
v -0.203811 1.857229 -3.318332
v -0.170830 1.950078 -3.302309
v -0.169732 1.928519 -3.283451
v -0.178526 1.902652 -3.274780
v -0.194854 1.879409 -3.278618
v -0.214341 1.865016 -3.293938
v -0.227704 1.928015 -3.272680
v -0.237444 1.901374 -3.276800
v -0.238930 1.877698 -3.292888
v -0.209479 1.967654 -3.324603
v -0.255824 1.937805 -3.319368
v -0.261796 1.909852 -3.317232
v -0.252990 1.882592 -3.316232
v -0.198949 1.959867 -3.348997
v -0.218436 1.945474 -3.364316
v -0.234764 1.922231 -3.368155
v -0.243558 1.896364 -3.359483
v -0.242460 1.874805 -3.340626
v -0.174359 1.947185 -3.350047
v -0.175846 1.923509 -3.366135
v -0.185585 1.896868 -3.370255
v -0.200967 1.874399 -3.361302
v -0.217871 1.862124 -3.341676
v -0.195419 1.962759 -3.301259
v -0.212322 1.950484 -3.281633
v -0.236674 1.958962 -3.322066
v -0.252153 1.985171 -3.362108
v -0.250665 1.984071 -3.365556
v -0.222815 1.979139 -3.341961
v -0.259834 1.954960 -3.345936
v -0.217603 1.975285 -3.354036
v -0.251749 1.948981 -3.364665
v -0.242308 1.988293 -3.277352
v -0.248072 1.990300 -3.286922
v -0.228264 1.985767 -3.289445
v -0.246403 1.966103 -3.282137
v -0.230905 1.986687 -3.293831
v -0.249052 1.967026 -3.286535
vt 0.274240 0.539347
vt 0.265397 0.539709
vt 0.266768 0.532487
vt 0.231414 0.551290
vt 0.214659 0.541092
vt 0.231357 0.542861
vt 0.231940 0.569242
vt 0.215985 0.562822
vt 0.231472 0.559719
vt 0.230890 0.533338
vt 0.220414 0.530957
vt 0.213134 0.552274
vt 0.289666 0.544440
vt 0.282983 0.540904
vt 0.290637 0.536818
vt 0.279682 0.529141
vt 0.275518 0.536619
vt 0.273707 0.532162
vt 0.280945 0.538772
vt 0.286431 0.530872
vt 0.290637 0.551375
vt 0.284312 0.543753
vt 0.278488 0.537315
vt 0.276318 0.541045
vt 0.804698 0.251197
vt 0.792375 0.255919
vt 0.792638 0.252041
vt 0.786357 0.239035
vt 0.792578 0.249274
vt 0.791489 0.249454
vt 0.271776 0.541127
vt 0.760733 0.199751
vt 0.757502 0.209505
vt 0.750621 0.206121
vt 0.278108 0.542645
vt 0.273009 0.544115
vt 0.772804 0.201934
vt 0.766718 0.213101
vt 0.766203 0.208706
vt 0.264007 0.548518
vt 0.277612 0.547903
vt 0.268747 0.555467
vt 0.275021 0.546378
vt 0.280714 0.548498
vt 0.281954 0.545638
vt 0.276612 0.557409
vt 0.240880 0.530957
vt 0.248168 0.561486
vt 0.249693 0.550306
vt 0.246843 0.539760
vt 0.242415 0.571620
vt 0.762287 0.211045
vt 0.762255 0.210544
vt 0.761023 0.221925
vt 0.757316 0.212491
vt 0.750922 0.216572
vt 0.772804 0.220841
vt 0.791613 0.252007
vt 0.791097 0.255536
vt 0.780068 0.250772
vt 0.780487 0.263708
vt 0.804698 0.264828
vt 0.798786 0.238814
vt 0.221949 0.571626
vt 0.283377 0.553479
vn -0.4537 -0.8869 0.0873
vn 0.6825 -0.5575 0.4726
vn 0.9062 0.3035 0.2943
vn 0.3122 -0.8577 0.4086
vn 0.8876 -0.1566 0.4331
vn 0.3526 0.6262 0.6954
vn -0.2414 -0.5350 0.8096
vn 0.1743 0.2592 0.9500
vn 0.4537 0.8869 -0.0873
vn -0.0308 -0.1417 0.9894
vn -0.8506 -0.2580 0.4582
vn -0.9414 0.0340 -0.3357
vn -0.8159 0.2153 0.5366
vn 0.5320 0.8342 -0.1455
vn -0.9062 -0.3035 -0.2943
vn 0.4581 0.2783 -0.8442
vn -0.8876 0.1566 -0.4331
vn -0.8387 -0.5064 -0.2004
vn -0.3526 -0.6262 -0.6954
vn 0.0308 0.1417 -0.9894
vn -0.1743 -0.2592 -0.9500
vn 0.2413 0.5350 -0.8096
vn 0.2566 -0.9033 -0.3439
vn 0.8159 -0.2153 -0.5366
vn 0.6108 -0.6163 -0.4971
vn 0.8506 0.2580 -0.4582
vn -0.9158 0.0181 -0.4011
vn 0.3070 0.9370 -0.1665
vn -0.2529 0.7618 0.5964
vn 0.6327 0.7740 0.0260
vn 0.0078 -0.0256 -0.9996
vn -0.6135 0.6180 0.4916
vn -0.8516 0.0445 0.5223
vn 0.2304 0.9709 0.0648
vn 0.1211 0.2948 0.9479
vn -0.8430 -0.3036 0.4441
vn -0.2874 0.7121 -0.6406
vn 0.6325 0.4286 0.6451
vn -0.0309 -0.1417 0.9894
vn -0.8506 -0.2579 0.4582
vn -0.7090 0.5931 -0.3816
vn 0.3829 0.2916 -0.8766
vn -0.8876 0.1565 -0.4331
vn 0.0309 0.1417 -0.9894
vn 0.2414 0.5350 -0.8096
vn -0.9159 0.0181 -0.4010
vn 0.3070 0.9370 -0.1666
vn -0.1806 0.7507 0.6355
vn 0.0257 0.1453 -0.9891
vn -0.6699 0.4755 0.5702
vn -0.8516 0.0445 0.5222
vn -0.1023 -0.1916 0.9761
vn -0.1230 0.7205 -0.6824
vn 0.5489 0.4094 0.7288
s off
f 59/66/55 69/67/55 47/68/55
f 45/69/56 51/70/56 46/71/56
f 43/72/57 49/73/57 44/74/57
f 47/75/58 51/70/58 52/76/58
f 44/74/59 50/77/59 45/69/59
f 48/78/60 71/79/60 49/80/60
f 51/81/61 55/82/61 52/83/61
f 49/80/62 53/84/62 50/85/62
f 43/86/63 70/87/63 48/78/63
f 50/85/64 54/88/64 51/81/64
f 55/82/65 58/89/65 59/66/65
f 72/90/66 84/91/66 80/92/66
f 53/84/67 58/89/67 54/88/67
f 70/93/68 83/94/68 81/95/68
f 58/89/69 64/96/69 59/66/69
f 61/97/70 77/98/70 60/99/70
f 57/100/71 63/101/71 58/89/71
f 62/102/72 76/103/72 78/104/72
f 64/96/73 68/105/73 69/67/73
f 61/106/74 67/107/74 62/108/74
f 43/86/63 60/109/63 56/110/63
f 62/108/75 68/105/75 63/101/75
f 60/109/76 66/111/76 61/106/76
f 69/112/77 46/71/77 47/75/77
f 66/113/78 45/69/78 67/114/78
f 67/114/79 46/71/79 68/115/79
f 65/116/80 44/74/80 66/113/80
f 55/82/55 47/68/55 52/83/55
f 73/117/81 78/104/81 76/103/81
f 73/117/82 77/98/82 74/118/82
f 72/119/83 75/120/83 73/117/83
f 60/99/84 75/120/84 56/121/84
f 61/97/85 78/104/85 74/118/85
f 72/119/86 76/103/86 57/122/86
f 79/123/87 84/91/87 82/124/87
f 79/123/88 83/94/88 80/92/88
f 71/125/89 82/124/89 53/126/89
f 53/126/90 84/91/90 57/127/90
f 72/90/91 83/94/91 56/128/91
f 71/125/92 81/95/92 79/123/92
f 59/66/55 64/96/55 69/67/55
f 45/69/56 50/77/56 51/70/56
f 43/72/57 48/129/57 49/73/57
f 47/75/58 46/71/58 51/70/58
f 44/74/59 49/73/59 50/77/59
f 48/78/60 70/87/60 71/79/60
f 51/81/61 54/88/61 55/82/61
f 49/80/62 71/79/62 53/84/62
f 43/86/63 56/110/63 70/87/63
f 50/85/93 53/84/93 54/88/93
f 55/82/94 54/88/94 58/89/94
f 72/90/95 57/127/95 84/91/95
f 53/84/67 57/100/67 58/89/67
f 70/93/68 56/128/68 83/94/68
f 58/89/69 63/101/69 64/96/69
f 61/97/96 74/118/96 77/98/96
f 57/100/97 62/108/97 63/101/97
f 62/102/72 57/122/72 76/103/72
f 64/96/73 63/101/73 68/105/73
f 61/106/98 66/111/98 67/107/98
f 43/86/63 65/130/63 60/109/63
f 62/108/75 67/107/75 68/105/75
f 60/109/99 65/130/99 66/111/99
f 69/112/77 68/115/77 46/71/77
f 66/113/78 44/74/78 45/69/78
f 67/114/79 45/69/79 46/71/79
f 65/116/80 43/72/80 44/74/80
f 55/82/55 59/66/55 47/68/55
f 73/117/100 74/118/100 78/104/100
f 73/117/101 75/120/101 77/98/101
f 72/119/102 56/121/102 75/120/102
f 60/99/84 77/98/84 75/120/84
f 61/97/103 62/102/103 78/104/103
f 72/119/104 73/117/104 76/103/104
f 79/123/105 80/92/105 84/91/105
f 79/123/88 81/95/88 83/94/88
f 71/125/106 79/123/106 82/124/106
f 53/126/90 82/124/90 84/91/90
f 72/90/107 80/92/107 83/94/107
f 71/125/108 70/93/108 81/95/108
