# Blender v2.81 (sub 16) OBJ File: 'garbage.blend'
# www.blender.org
v 0.296372 1.964394 -0.080977
v 0.288743 1.949803 -0.057515
v 0.281340 1.925133 -0.044938
v 0.276148 1.896993 -0.046616
v 0.274558 1.872925 -0.062101
v 0.275361 1.965694 -0.098960
v 0.252350 1.952055 -0.088662
v 0.239317 1.927733 -0.080903
v 0.239755 1.899245 -0.077764
v 0.253546 1.874225 -0.080084
v 0.247567 1.914785 -0.134106
v 0.246900 1.888032 -0.123839
v 0.257672 1.867751 -0.106685
v 0.304623 1.951446 -0.134180
v 0.297841 1.899238 -0.151343
v 0.290438 1.874568 -0.138766
v 0.282808 1.859977 -0.115304
v 0.325634 1.950146 -0.116197
v 0.339426 1.925126 -0.118517
v 0.339864 1.896638 -0.115377
v 0.326831 1.872316 -0.107619
v 0.303820 1.858677 -0.097321
v 0.321509 1.956620 -0.089596
v 0.332281 1.936339 -0.072442
v 0.331614 1.909585 -0.062174
v 0.319686 1.883529 -0.061544
v 0.299695 1.865151 -0.070719
v 0.279486 1.959220 -0.125562
v 0.259495 1.940842 -0.134737
v 0.303033 1.927377 -0.149665
v 0.349063 1.933056 -0.169131
v 0.352032 1.932873 -0.166590
v 0.325265 1.949666 -0.147664
v 0.327705 1.906926 -0.159419
v 0.335666 1.949022 -0.138762
v 0.343838 1.905927 -0.145612
v 0.266344 1.949997 -0.181814
v 0.276649 1.946810 -0.185348
v 0.276160 1.956127 -0.167120
v 0.266702 1.930212 -0.169962
v 0.280883 1.954667 -0.168739
v 0.271438 1.928748 -0.171586
vt 0.274240 0.539347
vt 0.265397 0.539709
vt 0.266768 0.532487
vt 0.231414 0.551290
vt 0.214659 0.541092
vt 0.231357 0.542861
vt 0.231940 0.569242
vt 0.215985 0.562822
vt 0.231472 0.559719
vt 0.230890 0.533338
vt 0.220414 0.530957
vt 0.213134 0.552274
vt 0.289666 0.544440
vt 0.282983 0.540904
vt 0.290637 0.536818
vt 0.279682 0.529141
vt 0.275518 0.536619
vt 0.273707 0.532162
vt 0.280945 0.538772
vt 0.286431 0.530872
vt 0.290637 0.551375
vt 0.284312 0.543753
vt 0.278488 0.537315
vt 0.276318 0.541045
vt 0.804698 0.251197
vt 0.792375 0.255919
vt 0.792638 0.252041
vt 0.786357 0.239035
vt 0.792578 0.249274
vt 0.791489 0.249454
vt 0.271776 0.541127
vt 0.760733 0.199751
vt 0.757502 0.209505
vt 0.750621 0.206121
vt 0.278108 0.542645
vt 0.273009 0.544115
vt 0.772804 0.201934
vt 0.766718 0.213101
vt 0.766203 0.208706
vt 0.264007 0.548518
vt 0.277612 0.547903
vt 0.268747 0.555467
vt 0.275021 0.546378
vt 0.280714 0.548498
vt 0.281954 0.545638
vt 0.276612 0.557409
vt 0.240880 0.530957
vt 0.248168 0.561486
vt 0.249693 0.550306
vt 0.246843 0.539760
vt 0.242415 0.571620
vt 0.762287 0.211045
vt 0.762255 0.210544
vt 0.761023 0.221925
vt 0.757316 0.212491
vt 0.750922 0.216572
vt 0.772804 0.220841
vt 0.791613 0.252007
vt 0.791097 0.255536
vt 0.780068 0.250772
vt 0.780487 0.263708
vt 0.804698 0.264828
vt 0.798786 0.238814
vt 0.221949 0.571626
vt 0.283377 0.553479
vn -0.2275 -0.9537 0.1968
vn -0.6458 0.0738 0.7599
vn -0.3124 0.8489 0.4263
vn -0.6102 -0.3998 0.6840
vn -0.5430 0.5050 0.6709
vn -0.5785 0.7674 -0.2765
vn -0.8764 -0.4813 -0.0188
vn -0.8860 0.3999 -0.2347
vn 0.2275 0.9537 -0.1968
vn -0.9888 -0.0313 -0.1457
vn -0.4151 -0.7059 -0.5739
vn 0.4277 -0.6226 -0.6553
vn -0.3944 -0.3207 -0.8612
vn 0.2650 0.9598 -0.0926
vn 0.3124 -0.8489 -0.4263
vn 0.8339 0.4272 0.3494
vn 0.5430 -0.5050 -0.6709
vn 0.1713 -0.9479 -0.2687
vn 0.5785 -0.7674 0.2765
vn 0.9888 0.0313 0.1457
vn 0.8860 -0.3999 0.2347
vn 0.8763 0.4813 0.0188
vn 0.1173 -0.5428 0.8316
vn 0.3944 0.3207 0.8612
vn 0.2916 -0.1105 0.9501
vn 0.4151 0.7059 0.5740
vn 0.4853 -0.6242 -0.6122
vn 0.3298 0.8877 -0.3212
vn -0.3931 0.4634 -0.7942
vn 0.0755 0.9970 -0.0161
vn 0.9656 -0.1103 0.2354
vn -0.2856 0.1095 -0.9521
vn -0.4131 -0.4735 -0.7779
vn 0.1197 0.8853 -0.4493
vn -0.8711 0.3916 -0.2964
vn -0.4118 -0.7365 -0.5366
vn 0.8024 0.2845 -0.5247
vn -0.5996 0.7974 0.0679
vn -0.2274 -0.9537 0.1968
vn -0.8763 -0.4813 -0.0188
vn 0.5675 -0.0557 -0.8215
vn 0.2651 0.9598 -0.0926
vn 0.8757 0.3849 0.2917
vn 0.8764 0.4813 0.0188
vn 0.4151 0.7059 0.5739
vn -0.4407 0.5061 -0.7414
vn 0.9897 0.0306 0.1395
vn -0.3866 -0.0267 -0.9219
vn -0.9793 -0.1167 -0.1652
vn 0.8284 0.3944 -0.3978
vn -0.6766 0.7363 -0.0006
s off
f 17/1/1 27/2/1 5/3/1
f 3/4/2 9/5/2 4/6/2
f 1/7/3 7/8/3 2/9/3
f 5/10/4 9/5/4 10/11/4
f 2/9/5 8/12/5 3/4/5
f 6/13/6 29/14/6 7/15/6
f 9/16/7 13/17/7 10/18/7
f 7/15/8 11/19/8 8/20/8
f 1/21/9 28/22/9 6/13/9
f 8/20/10 12/23/10 9/16/10
f 13/17/11 16/24/11 17/1/11
f 30/25/12 42/26/12 38/27/12
f 11/19/13 16/24/13 12/23/13
f 28/28/14 41/29/14 39/30/14
f 16/24/15 22/31/15 17/1/15
f 19/32/16 35/33/16 18/34/16
f 15/35/17 21/36/17 16/24/17
f 20/37/18 34/38/18 36/39/18
f 22/31/19 26/40/19 27/2/19
f 19/41/20 25/42/20 20/43/20
f 1/21/9 18/44/9 14/45/9
f 20/43/21 26/40/21 21/36/21
f 18/44/22 24/46/22 19/41/22
f 27/47/23 4/6/23 5/10/23
f 24/48/24 3/4/24 25/49/24
f 25/49/25 4/6/25 26/50/25
f 23/51/26 2/9/26 24/48/26
f 13/17/1 5/3/1 10/18/1
f 31/52/27 36/39/27 34/38/27
f 31/52/28 35/33/28 32/53/28
f 30/54/29 33/55/29 31/52/29
f 18/34/30 33/55/30 14/56/30
f 19/32/31 36/39/31 32/53/31
f 30/54/32 34/38/32 15/57/32
f 37/58/33 42/26/33 40/59/33
f 37/58/34 41/29/34 38/27/34
f 29/60/35 40/59/35 11/61/35
f 11/61/36 42/26/36 15/62/36
f 30/25/37 41/29/37 14/63/37
f 29/60/38 39/30/38 37/58/38
f 17/1/39 22/31/39 27/2/39
f 3/4/2 8/12/2 9/5/2
f 1/7/3 6/64/3 7/8/3
f 5/10/4 4/6/4 9/5/4
f 2/9/5 7/8/5 8/12/5
f 6/13/6 28/22/6 29/14/6
f 9/16/40 12/23/40 13/17/40
f 7/15/8 29/14/8 11/19/8
f 1/21/9 14/45/9 28/22/9
f 8/20/10 11/19/10 12/23/10
f 13/17/11 12/23/11 16/24/11
f 30/25/41 15/62/41 42/26/41
f 11/19/13 15/35/13 16/24/13
f 28/28/42 14/63/42 41/29/42
f 16/24/15 21/36/15 22/31/15
f 19/32/43 32/53/43 35/33/43
f 15/35/17 20/43/17 21/36/17
f 20/37/18 15/57/18 34/38/18
f 22/31/19 21/36/19 26/40/19
f 19/41/20 24/46/20 25/42/20
f 1/21/9 23/65/9 18/44/9
f 20/43/21 25/42/21 26/40/21
f 18/44/44 23/65/44 24/46/44
f 27/47/23 26/50/23 4/6/23
f 24/48/24 2/9/24 3/4/24
f 25/49/25 3/4/25 4/6/25
f 23/51/45 1/7/45 2/9/45
f 13/17/1 17/1/1 5/3/1
f 31/52/27 32/53/27 36/39/27
f 31/52/28 33/55/28 35/33/28
f 30/54/46 14/56/46 33/55/46
f 18/34/30 35/33/30 33/55/30
f 19/32/47 20/37/47 36/39/47
f 30/54/48 31/52/48 34/38/48
f 37/58/33 38/27/33 42/26/33
f 37/58/34 39/30/34 41/29/34
f 29/60/49 37/58/49 40/59/49
f 11/61/36 40/59/36 42/26/36
f 30/25/50 38/27/50 41/29/50
f 29/60/51 28/28/51 39/30/51
v 1.809594 2.015499 1.219254
v 1.787701 2.002430 1.232350
v 1.775100 1.978430 1.241664
v 1.775166 1.949927 1.244700
v 1.787883 1.924561 1.240646
v 1.810172 2.009030 1.192340
v 1.788702 1.991226 1.185733
v 1.776256 1.965491 1.187835
v 1.776167 1.938722 1.198084
v 1.788460 1.918092 1.213731
v 1.823533 1.948692 1.164407
v 1.817111 1.924174 1.177794
v 1.812099 1.909693 1.202017
v 1.856872 1.998700 1.195825
v 1.869655 1.944832 1.194807
v 1.857053 1.920831 1.204121
v 1.835160 1.907762 1.217217
v 1.856294 2.005169 1.222739
v 1.868587 1.984539 1.238387
v 1.868499 1.957770 1.248635
v 1.856052 1.932036 1.250738
v 1.834582 1.914231 1.244131
v 1.832655 2.013569 1.234454
v 1.827644 1.999087 1.258677
v 1.821221 1.974569 1.272064
v 1.815109 1.946584 1.271028
v 1.810943 1.922631 1.255846
v 1.833811 2.000631 1.180625
v 1.829646 1.976677 1.165443
v 1.869588 1.973334 1.191770
v 1.913224 1.988408 1.211738
v 1.913142 1.989323 1.215541
v 1.880430 2.000732 1.203035
v 1.894154 1.959006 1.209473
v 1.880144 2.003934 1.216357
v 1.893710 1.963973 1.230138
v 1.869702 1.981426 1.138611
v 1.879157 1.980635 1.144843
v 1.864078 1.991674 1.153213
v 1.862195 1.964043 1.151783
v 1.868411 1.991312 1.156069
v 1.866541 1.963679 1.154647
vt 0.274240 0.539347
vt 0.265397 0.539709
vt 0.266768 0.532487
vt 0.231414 0.551290
vt 0.214659 0.541092
vt 0.231357 0.542861
vt 0.231940 0.569242
vt 0.215985 0.562822
vt 0.231472 0.559719
vt 0.230890 0.533338
vt 0.220414 0.530957
vt 0.213134 0.552274
vt 0.289666 0.544440
vt 0.282983 0.540904
vt 0.290637 0.536818
vt 0.279682 0.529141
vt 0.275518 0.536619
vt 0.273707 0.532162
vt 0.280945 0.538772
vt 0.286431 0.530872
vt 0.290637 0.551375
vt 0.284312 0.543753
vt 0.278488 0.537315
vt 0.276318 0.541045
vt 0.804698 0.251197
vt 0.792375 0.255919
vt 0.792638 0.252041
vt 0.786357 0.239035
vt 0.792578 0.249274
vt 0.791489 0.249454
vt 0.271776 0.541127
vt 0.760733 0.199751
vt 0.757502 0.209505
vt 0.750621 0.206121
vt 0.278108 0.542645
vt 0.273009 0.544115
vt 0.772804 0.201934
vt 0.766718 0.213101
vt 0.766203 0.208706
vt 0.264007 0.548518
vt 0.277612 0.547903
vt 0.268747 0.555467
vt 0.275021 0.546378
vt 0.280714 0.548498
vt 0.281954 0.545638
vt 0.276612 0.557409
vt 0.240880 0.530957
vt 0.248168 0.561486
vt 0.249693 0.550306
vt 0.246843 0.539760
vt 0.242415 0.571620
vt 0.762287 0.211045
vt 0.762255 0.210544
vt 0.761023 0.221925
vt 0.757316 0.212491
vt 0.750922 0.216572
vt 0.772804 0.220841
vt 0.791613 0.252007
vt 0.791097 0.255536
vt 0.780068 0.250772
vt 0.780487 0.263708
vt 0.804698 0.264828
vt 0.798786 0.238814
vt 0.221949 0.571626
vt 0.283377 0.553479
vn -0.2264 -0.9482 0.2230
vn -0.9998 -0.0045 -0.0204
vn -0.5879 0.7835 -0.2010
vn -0.8843 -0.4579 0.0911
vn -0.8974 0.4242 -0.1212
vn -0.2062 0.5492 -0.8099
vn -0.5026 -0.6923 -0.5178
vn -0.4055 0.1221 -0.9059
vn 0.2264 0.9482 -0.2230
vn -0.5079 -0.3065 -0.8051
vn 0.2335 -0.8551 -0.4629
vn 0.8212 -0.5650 0.0795
vn 0.4407 -0.5164 -0.7343
vn 0.1691 0.9767 -0.1325
vn 0.5879 -0.7835 0.2010
vn 0.2241 0.6702 0.7076
vn 0.8974 -0.4242 0.1212
vn 0.3844 -0.8957 0.2235
vn 0.2062 -0.5492 0.8099
vn 0.5079 0.3065 0.8051
vn 0.4055 -0.1221 0.9059
vn 0.5026 0.6923 0.5178
vn -0.5299 -0.3863 0.7549
vn -0.4407 0.5164 0.7342
vn -0.5431 0.0877 0.8351
vn -0.2335 0.8551 0.4629
vn 0.8243 -0.5461 0.1490
vn 0.3918 0.8964 -0.2071
vn 0.3330 0.2428 -0.9111
vn -0.0122 0.9722 -0.2339
vn 0.4341 0.1760 0.8835
vn 0.5484 -0.0873 -0.8316
vn 0.3756 -0.6573 -0.6534
vn 0.3587 0.8234 -0.4397
vn -0.3478 0.1105 -0.9310
vn 0.2090 -0.8789 -0.4287
vn 0.8905 0.4175 0.1809
vn -0.4879 0.6149 -0.6195
vn -0.5026 -0.6923 -0.5179
vn 0.9968 -0.0062 -0.0802
vn 0.4407 -0.5164 -0.7342
vn 0.1690 0.9767 -0.1324
vn 0.2981 0.6334 0.7141
vn 0.8974 -0.4241 0.1212
vn 0.5026 0.6922 0.5179
vn 0.3918 0.8964 -0.2070
vn 0.2591 0.2778 -0.9250
vn 0.5133 0.3054 0.8020
vn 0.4713 -0.2404 -0.8486
vn 0.3588 0.8234 -0.4397
vn -0.4807 -0.3882 -0.7863
vn 0.8008 0.5451 0.2481
vn -0.4790 0.5278 -0.7014
s off
f 59/66/52 69/67/52 47/68/52
f 45/69/53 51/70/53 46/71/53
f 43/72/54 49/73/54 44/74/54
f 47/75/55 51/70/55 52/76/55
f 44/74/56 50/77/56 45/69/56
f 48/78/57 71/79/57 49/80/57
f 51/81/58 55/82/58 52/83/58
f 49/80/59 53/84/59 50/85/59
f 43/86/60 70/87/60 48/78/60
f 50/85/61 54/88/61 51/81/61
f 55/82/62 58/89/62 59/66/62
f 72/90/63 84/91/63 80/92/63
f 53/84/64 58/89/64 54/88/64
f 70/93/65 83/94/65 81/95/65
f 58/89/66 64/96/66 59/66/66
f 61/97/67 77/98/67 60/99/67
f 57/100/68 63/101/68 58/89/68
f 62/102/69 76/103/69 78/104/69
f 64/96/70 68/105/70 69/67/70
f 61/106/71 67/107/71 62/108/71
f 43/86/60 60/109/60 56/110/60
f 62/108/72 68/105/72 63/101/72
f 60/109/73 66/111/73 61/106/73
f 69/112/74 46/71/74 47/75/74
f 66/113/75 45/69/75 67/114/75
f 67/114/76 46/71/76 68/115/76
f 65/116/77 44/74/77 66/113/77
f 55/82/52 47/68/52 52/83/52
f 73/117/78 78/104/78 76/103/78
f 73/117/79 77/98/79 74/118/79
f 72/119/80 75/120/80 73/117/80
f 60/99/81 75/120/81 56/121/81
f 61/97/82 78/104/82 74/118/82
f 72/119/83 76/103/83 57/122/83
f 79/123/84 84/91/84 82/124/84
f 79/123/85 83/94/85 80/92/85
f 71/125/86 82/124/86 53/126/86
f 53/126/87 84/91/87 57/127/87
f 72/90/88 83/94/88 56/128/88
f 71/125/89 81/95/89 79/123/89
f 59/66/52 64/96/52 69/67/52
f 45/69/53 50/77/53 51/70/53
f 43/72/54 48/129/54 49/73/54
f 47/75/55 46/71/55 51/70/55
f 44/74/56 49/73/56 50/77/56
f 48/78/57 70/87/57 71/79/57
f 51/81/90 54/88/90 55/82/90
f 49/80/59 71/79/59 53/84/59
f 43/86/60 56/110/60 70/87/60
f 50/85/61 53/84/61 54/88/61
f 55/82/62 54/88/62 58/89/62
f 72/90/91 57/127/91 84/91/91
f 53/84/92 57/100/92 58/89/92
f 70/93/93 56/128/93 83/94/93
f 58/89/66 63/101/66 64/96/66
f 61/97/94 74/118/94 77/98/94
f 57/100/95 62/108/95 63/101/95
f 62/102/69 57/122/69 76/103/69
f 64/96/70 63/101/70 68/105/70
f 61/106/71 66/111/71 67/107/71
f 43/86/60 65/130/60 60/109/60
f 62/108/72 67/107/72 68/105/72
f 60/109/96 65/130/96 66/111/96
f 69/112/74 68/115/74 46/71/74
f 66/113/75 44/74/75 45/69/75
f 67/114/76 45/69/76 46/71/76
f 65/116/77 43/72/77 44/74/77
f 55/82/52 59/66/52 47/68/52
f 73/117/78 74/118/78 78/104/78
f 73/117/97 75/120/97 77/98/97
f 72/119/98 56/121/98 75/120/98
f 60/99/81 77/98/81 75/120/81
f 61/97/99 62/102/99 78/104/99
f 72/119/100 73/117/100 76/103/100
f 79/123/84 80/92/84 84/91/84
f 79/123/101 81/95/101 83/94/101
f 71/125/102 79/123/102 82/124/102
f 53/126/87 82/124/87 84/91/87
f 72/90/103 80/92/103 83/94/103
f 71/125/104 70/93/104 81/95/104
