# Blender v2.81 (sub 16) OBJ File: 'garbage.blend'
# www.blender.org
v -0.703926 2.101186 0.047640
v -0.701214 2.083209 0.025480
v -0.701364 2.056533 0.014994
v -0.704335 2.028305 0.018992
v -0.709332 2.006090 0.036402
v -0.683057 2.097885 0.065533
v -0.665068 2.077492 0.056471
v -0.659626 2.049931 0.050780
v -0.668189 2.022588 0.049983
v -0.688463 2.002789 0.054295
v -0.670155 2.044141 0.104834
v -0.677308 2.017574 0.096795
v -0.693727 1.999894 0.081322
v -0.714455 2.095396 0.101695
v -0.722422 2.044954 0.123103
v -0.722572 2.018277 0.112617
v -0.719861 2.000300 0.090457
v -0.735324 2.098697 0.083802
v -0.755597 2.078898 0.088114
v -0.764160 2.051555 0.087317
v -0.758718 2.023995 0.081626
v -0.740730 2.003601 0.072564
v -0.730059 2.101592 0.056775
v -0.746479 2.083912 0.041302
v -0.753631 2.057345 0.033263
v -0.749600 2.029009 0.034813
v -0.735465 2.006496 0.045537
v -0.688321 2.094990 0.092560
v -0.674186 2.072478 0.103284
v -0.719451 2.073181 0.119105
v -0.761584 2.093245 0.137873
v -0.764533 2.093711 0.135344
v -0.734483 2.100638 0.115203
v -0.748713 2.061433 0.130412
v -0.744813 2.102272 0.106347
v -0.764737 2.063968 0.116674
v -0.677223 2.086920 0.149428
v -0.687937 2.087086 0.153172
v -0.685187 2.094398 0.134245
v -0.683414 2.067175 0.139235
v -0.690097 2.094474 0.135961
v -0.688338 2.067252 0.140956
vt 0.274240 0.539347
vt 0.265397 0.539709
vt 0.266768 0.532487
vt 0.231414 0.551290
vt 0.214659 0.541092
vt 0.231357 0.542861
vt 0.231940 0.569242
vt 0.215985 0.562822
vt 0.231472 0.559719
vt 0.230890 0.533338
vt 0.220414 0.530957
vt 0.213134 0.552274
vt 0.289666 0.544440
vt 0.282983 0.540904
vt 0.290637 0.536818
vt 0.279682 0.529141
vt 0.275518 0.536619
vt 0.273707 0.532162
vt 0.280945 0.538772
vt 0.286431 0.530872
vt 0.290637 0.551375
vt 0.284312 0.543753
vt 0.278488 0.537315
vt 0.276318 0.541045
vt 0.804698 0.251197
vt 0.792375 0.255919
vt 0.792638 0.252041
vt 0.786357 0.239035
vt 0.792578 0.249274
vt 0.791489 0.249454
vt 0.271776 0.541127
vt 0.760733 0.199751
vt 0.757502 0.209505
vt 0.750621 0.206121
vt 0.278108 0.542645
vt 0.273009 0.544115
vt 0.772804 0.201934
vt 0.766718 0.213101
vt 0.766203 0.208706
vt 0.264007 0.548518
vt 0.277612 0.547903
vt 0.268747 0.555467
vt 0.275021 0.546378
vt 0.280714 0.548498
vt 0.281954 0.545638
vt 0.276612 0.557409
vt 0.240880 0.530957
vt 0.248168 0.561486
vt 0.249693 0.550306
vt 0.246843 0.539760
vt 0.242415 0.571620
vt 0.762287 0.211045
vt 0.762255 0.210544
vt 0.761023 0.221925
vt 0.757316 0.212491
vt 0.750922 0.216572
vt 0.772804 0.220841
vt 0.791613 0.252007
vt 0.791097 0.255536
vt 0.780068 0.250772
vt 0.780487 0.263708
vt 0.804698 0.264828
vt 0.798786 0.238814
vt 0.221949 0.571626
vt 0.283377 0.553479
vn -0.0564 -0.9915 -0.1172
vn 0.6250 -0.1736 -0.7610
vn 0.5318 0.6883 -0.4933
vn 0.4580 -0.6099 -0.6468
vn 0.6505 0.2747 -0.7081
vn 0.7778 0.5907 0.2148
vn 0.7040 -0.7075 0.0613
vn 0.9675 0.1488 0.2044
vn 0.0564 0.9915 0.1172
vn 0.9420 -0.2994 0.1514
vn 0.2091 -0.7468 0.6314
vn -0.5737 -0.4211 0.7025
vn 0.3042 -0.3500 0.8860
vn 0.0200 0.9997 0.0127
vn -0.5318 -0.6883 0.4933
vn -0.6852 0.6175 -0.3863
vn -0.6505 -0.2747 0.7081
vn -0.4278 -0.8355 0.3448
vn -0.7778 -0.5907 -0.2148
vn -0.9420 0.2994 -0.1514
vn -0.9675 -0.1488 -0.2044
vn -0.7040 0.7075 -0.0613
vn -0.2829 -0.5514 -0.7848
vn -0.3042 0.3500 -0.8860
vn -0.3297 -0.0983 -0.9390
vn -0.2091 0.7468 -0.6314
vn -0.6303 -0.4097 0.6595
vn -0.0580 0.9675 0.2462
vn 0.5240 0.3942 0.7550
vn 0.2108 0.9753 -0.0659
vn -0.9617 0.1504 -0.2291
vn 0.3238 0.0992 0.9409
vn 0.2772 -0.5079 0.8156
vn 0.1452 0.9157 0.3748
vn 0.9521 0.1500 0.2665
vn 0.1965 -0.7780 0.5967
vn -0.6781 0.5417 0.4966
vn 0.7997 0.5860 -0.1308
vn 0.6251 -0.1736 -0.7610
vn 0.4580 -0.6099 -0.6467
vn 0.7040 -0.7075 0.0614
vn -0.5436 0.1735 0.8212
vn -0.7361 0.5935 -0.3254
vn -0.7040 0.7075 -0.0614
vn -0.6303 -0.4096 0.6595
vn 0.5807 0.4173 0.6991
vn -0.9430 0.2995 -0.1452
vn 0.3813 -0.0620 0.9224
vn 0.1452 0.9156 0.3749
vn 0.9091 -0.3768 0.1778
vn -0.6745 0.6440 0.3611
vn 0.8576 0.5112 -0.0572
s off
f 17/1/1 27/2/1 5/3/1
f 3/4/2 9/5/2 4/6/2
f 1/7/3 7/8/3 2/9/3
f 5/10/4 9/5/4 10/11/4
f 2/9/5 8/12/5 3/4/5
f 6/13/6 29/14/6 7/15/6
f 9/16/7 13/17/7 10/18/7
f 7/15/8 11/19/8 8/20/8
f 1/21/9 28/22/9 6/13/9
f 8/20/10 12/23/10 9/16/10
f 13/17/11 16/24/11 17/1/11
f 30/25/12 42/26/12 38/27/12
f 11/19/13 16/24/13 12/23/13
f 28/28/14 41/29/14 39/30/14
f 16/24/15 22/31/15 17/1/15
f 19/32/16 35/33/16 18/34/16
f 15/35/17 21/36/17 16/24/17
f 20/37/18 34/38/18 36/39/18
f 22/31/19 26/40/19 27/2/19
f 19/41/20 25/42/20 20/43/20
f 1/21/9 18/44/9 14/45/9
f 20/43/21 26/40/21 21/36/21
f 18/44/22 24/46/22 19/41/22
f 27/47/23 4/6/23 5/10/23
f 24/48/24 3/4/24 25/49/24
f 25/49/25 4/6/25 26/50/25
f 23/51/26 2/9/26 24/48/26
f 13/17/1 5/3/1 10/18/1
f 31/52/27 36/39/27 34/38/27
f 31/52/28 35/33/28 32/53/28
f 30/54/29 33/55/29 31/52/29
f 18/34/30 33/55/30 14/56/30
f 19/32/31 36/39/31 32/53/31
f 30/54/32 34/38/32 15/57/32
f 37/58/33 42/26/33 40/59/33
f 37/58/34 41/29/34 38/27/34
f 29/60/35 40/59/35 11/61/35
f 11/61/36 42/26/36 15/62/36
f 30/25/37 41/29/37 14/63/37
f 29/60/38 39/30/38 37/58/38
f 17/1/1 22/31/1 27/2/1
f 3/4/39 8/12/39 9/5/39
f 1/7/3 6/64/3 7/8/3
f 5/10/40 4/6/40 9/5/40
f 2/9/5 7/8/5 8/12/5
f 6/13/6 28/22/6 29/14/6
f 9/16/41 12/23/41 13/17/41
f 7/15/8 29/14/8 11/19/8
f 1/21/9 14/45/9 28/22/9
f 8/20/10 11/19/10 12/23/10
f 13/17/11 12/23/11 16/24/11
f 30/25/42 15/62/42 42/26/42
f 11/19/13 15/35/13 16/24/13
f 28/28/14 14/63/14 41/29/14
f 16/24/15 21/36/15 22/31/15
f 19/32/43 32/53/43 35/33/43
f 15/35/17 20/43/17 21/36/17
f 20/37/18 15/57/18 34/38/18
f 22/31/19 21/36/19 26/40/19
f 19/41/20 24/46/20 25/42/20
f 1/21/9 23/65/9 18/44/9
f 20/43/21 25/42/21 26/40/21
f 18/44/44 23/65/44 24/46/44
f 27/47/23 26/50/23 4/6/23
f 24/48/24 2/9/24 3/4/24
f 25/49/25 3/4/25 4/6/25
f 23/51/26 1/7/26 2/9/26
f 13/17/1 17/1/1 5/3/1
f 31/52/45 32/53/45 36/39/45
f 31/52/28 33/55/28 35/33/28
f 30/54/46 14/56/46 33/55/46
f 18/34/30 35/33/30 33/55/30
f 19/32/47 20/37/47 36/39/47
f 30/54/48 31/52/48 34/38/48
f 37/58/33 38/27/33 42/26/33
f 37/58/49 39/30/49 41/29/49
f 29/60/50 37/58/50 40/59/50
f 11/61/36 40/59/36 42/26/36
f 30/25/51 38/27/51 41/29/51
f 29/60/52 28/28/52 39/30/52
v -1.484653 2.110216 -2.274323
v -1.470291 2.090331 -2.289153
v -1.466127 2.062888 -2.296303
v -1.473277 2.035239 -2.293855
v -1.489825 2.014792 -2.282466
v -1.479750 2.107635 -2.247196
v -1.461799 2.085861 -2.242168
v -1.456322 2.057726 -2.242049
v -1.464786 2.030768 -2.246870
v -1.484923 2.012211 -2.255339
v -1.498545 2.056959 -2.206232
v -1.501352 2.030104 -2.215852
v -1.506035 2.011827 -2.237431
v -1.526876 2.109448 -2.238506
v -1.550574 2.061353 -2.224669
v -1.546411 2.033909 -2.231819
v -1.532049 2.014024 -2.246650
v -1.531779 2.112029 -2.265633
v -1.551916 2.093472 -2.274102
v -1.560380 2.066514 -2.278923
v -1.554903 2.038379 -2.278804
v -1.536952 2.016605 -2.273776
v -1.510667 2.112413 -2.283541
v -1.515349 2.094137 -2.305120
v -1.518156 2.067282 -2.314740
v -1.518336 2.039044 -2.309822
v -1.515840 2.016989 -2.291685
v -1.500862 2.107251 -2.229288
v -1.498366 2.085197 -2.211150
v -1.543424 2.089002 -2.227117
v -1.586254 2.112211 -2.239645
v -1.586947 2.112576 -2.243478
v -1.550439 2.116593 -2.240703
v -1.574240 2.079404 -2.236085
v -1.552866 2.117871 -2.254131
v -1.578004 2.081386 -2.256913
v -1.528153 2.103609 -2.177673
v -1.538818 2.104510 -2.181452
v -1.524322 2.110077 -2.194801
v -1.528304 2.083327 -2.188658
v -1.529210 2.110489 -2.196533
v -1.533206 2.083741 -2.190395
vt 0.274240 0.539347
vt 0.265397 0.539709
vt 0.266768 0.532487
vt 0.231414 0.551290
vt 0.214659 0.541092
vt 0.231357 0.542861
vt 0.231940 0.569242
vt 0.215985 0.562822
vt 0.231472 0.559719
vt 0.230890 0.533338
vt 0.220414 0.530957
vt 0.213134 0.552274
vt 0.289666 0.544440
vt 0.282983 0.540904
vt 0.290637 0.536818
vt 0.279682 0.529141
vt 0.275518 0.536619
vt 0.273707 0.532162
vt 0.280945 0.538772
vt 0.286431 0.530872
vt 0.290637 0.551375
vt 0.284312 0.543753
vt 0.278488 0.537315
vt 0.276318 0.541045
vt 0.804698 0.251197
vt 0.792375 0.255919
vt 0.792638 0.252041
vt 0.786357 0.239035
vt 0.792578 0.249274
vt 0.791489 0.249454
vt 0.271776 0.541127
vt 0.760733 0.199751
vt 0.757502 0.209505
vt 0.750621 0.206121
vt 0.278108 0.542645
vt 0.273009 0.544115
vt 0.772804 0.201934
vt 0.766718 0.213101
vt 0.766203 0.208706
vt 0.264007 0.548518
vt 0.277612 0.547903
vt 0.268747 0.555467
vt 0.275021 0.546378
vt 0.280714 0.548498
vt 0.281954 0.545638
vt 0.276612 0.557409
vt 0.240880 0.530957
vt 0.248168 0.561486
vt 0.249693 0.550306
vt 0.246843 0.539760
vt 0.242415 0.571620
vt 0.762287 0.211045
vt 0.762255 0.210544
vt 0.761023 0.221925
vt 0.757316 0.212491
vt 0.750922 0.216572
vt 0.772804 0.220841
vt 0.791613 0.252007
vt 0.791097 0.255536
vt 0.780068 0.250772
vt 0.780487 0.263708
vt 0.804698 0.264828
vt 0.798786 0.238814
vt 0.221949 0.571626
vt 0.283377 0.553479
vn -0.0539 -0.9949 -0.0849
vn 0.9451 -0.2617 -0.1957
vn 0.7782 0.6228 -0.0814
vn 0.7076 -0.6799 -0.1926
vn 0.9695 0.1881 -0.1573
vn 0.5227 0.5760 0.6285
vn 0.4520 -0.7266 0.5173
vn 0.6402 0.1278 0.7575
vn 0.0539 0.9949 0.0849
vn 0.6158 -0.3220 0.7191
vn -0.2908 -0.6981 0.6543
vn -0.9183 -0.3373 0.2072
vn -0.3414 -0.2851 0.8956
vn 0.0910 0.9957 -0.0196
vn -0.7782 -0.6227 0.0814
vn -0.2433 0.6087 -0.7552
vn -0.9695 -0.1881 0.1573
vn -0.6172 -0.7859 0.0368
vn -0.5227 -0.5760 -0.6285
vn -0.6158 0.3219 -0.7191
vn -0.6402 -0.1279 -0.7575
vn -0.4520 0.7266 -0.5173
vn 0.2202 -0.6046 -0.7655
vn 0.3415 0.2851 -0.8956
vn 0.3171 -0.1647 -0.9340
vn 0.2908 0.6981 -0.6543
vn -0.9348 -0.3274 0.1378
vn -0.1173 0.9864 0.1149
vn -0.0268 0.4361 0.8995
vn 0.2866 0.9572 0.0393
vn -0.5954 0.1677 -0.7857
vn -0.3228 0.1660 0.9318
vn -0.3321 -0.4473 0.8304
vn -0.0429 0.9378 0.3445
vn 0.5898 0.1349 0.7962
vn -0.2817 -0.7317 0.6207
vn -0.7918 0.6079 -0.0591
vn 0.7537 0.5412 0.3729
vn 0.7782 0.6227 -0.0814
vn 0.4520 -0.7267 0.5173
vn 0.6402 0.1279 0.7575
vn 0.6158 -0.3219 0.7191
vn -0.9189 0.2636 0.2935
vn -0.3415 -0.2851 0.8956
vn -0.7782 -0.6228 0.0814
vn -0.3228 0.5919 -0.7385
vn -0.6402 -0.1278 -0.7575
vn -0.4520 0.7267 -0.5173
vn -0.1173 0.9864 0.1151
vn 0.0541 0.4521 0.8903
vn 0.2866 0.9572 0.0392
vn -0.6205 0.3226 -0.7148
vn -0.2799 0.0017 0.9600
vn -0.3321 -0.4473 0.8305
vn 0.5674 -0.3955 0.7223
vn -0.2818 -0.7317 0.6207
vn -0.6963 0.6981 -0.1668
vn 0.7470 0.4707 0.4696
s off
f 59/66/53 69/67/53 47/68/53
f 45/69/54 51/70/54 46/71/54
f 43/72/55 49/73/55 44/74/55
f 47/75/56 51/70/56 52/76/56
f 44/74/57 50/77/57 45/69/57
f 48/78/58 71/79/58 49/80/58
f 51/81/59 55/82/59 52/83/59
f 49/80/60 53/84/60 50/85/60
f 43/86/61 70/87/61 48/78/61
f 50/85/62 54/88/62 51/81/62
f 55/82/63 58/89/63 59/66/63
f 72/90/64 84/91/64 80/92/64
f 53/84/65 58/89/65 54/88/65
f 70/93/66 83/94/66 81/95/66
f 58/89/67 64/96/67 59/66/67
f 61/97/68 77/98/68 60/99/68
f 57/100/69 63/101/69 58/89/69
f 62/102/70 76/103/70 78/104/70
f 64/96/71 68/105/71 69/67/71
f 61/106/72 67/107/72 62/108/72
f 43/86/61 60/109/61 56/110/61
f 62/108/73 68/105/73 63/101/73
f 60/109/74 66/111/74 61/106/74
f 69/112/75 46/71/75 47/75/75
f 66/113/76 45/69/76 67/114/76
f 67/114/77 46/71/77 68/115/77
f 65/116/78 44/74/78 66/113/78
f 55/82/53 47/68/53 52/83/53
f 73/117/79 78/104/79 76/103/79
f 73/117/80 77/98/80 74/118/80
f 72/119/81 75/120/81 73/117/81
f 60/99/82 75/120/82 56/121/82
f 61/97/83 78/104/83 74/118/83
f 72/119/84 76/103/84 57/122/84
f 79/123/85 84/91/85 82/124/85
f 79/123/86 83/94/86 80/92/86
f 71/125/87 82/124/87 53/126/87
f 53/126/88 84/91/88 57/127/88
f 72/90/89 83/94/89 56/128/89
f 71/125/90 81/95/90 79/123/90
f 59/66/53 64/96/53 69/67/53
f 45/69/54 50/77/54 51/70/54
f 43/72/91 48/129/91 49/73/91
f 47/75/56 46/71/56 51/70/56
f 44/74/57 49/73/57 50/77/57
f 48/78/58 70/87/58 71/79/58
f 51/81/92 54/88/92 55/82/92
f 49/80/93 71/79/93 53/84/93
f 43/86/61 56/110/61 70/87/61
f 50/85/94 53/84/94 54/88/94
f 55/82/63 54/88/63 58/89/63
f 72/90/95 57/127/95 84/91/95
f 53/84/96 57/100/96 58/89/96
f 70/93/66 56/128/66 83/94/66
f 58/89/97 63/101/97 64/96/97
f 61/97/98 74/118/98 77/98/98
f 57/100/69 62/108/69 63/101/69
f 62/102/70 57/122/70 76/103/70
f 64/96/71 63/101/71 68/105/71
f 61/106/72 66/111/72 67/107/72
f 43/86/61 65/130/61 60/109/61
f 62/108/99 67/107/99 68/105/99
f 60/109/100 65/130/100 66/111/100
f 69/112/75 68/115/75 46/71/75
f 66/113/76 44/74/76 45/69/76
f 67/114/77 45/69/77 46/71/77
f 65/116/78 43/72/78 44/74/78
f 55/82/53 59/66/53 47/68/53
f 73/117/79 74/118/79 78/104/79
f 73/117/101 75/120/101 77/98/101
f 72/119/102 56/121/102 75/120/102
f 60/99/103 77/98/103 75/120/103
f 61/97/104 62/102/104 78/104/104
f 72/119/105 73/117/105 76/103/105
f 79/123/106 80/92/106 84/91/106
f 79/123/86 81/95/86 83/94/86
f 71/125/107 79/123/107 82/124/107
f 53/126/108 82/124/108 84/91/108
f 72/90/109 80/92/109 83/94/109
f 71/125/110 70/93/110 81/95/110
