# Blender v2.81 (sub 16) OBJ File: 'garbage.blend'
# www.blender.org
v 0.230042 2.035624 0.264075
v 0.221917 2.019498 0.286336
v 0.214972 1.993910 0.297229
v 0.211071 1.965717 0.293835
v 0.211257 1.942473 0.277064
v 0.209887 2.037049 0.245146
v 0.187007 2.021966 0.253549
v 0.174663 1.996761 0.259370
v 0.176161 1.968186 0.261049
v 0.191102 1.943898 0.258135
v 0.186017 1.987036 0.206053
v 0.185994 1.959764 0.214874
v 0.196779 1.939036 0.231476
v 0.241396 2.025899 0.210758
v 0.237680 1.974461 0.190593
v 0.230736 1.948874 0.201486
v 0.222611 1.932748 0.223746
v 0.261551 2.024474 0.229687
v 0.276491 2.000186 0.226773
v 0.277990 1.971611 0.228452
v 0.265645 1.946405 0.234272
v 0.242765 1.931323 0.242676
v 0.255874 2.029336 0.256346
v 0.266659 2.008608 0.272948
v 0.266636 1.981336 0.281769
v 0.255813 1.954827 0.280447
v 0.237088 1.936185 0.269334
v 0.215564 2.032187 0.218487
v 0.196840 2.013545 0.207375
v 0.241582 2.002655 0.193987
v 0.288215 2.011209 0.177189
v 0.291063 2.011008 0.179864
v 0.262722 2.025674 0.198259
v 0.267546 1.983761 0.184444
v 0.272699 2.024969 0.207629
v 0.283021 1.982666 0.198978
v 0.205558 2.025488 0.161241
v 0.216149 2.022910 0.158072
v 0.214384 2.031206 0.176709
v 0.206186 2.005124 0.172056
v 0.219237 2.030024 0.175257
v 0.211053 2.003939 0.170599
vt 0.274240 0.539347
vt 0.265397 0.539709
vt 0.266768 0.532487
vt 0.231414 0.551290
vt 0.214659 0.541092
vt 0.231357 0.542861
vt 0.231940 0.569242
vt 0.215985 0.562822
vt 0.231472 0.559719
vt 0.230890 0.533338
vt 0.220414 0.530957
vt 0.213134 0.552274
vt 0.289666 0.544440
vt 0.282983 0.540904
vt 0.290637 0.536818
vt 0.279682 0.529141
vt 0.275518 0.536619
vt 0.273707 0.532162
vt 0.280945 0.538772
vt 0.286431 0.530872
vt 0.290637 0.551375
vt 0.284312 0.543753
vt 0.278488 0.537315
vt 0.276318 0.541045
vt 0.804698 0.251197
vt 0.792375 0.255919
vt 0.792638 0.252041
vt 0.786357 0.239035
vt 0.792578 0.249274
vt 0.791489 0.249454
vt 0.271776 0.541127
vt 0.760733 0.199751
vt 0.757502 0.209505
vt 0.750621 0.206121
vt 0.278108 0.542645
vt 0.273009 0.544115
vt 0.772804 0.201934
vt 0.766718 0.213101
vt 0.766203 0.208706
vt 0.264007 0.548518
vt 0.277612 0.547903
vt 0.268747 0.555467
vt 0.275021 0.546378
vt 0.280714 0.548498
vt 0.281954 0.545638
vt 0.276612 0.557409
vt 0.240880 0.530957
vt 0.248168 0.561486
vt 0.249693 0.550306
vt 0.246843 0.539760
vt 0.242415 0.571620
vt 0.762287 0.211045
vt 0.762255 0.210544
vt 0.761023 0.221925
vt 0.757316 0.212491
vt 0.750922 0.216572
vt 0.772804 0.220841
vt 0.791613 0.252007
vt 0.791097 0.255536
vt 0.780068 0.250772
vt 0.780487 0.263708
vt 0.804698 0.264828
vt 0.798786 0.238814
vt 0.221949 0.571626
vt 0.283377 0.553479
vn -0.1959 -0.9712 0.1354
vn -0.6843 0.0069 0.7292
vn -0.3685 0.8116 0.4534
vn -0.6249 -0.4601 0.6307
vn -0.5958 0.4460 0.6679
vn -0.5967 0.7574 -0.2652
vn -0.8531 -0.5142 -0.0879
vn -0.8899 0.3762 -0.2581
vn 0.1959 0.9712 -0.1354
vn -0.9784 -0.0629 -0.1969
vn -0.3565 -0.6900 -0.6300
vn 0.4849 -0.5689 -0.6643
vn -0.3384 -0.2894 -0.8954
vn 0.2281 0.9732 -0.0293
vn 0.3685 -0.8116 -0.4534
vn 0.7971 0.4408 0.4127
vn 0.5958 -0.4460 -0.6679
vn 0.2243 -0.9244 -0.3085
vn 0.5967 -0.7574 0.2652
vn 0.9784 0.0629 0.1969
vn 0.8899 -0.3762 0.2581
vn 0.8531 0.5142 0.0879
vn 0.1000 -0.5816 0.8073
vn 0.3384 0.2894 0.8954
vn 0.2498 -0.1497 0.9566
vn 0.3564 0.6900 0.6300
vn 0.5405 -0.5705 -0.6184
vn 0.3069 0.9162 -0.2578
vn -0.3736 0.4894 -0.7880
vn 0.0336 0.9987 0.0394
vn 0.9569 -0.0842 0.2778
vn -0.2437 0.1491 -0.9583
vn -0.3546 -0.4471 -0.8212
vn 0.1035 0.9123 -0.3963
vn -0.8717 0.3718 -0.3193
vn -0.3536 -0.7224 -0.5942
vn 0.8139 0.3442 -0.4680
vn -0.6356 0.7680 0.0787
vn -0.6843 0.0069 0.7291
vn -0.3564 -0.6900 -0.6300
vn 0.6084 0.0113 -0.7935
vn 0.8434 0.4033 0.3550
vn 0.2243 -0.9244 -0.3084
vn 0.1959 0.9712 -0.1355
vn 0.3068 0.9162 -0.2577
vn -0.4255 0.5273 -0.7355
vn 0.9797 0.0626 0.1907
vn -0.3401 0.0076 -0.9403
vn 0.1035 0.9123 -0.3962
vn -0.9644 -0.1467 -0.2202
vn -0.3537 -0.7224 -0.5942
vn 0.8291 0.4480 -0.3345
vn -0.7065 0.7077 0.0033
s off
f 17/1/1 27/2/1 5/3/1
f 3/4/2 9/5/2 4/6/2
f 1/7/3 7/8/3 2/9/3
f 5/10/4 9/5/4 10/11/4
f 2/9/5 8/12/5 3/4/5
f 6/13/6 29/14/6 7/15/6
f 9/16/7 13/17/7 10/18/7
f 7/15/8 11/19/8 8/20/8
f 1/21/9 28/22/9 6/13/9
f 8/20/10 12/23/10 9/16/10
f 13/17/11 16/24/11 17/1/11
f 30/25/12 42/26/12 38/27/12
f 11/19/13 16/24/13 12/23/13
f 28/28/14 41/29/14 39/30/14
f 16/24/15 22/31/15 17/1/15
f 19/32/16 35/33/16 18/34/16
f 15/35/17 21/36/17 16/24/17
f 20/37/18 34/38/18 36/39/18
f 22/31/19 26/40/19 27/2/19
f 19/41/20 25/42/20 20/43/20
f 1/21/9 18/44/9 14/45/9
f 20/43/21 26/40/21 21/36/21
f 18/44/22 24/46/22 19/41/22
f 27/47/23 4/6/23 5/10/23
f 24/48/24 3/4/24 25/49/24
f 25/49/25 4/6/25 26/50/25
f 23/51/26 2/9/26 24/48/26
f 13/17/1 5/3/1 10/18/1
f 31/52/27 36/39/27 34/38/27
f 31/52/28 35/33/28 32/53/28
f 30/54/29 33/55/29 31/52/29
f 18/34/30 33/55/30 14/56/30
f 19/32/31 36/39/31 32/53/31
f 30/54/32 34/38/32 15/57/32
f 37/58/33 42/26/33 40/59/33
f 37/58/34 41/29/34 38/27/34
f 29/60/35 40/59/35 11/61/35
f 11/61/36 42/26/36 15/62/36
f 30/25/37 41/29/37 14/63/37
f 29/60/38 39/30/38 37/58/38
f 17/1/1 22/31/1 27/2/1
f 3/4/39 8/12/39 9/5/39
f 1/7/3 6/64/3 7/8/3
f 5/10/4 4/6/4 9/5/4
f 2/9/5 7/8/5 8/12/5
f 6/13/6 28/22/6 29/14/6
f 9/16/7 12/23/7 13/17/7
f 7/15/8 29/14/8 11/19/8
f 1/21/9 14/45/9 28/22/9
f 8/20/10 11/19/10 12/23/10
f 13/17/40 12/23/40 16/24/40
f 30/25/41 15/62/41 42/26/41
f 11/19/13 15/35/13 16/24/13
f 28/28/14 14/63/14 41/29/14
f 16/24/15 21/36/15 22/31/15
f 19/32/42 32/53/42 35/33/42
f 15/35/17 20/43/17 21/36/17
f 20/37/43 15/57/43 34/38/43
f 22/31/19 21/36/19 26/40/19
f 19/41/20 24/46/20 25/42/20
f 1/21/44 23/65/44 18/44/44
f 20/43/21 25/42/21 26/40/21
f 18/44/22 23/65/22 24/46/22
f 27/47/23 26/50/23 4/6/23
f 24/48/24 2/9/24 3/4/24
f 25/49/25 3/4/25 4/6/25
f 23/51/26 1/7/26 2/9/26
f 13/17/1 17/1/1 5/3/1
f 31/52/27 32/53/27 36/39/27
f 31/52/45 33/55/45 35/33/45
f 30/54/46 14/56/46 33/55/46
f 18/34/30 35/33/30 33/55/30
f 19/32/47 20/37/47 36/39/47
f 30/54/48 31/52/48 34/38/48
f 37/58/33 38/27/33 42/26/33
f 37/58/49 39/30/49 41/29/49
f 29/60/50 37/58/50 40/59/50
f 11/61/51 40/59/51 42/26/51
f 30/25/52 38/27/52 41/29/52
f 29/60/53 28/28/53 39/30/53
v 0.942514 2.304615 1.751579
v 0.920336 2.287153 1.756563
v 0.910171 2.261052 1.762648
v 0.914743 2.233306 1.768203
v 0.932826 2.211349 1.771740
v 0.954871 2.298160 1.727658
v 0.941741 2.275973 1.715132
v 0.934887 2.248143 1.714807
v 0.936147 2.222126 1.726772
v 0.945184 2.204895 1.747820
v 0.989884 2.242003 1.712830
v 0.983776 2.216809 1.725060
v 0.972682 2.201825 1.746831
v 0.997510 2.298475 1.749602
v 1.020165 2.248772 1.758694
v 1.010000 2.222671 1.764779
v 0.987823 2.205209 1.769763
v 0.985153 2.304929 1.773522
v 0.994189 2.287698 1.794570
v 0.995449 2.261681 1.806535
v 0.988596 2.233851 1.806210
v 0.975465 2.211664 1.793684
v 0.957654 2.307999 1.774511
v 0.946560 2.293015 1.796282
v 0.940453 2.267821 1.808512
v 0.940967 2.239168 1.807922
v 0.947966 2.214734 1.794672
v 0.982370 2.295090 1.726670
v 0.989369 2.270656 1.713419
v 1.015593 2.276518 1.753139
v 1.043941 2.301092 1.786642
v 1.042195 2.302004 1.790022
v 1.015436 2.305751 1.764991
v 1.033585 2.268173 1.780136
v 1.009319 2.308946 1.776831
v 1.024096 2.273129 1.798502
v 1.034904 2.283891 1.703499
v 1.041111 2.285278 1.712900
v 1.022082 2.292786 1.713811
v 1.026479 2.265411 1.714433
v 1.024927 2.293422 1.718120
v 1.029332 2.266049 1.718754
vt 0.274240 0.539347
vt 0.265397 0.539709
vt 0.266768 0.532487
vt 0.231414 0.551290
vt 0.214659 0.541092
vt 0.231357 0.542861
vt 0.231940 0.569242
vt 0.215985 0.562822
vt 0.231472 0.559719
vt 0.230890 0.533338
vt 0.220414 0.530957
vt 0.213134 0.552274
vt 0.289666 0.544440
vt 0.282983 0.540904
vt 0.290637 0.536818
vt 0.279682 0.529141
vt 0.275518 0.536619
vt 0.273707 0.532162
vt 0.280945 0.538772
vt 0.286431 0.530872
vt 0.290637 0.551375
vt 0.284312 0.543753
vt 0.278488 0.537315
vt 0.276318 0.541045
vt 0.804698 0.251197
vt 0.792375 0.255919
vt 0.792638 0.252041
vt 0.786357 0.239035
vt 0.792578 0.249274
vt 0.791489 0.249454
vt 0.271776 0.541127
vt 0.760733 0.199751
vt 0.757502 0.209505
vt 0.750621 0.206121
vt 0.278108 0.542645
vt 0.273009 0.544115
vt 0.772804 0.201934
vt 0.766718 0.213101
vt 0.766203 0.208706
vt 0.264007 0.548518
vt 0.277612 0.547903
vt 0.268747 0.555467
vt 0.275021 0.546378
vt 0.280714 0.548498
vt 0.281954 0.545638
vt 0.276612 0.557409
vt 0.240880 0.530957
vt 0.248168 0.561486
vt 0.249693 0.550306
vt 0.246843 0.539760
vt 0.242415 0.571620
vt 0.762287 0.211045
vt 0.762255 0.210544
vt 0.761023 0.221925
vt 0.757316 0.212491
vt 0.750922 0.216572
vt 0.772804 0.220841
vt 0.791613 0.252007
vt 0.791097 0.255536
vt 0.780068 0.250772
vt 0.780487 0.263708
vt 0.804698 0.264828
vt 0.798786 0.238814
vt 0.221949 0.571626
vt 0.283377 0.553479
vn -0.1010 -0.9724 0.2102
vn -0.8890 -0.2262 -0.3982
vn -0.6060 0.6316 -0.4835
vn -0.7382 -0.6416 -0.2083
vn -0.8433 0.2134 -0.4933
vn 0.0223 0.4815 -0.8762
vn -0.1100 -0.7917 -0.6009
vn -0.0337 0.0199 -0.9992
vn 0.1010 0.9724 -0.2102
vn -0.0794 -0.4197 -0.9042
vn 0.5621 -0.7867 -0.2550
vn 0.8194 -0.3681 0.4395
vn 0.7868 -0.4133 -0.4585
vn 0.0083 0.9884 -0.1513
vn 0.6060 -0.6316 0.4835
vn -0.2101 0.7104 0.6717
vn 0.8433 -0.2134 0.4933
vn 0.4368 -0.7859 0.4377
vn -0.0223 -0.4815 0.8762
vn 0.0794 0.4197 0.9042
vn 0.0337 -0.0199 0.9992
vn 0.1100 0.7917 0.6009
vn -0.6944 -0.4865 0.5303
vn -0.7868 0.4133 0.4585
vn -0.8324 -0.0263 0.5535
vn -0.5621 0.7867 0.2550
vn 0.7912 -0.3483 0.5027
vn 0.2537 0.9588 -0.1278
vn 0.6075 0.3013 -0.7350
vn -0.1138 0.9428 -0.3132
vn 0.0085 0.2768 0.9609
vn 0.8358 0.0279 -0.5483
vn 0.7248 -0.5643 -0.3952
vn 0.3297 0.8779 -0.3473
vn 0.0303 0.0211 -0.9993
vn 0.5315 -0.8151 -0.2306
vn 0.6453 0.6063 0.4647
vn -0.3184 0.4851 -0.8144
vn -0.7383 -0.6416 -0.2083
vn -0.8433 0.2134 -0.4932
vn 0.9278 0.2140 0.3056
vn 0.0083 0.9884 -0.1514
vn -0.1387 0.6910 0.7094
vn 0.7912 -0.3482 0.5027
vn 0.2537 0.9588 -0.1276
vn 0.5396 0.3188 -0.7792
vn 0.0857 0.4197 0.9036
vn 0.8038 -0.1386 -0.5785
vn 0.7248 -0.5643 -0.3953
vn -0.0459 -0.4931 -0.8688
vn 0.5315 -0.8151 -0.2307
vn 0.5129 0.7116 0.4802
vn -0.2610 0.4013 -0.8780
s off
f 59/66/54 69/67/54 47/68/54
f 45/69/55 51/70/55 46/71/55
f 43/72/56 49/73/56 44/74/56
f 47/75/57 51/70/57 52/76/57
f 44/74/58 50/77/58 45/69/58
f 48/78/59 71/79/59 49/80/59
f 51/81/60 55/82/60 52/83/60
f 49/80/61 53/84/61 50/85/61
f 43/86/62 70/87/62 48/78/62
f 50/85/63 54/88/63 51/81/63
f 55/82/64 58/89/64 59/66/64
f 72/90/65 84/91/65 80/92/65
f 53/84/66 58/89/66 54/88/66
f 70/93/67 83/94/67 81/95/67
f 58/89/68 64/96/68 59/66/68
f 61/97/69 77/98/69 60/99/69
f 57/100/70 63/101/70 58/89/70
f 62/102/71 76/103/71 78/104/71
f 64/96/72 68/105/72 69/67/72
f 61/106/73 67/107/73 62/108/73
f 43/86/62 60/109/62 56/110/62
f 62/108/74 68/105/74 63/101/74
f 60/109/75 66/111/75 61/106/75
f 69/112/76 46/71/76 47/75/76
f 66/113/77 45/69/77 67/114/77
f 67/114/78 46/71/78 68/115/78
f 65/116/79 44/74/79 66/113/79
f 55/82/54 47/68/54 52/83/54
f 73/117/80 78/104/80 76/103/80
f 73/117/81 77/98/81 74/118/81
f 72/119/82 75/120/82 73/117/82
f 60/99/83 75/120/83 56/121/83
f 61/97/84 78/104/84 74/118/84
f 72/119/85 76/103/85 57/122/85
f 79/123/86 84/91/86 82/124/86
f 79/123/87 83/94/87 80/92/87
f 71/125/88 82/124/88 53/126/88
f 53/126/89 84/91/89 57/127/89
f 72/90/90 83/94/90 56/128/90
f 71/125/91 81/95/91 79/123/91
f 59/66/54 64/96/54 69/67/54
f 45/69/55 50/77/55 51/70/55
f 43/72/56 48/129/56 49/73/56
f 47/75/92 46/71/92 51/70/92
f 44/74/93 49/73/93 50/77/93
f 48/78/59 70/87/59 71/79/59
f 51/81/60 54/88/60 55/82/60
f 49/80/61 71/79/61 53/84/61
f 43/86/62 56/110/62 70/87/62
f 50/85/63 53/84/63 54/88/63
f 55/82/64 54/88/64 58/89/64
f 72/90/94 57/127/94 84/91/94
f 53/84/66 57/100/66 58/89/66
f 70/93/95 56/128/95 83/94/95
f 58/89/68 63/101/68 64/96/68
f 61/97/96 74/118/96 77/98/96
f 57/100/70 62/108/70 63/101/70
f 62/102/71 57/122/71 76/103/71
f 64/96/72 63/101/72 68/105/72
f 61/106/73 66/111/73 67/107/73
f 43/86/62 65/130/62 60/109/62
f 62/108/74 67/107/74 68/105/74
f 60/109/75 65/130/75 66/111/75
f 69/112/76 68/115/76 46/71/76
f 66/113/77 44/74/77 45/69/77
f 67/114/78 45/69/78 46/71/78
f 65/116/79 43/72/79 44/74/79
f 55/82/54 59/66/54 47/68/54
f 73/117/97 74/118/97 78/104/97
f 73/117/98 75/120/98 77/98/98
f 72/119/99 56/121/99 75/120/99
f 60/99/83 77/98/83 75/120/83
f 61/97/100 62/102/100 78/104/100
f 72/119/101 73/117/101 76/103/101
f 79/123/102 80/92/102 84/91/102
f 79/123/87 81/95/87 83/94/87
f 71/125/103 79/123/103 82/124/103
f 53/126/104 82/124/104 84/91/104
f 72/90/105 80/92/105 83/94/105
f 71/125/106 70/93/106 81/95/106
