# Blender v2.81 (sub 16) OBJ File: 'garbage.blend'
# www.blender.org
v -0.521762 2.114740 0.935445
v -0.534417 2.093570 0.920840
v -0.538467 2.065575 0.916210
v -0.532827 2.038254 0.922795
v -0.519008 2.018929 0.938832
v -0.494576 2.115337 0.930235
v -0.487330 2.094604 0.911815
v -0.484096 2.066769 0.905789
v -0.485740 2.039288 0.913771
v -0.491823 2.019526 0.933622
v -0.447932 2.069288 0.947647
v -0.454421 2.041470 0.950021
v -0.473741 2.020786 0.954551
v -0.485598 2.117259 0.977302
v -0.466139 2.070613 0.999925
v -0.470189 2.042617 0.995295
v -0.482844 2.021448 0.980690
v -0.512783 2.116662 0.982513
v -0.518866 2.096900 1.002364
v -0.520510 2.069419 1.010345
v -0.517276 2.041583 1.004319
v -0.510030 2.020851 0.985900
v -0.530865 2.115402 0.961584
v -0.550185 2.094718 0.966114
v -0.556674 2.066900 0.968488
v -0.548595 2.039401 0.968070
v -0.528112 2.019591 0.964971
v -0.476494 2.116596 0.951163
v -0.456011 2.096786 0.948065
v -0.471779 2.097934 0.993339
v -0.486348 2.118787 1.036731
v -0.490190 2.118702 1.037467
v -0.488313 2.123676 1.001020
v -0.479244 2.086820 1.024046
v -0.501770 2.123381 1.003599
v -0.500117 2.086361 1.028046
v -0.424483 2.118322 0.977885
v -0.428216 2.118593 0.988602
v -0.442276 2.122878 0.974345
v -0.433103 2.096927 0.977745
v -0.443986 2.123002 0.979257
v -0.434819 2.097052 0.982671
vt 0.274240 0.539347
vt 0.265397 0.539709
vt 0.266768 0.532487
vt 0.231414 0.551290
vt 0.214659 0.541092
vt 0.231357 0.542861
vt 0.231940 0.569242
vt 0.215985 0.562822
vt 0.231472 0.559719
vt 0.230890 0.533338
vt 0.220414 0.530957
vt 0.213134 0.552274
vt 0.289666 0.544440
vt 0.282983 0.540904
vt 0.290637 0.536818
vt 0.279682 0.529141
vt 0.275518 0.536619
vt 0.273707 0.532162
vt 0.280945 0.538772
vt 0.286431 0.530872
vt 0.290637 0.551375
vt 0.284312 0.543753
vt 0.278488 0.537315
vt 0.276318 0.541045
vt 0.804698 0.251197
vt 0.792375 0.255919
vt 0.792638 0.252041
vt 0.786357 0.239035
vt 0.792578 0.249274
vt 0.791489 0.249454
vt 0.271776 0.541127
vt 0.760733 0.199751
vt 0.757502 0.209505
vt 0.750621 0.206121
vt 0.278108 0.542645
vt 0.273009 0.544115
vt 0.772804 0.201934
vt 0.766718 0.213101
vt 0.766203 0.208706
vt 0.264007 0.548518
vt 0.277612 0.547903
vt 0.268747 0.555467
vt 0.275021 0.546378
vt 0.280714 0.548498
vt 0.281954 0.545638
vt 0.276612 0.557409
vt 0.240880 0.530957
vt 0.248168 0.561486
vt 0.249693 0.550306
vt 0.246843 0.539760
vt 0.242415 0.571620
vt 0.762287 0.211045
vt 0.762255 0.210544
vt 0.761023 0.221925
vt 0.757316 0.212491
vt 0.750922 0.216572
vt 0.772804 0.220841
vt 0.791613 0.252007
vt 0.791097 0.255536
vt 0.780068 0.250772
vt 0.780487 0.263708
vt 0.804698 0.264828
vt 0.798786 0.238814
vt 0.221949 0.571626
vt 0.283377 0.553479
vn 0.0287 -0.9990 0.0353
vn -0.1759 -0.2648 -0.9481
vn -0.1603 0.6237 -0.7651
vn -0.1227 -0.6843 -0.7188
vn -0.1889 0.1868 -0.9641
vn 0.5532 0.6530 -0.5173
vn 0.5908 -0.6550 -0.4710
vn 0.7307 0.2245 -0.6448
vn -0.0287 0.9990 -0.0353
vn 0.7436 -0.2271 -0.6288
vn 0.7324 -0.6247 0.2709
vn 0.2547 -0.3285 0.9095
vn 0.9260 -0.1881 0.3273
vn -0.1331 0.9885 -0.0714
vn 0.1603 -0.6237 0.7651
vn -0.8162 0.5147 0.2623
vn 0.1889 -0.1868 0.9641
vn 0.1326 -0.7879 0.6014
vn -0.5532 -0.6529 0.5173
vn -0.7436 0.2271 0.6288
vn -0.7307 -0.2245 0.6448
vn -0.5908 0.6550 0.4710
vn -0.6948 -0.6832 -0.2247
vn -0.9260 0.1881 -0.3273
vn -0.9130 -0.2635 -0.3113
vn -0.7324 0.6247 -0.2709
vn 0.1848 -0.3267 0.9269
vn 0.0042 0.9908 0.1355
vn 0.8447 0.5346 0.0267
vn -0.0725 0.9606 -0.2682
vn -0.7926 0.0668 0.6060
vn 0.9108 0.2645 0.3171
vn 0.8795 -0.3564 0.3153
vn 0.2368 0.9698 0.0579
vn 0.7689 0.2350 -0.5946
vn 0.7027 -0.6617 0.2615
vn -0.1182 0.5827 0.8040
vn 0.3005 0.5937 -0.7465
vn -0.1759 -0.2649 -0.9481
vn 0.5532 0.6529 -0.5173
vn 0.5908 -0.6550 -0.4711
vn 0.2725 0.2783 0.9210
vn -0.7969 0.4985 0.3413
vn -0.5908 0.6550 0.4711
vn 0.0042 0.9908 0.1354
vn 0.8328 0.5509 -0.0537
vn -0.7394 0.2282 0.6334
vn 0.9569 0.1052 0.2707
vn 0.8795 -0.3564 0.3154
vn 0.7557 -0.3007 -0.5818
vn -0.2365 0.6618 0.7114
vn 0.4046 0.5344 -0.7421
s off
f 17/1/1 27/2/1 5/3/1
f 3/4/2 9/5/2 4/6/2
f 1/7/3 7/8/3 2/9/3
f 5/10/4 9/5/4 10/11/4
f 2/9/5 8/12/5 3/4/5
f 6/13/6 29/14/6 7/15/6
f 9/16/7 13/17/7 10/18/7
f 7/15/8 11/19/8 8/20/8
f 1/21/9 28/22/9 6/13/9
f 8/20/10 12/23/10 9/16/10
f 13/17/11 16/24/11 17/1/11
f 30/25/12 42/26/12 38/27/12
f 11/19/13 16/24/13 12/23/13
f 28/28/14 41/29/14 39/30/14
f 16/24/15 22/31/15 17/1/15
f 19/32/16 35/33/16 18/34/16
f 15/35/17 21/36/17 16/24/17
f 20/37/18 34/38/18 36/39/18
f 22/31/19 26/40/19 27/2/19
f 19/41/20 25/42/20 20/43/20
f 1/21/9 18/44/9 14/45/9
f 20/43/21 26/40/21 21/36/21
f 18/44/22 24/46/22 19/41/22
f 27/47/23 4/6/23 5/10/23
f 24/48/24 3/4/24 25/49/24
f 25/49/25 4/6/25 26/50/25
f 23/51/26 2/9/26 24/48/26
f 13/17/1 5/3/1 10/18/1
f 31/52/27 36/39/27 34/38/27
f 31/52/28 35/33/28 32/53/28
f 30/54/29 33/55/29 31/52/29
f 18/34/30 33/55/30 14/56/30
f 19/32/31 36/39/31 32/53/31
f 30/54/32 34/38/32 15/57/32
f 37/58/33 42/26/33 40/59/33
f 37/58/34 41/29/34 38/27/34
f 29/60/35 40/59/35 11/61/35
f 11/61/36 42/26/36 15/62/36
f 30/25/37 41/29/37 14/63/37
f 29/60/38 39/30/38 37/58/38
f 17/1/1 22/31/1 27/2/1
f 3/4/39 8/12/39 9/5/39
f 1/7/3 6/64/3 7/8/3
f 5/10/4 4/6/4 9/5/4
f 2/9/5 7/8/5 8/12/5
f 6/13/40 28/22/40 29/14/40
f 9/16/41 12/23/41 13/17/41
f 7/15/8 29/14/8 11/19/8
f 1/21/9 14/45/9 28/22/9
f 8/20/10 11/19/10 12/23/10
f 13/17/11 12/23/11 16/24/11
f 30/25/42 15/62/42 42/26/42
f 11/19/13 15/35/13 16/24/13
f 28/28/14 14/63/14 41/29/14
f 16/24/15 21/36/15 22/31/15
f 19/32/43 32/53/43 35/33/43
f 15/35/17 20/43/17 21/36/17
f 20/37/18 15/57/18 34/38/18
f 22/31/19 21/36/19 26/40/19
f 19/41/20 24/46/20 25/42/20
f 1/21/9 23/65/9 18/44/9
f 20/43/21 25/42/21 26/40/21
f 18/44/44 23/65/44 24/46/44
f 27/47/23 26/50/23 4/6/23
f 24/48/24 2/9/24 3/4/24
f 25/49/25 3/4/25 4/6/25
f 23/51/26 1/7/26 2/9/26
f 13/17/1 17/1/1 5/3/1
f 31/52/27 32/53/27 36/39/27
f 31/52/45 33/55/45 35/33/45
f 30/54/46 14/56/46 33/55/46
f 18/34/30 35/33/30 33/55/30
f 19/32/47 20/37/47 36/39/47
f 30/54/48 31/52/48 34/38/48
f 37/58/49 38/27/49 42/26/49
f 37/58/34 39/30/34 41/29/34
f 29/60/50 37/58/50 40/59/50
f 11/61/36 40/59/36 42/26/36
f 30/25/51 38/27/51 41/29/51
f 29/60/52 28/28/52 39/30/52
v -2.078656 1.527047 0.547748
v -2.077620 1.507571 0.526743
v -2.074232 1.480417 0.518213
v -2.069401 1.452859 0.524444
v -2.064421 1.432282 0.543768
v -2.053712 1.530308 0.559313
v -2.034416 1.513220 0.546773
v -2.024345 1.486939 0.541342
v -2.026197 1.458508 0.544475
v -2.039478 1.435543 0.555332
v -2.018958 1.485434 0.596433
v -2.021532 1.457204 0.592185
v -2.036784 1.434791 0.582878
v -2.073269 1.525542 0.602839
v -2.063458 1.477407 0.628394
v -2.060071 1.450252 0.619864
v -2.059034 1.430777 0.598858
v -2.098213 1.522281 0.591274
v -2.111493 1.499316 0.602132
v -2.113346 1.470885 0.605264
v -2.103275 1.444604 0.599833
v -2.083978 1.427516 0.587293
v -2.100906 1.523033 0.563729
v -2.116158 1.500620 0.554422
v -2.118733 1.472390 0.550174
v -2.107940 1.445907 0.552123
v -2.086671 1.428269 0.559748
v -2.051019 1.529555 0.586858
v -2.029751 1.511917 0.594483
v -2.068290 1.504965 0.622162
v -2.107652 1.517808 0.650721
v -2.111177 1.517347 0.649086
v -2.089797 1.528013 0.621054
v -2.090078 1.488751 0.641772
v -2.102144 1.526399 0.615330
v -2.109230 1.486247 0.632892
v -2.024096 1.530696 0.638782
v -2.033218 1.529051 0.645333
v -2.037216 1.534512 0.626007
v -2.027915 1.509040 0.631820
v -2.041397 1.533758 0.629010
v -2.032108 1.508284 0.634831
vt 0.274240 0.539347
vt 0.265397 0.539709
vt 0.266768 0.532487
vt 0.231414 0.551290
vt 0.214659 0.541092
vt 0.231357 0.542861
vt 0.231940 0.569242
vt 0.215985 0.562822
vt 0.231472 0.559719
vt 0.230890 0.533338
vt 0.220414 0.530957
vt 0.213134 0.552274
vt 0.289666 0.544440
vt 0.282983 0.540904
vt 0.290637 0.536818
vt 0.279682 0.529141
vt 0.275518 0.536619
vt 0.273707 0.532162
vt 0.280945 0.538772
vt 0.286431 0.530872
vt 0.290637 0.551375
vt 0.284312 0.543753
vt 0.278488 0.537315
vt 0.276318 0.541045
vt 0.804698 0.251197
vt 0.792375 0.255919
vt 0.792638 0.252041
vt 0.786357 0.239035
vt 0.792578 0.249274
vt 0.791489 0.249454
vt 0.271776 0.541127
vt 0.760733 0.199751
vt 0.757502 0.209505
vt 0.750621 0.206121
vt 0.278108 0.542645
vt 0.273009 0.544115
vt 0.772804 0.201934
vt 0.766718 0.213101
vt 0.766203 0.208706
vt 0.264007 0.548518
vt 0.277612 0.547903
vt 0.268747 0.555467
vt 0.275021 0.546378
vt 0.280714 0.548498
vt 0.281954 0.545638
vt 0.276612 0.557409
vt 0.240880 0.530957
vt 0.248168 0.561486
vt 0.249693 0.550306
vt 0.246843 0.539760
vt 0.242415 0.571620
vt 0.762287 0.211045
vt 0.762255 0.210544
vt 0.761023 0.221925
vt 0.757316 0.212491
vt 0.750922 0.216572
vt 0.772804 0.220841
vt 0.791613 0.252007
vt 0.791097 0.255536
vt 0.780068 0.250772
vt 0.780487 0.263708
vt 0.804698 0.264828
vt 0.798786 0.238814
vt 0.221949 0.571626
vt 0.283377 0.553479
vn 0.1484 -0.9881 -0.0415
vn 0.4308 -0.1265 -0.8935
vn 0.2111 0.7220 -0.6589
vn 0.4054 -0.5717 -0.7133
vn 0.3637 0.3202 -0.8748
vn 0.6468 0.7615 -0.0424
vn 0.8411 -0.5321 -0.0968
vn 0.9251 0.3711 -0.0803
vn -0.1484 0.9881 0.0415
vn 0.9922 -0.0756 -0.0991
vn 0.5328 -0.6073 0.5893
vn -0.2589 -0.4469 0.8563
vn 0.5949 -0.1724 0.7851
vn -0.2113 0.9762 -0.0491
vn -0.2111 -0.7220 0.6589
vn -0.8860 0.4107 -0.2151
vn -0.3637 -0.3201 0.8748
vn -0.1174 -0.8604 0.4959
vn -0.6468 -0.7615 0.0424
vn -0.9922 0.0756 0.0991
vn -0.9251 -0.3711 0.0803
vn -0.8411 0.5322 0.0968
vn -0.3385 -0.6864 -0.6437
vn -0.5949 0.1724 -0.7851
vn -0.5278 -0.2743 -0.8038
vn -0.5328 0.6073 -0.5893
vn -0.3257 -0.4526 0.8301
vn -0.2169 0.9558 0.1983
vn 0.5936 0.5807 0.5571
vn -0.0469 0.9833 -0.1760
vn -0.9959 -0.0823 0.0383
vn 0.5226 0.2742 0.8073
vn 0.5883 -0.3397 0.7338
vn 0.0189 0.9632 0.2683
vn 0.9263 0.3763 -0.0166
vn 0.5194 -0.6444 0.5613
vn -0.6346 0.4419 0.6341
vn 0.5794 0.7212 -0.3797
vn 0.8411 -0.5322 -0.0968
vn -0.3390 0.1506 0.9287
vn -0.9125 0.3839 -0.1413
vn -0.3637 -0.3202 0.8748
vn -0.8411 0.5321 0.0968
vn -0.3256 -0.4527 0.8301
vn 0.6270 0.6085 0.4864
vn -0.0470 0.9833 -0.1760
vn -0.9915 0.0762 0.1053
vn 0.6094 0.1276 0.7826
vn 0.5883 -0.3396 0.7338
vn 0.9862 -0.1545 -0.0604
vn 0.5194 -0.6443 0.5613
vn -0.6899 0.5261 0.4973
vn 0.6701 0.6692 -0.3210
s off
f 59/66/53 69/67/53 47/68/53
f 45/69/54 51/70/54 46/71/54
f 43/72/55 49/73/55 44/74/55
f 47/75/56 51/70/56 52/76/56
f 44/74/57 50/77/57 45/69/57
f 48/78/58 71/79/58 49/80/58
f 51/81/59 55/82/59 52/83/59
f 49/80/60 53/84/60 50/85/60
f 43/86/61 70/87/61 48/78/61
f 50/85/62 54/88/62 51/81/62
f 55/82/63 58/89/63 59/66/63
f 72/90/64 84/91/64 80/92/64
f 53/84/65 58/89/65 54/88/65
f 70/93/66 83/94/66 81/95/66
f 58/89/67 64/96/67 59/66/67
f 61/97/68 77/98/68 60/99/68
f 57/100/69 63/101/69 58/89/69
f 62/102/70 76/103/70 78/104/70
f 64/96/71 68/105/71 69/67/71
f 61/106/72 67/107/72 62/108/72
f 43/86/61 60/109/61 56/110/61
f 62/108/73 68/105/73 63/101/73
f 60/109/74 66/111/74 61/106/74
f 69/112/75 46/71/75 47/75/75
f 66/113/76 45/69/76 67/114/76
f 67/114/77 46/71/77 68/115/77
f 65/116/78 44/74/78 66/113/78
f 55/82/53 47/68/53 52/83/53
f 73/117/79 78/104/79 76/103/79
f 73/117/80 77/98/80 74/118/80
f 72/119/81 75/120/81 73/117/81
f 60/99/82 75/120/82 56/121/82
f 61/97/83 78/104/83 74/118/83
f 72/119/84 76/103/84 57/122/84
f 79/123/85 84/91/85 82/124/85
f 79/123/86 83/94/86 80/92/86
f 71/125/87 82/124/87 53/126/87
f 53/126/88 84/91/88 57/127/88
f 72/90/89 83/94/89 56/128/89
f 71/125/90 81/95/90 79/123/90
f 59/66/53 64/96/53 69/67/53
f 45/69/54 50/77/54 51/70/54
f 43/72/55 48/129/55 49/73/55
f 47/75/56 46/71/56 51/70/56
f 44/74/57 49/73/57 50/77/57
f 48/78/58 70/87/58 71/79/58
f 51/81/91 54/88/91 55/82/91
f 49/80/60 71/79/60 53/84/60
f 43/86/61 56/110/61 70/87/61
f 50/85/62 53/84/62 54/88/62
f 55/82/63 54/88/63 58/89/63
f 72/90/92 57/127/92 84/91/92
f 53/84/65 57/100/65 58/89/65
f 70/93/66 56/128/66 83/94/66
f 58/89/67 63/101/67 64/96/67
f 61/97/93 74/118/93 77/98/93
f 57/100/94 62/108/94 63/101/94
f 62/102/70 57/122/70 76/103/70
f 64/96/71 63/101/71 68/105/71
f 61/106/72 66/111/72 67/107/72
f 43/86/61 65/130/61 60/109/61
f 62/108/73 67/107/73 68/105/73
f 60/109/95 65/130/95 66/111/95
f 69/112/75 68/115/75 46/71/75
f 66/113/76 44/74/76 45/69/76
f 67/114/77 45/69/77 46/71/77
f 65/116/78 43/72/78 44/74/78
f 55/82/53 59/66/53 47/68/53
f 73/117/96 74/118/96 78/104/96
f 73/117/80 75/120/80 77/98/80
f 72/119/97 56/121/97 75/120/97
f 60/99/98 77/98/98 75/120/98
f 61/97/99 62/102/99 78/104/99
f 72/119/100 73/117/100 76/103/100
f 79/123/101 80/92/101 84/91/101
f 79/123/86 81/95/86 83/94/86
f 71/125/102 79/123/102 82/124/102
f 53/126/103 82/124/103 84/91/103
f 72/90/104 80/92/104 83/94/104
f 71/125/105 70/93/105 81/95/105
