# Blender v2.81 (sub 16) OBJ File: 'garbage.blend'
# www.blender.org
v -0.724585 2.092089 0.160020
v -0.723532 2.072522 0.139101
v -0.724201 2.045134 0.130672
v -0.726414 2.017263 0.136992
v -0.729578 1.996378 0.156368
v -0.702210 2.090303 0.176230
v -0.684777 2.069429 0.167176
v -0.679452 2.041562 0.163091
v -0.687660 2.014170 0.165068
v -0.707203 1.994593 0.172577
v -0.685211 2.039762 0.218135
v -0.692648 2.012611 0.212737
v -0.710083 1.993693 0.200099
v -0.730345 2.090289 0.215064
v -0.735721 2.041533 0.240760
v -0.736391 2.014145 0.232331
v -0.735337 1.994578 0.211412
v -0.752720 2.092074 0.198855
v -0.772262 2.072497 0.206365
v -0.780471 2.045105 0.208342
v -0.775145 2.017238 0.204256
v -0.757712 1.996364 0.195203
v -0.749840 2.092974 0.171333
v -0.767274 2.074056 0.158695
v -0.774711 2.046905 0.153298
v -0.770157 2.018797 0.156586
v -0.754832 1.997264 0.167681
v -0.705090 2.089403 0.203752
v -0.689766 2.067870 0.214846
v -0.733508 2.069404 0.234440
v -0.774154 2.090488 0.255255
v -0.777316 2.090741 0.252965
v -0.749210 2.096372 0.229835
v -0.761519 2.058309 0.249083
v -0.760286 2.097256 0.221811
v -0.778699 2.059680 0.236638
v -0.689031 2.085709 0.259882
v -0.699385 2.086072 0.264520
v -0.698376 2.091964 0.244935
v -0.695791 2.065207 0.251755
v -0.703121 2.092131 0.247061
v -0.700550 2.065374 0.253887
vt 0.274240 0.539347
vt 0.265397 0.539709
vt 0.266768 0.532487
vt 0.231414 0.551290
vt 0.214659 0.541092
vt 0.231357 0.542861
vt 0.231940 0.569242
vt 0.215985 0.562822
vt 0.231472 0.559719
vt 0.230890 0.533338
vt 0.220414 0.530957
vt 0.213134 0.552274
vt 0.289666 0.544440
vt 0.282983 0.540904
vt 0.290637 0.536818
vt 0.279682 0.529141
vt 0.275518 0.536619
vt 0.273707 0.532162
vt 0.280945 0.538772
vt 0.286431 0.530872
vt 0.290637 0.551375
vt 0.284312 0.543753
vt 0.278488 0.537315
vt 0.276318 0.541045
vt 0.804698 0.251197
vt 0.792375 0.255919
vt 0.792638 0.252041
vt 0.786357 0.239035
vt 0.792578 0.249274
vt 0.791489 0.249454
vt 0.271776 0.541127
vt 0.760733 0.199751
vt 0.757502 0.209505
vt 0.750621 0.206121
vt 0.278108 0.542645
vt 0.273009 0.544115
vt 0.772804 0.201934
vt 0.766718 0.213101
vt 0.766203 0.208706
vt 0.264007 0.548518
vt 0.277612 0.547903
vt 0.268747 0.555467
vt 0.275021 0.546378
vt 0.280714 0.548498
vt 0.281954 0.545638
vt 0.276612 0.557409
vt 0.240880 0.530957
vt 0.248168 0.561486
vt 0.249693 0.550306
vt 0.246843 0.539760
vt 0.242415 0.571620
vt 0.762287 0.211045
vt 0.762255 0.210544
vt 0.761023 0.221925
vt 0.757316 0.212491
vt 0.750922 0.216572
vt 0.772804 0.220841
vt 0.791613 0.252007
vt 0.791097 0.255536
vt 0.780068 0.250772
vt 0.780487 0.263708
vt 0.804698 0.264828
vt 0.798786 0.238814
vt 0.221949 0.571626
vt 0.283377 0.553479
vn -0.0521 -0.9979 -0.0381
vn 0.5597 -0.2253 -0.7975
vn 0.4776 0.6535 -0.5872
vn 0.4094 -0.6531 -0.6371
vn 0.5833 0.2259 -0.7802
vn 0.7849 0.6112 0.1021
vn 0.7167 -0.6954 0.0523
vn 0.9793 0.1713 0.1081
vn 0.0521 0.9979 0.0381
vn 0.9557 -0.2798 0.0909
vn 0.2732 -0.6956 0.6644
vn -0.5051 -0.3717 0.7789
vn 0.3842 -0.2801 0.8797
vn 0.0067 0.9980 -0.0632
vn -0.4776 -0.6535 0.5872
vn -0.7246 0.5814 -0.3701
vn -0.5833 -0.2259 0.7802
vn -0.3846 -0.8106 0.4416
vn -0.7849 -0.6112 -0.1021
vn -0.9557 0.2798 -0.0909
vn -0.9793 -0.1713 -0.1081
vn -0.7167 0.6954 -0.0523
vn -0.3414 -0.6110 -0.7143
vn -0.3842 0.2801 -0.8797
vn -0.4078 -0.1710 -0.8969
vn -0.2732 0.6956 -0.6644
vn -0.5653 -0.3640 0.7402
vn -0.0505 0.9827 0.1779
vn 0.5813 0.4538 0.6754
vn 0.1904 0.9692 -0.1560
vn -0.9799 0.1252 -0.1553
vn 0.4020 0.1720 0.8993
vn 0.3535 -0.4431 0.8238
vn 0.1638 0.9423 0.2919
vn 0.9692 0.1770 0.1710
vn 0.2581 -0.7295 0.6334
vn -0.6406 0.5721 0.5121
vn 0.7770 0.5808 -0.2427
vn -0.4735 0.2304 0.8501
vn -0.7698 0.5616 -0.3034
vn 0.6326 0.4731 0.6132
vn -0.9561 0.2804 -0.0846
vn 0.4600 0.0103 0.8878
vn 0.9263 -0.3552 0.1256
vn -0.6501 0.6640 0.3696
vn 0.8421 0.5121 -0.1691
s off
f 17/1/1 27/2/1 5/3/1
f 3/4/2 9/5/2 4/6/2
f 1/7/3 7/8/3 2/9/3
f 5/10/4 9/5/4 10/11/4
f 2/9/5 8/12/5 3/4/5
f 6/13/6 29/14/6 7/15/6
f 9/16/7 13/17/7 10/18/7
f 7/15/8 11/19/8 8/20/8
f 1/21/9 28/22/9 6/13/9
f 8/20/10 12/23/10 9/16/10
f 13/17/11 16/24/11 17/1/11
f 30/25/12 42/26/12 38/27/12
f 11/19/13 16/24/13 12/23/13
f 28/28/14 41/29/14 39/30/14
f 16/24/15 22/31/15 17/1/15
f 19/32/16 35/33/16 18/34/16
f 15/35/17 21/36/17 16/24/17
f 20/37/18 34/38/18 36/39/18
f 22/31/19 26/40/19 27/2/19
f 19/41/20 25/42/20 20/43/20
f 1/21/9 18/44/9 14/45/9
f 20/43/21 26/40/21 21/36/21
f 18/44/22 24/46/22 19/41/22
f 27/47/23 4/6/23 5/10/23
f 24/48/24 3/4/24 25/49/24
f 25/49/25 4/6/25 26/50/25
f 23/51/26 2/9/26 24/48/26
f 13/17/1 5/3/1 10/18/1
f 31/52/27 36/39/27 34/38/27
f 31/52/28 35/33/28 32/53/28
f 30/54/29 33/55/29 31/52/29
f 18/34/30 33/55/30 14/56/30
f 19/32/31 36/39/31 32/53/31
f 30/54/32 34/38/32 15/57/32
f 37/58/33 42/26/33 40/59/33
f 37/58/34 41/29/34 38/27/34
f 29/60/35 40/59/35 11/61/35
f 11/61/36 42/26/36 15/62/36
f 30/25/37 41/29/37 14/63/37
f 29/60/38 39/30/38 37/58/38
f 17/1/1 22/31/1 27/2/1
f 3/4/2 8/12/2 9/5/2
f 1/7/3 6/64/3 7/8/3
f 5/10/4 4/6/4 9/5/4
f 2/9/5 7/8/5 8/12/5
f 6/13/6 28/22/6 29/14/6
f 9/16/7 12/23/7 13/17/7
f 7/15/8 29/14/8 11/19/8
f 1/21/9 14/45/9 28/22/9
f 8/20/10 11/19/10 12/23/10
f 13/17/11 12/23/11 16/24/11
f 30/25/39 15/62/39 42/26/39
f 11/19/13 15/35/13 16/24/13
f 28/28/14 14/63/14 41/29/14
f 16/24/15 21/36/15 22/31/15
f 19/32/40 32/53/40 35/33/40
f 15/35/17 20/43/17 21/36/17
f 20/37/18 15/57/18 34/38/18
f 22/31/19 21/36/19 26/40/19
f 19/41/20 24/46/20 25/42/20
f 1/21/9 23/65/9 18/44/9
f 20/43/21 25/42/21 26/40/21
f 18/44/22 23/65/22 24/46/22
f 27/47/23 26/50/23 4/6/23
f 24/48/24 2/9/24 3/4/24
f 25/49/25 3/4/25 4/6/25
f 23/51/26 1/7/26 2/9/26
f 13/17/1 17/1/1 5/3/1
f 31/52/27 32/53/27 36/39/27
f 31/52/28 33/55/28 35/33/28
f 30/54/41 14/56/41 33/55/41
f 18/34/30 35/33/30 33/55/30
f 19/32/42 20/37/42 36/39/42
f 30/54/43 31/52/43 34/38/43
f 37/58/33 38/27/33 42/26/33
f 37/58/34 39/30/34 41/29/34
f 29/60/44 37/58/44 40/59/44
f 11/61/36 40/59/36 42/26/36
f 30/25/45 38/27/45 41/29/45
f 29/60/46 28/28/46 39/30/46
v -1.714159 2.087079 -1.960700
v -1.700258 2.069445 -1.978515
v -1.694918 2.042951 -1.988062
v -1.699570 2.014696 -1.986783
v -1.712966 1.992252 -1.975019
v -1.705758 2.083244 -1.934599
v -1.685707 2.062801 -1.933307
v -1.678116 2.035280 -1.935860
v -1.685018 2.008053 -1.941574
v -1.704565 1.988416 -1.948918
v -1.715405 2.028709 -1.895454
v -1.717311 2.002362 -1.906582
v -1.723209 1.985131 -1.928715
v -1.751448 2.080509 -1.920294
v -1.769496 2.029810 -1.907251
v -1.764156 2.003316 -1.916798
v -1.750255 1.985681 -1.934613
v -1.759849 2.084345 -1.946395
v -1.779396 2.064708 -1.953739
v -1.786299 2.037481 -1.959453
v -1.778707 2.009959 -1.962006
v -1.758656 1.989517 -1.960714
v -1.741205 2.087630 -1.966598
v -1.747103 2.070398 -1.988732
v -1.749009 2.044051 -1.999859
v -1.746414 2.015649 -1.996999
v -1.740012 1.992802 -1.980917
v -1.724402 2.079958 -1.914396
v -1.718000 2.057111 -1.898315
v -1.764845 2.058064 -1.908531
v -1.810547 2.078289 -1.914208
v -1.811734 2.078831 -1.917896
v -1.775580 2.085752 -1.919172
v -1.795705 2.046463 -1.914462
v -1.779738 2.087650 -1.932092
v -1.802156 2.049408 -1.934503
v -1.744744 2.070815 -1.860315
v -1.755832 2.071041 -1.862733
v -1.743568 2.078636 -1.877265
v -1.744696 2.051315 -1.872635
v -1.748649 2.078739 -1.878374
v -1.749793 2.051419 -1.873747
vt 0.274240 0.539347
vt 0.265397 0.539709
vt 0.266768 0.532487
vt 0.231414 0.551290
vt 0.214659 0.541092
vt 0.231357 0.542861
vt 0.231940 0.569242
vt 0.215985 0.562822
vt 0.231472 0.559719
vt 0.230890 0.533338
vt 0.220414 0.530957
vt 0.213134 0.552274
vt 0.289666 0.544440
vt 0.282983 0.540904
vt 0.290637 0.536818
vt 0.279682 0.529141
vt 0.275518 0.536619
vt 0.273707 0.532162
vt 0.280945 0.538772
vt 0.286431 0.530872
vt 0.290637 0.551375
vt 0.284312 0.543753
vt 0.278488 0.537315
vt 0.276318 0.541045
vt 0.804698 0.251197
vt 0.792375 0.255919
vt 0.792638 0.252041
vt 0.786357 0.239035
vt 0.792578 0.249274
vt 0.791489 0.249454
vt 0.271776 0.541127
vt 0.760733 0.199751
vt 0.757502 0.209505
vt 0.750621 0.206121
vt 0.278108 0.542645
vt 0.273009 0.544115
vt 0.772804 0.201934
vt 0.766718 0.213101
vt 0.766203 0.208706
vt 0.264007 0.548518
vt 0.277612 0.547903
vt 0.268747 0.555467
vt 0.275021 0.546378
vt 0.280714 0.548498
vt 0.281954 0.545638
vt 0.276612 0.557409
vt 0.240880 0.530957
vt 0.248168 0.561486
vt 0.249693 0.550306
vt 0.246843 0.539760
vt 0.242415 0.571620
vt 0.762287 0.211045
vt 0.762255 0.210544
vt 0.761023 0.221925
vt 0.757316 0.212491
vt 0.750922 0.216572
vt 0.772804 0.220841
vt 0.791613 0.252007
vt 0.791097 0.255536
vt 0.780068 0.250772
vt 0.780487 0.263708
vt 0.804698 0.264828
vt 0.798786 0.238814
vt 0.221949 0.571626
vt 0.283377 0.553479
vn 0.0124 -0.9887 -0.1493
vn 0.9309 -0.1679 -0.3243
vn 0.7121 0.6904 -0.1277
vn 0.7284 -0.6042 -0.3232
vn 0.9253 0.2790 -0.2568
vn 0.5506 0.5781 0.6022
vn 0.5669 -0.7164 0.4067
vn 0.7172 0.1344 0.6838
vn -0.0124 0.9887 0.1493
vn 0.7229 -0.3126 0.6163
vn -0.1533 -0.7595 0.6322
vn -0.8571 -0.4263 0.2894
vn -0.2053 -0.3681 0.9068
vn 0.0113 0.9991 0.0414
vn -0.7121 -0.6904 0.1277
vn -0.3807 0.6316 -0.6754
vn -0.9253 -0.2790 0.2568
vn -0.5459 -0.8362 0.0528
vn -0.5506 -0.5781 -0.6022
vn -0.7229 0.3126 -0.6163
vn -0.7172 -0.1344 -0.6838
vn -0.5669 0.7164 -0.4067
vn 0.1696 -0.5350 -0.8276
vn 0.2053 0.3681 -0.9068
vn 0.2109 -0.0789 -0.9743
vn 0.1533 0.7595 -0.6322
vn -0.8827 -0.4134 0.2234
vn -0.1775 0.9638 0.1989
vn 0.0512 0.3755 0.9254
vn 0.2150 0.9738 0.0739
vn -0.6990 0.1651 -0.6958
vn -0.2170 0.0798 0.9729
vn -0.1916 -0.5246 0.8295
vn -0.0718 0.9076 0.4137
vn 0.6716 0.1347 0.7286
vn -0.1459 -0.7901 0.5954
vn -0.8373 0.5410 0.0787
vn 0.7502 0.5790 0.3192
vn 0.7121 0.6904 -0.1278
vn -0.8931 0.1660 0.4182
vn -0.4560 0.6072 -0.6507
vn -0.5458 -0.8362 0.0528
vn 0.2109 -0.0788 -0.9743
vn -0.1775 0.9638 0.1988
vn 0.1289 0.3989 0.9079
vn -0.7269 0.3126 -0.6114
vn -0.1584 -0.0817 0.9840
vn 0.6809 -0.3900 0.6199
vn -0.7631 0.6455 -0.0327
vn 0.7610 0.5023 0.4107
s off
f 59/66/47 69/67/47 47/68/47
f 45/69/48 51/70/48 46/71/48
f 43/72/49 49/73/49 44/74/49
f 47/75/50 51/70/50 52/76/50
f 44/74/51 50/77/51 45/69/51
f 48/78/52 71/79/52 49/80/52
f 51/81/53 55/82/53 52/83/53
f 49/80/54 53/84/54 50/85/54
f 43/86/55 70/87/55 48/78/55
f 50/85/56 54/88/56 51/81/56
f 55/82/57 58/89/57 59/66/57
f 72/90/58 84/91/58 80/92/58
f 53/84/59 58/89/59 54/88/59
f 70/93/60 83/94/60 81/95/60
f 58/89/61 64/96/61 59/66/61
f 61/97/62 77/98/62 60/99/62
f 57/100/63 63/101/63 58/89/63
f 62/102/64 76/103/64 78/104/64
f 64/96/65 68/105/65 69/67/65
f 61/106/66 67/107/66 62/108/66
f 43/86/55 60/109/55 56/110/55
f 62/108/67 68/105/67 63/101/67
f 60/109/68 66/111/68 61/106/68
f 69/112/69 46/71/69 47/75/69
f 66/113/70 45/69/70 67/114/70
f 67/114/71 46/71/71 68/115/71
f 65/116/72 44/74/72 66/113/72
f 55/82/47 47/68/47 52/83/47
f 73/117/73 78/104/73 76/103/73
f 73/117/74 77/98/74 74/118/74
f 72/119/75 75/120/75 73/117/75
f 60/99/76 75/120/76 56/121/76
f 61/97/77 78/104/77 74/118/77
f 72/119/78 76/103/78 57/122/78
f 79/123/79 84/91/79 82/124/79
f 79/123/80 83/94/80 80/92/80
f 71/125/81 82/124/81 53/126/81
f 53/126/82 84/91/82 57/127/82
f 72/90/83 83/94/83 56/128/83
f 71/125/84 81/95/84 79/123/84
f 59/66/47 64/96/47 69/67/47
f 45/69/48 50/77/48 51/70/48
f 43/72/85 48/129/85 49/73/85
f 47/75/50 46/71/50 51/70/50
f 44/74/51 49/73/51 50/77/51
f 48/78/52 70/87/52 71/79/52
f 51/81/53 54/88/53 55/82/53
f 49/80/54 71/79/54 53/84/54
f 43/86/55 56/110/55 70/87/55
f 50/85/56 53/84/56 54/88/56
f 55/82/57 54/88/57 58/89/57
f 72/90/86 57/127/86 84/91/86
f 53/84/59 57/100/59 58/89/59
f 70/93/60 56/128/60 83/94/60
f 58/89/61 63/101/61 64/96/61
f 61/97/87 74/118/87 77/98/87
f 57/100/63 62/108/63 63/101/63
f 62/102/88 57/122/88 76/103/88
f 64/96/65 63/101/65 68/105/65
f 61/106/66 66/111/66 67/107/66
f 43/86/55 65/130/55 60/109/55
f 62/108/67 67/107/67 68/105/67
f 60/109/68 65/130/68 66/111/68
f 69/112/69 68/115/69 46/71/69
f 66/113/70 44/74/70 45/69/70
f 67/114/89 45/69/89 46/71/89
f 65/116/72 43/72/72 44/74/72
f 55/82/47 59/66/47 47/68/47
f 73/117/73 74/118/73 78/104/73
f 73/117/90 75/120/90 77/98/90
f 72/119/91 56/121/91 75/120/91
f 60/99/76 77/98/76 75/120/76
f 61/97/92 62/102/92 78/104/92
f 72/119/93 73/117/93 76/103/93
f 79/123/79 80/92/79 84/91/79
f 79/123/80 81/95/80 83/94/80
f 71/125/94 79/123/94 82/124/94
f 53/126/82 82/124/82 84/91/82
f 72/90/95 80/92/95 83/94/95
f 71/125/96 70/93/96 81/95/96
