# Blender v2.81 (sub 16) OBJ File: 'garbage.blend'
# www.blender.org
v 0.335235 1.886525 -0.368117
v 0.328249 1.873899 -0.343351
v 0.320460 1.850495 -0.328751
v 0.313955 1.822583 -0.328228
v 0.310478 1.797644 -0.341924
v 0.313361 1.887626 -0.385055
v 0.290363 1.875805 -0.372689
v 0.276713 1.852696 -0.362627
v 0.276070 1.824490 -0.357566
v 0.288605 1.798745 -0.358862
v 0.281507 1.835876 -0.415167
v 0.280221 1.809924 -0.403067
v 0.291002 1.790335 -0.385131
v 0.340028 1.869705 -0.420656
v 0.330047 1.816854 -0.433829
v 0.322258 1.793450 -0.419229
v 0.315272 1.780824 -0.394463
v 0.361902 1.868604 -0.403718
v 0.374437 1.842859 -0.405013
v 0.373794 1.814653 -0.399952
v 0.360144 1.791544 -0.389891
v 0.337145 1.779723 -0.377524
v 0.359505 1.877014 -0.377448
v 0.370286 1.857425 -0.359513
v 0.369000 1.831473 -0.347413
v 0.355992 1.806110 -0.344390
v 0.334749 1.788133 -0.351255
v 0.315758 1.879216 -0.411325
v 0.294514 1.861239 -0.418189
v 0.336551 1.844766 -0.434351
v 0.381669 1.846954 -0.456477
v 0.384760 1.846798 -0.454083
v 0.359815 1.866058 -0.435018
v 0.359741 1.822566 -0.443921
v 0.370643 1.865514 -0.426633
v 0.376535 1.821720 -0.430916
v 0.299210 1.866921 -0.466071
v 0.309160 1.863022 -0.469896
v 0.310064 1.873538 -0.452350
v 0.299338 1.847970 -0.452922
v 0.314624 1.871752 -0.454103
v 0.303911 1.846178 -0.454680
vt 0.274240 0.539347
vt 0.265397 0.539709
vt 0.266768 0.532487
vt 0.231414 0.551290
vt 0.214659 0.541092
vt 0.231357 0.542861
vt 0.231940 0.569242
vt 0.215985 0.562822
vt 0.231472 0.559719
vt 0.230890 0.533338
vt 0.220414 0.530957
vt 0.213134 0.552274
vt 0.289666 0.544440
vt 0.282983 0.540904
vt 0.290637 0.536818
vt 0.279682 0.529141
vt 0.275518 0.536619
vt 0.273707 0.532162
vt 0.280945 0.538772
vt 0.286431 0.530872
vt 0.290637 0.551375
vt 0.284312 0.543753
vt 0.278488 0.537315
vt 0.276318 0.541045
vt 0.804698 0.251197
vt 0.792375 0.255919
vt 0.792638 0.252041
vt 0.786357 0.239035
vt 0.792578 0.249274
vt 0.791489 0.249454
vt 0.271776 0.541127
vt 0.760733 0.199751
vt 0.757502 0.209505
vt 0.750621 0.206121
vt 0.278108 0.542645
vt 0.273009 0.544115
vt 0.772804 0.201934
vt 0.766718 0.213101
vt 0.766203 0.208706
vt 0.264007 0.548518
vt 0.277612 0.547903
vt 0.268747 0.555467
vt 0.275021 0.546378
vt 0.280714 0.548498
vt 0.281954 0.545638
vt 0.276612 0.557409
vt 0.240880 0.530957
vt 0.248168 0.561486
vt 0.249693 0.550306
vt 0.246843 0.539760
vt 0.242415 0.571620
vt 0.762287 0.211045
vt 0.762255 0.210544
vt 0.761023 0.221925
vt 0.757316 0.212491
vt 0.750922 0.216572
vt 0.772804 0.220841
vt 0.791613 0.252007
vt 0.791097 0.255536
vt 0.780068 0.250772
vt 0.780487 0.263708
vt 0.804698 0.264828
vt 0.798786 0.238814
vt 0.221949 0.571626
vt 0.283377 0.553479
vn -0.2581 -0.9267 0.2731
vn -0.6000 0.1545 0.7849
vn -0.2514 0.8892 0.3824
vn -0.5894 -0.3242 0.7400
vn -0.4833 0.5735 0.6614
vn -0.5584 0.7739 -0.2987
vn -0.8964 -0.4394 0.0589
vn -0.8790 0.4250 -0.2163
vn 0.2581 0.9267 -0.2731
vn -0.9957 0.0061 -0.0928
vn -0.4760 -0.7219 -0.5023
vn 0.3640 -0.6843 -0.6319
vn -0.4540 -0.3579 -0.8160
vn 0.3015 0.9379 -0.1716
vn 0.2514 -0.8891 -0.3824
vn 0.8695 0.4094 0.2764
vn 0.4833 -0.5735 -0.6614
vn 0.1148 -0.9706 -0.2114
vn 0.5584 -0.7739 0.2987
vn 0.9957 -0.0061 0.0928
vn 0.8790 -0.4250 0.2163
vn 0.8964 0.4394 -0.0589
vn 0.1380 -0.4915 0.8599
vn 0.4540 0.3579 0.8160
vn 0.3373 -0.0610 0.9394
vn 0.4760 0.7219 0.5023
vn 0.4238 -0.6857 -0.5918
vn 0.3507 0.8479 -0.3977
vn -0.4146 0.4279 -0.8031
vn 0.1182 0.9891 -0.0883
vn 0.9711 -0.1402 0.1931
vn -0.3315 0.0596 -0.9416
vn -0.4749 -0.5039 -0.7216
vn 0.1341 0.8469 -0.5145
vn -0.8678 0.4119 -0.2779
vn -0.4720 -0.7501 -0.4632
vn 0.7846 0.2108 -0.5831
vn -0.5595 0.8277 0.0434
vn -0.2514 0.8891 0.3824
vn -0.5893 -0.3242 0.7400
vn 0.5194 -0.1368 -0.8435
vn 0.9062 0.3614 0.2196
vn -0.4574 0.4762 -0.7510
vn 0.9962 -0.0072 0.0866
vn -0.4365 -0.0693 -0.8970
vn -0.4749 -0.5039 -0.7215
vn 0.1341 0.8469 -0.5146
vn -0.9910 -0.0808 -0.1068
vn 0.8223 0.3274 -0.4655
vn -0.6427 0.7659 -0.0168
s off
f 17/1/1 27/2/1 5/3/1
f 3/4/2 9/5/2 4/6/2
f 1/7/3 7/8/3 2/9/3
f 5/10/4 9/5/4 10/11/4
f 2/9/5 8/12/5 3/4/5
f 6/13/6 29/14/6 7/15/6
f 9/16/7 13/17/7 10/18/7
f 7/15/8 11/19/8 8/20/8
f 1/21/9 28/22/9 6/13/9
f 8/20/10 12/23/10 9/16/10
f 13/17/11 16/24/11 17/1/11
f 30/25/12 42/26/12 38/27/12
f 11/19/13 16/24/13 12/23/13
f 28/28/14 41/29/14 39/30/14
f 16/24/15 22/31/15 17/1/15
f 19/32/16 35/33/16 18/34/16
f 15/35/17 21/36/17 16/24/17
f 20/37/18 34/38/18 36/39/18
f 22/31/19 26/40/19 27/2/19
f 19/41/20 25/42/20 20/43/20
f 1/21/9 18/44/9 14/45/9
f 20/43/21 26/40/21 21/36/21
f 18/44/22 24/46/22 19/41/22
f 27/47/23 4/6/23 5/10/23
f 24/48/24 3/4/24 25/49/24
f 25/49/25 4/6/25 26/50/25
f 23/51/26 2/9/26 24/48/26
f 13/17/1 5/3/1 10/18/1
f 31/52/27 36/39/27 34/38/27
f 31/52/28 35/33/28 32/53/28
f 30/54/29 33/55/29 31/52/29
f 18/34/30 33/55/30 14/56/30
f 19/32/31 36/39/31 32/53/31
f 30/54/32 34/38/32 15/57/32
f 37/58/33 42/26/33 40/59/33
f 37/58/34 41/29/34 38/27/34
f 29/60/35 40/59/35 11/61/35
f 11/61/36 42/26/36 15/62/36
f 30/25/37 41/29/37 14/63/37
f 29/60/38 39/30/38 37/58/38
f 17/1/1 22/31/1 27/2/1
f 3/4/2 8/12/2 9/5/2
f 1/7/39 6/64/39 7/8/39
f 5/10/40 4/6/40 9/5/40
f 2/9/5 7/8/5 8/12/5
f 6/13/6 28/22/6 29/14/6
f 9/16/7 12/23/7 13/17/7
f 7/15/8 29/14/8 11/19/8
f 1/21/9 14/45/9 28/22/9
f 8/20/10 11/19/10 12/23/10
f 13/17/11 12/23/11 16/24/11
f 30/25/41 15/62/41 42/26/41
f 11/19/13 15/35/13 16/24/13
f 28/28/14 14/63/14 41/29/14
f 16/24/15 21/36/15 22/31/15
f 19/32/42 32/53/42 35/33/42
f 15/35/17 20/43/17 21/36/17
f 20/37/18 15/57/18 34/38/18
f 22/31/19 21/36/19 26/40/19
f 19/41/20 24/46/20 25/42/20
f 1/21/9 23/65/9 18/44/9
f 20/43/21 25/42/21 26/40/21
f 18/44/22 23/65/22 24/46/22
f 27/47/23 26/50/23 4/6/23
f 24/48/24 2/9/24 3/4/24
f 25/49/25 3/4/25 4/6/25
f 23/51/26 1/7/26 2/9/26
f 13/17/1 17/1/1 5/3/1
f 31/52/27 32/53/27 36/39/27
f 31/52/28 33/55/28 35/33/28
f 30/54/43 14/56/43 33/55/43
f 18/34/30 35/33/30 33/55/30
f 19/32/44 20/37/44 36/39/44
f 30/54/45 31/52/45 34/38/45
f 37/58/46 38/27/46 42/26/46
f 37/58/47 39/30/47 41/29/47
f 29/60/48 37/58/48 40/59/48
f 11/61/36 40/59/36 42/26/36
f 30/25/49 38/27/49 41/29/49
f 29/60/50 28/28/50 39/30/50
v 2.406401 1.729522 0.555726
v 2.388467 1.715368 0.573036
v 2.378199 1.690650 0.583290
v 2.378347 1.661990 0.583740
v 2.388872 1.637069 0.574267
v 2.399617 1.725487 0.529188
v 2.376717 1.708378 0.527071
v 2.364631 1.682578 0.530214
v 2.366597 1.655000 0.537776
v 2.382088 1.633033 0.547729
v 2.403507 1.667870 0.493627
v 2.400264 1.642262 0.506091
v 2.401526 1.625679 0.529436
v 2.445277 1.714814 0.519139
v 2.455950 1.661233 0.510116
v 2.445682 1.636515 0.520370
v 2.427748 1.622360 0.537680
v 2.452061 1.718850 0.545677
v 2.467552 1.696883 0.555630
v 2.469518 1.669305 0.563192
v 2.457432 1.643505 0.566335
v 2.434532 1.626396 0.564218
v 2.432623 1.726204 0.563970
v 2.433885 1.709621 0.587315
v 2.430642 1.684013 0.599778
v 2.423764 1.656243 0.598020
v 2.415094 1.633750 0.582511
v 2.419055 1.718132 0.510894
v 2.410385 1.695640 0.495386
v 2.455802 1.689893 0.509665
v 2.503551 1.703053 0.518433
v 2.504509 1.703623 0.522183
v 2.469948 1.716156 0.519922
v 2.483826 1.674001 0.518845
v 2.473306 1.718154 0.533058
v 2.489034 1.677099 0.539221
v 2.441945 1.702709 0.459316
v 2.452694 1.701349 0.462696
v 2.440680 1.711618 0.475714
v 2.437781 1.684228 0.472475
v 2.445606 1.710995 0.477263
v 2.442722 1.683603 0.474029
vt 0.274240 0.539347
vt 0.265397 0.539709
vt 0.266768 0.532487
vt 0.231414 0.551290
vt 0.214659 0.541092
vt 0.231357 0.542861
vt 0.231940 0.569242
vt 0.215985 0.562822
vt 0.231472 0.559719
vt 0.230890 0.533338
vt 0.220414 0.530957
vt 0.213134 0.552274
vt 0.289666 0.544440
vt 0.282983 0.540904
vt 0.290637 0.536818
vt 0.279682 0.529141
vt 0.275518 0.536619
vt 0.273707 0.532162
vt 0.280945 0.538772
vt 0.286431 0.530872
vt 0.290637 0.551375
vt 0.284312 0.543753
vt 0.278488 0.537315
vt 0.276318 0.541045
vt 0.804698 0.251197
vt 0.792375 0.255919
vt 0.792638 0.252041
vt 0.786357 0.239035
vt 0.792578 0.249274
vt 0.791489 0.249454
vt 0.271776 0.541127
vt 0.760733 0.199751
vt 0.757502 0.209505
vt 0.750621 0.206121
vt 0.278108 0.542645
vt 0.273009 0.544115
vt 0.772804 0.201934
vt 0.766718 0.213101
vt 0.766203 0.208706
vt 0.264007 0.548518
vt 0.277612 0.547903
vt 0.268747 0.555467
vt 0.275021 0.546378
vt 0.280714 0.548498
vt 0.281954 0.545638
vt 0.276612 0.557409
vt 0.240880 0.530957
vt 0.248168 0.561486
vt 0.249693 0.550306
vt 0.246843 0.539760
vt 0.242415 0.571620
vt 0.762287 0.211045
vt 0.762255 0.210544
vt 0.761023 0.221925
vt 0.757316 0.212491
vt 0.750922 0.216572
vt 0.772804 0.220841
vt 0.791613 0.252007
vt 0.791097 0.255536
vt 0.780068 0.250772
vt 0.780487 0.263708
vt 0.804698 0.264828
vt 0.798786 0.238814
vt 0.221949 0.571626
vt 0.283377 0.553479
vn -0.1828 -0.9640 0.1933
vn -0.9688 -0.0011 0.2478
vn -0.6001 0.7993 0.0318
vn -0.8394 -0.4628 0.2850
vn -0.8862 0.4347 0.1604
vn -0.4006 0.6198 -0.6748
vn -0.6399 -0.6424 -0.4217
vn -0.6291 0.2033 -0.7502
vn 0.1828 0.9640 -0.1933
vn -0.7118 -0.2325 -0.6628
vn 0.0798 -0.8106 -0.5801
vn 0.7981 -0.5712 -0.1921
vn 0.2157 -0.4493 -0.8670
vn 0.1524 0.9843 -0.0886
vn 0.6001 -0.7993 -0.0319
vn 0.4216 0.6038 0.6765
vn 0.8862 -0.4347 -0.1604
vn 0.4071 -0.9127 0.0347
vn 0.4006 -0.6197 0.6748
vn 0.7118 0.2325 0.6628
vn 0.6291 -0.2033 0.7502
vn 0.6399 0.6424 0.4217
vn -0.3191 -0.4515 0.8332
vn -0.2157 0.4493 0.8670
vn -0.2984 0.0135 0.9544
vn -0.0798 0.8106 0.5801
vn 0.8201 -0.5585 -0.1247
vn 0.3451 0.9108 -0.2267
vn 0.0841 0.3228 -0.9427
vn -0.0494 0.9892 -0.1378
vn 0.6583 0.0955 0.7467
vn 0.3044 -0.0134 -0.9525
vn 0.1710 -0.5967 -0.7840
vn 0.2494 0.8589 -0.4474
vn -0.5806 0.1939 -0.7908
vn 0.0647 -0.8374 -0.5428
vn 0.9168 0.3983 -0.0291
vn -0.6196 0.6687 -0.4111
vn -0.6001 0.7993 0.0319
vn -0.4006 0.6197 -0.6748
vn 0.9388 -0.0006 -0.3445
vn 0.4938 0.5665 0.6597
vn 0.4072 -0.9127 0.0347
vn 0.8200 -0.5586 -0.1247
vn 0.0101 0.3590 -0.9333
vn 0.7162 0.2316 0.6584
vn 0.2217 -0.1642 -0.9612
vn 0.1710 -0.5968 -0.7840
vn 0.2493 0.8589 -0.4474
vn -0.6826 -0.3155 -0.6591
vn 0.8516 0.5195 0.0704
vn -0.6351 0.5892 -0.4995
s off
f 59/66/51 69/67/51 47/68/51
f 45/69/52 51/70/52 46/71/52
f 43/72/53 49/73/53 44/74/53
f 47/75/54 51/70/54 52/76/54
f 44/74/55 50/77/55 45/69/55
f 48/78/56 71/79/56 49/80/56
f 51/81/57 55/82/57 52/83/57
f 49/80/58 53/84/58 50/85/58
f 43/86/59 70/87/59 48/78/59
f 50/85/60 54/88/60 51/81/60
f 55/82/61 58/89/61 59/66/61
f 72/90/62 84/91/62 80/92/62
f 53/84/63 58/89/63 54/88/63
f 70/93/64 83/94/64 81/95/64
f 58/89/65 64/96/65 59/66/65
f 61/97/66 77/98/66 60/99/66
f 57/100/67 63/101/67 58/89/67
f 62/102/68 76/103/68 78/104/68
f 64/96/69 68/105/69 69/67/69
f 61/106/70 67/107/70 62/108/70
f 43/86/59 60/109/59 56/110/59
f 62/108/71 68/105/71 63/101/71
f 60/109/72 66/111/72 61/106/72
f 69/112/73 46/71/73 47/75/73
f 66/113/74 45/69/74 67/114/74
f 67/114/75 46/71/75 68/115/75
f 65/116/76 44/74/76 66/113/76
f 55/82/51 47/68/51 52/83/51
f 73/117/77 78/104/77 76/103/77
f 73/117/78 77/98/78 74/118/78
f 72/119/79 75/120/79 73/117/79
f 60/99/80 75/120/80 56/121/80
f 61/97/81 78/104/81 74/118/81
f 72/119/82 76/103/82 57/122/82
f 79/123/83 84/91/83 82/124/83
f 79/123/84 83/94/84 80/92/84
f 71/125/85 82/124/85 53/126/85
f 53/126/86 84/91/86 57/127/86
f 72/90/87 83/94/87 56/128/87
f 71/125/88 81/95/88 79/123/88
f 59/66/51 64/96/51 69/67/51
f 45/69/52 50/77/52 51/70/52
f 43/72/89 48/129/89 49/73/89
f 47/75/54 46/71/54 51/70/54
f 44/74/55 49/73/55 50/77/55
f 48/78/90 70/87/90 71/79/90
f 51/81/57 54/88/57 55/82/57
f 49/80/58 71/79/58 53/84/58
f 43/86/59 56/110/59 70/87/59
f 50/85/60 53/84/60 54/88/60
f 55/82/61 54/88/61 58/89/61
f 72/90/91 57/127/91 84/91/91
f 53/84/63 57/100/63 58/89/63
f 70/93/64 56/128/64 83/94/64
f 58/89/65 63/101/65 64/96/65
f 61/97/92 74/118/92 77/98/92
f 57/100/67 62/108/67 63/101/67
f 62/102/93 57/122/93 76/103/93
f 64/96/69 63/101/69 68/105/69
f 61/106/70 66/111/70 67/107/70
f 43/86/59 65/130/59 60/109/59
f 62/108/71 67/107/71 68/105/71
f 60/109/72 65/130/72 66/111/72
f 69/112/73 68/115/73 46/71/73
f 66/113/74 44/74/74 45/69/74
f 67/114/75 45/69/75 46/71/75
f 65/116/76 43/72/76 44/74/76
f 55/82/51 59/66/51 47/68/51
f 73/117/94 74/118/94 78/104/94
f 73/117/78 75/120/78 77/98/78
f 72/119/95 56/121/95 75/120/95
f 60/99/80 77/98/80 75/120/80
f 61/97/96 62/102/96 78/104/96
f 72/119/97 73/117/97 76/103/97
f 79/123/98 80/92/98 84/91/98
f 79/123/99 81/95/99 83/94/99
f 71/125/100 79/123/100 82/124/100
f 53/126/86 82/124/86 84/91/86
f 72/90/101 80/92/101 83/94/101
f 71/125/102 70/93/102 81/95/102
