# Blender v2.81 (sub 16) OBJ File: 'garbage.blend'
# www.blender.org
v 0.366118 1.691890 -0.799235
v 0.357464 1.681509 -0.773958
v 0.347375 1.659815 -0.758172
v 0.338555 1.632621 -0.756108
v 0.333367 1.607212 -0.768319
v 0.344858 1.693669 -0.816883
v 0.320642 1.684591 -0.804524
v 0.304857 1.663373 -0.793467
v 0.301733 1.635702 -0.786674
v 0.312108 1.608991 -0.785966
v 0.309591 1.642845 -0.844677
v 0.305833 1.617924 -0.831023
v 0.314475 1.598727 -0.811571
v 0.370852 1.671362 -0.850445
v 0.356844 1.618759 -0.860591
v 0.346755 1.597065 -0.844806
v 0.338101 1.586684 -0.819528
v 0.392111 1.669583 -0.832797
v 0.402486 1.642872 -0.832089
v 0.399362 1.615201 -0.825296
v 0.383577 1.593983 -0.814239
v 0.359361 1.584905 -0.801881
v 0.389744 1.679847 -0.807192
v 0.398386 1.660650 -0.787740
v 0.394628 1.635729 -0.774086
v 0.379478 1.611761 -0.769890
v 0.356994 1.595169 -0.776276
v 0.347226 1.683405 -0.842488
v 0.324742 1.666813 -0.848873
v 0.365664 1.645954 -0.862655
v 0.411365 1.643016 -0.883457
v 0.414369 1.642764 -0.880964
v 0.390632 1.665190 -0.863927
v 0.387162 1.621363 -0.870091
v 0.401155 1.664310 -0.855191
v 0.403485 1.619997 -0.856541
v 0.331133 1.668974 -0.896847
v 0.340819 1.664037 -0.900109
v 0.342142 1.675561 -0.883235
v 0.329341 1.650970 -0.882541
v 0.346581 1.673298 -0.884730
v 0.333793 1.648700 -0.884041
vt 0.274240 0.539347
vt 0.265397 0.539709
vt 0.266768 0.532487
vt 0.231414 0.551290
vt 0.214659 0.541092
vt 0.231357 0.542861
vt 0.231940 0.569242
vt 0.215985 0.562822
vt 0.231472 0.559719
vt 0.230890 0.533338
vt 0.220414 0.530957
vt 0.213134 0.552274
vt 0.289666 0.544440
vt 0.282983 0.540904
vt 0.290637 0.536818
vt 0.279682 0.529141
vt 0.275518 0.536619
vt 0.273707 0.532162
vt 0.280945 0.538772
vt 0.286431 0.530872
vt 0.290637 0.551375
vt 0.284312 0.543753
vt 0.278488 0.537315
vt 0.276318 0.541045
vt 0.804698 0.251197
vt 0.792375 0.255919
vt 0.792638 0.252041
vt 0.786357 0.239035
vt 0.792578 0.249274
vt 0.791489 0.249454
vt 0.271776 0.541127
vt 0.760733 0.199751
vt 0.757502 0.209505
vt 0.750621 0.206121
vt 0.278108 0.542645
vt 0.273009 0.544115
vt 0.772804 0.201934
vt 0.766718 0.213101
vt 0.766203 0.208706
vt 0.264007 0.548518
vt 0.277612 0.547903
vt 0.268747 0.555467
vt 0.275021 0.546378
vt 0.280714 0.548498
vt 0.281954 0.545638
vt 0.276612 0.557409
vt 0.240880 0.530957
vt 0.248168 0.561486
vt 0.249693 0.550306
vt 0.246843 0.539760
vt 0.242415 0.571620
vt 0.762287 0.211045
vt 0.762255 0.210544
vt 0.761023 0.221925
vt 0.757316 0.212491
vt 0.750922 0.216572
vt 0.772804 0.220841
vt 0.791613 0.252007
vt 0.791097 0.255536
vt 0.780068 0.250772
vt 0.780487 0.263708
vt 0.804698 0.264828
vt 0.798786 0.238814
vt 0.221949 0.571626
vt 0.283377 0.553479
vn -0.3415 -0.8829 0.3223
vn -0.6052 0.2536 0.7546
vn -0.1862 0.9296 0.3180
vn -0.6333 -0.2264 0.7401
vn -0.4508 0.6527 0.6089
vn -0.4840 0.7959 -0.3638
vn -0.9311 -0.3601 0.0583
vn -0.8346 0.4803 -0.2697
vn 0.3415 0.8829 -0.3223
vn -0.9890 0.0812 -0.1240
vn -0.5214 -0.7117 -0.4708
vn 0.3219 -0.7512 -0.5762
vn -0.4609 -0.3719 -0.8057
vn 0.3830 0.8971 -0.2205
vn 0.1862 -0.9296 -0.3180
vn 0.8931 0.3542 0.2773
vn 0.4508 -0.6527 -0.6089
vn 0.0390 -0.9884 -0.1466
vn 0.4840 -0.7959 0.3638
vn 0.9890 -0.0812 0.1240
vn 0.8346 -0.4803 0.2697
vn 0.9311 0.3601 -0.0583
vn 0.0743 -0.4442 0.8928
vn 0.4610 0.3719 0.8057
vn 0.3066 -0.0272 0.9515
vn 0.5214 0.7117 0.4708
vn 0.3803 -0.7549 -0.5343
vn 0.4303 0.7888 -0.4388
vn -0.3566 0.4072 -0.8409
vn 0.2024 0.9683 -0.1463
vn 0.9507 -0.2061 0.2316
vn -0.3009 0.0252 -0.9533
vn -0.4964 -0.5092 -0.7031
vn 0.2175 0.7980 -0.5621
vn -0.8229 0.4624 -0.3300
vn -0.5207 -0.7376 -0.4299
vn 0.8143 0.1078 -0.5704
vn -0.4894 0.8716 -0.0259
vn -0.5213 -0.7117 -0.4708
vn 0.5279 -0.2332 -0.8167
vn -0.4610 -0.3719 -0.8057
vn 0.9271 0.2998 0.2248
vn 0.3415 0.8829 -0.3224
vn 0.4609 0.3719 0.8057
vn 0.5213 0.7117 0.4708
vn 0.3803 -0.7549 -0.5342
vn -0.3965 0.4622 -0.7932
vn 0.9896 -0.0828 0.1179
vn -0.4174 -0.0916 -0.9041
vn 0.2175 0.7980 -0.5620
vn -0.9912 -0.0065 -0.1324
vn 0.8585 0.2284 -0.4592
vn -0.5760 0.8131 -0.0847
s off
f 17/1/1 27/2/1 5/3/1
f 3/4/2 9/5/2 4/6/2
f 1/7/3 7/8/3 2/9/3
f 5/10/4 9/5/4 10/11/4
f 2/9/5 8/12/5 3/4/5
f 6/13/6 29/14/6 7/15/6
f 9/16/7 13/17/7 10/18/7
f 7/15/8 11/19/8 8/20/8
f 1/21/9 28/22/9 6/13/9
f 8/20/10 12/23/10 9/16/10
f 13/17/11 16/24/11 17/1/11
f 30/25/12 42/26/12 38/27/12
f 11/19/13 16/24/13 12/23/13
f 28/28/14 41/29/14 39/30/14
f 16/24/15 22/31/15 17/1/15
f 19/32/16 35/33/16 18/34/16
f 15/35/17 21/36/17 16/24/17
f 20/37/18 34/38/18 36/39/18
f 22/31/19 26/40/19 27/2/19
f 19/41/20 25/42/20 20/43/20
f 1/21/9 18/44/9 14/45/9
f 20/43/21 26/40/21 21/36/21
f 18/44/22 24/46/22 19/41/22
f 27/47/23 4/6/23 5/10/23
f 24/48/24 3/4/24 25/49/24
f 25/49/25 4/6/25 26/50/25
f 23/51/26 2/9/26 24/48/26
f 13/17/1 5/3/1 10/18/1
f 31/52/27 36/39/27 34/38/27
f 31/52/28 35/33/28 32/53/28
f 30/54/29 33/55/29 31/52/29
f 18/34/30 33/55/30 14/56/30
f 19/32/31 36/39/31 32/53/31
f 30/54/32 34/38/32 15/57/32
f 37/58/33 42/26/33 40/59/33
f 37/58/34 41/29/34 38/27/34
f 29/60/35 40/59/35 11/61/35
f 11/61/36 42/26/36 15/62/36
f 30/25/37 41/29/37 14/63/37
f 29/60/38 39/30/38 37/58/38
f 17/1/1 22/31/1 27/2/1
f 3/4/2 8/12/2 9/5/2
f 1/7/3 6/64/3 7/8/3
f 5/10/4 4/6/4 9/5/4
f 2/9/5 7/8/5 8/12/5
f 6/13/6 28/22/6 29/14/6
f 9/16/7 12/23/7 13/17/7
f 7/15/8 29/14/8 11/19/8
f 1/21/9 14/45/9 28/22/9
f 8/20/10 11/19/10 12/23/10
f 13/17/39 12/23/39 16/24/39
f 30/25/40 15/62/40 42/26/40
f 11/19/41 15/35/41 16/24/41
f 28/28/14 14/63/14 41/29/14
f 16/24/15 21/36/15 22/31/15
f 19/32/42 32/53/42 35/33/42
f 15/35/17 20/43/17 21/36/17
f 20/37/18 15/57/18 34/38/18
f 22/31/19 21/36/19 26/40/19
f 19/41/20 24/46/20 25/42/20
f 1/21/43 23/65/43 18/44/43
f 20/43/21 25/42/21 26/40/21
f 18/44/22 23/65/22 24/46/22
f 27/47/23 26/50/23 4/6/23
f 24/48/44 2/9/44 3/4/44
f 25/49/25 3/4/25 4/6/25
f 23/51/45 1/7/45 2/9/45
f 13/17/1 17/1/1 5/3/1
f 31/52/46 32/53/46 36/39/46
f 31/52/28 33/55/28 35/33/28
f 30/54/47 14/56/47 33/55/47
f 18/34/30 35/33/30 33/55/30
f 19/32/48 20/37/48 36/39/48
f 30/54/49 31/52/49 34/38/49
f 37/58/33 38/27/33 42/26/33
f 37/58/50 39/30/50 41/29/50
f 29/60/51 37/58/51 40/59/51
f 11/61/36 40/59/36 42/26/36
f 30/25/52 38/27/52 41/29/52
f 29/60/53 28/28/53 39/30/53
v 3.041556 1.295485 -0.789370
v 3.032732 1.278614 -0.767943
v 3.026915 1.252480 -0.757708
v 3.025663 1.224084 -0.761410
v 3.029312 1.201035 -0.778054
v 3.023207 1.295380 -0.810103
v 3.000952 1.278432 -0.803854
v 2.990218 1.252269 -0.799175
v 2.993882 1.223901 -0.797321
v 3.010963 1.200930 -0.798788
v 3.007255 1.243830 -0.851183
v 3.008637 1.216593 -0.842360
v 3.019482 1.196710 -0.824791
v 3.058594 1.287046 -0.841377
v 3.060990 1.235601 -0.861723
v 3.055173 1.209466 -0.851489
v 3.046349 1.192596 -0.830062
v 3.076942 1.287151 -0.820644
v 3.094023 1.264179 -0.822110
v 3.097687 1.235812 -0.820256
v 3.086954 1.209649 -0.815577
v 3.064698 1.192701 -0.809328
v 3.068424 1.291371 -0.794640
v 3.079268 1.271488 -0.777071
v 3.080650 1.244251 -0.768249
v 3.072199 1.216957 -0.770538
v 3.056179 1.196921 -0.783324
v 3.031726 1.291160 -0.836107
v 3.015706 1.271123 -0.848894
v 3.062242 1.263997 -0.858022
v 3.109384 1.276425 -0.870398
v 3.111977 1.276440 -0.867468
v 3.080940 1.288635 -0.851826
v 3.090439 1.247340 -0.865066
v 3.090023 1.288688 -0.841563
v 3.104527 1.247421 -0.849147
v 3.027688 1.284020 -0.894028
v 3.038703 1.282333 -0.896189
v 3.034534 1.290343 -0.877810
v 3.028965 1.263709 -0.883171
v 3.039582 1.289570 -0.878801
v 3.034027 1.262934 -0.884164
vt 0.274240 0.539347
vt 0.265397 0.539709
vt 0.266768 0.532487
vt 0.231414 0.551290
vt 0.214659 0.541092
vt 0.231357 0.542861
vt 0.231940 0.569242
vt 0.215985 0.562822
vt 0.231472 0.559719
vt 0.230890 0.533338
vt 0.220414 0.530957
vt 0.213134 0.552274
vt 0.289666 0.544440
vt 0.282983 0.540904
vt 0.290637 0.536818
vt 0.279682 0.529141
vt 0.275518 0.536619
vt 0.273707 0.532162
vt 0.280945 0.538772
vt 0.286431 0.530872
vt 0.290637 0.551375
vt 0.284312 0.543753
vt 0.278488 0.537315
vt 0.276318 0.541045
vt 0.804698 0.251197
vt 0.792375 0.255919
vt 0.792638 0.252041
vt 0.786357 0.239035
vt 0.792578 0.249274
vt 0.791489 0.249454
vt 0.271776 0.541127
vt 0.760733 0.199751
vt 0.757502 0.209505
vt 0.750621 0.206121
vt 0.278108 0.542645
vt 0.273009 0.544115
vt 0.772804 0.201934
vt 0.766718 0.213101
vt 0.766203 0.208706
vt 0.264007 0.548518
vt 0.277612 0.547903
vt 0.268747 0.555467
vt 0.275021 0.546378
vt 0.280714 0.548498
vt 0.281954 0.545638
vt 0.276612 0.557409
vt 0.240880 0.530957
vt 0.248168 0.561486
vt 0.249693 0.550306
vt 0.246843 0.539760
vt 0.242415 0.571620
vt 0.762287 0.211045
vt 0.762255 0.210544
vt 0.761023 0.221925
vt 0.757316 0.212491
vt 0.750922 0.216572
vt 0.772804 0.220841
vt 0.791613 0.252007
vt 0.791097 0.255536
vt 0.780068 0.250772
vt 0.780487 0.263708
vt 0.804698 0.264828
vt 0.798786 0.238814
vt 0.221949 0.571626
vt 0.283377 0.553479
vn -0.1277 -0.9848 0.1180
vn -0.7477 -0.0533 0.6619
vn -0.4742 0.7761 0.4157
vn -0.6414 -0.5133 0.5702
vn -0.6899 0.3919 0.6086
vn -0.6292 0.7079 -0.3210
vn -0.7963 -0.5815 -0.1665
vn -0.8896 0.3040 -0.3408
vn 0.1277 0.9848 -0.1180
vn -0.9473 -0.1412 -0.2874
vn -0.2385 -0.7129 -0.6595
vn 0.5897 -0.5234 -0.6151
vn -0.2285 -0.3105 -0.9227
vn 0.1496 0.9887 -0.0093
vn 0.4742 -0.7761 -0.4157
vn 0.7164 0.5017 0.4848
vn 0.6900 -0.3919 -0.6086
vn 0.3269 -0.9012 -0.2847
vn 0.6292 -0.7079 0.3210
vn 0.9473 0.1412 0.2874
vn 0.8896 -0.3040 0.3408
vn 0.7963 0.5815 0.1665
vn 0.0714 -0.5765 0.8140
vn 0.2285 0.3105 0.9227
vn 0.1708 -0.1348 0.9760
vn 0.2385 0.7129 0.6595
vn 0.6406 -0.5207 -0.5643
vn 0.2537 0.9397 -0.2293
vn -0.3372 0.4621 -0.8202
vn -0.0519 0.9978 0.0408
vn 0.9305 -0.0076 0.3662
vn -0.1646 0.1346 -0.9771
vn -0.2386 -0.4694 -0.8501
vn 0.0651 0.9201 -0.3862
vn -0.8655 0.3015 -0.4000
vn -0.2364 -0.7452 -0.6235
vn 0.8232 0.4122 -0.3904
vn -0.7007 0.7132 0.0178
vn -0.8896 0.3041 -0.3408
vn 0.6769 0.0657 -0.7332
vn 0.7708 0.4685 0.4317
vn 0.6899 -0.3919 -0.6086
vn 0.9473 0.1411 0.2874
vn 0.8896 -0.3041 0.3408
vn 0.1708 -0.1347 0.9760
vn 0.6406 -0.5208 -0.5643
vn -0.3966 0.4954 -0.7729
vn 0.9492 0.1410 0.2814
vn -0.2503 -0.0144 -0.9681
vn 0.0652 0.9201 -0.3862
vn -0.9244 -0.2234 -0.3092
vn -0.2365 -0.7452 -0.6236
vn 0.8173 0.5161 -0.2561
vn -0.7592 0.6477 -0.0638
s off
f 59/66/54 69/67/54 47/68/54
f 45/69/55 51/70/55 46/71/55
f 43/72/56 49/73/56 44/74/56
f 47/75/57 51/70/57 52/76/57
f 44/74/58 50/77/58 45/69/58
f 48/78/59 71/79/59 49/80/59
f 51/81/60 55/82/60 52/83/60
f 49/80/61 53/84/61 50/85/61
f 43/86/62 70/87/62 48/78/62
f 50/85/63 54/88/63 51/81/63
f 55/82/64 58/89/64 59/66/64
f 72/90/65 84/91/65 80/92/65
f 53/84/66 58/89/66 54/88/66
f 70/93/67 83/94/67 81/95/67
f 58/89/68 64/96/68 59/66/68
f 61/97/69 77/98/69 60/99/69
f 57/100/70 63/101/70 58/89/70
f 62/102/71 76/103/71 78/104/71
f 64/96/72 68/105/72 69/67/72
f 61/106/73 67/107/73 62/108/73
f 43/86/62 60/109/62 56/110/62
f 62/108/74 68/105/74 63/101/74
f 60/109/75 66/111/75 61/106/75
f 69/112/76 46/71/76 47/75/76
f 66/113/77 45/69/77 67/114/77
f 67/114/78 46/71/78 68/115/78
f 65/116/79 44/74/79 66/113/79
f 55/82/54 47/68/54 52/83/54
f 73/117/80 78/104/80 76/103/80
f 73/117/81 77/98/81 74/118/81
f 72/119/82 75/120/82 73/117/82
f 60/99/83 75/120/83 56/121/83
f 61/97/84 78/104/84 74/118/84
f 72/119/85 76/103/85 57/122/85
f 79/123/86 84/91/86 82/124/86
f 79/123/87 83/94/87 80/92/87
f 71/125/88 82/124/88 53/126/88
f 53/126/89 84/91/89 57/127/89
f 72/90/90 83/94/90 56/128/90
f 71/125/91 81/95/91 79/123/91
f 59/66/54 64/96/54 69/67/54
f 45/69/55 50/77/55 51/70/55
f 43/72/56 48/129/56 49/73/56
f 47/75/57 46/71/57 51/70/57
f 44/74/58 49/73/58 50/77/58
f 48/78/59 70/87/59 71/79/59
f 51/81/60 54/88/60 55/82/60
f 49/80/92 71/79/92 53/84/92
f 43/86/62 56/110/62 70/87/62
f 50/85/63 53/84/63 54/88/63
f 55/82/64 54/88/64 58/89/64
f 72/90/93 57/127/93 84/91/93
f 53/84/66 57/100/66 58/89/66
f 70/93/67 56/128/67 83/94/67
f 58/89/68 63/101/68 64/96/68
f 61/97/94 74/118/94 77/98/94
f 57/100/95 62/108/95 63/101/95
f 62/102/71 57/122/71 76/103/71
f 64/96/72 63/101/72 68/105/72
f 61/106/96 66/111/96 67/107/96
f 43/86/62 65/130/62 60/109/62
f 62/108/97 67/107/97 68/105/97
f 60/109/75 65/130/75 66/111/75
f 69/112/76 68/115/76 46/71/76
f 66/113/77 44/74/77 45/69/77
f 67/114/98 45/69/98 46/71/98
f 65/116/79 43/72/79 44/74/79
f 55/82/54 59/66/54 47/68/54
f 73/117/99 74/118/99 78/104/99
f 73/117/81 75/120/81 77/98/81
f 72/119/100 56/121/100 75/120/100
f 60/99/83 77/98/83 75/120/83
f 61/97/101 62/102/101 78/104/101
f 72/119/102 73/117/102 76/103/102
f 79/123/86 80/92/86 84/91/86
f 79/123/103 81/95/103 83/94/103
f 71/125/104 79/123/104 82/124/104
f 53/126/105 82/124/105 84/91/105
f 72/90/106 80/92/106 83/94/106
f 71/125/107 70/93/107 81/95/107
