# Blender v2.81 (sub 16) OBJ File: 'garbage.blend'
# www.blender.org
v 0.021997 1.699618 -1.165050
v 0.026685 1.673167 -1.155051
v 0.016870 1.649086 -1.142994
v -0.004816 1.633827 -1.132109
v -0.032563 1.631479 -1.125313
v 0.015482 1.716875 -1.144403
v 0.015400 1.703058 -1.119290
v 0.003840 1.683601 -1.101701
v -0.016100 1.663718 -1.096348
v -0.039078 1.648736 -1.104666
v -0.040466 1.716526 -1.106075
v -0.054471 1.692232 -1.100137
v -0.061231 1.665199 -1.106853
v -0.022309 1.732543 -1.169425
v -0.071742 1.714936 -1.151743
v -0.081556 1.690855 -1.139686
v -0.076869 1.664404 -1.129687
v -0.015793 1.715285 -1.190071
v -0.038771 1.700304 -1.198390
v -0.058711 1.680421 -1.193037
v -0.070271 1.660964 -1.175447
v -0.070353 1.647147 -1.150334
v 0.006360 1.698823 -1.187884
v -0.000401 1.671790 -1.194601
v -0.014405 1.647496 -1.188662
v -0.031901 1.632450 -1.171659
v -0.048200 1.630684 -1.148147
v -0.006671 1.733338 -1.146591
v -0.022970 1.731572 -1.123079
v -0.050056 1.730195 -1.162629
v -0.065728 1.743774 -1.208454
v -0.064807 1.741335 -1.211372
v -0.035596 1.739724 -1.188995
v -0.076023 1.722614 -1.182386
v -0.032370 1.731182 -1.199215
v -0.071021 1.709363 -1.198238
v -0.046316 1.773326 -1.130736
v -0.052727 1.773000 -1.140097
v -0.034215 1.764434 -1.141887
v -0.054181 1.751922 -1.127260
v -0.037153 1.764284 -1.146177
v -0.057128 1.751772 -1.131563
vt 0.274240 0.539347
vt 0.265397 0.539709
vt 0.266768 0.532487
vt 0.231414 0.551290
vt 0.214659 0.541092
vt 0.231357 0.542861
vt 0.231940 0.569242
vt 0.215985 0.562822
vt 0.231472 0.559719
vt 0.230890 0.533338
vt 0.220414 0.530957
vt 0.213134 0.552274
vt 0.289666 0.544440
vt 0.282983 0.540904
vt 0.290637 0.536818
vt 0.279682 0.529141
vt 0.275518 0.536619
vt 0.273707 0.532162
vt 0.280945 0.538772
vt 0.286431 0.530872
vt 0.290637 0.551375
vt 0.284312 0.543753
vt 0.278488 0.537315
vt 0.276318 0.541045
vt 0.804698 0.251197
vt 0.792375 0.255919
vt 0.792638 0.252041
vt 0.786357 0.239035
vt 0.792578 0.249274
vt 0.791489 0.249454
vt 0.271776 0.541127
vt 0.760733 0.199751
vt 0.757502 0.209505
vt 0.750621 0.206121
vt 0.278108 0.542645
vt 0.273009 0.544115
vt 0.772804 0.201934
vt 0.766718 0.213101
vt 0.766203 0.208706
vt 0.264007 0.548518
vt 0.277612 0.547903
vt 0.268747 0.555467
vt 0.275021 0.546378
vt 0.280714 0.548498
vt 0.281954 0.545638
vt 0.276612 0.557409
vt 0.240880 0.530957
vt 0.248168 0.561486
vt 0.249693 0.550306
vt 0.246843 0.539760
vt 0.242415 0.571620
vt 0.762287 0.211045
vt 0.762255 0.210544
vt 0.761023 0.221925
vt 0.757316 0.212491
vt 0.750922 0.216572
vt 0.772804 0.220841
vt 0.791613 0.252007
vt 0.791097 0.255536
vt 0.780068 0.250772
vt 0.780487 0.263708
vt 0.804698 0.264828
vt 0.798786 0.238814
vt 0.221949 0.571626
vt 0.283377 0.553479
vn -0.5689 -0.7104 0.4143
vn 0.6391 -0.4789 0.6019
vn 0.9681 0.2181 0.1232
vn 0.2233 -0.7121 0.6657
vn 0.8962 -0.1577 0.4146
vn 0.5162 0.7497 0.4142
vn -0.2286 -0.1805 0.9566
vn 0.3139 0.5273 0.7896
vn 0.5689 0.7104 -0.4143
vn 0.0567 0.2061 0.9769
vn -0.8243 0.0664 0.5622
vn -0.9567 0.0866 -0.2779
vn -0.7109 0.5244 0.4686
vn 0.6316 0.6282 -0.4544
vn -0.9681 -0.2181 -0.1232
vn 0.3994 -0.1071 -0.9105
vn -0.8962 0.1577 -0.4146
vn -0.9218 -0.3863 0.0320
vn -0.5162 -0.7497 -0.4142
vn -0.0567 -0.2061 -0.9769
vn -0.3139 -0.5273 -0.7896
vn 0.2286 0.1805 -0.9566
vn 0.0795 -0.9966 -0.0197
vn 0.7109 -0.5244 -0.4686
vn 0.4538 -0.8456 -0.2813
vn 0.8243 -0.0665 -0.5622
vn -0.9412 0.0453 -0.3349
vn 0.4236 0.7563 -0.4985
vn -0.0694 0.9498 0.3052
vn 0.7403 0.6121 -0.2780
vn -0.1055 -0.3602 -0.9269
vn -0.4567 0.8458 0.2757
vn -0.7731 0.3679 0.5166
vn 0.3787 0.8789 -0.2900
vn 0.2667 0.5689 0.7779
vn -0.8252 0.0181 0.5645
vn -0.2460 0.4952 -0.8332
vn 0.7562 0.5002 0.4218
vn -0.8243 0.0665 0.5622
vn -0.6498 0.5470 -0.5278
vn 0.3240 -0.0923 -0.9415
vn 0.0795 -0.9966 -0.0198
vn 0.8243 -0.0664 -0.5622
vn 0.0042 0.9397 0.3419
vn -0.0613 -0.2017 -0.9775
vn -0.5248 0.7504 0.4018
vn -0.7731 0.3680 0.5166
vn 0.3787 0.8789 -0.2899
vn -0.0223 0.1682 0.9855
vn -0.0878 0.4597 -0.8837
vn 0.6803 0.5253 0.5111
s off
f 17/1/1 27/2/1 5/3/1
f 3/4/2 9/5/2 4/6/2
f 1/7/3 7/8/3 2/9/3
f 5/10/4 9/5/4 10/11/4
f 2/9/5 8/12/5 3/4/5
f 6/13/6 29/14/6 7/15/6
f 9/16/7 13/17/7 10/18/7
f 7/15/8 11/19/8 8/20/8
f 1/21/9 28/22/9 6/13/9
f 8/20/10 12/23/10 9/16/10
f 13/17/11 16/24/11 17/1/11
f 30/25/12 42/26/12 38/27/12
f 11/19/13 16/24/13 12/23/13
f 28/28/14 41/29/14 39/30/14
f 16/24/15 22/31/15 17/1/15
f 19/32/16 35/33/16 18/34/16
f 15/35/17 21/36/17 16/24/17
f 20/37/18 34/38/18 36/39/18
f 22/31/19 26/40/19 27/2/19
f 19/41/20 25/42/20 20/43/20
f 1/21/9 18/44/9 14/45/9
f 20/43/21 26/40/21 21/36/21
f 18/44/22 24/46/22 19/41/22
f 27/47/23 4/6/23 5/10/23
f 24/48/24 3/4/24 25/49/24
f 25/49/25 4/6/25 26/50/25
f 23/51/26 2/9/26 24/48/26
f 13/17/1 5/3/1 10/18/1
f 31/52/27 36/39/27 34/38/27
f 31/52/28 35/33/28 32/53/28
f 30/54/29 33/55/29 31/52/29
f 18/34/30 33/55/30 14/56/30
f 19/32/31 36/39/31 32/53/31
f 30/54/32 34/38/32 15/57/32
f 37/58/33 42/26/33 40/59/33
f 37/58/34 41/29/34 38/27/34
f 29/60/35 40/59/35 11/61/35
f 11/61/36 42/26/36 15/62/36
f 30/25/37 41/29/37 14/63/37
f 29/60/38 39/30/38 37/58/38
f 17/1/1 22/31/1 27/2/1
f 3/4/2 8/12/2 9/5/2
f 1/7/3 6/64/3 7/8/3
f 5/10/4 4/6/4 9/5/4
f 2/9/5 7/8/5 8/12/5
f 6/13/6 28/22/6 29/14/6
f 9/16/7 12/23/7 13/17/7
f 7/15/8 29/14/8 11/19/8
f 1/21/9 14/45/9 28/22/9
f 8/20/10 11/19/10 12/23/10
f 13/17/39 12/23/39 16/24/39
f 30/25/40 15/62/40 42/26/40
f 11/19/13 15/35/13 16/24/13
f 28/28/14 14/63/14 41/29/14
f 16/24/15 21/36/15 22/31/15
f 19/32/41 32/53/41 35/33/41
f 15/35/17 20/43/17 21/36/17
f 20/37/18 15/57/18 34/38/18
f 22/31/19 21/36/19 26/40/19
f 19/41/20 24/46/20 25/42/20
f 1/21/9 23/65/9 18/44/9
f 20/43/21 25/42/21 26/40/21
f 18/44/22 23/65/22 24/46/22
f 27/47/42 26/50/42 4/6/42
f 24/48/24 2/9/24 3/4/24
f 25/49/25 3/4/25 4/6/25
f 23/51/43 1/7/43 2/9/43
f 13/17/1 17/1/1 5/3/1
f 31/52/27 32/53/27 36/39/27
f 31/52/28 33/55/28 35/33/28
f 30/54/44 14/56/44 33/55/44
f 18/34/30 35/33/30 33/55/30
f 19/32/45 20/37/45 36/39/45
f 30/54/46 31/52/46 34/38/46
f 37/58/47 38/27/47 42/26/47
f 37/58/48 39/30/48 41/29/48
f 29/60/49 37/58/49 40/59/49
f 11/61/36 40/59/36 42/26/36
f 30/25/50 38/27/50 41/29/50
f 29/60/51 28/28/51 39/30/51
v 2.667042 0.995995 -2.498523
v 2.670886 0.982629 -2.473459
v 2.669668 0.958784 -2.457600
v 2.663717 0.930848 -2.455194
v 2.654625 0.906308 -2.466886
v 2.640114 0.997517 -2.504776
v 2.624244 0.985266 -2.484291
v 2.615812 0.961828 -2.470106
v 2.617075 0.933485 -2.466025
v 2.627697 0.907830 -2.473139
v 2.598142 0.946563 -2.520316
v 2.601773 0.920265 -2.509508
v 2.618862 0.900198 -2.498244
v 2.649372 0.980729 -2.548733
v 2.634329 0.928253 -2.558019
v 2.633112 0.904408 -2.542159
v 2.636955 0.891043 -2.517095
v 2.676301 0.979207 -2.542479
v 2.686922 0.953552 -2.549593
v 2.688186 0.925209 -2.545512
v 2.679753 0.901772 -2.531328
v 2.663884 0.889521 -2.510842
v 2.685136 0.986840 -2.517374
v 2.702224 0.966772 -2.506111
v 2.705856 0.940474 -2.495302
v 2.695056 0.914992 -2.487845
v 2.672719 0.897153 -2.485737
v 2.631279 0.989884 -2.529881
v 2.608942 0.972045 -2.527773
v 2.640281 0.956189 -2.560425
v 2.672109 0.959169 -2.599258
v 2.675915 0.958954 -2.598375
v 2.661350 0.977568 -2.570125
v 2.657177 0.934354 -2.579396
v 2.674679 0.976815 -2.567029
v 2.677852 0.933185 -2.574595
v 2.593328 0.979136 -2.573083
v 2.600746 0.975383 -2.580812
v 2.608969 0.985387 -2.564950
v 2.598746 0.959811 -2.561715
v 2.612369 0.983666 -2.568492
v 2.602155 0.958086 -2.565267
vt 0.274240 0.539347
vt 0.265397 0.539709
vt 0.266768 0.532487
vt 0.231414 0.551290
vt 0.214659 0.541092
vt 0.231357 0.542861
vt 0.231940 0.569242
vt 0.215985 0.562822
vt 0.231472 0.559719
vt 0.230890 0.533338
vt 0.220414 0.530957
vt 0.213134 0.552274
vt 0.289666 0.544440
vt 0.282983 0.540904
vt 0.290637 0.536818
vt 0.279682 0.529141
vt 0.275518 0.536619
vt 0.273707 0.532162
vt 0.280945 0.538772
vt 0.286431 0.530872
vt 0.290637 0.551375
vt 0.284312 0.543753
vt 0.278488 0.537315
vt 0.276318 0.541045
vt 0.804698 0.251197
vt 0.792375 0.255919
vt 0.792638 0.252041
vt 0.786357 0.239035
vt 0.792578 0.249274
vt 0.791489 0.249454
vt 0.271776 0.541127
vt 0.760733 0.199751
vt 0.757502 0.209505
vt 0.750621 0.206121
vt 0.278108 0.542645
vt 0.273009 0.544115
vt 0.772804 0.201934
vt 0.766718 0.213101
vt 0.766203 0.208706
vt 0.264007 0.548518
vt 0.277612 0.547903
vt 0.268747 0.555467
vt 0.275021 0.546378
vt 0.280714 0.548498
vt 0.281954 0.545638
vt 0.276612 0.557409
vt 0.240880 0.530957
vt 0.248168 0.561486
vt 0.249693 0.550306
vt 0.246843 0.539760
vt 0.242415 0.571620
vt 0.762287 0.211045
vt 0.762255 0.210544
vt 0.761023 0.221925
vt 0.757316 0.212491
vt 0.750922 0.216572
vt 0.772804 0.220841
vt 0.791613 0.252007
vt 0.791097 0.255536
vt 0.780068 0.250772
vt 0.780487 0.263708
vt 0.804698 0.264828
vt 0.798786 0.238814
vt 0.221949 0.571626
vt 0.283377 0.553479
vn -0.1295 -0.9351 0.3299
vn -0.2173 0.1296 0.9674
vn -0.0612 0.8768 0.4769
vn -0.2307 -0.3475 0.9088
vn -0.1588 0.5524 0.8183
vn -0.6249 0.7805 -0.0174
vn -0.7944 -0.4439 0.4145
vn -0.8853 0.4283 0.1813
vn 0.1295 0.9351 -0.3299
vn -0.9438 0.0055 0.3305
vn -0.6485 -0.7085 -0.2784
vn 0.0616 -0.6644 -0.7449
vn -0.7557 -0.3355 -0.5624
vn 0.2113 0.9435 -0.2554
vn 0.0612 -0.8768 -0.4769
vn 0.9093 0.4040 -0.0994
vn 0.1588 -0.5524 -0.8183
vn 0.0075 -0.9637 -0.2670
vn 0.6249 -0.7805 0.0174
vn 0.9438 -0.0055 -0.3305
vn 0.8853 -0.4283 -0.1813
vn 0.7944 0.4439 -0.4145
vn 0.4790 -0.5158 0.7103
vn 0.7557 0.3355 0.5624
vn 0.6972 -0.0873 0.7115
vn 0.6485 0.7085 0.2784
vn 0.1326 -0.6668 -0.7334
vn 0.1610 0.8602 -0.4839
vn -0.7074 0.4497 -0.5453
vn 0.0797 0.9916 -0.1019
vn 0.9620 -0.1425 -0.2329
vn -0.6928 0.0859 -0.7160
vn -0.7368 -0.4841 -0.4720
vn -0.0846 0.8620 -0.4998
vn -0.9009 0.4170 0.1203
vn -0.6289 -0.7378 -0.2453
vn 0.4725 0.2302 -0.8507
vn -0.4830 0.8243 0.2954
vn -0.7945 -0.4439 0.4145
vn 0.1198 -0.1105 -0.9866
vn 0.9186 0.3578 -0.1677
vn 0.4790 -0.5159 0.7102
vn 0.1610 0.8602 -0.4838
vn -0.7241 0.4964 -0.4788
vn 0.9417 -0.0065 -0.3364
vn -0.7710 -0.0446 -0.6353
vn -0.7368 -0.4842 -0.4720
vn -0.9462 -0.0809 0.3134
vn 0.5568 0.3436 -0.7563
vn -0.5843 0.7640 0.2737
s off
f 59/66/52 69/67/52 47/68/52
f 45/69/53 51/70/53 46/71/53
f 43/72/54 49/73/54 44/74/54
f 47/75/55 51/70/55 52/76/55
f 44/74/56 50/77/56 45/69/56
f 48/78/57 71/79/57 49/80/57
f 51/81/58 55/82/58 52/83/58
f 49/80/59 53/84/59 50/85/59
f 43/86/60 70/87/60 48/78/60
f 50/85/61 54/88/61 51/81/61
f 55/82/62 58/89/62 59/66/62
f 72/90/63 84/91/63 80/92/63
f 53/84/64 58/89/64 54/88/64
f 70/93/65 83/94/65 81/95/65
f 58/89/66 64/96/66 59/66/66
f 61/97/67 77/98/67 60/99/67
f 57/100/68 63/101/68 58/89/68
f 62/102/69 76/103/69 78/104/69
f 64/96/70 68/105/70 69/67/70
f 61/106/71 67/107/71 62/108/71
f 43/86/60 60/109/60 56/110/60
f 62/108/72 68/105/72 63/101/72
f 60/109/73 66/111/73 61/106/73
f 69/112/74 46/71/74 47/75/74
f 66/113/75 45/69/75 67/114/75
f 67/114/76 46/71/76 68/115/76
f 65/116/77 44/74/77 66/113/77
f 55/82/52 47/68/52 52/83/52
f 73/117/78 78/104/78 76/103/78
f 73/117/79 77/98/79 74/118/79
f 72/119/80 75/120/80 73/117/80
f 60/99/81 75/120/81 56/121/81
f 61/97/82 78/104/82 74/118/82
f 72/119/83 76/103/83 57/122/83
f 79/123/84 84/91/84 82/124/84
f 79/123/85 83/94/85 80/92/85
f 71/125/86 82/124/86 53/126/86
f 53/126/87 84/91/87 57/127/87
f 72/90/88 83/94/88 56/128/88
f 71/125/89 81/95/89 79/123/89
f 59/66/52 64/96/52 69/67/52
f 45/69/53 50/77/53 51/70/53
f 43/72/54 48/129/54 49/73/54
f 47/75/55 46/71/55 51/70/55
f 44/74/56 49/73/56 50/77/56
f 48/78/57 70/87/57 71/79/57
f 51/81/90 54/88/90 55/82/90
f 49/80/59 71/79/59 53/84/59
f 43/86/60 56/110/60 70/87/60
f 50/85/61 53/84/61 54/88/61
f 55/82/62 54/88/62 58/89/62
f 72/90/91 57/127/91 84/91/91
f 53/84/64 57/100/64 58/89/64
f 70/93/65 56/128/65 83/94/65
f 58/89/66 63/101/66 64/96/66
f 61/97/92 74/118/92 77/98/92
f 57/100/68 62/108/68 63/101/68
f 62/102/69 57/122/69 76/103/69
f 64/96/70 63/101/70 68/105/70
f 61/106/71 66/111/71 67/107/71
f 43/86/60 65/130/60 60/109/60
f 62/108/72 67/107/72 68/105/72
f 60/109/73 65/130/73 66/111/73
f 69/112/93 68/115/93 46/71/93
f 66/113/75 44/74/75 45/69/75
f 67/114/76 45/69/76 46/71/76
f 65/116/77 43/72/77 44/74/77
f 55/82/52 59/66/52 47/68/52
f 73/117/78 74/118/78 78/104/78
f 73/117/94 75/120/94 77/98/94
f 72/119/95 56/121/95 75/120/95
f 60/99/81 77/98/81 75/120/81
f 61/97/96 62/102/96 78/104/96
f 72/119/97 73/117/97 76/103/97
f 79/123/98 80/92/98 84/91/98
f 79/123/85 81/95/85 83/94/85
f 71/125/99 79/123/99 82/124/99
f 53/126/87 82/124/87 84/91/87
f 72/90/100 80/92/100 83/94/100
f 71/125/101 70/93/101 81/95/101
