# Blender v2.81 (sub 16) OBJ File: 'garbage.blend'
# www.blender.org
v -0.528957 2.284415 -0.848121
v -0.525832 2.259776 -0.862430
v -0.530304 2.231540 -0.864512
v -0.541173 2.207273 -0.853808
v -0.555529 2.193477 -0.833188
v -0.514338 2.284004 -0.824612
v -0.500512 2.259064 -0.821711
v -0.501066 2.230718 -0.817493
v -0.515853 2.206561 -0.813089
v -0.540910 2.193066 -0.809679
v -0.524944 2.245530 -0.769779
v -0.536532 2.219388 -0.771767
v -0.552849 2.200472 -0.785821
v -0.552835 2.299227 -0.800406
v -0.578060 2.261164 -0.769082
v -0.582532 2.232928 -0.771164
v -0.579407 2.208289 -0.785473
v -0.567454 2.299639 -0.823915
v -0.592511 2.286144 -0.820505
v -0.607298 2.261987 -0.816101
v -0.607852 2.233640 -0.811883
v -0.594026 2.208700 -0.808982
v -0.555515 2.292232 -0.847773
v -0.571832 2.273316 -0.861827
v -0.583420 2.247175 -0.863815
v -0.587173 2.220813 -0.853205
v -0.582087 2.201294 -0.832840
v -0.526277 2.291410 -0.800754
v -0.521191 2.271892 -0.780389
v -0.567191 2.285431 -0.779786
v -0.606026 2.317373 -0.781012
v -0.608092 2.317431 -0.784334
v -0.573447 2.311999 -0.795599
v -0.600271 2.283260 -0.774974
v -0.580684 2.312203 -0.807236
v -0.611495 2.283576 -0.793024
v -0.531073 2.301489 -0.743330
v -0.541961 2.304693 -0.743187
v -0.533140 2.304552 -0.761666
v -0.539529 2.280768 -0.748914
v -0.538130 2.306021 -0.761600
v -0.544533 2.282241 -0.748849
vt 0.274240 0.539347
vt 0.265397 0.539709
vt 0.266768 0.532487
vt 0.231414 0.551290
vt 0.214659 0.541092
vt 0.231357 0.542861
vt 0.231940 0.569242
vt 0.215985 0.562822
vt 0.231472 0.559719
vt 0.230890 0.533338
vt 0.220414 0.530957
vt 0.213134 0.552274
vt 0.289666 0.544440
vt 0.282983 0.540904
vt 0.290637 0.536818
vt 0.279682 0.529141
vt 0.275518 0.536619
vt 0.273707 0.532162
vt 0.280945 0.538772
vt 0.286431 0.530872
vt 0.290637 0.551375
vt 0.284312 0.543753
vt 0.278488 0.537315
vt 0.276318 0.541045
vt 0.804698 0.251197
vt 0.792375 0.255919
vt 0.792638 0.252041
vt 0.786357 0.239035
vt 0.792578 0.249274
vt 0.791489 0.249454
vt 0.271776 0.541127
vt 0.760733 0.199751
vt 0.757502 0.209505
vt 0.750621 0.206121
vt 0.278108 0.542645
vt 0.273009 0.544115
vt 0.772804 0.201934
vt 0.766718 0.213101
vt 0.766203 0.208706
vt 0.264007 0.548518
vt 0.277612 0.547903
vt 0.268747 0.555467
vt 0.275021 0.546378
vt 0.280714 0.548498
vt 0.281954 0.545638
vt 0.276612 0.557409
vt 0.240880 0.530957
vt 0.248168 0.561486
vt 0.249693 0.550306
vt 0.246843 0.539760
vt 0.242415 0.571620
vt 0.762287 0.211045
vt 0.762255 0.210544
vt 0.761023 0.221925
vt 0.757316 0.212491
vt 0.750922 0.216572
vt 0.772804 0.220841
vt 0.791613 0.252007
vt 0.791097 0.255536
vt 0.780068 0.250772
vt 0.780487 0.263708
vt 0.804698 0.264828
vt 0.798786 0.238814
vt 0.221949 0.571626
vt 0.283377 0.553479
vn -0.2770 -0.9482 0.1557
vn 0.7194 -0.5236 -0.4565
vn 0.7882 0.3808 -0.4835
vn 0.4255 -0.8607 -0.2796
vn 0.8446 -0.0949 -0.5269
vn 0.8305 0.4910 0.2632
vn 0.4677 -0.7504 0.4670
vn 0.8991 0.0472 0.4353
vn 0.2770 0.9482 -0.1557
vn 0.7738 -0.3815 0.5057
vn -0.1391 -0.5105 0.8486
vn -0.8082 -0.0552 0.5863
vn -0.0082 -0.0722 0.9974
vn 0.2692 0.9262 -0.2641
vn -0.7882 -0.3807 0.4835
vn -0.3976 0.5532 -0.7321
vn -0.8446 0.0949 0.5269
vn -0.6934 -0.5848 0.4210
vn -0.8305 -0.4910 -0.2632
vn -0.7738 0.3815 -0.5057
vn -0.8991 -0.0472 -0.4353
vn -0.4677 0.7504 -0.4670
vn -0.2236 -0.7310 -0.6447
vn 0.0082 0.0722 -0.9974
vn -0.1171 -0.3564 -0.9270
vn 0.1391 0.5105 -0.8486
vn -0.2771 -0.9482 0.1557
vn -0.8485 -0.0499 0.5268
vn 0.1336 0.9888 -0.0658
vn 0.4171 0.5354 0.7344
vn 0.4604 0.8452 -0.2715
vn -0.8121 0.2203 -0.5404
vn 0.1112 0.3589 0.9267
vn -0.0573 -0.2379 0.9696
vn 0.2816 0.9511 0.1272
vn 0.8705 0.0720 0.4869
vn -0.1509 -0.5491 0.8220
vn -0.6147 0.7829 0.0959
vn 0.9299 0.3653 -0.0438
vn 0.7882 0.3807 -0.4835
vn -0.6569 0.5305 0.5358
vn 0.2691 0.9262 -0.2642
vn -0.4656 0.5602 -0.6851
vn 0.4892 0.5283 0.6940
vn -0.7761 0.3839 -0.5003
vn 0.1287 0.1939 0.9725
vn 0.2816 0.9511 0.1271
vn 0.7172 -0.4386 0.5416
vn -0.1509 -0.5492 0.8220
vn -0.5539 0.8307 -0.0554
vn 0.9482 0.3115 0.0617
s off
f 17/1/1 27/2/1 5/3/1
f 3/4/2 9/5/2 4/6/2
f 1/7/3 7/8/3 2/9/3
f 5/10/4 9/5/4 10/11/4
f 2/9/5 8/12/5 3/4/5
f 6/13/6 29/14/6 7/15/6
f 9/16/7 13/17/7 10/18/7
f 7/15/8 11/19/8 8/20/8
f 1/21/9 28/22/9 6/13/9
f 8/20/10 12/23/10 9/16/10
f 13/17/11 16/24/11 17/1/11
f 30/25/12 42/26/12 38/27/12
f 11/19/13 16/24/13 12/23/13
f 28/28/14 41/29/14 39/30/14
f 16/24/15 22/31/15 17/1/15
f 19/32/16 35/33/16 18/34/16
f 15/35/17 21/36/17 16/24/17
f 20/37/18 34/38/18 36/39/18
f 22/31/19 26/40/19 27/2/19
f 19/41/20 25/42/20 20/43/20
f 1/21/9 18/44/9 14/45/9
f 20/43/21 26/40/21 21/36/21
f 18/44/22 24/46/22 19/41/22
f 27/47/23 4/6/23 5/10/23
f 24/48/24 3/4/24 25/49/24
f 25/49/25 4/6/25 26/50/25
f 23/51/26 2/9/26 24/48/26
f 13/17/27 5/3/27 10/18/27
f 31/52/28 36/39/28 34/38/28
f 31/52/29 35/33/29 32/53/29
f 30/54/30 33/55/30 31/52/30
f 18/34/31 33/55/31 14/56/31
f 19/32/32 36/39/32 32/53/32
f 30/54/33 34/38/33 15/57/33
f 37/58/34 42/26/34 40/59/34
f 37/58/35 41/29/35 38/27/35
f 29/60/36 40/59/36 11/61/36
f 11/61/37 42/26/37 15/62/37
f 30/25/38 41/29/38 14/63/38
f 29/60/39 39/30/39 37/58/39
f 17/1/1 22/31/1 27/2/1
f 3/4/2 8/12/2 9/5/2
f 1/7/40 6/64/40 7/8/40
f 5/10/4 4/6/4 9/5/4
f 2/9/5 7/8/5 8/12/5
f 6/13/6 28/22/6 29/14/6
f 9/16/7 12/23/7 13/17/7
f 7/15/8 29/14/8 11/19/8
f 1/21/9 14/45/9 28/22/9
f 8/20/10 11/19/10 12/23/10
f 13/17/11 12/23/11 16/24/11
f 30/25/41 15/62/41 42/26/41
f 11/19/13 15/35/13 16/24/13
f 28/28/42 14/63/42 41/29/42
f 16/24/15 21/36/15 22/31/15
f 19/32/43 32/53/43 35/33/43
f 15/35/17 20/43/17 21/36/17
f 20/37/18 15/57/18 34/38/18
f 22/31/19 21/36/19 26/40/19
f 19/41/20 24/46/20 25/42/20
f 1/21/9 23/65/9 18/44/9
f 20/43/21 25/42/21 26/40/21
f 18/44/22 23/65/22 24/46/22
f 27/47/23 26/50/23 4/6/23
f 24/48/24 2/9/24 3/4/24
f 25/49/25 3/4/25 4/6/25
f 23/51/26 1/7/26 2/9/26
f 13/17/1 17/1/1 5/3/1
f 31/52/28 32/53/28 36/39/28
f 31/52/29 33/55/29 35/33/29
f 30/54/44 14/56/44 33/55/44
f 18/34/31 35/33/31 33/55/31
f 19/32/45 20/37/45 36/39/45
f 30/54/46 31/52/46 34/38/46
f 37/58/34 38/27/34 42/26/34
f 37/58/47 39/30/47 41/29/47
f 29/60/48 37/58/48 40/59/48
f 11/61/49 40/59/49 42/26/49
f 30/25/50 38/27/50 41/29/50
f 29/60/51 28/28/51 39/30/51
v 0.701400 1.584126 -3.580462
v 0.712177 1.558670 -3.572882
v 0.708582 1.530661 -3.567965
v 0.691580 1.507604 -3.567029
v 0.665725 1.495676 -3.570325
v 0.683803 1.593429 -3.561217
v 0.681698 1.574783 -3.539549
v 0.673388 1.549267 -3.529475
v 0.661101 1.523717 -3.533696
v 0.648128 1.504979 -3.551080
v 0.623348 1.567747 -3.544332
v 0.617765 1.539722 -3.546562
v 0.623108 1.514220 -3.558508
v 0.651360 1.602606 -3.595318
v 0.608502 1.567622 -3.597678
v 0.604908 1.539613 -3.592762
v 0.615685 1.514157 -3.585181
v 0.668957 1.593303 -3.614563
v 0.655984 1.574566 -3.631947
v 0.643696 1.549016 -3.636168
v 0.635386 1.523499 -3.626095
v 0.633281 1.504854 -3.604426
v 0.693977 1.584063 -3.607135
v 0.699319 1.558561 -3.619081
v 0.693736 1.530535 -3.621311
v 0.678722 1.507495 -3.613228
v 0.658301 1.495613 -3.596998
v 0.658783 1.602669 -3.568645
v 0.638362 1.590788 -3.552415
v 0.625505 1.590679 -3.598614
v 0.619302 1.609251 -3.644945
v 0.621789 1.607937 -3.647665
v 0.642326 1.609876 -3.617150
v 0.610393 1.580567 -3.626748
v 0.651037 1.605271 -3.626676
v 0.623904 1.573424 -3.641525
v 0.604853 1.624390 -3.562166
v 0.601810 1.624364 -3.573102
v 0.621882 1.622293 -3.569617
v 0.604418 1.601424 -3.564265
v 0.620487 1.622281 -3.574628
v 0.603020 1.601412 -3.569291
vt 0.274240 0.539347
vt 0.265397 0.539709
vt 0.266768 0.532487
vt 0.231414 0.551290
vt 0.214659 0.541092
vt 0.231357 0.542861
vt 0.231940 0.569242
vt 0.215985 0.562822
vt 0.231472 0.559719
vt 0.230890 0.533338
vt 0.220414 0.530957
vt 0.213134 0.552274
vt 0.289666 0.544440
vt 0.282983 0.540904
vt 0.290637 0.536818
vt 0.279682 0.529141
vt 0.275518 0.536619
vt 0.273707 0.532162
vt 0.280945 0.538772
vt 0.286431 0.530872
vt 0.290637 0.551375
vt 0.284312 0.543753
vt 0.278488 0.537315
vt 0.276318 0.541045
vt 0.804698 0.251197
vt 0.792375 0.255919
vt 0.792638 0.252041
vt 0.786357 0.239035
vt 0.792578 0.249274
vt 0.791489 0.249454
vt 0.271776 0.541127
vt 0.760733 0.199751
vt 0.757502 0.209505
vt 0.750621 0.206121
vt 0.278108 0.542645
vt 0.273009 0.544115
vt 0.772804 0.201934
vt 0.766718 0.213101
vt 0.766203 0.208706
vt 0.264007 0.548518
vt 0.277612 0.547903
vt 0.268747 0.555467
vt 0.275021 0.546378
vt 0.280714 0.548498
vt 0.281954 0.545638
vt 0.276612 0.557409
vt 0.240880 0.530957
vt 0.248168 0.561486
vt 0.249693 0.550306
vt 0.246843 0.539760
vt 0.242415 0.571620
vt 0.762287 0.211045
vt 0.762255 0.210544
vt 0.761023 0.221925
vt 0.757316 0.212491
vt 0.750922 0.216572
vt 0.772804 0.220841
vt 0.791613 0.252007
vt 0.791097 0.255536
vt 0.780068 0.250772
vt 0.780487 0.263708
vt 0.804698 0.264828
vt 0.798786 0.238814
vt 0.221949 0.571626
vt 0.283377 0.553479
vn -0.3720 -0.9222 0.1057
vn 0.5749 -0.3949 0.7166
vn 0.7549 0.4591 0.4684
vn 0.2679 -0.7484 0.6067
vn 0.7431 0.0220 0.6688
vn 0.0831 0.7514 0.6546
vn -0.4039 -0.4561 0.7930
vn -0.1226 0.3987 0.9088
vn 0.3720 0.9222 -0.1057
vn -0.2907 -0.0182 0.9566
vn -0.9153 -0.3114 0.2555
vn -0.8097 -0.1374 -0.5706
vn -0.9498 0.1682 0.2639
vn 0.4681 0.8737 -0.1323
vn -0.7549 -0.4591 -0.4684
vn 0.6455 0.2291 -0.7286
vn -0.7431 -0.0220 -0.6688
vn -0.6968 -0.6373 -0.3291
vn -0.0831 -0.7514 -0.6546
vn 0.2907 0.0182 -0.9566
vn 0.1226 -0.3987 -0.9088
vn 0.4039 0.4561 -0.7930
vn 0.4283 -0.8960 -0.1171
vn 0.9498 -0.1682 -0.2639
vn 0.7816 -0.5851 -0.2161
vn 0.9153 0.3114 -0.2555
vn -0.7656 -0.1579 -0.6237
vn 0.2490 0.9414 -0.2274
vn -0.4812 0.7895 0.3809
vn 0.5225 0.8500 0.0668
vn 0.2877 -0.1506 -0.9458
vn -0.7828 0.5858 0.2099
vn -0.9634 -0.0063 0.2681
vn 0.1082 0.9936 -0.0325
vn -0.1762 0.4261 0.8873
vn -0.8997 -0.3570 0.2512
vn -0.1656 0.5794 -0.7980
vn 0.3837 0.5890 0.7112
vn -0.2908 -0.0182 0.9566
vn -0.6290 0.4377 -0.6425
vn 0.5813 0.2277 -0.7812
vn 0.2908 0.0182 -0.9566
vn -0.7656 -0.1578 -0.6236
vn -0.4219 0.7934 0.4388
vn 0.2853 0.0211 -0.9582
vn -0.8447 0.4481 0.2927
vn -0.9634 -0.0062 0.2681
vn 0.1082 0.9936 -0.0324
vn -0.3505 -0.0786 0.9333
vn -0.8997 -0.3570 0.2513
vn 0.0024 0.6048 -0.7964
vn 0.2824 0.5693 0.7721
s off
f 59/66/52 69/67/52 47/68/52
f 45/69/53 51/70/53 46/71/53
f 43/72/54 49/73/54 44/74/54
f 47/75/55 51/70/55 52/76/55
f 44/74/56 50/77/56 45/69/56
f 48/78/57 71/79/57 49/80/57
f 51/81/58 55/82/58 52/83/58
f 49/80/59 53/84/59 50/85/59
f 43/86/60 70/87/60 48/78/60
f 50/85/61 54/88/61 51/81/61
f 55/82/62 58/89/62 59/66/62
f 72/90/63 84/91/63 80/92/63
f 53/84/64 58/89/64 54/88/64
f 70/93/65 83/94/65 81/95/65
f 58/89/66 64/96/66 59/66/66
f 61/97/67 77/98/67 60/99/67
f 57/100/68 63/101/68 58/89/68
f 62/102/69 76/103/69 78/104/69
f 64/96/70 68/105/70 69/67/70
f 61/106/71 67/107/71 62/108/71
f 43/86/60 60/109/60 56/110/60
f 62/108/72 68/105/72 63/101/72
f 60/109/73 66/111/73 61/106/73
f 69/112/74 46/71/74 47/75/74
f 66/113/75 45/69/75 67/114/75
f 67/114/76 46/71/76 68/115/76
f 65/116/77 44/74/77 66/113/77
f 55/82/52 47/68/52 52/83/52
f 73/117/78 78/104/78 76/103/78
f 73/117/79 77/98/79 74/118/79
f 72/119/80 75/120/80 73/117/80
f 60/99/81 75/120/81 56/121/81
f 61/97/82 78/104/82 74/118/82
f 72/119/83 76/103/83 57/122/83
f 79/123/84 84/91/84 82/124/84
f 79/123/85 83/94/85 80/92/85
f 71/125/86 82/124/86 53/126/86
f 53/126/87 84/91/87 57/127/87
f 72/90/88 83/94/88 56/128/88
f 71/125/89 81/95/89 79/123/89
f 59/66/52 64/96/52 69/67/52
f 45/69/53 50/77/53 51/70/53
f 43/72/54 48/129/54 49/73/54
f 47/75/55 46/71/55 51/70/55
f 44/74/56 49/73/56 50/77/56
f 48/78/57 70/87/57 71/79/57
f 51/81/58 54/88/58 55/82/58
f 49/80/59 71/79/59 53/84/59
f 43/86/60 56/110/60 70/87/60
f 50/85/90 53/84/90 54/88/90
f 55/82/62 54/88/62 58/89/62
f 72/90/91 57/127/91 84/91/91
f 53/84/64 57/100/64 58/89/64
f 70/93/65 56/128/65 83/94/65
f 58/89/66 63/101/66 64/96/66
f 61/97/92 74/118/92 77/98/92
f 57/100/68 62/108/68 63/101/68
f 62/102/69 57/122/69 76/103/69
f 64/96/70 63/101/70 68/105/70
f 61/106/93 66/111/93 67/107/93
f 43/86/60 65/130/60 60/109/60
f 62/108/72 67/107/72 68/105/72
f 60/109/73 65/130/73 66/111/73
f 69/112/74 68/115/74 46/71/74
f 66/113/75 44/74/75 45/69/75
f 67/114/76 45/69/76 46/71/76
f 65/116/77 43/72/77 44/74/77
f 55/82/52 59/66/52 47/68/52
f 73/117/94 74/118/94 78/104/94
f 73/117/79 75/120/79 77/98/79
f 72/119/95 56/121/95 75/120/95
f 60/99/81 77/98/81 75/120/81
f 61/97/96 62/102/96 78/104/96
f 72/119/97 73/117/97 76/103/97
f 79/123/98 80/92/98 84/91/98
f 79/123/99 81/95/99 83/94/99
f 71/125/100 79/123/100 82/124/100
f 53/126/101 82/124/101 84/91/101
f 72/90/102 80/92/102 83/94/102
f 71/125/103 70/93/103 81/95/103
