# Blender v2.81 (sub 16) OBJ File: 'garbage.blend'
# www.blender.org
v -0.433176 2.202352 -0.987202
v -0.430500 2.174672 -0.994150
v -0.437720 2.147238 -0.990044
v -0.452900 2.127400 -0.975986
v -0.471973 2.120475 -0.955742
v -0.422846 2.207153 -0.961967
v -0.412608 2.182988 -0.950442
v -0.417059 2.156840 -0.939575
v -0.435007 2.135716 -0.932278
v -0.461643 2.125276 -0.930507
v -0.446769 2.185191 -0.902429
v -0.460737 2.160269 -0.900109
v -0.476498 2.139451 -0.911934
v -0.462887 2.230702 -0.950056
v -0.497140 2.203939 -0.915753
v -0.504359 2.176505 -0.911648
v -0.501684 2.148825 -0.918596
v -0.473217 2.225901 -0.975291
v -0.499853 2.215461 -0.973520
v -0.517801 2.194337 -0.966223
v -0.522252 2.168189 -0.955356
v -0.512014 2.144024 -0.943831
v -0.458362 2.211726 -0.993864
v -0.474123 2.190909 -1.005689
v -0.488091 2.165986 -1.003368
v -0.496522 2.143637 -0.987525
v -0.497159 2.129849 -0.962404
v -0.437701 2.221328 -0.943394
v -0.438338 2.207540 -0.918273
v -0.481960 2.223777 -0.929812
v -0.516181 2.256776 -0.946242
v -0.517641 2.256097 -0.949808
v -0.482436 2.245623 -0.952562
v -0.515409 2.225136 -0.931023
v -0.487550 2.243246 -0.965053
v -0.523341 2.221450 -0.950398
v -0.450885 2.246405 -0.892213
v -0.461210 2.250248 -0.894944
v -0.449490 2.244684 -0.910786
v -0.460570 2.225551 -0.894044
v -0.454222 2.246445 -0.912038
v -0.465316 2.227318 -0.895300
vt 0.274240 0.539347
vt 0.265397 0.539709
vt 0.266768 0.532487
vt 0.231414 0.551290
vt 0.214659 0.541092
vt 0.231357 0.542861
vt 0.231940 0.569242
vt 0.215985 0.562822
vt 0.231472 0.559719
vt 0.230890 0.533338
vt 0.220414 0.530957
vt 0.213134 0.552274
vt 0.289666 0.544440
vt 0.282983 0.540904
vt 0.290637 0.536818
vt 0.279682 0.529141
vt 0.275518 0.536619
vt 0.273707 0.532162
vt 0.280945 0.538772
vt 0.286431 0.530872
vt 0.290637 0.551375
vt 0.284312 0.543753
vt 0.278488 0.537315
vt 0.276318 0.541045
vt 0.804698 0.251197
vt 0.792375 0.255919
vt 0.792638 0.252041
vt 0.786357 0.239035
vt 0.792578 0.249274
vt 0.791489 0.249454
vt 0.271776 0.541127
vt 0.760733 0.199751
vt 0.757502 0.209505
vt 0.750621 0.206121
vt 0.278108 0.542645
vt 0.273009 0.544115
vt 0.772804 0.201934
vt 0.766718 0.213101
vt 0.766203 0.208706
vt 0.264007 0.548518
vt 0.277612 0.547903
vt 0.268747 0.555467
vt 0.275021 0.546378
vt 0.280714 0.548498
vt 0.281954 0.545638
vt 0.276612 0.557409
vt 0.240880 0.530957
vt 0.248168 0.561486
vt 0.249693 0.550306
vt 0.246843 0.539760
vt 0.242415 0.571620
vt 0.762287 0.211045
vt 0.762255 0.210544
vt 0.761023 0.221925
vt 0.757316 0.212491
vt 0.750922 0.216572
vt 0.772804 0.220841
vt 0.791613 0.252007
vt 0.791097 0.255536
vt 0.780068 0.250772
vt 0.780487 0.263708
vt 0.804698 0.264828
vt 0.798786 0.238814
vt 0.221949 0.571626
vt 0.283377 0.553479
vn -0.4045 -0.8537 0.3280
vn 0.7219 -0.6713 -0.1678
vn 0.8960 0.1876 -0.4025
vn 0.3664 -0.9301 0.0270
vn 0.9048 -0.2854 -0.3161
vn 0.8247 0.4868 0.2881
vn 0.2950 -0.6310 0.7175
vn 0.8129 0.1001 0.5738
vn 0.4045 0.8537 -0.3280
vn 0.6300 -0.2859 0.7221
vn -0.3361 -0.2597 0.9053
vn -0.8961 0.1540 0.4163
vn -0.1834 0.1925 0.9640
vn 0.4125 0.8046 -0.4272
vn -0.8960 -0.1876 0.4025
vn -0.2042 0.3670 -0.9076
vn -0.9048 0.2854 0.3161
vn -0.8157 -0.4067 0.4113
vn -0.8247 -0.4868 -0.2881
vn -0.6300 0.2859 -0.7221
vn -0.8129 -0.1001 -0.5738
vn -0.2950 0.6309 -0.7175
vn -0.1935 -0.8580 -0.4758
vn 0.1833 -0.1925 -0.9640
vn 0.0005 -0.5784 -0.8157
vn 0.3361 0.2597 -0.9053
vn -0.9250 0.1462 0.3508
vn 0.2536 0.9259 -0.2800
vn 0.3459 0.6804 0.6461
vn 0.5919 0.7120 -0.3777
vn -0.6798 0.1241 -0.7228
vn -0.0058 0.5812 0.8138
vn -0.2455 0.0289 0.9690
vn 0.3619 0.9303 -0.0590
vn 0.7791 0.1394 0.6113
vn -0.3475 -0.3032 0.8873
vn -0.5297 0.8195 -0.2187
vn 0.9593 0.2787 0.0462
vn 0.2950 -0.6309 0.7175
vn -0.6732 0.6947 0.2534
vn -0.8960 -0.1877 0.4025
vn -0.2779 0.3905 -0.8777
vn -0.2950 0.6310 -0.7175
vn 0.1834 -0.1925 -0.9640
vn -0.9249 0.1462 0.3508
vn 0.4224 0.6582 0.6232
vn 0.5919 0.7120 -0.3778
vn -0.6329 0.2897 -0.7180
vn -0.0150 0.4331 0.9012
vn -0.2456 0.0290 0.9690
vn 0.3619 0.9304 -0.0590
vn 0.5621 -0.3277 0.7594
vn -0.3476 -0.3032 0.8873
vn -0.4394 0.8219 -0.3625
vn 0.9535 0.2534 0.1632
s off
f 17/1/1 27/2/1 5/3/1
f 3/4/2 9/5/2 4/6/2
f 1/7/3 7/8/3 2/9/3
f 5/10/4 9/5/4 10/11/4
f 2/9/5 8/12/5 3/4/5
f 6/13/6 29/14/6 7/15/6
f 9/16/7 13/17/7 10/18/7
f 7/15/8 11/19/8 8/20/8
f 1/21/9 28/22/9 6/13/9
f 8/20/10 12/23/10 9/16/10
f 13/17/11 16/24/11 17/1/11
f 30/25/12 42/26/12 38/27/12
f 11/19/13 16/24/13 12/23/13
f 28/28/14 41/29/14 39/30/14
f 16/24/15 22/31/15 17/1/15
f 19/32/16 35/33/16 18/34/16
f 15/35/17 21/36/17 16/24/17
f 20/37/18 34/38/18 36/39/18
f 22/31/19 26/40/19 27/2/19
f 19/41/20 25/42/20 20/43/20
f 1/21/9 18/44/9 14/45/9
f 20/43/21 26/40/21 21/36/21
f 18/44/22 24/46/22 19/41/22
f 27/47/23 4/6/23 5/10/23
f 24/48/24 3/4/24 25/49/24
f 25/49/25 4/6/25 26/50/25
f 23/51/26 2/9/26 24/48/26
f 13/17/1 5/3/1 10/18/1
f 31/52/27 36/39/27 34/38/27
f 31/52/28 35/33/28 32/53/28
f 30/54/29 33/55/29 31/52/29
f 18/34/30 33/55/30 14/56/30
f 19/32/31 36/39/31 32/53/31
f 30/54/32 34/38/32 15/57/32
f 37/58/33 42/26/33 40/59/33
f 37/58/34 41/29/34 38/27/34
f 29/60/35 40/59/35 11/61/35
f 11/61/36 42/26/36 15/62/36
f 30/25/37 41/29/37 14/63/37
f 29/60/38 39/30/38 37/58/38
f 17/1/1 22/31/1 27/2/1
f 3/4/2 8/12/2 9/5/2
f 1/7/3 6/64/3 7/8/3
f 5/10/4 4/6/4 9/5/4
f 2/9/5 7/8/5 8/12/5
f 6/13/6 28/22/6 29/14/6
f 9/16/39 12/23/39 13/17/39
f 7/15/8 29/14/8 11/19/8
f 1/21/9 14/45/9 28/22/9
f 8/20/10 11/19/10 12/23/10
f 13/17/11 12/23/11 16/24/11
f 30/25/40 15/62/40 42/26/40
f 11/19/13 15/35/13 16/24/13
f 28/28/14 14/63/14 41/29/14
f 16/24/41 21/36/41 22/31/41
f 19/32/42 32/53/42 35/33/42
f 15/35/17 20/43/17 21/36/17
f 20/37/18 15/57/18 34/38/18
f 22/31/19 21/36/19 26/40/19
f 19/41/20 24/46/20 25/42/20
f 1/21/9 23/65/9 18/44/9
f 20/43/21 25/42/21 26/40/21
f 18/44/43 23/65/43 24/46/43
f 27/47/23 26/50/23 4/6/23
f 24/48/44 2/9/44 3/4/44
f 25/49/25 3/4/25 4/6/25
f 23/51/26 1/7/26 2/9/26
f 13/17/1 17/1/1 5/3/1
f 31/52/45 32/53/45 36/39/45
f 31/52/28 33/55/28 35/33/28
f 30/54/46 14/56/46 33/55/46
f 18/34/47 35/33/47 33/55/47
f 19/32/48 20/37/48 36/39/48
f 30/54/49 31/52/49 34/38/49
f 37/58/50 38/27/50 42/26/50
f 37/58/51 39/30/51 41/29/51
f 29/60/52 37/58/52 40/59/52
f 11/61/53 40/59/53 42/26/53
f 30/25/54 38/27/54 41/29/54
f 29/60/55 28/28/55 39/30/55
v 1.163429 1.400948 -3.555971
v 1.174781 1.377574 -3.543872
v 1.172813 1.349894 -3.536692
v 1.158054 1.325325 -3.536355
v 1.134457 1.310450 -3.542950
v 1.141741 1.409997 -3.541331
v 1.137218 1.393248 -3.518514
v 1.129439 1.367993 -3.507411
v 1.120491 1.340999 -3.510997
v 1.112769 1.319499 -3.528310
v 1.081697 1.379603 -3.532949
v 1.079145 1.351053 -3.533113
v 1.088898 1.325304 -3.541079
v 1.115687 1.412558 -3.581509
v 1.077330 1.373114 -3.587767
v 1.075362 1.345434 -3.580587
v 1.086715 1.322060 -3.568488
v 1.137374 1.403508 -3.596149
v 1.129653 1.382009 -3.613462
v 1.120704 1.355015 -3.617048
v 1.112926 1.329760 -3.605945
v 1.108402 1.313011 -3.583129
v 1.161245 1.397703 -3.583380
v 1.170998 1.371954 -3.591346
v 1.168446 1.343405 -3.591510
v 1.154271 1.319705 -3.583829
v 1.132273 1.307206 -3.570360
v 1.117870 1.415802 -3.554100
v 1.095872 1.403302 -3.540630
v 1.092089 1.397683 -3.588105
v 1.093184 1.411263 -3.636523
v 1.096248 1.409984 -3.638592
v 1.110358 1.416834 -3.605266
v 1.083555 1.383533 -3.617244
v 1.121094 1.412355 -3.612513
v 1.100207 1.376585 -3.628485
v 1.061984 1.432114 -3.559828
v 1.061089 1.430783 -3.571065
v 1.080235 1.431194 -3.563817
v 1.063992 1.409138 -3.559481
v 1.079825 1.430584 -3.568967
v 1.063581 1.408526 -3.564646
vt 0.274240 0.539347
vt 0.265397 0.539709
vt 0.266768 0.532487
vt 0.231414 0.551290
vt 0.214659 0.541092
vt 0.231357 0.542861
vt 0.231940 0.569242
vt 0.215985 0.562822
vt 0.231472 0.559719
vt 0.230890 0.533338
vt 0.220414 0.530957
vt 0.213134 0.552274
vt 0.289666 0.544440
vt 0.282983 0.540904
vt 0.290637 0.536818
vt 0.279682 0.529141
vt 0.275518 0.536619
vt 0.273707 0.532162
vt 0.280945 0.538772
vt 0.286431 0.530872
vt 0.290637 0.551375
vt 0.284312 0.543753
vt 0.278488 0.537315
vt 0.276318 0.541045
vt 0.804698 0.251197
vt 0.792375 0.255919
vt 0.792638 0.252041
vt 0.786357 0.239035
vt 0.792578 0.249274
vt 0.791489 0.249454
vt 0.271776 0.541127
vt 0.760733 0.199751
vt 0.757502 0.209505
vt 0.750621 0.206121
vt 0.278108 0.542645
vt 0.273009 0.544115
vt 0.772804 0.201934
vt 0.766718 0.213101
vt 0.766203 0.208706
vt 0.264007 0.548518
vt 0.277612 0.547903
vt 0.268747 0.555467
vt 0.275021 0.546378
vt 0.280714 0.548498
vt 0.281954 0.545638
vt 0.276612 0.557409
vt 0.240880 0.530957
vt 0.248168 0.561486
vt 0.249693 0.550306
vt 0.246843 0.539760
vt 0.242415 0.571620
vt 0.762287 0.211045
vt 0.762255 0.210544
vt 0.761023 0.221925
vt 0.757316 0.212491
vt 0.750922 0.216572
vt 0.772804 0.220841
vt 0.791613 0.252007
vt 0.791097 0.255536
vt 0.780068 0.250772
vt 0.780487 0.263708
vt 0.804698 0.264828
vt 0.798786 0.238814
vt 0.221949 0.571626
vt 0.283377 0.553479
vn -0.3021 -0.9436 0.1358
vn 0.4610 -0.2653 0.8468
vn 0.6085 0.5773 0.5445
vn 0.2129 -0.6581 0.7222
vn 0.5975 0.1613 0.7854
vn -0.1097 0.8115 0.5740
vn -0.5052 -0.4239 0.7517
vn -0.3279 0.4630 0.8235
vn 0.3021 0.9436 -0.1358
vn -0.4644 0.0364 0.8849
vn -0.9159 -0.3835 0.1184
vn -0.6711 -0.2738 -0.6889
vn -0.9937 0.0884 0.0687
vn 0.4054 0.9034 -0.1393
vn -0.6085 -0.5773 -0.5445
vn 0.7493 0.2308 -0.6207
vn -0.5975 -0.1613 -0.7855
vn -0.5624 -0.7351 -0.3786
vn 0.1097 -0.8115 -0.5740
vn 0.4645 -0.0364 -0.8848
vn 0.3279 -0.4630 -0.8235
vn 0.5052 0.4239 -0.7517
vn 0.5204 -0.8519 0.0594
vn 0.9937 -0.0884 -0.0687
vn 0.8571 -0.5150 -0.0073
vn 0.9159 0.3836 -0.1184
vn -0.6160 -0.2941 -0.7307
vn 0.2033 0.9385 -0.2790
vn -0.6129 0.7643 0.2005
vn 0.4229 0.9036 0.0678
vn 0.4744 -0.2030 -0.8566
vn -0.8572 0.5150 0.0010
vn -0.9923 -0.0854 0.0892
vn 0.0239 0.9926 -0.1194
vn -0.3787 0.4825 0.7898
vn -0.8958 -0.4274 0.1220
vn -0.0616 0.4846 -0.8726
vn 0.1879 0.6880 0.7009
vn -0.3021 -0.9436 0.1357
vn 0.6085 0.5774 0.5445
vn 0.2130 -0.6581 0.7222
vn 0.5975 0.1613 0.7855
vn -0.4645 0.0364 0.8848
vn -0.9159 -0.3836 0.1184
vn -0.5317 0.3086 -0.7887
vn 0.4054 0.9035 -0.1392
vn 0.6967 0.2179 -0.6835
vn -0.5623 -0.7351 -0.3786
vn 0.4644 -0.0364 -0.8849
vn 0.9937 -0.0885 -0.0687
vn 0.9159 0.3835 -0.1184
vn -0.6160 -0.2942 -0.7308
vn -0.5662 0.7797 0.2674
vn 0.4229 0.9037 0.0678
vn 0.4592 -0.0343 -0.8877
vn -0.9213 0.3794 0.0856
vn -0.5130 -0.0319 0.8578
vn -0.8958 -0.4275 0.1220
vn 0.1000 0.5279 -0.8434
vn 0.0790 0.6631 0.7444
s off
f 59/66/56 69/67/56 47/68/56
f 45/69/57 51/70/57 46/71/57
f 43/72/58 49/73/58 44/74/58
f 47/75/59 51/70/59 52/76/59
f 44/74/60 50/77/60 45/69/60
f 48/78/61 71/79/61 49/80/61
f 51/81/62 55/82/62 52/83/62
f 49/80/63 53/84/63 50/85/63
f 43/86/64 70/87/64 48/78/64
f 50/85/65 54/88/65 51/81/65
f 55/82/66 58/89/66 59/66/66
f 72/90/67 84/91/67 80/92/67
f 53/84/68 58/89/68 54/88/68
f 70/93/69 83/94/69 81/95/69
f 58/89/70 64/96/70 59/66/70
f 61/97/71 77/98/71 60/99/71
f 57/100/72 63/101/72 58/89/72
f 62/102/73 76/103/73 78/104/73
f 64/96/74 68/105/74 69/67/74
f 61/106/75 67/107/75 62/108/75
f 43/86/64 60/109/64 56/110/64
f 62/108/76 68/105/76 63/101/76
f 60/109/77 66/111/77 61/106/77
f 69/112/78 46/71/78 47/75/78
f 66/113/79 45/69/79 67/114/79
f 67/114/80 46/71/80 68/115/80
f 65/116/81 44/74/81 66/113/81
f 55/82/56 47/68/56 52/83/56
f 73/117/82 78/104/82 76/103/82
f 73/117/83 77/98/83 74/118/83
f 72/119/84 75/120/84 73/117/84
f 60/99/85 75/120/85 56/121/85
f 61/97/86 78/104/86 74/118/86
f 72/119/87 76/103/87 57/122/87
f 79/123/88 84/91/88 82/124/88
f 79/123/89 83/94/89 80/92/89
f 71/125/90 82/124/90 53/126/90
f 53/126/91 84/91/91 57/127/91
f 72/90/92 83/94/92 56/128/92
f 71/125/93 81/95/93 79/123/93
f 59/66/94 64/96/94 69/67/94
f 45/69/57 50/77/57 51/70/57
f 43/72/95 48/129/95 49/73/95
f 47/75/96 46/71/96 51/70/96
f 44/74/97 49/73/97 50/77/97
f 48/78/61 70/87/61 71/79/61
f 51/81/62 54/88/62 55/82/62
f 49/80/63 71/79/63 53/84/63
f 43/86/64 56/110/64 70/87/64
f 50/85/98 53/84/98 54/88/98
f 55/82/99 54/88/99 58/89/99
f 72/90/100 57/127/100 84/91/100
f 53/84/68 57/100/68 58/89/68
f 70/93/101 56/128/101 83/94/101
f 58/89/70 63/101/70 64/96/70
f 61/97/102 74/118/102 77/98/102
f 57/100/72 62/108/72 63/101/72
f 62/102/103 57/122/103 76/103/103
f 64/96/74 63/101/74 68/105/74
f 61/106/104 66/111/104 67/107/104
f 43/86/64 65/130/64 60/109/64
f 62/108/76 67/107/76 68/105/76
f 60/109/77 65/130/77 66/111/77
f 69/112/78 68/115/78 46/71/78
f 66/113/105 44/74/105 45/69/105
f 67/114/80 45/69/80 46/71/80
f 65/116/106 43/72/106 44/74/106
f 55/82/56 59/66/56 47/68/56
f 73/117/107 74/118/107 78/104/107
f 73/117/83 75/120/83 77/98/83
f 72/119/108 56/121/108 75/120/108
f 60/99/109 77/98/109 75/120/109
f 61/97/110 62/102/110 78/104/110
f 72/119/111 73/117/111 76/103/111
f 79/123/88 80/92/88 84/91/88
f 79/123/89 81/95/89 83/94/89
f 71/125/112 79/123/112 82/124/112
f 53/126/113 82/124/113 84/91/113
f 72/90/114 80/92/114 83/94/114
f 71/125/115 70/93/115 81/95/115
