# Blender v2.81 (sub 16) OBJ File: 'garbage.blend'
# www.blender.org
v -0.072192 2.132154 1.094038
v -0.086720 2.112391 1.108869
v -0.093099 2.084920 1.113989
v -0.089619 2.057100 1.108026
v -0.077212 2.036387 1.092578
v -0.080868 2.133010 1.067760
v -0.101748 2.113873 1.063353
v -0.110452 2.086631 1.061432
v -0.104647 2.058582 1.062511
v -0.085889 2.037242 1.066300
v -0.073658 2.085332 1.020071
v -0.072783 2.057457 1.026690
v -0.067492 2.036593 1.045619
v -0.035398 2.130856 1.052676
v -0.019511 2.082323 1.031265
v -0.025890 2.054851 1.036386
v -0.040419 2.035088 1.051217
v -0.026722 2.130000 1.078954
v -0.007963 2.108661 1.082744
v -0.002158 2.080612 1.083822
v -0.010862 2.053370 1.081901
v -0.031742 2.034233 1.077495
v -0.045118 2.130650 1.099635
v -0.039828 2.109785 1.118564
v -0.038952 2.081911 1.125184
v -0.042726 2.054494 1.117721
v -0.050139 2.034882 1.098176
v -0.062471 2.132360 1.047079
v -0.069884 2.112749 1.027533
v -0.022992 2.110142 1.037228
v 0.023530 2.127322 1.045629
v 0.024756 2.127201 1.049343
v -0.011077 2.135248 1.052155
v 0.007394 2.096504 1.040816
v -0.006782 2.134825 1.065162
v 0.014056 2.095848 1.060992
v -0.042781 2.131453 0.992000
v -0.031682 2.130836 0.994295
v -0.043554 2.136414 1.010019
v -0.043571 2.110207 1.000946
v -0.038468 2.136131 1.011070
v -0.038470 2.109924 1.002000
vt 0.274240 0.539347
vt 0.265397 0.539709
vt 0.266768 0.532487
vt 0.231414 0.551290
vt 0.214659 0.541092
vt 0.231357 0.542861
vt 0.231940 0.569242
vt 0.215985 0.562822
vt 0.231472 0.559719
vt 0.230890 0.533338
vt 0.220414 0.530957
vt 0.213134 0.552274
vt 0.289666 0.544440
vt 0.282983 0.540904
vt 0.290637 0.536818
vt 0.279682 0.529141
vt 0.275518 0.536619
vt 0.273707 0.532162
vt 0.280945 0.538772
vt 0.286431 0.530872
vt 0.290637 0.551375
vt 0.284312 0.543753
vt 0.278488 0.537315
vt 0.276318 0.541045
vt 0.804698 0.251197
vt 0.792375 0.255919
vt 0.792638 0.252041
vt 0.786357 0.239035
vt 0.792578 0.249274
vt 0.791489 0.249454
vt 0.271776 0.541127
vt 0.760733 0.199751
vt 0.757502 0.209505
vt 0.750621 0.206121
vt 0.278108 0.542645
vt 0.273009 0.544115
vt 0.772804 0.201934
vt 0.766718 0.213101
vt 0.766203 0.208706
vt 0.264007 0.548518
vt 0.277612 0.547903
vt 0.268747 0.555467
vt 0.275021 0.546378
vt 0.280714 0.548498
vt 0.281954 0.545638
vt 0.276612 0.557409
vt 0.240880 0.530957
vt 0.248168 0.561486
vt 0.249693 0.550306
vt 0.246843 0.539760
vt 0.242415 0.571620
vt 0.762287 0.211045
vt 0.762255 0.210544
vt 0.761023 0.221925
vt 0.757316 0.212491
vt 0.750922 0.216572
vt 0.772804 0.220841
vt 0.791613 0.252007
vt 0.791097 0.255536
vt 0.780068 0.250772
vt 0.780487 0.263708
vt 0.804698 0.264828
vt 0.798786 0.238814
vt 0.221949 0.571626
vt 0.283377 0.553479
vn -0.0523 -0.9985 -0.0152
vn -0.9355 -0.1820 0.3030
vn -0.6825 0.6876 0.2477
vn -0.7510 -0.6197 0.2278
vn -0.9118 0.2695 0.3098
vn -0.5293 0.6909 -0.4925
vn -0.5978 -0.6165 -0.5124
vn -0.7144 0.2736 -0.6441
vn 0.0523 0.9985 0.0152
vn -0.7380 -0.1778 -0.6509
vn 0.1189 -0.6504 -0.7502
vn 0.8374 -0.4065 -0.3654
vn 0.1856 -0.2215 -0.9573
vn 0.0296 0.9919 0.1236
vn 0.6825 -0.6876 -0.2477
vn 0.4096 0.4960 0.7657
vn 0.9118 -0.2695 -0.3098
vn 0.5108 -0.8371 -0.1959
vn 0.5293 -0.6909 0.4925
vn 0.7380 0.1778 0.6509
vn 0.7144 -0.2736 0.6441
vn 0.5978 0.6165 0.5124
vn -0.1875 -0.6569 0.7303
vn -0.1856 0.2215 0.9573
vn -0.2093 -0.2299 0.9504
vn -0.1190 0.6504 0.7502
vn 0.8639 -0.4057 -0.2984
vn 0.2160 0.9756 -0.0396
vn -0.0402 0.5247 -0.8504
vn -0.1751 0.9804 0.0897
vn 0.7086 0.0203 0.7053
vn 0.2154 0.2304 -0.9490
vn 0.1659 -0.3879 -0.9066
vn 0.1070 0.9598 -0.2596
vn -0.6689 0.2796 -0.6888
vn 0.1105 -0.6863 -0.7189
vn 0.8584 0.5129 0.0017
vn -0.7273 0.6530 -0.2110
vn -0.9355 -0.1820 0.3029
vn 0.1190 -0.6504 -0.7502
vn 0.8971 0.1970 -0.3954
vn 0.4837 0.4730 0.7364
vn 0.7144 -0.2736 0.6440
vn 0.2160 0.9756 -0.0395
vn -0.1167 0.5479 -0.8284
vn -0.1752 0.9804 0.0897
vn 0.7421 0.1784 0.6461
vn 0.1502 0.0753 -0.9858
vn 0.1659 -0.3879 -0.9067
vn -0.6993 -0.2551 -0.6677
vn 0.7891 0.6004 0.1297
vn -0.7416 0.5929 -0.3137
s off
f 17/1/1 27/2/1 5/3/1
f 3/4/2 9/5/2 4/6/2
f 1/7/3 7/8/3 2/9/3
f 5/10/4 9/5/4 10/11/4
f 2/9/5 8/12/5 3/4/5
f 6/13/6 29/14/6 7/15/6
f 9/16/7 13/17/7 10/18/7
f 7/15/8 11/19/8 8/20/8
f 1/21/9 28/22/9 6/13/9
f 8/20/10 12/23/10 9/16/10
f 13/17/11 16/24/11 17/1/11
f 30/25/12 42/26/12 38/27/12
f 11/19/13 16/24/13 12/23/13
f 28/28/14 41/29/14 39/30/14
f 16/24/15 22/31/15 17/1/15
f 19/32/16 35/33/16 18/34/16
f 15/35/17 21/36/17 16/24/17
f 20/37/18 34/38/18 36/39/18
f 22/31/19 26/40/19 27/2/19
f 19/41/20 25/42/20 20/43/20
f 1/21/9 18/44/9 14/45/9
f 20/43/21 26/40/21 21/36/21
f 18/44/22 24/46/22 19/41/22
f 27/47/23 4/6/23 5/10/23
f 24/48/24 3/4/24 25/49/24
f 25/49/25 4/6/25 26/50/25
f 23/51/26 2/9/26 24/48/26
f 13/17/1 5/3/1 10/18/1
f 31/52/27 36/39/27 34/38/27
f 31/52/28 35/33/28 32/53/28
f 30/54/29 33/55/29 31/52/29
f 18/34/30 33/55/30 14/56/30
f 19/32/31 36/39/31 32/53/31
f 30/54/32 34/38/32 15/57/32
f 37/58/33 42/26/33 40/59/33
f 37/58/34 41/29/34 38/27/34
f 29/60/35 40/59/35 11/61/35
f 11/61/36 42/26/36 15/62/36
f 30/25/37 41/29/37 14/63/37
f 29/60/38 39/30/38 37/58/38
f 17/1/1 22/31/1 27/2/1
f 3/4/39 8/12/39 9/5/39
f 1/7/3 6/64/3 7/8/3
f 5/10/4 4/6/4 9/5/4
f 2/9/5 7/8/5 8/12/5
f 6/13/6 28/22/6 29/14/6
f 9/16/7 12/23/7 13/17/7
f 7/15/8 29/14/8 11/19/8
f 1/21/9 14/45/9 28/22/9
f 8/20/10 11/19/10 12/23/10
f 13/17/40 12/23/40 16/24/40
f 30/25/41 15/62/41 42/26/41
f 11/19/13 15/35/13 16/24/13
f 28/28/14 14/63/14 41/29/14
f 16/24/15 21/36/15 22/31/15
f 19/32/42 32/53/42 35/33/42
f 15/35/17 20/43/17 21/36/17
f 20/37/18 15/57/18 34/38/18
f 22/31/19 21/36/19 26/40/19
f 19/41/20 24/46/20 25/42/20
f 1/21/9 23/65/9 18/44/9
f 20/43/43 25/42/43 26/40/43
f 18/44/22 23/65/22 24/46/22
f 27/47/23 26/50/23 4/6/23
f 24/48/24 2/9/24 3/4/24
f 25/49/25 3/4/25 4/6/25
f 23/51/26 1/7/26 2/9/26
f 13/17/1 17/1/1 5/3/1
f 31/52/27 32/53/27 36/39/27
f 31/52/44 33/55/44 35/33/44
f 30/54/45 14/56/45 33/55/45
f 18/34/46 35/33/46 33/55/46
f 19/32/47 20/37/47 36/39/47
f 30/54/48 31/52/48 34/38/48
f 37/58/49 38/27/49 42/26/49
f 37/58/34 39/30/34 41/29/34
f 29/60/50 37/58/50 40/59/50
f 11/61/36 40/59/36 42/26/36
f 30/25/51 38/27/51 41/29/51
f 29/60/52 28/28/52 39/30/52
v -1.148875 1.800591 1.780767
v -1.156706 1.774935 1.770665
v -1.154970 1.746336 1.771517
v -1.144133 1.722459 1.783094
v -1.127099 1.709700 1.802295
v -1.122246 1.805629 1.775103
v -1.110583 1.783662 1.760856
v -1.101712 1.756413 1.760190
v -1.098010 1.731186 1.773285
v -1.100470 1.714739 1.796631
v -1.067746 1.774032 1.800217
v -1.068595 1.746444 1.807949
v -1.083487 1.723548 1.816645
v -1.114909 1.818209 1.820794
v -1.087038 1.781573 1.851571
v -1.085302 1.752975 1.852423
v -1.093133 1.727319 1.842321
v -1.141538 1.813171 1.826457
v -1.143997 1.796723 1.849803
v -1.140296 1.771496 1.862898
v -1.131425 1.744248 1.862232
v -1.119761 1.722280 1.847985
v -1.158521 1.804361 1.806444
v -1.173413 1.781465 1.815139
v -1.174262 1.753877 1.822871
v -1.160840 1.728990 1.827568
v -1.136744 1.713471 1.827971
v -1.105263 1.814439 1.795117
v -1.081168 1.798920 1.795520
v -1.097875 1.805450 1.839994
v -1.117305 1.830804 1.878848
v -1.121068 1.830092 1.879648
v -1.119393 1.828333 1.842896
v -1.103666 1.799098 1.872371
v -1.132574 1.825839 1.845699
v -1.124111 1.795229 1.876719
v -1.055271 1.831601 1.820184
v -1.059225 1.833147 1.830711
v -1.073530 1.831739 1.816127
v -1.059434 1.809283 1.824260
v -1.075342 1.832447 1.820951
v -1.061251 1.809993 1.829098
vt 0.274240 0.539347
vt 0.265397 0.539709
vt 0.266768 0.532487
vt 0.231414 0.551290
vt 0.214659 0.541092
vt 0.231357 0.542861
vt 0.231940 0.569242
vt 0.215985 0.562822
vt 0.231472 0.559719
vt 0.230890 0.533338
vt 0.220414 0.530957
vt 0.213134 0.552274
vt 0.289666 0.544440
vt 0.282983 0.540904
vt 0.290637 0.536818
vt 0.279682 0.529141
vt 0.275518 0.536619
vt 0.273707 0.532162
vt 0.280945 0.538772
vt 0.286431 0.530872
vt 0.290637 0.551375
vt 0.284312 0.543753
vt 0.278488 0.537315
vt 0.276318 0.541045
vt 0.804698 0.251197
vt 0.792375 0.255919
vt 0.792638 0.252041
vt 0.786357 0.239035
vt 0.792578 0.249274
vt 0.791489 0.249454
vt 0.271776 0.541127
vt 0.760733 0.199751
vt 0.757502 0.209505
vt 0.750621 0.206121
vt 0.278108 0.542645
vt 0.273009 0.544115
vt 0.772804 0.201934
vt 0.766718 0.213101
vt 0.766203 0.208706
vt 0.264007 0.548518
vt 0.277612 0.547903
vt 0.268747 0.555467
vt 0.275021 0.546378
vt 0.280714 0.548498
vt 0.281954 0.545638
vt 0.276612 0.557409
vt 0.240880 0.530957
vt 0.248168 0.561486
vt 0.249693 0.550306
vt 0.246843 0.539760
vt 0.242415 0.571620
vt 0.762287 0.211045
vt 0.762255 0.210544
vt 0.761023 0.221925
vt 0.757316 0.212491
vt 0.750922 0.216572
vt 0.772804 0.220841
vt 0.791613 0.252007
vt 0.791097 0.255536
vt 0.780068 0.250772
vt 0.780487 0.263708
vt 0.804698 0.264828
vt 0.798786 0.238814
vt 0.221949 0.571626
vt 0.283377 0.553479
vn 0.2271 -0.9477 0.2245
vn -0.0977 -0.4698 -0.8774
vn -0.2643 0.4221 -0.8672
vn 0.0330 -0.8187 -0.5733
vn -0.2004 -0.0413 -0.9788
vn 0.4232 0.6404 -0.6410
vn 0.7204 -0.6004 -0.3471
vn 0.6855 0.2400 -0.6874
vn -0.2270 0.9477 -0.2244
vn 0.7882 -0.1885 -0.5859
vn 0.8361 -0.4021 0.3731
vn 0.2944 -0.0920 0.9512
vn 0.9372 0.0671 0.3422
vn -0.3264 0.9098 -0.2562
vn 0.2643 -0.4221 0.8672
vn -0.9084 0.3807 0.1725
vn 0.2004 0.0413 0.9789
vn 0.2737 -0.6165 0.7382
vn -0.4232 -0.6404 0.6410
vn -0.7882 0.1885 0.5859
vn -0.2271 0.9477 -0.2245
vn -0.6855 -0.2400 0.6874
vn -0.7204 0.6004 0.3471
vn -0.5388 -0.8387 -0.0793
vn -0.9372 -0.0671 -0.3422
vn -0.8346 -0.4955 -0.2408
vn -0.8361 0.4021 -0.3731
vn 0.2271 -0.9477 0.2244
vn 0.2252 -0.1011 0.9691
vn -0.1971 0.9788 -0.0559
vn 0.7199 0.6883 -0.0891
vn -0.2570 0.8578 -0.4451
vn -0.8036 0.0202 0.5948
vn 0.8320 0.4971 0.2463
vn 0.9256 -0.1063 0.3633
vn 0.0367 0.9906 -0.1317
vn 0.7198 0.2672 -0.6407
vn 0.8146 -0.4454 0.3714
vn -0.2506 0.6889 0.6801
vn 0.1927 0.4892 -0.8506
vn 0.2270 -0.9477 0.2245
vn -0.0977 -0.4697 -0.8774
vn -0.2004 -0.0413 -0.9789
vn 0.1903 0.4969 0.8467
vn -0.8880 0.3841 0.2529
vn 0.2004 0.0413 0.9788
vn -0.2270 0.9477 -0.2245
vn 0.2253 -0.1011 0.9690
vn -0.1971 0.9788 -0.0558
vn 0.7068 0.6864 -0.1710
vn -0.7844 0.1912 0.5901
vn 0.9101 0.3444 0.2304
vn 0.0367 0.9906 -0.1316
vn 0.8136 -0.2478 -0.5259
vn 0.8146 -0.4455 0.3715
vn -0.3802 0.7236 0.5760
vn 0.3064 0.4540 -0.8366
s off
f 59/66/53 69/67/53 47/68/53
f 45/69/54 51/70/54 46/71/54
f 43/72/55 49/73/55 44/74/55
f 47/75/56 51/70/56 52/76/56
f 44/74/57 50/77/57 45/69/57
f 48/78/58 71/79/58 49/80/58
f 51/81/59 55/82/59 52/83/59
f 49/80/60 53/84/60 50/85/60
f 43/86/61 70/87/61 48/78/61
f 50/85/62 54/88/62 51/81/62
f 55/82/63 58/89/63 59/66/63
f 72/90/64 84/91/64 80/92/64
f 53/84/65 58/89/65 54/88/65
f 70/93/66 83/94/66 81/95/66
f 58/89/67 64/96/67 59/66/67
f 61/97/68 77/98/68 60/99/68
f 57/100/69 63/101/69 58/89/69
f 62/102/70 76/103/70 78/104/70
f 64/96/71 68/105/71 69/67/71
f 61/106/72 67/107/72 62/108/72
f 43/86/73 60/109/73 56/110/73
f 62/108/74 68/105/74 63/101/74
f 60/109/75 66/111/75 61/106/75
f 69/112/76 46/71/76 47/75/76
f 66/113/77 45/69/77 67/114/77
f 67/114/78 46/71/78 68/115/78
f 65/116/79 44/74/79 66/113/79
f 55/82/80 47/68/80 52/83/80
f 73/117/81 78/104/81 76/103/81
f 73/117/82 77/98/82 74/118/82
f 72/119/83 75/120/83 73/117/83
f 60/99/84 75/120/84 56/121/84
f 61/97/85 78/104/85 74/118/85
f 72/119/86 76/103/86 57/122/86
f 79/123/87 84/91/87 82/124/87
f 79/123/88 83/94/88 80/92/88
f 71/125/89 82/124/89 53/126/89
f 53/126/90 84/91/90 57/127/90
f 72/90/91 83/94/91 56/128/91
f 71/125/92 81/95/92 79/123/92
f 59/66/93 64/96/93 69/67/93
f 45/69/94 50/77/94 51/70/94
f 43/72/55 48/129/55 49/73/55
f 47/75/56 46/71/56 51/70/56
f 44/74/95 49/73/95 50/77/95
f 48/78/58 70/87/58 71/79/58
f 51/81/59 54/88/59 55/82/59
f 49/80/60 71/79/60 53/84/60
f 43/86/73 56/110/73 70/87/73
f 50/85/62 53/84/62 54/88/62
f 55/82/63 54/88/63 58/89/63
f 72/90/96 57/127/96 84/91/96
f 53/84/65 57/100/65 58/89/65
f 70/93/66 56/128/66 83/94/66
f 58/89/67 63/101/67 64/96/67
f 61/97/97 74/118/97 77/98/97
f 57/100/98 62/108/98 63/101/98
f 62/102/70 57/122/70 76/103/70
f 64/96/71 63/101/71 68/105/71
f 61/106/72 66/111/72 67/107/72
f 43/86/99 65/130/99 60/109/99
f 62/108/74 67/107/74 68/105/74
f 60/109/75 65/130/75 66/111/75
f 69/112/76 68/115/76 46/71/76
f 66/113/77 44/74/77 45/69/77
f 67/114/78 45/69/78 46/71/78
f 65/116/79 43/72/79 44/74/79
f 55/82/53 59/66/53 47/68/53
f 73/117/100 74/118/100 78/104/100
f 73/117/101 75/120/101 77/98/101
f 72/119/102 56/121/102 75/120/102
f 60/99/84 77/98/84 75/120/84
f 61/97/103 62/102/103 78/104/103
f 72/119/104 73/117/104 76/103/104
f 79/123/87 80/92/87 84/91/87
f 79/123/105 81/95/105 83/94/105
f 71/125/106 79/123/106 82/124/106
f 53/126/107 82/124/107 84/91/107
f 72/90/108 80/92/108 83/94/108
f 71/125/109 70/93/109 81/95/109
