# Blender v2.81 (sub 16) OBJ File: 'garbage.blend'
# www.blender.org
v 0.110274 2.103052 0.721001
v 0.101342 2.085356 0.741705
v 0.095049 2.058891 0.750736
v 0.093083 2.030746 0.745674
v 0.095969 2.008464 0.727876
v 0.091654 2.104382 0.700553
v 0.069092 2.087660 0.706289
v 0.057810 2.061550 0.709841
v 0.060833 2.033050 0.710258
v 0.077349 2.009794 0.707428
v 0.073954 2.055286 0.657245
v 0.074814 2.027624 0.664708
v 0.085421 2.006662 0.681130
v 0.126417 2.096788 0.668404
v 0.127337 2.046362 0.645543
v 0.121044 2.019896 0.654575
v 0.112112 2.002200 0.675279
v 0.145037 2.095458 0.688852
v 0.161553 2.072203 0.686022
v 0.164576 2.043702 0.686439
v 0.153294 2.017592 0.689991
v 0.130732 2.000870 0.695727
v 0.136965 2.098590 0.715150
v 0.147572 2.077628 0.731572
v 0.148432 2.049966 0.739035
v 0.139313 2.023018 0.735541
v 0.122660 2.004002 0.722025
v 0.099726 2.101250 0.674255
v 0.083073 2.082235 0.660739
v 0.129303 2.074506 0.650605
v 0.176555 2.086449 0.638173
v 0.179187 2.086261 0.641062
v 0.148655 2.098379 0.657725
v 0.157006 2.057576 0.642353
v 0.157871 2.097720 0.667846
v 0.171302 2.056555 0.658053
v 0.094754 2.097053 0.616119
v 0.105697 2.095224 0.613720
v 0.101961 2.102415 0.632525
v 0.095698 2.076210 0.625954
v 0.106976 2.101577 0.631426
v 0.100727 2.075370 0.624851
vt 0.274240 0.539347
vt 0.265397 0.539709
vt 0.266768 0.532487
vt 0.231414 0.551290
vt 0.214659 0.541092
vt 0.231357 0.542861
vt 0.231940 0.569242
vt 0.215985 0.562822
vt 0.231472 0.559719
vt 0.230890 0.533338
vt 0.220414 0.530957
vt 0.213134 0.552274
vt 0.289666 0.544440
vt 0.282983 0.540904
vt 0.290637 0.536818
vt 0.279682 0.529141
vt 0.275518 0.536619
vt 0.273707 0.532162
vt 0.280945 0.538772
vt 0.286431 0.530872
vt 0.290637 0.551375
vt 0.284312 0.543753
vt 0.278488 0.537315
vt 0.276318 0.541045
vt 0.804698 0.251197
vt 0.792375 0.255919
vt 0.792638 0.252041
vt 0.786357 0.239035
vt 0.792578 0.249274
vt 0.791489 0.249454
vt 0.271776 0.541127
vt 0.760733 0.199751
vt 0.757502 0.209505
vt 0.750621 0.206121
vt 0.278108 0.542645
vt 0.273009 0.544115
vt 0.772804 0.201934
vt 0.766718 0.213101
vt 0.766203 0.208706
vt 0.264007 0.548518
vt 0.277612 0.547903
vt 0.268747 0.555467
vt 0.275021 0.546378
vt 0.280714 0.548498
vt 0.281954 0.545638
vt 0.276612 0.557409
vt 0.240880 0.530957
vt 0.248168 0.561486
vt 0.249693 0.550306
vt 0.246843 0.539760
vt 0.242415 0.571620
vt 0.762287 0.211045
vt 0.762255 0.210544
vt 0.761023 0.221925
vt 0.757316 0.212491
vt 0.750922 0.216572
vt 0.772804 0.220841
vt 0.791613 0.252007
vt 0.791097 0.255536
vt 0.780068 0.250772
vt 0.780487 0.263708
vt 0.804698 0.264828
vt 0.798786 0.238814
vt 0.221949 0.571626
vt 0.283377 0.553479
vn -0.1492 -0.9862 0.0717
vn -0.7399 -0.0687 0.6692
vn -0.4503 0.7653 0.4598
vn -0.6456 -0.5259 0.5537
vn -0.6724 0.3772 0.6369
vn -0.6166 0.7369 -0.2770
vn -0.8119 -0.5543 -0.1832
vn -0.8867 0.3406 -0.3127
vn 0.1492 0.9862 -0.0717
vn -0.9541 -0.1053 -0.2803
vn -0.2639 -0.6740 -0.6899
vn 0.5690 -0.5059 -0.6483
vn -0.2480 -0.2595 -0.9334
vn 0.1726 0.9843 0.0367
vn 0.4503 -0.7653 -0.4598
vn 0.7343 0.4609 0.4983
vn 0.6724 -0.3772 -0.6368
vn 0.3018 -0.8933 -0.3330
vn 0.6166 -0.7369 0.2770
vn 0.9541 0.1053 0.2803
vn 0.8867 -0.3406 0.3127
vn 0.8119 0.5543 0.1832
vn 0.0686 -0.6172 0.7838
vn 0.2480 0.2595 0.9334
vn 0.1805 -0.1863 0.9658
vn 0.2639 0.6740 0.6899
vn 0.6207 -0.5069 -0.5982
vn 0.2727 0.9438 -0.1868
vn -0.3371 0.5094 -0.7918
vn -0.0279 0.9955 0.0902
vn 0.9348 -0.0468 0.3520
vn -0.1743 0.1861 -0.9669
vn -0.2608 -0.4216 -0.8685
vn 0.0816 0.9362 -0.3418
vn -0.8634 0.3404 -0.3723
vn -0.2621 -0.7081 -0.6556
vn 0.8274 0.4120 -0.3816
vn -0.6835 0.7273 0.0626
vn -0.6724 0.3772 0.6368
vn 0.6684 0.0862 -0.7388
vn 0.7872 0.4291 0.4429
vn 0.3019 -0.8933 -0.3330
vn 0.2726 0.9438 -0.1869
vn -0.3951 0.5416 -0.7420
vn 0.9559 0.1054 0.2742
vn -0.2634 0.0388 -0.9639
vn -0.9334 -0.1868 -0.3064
vn -0.2621 -0.7081 -0.6557
vn 0.8257 0.5093 -0.2424
vn -0.7446 0.6672 -0.0213
s off
f 17/1/1 27/2/1 5/3/1
f 3/4/2 9/5/2 4/6/2
f 1/7/3 7/8/3 2/9/3
f 5/10/4 9/5/4 10/11/4
f 2/9/5 8/12/5 3/4/5
f 6/13/6 29/14/6 7/15/6
f 9/16/7 13/17/7 10/18/7
f 7/15/8 11/19/8 8/20/8
f 1/21/9 28/22/9 6/13/9
f 8/20/10 12/23/10 9/16/10
f 13/17/11 16/24/11 17/1/11
f 30/25/12 42/26/12 38/27/12
f 11/19/13 16/24/13 12/23/13
f 28/28/14 41/29/14 39/30/14
f 16/24/15 22/31/15 17/1/15
f 19/32/16 35/33/16 18/34/16
f 15/35/17 21/36/17 16/24/17
f 20/37/18 34/38/18 36/39/18
f 22/31/19 26/40/19 27/2/19
f 19/41/20 25/42/20 20/43/20
f 1/21/9 18/44/9 14/45/9
f 20/43/21 26/40/21 21/36/21
f 18/44/22 24/46/22 19/41/22
f 27/47/23 4/6/23 5/10/23
f 24/48/24 3/4/24 25/49/24
f 25/49/25 4/6/25 26/50/25
f 23/51/26 2/9/26 24/48/26
f 13/17/1 5/3/1 10/18/1
f 31/52/27 36/39/27 34/38/27
f 31/52/28 35/33/28 32/53/28
f 30/54/29 33/55/29 31/52/29
f 18/34/30 33/55/30 14/56/30
f 19/32/31 36/39/31 32/53/31
f 30/54/32 34/38/32 15/57/32
f 37/58/33 42/26/33 40/59/33
f 37/58/34 41/29/34 38/27/34
f 29/60/35 40/59/35 11/61/35
f 11/61/36 42/26/36 15/62/36
f 30/25/37 41/29/37 14/63/37
f 29/60/38 39/30/38 37/58/38
f 17/1/1 22/31/1 27/2/1
f 3/4/2 8/12/2 9/5/2
f 1/7/3 6/64/3 7/8/3
f 5/10/4 4/6/4 9/5/4
f 2/9/39 7/8/39 8/12/39
f 6/13/6 28/22/6 29/14/6
f 9/16/7 12/23/7 13/17/7
f 7/15/8 29/14/8 11/19/8
f 1/21/9 14/45/9 28/22/9
f 8/20/10 11/19/10 12/23/10
f 13/17/11 12/23/11 16/24/11
f 30/25/40 15/62/40 42/26/40
f 11/19/13 15/35/13 16/24/13
f 28/28/14 14/63/14 41/29/14
f 16/24/15 21/36/15 22/31/15
f 19/32/41 32/53/41 35/33/41
f 15/35/17 20/43/17 21/36/17
f 20/37/42 15/57/42 34/38/42
f 22/31/19 21/36/19 26/40/19
f 19/41/20 24/46/20 25/42/20
f 1/21/9 23/65/9 18/44/9
f 20/43/21 25/42/21 26/40/21
f 18/44/22 23/65/22 24/46/22
f 27/47/23 26/50/23 4/6/23
f 24/48/24 2/9/24 3/4/24
f 25/49/25 3/4/25 4/6/25
f 23/51/26 1/7/26 2/9/26
f 13/17/1 17/1/1 5/3/1
f 31/52/27 32/53/27 36/39/27
f 31/52/43 33/55/43 35/33/43
f 30/54/44 14/56/44 33/55/44
f 18/34/30 35/33/30 33/55/30
f 19/32/45 20/37/45 36/39/45
f 30/54/46 31/52/46 34/38/46
f 37/58/33 38/27/33 42/26/33
f 37/58/34 39/30/34 41/29/34
f 29/60/47 37/58/47 40/59/47
f 11/61/48 40/59/48 42/26/48
f 30/25/49 38/27/49 41/29/49
f 29/60/50 28/28/50 39/30/50
v -0.256728 2.110980 1.990510
v -0.268140 2.084972 1.986637
v -0.266728 2.056521 1.989818
v -0.252872 2.033248 1.999199
v -0.230284 2.021391 2.012268
v -0.233858 2.114013 1.975202
v -0.228528 2.090226 1.960124
v -0.220988 2.062587 1.959203
v -0.213260 2.038502 1.972685
v -0.207414 2.024424 1.996960
v -0.174544 2.081916 1.982344
v -0.173038 2.055242 1.992727
v -0.184192 2.034089 2.008531
v -0.210284 2.130309 2.013652
v -0.173840 2.095180 2.036102
v -0.172428 2.066728 2.039282
v -0.183840 2.040721 2.035409
v -0.233154 2.127276 2.028960
v -0.227308 2.113199 2.053234
v -0.219580 2.089114 2.066717
v -0.212040 2.061475 2.065796
v -0.206710 2.037688 2.050717
v -0.256376 2.117611 2.017389
v -0.267530 2.096459 2.033192
v -0.266024 2.069784 2.043575
v -0.252262 2.044735 2.045754
v -0.229932 2.028023 2.039146
v -0.210636 2.123677 1.986773
v -0.188306 2.106966 1.980165
v -0.187696 2.118452 2.026720
v -0.191316 2.148287 2.067053
v -0.194548 2.147859 2.069216
v -0.206297 2.142648 2.034698
v -0.181511 2.115422 2.059503
v -0.217617 2.141146 2.042275
v -0.199071 2.113093 2.071257
v -0.154664 2.140305 1.990351
v -0.154519 2.143023 2.001370
v -0.173150 2.141069 1.993101
v -0.157474 2.118716 1.997971
v -0.173083 2.142315 1.998151
v -0.157408 2.119965 2.003036
vt 0.274240 0.539347
vt 0.265397 0.539709
vt 0.266768 0.532487
vt 0.231414 0.551290
vt 0.214659 0.541092
vt 0.231357 0.542861
vt 0.231940 0.569242
vt 0.215985 0.562822
vt 0.231472 0.559719
vt 0.230890 0.533338
vt 0.220414 0.530957
vt 0.213134 0.552274
vt 0.289666 0.544440
vt 0.282983 0.540904
vt 0.290637 0.536818
vt 0.279682 0.529141
vt 0.275518 0.536619
vt 0.273707 0.532162
vt 0.280945 0.538772
vt 0.286431 0.530872
vt 0.290637 0.551375
vt 0.284312 0.543753
vt 0.278488 0.537315
vt 0.276318 0.541045
vt 0.804698 0.251197
vt 0.792375 0.255919
vt 0.792638 0.252041
vt 0.786357 0.239035
vt 0.792578 0.249274
vt 0.791489 0.249454
vt 0.271776 0.541127
vt 0.760733 0.199751
vt 0.757502 0.209505
vt 0.750621 0.206121
vt 0.278108 0.542645
vt 0.273009 0.544115
vt 0.772804 0.201934
vt 0.766718 0.213101
vt 0.766203 0.208706
vt 0.264007 0.548518
vt 0.277612 0.547903
vt 0.268747 0.555467
vt 0.275021 0.546378
vt 0.280714 0.548498
vt 0.281954 0.545638
vt 0.276612 0.557409
vt 0.240880 0.530957
vt 0.248168 0.561486
vt 0.249693 0.550306
vt 0.246843 0.539760
vt 0.242415 0.571620
vt 0.762287 0.211045
vt 0.762255 0.210544
vt 0.761023 0.221925
vt 0.757316 0.212491
vt 0.750922 0.216572
vt 0.772804 0.220841
vt 0.791613 0.252007
vt 0.791097 0.255536
vt 0.780068 0.250772
vt 0.780487 0.263708
vt 0.804698 0.264828
vt 0.798786 0.238814
vt 0.221949 0.571626
vt 0.283377 0.553479
vn 0.2757 -0.9341 0.2268
vn -0.4165 -0.5422 -0.7297
vn -0.5521 0.3546 -0.7546
vn -0.1911 -0.8684 -0.4576
vn -0.5412 -0.1199 -0.8323
vn 0.1745 0.5548 -0.8135
vn 0.5355 -0.6682 -0.5165
vn 0.3951 0.1380 -0.9082
vn -0.2757 0.9341 -0.2269
vn 0.5197 -0.2842 -0.8057
vn 0.9071 -0.4113 0.0896
vn 0.6165 -0.0204 0.7871
vn 0.9986 0.0468 -0.0246
vn -0.3805 0.8990 -0.2169
vn 0.5521 -0.3546 0.7546
vn -0.7777 0.4441 0.4448
vn 0.5412 0.1199 0.8323
vn 0.5108 -0.5603 0.6521
vn -0.1745 -0.5548 0.8135
vn -0.5197 0.2842 0.8057
vn -0.3951 -0.1380 0.9082
vn -0.5355 0.6682 0.5165
vn -0.5461 -0.8117 0.2074
vn -0.9986 -0.0468 0.0246
vn -0.8739 -0.4691 0.1272
vn -0.9071 0.4113 -0.0896
vn 0.2757 -0.9341 0.2269
vn 0.5583 -0.0239 0.8293
vn -0.1862 0.9789 -0.0845
vn 0.6514 0.6368 -0.4126
vn -0.3849 0.8262 -0.4114
vn -0.5339 0.1186 0.8372
vn 0.8736 0.4713 -0.1213
vn 0.9923 -0.1230 0.0174
vn 0.0045 0.9709 -0.2396
vn 0.4443 0.1676 -0.8800
vn 0.8856 -0.4534 0.1003
vn 0.0245 0.7611 0.6482
vn -0.1188 0.3979 -0.9097
vn -0.4165 -0.5422 -0.7298
vn -0.2757 0.9341 -0.2268
vn 0.4922 0.5613 0.6653
vn -0.3805 0.8990 -0.2168
vn -0.7296 0.4536 0.5117
vn -0.8740 -0.4691 0.1272
vn 0.5582 -0.0239 0.8293
vn -0.1863 0.9789 -0.0844
vn 0.6095 0.6281 -0.4837
vn -0.5146 0.2872 0.8079
vn 0.9379 0.3138 -0.1479
vn 0.0045 0.9708 -0.2397
vn 0.5641 -0.3391 -0.7529
vn 0.8857 -0.4534 0.1002
vn -0.1333 0.7931 0.5943
vn -0.0085 0.3579 -0.9337
s off
f 59/66/51 69/67/51 47/68/51
f 45/69/52 51/70/52 46/71/52
f 43/72/53 49/73/53 44/74/53
f 47/75/54 51/70/54 52/76/54
f 44/74/55 50/77/55 45/69/55
f 48/78/56 71/79/56 49/80/56
f 51/81/57 55/82/57 52/83/57
f 49/80/58 53/84/58 50/85/58
f 43/86/59 70/87/59 48/78/59
f 50/85/60 54/88/60 51/81/60
f 55/82/61 58/89/61 59/66/61
f 72/90/62 84/91/62 80/92/62
f 53/84/63 58/89/63 54/88/63
f 70/93/64 83/94/64 81/95/64
f 58/89/65 64/96/65 59/66/65
f 61/97/66 77/98/66 60/99/66
f 57/100/67 63/101/67 58/89/67
f 62/102/68 76/103/68 78/104/68
f 64/96/69 68/105/69 69/67/69
f 61/106/70 67/107/70 62/108/70
f 43/86/59 60/109/59 56/110/59
f 62/108/71 68/105/71 63/101/71
f 60/109/72 66/111/72 61/106/72
f 69/112/73 46/71/73 47/75/73
f 66/113/74 45/69/74 67/114/74
f 67/114/75 46/71/75 68/115/75
f 65/116/76 44/74/76 66/113/76
f 55/82/77 47/68/77 52/83/77
f 73/117/78 78/104/78 76/103/78
f 73/117/79 77/98/79 74/118/79
f 72/119/80 75/120/80 73/117/80
f 60/99/81 75/120/81 56/121/81
f 61/97/82 78/104/82 74/118/82
f 72/119/83 76/103/83 57/122/83
f 79/123/84 84/91/84 82/124/84
f 79/123/85 83/94/85 80/92/85
f 71/125/86 82/124/86 53/126/86
f 53/126/87 84/91/87 57/127/87
f 72/90/88 83/94/88 56/128/88
f 71/125/89 81/95/89 79/123/89
f 59/66/77 64/96/77 69/67/77
f 45/69/90 50/77/90 51/70/90
f 43/72/53 48/129/53 49/73/53
f 47/75/54 46/71/54 51/70/54
f 44/74/55 49/73/55 50/77/55
f 48/78/56 70/87/56 71/79/56
f 51/81/57 54/88/57 55/82/57
f 49/80/58 71/79/58 53/84/58
f 43/86/91 56/110/91 70/87/91
f 50/85/60 53/84/60 54/88/60
f 55/82/61 54/88/61 58/89/61
f 72/90/92 57/127/92 84/91/92
f 53/84/63 57/100/63 58/89/63
f 70/93/93 56/128/93 83/94/93
f 58/89/65 63/101/65 64/96/65
f 61/97/94 74/118/94 77/98/94
f 57/100/67 62/108/67 63/101/67
f 62/102/68 57/122/68 76/103/68
f 64/96/69 63/101/69 68/105/69
f 61/106/70 66/111/70 67/107/70
f 43/86/59 65/130/59 60/109/59
f 62/108/71 67/107/71 68/105/71
f 60/109/72 65/130/72 66/111/72
f 69/112/73 68/115/73 46/71/73
f 66/113/74 44/74/74 45/69/74
f 67/114/95 45/69/95 46/71/95
f 65/116/76 43/72/76 44/74/76
f 55/82/77 59/66/77 47/68/77
f 73/117/96 74/118/96 78/104/96
f 73/117/97 75/120/97 77/98/97
f 72/119/98 56/121/98 75/120/98
f 60/99/81 77/98/81 75/120/81
f 61/97/99 62/102/99 78/104/99
f 72/119/100 73/117/100 76/103/100
f 79/123/84 80/92/84 84/91/84
f 79/123/101 81/95/101 83/94/101
f 71/125/102 79/123/102 82/124/102
f 53/126/103 82/124/103 84/91/103
f 72/90/104 80/92/104 83/94/104
f 71/125/105 70/93/105 81/95/105
