# Blender v2.81 (sub 16) OBJ File: 'garbage.blend'
# www.blender.org
v -0.652186 2.281058 -0.437095
v -0.652286 2.268116 -0.462670
v -0.654332 2.244242 -0.478402
v -0.657776 2.215836 -0.480076
v -0.661695 2.190507 -0.467242
v -0.629737 2.273865 -0.422573
v -0.613405 2.255658 -0.437516
v -0.609436 2.229857 -0.449356
v -0.618895 2.203378 -0.454921
v -0.639247 2.183315 -0.452720
v -0.614652 2.212938 -0.396890
v -0.623412 2.188725 -0.409484
v -0.641855 2.174855 -0.426486
v -0.657402 2.264138 -0.384629
v -0.664765 2.210403 -0.373469
v -0.666811 2.186530 -0.389201
v -0.666911 2.173587 -0.414776
v -0.679850 2.271331 -0.399152
v -0.700202 2.251267 -0.396950
v -0.709661 2.224788 -0.402515
v -0.705692 2.198987 -0.414355
v -0.689359 2.180780 -0.429299
v -0.677242 2.279791 -0.425385
v -0.695685 2.265920 -0.442387
v -0.704445 2.241708 -0.454981
v -0.701175 2.213640 -0.459793
v -0.686751 2.189240 -0.455532
v -0.632346 2.265406 -0.396339
v -0.617922 2.241005 -0.392078
v -0.661321 2.238809 -0.371795
v -0.700698 2.254891 -0.344948
v -0.703871 2.255907 -0.347000
v -0.675794 2.266619 -0.368299
v -0.689654 2.225234 -0.360172
v -0.686906 2.270179 -0.375488
v -0.706890 2.230756 -0.371323
v -0.615845 2.245453 -0.343882
v -0.626118 2.244933 -0.339081
v -0.625055 2.256033 -0.356255
v -0.623649 2.228354 -0.357252
v -0.629763 2.255795 -0.354055
v -0.628371 2.228115 -0.355046
vt 0.274240 0.539347
vt 0.265397 0.539709
vt 0.266768 0.532487
vt 0.231414 0.551290
vt 0.214659 0.541092
vt 0.231357 0.542861
vt 0.231940 0.569242
vt 0.215985 0.562822
vt 0.231472 0.559719
vt 0.230890 0.533338
vt 0.220414 0.530957
vt 0.213134 0.552274
vt 0.289666 0.544440
vt 0.282983 0.540904
vt 0.290637 0.536818
vt 0.279682 0.529141
vt 0.275518 0.536619
vt 0.273707 0.532162
vt 0.280945 0.538772
vt 0.286431 0.530872
vt 0.290637 0.551375
vt 0.284312 0.543753
vt 0.278488 0.537315
vt 0.276318 0.541045
vt 0.804698 0.251197
vt 0.792375 0.255919
vt 0.792638 0.252041
vt 0.786357 0.239035
vt 0.792578 0.249274
vt 0.791489 0.249454
vt 0.271776 0.541127
vt 0.760733 0.199751
vt 0.757502 0.209505
vt 0.750621 0.206121
vt 0.278108 0.542645
vt 0.273009 0.544115
vt 0.772804 0.201934
vt 0.766718 0.213101
vt 0.766203 0.208706
vt 0.264007 0.548518
vt 0.277612 0.547903
vt 0.268747 0.555467
vt 0.275021 0.546378
vt 0.280714 0.548498
vt 0.281954 0.545638
vt 0.276612 0.557409
vt 0.240880 0.530957
vt 0.248168 0.561486
vt 0.249693 0.550306
vt 0.246843 0.539760
vt 0.242415 0.571620
vt 0.762287 0.211045
vt 0.762255 0.210544
vt 0.761023 0.221925
vt 0.757316 0.212491
vt 0.750922 0.216572
vt 0.772804 0.220841
vt 0.791613 0.252007
vt 0.791097 0.255536
vt 0.780068 0.250772
vt 0.780487 0.263708
vt 0.804698 0.264828
vt 0.798786 0.238814
vt 0.221949 0.571626
vt 0.283377 0.553479
vn -0.0991 -0.9441 -0.3143
vn 0.5395 -0.0158 -0.8418
vn 0.5010 0.7714 -0.3923
vn 0.3712 -0.4647 -0.8039
vn 0.5844 0.4110 -0.6997
vn 0.8137 0.5247 0.2501
vn 0.6839 -0.7115 -0.1614
vn 0.9874 0.0931 0.1282
vn 0.0992 0.9441 0.3143
vn 0.9426 -0.3338 -0.0139
vn 0.2478 -0.8648 0.4367
vn -0.5131 -0.5538 0.6558
vn 0.3806 -0.5314 0.7568
vn 0.0527 0.9745 0.2183
vn -0.5010 -0.7714 0.3923
vn -0.7007 0.6916 -0.1753
vn -0.5844 -0.4110 0.6997
vn -0.4171 -0.8851 0.2064
vn -0.8137 -0.5247 -0.2501
vn -0.9426 0.3338 0.0139
vn 0.0991 0.9441 0.3143
vn -0.9874 -0.0931 -0.1282
vn -0.6839 0.7115 0.1614
vn -0.3777 -0.3713 -0.8482
vn -0.3806 0.5314 -0.7568
vn -0.4254 0.1045 -0.8989
vn -0.2478 0.8648 -0.4367
vn -0.5733 -0.5330 0.6223
vn -0.0024 0.8947 0.4467
vn 0.6095 0.2215 0.7612
vn 0.2338 0.9653 0.1167
vn -0.9746 0.2046 -0.0906
vn 0.4197 -0.1040 0.9017
vn 0.3416 -0.6708 0.6583
vn 0.2110 0.8149 0.5398
vn 0.9783 0.0813 0.1904
vn 0.2308 -0.8880 0.3978
vn -0.6073 0.4318 0.6669
vn 0.8006 0.5926 -0.0892
vn -0.0992 -0.9441 -0.3143
vn -0.4525 0.0023 0.8917
vn -0.7460 0.6558 -0.1157
vn -0.3776 -0.3713 -0.8482
vn -0.5734 -0.5330 0.6223
vn -0.0024 0.8946 0.4468
vn 0.6610 0.2553 0.7057
vn -0.9429 0.3326 0.0201
vn 0.4700 -0.2583 0.8440
vn 0.3416 -0.6707 0.6584
vn 0.2110 0.8150 0.5397
vn 0.9100 -0.4146 -0.0009
vn -0.6141 0.5603 0.5559
vn 0.8632 0.5034 -0.0393
s off
f 17/1/1 27/2/1 5/3/1
f 3/4/2 9/5/2 4/6/2
f 1/7/3 7/8/3 2/9/3
f 5/10/4 9/5/4 10/11/4
f 2/9/5 8/12/5 3/4/5
f 6/13/6 29/14/6 7/15/6
f 9/16/7 13/17/7 10/18/7
f 7/15/8 11/19/8 8/20/8
f 1/21/9 28/22/9 6/13/9
f 8/20/10 12/23/10 9/16/10
f 13/17/11 16/24/11 17/1/11
f 30/25/12 42/26/12 38/27/12
f 11/19/13 16/24/13 12/23/13
f 28/28/14 41/29/14 39/30/14
f 16/24/15 22/31/15 17/1/15
f 19/32/16 35/33/16 18/34/16
f 15/35/17 21/36/17 16/24/17
f 20/37/18 34/38/18 36/39/18
f 22/31/19 26/40/19 27/2/19
f 19/41/20 25/42/20 20/43/20
f 1/21/21 18/44/21 14/45/21
f 20/43/22 26/40/22 21/36/22
f 18/44/23 24/46/23 19/41/23
f 27/47/24 4/6/24 5/10/24
f 24/48/25 3/4/25 25/49/25
f 25/49/26 4/6/26 26/50/26
f 23/51/27 2/9/27 24/48/27
f 13/17/1 5/3/1 10/18/1
f 31/52/28 36/39/28 34/38/28
f 31/52/29 35/33/29 32/53/29
f 30/54/30 33/55/30 31/52/30
f 18/34/31 33/55/31 14/56/31
f 19/32/32 36/39/32 32/53/32
f 30/54/33 34/38/33 15/57/33
f 37/58/34 42/26/34 40/59/34
f 37/58/35 41/29/35 38/27/35
f 29/60/36 40/59/36 11/61/36
f 11/61/37 42/26/37 15/62/37
f 30/25/38 41/29/38 14/63/38
f 29/60/39 39/30/39 37/58/39
f 17/1/40 22/31/40 27/2/40
f 3/4/2 8/12/2 9/5/2
f 1/7/3 6/64/3 7/8/3
f 5/10/4 4/6/4 9/5/4
f 2/9/5 7/8/5 8/12/5
f 6/13/6 28/22/6 29/14/6
f 9/16/7 12/23/7 13/17/7
f 7/15/8 29/14/8 11/19/8
f 1/21/21 14/45/21 28/22/21
f 8/20/10 11/19/10 12/23/10
f 13/17/11 12/23/11 16/24/11
f 30/25/41 15/62/41 42/26/41
f 11/19/13 15/35/13 16/24/13
f 28/28/14 14/63/14 41/29/14
f 16/24/15 21/36/15 22/31/15
f 19/32/42 32/53/42 35/33/42
f 15/35/17 20/43/17 21/36/17
f 20/37/18 15/57/18 34/38/18
f 22/31/19 21/36/19 26/40/19
f 19/41/20 24/46/20 25/42/20
f 1/21/9 23/65/9 18/44/9
f 20/43/22 25/42/22 26/40/22
f 18/44/23 23/65/23 24/46/23
f 27/47/43 26/50/43 4/6/43
f 24/48/25 2/9/25 3/4/25
f 25/49/26 3/4/26 4/6/26
f 23/51/27 1/7/27 2/9/27
f 13/17/1 17/1/1 5/3/1
f 31/52/44 32/53/44 36/39/44
f 31/52/45 33/55/45 35/33/45
f 30/54/46 14/56/46 33/55/46
f 18/34/31 35/33/31 33/55/31
f 19/32/47 20/37/47 36/39/47
f 30/54/48 31/52/48 34/38/48
f 37/58/49 38/27/49 42/26/49
f 37/58/50 39/30/50 41/29/50
f 29/60/51 37/58/51 40/59/51
f 11/61/37 40/59/37 42/26/37
f 30/25/52 38/27/52 41/29/52
f 29/60/53 28/28/53 39/30/53
v -0.295467 1.991003 -3.262867
v -0.285861 1.963998 -3.263007
v -0.290938 1.935836 -3.261346
v -0.309336 1.914065 -3.258330
v -0.336127 1.904517 -3.254766
v -0.305049 1.997855 -3.237811
v -0.302458 1.975865 -3.219609
v -0.310102 1.949539 -3.211234
v -0.325933 1.925932 -3.214932
v -0.345709 1.911368 -3.229710
v -0.359820 1.973387 -3.206175
v -0.368990 1.946584 -3.210550
v -0.370568 1.923292 -3.227181
v -0.345186 2.014851 -3.257808
v -0.390375 1.983532 -3.251228
v -0.395451 1.955370 -3.249567
v -0.385845 1.928364 -3.249707
v -0.335604 2.008000 -3.282864
v -0.355380 1.993436 -3.297642
v -0.371211 1.969828 -3.301340
v -0.378855 1.943503 -3.292966
v -0.376263 1.921513 -3.274763
v -0.310745 1.996076 -3.285393
v -0.312322 1.972783 -3.302024
v -0.321492 1.945981 -3.306399
v -0.335797 1.922850 -3.297347
v -0.351404 1.909589 -3.277293
v -0.329909 2.009779 -3.235281
v -0.345516 1.996518 -3.215227
v -0.371977 2.005303 -3.254244
v -0.390059 2.032058 -3.292809
v -0.388704 2.031089 -3.296350
v -0.359644 2.026378 -3.274214
v -0.396115 2.001232 -3.277112
v -0.354901 2.022987 -3.286617
v -0.388758 1.995971 -3.296350
v -0.376318 2.033310 -3.208548
v -0.382581 2.035389 -3.217783
v -0.362794 2.031505 -3.221343
v -0.380008 2.011138 -3.213730
v -0.365664 2.032459 -3.225575
v -0.382886 2.012094 -3.217974
vt 0.274240 0.539347
vt 0.265397 0.539709
vt 0.266768 0.532487
vt 0.231414 0.551290
vt 0.214659 0.541092
vt 0.231357 0.542861
vt 0.231940 0.569242
vt 0.215985 0.562822
vt 0.231472 0.559719
vt 0.230890 0.533338
vt 0.220414 0.530957
vt 0.213134 0.552274
vt 0.289666 0.544440
vt 0.282983 0.540904
vt 0.290637 0.536818
vt 0.279682 0.529141
vt 0.275518 0.536619
vt 0.273707 0.532162
vt 0.280945 0.538772
vt 0.286431 0.530872
vt 0.290637 0.551375
vt 0.284312 0.543753
vt 0.278488 0.537315
vt 0.276318 0.541045
vt 0.804698 0.251197
vt 0.792375 0.255919
vt 0.792638 0.252041
vt 0.786357 0.239035
vt 0.792578 0.249274
vt 0.791489 0.249454
vt 0.271776 0.541127
vt 0.760733 0.199751
vt 0.757502 0.209505
vt 0.750621 0.206121
vt 0.278108 0.542645
vt 0.273009 0.544115
vt 0.772804 0.201934
vt 0.766718 0.213101
vt 0.766203 0.208706
vt 0.264007 0.548518
vt 0.277612 0.547903
vt 0.268747 0.555467
vt 0.275021 0.546378
vt 0.280714 0.548498
vt 0.281954 0.545638
vt 0.276612 0.557409
vt 0.240880 0.530957
vt 0.248168 0.561486
vt 0.249693 0.550306
vt 0.246843 0.539760
vt 0.242415 0.571620
vt 0.762287 0.211045
vt 0.762255 0.210544
vt 0.761023 0.221925
vt 0.757316 0.212491
vt 0.750922 0.216572
vt 0.772804 0.220841
vt 0.791613 0.252007
vt 0.791097 0.255536
vt 0.780068 0.250772
vt 0.780487 0.263708
vt 0.804698 0.264828
vt 0.798786 0.238814
vt 0.221949 0.571626
vt 0.283377 0.553479
vn -0.4239 -0.9017 0.0845
vn 0.7195 -0.5491 0.4253
vn 0.9102 0.3224 0.2599
vn 0.3552 -0.8583 0.3705
vn 0.9111 -0.1414 0.3871
vn 0.3673 0.6184 0.6948
vn -0.1877 -0.5623 0.8053
vn 0.2115 0.2400 0.9475
vn 0.4239 0.9018 -0.0845
vn 0.0199 -0.1677 0.9856
vn -0.8204 -0.2944 0.4901
vn -0.9567 0.0149 -0.2906
vn -0.7954 0.1776 0.5794
vn 0.5009 0.8528 -0.1476
vn -0.9102 -0.3224 -0.2599
vn 0.4097 0.3130 -0.8568
vn -0.9111 0.1414 -0.3871
vn -0.8326 -0.5255 -0.1747
vn -0.3673 -0.6184 -0.6948
vn -0.0199 0.1677 -0.9856
vn 0.4239 0.9017 -0.0845
vn -0.2115 -0.2400 -0.9475
vn 0.1878 0.5623 -0.8053
vn 0.2654 -0.8863 -0.3796
vn 0.7954 -0.1776 -0.5794
vn 0.6038 -0.5852 -0.5413
vn 0.8204 0.2944 -0.4901
vn -0.9339 0.0014 -0.3575
vn 0.2724 0.9495 -0.1555
vn -0.2458 0.7386 0.6277
vn 0.6112 0.7913 0.0174
vn -0.0387 0.0001 -0.9993
vn -0.6068 0.5870 0.5360
vn -0.8270 0.0062 0.5622
vn 0.2058 0.9753 0.0800
vn 0.1573 0.2740 0.9488
vn -0.8122 -0.3394 0.4744
vn -0.3372 0.7194 -0.6072
vn 0.6500 0.4304 0.6263
vn -0.4239 -0.9018 0.0844
vn 0.3552 -0.8582 0.3705
vn 0.4239 0.9017 -0.0844
vn -0.7426 0.5815 -0.3322
vn 0.5009 0.8528 -0.1477
vn 0.3328 0.3249 -0.8853
vn -0.8327 -0.5255 -0.1747
vn 0.1877 0.5623 -0.8053
vn 0.2654 -0.8863 -0.3795
vn -0.1715 0.7286 0.6631
vn -0.0251 0.1711 -0.9849
vn -0.6553 0.4410 0.6132
vn -0.8269 0.0062 0.5622
vn 0.2058 0.9753 0.0801
vn -0.0507 -0.2193 0.9743
vn -0.1753 0.7337 -0.6564
vn 0.5709 0.4066 0.7132
s off
f 59/66/54 69/67/54 47/68/54
f 45/69/55 51/70/55 46/71/55
f 43/72/56 49/73/56 44/74/56
f 47/75/57 51/70/57 52/76/57
f 44/74/58 50/77/58 45/69/58
f 48/78/59 71/79/59 49/80/59
f 51/81/60 55/82/60 52/83/60
f 49/80/61 53/84/61 50/85/61
f 43/86/62 70/87/62 48/78/62
f 50/85/63 54/88/63 51/81/63
f 55/82/64 58/89/64 59/66/64
f 72/90/65 84/91/65 80/92/65
f 53/84/66 58/89/66 54/88/66
f 70/93/67 83/94/67 81/95/67
f 58/89/68 64/96/68 59/66/68
f 61/97/69 77/98/69 60/99/69
f 57/100/70 63/101/70 58/89/70
f 62/102/71 76/103/71 78/104/71
f 64/96/72 68/105/72 69/67/72
f 61/106/73 67/107/73 62/108/73
f 43/86/74 60/109/74 56/110/74
f 62/108/75 68/105/75 63/101/75
f 60/109/76 66/111/76 61/106/76
f 69/112/77 46/71/77 47/75/77
f 66/113/78 45/69/78 67/114/78
f 67/114/79 46/71/79 68/115/79
f 65/116/80 44/74/80 66/113/80
f 55/82/54 47/68/54 52/83/54
f 73/117/81 78/104/81 76/103/81
f 73/117/82 77/98/82 74/118/82
f 72/119/83 75/120/83 73/117/83
f 60/99/84 75/120/84 56/121/84
f 61/97/85 78/104/85 74/118/85
f 72/119/86 76/103/86 57/122/86
f 79/123/87 84/91/87 82/124/87
f 79/123/88 83/94/88 80/92/88
f 71/125/89 82/124/89 53/126/89
f 53/126/90 84/91/90 57/127/90
f 72/90/91 83/94/91 56/128/91
f 71/125/92 81/95/92 79/123/92
f 59/66/93 64/96/93 69/67/93
f 45/69/55 50/77/55 51/70/55
f 43/72/56 48/129/56 49/73/56
f 47/75/94 46/71/94 51/70/94
f 44/74/58 49/73/58 50/77/58
f 48/78/59 70/87/59 71/79/59
f 51/81/60 54/88/60 55/82/60
f 49/80/61 71/79/61 53/84/61
f 43/86/95 56/110/95 70/87/95
f 50/85/63 53/84/63 54/88/63
f 55/82/64 54/88/64 58/89/64
f 72/90/96 57/127/96 84/91/96
f 53/84/66 57/100/66 58/89/66
f 70/93/97 56/128/97 83/94/97
f 58/89/68 63/101/68 64/96/68
f 61/97/98 74/118/98 77/98/98
f 57/100/70 62/108/70 63/101/70
f 62/102/99 57/122/99 76/103/99
f 64/96/72 63/101/72 68/105/72
f 61/106/73 66/111/73 67/107/73
f 43/86/95 65/130/95 60/109/95
f 62/108/75 67/107/75 68/105/75
f 60/109/100 65/130/100 66/111/100
f 69/112/101 68/115/101 46/71/101
f 66/113/78 44/74/78 45/69/78
f 67/114/79 45/69/79 46/71/79
f 65/116/80 43/72/80 44/74/80
f 55/82/54 59/66/54 47/68/54
f 73/117/81 74/118/81 78/104/81
f 73/117/82 75/120/82 77/98/82
f 72/119/102 56/121/102 75/120/102
f 60/99/84 77/98/84 75/120/84
f 61/97/103 62/102/103 78/104/103
f 72/119/104 73/117/104 76/103/104
f 79/123/105 80/92/105 84/91/105
f 79/123/106 81/95/106 83/94/106
f 71/125/107 79/123/107 82/124/107
f 53/126/90 82/124/90 84/91/90
f 72/90/108 80/92/108 83/94/108
f 71/125/109 70/93/109 81/95/109
