# Blender v2.81 (sub 16) OBJ File: 'garbage.blend'
# www.blender.org
v -0.702682 2.096664 0.567176
v -0.708457 2.075627 0.548583
v -0.710771 2.047678 0.542656
v -0.709004 2.020308 0.550982
v -0.703630 2.000848 0.571330
v -0.675823 2.096690 0.573895
v -0.661936 2.075671 0.560221
v -0.657053 2.047730 0.556094
v -0.662483 2.020352 0.562620
v -0.676770 2.000874 0.578049
v -0.641822 2.049886 0.609289
v -0.649293 2.022219 0.608687
v -0.669155 2.001952 0.604647
v -0.687452 2.098820 0.620370
v -0.680310 2.051990 0.649044
v -0.682624 2.024041 0.643117
v -0.688399 2.003004 0.624524
v -0.714311 2.098794 0.613651
v -0.728598 2.079316 0.629080
v -0.734028 2.051938 0.635606
v -0.729145 2.023997 0.631479
v -0.715258 2.002978 0.617805
v -0.721926 2.097716 0.587054
v -0.741789 2.077449 0.583013
v -0.749259 2.049783 0.582411
v -0.742335 2.022130 0.585411
v -0.722873 2.001900 0.591208
v -0.668208 2.097768 0.600492
v -0.648746 2.077538 0.606289
v -0.682077 2.079360 0.640718
v -0.713114 2.100846 0.673961
v -0.716910 2.100842 0.673011
v -0.699762 2.105482 0.640745
v -0.702006 2.068644 0.665420
v -0.713057 2.105469 0.637419
v -0.722629 2.068624 0.660260
v -0.632253 2.098699 0.646628
v -0.640142 2.099130 0.654777
v -0.646802 2.103571 0.635930
v -0.640462 2.077475 0.642855
v -0.650418 2.103768 0.639665
v -0.644088 2.077674 0.646601
vt 0.274240 0.539347
vt 0.265397 0.539709
vt 0.266768 0.532487
vt 0.231414 0.551290
vt 0.214659 0.541092
vt 0.231357 0.542861
vt 0.231940 0.569242
vt 0.215985 0.562822
vt 0.231472 0.559719
vt 0.230890 0.533338
vt 0.220414 0.530957
vt 0.213134 0.552274
vt 0.289666 0.544440
vt 0.282983 0.540904
vt 0.290637 0.536818
vt 0.279682 0.529141
vt 0.275518 0.536619
vt 0.273707 0.532162
vt 0.280945 0.538772
vt 0.286431 0.530872
vt 0.290637 0.551375
vt 0.284312 0.543753
vt 0.278488 0.537315
vt 0.276318 0.541045
vt 0.804698 0.251197
vt 0.792375 0.255919
vt 0.792638 0.252041
vt 0.786357 0.239035
vt 0.792578 0.249274
vt 0.791489 0.249454
vt 0.271776 0.541127
vt 0.760733 0.199751
vt 0.757502 0.209505
vt 0.750621 0.206121
vt 0.278108 0.542645
vt 0.273009 0.544115
vt 0.772804 0.201934
vt 0.766718 0.213101
vt 0.766203 0.208706
vt 0.264007 0.548518
vt 0.277612 0.547903
vt 0.268747 0.555467
vt 0.275021 0.546378
vt 0.280714 0.548498
vt 0.281954 0.545638
vt 0.276612 0.557409
vt 0.240880 0.530957
vt 0.248168 0.561486
vt 0.249693 0.550306
vt 0.246843 0.539760
vt 0.242415 0.571620
vt 0.762287 0.211045
vt 0.762255 0.210544
vt 0.761023 0.221925
vt 0.757316 0.212491
vt 0.750922 0.216572
vt 0.772804 0.220841
vt 0.791613 0.252007
vt 0.791097 0.255536
vt 0.780068 0.250772
vt 0.780487 0.263708
vt 0.804698 0.264828
vt 0.798786 0.238814
vt 0.221949 0.571626
vt 0.283377 0.553479
vn -0.0099 -0.9990 0.0433
vn 0.2340 -0.2691 -0.9343
vn 0.1898 0.6204 -0.7610
vn 0.1768 -0.6876 -0.7042
vn 0.2384 0.1826 -0.9538
vn 0.7332 0.6378 -0.2358
vn 0.7203 -0.6702 -0.1791
vn 0.9387 0.2050 -0.2771
vn 0.0099 0.9990 -0.0433
vn 0.9343 -0.2467 -0.2575
vn 0.5370 -0.6366 0.5535
vn -0.1588 -0.3260 0.9320
vn 0.6981 -0.2034 0.6865
vn -0.0698 0.9903 -0.1200
vn -0.1898 -0.6204 0.7610
vn -0.8398 0.5326 -0.1053
vn -0.2384 -0.1826 0.9538
vn -0.1495 -0.7854 0.6007
vn -0.7332 -0.6378 0.2358
vn -0.9343 0.2467 0.2575
vn -0.9387 -0.2050 0.2771
vn -0.7203 0.6702 0.1791
vn -0.5499 -0.6714 -0.4968
vn -0.6980 0.2034 -0.6866
vn -0.7025 -0.2482 -0.6670
vn -0.5370 0.6366 -0.5535
vn -0.2294 -0.3227 0.9183
vn -0.0323 0.9916 0.1254
vn 0.7660 0.5182 0.3803
vn 0.0674 0.9596 -0.2730
vn -0.9725 0.0871 0.2161
vn 0.6980 0.2493 0.6713
vn 0.6573 -0.3709 0.6560
vn 0.2108 0.9655 0.1530
vn 0.9525 0.2151 -0.2154
vn 0.5132 -0.6731 0.5325
vn -0.4333 0.5914 0.6800
vn 0.5993 0.5816 -0.5501
vn 0.1768 -0.6876 -0.7043
vn -0.1347 0.2804 0.9504
vn 0.6981 -0.2034 0.6866
vn -0.8558 0.5167 -0.0255
vn -0.6981 0.2034 -0.6865
vn 0.7895 0.5342 0.3023
vn -0.9323 0.2477 0.2634
vn 0.7560 0.0888 0.6485
vn 0.2108 0.9655 0.1531
vn 0.9239 -0.3200 -0.2099
vn -0.5000 0.6721 0.5462
vn 0.6905 0.5204 -0.5023
s off
f 17/1/1 27/2/1 5/3/1
f 3/4/2 9/5/2 4/6/2
f 1/7/3 7/8/3 2/9/3
f 5/10/4 9/5/4 10/11/4
f 2/9/5 8/12/5 3/4/5
f 6/13/6 29/14/6 7/15/6
f 9/16/7 13/17/7 10/18/7
f 7/15/8 11/19/8 8/20/8
f 1/21/9 28/22/9 6/13/9
f 8/20/10 12/23/10 9/16/10
f 13/17/11 16/24/11 17/1/11
f 30/25/12 42/26/12 38/27/12
f 11/19/13 16/24/13 12/23/13
f 28/28/14 41/29/14 39/30/14
f 16/24/15 22/31/15 17/1/15
f 19/32/16 35/33/16 18/34/16
f 15/35/17 21/36/17 16/24/17
f 20/37/18 34/38/18 36/39/18
f 22/31/19 26/40/19 27/2/19
f 19/41/20 25/42/20 20/43/20
f 1/21/9 18/44/9 14/45/9
f 20/43/21 26/40/21 21/36/21
f 18/44/22 24/46/22 19/41/22
f 27/47/23 4/6/23 5/10/23
f 24/48/24 3/4/24 25/49/24
f 25/49/25 4/6/25 26/50/25
f 23/51/26 2/9/26 24/48/26
f 13/17/1 5/3/1 10/18/1
f 31/52/27 36/39/27 34/38/27
f 31/52/28 35/33/28 32/53/28
f 30/54/29 33/55/29 31/52/29
f 18/34/30 33/55/30 14/56/30
f 19/32/31 36/39/31 32/53/31
f 30/54/32 34/38/32 15/57/32
f 37/58/33 42/26/33 40/59/33
f 37/58/34 41/29/34 38/27/34
f 29/60/35 40/59/35 11/61/35
f 11/61/36 42/26/36 15/62/36
f 30/25/37 41/29/37 14/63/37
f 29/60/38 39/30/38 37/58/38
f 17/1/1 22/31/1 27/2/1
f 3/4/2 8/12/2 9/5/2
f 1/7/3 6/64/3 7/8/3
f 5/10/39 4/6/39 9/5/39
f 2/9/5 7/8/5 8/12/5
f 6/13/6 28/22/6 29/14/6
f 9/16/7 12/23/7 13/17/7
f 7/15/8 29/14/8 11/19/8
f 1/21/9 14/45/9 28/22/9
f 8/20/10 11/19/10 12/23/10
f 13/17/11 12/23/11 16/24/11
f 30/25/40 15/62/40 42/26/40
f 11/19/41 15/35/41 16/24/41
f 28/28/14 14/63/14 41/29/14
f 16/24/15 21/36/15 22/31/15
f 19/32/42 32/53/42 35/33/42
f 15/35/17 20/43/17 21/36/17
f 20/37/18 15/57/18 34/38/18
f 22/31/19 21/36/19 26/40/19
f 19/41/20 24/46/20 25/42/20
f 1/21/9 23/65/9 18/44/9
f 20/43/21 25/42/21 26/40/21
f 18/44/22 23/65/22 24/46/22
f 27/47/23 26/50/23 4/6/23
f 24/48/43 2/9/43 3/4/43
f 25/49/25 3/4/25 4/6/25
f 23/51/26 1/7/26 2/9/26
f 13/17/1 17/1/1 5/3/1
f 31/52/27 32/53/27 36/39/27
f 31/52/28 33/55/28 35/33/28
f 30/54/44 14/56/44 33/55/44
f 18/34/30 35/33/30 33/55/30
f 19/32/45 20/37/45 36/39/45
f 30/54/46 31/52/46 34/38/46
f 37/58/33 38/27/33 42/26/33
f 37/58/47 39/30/47 41/29/47
f 29/60/48 37/58/48 40/59/48
f 11/61/36 40/59/36 42/26/36
f 30/25/49 38/27/49 41/29/49
f 29/60/50 28/28/50 39/30/50
v -2.183082 1.829767 -0.726305
v -2.174488 1.818860 -0.751380
v -2.168511 1.796163 -0.767834
v -2.166753 1.767759 -0.771259
v -2.169685 1.741259 -0.760737
v -2.164276 1.824936 -0.706568
v -2.141914 1.810491 -0.717195
v -2.130898 1.786500 -0.728361
v -2.134180 1.759391 -0.737074
v -2.150879 1.736427 -0.741000
v -2.146644 1.765200 -0.679733
v -2.147815 1.740944 -0.694961
v -2.158751 1.725777 -0.716686
v -2.198827 1.808467 -0.677677
v -2.200001 1.753562 -0.670579
v -2.194024 1.730866 -0.687034
v -2.185430 1.719958 -0.712109
v -2.217633 1.813298 -0.697414
v -2.234333 1.790335 -0.701340
v -2.237614 1.763225 -0.710053
v -2.226598 1.739234 -0.721219
v -2.204236 1.724790 -0.731846
v -2.209761 1.823948 -0.721728
v -2.220697 1.808781 -0.743453
v -2.221869 1.784526 -0.758681
v -2.212962 1.757681 -0.763332
v -2.196364 1.735440 -0.756160
v -2.172148 1.814286 -0.682254
v -2.155550 1.792045 -0.675082
v -2.201759 1.781966 -0.667155
v -2.248794 1.790028 -0.651257
v -2.251451 1.790711 -0.654046
v -2.220957 1.806993 -0.666759
v -2.229541 1.763530 -0.663922
v -2.230266 1.809385 -0.676529
v -2.243980 1.767239 -0.679076
v -2.166713 1.793211 -0.627954
v -2.177651 1.790826 -0.626078
v -2.174014 1.803188 -0.641991
v -2.167928 1.776170 -0.643451
v -2.179026 1.802095 -0.641131
v -2.172956 1.775074 -0.642589
vt 0.274240 0.539347
vt 0.265397 0.539709
vt 0.266768 0.532487
vt 0.231414 0.551290
vt 0.214659 0.541092
vt 0.231357 0.542861
vt 0.231940 0.569242
vt 0.215985 0.562822
vt 0.231472 0.559719
vt 0.230890 0.533338
vt 0.220414 0.530957
vt 0.213134 0.552274
vt 0.289666 0.544440
vt 0.282983 0.540904
vt 0.290637 0.536818
vt 0.279682 0.529141
vt 0.275518 0.536619
vt 0.273707 0.532162
vt 0.280945 0.538772
vt 0.286431 0.530872
vt 0.290637 0.551375
vt 0.284312 0.543753
vt 0.278488 0.537315
vt 0.276318 0.541045
vt 0.804698 0.251197
vt 0.792375 0.255919
vt 0.792638 0.252041
vt 0.786357 0.239035
vt 0.792578 0.249274
vt 0.791489 0.249454
vt 0.271776 0.541127
vt 0.760733 0.199751
vt 0.757502 0.209505
vt 0.750621 0.206121
vt 0.278108 0.542645
vt 0.273009 0.544115
vt 0.772804 0.201934
vt 0.766718 0.213101
vt 0.766203 0.208706
vt 0.264007 0.548518
vt 0.277612 0.547903
vt 0.268747 0.555467
vt 0.275021 0.546378
vt 0.280714 0.548498
vt 0.281954 0.545638
vt 0.276612 0.557409
vt 0.240880 0.530957
vt 0.248168 0.561486
vt 0.249693 0.550306
vt 0.246843 0.539760
vt 0.242415 0.571620
vt 0.762287 0.211045
vt 0.762255 0.210544
vt 0.761023 0.221925
vt 0.757316 0.212491
vt 0.750922 0.216572
vt 0.772804 0.220841
vt 0.791613 0.252007
vt 0.791097 0.255536
vt 0.780068 0.250772
vt 0.780487 0.263708
vt 0.804698 0.264828
vt 0.798786 0.238814
vt 0.221949 0.571626
vt 0.283377 0.553479
vn 0.1397 -0.9228 -0.3590
vn 0.7334 0.1259 -0.6680
vn 0.4532 0.8637 -0.2204
vn 0.6361 -0.3445 -0.6904
vn 0.6703 0.5431 -0.5057
vn 0.6255 0.6197 0.4740
vn 0.8084 -0.5886 0.0040
vn 0.8924 0.2286 0.3891
vn -0.1397 0.9228 0.3590
vn 0.9555 -0.1885 0.2268
vn 0.2638 -0.8482 0.4594
vn -0.5679 -0.6702 0.4779
vn 0.2537 -0.5231 0.8137
vn -0.1641 0.9529 0.2550
vn -0.4532 -0.8637 0.2204
vn -0.7344 0.5911 -0.3335
vn -0.6703 -0.5431 0.5057
vn -0.3070 -0.9498 0.0600
vn -0.6255 -0.6197 -0.4740
vn -0.9555 0.1886 -0.2268
vn -0.8924 -0.2287 -0.3891
vn -0.8084 0.5886 -0.0040
vn -0.0809 -0.3601 -0.9294
vn -0.2537 0.5231 -0.8137
vn -0.1905 0.1059 -0.9760
vn -0.2638 0.8482 -0.4594
vn -0.6200 -0.6561 0.4302
vn -0.2626 0.8493 0.4580
vn 0.3484 0.2530 0.9025
vn 0.0361 0.9781 0.2051
vn -0.9382 0.0640 -0.3401
vn 0.1843 -0.1064 0.9771
vn 0.2645 -0.6591 0.7040
vn -0.0702 0.7955 0.6019
vn 0.8696 0.2112 0.4463
vn 0.2614 -0.8707 0.4166
vn -0.8204 0.2871 0.4945
vn 0.6894 0.7095 0.1457
vn 0.8924 0.2287 0.3891
vn -0.6612 -0.1300 0.7388
vn -0.7871 0.5448 -0.2892
vn -0.6256 -0.6197 -0.4740
vn -0.9555 0.1885 -0.2268
vn -0.8924 -0.2286 -0.3891
vn -0.2625 0.8493 0.4580
vn 0.4063 0.2980 0.8638
vn -0.9572 0.1869 -0.2209
vn 0.2721 -0.2469 0.9301
vn -0.0703 0.7955 0.6019
vn 0.9343 -0.2740 0.2281
vn 0.2614 -0.8707 0.4167
vn -0.8190 0.4209 0.3899
vn 0.7507 0.6272 0.2076
s off
f 59/66/51 69/67/51 47/68/51
f 45/69/52 51/70/52 46/71/52
f 43/72/53 49/73/53 44/74/53
f 47/75/54 51/70/54 52/76/54
f 44/74/55 50/77/55 45/69/55
f 48/78/56 71/79/56 49/80/56
f 51/81/57 55/82/57 52/83/57
f 49/80/58 53/84/58 50/85/58
f 43/86/59 70/87/59 48/78/59
f 50/85/60 54/88/60 51/81/60
f 55/82/61 58/89/61 59/66/61
f 72/90/62 84/91/62 80/92/62
f 53/84/63 58/89/63 54/88/63
f 70/93/64 83/94/64 81/95/64
f 58/89/65 64/96/65 59/66/65
f 61/97/66 77/98/66 60/99/66
f 57/100/67 63/101/67 58/89/67
f 62/102/68 76/103/68 78/104/68
f 64/96/69 68/105/69 69/67/69
f 61/106/70 67/107/70 62/108/70
f 43/86/59 60/109/59 56/110/59
f 62/108/71 68/105/71 63/101/71
f 60/109/72 66/111/72 61/106/72
f 69/112/73 46/71/73 47/75/73
f 66/113/74 45/69/74 67/114/74
f 67/114/75 46/71/75 68/115/75
f 65/116/76 44/74/76 66/113/76
f 55/82/51 47/68/51 52/83/51
f 73/117/77 78/104/77 76/103/77
f 73/117/78 77/98/78 74/118/78
f 72/119/79 75/120/79 73/117/79
f 60/99/80 75/120/80 56/121/80
f 61/97/81 78/104/81 74/118/81
f 72/119/82 76/103/82 57/122/82
f 79/123/83 84/91/83 82/124/83
f 79/123/84 83/94/84 80/92/84
f 71/125/85 82/124/85 53/126/85
f 53/126/86 84/91/86 57/127/86
f 72/90/87 83/94/87 56/128/87
f 71/125/88 81/95/88 79/123/88
f 59/66/51 64/96/51 69/67/51
f 45/69/52 50/77/52 51/70/52
f 43/72/53 48/129/53 49/73/53
f 47/75/54 46/71/54 51/70/54
f 44/74/55 49/73/55 50/77/55
f 48/78/56 70/87/56 71/79/56
f 51/81/57 54/88/57 55/82/57
f 49/80/89 71/79/89 53/84/89
f 43/86/59 56/110/59 70/87/59
f 50/85/60 53/84/60 54/88/60
f 55/82/61 54/88/61 58/89/61
f 72/90/90 57/127/90 84/91/90
f 53/84/63 57/100/63 58/89/63
f 70/93/64 56/128/64 83/94/64
f 58/89/65 63/101/65 64/96/65
f 61/97/91 74/118/91 77/98/91
f 57/100/67 62/108/67 63/101/67
f 62/102/68 57/122/68 76/103/68
f 64/96/92 63/101/92 68/105/92
f 61/106/93 66/111/93 67/107/93
f 43/86/59 65/130/59 60/109/59
f 62/108/94 67/107/94 68/105/94
f 60/109/72 65/130/72 66/111/72
f 69/112/73 68/115/73 46/71/73
f 66/113/74 44/74/74 45/69/74
f 67/114/75 45/69/75 46/71/75
f 65/116/76 43/72/76 44/74/76
f 55/82/51 59/66/51 47/68/51
f 73/117/77 74/118/77 78/104/77
f 73/117/95 75/120/95 77/98/95
f 72/119/96 56/121/96 75/120/96
f 60/99/80 77/98/80 75/120/80
f 61/97/97 62/102/97 78/104/97
f 72/119/98 73/117/98 76/103/98
f 79/123/83 80/92/83 84/91/83
f 79/123/99 81/95/99 83/94/99
f 71/125/100 79/123/100 82/124/100
f 53/126/101 82/124/101 84/91/101
f 72/90/102 80/92/102 83/94/102
f 71/125/103 70/93/103 81/95/103
