# Blender v2.81 (sub 16) OBJ File: 'garbage.blend'
# www.blender.org
v -0.101916 1.815387 -1.171447
v -0.102463 1.787717 -1.163987
v -0.116165 1.765431 -1.152275
v -0.139352 1.754501 -1.139450
v -0.165811 1.757855 -1.128947
v -0.101553 1.831575 -1.148988
v -0.101835 1.815755 -1.125088
v -0.115440 1.797806 -1.107358
v -0.138724 1.782539 -1.100550
v -0.165448 1.774043 -1.106488
v -0.150836 1.840187 -1.103201
v -0.169378 1.819241 -1.096951
v -0.183146 1.795233 -1.104410
v -0.137312 1.857768 -1.167290
v -0.186957 1.850192 -1.143962
v -0.200660 1.827906 -1.132250
v -0.201206 1.800236 -1.124790
v -0.137674 1.841580 -1.189749
v -0.164398 1.833084 -1.195687
v -0.187682 1.817816 -1.188879
v -0.201288 1.799868 -1.171150
v -0.201569 1.784048 -1.147249
v -0.119976 1.820390 -1.191827
v -0.133744 1.796382 -1.199287
v -0.152286 1.775436 -1.193036
v -0.170634 1.763165 -1.174749
v -0.183871 1.762857 -1.149327
v -0.119251 1.852765 -1.146910
v -0.132488 1.852458 -1.121488
v -0.163770 1.861122 -1.156788
v -0.181269 1.882303 -1.198920
v -0.181320 1.880016 -1.202093
v -0.150809 1.869648 -1.184254
v -0.193020 1.861591 -1.173109
v -0.150989 1.861635 -1.195371
v -0.193298 1.849162 -1.190353
v -0.145992 1.898960 -1.122970
v -0.153397 1.901011 -1.131325
v -0.137817 1.888686 -1.136292
v -0.158234 1.879663 -1.119834
v -0.141210 1.889626 -1.140121
v -0.161637 1.880606 -1.123674
vt 0.274240 0.539347
vt 0.265397 0.539709
vt 0.266768 0.532487
vt 0.231414 0.551290
vt 0.214659 0.541092
vt 0.231357 0.542861
vt 0.231940 0.569242
vt 0.215985 0.562822
vt 0.231472 0.559719
vt 0.230890 0.533338
vt 0.220414 0.530957
vt 0.213134 0.552274
vt 0.289666 0.544440
vt 0.282983 0.540904
vt 0.290637 0.536818
vt 0.279682 0.529141
vt 0.275518 0.536619
vt 0.273707 0.532162
vt 0.280945 0.538772
vt 0.286431 0.530872
vt 0.290637 0.551375
vt 0.284312 0.543753
vt 0.278488 0.537315
vt 0.276318 0.541045
vt 0.804698 0.251197
vt 0.792375 0.255919
vt 0.792638 0.252041
vt 0.786357 0.239035
vt 0.792578 0.249274
vt 0.791489 0.249454
vt 0.271776 0.541127
vt 0.760733 0.199751
vt 0.757502 0.209505
vt 0.750621 0.206121
vt 0.278108 0.542645
vt 0.273009 0.544115
vt 0.772804 0.201934
vt 0.766718 0.213101
vt 0.766203 0.208706
vt 0.264007 0.548518
vt 0.277612 0.547903
vt 0.268747 0.555467
vt 0.275021 0.546378
vt 0.280714 0.548498
vt 0.281954 0.545638
vt 0.276612 0.557409
vt 0.240880 0.530957
vt 0.248168 0.561486
vt 0.249693 0.550306
vt 0.246843 0.539760
vt 0.242415 0.571620
vt 0.762287 0.211045
vt 0.762255 0.210544
vt 0.761023 0.221925
vt 0.757316 0.212491
vt 0.750922 0.216572
vt 0.772804 0.220841
vt 0.791613 0.252007
vt 0.791097 0.255536
vt 0.780068 0.250772
vt 0.780487 0.263708
vt 0.804698 0.264828
vt 0.798786 0.238814
vt 0.221949 0.571626
vt 0.283377 0.553479
vn -0.6662 -0.5999 0.4431
vn 0.5758 -0.6677 0.4719
vn 0.9998 -0.0202 -0.0016
vn 0.1275 -0.8056 0.5786
vn 0.8770 -0.3965 0.2716
vn 0.7265 0.5690 0.3852
vn -0.1457 -0.2164 0.9654
vn 0.5248 0.3628 0.7700
vn 0.6662 0.5999 -0.4431
vn 0.2236 0.0916 0.9704
vn -0.7094 0.1965 0.6769
vn -0.9353 0.3280 -0.1327
vn -0.5027 0.6237 0.5986
vn 0.7021 0.5098 -0.4971
vn -0.9998 0.0202 0.0016
vn 0.2476 -0.1056 -0.9631
vn -0.8770 0.3965 -0.2716
vn -0.9761 -0.1684 0.1372
vn -0.7265 -0.5690 -0.3852
vn -0.2236 -0.0916 -0.9704
vn -0.5248 -0.3628 -0.7700
vn 0.1457 0.2164 -0.9654
vn -0.1629 -0.9819 -0.0967
vn 0.5027 -0.6237 -0.5986
vn 0.2015 -0.8949 -0.3983
vn 0.7094 -0.1965 -0.6769
vn -0.9372 0.2900 -0.1939
vn 0.5268 0.6855 -0.5026
vn 0.1965 0.9064 0.3741
vn 0.8247 0.4524 -0.3394
vn -0.3012 -0.2348 -0.9242
vn -0.2050 0.8963 0.3932
vn -0.5939 0.4815 0.6445
vn 0.5383 0.7941 -0.2821
vn 0.4879 0.4150 0.7680
vn -0.7215 0.1497 0.6761
vn -0.2216 0.6169 -0.7552
vn 0.8994 0.2721 0.3421
vn -0.5608 0.7289 -0.3927
vn 0.1746 -0.0711 -0.9821
vn 0.2696 0.8763 0.3992
vn -0.2271 -0.0863 -0.9701
vn -0.2779 0.8070 0.5211
vn 0.1395 0.0720 0.9876
vn -0.0838 0.5516 -0.8299
vn 0.8432 0.3049 0.4427
s off
f 17/1/1 27/2/1 5/3/1
f 3/4/2 9/5/2 4/6/2
f 1/7/3 7/8/3 2/9/3
f 5/10/4 9/5/4 10/11/4
f 2/9/5 8/12/5 3/4/5
f 6/13/6 29/14/6 7/15/6
f 9/16/7 13/17/7 10/18/7
f 7/15/8 11/19/8 8/20/8
f 1/21/9 28/22/9 6/13/9
f 8/20/10 12/23/10 9/16/10
f 13/17/11 16/24/11 17/1/11
f 30/25/12 42/26/12 38/27/12
f 11/19/13 16/24/13 12/23/13
f 28/28/14 41/29/14 39/30/14
f 16/24/15 22/31/15 17/1/15
f 19/32/16 35/33/16 18/34/16
f 15/35/17 21/36/17 16/24/17
f 20/37/18 34/38/18 36/39/18
f 22/31/19 26/40/19 27/2/19
f 19/41/20 25/42/20 20/43/20
f 1/21/9 18/44/9 14/45/9
f 20/43/21 26/40/21 21/36/21
f 18/44/22 24/46/22 19/41/22
f 27/47/23 4/6/23 5/10/23
f 24/48/24 3/4/24 25/49/24
f 25/49/25 4/6/25 26/50/25
f 23/51/26 2/9/26 24/48/26
f 13/17/1 5/3/1 10/18/1
f 31/52/27 36/39/27 34/38/27
f 31/52/28 35/33/28 32/53/28
f 30/54/29 33/55/29 31/52/29
f 18/34/30 33/55/30 14/56/30
f 19/32/31 36/39/31 32/53/31
f 30/54/32 34/38/32 15/57/32
f 37/58/33 42/26/33 40/59/33
f 37/58/34 41/29/34 38/27/34
f 29/60/35 40/59/35 11/61/35
f 11/61/36 42/26/36 15/62/36
f 30/25/37 41/29/37 14/63/37
f 29/60/38 39/30/38 37/58/38
f 17/1/1 22/31/1 27/2/1
f 3/4/2 8/12/2 9/5/2
f 1/7/3 6/64/3 7/8/3
f 5/10/4 4/6/4 9/5/4
f 2/9/5 7/8/5 8/12/5
f 6/13/6 28/22/6 29/14/6
f 9/16/7 12/23/7 13/17/7
f 7/15/8 29/14/8 11/19/8
f 1/21/9 14/45/9 28/22/9
f 8/20/10 11/19/10 12/23/10
f 13/17/11 12/23/11 16/24/11
f 30/25/39 15/62/39 42/26/39
f 11/19/13 15/35/13 16/24/13
f 28/28/14 14/63/14 41/29/14
f 16/24/15 21/36/15 22/31/15
f 19/32/40 32/53/40 35/33/40
f 15/35/17 20/43/17 21/36/17
f 20/37/18 15/57/18 34/38/18
f 22/31/19 21/36/19 26/40/19
f 19/41/20 24/46/20 25/42/20
f 1/21/9 23/65/9 18/44/9
f 20/43/21 25/42/21 26/40/21
f 18/44/22 23/65/22 24/46/22
f 27/47/23 26/50/23 4/6/23
f 24/48/24 2/9/24 3/4/24
f 25/49/25 3/4/25 4/6/25
f 23/51/26 1/7/26 2/9/26
f 13/17/1 17/1/1 5/3/1
f 31/52/27 32/53/27 36/39/27
f 31/52/28 33/55/28 35/33/28
f 30/54/41 14/56/41 33/55/41
f 18/34/30 35/33/30 33/55/30
f 19/32/42 20/37/42 36/39/42
f 30/54/43 31/52/43 34/38/43
f 37/58/33 38/27/33 42/26/33
f 37/58/34 39/30/34 41/29/34
f 29/60/44 37/58/44 40/59/44
f 11/61/36 40/59/36 42/26/36
f 30/25/45 38/27/45 41/29/45
f 29/60/46 28/28/46 39/30/46
v 2.371071 1.023205 -2.874955
v 2.378175 1.007489 -2.852061
v 2.377711 0.982533 -2.837970
v 2.369802 0.955024 -2.836456
v 2.356567 0.932333 -2.847927
v 2.343704 1.027287 -2.875916
v 2.330774 1.014560 -2.853726
v 2.322976 0.990697 -2.839892
v 2.322400 0.962094 -2.838121
v 2.329200 0.936415 -2.848887
v 2.295193 0.981169 -2.886834
v 2.298339 0.953843 -2.878774
v 2.315309 0.931651 -2.872359
v 2.343288 1.013677 -2.921897
v 2.322145 0.963477 -2.931854
v 2.321680 0.938521 -2.917763
v 2.328784 0.922805 -2.894869
v 2.370655 1.009595 -2.920937
v 2.377455 0.983916 -2.931703
v 2.376879 0.955313 -2.929932
v 2.369082 0.931450 -2.916098
v 2.356152 0.918723 -2.893908
v 2.384547 1.014359 -2.897465
v 2.401516 0.992167 -2.891050
v 2.404663 0.964841 -2.882990
v 2.393143 0.939702 -2.875445
v 2.370043 0.923487 -2.870437
v 2.329812 1.022524 -2.899387
v 2.306713 1.006308 -2.894379
v 2.330054 0.990986 -2.933368
v 2.354450 0.994871 -2.977182
v 2.358317 0.994294 -2.977046
v 2.350853 1.011466 -2.945327
v 2.341192 0.969644 -2.956661
v 2.364400 1.009445 -2.944852
v 2.362205 0.966510 -2.955923
v 2.283846 1.018414 -2.935337
v 2.289370 1.014788 -2.944565
v 2.301201 1.022746 -2.929868
v 2.289471 0.997832 -2.926575
v 2.303733 1.021084 -2.934098
v 2.292010 0.996165 -2.930817
vt 0.274240 0.539347
vt 0.265397 0.539709
vt 0.266768 0.532487
vt 0.231414 0.551290
vt 0.214659 0.541092
vt 0.231357 0.542861
vt 0.231940 0.569242
vt 0.215985 0.562822
vt 0.231472 0.559719
vt 0.230890 0.533338
vt 0.220414 0.530957
vt 0.213134 0.552274
vt 0.289666 0.544440
vt 0.282983 0.540904
vt 0.290637 0.536818
vt 0.279682 0.529141
vt 0.275518 0.536619
vt 0.273707 0.532162
vt 0.280945 0.538772
vt 0.286431 0.530872
vt 0.290637 0.551375
vt 0.284312 0.543753
vt 0.278488 0.537315
vt 0.276318 0.541045
vt 0.804698 0.251197
vt 0.792375 0.255919
vt 0.792638 0.252041
vt 0.786357 0.239035
vt 0.792578 0.249274
vt 0.791489 0.249454
vt 0.271776 0.541127
vt 0.760733 0.199751
vt 0.757502 0.209505
vt 0.750621 0.206121
vt 0.278108 0.542645
vt 0.273009 0.544115
vt 0.772804 0.201934
vt 0.766718 0.213101
vt 0.766203 0.208706
vt 0.264007 0.548518
vt 0.277612 0.547903
vt 0.268747 0.555467
vt 0.275021 0.546378
vt 0.280714 0.548498
vt 0.281954 0.545638
vt 0.276612 0.557409
vt 0.240880 0.530957
vt 0.248168 0.561486
vt 0.249693 0.550306
vt 0.246843 0.539760
vt 0.242415 0.571620
vt 0.762287 0.211045
vt 0.762255 0.210544
vt 0.761023 0.221925
vt 0.757316 0.212491
vt 0.750922 0.216572
vt 0.772804 0.220841
vt 0.791613 0.252007
vt 0.791097 0.255536
vt 0.780068 0.250772
vt 0.780487 0.263708
vt 0.804698 0.264828
vt 0.798786 0.238814
vt 0.221949 0.571626
vt 0.283377 0.553479
vn -0.1512 -0.9475 0.2818
vn -0.0257 0.0623 0.9977
vn 0.1055 0.8348 0.5403
vn -0.0924 -0.4057 0.9093
vn 0.0426 0.4906 0.8703
vn -0.5448 0.8241 0.1552
vn -0.7428 -0.4165 0.5242
vn -0.7955 0.4768 0.3740
vn 0.1512 0.9475 -0.2818
vn -0.8638 0.0485 0.5014
vn -0.7494 -0.6310 -0.2006
vn -0.1346 -0.6008 -0.7880
vn -0.8723 -0.2280 -0.4326
vn 0.2456 0.9432 -0.2236
vn -0.1055 -0.8348 -0.5403
vn 0.9088 0.3413 -0.2399
vn -0.0426 -0.4906 -0.8703
vn -0.1279 -0.9351 -0.3306
vn 0.5448 -0.8241 -0.1552
vn 0.8638 -0.0484 -0.5014
vn 0.7955 -0.4768 -0.3740
vn 0.7428 0.4165 -0.5242
vn 0.5514 -0.6095 0.5696
vn 0.8723 0.2280 0.4326
vn 0.8039 -0.2003 0.5600
vn 0.7494 0.6310 0.2006
vn -0.0632 -0.6096 -0.7902
vn 0.1475 0.8839 -0.4439
vn -0.7511 0.5469 -0.3697
vn 0.1489 0.9878 -0.0452
vn 0.8870 -0.1943 -0.4189
vn -0.8006 0.1991 -0.5652
vn -0.8507 -0.3849 -0.3580
vn -0.0958 0.9056 -0.4132
vn -0.8228 0.4720 0.3164
vn -0.7268 -0.6645 -0.1740
vn 0.3292 0.2660 -0.9060
vn -0.3452 0.8300 0.4381
vn -0.0925 -0.4057 0.9093
vn -0.8638 0.0484 0.5014
vn -0.0715 -0.0343 -0.9968
vn 0.2456 0.9432 -0.2237
vn -0.1056 -0.8348 -0.5403
vn 0.9014 0.3005 -0.3117
vn 0.1474 0.8839 -0.4438
vn -0.7512 0.5889 -0.2981
vn 0.8606 -0.0487 -0.5069
vn -0.8742 0.0684 -0.4807
vn -0.8770 -0.0358 0.4791
vn -0.7267 -0.6645 -0.1740
vn 0.4391 0.3640 -0.8214
vn -0.4537 0.7797 0.4316
s off
f 59/66/47 69/67/47 47/68/47
f 45/69/48 51/70/48 46/71/48
f 43/72/49 49/73/49 44/74/49
f 47/75/50 51/70/50 52/76/50
f 44/74/51 50/77/51 45/69/51
f 48/78/52 71/79/52 49/80/52
f 51/81/53 55/82/53 52/83/53
f 49/80/54 53/84/54 50/85/54
f 43/86/55 70/87/55 48/78/55
f 50/85/56 54/88/56 51/81/56
f 55/82/57 58/89/57 59/66/57
f 72/90/58 84/91/58 80/92/58
f 53/84/59 58/89/59 54/88/59
f 70/93/60 83/94/60 81/95/60
f 58/89/61 64/96/61 59/66/61
f 61/97/62 77/98/62 60/99/62
f 57/100/63 63/101/63 58/89/63
f 62/102/64 76/103/64 78/104/64
f 64/96/65 68/105/65 69/67/65
f 61/106/66 67/107/66 62/108/66
f 43/86/55 60/109/55 56/110/55
f 62/108/67 68/105/67 63/101/67
f 60/109/68 66/111/68 61/106/68
f 69/112/69 46/71/69 47/75/69
f 66/113/70 45/69/70 67/114/70
f 67/114/71 46/71/71 68/115/71
f 65/116/72 44/74/72 66/113/72
f 55/82/47 47/68/47 52/83/47
f 73/117/73 78/104/73 76/103/73
f 73/117/74 77/98/74 74/118/74
f 72/119/75 75/120/75 73/117/75
f 60/99/76 75/120/76 56/121/76
f 61/97/77 78/104/77 74/118/77
f 72/119/78 76/103/78 57/122/78
f 79/123/79 84/91/79 82/124/79
f 79/123/80 83/94/80 80/92/80
f 71/125/81 82/124/81 53/126/81
f 53/126/82 84/91/82 57/127/82
f 72/90/83 83/94/83 56/128/83
f 71/125/84 81/95/84 79/123/84
f 59/66/47 64/96/47 69/67/47
f 45/69/48 50/77/48 51/70/48
f 43/72/49 48/129/49 49/73/49
f 47/75/85 46/71/85 51/70/85
f 44/74/51 49/73/51 50/77/51
f 48/78/52 70/87/52 71/79/52
f 51/81/53 54/88/53 55/82/53
f 49/80/54 71/79/54 53/84/54
f 43/86/55 56/110/55 70/87/55
f 50/85/86 53/84/86 54/88/86
f 55/82/57 54/88/57 58/89/57
f 72/90/87 57/127/87 84/91/87
f 53/84/59 57/100/59 58/89/59
f 70/93/88 56/128/88 83/94/88
f 58/89/89 63/101/89 64/96/89
f 61/97/90 74/118/90 77/98/90
f 57/100/63 62/108/63 63/101/63
f 62/102/64 57/122/64 76/103/64
f 64/96/65 63/101/65 68/105/65
f 61/106/66 66/111/66 67/107/66
f 43/86/55 65/130/55 60/109/55
f 62/108/67 67/107/67 68/105/67
f 60/109/68 65/130/68 66/111/68
f 69/112/69 68/115/69 46/71/69
f 66/113/70 44/74/70 45/69/70
f 67/114/71 45/69/71 46/71/71
f 65/116/72 43/72/72 44/74/72
f 55/82/47 59/66/47 47/68/47
f 73/117/73 74/118/73 78/104/73
f 73/117/91 75/120/91 77/98/91
f 72/119/92 56/121/92 75/120/92
f 60/99/76 77/98/76 75/120/76
f 61/97/93 62/102/93 78/104/93
f 72/119/94 73/117/94 76/103/94
f 79/123/79 80/92/79 84/91/79
f 79/123/80 81/95/80 83/94/80
f 71/125/95 79/123/95 82/124/95
f 53/126/96 82/124/96 84/91/96
f 72/90/97 80/92/97 83/94/97
f 71/125/98 70/93/98 81/95/98
