# Blender v2.81 (sub 16) OBJ File: 'garbage.blend'
# www.blender.org
v -0.295203 2.127784 1.121855
v -0.313815 2.106802 1.115942
v -0.319860 2.078869 1.113756
v -0.311718 2.051468 1.115882
v -0.291570 2.031943 1.121751
v -0.275004 2.128570 1.102936
v -0.278828 2.108164 1.083174
v -0.279461 2.080441 1.075918
v -0.276731 2.052830 1.083113
v -0.271371 2.032729 1.102832
v -0.226515 2.082430 1.092012
v -0.230879 2.054553 1.097051
v -0.244898 2.033723 1.110879
v -0.242257 2.129773 1.137949
v -0.213968 2.082847 1.145944
v -0.220013 2.054914 1.143758
v -0.238625 2.033932 1.137845
v -0.262457 2.128987 1.156868
v -0.257096 2.108886 1.176587
v -0.254367 2.081274 1.183782
v -0.254999 2.053552 1.176526
v -0.258824 2.033145 1.156764
v -0.288930 2.127992 1.148821
v -0.302949 2.107163 1.162649
v -0.307313 2.079285 1.167688
v -0.300852 2.051829 1.162588
v -0.285297 2.032151 1.148717
v -0.248531 2.129565 1.110983
v -0.232976 2.109887 1.097112
v -0.222110 2.110247 1.143818
v -0.211133 2.130346 1.188601
v -0.213987 2.130235 1.191275
v -0.231847 2.135799 1.159546
v -0.212074 2.098614 1.173586
v -0.241846 2.135410 1.168911
v -0.227583 2.098010 1.188111
v -0.190280 2.131064 1.105807
v -0.187708 2.131150 1.116862
v -0.207188 2.135607 1.112392
v -0.197754 2.109642 1.109960
v -0.206009 2.135646 1.117459
v -0.196572 2.109681 1.115041
vt 0.274240 0.539347
vt 0.265397 0.539709
vt 0.266768 0.532487
vt 0.231414 0.551290
vt 0.214659 0.541092
vt 0.231357 0.542861
vt 0.231940 0.569242
vt 0.215985 0.562822
vt 0.231472 0.559719
vt 0.230890 0.533338
vt 0.220414 0.530957
vt 0.213134 0.552274
vt 0.289666 0.544440
vt 0.282983 0.540904
vt 0.290637 0.536818
vt 0.279682 0.529141
vt 0.275518 0.536619
vt 0.273707 0.532162
vt 0.280945 0.538772
vt 0.286431 0.530872
vt 0.290637 0.551375
vt 0.284312 0.543753
vt 0.278488 0.537315
vt 0.276318 0.541045
vt 0.804698 0.251197
vt 0.792375 0.255919
vt 0.792638 0.252041
vt 0.786357 0.239035
vt 0.792578 0.249274
vt 0.791489 0.249454
vt 0.271776 0.541127
vt 0.760733 0.199751
vt 0.757502 0.209505
vt 0.750621 0.206121
vt 0.278108 0.542645
vt 0.273009 0.544115
vt 0.772804 0.201934
vt 0.766718 0.213101
vt 0.766203 0.208706
vt 0.264007 0.548518
vt 0.277612 0.547903
vt 0.268747 0.555467
vt 0.275021 0.546378
vt 0.280714 0.548498
vt 0.281954 0.545638
vt 0.276612 0.557409
vt 0.240880 0.530957
vt 0.248168 0.561486
vt 0.249693 0.550306
vt 0.246843 0.539760
vt 0.242415 0.571620
vt 0.762287 0.211045
vt 0.762255 0.210544
vt 0.761023 0.221925
vt 0.757316 0.212491
vt 0.750922 0.216572
vt 0.772804 0.220841
vt 0.791613 0.252007
vt 0.791097 0.255536
vt 0.780068 0.250772
vt 0.780487 0.263708
vt 0.804698 0.264828
vt 0.798786 0.238814
vt 0.221949 0.571626
vt 0.283377 0.553479
vn 0.0379 -0.9993 -0.0011
vn -0.6566 -0.2503 -0.7115
vn -0.5410 0.6352 -0.5512
vn -0.4914 -0.6731 -0.5526
vn -0.6737 0.2014 -0.7110
vn 0.1947 0.6633 -0.7226
vn 0.2443 -0.6451 -0.7240
vn 0.2743 0.2376 -0.9318
vn -0.0379 0.9993 0.0011
vn 0.2915 -0.2141 -0.9323
vn 0.7605 -0.6261 -0.1721
vn 0.6995 -0.3420 0.6275
vn 0.9566 -0.1897 -0.2211
vn -0.1454 0.9890 0.0261
vn 0.5410 -0.6352 0.5512
vn -0.5471 0.5073 0.6658
vn 0.6737 -0.2015 0.7110
vn 0.4292 -0.7969 0.4251
vn -0.1947 -0.6633 0.7226
vn -0.2914 0.2141 0.9323
vn -0.2743 -0.2376 0.9318
vn -0.2443 0.6451 0.7240
vn -0.7109 -0.6823 0.1707
vn -0.9566 0.1897 0.2211
vn -0.9395 -0.2621 0.2206
vn -0.7605 0.6261 0.1721
vn 0.6497 -0.3408 0.6795
vn 0.0811 0.9885 0.1276
vn 0.7311 0.5374 -0.4204
vn -0.1995 0.9645 -0.1730
vn -0.3459 0.0540 0.9367
vn 0.9407 0.2629 -0.2144
vn 0.9100 -0.3580 -0.2090
vn 0.2362 0.9697 -0.0624
vn 0.3336 0.2475 -0.9097
vn 0.7302 -0.6631 -0.1647
vn 0.3327 0.5693 0.7518
vn -0.1416 0.6067 -0.7822
vn -0.6737 0.2015 -0.7110
vn 0.2914 -0.2141 -0.9323
vn 0.7239 0.2645 0.6372
vn -0.1454 0.9890 0.0262
vn -0.4886 0.4899 0.7220
vn 0.6737 -0.2014 0.7110
vn 0.4292 -0.7969 0.4252
vn 0.0811 0.9885 0.1277
vn 0.6782 0.5550 -0.4818
vn -0.1995 0.9645 -0.1729
vn -0.2854 0.2152 0.9339
vn 0.9541 0.1046 -0.2808
vn 0.3264 -0.2884 -0.9002
vn 0.7302 -0.6631 -0.1648
vn 0.1836 0.6494 0.7379
vn -0.0516 0.5478 -0.8350
s off
f 17/1/1 27/2/1 5/3/1
f 3/4/2 9/5/2 4/6/2
f 1/7/3 7/8/3 2/9/3
f 5/10/4 9/5/4 10/11/4
f 2/9/5 8/12/5 3/4/5
f 6/13/6 29/14/6 7/15/6
f 9/16/7 13/17/7 10/18/7
f 7/15/8 11/19/8 8/20/8
f 1/21/9 28/22/9 6/13/9
f 8/20/10 12/23/10 9/16/10
f 13/17/11 16/24/11 17/1/11
f 30/25/12 42/26/12 38/27/12
f 11/19/13 16/24/13 12/23/13
f 28/28/14 41/29/14 39/30/14
f 16/24/15 22/31/15 17/1/15
f 19/32/16 35/33/16 18/34/16
f 15/35/17 21/36/17 16/24/17
f 20/37/18 34/38/18 36/39/18
f 22/31/19 26/40/19 27/2/19
f 19/41/20 25/42/20 20/43/20
f 1/21/9 18/44/9 14/45/9
f 20/43/21 26/40/21 21/36/21
f 18/44/22 24/46/22 19/41/22
f 27/47/23 4/6/23 5/10/23
f 24/48/24 3/4/24 25/49/24
f 25/49/25 4/6/25 26/50/25
f 23/51/26 2/9/26 24/48/26
f 13/17/1 5/3/1 10/18/1
f 31/52/27 36/39/27 34/38/27
f 31/52/28 35/33/28 32/53/28
f 30/54/29 33/55/29 31/52/29
f 18/34/30 33/55/30 14/56/30
f 19/32/31 36/39/31 32/53/31
f 30/54/32 34/38/32 15/57/32
f 37/58/33 42/26/33 40/59/33
f 37/58/34 41/29/34 38/27/34
f 29/60/35 40/59/35 11/61/35
f 11/61/36 42/26/36 15/62/36
f 30/25/37 41/29/37 14/63/37
f 29/60/38 39/30/38 37/58/38
f 17/1/1 22/31/1 27/2/1
f 3/4/2 8/12/2 9/5/2
f 1/7/3 6/64/3 7/8/3
f 5/10/4 4/6/4 9/5/4
f 2/9/39 7/8/39 8/12/39
f 6/13/6 28/22/6 29/14/6
f 9/16/7 12/23/7 13/17/7
f 7/15/8 29/14/8 11/19/8
f 1/21/9 14/45/9 28/22/9
f 8/20/40 11/19/40 12/23/40
f 13/17/11 12/23/11 16/24/11
f 30/25/41 15/62/41 42/26/41
f 11/19/13 15/35/13 16/24/13
f 28/28/42 14/63/42 41/29/42
f 16/24/15 21/36/15 22/31/15
f 19/32/43 32/53/43 35/33/43
f 15/35/44 20/43/44 21/36/44
f 20/37/45 15/57/45 34/38/45
f 22/31/19 21/36/19 26/40/19
f 19/41/20 24/46/20 25/42/20
f 1/21/9 23/65/9 18/44/9
f 20/43/21 25/42/21 26/40/21
f 18/44/22 23/65/22 24/46/22
f 27/47/23 26/50/23 4/6/23
f 24/48/24 2/9/24 3/4/24
f 25/49/25 3/4/25 4/6/25
f 23/51/26 1/7/26 2/9/26
f 13/17/1 17/1/1 5/3/1
f 31/52/27 32/53/27 36/39/27
f 31/52/46 33/55/46 35/33/46
f 30/54/47 14/56/47 33/55/47
f 18/34/48 35/33/48 33/55/48
f 19/32/49 20/37/49 36/39/49
f 30/54/50 31/52/50 34/38/50
f 37/58/33 38/27/33 42/26/33
f 37/58/34 39/30/34 41/29/34
f 29/60/51 37/58/51 40/59/51
f 11/61/52 40/59/52 42/26/52
f 30/25/53 38/27/53 41/29/53
f 29/60/54 28/28/54 39/30/54
v -1.655362 1.635566 1.382377
v -1.660192 1.610973 1.368470
v -1.657935 1.582436 1.366988
v -1.649198 1.557604 1.378329
v -1.636320 1.543130 1.399454
v -1.628278 1.641271 1.383057
v -1.613280 1.620854 1.369648
v -1.603767 1.593846 1.368349
v -1.602287 1.567485 1.379507
v -1.609236 1.548835 1.400134
v -1.579578 1.607670 1.416203
v -1.581338 1.579457 1.420951
v -1.597141 1.555746 1.424061
v -1.631173 1.649390 1.430232
v -1.609557 1.610083 1.462697
v -1.607301 1.581547 1.461215
v -1.612131 1.556953 1.447308
v -1.658257 1.643685 1.429551
v -1.665206 1.625034 1.450178
v -1.663726 1.598673 1.461336
v -1.654212 1.571666 1.460037
v -1.639215 1.551248 1.446628
v -1.670352 1.636773 1.405624
v -1.686154 1.613063 1.408735
v -1.687915 1.584850 1.413482
v -1.675161 1.559694 1.418594
v -1.651310 1.544336 1.422701
v -1.616183 1.648183 1.406985
v -1.592332 1.632825 1.411091
v -1.618295 1.634915 1.451356
v -1.646209 1.656271 1.487339
v -1.650036 1.655465 1.487243
v -1.640524 1.657294 1.451706
v -1.630684 1.625416 1.480994
v -1.653930 1.654470 1.451369
v -1.651479 1.621036 1.480472
v -1.573142 1.663091 1.443692
v -1.579288 1.663586 1.453222
v -1.590115 1.663526 1.435842
v -1.577497 1.640460 1.444667
v -1.592931 1.663753 1.440210
v -1.580322 1.640688 1.449048
vt 0.274240 0.539347
vt 0.265397 0.539709
vt 0.266768 0.532487
vt 0.231414 0.551290
vt 0.214659 0.541092
vt 0.231357 0.542861
vt 0.231940 0.569242
vt 0.215985 0.562822
vt 0.231472 0.559719
vt 0.230890 0.533338
vt 0.220414 0.530957
vt 0.213134 0.552274
vt 0.289666 0.544440
vt 0.282983 0.540904
vt 0.290637 0.536818
vt 0.279682 0.529141
vt 0.275518 0.536619
vt 0.273707 0.532162
vt 0.280945 0.538772
vt 0.286431 0.530872
vt 0.290637 0.551375
vt 0.284312 0.543753
vt 0.278488 0.537315
vt 0.276318 0.541045
vt 0.804698 0.251197
vt 0.792375 0.255919
vt 0.792638 0.252041
vt 0.786357 0.239035
vt 0.792578 0.249274
vt 0.791489 0.249454
vt 0.271776 0.541127
vt 0.760733 0.199751
vt 0.757502 0.209505
vt 0.750621 0.206121
vt 0.278108 0.542645
vt 0.273009 0.544115
vt 0.772804 0.201934
vt 0.766718 0.213101
vt 0.766203 0.208706
vt 0.264007 0.548518
vt 0.277612 0.547903
vt 0.268747 0.555467
vt 0.275021 0.546378
vt 0.280714 0.548498
vt 0.281954 0.545638
vt 0.276612 0.557409
vt 0.240880 0.530957
vt 0.248168 0.561486
vt 0.249693 0.550306
vt 0.246843 0.539760
vt 0.242415 0.571620
vt 0.762287 0.211045
vt 0.762255 0.210544
vt 0.761023 0.221925
vt 0.757316 0.212491
vt 0.750922 0.216572
vt 0.772804 0.220841
vt 0.791613 0.252007
vt 0.791097 0.255536
vt 0.780068 0.250772
vt 0.780487 0.263708
vt 0.804698 0.264828
vt 0.798786 0.238814
vt 0.221949 0.571626
vt 0.283377 0.553479
vn 0.1985 -0.9638 0.1780
vn 0.1037 -0.3828 -0.9180
vn -0.0843 0.5030 -0.8602
vn 0.1756 -0.7589 -0.6271
vn 0.0139 0.0529 -0.9985
vn 0.5333 0.7018 -0.4723
vn 0.7932 -0.5600 -0.2392
vn 0.8098 0.3092 -0.4986
vn -0.1985 0.9638 -0.1781
vn 0.8995 -0.1265 -0.4181
vn 0.7476 -0.4321 0.5045
vn 0.0873 -0.1825 0.9793
vn 0.8407 0.0384 0.5401
vn -0.2878 0.9287 -0.2338
vn 0.0843 -0.5030 0.8602
vn -0.9339 0.3574 0.0085
vn -0.0139 -0.0529 0.9985
vn 0.1260 -0.6839 0.7186
vn -0.5332 -0.7019 0.4723
vn -0.8995 0.1265 0.4181
vn -0.8098 -0.3092 0.4986
vn -0.7932 0.5600 0.2392
vn -0.4876 -0.8298 -0.2713
vn -0.8407 -0.0384 -0.5401
vn -0.7510 -0.4741 -0.4596
vn -0.7476 0.4321 -0.5045
vn 0.0161 -0.1936 0.9810
vn -0.2060 0.9785 -0.0048
vn 0.7043 0.6975 0.1324
vn -0.1784 0.8957 -0.4074
vn -0.9121 -0.0419 0.4078
vn 0.7472 0.4751 0.4646
vn 0.8294 -0.1362 0.5419
vn 0.0382 0.9989 -0.0272
vn 0.8326 0.3320 -0.4434
vn 0.7281 -0.4751 0.4941
vn -0.4076 0.6182 0.6721
vn 0.3567 0.5706 -0.7397
vn 0.5332 0.7019 -0.4723
vn -0.1985 0.9638 -0.1780
vn 0.8995 -0.1265 -0.4182
vn -0.0075 0.4132 0.9106
vn -0.9312 0.3530 0.0913
vn -0.5333 -0.7018 0.4723
vn 0.1985 -0.9638 0.1781
vn 0.0162 -0.1936 0.9810
vn 0.7090 0.7035 0.0498
vn -0.8968 0.1288 0.4233
vn 0.8309 0.3252 0.4515
vn 0.9132 -0.1912 -0.3600
vn -0.5129 0.6622 0.5463
vn 0.4657 0.5348 -0.7051
s off
f 59/66/55 69/67/55 47/68/55
f 45/69/56 51/70/56 46/71/56
f 43/72/57 49/73/57 44/74/57
f 47/75/58 51/70/58 52/76/58
f 44/74/59 50/77/59 45/69/59
f 48/78/60 71/79/60 49/80/60
f 51/81/61 55/82/61 52/83/61
f 49/80/62 53/84/62 50/85/62
f 43/86/63 70/87/63 48/78/63
f 50/85/64 54/88/64 51/81/64
f 55/82/65 58/89/65 59/66/65
f 72/90/66 84/91/66 80/92/66
f 53/84/67 58/89/67 54/88/67
f 70/93/68 83/94/68 81/95/68
f 58/89/69 64/96/69 59/66/69
f 61/97/70 77/98/70 60/99/70
f 57/100/71 63/101/71 58/89/71
f 62/102/72 76/103/72 78/104/72
f 64/96/73 68/105/73 69/67/73
f 61/106/74 67/107/74 62/108/74
f 43/86/63 60/109/63 56/110/63
f 62/108/75 68/105/75 63/101/75
f 60/109/76 66/111/76 61/106/76
f 69/112/77 46/71/77 47/75/77
f 66/113/78 45/69/78 67/114/78
f 67/114/79 46/71/79 68/115/79
f 65/116/80 44/74/80 66/113/80
f 55/82/55 47/68/55 52/83/55
f 73/117/81 78/104/81 76/103/81
f 73/117/82 77/98/82 74/118/82
f 72/119/83 75/120/83 73/117/83
f 60/99/84 75/120/84 56/121/84
f 61/97/85 78/104/85 74/118/85
f 72/119/86 76/103/86 57/122/86
f 79/123/87 84/91/87 82/124/87
f 79/123/88 83/94/88 80/92/88
f 71/125/89 82/124/89 53/126/89
f 53/126/90 84/91/90 57/127/90
f 72/90/91 83/94/91 56/128/91
f 71/125/92 81/95/92 79/123/92
f 59/66/55 64/96/55 69/67/55
f 45/69/56 50/77/56 51/70/56
f 43/72/57 48/129/57 49/73/57
f 47/75/58 46/71/58 51/70/58
f 44/74/59 49/73/59 50/77/59
f 48/78/93 70/87/93 71/79/93
f 51/81/61 54/88/61 55/82/61
f 49/80/62 71/79/62 53/84/62
f 43/86/94 56/110/94 70/87/94
f 50/85/95 53/84/95 54/88/95
f 55/82/65 54/88/65 58/89/65
f 72/90/96 57/127/96 84/91/96
f 53/84/67 57/100/67 58/89/67
f 70/93/68 56/128/68 83/94/68
f 58/89/69 63/101/69 64/96/69
f 61/97/97 74/118/97 77/98/97
f 57/100/71 62/108/71 63/101/71
f 62/102/72 57/122/72 76/103/72
f 64/96/98 63/101/98 68/105/98
f 61/106/74 66/111/74 67/107/74
f 43/86/94 65/130/94 60/109/94
f 62/108/75 67/107/75 68/105/75
f 60/109/76 65/130/76 66/111/76
f 69/112/77 68/115/77 46/71/77
f 66/113/78 44/74/78 45/69/78
f 67/114/79 45/69/79 46/71/79
f 65/116/80 43/72/80 44/74/80
f 55/82/99 59/66/99 47/68/99
f 73/117/100 74/118/100 78/104/100
f 73/117/82 75/120/82 77/98/82
f 72/119/101 56/121/101 75/120/101
f 60/99/84 77/98/84 75/120/84
f 61/97/102 62/102/102 78/104/102
f 72/119/103 73/117/103 76/103/103
f 79/123/87 80/92/87 84/91/87
f 79/123/88 81/95/88 83/94/88
f 71/125/104 79/123/104 82/124/104
f 53/126/90 82/124/90 84/91/90
f 72/90/105 80/92/105 83/94/105
f 71/125/106 70/93/106 81/95/106
