# Blender v2.81 (sub 16) OBJ File: 'garbage.blend'
# www.blender.org
v -0.715349 2.094530 0.509633
v -0.720126 2.073564 0.490680
v -0.722194 2.045640 0.484550
v -0.720999 2.018241 0.492884
v -0.716861 1.998708 0.513449
v -0.688918 2.094441 0.517874
v -0.674345 2.073410 0.504955
v -0.669330 2.045462 0.501032
v -0.675218 2.018087 0.507158
v -0.690430 1.998619 0.521691
v -0.657154 2.047420 0.555015
v -0.664673 2.019782 0.553909
v -0.684341 1.999598 0.548682
v -0.703173 2.096488 0.563616
v -0.697841 2.049556 0.592515
v -0.699908 2.021632 0.586385
v -0.704685 2.000666 0.567432
v -0.729605 2.096577 0.555375
v -0.744817 2.077109 0.569907
v -0.750704 2.049733 0.576033
v -0.745690 2.021786 0.572110
v -0.731117 2.000755 0.559191
v -0.735693 2.095598 0.528383
v -0.755362 2.075413 0.523157
v -0.762881 2.047776 0.522050
v -0.756235 2.020090 0.525360
v -0.737205 1.999776 0.532199
v -0.682829 2.095420 0.544866
v -0.663800 2.075105 0.551705
v -0.699035 2.076955 0.584181
v -0.731845 2.098462 0.615661
v -0.735581 2.098474 0.614496
v -0.716603 2.103139 0.583275
v -0.720379 2.066244 0.607674
v -0.729687 2.103183 0.579195
v -0.740673 2.066312 0.601346
v -0.649563 2.096097 0.592981
v -0.657904 2.096535 0.600668
v -0.663462 2.101051 0.581484
v -0.657616 2.074914 0.588684
v -0.667284 2.101251 0.585007
v -0.661450 2.075115 0.592217
vt 0.274240 0.539347
vt 0.265397 0.539709
vt 0.266768 0.532487
vt 0.231414 0.551290
vt 0.214659 0.541092
vt 0.231357 0.542861
vt 0.231940 0.569242
vt 0.215985 0.562822
vt 0.231472 0.559719
vt 0.230890 0.533338
vt 0.220414 0.530957
vt 0.213134 0.552274
vt 0.289666 0.544440
vt 0.282983 0.540904
vt 0.290637 0.536818
vt 0.279682 0.529141
vt 0.275518 0.536619
vt 0.273707 0.532162
vt 0.280945 0.538772
vt 0.286431 0.530872
vt 0.290637 0.551375
vt 0.284312 0.543753
vt 0.278488 0.537315
vt 0.276318 0.541045
vt 0.804698 0.251197
vt 0.792375 0.255919
vt 0.792638 0.252041
vt 0.786357 0.239035
vt 0.792578 0.249274
vt 0.791489 0.249454
vt 0.271776 0.541127
vt 0.760733 0.199751
vt 0.757502 0.209505
vt 0.750621 0.206121
vt 0.278108 0.542645
vt 0.273009 0.544115
vt 0.772804 0.201934
vt 0.766718 0.213101
vt 0.766203 0.208706
vt 0.264007 0.548518
vt 0.277612 0.547903
vt 0.268747 0.555467
vt 0.275021 0.546378
vt 0.280714 0.548498
vt 0.281954 0.545638
vt 0.276612 0.557409
vt 0.240880 0.530957
vt 0.248168 0.561486
vt 0.249693 0.550306
vt 0.246843 0.539760
vt 0.242415 0.571620
vt 0.762287 0.211045
vt 0.762255 0.210544
vt 0.761023 0.221925
vt 0.757316 0.212491
vt 0.750922 0.216572
vt 0.772804 0.220841
vt 0.791613 0.252007
vt 0.791097 0.255536
vt 0.780068 0.250772
vt 0.780487 0.263708
vt 0.804698 0.264828
vt 0.798786 0.238814
vt 0.221949 0.571626
vt 0.283377 0.553479
vn -0.0158 -0.9991 0.0398
vn 0.2860 -0.2674 -0.9202
vn 0.2350 0.6218 -0.7471
vn 0.2144 -0.6863 -0.6950
vn 0.2931 0.1843 -0.9381
vn 0.7477 0.6358 -0.1917
vn 0.7270 -0.6723 -0.1396
vn 0.9537 0.2023 -0.2225
vn 0.0158 0.9991 -0.0398
vn 0.9466 -0.2493 -0.2045
vn 0.5023 -0.6400 0.5814
vn -0.2128 -0.3279 0.9204
vn 0.6570 -0.2078 0.7247
vn -0.0595 0.9909 -0.1209
vn -0.2350 -0.6218 0.7471
vn -0.8306 0.5359 -0.1515
vn -0.2931 -0.1843 0.9381
vn -0.1863 -0.7865 0.5889
vn -0.7477 -0.6358 0.1917
vn -0.9466 0.2493 0.2045
vn -0.9537 -0.2023 0.2225
vn -0.7270 0.6723 0.1396
vn -0.5229 -0.6681 -0.5293
vn -0.6570 0.2078 -0.7247
vn -0.6641 -0.2439 -0.7067
vn -0.5023 0.6400 -0.5814
vn -0.2826 -0.3244 0.9027
vn -0.0360 0.9913 0.1262
vn 0.7449 0.5145 0.4249
vn 0.0862 0.9601 -0.2660
vn -0.9829 0.0900 0.1605
vn 0.6594 0.2449 0.7108
vn 0.6175 -0.3750 0.6914
vn 0.2051 0.9643 0.1676
vn 0.9640 0.2123 -0.1601
vn 0.4797 -0.6764 0.5589
vn -0.4694 0.5911 0.6559
vn 0.6317 0.5809 -0.5133
vn 0.7476 0.6358 -0.1917
vn -0.1878 0.2783 0.9420
vn -0.0594 0.9909 -0.1209
vn -0.8512 0.5198 -0.0728
vn 0.7728 0.5305 0.3484
vn 0.0861 0.9601 -0.2660
vn -0.9450 0.2503 0.2105
vn 0.7181 0.0843 0.6908
vn 0.6176 -0.3750 0.6914
vn 0.9332 -0.3228 -0.1577
vn -0.5280 0.6724 0.5188
vn 0.7199 0.5193 -0.4606
s off
f 17/1/1 27/2/1 5/3/1
f 3/4/2 9/5/2 4/6/2
f 1/7/3 7/8/3 2/9/3
f 5/10/4 9/5/4 10/11/4
f 2/9/5 8/12/5 3/4/5
f 6/13/6 29/14/6 7/15/6
f 9/16/7 13/17/7 10/18/7
f 7/15/8 11/19/8 8/20/8
f 1/21/9 28/22/9 6/13/9
f 8/20/10 12/23/10 9/16/10
f 13/17/11 16/24/11 17/1/11
f 30/25/12 42/26/12 38/27/12
f 11/19/13 16/24/13 12/23/13
f 28/28/14 41/29/14 39/30/14
f 16/24/15 22/31/15 17/1/15
f 19/32/16 35/33/16 18/34/16
f 15/35/17 21/36/17 16/24/17
f 20/37/18 34/38/18 36/39/18
f 22/31/19 26/40/19 27/2/19
f 19/41/20 25/42/20 20/43/20
f 1/21/9 18/44/9 14/45/9
f 20/43/21 26/40/21 21/36/21
f 18/44/22 24/46/22 19/41/22
f 27/47/23 4/6/23 5/10/23
f 24/48/24 3/4/24 25/49/24
f 25/49/25 4/6/25 26/50/25
f 23/51/26 2/9/26 24/48/26
f 13/17/1 5/3/1 10/18/1
f 31/52/27 36/39/27 34/38/27
f 31/52/28 35/33/28 32/53/28
f 30/54/29 33/55/29 31/52/29
f 18/34/30 33/55/30 14/56/30
f 19/32/31 36/39/31 32/53/31
f 30/54/32 34/38/32 15/57/32
f 37/58/33 42/26/33 40/59/33
f 37/58/34 41/29/34 38/27/34
f 29/60/35 40/59/35 11/61/35
f 11/61/36 42/26/36 15/62/36
f 30/25/37 41/29/37 14/63/37
f 29/60/38 39/30/38 37/58/38
f 17/1/1 22/31/1 27/2/1
f 3/4/2 8/12/2 9/5/2
f 1/7/3 6/64/3 7/8/3
f 5/10/4 4/6/4 9/5/4
f 2/9/5 7/8/5 8/12/5
f 6/13/39 28/22/39 29/14/39
f 9/16/7 12/23/7 13/17/7
f 7/15/8 29/14/8 11/19/8
f 1/21/9 14/45/9 28/22/9
f 8/20/10 11/19/10 12/23/10
f 13/17/11 12/23/11 16/24/11
f 30/25/40 15/62/40 42/26/40
f 11/19/13 15/35/13 16/24/13
f 28/28/41 14/63/41 41/29/41
f 16/24/15 21/36/15 22/31/15
f 19/32/42 32/53/42 35/33/42
f 15/35/17 20/43/17 21/36/17
f 20/37/18 15/57/18 34/38/18
f 22/31/19 21/36/19 26/40/19
f 19/41/20 24/46/20 25/42/20
f 1/21/9 23/65/9 18/44/9
f 20/43/21 25/42/21 26/40/21
f 18/44/22 23/65/22 24/46/22
f 27/47/23 26/50/23 4/6/23
f 24/48/24 2/9/24 3/4/24
f 25/49/25 3/4/25 4/6/25
f 23/51/26 1/7/26 2/9/26
f 13/17/1 17/1/1 5/3/1
f 31/52/27 32/53/27 36/39/27
f 31/52/28 33/55/28 35/33/28
f 30/54/43 14/56/43 33/55/43
f 18/34/44 35/33/44 33/55/44
f 19/32/45 20/37/45 36/39/45
f 30/54/46 31/52/46 34/38/46
f 37/58/47 38/27/47 42/26/47
f 37/58/34 39/30/34 41/29/34
f 29/60/48 37/58/48 40/59/48
f 11/61/36 40/59/36 42/26/36
f 30/25/49 38/27/49 41/29/49
f 29/60/50 28/28/50 39/30/50
v -2.150083 1.880477 -0.908951
v -2.140388 1.868820 -0.933276
v -2.134187 1.845632 -0.948943
v -2.133142 1.817125 -0.951754
v -2.137534 1.790939 -0.940956
v -2.132631 1.875453 -0.888053
v -2.110159 1.860118 -0.897079
v -2.099282 1.835584 -0.907147
v -2.102914 1.808424 -0.915558
v -2.120081 1.785915 -0.920058
v -2.118525 1.815737 -0.859167
v -2.119579 1.791235 -0.874006
v -2.129703 1.775992 -0.896068
v -2.169326 1.860629 -0.860971
v -2.172673 1.805937 -0.852984
v -2.166472 1.782749 -0.868651
v -2.156777 1.771092 -0.892976
v -2.186779 1.865653 -0.881869
v -2.203946 1.843145 -0.886370
v -2.207578 1.815985 -0.894780
v -2.196701 1.791450 -0.904848
v -2.174229 1.776116 -0.913875
v -2.177157 1.875577 -0.905859
v -2.187281 1.860333 -0.927921
v -2.188335 1.835832 -0.942760
v -2.180036 1.808639 -0.946399
v -2.164608 1.786039 -0.937864
v -2.142252 1.865529 -0.864063
v -2.126824 1.842930 -0.855528
v -2.173717 1.834443 -0.850173
v -2.221320 1.844266 -0.837233
v -2.223787 1.844976 -0.840186
v -2.192093 1.860055 -0.851358
v -2.202217 1.816942 -0.848265
v -2.200732 1.862542 -0.861703
v -2.215617 1.820799 -0.864310
v -2.140688 1.845364 -0.809171
v -2.151787 1.843355 -0.807904
v -2.146829 1.855285 -0.823791
v -2.141537 1.828068 -0.824409
v -2.151916 1.854364 -0.823210
v -2.146639 1.827145 -0.823827
vt 0.274240 0.539347
vt 0.265397 0.539709
vt 0.266768 0.532487
vt 0.231414 0.551290
vt 0.214659 0.541092
vt 0.231357 0.542861
vt 0.231940 0.569242
vt 0.215985 0.562822
vt 0.231472 0.559719
vt 0.230890 0.533338
vt 0.220414 0.530957
vt 0.213134 0.552274
vt 0.289666 0.544440
vt 0.282983 0.540904
vt 0.290637 0.536818
vt 0.279682 0.529141
vt 0.275518 0.536619
vt 0.273707 0.532162
vt 0.280945 0.538772
vt 0.286431 0.530872
vt 0.290637 0.551375
vt 0.284312 0.543753
vt 0.278488 0.537315
vt 0.276318 0.541045
vt 0.804698 0.251197
vt 0.792375 0.255919
vt 0.792638 0.252041
vt 0.786357 0.239035
vt 0.792578 0.249274
vt 0.791489 0.249454
vt 0.271776 0.541127
vt 0.760733 0.199751
vt 0.757502 0.209505
vt 0.750621 0.206121
vt 0.278108 0.542645
vt 0.273009 0.544115
vt 0.772804 0.201934
vt 0.766718 0.213101
vt 0.766203 0.208706
vt 0.264007 0.548518
vt 0.277612 0.547903
vt 0.268747 0.555467
vt 0.275021 0.546378
vt 0.280714 0.548498
vt 0.281954 0.545638
vt 0.276612 0.557409
vt 0.240880 0.530957
vt 0.248168 0.561486
vt 0.249693 0.550306
vt 0.246843 0.539760
vt 0.242415 0.571620
vt 0.762287 0.211045
vt 0.762255 0.210544
vt 0.761023 0.221925
vt 0.757316 0.212491
vt 0.750922 0.216572
vt 0.772804 0.220841
vt 0.791613 0.252007
vt 0.791097 0.255536
vt 0.780068 0.250772
vt 0.780487 0.263708
vt 0.804698 0.264828
vt 0.798786 0.238814
vt 0.221949 0.571626
vt 0.283377 0.553479
vn 0.1309 -0.9336 -0.3337
vn 0.7750 0.0901 -0.6255
vn 0.4928 0.8448 -0.2084
vn 0.6641 -0.3775 -0.6453
vn 0.7158 0.5121 -0.4747
vn 0.6162 0.6092 0.4991
vn 0.7875 -0.6131 0.0622
vn 0.8749 0.2085 0.4371
vn -0.1308 0.9336 0.3337
vn 0.9340 -0.2135 0.2863
vn 0.2091 -0.8468 0.4891
vn -0.6161 -0.6428 0.4552
vn 0.1887 -0.5147 0.8364
vn -0.1481 0.9623 0.2280
vn -0.4928 -0.8448 0.2084
vn -0.6943 0.6069 -0.3868
vn -0.7158 -0.5121 0.4747
vn -0.3402 -0.9385 0.0585
vn -0.6162 -0.6092 -0.4991
vn -0.9340 0.2135 -0.2863
vn -0.8749 -0.2085 -0.4371
vn -0.7875 0.6131 -0.0622
vn -0.0378 -0.3755 -0.9260
vn -0.1887 0.5147 -0.8364
vn -0.1295 0.0926 -0.9872
vn -0.2091 0.8468 -0.4891
vn -0.6649 -0.6281 0.4043
vn -0.2615 0.8658 0.4266
vn 0.3029 0.2597 0.9170
vn 0.0553 0.9803 0.1895
vn -0.9141 0.0864 -0.3961
vn 0.1232 -0.0929 0.9880
vn 0.2016 -0.6531 0.7300
vn -0.0799 0.8089 0.5825
vn 0.8483 0.1929 0.4932
vn 0.2085 -0.8701 0.4467
vn -0.8383 0.3220 0.4399
vn 0.7021 0.6906 0.1737
vn 0.1308 -0.9336 -0.3337
vn 0.6641 -0.3775 -0.6454
vn 0.6162 0.6092 0.4992
vn -0.1309 0.9336 0.3337
vn -0.7072 -0.0950 0.7006
vn -0.7510 0.5631 -0.3449
vn -0.9341 0.2135 -0.2863
vn -0.7876 0.6131 -0.0622
vn -0.2616 0.8658 0.4266
vn 0.3643 0.3022 0.8809
vn -0.9361 0.2120 -0.2805
vn 0.2090 -0.2369 0.9488
vn 0.2016 -0.6530 0.7300
vn 0.9100 -0.2983 0.2878
vn 0.2085 -0.8700 0.4467
vn -0.8266 0.4536 0.3332
vn 0.7569 0.6076 0.2406
s off
f 59/66/51 69/67/51 47/68/51
f 45/69/52 51/70/52 46/71/52
f 43/72/53 49/73/53 44/74/53
f 47/75/54 51/70/54 52/76/54
f 44/74/55 50/77/55 45/69/55
f 48/78/56 71/79/56 49/80/56
f 51/81/57 55/82/57 52/83/57
f 49/80/58 53/84/58 50/85/58
f 43/86/59 70/87/59 48/78/59
f 50/85/60 54/88/60 51/81/60
f 55/82/61 58/89/61 59/66/61
f 72/90/62 84/91/62 80/92/62
f 53/84/63 58/89/63 54/88/63
f 70/93/64 83/94/64 81/95/64
f 58/89/65 64/96/65 59/66/65
f 61/97/66 77/98/66 60/99/66
f 57/100/67 63/101/67 58/89/67
f 62/102/68 76/103/68 78/104/68
f 64/96/69 68/105/69 69/67/69
f 61/106/70 67/107/70 62/108/70
f 43/86/59 60/109/59 56/110/59
f 62/108/71 68/105/71 63/101/71
f 60/109/72 66/111/72 61/106/72
f 69/112/73 46/71/73 47/75/73
f 66/113/74 45/69/74 67/114/74
f 67/114/75 46/71/75 68/115/75
f 65/116/76 44/74/76 66/113/76
f 55/82/51 47/68/51 52/83/51
f 73/117/77 78/104/77 76/103/77
f 73/117/78 77/98/78 74/118/78
f 72/119/79 75/120/79 73/117/79
f 60/99/80 75/120/80 56/121/80
f 61/97/81 78/104/81 74/118/81
f 72/119/82 76/103/82 57/122/82
f 79/123/83 84/91/83 82/124/83
f 79/123/84 83/94/84 80/92/84
f 71/125/85 82/124/85 53/126/85
f 53/126/86 84/91/86 57/127/86
f 72/90/87 83/94/87 56/128/87
f 71/125/88 81/95/88 79/123/88
f 59/66/89 64/96/89 69/67/89
f 45/69/52 50/77/52 51/70/52
f 43/72/53 48/129/53 49/73/53
f 47/75/90 46/71/90 51/70/90
f 44/74/55 49/73/55 50/77/55
f 48/78/91 70/87/91 71/79/91
f 51/81/57 54/88/57 55/82/57
f 49/80/58 71/79/58 53/84/58
f 43/86/92 56/110/92 70/87/92
f 50/85/60 53/84/60 54/88/60
f 55/82/61 54/88/61 58/89/61
f 72/90/93 57/127/93 84/91/93
f 53/84/63 57/100/63 58/89/63
f 70/93/64 56/128/64 83/94/64
f 58/89/65 63/101/65 64/96/65
f 61/97/94 74/118/94 77/98/94
f 57/100/67 62/108/67 63/101/67
f 62/102/68 57/122/68 76/103/68
f 64/96/69 63/101/69 68/105/69
f 61/106/95 66/111/95 67/107/95
f 43/86/92 65/130/92 60/109/92
f 62/108/71 67/107/71 68/105/71
f 60/109/96 65/130/96 66/111/96
f 69/112/73 68/115/73 46/71/73
f 66/113/74 44/74/74 45/69/74
f 67/114/75 45/69/75 46/71/75
f 65/116/76 43/72/76 44/74/76
f 55/82/89 59/66/89 47/68/89
f 73/117/77 74/118/77 78/104/77
f 73/117/97 75/120/97 77/98/97
f 72/119/98 56/121/98 75/120/98
f 60/99/80 77/98/80 75/120/80
f 61/97/99 62/102/99 78/104/99
f 72/119/100 73/117/100 76/103/100
f 79/123/101 80/92/101 84/91/101
f 79/123/84 81/95/84 83/94/84
f 71/125/102 79/123/102 82/124/102
f 53/126/103 82/124/103 84/91/103
f 72/90/104 80/92/104 83/94/104
f 71/125/105 70/93/105 81/95/105
