# Blender v2.81 (sub 16) OBJ File: 'garbage.blend'
# www.blender.org
v -0.000861 2.128060 0.997477
v -0.012000 2.109064 1.015825
v -0.018019 2.081939 1.022868
v -0.017304 2.053952 1.016716
v -0.010047 2.032603 0.999020
v -0.015821 2.129124 0.974204
v -0.037912 2.110906 0.975515
v -0.047939 2.084066 0.976322
v -0.043215 2.055794 0.976406
v -0.025007 2.033667 0.975747
v -0.022809 2.080852 0.927083
v -0.021452 2.053011 0.933765
v -0.012442 2.032060 0.951128
v 0.024269 2.124846 0.948239
v 0.032241 2.075511 0.924391
v 0.026222 2.048385 0.931433
v 0.015083 2.029389 0.949781
v 0.039229 2.123782 0.971512
v 0.057437 2.101655 0.970852
v 0.062161 2.073383 0.970937
v 0.052134 2.046543 0.971743
v 0.030043 2.028326 0.973054
v 0.026664 2.125390 0.996131
v 0.035674 2.104439 1.013494
v 0.037031 2.076598 1.020175
v 0.030371 2.049327 1.014385
v 0.017478 2.029933 0.997674
v -0.003256 2.127517 0.949585
v -0.016149 2.108123 0.932874
v 0.031526 2.103497 0.930542
v 0.079335 2.118645 0.926700
v 0.081450 2.118495 0.929989
v 0.047839 2.128148 0.941556
v 0.061246 2.088544 0.926635
v 0.055244 2.127621 0.953076
v 0.072733 2.087728 0.944504
v 0.001903 2.125362 0.891353
v 0.013188 2.124267 0.890801
v 0.005890 2.130474 0.908899
v 0.002508 2.104233 0.900586
v 0.011061 2.129972 0.908646
v 0.007694 2.103730 0.900332
vt 0.274240 0.539347
vt 0.265397 0.539709
vt 0.266768 0.532487
vt 0.231414 0.551290
vt 0.214659 0.541092
vt 0.231357 0.542861
vt 0.231940 0.569242
vt 0.215985 0.562822
vt 0.231472 0.559719
vt 0.230890 0.533338
vt 0.220414 0.530957
vt 0.213134 0.552274
vt 0.289666 0.544440
vt 0.282983 0.540904
vt 0.290637 0.536818
vt 0.279682 0.529141
vt 0.275518 0.536619
vt 0.273707 0.532162
vt 0.280945 0.538772
vt 0.286431 0.530872
vt 0.290637 0.551375
vt 0.284312 0.543753
vt 0.278488 0.537315
vt 0.276318 0.541045
vt 0.804698 0.251197
vt 0.792375 0.255919
vt 0.792638 0.252041
vt 0.786357 0.239035
vt 0.792578 0.249274
vt 0.791489 0.249454
vt 0.271776 0.541127
vt 0.760733 0.199751
vt 0.757502 0.209505
vt 0.750621 0.206121
vt 0.278108 0.542645
vt 0.273009 0.544115
vt 0.772804 0.201934
vt 0.766718 0.213101
vt 0.766203 0.208706
vt 0.264007 0.548518
vt 0.277612 0.547903
vt 0.268747 0.555467
vt 0.275021 0.546378
vt 0.280714 0.548498
vt 0.281954 0.545638
vt 0.276612 0.557409
vt 0.240880 0.530957
vt 0.248168 0.561486
vt 0.249693 0.550306
vt 0.246843 0.539760
vt 0.242415 0.571620
vt 0.762287 0.211045
vt 0.762255 0.210544
vt 0.761023 0.221925
vt 0.757316 0.212491
vt 0.750922 0.216572
vt 0.772804 0.220841
vt 0.791613 0.252007
vt 0.791097 0.255536
vt 0.780068 0.250772
vt 0.780487 0.263708
vt 0.804698 0.264828
vt 0.798786 0.238814
vt 0.221949 0.571626
vt 0.283377 0.553479
vn -0.0958 -0.9953 0.0161
vn -0.8360 -0.1381 0.5311
vn -0.5692 0.7190 0.3988
vn -0.6946 -0.5841 0.4198
vn -0.7927 0.3119 0.5238
vn -0.6070 0.7104 -0.3562
vn -0.7324 -0.5927 -0.3351
vn -0.8413 0.3008 -0.4490
vn 0.0958 0.9953 -0.0161
vn -0.8846 -0.1491 -0.4418
vn -0.1005 -0.6601 -0.7444
vn 0.7011 -0.4458 -0.5565
vn -0.0703 -0.2360 -0.9692
vn 0.1007 0.9904 0.0946
vn 0.5692 -0.7190 -0.3988
vn 0.6091 0.4824 0.6295
vn 0.7927 -0.3119 -0.5238
vn 0.4100 -0.8603 -0.3029
vn 0.6070 -0.7104 0.3562
vn 0.8846 0.1491 0.4418
vn 0.8413 -0.3008 0.4490
vn 0.7324 0.5927 0.3351
vn -0.0249 -0.6430 0.7655
vn 0.0703 0.2360 0.9692
vn 0.0270 -0.2139 0.9765
vn 0.1005 0.6601 0.7444
vn 0.7436 -0.4458 -0.4984
vn 0.2393 0.9647 -0.1096
vn -0.2309 0.5202 -0.8223
vn -0.1062 0.9879 0.1134
vn 0.8633 -0.0065 0.5046
vn -0.0207 0.2141 -0.9766
vn -0.0835 -0.4010 -0.9123
vn 0.0780 0.9523 -0.2951
vn -0.8084 0.3044 -0.5038
vn -0.1023 -0.6954 -0.7113
vn 0.8518 0.4742 -0.2228
vn -0.7293 0.6833 -0.0334
vn -0.6947 -0.5841 0.4198
vn -0.8414 0.3008 -0.4490
vn 0.7763 0.1542 -0.6112
vn 0.6724 0.4560 0.5830
vn 0.8414 -0.3008 0.4490
vn 0.7436 -0.4458 -0.4983
vn 0.2393 0.9647 -0.1097
vn -0.2984 0.5469 -0.7822
vn 0.8874 0.1496 0.4361
vn -0.0994 0.0619 -0.9931
vn 0.0780 0.9523 -0.2952
vn -0.8547 -0.2282 -0.4663
vn 0.8205 0.5656 -0.0830
vn -0.7715 0.6232 -0.1281
s off
f 17/1/1 27/2/1 5/3/1
f 3/4/2 9/5/2 4/6/2
f 1/7/3 7/8/3 2/9/3
f 5/10/4 9/5/4 10/11/4
f 2/9/5 8/12/5 3/4/5
f 6/13/6 29/14/6 7/15/6
f 9/16/7 13/17/7 10/18/7
f 7/15/8 11/19/8 8/20/8
f 1/21/9 28/22/9 6/13/9
f 8/20/10 12/23/10 9/16/10
f 13/17/11 16/24/11 17/1/11
f 30/25/12 42/26/12 38/27/12
f 11/19/13 16/24/13 12/23/13
f 28/28/14 41/29/14 39/30/14
f 16/24/15 22/31/15 17/1/15
f 19/32/16 35/33/16 18/34/16
f 15/35/17 21/36/17 16/24/17
f 20/37/18 34/38/18 36/39/18
f 22/31/19 26/40/19 27/2/19
f 19/41/20 25/42/20 20/43/20
f 1/21/9 18/44/9 14/45/9
f 20/43/21 26/40/21 21/36/21
f 18/44/22 24/46/22 19/41/22
f 27/47/23 4/6/23 5/10/23
f 24/48/24 3/4/24 25/49/24
f 25/49/25 4/6/25 26/50/25
f 23/51/26 2/9/26 24/48/26
f 13/17/1 5/3/1 10/18/1
f 31/52/27 36/39/27 34/38/27
f 31/52/28 35/33/28 32/53/28
f 30/54/29 33/55/29 31/52/29
f 18/34/30 33/55/30 14/56/30
f 19/32/31 36/39/31 32/53/31
f 30/54/32 34/38/32 15/57/32
f 37/58/33 42/26/33 40/59/33
f 37/58/34 41/29/34 38/27/34
f 29/60/35 40/59/35 11/61/35
f 11/61/36 42/26/36 15/62/36
f 30/25/37 41/29/37 14/63/37
f 29/60/38 39/30/38 37/58/38
f 17/1/1 22/31/1 27/2/1
f 3/4/2 8/12/2 9/5/2
f 1/7/3 6/64/3 7/8/3
f 5/10/39 4/6/39 9/5/39
f 2/9/5 7/8/5 8/12/5
f 6/13/6 28/22/6 29/14/6
f 9/16/7 12/23/7 13/17/7
f 7/15/40 29/14/40 11/19/40
f 1/21/9 14/45/9 28/22/9
f 8/20/10 11/19/10 12/23/10
f 13/17/11 12/23/11 16/24/11
f 30/25/41 15/62/41 42/26/41
f 11/19/13 15/35/13 16/24/13
f 28/28/14 14/63/14 41/29/14
f 16/24/15 21/36/15 22/31/15
f 19/32/42 32/53/42 35/33/42
f 15/35/17 20/43/17 21/36/17
f 20/37/18 15/57/18 34/38/18
f 22/31/19 21/36/19 26/40/19
f 19/41/20 24/46/20 25/42/20
f 1/21/9 23/65/9 18/44/9
f 20/43/43 25/42/43 26/40/43
f 18/44/22 23/65/22 24/46/22
f 27/47/23 26/50/23 4/6/23
f 24/48/24 2/9/24 3/4/24
f 25/49/25 3/4/25 4/6/25
f 23/51/26 1/7/26 2/9/26
f 13/17/1 17/1/1 5/3/1
f 31/52/44 32/53/44 36/39/44
f 31/52/45 33/55/45 35/33/45
f 30/54/46 14/56/46 33/55/46
f 18/34/30 35/33/30 33/55/30
f 19/32/47 20/37/47 36/39/47
f 30/54/48 31/52/48 34/38/48
f 37/58/33 38/27/33 42/26/33
f 37/58/49 39/30/49 41/29/49
f 29/60/50 37/58/50 40/59/50
f 11/61/36 40/59/36 42/26/36
f 30/25/51 38/27/51 41/29/51
f 29/60/52 28/28/52 39/30/52
v -0.903107 1.888637 1.879370
v -0.912044 1.862718 1.871004
v -0.910303 1.834152 1.872594
v -0.898351 1.810592 1.883713
v -0.879390 1.798350 1.901383
v -0.877226 1.893328 1.870726
v -0.867217 1.870844 1.856033
v -0.858541 1.843535 1.855307
v -0.853523 1.818717 1.868742
v -0.853509 1.803041 1.892739
v -0.820431 1.862217 1.890871
v -0.820519 1.834897 1.899542
v -0.834454 1.812383 1.910522
v -0.864998 1.907319 1.914934
v -0.834084 1.871517 1.943724
v -0.832343 1.842951 1.945314
v -0.841280 1.817033 1.936948
v -0.890879 1.902628 1.923578
v -0.890864 1.886952 1.947575
v -0.885846 1.862134 1.961011
v -0.877171 1.834825 1.960285
v -0.867161 1.812341 1.945592
v -0.909934 1.893286 1.905796
v -0.923868 1.870772 1.916775
v -0.923956 1.843452 1.925446
v -0.910175 1.818646 1.929485
v -0.886216 1.803000 1.927809
v -0.858171 1.902669 1.888508
v -0.834213 1.887024 1.886833
v -0.846036 1.895078 1.932604
v -0.861120 1.921781 1.972471
v -0.864777 1.921118 1.973693
v -0.867058 1.918173 1.937049
v -0.848338 1.889800 1.965604
v -0.879869 1.915851 1.941327
v -0.868210 1.886199 1.972241
v -0.805733 1.920318 1.907506
v -0.808532 1.922225 1.918340
v -0.824321 1.920438 1.905425
v -0.809494 1.898168 1.912727
v -0.825604 1.921312 1.910390
v -0.810781 1.899044 1.917706
vt 0.274240 0.539347
vt 0.265397 0.539709
vt 0.266768 0.532487
vt 0.231414 0.551290
vt 0.214659 0.541092
vt 0.231357 0.542861
vt 0.231940 0.569242
vt 0.215985 0.562822
vt 0.231472 0.559719
vt 0.230890 0.533338
vt 0.220414 0.530957
vt 0.213134 0.552274
vt 0.289666 0.544440
vt 0.282983 0.540904
vt 0.290637 0.536818
vt 0.279682 0.529141
vt 0.275518 0.536619
vt 0.273707 0.532162
vt 0.280945 0.538772
vt 0.286431 0.530872
vt 0.290637 0.551375
vt 0.284312 0.543753
vt 0.278488 0.537315
vt 0.276318 0.541045
vt 0.804698 0.251197
vt 0.792375 0.255919
vt 0.792638 0.252041
vt 0.786357 0.239035
vt 0.792578 0.249274
vt 0.791489 0.249454
vt 0.271776 0.541127
vt 0.760733 0.199751
vt 0.757502 0.209505
vt 0.750621 0.206121
vt 0.278108 0.542645
vt 0.273009 0.544115
vt 0.772804 0.201934
vt 0.766718 0.213101
vt 0.766203 0.208706
vt 0.264007 0.548518
vt 0.277612 0.547903
vt 0.268747 0.555467
vt 0.275021 0.546378
vt 0.280714 0.548498
vt 0.281954 0.545638
vt 0.276612 0.557409
vt 0.240880 0.530957
vt 0.248168 0.561486
vt 0.249693 0.550306
vt 0.246843 0.539760
vt 0.242415 0.571620
vt 0.762287 0.211045
vt 0.762255 0.210544
vt 0.761023 0.221925
vt 0.757316 0.212491
vt 0.750922 0.216572
vt 0.772804 0.220841
vt 0.791613 0.252007
vt 0.791097 0.255536
vt 0.780068 0.250772
vt 0.780487 0.263708
vt 0.804698 0.264828
vt 0.798786 0.238814
vt 0.221949 0.571626
vt 0.283377 0.553479
vn 0.2473 -0.9414 0.2295
vn -0.1925 -0.4970 -0.8461
vn -0.3546 0.3957 -0.8471
vn -0.0309 -0.8368 -0.5466
vn -0.3043 -0.0714 -0.9499
vn 0.3537 0.6169 -0.7031
vn 0.6775 -0.6156 -0.4025
vn 0.6085 0.2136 -0.7643
vn -0.2473 0.9414 -0.2295
vn 0.7203 -0.2120 -0.6605
vn 0.8702 -0.3951 0.2943
vn 0.3945 -0.0633 0.9167
vn 0.9687 0.0723 0.2375
vn -0.3496 0.9031 -0.2493
vn 0.3547 -0.3957 0.8471
vn -0.8837 0.3916 0.2564
vn 0.3043 0.0714 0.9499
vn 0.3496 -0.5943 0.7243
vn -0.3537 -0.6169 0.7031
vn -0.7203 0.2119 0.6605
vn -0.6085 -0.2136 0.7643
vn -0.6775 0.6156 0.4026
vn -0.5465 -0.8375 0.0062
vn -0.9687 -0.0722 -0.2375
vn -0.8569 -0.4978 -0.1338
vn -0.8702 0.3951 -0.2943
vn 0.3276 -0.0714 0.9421
vn -0.1993 0.9777 -0.0662
vn 0.7080 0.6807 -0.1880
vn -0.3009 0.8447 -0.4426
vn -0.7351 0.0441 0.6765
vn 0.8550 0.4996 0.1395
vn 0.9589 -0.1003 0.2653
vn 0.0250 0.9856 -0.1670
vn 0.6476 0.2422 -0.7224
vn 0.8486 -0.4383 0.2963
vn -0.1744 0.7119 0.6803
vn 0.1017 0.4606 -0.8818
vn 0.6775 -0.6156 -0.4026
vn 0.7203 -0.2119 -0.6605
vn 0.2813 0.5226 0.8049
vn -0.3496 0.9032 -0.2492
vn 0.3546 -0.3957 0.8471
vn -0.8547 0.3974 0.3339
vn 0.3496 -0.5942 0.7243
vn -0.9687 -0.0723 -0.2375
vn 0.6863 0.6762 -0.2679
vn -0.7160 0.2148 0.6642
vn 0.9305 0.3460 0.1202
vn 0.9589 -0.1003 0.2654
vn 0.0250 0.9856 -0.1669
vn 0.7519 -0.2695 -0.6017
vn -0.3143 0.7440 0.5896
vn 0.2161 0.4251 -0.8790
s off
f 59/66/53 69/67/53 47/68/53
f 45/69/54 51/70/54 46/71/54
f 43/72/55 49/73/55 44/74/55
f 47/75/56 51/70/56 52/76/56
f 44/74/57 50/77/57 45/69/57
f 48/78/58 71/79/58 49/80/58
f 51/81/59 55/82/59 52/83/59
f 49/80/60 53/84/60 50/85/60
f 43/86/61 70/87/61 48/78/61
f 50/85/62 54/88/62 51/81/62
f 55/82/63 58/89/63 59/66/63
f 72/90/64 84/91/64 80/92/64
f 53/84/65 58/89/65 54/88/65
f 70/93/66 83/94/66 81/95/66
f 58/89/67 64/96/67 59/66/67
f 61/97/68 77/98/68 60/99/68
f 57/100/69 63/101/69 58/89/69
f 62/102/70 76/103/70 78/104/70
f 64/96/71 68/105/71 69/67/71
f 61/106/72 67/107/72 62/108/72
f 43/86/61 60/109/61 56/110/61
f 62/108/73 68/105/73 63/101/73
f 60/109/74 66/111/74 61/106/74
f 69/112/75 46/71/75 47/75/75
f 66/113/76 45/69/76 67/114/76
f 67/114/77 46/71/77 68/115/77
f 65/116/78 44/74/78 66/113/78
f 55/82/53 47/68/53 52/83/53
f 73/117/79 78/104/79 76/103/79
f 73/117/80 77/98/80 74/118/80
f 72/119/81 75/120/81 73/117/81
f 60/99/82 75/120/82 56/121/82
f 61/97/83 78/104/83 74/118/83
f 72/119/84 76/103/84 57/122/84
f 79/123/85 84/91/85 82/124/85
f 79/123/86 83/94/86 80/92/86
f 71/125/87 82/124/87 53/126/87
f 53/126/88 84/91/88 57/127/88
f 72/90/89 83/94/89 56/128/89
f 71/125/90 81/95/90 79/123/90
f 59/66/53 64/96/53 69/67/53
f 45/69/54 50/77/54 51/70/54
f 43/72/55 48/129/55 49/73/55
f 47/75/56 46/71/56 51/70/56
f 44/74/57 49/73/57 50/77/57
f 48/78/58 70/87/58 71/79/58
f 51/81/91 54/88/91 55/82/91
f 49/80/60 71/79/60 53/84/60
f 43/86/61 56/110/61 70/87/61
f 50/85/92 53/84/92 54/88/92
f 55/82/63 54/88/63 58/89/63
f 72/90/93 57/127/93 84/91/93
f 53/84/65 57/100/65 58/89/65
f 70/93/94 56/128/94 83/94/94
f 58/89/95 63/101/95 64/96/95
f 61/97/96 74/118/96 77/98/96
f 57/100/69 62/108/69 63/101/69
f 62/102/97 57/122/97 76/103/97
f 64/96/71 63/101/71 68/105/71
f 61/106/72 66/111/72 67/107/72
f 43/86/61 65/130/61 60/109/61
f 62/108/73 67/107/73 68/105/73
f 60/109/74 65/130/74 66/111/74
f 69/112/75 68/115/75 46/71/75
f 66/113/98 44/74/98 45/69/98
f 67/114/77 45/69/77 46/71/77
f 65/116/78 43/72/78 44/74/78
f 55/82/53 59/66/53 47/68/53
f 73/117/79 74/118/79 78/104/79
f 73/117/80 75/120/80 77/98/80
f 72/119/99 56/121/99 75/120/99
f 60/99/82 77/98/82 75/120/82
f 61/97/100 62/102/100 78/104/100
f 72/119/101 73/117/101 76/103/101
f 79/123/102 80/92/102 84/91/102
f 79/123/103 81/95/103 83/94/103
f 71/125/104 79/123/104 82/124/104
f 53/126/88 82/124/88 84/91/88
f 72/90/105 80/92/105 83/94/105
f 71/125/106 70/93/106 81/95/106
