# Blender v2.81 (sub 16) OBJ File: 'garbage.blend'
# www.blender.org
v -0.667747 2.101478 0.679834
v -0.675561 2.080356 0.662102
v -0.678389 2.052379 0.656547
v -0.675475 2.025042 0.664658
v -0.667599 2.005670 0.684262
v -0.640280 2.101681 0.683312
v -0.627987 2.080708 0.668126
v -0.623456 2.052785 0.663503
v -0.627901 2.025393 0.670683
v -0.640132 2.005873 0.687740
v -0.602023 2.055175 0.714505
v -0.609340 2.027463 0.714851
v -0.629416 2.007068 0.713241
v -0.646314 2.103868 0.730836
v -0.635524 2.057159 0.758551
v -0.638352 2.029181 0.752996
v -0.646166 2.008060 0.735264
v -0.673781 2.103665 0.727358
v -0.686012 2.084144 0.744415
v -0.690457 2.056753 0.751595
v -0.685926 2.028830 0.746972
v -0.673633 2.007857 0.731786
v -0.684497 2.102470 0.701857
v -0.704573 2.082074 0.700247
v -0.711890 2.054363 0.700593
v -0.704488 2.026760 0.702803
v -0.684349 2.006662 0.706285
v -0.629564 2.102876 0.708813
v -0.609425 2.082778 0.712295
v -0.638438 2.084496 0.750439
v -0.665435 2.105887 0.787094
v -0.669317 2.105858 0.786602
v -0.656156 2.110512 0.752517
v -0.655222 2.073729 0.777356
v -0.669752 2.110411 0.750795
v -0.676311 2.073573 0.774686
v -0.588385 2.104145 0.750345
v -0.595252 2.104552 0.759373
v -0.604133 2.108902 0.741443
v -0.596853 2.082863 0.747617
v -0.607280 2.109088 0.745581
v -0.600009 2.083050 0.751766
vt 0.274240 0.539347
vt 0.265397 0.539709
vt 0.266768 0.532487
vt 0.231414 0.551290
vt 0.214659 0.541092
vt 0.231357 0.542861
vt 0.231940 0.569242
vt 0.215985 0.562822
vt 0.231472 0.559719
vt 0.230890 0.533338
vt 0.220414 0.530957
vt 0.213134 0.552274
vt 0.289666 0.544440
vt 0.282983 0.540904
vt 0.290637 0.536818
vt 0.279682 0.529141
vt 0.275518 0.536619
vt 0.273707 0.532162
vt 0.280945 0.538772
vt 0.286431 0.530872
vt 0.290637 0.551375
vt 0.284312 0.543753
vt 0.278488 0.537315
vt 0.276318 0.541045
vt 0.804698 0.251197
vt 0.792375 0.255919
vt 0.792638 0.252041
vt 0.786357 0.239035
vt 0.792578 0.249274
vt 0.791489 0.249454
vt 0.271776 0.541127
vt 0.760733 0.199751
vt 0.757502 0.209505
vt 0.750621 0.206121
vt 0.278108 0.542645
vt 0.273009 0.544115
vt 0.772804 0.201934
vt 0.766718 0.213101
vt 0.766203 0.208706
vt 0.264007 0.548518
vt 0.277612 0.547903
vt 0.268747 0.555467
vt 0.275021 0.546378
vt 0.280714 0.548498
vt 0.281954 0.545638
vt 0.276612 0.557409
vt 0.240880 0.530957
vt 0.248168 0.561486
vt 0.249693 0.550306
vt 0.246843 0.539760
vt 0.242415 0.571620
vt 0.762287 0.211045
vt 0.762255 0.210544
vt 0.761023 0.221925
vt 0.757316 0.212491
vt 0.750922 0.216572
vt 0.772804 0.220841
vt 0.791613 0.252007
vt 0.791097 0.255536
vt 0.780068 0.250772
vt 0.780487 0.263708
vt 0.804698 0.264828
vt 0.798786 0.238814
vt 0.221949 0.571626
vt 0.283377 0.553479
vn 0.0015 -0.9989 0.0462
vn 0.1229 -0.2702 -0.9549
vn 0.0941 0.6195 -0.7794
vn 0.0961 -0.6884 -0.7189
vn 0.1222 0.1814 -0.9758
vn 0.6960 0.6415 -0.3226
vn 0.6980 -0.6664 -0.2621
vn 0.8978 0.2098 -0.3871
vn -0.0015 0.9989 -0.0462
vn 0.8985 -0.2418 -0.3663
vn 0.6029 -0.6319 0.4870
vn -0.0448 -0.3244 0.9449
vn 0.7760 -0.1974 0.5991
vn -0.0897 0.9896 -0.1128
vn -0.0941 -0.6195 0.7794
vn -0.8496 0.5273 -0.0057
vn -0.1222 -0.1814 0.9758
vn -0.0722 -0.7846 0.6157
vn -0.6960 -0.6415 0.3225
vn -0.8985 0.2418 0.3663
vn -0.8978 -0.2098 0.3871
vn -0.6980 0.6664 0.2621
vn -0.6009 -0.6760 -0.4266
vn -0.7760 0.1974 -0.5991
vn -0.7753 -0.2542 -0.5782
vn -0.6029 0.6319 -0.4870
vn -0.1166 -0.3216 0.9397
vn -0.0233 0.9917 0.1264
vn 0.8026 0.5238 0.2855
vn 0.0285 0.9593 -0.2810
vn -0.9404 0.0819 0.3300
vn 0.7713 0.2552 0.5831
vn 0.7329 -0.3652 0.5740
vn 0.2215 0.9671 0.1249
vn 0.9188 0.2202 -0.3276
vn 0.5770 -0.6686 0.4690
vn -0.3531 0.5907 0.7255
vn 0.5260 0.5837 -0.6186
vn -0.0225 0.2822 0.9591
vn -0.8559 0.5115 0.0754
vn -0.0722 -0.7846 0.6158
vn 0.8165 0.5397 0.2052
vn -0.8959 0.2429 0.3719
vn 0.8272 0.0950 0.5538
vn 0.7330 -0.3652 0.5739
vn 0.8943 -0.3151 -0.3176
vn 0.5771 -0.6686 0.4690
vn -0.4356 0.6706 0.6005
vn 0.6227 0.5231 -0.5819
s off
f 17/1/1 27/2/1 5/3/1
f 3/4/2 9/5/2 4/6/2
f 1/7/3 7/8/3 2/9/3
f 5/10/4 9/5/4 10/11/4
f 2/9/5 8/12/5 3/4/5
f 6/13/6 29/14/6 7/15/6
f 9/16/7 13/17/7 10/18/7
f 7/15/8 11/19/8 8/20/8
f 1/21/9 28/22/9 6/13/9
f 8/20/10 12/23/10 9/16/10
f 13/17/11 16/24/11 17/1/11
f 30/25/12 42/26/12 38/27/12
f 11/19/13 16/24/13 12/23/13
f 28/28/14 41/29/14 39/30/14
f 16/24/15 22/31/15 17/1/15
f 19/32/16 35/33/16 18/34/16
f 15/35/17 21/36/17 16/24/17
f 20/37/18 34/38/18 36/39/18
f 22/31/19 26/40/19 27/2/19
f 19/41/20 25/42/20 20/43/20
f 1/21/9 18/44/9 14/45/9
f 20/43/21 26/40/21 21/36/21
f 18/44/22 24/46/22 19/41/22
f 27/47/23 4/6/23 5/10/23
f 24/48/24 3/4/24 25/49/24
f 25/49/25 4/6/25 26/50/25
f 23/51/26 2/9/26 24/48/26
f 13/17/1 5/3/1 10/18/1
f 31/52/27 36/39/27 34/38/27
f 31/52/28 35/33/28 32/53/28
f 30/54/29 33/55/29 31/52/29
f 18/34/30 33/55/30 14/56/30
f 19/32/31 36/39/31 32/53/31
f 30/54/32 34/38/32 15/57/32
f 37/58/33 42/26/33 40/59/33
f 37/58/34 41/29/34 38/27/34
f 29/60/35 40/59/35 11/61/35
f 11/61/36 42/26/36 15/62/36
f 30/25/37 41/29/37 14/63/37
f 29/60/38 39/30/38 37/58/38
f 17/1/1 22/31/1 27/2/1
f 3/4/2 8/12/2 9/5/2
f 1/7/3 6/64/3 7/8/3
f 5/10/4 4/6/4 9/5/4
f 2/9/5 7/8/5 8/12/5
f 6/13/6 28/22/6 29/14/6
f 9/16/7 12/23/7 13/17/7
f 7/15/8 29/14/8 11/19/8
f 1/21/9 14/45/9 28/22/9
f 8/20/10 11/19/10 12/23/10
f 13/17/11 12/23/11 16/24/11
f 30/25/39 15/62/39 42/26/39
f 11/19/13 15/35/13 16/24/13
f 28/28/14 14/63/14 41/29/14
f 16/24/15 21/36/15 22/31/15
f 19/32/40 32/53/40 35/33/40
f 15/35/17 20/43/17 21/36/17
f 20/37/41 15/57/41 34/38/41
f 22/31/19 21/36/19 26/40/19
f 19/41/20 24/46/20 25/42/20
f 1/21/9 23/65/9 18/44/9
f 20/43/21 25/42/21 26/40/21
f 18/44/22 23/65/22 24/46/22
f 27/47/23 26/50/23 4/6/23
f 24/48/24 2/9/24 3/4/24
f 25/49/25 3/4/25 4/6/25
f 23/51/26 1/7/26 2/9/26
f 13/17/1 17/1/1 5/3/1
f 31/52/27 32/53/27 36/39/27
f 31/52/28 33/55/28 35/33/28
f 30/54/42 14/56/42 33/55/42
f 18/34/30 35/33/30 33/55/30
f 19/32/43 20/37/43 36/39/43
f 30/54/44 31/52/44 34/38/44
f 37/58/45 38/27/45 42/26/45
f 37/58/34 39/30/34 41/29/34
f 29/60/46 37/58/46 40/59/46
f 11/61/47 40/59/47 42/26/47
f 30/25/48 38/27/48 41/29/48
f 29/60/49 28/28/49 39/30/49
v -2.210470 1.719584 -0.360137
v -2.204437 1.709494 -0.386279
v -2.199244 1.687384 -0.403765
v -2.196282 1.659177 -0.407910
v -2.196346 1.632431 -0.397602
v -2.189112 1.715661 -0.342961
v -2.167443 1.702701 -0.356530
v -2.156527 1.679539 -0.369413
v -2.159289 1.652383 -0.378160
v -2.174988 1.628508 -0.380426
v -2.164856 1.656786 -0.319622
v -2.166502 1.632678 -0.335040
v -2.179152 1.617131 -0.355531
v -2.218799 1.696830 -0.310346
v -2.215901 1.641877 -0.304183
v -2.210708 1.619766 -0.321669
v -2.204675 1.609677 -0.347811
v -2.240157 1.700752 -0.327522
v -2.255856 1.676877 -0.329788
v -2.258618 1.649721 -0.338535
v -2.247702 1.626560 -0.351419
v -2.226033 1.613599 -0.364987
v -2.235992 1.712129 -0.352418
v -2.248643 1.696583 -0.372908
v -2.250288 1.672475 -0.388326
v -2.240489 1.646265 -0.394539
v -2.221869 1.624976 -0.389883
v -2.193276 1.704285 -0.318066
v -2.174656 1.682996 -0.313409
v -2.218863 1.670084 -0.300039
v -2.263948 1.675139 -0.278319
v -2.266966 1.675694 -0.280746
v -2.239280 1.693913 -0.296814
v -2.244914 1.649984 -0.293752
v -2.249851 1.695854 -0.305316
v -2.261312 1.652996 -0.306940
v -2.179934 1.682958 -0.265252
v -2.190397 1.679902 -0.262087
v -2.189485 1.692639 -0.278094
v -2.182074 1.666052 -0.280796
v -2.194280 1.691239 -0.276643
v -2.186883 1.664647 -0.279342
vt 0.274240 0.539347
vt 0.265397 0.539709
vt 0.266768 0.532487
vt 0.231414 0.551290
vt 0.214659 0.541092
vt 0.231357 0.542861
vt 0.231940 0.569242
vt 0.215985 0.562822
vt 0.231472 0.559719
vt 0.230890 0.533338
vt 0.220414 0.530957
vt 0.213134 0.552274
vt 0.289666 0.544440
vt 0.282983 0.540904
vt 0.290637 0.536818
vt 0.279682 0.529141
vt 0.275518 0.536619
vt 0.273707 0.532162
vt 0.280945 0.538772
vt 0.286431 0.530872
vt 0.290637 0.551375
vt 0.284312 0.543753
vt 0.278488 0.537315
vt 0.276318 0.541045
vt 0.804698 0.251197
vt 0.792375 0.255919
vt 0.792638 0.252041
vt 0.786357 0.239035
vt 0.792578 0.249274
vt 0.791489 0.249454
vt 0.271776 0.541127
vt 0.760733 0.199751
vt 0.757502 0.209505
vt 0.750621 0.206121
vt 0.278108 0.542645
vt 0.273009 0.544115
vt 0.772804 0.201934
vt 0.766718 0.213101
vt 0.766203 0.208706
vt 0.264007 0.548518
vt 0.277612 0.547903
vt 0.268747 0.555467
vt 0.275021 0.546378
vt 0.280714 0.548498
vt 0.281954 0.545638
vt 0.276612 0.557409
vt 0.240880 0.530957
vt 0.248168 0.561486
vt 0.249693 0.550306
vt 0.246843 0.539760
vt 0.242415 0.571620
vt 0.762287 0.211045
vt 0.762255 0.210544
vt 0.761023 0.221925
vt 0.757316 0.212491
vt 0.750922 0.216572
vt 0.772804 0.220841
vt 0.791613 0.252007
vt 0.791097 0.255536
vt 0.780068 0.250772
vt 0.780487 0.263708
vt 0.804698 0.264828
vt 0.798786 0.238814
vt 0.221949 0.571626
vt 0.283377 0.553479
vn 0.1473 -0.9087 -0.3906
vn 0.6363 0.1771 -0.7508
vn 0.3716 0.8917 -0.2584
vn 0.5644 -0.2980 -0.7698
vn 0.5697 0.5879 -0.5742
vn 0.6426 0.6506 0.4048
vn 0.8354 -0.5392 -0.1067
vn 0.9190 0.2772 0.2804
vn -0.1473 0.9087 0.3906
vn 0.9856 -0.1337 0.1038
vn 0.3674 -0.8360 0.4075
vn -0.4645 -0.7083 0.5316
vn 0.3825 -0.5162 0.7663
vn -0.1861 0.9384 0.2911
vn -0.3716 -0.8917 0.2584
vn -0.8031 0.5499 -0.2293
vn -0.5698 -0.5879 0.5742
vn -0.2416 -0.9671 0.0796
vn -0.6426 -0.6506 -0.4048
vn -0.9856 0.1337 -0.1038
vn -0.9190 -0.2772 -0.2804
vn -0.8354 0.5392 0.1067
vn -0.1746 -0.3537 -0.9189
vn -0.3825 0.5162 -0.7663
vn -0.3160 0.1054 -0.9429
vn -0.3674 0.8360 -0.4075
vn -0.5228 -0.6968 0.4910
vn -0.2524 0.8268 0.5027
vn 0.4425 0.2631 0.8573
vn 0.0045 0.9761 0.2173
vn -0.9753 0.0117 -0.2207
vn 0.3100 -0.1063 0.9448
vn 0.3876 -0.6501 0.6536
vn -0.0409 0.7830 0.6207
vn 0.9046 0.2577 0.3396
vn 0.3610 -0.8582 0.3649
vn -0.7679 0.2319 0.5971
vn 0.6600 0.7478 0.0729
vn -0.5558 -0.1777 0.8121
vn -0.1861 0.9384 0.2910
vn -0.8472 0.5000 -0.1798
vn -0.5697 -0.5879 0.5742
vn -0.5228 -0.6969 0.4909
vn -0.2524 0.8268 0.5026
vn 0.4924 0.3120 0.8125
vn -0.9864 0.1318 -0.0978
vn 0.3992 -0.2407 0.8847
vn 0.3876 -0.6500 0.6536
vn 0.9697 -0.2203 0.1061
vn -0.7873 0.3667 0.4956
vn 0.7331 0.6685 0.1252
s off
f 59/66/50 69/67/50 47/68/50
f 45/69/51 51/70/51 46/71/51
f 43/72/52 49/73/52 44/74/52
f 47/75/53 51/70/53 52/76/53
f 44/74/54 50/77/54 45/69/54
f 48/78/55 71/79/55 49/80/55
f 51/81/56 55/82/56 52/83/56
f 49/80/57 53/84/57 50/85/57
f 43/86/58 70/87/58 48/78/58
f 50/85/59 54/88/59 51/81/59
f 55/82/60 58/89/60 59/66/60
f 72/90/61 84/91/61 80/92/61
f 53/84/62 58/89/62 54/88/62
f 70/93/63 83/94/63 81/95/63
f 58/89/64 64/96/64 59/66/64
f 61/97/65 77/98/65 60/99/65
f 57/100/66 63/101/66 58/89/66
f 62/102/67 76/103/67 78/104/67
f 64/96/68 68/105/68 69/67/68
f 61/106/69 67/107/69 62/108/69
f 43/86/58 60/109/58 56/110/58
f 62/108/70 68/105/70 63/101/70
f 60/109/71 66/111/71 61/106/71
f 69/112/72 46/71/72 47/75/72
f 66/113/73 45/69/73 67/114/73
f 67/114/74 46/71/74 68/115/74
f 65/116/75 44/74/75 66/113/75
f 55/82/50 47/68/50 52/83/50
f 73/117/76 78/104/76 76/103/76
f 73/117/77 77/98/77 74/118/77
f 72/119/78 75/120/78 73/117/78
f 60/99/79 75/120/79 56/121/79
f 61/97/80 78/104/80 74/118/80
f 72/119/81 76/103/81 57/122/81
f 79/123/82 84/91/82 82/124/82
f 79/123/83 83/94/83 80/92/83
f 71/125/84 82/124/84 53/126/84
f 53/126/85 84/91/85 57/127/85
f 72/90/86 83/94/86 56/128/86
f 71/125/87 81/95/87 79/123/87
f 59/66/50 64/96/50 69/67/50
f 45/69/51 50/77/51 51/70/51
f 43/72/52 48/129/52 49/73/52
f 47/75/53 46/71/53 51/70/53
f 44/74/54 49/73/54 50/77/54
f 48/78/55 70/87/55 71/79/55
f 51/81/56 54/88/56 55/82/56
f 49/80/57 71/79/57 53/84/57
f 43/86/58 56/110/58 70/87/58
f 50/85/59 53/84/59 54/88/59
f 55/82/60 54/88/60 58/89/60
f 72/90/88 57/127/88 84/91/88
f 53/84/62 57/100/62 58/89/62
f 70/93/89 56/128/89 83/94/89
f 58/89/64 63/101/64 64/96/64
f 61/97/90 74/118/90 77/98/90
f 57/100/91 62/108/91 63/101/91
f 62/102/67 57/122/67 76/103/67
f 64/96/68 63/101/68 68/105/68
f 61/106/69 66/111/69 67/107/69
f 43/86/58 65/130/58 60/109/58
f 62/108/70 67/107/70 68/105/70
f 60/109/71 65/130/71 66/111/71
f 69/112/72 68/115/72 46/71/72
f 66/113/73 44/74/73 45/69/73
f 67/114/74 45/69/74 46/71/74
f 65/116/75 43/72/75 44/74/75
f 55/82/50 59/66/50 47/68/50
f 73/117/92 74/118/92 78/104/92
f 73/117/93 75/120/93 77/98/93
f 72/119/94 56/121/94 75/120/94
f 60/99/79 77/98/79 75/120/79
f 61/97/95 62/102/95 78/104/95
f 72/119/96 73/117/96 76/103/96
f 79/123/97 80/92/97 84/91/97
f 79/123/83 81/95/83 83/94/83
f 71/125/98 79/123/98 82/124/98
f 53/126/85 82/124/85 84/91/85
f 72/90/99 80/92/99 83/94/99
f 71/125/100 70/93/100 81/95/100
