# Blender v2.81 (sub 16) OBJ File: 'garbage.blend'
# www.blender.org
v -0.600886 2.315460 -0.677127
v -0.598741 2.295806 -0.697881
v -0.601478 2.268695 -0.706774
v -0.608362 2.241390 -0.701422
v -0.617550 2.221208 -0.683260
v -0.582115 2.310851 -0.657304
v -0.566228 2.287824 -0.663547
v -0.563935 2.259478 -0.667128
v -0.575849 2.233407 -0.667087
v -0.598778 2.216599 -0.663437
v -0.579415 2.258755 -0.613967
v -0.589255 2.232782 -0.621049
v -0.606518 2.216238 -0.636856
v -0.616366 2.314737 -0.623966
v -0.632438 2.267250 -0.600452
v -0.635175 2.240139 -0.609345
v -0.633030 2.220485 -0.630099
v -0.635138 2.319346 -0.643789
v -0.658067 2.302537 -0.640139
v -0.669981 2.276467 -0.640098
v -0.667688 2.248121 -0.643679
v -0.651801 2.225094 -0.649922
v -0.627398 2.319707 -0.670370
v -0.644661 2.303163 -0.686177
v -0.654501 2.277190 -0.693259
v -0.654281 2.248746 -0.689718
v -0.644061 2.225455 -0.676503
v -0.589855 2.310490 -0.630723
v -0.579635 2.287199 -0.617508
v -0.625554 2.294555 -0.605804
v -0.666126 2.320895 -0.592018
v -0.668779 2.321547 -0.594819
v -0.636572 2.323321 -0.612602
v -0.656894 2.287304 -0.596456
v -0.645864 2.325602 -0.622414
v -0.671307 2.290843 -0.611676
v -0.584476 2.305040 -0.572727
v -0.595345 2.306781 -0.569957
v -0.590171 2.312381 -0.588961
v -0.592316 2.285555 -0.582263
v -0.595152 2.313179 -0.587692
v -0.597311 2.286355 -0.580990
vt 0.274240 0.539347
vt 0.265397 0.539709
vt 0.266768 0.532487
vt 0.231414 0.551290
vt 0.214659 0.541092
vt 0.231357 0.542861
vt 0.231940 0.569242
vt 0.215985 0.562822
vt 0.231472 0.559719
vt 0.230890 0.533338
vt 0.220414 0.530957
vt 0.213134 0.552274
vt 0.289666 0.544440
vt 0.282983 0.540904
vt 0.290637 0.536818
vt 0.279682 0.529141
vt 0.275518 0.536619
vt 0.273707 0.532162
vt 0.280945 0.538772
vt 0.286431 0.530872
vt 0.290637 0.551375
vt 0.284312 0.543753
vt 0.278488 0.537315
vt 0.276318 0.541045
vt 0.804698 0.251197
vt 0.792375 0.255919
vt 0.792638 0.252041
vt 0.786357 0.239035
vt 0.792578 0.249274
vt 0.791489 0.249454
vt 0.271776 0.541127
vt 0.760733 0.199751
vt 0.757502 0.209505
vt 0.750621 0.206121
vt 0.278108 0.542645
vt 0.273009 0.544115
vt 0.772804 0.201934
vt 0.766718 0.213101
vt 0.766203 0.208706
vt 0.264007 0.548518
vt 0.277612 0.547903
vt 0.268747 0.555467
vt 0.275021 0.546378
vt 0.280714 0.548498
vt 0.281954 0.545638
vt 0.276612 0.557409
vt 0.240880 0.530957
vt 0.248168 0.561486
vt 0.249693 0.550306
vt 0.246843 0.539760
vt 0.242415 0.571620
vt 0.762287 0.211045
vt 0.762255 0.210544
vt 0.761023 0.221925
vt 0.757316 0.212491
vt 0.750922 0.216572
vt 0.772804 0.220841
vt 0.791613 0.252007
vt 0.791097 0.255536
vt 0.780068 0.250772
vt 0.780487 0.263708
vt 0.804698 0.264828
vt 0.798786 0.238814
vt 0.221949 0.571626
vt 0.283377 0.553479
vn -0.1737 -0.9827 -0.0640
vn 0.6565 -0.3011 -0.6916
vn 0.6537 0.5821 -0.4837
vn 0.4262 -0.7046 -0.5674
vn 0.7350 0.1432 -0.6627
vn 0.8275 0.5037 0.2478
vn 0.6001 -0.7829 0.1641
vn 0.9591 0.0422 0.2799
vn 0.1737 0.9827 0.0639
vn 0.8806 -0.4020 0.2509
vn 0.0602 -0.7217 0.6896
vn -0.6774 -0.2980 0.6725
vn 0.1848 -0.3231 0.9281
vn 0.1472 0.9881 -0.0436
vn -0.6537 -0.5821 0.4837
vn -0.5670 0.6691 -0.4804
vn -0.7350 -0.1432 0.6627
vn -0.5579 -0.7508 0.3537
vn -0.8275 -0.5037 -0.2478
vn -0.8806 0.4020 -0.2510
vn -0.9591 -0.0422 -0.2799
vn -0.6001 0.7829 -0.1641
vn -0.2876 -0.5650 -0.7733
vn -0.1848 0.3231 -0.9281
vn -0.2633 -0.1212 -0.9571
vn -0.0601 0.7217 -0.6896
vn -0.1737 -0.9827 -0.0639
vn -0.7284 -0.2827 0.6241
vn 0.0472 0.9819 0.1834
vn 0.5082 0.3776 0.7741
vn 0.3390 0.9351 -0.1036
vn -0.9129 0.2516 -0.3213
vn 0.2574 0.1230 0.9584
vn 0.1434 -0.4810 0.8649
vn 0.2312 0.9144 0.3324
vn 0.9391 0.0496 0.3402
vn 0.0464 -0.7535 0.6558
vn -0.6405 0.6539 0.4027
vn 0.8762 0.4727 -0.0936
vn 0.6537 0.5821 -0.4836
vn 0.8806 -0.4020 0.2510
vn -0.5808 0.2951 0.7586
vn 0.1848 -0.3231 0.9282
vn -0.6537 -0.5821 0.4836
vn -0.6253 0.6558 -0.4229
vn 0.1737 0.9827 0.0640
vn -0.2634 -0.1212 -0.9571
vn -0.7285 -0.2827 0.6241
vn 0.0473 0.9819 0.1835
vn 0.5717 0.3896 0.7221
vn -0.8820 0.4027 -0.2448
vn 0.2951 -0.0450 0.9544
vn 0.2312 0.9143 0.3324
vn 0.8360 -0.4727 0.2787
vn 0.0465 -0.7535 0.6558
vn -0.6129 0.7454 0.2623
vn 0.9179 0.3965 -0.0110
s off
f 17/1/1 27/2/1 5/3/1
f 3/4/2 9/5/2 4/6/2
f 1/7/3 7/8/3 2/9/3
f 5/10/4 9/5/4 10/11/4
f 2/9/5 8/12/5 3/4/5
f 6/13/6 29/14/6 7/15/6
f 9/16/7 13/17/7 10/18/7
f 7/15/8 11/19/8 8/20/8
f 1/21/9 28/22/9 6/13/9
f 8/20/10 12/23/10 9/16/10
f 13/17/11 16/24/11 17/1/11
f 30/25/12 42/26/12 38/27/12
f 11/19/13 16/24/13 12/23/13
f 28/28/14 41/29/14 39/30/14
f 16/24/15 22/31/15 17/1/15
f 19/32/16 35/33/16 18/34/16
f 15/35/17 21/36/17 16/24/17
f 20/37/18 34/38/18 36/39/18
f 22/31/19 26/40/19 27/2/19
f 19/41/20 25/42/20 20/43/20
f 1/21/9 18/44/9 14/45/9
f 20/43/21 26/40/21 21/36/21
f 18/44/22 24/46/22 19/41/22
f 27/47/23 4/6/23 5/10/23
f 24/48/24 3/4/24 25/49/24
f 25/49/25 4/6/25 26/50/25
f 23/51/26 2/9/26 24/48/26
f 13/17/27 5/3/27 10/18/27
f 31/52/28 36/39/28 34/38/28
f 31/52/29 35/33/29 32/53/29
f 30/54/30 33/55/30 31/52/30
f 18/34/31 33/55/31 14/56/31
f 19/32/32 36/39/32 32/53/32
f 30/54/33 34/38/33 15/57/33
f 37/58/34 42/26/34 40/59/34
f 37/58/35 41/29/35 38/27/35
f 29/60/36 40/59/36 11/61/36
f 11/61/37 42/26/37 15/62/37
f 30/25/38 41/29/38 14/63/38
f 29/60/39 39/30/39 37/58/39
f 17/1/27 22/31/27 27/2/27
f 3/4/2 8/12/2 9/5/2
f 1/7/40 6/64/40 7/8/40
f 5/10/4 4/6/4 9/5/4
f 2/9/5 7/8/5 8/12/5
f 6/13/6 28/22/6 29/14/6
f 9/16/7 12/23/7 13/17/7
f 7/15/8 29/14/8 11/19/8
f 1/21/9 14/45/9 28/22/9
f 8/20/41 11/19/41 12/23/41
f 13/17/11 12/23/11 16/24/11
f 30/25/42 15/62/42 42/26/42
f 11/19/43 15/35/43 16/24/43
f 28/28/14 14/63/14 41/29/14
f 16/24/44 21/36/44 22/31/44
f 19/32/45 32/53/45 35/33/45
f 15/35/17 20/43/17 21/36/17
f 20/37/18 15/57/18 34/38/18
f 22/31/19 21/36/19 26/40/19
f 19/41/20 24/46/20 25/42/20
f 1/21/46 23/65/46 18/44/46
f 20/43/21 25/42/21 26/40/21
f 18/44/22 23/65/22 24/46/22
f 27/47/23 26/50/23 4/6/23
f 24/48/24 2/9/24 3/4/24
f 25/49/47 3/4/47 4/6/47
f 23/51/26 1/7/26 2/9/26
f 13/17/1 17/1/1 5/3/1
f 31/52/48 32/53/48 36/39/48
f 31/52/49 33/55/49 35/33/49
f 30/54/50 14/56/50 33/55/50
f 18/34/31 35/33/31 33/55/31
f 19/32/51 20/37/51 36/39/51
f 30/54/52 31/52/52 34/38/52
f 37/58/34 38/27/34 42/26/34
f 37/58/53 39/30/53 41/29/53
f 29/60/54 37/58/54 40/59/54
f 11/61/55 40/59/55 42/26/55
f 30/25/56 38/27/56 41/29/56
f 29/60/57 28/28/57 39/30/57
v 0.255214 1.768608 -3.491793
v 0.264313 1.741608 -3.488668
v 0.258606 1.713676 -3.485688
v 0.239620 1.692299 -3.483652
v 0.212444 1.683203 -3.483105
v 0.242426 1.777346 -3.468843
v 0.242165 1.756743 -3.448918
v 0.233032 1.731153 -3.439789
v 0.217472 1.707434 -3.443902
v 0.199657 1.691941 -3.460155
v 0.183477 1.755611 -3.443310
v 0.174557 1.728616 -3.446952
v 0.174879 1.704171 -3.461916
v 0.205659 1.793066 -3.495315
v 0.159497 1.762593 -3.492732
v 0.153789 1.734662 -3.489752
v 0.162889 1.707661 -3.486627
v 0.218446 1.784328 -3.518265
v 0.200631 1.768835 -3.534518
v 0.185071 1.745116 -3.538631
v 0.175937 1.719526 -3.529502
v 0.175676 1.698923 -3.509576
v 0.243224 1.772099 -3.516504
v 0.243546 1.747653 -3.531468
v 0.234626 1.720658 -3.535109
v 0.218853 1.698345 -3.526452
v 0.200454 1.686694 -3.507815
v 0.217649 1.789575 -3.470604
v 0.199250 1.777924 -3.451968
v 0.178483 1.783970 -3.494768
v 0.166243 1.807918 -3.537273
v 0.168050 1.806683 -3.540516
v 0.193753 1.803440 -3.514333
v 0.157614 1.778371 -3.520367
v 0.200082 1.799115 -3.525693
v 0.167432 1.771662 -3.537988
v 0.168422 1.815295 -3.452237
v 0.163507 1.816727 -3.462368
v 0.183529 1.812471 -3.462899
v 0.165114 1.792825 -3.456260
v 0.181276 1.813126 -3.467541
v 0.162855 1.793483 -3.460917
vt 0.274240 0.539347
vt 0.265397 0.539709
vt 0.266768 0.532487
vt 0.231414 0.551290
vt 0.214659 0.541092
vt 0.231357 0.542861
vt 0.231940 0.569242
vt 0.215985 0.562822
vt 0.231472 0.559719
vt 0.230890 0.533338
vt 0.220414 0.530957
vt 0.213134 0.552274
vt 0.289666 0.544440
vt 0.282983 0.540904
vt 0.290637 0.536818
vt 0.279682 0.529141
vt 0.275518 0.536619
vt 0.273707 0.532162
vt 0.280945 0.538772
vt 0.286431 0.530872
vt 0.290637 0.551375
vt 0.284312 0.543753
vt 0.278488 0.537315
vt 0.276318 0.541045
vt 0.804698 0.251197
vt 0.792375 0.255919
vt 0.792638 0.252041
vt 0.786357 0.239035
vt 0.792578 0.249274
vt 0.791489 0.249454
vt 0.271776 0.541127
vt 0.760733 0.199751
vt 0.757502 0.209505
vt 0.750621 0.206121
vt 0.278108 0.542645
vt 0.273009 0.544115
vt 0.772804 0.201934
vt 0.766718 0.213101
vt 0.766203 0.208706
vt 0.264007 0.548518
vt 0.277612 0.547903
vt 0.268747 0.555467
vt 0.275021 0.546378
vt 0.280714 0.548498
vt 0.281954 0.545638
vt 0.276612 0.557409
vt 0.240880 0.530957
vt 0.248168 0.561486
vt 0.249693 0.550306
vt 0.246843 0.539760
vt 0.242415 0.571620
vt 0.762287 0.211045
vt 0.762255 0.210544
vt 0.761023 0.221925
vt 0.757316 0.212491
vt 0.750922 0.216572
vt 0.772804 0.220841
vt 0.791613 0.252007
vt 0.791097 0.255536
vt 0.780068 0.250772
vt 0.780487 0.263708
vt 0.804698 0.264828
vt 0.798786 0.238814
vt 0.221949 0.571626
vt 0.283377 0.553479
vn -0.4459 -0.8905 0.0906
vn 0.6461 -0.5206 0.5582
vn 0.8715 0.3352 0.3580
vn 0.2876 -0.8307 0.4766
vn 0.8477 -0.1180 0.5172
vn 0.2794 0.6657 0.6920
vn -0.3045 -0.5002 0.8106
vn 0.0846 0.3079 0.9477
vn 0.4459 0.8905 -0.0906
vn -0.1170 -0.0947 0.9886
vn -0.8841 -0.2524 0.3933
vn -0.9080 -0.0007 -0.4190
vn -0.8639 0.2246 0.4509
vn 0.5299 0.8366 -0.1390
vn -0.8715 -0.3352 -0.3580
vn 0.5274 0.2465 -0.8131
vn -0.8477 0.1180 -0.5172
vn -0.8095 -0.5319 -0.2485
vn -0.2794 -0.6657 -0.6920
vn 0.1170 0.0947 -0.9886
vn -0.0846 -0.3079 -0.9477
vn 0.3045 0.5002 -0.8106
vn 0.3002 -0.9135 -0.2747
vn 0.8638 -0.2246 -0.4509
vn 0.6622 -0.6272 -0.4099
vn 0.8841 0.2524 -0.3933
vn -0.8765 -0.0193 -0.4810
vn 0.3062 0.9338 -0.1849
vn -0.3169 0.7844 0.5332
vn 0.6158 0.7867 0.0436
vn 0.0975 -0.0734 -0.9925
vn -0.6645 0.6286 0.4042
vn -0.8955 0.0527 0.4419
vn 0.2087 0.9773 0.0368
vn 0.0313 0.3422 0.9391
vn -0.8745 -0.2985 0.3822
vn -0.2399 0.6748 -0.6980
vn 0.5656 0.4715 0.6766
vn 0.8715 0.3351 0.3580
vn -0.6811 0.5600 -0.4718
vn 0.5300 0.8366 -0.1390
vn 0.4552 0.2567 -0.8526
vn 0.8639 -0.2246 -0.4509
vn 0.6623 -0.6272 -0.4099
vn 0.3062 0.9338 -0.1850
vn -0.2482 0.7766 0.5790
vn 0.1117 0.0982 -0.9889
vn -0.7254 0.4890 0.4844
vn -0.1861 -0.1465 0.9715
vn -0.0726 0.6844 -0.7255
vn 0.4752 0.4546 0.7533
s off
f 59/66/58 69/67/58 47/68/58
f 45/69/59 51/70/59 46/71/59
f 43/72/60 49/73/60 44/74/60
f 47/75/61 51/70/61 52/76/61
f 44/74/62 50/77/62 45/69/62
f 48/78/63 71/79/63 49/80/63
f 51/81/64 55/82/64 52/83/64
f 49/80/65 53/84/65 50/85/65
f 43/86/66 70/87/66 48/78/66
f 50/85/67 54/88/67 51/81/67
f 55/82/68 58/89/68 59/66/68
f 72/90/69 84/91/69 80/92/69
f 53/84/70 58/89/70 54/88/70
f 70/93/71 83/94/71 81/95/71
f 58/89/72 64/96/72 59/66/72
f 61/97/73 77/98/73 60/99/73
f 57/100/74 63/101/74 58/89/74
f 62/102/75 76/103/75 78/104/75
f 64/96/76 68/105/76 69/67/76
f 61/106/77 67/107/77 62/108/77
f 43/86/66 60/109/66 56/110/66
f 62/108/78 68/105/78 63/101/78
f 60/109/79 66/111/79 61/106/79
f 69/112/80 46/71/80 47/75/80
f 66/113/81 45/69/81 67/114/81
f 67/114/82 46/71/82 68/115/82
f 65/116/83 44/74/83 66/113/83
f 55/82/58 47/68/58 52/83/58
f 73/117/84 78/104/84 76/103/84
f 73/117/85 77/98/85 74/118/85
f 72/119/86 75/120/86 73/117/86
f 60/99/87 75/120/87 56/121/87
f 61/97/88 78/104/88 74/118/88
f 72/119/89 76/103/89 57/122/89
f 79/123/90 84/91/90 82/124/90
f 79/123/91 83/94/91 80/92/91
f 71/125/92 82/124/92 53/126/92
f 53/126/93 84/91/93 57/127/93
f 72/90/94 83/94/94 56/128/94
f 71/125/95 81/95/95 79/123/95
f 59/66/58 64/96/58 69/67/58
f 45/69/59 50/77/59 51/70/59
f 43/72/96 48/129/96 49/73/96
f 47/75/61 46/71/61 51/70/61
f 44/74/62 49/73/62 50/77/62
f 48/78/63 70/87/63 71/79/63
f 51/81/64 54/88/64 55/82/64
f 49/80/65 71/79/65 53/84/65
f 43/86/66 56/110/66 70/87/66
f 50/85/67 53/84/67 54/88/67
f 55/82/68 54/88/68 58/89/68
f 72/90/97 57/127/97 84/91/97
f 53/84/70 57/100/70 58/89/70
f 70/93/98 56/128/98 83/94/98
f 58/89/72 63/101/72 64/96/72
f 61/97/99 74/118/99 77/98/99
f 57/100/74 62/108/74 63/101/74
f 62/102/75 57/122/75 76/103/75
f 64/96/76 63/101/76 68/105/76
f 61/106/77 66/111/77 67/107/77
f 43/86/66 65/130/66 60/109/66
f 62/108/78 67/107/78 68/105/78
f 60/109/79 65/130/79 66/111/79
f 69/112/80 68/115/80 46/71/80
f 66/113/100 44/74/100 45/69/100
f 67/114/101 45/69/101 46/71/101
f 65/116/83 43/72/83 44/74/83
f 55/82/58 59/66/58 47/68/58
f 73/117/84 74/118/84 78/104/84
f 73/117/102 75/120/102 77/98/102
f 72/119/103 56/121/103 75/120/103
f 60/99/87 77/98/87 75/120/87
f 61/97/104 62/102/104 78/104/104
f 72/119/105 73/117/105 76/103/105
f 79/123/90 80/92/90 84/91/90
f 79/123/91 81/95/91 83/94/91
f 71/125/106 79/123/106 82/124/106
f 53/126/93 82/124/93 84/91/93
f 72/90/107 80/92/107 83/94/107
f 71/125/108 70/93/108 81/95/108
