# Blender v2.81 (sub 16) OBJ File: 'garbage.blend'
# www.blender.org
v 0.001139 1.201985 -0.738060
v 0.002964 1.174883 -0.728910
v -0.009213 1.151833 -0.716991
v -0.032129 1.139013 -0.705498
v -0.059644 1.139857 -0.697510
v -0.002337 1.219302 -0.716739
v -0.003057 1.204877 -0.691980
v -0.016166 1.186468 -0.674349
v -0.038150 1.169007 -0.668569
v -0.063121 1.157174 -0.676189
v -0.056245 1.224643 -0.675937
v -0.072860 1.202068 -0.669944
v -0.083160 1.176262 -0.676983
v -0.038940 1.240161 -0.739648
v -0.089372 1.228185 -0.720167
v -0.101549 1.205135 -0.708249
v -0.099724 1.178033 -0.699098
v -0.035464 1.222843 -0.760970
v -0.060435 1.211010 -0.768590
v -0.082419 1.193550 -0.762810
v -0.095528 1.175141 -0.745178
v -0.096247 1.160716 -0.720419
v -0.015425 1.203756 -0.760176
v -0.025725 1.177949 -0.767215
v -0.042340 1.155375 -0.761222
v -0.060818 1.142080 -0.743803
v -0.076208 1.141628 -0.719626
v -0.022377 1.238390 -0.717533
v -0.037767 1.237938 -0.693356
v -0.066456 1.241005 -0.731660
v -0.082258 1.257705 -0.776397
v -0.081767 1.255258 -0.779410
v -0.052058 1.249465 -0.758422
v -0.093964 1.237207 -0.750395
v -0.050337 1.240893 -0.768976
v -0.091295 1.223911 -0.766766
v -0.056119 1.282421 -0.698962
v -0.062909 1.283147 -0.708029
v -0.045679 1.272452 -0.710856
v -0.066395 1.262040 -0.695640
v -0.048791 1.272784 -0.715011
v -0.069516 1.262374 -0.699807
vt 0.274240 0.539347
vt 0.265397 0.539709
vt 0.266768 0.532487
vt 0.231414 0.551290
vt 0.214659 0.541092
vt 0.231357 0.542861
vt 0.231940 0.569242
vt 0.215985 0.562822
vt 0.231472 0.559719
vt 0.230890 0.533338
vt 0.220414 0.530957
vt 0.213134 0.552274
vt 0.289666 0.544440
vt 0.282983 0.540904
vt 0.290637 0.536818
vt 0.279682 0.529141
vt 0.275518 0.536619
vt 0.273707 0.532162
vt 0.280945 0.538772
vt 0.286431 0.530872
vt 0.290637 0.551375
vt 0.284312 0.543753
vt 0.278488 0.537315
vt 0.276318 0.541045
vt 0.804698 0.251197
vt 0.792375 0.255919
vt 0.792638 0.252041
vt 0.786357 0.239035
vt 0.792578 0.249274
vt 0.791489 0.249454
vt 0.271776 0.541127
vt 0.760733 0.199751
vt 0.757502 0.209505
vt 0.750621 0.206121
vt 0.278108 0.542645
vt 0.273009 0.544115
vt 0.772804 0.201934
vt 0.766718 0.213101
vt 0.766203 0.208706
vt 0.264007 0.548518
vt 0.277612 0.547903
vt 0.268747 0.555467
vt 0.275021 0.546378
vt 0.280714 0.548498
vt 0.281954 0.545638
vt 0.276612 0.557409
vt 0.240880 0.530957
vt 0.248168 0.561486
vt 0.249693 0.550306
vt 0.246843 0.539760
vt 0.242415 0.571620
vt 0.762287 0.211045
vt 0.762255 0.210544
vt 0.761023 0.221925
vt 0.757316 0.212491
vt 0.750922 0.216572
vt 0.772804 0.220841
vt 0.791613 0.252007
vt 0.791097 0.255536
vt 0.780068 0.250772
vt 0.780487 0.263708
vt 0.804698 0.264828
vt 0.798786 0.238814
vt 0.221949 0.571626
vt 0.283377 0.553479
vn -0.6338 -0.6478 0.4228
vn 0.6003 -0.5701 0.5609
vn 0.9919 0.0953 0.0843
vn 0.1621 -0.7529 0.6379
vn 0.8868 -0.2773 0.3698
vn 0.6212 0.6691 0.4079
vn -0.2086 -0.1790 0.9615
vn 0.4091 0.4622 0.7868
vn 0.6337 0.6478 -0.4228
vn 0.1226 0.1694 0.9779
vn -0.7856 0.1498 0.6004
vn -0.9497 0.2101 -0.2322
vn -0.6209 0.5931 0.5125
vn 0.6842 0.5597 -0.4676
vn -0.9919 -0.0953 -0.0843
vn 0.3447 -0.1285 -0.9299
vn -0.8868 0.2773 -0.3698
vn -0.9601 -0.2723 0.0646
vn -0.6212 -0.6691 -0.4079
vn -0.1226 -0.1694 -0.9779
vn 0.6338 0.6478 -0.4228
vn -0.4091 -0.4622 -0.7868
vn 0.2086 0.1790 -0.9615
vn -0.0442 -0.9979 -0.0468
vn 0.6209 -0.5931 -0.5125
vn 0.3344 -0.8859 -0.3214
vn 0.7856 -0.1498 -0.6004
vn -0.9417 0.1690 -0.2908
vn 0.4918 0.7134 -0.4992
vn 0.0604 0.9419 0.3303
vn 0.7974 0.5254 -0.2967
vn -0.1878 -0.3178 -0.9294
vn -0.3376 0.8867 0.3160
vn -0.6998 0.4440 0.5596
vn 0.4711 0.8344 -0.2860
vn 0.3670 0.5096 0.7782
vn -0.7923 0.1019 0.6016
vn -0.2182 0.5453 -0.8093
vn 0.8289 0.3922 0.3988
vn -0.6337 -0.6478 0.4228
vn -0.5994 0.6369 -0.4848
vn 0.2703 -0.1037 -0.9572
vn 0.1338 0.9220 0.3634
vn 0.7974 0.5254 -0.2968
vn -0.1266 -0.1645 -0.9782
vn -0.4115 0.7966 0.4427
vn -0.6997 0.4440 0.5596
vn 0.4711 0.8345 -0.2860
vn 0.0399 0.1411 0.9892
vn -0.0678 0.4923 -0.8678
vn 0.7605 0.4238 0.4920
s off
f 17/1/1 27/2/1 5/3/1
f 3/4/2 9/5/2 4/6/2
f 1/7/3 7/8/3 2/9/3
f 5/10/4 9/5/4 10/11/4
f 2/9/5 8/12/5 3/4/5
f 6/13/6 29/14/6 7/15/6
f 9/16/7 13/17/7 10/18/7
f 7/15/8 11/19/8 8/20/8
f 1/21/9 28/22/9 6/13/9
f 8/20/10 12/23/10 9/16/10
f 13/17/11 16/24/11 17/1/11
f 30/25/12 42/26/12 38/27/12
f 11/19/13 16/24/13 12/23/13
f 28/28/14 41/29/14 39/30/14
f 16/24/15 22/31/15 17/1/15
f 19/32/16 35/33/16 18/34/16
f 15/35/17 21/36/17 16/24/17
f 20/37/18 34/38/18 36/39/18
f 22/31/19 26/40/19 27/2/19
f 19/41/20 25/42/20 20/43/20
f 1/21/21 18/44/21 14/45/21
f 20/43/22 26/40/22 21/36/22
f 18/44/23 24/46/23 19/41/23
f 27/47/24 4/6/24 5/10/24
f 24/48/25 3/4/25 25/49/25
f 25/49/26 4/6/26 26/50/26
f 23/51/27 2/9/27 24/48/27
f 13/17/1 5/3/1 10/18/1
f 31/52/28 36/39/28 34/38/28
f 31/52/29 35/33/29 32/53/29
f 30/54/30 33/55/30 31/52/30
f 18/34/31 33/55/31 14/56/31
f 19/32/32 36/39/32 32/53/32
f 30/54/33 34/38/33 15/57/33
f 37/58/34 42/26/34 40/59/34
f 37/58/35 41/29/35 38/27/35
f 29/60/36 40/59/36 11/61/36
f 11/61/37 42/26/37 15/62/37
f 30/25/38 41/29/38 14/63/38
f 29/60/39 39/30/39 37/58/39
f 17/1/40 22/31/40 27/2/40
f 3/4/2 8/12/2 9/5/2
f 1/7/3 6/64/3 7/8/3
f 5/10/4 4/6/4 9/5/4
f 2/9/5 7/8/5 8/12/5
f 6/13/6 28/22/6 29/14/6
f 9/16/7 12/23/7 13/17/7
f 7/15/8 29/14/8 11/19/8
f 1/21/21 14/45/21 28/22/21
f 8/20/10 11/19/10 12/23/10
f 13/17/11 12/23/11 16/24/11
f 30/25/41 15/62/41 42/26/41
f 11/19/13 15/35/13 16/24/13
f 28/28/14 14/63/14 41/29/14
f 16/24/15 21/36/15 22/31/15
f 19/32/42 32/53/42 35/33/42
f 15/35/17 20/43/17 21/36/17
f 20/37/18 15/57/18 34/38/18
f 22/31/19 21/36/19 26/40/19
f 19/41/20 24/46/20 25/42/20
f 1/21/21 23/65/21 18/44/21
f 20/43/22 25/42/22 26/40/22
f 18/44/23 23/65/23 24/46/23
f 27/47/24 26/50/24 4/6/24
f 24/48/25 2/9/25 3/4/25
f 25/49/26 3/4/26 4/6/26
f 23/51/27 1/7/27 2/9/27
f 13/17/1 17/1/1 5/3/1
f 31/52/28 32/53/28 36/39/28
f 31/52/29 33/55/29 35/33/29
f 30/54/43 14/56/43 33/55/43
f 18/34/44 35/33/44 33/55/44
f 19/32/45 20/37/45 36/39/45
f 30/54/46 31/52/46 34/38/46
f 37/58/47 38/27/47 42/26/47
f 37/58/48 39/30/48 41/29/48
f 29/60/49 37/58/49 40/59/49
f 11/61/37 40/59/37 42/26/37
f 30/25/50 38/27/50 41/29/50
f 29/60/51 28/28/51 39/30/51
v 1.072899 1.228744 0.064901
v 1.052414 1.215413 0.079875
v 1.040625 1.191211 0.089718
v 1.040693 1.162622 0.091793
v 1.052598 1.137308 0.085543
v 1.070467 1.223186 0.037887
v 1.048201 1.205786 0.033086
v 1.035761 1.180094 0.035690
v 1.036480 1.152995 0.045003
v 1.050166 1.131750 0.058529
v 1.080007 1.163725 0.006698
v 1.074798 1.138819 0.019895
v 1.072289 1.123566 0.044033
v 1.117145 1.212375 0.035908
v 1.129118 1.158473 0.031733
v 1.117330 1.134271 0.041576
v 1.096844 1.120939 0.056550
v 1.119578 1.217934 0.062922
v 1.133264 1.196689 0.076448
v 1.133983 1.169590 0.085761
v 1.121543 1.143898 0.088365
v 1.099277 1.126498 0.083564
v 1.097455 1.226118 0.077419
v 1.094945 1.210865 0.101556
v 1.089737 1.185959 0.114753
v 1.083225 1.158074 0.113474
v 1.077154 1.134682 0.098060
v 1.092590 1.215001 0.023391
v 1.086519 1.191610 0.007977
v 1.129051 1.187061 0.029658
v 1.174773 1.201106 0.045222
v 1.175117 1.201891 0.049039
v 1.141371 1.213975 0.040563
v 1.155231 1.171948 0.044092
v 1.142575 1.216727 0.053935
v 1.157099 1.176216 0.064833
v 1.123466 1.196948 -0.022900
v 1.133533 1.195871 -0.017769
v 1.119585 1.206740 -0.007444
v 1.117238 1.179188 -0.009565
v 1.124199 1.206246 -0.005092
v 1.121865 1.178693 -0.007206
vt 0.274240 0.539347
vt 0.265397 0.539709
vt 0.266768 0.532487
vt 0.231414 0.551290
vt 0.214659 0.541092
vt 0.231357 0.542861
vt 0.231940 0.569242
vt 0.215985 0.562822
vt 0.231472 0.559719
vt 0.230890 0.533338
vt 0.220414 0.530957
vt 0.213134 0.552274
vt 0.289666 0.544440
vt 0.282983 0.540904
vt 0.290637 0.536818
vt 0.279682 0.529141
vt 0.275518 0.536619
vt 0.273707 0.532162
vt 0.280945 0.538772
vt 0.286431 0.530872
vt 0.290637 0.551375
vt 0.284312 0.543753
vt 0.278488 0.537315
vt 0.276318 0.541045
vt 0.804698 0.251197
vt 0.792375 0.255919
vt 0.792638 0.252041
vt 0.786357 0.239035
vt 0.792578 0.249274
vt 0.791489 0.249454
vt 0.271776 0.541127
vt 0.760733 0.199751
vt 0.757502 0.209505
vt 0.750621 0.206121
vt 0.278108 0.542645
vt 0.273009 0.544115
vt 0.772804 0.201934
vt 0.766718 0.213101
vt 0.766203 0.208706
vt 0.264007 0.548518
vt 0.277612 0.547903
vt 0.268747 0.555467
vt 0.275021 0.546378
vt 0.280714 0.548498
vt 0.281954 0.545638
vt 0.276612 0.557409
vt 0.240880 0.530957
vt 0.248168 0.561486
vt 0.249693 0.550306
vt 0.246843 0.539760
vt 0.242415 0.571620
vt 0.762287 0.211045
vt 0.762255 0.210544
vt 0.761023 0.221925
vt 0.757316 0.212491
vt 0.750922 0.216572
vt 0.772804 0.220841
vt 0.791613 0.252007
vt 0.791097 0.255536
vt 0.780068 0.250772
vt 0.780487 0.263708
vt 0.804698 0.264828
vt 0.798786 0.238814
vt 0.221949 0.571626
vt 0.283377 0.553479
vn -0.2117 -0.9533 0.2152
vn -0.9960 0.0041 0.0888
vn -0.5972 0.7945 -0.1097
vn -0.8744 -0.4537 0.1721
vn -0.9003 0.4351 -0.0085
vn -0.2869 0.5779 -0.7640
vn -0.5640 -0.6703 -0.4823
vn -0.5004 0.1559 -0.8517
vn 0.2117 0.9534 -0.2152
vn -0.5961 -0.2751 -0.7544
vn 0.1718 -0.8407 -0.5134
vn 0.8184 -0.5739 -0.0292
vn 0.3521 -0.4947 -0.7946
vn 0.1649 0.9792 -0.1180
vn 0.5972 -0.7945 0.1097
vn 0.3075 0.6441 0.7004
vn 0.9003 -0.4351 0.0085
vn 0.3961 -0.9058 0.1507
vn 0.2869 -0.5779 0.7640
vn 0.5961 0.2751 0.7544
vn 0.5004 -0.1559 0.8517
vn 0.5640 0.6703 0.4822
vn -0.4490 -0.4075 0.7952
vn -0.3521 0.4947 0.7946
vn -0.4478 0.0637 0.8919
vn -0.1718 0.8407 0.5134
vn -0.2117 -0.9534 0.2152
vn 0.8293 -0.5574 0.0400
vn 0.3773 0.8998 -0.2191
vn 0.2346 0.2709 -0.9336
vn -0.0264 0.9796 -0.1992
vn 0.5298 0.1425 0.8361
vn 0.4535 -0.0634 -0.8890
vn 0.2946 -0.6377 -0.7117
vn 0.3182 0.8349 -0.4491
vn -0.4459 0.1447 -0.8833
vn 0.1509 -0.8655 -0.4776
vn 0.9097 0.4041 0.0961
vn -0.5453 0.6394 -0.5420
vn -0.5640 -0.6703 -0.4822
vn 0.2117 0.9533 -0.2152
vn 0.9819 -0.0114 -0.1888
vn 0.3815 0.6065 0.6976
vn 0.5640 0.6703 0.4823
vn 0.1600 0.3069 -0.9382
vn 0.6011 0.2739 0.7507
vn 0.3733 -0.2152 -0.9024
vn 0.3182 0.8350 -0.4490
vn -0.5679 -0.3575 -0.7414
vn 0.8293 0.5301 0.1769
vn -0.5465 0.5551 -0.6271
s off
f 59/66/52 69/67/52 47/68/52
f 45/69/53 51/70/53 46/71/53
f 43/72/54 49/73/54 44/74/54
f 47/75/55 51/70/55 52/76/55
f 44/74/56 50/77/56 45/69/56
f 48/78/57 71/79/57 49/80/57
f 51/81/58 55/82/58 52/83/58
f 49/80/59 53/84/59 50/85/59
f 43/86/60 70/87/60 48/78/60
f 50/85/61 54/88/61 51/81/61
f 55/82/62 58/89/62 59/66/62
f 72/90/63 84/91/63 80/92/63
f 53/84/64 58/89/64 54/88/64
f 70/93/65 83/94/65 81/95/65
f 58/89/66 64/96/66 59/66/66
f 61/97/67 77/98/67 60/99/67
f 57/100/68 63/101/68 58/89/68
f 62/102/69 76/103/69 78/104/69
f 64/96/70 68/105/70 69/67/70
f 61/106/71 67/107/71 62/108/71
f 43/86/60 60/109/60 56/110/60
f 62/108/72 68/105/72 63/101/72
f 60/109/73 66/111/73 61/106/73
f 69/112/74 46/71/74 47/75/74
f 66/113/75 45/69/75 67/114/75
f 67/114/76 46/71/76 68/115/76
f 65/116/77 44/74/77 66/113/77
f 55/82/78 47/68/78 52/83/78
f 73/117/79 78/104/79 76/103/79
f 73/117/80 77/98/80 74/118/80
f 72/119/81 75/120/81 73/117/81
f 60/99/82 75/120/82 56/121/82
f 61/97/83 78/104/83 74/118/83
f 72/119/84 76/103/84 57/122/84
f 79/123/85 84/91/85 82/124/85
f 79/123/86 83/94/86 80/92/86
f 71/125/87 82/124/87 53/126/87
f 53/126/88 84/91/88 57/127/88
f 72/90/89 83/94/89 56/128/89
f 71/125/90 81/95/90 79/123/90
f 59/66/78 64/96/78 69/67/78
f 45/69/53 50/77/53 51/70/53
f 43/72/54 48/129/54 49/73/54
f 47/75/55 46/71/55 51/70/55
f 44/74/56 49/73/56 50/77/56
f 48/78/57 70/87/57 71/79/57
f 51/81/91 54/88/91 55/82/91
f 49/80/59 71/79/59 53/84/59
f 43/86/92 56/110/92 70/87/92
f 50/85/61 53/84/61 54/88/61
f 55/82/62 54/88/62 58/89/62
f 72/90/93 57/127/93 84/91/93
f 53/84/64 57/100/64 58/89/64
f 70/93/65 56/128/65 83/94/65
f 58/89/66 63/101/66 64/96/66
f 61/97/94 74/118/94 77/98/94
f 57/100/68 62/108/68 63/101/68
f 62/102/69 57/122/69 76/103/69
f 64/96/70 63/101/70 68/105/70
f 61/106/71 66/111/71 67/107/71
f 43/86/60 65/130/60 60/109/60
f 62/108/72 67/107/72 68/105/72
f 60/109/95 65/130/95 66/111/95
f 69/112/74 68/115/74 46/71/74
f 66/113/75 44/74/75 45/69/75
f 67/114/76 45/69/76 46/71/76
f 65/116/77 43/72/77 44/74/77
f 55/82/78 59/66/78 47/68/78
f 73/117/79 74/118/79 78/104/79
f 73/117/80 75/120/80 77/98/80
f 72/119/96 56/121/96 75/120/96
f 60/99/82 77/98/82 75/120/82
f 61/97/97 62/102/97 78/104/97
f 72/119/98 73/117/98 76/103/98
f 79/123/85 80/92/85 84/91/85
f 79/123/99 81/95/99 83/94/99
f 71/125/100 79/123/100 82/124/100
f 53/126/88 82/124/88 84/91/88
f 72/90/101 80/92/101 83/94/101
f 71/125/102 70/93/102 81/95/102
