# Blender v2.81 (sub 16) OBJ File: 'garbage.blend'
# www.blender.org
v -0.360028 1.453253 0.551613
v -0.371717 1.432084 0.536223
v -0.375501 1.404089 0.531371
v -0.370366 1.376768 0.538356
v -0.357686 1.357443 0.555308
v -0.332554 1.453794 0.548231
v -0.324131 1.433022 0.530367
v -0.320553 1.405171 0.524608
v -0.322779 1.377705 0.532500
v -0.330212 1.357984 0.551927
v -0.287264 1.407689 0.568788
v -0.293950 1.379886 0.570760
v -0.313568 1.359243 0.574017
v -0.326739 1.455771 0.595792
v -0.308924 1.409124 0.619729
v -0.312708 1.381129 0.614877
v -0.324398 1.359960 0.599487
v -0.354214 1.455230 0.599173
v -0.361647 1.435508 0.618600
v -0.363873 1.408042 0.626491
v -0.360295 1.380192 0.620733
v -0.351872 1.359419 0.602868
v -0.370858 1.453971 0.577083
v -0.390476 1.433328 0.580339
v -0.397162 1.405525 0.582312
v -0.389124 1.378012 0.582473
v -0.368516 1.358160 0.580779
v -0.315909 1.455053 0.570321
v -0.295302 1.435202 0.568627
v -0.314060 1.436445 0.612743
v -0.331460 1.457389 0.655035
v -0.335342 1.457312 0.655513
v -0.331023 1.462228 0.619266
v -0.323584 1.425390 0.642897
v -0.344623 1.461961 0.620939
v -0.344678 1.424975 0.645493
v -0.265799 1.456726 0.600459
v -0.270239 1.457020 0.610902
v -0.283306 1.461308 0.595731
v -0.274430 1.435347 0.599773
v -0.285341 1.461443 0.600517
v -0.276471 1.435482 0.604572
vt 0.274240 0.539347
vt 0.265397 0.539709
vt 0.266768 0.532487
vt 0.231414 0.551290
vt 0.214659 0.541092
vt 0.231357 0.542861
vt 0.231940 0.569242
vt 0.215985 0.562822
vt 0.231472 0.559719
vt 0.230890 0.533338
vt 0.220414 0.530957
vt 0.213134 0.552274
vt 0.289666 0.544440
vt 0.282983 0.540904
vt 0.290637 0.536818
vt 0.279682 0.529141
vt 0.275518 0.536619
vt 0.273707 0.532162
vt 0.280945 0.538772
vt 0.286431 0.530872
vt 0.290637 0.551375
vt 0.284312 0.543753
vt 0.278488 0.537315
vt 0.276318 0.541045
vt 0.804698 0.251197
vt 0.792375 0.255919
vt 0.792638 0.252041
vt 0.786357 0.239035
vt 0.792578 0.249274
vt 0.791489 0.249454
vt 0.271776 0.541127
vt 0.760733 0.199751
vt 0.757502 0.209505
vt 0.750621 0.206121
vt 0.278108 0.542645
vt 0.273009 0.544115
vt 0.772804 0.201934
vt 0.766718 0.213101
vt 0.766203 0.208706
vt 0.264007 0.548518
vt 0.277612 0.547903
vt 0.268747 0.555467
vt 0.275021 0.546378
vt 0.280714 0.548498
vt 0.281954 0.545638
vt 0.276612 0.557409
vt 0.240880 0.530957
vt 0.248168 0.561486
vt 0.249693 0.550306
vt 0.246843 0.539760
vt 0.242415 0.571620
vt 0.762287 0.211045
vt 0.762255 0.210544
vt 0.761023 0.221925
vt 0.757316 0.212491
vt 0.750922 0.216572
vt 0.772804 0.220841
vt 0.791613 0.252007
vt 0.791097 0.255536
vt 0.780068 0.250772
vt 0.780487 0.263708
vt 0.804698 0.264828
vt 0.798786 0.238814
vt 0.221949 0.571626
vt 0.283377 0.553479
vn 0.0244 -0.9990 0.0385
vn -0.1126 -0.2660 -0.9574
vn -0.1076 0.6228 -0.7749
vn -0.0757 -0.6851 -0.7245
vn -0.1236 0.1857 -0.9748
vn 0.5878 0.6512 -0.4800
vn 0.6198 -0.6568 -0.4296
vn 0.7726 0.2222 -0.5948
vn -0.0244 0.9990 -0.0385
vn 0.7836 -0.2294 -0.5774
vn 0.7114 -0.6256 0.3201
vn 0.1927 -0.3276 0.9250
vn 0.9017 -0.1892 0.3887
vn -0.1262 0.9887 -0.0815
vn 0.1076 -0.6228 0.7749
vn -0.8310 0.5166 0.2064
vn 0.1236 -0.1857 0.9748
vn 0.0906 -0.7872 0.6100
vn -0.5878 -0.6512 0.4800
vn -0.7836 0.2294 0.5774
vn -0.7726 -0.2222 0.5948
vn -0.6198 0.6568 0.4296
vn -0.6795 -0.6823 -0.2697
vn -0.9017 0.1893 -0.3887
vn -0.8907 -0.2624 -0.3713
vn -0.7114 0.6256 -0.3201
vn 0.1218 -0.3257 0.9376
vn -0.0030 0.9910 0.1340
vn 0.8420 0.5331 0.0824
vn -0.0526 0.9603 -0.2738
vn -0.8313 0.0691 0.5516
vn 0.8880 0.2633 0.3770
vn 0.8558 -0.3575 0.3740
vn 0.2342 0.9695 0.0722
vn 0.8074 0.2327 -0.5422
vn 0.6824 -0.6626 0.3088
vn -0.1706 0.5841 0.7935
vn 0.3509 0.5920 -0.7255
vn 0.2108 0.2792 0.9368
vn -0.8170 0.5004 0.2866
vn 0.8356 0.5494 0.0013
vn -0.0526 0.9604 -0.2738
vn -0.7797 0.2305 0.5822
vn 0.9368 0.1039 0.3340
vn 0.8558 -0.3575 0.3739
vn 0.2342 0.9695 0.0723
vn 0.7924 -0.3029 -0.5296
vn -0.2823 0.6633 0.6930
vn 0.4543 0.5326 -0.7141
s off
f 17/1/1 27/2/1 5/3/1
f 3/4/2 9/5/2 4/6/2
f 1/7/3 7/8/3 2/9/3
f 5/10/4 9/5/4 10/11/4
f 2/9/5 8/12/5 3/4/5
f 6/13/6 29/14/6 7/15/6
f 9/16/7 13/17/7 10/18/7
f 7/15/8 11/19/8 8/20/8
f 1/21/9 28/22/9 6/13/9
f 8/20/10 12/23/10 9/16/10
f 13/17/11 16/24/11 17/1/11
f 30/25/12 42/26/12 38/27/12
f 11/19/13 16/24/13 12/23/13
f 28/28/14 41/29/14 39/30/14
f 16/24/15 22/31/15 17/1/15
f 19/32/16 35/33/16 18/34/16
f 15/35/17 21/36/17 16/24/17
f 20/37/18 34/38/18 36/39/18
f 22/31/19 26/40/19 27/2/19
f 19/41/20 25/42/20 20/43/20
f 1/21/9 18/44/9 14/45/9
f 20/43/21 26/40/21 21/36/21
f 18/44/22 24/46/22 19/41/22
f 27/47/23 4/6/23 5/10/23
f 24/48/24 3/4/24 25/49/24
f 25/49/25 4/6/25 26/50/25
f 23/51/26 2/9/26 24/48/26
f 13/17/1 5/3/1 10/18/1
f 31/52/27 36/39/27 34/38/27
f 31/52/28 35/33/28 32/53/28
f 30/54/29 33/55/29 31/52/29
f 18/34/30 33/55/30 14/56/30
f 19/32/31 36/39/31 32/53/31
f 30/54/32 34/38/32 15/57/32
f 37/58/33 42/26/33 40/59/33
f 37/58/34 41/29/34 38/27/34
f 29/60/35 40/59/35 11/61/35
f 11/61/36 42/26/36 15/62/36
f 30/25/37 41/29/37 14/63/37
f 29/60/38 39/30/38 37/58/38
f 17/1/1 22/31/1 27/2/1
f 3/4/2 8/12/2 9/5/2
f 1/7/3 6/64/3 7/8/3
f 5/10/4 4/6/4 9/5/4
f 2/9/5 7/8/5 8/12/5
f 6/13/6 28/22/6 29/14/6
f 9/16/7 12/23/7 13/17/7
f 7/15/8 29/14/8 11/19/8
f 1/21/9 14/45/9 28/22/9
f 8/20/10 11/19/10 12/23/10
f 13/17/11 12/23/11 16/24/11
f 30/25/39 15/62/39 42/26/39
f 11/19/13 15/35/13 16/24/13
f 28/28/14 14/63/14 41/29/14
f 16/24/15 21/36/15 22/31/15
f 19/32/40 32/53/40 35/33/40
f 15/35/17 20/43/17 21/36/17
f 20/37/18 15/57/18 34/38/18
f 22/31/19 21/36/19 26/40/19
f 19/41/20 24/46/20 25/42/20
f 1/21/9 23/65/9 18/44/9
f 20/43/21 25/42/21 26/40/21
f 18/44/22 23/65/22 24/46/22
f 27/47/23 26/50/23 4/6/23
f 24/48/24 2/9/24 3/4/24
f 25/49/25 3/4/25 4/6/25
f 23/51/26 1/7/26 2/9/26
f 13/17/1 17/1/1 5/3/1
f 31/52/27 32/53/27 36/39/27
f 31/52/28 33/55/28 35/33/28
f 30/54/41 14/56/41 33/55/41
f 18/34/42 35/33/42 33/55/42
f 19/32/43 20/37/43 36/39/43
f 30/54/44 31/52/44 34/38/44
f 37/58/45 38/27/45 42/26/45
f 37/58/46 39/30/46 41/29/46
f 29/60/47 37/58/47 40/59/47
f 11/61/36 40/59/36 42/26/36
f 30/25/48 38/27/48 41/29/48
f 29/60/49 28/28/49 39/30/49
v -0.273837 1.349474 -1.225073
v -0.262282 1.323455 -1.228396
v -0.264926 1.294914 -1.228232
v -0.281061 1.271499 -1.224624
v -0.306363 1.259485 -1.218539
v -0.280639 1.353855 -1.198594
v -0.274062 1.331042 -1.182534
v -0.278528 1.303675 -1.175275
v -0.292841 1.279087 -1.178762
v -0.313164 1.263865 -1.192060
v -0.328878 1.322807 -1.162423
v -0.336445 1.295655 -1.167631
v -0.338339 1.273431 -1.185634
v -0.324187 1.368606 -1.212220
v -0.365624 1.333177 -1.202527
v -0.368268 1.304636 -1.202363
v -0.356713 1.278616 -1.205687
v -0.317385 1.364225 -1.238699
v -0.337709 1.349004 -1.251998
v -0.352022 1.324415 -1.255485
v -0.356488 1.297048 -1.248225
v -0.349911 1.274235 -1.232165
v -0.292211 1.354659 -1.245125
v -0.294105 1.332435 -1.263128
v -0.301672 1.305284 -1.268337
v -0.312884 1.280480 -1.259356
v -0.324737 1.264670 -1.238591
v -0.305813 1.363421 -1.192168
v -0.317666 1.347611 -1.171404
v -0.349489 1.356591 -1.206135
v -0.374350 1.384125 -1.240103
v -0.373389 1.383506 -1.243845
v -0.341464 1.379885 -1.225835
v -0.375966 1.351949 -1.226126
v -0.338098 1.377717 -1.238941
v -0.370744 1.348585 -1.246456
v -0.350097 1.381126 -1.158292
v -0.357630 1.383252 -1.166513
v -0.338220 1.381312 -1.172740
v -0.352705 1.359100 -1.164622
v -0.341672 1.382287 -1.176508
v -0.356167 1.360077 -1.168401
vt 0.274240 0.539347
vt 0.265397 0.539709
vt 0.266768 0.532487
vt 0.231414 0.551290
vt 0.214659 0.541092
vt 0.231357 0.542861
vt 0.231940 0.569242
vt 0.215985 0.562822
vt 0.231472 0.559719
vt 0.230890 0.533338
vt 0.220414 0.530957
vt 0.213134 0.552274
vt 0.289666 0.544440
vt 0.282983 0.540904
vt 0.290637 0.536818
vt 0.279682 0.529141
vt 0.275518 0.536619
vt 0.273707 0.532162
vt 0.280945 0.538772
vt 0.286431 0.530872
vt 0.290637 0.551375
vt 0.284312 0.543753
vt 0.278488 0.537315
vt 0.276318 0.541045
vt 0.804698 0.251197
vt 0.792375 0.255919
vt 0.792638 0.252041
vt 0.786357 0.239035
vt 0.792578 0.249274
vt 0.791489 0.249454
vt 0.271776 0.541127
vt 0.760733 0.199751
vt 0.757502 0.209505
vt 0.750621 0.206121
vt 0.278108 0.542645
vt 0.273009 0.544115
vt 0.772804 0.201934
vt 0.766718 0.213101
vt 0.766203 0.208706
vt 0.264007 0.548518
vt 0.277612 0.547903
vt 0.268747 0.555467
vt 0.275021 0.546378
vt 0.280714 0.548498
vt 0.281954 0.545638
vt 0.276612 0.557409
vt 0.240880 0.530957
vt 0.248168 0.561486
vt 0.249693 0.550306
vt 0.246843 0.539760
vt 0.242415 0.571620
vt 0.762287 0.211045
vt 0.762255 0.210544
vt 0.761023 0.221925
vt 0.757316 0.212491
vt 0.750922 0.216572
vt 0.772804 0.220841
vt 0.791613 0.252007
vt 0.791097 0.255536
vt 0.780068 0.250772
vt 0.780487 0.263708
vt 0.804698 0.264828
vt 0.798786 0.238814
vt 0.221949 0.571626
vt 0.283377 0.553479
vn -0.3391 -0.9383 0.0681
vn 0.8079 -0.5117 0.2922
vn 0.9085 0.3817 0.1702
vn 0.4644 -0.8468 0.2594
vn 0.9613 -0.0875 0.2614
vn 0.4044 0.6016 0.6889
vn -0.0396 -0.6269 0.7781
vn 0.3117 0.1958 0.9298
vn 0.3391 0.9383 -0.0681
vn 0.1584 -0.2284 0.9606
vn -0.7261 -0.3944 0.5633
vn -0.9843 -0.0483 -0.1697
vn -0.7262 0.0712 0.6838
vn 0.4109 0.9003 -0.1437
vn -0.9085 -0.3817 -0.1702
vn 0.2717 0.4014 -0.8747
vn -0.9613 0.0875 -0.2614
vn -0.8053 -0.5825 -0.1105
vn -0.4044 -0.6016 -0.6889
vn -0.1584 0.2284 -0.9606
vn -0.3117 -0.1958 -0.9298
vn 0.0396 0.6269 -0.7781
vn 0.2820 -0.8341 -0.4741
vn 0.7262 -0.0712 -0.6838
vn 0.5729 -0.4954 -0.6530
vn 0.7261 0.3944 -0.5633
vn -0.9692 -0.0555 -0.2398
vn 0.1765 0.9774 -0.1164
vn -0.2197 0.6730 0.7063
vn 0.5458 0.8379 0.0016
vn -0.1659 0.0610 -0.9843
vn -0.5766 0.4972 0.6483
vn -0.7464 -0.1007 0.6578
vn 0.1388 0.9822 0.1268
vn 0.2557 0.2249 0.9402
vn -0.7165 -0.4375 0.5434
vn -0.4662 0.7255 -0.5062
vn 0.6896 0.4433 0.5726
vn -0.8214 0.5360 -0.1949
vn 0.1910 0.4084 -0.8926
vn -0.1409 0.6671 0.7315
vn -0.1638 0.2313 -0.9590
vn -0.6036 0.3430 0.7198
vn 0.0912 -0.2850 0.9542
vn -0.3135 0.7568 -0.5736
vn 0.6244 0.4073 0.6665
s off
f 59/66/50 69/67/50 47/68/50
f 45/69/51 51/70/51 46/71/51
f 43/72/52 49/73/52 44/74/52
f 47/75/53 51/70/53 52/76/53
f 44/74/54 50/77/54 45/69/54
f 48/78/55 71/79/55 49/80/55
f 51/81/56 55/82/56 52/83/56
f 49/80/57 53/84/57 50/85/57
f 43/86/58 70/87/58 48/78/58
f 50/85/59 54/88/59 51/81/59
f 55/82/60 58/89/60 59/66/60
f 72/90/61 84/91/61 80/92/61
f 53/84/62 58/89/62 54/88/62
f 70/93/63 83/94/63 81/95/63
f 58/89/64 64/96/64 59/66/64
f 61/97/65 77/98/65 60/99/65
f 57/100/66 63/101/66 58/89/66
f 62/102/67 76/103/67 78/104/67
f 64/96/68 68/105/68 69/67/68
f 61/106/69 67/107/69 62/108/69
f 43/86/58 60/109/58 56/110/58
f 62/108/70 68/105/70 63/101/70
f 60/109/71 66/111/71 61/106/71
f 69/112/72 46/71/72 47/75/72
f 66/113/73 45/69/73 67/114/73
f 67/114/74 46/71/74 68/115/74
f 65/116/75 44/74/75 66/113/75
f 55/82/50 47/68/50 52/83/50
f 73/117/76 78/104/76 76/103/76
f 73/117/77 77/98/77 74/118/77
f 72/119/78 75/120/78 73/117/78
f 60/99/79 75/120/79 56/121/79
f 61/97/80 78/104/80 74/118/80
f 72/119/81 76/103/81 57/122/81
f 79/123/82 84/91/82 82/124/82
f 79/123/83 83/94/83 80/92/83
f 71/125/84 82/124/84 53/126/84
f 53/126/85 84/91/85 57/127/85
f 72/90/86 83/94/86 56/128/86
f 71/125/87 81/95/87 79/123/87
f 59/66/50 64/96/50 69/67/50
f 45/69/51 50/77/51 51/70/51
f 43/72/52 48/129/52 49/73/52
f 47/75/53 46/71/53 51/70/53
f 44/74/54 49/73/54 50/77/54
f 48/78/55 70/87/55 71/79/55
f 51/81/56 54/88/56 55/82/56
f 49/80/57 71/79/57 53/84/57
f 43/86/58 56/110/58 70/87/58
f 50/85/59 53/84/59 54/88/59
f 55/82/60 54/88/60 58/89/60
f 72/90/88 57/127/88 84/91/88
f 53/84/62 57/100/62 58/89/62
f 70/93/63 56/128/63 83/94/63
f 58/89/64 63/101/64 64/96/64
f 61/97/89 74/118/89 77/98/89
f 57/100/66 62/108/66 63/101/66
f 62/102/67 57/122/67 76/103/67
f 64/96/68 63/101/68 68/105/68
f 61/106/69 66/111/69 67/107/69
f 43/86/58 65/130/58 60/109/58
f 62/108/70 67/107/70 68/105/70
f 60/109/71 65/130/71 66/111/71
f 69/112/72 68/115/72 46/71/72
f 66/113/73 44/74/73 45/69/73
f 67/114/74 45/69/74 46/71/74
f 65/116/75 43/72/75 44/74/75
f 55/82/50 59/66/50 47/68/50
f 73/117/76 74/118/76 78/104/76
f 73/117/77 75/120/77 77/98/77
f 72/119/90 56/121/90 75/120/90
f 60/99/79 77/98/79 75/120/79
f 61/97/91 62/102/91 78/104/91
f 72/119/92 73/117/92 76/103/92
f 79/123/82 80/92/82 84/91/82
f 79/123/83 81/95/83 83/94/83
f 71/125/93 79/123/93 82/124/93
f 53/126/85 82/124/85 84/91/85
f 72/90/94 80/92/94 83/94/94
f 71/125/95 70/93/95 81/95/95
