# Blender v2.81 (sub 16) OBJ File: 'garbage.blend'
# www.blender.org
v -0.261892 1.460014 0.662718
v -0.277849 1.438892 0.651724
v -0.282895 1.410912 0.648083
v -0.275679 1.383571 0.652771
v -0.258133 1.364195 0.664531
v -0.236985 1.460763 0.650650
v -0.234709 1.440189 0.630821
v -0.233081 1.412410 0.623947
v -0.232538 1.384868 0.631868
v -0.233226 1.364943 0.652463
v -0.187316 1.414794 0.655029
v -0.192904 1.386932 0.658786
v -0.210343 1.366135 0.668004
v -0.216127 1.462398 0.693800
v -0.191365 1.415680 0.710248
v -0.196411 1.387700 0.706607
v -0.212368 1.366578 0.695613
v -0.241034 1.461649 0.705868
v -0.241722 1.441724 0.726463
v -0.241179 1.414182 0.734384
v -0.239551 1.386403 0.727510
v -0.237275 1.365830 0.707681
v -0.263917 1.460457 0.690327
v -0.281356 1.439660 0.699545
v -0.286944 1.411798 0.703302
v -0.279185 1.384338 0.700592
v -0.260157 1.364638 0.692140
v -0.214103 1.461955 0.666191
v -0.195075 1.442254 0.657739
v -0.198581 1.443021 0.705560
v -0.201463 1.463512 0.751405
v -0.204983 1.463406 0.753111
v -0.212622 1.468639 0.717461
v -0.197813 1.431664 0.737065
v -0.224951 1.468269 0.723434
v -0.216937 1.431089 0.746331
v -0.156950 1.463717 0.678544
v -0.157780 1.463899 0.689863
v -0.175063 1.468221 0.679768
v -0.165262 1.442287 0.680475
v -0.175443 1.468305 0.684956
v -0.165644 1.442371 0.685677
vt 0.274240 0.539347
vt 0.265397 0.539709
vt 0.266768 0.532487
vt 0.231414 0.551290
vt 0.214659 0.541092
vt 0.231357 0.542861
vt 0.231940 0.569242
vt 0.215985 0.562822
vt 0.231472 0.559719
vt 0.230890 0.533338
vt 0.220414 0.530957
vt 0.213134 0.552274
vt 0.289666 0.544440
vt 0.282983 0.540904
vt 0.290637 0.536818
vt 0.279682 0.529141
vt 0.275518 0.536619
vt 0.273707 0.532162
vt 0.280945 0.538772
vt 0.286431 0.530872
vt 0.290637 0.551375
vt 0.284312 0.543753
vt 0.278488 0.537315
vt 0.276318 0.541045
vt 0.804698 0.251197
vt 0.792375 0.255919
vt 0.792638 0.252041
vt 0.786357 0.239035
vt 0.792578 0.249274
vt 0.791489 0.249454
vt 0.271776 0.541127
vt 0.760733 0.199751
vt 0.757502 0.209505
vt 0.750621 0.206121
vt 0.278108 0.542645
vt 0.273009 0.544115
vt 0.772804 0.201934
vt 0.766718 0.213101
vt 0.766203 0.208706
vt 0.264007 0.548518
vt 0.277612 0.547903
vt 0.268747 0.555467
vt 0.275021 0.546378
vt 0.280714 0.548498
vt 0.281954 0.545638
vt 0.276612 0.557409
vt 0.240880 0.530957
vt 0.248168 0.561486
vt 0.249693 0.550306
vt 0.246843 0.539760
vt 0.242415 0.571620
vt 0.762287 0.211045
vt 0.762255 0.210544
vt 0.761023 0.221925
vt 0.757316 0.212491
vt 0.750922 0.216572
vt 0.772804 0.220841
vt 0.791613 0.252007
vt 0.791097 0.255536
vt 0.780068 0.250772
vt 0.780487 0.263708
vt 0.804698 0.264828
vt 0.798786 0.238814
vt 0.221949 0.571626
vt 0.283377 0.553479
vn 0.0392 -0.9991 0.0189
vn -0.4148 -0.2590 -0.8722
vn -0.3545 0.6283 -0.6926
vn -0.3031 -0.6798 -0.6678
vn -0.4326 0.1926 -0.8808
vn 0.3989 0.6588 -0.6378
vn 0.4502 -0.6492 -0.6131
vn 0.5382 0.2320 -0.8102
vn -0.0392 0.9991 -0.0189
vn 0.5559 -0.2196 -0.8017
vn 0.7790 -0.6234 0.0671
vn 0.4823 -0.3337 0.8100
vn 0.9796 -0.1864 0.0748
vn -0.1493 0.9884 -0.0268
vn 0.3545 -0.6283 0.6926
vn -0.7216 0.5094 0.4688
vn 0.4326 -0.1926 0.8808
vn 0.2856 -0.7914 0.5404
vn -0.3989 -0.6589 0.6378
vn -0.5559 0.2196 0.8017
vn -0.5382 -0.2320 0.8102
vn -0.4502 0.6492 0.6131
vn -0.7277 -0.6846 -0.0424
vn -0.9796 0.1864 -0.0748
vn -0.9619 -0.2653 -0.0663
vn -0.7790 0.6234 -0.0671
vn 0.4193 -0.3323 0.8448
vn 0.0368 0.9898 0.1375
vn 0.8216 0.5380 -0.1888
vn -0.1417 0.9621 -0.2328
vn -0.6088 0.0592 0.7911
vn 0.9612 0.2661 0.0725
vn 0.9320 -0.3548 0.0740
vn 0.2415 0.9704 0.0021
vn 0.5881 0.2423 -0.7716
vn 0.7479 -0.6605 0.0654
vn 0.0927 0.5766 0.8117
vn 0.0956 0.6001 -0.7942
vn 0.3989 0.6589 -0.6378
vn 0.5011 0.2731 0.8212
vn -0.6824 0.4928 0.5399
vn 0.0368 0.9898 0.1374
vn 0.7892 0.5548 -0.2633
vn -0.5506 0.2207 0.8050
vn 0.9941 0.1074 0.0145
vn 0.5799 -0.2934 -0.7600
vn 0.7479 -0.6605 0.0655
vn -0.0457 0.6559 0.7535
vn 0.1974 0.5413 -0.8174
s off
f 17/1/1 27/2/1 5/3/1
f 3/4/2 9/5/2 4/6/2
f 1/7/3 7/8/3 2/9/3
f 5/10/4 9/5/4 10/11/4
f 2/9/5 8/12/5 3/4/5
f 6/13/6 29/14/6 7/15/6
f 9/16/7 13/17/7 10/18/7
f 7/15/8 11/19/8 8/20/8
f 1/21/9 28/22/9 6/13/9
f 8/20/10 12/23/10 9/16/10
f 13/17/11 16/24/11 17/1/11
f 30/25/12 42/26/12 38/27/12
f 11/19/13 16/24/13 12/23/13
f 28/28/14 41/29/14 39/30/14
f 16/24/15 22/31/15 17/1/15
f 19/32/16 35/33/16 18/34/16
f 15/35/17 21/36/17 16/24/17
f 20/37/18 34/38/18 36/39/18
f 22/31/19 26/40/19 27/2/19
f 19/41/20 25/42/20 20/43/20
f 1/21/9 18/44/9 14/45/9
f 20/43/21 26/40/21 21/36/21
f 18/44/22 24/46/22 19/41/22
f 27/47/23 4/6/23 5/10/23
f 24/48/24 3/4/24 25/49/24
f 25/49/25 4/6/25 26/50/25
f 23/51/26 2/9/26 24/48/26
f 13/17/1 5/3/1 10/18/1
f 31/52/27 36/39/27 34/38/27
f 31/52/28 35/33/28 32/53/28
f 30/54/29 33/55/29 31/52/29
f 18/34/30 33/55/30 14/56/30
f 19/32/31 36/39/31 32/53/31
f 30/54/32 34/38/32 15/57/32
f 37/58/33 42/26/33 40/59/33
f 37/58/34 41/29/34 38/27/34
f 29/60/35 40/59/35 11/61/35
f 11/61/36 42/26/36 15/62/36
f 30/25/37 41/29/37 14/63/37
f 29/60/38 39/30/38 37/58/38
f 17/1/1 22/31/1 27/2/1
f 3/4/2 8/12/2 9/5/2
f 1/7/3 6/64/3 7/8/3
f 5/10/4 4/6/4 9/5/4
f 2/9/5 7/8/5 8/12/5
f 6/13/39 28/22/39 29/14/39
f 9/16/7 12/23/7 13/17/7
f 7/15/8 29/14/8 11/19/8
f 1/21/9 14/45/9 28/22/9
f 8/20/10 11/19/10 12/23/10
f 13/17/11 12/23/11 16/24/11
f 30/25/40 15/62/40 42/26/40
f 11/19/13 15/35/13 16/24/13
f 28/28/14 14/63/14 41/29/14
f 16/24/15 21/36/15 22/31/15
f 19/32/41 32/53/41 35/33/41
f 15/35/17 20/43/17 21/36/17
f 20/37/18 15/57/18 34/38/18
f 22/31/19 21/36/19 26/40/19
f 19/41/20 24/46/20 25/42/20
f 1/21/9 23/65/9 18/44/9
f 20/43/21 25/42/21 26/40/21
f 18/44/22 23/65/22 24/46/22
f 27/47/23 26/50/23 4/6/23
f 24/48/24 2/9/24 3/4/24
f 25/49/25 3/4/25 4/6/25
f 23/51/26 1/7/26 2/9/26
f 13/17/1 17/1/1 5/3/1
f 31/52/27 32/53/27 36/39/27
f 31/52/42 33/55/42 35/33/42
f 30/54/43 14/56/43 33/55/43
f 18/34/30 35/33/30 33/55/30
f 19/32/44 20/37/44 36/39/44
f 30/54/45 31/52/45 34/38/45
f 37/58/33 38/27/33 42/26/33
f 37/58/34 39/30/34 41/29/34
f 29/60/46 37/58/46 40/59/46
f 11/61/47 40/59/47 42/26/47
f 30/25/48 38/27/48 41/29/48
f 29/60/49 28/28/49 39/30/49
v -0.508031 1.454620 -0.988989
v -0.494015 1.431746 -0.999087
v -0.492257 1.403389 -1.002876
v -0.503229 1.377145 -0.999342
v -0.523991 1.360048 -0.989431
v -0.508253 1.454528 -0.961303
v -0.494400 1.431587 -0.951134
v -0.492702 1.403205 -0.947505
v -0.503615 1.376986 -0.951389
v -0.524213 1.359956 -0.961745
v -0.540209 1.411095 -0.920172
v -0.544757 1.383819 -0.927718
v -0.547967 1.363901 -0.948079
v -0.555538 1.462509 -0.961657
v -0.587272 1.419168 -0.948211
v -0.585514 1.390810 -0.952001
v -0.571498 1.367937 -0.962099
v -0.555316 1.462601 -0.989342
v -0.575915 1.445571 -0.999699
v -0.586827 1.419352 -1.003583
v -0.585129 1.390970 -0.999954
v -0.571276 1.368029 -0.989785
v -0.531562 1.458656 -1.003009
v -0.534772 1.438738 -1.023370
v -0.539320 1.411462 -1.030915
v -0.543987 1.384137 -1.023625
v -0.547522 1.364084 -1.003451
v -0.532007 1.458472 -0.947637
v -0.535543 1.438420 -0.927463
v -0.576300 1.445411 -0.951746
v -0.612970 1.471700 -0.973975
v -0.612939 1.471713 -0.977888
v -0.577248 1.471937 -0.968791
v -0.606085 1.438360 -0.965357
v -0.577137 1.471983 -0.982495
v -0.605914 1.438430 -0.986615
v -0.568027 1.463614 -0.901830
v -0.577674 1.465269 -0.907577
v -0.560499 1.467682 -0.918463
v -0.568898 1.442384 -0.910807
v -0.564920 1.468440 -0.921097
v -0.573332 1.443145 -0.913448
vt 0.274240 0.539347
vt 0.265397 0.539709
vt 0.266768 0.532487
vt 0.231414 0.551290
vt 0.214659 0.541092
vt 0.231357 0.542861
vt 0.231940 0.569242
vt 0.215985 0.562822
vt 0.231472 0.559719
vt 0.230890 0.533338
vt 0.220414 0.530957
vt 0.213134 0.552274
vt 0.289666 0.544440
vt 0.282983 0.540904
vt 0.290637 0.536818
vt 0.279682 0.529141
vt 0.275518 0.536619
vt 0.273707 0.532162
vt 0.280945 0.538772
vt 0.286431 0.530872
vt 0.290637 0.551375
vt 0.284312 0.543753
vt 0.278488 0.537315
vt 0.276318 0.541045
vt 0.804698 0.251197
vt 0.792375 0.255919
vt 0.792638 0.252041
vt 0.786357 0.239035
vt 0.792578 0.249274
vt 0.791489 0.249454
vt 0.271776 0.541127
vt 0.760733 0.199751
vt 0.757502 0.209505
vt 0.750621 0.206121
vt 0.278108 0.542645
vt 0.273009 0.544115
vt 0.772804 0.201934
vt 0.766718 0.213101
vt 0.766203 0.208706
vt 0.264007 0.548518
vt 0.277612 0.547903
vt 0.268747 0.555467
vt 0.275021 0.546378
vt 0.280714 0.548498
vt 0.281954 0.545638
vt 0.276612 0.557409
vt 0.240880 0.530957
vt 0.248168 0.561486
vt 0.249693 0.550306
vt 0.246843 0.539760
vt 0.242415 0.571620
vt 0.762287 0.211045
vt 0.762255 0.210544
vt 0.761023 0.221925
vt 0.757316 0.212491
vt 0.750922 0.216572
vt 0.772804 0.220841
vt 0.791613 0.252007
vt 0.791097 0.255536
vt 0.780068 0.250772
vt 0.780487 0.263708
vt 0.804698 0.264828
vt 0.798786 0.238814
vt 0.221949 0.571626
vt 0.283377 0.553479
vn -0.1664 -0.9860 -0.0046
vn 0.9229 -0.3850 0.0061
vn 0.8543 0.5197 0.0086
vn 0.6364 -0.7713 0.0026
vn 0.9981 0.0608 0.0082
vn 0.4764 0.5804 0.6604
vn 0.2585 -0.7106 0.6544
vn 0.5111 0.1390 0.8482
vn 0.1664 0.9860 0.0046
vn 0.4359 -0.3068 0.8461
vn -0.4869 -0.5848 0.6488
vn -0.9760 -0.2084 0.0633
vn -0.5246 -0.1446 0.8389
vn 0.2208 0.9711 -0.0909
vn -0.8543 -0.5197 -0.0086
vn -0.0288 0.5446 -0.8382
vn -0.9981 -0.0608 -0.0082
vn -0.7105 -0.7037 -0.0080
vn -0.4764 -0.5804 -0.6604
vn -0.4359 0.3068 -0.8461
vn -0.5111 -0.1390 -0.8482
vn -0.2585 0.7106 -0.6544
vn 0.2690 -0.7063 -0.6549
vn 0.5246 0.1446 -0.8389
vn 0.4494 -0.3012 -0.8410
vn 0.4869 0.5848 -0.6488
vn -0.9789 -0.2044 -0.0085
vn -0.0071 1.0000 0.0032
vn -0.1250 0.5332 0.8367
vn 0.3966 0.9180 0.0062
vn -0.4243 0.1448 -0.8939
vn -0.4545 0.3028 0.8377
vn -0.5252 -0.3131 0.7913
vn 0.0197 0.9691 0.2459
vn 0.4561 0.1559 0.8762
vn -0.4766 -0.6227 0.6206
vn -0.6846 0.6817 -0.2580
vn 0.7415 0.4922 0.4560
vn -0.9139 0.3948 0.0942
vn -0.1115 0.5388 -0.8351
vn -0.0071 1.0000 0.0033
vn -0.0424 0.5390 0.8412
vn -0.4410 0.3084 -0.8428
vn -0.4386 0.1389 0.8879
vn 0.3785 -0.3736 0.8469
vn -0.4765 -0.6227 0.6206
vn -0.5612 0.7483 -0.3539
vn 0.7092 0.4339 0.5556
s off
f 59/66/50 69/67/50 47/68/50
f 45/69/51 51/70/51 46/71/51
f 43/72/52 49/73/52 44/74/52
f 47/75/53 51/70/53 52/76/53
f 44/74/54 50/77/54 45/69/54
f 48/78/55 71/79/55 49/80/55
f 51/81/56 55/82/56 52/83/56
f 49/80/57 53/84/57 50/85/57
f 43/86/58 70/87/58 48/78/58
f 50/85/59 54/88/59 51/81/59
f 55/82/60 58/89/60 59/66/60
f 72/90/61 84/91/61 80/92/61
f 53/84/62 58/89/62 54/88/62
f 70/93/63 83/94/63 81/95/63
f 58/89/64 64/96/64 59/66/64
f 61/97/65 77/98/65 60/99/65
f 57/100/66 63/101/66 58/89/66
f 62/102/67 76/103/67 78/104/67
f 64/96/68 68/105/68 69/67/68
f 61/106/69 67/107/69 62/108/69
f 43/86/58 60/109/58 56/110/58
f 62/108/70 68/105/70 63/101/70
f 60/109/71 66/111/71 61/106/71
f 69/112/72 46/71/72 47/75/72
f 66/113/73 45/69/73 67/114/73
f 67/114/74 46/71/74 68/115/74
f 65/116/75 44/74/75 66/113/75
f 55/82/50 47/68/50 52/83/50
f 73/117/76 78/104/76 76/103/76
f 73/117/77 77/98/77 74/118/77
f 72/119/78 75/120/78 73/117/78
f 60/99/79 75/120/79 56/121/79
f 61/97/80 78/104/80 74/118/80
f 72/119/81 76/103/81 57/122/81
f 79/123/82 84/91/82 82/124/82
f 79/123/83 83/94/83 80/92/83
f 71/125/84 82/124/84 53/126/84
f 53/126/85 84/91/85 57/127/85
f 72/90/86 83/94/86 56/128/86
f 71/125/87 81/95/87 79/123/87
f 59/66/50 64/96/50 69/67/50
f 45/69/51 50/77/51 51/70/51
f 43/72/52 48/129/52 49/73/52
f 47/75/53 46/71/53 51/70/53
f 44/74/54 49/73/54 50/77/54
f 48/78/55 70/87/55 71/79/55
f 51/81/56 54/88/56 55/82/56
f 49/80/57 71/79/57 53/84/57
f 43/86/58 56/110/58 70/87/58
f 50/85/59 53/84/59 54/88/59
f 55/82/60 54/88/60 58/89/60
f 72/90/88 57/127/88 84/91/88
f 53/84/62 57/100/62 58/89/62
f 70/93/63 56/128/63 83/94/63
f 58/89/64 63/101/64 64/96/64
f 61/97/89 74/118/89 77/98/89
f 57/100/66 62/108/66 63/101/66
f 62/102/67 57/122/67 76/103/67
f 64/96/68 63/101/68 68/105/68
f 61/106/69 66/111/69 67/107/69
f 43/86/58 65/130/58 60/109/58
f 62/108/70 67/107/70 68/105/70
f 60/109/71 65/130/71 66/111/71
f 69/112/72 68/115/72 46/71/72
f 66/113/73 44/74/73 45/69/73
f 67/114/74 45/69/74 46/71/74
f 65/116/75 43/72/75 44/74/75
f 55/82/50 59/66/50 47/68/50
f 73/117/76 74/118/76 78/104/76
f 73/117/90 75/120/90 77/98/90
f 72/119/91 56/121/91 75/120/91
f 60/99/79 77/98/79 75/120/79
f 61/97/92 62/102/92 78/104/92
f 72/119/93 73/117/93 76/103/93
f 79/123/82 80/92/82 84/91/82
f 79/123/83 81/95/83 83/94/83
f 71/125/94 79/123/94 82/124/94
f 53/126/95 82/124/95 84/91/95
f 72/90/96 80/92/96 83/94/96
f 71/125/97 70/93/97 81/95/97
