# Blender v2.81 (sub 16) OBJ File: 'garbage.blend'
# www.blender.org
v 0.141786 1.407084 0.176604
v 0.133660 1.390958 0.198864
v 0.126716 1.365370 0.209757
v 0.122814 1.337177 0.206363
v 0.123000 1.313933 0.189593
v 0.121631 1.408509 0.157675
v 0.098751 1.393427 0.166078
v 0.086406 1.368221 0.171899
v 0.087905 1.339646 0.173577
v 0.102845 1.315358 0.170663
v 0.097760 1.358496 0.118581
v 0.097738 1.331224 0.127403
v 0.108522 1.310495 0.144005
v 0.153140 1.397359 0.123286
v 0.149424 1.345921 0.103122
v 0.142480 1.320334 0.114014
v 0.134354 1.304208 0.136275
v 0.173295 1.395934 0.142215
v 0.188235 1.371646 0.139302
v 0.189734 1.343071 0.140980
v 0.177389 1.317865 0.146801
v 0.154509 1.302783 0.155204
v 0.167618 1.400796 0.168874
v 0.178402 1.380068 0.185476
v 0.178380 1.352795 0.194298
v 0.167556 1.326287 0.192975
v 0.148832 1.307645 0.181863
v 0.127308 1.403647 0.131016
v 0.108584 1.385005 0.119904
v 0.153326 1.374115 0.106515
v 0.199959 1.382669 0.089717
v 0.202807 1.382468 0.092392
v 0.174466 1.397134 0.110787
v 0.179290 1.355221 0.096973
v 0.184443 1.396429 0.120157
v 0.194764 1.354126 0.111506
v 0.117302 1.396948 0.073769
v 0.127892 1.394370 0.070600
v 0.126128 1.402666 0.089238
v 0.117930 1.376584 0.084584
v 0.130981 1.401484 0.087786
v 0.122797 1.375399 0.083128
vt 0.274240 0.539347
vt 0.265397 0.539709
vt 0.266768 0.532487
vt 0.231414 0.551290
vt 0.214659 0.541092
vt 0.231357 0.542861
vt 0.231940 0.569242
vt 0.215985 0.562822
vt 0.231472 0.559719
vt 0.230890 0.533338
vt 0.220414 0.530957
vt 0.213134 0.552274
vt 0.289666 0.544440
vt 0.282983 0.540904
vt 0.290637 0.536818
vt 0.279682 0.529141
vt 0.275518 0.536619
vt 0.273707 0.532162
vt 0.280945 0.538772
vt 0.286431 0.530872
vt 0.290637 0.551375
vt 0.284312 0.543753
vt 0.278488 0.537315
vt 0.276318 0.541045
vt 0.804698 0.251197
vt 0.792375 0.255919
vt 0.792638 0.252041
vt 0.786357 0.239035
vt 0.792578 0.249274
vt 0.791489 0.249454
vt 0.271776 0.541127
vt 0.760733 0.199751
vt 0.757502 0.209505
vt 0.750621 0.206121
vt 0.278108 0.542645
vt 0.273009 0.544115
vt 0.772804 0.201934
vt 0.766718 0.213101
vt 0.766203 0.208706
vt 0.264007 0.548518
vt 0.277612 0.547903
vt 0.268747 0.555467
vt 0.275021 0.546378
vt 0.280714 0.548498
vt 0.281954 0.545638
vt 0.276612 0.557409
vt 0.240880 0.530957
vt 0.248168 0.561486
vt 0.249693 0.550306
vt 0.246843 0.539760
vt 0.242415 0.571620
vt 0.762287 0.211045
vt 0.762255 0.210544
vt 0.761023 0.221925
vt 0.757316 0.212491
vt 0.750922 0.216572
vt 0.772804 0.220841
vt 0.791613 0.252007
vt 0.791097 0.255536
vt 0.780068 0.250772
vt 0.780487 0.263708
vt 0.804698 0.264828
vt 0.798786 0.238814
vt 0.221949 0.571626
vt 0.283377 0.553479
vn -0.1959 -0.9712 0.1354
vn -0.6843 0.0069 0.7292
vn -0.3685 0.8116 0.4534
vn -0.6249 -0.4601 0.6307
vn -0.5958 0.4460 0.6679
vn -0.5967 0.7574 -0.2652
vn -0.8531 -0.5142 -0.0879
vn -0.8899 0.3762 -0.2581
vn 0.1959 0.9712 -0.1354
vn -0.9784 -0.0629 -0.1969
vn -0.3564 -0.6900 -0.6300
vn 0.4849 -0.5689 -0.6642
vn -0.3384 -0.2894 -0.8954
vn 0.2281 0.9732 -0.0293
vn 0.3685 -0.8116 -0.4534
vn 0.7971 0.4408 0.4127
vn 0.5958 -0.4460 -0.6679
vn 0.2243 -0.9244 -0.3084
vn 0.5967 -0.7574 0.2652
vn 0.9784 0.0629 0.1969
vn 0.8899 -0.3762 0.2581
vn 0.8531 0.5142 0.0879
vn 0.1000 -0.5816 0.8073
vn 0.3384 0.2894 0.8954
vn 0.2498 -0.1497 0.9566
vn 0.3564 0.6900 0.6300
vn 0.5405 -0.5705 -0.6184
vn 0.3069 0.9162 -0.2577
vn -0.3736 0.4894 -0.7880
vn 0.0336 0.9987 0.0394
vn 0.9569 -0.0842 0.2778
vn -0.2437 0.1491 -0.9583
vn -0.3546 -0.4471 -0.8212
vn 0.1035 0.9123 -0.3963
vn -0.8717 0.3718 -0.3193
vn -0.3536 -0.7224 -0.5942
vn 0.8139 0.3442 -0.4680
vn -0.6356 0.7680 0.0787
vn -0.6843 0.0069 0.7291
vn 0.6084 0.0113 -0.7936
vn 0.8434 0.4033 0.3550
vn 0.3068 0.9162 -0.2577
vn -0.4255 0.5273 -0.7355
vn 0.9797 0.0626 0.1907
vn -0.3401 0.0076 -0.9404
vn 0.1035 0.9123 -0.3962
vn -0.9644 -0.1467 -0.2202
vn 0.8291 0.4480 -0.3345
vn -0.7065 0.7077 0.0033
s off
f 17/1/1 27/2/1 5/3/1
f 3/4/2 9/5/2 4/6/2
f 1/7/3 7/8/3 2/9/3
f 5/10/4 9/5/4 10/11/4
f 2/9/5 8/12/5 3/4/5
f 6/13/6 29/14/6 7/15/6
f 9/16/7 13/17/7 10/18/7
f 7/15/8 11/19/8 8/20/8
f 1/21/9 28/22/9 6/13/9
f 8/20/10 12/23/10 9/16/10
f 13/17/11 16/24/11 17/1/11
f 30/25/12 42/26/12 38/27/12
f 11/19/13 16/24/13 12/23/13
f 28/28/14 41/29/14 39/30/14
f 16/24/15 22/31/15 17/1/15
f 19/32/16 35/33/16 18/34/16
f 15/35/17 21/36/17 16/24/17
f 20/37/18 34/38/18 36/39/18
f 22/31/19 26/40/19 27/2/19
f 19/41/20 25/42/20 20/43/20
f 1/21/9 18/44/9 14/45/9
f 20/43/21 26/40/21 21/36/21
f 18/44/22 24/46/22 19/41/22
f 27/47/23 4/6/23 5/10/23
f 24/48/24 3/4/24 25/49/24
f 25/49/25 4/6/25 26/50/25
f 23/51/26 2/9/26 24/48/26
f 13/17/1 5/3/1 10/18/1
f 31/52/27 36/39/27 34/38/27
f 31/52/28 35/33/28 32/53/28
f 30/54/29 33/55/29 31/52/29
f 18/34/30 33/55/30 14/56/30
f 19/32/31 36/39/31 32/53/31
f 30/54/32 34/38/32 15/57/32
f 37/58/33 42/26/33 40/59/33
f 37/58/34 41/29/34 38/27/34
f 29/60/35 40/59/35 11/61/35
f 11/61/36 42/26/36 15/62/36
f 30/25/37 41/29/37 14/63/37
f 29/60/38 39/30/38 37/58/38
f 17/1/1 22/31/1 27/2/1
f 3/4/39 8/12/39 9/5/39
f 1/7/3 6/64/3 7/8/3
f 5/10/4 4/6/4 9/5/4
f 2/9/5 7/8/5 8/12/5
f 6/13/6 28/22/6 29/14/6
f 9/16/7 12/23/7 13/17/7
f 7/15/8 29/14/8 11/19/8
f 1/21/9 14/45/9 28/22/9
f 8/20/10 11/19/10 12/23/10
f 13/17/11 12/23/11 16/24/11
f 30/25/40 15/62/40 42/26/40
f 11/19/13 15/35/13 16/24/13
f 28/28/14 14/63/14 41/29/14
f 16/24/15 21/36/15 22/31/15
f 19/32/41 32/53/41 35/33/41
f 15/35/17 20/43/17 21/36/17
f 20/37/18 15/57/18 34/38/18
f 22/31/19 21/36/19 26/40/19
f 19/41/20 24/46/20 25/42/20
f 1/21/9 23/65/9 18/44/9
f 20/43/21 25/42/21 26/40/21
f 18/44/22 23/65/22 24/46/22
f 27/47/23 26/50/23 4/6/23
f 24/48/24 2/9/24 3/4/24
f 25/49/25 3/4/25 4/6/25
f 23/51/26 1/7/26 2/9/26
f 13/17/1 17/1/1 5/3/1
f 31/52/27 32/53/27 36/39/27
f 31/52/42 33/55/42 35/33/42
f 30/54/43 14/56/43 33/55/43
f 18/34/30 35/33/30 33/55/30
f 19/32/44 20/37/44 36/39/44
f 30/54/45 31/52/45 34/38/45
f 37/58/33 38/27/33 42/26/33
f 37/58/46 39/30/46 41/29/46
f 29/60/47 37/58/47 40/59/47
f 11/61/36 40/59/36 42/26/36
f 30/25/48 38/27/48 41/29/48
f 29/60/49 28/28/49 39/30/49
v -0.872282 1.037518 0.070733
v -0.873948 1.014907 0.053196
v -0.871130 0.986744 0.048667
v -0.864582 0.960576 0.058361
v -0.856058 0.943414 0.079678
v -0.845951 1.042705 0.077542
v -0.828343 1.023890 0.064990
v -0.818469 0.997117 0.062286
v -0.818976 0.969559 0.070155
v -0.829728 0.948601 0.086488
v -0.804549 1.004562 0.115362
v -0.806921 0.976007 0.116120
v -0.822768 0.952324 0.113026
v -0.858362 1.044963 0.123808
v -0.843290 1.001634 0.154819
v -0.840471 0.973471 0.150291
v -0.842138 0.950860 0.132754
v -0.884692 1.039777 0.116999
v -0.895444 1.018818 0.133331
v -0.895951 0.991261 0.141200
v -0.886077 0.964488 0.138496
v -0.868468 0.945673 0.125944
v -0.891652 1.036054 0.090461
v -0.907499 1.012371 0.087366
v -0.909871 0.983815 0.088124
v -0.898132 0.958040 0.092531
v -0.875429 0.941950 0.099406
v -0.838991 1.046427 0.104080
v -0.816288 1.030338 0.110955
v -0.849838 1.027802 0.145126
v -0.884648 1.044939 0.177135
v -0.888369 1.044207 0.176172
v -0.871925 1.050283 0.143779
v -0.867830 1.014887 0.170259
v -0.884959 1.047716 0.140408
v -0.888047 1.010905 0.165030
v -0.804376 1.056057 0.150245
v -0.812317 1.055457 0.158333
v -0.819427 1.057705 0.139262
v -0.808591 1.033545 0.147509
v -0.823066 1.057430 0.142969
v -0.812241 1.033269 0.151227
vt 0.274240 0.539347
vt 0.265397 0.539709
vt 0.266768 0.532487
vt 0.231414 0.551290
vt 0.214659 0.541092
vt 0.231357 0.542861
vt 0.231940 0.569242
vt 0.215985 0.562822
vt 0.231472 0.559719
vt 0.230890 0.533338
vt 0.220414 0.530957
vt 0.213134 0.552274
vt 0.289666 0.544440
vt 0.282983 0.540904
vt 0.290637 0.536818
vt 0.279682 0.529141
vt 0.275518 0.536619
vt 0.273707 0.532162
vt 0.280945 0.538772
vt 0.286431 0.530872
vt 0.290637 0.551375
vt 0.284312 0.543753
vt 0.278488 0.537315
vt 0.276318 0.541045
vt 0.804698 0.251197
vt 0.792375 0.255919
vt 0.792638 0.252041
vt 0.786357 0.239035
vt 0.792578 0.249274
vt 0.791489 0.249454
vt 0.271776 0.541127
vt 0.760733 0.199751
vt 0.757502 0.209505
vt 0.750621 0.206121
vt 0.278108 0.542645
vt 0.273009 0.544115
vt 0.772804 0.201934
vt 0.766718 0.213101
vt 0.766203 0.208706
vt 0.264007 0.548518
vt 0.277612 0.547903
vt 0.268747 0.555467
vt 0.275021 0.546378
vt 0.280714 0.548498
vt 0.281954 0.545638
vt 0.276612 0.557409
vt 0.240880 0.530957
vt 0.248168 0.561486
vt 0.249693 0.550306
vt 0.246843 0.539760
vt 0.242415 0.571620
vt 0.762287 0.211045
vt 0.762255 0.210544
vt 0.761023 0.221925
vt 0.757316 0.212491
vt 0.750922 0.216572
vt 0.772804 0.220841
vt 0.791613 0.252007
vt 0.791097 0.255536
vt 0.780068 0.250772
vt 0.780487 0.263708
vt 0.804698 0.264828
vt 0.798786 0.238814
vt 0.221949 0.571626
vt 0.283377 0.553479
vn 0.1692 -0.9812 0.0933
vn 0.2903 -0.2677 -0.9187
vn 0.0849 0.6067 -0.7904
vn 0.3064 -0.6779 -0.6682
vn 0.2139 0.1759 -0.9609
vn 0.6097 0.7472 -0.2647
vn 0.8311 -0.5375 -0.1426
vn 0.8901 0.3569 -0.2835
vn -0.1692 0.9812 -0.0933
vn 0.9666 -0.0867 -0.2413
vn 0.6355 -0.5019 0.5867
vn -0.1095 -0.3035 0.9465
vn 0.7145 -0.0408 0.6985
vn -0.2450 0.9546 -0.1697
vn -0.0849 -0.6067 0.7904
vn -0.9204 0.3670 -0.1349
vn -0.2139 -0.1759 0.9609
vn -0.0136 -0.7693 0.6387
vn -0.6097 -0.7472 0.2647
vn -0.9666 0.0867 0.2413
vn -0.8901 -0.3569 0.2835
vn -0.8311 0.5375 0.1426
vn -0.4140 -0.7828 -0.4646
vn -0.7145 0.0408 -0.6985
vn -0.6380 -0.4028 -0.6563
vn -0.6355 0.5019 -0.5867
vn -0.1793 -0.3137 0.9324
vn -0.2115 0.9745 0.0755
vn 0.6556 0.6655 0.3567
vn -0.1026 0.9417 -0.3205
vn -0.9750 -0.0790 0.2078
vn 0.6333 0.4032 0.6606
vn 0.7049 -0.2142 0.6762
vn 0.0320 0.9939 0.1052
vn 0.9011 0.3723 -0.2224
vn 0.6190 -0.5431 0.5674
vn -0.5411 0.5361 0.6479
vn 0.4920 0.6525 -0.5763
vn 0.3064 -0.6779 -0.6683
vn -0.1949 0.2974 0.9346
vn -0.9343 0.3523 -0.0545
vn -0.1794 -0.3137 0.9324
vn -0.2115 0.9745 0.0754
vn 0.6768 0.6816 0.2781
vn -0.9649 0.0883 0.2472
vn 0.7195 0.2548 0.6460
vn 0.9689 -0.1583 -0.1901
vn -0.6194 0.5968 0.5100
vn 0.5922 0.6112 -0.5252
s off
f 59/66/50 69/67/50 47/68/50
f 45/69/51 51/70/51 46/71/51
f 43/72/52 49/73/52 44/74/52
f 47/75/53 51/70/53 52/76/53
f 44/74/54 50/77/54 45/69/54
f 48/78/55 71/79/55 49/80/55
f 51/81/56 55/82/56 52/83/56
f 49/80/57 53/84/57 50/85/57
f 43/86/58 70/87/58 48/78/58
f 50/85/59 54/88/59 51/81/59
f 55/82/60 58/89/60 59/66/60
f 72/90/61 84/91/61 80/92/61
f 53/84/62 58/89/62 54/88/62
f 70/93/63 83/94/63 81/95/63
f 58/89/64 64/96/64 59/66/64
f 61/97/65 77/98/65 60/99/65
f 57/100/66 63/101/66 58/89/66
f 62/102/67 76/103/67 78/104/67
f 64/96/68 68/105/68 69/67/68
f 61/106/69 67/107/69 62/108/69
f 43/86/58 60/109/58 56/110/58
f 62/108/70 68/105/70 63/101/70
f 60/109/71 66/111/71 61/106/71
f 69/112/72 46/71/72 47/75/72
f 66/113/73 45/69/73 67/114/73
f 67/114/74 46/71/74 68/115/74
f 65/116/75 44/74/75 66/113/75
f 55/82/50 47/68/50 52/83/50
f 73/117/76 78/104/76 76/103/76
f 73/117/77 77/98/77 74/118/77
f 72/119/78 75/120/78 73/117/78
f 60/99/79 75/120/79 56/121/79
f 61/97/80 78/104/80 74/118/80
f 72/119/81 76/103/81 57/122/81
f 79/123/82 84/91/82 82/124/82
f 79/123/83 83/94/83 80/92/83
f 71/125/84 82/124/84 53/126/84
f 53/126/85 84/91/85 57/127/85
f 72/90/86 83/94/86 56/128/86
f 71/125/87 81/95/87 79/123/87
f 59/66/50 64/96/50 69/67/50
f 45/69/51 50/77/51 51/70/51
f 43/72/52 48/129/52 49/73/52
f 47/75/88 46/71/88 51/70/88
f 44/74/54 49/73/54 50/77/54
f 48/78/55 70/87/55 71/79/55
f 51/81/56 54/88/56 55/82/56
f 49/80/57 71/79/57 53/84/57
f 43/86/58 56/110/58 70/87/58
f 50/85/59 53/84/59 54/88/59
f 55/82/60 54/88/60 58/89/60
f 72/90/89 57/127/89 84/91/89
f 53/84/62 57/100/62 58/89/62
f 70/93/63 56/128/63 83/94/63
f 58/89/64 63/101/64 64/96/64
f 61/97/90 74/118/90 77/98/90
f 57/100/66 62/108/66 63/101/66
f 62/102/67 57/122/67 76/103/67
f 64/96/68 63/101/68 68/105/68
f 61/106/69 66/111/69 67/107/69
f 43/86/58 65/130/58 60/109/58
f 62/108/70 67/107/70 68/105/70
f 60/109/71 65/130/71 66/111/71
f 69/112/72 68/115/72 46/71/72
f 66/113/73 44/74/73 45/69/73
f 67/114/74 45/69/74 46/71/74
f 65/116/75 43/72/75 44/74/75
f 55/82/50 59/66/50 47/68/50
f 73/117/91 74/118/91 78/104/91
f 73/117/92 75/120/92 77/98/92
f 72/119/93 56/121/93 75/120/93
f 60/99/79 77/98/79 75/120/79
f 61/97/94 62/102/94 78/104/94
f 72/119/95 73/117/95 76/103/95
f 79/123/82 80/92/82 84/91/82
f 79/123/83 81/95/83 83/94/83
f 71/125/96 79/123/96 82/124/96
f 53/126/85 82/124/85 84/91/85
f 72/90/97 80/92/97 83/94/97
f 71/125/98 70/93/98 81/95/98
