# Blender v2.81 (sub 16) OBJ File: 'garbage.blend'
# www.blender.org
v 0.150193 1.151079 -0.684403
v 0.160622 1.131351 -0.666412
v 0.157261 1.107098 -0.651509
v 0.141013 1.084817 -0.643688
v 0.116230 1.070480 -0.645044
v 0.129860 1.165519 -0.672378
v 0.125403 1.156362 -0.645584
v 0.116594 1.135978 -0.627460
v 0.105794 1.109828 -0.622861
v 0.095896 1.084920 -0.633020
v 0.068495 1.143341 -0.653888
v 0.064139 1.116205 -0.645748
v 0.071847 1.088601 -0.646234
v 0.102093 1.158442 -0.710831
v 0.061062 1.121824 -0.704366
v 0.057702 1.097570 -0.689463
v 0.068130 1.077843 -0.671473
v 0.122427 1.144001 -0.722856
v 0.112529 1.119093 -0.733014
v 0.101729 1.092943 -0.728415
v 0.092920 1.072559 -0.710291
v 0.088464 1.063403 -0.683497
v 0.146477 1.140320 -0.709641
v 0.154185 1.112716 -0.710127
v 0.149829 1.085580 -0.701987
v 0.134576 1.066183 -0.687403
v 0.112514 1.059721 -0.670283
v 0.105810 1.169200 -0.685592
v 0.083747 1.162739 -0.668472
v 0.077311 1.144104 -0.712187
v 0.076902 1.143182 -0.762476
v 0.079775 1.141142 -0.764175
v 0.095896 1.156146 -0.734651
v 0.066491 1.122905 -0.735760
v 0.105961 1.148998 -0.740603
v 0.082103 1.111818 -0.744993
v 0.050853 1.187315 -0.694182
v 0.049330 1.182904 -0.704529
v 0.068794 1.183938 -0.698255
v 0.051420 1.165311 -0.687288
v 0.068096 1.181917 -0.702997
v 0.050720 1.163283 -0.692044
vt 0.274240 0.539347
vt 0.265397 0.539709
vt 0.266768 0.532487
vt 0.231414 0.551290
vt 0.214659 0.541092
vt 0.231357 0.542861
vt 0.231940 0.569242
vt 0.215985 0.562822
vt 0.231472 0.559719
vt 0.230890 0.533338
vt 0.220414 0.530957
vt 0.213134 0.552274
vt 0.289666 0.544440
vt 0.282983 0.540904
vt 0.290637 0.536818
vt 0.279682 0.529141
vt 0.275518 0.536619
vt 0.273707 0.532162
vt 0.280945 0.538772
vt 0.286431 0.530872
vt 0.290637 0.551375
vt 0.284312 0.543753
vt 0.278488 0.537315
vt 0.276318 0.541045
vt 0.804698 0.251197
vt 0.792375 0.255919
vt 0.792638 0.252041
vt 0.786357 0.239035
vt 0.792578 0.249274
vt 0.791489 0.249454
vt 0.271776 0.541127
vt 0.760733 0.199751
vt 0.757502 0.209505
vt 0.750621 0.206121
vt 0.278108 0.542645
vt 0.273009 0.544115
vt 0.772804 0.201934
vt 0.766718 0.213101
vt 0.766203 0.208706
vt 0.264007 0.548518
vt 0.277612 0.547903
vt 0.268747 0.555467
vt 0.275021 0.546378
vt 0.280714 0.548498
vt 0.281954 0.545638
vt 0.276612 0.557409
vt 0.240880 0.530957
vt 0.248168 0.561486
vt 0.249693 0.550306
vt 0.246843 0.539760
vt 0.242415 0.571620
vt 0.762287 0.211045
vt 0.762255 0.210544
vt 0.761023 0.221925
vt 0.757316 0.212491
vt 0.750922 0.216572
vt 0.772804 0.220841
vt 0.791613 0.252007
vt 0.791097 0.255536
vt 0.780068 0.250772
vt 0.780487 0.263708
vt 0.804698 0.264828
vt 0.798786 0.238814
vt 0.221949 0.571626
vt 0.283377 0.553479
vn -0.3541 -0.8404 0.4104
vn 0.4840 -0.0462 0.8739
vn 0.6695 0.6617 0.3375
vn 0.2059 -0.4386 0.8748
vn 0.6441 0.3337 0.6883
vn -0.0301 0.9474 0.3188
vn -0.4938 -0.1529 0.8560
vn -0.2575 0.7018 0.6642
vn 0.3541 0.8404 -0.4104
vn -0.4176 0.3219 0.8497
vn -0.9314 -0.2645 0.2499
vn -0.7198 -0.4083 -0.5614
vn -0.9816 0.1781 0.0686
vn 0.4545 0.7933 -0.4051
vn -0.6695 -0.6617 -0.3375
vn 0.7313 -0.0124 -0.6820
vn -0.6441 -0.3337 -0.6883
vn -0.6254 -0.7686 -0.1346
vn 0.0301 -0.9474 -0.3188
vn 0.4176 -0.3219 -0.8497
vn 0.2575 -0.7018 -0.6642
vn 0.4938 0.1529 -0.8560
vn 0.4678 -0.8358 0.2874
vn 0.9816 -0.1781 -0.0686
vn 0.8215 -0.5581 0.1169
vn 0.9314 0.2645 -0.2499
vn -0.6682 -0.4437 -0.5972
vn 0.2483 0.8020 -0.5433
vn -0.5529 0.8332 -0.0108
vn 0.4819 0.8513 -0.2074
vn 0.4184 -0.4737 -0.7750
vn -0.8219 0.5562 -0.1230
vn -0.9902 0.0178 0.1382
vn 0.0807 0.9126 -0.4009
vn -0.3086 0.7146 0.6278
vn -0.9140 -0.3069 0.2654
vn -0.0732 0.2186 -0.9731
vn 0.2649 0.8434 0.4674
vn -0.0301 0.9474 0.3187
vn -0.5489 0.1094 -0.8287
vn 0.4544 0.7933 -0.4051
vn 0.6749 -0.0387 -0.7369
vn 0.0301 -0.9474 -0.3187
vn 0.2483 0.8020 -0.5432
vn -0.5021 0.8635 0.0474
vn 0.4123 -0.3203 -0.8529
vn -0.8902 0.4556 -0.0011
vn 0.0807 0.9125 -0.4009
vn -0.4717 0.2525 0.8448
vn 0.0920 0.2563 -0.9622
vn 0.1569 0.8401 0.5192
s off
f 17/1/1 27/2/1 5/3/1
f 3/4/2 9/5/2 4/6/2
f 1/7/3 7/8/3 2/9/3
f 5/10/4 9/5/4 10/11/4
f 2/9/5 8/12/5 3/4/5
f 6/13/6 29/14/6 7/15/6
f 9/16/7 13/17/7 10/18/7
f 7/15/8 11/19/8 8/20/8
f 1/21/9 28/22/9 6/13/9
f 8/20/10 12/23/10 9/16/10
f 13/17/11 16/24/11 17/1/11
f 30/25/12 42/26/12 38/27/12
f 11/19/13 16/24/13 12/23/13
f 28/28/14 41/29/14 39/30/14
f 16/24/15 22/31/15 17/1/15
f 19/32/16 35/33/16 18/34/16
f 15/35/17 21/36/17 16/24/17
f 20/37/18 34/38/18 36/39/18
f 22/31/19 26/40/19 27/2/19
f 19/41/20 25/42/20 20/43/20
f 1/21/9 18/44/9 14/45/9
f 20/43/21 26/40/21 21/36/21
f 18/44/22 24/46/22 19/41/22
f 27/47/23 4/6/23 5/10/23
f 24/48/24 3/4/24 25/49/24
f 25/49/25 4/6/25 26/50/25
f 23/51/26 2/9/26 24/48/26
f 13/17/1 5/3/1 10/18/1
f 31/52/27 36/39/27 34/38/27
f 31/52/28 35/33/28 32/53/28
f 30/54/29 33/55/29 31/52/29
f 18/34/30 33/55/30 14/56/30
f 19/32/31 36/39/31 32/53/31
f 30/54/32 34/38/32 15/57/32
f 37/58/33 42/26/33 40/59/33
f 37/58/34 41/29/34 38/27/34
f 29/60/35 40/59/35 11/61/35
f 11/61/36 42/26/36 15/62/36
f 30/25/37 41/29/37 14/63/37
f 29/60/38 39/30/38 37/58/38
f 17/1/1 22/31/1 27/2/1
f 3/4/2 8/12/2 9/5/2
f 1/7/3 6/64/3 7/8/3
f 5/10/4 4/6/4 9/5/4
f 2/9/5 7/8/5 8/12/5
f 6/13/39 28/22/39 29/14/39
f 9/16/7 12/23/7 13/17/7
f 7/15/8 29/14/8 11/19/8
f 1/21/9 14/45/9 28/22/9
f 8/20/10 11/19/10 12/23/10
f 13/17/11 12/23/11 16/24/11
f 30/25/40 15/62/40 42/26/40
f 11/19/13 15/35/13 16/24/13
f 28/28/41 14/63/41 41/29/41
f 16/24/15 21/36/15 22/31/15
f 19/32/42 32/53/42 35/33/42
f 15/35/17 20/43/17 21/36/17
f 20/37/18 15/57/18 34/38/18
f 22/31/43 21/36/43 26/40/43
f 19/41/20 24/46/20 25/42/20
f 1/21/9 23/65/9 18/44/9
f 20/43/21 25/42/21 26/40/21
f 18/44/22 23/65/22 24/46/22
f 27/47/23 26/50/23 4/6/23
f 24/48/24 2/9/24 3/4/24
f 25/49/25 3/4/25 4/6/25
f 23/51/26 1/7/26 2/9/26
f 13/17/1 17/1/1 5/3/1
f 31/52/27 32/53/27 36/39/27
f 31/52/44 33/55/44 35/33/44
f 30/54/45 14/56/45 33/55/45
f 18/34/30 35/33/30 33/55/30
f 19/32/46 20/37/46 36/39/46
f 30/54/47 31/52/47 34/38/47
f 37/58/33 38/27/33 42/26/33
f 37/58/48 39/30/48 41/29/48
f 29/60/49 37/58/49 40/59/49
f 11/61/36 40/59/36 42/26/36
f 30/25/50 38/27/50 41/29/50
f 29/60/51 28/28/51 39/30/51
v 0.827917 1.291003 0.277772
v 0.804454 1.277472 0.287152
v 0.791246 1.253311 0.295115
v 0.791832 1.224995 0.299526
v 0.806054 1.200111 0.299204
v 0.833848 1.283454 0.251803
v 0.814727 1.264395 0.242173
v 0.803108 1.238211 0.243177
v 0.802104 1.211918 0.254546
v 0.811985 1.192561 0.273235
v 0.854587 1.222704 0.229924
v 0.846687 1.198488 0.243069
v 0.837725 1.184807 0.266609
v 0.879396 1.275496 0.264519
v 0.894205 1.222296 0.268609
v 0.880997 1.198135 0.276571
v 0.857534 1.184603 0.285951
v 0.873466 1.283046 0.290488
v 0.883347 1.263689 0.309177
v 0.882343 1.237396 0.320547
v 0.870724 1.211212 0.321551
v 0.851603 1.192153 0.311920
v 0.847726 1.290800 0.297115
v 0.838764 1.277119 0.320654
v 0.830864 1.252903 0.333800
v 0.826142 1.224642 0.333028
v 0.825863 1.199907 0.318547
v 0.859587 1.275700 0.245177
v 0.859309 1.250965 0.230695
v 0.893619 1.250612 0.264197
v 0.932051 1.268549 0.291238
v 0.931213 1.269616 0.294908
v 0.901059 1.278937 0.275920
v 0.914906 1.238210 0.286896
v 0.898123 1.282674 0.288774
v 0.910352 1.244007 0.306835
v 0.903522 1.256480 0.211672
v 0.911643 1.256396 0.219602
v 0.894834 1.267050 0.224427
v 0.894323 1.239324 0.224047
v 0.898556 1.267012 0.228061
v 0.898056 1.239286 0.227692
vt 0.274240 0.539347
vt 0.265397 0.539709
vt 0.266768 0.532487
vt 0.231414 0.551290
vt 0.214659 0.541092
vt 0.231357 0.542861
vt 0.231940 0.569242
vt 0.215985 0.562822
vt 0.231472 0.559719
vt 0.230890 0.533338
vt 0.220414 0.530957
vt 0.213134 0.552274
vt 0.289666 0.544440
vt 0.282983 0.540904
vt 0.290637 0.536818
vt 0.279682 0.529141
vt 0.275518 0.536619
vt 0.273707 0.532162
vt 0.280945 0.538772
vt 0.286431 0.530872
vt 0.290637 0.551375
vt 0.284312 0.543753
vt 0.278488 0.537315
vt 0.276318 0.541045
vt 0.804698 0.251197
vt 0.792375 0.255919
vt 0.792638 0.252041
vt 0.786357 0.239035
vt 0.792578 0.249274
vt 0.791489 0.249454
vt 0.271776 0.541127
vt 0.760733 0.199751
vt 0.757502 0.209505
vt 0.750621 0.206121
vt 0.278108 0.542645
vt 0.273009 0.544115
vt 0.772804 0.201934
vt 0.766718 0.213101
vt 0.766203 0.208706
vt 0.264007 0.548518
vt 0.277612 0.547903
vt 0.268747 0.555467
vt 0.275021 0.546378
vt 0.280714 0.548498
vt 0.281954 0.545638
vt 0.276612 0.557409
vt 0.240880 0.530957
vt 0.248168 0.561486
vt 0.249693 0.550306
vt 0.246843 0.539760
vt 0.242415 0.571620
vt 0.762287 0.211045
vt 0.762255 0.210544
vt 0.761023 0.221925
vt 0.757316 0.212491
vt 0.750922 0.216572
vt 0.772804 0.220841
vt 0.791613 0.252007
vt 0.791097 0.255536
vt 0.780068 0.250772
vt 0.780487 0.263708
vt 0.804698 0.264828
vt 0.798786 0.238814
vt 0.221949 0.571626
vt 0.283377 0.553479
vn -0.2279 -0.9477 0.2235
vn -0.9768 -0.0526 -0.2078
vn -0.5688 0.7458 -0.3467
vn -0.8672 -0.4950 -0.0542
vn -0.8737 0.3759 -0.3088
vn -0.0695 0.5046 -0.8605
vn -0.3680 -0.7362 -0.5680
vn -0.2304 0.0650 -0.9709
vn 0.2280 0.9477 -0.2235
vn -0.3334 -0.3634 -0.8699
vn 0.3500 -0.8616 -0.3675
vn 0.8123 -0.5218 0.2606
vn 0.5918 -0.5251 -0.6116
vn 0.1534 0.9772 -0.1468
vn 0.5688 -0.7458 0.3467
vn 0.0595 0.7089 0.7028
vn 0.8737 -0.3759 0.3088
vn 0.3691 -0.8665 0.3362
vn 0.0695 -0.5046 0.8605
vn 0.3334 0.3634 0.8699
vn 0.2304 -0.0650 0.9709
vn 0.3680 0.7362 0.5680
vn -0.6485 -0.3792 0.6601
vn -0.5918 0.5251 0.6116
vn -0.6949 0.0966 0.7126
vn -0.3500 0.8616 0.3675
vn -0.2280 -0.9477 0.2235
vn 0.8014 -0.4999 0.3284
vn 0.3892 0.9045 -0.1741
vn 0.4905 0.2201 -0.8432
vn -0.0050 0.9599 -0.2802
vn 0.2512 0.2329 0.9395
vn 0.6994 -0.0959 -0.7083
vn 0.5180 -0.6654 -0.5375
vn 0.4038 0.8204 -0.4049
vn -0.1686 0.0550 -0.9842
vn 0.3203 -0.8852 -0.3374
vn 0.8231 0.4663 0.3241
vn -0.3846 0.5649 -0.7301
vn 0.2279 0.9477 -0.2235
vn 0.9933 0.0375 0.1091
vn 0.1324 0.6760 0.7249
vn 0.3691 -0.8664 0.3362
vn 0.4193 0.2509 -0.8725
vn 0.3394 0.3624 0.8680
vn 0.6329 -0.2530 -0.7317
vn -0.3072 -0.4429 -0.8423
vn 0.7175 0.5922 0.3668
vn -0.3570 0.4749 -0.8044
s off
f 59/66/52 69/67/52 47/68/52
f 45/69/53 51/70/53 46/71/53
f 43/72/54 49/73/54 44/74/54
f 47/75/55 51/70/55 52/76/55
f 44/74/56 50/77/56 45/69/56
f 48/78/57 71/79/57 49/80/57
f 51/81/58 55/82/58 52/83/58
f 49/80/59 53/84/59 50/85/59
f 43/86/60 70/87/60 48/78/60
f 50/85/61 54/88/61 51/81/61
f 55/82/62 58/89/62 59/66/62
f 72/90/63 84/91/63 80/92/63
f 53/84/64 58/89/64 54/88/64
f 70/93/65 83/94/65 81/95/65
f 58/89/66 64/96/66 59/66/66
f 61/97/67 77/98/67 60/99/67
f 57/100/68 63/101/68 58/89/68
f 62/102/69 76/103/69 78/104/69
f 64/96/70 68/105/70 69/67/70
f 61/106/71 67/107/71 62/108/71
f 43/86/60 60/109/60 56/110/60
f 62/108/72 68/105/72 63/101/72
f 60/109/73 66/111/73 61/106/73
f 69/112/74 46/71/74 47/75/74
f 66/113/75 45/69/75 67/114/75
f 67/114/76 46/71/76 68/115/76
f 65/116/77 44/74/77 66/113/77
f 55/82/78 47/68/78 52/83/78
f 73/117/79 78/104/79 76/103/79
f 73/117/80 77/98/80 74/118/80
f 72/119/81 75/120/81 73/117/81
f 60/99/82 75/120/82 56/121/82
f 61/97/83 78/104/83 74/118/83
f 72/119/84 76/103/84 57/122/84
f 79/123/85 84/91/85 82/124/85
f 79/123/86 83/94/86 80/92/86
f 71/125/87 82/124/87 53/126/87
f 53/126/88 84/91/88 57/127/88
f 72/90/89 83/94/89 56/128/89
f 71/125/90 81/95/90 79/123/90
f 59/66/78 64/96/78 69/67/78
f 45/69/53 50/77/53 51/70/53
f 43/72/54 48/129/54 49/73/54
f 47/75/55 46/71/55 51/70/55
f 44/74/56 49/73/56 50/77/56
f 48/78/57 70/87/57 71/79/57
f 51/81/58 54/88/58 55/82/58
f 49/80/59 71/79/59 53/84/59
f 43/86/91 56/110/91 70/87/91
f 50/85/61 53/84/61 54/88/61
f 55/82/62 54/88/62 58/89/62
f 72/90/92 57/127/92 84/91/92
f 53/84/64 57/100/64 58/89/64
f 70/93/65 56/128/65 83/94/65
f 58/89/66 63/101/66 64/96/66
f 61/97/93 74/118/93 77/98/93
f 57/100/68 62/108/68 63/101/68
f 62/102/94 57/122/94 76/103/94
f 64/96/70 63/101/70 68/105/70
f 61/106/71 66/111/71 67/107/71
f 43/86/60 65/130/60 60/109/60
f 62/108/72 67/107/72 68/105/72
f 60/109/73 65/130/73 66/111/73
f 69/112/74 68/115/74 46/71/74
f 66/113/75 44/74/75 45/69/75
f 67/114/76 45/69/76 46/71/76
f 65/116/77 43/72/77 44/74/77
f 55/82/52 59/66/52 47/68/52
f 73/117/79 74/118/79 78/104/79
f 73/117/80 75/120/80 77/98/80
f 72/119/95 56/121/95 75/120/95
f 60/99/82 77/98/82 75/120/82
f 61/97/96 62/102/96 78/104/96
f 72/119/97 73/117/97 76/103/97
f 79/123/85 80/92/85 84/91/85
f 79/123/86 81/95/86 83/94/86
f 71/125/98 79/123/98 82/124/98
f 53/126/88 82/124/88 84/91/88
f 72/90/99 80/92/99 83/94/99
f 71/125/100 70/93/100 81/95/100
