# Blender v2.81 (sub 16) OBJ File: 'garbage.blend'
# www.blender.org
v -0.306432 1.542565 -0.572850
v -0.303302 1.516626 -0.584639
v -0.308631 1.488463 -0.584443
v -0.320990 1.465621 -0.572314
v -0.337069 1.454222 -0.551502
v -0.293316 1.543899 -0.548504
v -0.280584 1.518937 -0.542470
v -0.282398 1.491132 -0.535750
v -0.298273 1.467933 -0.530145
v -0.323953 1.455557 -0.527156
v -0.308638 1.510993 -0.491217
v -0.320997 1.485134 -0.491578
v -0.337073 1.465488 -0.504889
v -0.332672 1.562426 -0.528317
v -0.361111 1.528186 -0.495376
v -0.366440 1.500023 -0.495180
v -0.363310 1.474084 -0.506969
v -0.345788 1.561092 -0.552663
v -0.371469 1.548716 -0.549674
v -0.387343 1.525517 -0.544069
v -0.389158 1.497711 -0.537349
v -0.376426 1.472749 -0.531315
v -0.332668 1.551161 -0.574930
v -0.348744 1.531515 -0.588241
v -0.361103 1.505655 -0.588602
v -0.366433 1.480511 -0.575916
v -0.363306 1.462819 -0.553582
v -0.306436 1.553830 -0.526237
v -0.303309 1.536138 -0.503903
v -0.348751 1.551027 -0.507505
v -0.386285 1.583851 -0.514127
v -0.388138 1.583662 -0.517567
v -0.353077 1.576191 -0.526028
v -0.382121 1.550288 -0.504667
v -0.359570 1.575531 -0.538080
v -0.392192 1.549263 -0.523360
v -0.314408 1.569316 -0.470391
v -0.325164 1.572840 -0.471243
v -0.315230 1.570729 -0.489024
v -0.323230 1.548426 -0.474613
v -0.320159 1.572345 -0.489415
v -0.328173 1.550046 -0.475005
vt 0.274240 0.539347
vt 0.265397 0.539709
vt 0.266768 0.532487
vt 0.231414 0.551290
vt 0.214659 0.541092
vt 0.231357 0.542861
vt 0.231940 0.569242
vt 0.215985 0.562822
vt 0.231472 0.559719
vt 0.230890 0.533338
vt 0.220414 0.530957
vt 0.213134 0.552274
vt 0.289666 0.544440
vt 0.282983 0.540904
vt 0.290637 0.536818
vt 0.279682 0.529141
vt 0.275518 0.536619
vt 0.273707 0.532162
vt 0.280945 0.538772
vt 0.286431 0.530872
vt 0.290637 0.551375
vt 0.284312 0.543753
vt 0.278488 0.537315
vt 0.276318 0.541045
vt 0.804698 0.251197
vt 0.792375 0.255919
vt 0.792638 0.252041
vt 0.786357 0.239035
vt 0.792578 0.249274
vt 0.791489 0.249454
vt 0.271776 0.541127
vt 0.760733 0.199751
vt 0.757502 0.209505
vt 0.750621 0.206121
vt 0.278108 0.542645
vt 0.273009 0.544115
vt 0.772804 0.201934
vt 0.766718 0.213101
vt 0.766203 0.208706
vt 0.264007 0.548518
vt 0.277612 0.547903
vt 0.268747 0.555467
vt 0.275021 0.546378
vt 0.280714 0.548498
vt 0.281954 0.545638
vt 0.276612 0.557409
vt 0.240880 0.530957
vt 0.248168 0.561486
vt 0.249693 0.550306
vt 0.246843 0.539760
vt 0.242415 0.571620
vt 0.762287 0.211045
vt 0.762255 0.210544
vt 0.761023 0.221925
vt 0.757316 0.212491
vt 0.750922 0.216572
vt 0.772804 0.220841
vt 0.791613 0.252007
vt 0.791097 0.255536
vt 0.780068 0.250772
vt 0.780487 0.263708
vt 0.804698 0.264828
vt 0.798786 0.238814
vt 0.221949 0.571626
vt 0.283377 0.553479
vn -0.3194 -0.9211 0.2226
vn 0.7272 -0.5846 -0.3597
vn 0.8295 0.3109 -0.4639
vn 0.4113 -0.8950 -0.1725
vn 0.8717 -0.1681 -0.4604
vn 0.8294 0.4885 0.2708
vn 0.4112 -0.7175 0.5623
vn 0.8716 0.0607 0.4865
vn 0.3194 0.9211 -0.2226
vn 0.7272 -0.3557 0.5871
vn -0.2092 -0.4254 0.8805
vn -0.8443 0.0231 0.5353
vn -0.0723 0.0206 0.9972
vn 0.3175 0.8894 -0.3289
vn -0.8295 -0.3110 0.4639
vn -0.3318 0.4946 -0.8033
vn -0.8717 0.1681 0.4604
vn -0.7383 -0.5226 0.4264
vn -0.8294 -0.4885 -0.2708
vn -0.7272 0.3557 -0.5871
vn -0.8716 -0.0607 -0.4865
vn -0.4112 0.7175 -0.5623
vn -0.2091 -0.7806 -0.5891
vn 0.0723 -0.0206 -0.9972
vn -0.0721 -0.4370 -0.8965
vn 0.2092 0.4254 -0.8805
vn -0.8807 0.0241 0.4731
vn 0.1723 0.9741 -0.1462
vn 0.3896 0.5885 0.7084
vn 0.5058 0.8025 -0.3165
vn -0.7689 0.1933 -0.6095
vn 0.0664 0.4397 0.8957
vn -0.1254 -0.1454 0.9814
vn 0.3066 0.9500 0.0585
vn 0.8408 0.0910 0.5337
vn -0.2206 -0.4660 0.8568
vn -0.5914 0.8062 -0.0153
vn 0.9431 0.3321 -0.0164
vn -0.6695 0.5970 0.4420
vn -0.8295 -0.3109 0.4639
vn -0.4023 0.5079 -0.7617
vn 0.4638 0.5755 0.6735
vn -0.7297 0.3587 -0.5821
vn 0.0752 0.2791 0.9573
vn 0.6664 -0.4076 0.6243
vn -0.5198 0.8380 -0.1660
vn 0.9530 0.2878 0.0945
s off
f 17/1/1 27/2/1 5/3/1
f 3/4/2 9/5/2 4/6/2
f 1/7/3 7/8/3 2/9/3
f 5/10/4 9/5/4 10/11/4
f 2/9/5 8/12/5 3/4/5
f 6/13/6 29/14/6 7/15/6
f 9/16/7 13/17/7 10/18/7
f 7/15/8 11/19/8 8/20/8
f 1/21/9 28/22/9 6/13/9
f 8/20/10 12/23/10 9/16/10
f 13/17/11 16/24/11 17/1/11
f 30/25/12 42/26/12 38/27/12
f 11/19/13 16/24/13 12/23/13
f 28/28/14 41/29/14 39/30/14
f 16/24/15 22/31/15 17/1/15
f 19/32/16 35/33/16 18/34/16
f 15/35/17 21/36/17 16/24/17
f 20/37/18 34/38/18 36/39/18
f 22/31/19 26/40/19 27/2/19
f 19/41/20 25/42/20 20/43/20
f 1/21/9 18/44/9 14/45/9
f 20/43/21 26/40/21 21/36/21
f 18/44/22 24/46/22 19/41/22
f 27/47/23 4/6/23 5/10/23
f 24/48/24 3/4/24 25/49/24
f 25/49/25 4/6/25 26/50/25
f 23/51/26 2/9/26 24/48/26
f 13/17/1 5/3/1 10/18/1
f 31/52/27 36/39/27 34/38/27
f 31/52/28 35/33/28 32/53/28
f 30/54/29 33/55/29 31/52/29
f 18/34/30 33/55/30 14/56/30
f 19/32/31 36/39/31 32/53/31
f 30/54/32 34/38/32 15/57/32
f 37/58/33 42/26/33 40/59/33
f 37/58/34 41/29/34 38/27/34
f 29/60/35 40/59/35 11/61/35
f 11/61/36 42/26/36 15/62/36
f 30/25/37 41/29/37 14/63/37
f 29/60/38 39/30/38 37/58/38
f 17/1/1 22/31/1 27/2/1
f 3/4/2 8/12/2 9/5/2
f 1/7/3 6/64/3 7/8/3
f 5/10/4 4/6/4 9/5/4
f 2/9/5 7/8/5 8/12/5
f 6/13/6 28/22/6 29/14/6
f 9/16/7 12/23/7 13/17/7
f 7/15/8 29/14/8 11/19/8
f 1/21/9 14/45/9 28/22/9
f 8/20/10 11/19/10 12/23/10
f 13/17/11 12/23/11 16/24/11
f 30/25/39 15/62/39 42/26/39
f 11/19/13 15/35/13 16/24/13
f 28/28/14 14/63/14 41/29/14
f 16/24/40 21/36/40 22/31/40
f 19/32/41 32/53/41 35/33/41
f 15/35/17 20/43/17 21/36/17
f 20/37/18 15/57/18 34/38/18
f 22/31/19 21/36/19 26/40/19
f 19/41/20 24/46/20 25/42/20
f 1/21/9 23/65/9 18/44/9
f 20/43/21 25/42/21 26/40/21
f 18/44/22 23/65/22 24/46/22
f 27/47/23 26/50/23 4/6/23
f 24/48/24 2/9/24 3/4/24
f 25/49/25 3/4/25 4/6/25
f 23/51/26 1/7/26 2/9/26
f 13/17/1 17/1/1 5/3/1
f 31/52/27 32/53/27 36/39/27
f 31/52/28 33/55/28 35/33/28
f 30/54/42 14/56/42 33/55/42
f 18/34/30 35/33/30 33/55/30
f 19/32/43 20/37/43 36/39/43
f 30/54/44 31/52/44 34/38/44
f 37/58/33 38/27/33 42/26/33
f 37/58/34 39/30/34 41/29/34
f 29/60/45 37/58/45 40/59/45
f 11/61/36 40/59/36 42/26/36
f 30/25/46 38/27/46 41/29/46
f 29/60/47 28/28/47 39/30/47
v 1.441713 1.285365 -0.683271
v 1.435974 1.268339 -0.660938
v 1.431292 1.242164 -0.650237
v 1.428921 1.213852 -0.654035
v 1.429497 1.190990 -0.671316
v 1.420383 1.285891 -0.700915
v 1.399029 1.269250 -0.691497
v 1.388631 1.243216 -0.685524
v 1.391976 1.214763 -0.684595
v 1.408167 1.191516 -0.688960
v 1.397258 1.235244 -0.739638
v 1.399446 1.207859 -0.731459
v 1.412480 1.187531 -0.716016
v 1.450340 1.277393 -0.737385
v 1.448545 1.226220 -0.758464
v 1.443863 1.200045 -0.747763
v 1.438123 1.183019 -0.725430
v 1.471670 1.276867 -0.719741
v 1.487861 1.253621 -0.724106
v 1.491206 1.225168 -0.723177
v 1.480808 1.199133 -0.717203
v 1.459454 1.182493 -0.707786
v 1.467357 1.280853 -0.692684
v 1.480390 1.260524 -0.677242
v 1.482579 1.233140 -0.669063
v 1.473337 1.206037 -0.670339
v 1.455141 1.186478 -0.680729
v 1.424696 1.281905 -0.727972
v 1.406500 1.262347 -0.738361
v 1.450916 1.254532 -0.754665
v 1.495816 1.266304 -0.774040
v 1.498830 1.266229 -0.771547
v 1.470831 1.278741 -0.751147
v 1.477350 1.237483 -0.766185
v 1.481389 1.278480 -0.742413
v 1.493728 1.237079 -0.752638
v 1.411617 1.275694 -0.784651
v 1.422130 1.273844 -0.788510
v 1.421010 1.281654 -0.769614
v 1.414153 1.255205 -0.774363
v 1.425829 1.280806 -0.771383
v 1.418985 1.254355 -0.776137
vt 0.274240 0.539347
vt 0.265397 0.539709
vt 0.266768 0.532487
vt 0.231414 0.551290
vt 0.214659 0.541092
vt 0.231357 0.542861
vt 0.231940 0.569242
vt 0.215985 0.562822
vt 0.231472 0.559719
vt 0.230890 0.533338
vt 0.220414 0.530957
vt 0.213134 0.552274
vt 0.289666 0.544440
vt 0.282983 0.540904
vt 0.290637 0.536818
vt 0.279682 0.529141
vt 0.275518 0.536619
vt 0.273707 0.532162
vt 0.280945 0.538772
vt 0.286431 0.530872
vt 0.290637 0.551375
vt 0.284312 0.543753
vt 0.278488 0.537315
vt 0.276318 0.541045
vt 0.804698 0.251197
vt 0.792375 0.255919
vt 0.792638 0.252041
vt 0.786357 0.239035
vt 0.792578 0.249274
vt 0.791489 0.249454
vt 0.271776 0.541127
vt 0.760733 0.199751
vt 0.757502 0.209505
vt 0.750621 0.206121
vt 0.278108 0.542645
vt 0.273009 0.544115
vt 0.772804 0.201934
vt 0.766718 0.213101
vt 0.766203 0.208706
vt 0.264007 0.548518
vt 0.277612 0.547903
vt 0.268747 0.555467
vt 0.275021 0.546378
vt 0.280714 0.548498
vt 0.281954 0.545638
vt 0.276612 0.557409
vt 0.240880 0.530957
vt 0.248168 0.561486
vt 0.249693 0.550306
vt 0.246843 0.539760
vt 0.242415 0.571620
vt 0.762287 0.211045
vt 0.762255 0.210544
vt 0.761023 0.221925
vt 0.757316 0.212491
vt 0.750922 0.216572
vt 0.772804 0.220841
vt 0.791613 0.252007
vt 0.791097 0.255536
vt 0.780068 0.250772
vt 0.780487 0.263708
vt 0.804698 0.264828
vt 0.798786 0.238814
vt 0.221949 0.571626
vt 0.283377 0.553479
vn -0.1274 -0.9840 0.1247
vn -0.6373 -0.0498 0.7690
vn -0.3888 0.7781 0.4933
vn -0.5556 -0.5102 0.6565
vn -0.5797 0.3950 0.7126
vn -0.6571 0.7236 -0.2113
vn -0.8239 -0.5648 -0.0481
vn -0.9254 0.3247 -0.1954
vn 0.1274 0.9840 -0.1247
vn -0.9830 -0.1201 -0.1390
vn -0.3516 -0.6987 -0.6230
vn 0.4770 -0.5246 -0.7051
vn -0.3745 -0.2927 -0.8798
vn 0.1659 0.9859 -0.0206
vn 0.3888 -0.7781 -0.4933
vn 0.7925 0.4817 0.3740
vn 0.5797 -0.3950 -0.7126
vn 0.2611 -0.9025 -0.3425
vn 0.6571 -0.7236 0.2113
vn 0.9830 0.1201 0.1390
vn 0.9254 -0.3248 0.1954
vn 0.8238 0.5648 0.0481
vn 0.1849 -0.5896 0.7862
vn 0.3745 0.2927 0.8798
vn 0.3169 -0.1521 0.9362
vn 0.3516 0.6987 0.6230
vn -0.1274 -0.9840 0.1246
vn 0.5353 -0.5236 -0.6628
vn 0.2338 0.9384 -0.2546
vn -0.4506 0.4801 -0.7526
vn -0.0252 0.9979 0.0602
vn 0.9756 -0.0295 0.2177
vn -0.3109 0.1519 -0.9382
vn -0.3764 -0.4525 -0.8084
vn 0.0229 0.9244 -0.3807
vn -0.9108 0.3227 -0.2576
vn -0.3446 -0.7316 -0.5882
vn 0.7610 0.4033 -0.5082
vn -0.6753 0.7252 0.1344
vn -0.9254 0.3248 -0.1954
vn 0.1274 0.9840 -0.1246
vn 0.5566 0.0645 -0.8283
vn 0.8374 0.4483 0.3128
vn 0.2338 0.9383 -0.2547
vn -0.5014 0.5137 -0.6963
vn 0.9839 0.1200 0.1327
vn -0.3971 0.0043 -0.9177
vn -0.9653 -0.2024 -0.1651
vn 0.7780 0.5053 -0.3734
vn -0.7470 0.6619 0.0621
s off
f 59/66/48 69/67/48 47/68/48
f 45/69/49 51/70/49 46/71/49
f 43/72/50 49/73/50 44/74/50
f 47/75/51 51/70/51 52/76/51
f 44/74/52 50/77/52 45/69/52
f 48/78/53 71/79/53 49/80/53
f 51/81/54 55/82/54 52/83/54
f 49/80/55 53/84/55 50/85/55
f 43/86/56 70/87/56 48/78/56
f 50/85/57 54/88/57 51/81/57
f 55/82/58 58/89/58 59/66/58
f 72/90/59 84/91/59 80/92/59
f 53/84/60 58/89/60 54/88/60
f 70/93/61 83/94/61 81/95/61
f 58/89/62 64/96/62 59/66/62
f 61/97/63 77/98/63 60/99/63
f 57/100/64 63/101/64 58/89/64
f 62/102/65 76/103/65 78/104/65
f 64/96/66 68/105/66 69/67/66
f 61/106/67 67/107/67 62/108/67
f 43/86/56 60/109/56 56/110/56
f 62/108/68 68/105/68 63/101/68
f 60/109/69 66/111/69 61/106/69
f 69/112/70 46/71/70 47/75/70
f 66/113/71 45/69/71 67/114/71
f 67/114/72 46/71/72 68/115/72
f 65/116/73 44/74/73 66/113/73
f 55/82/74 47/68/74 52/83/74
f 73/117/75 78/104/75 76/103/75
f 73/117/76 77/98/76 74/118/76
f 72/119/77 75/120/77 73/117/77
f 60/99/78 75/120/78 56/121/78
f 61/97/79 78/104/79 74/118/79
f 72/119/80 76/103/80 57/122/80
f 79/123/81 84/91/81 82/124/81
f 79/123/82 83/94/82 80/92/82
f 71/125/83 82/124/83 53/126/83
f 53/126/84 84/91/84 57/127/84
f 72/90/85 83/94/85 56/128/85
f 71/125/86 81/95/86 79/123/86
f 59/66/74 64/96/74 69/67/74
f 45/69/49 50/77/49 51/70/49
f 43/72/50 48/129/50 49/73/50
f 47/75/51 46/71/51 51/70/51
f 44/74/52 49/73/52 50/77/52
f 48/78/53 70/87/53 71/79/53
f 51/81/54 54/88/54 55/82/54
f 49/80/87 71/79/87 53/84/87
f 43/86/88 56/110/88 70/87/88
f 50/85/57 53/84/57 54/88/57
f 55/82/58 54/88/58 58/89/58
f 72/90/89 57/127/89 84/91/89
f 53/84/60 57/100/60 58/89/60
f 70/93/61 56/128/61 83/94/61
f 58/89/62 63/101/62 64/96/62
f 61/97/90 74/118/90 77/98/90
f 57/100/64 62/108/64 63/101/64
f 62/102/65 57/122/65 76/103/65
f 64/96/66 63/101/66 68/105/66
f 61/106/67 66/111/67 67/107/67
f 43/86/56 65/130/56 60/109/56
f 62/108/68 67/107/68 68/105/68
f 60/109/69 65/130/69 66/111/69
f 69/112/70 68/115/70 46/71/70
f 66/113/71 44/74/71 45/69/71
f 67/114/72 45/69/72 46/71/72
f 65/116/73 43/72/73 44/74/73
f 55/82/48 59/66/48 47/68/48
f 73/117/75 74/118/75 78/104/75
f 73/117/91 75/120/91 77/98/91
f 72/119/92 56/121/92 75/120/92
f 60/99/78 77/98/78 75/120/78
f 61/97/93 62/102/93 78/104/93
f 72/119/94 73/117/94 76/103/94
f 79/123/81 80/92/81 84/91/81
f 79/123/82 81/95/82 83/94/82
f 71/125/95 79/123/95 82/124/95
f 53/126/84 82/124/84 84/91/84
f 72/90/96 80/92/96 83/94/96
f 71/125/97 70/93/97 81/95/97
