# Blender v2.81 (sub 16) OBJ File: 'garbage.blend'
# www.blender.org
v -0.055179 1.466578 0.697901
v -0.069707 1.446815 0.712732
v -0.076086 1.419344 0.717852
v -0.072606 1.391524 0.711890
v -0.060199 1.370811 0.696442
v -0.063855 1.467434 0.671623
v -0.084735 1.448297 0.667217
v -0.093439 1.421054 0.665296
v -0.087634 1.393006 0.666374
v -0.068876 1.371666 0.670163
v -0.056645 1.419756 0.623934
v -0.055770 1.391881 0.630554
v -0.050479 1.371017 0.649483
v -0.018385 1.465280 0.656540
v -0.002498 1.416747 0.635129
v -0.008877 1.389275 0.640249
v -0.023405 1.369512 0.655080
v -0.009709 1.464424 0.682818
v 0.009050 1.443085 0.686607
v 0.014855 1.415036 0.687686
v 0.006151 1.387794 0.685765
v -0.014729 1.368657 0.681359
v -0.028106 1.465074 0.703499
v -0.022815 1.444209 0.722428
v -0.021939 1.416335 0.729047
v -0.025713 1.388918 0.721585
v -0.033126 1.369306 0.702039
v -0.045458 1.466784 0.650942
v -0.052871 1.447173 0.631397
v -0.005979 1.444566 0.641092
v 0.040543 1.461746 0.649493
v 0.041769 1.461625 0.653206
v 0.005936 1.469672 0.656018
v 0.024407 1.430928 0.644680
v 0.010231 1.469249 0.669026
v 0.031069 1.430272 0.664856
v -0.025768 1.465877 0.595864
v -0.014669 1.465261 0.598159
v -0.026541 1.470838 0.613882
v -0.026558 1.444631 0.604809
v -0.021454 1.470555 0.614934
v -0.021457 1.444348 0.605864
vt 0.274240 0.539347
vt 0.265397 0.539709
vt 0.266768 0.532487
vt 0.231414 0.551290
vt 0.214659 0.541092
vt 0.231357 0.542861
vt 0.231940 0.569242
vt 0.215985 0.562822
vt 0.231472 0.559719
vt 0.230890 0.533338
vt 0.220414 0.530957
vt 0.213134 0.552274
vt 0.289666 0.544440
vt 0.282983 0.540904
vt 0.290637 0.536818
vt 0.279682 0.529141
vt 0.275518 0.536619
vt 0.273707 0.532162
vt 0.280945 0.538772
vt 0.286431 0.530872
vt 0.290637 0.551375
vt 0.284312 0.543753
vt 0.278488 0.537315
vt 0.276318 0.541045
vt 0.804698 0.251197
vt 0.792375 0.255919
vt 0.792638 0.252041
vt 0.786357 0.239035
vt 0.792578 0.249274
vt 0.791489 0.249454
vt 0.271776 0.541127
vt 0.760733 0.199751
vt 0.757502 0.209505
vt 0.750621 0.206121
vt 0.278108 0.542645
vt 0.273009 0.544115
vt 0.772804 0.201934
vt 0.766718 0.213101
vt 0.766203 0.208706
vt 0.264007 0.548518
vt 0.277612 0.547903
vt 0.268747 0.555467
vt 0.275021 0.546378
vt 0.280714 0.548498
vt 0.281954 0.545638
vt 0.276612 0.557409
vt 0.240880 0.530957
vt 0.248168 0.561486
vt 0.249693 0.550306
vt 0.246843 0.539760
vt 0.242415 0.571620
vt 0.762287 0.211045
vt 0.762255 0.210544
vt 0.761023 0.221925
vt 0.757316 0.212491
vt 0.750922 0.216572
vt 0.772804 0.220841
vt 0.791613 0.252007
vt 0.791097 0.255536
vt 0.780068 0.250772
vt 0.780487 0.263708
vt 0.804698 0.264828
vt 0.798786 0.238814
vt 0.221949 0.571626
vt 0.283377 0.553479
vn -0.0523 -0.9985 -0.0152
vn -0.9355 -0.1820 0.3029
vn -0.6825 0.6876 0.2477
vn -0.7510 -0.6197 0.2278
vn -0.9118 0.2695 0.3098
vn -0.5293 0.6909 -0.4925
vn -0.5978 -0.6165 -0.5124
vn -0.7144 0.2736 -0.6441
vn 0.0523 0.9985 0.0152
vn -0.7380 -0.1778 -0.6509
vn 0.1190 -0.6504 -0.7502
vn 0.8374 -0.4065 -0.3654
vn 0.1856 -0.2215 -0.9573
vn 0.0296 0.9919 0.1236
vn 0.6825 -0.6876 -0.2477
vn 0.4096 0.4960 0.7656
vn 0.9118 -0.2695 -0.3098
vn 0.5108 -0.8371 -0.1959
vn 0.5293 -0.6909 0.4925
vn 0.7380 0.1778 0.6509
vn 0.7144 -0.2736 0.6441
vn 0.5978 0.6165 0.5124
vn -0.1875 -0.6569 0.7303
vn -0.1856 0.2215 0.9573
vn -0.2093 -0.2299 0.9504
vn -0.1190 0.6504 0.7502
vn 0.8639 -0.4057 -0.2984
vn 0.2160 0.9756 -0.0395
vn -0.0402 0.5246 -0.8504
vn -0.1751 0.9804 0.0898
vn 0.7086 0.0203 0.7054
vn 0.2154 0.2303 -0.9490
vn 0.1659 -0.3879 -0.9066
vn 0.1070 0.9598 -0.2596
vn -0.6689 0.2796 -0.6887
vn 0.1105 -0.6863 -0.7189
vn 0.8584 0.5129 0.0017
vn -0.7273 0.6530 -0.2110
vn 0.8971 0.1970 -0.3954
vn 0.4837 0.4730 0.7364
vn 0.2160 0.9756 -0.0396
vn -0.1167 0.5479 -0.8284
vn -0.1752 0.9804 0.0897
vn 0.7421 0.1784 0.6461
vn 0.1502 0.0753 -0.9858
vn -0.6993 -0.2551 -0.6677
vn 0.7891 0.6004 0.1297
vn -0.7416 0.5929 -0.3137
s off
f 17/1/1 27/2/1 5/3/1
f 3/4/2 9/5/2 4/6/2
f 1/7/3 7/8/3 2/9/3
f 5/10/4 9/5/4 10/11/4
f 2/9/5 8/12/5 3/4/5
f 6/13/6 29/14/6 7/15/6
f 9/16/7 13/17/7 10/18/7
f 7/15/8 11/19/8 8/20/8
f 1/21/9 28/22/9 6/13/9
f 8/20/10 12/23/10 9/16/10
f 13/17/11 16/24/11 17/1/11
f 30/25/12 42/26/12 38/27/12
f 11/19/13 16/24/13 12/23/13
f 28/28/14 41/29/14 39/30/14
f 16/24/15 22/31/15 17/1/15
f 19/32/16 35/33/16 18/34/16
f 15/35/17 21/36/17 16/24/17
f 20/37/18 34/38/18 36/39/18
f 22/31/19 26/40/19 27/2/19
f 19/41/20 25/42/20 20/43/20
f 1/21/9 18/44/9 14/45/9
f 20/43/21 26/40/21 21/36/21
f 18/44/22 24/46/22 19/41/22
f 27/47/23 4/6/23 5/10/23
f 24/48/24 3/4/24 25/49/24
f 25/49/25 4/6/25 26/50/25
f 23/51/26 2/9/26 24/48/26
f 13/17/1 5/3/1 10/18/1
f 31/52/27 36/39/27 34/38/27
f 31/52/28 35/33/28 32/53/28
f 30/54/29 33/55/29 31/52/29
f 18/34/30 33/55/30 14/56/30
f 19/32/31 36/39/31 32/53/31
f 30/54/32 34/38/32 15/57/32
f 37/58/33 42/26/33 40/59/33
f 37/58/34 41/29/34 38/27/34
f 29/60/35 40/59/35 11/61/35
f 11/61/36 42/26/36 15/62/36
f 30/25/37 41/29/37 14/63/37
f 29/60/38 39/30/38 37/58/38
f 17/1/1 22/31/1 27/2/1
f 3/4/2 8/12/2 9/5/2
f 1/7/3 6/64/3 7/8/3
f 5/10/4 4/6/4 9/5/4
f 2/9/5 7/8/5 8/12/5
f 6/13/6 28/22/6 29/14/6
f 9/16/7 12/23/7 13/17/7
f 7/15/8 29/14/8 11/19/8
f 1/21/9 14/45/9 28/22/9
f 8/20/10 11/19/10 12/23/10
f 13/17/11 12/23/11 16/24/11
f 30/25/39 15/62/39 42/26/39
f 11/19/13 15/35/13 16/24/13
f 28/28/14 14/63/14 41/29/14
f 16/24/15 21/36/15 22/31/15
f 19/32/40 32/53/40 35/33/40
f 15/35/17 20/43/17 21/36/17
f 20/37/18 15/57/18 34/38/18
f 22/31/19 21/36/19 26/40/19
f 19/41/20 24/46/20 25/42/20
f 1/21/9 23/65/9 18/44/9
f 20/43/21 25/42/21 26/40/21
f 18/44/22 23/65/22 24/46/22
f 27/47/23 26/50/23 4/6/23
f 24/48/24 2/9/24 3/4/24
f 25/49/25 3/4/25 4/6/25
f 23/51/26 1/7/26 2/9/26
f 13/17/1 17/1/1 5/3/1
f 31/52/27 32/53/27 36/39/27
f 31/52/41 33/55/41 35/33/41
f 30/54/42 14/56/42 33/55/42
f 18/34/43 35/33/43 33/55/43
f 19/32/44 20/37/44 36/39/44
f 30/54/45 31/52/45 34/38/45
f 37/58/33 38/27/33 42/26/33
f 37/58/34 39/30/34 41/29/34
f 29/60/46 37/58/46 40/59/46
f 11/61/36 40/59/36 42/26/36
f 30/25/47 38/27/47 41/29/47
f 29/60/48 28/28/48 39/30/48
v -0.745116 1.460033 -0.635288
v -0.731647 1.443517 -0.654455
v -0.725891 1.417561 -0.665166
v -0.729390 1.389118 -0.664550
v -0.741208 1.365811 -0.652772
v -0.735038 1.455733 -0.609861
v -0.714190 1.436069 -0.610416
v -0.705733 1.408960 -0.614314
v -0.711933 1.381670 -0.620510
v -0.731129 1.361511 -0.627346
v -0.740276 1.399683 -0.572041
v -0.741848 1.373636 -0.583901
v -0.748401 1.356872 -0.606209
v -0.779660 1.450756 -0.593015
v -0.794977 1.399006 -0.580621
v -0.789221 1.373050 -0.591332
v -0.775751 1.356534 -0.610499
v -0.789738 1.455056 -0.618441
v -0.808934 1.434897 -0.625277
v -0.815135 1.407607 -0.631473
v -0.806678 1.380498 -0.635371
v -0.785830 1.360834 -0.635926
v -0.772467 1.459695 -0.639578
v -0.779019 1.442931 -0.661886
v -0.780591 1.416884 -0.673746
v -0.776763 1.388532 -0.671980
v -0.768558 1.365473 -0.657062
v -0.752309 1.451094 -0.588725
v -0.744105 1.428035 -0.573807
v -0.791477 1.427449 -0.581237
v -0.838166 1.446016 -0.583570
v -0.839590 1.446623 -0.587163
v -0.803862 1.455003 -0.590316
v -0.822177 1.414823 -0.585739
v -0.808851 1.457132 -0.602902
v -0.829916 1.418125 -0.605261
v -0.769036 1.439497 -0.533881
v -0.780249 1.439359 -0.535640
v -0.769166 1.447875 -0.550604
v -0.768988 1.420402 -0.546820
v -0.774305 1.447812 -0.551410
v -0.774142 1.420338 -0.547628
vt 0.274240 0.539347
vt 0.265397 0.539709
vt 0.266768 0.532487
vt 0.231414 0.551290
vt 0.214659 0.541092
vt 0.231357 0.542861
vt 0.231940 0.569242
vt 0.215985 0.562822
vt 0.231472 0.559719
vt 0.230890 0.533338
vt 0.220414 0.530957
vt 0.213134 0.552274
vt 0.289666 0.544440
vt 0.282983 0.540904
vt 0.290637 0.536818
vt 0.279682 0.529141
vt 0.275518 0.536619
vt 0.273707 0.532162
vt 0.280945 0.538772
vt 0.286431 0.530872
vt 0.290637 0.551375
vt 0.284312 0.543753
vt 0.278488 0.537315
vt 0.276318 0.541045
vt 0.804698 0.251197
vt 0.792375 0.255919
vt 0.792638 0.252041
vt 0.786357 0.239035
vt 0.792578 0.249274
vt 0.791489 0.249454
vt 0.271776 0.541127
vt 0.760733 0.199751
vt 0.757502 0.209505
vt 0.750621 0.206121
vt 0.278108 0.542645
vt 0.273009 0.544115
vt 0.772804 0.201934
vt 0.766718 0.213101
vt 0.766203 0.208706
vt 0.264007 0.548518
vt 0.277612 0.547903
vt 0.268747 0.555467
vt 0.275021 0.546378
vt 0.280714 0.548498
vt 0.281954 0.545638
vt 0.276612 0.557409
vt 0.240880 0.530957
vt 0.248168 0.561486
vt 0.249693 0.550306
vt 0.246843 0.539760
vt 0.242415 0.571620
vt 0.762287 0.211045
vt 0.762255 0.210544
vt 0.761023 0.221925
vt 0.757316 0.212491
vt 0.750922 0.216572
vt 0.772804 0.220841
vt 0.791613 0.252007
vt 0.791097 0.255536
vt 0.780068 0.250772
vt 0.780487 0.263708
vt 0.804698 0.264828
vt 0.798786 0.238814
vt 0.221949 0.571626
vt 0.283377 0.553479
vn 0.0408 -0.9824 -0.1823
vn 0.9156 -0.1210 -0.3834
vn 0.6767 0.7216 -0.1462
vn 0.7301 -0.5647 -0.3849
vn 0.8972 0.3232 -0.3010
vn 0.5633 0.5807 0.5878
vn 0.6167 -0.7056 0.3491
vn 0.7511 0.1416 0.6448
vn -0.0408 0.9824 0.1823
vn 0.7695 -0.3025 0.5624
vn -0.0867 -0.7840 0.6146
vn -0.8216 -0.4685 0.3247
vn -0.1369 -0.4036 0.9046
vn -0.0239 0.9970 0.0736
vn -0.6767 -0.7216 0.1462
vn -0.4438 0.6365 -0.6308
vn -0.8972 -0.3232 0.3010
vn -0.5099 -0.8584 0.0569
vn -0.5633 -0.5807 -0.5878
vn -0.7695 0.3025 -0.5624
vn -0.0407 0.9824 0.1823
vn -0.7511 -0.1416 -0.6448
vn -0.6167 0.7056 -0.3491
vn 0.1401 -0.5022 -0.8533
vn 0.1369 0.4036 -0.9046
vn 0.1553 -0.0405 -0.9870
vn 0.0867 0.7840 -0.6146
vn 0.0407 -0.9824 -0.1823
vn -0.8517 -0.4547 0.2607
vn -0.2015 0.9495 0.2405
vn 0.0921 0.3487 0.9327
vn 0.1822 0.9788 0.0933
vn -0.7450 0.1586 -0.6480
vn -0.1615 0.0412 0.9860
vn -0.1220 -0.5570 0.8215
vn -0.0811 0.8909 0.4469
vn 0.7082 0.1388 0.6922
vn -0.0804 -0.8131 0.5765
vn -0.8509 0.5048 0.1452
vn 0.7456 0.5981 0.2939
vn -0.8722 0.1176 0.4748
vn -0.5165 0.6083 -0.6026
vn 0.1676 0.3756 0.9115
vn -0.7733 0.3023 -0.5574
vn -0.0963 -0.1181 0.9883
vn 0.7308 -0.3816 0.5659
vn -0.7874 0.6155 0.0331
vn 0.7646 0.5191 0.3819
s off
f 59/66/49 69/67/49 47/68/49
f 45/69/50 51/70/50 46/71/50
f 43/72/51 49/73/51 44/74/51
f 47/75/52 51/70/52 52/76/52
f 44/74/53 50/77/53 45/69/53
f 48/78/54 71/79/54 49/80/54
f 51/81/55 55/82/55 52/83/55
f 49/80/56 53/84/56 50/85/56
f 43/86/57 70/87/57 48/78/57
f 50/85/58 54/88/58 51/81/58
f 55/82/59 58/89/59 59/66/59
f 72/90/60 84/91/60 80/92/60
f 53/84/61 58/89/61 54/88/61
f 70/93/62 83/94/62 81/95/62
f 58/89/63 64/96/63 59/66/63
f 61/97/64 77/98/64 60/99/64
f 57/100/65 63/101/65 58/89/65
f 62/102/66 76/103/66 78/104/66
f 64/96/67 68/105/67 69/67/67
f 61/106/68 67/107/68 62/108/68
f 43/86/69 60/109/69 56/110/69
f 62/108/70 68/105/70 63/101/70
f 60/109/71 66/111/71 61/106/71
f 69/112/72 46/71/72 47/75/72
f 66/113/73 45/69/73 67/114/73
f 67/114/74 46/71/74 68/115/74
f 65/116/75 44/74/75 66/113/75
f 55/82/76 47/68/76 52/83/76
f 73/117/77 78/104/77 76/103/77
f 73/117/78 77/98/78 74/118/78
f 72/119/79 75/120/79 73/117/79
f 60/99/80 75/120/80 56/121/80
f 61/97/81 78/104/81 74/118/81
f 72/119/82 76/103/82 57/122/82
f 79/123/83 84/91/83 82/124/83
f 79/123/84 83/94/84 80/92/84
f 71/125/85 82/124/85 53/126/85
f 53/126/86 84/91/86 57/127/86
f 72/90/87 83/94/87 56/128/87
f 71/125/88 81/95/88 79/123/88
f 59/66/76 64/96/76 69/67/76
f 45/69/50 50/77/50 51/70/50
f 43/72/51 48/129/51 49/73/51
f 47/75/52 46/71/52 51/70/52
f 44/74/53 49/73/53 50/77/53
f 48/78/54 70/87/54 71/79/54
f 51/81/55 54/88/55 55/82/55
f 49/80/56 71/79/56 53/84/56
f 43/86/57 56/110/57 70/87/57
f 50/85/58 53/84/58 54/88/58
f 55/82/59 54/88/59 58/89/59
f 72/90/89 57/127/89 84/91/89
f 53/84/61 57/100/61 58/89/61
f 70/93/62 56/128/62 83/94/62
f 58/89/63 63/101/63 64/96/63
f 61/97/90 74/118/90 77/98/90
f 57/100/65 62/108/65 63/101/65
f 62/102/66 57/122/66 76/103/66
f 64/96/67 63/101/67 68/105/67
f 61/106/68 66/111/68 67/107/68
f 43/86/69 65/130/69 60/109/69
f 62/108/70 67/107/70 68/105/70
f 60/109/71 65/130/71 66/111/71
f 69/112/72 68/115/72 46/71/72
f 66/113/73 44/74/73 45/69/73
f 67/114/74 45/69/74 46/71/74
f 65/116/75 43/72/75 44/74/75
f 55/82/49 59/66/49 47/68/49
f 73/117/77 74/118/77 78/104/77
f 73/117/78 75/120/78 77/98/78
f 72/119/91 56/121/91 75/120/91
f 60/99/80 77/98/80 75/120/80
f 61/97/92 62/102/92 78/104/92
f 72/119/93 73/117/93 76/103/93
f 79/123/83 80/92/83 84/91/83
f 79/123/84 81/95/84 83/94/84
f 71/125/94 79/123/94 82/124/94
f 53/126/86 82/124/86 84/91/86
f 72/90/95 80/92/95 83/94/95
f 71/125/96 70/93/96 81/95/96
