# Blender v2.81 (sub 16) OBJ File: 'garbage.blend'
# www.blender.org
v 0.157352 1.393674 0.104152
v 0.149375 1.377999 0.126786
v 0.142276 1.352675 0.138183
v 0.137958 1.324487 0.135290
v 0.137576 1.300988 0.118882
v 0.136917 1.395073 0.085523
v 0.113982 1.380424 0.094520
v 0.101408 1.355475 0.100925
v 0.102564 1.326911 0.103024
v 0.117141 1.302387 0.100253
v 0.111782 1.344785 0.047593
v 0.111549 1.317654 0.056837
v 0.122329 1.297042 0.073587
v 0.167727 1.382984 0.050820
v 0.163026 1.331296 0.031518
v 0.155927 1.305972 0.042916
v 0.147951 1.290298 0.065550
v 0.188161 1.381584 0.069449
v 0.202738 1.357060 0.066678
v 0.203895 1.328497 0.068776
v 0.191321 1.303548 0.075182
v 0.168385 1.288898 0.084178
v 0.182974 1.386929 0.096115
v 0.193754 1.366318 0.112865
v 0.193520 1.339187 0.122109
v 0.182336 1.312806 0.121369
v 0.163198 1.294243 0.110845
v 0.142105 1.389728 0.058857
v 0.122967 1.371166 0.048332
v 0.167345 1.359484 0.034411
v 0.213810 1.367166 0.016749
v 0.216698 1.366969 0.019382
v 0.188846 1.382287 0.037991
v 0.192907 1.340106 0.024755
v 0.198961 1.381594 0.047213
v 0.208596 1.339032 0.039059
v 0.131101 1.382284 0.001886
v 0.141605 1.379519 -0.001409
v 0.140245 1.388122 0.017123
v 0.131638 1.362082 0.013005
v 0.145059 1.386855 0.015613
v 0.136466 1.360811 0.011491
vt 0.274240 0.539347
vt 0.265397 0.539709
vt 0.266768 0.532487
vt 0.231414 0.551290
vt 0.214659 0.541092
vt 0.231357 0.542861
vt 0.231940 0.569242
vt 0.215985 0.562822
vt 0.231472 0.559719
vt 0.230890 0.533338
vt 0.220414 0.530957
vt 0.213134 0.552274
vt 0.289666 0.544440
vt 0.282983 0.540904
vt 0.290637 0.536818
vt 0.279682 0.529141
vt 0.275518 0.536619
vt 0.273707 0.532162
vt 0.280945 0.538772
vt 0.286431 0.530872
vt 0.290637 0.551375
vt 0.284312 0.543753
vt 0.278488 0.537315
vt 0.276318 0.541045
vt 0.804698 0.251197
vt 0.792375 0.255919
vt 0.792638 0.252041
vt 0.786357 0.239035
vt 0.792578 0.249274
vt 0.791489 0.249454
vt 0.271776 0.541127
vt 0.760733 0.199751
vt 0.757502 0.209505
vt 0.750621 0.206121
vt 0.278108 0.542645
vt 0.273009 0.544115
vt 0.772804 0.201934
vt 0.766718 0.213101
vt 0.766203 0.208706
vt 0.264007 0.548518
vt 0.277612 0.547903
vt 0.268747 0.555467
vt 0.275021 0.546378
vt 0.280714 0.548498
vt 0.281954 0.545638
vt 0.276612 0.557409
vt 0.240880 0.530957
vt 0.248168 0.561486
vt 0.249693 0.550306
vt 0.246843 0.539760
vt 0.242415 0.571620
vt 0.762287 0.211045
vt 0.762255 0.210544
vt 0.761023 0.221925
vt 0.757316 0.212491
vt 0.750922 0.216572
vt 0.772804 0.220841
vt 0.791613 0.252007
vt 0.791097 0.255536
vt 0.780068 0.250772
vt 0.780487 0.263708
vt 0.804698 0.264828
vt 0.798786 0.238814
vt 0.221949 0.571626
vt 0.283377 0.553479
vn -0.2062 -0.9664 0.1536
vn -0.6724 0.0271 0.7397
vn -0.3507 0.8232 0.4465
vn -0.6206 -0.4421 0.6476
vn -0.5792 0.4640 0.6702
vn -0.5910 0.7610 -0.2675
vn -0.8610 -0.5043 -0.0664
vn -0.8889 0.3839 -0.2499
vn 0.2062 0.9664 -0.1536
vn -0.9822 -0.0530 -0.1804
vn -0.3753 -0.6948 -0.6135
vn 0.4669 -0.5853 -0.6629
vn -0.3563 -0.2986 -0.8854
vn 0.2401 0.9695 -0.0480
vn 0.3507 -0.8232 -0.4465
vn 0.8092 0.4366 0.3932
vn 0.5792 -0.4640 -0.6702
vn 0.2074 -0.9319 -0.2975
vn 0.5910 -0.7610 0.2675
vn 0.9822 0.0530 0.1804
vn 0.8889 -0.3839 0.2499
vn 0.8610 0.5043 0.0664
vn 0.1054 -0.5705 0.8145
vn 0.3563 0.2986 0.8854
vn 0.2631 -0.1383 0.9548
vn 0.3753 0.6948 0.6135
vn 0.5231 -0.5869 -0.6179
vn 0.3145 0.9080 -0.2768
vn -0.3798 0.4821 -0.7895
vn 0.0471 0.9986 0.0233
vn 0.9601 -0.0925 0.2640
vn -0.2571 0.1376 -0.9566
vn -0.3734 -0.4549 -0.8085
vn 0.1089 0.9047 -0.4120
vn -0.8718 0.3783 -0.3113
vn -0.3724 -0.7268 -0.5772
vn 0.8107 0.3262 -0.4861
vn -0.6243 0.7774 0.0768
vn 0.5958 -0.0089 -0.8031
vn 0.8541 0.3976 0.3354
vn 0.3145 0.9080 -0.2767
vn -0.4303 0.5215 -0.7368
vn 0.9833 0.0526 0.1742
vn -0.3550 -0.0024 -0.9349
vn 0.1089 0.9047 -0.4119
vn -0.9696 -0.1373 -0.2027
vn -0.3724 -0.7267 -0.5772
vn 0.8294 0.4319 -0.3544
vn -0.6972 0.7169 0.0035
s off
f 17/1/1 27/2/1 5/3/1
f 3/4/2 9/5/2 4/6/2
f 1/7/3 7/8/3 2/9/3
f 5/10/4 9/5/4 10/11/4
f 2/9/5 8/12/5 3/4/5
f 6/13/6 29/14/6 7/15/6
f 9/16/7 13/17/7 10/18/7
f 7/15/8 11/19/8 8/20/8
f 1/21/9 28/22/9 6/13/9
f 8/20/10 12/23/10 9/16/10
f 13/17/11 16/24/11 17/1/11
f 30/25/12 42/26/12 38/27/12
f 11/19/13 16/24/13 12/23/13
f 28/28/14 41/29/14 39/30/14
f 16/24/15 22/31/15 17/1/15
f 19/32/16 35/33/16 18/34/16
f 15/35/17 21/36/17 16/24/17
f 20/37/18 34/38/18 36/39/18
f 22/31/19 26/40/19 27/2/19
f 19/41/20 25/42/20 20/43/20
f 1/21/9 18/44/9 14/45/9
f 20/43/21 26/40/21 21/36/21
f 18/44/22 24/46/22 19/41/22
f 27/47/23 4/6/23 5/10/23
f 24/48/24 3/4/24 25/49/24
f 25/49/25 4/6/25 26/50/25
f 23/51/26 2/9/26 24/48/26
f 13/17/1 5/3/1 10/18/1
f 31/52/27 36/39/27 34/38/27
f 31/52/28 35/33/28 32/53/28
f 30/54/29 33/55/29 31/52/29
f 18/34/30 33/55/30 14/56/30
f 19/32/31 36/39/31 32/53/31
f 30/54/32 34/38/32 15/57/32
f 37/58/33 42/26/33 40/59/33
f 37/58/34 41/29/34 38/27/34
f 29/60/35 40/59/35 11/61/35
f 11/61/36 42/26/36 15/62/36
f 30/25/37 41/29/37 14/63/37
f 29/60/38 39/30/38 37/58/38
f 17/1/1 22/31/1 27/2/1
f 3/4/2 8/12/2 9/5/2
f 1/7/3 6/64/3 7/8/3
f 5/10/4 4/6/4 9/5/4
f 2/9/5 7/8/5 8/12/5
f 6/13/6 28/22/6 29/14/6
f 9/16/7 12/23/7 13/17/7
f 7/15/8 29/14/8 11/19/8
f 1/21/9 14/45/9 28/22/9
f 8/20/10 11/19/10 12/23/10
f 13/17/11 12/23/11 16/24/11
f 30/25/39 15/62/39 42/26/39
f 11/19/13 15/35/13 16/24/13
f 28/28/14 14/63/14 41/29/14
f 16/24/15 21/36/15 22/31/15
f 19/32/40 32/53/40 35/33/40
f 15/35/17 20/43/17 21/36/17
f 20/37/18 15/57/18 34/38/18
f 22/31/19 21/36/19 26/40/19
f 19/41/20 24/46/20 25/42/20
f 1/21/9 23/65/9 18/44/9
f 20/43/21 25/42/21 26/40/21
f 18/44/22 23/65/22 24/46/22
f 27/47/23 26/50/23 4/6/23
f 24/48/24 2/9/24 3/4/24
f 25/49/25 3/4/25 4/6/25
f 23/51/26 1/7/26 2/9/26
f 13/17/1 17/1/1 5/3/1
f 31/52/27 32/53/27 36/39/27
f 31/52/41 33/55/41 35/33/41
f 30/54/42 14/56/42 33/55/42
f 18/34/30 35/33/30 33/55/30
f 19/32/43 20/37/43 36/39/43
f 30/54/44 31/52/44 34/38/44
f 37/58/33 38/27/33 42/26/33
f 37/58/45 39/30/45 41/29/45
f 29/60/46 37/58/46 40/59/46
f 11/61/47 40/59/47 42/26/47
f 30/25/48 38/27/48 41/29/48
f 29/60/49 28/28/49 39/30/49
v -0.803171 1.054837 0.169325
v -0.807075 1.030708 0.154353
v -0.804657 1.002237 0.152082
v -0.796563 0.977053 0.163120
v -0.784963 0.961903 0.184510
v -0.776194 1.060534 0.171848
v -0.760350 1.040576 0.158723
v -0.750704 1.013632 0.157128
v -0.749838 0.986921 0.167490
v -0.757986 0.967601 0.187033
v -0.729524 1.025898 0.206799
v -0.731496 0.997544 0.210506
v -0.747396 0.973734 0.211869
v -0.781991 1.067102 0.218996
v -0.762297 1.026769 0.251424
v -0.759878 0.998298 0.249153
v -0.763783 0.974169 0.234181
v -0.808967 1.061405 0.216473
v -0.817115 1.042084 0.236016
v -0.816250 1.015374 0.246378
v -0.806603 0.988429 0.244783
v -0.790759 0.968471 0.231658
v -0.819557 1.055272 0.191637
v -0.835458 1.031462 0.193000
v -0.837430 1.003108 0.196707
v -0.824945 0.977807 0.201767
v -0.801349 0.962338 0.206823
v -0.765604 1.066667 0.196683
v -0.742008 1.051199 0.201739
v -0.770391 1.051953 0.240386
v -0.800510 1.072101 0.275269
v -0.804322 1.071296 0.274913
v -0.792659 1.074294 0.240104
v -0.784544 1.041481 0.268884
v -0.806012 1.071473 0.238855
v -0.805257 1.037106 0.266947
v -0.724929 1.080394 0.236423
v -0.731647 1.080572 0.245570
v -0.741390 1.081075 0.227568
v -0.729275 1.057741 0.236391
v -0.744469 1.081157 0.231760
v -0.732362 1.057823 0.240596
vt 0.274240 0.539347
vt 0.265397 0.539709
vt 0.266768 0.532487
vt 0.231414 0.551290
vt 0.214659 0.541092
vt 0.231357 0.542861
vt 0.231940 0.569242
vt 0.215985 0.562822
vt 0.231472 0.559719
vt 0.230890 0.533338
vt 0.220414 0.530957
vt 0.213134 0.552274
vt 0.289666 0.544440
vt 0.282983 0.540904
vt 0.290637 0.536818
vt 0.279682 0.529141
vt 0.275518 0.536619
vt 0.273707 0.532162
vt 0.280945 0.538772
vt 0.286431 0.530872
vt 0.290637 0.551375
vt 0.284312 0.543753
vt 0.278488 0.537315
vt 0.276318 0.541045
vt 0.804698 0.251197
vt 0.792375 0.255919
vt 0.792638 0.252041
vt 0.786357 0.239035
vt 0.792578 0.249274
vt 0.791489 0.249454
vt 0.271776 0.541127
vt 0.760733 0.199751
vt 0.757502 0.209505
vt 0.750621 0.206121
vt 0.278108 0.542645
vt 0.273009 0.544115
vt 0.772804 0.201934
vt 0.766718 0.213101
vt 0.766203 0.208706
vt 0.264007 0.548518
vt 0.277612 0.547903
vt 0.268747 0.555467
vt 0.275021 0.546378
vt 0.280714 0.548498
vt 0.281954 0.545638
vt 0.276612 0.557409
vt 0.240880 0.530957
vt 0.248168 0.561486
vt 0.249693 0.550306
vt 0.246843 0.539760
vt 0.242415 0.571620
vt 0.762287 0.211045
vt 0.762255 0.210544
vt 0.761023 0.221925
vt 0.757316 0.212491
vt 0.750922 0.216572
vt 0.772804 0.220841
vt 0.791613 0.252007
vt 0.791097 0.255536
vt 0.780068 0.250772
vt 0.780487 0.263708
vt 0.804698 0.264828
vt 0.798786 0.238814
vt 0.221949 0.571626
vt 0.283377 0.553479
vn 0.1898 -0.9690 0.1583
vn 0.1607 -0.3525 -0.9219
vn -0.0329 0.5308 -0.8469
vn 0.2157 -0.7379 -0.6396
vn 0.0748 0.0856 -0.9935
vn 0.5593 0.7173 -0.4156
vn 0.8078 -0.5514 -0.2083
vn 0.8379 0.3259 -0.4378
vn -0.1898 0.9690 -0.1583
vn 0.9238 -0.1121 -0.3662
vn 0.7165 -0.4479 0.5349
vn 0.0277 -0.2144 0.9764
vn 0.8060 0.0213 0.5915
vn -0.2755 0.9357 -0.2206
vn 0.0329 -0.5308 0.8469
vn -0.9336 0.3563 -0.0370
vn -0.0748 -0.0856 0.9935
vn 0.0836 -0.7070 0.7023
vn -0.5593 -0.7173 0.4156
vn -0.9238 0.1121 0.3662
vn -0.8379 -0.3259 0.4378
vn -0.8078 0.5514 0.2083
vn -0.4679 -0.8208 -0.3276
vn -0.8060 -0.0213 -0.5915
vn -0.7202 -0.4593 -0.5199
vn -0.7165 0.4478 -0.5349
vn -0.0434 -0.2256 0.9733
vn -0.2079 0.9780 0.0146
vn 0.6930 0.6932 0.1979
vn -0.1556 0.9084 -0.3881
vn -0.9352 -0.0559 0.3496
vn 0.7162 0.4602 0.5248
vn 0.7950 -0.1533 0.5869
vn 0.0371 0.9993 0.0078
vn 0.8572 0.3469 -0.3805
vn 0.6977 -0.4906 0.5220
vn -0.4496 0.5956 0.6657
vn 0.3998 0.5947 -0.6975
vn 0.7165 -0.4478 0.5349
vn -0.0642 0.3832 0.9214
vn -0.2754 0.9357 -0.2205
vn -0.9359 0.3492 0.0456
vn 0.7027 0.7019 0.1160
vn -0.9213 0.1143 0.3716
vn 0.8008 0.3108 0.5119
vn 0.9340 -0.1787 -0.3095
vn 0.6978 -0.4905 0.5220
vn -0.5471 0.6437 0.5352
vn 0.5066 0.5579 -0.6574
s off
f 59/66/50 69/67/50 47/68/50
f 45/69/51 51/70/51 46/71/51
f 43/72/52 49/73/52 44/74/52
f 47/75/53 51/70/53 52/76/53
f 44/74/54 50/77/54 45/69/54
f 48/78/55 71/79/55 49/80/55
f 51/81/56 55/82/56 52/83/56
f 49/80/57 53/84/57 50/85/57
f 43/86/58 70/87/58 48/78/58
f 50/85/59 54/88/59 51/81/59
f 55/82/60 58/89/60 59/66/60
f 72/90/61 84/91/61 80/92/61
f 53/84/62 58/89/62 54/88/62
f 70/93/63 83/94/63 81/95/63
f 58/89/64 64/96/64 59/66/64
f 61/97/65 77/98/65 60/99/65
f 57/100/66 63/101/66 58/89/66
f 62/102/67 76/103/67 78/104/67
f 64/96/68 68/105/68 69/67/68
f 61/106/69 67/107/69 62/108/69
f 43/86/58 60/109/58 56/110/58
f 62/108/70 68/105/70 63/101/70
f 60/109/71 66/111/71 61/106/71
f 69/112/72 46/71/72 47/75/72
f 66/113/73 45/69/73 67/114/73
f 67/114/74 46/71/74 68/115/74
f 65/116/75 44/74/75 66/113/75
f 55/82/50 47/68/50 52/83/50
f 73/117/76 78/104/76 76/103/76
f 73/117/77 77/98/77 74/118/77
f 72/119/78 75/120/78 73/117/78
f 60/99/79 75/120/79 56/121/79
f 61/97/80 78/104/80 74/118/80
f 72/119/81 76/103/81 57/122/81
f 79/123/82 84/91/82 82/124/82
f 79/123/83 83/94/83 80/92/83
f 71/125/84 82/124/84 53/126/84
f 53/126/85 84/91/85 57/127/85
f 72/90/86 83/94/86 56/128/86
f 71/125/87 81/95/87 79/123/87
f 59/66/50 64/96/50 69/67/50
f 45/69/51 50/77/51 51/70/51
f 43/72/52 48/129/52 49/73/52
f 47/75/53 46/71/53 51/70/53
f 44/74/54 49/73/54 50/77/54
f 48/78/55 70/87/55 71/79/55
f 51/81/56 54/88/56 55/82/56
f 49/80/57 71/79/57 53/84/57
f 43/86/58 56/110/58 70/87/58
f 50/85/59 53/84/59 54/88/59
f 55/82/88 54/88/88 58/89/88
f 72/90/89 57/127/89 84/91/89
f 53/84/62 57/100/62 58/89/62
f 70/93/90 56/128/90 83/94/90
f 58/89/64 63/101/64 64/96/64
f 61/97/91 74/118/91 77/98/91
f 57/100/66 62/108/66 63/101/66
f 62/102/67 57/122/67 76/103/67
f 64/96/68 63/101/68 68/105/68
f 61/106/69 66/111/69 67/107/69
f 43/86/58 65/130/58 60/109/58
f 62/108/70 67/107/70 68/105/70
f 60/109/71 65/130/71 66/111/71
f 69/112/72 68/115/72 46/71/72
f 66/113/73 44/74/73 45/69/73
f 67/114/74 45/69/74 46/71/74
f 65/116/75 43/72/75 44/74/75
f 55/82/50 59/66/50 47/68/50
f 73/117/76 74/118/76 78/104/76
f 73/117/77 75/120/77 77/98/77
f 72/119/92 56/121/92 75/120/92
f 60/99/79 77/98/79 75/120/79
f 61/97/93 62/102/93 78/104/93
f 72/119/94 73/117/94 76/103/94
f 79/123/82 80/92/82 84/91/82
f 79/123/83 81/95/83 83/94/83
f 71/125/95 79/123/95 82/124/95
f 53/126/96 82/124/96 84/91/96
f 72/90/97 80/92/97 83/94/97
f 71/125/98 70/93/98 81/95/98
