# Blender v2.81 (sub 16) OBJ File: 'garbage.blend'
# www.blender.org
v -0.193567 1.426966 -0.690605
v -0.192160 1.398355 -0.691607
v -0.202098 1.372714 -0.683520
v -0.220718 1.356915 -0.668511
v -0.243031 1.355190 -0.650601
v -0.186663 1.436231 -0.665444
v -0.180201 1.414402 -0.648027
v -0.188289 1.391244 -0.633199
v -0.208759 1.372962 -0.624931
v -0.236126 1.364455 -0.625441
v -0.220692 1.427972 -0.607365
v -0.236821 1.404770 -0.602559
v -0.252328 1.382819 -0.612524
v -0.225970 1.463694 -0.664771
v -0.266903 1.446170 -0.631852
v -0.276841 1.420529 -0.623765
v -0.275433 1.391918 -0.624767
v -0.232874 1.454429 -0.689931
v -0.260241 1.445922 -0.690441
v -0.280711 1.427640 -0.682173
v -0.288799 1.404482 -0.667345
v -0.282337 1.382653 -0.649928
v -0.216673 1.436065 -0.702848
v -0.232180 1.414115 -0.712813
v -0.248309 1.390912 -0.708007
v -0.260737 1.372675 -0.689718
v -0.266136 1.364289 -0.662845
v -0.202864 1.454595 -0.652527
v -0.208263 1.446210 -0.625655
v -0.248283 1.461969 -0.646861
v -0.276963 1.492663 -0.674526
v -0.277939 1.491353 -0.678082
v -0.243673 1.478771 -0.673158
v -0.280979 1.464747 -0.653601
v -0.247091 1.474185 -0.685612
v -0.286280 1.457633 -0.672919
v -0.221278 1.490117 -0.609850
v -0.230750 1.493847 -0.614870
v -0.217340 1.484615 -0.627289
v -0.232251 1.469840 -0.609165
v -0.221681 1.486325 -0.629589
v -0.236605 1.471554 -0.611472
vt 0.274240 0.539347
vt 0.265397 0.539709
vt 0.266768 0.532487
vt 0.231414 0.551290
vt 0.214659 0.541092
vt 0.231357 0.542861
vt 0.231940 0.569242
vt 0.215985 0.562822
vt 0.231472 0.559719
vt 0.230890 0.533338
vt 0.220414 0.530957
vt 0.213134 0.552274
vt 0.289666 0.544440
vt 0.282983 0.540904
vt 0.290637 0.536818
vt 0.279682 0.529141
vt 0.275518 0.536619
vt 0.273707 0.532162
vt 0.280945 0.538772
vt 0.286431 0.530872
vt 0.290637 0.551375
vt 0.284312 0.543753
vt 0.278488 0.537315
vt 0.276318 0.541045
vt 0.804698 0.251197
vt 0.792375 0.255919
vt 0.792638 0.252041
vt 0.786357 0.239035
vt 0.792578 0.249274
vt 0.791489 0.249454
vt 0.271776 0.541127
vt 0.760733 0.199751
vt 0.757502 0.209505
vt 0.750621 0.206121
vt 0.278108 0.542645
vt 0.273009 0.544115
vt 0.772804 0.201934
vt 0.766718 0.213101
vt 0.766203 0.208706
vt 0.264007 0.548518
vt 0.277612 0.547903
vt 0.268747 0.555467
vt 0.275021 0.546378
vt 0.280714 0.548498
vt 0.281954 0.545638
vt 0.276612 0.557409
vt 0.240880 0.530957
vt 0.248168 0.561486
vt 0.249693 0.550306
vt 0.246843 0.539760
vt 0.242415 0.571620
vt 0.762287 0.211045
vt 0.762255 0.210544
vt 0.761023 0.221925
vt 0.757316 0.212491
vt 0.750922 0.216572
vt 0.772804 0.220841
vt 0.791613 0.252007
vt 0.791097 0.255536
vt 0.780068 0.250772
vt 0.780487 0.263708
vt 0.804698 0.264828
vt 0.798786 0.238814
vt 0.221949 0.571626
vt 0.283377 0.553479
vn -0.5157 -0.7484 0.4171
vn 0.6819 -0.7270 0.0806
vn 0.9572 0.0570 -0.2837
vn 0.2820 -0.9228 0.2624
vn 0.9150 -0.3887 -0.1080
vn 0.8107 0.4925 0.3166
vn 0.1354 -0.4873 0.8627
vn 0.7262 0.1725 0.6655
vn 0.5157 0.7484 -0.4171
vn 0.4930 -0.1658 0.8541
vn -0.4842 -0.0544 0.8733
vn -0.9317 0.2800 0.2316
vn -0.3054 0.3921 0.8678
vn 0.5340 0.6799 -0.5025
vn -0.9572 -0.0570 0.2837
vn -0.0396 0.1861 -0.9817
vn -0.9150 0.3887 0.1080
vn -0.8971 -0.2736 0.3469
vn -0.8107 -0.4925 -0.3166
vn -0.4930 0.1658 -0.8541
vn -0.7262 -0.1725 -0.6655
vn -0.1354 0.4873 -0.8627
vn -0.1911 -0.9254 -0.3272
vn 0.3054 -0.3921 -0.8678
vn 0.0723 -0.7304 -0.6792
vn 0.4842 0.0544 -0.8733
vn -0.9512 0.2606 0.1651
vn 0.3658 0.8363 -0.4083
vn 0.3022 0.7784 0.5503
vn 0.6962 0.5903 -0.4084
vn -0.5552 0.0100 -0.8317
vn -0.0771 0.7329 0.6759
vn -0.3807 0.2362 0.8940
vn 0.4408 0.8798 -0.1780
vn 0.6906 0.2203 0.6889
vn -0.4963 -0.0999 0.8624
vn -0.4241 0.7843 -0.4528
vn 0.9617 0.2334 0.1435
vn -0.6444 0.7647 0.0055
vn 0.5340 0.6800 -0.5025
vn -0.1147 0.2189 -0.9690
vn 0.3792 0.7482 0.5445
vn -0.4962 0.1706 -0.8513
vn -0.1108 0.6062 0.7875
vn 0.4172 -0.1958 0.8875
vn -0.3140 0.7530 -0.5783
vn 0.9370 0.2325 0.2608
s off
f 17/1/1 27/2/1 5/3/1
f 3/4/2 9/5/2 4/6/2
f 1/7/3 7/8/3 2/9/3
f 5/10/4 9/5/4 10/11/4
f 2/9/5 8/12/5 3/4/5
f 6/13/6 29/14/6 7/15/6
f 9/16/7 13/17/7 10/18/7
f 7/15/8 11/19/8 8/20/8
f 1/21/9 28/22/9 6/13/9
f 8/20/10 12/23/10 9/16/10
f 13/17/11 16/24/11 17/1/11
f 30/25/12 42/26/12 38/27/12
f 11/19/13 16/24/13 12/23/13
f 28/28/14 41/29/14 39/30/14
f 16/24/15 22/31/15 17/1/15
f 19/32/16 35/33/16 18/34/16
f 15/35/17 21/36/17 16/24/17
f 20/37/18 34/38/18 36/39/18
f 22/31/19 26/40/19 27/2/19
f 19/41/20 25/42/20 20/43/20
f 1/21/9 18/44/9 14/45/9
f 20/43/21 26/40/21 21/36/21
f 18/44/22 24/46/22 19/41/22
f 27/47/23 4/6/23 5/10/23
f 24/48/24 3/4/24 25/49/24
f 25/49/25 4/6/25 26/50/25
f 23/51/26 2/9/26 24/48/26
f 13/17/1 5/3/1 10/18/1
f 31/52/27 36/39/27 34/38/27
f 31/52/28 35/33/28 32/53/28
f 30/54/29 33/55/29 31/52/29
f 18/34/30 33/55/30 14/56/30
f 19/32/31 36/39/31 32/53/31
f 30/54/32 34/38/32 15/57/32
f 37/58/33 42/26/33 40/59/33
f 37/58/34 41/29/34 38/27/34
f 29/60/35 40/59/35 11/61/35
f 11/61/36 42/26/36 15/62/36
f 30/25/37 41/29/37 14/63/37
f 29/60/38 39/30/38 37/58/38
f 17/1/1 22/31/1 27/2/1
f 3/4/2 8/12/2 9/5/2
f 1/7/3 6/64/3 7/8/3
f 5/10/4 4/6/4 9/5/4
f 2/9/5 7/8/5 8/12/5
f 6/13/6 28/22/6 29/14/6
f 9/16/7 12/23/7 13/17/7
f 7/15/8 29/14/8 11/19/8
f 1/21/9 14/45/9 28/22/9
f 8/20/10 11/19/10 12/23/10
f 13/17/11 12/23/11 16/24/11
f 30/25/39 15/62/39 42/26/39
f 11/19/13 15/35/13 16/24/13
f 28/28/40 14/63/40 41/29/40
f 16/24/15 21/36/15 22/31/15
f 19/32/41 32/53/41 35/33/41
f 15/35/17 20/43/17 21/36/17
f 20/37/18 15/57/18 34/38/18
f 22/31/19 21/36/19 26/40/19
f 19/41/20 24/46/20 25/42/20
f 1/21/9 23/65/9 18/44/9
f 20/43/21 25/42/21 26/40/21
f 18/44/22 23/65/22 24/46/22
f 27/47/23 26/50/23 4/6/23
f 24/48/24 2/9/24 3/4/24
f 25/49/25 3/4/25 4/6/25
f 23/51/26 1/7/26 2/9/26
f 13/17/1 17/1/1 5/3/1
f 31/52/27 32/53/27 36/39/27
f 31/52/28 33/55/28 35/33/28
f 30/54/42 14/56/42 33/55/42
f 18/34/30 35/33/30 33/55/30
f 19/32/43 20/37/43 36/39/43
f 30/54/44 31/52/44 34/38/44
f 37/58/33 38/27/33 42/26/33
f 37/58/34 39/30/34 41/29/34
f 29/60/45 37/58/45 40/59/45
f 11/61/36 40/59/36 42/26/36
f 30/25/46 38/27/46 41/29/46
f 29/60/47 28/28/47 39/30/47
v 1.378701 1.261991 -0.378845
v 1.366004 1.246056 -0.358684
v 1.358511 1.220365 -0.348416
v 1.358230 1.191802 -0.350793
v 1.365237 1.168019 -0.365177
v 1.364748 1.260519 -0.402714
v 1.341836 1.243506 -0.400026
v 1.330605 1.217420 -0.396154
v 1.334063 1.189252 -0.392135
v 1.351284 1.166547 -0.389046
v 1.357521 1.206700 -0.443343
v 1.357373 1.179968 -0.433002
v 1.364742 1.161187 -0.412640
v 1.405617 1.251271 -0.426034
v 1.412343 1.198925 -0.442795
v 1.404850 1.173234 -0.432527
v 1.392153 1.157299 -0.412366
v 1.419570 1.252743 -0.402166
v 1.436791 1.230039 -0.399077
v 1.440249 1.201870 -0.395058
v 1.429018 1.175784 -0.391186
v 1.406106 1.158772 -0.388498
v 1.406112 1.258103 -0.378571
v 1.413481 1.239323 -0.358210
v 1.413333 1.212590 -0.347869
v 1.405707 1.185068 -0.350319
v 1.392648 1.164132 -0.364903
v 1.378206 1.255158 -0.426308
v 1.365147 1.234222 -0.440893
v 1.412624 1.227488 -0.440419
v 1.461174 1.240130 -0.444035
v 1.463146 1.240338 -0.440662
v 1.429559 1.252739 -0.432011
v 1.441785 1.211011 -0.440965
v 1.436466 1.253467 -0.420196
v 1.452498 1.212141 -0.422638
v 1.385595 1.245060 -0.483454
v 1.396833 1.243466 -0.483341
v 1.389098 1.252308 -0.466570
v 1.384892 1.225344 -0.471504
v 1.394248 1.251577 -0.466518
v 1.390057 1.224611 -0.471452
vt 0.274240 0.539347
vt 0.265397 0.539709
vt 0.266768 0.532487
vt 0.231414 0.551290
vt 0.214659 0.541092
vt 0.231357 0.542861
vt 0.231940 0.569242
vt 0.215985 0.562822
vt 0.231472 0.559719
vt 0.230890 0.533338
vt 0.220414 0.530957
vt 0.213134 0.552274
vt 0.289666 0.544440
vt 0.282983 0.540904
vt 0.290637 0.536818
vt 0.279682 0.529141
vt 0.275518 0.536619
vt 0.273707 0.532162
vt 0.280945 0.538772
vt 0.286431 0.530872
vt 0.290637 0.551375
vt 0.284312 0.543753
vt 0.278488 0.537315
vt 0.276318 0.541045
vt 0.804698 0.251197
vt 0.792375 0.255919
vt 0.792638 0.252041
vt 0.786357 0.239035
vt 0.792578 0.249274
vt 0.791489 0.249454
vt 0.271776 0.541127
vt 0.760733 0.199751
vt 0.757502 0.209505
vt 0.750621 0.206121
vt 0.278108 0.542645
vt 0.273009 0.544115
vt 0.772804 0.201934
vt 0.766718 0.213101
vt 0.766203 0.208706
vt 0.264007 0.548518
vt 0.277612 0.547903
vt 0.268747 0.555467
vt 0.275021 0.546378
vt 0.280714 0.548498
vt 0.281954 0.545638
vt 0.276612 0.557409
vt 0.240880 0.530957
vt 0.248168 0.561486
vt 0.249693 0.550306
vt 0.246843 0.539760
vt 0.242415 0.571620
vt 0.762287 0.211045
vt 0.762255 0.210544
vt 0.761023 0.221925
vt 0.757316 0.212491
vt 0.750922 0.216572
vt 0.772804 0.220841
vt 0.791613 0.252007
vt 0.791097 0.255536
vt 0.780068 0.250772
vt 0.780487 0.263708
vt 0.804698 0.264828
vt 0.798786 0.238814
vt 0.221949 0.571626
vt 0.283377 0.553479
vn -0.1404 -0.9798 0.1425
vn -0.8619 -0.0336 0.5059
vn -0.5523 0.7872 0.2743
vn -0.7361 -0.4956 0.4609
vn -0.7984 0.4093 0.4415
vn -0.5601 0.6795 -0.4739
vn -0.7439 -0.6033 -0.2873
vn -0.8085 0.2705 -0.5226
vn 0.1404 0.9798 -0.1425
vn -0.8720 -0.1724 -0.4582
vn -0.0997 -0.7491 -0.6549
vn 0.7024 -0.5428 -0.4605
vn -0.0418 -0.3603 -0.9319
vn 0.1407 0.9895 -0.0320
vn 0.5523 -0.7872 -0.2743
vn 0.6041 0.5382 0.5877
vn 0.7985 -0.4093 -0.4415
vn 0.3833 -0.9082 -0.1680
vn 0.5601 -0.6795 0.4739
vn 0.8720 0.1724 0.4582
vn 0.8085 -0.2705 0.5226
vn 0.7439 0.6033 0.2873
vn -0.0841 -0.5337 0.8415
vn 0.0418 0.3603 0.9319
vn -0.0217 -0.0827 0.9963
vn 0.0997 0.7491 0.6549
vn 0.7425 -0.5366 -0.4009
vn 0.2861 0.9315 -0.2247
vn -0.1744 0.4144 -0.8932
vn -0.0668 0.9975 -0.0225
vn 0.8413 0.0275 0.5399
vn 0.0280 0.0826 -0.9962
vn -0.0646 -0.5156 -0.8544
vn 0.1319 0.9007 -0.4140
vn -0.7733 0.2655 -0.5758
vn -0.1044 -0.7796 -0.6176
vn 0.8802 0.4070 -0.2441
vn -0.6964 0.7005 -0.1562
vn 0.8063 0.0412 -0.5901
vn 0.6681 0.5033 0.5480
vn 0.7984 -0.4093 -0.4415
vn 0.7439 0.6034 0.2873
vn 0.7424 -0.5367 -0.4009
vn -0.2423 0.4489 -0.8601
vn 0.8750 0.1720 0.4526
vn -0.0567 -0.0673 -0.9961
vn -0.8446 -0.2552 -0.4708
vn 0.8475 0.5173 -0.1192
vn -0.7373 0.6299 -0.2441
s off
f 59/66/48 69/67/48 47/68/48
f 45/69/49 51/70/49 46/71/49
f 43/72/50 49/73/50 44/74/50
f 47/75/51 51/70/51 52/76/51
f 44/74/52 50/77/52 45/69/52
f 48/78/53 71/79/53 49/80/53
f 51/81/54 55/82/54 52/83/54
f 49/80/55 53/84/55 50/85/55
f 43/86/56 70/87/56 48/78/56
f 50/85/57 54/88/57 51/81/57
f 55/82/58 58/89/58 59/66/58
f 72/90/59 84/91/59 80/92/59
f 53/84/60 58/89/60 54/88/60
f 70/93/61 83/94/61 81/95/61
f 58/89/62 64/96/62 59/66/62
f 61/97/63 77/98/63 60/99/63
f 57/100/64 63/101/64 58/89/64
f 62/102/65 76/103/65 78/104/65
f 64/96/66 68/105/66 69/67/66
f 61/106/67 67/107/67 62/108/67
f 43/86/56 60/109/56 56/110/56
f 62/108/68 68/105/68 63/101/68
f 60/109/69 66/111/69 61/106/69
f 69/112/70 46/71/70 47/75/70
f 66/113/71 45/69/71 67/114/71
f 67/114/72 46/71/72 68/115/72
f 65/116/73 44/74/73 66/113/73
f 55/82/48 47/68/48 52/83/48
f 73/117/74 78/104/74 76/103/74
f 73/117/75 77/98/75 74/118/75
f 72/119/76 75/120/76 73/117/76
f 60/99/77 75/120/77 56/121/77
f 61/97/78 78/104/78 74/118/78
f 72/119/79 76/103/79 57/122/79
f 79/123/80 84/91/80 82/124/80
f 79/123/81 83/94/81 80/92/81
f 71/125/82 82/124/82 53/126/82
f 53/126/83 84/91/83 57/127/83
f 72/90/84 83/94/84 56/128/84
f 71/125/85 81/95/85 79/123/85
f 59/66/48 64/96/48 69/67/48
f 45/69/49 50/77/49 51/70/49
f 43/72/50 48/129/50 49/73/50
f 47/75/51 46/71/51 51/70/51
f 44/74/52 49/73/52 50/77/52
f 48/78/53 70/87/53 71/79/53
f 51/81/54 54/88/54 55/82/54
f 49/80/55 71/79/55 53/84/55
f 43/86/56 56/110/56 70/87/56
f 50/85/57 53/84/57 54/88/57
f 55/82/58 54/88/58 58/89/58
f 72/90/86 57/127/86 84/91/86
f 53/84/60 57/100/60 58/89/60
f 70/93/61 56/128/61 83/94/61
f 58/89/62 63/101/62 64/96/62
f 61/97/87 74/118/87 77/98/87
f 57/100/88 62/108/88 63/101/88
f 62/102/65 57/122/65 76/103/65
f 64/96/66 63/101/66 68/105/66
f 61/106/67 66/111/67 67/107/67
f 43/86/56 65/130/56 60/109/56
f 62/108/68 67/107/68 68/105/68
f 60/109/89 65/130/89 66/111/89
f 69/112/70 68/115/70 46/71/70
f 66/113/71 44/74/71 45/69/71
f 67/114/72 45/69/72 46/71/72
f 65/116/73 43/72/73 44/74/73
f 55/82/48 59/66/48 47/68/48
f 73/117/90 74/118/90 78/104/90
f 73/117/75 75/120/75 77/98/75
f 72/119/91 56/121/91 75/120/91
f 60/99/77 77/98/77 75/120/77
f 61/97/92 62/102/92 78/104/92
f 72/119/93 73/117/93 76/103/93
f 79/123/80 80/92/80 84/91/80
f 79/123/81 81/95/81 83/94/81
f 71/125/94 79/123/94 82/124/94
f 53/126/83 82/124/83 84/91/83
f 72/90/95 80/92/95 83/94/95
f 71/125/96 70/93/96 81/95/96
