# Blender v2.81 (sub 16) OBJ File: 'garbage.blend'
# www.blender.org
v -0.397541 1.449901 0.487646
v -0.407302 1.428745 0.470950
v -0.410571 1.400754 0.465712
v -0.406474 1.373429 0.473336
v -0.396107 1.354090 0.491779
v -0.369857 1.450319 0.487737
v -0.359352 1.429469 0.471107
v -0.355204 1.401591 0.465893
v -0.358524 1.374153 0.473493
v -0.368423 1.354509 0.491870
v -0.327709 1.404073 0.513894
v -0.334713 1.376303 0.515063
v -0.354676 1.355750 0.515870
v -0.370045 1.452383 0.535647
v -0.355581 1.405719 0.561714
v -0.358851 1.377728 0.556476
v -0.368612 1.356573 0.539780
v -0.397729 1.451965 0.535556
v -0.407628 1.432320 0.553933
v -0.410948 1.404882 0.561532
v -0.406800 1.377004 0.556319
v -0.396295 1.356154 0.539689
v -0.411476 1.450724 0.511555
v -0.431439 1.430170 0.512362
v -0.438443 1.402400 0.513531
v -0.430611 1.374854 0.514749
v -0.410043 1.354913 0.515689
v -0.356109 1.451560 0.511737
v -0.335541 1.431619 0.512677
v -0.359678 1.433044 0.554090
v -0.382152 1.454160 0.593827
v -0.386064 1.454101 0.593814
v -0.377210 1.458914 0.558387
v -0.372957 1.422100 0.582831
v -0.390914 1.458707 0.558342
v -0.394213 1.421779 0.582761
v -0.310168 1.453094 0.547920
v -0.315881 1.453432 0.557722
v -0.326923 1.457739 0.541025
v -0.318740 1.431750 0.546195
v -0.329542 1.457893 0.545517
v -0.321366 1.431905 0.550700
vt 0.274240 0.539347
vt 0.265397 0.539709
vt 0.266768 0.532487
vt 0.231414 0.551290
vt 0.214659 0.541092
vt 0.231357 0.542861
vt 0.231940 0.569242
vt 0.215985 0.562822
vt 0.231472 0.559719
vt 0.230890 0.533338
vt 0.220414 0.530957
vt 0.213134 0.552274
vt 0.289666 0.544440
vt 0.282983 0.540904
vt 0.290637 0.536818
vt 0.279682 0.529141
vt 0.275518 0.536619
vt 0.273707 0.532162
vt 0.280945 0.538772
vt 0.286431 0.530872
vt 0.290637 0.551375
vt 0.284312 0.543753
vt 0.278488 0.537315
vt 0.276318 0.541045
vt 0.804698 0.251197
vt 0.792375 0.255919
vt 0.792638 0.252041
vt 0.786357 0.239035
vt 0.792578 0.249274
vt 0.791489 0.249454
vt 0.271776 0.541127
vt 0.760733 0.199751
vt 0.757502 0.209505
vt 0.750621 0.206121
vt 0.278108 0.542645
vt 0.273009 0.544115
vt 0.772804 0.201934
vt 0.766718 0.213101
vt 0.766203 0.208706
vt 0.264007 0.548518
vt 0.277612 0.547903
vt 0.268747 0.555467
vt 0.275021 0.546378
vt 0.280714 0.548498
vt 0.281954 0.545638
vt 0.276612 0.557409
vt 0.240880 0.530957
vt 0.248168 0.561486
vt 0.249693 0.550306
vt 0.246843 0.539760
vt 0.242415 0.571620
vt 0.762287 0.211045
vt 0.762255 0.210544
vt 0.761023 0.221925
vt 0.757316 0.212491
vt 0.750922 0.216572
vt 0.772804 0.220841
vt 0.791613 0.252007
vt 0.791097 0.255536
vt 0.780068 0.250772
vt 0.780487 0.263708
vt 0.804698 0.264828
vt 0.798786 0.238814
vt 0.221949 0.571626
vt 0.283377 0.553479
vn 0.0149 -0.9990 0.0431
vn 0.0072 -0.2677 -0.9635
vn -0.0068 0.6214 -0.7834
vn 0.0128 -0.6865 -0.7270
vn 0.0004 0.1839 -0.9829
vn 0.6463 0.6476 -0.4037
vn 0.6658 -0.6604 -0.3473
vn 0.8420 0.2176 -0.4936
vn -0.0149 0.9990 -0.0431
vn 0.8488 -0.2340 -0.4741
vn 0.6629 -0.6278 0.4080
vn 0.0737 -0.3262 0.9424
vn 0.8450 -0.1921 0.4991
vn -0.1106 0.9890 -0.0985
vn 0.0068 -0.6214 0.7834
vn -0.8480 0.5205 0.0996
vn -0.0004 -0.1839 0.9829
vn 0.0099 -0.7862 0.6180
vn -0.6463 -0.6476 0.4037
vn -0.8488 0.2340 0.4741
vn -0.8420 -0.2176 0.4936
vn -0.6658 0.6604 0.3473
vn -0.6433 -0.6801 -0.3516
vn -0.8450 0.1921 -0.4991
vn -0.8382 -0.2595 -0.4796
vn -0.6629 0.6278 -0.4080
vn 0.0018 -0.3240 0.9461
vn -0.0154 0.9913 0.1308
vn 0.8274 0.5298 0.1864
vn -0.0136 0.9599 -0.2800
vn -0.8936 0.0739 0.4428
vn 0.8349 0.2605 0.4849
vn 0.8005 -0.3602 0.4790
vn 0.2276 0.9687 0.0993
vn 0.8701 0.2281 -0.4370
vn 0.6353 -0.6647 0.3932
vn -0.2662 0.5867 0.7648
vn 0.4418 0.5888 -0.6768
vn 0.0929 0.2805 0.9554
vn -0.8442 0.5045 0.1809
vn 0.0098 -0.7862 0.6180
vn -0.6433 -0.6801 -0.3515
vn 0.8312 0.5459 0.1051
vn -0.8455 0.2351 0.4794
vn 0.8880 0.1008 0.4487
vn 0.8512 -0.3074 -0.4255
vn 0.6353 -0.6647 0.3931
vn -0.3641 0.6661 0.6510
vn 0.5427 0.5290 -0.6524
s off
f 17/1/1 27/2/1 5/3/1
f 3/4/2 9/5/2 4/6/2
f 1/7/3 7/8/3 2/9/3
f 5/10/4 9/5/4 10/11/4
f 2/9/5 8/12/5 3/4/5
f 6/13/6 29/14/6 7/15/6
f 9/16/7 13/17/7 10/18/7
f 7/15/8 11/19/8 8/20/8
f 1/21/9 28/22/9 6/13/9
f 8/20/10 12/23/10 9/16/10
f 13/17/11 16/24/11 17/1/11
f 30/25/12 42/26/12 38/27/12
f 11/19/13 16/24/13 12/23/13
f 28/28/14 41/29/14 39/30/14
f 16/24/15 22/31/15 17/1/15
f 19/32/16 35/33/16 18/34/16
f 15/35/17 21/36/17 16/24/17
f 20/37/18 34/38/18 36/39/18
f 22/31/19 26/40/19 27/2/19
f 19/41/20 25/42/20 20/43/20
f 1/21/9 18/44/9 14/45/9
f 20/43/21 26/40/21 21/36/21
f 18/44/22 24/46/22 19/41/22
f 27/47/23 4/6/23 5/10/23
f 24/48/24 3/4/24 25/49/24
f 25/49/25 4/6/25 26/50/25
f 23/51/26 2/9/26 24/48/26
f 13/17/1 5/3/1 10/18/1
f 31/52/27 36/39/27 34/38/27
f 31/52/28 35/33/28 32/53/28
f 30/54/29 33/55/29 31/52/29
f 18/34/30 33/55/30 14/56/30
f 19/32/31 36/39/31 32/53/31
f 30/54/32 34/38/32 15/57/32
f 37/58/33 42/26/33 40/59/33
f 37/58/34 41/29/34 38/27/34
f 29/60/35 40/59/35 11/61/35
f 11/61/36 42/26/36 15/62/36
f 30/25/37 41/29/37 14/63/37
f 29/60/38 39/30/38 37/58/38
f 17/1/1 22/31/1 27/2/1
f 3/4/2 8/12/2 9/5/2
f 1/7/3 6/64/3 7/8/3
f 5/10/4 4/6/4 9/5/4
f 2/9/5 7/8/5 8/12/5
f 6/13/6 28/22/6 29/14/6
f 9/16/7 12/23/7 13/17/7
f 7/15/8 29/14/8 11/19/8
f 1/21/9 14/45/9 28/22/9
f 8/20/10 11/19/10 12/23/10
f 13/17/11 12/23/11 16/24/11
f 30/25/39 15/62/39 42/26/39
f 11/19/13 15/35/13 16/24/13
f 28/28/14 14/63/14 41/29/14
f 16/24/15 21/36/15 22/31/15
f 19/32/40 32/53/40 35/33/40
f 15/35/17 20/43/17 21/36/17
f 20/37/41 15/57/41 34/38/41
f 22/31/19 21/36/19 26/40/19
f 19/41/20 24/46/20 25/42/20
f 1/21/9 23/65/9 18/44/9
f 20/43/21 25/42/21 26/40/21
f 18/44/22 23/65/22 24/46/22
f 27/47/42 26/50/42 4/6/42
f 24/48/24 2/9/24 3/4/24
f 25/49/25 3/4/25 4/6/25
f 23/51/26 1/7/26 2/9/26
f 13/17/1 17/1/1 5/3/1
f 31/52/27 32/53/27 36/39/27
f 31/52/28 33/55/28 35/33/28
f 30/54/43 14/56/43 33/55/43
f 18/34/30 35/33/30 33/55/30
f 19/32/44 20/37/44 36/39/44
f 30/54/45 31/52/45 34/38/45
f 37/58/33 38/27/33 42/26/33
f 37/58/34 39/30/34 41/29/34
f 29/60/46 37/58/46 40/59/46
f 11/61/47 40/59/47 42/26/47
f 30/25/48 38/27/48 41/29/48
f 29/60/49 28/28/49 39/30/49
v -0.143562 1.269712 -1.313271
v -0.133956 1.242707 -1.313411
v -0.139033 1.214545 -1.311750
v -0.157431 1.192773 -1.308734
v -0.184222 1.183225 -1.305170
v -0.153144 1.276564 -1.288215
v -0.150553 1.254574 -1.270012
v -0.158197 1.228248 -1.261638
v -0.174028 1.204641 -1.265336
v -0.193804 1.190077 -1.280114
v -0.207915 1.252096 -1.256579
v -0.217085 1.225293 -1.260954
v -0.218663 1.202001 -1.277585
v -0.193281 1.293560 -1.308212
v -0.238470 1.262240 -1.301632
v -0.243546 1.234079 -1.299971
v -0.233940 1.207073 -1.300111
v -0.183699 1.286708 -1.333268
v -0.203475 1.272145 -1.348046
v -0.219306 1.248537 -1.351744
v -0.226950 1.222211 -1.343369
v -0.224358 1.200222 -1.325167
v -0.158840 1.274784 -1.335797
v -0.160418 1.251492 -1.352428
v -0.169587 1.224689 -1.356803
v -0.183892 1.201559 -1.347751
v -0.199499 1.188298 -1.327697
v -0.178004 1.288488 -1.285685
v -0.193611 1.275226 -1.265631
v -0.220072 1.284012 -1.304648
v -0.238154 1.310766 -1.343212
v -0.236799 1.309798 -1.346753
v -0.207739 1.305087 -1.324618
v -0.244210 1.279941 -1.327516
v -0.202996 1.301696 -1.337021
v -0.236853 1.274680 -1.346754
v -0.224413 1.312018 -1.258952
v -0.230676 1.314098 -1.268187
v -0.210889 1.310214 -1.271747
v -0.228103 1.289847 -1.264133
v -0.213759 1.311167 -1.275979
v -0.230981 1.290803 -1.268378
vt 0.274240 0.539347
vt 0.265397 0.539709
vt 0.266768 0.532487
vt 0.231414 0.551290
vt 0.214659 0.541092
vt 0.231357 0.542861
vt 0.231940 0.569242
vt 0.215985 0.562822
vt 0.231472 0.559719
vt 0.230890 0.533338
vt 0.220414 0.530957
vt 0.213134 0.552274
vt 0.289666 0.544440
vt 0.282983 0.540904
vt 0.290637 0.536818
vt 0.279682 0.529141
vt 0.275518 0.536619
vt 0.273707 0.532162
vt 0.280945 0.538772
vt 0.286431 0.530872
vt 0.290637 0.551375
vt 0.284312 0.543753
vt 0.278488 0.537315
vt 0.276318 0.541045
vt 0.804698 0.251197
vt 0.792375 0.255919
vt 0.792638 0.252041
vt 0.786357 0.239035
vt 0.792578 0.249274
vt 0.791489 0.249454
vt 0.271776 0.541127
vt 0.760733 0.199751
vt 0.757502 0.209505
vt 0.750621 0.206121
vt 0.278108 0.542645
vt 0.273009 0.544115
vt 0.772804 0.201934
vt 0.766718 0.213101
vt 0.766203 0.208706
vt 0.264007 0.548518
vt 0.277612 0.547903
vt 0.268747 0.555467
vt 0.275021 0.546378
vt 0.280714 0.548498
vt 0.281954 0.545638
vt 0.276612 0.557409
vt 0.240880 0.530957
vt 0.248168 0.561486
vt 0.249693 0.550306
vt 0.246843 0.539760
vt 0.242415 0.571620
vt 0.762287 0.211045
vt 0.762255 0.210544
vt 0.761023 0.221925
vt 0.757316 0.212491
vt 0.750922 0.216572
vt 0.772804 0.220841
vt 0.791613 0.252007
vt 0.791097 0.255536
vt 0.780068 0.250772
vt 0.780487 0.263708
vt 0.804698 0.264828
vt 0.798786 0.238814
vt 0.221949 0.571626
vt 0.283377 0.553479
vn -0.4239 -0.9017 0.0845
vn 0.7195 -0.5491 0.4253
vn 0.9102 0.3224 0.2599
vn 0.3552 -0.8582 0.3705
vn 0.9111 -0.1414 0.3871
vn 0.3673 0.6184 0.6948
vn -0.1877 -0.5623 0.8053
vn 0.2115 0.2400 0.9475
vn 0.4239 0.9017 -0.0844
vn 0.0199 -0.1677 0.9856
vn -0.8204 -0.2944 0.4901
vn -0.9567 0.0149 -0.2906
vn -0.7954 0.1776 0.5794
vn 0.5009 0.8528 -0.1477
vn -0.9102 -0.3224 -0.2599
vn 0.4098 0.3130 -0.8568
vn -0.9111 0.1414 -0.3871
vn -0.8327 -0.5255 -0.1747
vn -0.3673 -0.6184 -0.6948
vn -0.0199 0.1677 -0.9856
vn 0.4239 0.9017 -0.0845
vn -0.2115 -0.2400 -0.9475
vn 0.1878 0.5623 -0.8053
vn 0.2654 -0.8863 -0.3796
vn 0.7954 -0.1775 -0.5794
vn 0.6038 -0.5852 -0.5413
vn 0.8204 0.2944 -0.4901
vn -0.4239 -0.9017 0.0844
vn -0.9339 0.0014 -0.3575
vn 0.2724 0.9495 -0.1555
vn -0.2458 0.7386 0.6277
vn 0.6112 0.7913 0.0174
vn -0.0387 0.0001 -0.9993
vn -0.6068 0.5870 0.5360
vn -0.8269 0.0062 0.5622
vn 0.2058 0.9753 0.0800
vn 0.1573 0.2740 0.9488
vn -0.8122 -0.3394 0.4744
vn -0.3372 0.7194 -0.6072
vn 0.6500 0.4304 0.6263
vn -0.1878 -0.5623 0.8053
vn -0.7426 0.5815 -0.3322
vn 0.3328 0.3249 -0.8853
vn -0.8326 -0.5255 -0.1747
vn 0.1877 0.5623 -0.8053
vn -0.1715 0.7286 0.6631
vn 0.6112 0.7913 0.0173
vn -0.0251 0.1711 -0.9849
vn -0.6553 0.4410 0.6132
vn -0.8270 0.0062 0.5622
vn -0.0506 -0.2193 0.9743
vn -0.8122 -0.3394 0.4745
vn -0.1753 0.7337 -0.6564
vn 0.5710 0.4066 0.7132
s off
f 59/66/50 69/67/50 47/68/50
f 45/69/51 51/70/51 46/71/51
f 43/72/52 49/73/52 44/74/52
f 47/75/53 51/70/53 52/76/53
f 44/74/54 50/77/54 45/69/54
f 48/78/55 71/79/55 49/80/55
f 51/81/56 55/82/56 52/83/56
f 49/80/57 53/84/57 50/85/57
f 43/86/58 70/87/58 48/78/58
f 50/85/59 54/88/59 51/81/59
f 55/82/60 58/89/60 59/66/60
f 72/90/61 84/91/61 80/92/61
f 53/84/62 58/89/62 54/88/62
f 70/93/63 83/94/63 81/95/63
f 58/89/64 64/96/64 59/66/64
f 61/97/65 77/98/65 60/99/65
f 57/100/66 63/101/66 58/89/66
f 62/102/67 76/103/67 78/104/67
f 64/96/68 68/105/68 69/67/68
f 61/106/69 67/107/69 62/108/69
f 43/86/70 60/109/70 56/110/70
f 62/108/71 68/105/71 63/101/71
f 60/109/72 66/111/72 61/106/72
f 69/112/73 46/71/73 47/75/73
f 66/113/74 45/69/74 67/114/74
f 67/114/75 46/71/75 68/115/75
f 65/116/76 44/74/76 66/113/76
f 55/82/77 47/68/77 52/83/77
f 73/117/78 78/104/78 76/103/78
f 73/117/79 77/98/79 74/118/79
f 72/119/80 75/120/80 73/117/80
f 60/99/81 75/120/81 56/121/81
f 61/97/82 78/104/82 74/118/82
f 72/119/83 76/103/83 57/122/83
f 79/123/84 84/91/84 82/124/84
f 79/123/85 83/94/85 80/92/85
f 71/125/86 82/124/86 53/126/86
f 53/126/87 84/91/87 57/127/87
f 72/90/88 83/94/88 56/128/88
f 71/125/89 81/95/89 79/123/89
f 59/66/77 64/96/77 69/67/77
f 45/69/51 50/77/51 51/70/51
f 43/72/52 48/129/52 49/73/52
f 47/75/53 46/71/53 51/70/53
f 44/74/54 49/73/54 50/77/54
f 48/78/55 70/87/55 71/79/55
f 51/81/90 54/88/90 55/82/90
f 49/80/57 71/79/57 53/84/57
f 43/86/70 56/110/70 70/87/70
f 50/85/59 53/84/59 54/88/59
f 55/82/60 54/88/60 58/89/60
f 72/90/91 57/127/91 84/91/91
f 53/84/62 57/100/62 58/89/62
f 70/93/63 56/128/63 83/94/63
f 58/89/64 63/101/64 64/96/64
f 61/97/92 74/118/92 77/98/92
f 57/100/66 62/108/66 63/101/66
f 62/102/93 57/122/93 76/103/93
f 64/96/68 63/101/68 68/105/68
f 61/106/69 66/111/69 67/107/69
f 43/86/70 65/130/70 60/109/70
f 62/108/71 67/107/71 68/105/71
f 60/109/94 65/130/94 66/111/94
f 69/112/73 68/115/73 46/71/73
f 66/113/74 44/74/74 45/69/74
f 67/114/75 45/69/75 46/71/75
f 65/116/76 43/72/76 44/74/76
f 55/82/50 59/66/50 47/68/50
f 73/117/78 74/118/78 78/104/78
f 73/117/79 75/120/79 77/98/79
f 72/119/95 56/121/95 75/120/95
f 60/99/96 77/98/96 75/120/96
f 61/97/97 62/102/97 78/104/97
f 72/119/98 73/117/98 76/103/98
f 79/123/99 80/92/99 84/91/99
f 79/123/85 81/95/85 83/94/85
f 71/125/100 79/123/100 82/124/100
f 53/126/101 82/124/101 84/91/101
f 72/90/102 80/92/102 83/94/102
f 71/125/103 70/93/103 81/95/103
