# Blender v2.81 (sub 16) OBJ File: 'garbage.blend'
# www.blender.org
v -0.423412 1.474711 -0.069140
v -0.421589 1.462461 -0.094990
v -0.421816 1.438955 -0.111392
v -0.424032 1.410492 -0.113952
v -0.427644 1.384699 -0.101983
v -0.401531 1.467998 -0.053561
v -0.383690 1.450833 -0.068006
v -0.378054 1.425529 -0.080234
v -0.386133 1.398865 -0.086968
v -0.405763 1.377985 -0.086404
v -0.385479 1.407028 -0.028573
v -0.392563 1.382843 -0.042228
v -0.409476 1.368735 -0.060573
v -0.430838 1.456210 -0.017479
v -0.436666 1.401954 -0.008070
v -0.436893 1.378448 -0.024472
v -0.435069 1.366198 -0.050322
v -0.452719 1.462924 -0.033059
v -0.472349 1.442044 -0.032495
v -0.480428 1.415380 -0.039229
v -0.474792 1.390076 -0.051456
v -0.456951 1.372911 -0.065901
v -0.449006 1.472174 -0.058889
v -0.465919 1.458066 -0.077234
v -0.473003 1.433881 -0.090890
v -0.468362 1.406098 -0.096196
v -0.453238 1.382161 -0.091732
v -0.405244 1.458748 -0.027731
v -0.390120 1.434811 -0.023266
v -0.434450 1.430417 -0.005511
v -0.475854 1.444258 0.019471
v -0.478946 1.445207 0.017269
v -0.450186 1.457549 -0.002152
v -0.462819 1.415462 0.004168
v -0.461017 1.460872 -0.009864
v -0.479620 1.420617 -0.007794
v -0.390881 1.438049 0.025065
v -0.401374 1.437009 0.029268
v -0.399808 1.448595 0.012458
v -0.397252 1.421027 0.010863
v -0.404616 1.448119 0.014384
v -0.402074 1.420549 0.012795
vt 0.274240 0.539347
vt 0.265397 0.539709
vt 0.266768 0.532487
vt 0.231414 0.551290
vt 0.214659 0.541092
vt 0.231357 0.542861
vt 0.231940 0.569242
vt 0.215985 0.562822
vt 0.231472 0.559719
vt 0.230890 0.533338
vt 0.220414 0.530957
vt 0.213134 0.552274
vt 0.289666 0.544440
vt 0.282983 0.540904
vt 0.290637 0.536818
vt 0.279682 0.529141
vt 0.275518 0.536619
vt 0.273707 0.532162
vt 0.280945 0.538772
vt 0.286431 0.530872
vt 0.290637 0.551375
vt 0.284312 0.543753
vt 0.278488 0.537315
vt 0.276318 0.541045
vt 0.804698 0.251197
vt 0.792375 0.255919
vt 0.792638 0.252041
vt 0.786357 0.239035
vt 0.792578 0.249274
vt 0.791489 0.249454
vt 0.271776 0.541127
vt 0.760733 0.199751
vt 0.757502 0.209505
vt 0.750621 0.206121
vt 0.278108 0.542645
vt 0.273009 0.544115
vt 0.772804 0.201934
vt 0.766718 0.213101
vt 0.766203 0.208706
vt 0.264007 0.548518
vt 0.277612 0.547903
vt 0.268747 0.555467
vt 0.275021 0.546378
vt 0.280714 0.548498
vt 0.281954 0.545638
vt 0.276612 0.557409
vt 0.240880 0.530957
vt 0.248168 0.561486
vt 0.249693 0.550306
vt 0.246843 0.539760
vt 0.242415 0.571620
vt 0.762287 0.211045
vt 0.762255 0.210544
vt 0.761023 0.221925
vt 0.757316 0.212491
vt 0.750922 0.216572
vt 0.772804 0.220841
vt 0.791613 0.252007
vt 0.791097 0.255536
vt 0.780068 0.250772
vt 0.780487 0.263708
vt 0.804698 0.264828
vt 0.798786 0.238814
vt 0.221949 0.571626
vt 0.283377 0.553479
vn -0.0441 -0.9385 -0.3424
vn 0.5853 0.0273 -0.8103
vn 0.4908 0.8002 -0.3446
vn 0.4331 -0.4286 -0.7929
vn 0.6053 0.4516 -0.6555
vn 0.7772 0.5486 0.3082
vn 0.7195 -0.6802 -0.1402
vn 0.9743 0.1273 0.1856
vn 0.0441 0.9385 0.3424
vn 0.9544 -0.2970 0.0308
vn 0.2575 -0.8660 0.4286
vn -0.5261 -0.5903 0.6122
vn 0.3591 -0.5364 0.7638
vn 0.0019 0.9696 0.2447
vn -0.4909 -0.8002 0.3446
vn -0.7169 0.6687 -0.1973
vn -0.6053 -0.4516 0.6555
vn -0.3924 -0.9056 0.1610
vn -0.7772 -0.5486 -0.3082
vn -0.9544 0.2970 -0.0308
vn -0.9743 -0.1273 -0.1856
vn -0.7195 0.6802 0.1402
vn -0.3153 -0.3628 -0.8769
vn -0.3591 0.5364 -0.7638
vn -0.3790 0.1121 -0.9186
vn -0.2575 0.8660 -0.4286
vn -0.5852 -0.5709 0.5759
vn -0.0625 0.8817 0.4677
vn 0.5573 0.2243 0.7994
vn 0.1885 0.9700 0.1532
vn -0.9755 0.1695 -0.1401
vn 0.3732 -0.1119 0.9210
vn 0.3312 -0.6745 0.6598
vn 0.1485 0.8077 0.5706
vn 0.9623 0.1136 0.2470
vn 0.2436 -0.8888 0.3882
vn -0.6598 0.3903 0.6421
vn 0.7801 0.6249 -0.0296
vn -0.5007 -0.0388 0.8647
vn -0.4908 -0.8002 0.3446
vn -0.7639 0.6296 -0.1413
vn -0.3924 -0.9056 0.1609
vn 0.6104 0.2615 0.7477
vn -0.9550 0.2956 -0.0247
vn 0.4326 -0.2625 0.8625
vn 0.3312 -0.6745 0.6599
vn 0.9244 -0.3793 0.0400
vn -0.6655 0.5213 0.5341
vn 0.8434 0.5369 0.0215
s off
f 17/1/1 27/2/1 5/3/1
f 3/4/2 9/5/2 4/6/2
f 1/7/3 7/8/3 2/9/3
f 5/10/4 9/5/4 10/11/4
f 2/9/5 8/12/5 3/4/5
f 6/13/6 29/14/6 7/15/6
f 9/16/7 13/17/7 10/18/7
f 7/15/8 11/19/8 8/20/8
f 1/21/9 28/22/9 6/13/9
f 8/20/10 12/23/10 9/16/10
f 13/17/11 16/24/11 17/1/11
f 30/25/12 42/26/12 38/27/12
f 11/19/13 16/24/13 12/23/13
f 28/28/14 41/29/14 39/30/14
f 16/24/15 22/31/15 17/1/15
f 19/32/16 35/33/16 18/34/16
f 15/35/17 21/36/17 16/24/17
f 20/37/18 34/38/18 36/39/18
f 22/31/19 26/40/19 27/2/19
f 19/41/20 25/42/20 20/43/20
f 1/21/9 18/44/9 14/45/9
f 20/43/21 26/40/21 21/36/21
f 18/44/22 24/46/22 19/41/22
f 27/47/23 4/6/23 5/10/23
f 24/48/24 3/4/24 25/49/24
f 25/49/25 4/6/25 26/50/25
f 23/51/26 2/9/26 24/48/26
f 13/17/1 5/3/1 10/18/1
f 31/52/27 36/39/27 34/38/27
f 31/52/28 35/33/28 32/53/28
f 30/54/29 33/55/29 31/52/29
f 18/34/30 33/55/30 14/56/30
f 19/32/31 36/39/31 32/53/31
f 30/54/32 34/38/32 15/57/32
f 37/58/33 42/26/33 40/59/33
f 37/58/34 41/29/34 38/27/34
f 29/60/35 40/59/35 11/61/35
f 11/61/36 42/26/36 15/62/36
f 30/25/37 41/29/37 14/63/37
f 29/60/38 39/30/38 37/58/38
f 17/1/1 22/31/1 27/2/1
f 3/4/2 8/12/2 9/5/2
f 1/7/3 6/64/3 7/8/3
f 5/10/4 4/6/4 9/5/4
f 2/9/5 7/8/5 8/12/5
f 6/13/6 28/22/6 29/14/6
f 9/16/7 12/23/7 13/17/7
f 7/15/8 29/14/8 11/19/8
f 1/21/9 14/45/9 28/22/9
f 8/20/10 11/19/10 12/23/10
f 13/17/11 12/23/11 16/24/11
f 30/25/39 15/62/39 42/26/39
f 11/19/13 15/35/13 16/24/13
f 28/28/14 14/63/14 41/29/14
f 16/24/40 21/36/40 22/31/40
f 19/32/41 32/53/41 35/33/41
f 15/35/17 20/43/17 21/36/17
f 20/37/42 15/57/42 34/38/42
f 22/31/19 21/36/19 26/40/19
f 19/41/20 24/46/20 25/42/20
f 1/21/9 23/65/9 18/44/9
f 20/43/21 25/42/21 26/40/21
f 18/44/22 23/65/22 24/46/22
f 27/47/23 26/50/23 4/6/23
f 24/48/24 2/9/24 3/4/24
f 25/49/25 3/4/25 4/6/25
f 23/51/26 1/7/26 2/9/26
f 13/17/1 17/1/1 5/3/1
f 31/52/27 32/53/27 36/39/27
f 31/52/28 33/55/28 35/33/28
f 30/54/43 14/56/43 33/55/43
f 18/34/30 35/33/30 33/55/30
f 19/32/44 20/37/44 36/39/44
f 30/54/45 31/52/45 34/38/45
f 37/58/46 38/27/46 42/26/46
f 37/58/34 39/30/34 41/29/34
f 29/60/47 37/58/47 40/59/47
f 11/61/36 40/59/36 42/26/36
f 30/25/48 38/27/48 41/29/48
f 29/60/49 28/28/49 39/30/49
v 1.045810 0.903742 -1.384779
v 1.055253 0.885408 -1.364872
v 1.054877 0.859340 -1.352960
v 1.044784 0.832522 -1.352235
v 1.027677 0.812140 -1.362892
v 1.019201 0.910045 -1.380447
v 1.009164 0.896325 -1.357369
v 1.001658 0.871945 -1.344296
v 0.998694 0.843438 -1.344732
v 1.001067 0.818443 -1.358560
v 0.965391 0.869148 -1.386047
v 0.967286 0.841016 -1.380890
v 0.982934 0.817045 -1.379435
v 1.009544 0.900945 -1.426530
v 0.982343 0.853746 -1.436462
v 0.981968 0.827678 -1.424550
v 0.991410 0.809344 -1.404643
v 1.036153 0.894643 -1.430862
v 1.038526 0.869647 -1.444690
v 1.035563 0.841141 -1.445126
v 1.028057 0.816761 -1.432053
v 1.018020 0.803041 -1.408975
v 1.054287 0.896041 -1.409986
v 1.069934 0.872069 -1.408532
v 1.071830 0.843937 -1.403375
v 1.059465 0.819183 -1.395895
v 1.036153 0.804439 -1.388099
v 1.001067 0.908646 -1.401323
v 0.977756 0.893903 -1.393526
v 0.992437 0.880564 -1.437187
v 1.009134 0.886660 -1.484240
v 1.012894 0.885770 -1.484852
v 1.012694 0.900382 -1.451042
v 0.997305 0.860721 -1.463734
v 1.025865 0.897262 -1.453186
v 1.017735 0.855882 -1.467060
v 0.949391 0.911617 -1.428579
v 0.952866 0.908460 -1.438913
v 0.967761 0.914025 -1.426011
v 0.954476 0.889915 -1.422644
v 0.969354 0.912578 -1.430748
v 0.956073 0.888464 -1.427394
vt 0.274240 0.539347
vt 0.265397 0.539709
vt 0.266768 0.532487
vt 0.231414 0.551290
vt 0.214659 0.541092
vt 0.231357 0.542861
vt 0.231940 0.569242
vt 0.215985 0.562822
vt 0.231472 0.559719
vt 0.230890 0.533338
vt 0.220414 0.530957
vt 0.213134 0.552274
vt 0.289666 0.544440
vt 0.282983 0.540904
vt 0.290637 0.536818
vt 0.279682 0.529141
vt 0.275518 0.536619
vt 0.273707 0.532162
vt 0.280945 0.538772
vt 0.286431 0.530872
vt 0.290637 0.551375
vt 0.284312 0.543753
vt 0.278488 0.537315
vt 0.276318 0.541045
vt 0.804698 0.251197
vt 0.792375 0.255919
vt 0.792638 0.252041
vt 0.786357 0.239035
vt 0.792578 0.249274
vt 0.791489 0.249454
vt 0.271776 0.541127
vt 0.760733 0.199751
vt 0.757502 0.209505
vt 0.750621 0.206121
vt 0.278108 0.542645
vt 0.273009 0.544115
vt 0.772804 0.201934
vt 0.766718 0.213101
vt 0.766203 0.208706
vt 0.264007 0.548518
vt 0.277612 0.547903
vt 0.268747 0.555467
vt 0.275021 0.546378
vt 0.280714 0.548498
vt 0.281954 0.545638
vt 0.276612 0.557409
vt 0.240880 0.530957
vt 0.248168 0.561486
vt 0.249693 0.550306
vt 0.246843 0.539760
vt 0.242415 0.571620
vt 0.762287 0.211045
vt 0.762255 0.210544
vt 0.761023 0.221925
vt 0.757316 0.212491
vt 0.750922 0.216572
vt 0.772804 0.220841
vt 0.791613 0.252007
vt 0.791097 0.255536
vt 0.780068 0.250772
vt 0.780487 0.263708
vt 0.804698 0.264828
vt 0.798786 0.238814
vt 0.221949 0.571626
vt 0.283377 0.553479
vn -0.1891 -0.9551 0.2282
vn 0.1534 -0.0311 0.9877
vn 0.2760 0.7687 0.5770
vn 0.0285 -0.4818 0.8758
vn 0.2389 0.4007 0.8845
vn -0.4293 0.8460 0.3162
vn -0.6768 -0.4045 0.6150
vn -0.6700 0.5003 0.5484
vn 0.1891 0.9551 -0.2282
vn -0.7554 0.0686 0.6516
vn -0.8291 -0.5479 -0.1114
vn -0.3253 -0.5106 -0.7959
vn -0.9516 -0.1163 -0.2845
vn 0.2912 0.9379 -0.1886
vn -0.2760 -0.7687 -0.5770
vn 0.8817 0.2897 -0.3723
vn -0.2389 -0.4007 -0.8845
vn -0.2710 -0.8864 -0.3754
vn 0.4293 -0.8460 -0.3162
vn 0.7554 -0.0686 -0.6516
vn 0.6700 -0.5003 -0.5484
vn 0.6768 0.4045 -0.6150
vn 0.5815 -0.7026 0.4102
vn 0.9516 0.1163 0.2845
vn 0.8661 -0.3155 0.3876
vn 0.8291 0.5479 0.1114
vn -0.2564 -0.5248 -0.8117
vn 0.1513 0.9077 -0.3914
vn -0.7486 0.6372 -0.1831
vn 0.2316 0.9728 0.0074
vn 0.7787 -0.2230 -0.5865
vn -0.8639 0.3145 -0.3935
vn -0.9324 -0.2808 -0.2278
vn -0.0798 0.9455 -0.3157
vn -0.7072 0.5033 0.4965
vn -0.8055 -0.5855 -0.0920
vn 0.1910 0.3241 -0.9265
vn -0.1840 0.8093 0.5579
vn 0.0284 -0.4818 0.8758
vn -0.2460 0.0664 -0.9670
vn 0.2913 0.9379 -0.1886
vn 0.8581 0.2566 -0.4447
vn -0.2710 -0.8863 -0.3754
vn 0.6700 -0.5004 -0.5484
vn -0.2565 -0.5247 -0.8117
vn -0.7324 0.6720 -0.1096
vn 0.7513 -0.0681 -0.6564
vn -0.9338 0.1826 -0.3077
vn -0.9324 -0.2808 -0.2277
vn -0.7802 -0.0118 0.6254
vn 0.3226 0.4047 -0.8556
vn -0.2963 0.7684 0.5672
s off
f 59/66/50 69/67/50 47/68/50
f 45/69/51 51/70/51 46/71/51
f 43/72/52 49/73/52 44/74/52
f 47/75/53 51/70/53 52/76/53
f 44/74/54 50/77/54 45/69/54
f 48/78/55 71/79/55 49/80/55
f 51/81/56 55/82/56 52/83/56
f 49/80/57 53/84/57 50/85/57
f 43/86/58 70/87/58 48/78/58
f 50/85/59 54/88/59 51/81/59
f 55/82/60 58/89/60 59/66/60
f 72/90/61 84/91/61 80/92/61
f 53/84/62 58/89/62 54/88/62
f 70/93/63 83/94/63 81/95/63
f 58/89/64 64/96/64 59/66/64
f 61/97/65 77/98/65 60/99/65
f 57/100/66 63/101/66 58/89/66
f 62/102/67 76/103/67 78/104/67
f 64/96/68 68/105/68 69/67/68
f 61/106/69 67/107/69 62/108/69
f 43/86/58 60/109/58 56/110/58
f 62/108/70 68/105/70 63/101/70
f 60/109/71 66/111/71 61/106/71
f 69/112/72 46/71/72 47/75/72
f 66/113/73 45/69/73 67/114/73
f 67/114/74 46/71/74 68/115/74
f 65/116/75 44/74/75 66/113/75
f 55/82/50 47/68/50 52/83/50
f 73/117/76 78/104/76 76/103/76
f 73/117/77 77/98/77 74/118/77
f 72/119/78 75/120/78 73/117/78
f 60/99/79 75/120/79 56/121/79
f 61/97/80 78/104/80 74/118/80
f 72/119/81 76/103/81 57/122/81
f 79/123/82 84/91/82 82/124/82
f 79/123/83 83/94/83 80/92/83
f 71/125/84 82/124/84 53/126/84
f 53/126/85 84/91/85 57/127/85
f 72/90/86 83/94/86 56/128/86
f 71/125/87 81/95/87 79/123/87
f 59/66/50 64/96/50 69/67/50
f 45/69/51 50/77/51 51/70/51
f 43/72/52 48/129/52 49/73/52
f 47/75/88 46/71/88 51/70/88
f 44/74/54 49/73/54 50/77/54
f 48/78/55 70/87/55 71/79/55
f 51/81/56 54/88/56 55/82/56
f 49/80/57 71/79/57 53/84/57
f 43/86/58 56/110/58 70/87/58
f 50/85/59 53/84/59 54/88/59
f 55/82/60 54/88/60 58/89/60
f 72/90/89 57/127/89 84/91/89
f 53/84/62 57/100/62 58/89/62
f 70/93/90 56/128/90 83/94/90
f 58/89/64 63/101/64 64/96/64
f 61/97/91 74/118/91 77/98/91
f 57/100/66 62/108/66 63/101/66
f 62/102/92 57/122/92 76/103/92
f 64/96/68 63/101/68 68/105/68
f 61/106/69 66/111/69 67/107/69
f 43/86/58 65/130/58 60/109/58
f 62/108/93 67/107/93 68/105/93
f 60/109/71 65/130/71 66/111/71
f 69/112/72 68/115/72 46/71/72
f 66/113/73 44/74/73 45/69/73
f 67/114/74 45/69/74 46/71/74
f 65/116/75 43/72/75 44/74/75
f 55/82/50 59/66/50 47/68/50
f 73/117/94 74/118/94 78/104/94
f 73/117/77 75/120/77 77/98/77
f 72/119/95 56/121/95 75/120/95
f 60/99/79 77/98/79 75/120/79
f 61/97/96 62/102/96 78/104/96
f 72/119/97 73/117/97 76/103/97
f 79/123/98 80/92/98 84/91/98
f 79/123/83 81/95/83 83/94/83
f 71/125/99 79/123/99 82/124/99
f 53/126/85 82/124/85 84/91/85
f 72/90/100 80/92/100 83/94/100
f 71/125/101 70/93/101 81/95/101
