# Blender v2.81 (sub 16) OBJ File: 'garbage.blend'
# www.blender.org
v -0.049424 1.252540 -0.740440
v -0.049971 1.224870 -0.732980
v -0.063673 1.202584 -0.721269
v -0.086860 1.191654 -0.708443
v -0.113319 1.195008 -0.697940
v -0.049061 1.268728 -0.717982
v -0.049343 1.252908 -0.694081
v -0.062948 1.234959 -0.676351
v -0.086232 1.219692 -0.669544
v -0.112956 1.211196 -0.675482
v -0.098344 1.277340 -0.672195
v -0.116886 1.256394 -0.665944
v -0.130654 1.232386 -0.673403
v -0.084819 1.294921 -0.736284
v -0.134465 1.287345 -0.712955
v -0.148167 1.265059 -0.701244
v -0.148714 1.237389 -0.693784
v -0.085182 1.278733 -0.758742
v -0.111906 1.270237 -0.764680
v -0.135190 1.254970 -0.757873
v -0.148796 1.237021 -0.740143
v -0.149077 1.221201 -0.716242
v -0.067484 1.257543 -0.760821
v -0.081252 1.233535 -0.768280
v -0.099794 1.212589 -0.762029
v -0.118142 1.200318 -0.743743
v -0.131379 1.200011 -0.718321
v -0.066759 1.289918 -0.715903
v -0.079996 1.289611 -0.690481
v -0.111278 1.298275 -0.725781
v -0.128777 1.319456 -0.767913
v -0.128828 1.317169 -0.771087
v -0.098317 1.306801 -0.753247
v -0.140528 1.298744 -0.742102
v -0.098497 1.298788 -0.764364
v -0.140806 1.286315 -0.759346
v -0.093500 1.336113 -0.691963
v -0.100904 1.338164 -0.700318
v -0.085325 1.325839 -0.705285
v -0.105741 1.316816 -0.688828
v -0.088718 1.326779 -0.709114
v -0.109145 1.317759 -0.692668
vt 0.274240 0.539347
vt 0.265397 0.539709
vt 0.266768 0.532487
vt 0.231414 0.551290
vt 0.214659 0.541092
vt 0.231357 0.542861
vt 0.231940 0.569242
vt 0.215985 0.562822
vt 0.231472 0.559719
vt 0.230890 0.533338
vt 0.220414 0.530957
vt 0.213134 0.552274
vt 0.289666 0.544440
vt 0.282983 0.540904
vt 0.290637 0.536818
vt 0.279682 0.529141
vt 0.275518 0.536619
vt 0.273707 0.532162
vt 0.280945 0.538772
vt 0.286431 0.530872
vt 0.290637 0.551375
vt 0.284312 0.543753
vt 0.278488 0.537315
vt 0.276318 0.541045
vt 0.804698 0.251197
vt 0.792375 0.255919
vt 0.792638 0.252041
vt 0.786357 0.239035
vt 0.792578 0.249274
vt 0.791489 0.249454
vt 0.271776 0.541127
vt 0.760733 0.199751
vt 0.757502 0.209505
vt 0.750621 0.206121
vt 0.278108 0.542645
vt 0.273009 0.544115
vt 0.772804 0.201934
vt 0.766718 0.213101
vt 0.766203 0.208706
vt 0.264007 0.548518
vt 0.277612 0.547903
vt 0.268747 0.555467
vt 0.275021 0.546378
vt 0.280714 0.548498
vt 0.281954 0.545638
vt 0.276612 0.557409
vt 0.240880 0.530957
vt 0.248168 0.561486
vt 0.249693 0.550306
vt 0.246843 0.539760
vt 0.242415 0.571620
vt 0.762287 0.211045
vt 0.762255 0.210544
vt 0.761023 0.221925
vt 0.757316 0.212491
vt 0.750922 0.216572
vt 0.772804 0.220841
vt 0.791613 0.252007
vt 0.791097 0.255536
vt 0.780068 0.250772
vt 0.780487 0.263708
vt 0.804698 0.264828
vt 0.798786 0.238814
vt 0.221949 0.571626
vt 0.283377 0.553479
vn -0.6662 -0.5999 0.4431
vn 0.5758 -0.6677 0.4719
vn 0.9998 -0.0202 -0.0016
vn 0.1275 -0.8056 0.5786
vn 0.8770 -0.3965 0.2716
vn 0.7265 0.5690 0.3852
vn -0.1457 -0.2164 0.9654
vn 0.5248 0.3628 0.7700
vn 0.6662 0.5999 -0.4431
vn 0.2236 0.0916 0.9704
vn -0.7094 0.1965 0.6769
vn -0.9353 0.3280 -0.1327
vn -0.5027 0.6237 0.5986
vn 0.7021 0.5098 -0.4971
vn -0.9998 0.0202 0.0016
vn 0.2476 -0.1056 -0.9631
vn -0.8770 0.3965 -0.2716
vn -0.9761 -0.1684 0.1372
vn -0.7265 -0.5690 -0.3852
vn -0.2236 -0.0916 -0.9704
vn -0.5248 -0.3628 -0.7700
vn 0.1457 0.2164 -0.9654
vn -0.1629 -0.9819 -0.0967
vn 0.5027 -0.6237 -0.5986
vn 0.2015 -0.8949 -0.3983
vn 0.7094 -0.1965 -0.6769
vn -0.9372 0.2900 -0.1939
vn 0.5268 0.6855 -0.5026
vn 0.1965 0.9064 0.3741
vn 0.8247 0.4524 -0.3394
vn -0.3012 -0.2348 -0.9242
vn -0.2050 0.8963 0.3932
vn -0.5939 0.4815 0.6445
vn 0.5383 0.7941 -0.2821
vn 0.4879 0.4150 0.7680
vn -0.7215 0.1497 0.6761
vn -0.2216 0.6169 -0.7552
vn 0.8994 0.2721 0.3421
vn -0.5608 0.7289 -0.3927
vn 0.1746 -0.0711 -0.9821
vn 0.2696 0.8763 0.3992
vn -0.2270 -0.0863 -0.9701
vn -0.2779 0.8070 0.5211
vn 0.1395 0.0720 0.9876
vn -0.0838 0.5516 -0.8299
vn 0.8432 0.3049 0.4427
s off
f 17/1/1 27/2/1 5/3/1
f 3/4/2 9/5/2 4/6/2
f 1/7/3 7/8/3 2/9/3
f 5/10/4 9/5/4 10/11/4
f 2/9/5 8/12/5 3/4/5
f 6/13/6 29/14/6 7/15/6
f 9/16/7 13/17/7 10/18/7
f 7/15/8 11/19/8 8/20/8
f 1/21/9 28/22/9 6/13/9
f 8/20/10 12/23/10 9/16/10
f 13/17/11 16/24/11 17/1/11
f 30/25/12 42/26/12 38/27/12
f 11/19/13 16/24/13 12/23/13
f 28/28/14 41/29/14 39/30/14
f 16/24/15 22/31/15 17/1/15
f 19/32/16 35/33/16 18/34/16
f 15/35/17 21/36/17 16/24/17
f 20/37/18 34/38/18 36/39/18
f 22/31/19 26/40/19 27/2/19
f 19/41/20 25/42/20 20/43/20
f 1/21/9 18/44/9 14/45/9
f 20/43/21 26/40/21 21/36/21
f 18/44/22 24/46/22 19/41/22
f 27/47/23 4/6/23 5/10/23
f 24/48/24 3/4/24 25/49/24
f 25/49/25 4/6/25 26/50/25
f 23/51/26 2/9/26 24/48/26
f 13/17/1 5/3/1 10/18/1
f 31/52/27 36/39/27 34/38/27
f 31/52/28 35/33/28 32/53/28
f 30/54/29 33/55/29 31/52/29
f 18/34/30 33/55/30 14/56/30
f 19/32/31 36/39/31 32/53/31
f 30/54/32 34/38/32 15/57/32
f 37/58/33 42/26/33 40/59/33
f 37/58/34 41/29/34 38/27/34
f 29/60/35 40/59/35 11/61/35
f 11/61/36 42/26/36 15/62/36
f 30/25/37 41/29/37 14/63/37
f 29/60/38 39/30/38 37/58/38
f 17/1/1 22/31/1 27/2/1
f 3/4/2 8/12/2 9/5/2
f 1/7/3 6/64/3 7/8/3
f 5/10/4 4/6/4 9/5/4
f 2/9/5 7/8/5 8/12/5
f 6/13/6 28/22/6 29/14/6
f 9/16/7 12/23/7 13/17/7
f 7/15/8 29/14/8 11/19/8
f 1/21/9 14/45/9 28/22/9
f 8/20/10 11/19/10 12/23/10
f 13/17/11 12/23/11 16/24/11
f 30/25/39 15/62/39 42/26/39
f 11/19/13 15/35/13 16/24/13
f 28/28/14 14/63/14 41/29/14
f 16/24/15 21/36/15 22/31/15
f 19/32/40 32/53/40 35/33/40
f 15/35/17 20/43/17 21/36/17
f 20/37/18 15/57/18 34/38/18
f 22/31/19 21/36/19 26/40/19
f 19/41/20 24/46/20 25/42/20
f 1/21/9 23/65/9 18/44/9
f 20/43/21 25/42/21 26/40/21
f 18/44/22 23/65/22 24/46/22
f 27/47/23 26/50/23 4/6/23
f 24/48/24 2/9/24 3/4/24
f 25/49/25 3/4/25 4/6/25
f 23/51/26 1/7/26 2/9/26
f 13/17/1 17/1/1 5/3/1
f 31/52/27 32/53/27 36/39/27
f 31/52/28 33/55/28 35/33/28
f 30/54/41 14/56/41 33/55/41
f 18/34/30 35/33/30 33/55/30
f 19/32/42 20/37/42 36/39/42
f 30/54/43 31/52/43 34/38/43
f 37/58/33 38/27/33 42/26/33
f 37/58/34 39/30/34 41/29/34
f 29/60/44 37/58/44 40/59/44
f 11/61/36 40/59/36 42/26/36
f 30/25/45 38/27/45 41/29/45
f 29/60/46 28/28/46 39/30/46
v 1.165872 1.230373 -0.036385
v 1.147023 1.216537 -0.019806
v 1.136215 1.192011 -0.009646
v 1.136344 1.163365 -0.008626
v 1.147377 1.138277 -0.017021
v 1.160549 1.225811 -0.063169
v 1.137802 1.208634 -0.066198
v 1.125568 1.182885 -0.063214
v 1.127124 1.155463 -0.055018
v 1.142053 1.133715 -0.043805
v 1.166387 1.167515 -0.097329
v 1.162474 1.142151 -0.084562
v 1.162463 1.126029 -0.060862
v 1.206692 1.215003 -0.070499
v 1.217853 1.161269 -0.077874
v 1.207045 1.136743 -0.067714
v 1.188196 1.122907 -0.051135
v 1.212015 1.219565 -0.043715
v 1.226944 1.197817 -0.032502
v 1.228500 1.170394 -0.024305
v 1.216266 1.144645 -0.021322
v 1.193519 1.127469 -0.024351
v 1.191606 1.227251 -0.026658
v 1.191594 1.211128 -0.002958
v 1.187681 1.185765 0.009809
v 1.180915 1.157957 0.008222
v 1.173110 1.135154 -0.007293
v 1.180959 1.218125 -0.080227
v 1.173153 1.195323 -0.095742
v 1.217724 1.189914 -0.078894
v 1.264919 1.203304 -0.067792
v 1.265672 1.203949 -0.064007
v 1.231283 1.216391 -0.068397
v 1.245208 1.174240 -0.067888
v 1.233918 1.218650 -0.055139
v 1.249295 1.177744 -0.047323
v 1.206634 1.201726 -0.130166
v 1.217184 1.200446 -0.126178
v 1.204474 1.210952 -0.114040
v 1.201762 1.183500 -0.116894
v 1.209309 1.210366 -0.112212
v 1.206611 1.182912 -0.115062
vt 0.274240 0.539347
vt 0.265397 0.539709
vt 0.266768 0.532487
vt 0.231414 0.551290
vt 0.214659 0.541092
vt 0.231357 0.542861
vt 0.231940 0.569242
vt 0.215985 0.562822
vt 0.231472 0.559719
vt 0.230890 0.533338
vt 0.220414 0.530957
vt 0.213134 0.552274
vt 0.289666 0.544440
vt 0.282983 0.540904
vt 0.290637 0.536818
vt 0.279682 0.529141
vt 0.275518 0.536619
vt 0.273707 0.532162
vt 0.280945 0.538772
vt 0.286431 0.530872
vt 0.290637 0.551375
vt 0.284312 0.543753
vt 0.278488 0.537315
vt 0.276318 0.541045
vt 0.804698 0.251197
vt 0.792375 0.255919
vt 0.792638 0.252041
vt 0.786357 0.239035
vt 0.792578 0.249274
vt 0.791489 0.249454
vt 0.271776 0.541127
vt 0.760733 0.199751
vt 0.757502 0.209505
vt 0.750621 0.206121
vt 0.278108 0.542645
vt 0.273009 0.544115
vt 0.772804 0.201934
vt 0.766718 0.213101
vt 0.766203 0.208706
vt 0.264007 0.548518
vt 0.277612 0.547903
vt 0.268747 0.555467
vt 0.275021 0.546378
vt 0.280714 0.548498
vt 0.281954 0.545638
vt 0.276612 0.557409
vt 0.240880 0.530957
vt 0.248168 0.561486
vt 0.249693 0.550306
vt 0.246843 0.539760
vt 0.242415 0.571620
vt 0.762287 0.211045
vt 0.762255 0.210544
vt 0.761023 0.221925
vt 0.757316 0.212491
vt 0.750922 0.216572
vt 0.772804 0.220841
vt 0.791613 0.252007
vt 0.791097 0.255536
vt 0.780068 0.250772
vt 0.780487 0.263708
vt 0.804698 0.264828
vt 0.798786 0.238814
vt 0.221949 0.571626
vt 0.283377 0.553479
vn -0.1928 -0.9602 0.2019
vn -0.9809 0.0025 0.1945
vn -0.6011 0.7990 -0.0166
vn -0.8536 -0.4583 0.2477
vn -0.8937 0.4366 0.1033
vn -0.3633 0.6059 -0.7077
vn -0.6158 -0.6513 -0.4434
vn -0.5873 0.1878 -0.7873
vn 0.1928 0.9602 -0.2019
vn -0.6744 -0.2463 -0.6960
vn 0.1116 -0.8217 -0.5589
vn 0.8075 -0.5738 -0.1370
vn 0.2629 -0.4658 -0.8449
vn 0.1568 0.9826 -0.0994
vn 0.6011 -0.7990 0.0166
vn 0.3839 0.6175 0.6865
vn 0.8937 -0.4366 -0.1033
vn 0.4048 -0.9113 0.0748
vn 0.3633 -0.6059 0.7077
vn 0.6745 0.2463 0.6960
vn 0.5873 -0.1878 0.7873
vn 0.6158 0.6513 0.4434
vn -0.3641 -0.4356 0.8233
vn -0.2629 0.4658 0.8449
vn -0.3500 0.0317 0.9362
vn -0.1116 0.8217 0.5589
vn 0.8258 -0.5598 -0.0688
vn 0.3568 0.9066 -0.2254
vn 0.1354 0.3045 -0.9429
vn -0.0420 0.9863 -0.1597
vn 0.6165 0.1110 0.7795
vn 0.3560 -0.0316 -0.9340
vn 0.2137 -0.6118 -0.7616
vn 0.2732 0.8503 -0.4499
vn -0.5365 0.1776 -0.8250
vn 0.0944 -0.8477 -0.5219
vn 0.9169 0.3988 0.0132
vn -0.5964 0.6597 -0.4573
vn -0.8536 -0.4582 0.2477
vn -0.6745 -0.2463 -0.6960
vn 0.9562 -0.0061 -0.2926
vn 0.2629 -0.4659 -0.8449
vn 0.4569 0.5800 0.6745
vn 0.6744 0.2463 0.6960
vn 0.8258 -0.5598 -0.0687
vn 0.0610 0.3407 -0.9382
vn -0.0420 0.9863 -0.1596
vn 0.6791 0.2453 0.6918
vn 0.2739 -0.1827 -0.9442
vn 0.2137 -0.6117 -0.7616
vn 0.2732 0.8503 -0.4498
vn -0.6455 -0.3292 -0.6891
vn 0.0944 -0.8478 -0.5219
vn 0.8464 0.5219 0.1066
vn -0.6070 0.5785 -0.5449
s off
f 59/66/47 69/67/47 47/68/47
f 45/69/48 51/70/48 46/71/48
f 43/72/49 49/73/49 44/74/49
f 47/75/50 51/70/50 52/76/50
f 44/74/51 50/77/51 45/69/51
f 48/78/52 71/79/52 49/80/52
f 51/81/53 55/82/53 52/83/53
f 49/80/54 53/84/54 50/85/54
f 43/86/55 70/87/55 48/78/55
f 50/85/56 54/88/56 51/81/56
f 55/82/57 58/89/57 59/66/57
f 72/90/58 84/91/58 80/92/58
f 53/84/59 58/89/59 54/88/59
f 70/93/60 83/94/60 81/95/60
f 58/89/61 64/96/61 59/66/61
f 61/97/62 77/98/62 60/99/62
f 57/100/63 63/101/63 58/89/63
f 62/102/64 76/103/64 78/104/64
f 64/96/65 68/105/65 69/67/65
f 61/106/66 67/107/66 62/108/66
f 43/86/55 60/109/55 56/110/55
f 62/108/67 68/105/67 63/101/67
f 60/109/68 66/111/68 61/106/68
f 69/112/69 46/71/69 47/75/69
f 66/113/70 45/69/70 67/114/70
f 67/114/71 46/71/71 68/115/71
f 65/116/72 44/74/72 66/113/72
f 55/82/47 47/68/47 52/83/47
f 73/117/73 78/104/73 76/103/73
f 73/117/74 77/98/74 74/118/74
f 72/119/75 75/120/75 73/117/75
f 60/99/76 75/120/76 56/121/76
f 61/97/77 78/104/77 74/118/77
f 72/119/78 76/103/78 57/122/78
f 79/123/79 84/91/79 82/124/79
f 79/123/80 83/94/80 80/92/80
f 71/125/81 82/124/81 53/126/81
f 53/126/82 84/91/82 57/127/82
f 72/90/83 83/94/83 56/128/83
f 71/125/84 81/95/84 79/123/84
f 59/66/47 64/96/47 69/67/47
f 45/69/48 50/77/48 51/70/48
f 43/72/49 48/129/49 49/73/49
f 47/75/85 46/71/85 51/70/85
f 44/74/51 49/73/51 50/77/51
f 48/78/52 70/87/52 71/79/52
f 51/81/53 54/88/53 55/82/53
f 49/80/54 71/79/54 53/84/54
f 43/86/55 56/110/55 70/87/55
f 50/85/86 53/84/86 54/88/86
f 55/82/57 54/88/57 58/89/57
f 72/90/87 57/127/87 84/91/87
f 53/84/88 57/100/88 58/89/88
f 70/93/60 56/128/60 83/94/60
f 58/89/61 63/101/61 64/96/61
f 61/97/89 74/118/89 77/98/89
f 57/100/63 62/108/63 63/101/63
f 62/102/64 57/122/64 76/103/64
f 64/96/65 63/101/65 68/105/65
f 61/106/90 66/111/90 67/107/90
f 43/86/55 65/130/55 60/109/55
f 62/108/67 67/107/67 68/105/67
f 60/109/68 65/130/68 66/111/68
f 69/112/69 68/115/69 46/71/69
f 66/113/70 44/74/70 45/69/70
f 67/114/71 45/69/71 46/71/71
f 65/116/72 43/72/72 44/74/72
f 55/82/47 59/66/47 47/68/47
f 73/117/91 74/118/91 78/104/91
f 73/117/74 75/120/74 77/98/74
f 72/119/92 56/121/92 75/120/92
f 60/99/93 77/98/93 75/120/93
f 61/97/94 62/102/94 78/104/94
f 72/119/95 73/117/95 76/103/95
f 79/123/96 80/92/96 84/91/96
f 79/123/97 81/95/97 83/94/97
f 71/125/98 79/123/98 82/124/98
f 53/126/99 82/124/99 84/91/99
f 72/90/100 80/92/100 83/94/100
f 71/125/101 70/93/101 81/95/101
