# Blender v2.81 (sub 16) OBJ File: 'garbage.blend'
# www.blender.org
v 0.223271 1.208400 -0.465753
v 0.213286 1.200261 -0.440147
v 0.202889 1.179867 -0.422896
v 0.194865 1.152683 -0.418623
v 0.191365 1.125993 -0.428472
v 0.203201 1.207551 -0.484807
v 0.178524 1.198789 -0.473149
v 0.162749 1.178168 -0.461004
v 0.160103 1.151212 -0.451625
v 0.171295 1.125144 -0.447525
v 0.171607 1.152827 -0.509436
v 0.167774 1.129266 -0.493568
v 0.175724 1.112474 -0.471741
v 0.232129 1.183060 -0.514185
v 0.220605 1.129186 -0.519760
v 0.210207 1.108792 -0.502509
v 0.200223 1.100653 -0.476903
v 0.252198 1.183909 -0.495131
v 0.263390 1.157841 -0.491031
v 0.260744 1.130885 -0.481652
v 0.244969 1.110264 -0.469507
v 0.220292 1.101502 -0.457850
v 0.247769 1.196579 -0.470915
v 0.255719 1.179787 -0.449088
v 0.251886 1.156226 -0.433221
v 0.237298 1.132209 -0.427564
v 0.215863 1.114173 -0.433634
v 0.207630 1.194880 -0.509023
v 0.186195 1.176844 -0.515093
v 0.228628 1.156370 -0.524034
v 0.275700 1.153202 -0.541475
v 0.278536 1.153322 -0.538782
v 0.252967 1.176369 -0.525678
v 0.251390 1.132042 -0.527528
v 0.262901 1.176790 -0.516246
v 0.266800 1.132694 -0.512898
v 0.195729 1.174451 -0.562531
v 0.205772 1.169604 -0.564647
v 0.205569 1.182802 -0.548993
v 0.193580 1.157910 -0.546599
v 0.210172 1.180581 -0.549963
v 0.198196 1.155682 -0.547572
vt 0.274240 0.539347
vt 0.265397 0.539709
vt 0.266768 0.532487
vt 0.231414 0.551290
vt 0.214659 0.541092
vt 0.231357 0.542861
vt 0.231940 0.569242
vt 0.215985 0.562822
vt 0.231472 0.559719
vt 0.230890 0.533338
vt 0.220414 0.530957
vt 0.213134 0.552274
vt 0.289666 0.544440
vt 0.282983 0.540904
vt 0.290637 0.536818
vt 0.279682 0.529141
vt 0.275518 0.536619
vt 0.273707 0.532162
vt 0.280945 0.538772
vt 0.286431 0.530872
vt 0.290637 0.551375
vt 0.284312 0.543753
vt 0.278488 0.537315
vt 0.276318 0.541045
vt 0.804698 0.251197
vt 0.792375 0.255919
vt 0.792638 0.252041
vt 0.786357 0.239035
vt 0.792578 0.249274
vt 0.791489 0.249454
vt 0.271776 0.541127
vt 0.760733 0.199751
vt 0.757502 0.209505
vt 0.750621 0.206121
vt 0.278108 0.542645
vt 0.273009 0.544115
vt 0.772804 0.201934
vt 0.766718 0.213101
vt 0.766203 0.208706
vt 0.264007 0.548518
vt 0.277612 0.547903
vt 0.268747 0.555467
vt 0.275021 0.546378
vt 0.280714 0.548498
vt 0.281954 0.545638
vt 0.276612 0.557409
vt 0.240880 0.530957
vt 0.248168 0.561486
vt 0.249693 0.550306
vt 0.246843 0.539760
vt 0.242415 0.571620
vt 0.762287 0.211045
vt 0.762255 0.210544
vt 0.761023 0.221925
vt 0.757316 0.212491
vt 0.750922 0.216572
vt 0.772804 0.220841
vt 0.791613 0.252007
vt 0.791097 0.255536
vt 0.780068 0.250772
vt 0.780487 0.263708
vt 0.804698 0.264828
vt 0.798786 0.238814
vt 0.221949 0.571626
vt 0.283377 0.553479
vn -0.3327 -0.8592 0.3887
vn -0.6628 0.3033 0.6846
vn -0.2382 0.9485 0.2086
vn -0.6738 -0.1764 0.7176
vn -0.5124 0.6917 0.5089
vn -0.4848 0.7354 -0.4735
vn -0.9203 -0.3895 0.0355
vn -0.8301 0.4171 -0.3700
vn 0.3327 0.8592 -0.3887
vn -0.9805 0.0286 -0.1943
vn -0.4643 -0.7756 -0.4276
vn 0.3850 -0.7916 -0.4746
vn -0.3929 -0.4688 -0.7911
vn 0.3667 0.8852 -0.2864
vn 0.2382 -0.9485 -0.2086
vn 0.8600 0.4158 0.2958
vn 0.5124 -0.6917 -0.5089
vn 0.0818 -0.9958 -0.0418
vn 0.4848 -0.7354 0.4734
vn 0.9805 -0.0286 0.1943
vn 0.8301 -0.4171 0.3701
vn 0.9203 0.3895 -0.0355
vn 0.0288 -0.3494 0.9365
vn 0.3929 0.4688 0.7911
vn 0.2425 0.0804 0.9668
vn 0.4643 0.7756 0.4276
vn 0.4405 -0.7887 -0.4288
vn 0.4322 0.7576 -0.4891
vn -0.3125 0.3064 -0.8991
vn 0.1793 0.9562 -0.2315
vn 0.9393 -0.1435 0.3115
vn -0.2366 -0.0824 -0.9681
vn -0.4305 -0.5965 -0.6774
vn 0.2280 0.7459 -0.6259
vn -0.8139 0.3937 -0.4274
vn -0.4656 -0.7972 -0.3843
vn 0.8468 0.0828 -0.5254
vn -0.5155 0.8443 -0.1462
vn -0.4848 0.7354 -0.4734
vn -0.8301 0.4171 -0.3701
vn 0.5892 -0.2923 -0.7532
vn 0.3667 0.8851 -0.2864
vn 0.8993 0.3577 0.2514
vn 0.4848 -0.7354 0.4735
vn 0.3929 0.4689 0.7911
vn -0.3574 0.3642 -0.8600
vn 0.9816 -0.0308 0.1885
vn -0.3522 -0.1982 -0.9147
vn -0.9792 -0.0594 -0.1938
vn 0.8793 0.2156 -0.4246
vn -0.5958 0.7768 -0.2040
s off
f 17/1/1 27/2/1 5/3/1
f 3/4/2 9/5/2 4/6/2
f 1/7/3 7/8/3 2/9/3
f 5/10/4 9/5/4 10/11/4
f 2/9/5 8/12/5 3/4/5
f 6/13/6 29/14/6 7/15/6
f 9/16/7 13/17/7 10/18/7
f 7/15/8 11/19/8 8/20/8
f 1/21/9 28/22/9 6/13/9
f 8/20/10 12/23/10 9/16/10
f 13/17/11 16/24/11 17/1/11
f 30/25/12 42/26/12 38/27/12
f 11/19/13 16/24/13 12/23/13
f 28/28/14 41/29/14 39/30/14
f 16/24/15 22/31/15 17/1/15
f 19/32/16 35/33/16 18/34/16
f 15/35/17 21/36/17 16/24/17
f 20/37/18 34/38/18 36/39/18
f 22/31/19 26/40/19 27/2/19
f 19/41/20 25/42/20 20/43/20
f 1/21/9 18/44/9 14/45/9
f 20/43/21 26/40/21 21/36/21
f 18/44/22 24/46/22 19/41/22
f 27/47/23 4/6/23 5/10/23
f 24/48/24 3/4/24 25/49/24
f 25/49/25 4/6/25 26/50/25
f 23/51/26 2/9/26 24/48/26
f 13/17/1 5/3/1 10/18/1
f 31/52/27 36/39/27 34/38/27
f 31/52/28 35/33/28 32/53/28
f 30/54/29 33/55/29 31/52/29
f 18/34/30 33/55/30 14/56/30
f 19/32/31 36/39/31 32/53/31
f 30/54/32 34/38/32 15/57/32
f 37/58/33 42/26/33 40/59/33
f 37/58/34 41/29/34 38/27/34
f 29/60/35 40/59/35 11/61/35
f 11/61/36 42/26/36 15/62/36
f 30/25/37 41/29/37 14/63/37
f 29/60/38 39/30/38 37/58/38
f 17/1/1 22/31/1 27/2/1
f 3/4/2 8/12/2 9/5/2
f 1/7/3 6/64/3 7/8/3
f 5/10/4 4/6/4 9/5/4
f 2/9/5 7/8/5 8/12/5
f 6/13/39 28/22/39 29/14/39
f 9/16/7 12/23/7 13/17/7
f 7/15/40 29/14/40 11/19/40
f 1/21/9 14/45/9 28/22/9
f 8/20/10 11/19/10 12/23/10
f 13/17/11 12/23/11 16/24/11
f 30/25/41 15/62/41 42/26/41
f 11/19/13 15/35/13 16/24/13
f 28/28/42 14/63/42 41/29/42
f 16/24/15 21/36/15 22/31/15
f 19/32/43 32/53/43 35/33/43
f 15/35/17 20/43/17 21/36/17
f 20/37/18 15/57/18 34/38/18
f 22/31/44 21/36/44 26/40/44
f 19/41/20 24/46/20 25/42/20
f 1/21/9 23/65/9 18/44/9
f 20/43/21 25/42/21 26/40/21
f 18/44/22 23/65/22 24/46/22
f 27/47/23 26/50/23 4/6/23
f 24/48/45 2/9/45 3/4/45
f 25/49/25 3/4/25 4/6/25
f 23/51/26 1/7/26 2/9/26
f 13/17/1 17/1/1 5/3/1
f 31/52/27 32/53/27 36/39/27
f 31/52/28 33/55/28 35/33/28
f 30/54/46 14/56/46 33/55/46
f 18/34/30 35/33/30 33/55/30
f 19/32/47 20/37/47 36/39/47
f 30/54/48 31/52/48 34/38/48
f 37/58/33 38/27/33 42/26/33
f 37/58/34 39/30/34 41/29/34
f 29/60/49 37/58/49 40/59/49
f 11/61/36 40/59/36 42/26/36
f 30/25/50 38/27/50 41/29/50
f 29/60/51 28/28/51 39/30/51
v 0.277306 1.336304 0.491005
v 0.262863 1.311562 0.491935
v 0.262318 1.283301 0.496691
v 0.275816 1.259093 0.503996
v 0.299741 1.245424 0.511895
v 0.295740 1.336106 0.470348
v 0.294793 1.311220 0.456157
v 0.299187 1.282906 0.455377
v 0.307745 1.258751 0.468218
v 0.318175 1.245227 0.491238
v 0.351597 1.298032 0.464895
v 0.353134 1.271851 0.476460
v 0.344380 1.252790 0.495997
v 0.329716 1.351430 0.500522
v 0.367139 1.313553 0.515726
v 0.366594 1.285292 0.520481
v 0.352151 1.260550 0.521412
v 0.311282 1.351627 0.521179
v 0.321712 1.338103 0.544199
v 0.330271 1.313948 0.557039
v 0.334665 1.285634 0.556260
v 0.333717 1.260748 0.542069
v 0.285077 1.344064 0.516420
v 0.276323 1.325004 0.535957
v 0.277860 1.298822 0.547522
v 0.289276 1.272534 0.548017
v 0.307512 1.253185 0.537310
v 0.321946 1.343669 0.475107
v 0.340181 1.324320 0.464400
v 0.353641 1.337761 0.508421
v 0.363201 1.369606 0.546163
v 0.360596 1.369634 0.549083
v 0.340055 1.364193 0.518997
v 0.367601 1.335553 0.538792
v 0.330930 1.364290 0.529222
v 0.353447 1.335705 0.554652
v 0.378322 1.354180 0.463558
v 0.381508 1.357361 0.473978
v 0.361293 1.357097 0.470725
v 0.375489 1.333397 0.473156
v 0.362753 1.358555 0.475500
v 0.376953 1.334860 0.477945
vt 0.274240 0.539347
vt 0.265397 0.539709
vt 0.266768 0.532487
vt 0.231414 0.551290
vt 0.214659 0.541092
vt 0.231357 0.542861
vt 0.231940 0.569242
vt 0.215985 0.562822
vt 0.231472 0.559719
vt 0.230890 0.533338
vt 0.220414 0.530957
vt 0.213134 0.552274
vt 0.289666 0.544440
vt 0.282983 0.540904
vt 0.290637 0.536818
vt 0.279682 0.529141
vt 0.275518 0.536619
vt 0.273707 0.532162
vt 0.280945 0.538772
vt 0.286431 0.530872
vt 0.290637 0.551375
vt 0.284312 0.543753
vt 0.278488 0.537315
vt 0.276318 0.541045
vt 0.804698 0.251197
vt 0.792375 0.255919
vt 0.792638 0.252041
vt 0.786357 0.239035
vt 0.792578 0.249274
vt 0.791489 0.249454
vt 0.271776 0.541127
vt 0.760733 0.199751
vt 0.757502 0.209505
vt 0.750621 0.206121
vt 0.278108 0.542645
vt 0.273009 0.544115
vt 0.772804 0.201934
vt 0.766718 0.213101
vt 0.766203 0.208706
vt 0.264007 0.548518
vt 0.277612 0.547903
vt 0.268747 0.555467
vt 0.275021 0.546378
vt 0.280714 0.548498
vt 0.281954 0.545638
vt 0.276612 0.557409
vt 0.240880 0.530957
vt 0.248168 0.561486
vt 0.249693 0.550306
vt 0.246843 0.539760
vt 0.242415 0.571620
vt 0.762287 0.211045
vt 0.762255 0.210544
vt 0.761023 0.221925
vt 0.757316 0.212491
vt 0.750922 0.216572
vt 0.772804 0.220841
vt 0.791613 0.252007
vt 0.791097 0.255536
vt 0.780068 0.250772
vt 0.780487 0.263708
vt 0.804698 0.264828
vt 0.798786 0.238814
vt 0.221949 0.571626
vt 0.283377 0.553479
vn 0.2339 -0.9475 0.2178
vn -0.6373 -0.5255 -0.5637
vn -0.6887 0.3788 -0.6182
vn -0.3824 -0.8619 -0.3331
vn -0.7430 -0.0971 -0.6622
vn 0.0150 0.4949 -0.8688
vn 0.3212 -0.7458 -0.5837
vn 0.1637 0.0525 -0.9851
vn -0.2339 0.9475 -0.2178
vn 0.2695 -0.3758 -0.8866
vn 0.8568 -0.5042 -0.1080
vn 0.7907 -0.0525 0.6099
vn 0.9596 -0.0646 -0.2737
vn -0.3356 0.9247 -0.1797
vn 0.6887 -0.3788 0.6182
vn -0.5939 0.5467 0.5903
vn 0.7430 0.0971 0.6622
vn 0.6034 -0.5831 0.5440
vn -0.0150 -0.4949 0.8688
vn -0.2695 0.3758 0.8866
vn -0.1637 -0.0525 0.9851
vn -0.3212 0.7458 0.5837
vn -0.5505 -0.7364 0.3932
vn -0.9596 0.0646 0.2737
vn -0.8539 -0.3638 0.3722
vn -0.8568 0.5042 0.1080
vn 0.7450 -0.0477 0.6653
vn -0.1075 0.9886 -0.1054
vn 0.5833 0.5419 -0.6050
vn -0.3960 0.8441 -0.3615
vn -0.2909 0.2143 0.9324
vn 0.8553 0.3663 -0.3665
vn 0.9480 -0.2306 -0.2194
vn 0.0361 0.9526 -0.3019
vn 0.2211 0.0777 -0.9721
vn 0.8349 -0.5431 -0.0894
vn 0.2600 0.7823 0.5661
vn -0.3067 0.3670 -0.8782
vn 0.6957 0.5332 0.4814
vn -0.5298 0.5539 0.6423
vn 0.7450 -0.0478 0.6653
vn 0.5243 0.5347 -0.6628
vn -0.2637 0.3783 0.8873
vn 0.8954 0.2016 -0.3969
vn 0.0362 0.9526 -0.3019
vn 0.3203 -0.4328 -0.8427
vn 0.8349 -0.5431 -0.0895
vn 0.0975 0.8290 0.5506
vn -0.2103 0.3141 -0.9258
s off
f 59/66/52 69/67/52 47/68/52
f 45/69/53 51/70/53 46/71/53
f 43/72/54 49/73/54 44/74/54
f 47/75/55 51/70/55 52/76/55
f 44/74/56 50/77/56 45/69/56
f 48/78/57 71/79/57 49/80/57
f 51/81/58 55/82/58 52/83/58
f 49/80/59 53/84/59 50/85/59
f 43/86/60 70/87/60 48/78/60
f 50/85/61 54/88/61 51/81/61
f 55/82/62 58/89/62 59/66/62
f 72/90/63 84/91/63 80/92/63
f 53/84/64 58/89/64 54/88/64
f 70/93/65 83/94/65 81/95/65
f 58/89/66 64/96/66 59/66/66
f 61/97/67 77/98/67 60/99/67
f 57/100/68 63/101/68 58/89/68
f 62/102/69 76/103/69 78/104/69
f 64/96/70 68/105/70 69/67/70
f 61/106/71 67/107/71 62/108/71
f 43/86/60 60/109/60 56/110/60
f 62/108/72 68/105/72 63/101/72
f 60/109/73 66/111/73 61/106/73
f 69/112/74 46/71/74 47/75/74
f 66/113/75 45/69/75 67/114/75
f 67/114/76 46/71/76 68/115/76
f 65/116/77 44/74/77 66/113/77
f 55/82/52 47/68/52 52/83/52
f 73/117/78 78/104/78 76/103/78
f 73/117/79 77/98/79 74/118/79
f 72/119/80 75/120/80 73/117/80
f 60/99/81 75/120/81 56/121/81
f 61/97/82 78/104/82 74/118/82
f 72/119/83 76/103/83 57/122/83
f 79/123/84 84/91/84 82/124/84
f 79/123/85 83/94/85 80/92/85
f 71/125/86 82/124/86 53/126/86
f 53/126/87 84/91/87 57/127/87
f 72/90/88 83/94/88 56/128/88
f 71/125/89 81/95/89 79/123/89
f 59/66/52 64/96/52 69/67/52
f 45/69/53 50/77/53 51/70/53
f 43/72/54 48/129/54 49/73/54
f 47/75/55 46/71/55 51/70/55
f 44/74/56 49/73/56 50/77/56
f 48/78/57 70/87/57 71/79/57
f 51/81/58 54/88/58 55/82/58
f 49/80/59 71/79/59 53/84/59
f 43/86/60 56/110/60 70/87/60
f 50/85/61 53/84/61 54/88/61
f 55/82/62 54/88/62 58/89/62
f 72/90/90 57/127/90 84/91/90
f 53/84/64 57/100/64 58/89/64
f 70/93/65 56/128/65 83/94/65
f 58/89/66 63/101/66 64/96/66
f 61/97/91 74/118/91 77/98/91
f 57/100/68 62/108/68 63/101/68
f 62/102/69 57/122/69 76/103/69
f 64/96/70 63/101/70 68/105/70
f 61/106/71 66/111/71 67/107/71
f 43/86/60 65/130/60 60/109/60
f 62/108/72 67/107/72 68/105/72
f 60/109/73 65/130/73 66/111/73
f 69/112/74 68/115/74 46/71/74
f 66/113/75 44/74/75 45/69/75
f 67/114/76 45/69/76 46/71/76
f 65/116/77 43/72/77 44/74/77
f 55/82/52 59/66/52 47/68/52
f 73/117/92 74/118/92 78/104/92
f 73/117/79 75/120/79 77/98/79
f 72/119/93 56/121/93 75/120/93
f 60/99/81 77/98/81 75/120/81
f 61/97/94 62/102/94 78/104/94
f 72/119/95 73/117/95 76/103/95
f 79/123/84 80/92/84 84/91/84
f 79/123/96 81/95/96 83/94/96
f 71/125/97 79/123/97 82/124/97
f 53/126/98 82/124/98 84/91/98
f 72/90/99 80/92/99 83/94/99
f 71/125/100 70/93/100 81/95/100
