# Blender v2.81 (sub 16) OBJ File: 'garbage.blend'
# www.blender.org
v 0.119313 1.154538 -0.703166
v 0.129987 1.133115 -0.687396
v 0.126272 1.108461 -0.673254
v 0.109162 1.087184 -0.664529
v 0.083242 1.074983 -0.663559
v 0.101808 1.169919 -0.688214
v 0.099667 1.159755 -0.661499
v 0.091261 1.139223 -0.643351
v 0.078841 1.113824 -0.638632
v 0.065737 1.090364 -0.648608
v 0.041273 1.151822 -0.663568
v 0.035551 1.124735 -0.656141
v 0.040743 1.096664 -0.658716
v 0.069326 1.167138 -0.723383
v 0.026296 1.133660 -0.713689
v 0.022581 1.109006 -0.699547
v 0.033255 1.087583 -0.683777
v 0.086831 1.151757 -0.738335
v 0.073727 1.128297 -0.748311
v 0.061307 1.102898 -0.743592
v 0.052901 1.082366 -0.725444
v 0.050760 1.072202 -0.698728
v 0.111825 1.145457 -0.728226
v 0.117017 1.117386 -0.730802
v 0.111295 1.090299 -0.723375
v 0.096192 1.071455 -0.707935
v 0.075754 1.065902 -0.688620
v 0.076814 1.176219 -0.698323
v 0.056376 1.170666 -0.679008
v 0.043406 1.154937 -0.722414
v 0.037179 1.156698 -0.772295
v 0.039653 1.154525 -0.774407
v 0.060273 1.166606 -0.746380
v 0.028178 1.135950 -0.745429
v 0.068939 1.158992 -0.753781
v 0.041618 1.124140 -0.756909
v 0.023004 1.199135 -0.699572
v 0.019934 1.195412 -0.709846
v 0.040004 1.194541 -0.705879
v 0.022455 1.176824 -0.693743
v 0.038597 1.192834 -0.710587
v 0.021044 1.175113 -0.698465
vt 0.274240 0.539347
vt 0.265397 0.539709
vt 0.266768 0.532487
vt 0.231414 0.551290
vt 0.214659 0.541092
vt 0.231357 0.542861
vt 0.231940 0.569242
vt 0.215985 0.562822
vt 0.231472 0.559719
vt 0.230890 0.533338
vt 0.220414 0.530957
vt 0.213134 0.552274
vt 0.289666 0.544440
vt 0.282983 0.540904
vt 0.290637 0.536818
vt 0.279682 0.529141
vt 0.275518 0.536619
vt 0.273707 0.532162
vt 0.280945 0.538772
vt 0.286431 0.530872
vt 0.290637 0.551375
vt 0.284312 0.543753
vt 0.278488 0.537315
vt 0.276318 0.541045
vt 0.804698 0.251197
vt 0.792375 0.255919
vt 0.792638 0.252041
vt 0.786357 0.239035
vt 0.792578 0.249274
vt 0.791489 0.249454
vt 0.271776 0.541127
vt 0.760733 0.199751
vt 0.757502 0.209505
vt 0.750621 0.206121
vt 0.278108 0.542645
vt 0.273009 0.544115
vt 0.772804 0.201934
vt 0.766718 0.213101
vt 0.766203 0.208706
vt 0.264007 0.548518
vt 0.277612 0.547903
vt 0.268747 0.555467
vt 0.275021 0.546378
vt 0.280714 0.548498
vt 0.281954 0.545638
vt 0.276612 0.557409
vt 0.240880 0.530957
vt 0.248168 0.561486
vt 0.249693 0.550306
vt 0.246843 0.539760
vt 0.242415 0.571620
vt 0.762287 0.211045
vt 0.762255 0.210544
vt 0.761023 0.221925
vt 0.757316 0.212491
vt 0.750922 0.216572
vt 0.772804 0.220841
vt 0.791613 0.252007
vt 0.791097 0.255536
vt 0.780068 0.250772
vt 0.780487 0.263708
vt 0.804698 0.264828
vt 0.798786 0.238814
vt 0.221949 0.571626
vt 0.283377 0.553479
vn -0.3761 -0.8295 0.4130
vn 0.5748 -0.1310 0.8077
vn 0.7582 0.5869 0.2840
vn 0.2658 -0.4992 0.8247
vn 0.7448 0.2440 0.6211
vn 0.0883 0.9286 0.3604
vn -0.4041 -0.1574 0.9011
vn -0.1185 0.6844 0.7194
vn 0.3761 0.8295 -0.4130
vn -0.2885 0.3094 0.9061
vn -0.9161 -0.2013 0.3467
vn -0.8117 -0.3188 -0.4894
vn -0.9483 0.2529 0.1917
vn 0.4719 0.7743 -0.4216
vn -0.7582 -0.5869 -0.2840
vn 0.6448 -0.0355 -0.7635
vn -0.7448 -0.2440 -0.6210
vn -0.7007 -0.7075 -0.0926
vn -0.0883 -0.9286 -0.3604
vn 0.2885 -0.3094 -0.9061
vn 0.1185 -0.6844 -0.7194
vn 0.4041 0.1574 -0.9011
vn 0.4237 -0.8848 0.1940
vn 0.9483 -0.2529 -0.1917
vn 0.7783 -0.6279 -0.0050
vn 0.9161 0.2013 -0.3467
vn -0.7678 -0.3563 -0.5325
vn 0.2529 0.8068 -0.5339
vn -0.4766 0.8745 0.0904
vn 0.5267 0.8194 -0.2263
vn 0.2847 -0.4645 -0.8386
vn -0.7795 0.6264 -0.0010
vn -0.9627 0.0903 0.2549
vn 0.1128 0.9229 -0.3681
vn -0.1721 0.7032 0.6899
vn -0.9008 -0.2457 0.3582
vn -0.1648 0.2747 -0.9473
vn 0.3883 0.7936 0.4685
vn 0.7448 0.2440 0.6210
vn -0.6284 0.1968 -0.7526
vn 0.5805 -0.0543 -0.8125
vn -0.7678 -0.3563 -0.5324
vn -0.4171 0.8975 0.1434
vn 0.2831 -0.3072 -0.9086
vn -0.8419 0.5253 0.1236
vn -0.3485 0.2450 0.9047
vn 0.0033 0.2983 -0.9545
vn 0.2870 0.7962 0.5326
s off
f 17/1/1 27/2/1 5/3/1
f 3/4/2 9/5/2 4/6/2
f 1/7/3 7/8/3 2/9/3
f 5/10/4 9/5/4 10/11/4
f 2/9/5 8/12/5 3/4/5
f 6/13/6 29/14/6 7/15/6
f 9/16/7 13/17/7 10/18/7
f 7/15/8 11/19/8 8/20/8
f 1/21/9 28/22/9 6/13/9
f 8/20/10 12/23/10 9/16/10
f 13/17/11 16/24/11 17/1/11
f 30/25/12 42/26/12 38/27/12
f 11/19/13 16/24/13 12/23/13
f 28/28/14 41/29/14 39/30/14
f 16/24/15 22/31/15 17/1/15
f 19/32/16 35/33/16 18/34/16
f 15/35/17 21/36/17 16/24/17
f 20/37/18 34/38/18 36/39/18
f 22/31/19 26/40/19 27/2/19
f 19/41/20 25/42/20 20/43/20
f 1/21/9 18/44/9 14/45/9
f 20/43/21 26/40/21 21/36/21
f 18/44/22 24/46/22 19/41/22
f 27/47/23 4/6/23 5/10/23
f 24/48/24 3/4/24 25/49/24
f 25/49/25 4/6/25 26/50/25
f 23/51/26 2/9/26 24/48/26
f 13/17/1 5/3/1 10/18/1
f 31/52/27 36/39/27 34/38/27
f 31/52/28 35/33/28 32/53/28
f 30/54/29 33/55/29 31/52/29
f 18/34/30 33/55/30 14/56/30
f 19/32/31 36/39/31 32/53/31
f 30/54/32 34/38/32 15/57/32
f 37/58/33 42/26/33 40/59/33
f 37/58/34 41/29/34 38/27/34
f 29/60/35 40/59/35 11/61/35
f 11/61/36 42/26/36 15/62/36
f 30/25/37 41/29/37 14/63/37
f 29/60/38 39/30/38 37/58/38
f 17/1/1 22/31/1 27/2/1
f 3/4/2 8/12/2 9/5/2
f 1/7/3 6/64/3 7/8/3
f 5/10/4 4/6/4 9/5/4
f 2/9/39 7/8/39 8/12/39
f 6/13/6 28/22/6 29/14/6
f 9/16/7 12/23/7 13/17/7
f 7/15/8 29/14/8 11/19/8
f 1/21/9 14/45/9 28/22/9
f 8/20/10 11/19/10 12/23/10
f 13/17/11 12/23/11 16/24/11
f 30/25/40 15/62/40 42/26/40
f 11/19/13 15/35/13 16/24/13
f 28/28/14 14/63/14 41/29/14
f 16/24/15 21/36/15 22/31/15
f 19/32/41 32/53/41 35/33/41
f 15/35/17 20/43/17 21/36/17
f 20/37/18 15/57/18 34/38/18
f 22/31/19 21/36/19 26/40/19
f 19/41/20 24/46/20 25/42/20
f 1/21/9 23/65/9 18/44/9
f 20/43/21 25/42/21 26/40/21
f 18/44/22 23/65/22 24/46/22
f 27/47/23 26/50/23 4/6/23
f 24/48/24 2/9/24 3/4/24
f 25/49/25 3/4/25 4/6/25
f 23/51/26 1/7/26 2/9/26
f 13/17/1 17/1/1 5/3/1
f 31/52/42 32/53/42 36/39/42
f 31/52/28 33/55/28 35/33/28
f 30/54/43 14/56/43 33/55/43
f 18/34/30 35/33/30 33/55/30
f 19/32/44 20/37/44 36/39/44
f 30/54/45 31/52/45 34/38/45
f 37/58/33 38/27/33 42/26/33
f 37/58/34 39/30/34 41/29/34
f 29/60/46 37/58/46 40/59/46
f 11/61/36 40/59/36 42/26/36
f 30/25/47 38/27/47 41/29/47
f 29/60/48 28/28/48 39/30/48
v 0.880758 1.271140 0.238755
v 0.857701 1.257955 0.249530
v 0.844543 1.233953 0.258038
v 0.844810 1.205566 0.262000
v 0.858432 1.180399 0.260353
v 0.884737 1.263873 0.212337
v 0.864592 1.245368 0.203772
v 0.852500 1.219419 0.205202
v 0.851701 1.192979 0.216242
v 0.862410 1.173132 0.233935
v 0.902604 1.203052 0.188233
v 0.895093 1.178805 0.201547
v 0.887462 1.164949 0.225451
v 0.930863 1.254772 0.221787
v 0.944751 1.201219 0.224101
v 0.931594 1.177217 0.232609
v 0.908536 1.164032 0.243385
v 0.926884 1.262039 0.248205
v 0.937593 1.242193 0.265898
v 0.936794 1.215753 0.276938
v 0.924702 1.189804 0.278367
v 0.904557 1.171299 0.269803
v 0.901832 1.270223 0.256689
v 0.894201 1.256367 0.280593
v 0.886690 1.232120 0.293906
v 0.881311 1.203978 0.293062
v 0.879505 1.179483 0.278287
v 0.909789 1.255689 0.203853
v 0.907983 1.231193 0.189077
v 0.944484 1.229606 0.220140
v 0.985054 1.246318 0.244732
v 0.984492 1.247345 0.248465
v 0.953323 1.257584 0.231722
v 0.966995 1.216413 0.241149
v 0.951353 1.261181 0.244799
v 0.963940 1.221992 0.261433
v 0.950905 1.236082 0.167148
v 0.959544 1.235706 0.174500
v 0.943341 1.246631 0.180615
v 0.942200 1.218931 0.179881
v 0.947300 1.246459 0.183984
v 0.946171 1.218759 0.183260
vt 0.274240 0.539347
vt 0.265397 0.539709
vt 0.266768 0.532487
vt 0.231414 0.551290
vt 0.214659 0.541092
vt 0.231357 0.542861
vt 0.231940 0.569242
vt 0.215985 0.562822
vt 0.231472 0.559719
vt 0.230890 0.533338
vt 0.220414 0.530957
vt 0.213134 0.552274
vt 0.289666 0.544440
vt 0.282983 0.540904
vt 0.290637 0.536818
vt 0.279682 0.529141
vt 0.275518 0.536619
vt 0.273707 0.532162
vt 0.280945 0.538772
vt 0.286431 0.530872
vt 0.290637 0.551375
vt 0.284312 0.543753
vt 0.278488 0.537315
vt 0.276318 0.541045
vt 0.804698 0.251197
vt 0.792375 0.255919
vt 0.792638 0.252041
vt 0.786357 0.239035
vt 0.792578 0.249274
vt 0.791489 0.249454
vt 0.271776 0.541127
vt 0.760733 0.199751
vt 0.757502 0.209505
vt 0.750621 0.206121
vt 0.278108 0.542645
vt 0.273009 0.544115
vt 0.772804 0.201934
vt 0.766718 0.213101
vt 0.766203 0.208706
vt 0.264007 0.548518
vt 0.277612 0.547903
vt 0.268747 0.555467
vt 0.275021 0.546378
vt 0.280714 0.548498
vt 0.281954 0.545638
vt 0.276612 0.557409
vt 0.240880 0.530957
vt 0.248168 0.561486
vt 0.249693 0.550306
vt 0.246843 0.539760
vt 0.242415 0.571620
vt 0.762287 0.211045
vt 0.762255 0.210544
vt 0.761023 0.221925
vt 0.757316 0.212491
vt 0.750922 0.216572
vt 0.772804 0.220841
vt 0.791613 0.252007
vt 0.791097 0.255536
vt 0.780068 0.250772
vt 0.780487 0.263708
vt 0.804698 0.264828
vt 0.798786 0.238814
vt 0.221949 0.571626
vt 0.283377 0.553479
vn -0.2328 -0.9461 0.2252
vn -0.9896 -0.0290 -0.1411
vn -0.5747 0.7628 -0.2964
vn -0.8795 -0.4759 -0.0015
vn -0.8843 0.3987 -0.2429
vn -0.1171 0.5193 -0.8466
vn -0.4219 -0.7195 -0.5517
vn -0.2946 0.0849 -0.9518
vn 0.2328 0.9461 -0.2252
vn -0.3999 -0.3429 -0.8500
vn 0.3052 -0.8629 -0.4028
vn 0.8166 -0.5426 0.1969
vn 0.5371 -0.5277 -0.6581
vn 0.1643 0.9760 -0.1432
vn 0.5747 -0.7628 0.2964
vn 0.1228 0.6965 0.7070
vn 0.8843 -0.3987 0.2429
vn 0.3722 -0.8791 0.2979
vn 0.1171 -0.5193 0.8466
vn 0.3999 0.3429 0.8500
vn 0.2946 -0.0849 0.9518
vn 0.4219 0.7195 0.5517
vn -0.6100 -0.3758 0.6976
vn -0.5371 0.5277 0.6581
vn -0.6423 0.1000 0.7599
vn -0.3052 0.8629 0.4028
vn 0.8109 -0.5215 0.2656
vn 0.3961 0.8988 -0.1877
vn 0.4365 0.2229 -0.8716
vn -0.0032 0.9641 -0.2657
vn 0.3198 0.2130 0.9232
vn 0.6472 -0.0994 -0.7558
vn 0.4655 -0.6676 -0.5811
vn 0.3930 0.8180 -0.4200
vn -0.2341 0.0738 -0.9694
vn 0.2772 -0.8863 -0.3710
vn 0.8533 0.4440 0.2734
vn -0.4211 0.5840 -0.6940
vn 0.9990 0.0152 0.0412
vn 0.1963 0.6617 0.7236
vn 0.3961 0.8989 -0.1876
vn 0.3642 0.2557 -0.8955
vn 0.4057 0.3417 0.8477
vn 0.5758 -0.2547 -0.7769
vn 0.4655 -0.6676 -0.5810
vn -0.3735 -0.4232 -0.8254
vn 0.7536 0.5714 0.3250
vn -0.4006 0.4947 -0.7712
s off
f 59/66/49 69/67/49 47/68/49
f 45/69/50 51/70/50 46/71/50
f 43/72/51 49/73/51 44/74/51
f 47/75/52 51/70/52 52/76/52
f 44/74/53 50/77/53 45/69/53
f 48/78/54 71/79/54 49/80/54
f 51/81/55 55/82/55 52/83/55
f 49/80/56 53/84/56 50/85/56
f 43/86/57 70/87/57 48/78/57
f 50/85/58 54/88/58 51/81/58
f 55/82/59 58/89/59 59/66/59
f 72/90/60 84/91/60 80/92/60
f 53/84/61 58/89/61 54/88/61
f 70/93/62 83/94/62 81/95/62
f 58/89/63 64/96/63 59/66/63
f 61/97/64 77/98/64 60/99/64
f 57/100/65 63/101/65 58/89/65
f 62/102/66 76/103/66 78/104/66
f 64/96/67 68/105/67 69/67/67
f 61/106/68 67/107/68 62/108/68
f 43/86/57 60/109/57 56/110/57
f 62/108/69 68/105/69 63/101/69
f 60/109/70 66/111/70 61/106/70
f 69/112/71 46/71/71 47/75/71
f 66/113/72 45/69/72 67/114/72
f 67/114/73 46/71/73 68/115/73
f 65/116/74 44/74/74 66/113/74
f 55/82/49 47/68/49 52/83/49
f 73/117/75 78/104/75 76/103/75
f 73/117/76 77/98/76 74/118/76
f 72/119/77 75/120/77 73/117/77
f 60/99/78 75/120/78 56/121/78
f 61/97/79 78/104/79 74/118/79
f 72/119/80 76/103/80 57/122/80
f 79/123/81 84/91/81 82/124/81
f 79/123/82 83/94/82 80/92/82
f 71/125/83 82/124/83 53/126/83
f 53/126/84 84/91/84 57/127/84
f 72/90/85 83/94/85 56/128/85
f 71/125/86 81/95/86 79/123/86
f 59/66/49 64/96/49 69/67/49
f 45/69/50 50/77/50 51/70/50
f 43/72/51 48/129/51 49/73/51
f 47/75/52 46/71/52 51/70/52
f 44/74/53 49/73/53 50/77/53
f 48/78/54 70/87/54 71/79/54
f 51/81/55 54/88/55 55/82/55
f 49/80/56 71/79/56 53/84/56
f 43/86/57 56/110/57 70/87/57
f 50/85/58 53/84/58 54/88/58
f 55/82/59 54/88/59 58/89/59
f 72/90/87 57/127/87 84/91/87
f 53/84/61 57/100/61 58/89/61
f 70/93/62 56/128/62 83/94/62
f 58/89/63 63/101/63 64/96/63
f 61/97/88 74/118/88 77/98/88
f 57/100/65 62/108/65 63/101/65
f 62/102/66 57/122/66 76/103/66
f 64/96/67 63/101/67 68/105/67
f 61/106/68 66/111/68 67/107/68
f 43/86/57 65/130/57 60/109/57
f 62/108/69 67/107/69 68/105/69
f 60/109/70 65/130/70 66/111/70
f 69/112/71 68/115/71 46/71/71
f 66/113/72 44/74/72 45/69/72
f 67/114/73 45/69/73 46/71/73
f 65/116/74 43/72/74 44/74/74
f 55/82/49 59/66/49 47/68/49
f 73/117/75 74/118/75 78/104/75
f 73/117/89 75/120/89 77/98/89
f 72/119/90 56/121/90 75/120/90
f 60/99/78 77/98/78 75/120/78
f 61/97/91 62/102/91 78/104/91
f 72/119/92 73/117/92 76/103/92
f 79/123/93 80/92/93 84/91/93
f 79/123/82 81/95/82 83/94/82
f 71/125/94 79/123/94 82/124/94
f 53/126/84 82/124/84 84/91/84
f 72/90/95 80/92/95 83/94/95
f 71/125/96 70/93/96 81/95/96
