# Blender v2.81 (sub 16) OBJ File: 'garbage.blend'
# www.blender.org
v -0.360935 1.577432 -0.468500
v -0.358331 1.556021 -0.487378
v -0.361494 1.528339 -0.494109
v -0.369577 1.501803 -0.486889
v -0.380413 1.483524 -0.467652
v -0.343434 1.573993 -0.447323
v -0.328018 1.550065 -0.450699
v -0.326492 1.521461 -0.451756
v -0.339264 1.495847 -0.450210
v -0.362912 1.480085 -0.446476
v -0.344851 1.525739 -0.399690
v -0.355164 1.499552 -0.405119
v -0.372092 1.482224 -0.420442
v -0.379294 1.581710 -0.416434
v -0.398213 1.536895 -0.389977
v -0.401376 1.509213 -0.396707
v -0.398772 1.487802 -0.415586
v -0.396795 1.585149 -0.437610
v -0.420443 1.569387 -0.433876
v -0.433215 1.543773 -0.432330
v -0.431689 1.515170 -0.433386
v -0.416273 1.491241 -0.436762
v -0.387616 1.583010 -0.463643
v -0.404544 1.565682 -0.478966
v -0.414856 1.539495 -0.484396
v -0.415789 1.511465 -0.478477
v -0.407094 1.489102 -0.462795
v -0.352613 1.576132 -0.421290
v -0.343918 1.553769 -0.405609
v -0.390130 1.563431 -0.397197
v -0.430479 1.592021 -0.388000
v -0.432952 1.592507 -0.390993
v -0.399785 1.591817 -0.406998
v -0.422159 1.557920 -0.389075
v -0.408448 1.593519 -0.417480
v -0.435596 1.560560 -0.405334
v -0.350578 1.575509 -0.362830
v -0.361516 1.577796 -0.360839
v -0.355132 1.581597 -0.379920
v -0.358542 1.555516 -0.371130
v -0.360145 1.582645 -0.379007
v -0.363569 1.556567 -0.370215
vt 0.274240 0.539347
vt 0.265397 0.539709
vt 0.266768 0.532487
vt 0.231414 0.551290
vt 0.214659 0.541092
vt 0.231357 0.542861
vt 0.231940 0.569242
vt 0.215985 0.562822
vt 0.231472 0.559719
vt 0.230890 0.533338
vt 0.220414 0.530957
vt 0.213134 0.552274
vt 0.289666 0.544440
vt 0.282983 0.540904
vt 0.290637 0.536818
vt 0.279682 0.529141
vt 0.275518 0.536619
vt 0.273707 0.532162
vt 0.280945 0.538772
vt 0.286431 0.530872
vt 0.290637 0.551375
vt 0.284312 0.543753
vt 0.278488 0.537315
vt 0.276318 0.541045
vt 0.804698 0.251197
vt 0.792375 0.255919
vt 0.792638 0.252041
vt 0.786357 0.239035
vt 0.792578 0.249274
vt 0.791489 0.249454
vt 0.271776 0.541127
vt 0.760733 0.199751
vt 0.757502 0.209505
vt 0.750621 0.206121
vt 0.278108 0.542645
vt 0.273009 0.544115
vt 0.772804 0.201934
vt 0.766718 0.213101
vt 0.766203 0.208706
vt 0.264007 0.548518
vt 0.277612 0.547903
vt 0.268747 0.555467
vt 0.275021 0.546378
vt 0.280714 0.548498
vt 0.281954 0.545638
vt 0.276612 0.557409
vt 0.240880 0.530957
vt 0.248168 0.561486
vt 0.249693 0.550306
vt 0.246843 0.539760
vt 0.242415 0.571620
vt 0.762287 0.211045
vt 0.762255 0.210544
vt 0.761023 0.221925
vt 0.757316 0.212491
vt 0.750922 0.216572
vt 0.772804 0.220841
vt 0.791613 0.252007
vt 0.791097 0.255536
vt 0.780068 0.250772
vt 0.780487 0.263708
vt 0.804698 0.264828
vt 0.798786 0.238814
vt 0.221949 0.571626
vt 0.283377 0.553479
vn -0.2031 -0.9791 0.0088
vn 0.6825 -0.3781 -0.6255
vn 0.6982 0.5193 -0.4927
vn 0.4323 -0.7626 -0.4811
vn 0.7743 0.0646 -0.6295
vn 0.8294 0.4988 0.2515
vn 0.5635 -0.7831 0.2630
vn 0.9434 0.0382 0.3295
vn 0.2031 0.9791 -0.0088
vn 0.8516 -0.4045 0.3335
vn -0.0018 -0.6615 0.7500
vn -0.7226 -0.2196 0.6554
vn 0.1231 -0.2477 0.9610
vn 0.1826 0.9761 -0.1178
vn -0.6982 -0.5193 0.4927
vn -0.5172 0.6418 -0.5663
vn -0.7743 -0.0646 0.6295
vn -0.6013 -0.7013 0.3830
vn -0.8294 -0.4988 -0.2515
vn -0.8516 0.4045 -0.3335
vn -0.9434 -0.0382 -0.3295
vn -0.5635 0.7831 -0.2630
vn -0.2641 -0.6205 -0.7384
vn -0.1231 0.2477 -0.9610
vn -0.2149 -0.1949 -0.9570
vn 0.0018 0.6615 -0.7500
vn -0.7704 -0.2070 0.6031
vn 0.0703 0.9922 0.1030
vn 0.4778 0.4275 0.7674
vn 0.3755 0.9125 -0.1621
vn -0.8851 0.2496 -0.3927
vn 0.2090 0.1970 0.9579
vn 0.0799 -0.4092 0.9090
vn 0.2436 0.9323 0.2672
vn 0.9203 0.0512 0.3878
vn -0.0147 -0.6956 0.7182
vn -0.6390 0.7043 0.3093
vn 0.8955 0.4373 -0.0828
vn -0.6109 0.3757 0.6969
vn -0.5789 0.6351 -0.5113
vn -0.8294 -0.4989 -0.2515
vn 0.5444 0.4332 0.7183
vn 0.3755 0.9126 -0.1621
vn -0.8533 0.4057 -0.3275
vn 0.2411 0.0283 0.9701
vn 0.0799 -0.4092 0.9089
vn 0.8032 -0.4712 0.3645
vn -0.6007 0.7826 0.1635
vn 0.9301 0.3673 0.0081
s off
f 17/1/1 27/2/1 5/3/1
f 3/4/2 9/5/2 4/6/2
f 1/7/3 7/8/3 2/9/3
f 5/10/4 9/5/4 10/11/4
f 2/9/5 8/12/5 3/4/5
f 6/13/6 29/14/6 7/15/6
f 9/16/7 13/17/7 10/18/7
f 7/15/8 11/19/8 8/20/8
f 1/21/9 28/22/9 6/13/9
f 8/20/10 12/23/10 9/16/10
f 13/17/11 16/24/11 17/1/11
f 30/25/12 42/26/12 38/27/12
f 11/19/13 16/24/13 12/23/13
f 28/28/14 41/29/14 39/30/14
f 16/24/15 22/31/15 17/1/15
f 19/32/16 35/33/16 18/34/16
f 15/35/17 21/36/17 16/24/17
f 20/37/18 34/38/18 36/39/18
f 22/31/19 26/40/19 27/2/19
f 19/41/20 25/42/20 20/43/20
f 1/21/9 18/44/9 14/45/9
f 20/43/21 26/40/21 21/36/21
f 18/44/22 24/46/22 19/41/22
f 27/47/23 4/6/23 5/10/23
f 24/48/24 3/4/24 25/49/24
f 25/49/25 4/6/25 26/50/25
f 23/51/26 2/9/26 24/48/26
f 13/17/1 5/3/1 10/18/1
f 31/52/27 36/39/27 34/38/27
f 31/52/28 35/33/28 32/53/28
f 30/54/29 33/55/29 31/52/29
f 18/34/30 33/55/30 14/56/30
f 19/32/31 36/39/31 32/53/31
f 30/54/32 34/38/32 15/57/32
f 37/58/33 42/26/33 40/59/33
f 37/58/34 41/29/34 38/27/34
f 29/60/35 40/59/35 11/61/35
f 11/61/36 42/26/36 15/62/36
f 30/25/37 41/29/37 14/63/37
f 29/60/38 39/30/38 37/58/38
f 17/1/1 22/31/1 27/2/1
f 3/4/2 8/12/2 9/5/2
f 1/7/3 6/64/3 7/8/3
f 5/10/4 4/6/4 9/5/4
f 2/9/5 7/8/5 8/12/5
f 6/13/6 28/22/6 29/14/6
f 9/16/7 12/23/7 13/17/7
f 7/15/8 29/14/8 11/19/8
f 1/21/9 14/45/9 28/22/9
f 8/20/10 11/19/10 12/23/10
f 13/17/11 12/23/11 16/24/11
f 30/25/39 15/62/39 42/26/39
f 11/19/13 15/35/13 16/24/13
f 28/28/14 14/63/14 41/29/14
f 16/24/15 21/36/15 22/31/15
f 19/32/40 32/53/40 35/33/40
f 15/35/17 20/43/17 21/36/17
f 20/37/18 15/57/18 34/38/18
f 22/31/41 21/36/41 26/40/41
f 19/41/20 24/46/20 25/42/20
f 1/21/9 23/65/9 18/44/9
f 20/43/21 25/42/21 26/40/21
f 18/44/22 23/65/22 24/46/22
f 27/47/23 26/50/23 4/6/23
f 24/48/24 2/9/24 3/4/24
f 25/49/25 3/4/25 4/6/25
f 23/51/26 1/7/26 2/9/26
f 13/17/1 17/1/1 5/3/1
f 31/52/27 32/53/27 36/39/27
f 31/52/28 33/55/28 35/33/28
f 30/54/42 14/56/42 33/55/42
f 18/34/43 35/33/43 33/55/43
f 19/32/44 20/37/44 36/39/44
f 30/54/45 31/52/45 34/38/45
f 37/58/46 38/27/46 42/26/46
f 37/58/34 39/30/34 41/29/34
f 29/60/47 37/58/47 40/59/47
f 11/61/36 40/59/36 42/26/36
f 30/25/48 38/27/48 41/29/48
f 29/60/49 28/28/49 39/30/49
v 1.417513 1.259811 -0.863994
v 1.415010 1.245811 -0.839107
v 1.411456 1.221314 -0.824654
v 1.407805 1.192885 -0.824507
v 1.405035 1.168139 -0.838706
v 1.393649 1.259190 -0.878018
v 1.373676 1.244737 -0.863398
v 1.363728 1.220074 -0.852703
v 1.366471 1.191810 -0.848798
v 1.381171 1.167519 -0.852730
v 1.363364 1.205395 -0.906094
v 1.366156 1.179098 -0.895036
v 1.380989 1.160180 -0.879426
v 1.417149 1.245132 -0.917385
v 1.410728 1.191957 -0.931437
v 1.407175 1.167460 -0.916984
v 1.404671 1.153461 -0.892098
v 1.441013 1.245752 -0.903361
v 1.455713 1.221461 -0.907294
v 1.458457 1.193198 -0.903389
v 1.448509 1.168535 -0.892694
v 1.428536 1.154081 -0.878074
v 1.441195 1.253092 -0.876665
v 1.456028 1.234173 -0.861055
v 1.458821 1.207876 -0.849997
v 1.448824 1.181247 -0.846455
v 1.428717 1.161420 -0.851378
v 1.393467 1.251851 -0.904714
v 1.373360 1.232025 -0.909636
v 1.414379 1.220387 -0.931584
v 1.455869 1.227795 -0.959037
v 1.459241 1.227883 -0.957056
v 1.435195 1.243939 -0.934238
v 1.438193 1.200947 -0.944894
v 1.447008 1.244246 -0.927296
v 1.456516 1.201424 -0.934127
v 1.371317 1.239573 -0.957447
v 1.381026 1.236819 -0.962642
v 1.383146 1.246847 -0.944915
v 1.374961 1.220351 -0.945229
v 1.387595 1.245584 -0.947296
v 1.379424 1.219085 -0.947617
vt 0.274240 0.539347
vt 0.265397 0.539709
vt 0.266768 0.532487
vt 0.231414 0.551290
vt 0.214659 0.541092
vt 0.231357 0.542861
vt 0.231940 0.569242
vt 0.215985 0.562822
vt 0.231472 0.559719
vt 0.230890 0.533338
vt 0.220414 0.530957
vt 0.213134 0.552274
vt 0.289666 0.544440
vt 0.282983 0.540904
vt 0.290637 0.536818
vt 0.279682 0.529141
vt 0.275518 0.536619
vt 0.273707 0.532162
vt 0.280945 0.538772
vt 0.286431 0.530872
vt 0.290637 0.551375
vt 0.284312 0.543753
vt 0.278488 0.537315
vt 0.276318 0.541045
vt 0.804698 0.251197
vt 0.792375 0.255919
vt 0.792638 0.252041
vt 0.786357 0.239035
vt 0.792578 0.249274
vt 0.791489 0.249454
vt 0.271776 0.541127
vt 0.760733 0.199751
vt 0.757502 0.209505
vt 0.750621 0.206121
vt 0.278108 0.542645
vt 0.273009 0.544115
vt 0.772804 0.201934
vt 0.766718 0.213101
vt 0.766203 0.208706
vt 0.264007 0.548518
vt 0.277612 0.547903
vt 0.268747 0.555467
vt 0.275021 0.546378
vt 0.280714 0.548498
vt 0.281954 0.545638
vt 0.276612 0.557409
vt 0.240880 0.530957
vt 0.248168 0.561486
vt 0.249693 0.550306
vt 0.246843 0.539760
vt 0.242415 0.571620
vt 0.762287 0.211045
vt 0.762255 0.210544
vt 0.761023 0.221925
vt 0.757316 0.212491
vt 0.750922 0.216572
vt 0.772804 0.220841
vt 0.791613 0.252007
vt 0.791097 0.255536
vt 0.780068 0.250772
vt 0.780487 0.263708
vt 0.804698 0.264828
vt 0.798786 0.238814
vt 0.221949 0.571626
vt 0.283377 0.553479
vn -0.1301 -0.9558 0.2637
vn -0.5068 0.0695 0.8593
vn -0.2853 0.8473 0.4479
vn -0.4556 -0.4041 0.7932
vn -0.4480 0.5016 0.7401
vn -0.6643 0.7219 -0.1939
vn -0.8347 -0.5296 0.1513
vn -0.9364 0.3399 -0.0871
vn 0.1301 0.9558 -0.2637
vn -0.9952 -0.0922 0.0321
vn -0.4642 -0.7512 -0.4693
vn 0.3446 -0.6248 -0.7006
vn -0.5179 -0.3777 -0.7676
vn 0.1848 0.9683 -0.1680
vn 0.2853 -0.8473 -0.4480
vn 0.8539 0.4871 0.1832
vn 0.4480 -0.5016 -0.7401
vn 0.1803 -0.9473 -0.2649
vn 0.6643 -0.7219 0.1939
vn 0.9952 0.0922 -0.0321
vn 0.9364 -0.3399 0.0871
vn 0.8347 0.5296 -0.1513
vn 0.2939 -0.5003 0.8145
vn 0.5179 0.3777 0.7675
vn 0.4590 -0.0544 0.8867
vn 0.4642 0.7512 0.4693
vn 0.4089 -0.6213 -0.6684
vn 0.2131 0.8905 -0.4020
vn -0.5534 0.4073 -0.7265
vn 0.0096 0.9981 -0.0604
vn 0.9968 -0.0466 0.0647
vn -0.4535 0.0536 -0.8897
vn -0.5123 -0.5277 -0.6775
vn -0.0155 0.8711 -0.4909
vn -0.9320 0.3299 -0.1501
vn -0.4526 -0.7800 -0.4322
vn 0.6794 0.3065 -0.6667
vn -0.6268 0.7651 0.1476
vn -0.2853 0.8473 0.4480
vn -0.4479 0.5016 0.7401
vn 0.4180 -0.0584 -0.9066
vn -0.5179 -0.3777 -0.7675
vn 0.8875 0.4447 0.1203
vn 0.6643 -0.7218 0.1939
vn 0.2939 -0.5002 0.8145
vn 0.5179 0.3777 0.7676
vn 0.4090 -0.6213 -0.6684
vn -0.5937 0.4495 -0.6675
vn 0.9951 0.0913 -0.0384
vn -0.5390 -0.0866 -0.8379
vn -0.5123 -0.5278 -0.6775
vn -0.9840 -0.1777 0.0140
vn 0.7203 0.4228 -0.5499
vn -0.7107 0.6970 0.0957
s off
f 59/66/50 69/67/50 47/68/50
f 45/69/51 51/70/51 46/71/51
f 43/72/52 49/73/52 44/74/52
f 47/75/53 51/70/53 52/76/53
f 44/74/54 50/77/54 45/69/54
f 48/78/55 71/79/55 49/80/55
f 51/81/56 55/82/56 52/83/56
f 49/80/57 53/84/57 50/85/57
f 43/86/58 70/87/58 48/78/58
f 50/85/59 54/88/59 51/81/59
f 55/82/60 58/89/60 59/66/60
f 72/90/61 84/91/61 80/92/61
f 53/84/62 58/89/62 54/88/62
f 70/93/63 83/94/63 81/95/63
f 58/89/64 64/96/64 59/66/64
f 61/97/65 77/98/65 60/99/65
f 57/100/66 63/101/66 58/89/66
f 62/102/67 76/103/67 78/104/67
f 64/96/68 68/105/68 69/67/68
f 61/106/69 67/107/69 62/108/69
f 43/86/58 60/109/58 56/110/58
f 62/108/70 68/105/70 63/101/70
f 60/109/71 66/111/71 61/106/71
f 69/112/72 46/71/72 47/75/72
f 66/113/73 45/69/73 67/114/73
f 67/114/74 46/71/74 68/115/74
f 65/116/75 44/74/75 66/113/75
f 55/82/50 47/68/50 52/83/50
f 73/117/76 78/104/76 76/103/76
f 73/117/77 77/98/77 74/118/77
f 72/119/78 75/120/78 73/117/78
f 60/99/79 75/120/79 56/121/79
f 61/97/80 78/104/80 74/118/80
f 72/119/81 76/103/81 57/122/81
f 79/123/82 84/91/82 82/124/82
f 79/123/83 83/94/83 80/92/83
f 71/125/84 82/124/84 53/126/84
f 53/126/85 84/91/85 57/127/85
f 72/90/86 83/94/86 56/128/86
f 71/125/87 81/95/87 79/123/87
f 59/66/50 64/96/50 69/67/50
f 45/69/51 50/77/51 51/70/51
f 43/72/88 48/129/88 49/73/88
f 47/75/53 46/71/53 51/70/53
f 44/74/89 49/73/89 50/77/89
f 48/78/55 70/87/55 71/79/55
f 51/81/56 54/88/56 55/82/56
f 49/80/57 71/79/57 53/84/57
f 43/86/58 56/110/58 70/87/58
f 50/85/59 53/84/59 54/88/59
f 55/82/60 54/88/60 58/89/60
f 72/90/90 57/127/90 84/91/90
f 53/84/91 57/100/91 58/89/91
f 70/93/63 56/128/63 83/94/63
f 58/89/64 63/101/64 64/96/64
f 61/97/92 74/118/92 77/98/92
f 57/100/66 62/108/66 63/101/66
f 62/102/67 57/122/67 76/103/67
f 64/96/93 63/101/93 68/105/93
f 61/106/69 66/111/69 67/107/69
f 43/86/58 65/130/58 60/109/58
f 62/108/70 67/107/70 68/105/70
f 60/109/71 65/130/71 66/111/71
f 69/112/94 68/115/94 46/71/94
f 66/113/95 44/74/95 45/69/95
f 67/114/74 45/69/74 46/71/74
f 65/116/75 43/72/75 44/74/75
f 55/82/50 59/66/50 47/68/50
f 73/117/96 74/118/96 78/104/96
f 73/117/77 75/120/77 77/98/77
f 72/119/97 56/121/97 75/120/97
f 60/99/79 77/98/79 75/120/79
f 61/97/98 62/102/98 78/104/98
f 72/119/99 73/117/99 76/103/99
f 79/123/100 80/92/100 84/91/100
f 79/123/83 81/95/83 83/94/83
f 71/125/101 79/123/101 82/124/101
f 53/126/85 82/124/85 84/91/85
f 72/90/102 80/92/102 83/94/102
f 71/125/103 70/93/103 81/95/103
