# Blender v2.81 (sub 16) OBJ File: 'garbage.blend'
# www.blender.org
v -0.450331 1.443898 0.059249
v -0.448373 1.424971 0.037812
v -0.448783 1.397859 0.028520
v -0.451452 1.369824 0.033864
v -0.455664 1.348380 0.052412
v -0.428778 1.441463 0.076456
v -0.411041 1.420754 0.067616
v -0.405676 1.392989 0.062935
v -0.414120 1.365607 0.063668
v -0.434111 1.345945 0.069619
v -0.414106 1.389549 0.117555
v -0.421420 1.362628 0.110971
v -0.438325 1.344226 0.096929
v -0.458761 1.440459 0.113869
v -0.465642 1.390980 0.137761
v -0.466052 1.363868 0.128469
v -0.464093 1.344941 0.107032
v -0.480314 1.442894 0.096662
v -0.500304 1.423232 0.102613
v -0.508748 1.395850 0.103346
v -0.503383 1.368085 0.098665
v -0.485646 1.347376 0.089825
v -0.476099 1.444613 0.069352
v -0.493004 1.426211 0.055310
v -0.500319 1.399290 0.048726
v -0.496083 1.371064 0.051363
v -0.481432 1.349096 0.062515
v -0.432993 1.439743 0.103766
v -0.418341 1.417776 0.114918
v -0.462973 1.419015 0.132417
v -0.504464 1.439736 0.151886
v -0.507510 1.440080 0.149455
v -0.478286 1.446219 0.127893
v -0.491721 1.407673 0.145342
v -0.488955 1.447425 0.119375
v -0.508269 1.409542 0.132130
v -0.419692 1.434226 0.160466
v -0.430256 1.434519 0.164608
v -0.428268 1.441000 0.145286
v -0.426163 1.414030 0.151394
v -0.433109 1.441134 0.147184
v -0.431018 1.414165 0.153298
vt 0.274240 0.539347
vt 0.265397 0.539709
vt 0.266768 0.532487
vt 0.231414 0.551290
vt 0.214659 0.541092
vt 0.231357 0.542861
vt 0.231940 0.569242
vt 0.215985 0.562822
vt 0.231472 0.559719
vt 0.230890 0.533338
vt 0.220414 0.530957
vt 0.213134 0.552274
vt 0.289666 0.544440
vt 0.282983 0.540904
vt 0.290637 0.536818
vt 0.279682 0.529141
vt 0.275518 0.536619
vt 0.273707 0.532162
vt 0.280945 0.538772
vt 0.286431 0.530872
vt 0.290637 0.551375
vt 0.284312 0.543753
vt 0.278488 0.537315
vt 0.276318 0.541045
vt 0.804698 0.251197
vt 0.792375 0.255919
vt 0.792638 0.252041
vt 0.786357 0.239035
vt 0.792578 0.249274
vt 0.791489 0.249454
vt 0.271776 0.541127
vt 0.760733 0.199751
vt 0.757502 0.209505
vt 0.750621 0.206121
vt 0.278108 0.542645
vt 0.273009 0.544115
vt 0.772804 0.201934
vt 0.766718 0.213101
vt 0.766203 0.208706
vt 0.264007 0.548518
vt 0.277612 0.547903
vt 0.268747 0.555467
vt 0.275021 0.546378
vt 0.280714 0.548498
vt 0.281954 0.545638
vt 0.276612 0.557409
vt 0.240880 0.530957
vt 0.248168 0.561486
vt 0.249693 0.550306
vt 0.246843 0.539760
vt 0.242415 0.571620
vt 0.762287 0.211045
vt 0.762255 0.210544
vt 0.761023 0.221925
vt 0.757316 0.212491
vt 0.750922 0.216572
vt 0.772804 0.220841
vt 0.791613 0.252007
vt 0.791097 0.255536
vt 0.780068 0.250772
vt 0.780487 0.263708
vt 0.804698 0.264828
vt 0.798786 0.238814
vt 0.221949 0.571626
vt 0.283377 0.553479
vn -0.0556 -0.9959 -0.0713
vn 0.5965 -0.2047 -0.7761
vn 0.5090 0.6678 -0.5431
vn 0.4362 -0.6361 -0.6364
vn 0.6216 0.2455 -0.7439
vn 0.7823 0.6023 0.1587
vn 0.7095 -0.7016 0.0653
vn 0.9738 0.1611 0.1604
vn 0.0556 0.9959 0.0713
vn 0.9487 -0.2891 0.1282
vn 0.2369 -0.7175 0.6551
vn -0.5442 -0.3918 0.7418
vn 0.3396 -0.3095 0.8882
vn 0.0152 0.9994 -0.0320
vn -0.5090 -0.6678 0.5431
vn -0.7026 0.5974 -0.3865
vn -0.6216 -0.2455 0.7439
vn -0.4100 -0.8210 0.3973
vn -0.7823 -0.6023 -0.1587
vn -0.9487 0.2891 -0.1282
vn -0.9738 -0.1611 -0.1604
vn -0.7095 0.7016 -0.0653
vn -0.3097 -0.5865 -0.7484
vn -0.3396 0.3095 -0.8882
vn -0.3648 -0.1407 -0.9204
vn -0.2369 0.7175 -0.6551
vn -0.6025 -0.3824 0.7005
vn -0.0537 0.9772 0.2055
vn 0.5503 0.4289 0.7163
vn 0.2030 0.9722 -0.1167
vn -0.9705 0.1367 -0.1985
vn 0.3589 0.1417 0.9226
vn 0.3107 -0.4705 0.8259
vn 0.1546 0.9318 0.3284
vn 0.9608 0.1650 0.2230
vn 0.2232 -0.7503 0.6223
vn -0.6615 0.5607 0.4980
vn 0.7910 0.5825 -0.1869
vn -0.5128 0.2076 0.8330
vn -0.7511 0.5759 -0.3227
vn 0.6048 0.4497 0.6573
vn -0.9494 0.2895 -0.1219
vn 0.4165 -0.0200 0.9089
vn 0.9172 -0.3653 0.1592
vn -0.6636 0.6569 0.3580
vn 0.8521 0.5112 -0.1124
s off
f 17/1/1 27/2/1 5/3/1
f 3/4/2 9/5/2 4/6/2
f 1/7/3 7/8/3 2/9/3
f 5/10/4 9/5/4 10/11/4
f 2/9/5 8/12/5 3/4/5
f 6/13/6 29/14/6 7/15/6
f 9/16/7 13/17/7 10/18/7
f 7/15/8 11/19/8 8/20/8
f 1/21/9 28/22/9 6/13/9
f 8/20/10 12/23/10 9/16/10
f 13/17/11 16/24/11 17/1/11
f 30/25/12 42/26/12 38/27/12
f 11/19/13 16/24/13 12/23/13
f 28/28/14 41/29/14 39/30/14
f 16/24/15 22/31/15 17/1/15
f 19/32/16 35/33/16 18/34/16
f 15/35/17 21/36/17 16/24/17
f 20/37/18 34/38/18 36/39/18
f 22/31/19 26/40/19 27/2/19
f 19/41/20 25/42/20 20/43/20
f 1/21/9 18/44/9 14/45/9
f 20/43/21 26/40/21 21/36/21
f 18/44/22 24/46/22 19/41/22
f 27/47/23 4/6/23 5/10/23
f 24/48/24 3/4/24 25/49/24
f 25/49/25 4/6/25 26/50/25
f 23/51/26 2/9/26 24/48/26
f 13/17/1 5/3/1 10/18/1
f 31/52/27 36/39/27 34/38/27
f 31/52/28 35/33/28 32/53/28
f 30/54/29 33/55/29 31/52/29
f 18/34/30 33/55/30 14/56/30
f 19/32/31 36/39/31 32/53/31
f 30/54/32 34/38/32 15/57/32
f 37/58/33 42/26/33 40/59/33
f 37/58/34 41/29/34 38/27/34
f 29/60/35 40/59/35 11/61/35
f 11/61/36 42/26/36 15/62/36
f 30/25/37 41/29/37 14/63/37
f 29/60/38 39/30/38 37/58/38
f 17/1/1 22/31/1 27/2/1
f 3/4/2 8/12/2 9/5/2
f 1/7/3 6/64/3 7/8/3
f 5/10/4 4/6/4 9/5/4
f 2/9/5 7/8/5 8/12/5
f 6/13/6 28/22/6 29/14/6
f 9/16/7 12/23/7 13/17/7
f 7/15/8 29/14/8 11/19/8
f 1/21/9 14/45/9 28/22/9
f 8/20/10 11/19/10 12/23/10
f 13/17/11 12/23/11 16/24/11
f 30/25/39 15/62/39 42/26/39
f 11/19/13 15/35/13 16/24/13
f 28/28/14 14/63/14 41/29/14
f 16/24/15 21/36/15 22/31/15
f 19/32/40 32/53/40 35/33/40
f 15/35/17 20/43/17 21/36/17
f 20/37/18 15/57/18 34/38/18
f 22/31/19 21/36/19 26/40/19
f 19/41/20 24/46/20 25/42/20
f 1/21/9 23/65/9 18/44/9
f 20/43/21 25/42/21 26/40/21
f 18/44/22 23/65/22 24/46/22
f 27/47/23 26/50/23 4/6/23
f 24/48/24 2/9/24 3/4/24
f 25/49/25 3/4/25 4/6/25
f 23/51/26 1/7/26 2/9/26
f 13/17/1 17/1/1 5/3/1
f 31/52/27 32/53/27 36/39/27
f 31/52/28 33/55/28 35/33/28
f 30/54/41 14/56/41 33/55/41
f 18/34/30 35/33/30 33/55/30
f 19/32/42 20/37/42 36/39/42
f 30/54/43 31/52/43 34/38/43
f 37/58/33 38/27/33 42/26/33
f 37/58/34 39/30/34 41/29/34
f 29/60/44 37/58/44 40/59/44
f 11/61/36 40/59/36 42/26/36
f 30/25/45 38/27/45 41/29/45
f 29/60/46 28/28/46 39/30/46
v 0.752226 0.886847 -1.490116
v 0.763382 0.865005 -1.475281
v 0.762169 0.837722 -1.466576
v 0.748913 0.812309 -1.466332
v 0.727165 0.795576 -1.474616
v 0.728465 0.895310 -1.478700
v 0.722226 0.879663 -1.455508
v 0.714646 0.854648 -1.443744
v 0.707756 0.826968 -1.446559
v 0.703403 0.804039 -1.463200
v 0.669699 0.861627 -1.475324
v 0.668831 0.833011 -1.473908
v 0.680930 0.807528 -1.478990
v 0.707279 0.893825 -1.521696
v 0.672275 0.851679 -1.529736
v 0.671062 0.824396 -1.521031
v 0.682218 0.802554 -1.506196
v 0.731041 0.885362 -1.533112
v 0.726687 0.862433 -1.549752
v 0.719798 0.834753 -1.552568
v 0.712218 0.809738 -1.540804
v 0.705979 0.794091 -1.517612
v 0.753514 0.881873 -1.517322
v 0.765613 0.856390 -1.522403
v 0.764745 0.827774 -1.520988
v 0.751144 0.803694 -1.513454
v 0.728453 0.790602 -1.501822
v 0.705991 0.898799 -1.494490
v 0.683300 0.885707 -1.482857
v 0.685531 0.877092 -1.529979
v 0.691604 0.887864 -1.578734
v 0.694961 0.886668 -1.580348
v 0.704582 0.896353 -1.546138
v 0.681358 0.860742 -1.558918
v 0.716344 0.892164 -1.551789
v 0.699603 0.854244 -1.567683
v 0.650340 0.911090 -1.507684
v 0.650868 0.909051 -1.518837
v 0.668959 0.911124 -1.509472
v 0.653611 0.888352 -1.505601
v 0.669201 0.910190 -1.514584
v 0.653854 0.887415 -1.510728
vt 0.274240 0.539347
vt 0.265397 0.539709
vt 0.266768 0.532487
vt 0.231414 0.551290
vt 0.214659 0.541092
vt 0.231357 0.542861
vt 0.231940 0.569242
vt 0.215985 0.562822
vt 0.231472 0.559719
vt 0.230890 0.533338
vt 0.220414 0.530957
vt 0.213134 0.552274
vt 0.289666 0.544440
vt 0.282983 0.540904
vt 0.290637 0.536818
vt 0.279682 0.529141
vt 0.275518 0.536619
vt 0.273707 0.532162
vt 0.280945 0.538772
vt 0.286431 0.530872
vt 0.290637 0.551375
vt 0.284312 0.543753
vt 0.278488 0.537315
vt 0.276318 0.541045
vt 0.804698 0.251197
vt 0.792375 0.255919
vt 0.792638 0.252041
vt 0.786357 0.239035
vt 0.792578 0.249274
vt 0.791489 0.249454
vt 0.271776 0.541127
vt 0.760733 0.199751
vt 0.757502 0.209505
vt 0.750621 0.206121
vt 0.278108 0.542645
vt 0.273009 0.544115
vt 0.772804 0.201934
vt 0.766718 0.213101
vt 0.766203 0.208706
vt 0.264007 0.548518
vt 0.277612 0.547903
vt 0.268747 0.555467
vt 0.275021 0.546378
vt 0.280714 0.548498
vt 0.281954 0.545638
vt 0.276612 0.557409
vt 0.240880 0.530957
vt 0.248168 0.561486
vt 0.249693 0.550306
vt 0.246843 0.539760
vt 0.242415 0.571620
vt 0.762287 0.211045
vt 0.762255 0.210544
vt 0.761023 0.221925
vt 0.757316 0.212491
vt 0.750922 0.216572
vt 0.772804 0.220841
vt 0.791613 0.252007
vt 0.791097 0.255536
vt 0.780068 0.250772
vt 0.780487 0.263708
vt 0.804698 0.264828
vt 0.798786 0.238814
vt 0.221949 0.571626
vt 0.283377 0.553479
vn -0.2613 -0.9516 0.1616
vn 0.3713 -0.1850 0.9099
vn 0.5050 0.6464 0.5720
vn 0.1629 -0.5996 0.7836
vn 0.4894 0.2453 0.8369
vn -0.2238 0.8348 0.5030
vn -0.5659 -0.4112 0.7146
vn -0.4498 0.4881 0.7480
vn 0.2613 0.9516 -0.1616
vn -0.5679 0.0578 0.8211
vn -0.8999 -0.4346 0.0368
vn -0.5673 -0.3565 -0.7423
vn -0.9982 0.0277 -0.0523
vn 0.3665 0.9182 -0.1505
vn -0.5050 -0.6464 -0.5720
vn 0.8034 0.2422 -0.5439
vn -0.4894 -0.2453 -0.8369
vn -0.4700 -0.7909 -0.3919
vn 0.2238 -0.8348 -0.5030
vn 0.5679 -0.0578 -0.8211
vn 0.4498 -0.4881 -0.7480
vn 0.5659 0.4112 -0.7146
vn 0.5578 -0.8114 0.1747
vn 0.9982 -0.0277 0.0523
vn 0.8801 -0.4579 0.1254
vn 0.8999 0.4346 -0.0368
vn -0.5066 -0.3756 -0.7760
vn 0.1807 0.9318 -0.3146
vn -0.6754 0.7334 0.0779
vn 0.3591 0.9316 0.0567
vn 0.5840 -0.2215 -0.7810
vn -0.8794 0.4575 -0.1317
vn -0.9893 -0.1442 -0.0205
vn -0.0192 0.9834 -0.1807
vn -0.4972 0.5022 0.7075
vn -0.8778 -0.4768 0.0456
vn 0.0151 0.4278 -0.9037
vn 0.0631 0.7385 0.6713
vn -0.4508 0.2269 -0.8633
vn 0.7594 0.2223 -0.6114
vn -0.6380 0.7556 0.1485
vn 0.5629 -0.0562 -0.8246
vn -0.9452 0.3232 -0.0463
vn -0.0192 0.9834 -0.1806
vn -0.6089 -0.0149 0.7931
vn -0.8779 -0.4768 0.0456
vn 0.1693 0.4831 -0.8590
vn -0.0486 0.7091 0.7034
s off
f 59/66/47 69/67/47 47/68/47
f 45/69/48 51/70/48 46/71/48
f 43/72/49 49/73/49 44/74/49
f 47/75/50 51/70/50 52/76/50
f 44/74/51 50/77/51 45/69/51
f 48/78/52 71/79/52 49/80/52
f 51/81/53 55/82/53 52/83/53
f 49/80/54 53/84/54 50/85/54
f 43/86/55 70/87/55 48/78/55
f 50/85/56 54/88/56 51/81/56
f 55/82/57 58/89/57 59/66/57
f 72/90/58 84/91/58 80/92/58
f 53/84/59 58/89/59 54/88/59
f 70/93/60 83/94/60 81/95/60
f 58/89/61 64/96/61 59/66/61
f 61/97/62 77/98/62 60/99/62
f 57/100/63 63/101/63 58/89/63
f 62/102/64 76/103/64 78/104/64
f 64/96/65 68/105/65 69/67/65
f 61/106/66 67/107/66 62/108/66
f 43/86/55 60/109/55 56/110/55
f 62/108/67 68/105/67 63/101/67
f 60/109/68 66/111/68 61/106/68
f 69/112/69 46/71/69 47/75/69
f 66/113/70 45/69/70 67/114/70
f 67/114/71 46/71/71 68/115/71
f 65/116/72 44/74/72 66/113/72
f 55/82/47 47/68/47 52/83/47
f 73/117/73 78/104/73 76/103/73
f 73/117/74 77/98/74 74/118/74
f 72/119/75 75/120/75 73/117/75
f 60/99/76 75/120/76 56/121/76
f 61/97/77 78/104/77 74/118/77
f 72/119/78 76/103/78 57/122/78
f 79/123/79 84/91/79 82/124/79
f 79/123/80 83/94/80 80/92/80
f 71/125/81 82/124/81 53/126/81
f 53/126/82 84/91/82 57/127/82
f 72/90/83 83/94/83 56/128/83
f 71/125/84 81/95/84 79/123/84
f 59/66/47 64/96/47 69/67/47
f 45/69/48 50/77/48 51/70/48
f 43/72/49 48/129/49 49/73/49
f 47/75/50 46/71/50 51/70/50
f 44/74/51 49/73/51 50/77/51
f 48/78/52 70/87/52 71/79/52
f 51/81/53 54/88/53 55/82/53
f 49/80/54 71/79/54 53/84/54
f 43/86/55 56/110/55 70/87/55
f 50/85/56 53/84/56 54/88/56
f 55/82/57 54/88/57 58/89/57
f 72/90/85 57/127/85 84/91/85
f 53/84/59 57/100/59 58/89/59
f 70/93/60 56/128/60 83/94/60
f 58/89/61 63/101/61 64/96/61
f 61/97/86 74/118/86 77/98/86
f 57/100/63 62/108/63 63/101/63
f 62/102/64 57/122/64 76/103/64
f 64/96/65 63/101/65 68/105/65
f 61/106/66 66/111/66 67/107/66
f 43/86/55 65/130/55 60/109/55
f 62/108/67 67/107/67 68/105/67
f 60/109/68 65/130/68 66/111/68
f 69/112/69 68/115/69 46/71/69
f 66/113/70 44/74/70 45/69/70
f 67/114/71 45/69/71 46/71/71
f 65/116/72 43/72/72 44/74/72
f 55/82/47 59/66/47 47/68/47
f 73/117/73 74/118/73 78/104/73
f 73/117/74 75/120/74 77/98/74
f 72/119/87 56/121/87 75/120/87
f 60/99/76 77/98/76 75/120/76
f 61/97/88 62/102/88 78/104/88
f 72/119/89 73/117/89 76/103/89
f 79/123/79 80/92/79 84/91/79
f 79/123/90 81/95/90 83/94/90
f 71/125/91 79/123/91 82/124/91
f 53/126/92 82/124/92 84/91/92
f 72/90/93 80/92/93 83/94/93
f 71/125/94 70/93/94 81/95/94
