# Blender v2.81 (sub 16) OBJ File: 'garbage.blend'
# www.blender.org
v -0.326504 1.558228 -0.540519
v -0.323379 1.533589 -0.554828
v -0.327851 1.505353 -0.556909
v -0.338720 1.481086 -0.546206
v -0.353075 1.467290 -0.525586
v -0.311885 1.557817 -0.517009
v -0.298058 1.532877 -0.514109
v -0.298613 1.504531 -0.509891
v -0.313399 1.480374 -0.505487
v -0.338456 1.466879 -0.502077
v -0.322491 1.519343 -0.462177
v -0.334078 1.493202 -0.464165
v -0.350395 1.474285 -0.478219
v -0.350382 1.573040 -0.492804
v -0.375607 1.534977 -0.461480
v -0.380078 1.506742 -0.463562
v -0.376954 1.482102 -0.477871
v -0.365001 1.573452 -0.516313
v -0.390058 1.559957 -0.512902
v -0.404845 1.535800 -0.508498
v -0.405399 1.507454 -0.504281
v -0.391573 1.482514 -0.501380
v -0.353062 1.566046 -0.540170
v -0.369379 1.547129 -0.554224
v -0.380967 1.520988 -0.556213
v -0.384720 1.494626 -0.545603
v -0.379633 1.475107 -0.525238
v -0.323824 1.565223 -0.493152
v -0.318737 1.545705 -0.472787
v -0.364737 1.559245 -0.472183
v -0.403573 1.591186 -0.473410
v -0.405639 1.591244 -0.476732
v -0.370994 1.585813 -0.487997
v -0.397817 1.557073 -0.467372
v -0.378230 1.586016 -0.499634
v -0.409042 1.557389 -0.485422
v -0.328620 1.575302 -0.435727
v -0.339508 1.578507 -0.435585
v -0.330687 1.578366 -0.454063
v -0.337076 1.554581 -0.441312
v -0.335677 1.579834 -0.453998
v -0.342080 1.556054 -0.441247
vt 0.274240 0.539347
vt 0.265397 0.539709
vt 0.266768 0.532487
vt 0.231414 0.551290
vt 0.214659 0.541092
vt 0.231357 0.542861
vt 0.231940 0.569242
vt 0.215985 0.562822
vt 0.231472 0.559719
vt 0.230890 0.533338
vt 0.220414 0.530957
vt 0.213134 0.552274
vt 0.289666 0.544440
vt 0.282983 0.540904
vt 0.290637 0.536818
vt 0.279682 0.529141
vt 0.275518 0.536619
vt 0.273707 0.532162
vt 0.280945 0.538772
vt 0.286431 0.530872
vt 0.290637 0.551375
vt 0.284312 0.543753
vt 0.278488 0.537315
vt 0.276318 0.541045
vt 0.804698 0.251197
vt 0.792375 0.255919
vt 0.792638 0.252041
vt 0.786357 0.239035
vt 0.792578 0.249274
vt 0.791489 0.249454
vt 0.271776 0.541127
vt 0.760733 0.199751
vt 0.757502 0.209505
vt 0.750621 0.206121
vt 0.278108 0.542645
vt 0.273009 0.544115
vt 0.772804 0.201934
vt 0.766718 0.213101
vt 0.766203 0.208706
vt 0.264007 0.548518
vt 0.277612 0.547903
vt 0.268747 0.555467
vt 0.275021 0.546378
vt 0.280714 0.548498
vt 0.281954 0.545638
vt 0.276612 0.557409
vt 0.240880 0.530957
vt 0.248168 0.561486
vt 0.249693 0.550306
vt 0.246843 0.539760
vt 0.242415 0.571620
vt 0.762287 0.211045
vt 0.762255 0.210544
vt 0.761023 0.221925
vt 0.757316 0.212491
vt 0.750922 0.216572
vt 0.772804 0.220841
vt 0.791613 0.252007
vt 0.791097 0.255536
vt 0.780068 0.250772
vt 0.780487 0.263708
vt 0.804698 0.264828
vt 0.798786 0.238814
vt 0.221949 0.571626
vt 0.283377 0.553479
vn -0.2770 -0.9482 0.1557
vn 0.7194 -0.5236 -0.4565
vn 0.7882 0.3807 -0.4835
vn 0.4255 -0.8607 -0.2796
vn 0.8446 -0.0949 -0.5269
vn 0.8305 0.4910 0.2632
vn 0.4677 -0.7504 0.4670
vn 0.8991 0.0472 0.4353
vn 0.2770 0.9482 -0.1557
vn 0.7738 -0.3815 0.5057
vn -0.1391 -0.5104 0.8486
vn -0.8082 -0.0552 0.5862
vn -0.0082 -0.0722 0.9974
vn 0.2692 0.9262 -0.2641
vn -0.7882 -0.3807 0.4835
vn -0.3976 0.5532 -0.7320
vn -0.8446 0.0949 0.5269
vn -0.6934 -0.5848 0.4210
vn -0.8305 -0.4910 -0.2632
vn -0.7738 0.3815 -0.5057
vn -0.8991 -0.0472 -0.4353
vn -0.4677 0.7504 -0.4670
vn -0.2236 -0.7310 -0.6447
vn 0.0082 0.0722 -0.9974
vn -0.1171 -0.3564 -0.9270
vn 0.1391 0.5105 -0.8486
vn -0.8485 -0.0499 0.5268
vn 0.1336 0.9888 -0.0658
vn 0.4171 0.5354 0.7344
vn 0.4604 0.8452 -0.2715
vn -0.8121 0.2203 -0.5404
vn 0.1112 0.3589 0.9267
vn -0.0573 -0.2379 0.9696
vn 0.2816 0.9511 0.1272
vn 0.8705 0.0720 0.4869
vn -0.1509 -0.5491 0.8220
vn -0.6147 0.7829 0.0959
vn 0.9299 0.3653 -0.0438
vn -0.1391 -0.5105 0.8486
vn -0.6569 0.5305 0.5358
vn -0.4656 0.5602 -0.6851
vn 0.4892 0.5283 0.6940
vn -0.7761 0.3839 -0.5003
vn 0.1287 0.1939 0.9725
vn 0.7172 -0.4386 0.5415
vn -0.5539 0.8307 -0.0554
vn 0.9482 0.3115 0.0617
s off
f 17/1/1 27/2/1 5/3/1
f 3/4/2 9/5/2 4/6/2
f 1/7/3 7/8/3 2/9/3
f 5/10/4 9/5/4 10/11/4
f 2/9/5 8/12/5 3/4/5
f 6/13/6 29/14/6 7/15/6
f 9/16/7 13/17/7 10/18/7
f 7/15/8 11/19/8 8/20/8
f 1/21/9 28/22/9 6/13/9
f 8/20/10 12/23/10 9/16/10
f 13/17/11 16/24/11 17/1/11
f 30/25/12 42/26/12 38/27/12
f 11/19/13 16/24/13 12/23/13
f 28/28/14 41/29/14 39/30/14
f 16/24/15 22/31/15 17/1/15
f 19/32/16 35/33/16 18/34/16
f 15/35/17 21/36/17 16/24/17
f 20/37/18 34/38/18 36/39/18
f 22/31/19 26/40/19 27/2/19
f 19/41/20 25/42/20 20/43/20
f 1/21/9 18/44/9 14/45/9
f 20/43/21 26/40/21 21/36/21
f 18/44/22 24/46/22 19/41/22
f 27/47/23 4/6/23 5/10/23
f 24/48/24 3/4/24 25/49/24
f 25/49/25 4/6/25 26/50/25
f 23/51/26 2/9/26 24/48/26
f 13/17/1 5/3/1 10/18/1
f 31/52/27 36/39/27 34/38/27
f 31/52/28 35/33/28 32/53/28
f 30/54/29 33/55/29 31/52/29
f 18/34/30 33/55/30 14/56/30
f 19/32/31 36/39/31 32/53/31
f 30/54/32 34/38/32 15/57/32
f 37/58/33 42/26/33 40/59/33
f 37/58/34 41/29/34 38/27/34
f 29/60/35 40/59/35 11/61/35
f 11/61/36 42/26/36 15/62/36
f 30/25/37 41/29/37 14/63/37
f 29/60/38 39/30/38 37/58/38
f 17/1/1 22/31/1 27/2/1
f 3/4/2 8/12/2 9/5/2
f 1/7/3 6/64/3 7/8/3
f 5/10/4 4/6/4 9/5/4
f 2/9/5 7/8/5 8/12/5
f 6/13/6 28/22/6 29/14/6
f 9/16/7 12/23/7 13/17/7
f 7/15/8 29/14/8 11/19/8
f 1/21/9 14/45/9 28/22/9
f 8/20/10 11/19/10 12/23/10
f 13/17/39 12/23/39 16/24/39
f 30/25/40 15/62/40 42/26/40
f 11/19/13 15/35/13 16/24/13
f 28/28/14 14/63/14 41/29/14
f 16/24/15 21/36/15 22/31/15
f 19/32/41 32/53/41 35/33/41
f 15/35/17 20/43/17 21/36/17
f 20/37/18 15/57/18 34/38/18
f 22/31/19 21/36/19 26/40/19
f 19/41/20 24/46/20 25/42/20
f 1/21/9 23/65/9 18/44/9
f 20/43/21 25/42/21 26/40/21
f 18/44/22 23/65/22 24/46/22
f 27/47/23 26/50/23 4/6/23
f 24/48/24 2/9/24 3/4/24
f 25/49/25 3/4/25 4/6/25
f 23/51/26 1/7/26 2/9/26
f 13/17/1 17/1/1 5/3/1
f 31/52/27 32/53/27 36/39/27
f 31/52/28 33/55/28 35/33/28
f 30/54/42 14/56/42 33/55/42
f 18/34/30 35/33/30 33/55/30
f 19/32/43 20/37/43 36/39/43
f 30/54/44 31/52/44 34/38/44
f 37/58/33 38/27/33 42/26/33
f 37/58/34 39/30/34 41/29/34
f 29/60/45 37/58/45 40/59/45
f 11/61/36 40/59/36 42/26/36
f 30/25/46 38/27/46 41/29/46
f 29/60/47 28/28/47 39/30/47
v 1.437868 1.283738 -0.744351
v 1.433600 1.267131 -0.721381
v 1.429419 1.241185 -0.709941
v 1.426445 1.212851 -0.713094
v 1.425475 1.189721 -0.729997
v 1.415297 1.284266 -0.760378
v 1.394507 1.268046 -0.749141
v 1.384279 1.242241 -0.741995
v 1.387352 1.213765 -0.740854
v 1.402905 1.190250 -0.746024
v 1.388783 1.233331 -0.796461
v 1.391253 1.206050 -0.788023
v 1.405157 1.185795 -0.773257
v 1.442372 1.274829 -0.798817
v 1.438428 1.223366 -0.818873
v 1.434247 1.197419 -0.807433
v 1.429980 1.180812 -0.784463
v 1.464942 1.274301 -0.782790
v 1.480495 1.250785 -0.787960
v 1.483569 1.222310 -0.786819
v 1.473340 1.196505 -0.779673
v 1.452550 1.180284 -0.768436
v 1.462690 1.278756 -0.755557
v 1.476594 1.258501 -0.740791
v 1.479064 1.231219 -0.732353
v 1.469439 1.204220 -0.732504
v 1.450298 1.184739 -0.741203
v 1.417549 1.279812 -0.787611
v 1.398408 1.260330 -0.796310
v 1.441402 1.251700 -0.815720
v 1.484878 1.262599 -0.838545
v 1.488068 1.262524 -0.836280
v 1.461802 1.275703 -0.814074
v 1.466712 1.234141 -0.828882
v 1.472975 1.275442 -0.806141
v 1.484041 1.233735 -0.816576
v 1.400239 1.272900 -0.843061
v 1.410416 1.270857 -0.847655
v 1.410789 1.278969 -0.828858
v 1.403292 1.252541 -0.832658
v 1.415453 1.278033 -0.830964
v 1.407969 1.251602 -0.834770
vt 0.274240 0.539347
vt 0.265397 0.539709
vt 0.266768 0.532487
vt 0.231414 0.551290
vt 0.214659 0.541092
vt 0.231357 0.542861
vt 0.231940 0.569242
vt 0.215985 0.562822
vt 0.231472 0.559719
vt 0.230890 0.533338
vt 0.220414 0.530957
vt 0.213134 0.552274
vt 0.289666 0.544440
vt 0.282983 0.540904
vt 0.290637 0.536818
vt 0.279682 0.529141
vt 0.275518 0.536619
vt 0.273707 0.532162
vt 0.280945 0.538772
vt 0.286431 0.530872
vt 0.290637 0.551375
vt 0.284312 0.543753
vt 0.278488 0.537315
vt 0.276318 0.541045
vt 0.804698 0.251197
vt 0.792375 0.255919
vt 0.792638 0.252041
vt 0.786357 0.239035
vt 0.792578 0.249274
vt 0.791489 0.249454
vt 0.271776 0.541127
vt 0.760733 0.199751
vt 0.757502 0.209505
vt 0.750621 0.206121
vt 0.278108 0.542645
vt 0.273009 0.544115
vt 0.772804 0.201934
vt 0.766718 0.213101
vt 0.766203 0.208706
vt 0.264007 0.548518
vt 0.277612 0.547903
vt 0.268747 0.555467
vt 0.275021 0.546378
vt 0.280714 0.548498
vt 0.281954 0.545638
vt 0.276612 0.557409
vt 0.240880 0.530957
vt 0.248168 0.561486
vt 0.249693 0.550306
vt 0.246843 0.539760
vt 0.242415 0.571620
vt 0.762287 0.211045
vt 0.762255 0.210544
vt 0.761023 0.221925
vt 0.757316 0.212491
vt 0.750922 0.216572
vt 0.772804 0.220841
vt 0.791613 0.252007
vt 0.791097 0.255536
vt 0.780068 0.250772
vt 0.780487 0.263708
vt 0.804698 0.264828
vt 0.798786 0.238814
vt 0.221949 0.571626
vt 0.283377 0.553479
vn -0.1292 -0.9803 0.1497
vn -0.5792 -0.0299 0.8147
vn -0.3422 0.7905 0.5080
vn -0.5114 -0.4930 0.7039
vn -0.5208 0.4133 0.7470
vn -0.6625 0.7286 -0.1740
vn -0.8316 -0.5549 0.0220
vn -0.9335 0.3335 -0.1318
vn 0.1292 0.9803 -0.1497
vn -0.9919 -0.1097 -0.0641
vn -0.4049 -0.7036 -0.5839
vn 0.4174 -0.5414 -0.7298
vn -0.4419 -0.3013 -0.8449
vn 0.1753 0.9833 -0.0488
vn 0.3422 -0.7905 -0.5080
vn 0.8235 0.4773 0.3066
vn 0.5208 -0.4133 -0.7470
vn 0.2245 -0.9109 -0.3462
vn 0.6625 -0.7286 0.1740
vn 0.9919 0.1097 0.0641
vn 0.9335 -0.3335 0.1318
vn 0.8317 0.5549 -0.0220
vn 0.2357 -0.5798 0.7799
vn 0.4419 0.3013 0.8449
vn 0.3835 -0.1418 0.9126
vn 0.4049 0.7036 0.5839
vn 0.4787 -0.5405 -0.6919
vn 0.2252 0.9313 -0.2864
vn -0.4995 0.4742 -0.7250
vn -0.0091 0.9989 0.0457
vn 0.9886 -0.0386 0.1456
vn -0.3777 0.1415 -0.9151
vn -0.4404 -0.4600 -0.7710
vn 0.0054 0.9181 -0.3963
vn -0.9235 0.3303 -0.1949
vn -0.3957 -0.7360 -0.5492
vn 0.7259 0.3857 -0.5694
vn -0.6550 0.7357 0.1722
vn -0.8317 -0.5549 0.0220
vn -0.9919 -0.1096 -0.0641
vn -0.4049 -0.7036 -0.5840
vn 0.4945 0.0447 -0.8680
vn 0.8634 0.4423 0.2428
vn 0.9919 0.1096 0.0641
vn -0.5456 0.5093 -0.6656
vn 0.9923 0.1094 0.0578
vn -0.4639 -0.0047 -0.8859
vn -0.9772 -0.1925 -0.0900
vn -0.3957 -0.7361 -0.5492
vn 0.7540 0.4895 -0.4380
vn -0.7326 0.6723 0.1063
s off
f 59/66/48 69/67/48 47/68/48
f 45/69/49 51/70/49 46/71/49
f 43/72/50 49/73/50 44/74/50
f 47/75/51 51/70/51 52/76/51
f 44/74/52 50/77/52 45/69/52
f 48/78/53 71/79/53 49/80/53
f 51/81/54 55/82/54 52/83/54
f 49/80/55 53/84/55 50/85/55
f 43/86/56 70/87/56 48/78/56
f 50/85/57 54/88/57 51/81/57
f 55/82/58 58/89/58 59/66/58
f 72/90/59 84/91/59 80/92/59
f 53/84/60 58/89/60 54/88/60
f 70/93/61 83/94/61 81/95/61
f 58/89/62 64/96/62 59/66/62
f 61/97/63 77/98/63 60/99/63
f 57/100/64 63/101/64 58/89/64
f 62/102/65 76/103/65 78/104/65
f 64/96/66 68/105/66 69/67/66
f 61/106/67 67/107/67 62/108/67
f 43/86/56 60/109/56 56/110/56
f 62/108/68 68/105/68 63/101/68
f 60/109/69 66/111/69 61/106/69
f 69/112/70 46/71/70 47/75/70
f 66/113/71 45/69/71 67/114/71
f 67/114/72 46/71/72 68/115/72
f 65/116/73 44/74/73 66/113/73
f 55/82/48 47/68/48 52/83/48
f 73/117/74 78/104/74 76/103/74
f 73/117/75 77/98/75 74/118/75
f 72/119/76 75/120/76 73/117/76
f 60/99/77 75/120/77 56/121/77
f 61/97/78 78/104/78 74/118/78
f 72/119/79 76/103/79 57/122/79
f 79/123/80 84/91/80 82/124/80
f 79/123/81 83/94/81 80/92/81
f 71/125/82 82/124/82 53/126/82
f 53/126/83 84/91/83 57/127/83
f 72/90/84 83/94/84 56/128/84
f 71/125/85 81/95/85 79/123/85
f 59/66/48 64/96/48 69/67/48
f 45/69/49 50/77/49 51/70/49
f 43/72/50 48/129/50 49/73/50
f 47/75/51 46/71/51 51/70/51
f 44/74/52 49/73/52 50/77/52
f 48/78/53 70/87/53 71/79/53
f 51/81/86 54/88/86 55/82/86
f 49/80/55 71/79/55 53/84/55
f 43/86/56 56/110/56 70/87/56
f 50/85/87 53/84/87 54/88/87
f 55/82/88 54/88/88 58/89/88
f 72/90/89 57/127/89 84/91/89
f 53/84/60 57/100/60 58/89/60
f 70/93/61 56/128/61 83/94/61
f 58/89/62 63/101/62 64/96/62
f 61/97/90 74/118/90 77/98/90
f 57/100/64 62/108/64 63/101/64
f 62/102/65 57/122/65 76/103/65
f 64/96/66 63/101/66 68/105/66
f 61/106/91 66/111/91 67/107/91
f 43/86/56 65/130/56 60/109/56
f 62/108/68 67/107/68 68/105/68
f 60/109/69 65/130/69 66/111/69
f 69/112/70 68/115/70 46/71/70
f 66/113/71 44/74/71 45/69/71
f 67/114/72 45/69/72 46/71/72
f 65/116/73 43/72/73 44/74/73
f 55/82/48 59/66/48 47/68/48
f 73/117/74 74/118/74 78/104/74
f 73/117/75 75/120/75 77/98/75
f 72/119/92 56/121/92 75/120/92
f 60/99/77 77/98/77 75/120/77
f 61/97/93 62/102/93 78/104/93
f 72/119/94 73/117/94 76/103/94
f 79/123/80 80/92/80 84/91/80
f 79/123/81 81/95/81 83/94/81
f 71/125/95 79/123/95 82/124/95
f 53/126/96 82/124/96 84/91/96
f 72/90/97 80/92/97 83/94/97
f 71/125/98 70/93/98 81/95/98
