# Blender v2.81 (sub 16) OBJ File: 'garbage.blend'
# www.blender.org
v 0.028258 1.183626 -0.734323
v 0.032945 1.157175 -0.724324
v 0.023130 1.133094 -0.712267
v 0.001444 1.117835 -0.701382
v -0.026303 1.115488 -0.694586
v 0.021742 1.200884 -0.713676
v 0.021660 1.187067 -0.688563
v 0.010100 1.167610 -0.670973
v -0.009840 1.147727 -0.665621
v -0.032818 1.132745 -0.673939
v -0.034206 1.200535 -0.675348
v -0.048210 1.176241 -0.669409
v -0.054971 1.149208 -0.676126
v -0.016048 1.216552 -0.738697
v -0.065482 1.198945 -0.721016
v -0.075296 1.174864 -0.708959
v -0.070609 1.148413 -0.698960
v -0.009533 1.199294 -0.759344
v -0.032511 1.184313 -0.767662
v -0.052451 1.164430 -0.762309
v -0.064011 1.144973 -0.744720
v -0.064093 1.131155 -0.719607
v 0.012620 1.182831 -0.757157
v 0.005859 1.155798 -0.763874
v -0.008145 1.131504 -0.757935
v -0.025641 1.116459 -0.740931
v -0.041940 1.114693 -0.717420
v -0.000411 1.217347 -0.715863
v -0.016710 1.215581 -0.692352
v -0.043795 1.214204 -0.731901
v -0.059468 1.227782 -0.777727
v -0.058547 1.225344 -0.780644
v -0.029335 1.223733 -0.758267
v -0.069763 1.206622 -0.751659
v -0.026110 1.215190 -0.768487
v -0.064761 1.193372 -0.767511
v -0.040056 1.257334 -0.700009
v -0.046467 1.257009 -0.709370
v -0.027955 1.248442 -0.711160
v -0.047921 1.235931 -0.696533
v -0.030893 1.248293 -0.715450
v -0.050867 1.235781 -0.700836
vt 0.274240 0.539347
vt 0.265397 0.539709
vt 0.266768 0.532487
vt 0.231414 0.551290
vt 0.214659 0.541092
vt 0.231357 0.542861
vt 0.231940 0.569242
vt 0.215985 0.562822
vt 0.231472 0.559719
vt 0.230890 0.533338
vt 0.220414 0.530957
vt 0.213134 0.552274
vt 0.289666 0.544440
vt 0.282983 0.540904
vt 0.290637 0.536818
vt 0.279682 0.529141
vt 0.275518 0.536619
vt 0.273707 0.532162
vt 0.280945 0.538772
vt 0.286431 0.530872
vt 0.290637 0.551375
vt 0.284312 0.543753
vt 0.278488 0.537315
vt 0.276318 0.541045
vt 0.804698 0.251197
vt 0.792375 0.255919
vt 0.792638 0.252041
vt 0.786357 0.239035
vt 0.792578 0.249274
vt 0.791489 0.249454
vt 0.271776 0.541127
vt 0.760733 0.199751
vt 0.757502 0.209505
vt 0.750621 0.206121
vt 0.278108 0.542645
vt 0.273009 0.544115
vt 0.772804 0.201934
vt 0.766718 0.213101
vt 0.766203 0.208706
vt 0.264007 0.548518
vt 0.277612 0.547903
vt 0.268747 0.555467
vt 0.275021 0.546378
vt 0.280714 0.548498
vt 0.281954 0.545638
vt 0.276612 0.557409
vt 0.240880 0.530957
vt 0.248168 0.561486
vt 0.249693 0.550306
vt 0.246843 0.539760
vt 0.242415 0.571620
vt 0.762287 0.211045
vt 0.762255 0.210544
vt 0.761023 0.221925
vt 0.757316 0.212491
vt 0.750922 0.216572
vt 0.772804 0.220841
vt 0.791613 0.252007
vt 0.791097 0.255536
vt 0.780068 0.250772
vt 0.780487 0.263708
vt 0.804698 0.264828
vt 0.798786 0.238814
vt 0.221949 0.571626
vt 0.283377 0.553479
vn -0.5689 -0.7104 0.4143
vn 0.6391 -0.4789 0.6019
vn 0.9681 0.2181 0.1232
vn 0.2233 -0.7121 0.6656
vn 0.8962 -0.1577 0.4146
vn 0.5162 0.7497 0.4142
vn -0.2286 -0.1805 0.9566
vn 0.3139 0.5273 0.7896
vn 0.5689 0.7104 -0.4143
vn 0.0567 0.2061 0.9769
vn -0.8243 0.0665 0.5622
vn -0.9567 0.0866 -0.2779
vn -0.7109 0.5244 0.4686
vn 0.6316 0.6282 -0.4544
vn -0.9681 -0.2181 -0.1232
vn 0.3994 -0.1071 -0.9105
vn -0.8962 0.1577 -0.4146
vn -0.9218 -0.3863 0.0320
vn -0.5162 -0.7497 -0.4142
vn -0.0567 -0.2061 -0.9769
vn -0.3139 -0.5273 -0.7896
vn 0.2286 0.1805 -0.9566
vn 0.0795 -0.9966 -0.0197
vn 0.7109 -0.5244 -0.4686
vn 0.4537 -0.8456 -0.2813
vn 0.8243 -0.0665 -0.5622
vn -0.9412 0.0453 -0.3349
vn 0.4236 0.7563 -0.4985
vn -0.0694 0.9498 0.3052
vn 0.7403 0.6121 -0.2780
vn -0.1055 -0.3602 -0.9269
vn -0.4567 0.8458 0.2757
vn -0.7731 0.3680 0.5166
vn 0.3787 0.8789 -0.2899
vn 0.2667 0.5689 0.7779
vn -0.8252 0.0181 0.5645
vn -0.2460 0.4952 -0.8332
vn 0.7562 0.5002 0.4218
vn 0.2233 -0.7121 0.6657
vn -0.6498 0.5470 -0.5278
vn 0.3240 -0.0923 -0.9415
vn 0.4538 -0.8456 -0.2813
vn 0.0042 0.9397 0.3419
vn -0.0612 -0.2017 -0.9775
vn -0.5248 0.7504 0.4018
vn -0.7731 0.3680 0.5167
vn -0.0224 0.1682 0.9855
vn -0.0878 0.4597 -0.8837
vn 0.6803 0.5253 0.5111
s off
f 17/1/1 27/2/1 5/3/1
f 3/4/2 9/5/2 4/6/2
f 1/7/3 7/8/3 2/9/3
f 5/10/4 9/5/4 10/11/4
f 2/9/5 8/12/5 3/4/5
f 6/13/6 29/14/6 7/15/6
f 9/16/7 13/17/7 10/18/7
f 7/15/8 11/19/8 8/20/8
f 1/21/9 28/22/9 6/13/9
f 8/20/10 12/23/10 9/16/10
f 13/17/11 16/24/11 17/1/11
f 30/25/12 42/26/12 38/27/12
f 11/19/13 16/24/13 12/23/13
f 28/28/14 41/29/14 39/30/14
f 16/24/15 22/31/15 17/1/15
f 19/32/16 35/33/16 18/34/16
f 15/35/17 21/36/17 16/24/17
f 20/37/18 34/38/18 36/39/18
f 22/31/19 26/40/19 27/2/19
f 19/41/20 25/42/20 20/43/20
f 1/21/9 18/44/9 14/45/9
f 20/43/21 26/40/21 21/36/21
f 18/44/22 24/46/22 19/41/22
f 27/47/23 4/6/23 5/10/23
f 24/48/24 3/4/24 25/49/24
f 25/49/25 4/6/25 26/50/25
f 23/51/26 2/9/26 24/48/26
f 13/17/1 5/3/1 10/18/1
f 31/52/27 36/39/27 34/38/27
f 31/52/28 35/33/28 32/53/28
f 30/54/29 33/55/29 31/52/29
f 18/34/30 33/55/30 14/56/30
f 19/32/31 36/39/31 32/53/31
f 30/54/32 34/38/32 15/57/32
f 37/58/33 42/26/33 40/59/33
f 37/58/34 41/29/34 38/27/34
f 29/60/35 40/59/35 11/61/35
f 11/61/36 42/26/36 15/62/36
f 30/25/37 41/29/37 14/63/37
f 29/60/38 39/30/38 37/58/38
f 17/1/1 22/31/1 27/2/1
f 3/4/2 8/12/2 9/5/2
f 1/7/3 6/64/3 7/8/3
f 5/10/39 4/6/39 9/5/39
f 2/9/5 7/8/5 8/12/5
f 6/13/6 28/22/6 29/14/6
f 9/16/7 12/23/7 13/17/7
f 7/15/8 29/14/8 11/19/8
f 1/21/9 14/45/9 28/22/9
f 8/20/10 11/19/10 12/23/10
f 13/17/11 12/23/11 16/24/11
f 30/25/40 15/62/40 42/26/40
f 11/19/13 15/35/13 16/24/13
f 28/28/14 14/63/14 41/29/14
f 16/24/15 21/36/15 22/31/15
f 19/32/41 32/53/41 35/33/41
f 15/35/17 20/43/17 21/36/17
f 20/37/18 15/57/18 34/38/18
f 22/31/19 21/36/19 26/40/19
f 19/41/20 24/46/20 25/42/20
f 1/21/9 23/65/9 18/44/9
f 20/43/21 25/42/21 26/40/21
f 18/44/22 23/65/22 24/46/22
f 27/47/23 26/50/23 4/6/23
f 24/48/24 2/9/24 3/4/24
f 25/49/42 3/4/42 4/6/42
f 23/51/26 1/7/26 2/9/26
f 13/17/1 17/1/1 5/3/1
f 31/52/27 32/53/27 36/39/27
f 31/52/28 33/55/28 35/33/28
f 30/54/43 14/56/43 33/55/43
f 18/34/30 35/33/30 33/55/30
f 19/32/44 20/37/44 36/39/44
f 30/54/45 31/52/45 34/38/45
f 37/58/46 38/27/46 42/26/46
f 37/58/34 39/30/34 41/29/34
f 29/60/47 37/58/47 40/59/47
f 11/61/36 40/59/36 42/26/36
f 30/25/48 38/27/48 41/29/48
f 29/60/49 28/28/49 39/30/49
v 1.025103 1.232497 0.110960
v 1.003889 1.219330 0.125038
v 0.991674 1.195246 0.134646
v 0.991729 1.166697 0.137207
v 1.004040 1.141333 0.132037
v 1.024145 1.226475 0.083953
v 1.002229 1.208899 0.078261
v 0.989756 1.183200 0.080632
v 0.990068 1.156265 0.090430
v 1.003082 1.135311 0.105030
v 1.035553 1.166540 0.054338
v 1.029729 1.141837 0.067659
v 1.025980 1.126981 0.091883
v 1.070900 1.215837 0.084666
v 1.083266 1.161925 0.082057
v 1.071050 1.137840 0.091665
v 1.049836 1.124673 0.105743
v 1.071858 1.221859 0.111673
v 1.084871 1.200905 0.126273
v 1.085183 1.173970 0.136071
v 1.072711 1.148271 0.138442
v 1.050795 1.130696 0.132750
v 1.048960 1.230190 0.124820
v 1.045210 1.215333 0.149044
v 1.039387 1.190630 0.162365
v 1.033050 1.162700 0.161213
v 1.027897 1.139026 0.145897
v 1.047043 1.218145 0.070806
v 1.041890 1.194471 0.055490
v 1.083211 1.190474 0.079496
v 1.127982 1.204978 0.097248
v 1.128118 1.205829 0.101065
v 1.094834 1.217621 0.090586
v 1.108631 1.175720 0.095568
v 1.095309 1.220602 0.103954
v 1.109367 1.180344 0.116304
v 1.080424 1.199450 0.026552
v 1.090204 1.198504 0.032234
v 1.075684 1.209484 0.041610
v 1.073550 1.181890 0.039835
v 1.080166 1.209050 0.044214
v 1.078046 1.181455 0.042447
vt 0.274240 0.539347
vt 0.265397 0.539709
vt 0.266768 0.532487
vt 0.231414 0.551290
vt 0.214659 0.541092
vt 0.231357 0.542861
vt 0.231940 0.569242
vt 0.215985 0.562822
vt 0.231472 0.559719
vt 0.230890 0.533338
vt 0.220414 0.530957
vt 0.213134 0.552274
vt 0.289666 0.544440
vt 0.282983 0.540904
vt 0.290637 0.536818
vt 0.279682 0.529141
vt 0.275518 0.536619
vt 0.273707 0.532162
vt 0.280945 0.538772
vt 0.286431 0.530872
vt 0.290637 0.551375
vt 0.284312 0.543753
vt 0.278488 0.537315
vt 0.276318 0.541045
vt 0.804698 0.251197
vt 0.792375 0.255919
vt 0.792638 0.252041
vt 0.786357 0.239035
vt 0.792578 0.249274
vt 0.791489 0.249454
vt 0.271776 0.541127
vt 0.760733 0.199751
vt 0.757502 0.209505
vt 0.750621 0.206121
vt 0.278108 0.542645
vt 0.273009 0.544115
vt 0.772804 0.201934
vt 0.766718 0.213101
vt 0.766203 0.208706
vt 0.264007 0.548518
vt 0.277612 0.547903
vt 0.268747 0.555467
vt 0.275021 0.546378
vt 0.280714 0.548498
vt 0.281954 0.545638
vt 0.276612 0.557409
vt 0.240880 0.530957
vt 0.248168 0.561486
vt 0.249693 0.550306
vt 0.246843 0.539760
vt 0.242415 0.571620
vt 0.762287 0.211045
vt 0.762255 0.210544
vt 0.761023 0.221925
vt 0.757316 0.212491
vt 0.750922 0.216572
vt 0.772804 0.220841
vt 0.791613 0.252007
vt 0.791097 0.255536
vt 0.780068 0.250772
vt 0.780487 0.263708
vt 0.804698 0.264828
vt 0.798786 0.238814
vt 0.221949 0.571626
vt 0.283377 0.553479
vn -0.2196 -0.9505 0.2197
vn -0.9994 0.0012 0.0352
vn -0.5932 0.7899 -0.1551
vn -0.8808 -0.4546 0.1326
vn -0.9001 0.4309 -0.0642
vn -0.2474 0.5637 -0.7881
vn -0.5349 -0.6808 -0.5003
vn -0.4544 0.1394 -0.8798
vn 0.2196 0.9505 -0.2198
vn -0.5537 -0.2903 -0.7805
vn 0.2021 -0.8485 -0.4891
vn 0.8208 -0.5707 0.0245
vn 0.3960 -0.5064 -0.7660
vn 0.1676 0.9778 -0.1256
vn 0.5932 -0.7899 0.1551
vn 0.2672 0.6571 0.7049
vn 0.9001 -0.4310 0.0642
vn 0.3906 -0.9014 0.1871
vn 0.2474 -0.5637 0.7881
vn 0.5537 0.2903 0.7805
vn 0.4544 -0.1394 0.8798
vn 0.5349 0.6808 0.5003
vn -0.4896 -0.3960 0.7768
vn -0.3960 0.5064 0.7660
vn -0.4953 0.0767 0.8653
vn -0.2021 0.8485 0.4891
vn -0.2196 -0.9505 0.2198
vn 0.8279 -0.5530 0.0939
vn 0.3854 0.8976 -0.2139
vn 0.2835 0.2562 -0.9241
vn -0.0191 0.9760 -0.2170
vn 0.4836 0.1589 0.8607
vn 0.5008 -0.0764 -0.8622
vn 0.3346 -0.6483 -0.6839
vn 0.3390 0.8287 -0.4455
vn -0.3983 0.1278 -0.9083
vn 0.1793 -0.8728 -0.4540
vn 0.9018 0.4096 0.1379
vn -0.5177 0.6278 -0.5813
vn 0.2196 0.9505 -0.2197
vn 0.9907 -0.0103 -0.1356
vn 0.1676 0.9778 -0.1257
vn 0.3413 0.6198 0.7066
vn 0.9001 -0.4309 0.0642
vn 0.3905 -0.9014 0.1871
vn 0.3854 0.8976 -0.2138
vn 0.2091 0.2918 -0.9334
vn 0.5590 0.2892 0.7771
vn 0.4220 -0.2287 -0.8773
vn -0.5260 -0.3724 -0.7646
vn 0.8168 0.5366 0.2120
vn -0.5139 0.5420 -0.6649
s off
f 59/66/50 69/67/50 47/68/50
f 45/69/51 51/70/51 46/71/51
f 43/72/52 49/73/52 44/74/52
f 47/75/53 51/70/53 52/76/53
f 44/74/54 50/77/54 45/69/54
f 48/78/55 71/79/55 49/80/55
f 51/81/56 55/82/56 52/83/56
f 49/80/57 53/84/57 50/85/57
f 43/86/58 70/87/58 48/78/58
f 50/85/59 54/88/59 51/81/59
f 55/82/60 58/89/60 59/66/60
f 72/90/61 84/91/61 80/92/61
f 53/84/62 58/89/62 54/88/62
f 70/93/63 83/94/63 81/95/63
f 58/89/64 64/96/64 59/66/64
f 61/97/65 77/98/65 60/99/65
f 57/100/66 63/101/66 58/89/66
f 62/102/67 76/103/67 78/104/67
f 64/96/68 68/105/68 69/67/68
f 61/106/69 67/107/69 62/108/69
f 43/86/58 60/109/58 56/110/58
f 62/108/70 68/105/70 63/101/70
f 60/109/71 66/111/71 61/106/71
f 69/112/72 46/71/72 47/75/72
f 66/113/73 45/69/73 67/114/73
f 67/114/74 46/71/74 68/115/74
f 65/116/75 44/74/75 66/113/75
f 55/82/76 47/68/76 52/83/76
f 73/117/77 78/104/77 76/103/77
f 73/117/78 77/98/78 74/118/78
f 72/119/79 75/120/79 73/117/79
f 60/99/80 75/120/80 56/121/80
f 61/97/81 78/104/81 74/118/81
f 72/119/82 76/103/82 57/122/82
f 79/123/83 84/91/83 82/124/83
f 79/123/84 83/94/84 80/92/84
f 71/125/85 82/124/85 53/126/85
f 53/126/86 84/91/86 57/127/86
f 72/90/87 83/94/87 56/128/87
f 71/125/88 81/95/88 79/123/88
f 59/66/76 64/96/76 69/67/76
f 45/69/51 50/77/51 51/70/51
f 43/72/52 48/129/52 49/73/52
f 47/75/53 46/71/53 51/70/53
f 44/74/54 49/73/54 50/77/54
f 48/78/55 70/87/55 71/79/55
f 51/81/56 54/88/56 55/82/56
f 49/80/57 71/79/57 53/84/57
f 43/86/89 56/110/89 70/87/89
f 50/85/59 53/84/59 54/88/59
f 55/82/60 54/88/60 58/89/60
f 72/90/90 57/127/90 84/91/90
f 53/84/62 57/100/62 58/89/62
f 70/93/91 56/128/91 83/94/91
f 58/89/64 63/101/64 64/96/64
f 61/97/92 74/118/92 77/98/92
f 57/100/93 62/108/93 63/101/93
f 62/102/94 57/122/94 76/103/94
f 64/96/68 63/101/68 68/105/68
f 61/106/69 66/111/69 67/107/69
f 43/86/58 65/130/58 60/109/58
f 62/108/70 67/107/70 68/105/70
f 60/109/71 65/130/71 66/111/71
f 69/112/72 68/115/72 46/71/72
f 66/113/73 44/74/73 45/69/73
f 67/114/74 45/69/74 46/71/74
f 65/116/75 43/72/75 44/74/75
f 55/82/76 59/66/76 47/68/76
f 73/117/77 74/118/77 78/104/77
f 73/117/95 75/120/95 77/98/95
f 72/119/96 56/121/96 75/120/96
f 60/99/80 77/98/80 75/120/80
f 61/97/97 62/102/97 78/104/97
f 72/119/98 73/117/98 76/103/98
f 79/123/83 80/92/83 84/91/83
f 79/123/84 81/95/84 83/94/84
f 71/125/99 79/123/99 82/124/99
f 53/126/86 82/124/86 84/91/86
f 72/90/100 80/92/100 83/94/100
f 71/125/101 70/93/101 81/95/101
