# Blender v2.81 (sub 16) OBJ File: 'garbage.blend'
# www.blender.org
v -0.104914 2.460631 0.876419
v -0.112339 2.435082 0.865756
v -0.110533 2.406480 0.866301
v -0.099980 2.382490 0.877908
v -0.083508 2.369540 0.897468
v -0.078139 2.465822 0.871653
v -0.065963 2.444072 0.857500
v -0.056983 2.416861 0.856768
v -0.053605 2.391481 0.869652
v -0.056733 2.374731 0.892701
v -0.024340 2.434072 0.898053
v -0.025335 2.406386 0.905406
v -0.040412 2.383336 0.913344
v -0.072271 2.477842 0.917704
v -0.045246 2.440902 0.948871
v -0.043440 2.412300 0.949416
v -0.050865 2.386751 0.938753
v -0.099046 2.472651 0.922471
v -0.102175 2.455901 0.945520
v -0.098796 2.430521 0.958405
v -0.089816 2.403310 0.957672
v -0.077640 2.381561 0.943520
v -0.115368 2.464046 0.901829
v -0.130445 2.440996 0.909766
v -0.131440 2.413310 0.917120
v -0.118086 2.388405 0.921919
v -0.093962 2.372955 0.922877
v -0.061818 2.474427 0.892295
v -0.037693 2.458977 0.893254
v -0.055799 2.464892 0.937264
v -0.076516 2.489691 0.975810
v -0.080299 2.488957 0.976484
v -0.077475 2.487670 0.939782
v -0.062573 2.458111 0.969362
v -0.090729 2.485101 0.942141
v -0.083131 2.454125 0.973022
v -0.012689 2.491420 0.919123
v -0.016974 2.492820 0.929540
v -0.030813 2.491554 0.914501
v -0.016900 2.469039 0.922785
v -0.032777 2.492196 0.919275
v -0.018870 2.469683 0.927573
vt 0.274240 0.539347
vt 0.265397 0.539709
vt 0.266768 0.532487
vt 0.231414 0.551290
vt 0.214659 0.541092
vt 0.231357 0.542861
vt 0.231940 0.569242
vt 0.215985 0.562822
vt 0.231472 0.559719
vt 0.230890 0.533338
vt 0.220414 0.530957
vt 0.213134 0.552274
vt 0.289666 0.544440
vt 0.282983 0.540904
vt 0.290637 0.536818
vt 0.279682 0.529141
vt 0.275518 0.536619
vt 0.273707 0.532162
vt 0.280945 0.538772
vt 0.286431 0.530872
vt 0.290637 0.551375
vt 0.284312 0.543753
vt 0.278488 0.537315
vt 0.276318 0.541045
vt 0.804698 0.251197
vt 0.792375 0.255919
vt 0.792638 0.252041
vt 0.786357 0.239035
vt 0.792578 0.249274
vt 0.791489 0.249454
vt 0.271776 0.541127
vt 0.760733 0.199751
vt 0.757502 0.209505
vt 0.750621 0.206121
vt 0.278108 0.542645
vt 0.273009 0.544115
vt 0.772804 0.201934
vt 0.766718 0.213101
vt 0.766203 0.208706
vt 0.264007 0.548518
vt 0.277612 0.547903
vt 0.268747 0.555467
vt 0.275021 0.546378
vt 0.280714 0.548498
vt 0.281954 0.545638
vt 0.276612 0.557409
vt 0.240880 0.530957
vt 0.248168 0.561486
vt 0.249693 0.550306
vt 0.246843 0.539760
vt 0.242415 0.571620
vt 0.762287 0.211045
vt 0.762255 0.210544
vt 0.761023 0.221925
vt 0.757316 0.212491
vt 0.750922 0.216572
vt 0.772804 0.220841
vt 0.791613 0.252007
vt 0.791097 0.255536
vt 0.780068 0.250772
vt 0.780487 0.263708
vt 0.804698 0.264828
vt 0.798786 0.238814
vt 0.221949 0.571626
vt 0.283377 0.553479
vn 0.2232 -0.9497 0.2195
vn -0.0688 -0.4588 -0.8859
vn -0.2386 0.4323 -0.8696
vn 0.0536 -0.8112 -0.5822
vn -0.1697 -0.0295 -0.9851
vn 0.4407 0.6498 -0.6193
vn 0.7329 -0.5938 -0.3320
vn 0.7058 0.2508 -0.6626
vn -0.2232 0.9498 -0.2195
vn 0.8067 -0.1786 -0.5634
vn 0.8255 -0.4043 0.3939
vn 0.2650 -0.1032 0.9587
vn 0.9259 0.0656 0.3721
vn -0.3213 0.9120 -0.2548
vn 0.2386 -0.4323 0.8696
vn -0.9147 0.3758 0.1489
vn 0.1697 0.0295 0.9851
vn 0.2527 -0.6250 0.7386
vn -0.4407 -0.6497 0.6193
vn -0.8067 0.1786 0.5634
vn -0.7058 -0.2508 0.6626
vn -0.7330 0.5938 0.3320
vn -0.5332 -0.8392 -0.1066
vn -0.9259 -0.0656 -0.3721
vn -0.8250 -0.4949 -0.2729
vn -0.8255 0.4043 -0.3939
vn 0.2232 -0.9498 0.2194
vn 0.1953 -0.1127 0.9742
vn -0.1986 0.9788 -0.0496
vn 0.7200 0.6915 -0.0579
vn -0.2459 0.8626 -0.4420
vn -0.8218 0.0102 0.5697
vn 0.8222 0.4964 0.2784
vn 0.9142 -0.1081 0.3906
vn 0.0374 0.9923 -0.1179
vn 0.7385 0.2775 -0.6145
vn 0.8042 -0.4477 0.3910
vn -0.2740 0.6795 0.6806
vn 0.2174 0.5006 -0.8379
vn -0.0688 -0.4589 -0.8858
vn 0.0536 -0.8112 -0.5823
vn 0.4407 0.6497 -0.6193
vn -0.2232 0.9497 -0.2195
vn 0.1621 0.4867 0.8584
vn -0.3214 0.9120 -0.2548
vn -0.8968 0.3781 0.2299
vn -0.4407 -0.6498 0.6193
vn -0.7329 0.5938 0.3320
vn 0.7095 0.6906 -0.1402
vn -0.8030 0.1813 0.5677
vn 0.9013 0.3442 0.2629
vn 0.8304 -0.2386 -0.5034
vn -0.4004 0.7151 0.5729
vn 0.3308 0.4655 -0.8209
s off
f 17/1/1 27/2/1 5/3/1
f 3/4/2 9/5/2 4/6/2
f 1/7/3 7/8/3 2/9/3
f 5/10/4 9/5/4 10/11/4
f 2/9/5 8/12/5 3/4/5
f 6/13/6 29/14/6 7/15/6
f 9/16/7 13/17/7 10/18/7
f 7/15/8 11/19/8 8/20/8
f 1/21/9 28/22/9 6/13/9
f 8/20/10 12/23/10 9/16/10
f 13/17/11 16/24/11 17/1/11
f 30/25/12 42/26/12 38/27/12
f 11/19/13 16/24/13 12/23/13
f 28/28/14 41/29/14 39/30/14
f 16/24/15 22/31/15 17/1/15
f 19/32/16 35/33/16 18/34/16
f 15/35/17 21/36/17 16/24/17
f 20/37/18 34/38/18 36/39/18
f 22/31/19 26/40/19 27/2/19
f 19/41/20 25/42/20 20/43/20
f 1/21/9 18/44/9 14/45/9
f 20/43/21 26/40/21 21/36/21
f 18/44/22 24/46/22 19/41/22
f 27/47/23 4/6/23 5/10/23
f 24/48/24 3/4/24 25/49/24
f 25/49/25 4/6/25 26/50/25
f 23/51/26 2/9/26 24/48/26
f 13/17/27 5/3/27 10/18/27
f 31/52/28 36/39/28 34/38/28
f 31/52/29 35/33/29 32/53/29
f 30/54/30 33/55/30 31/52/30
f 18/34/31 33/55/31 14/56/31
f 19/32/32 36/39/32 32/53/32
f 30/54/33 34/38/33 15/57/33
f 37/58/34 42/26/34 40/59/34
f 37/58/35 41/29/35 38/27/35
f 29/60/36 40/59/36 11/61/36
f 11/61/37 42/26/37 15/62/37
f 30/25/38 41/29/38 14/63/38
f 29/60/39 39/30/39 37/58/39
f 17/1/27 22/31/27 27/2/27
f 3/4/40 8/12/40 9/5/40
f 1/7/3 6/64/3 7/8/3
f 5/10/41 4/6/41 9/5/41
f 2/9/5 7/8/5 8/12/5
f 6/13/42 28/22/42 29/14/42
f 9/16/7 12/23/7 13/17/7
f 7/15/8 29/14/8 11/19/8
f 1/21/43 14/45/43 28/22/43
f 8/20/10 11/19/10 12/23/10
f 13/17/11 12/23/11 16/24/11
f 30/25/44 15/62/44 42/26/44
f 11/19/13 15/35/13 16/24/13
f 28/28/45 14/63/45 41/29/45
f 16/24/15 21/36/15 22/31/15
f 19/32/46 32/53/46 35/33/46
f 15/35/17 20/43/17 21/36/17
f 20/37/18 15/57/18 34/38/18
f 22/31/47 21/36/47 26/40/47
f 19/41/20 24/46/20 25/42/20
f 1/21/43 23/65/43 18/44/43
f 20/43/21 25/42/21 26/40/21
f 18/44/48 23/65/48 24/46/48
f 27/47/23 26/50/23 4/6/23
f 24/48/24 2/9/24 3/4/24
f 25/49/25 3/4/25 4/6/25
f 23/51/26 1/7/26 2/9/26
f 13/17/1 17/1/1 5/3/1
f 31/52/28 32/53/28 36/39/28
f 31/52/29 33/55/29 35/33/29
f 30/54/49 14/56/49 33/55/49
f 18/34/31 35/33/31 33/55/31
f 19/32/50 20/37/50 36/39/50
f 30/54/51 31/52/51 34/38/51
f 37/58/34 38/27/34 42/26/34
f 37/58/35 39/30/35 41/29/35
f 29/60/52 37/58/52 40/59/52
f 11/61/37 40/59/37 42/26/37
f 30/25/53 38/27/53 41/29/53
f 29/60/54 28/28/54 39/30/54
v 1.280200 1.369400 -1.419480
v 1.291128 1.348297 -1.403454
v 1.290185 1.321238 -1.394043
v 1.277624 1.295475 -1.393769
v 1.256810 1.277910 -1.402706
v 1.255641 1.377493 -1.409584
v 1.248591 1.362314 -1.386314
v 1.241068 1.337424 -1.374252
v 1.235087 1.309493 -1.376629
v 1.232251 1.286003 -1.392810
v 1.197707 1.342258 -1.408351
v 1.197536 1.313679 -1.406160
v 1.210571 1.288420 -1.409860
v 1.236840 1.374233 -1.453579
v 1.203465 1.330905 -1.462242
v 1.202522 1.303847 -1.452831
v 1.213450 1.282744 -1.436805
v 1.261399 1.366140 -1.463475
v 1.258563 1.342651 -1.479656
v 1.252583 1.314719 -1.482033
v 1.245059 1.289830 -1.469971
v 1.238009 1.274651 -1.446701
v 1.283079 1.363724 -1.446425
v 1.296115 1.338465 -1.450125
v 1.295943 1.309886 -1.447934
v 1.282610 1.285644 -1.440440
v 1.259689 1.272234 -1.429651
v 1.233961 1.379910 -1.426634
v 1.211040 1.366500 -1.415845
v 1.216026 1.356668 -1.462516
v 1.224412 1.366274 -1.511171
v 1.227883 1.365130 -1.512570
v 1.235391 1.376015 -1.478192
v 1.213853 1.339423 -1.491152
v 1.247548 1.372009 -1.483091
v 1.232710 1.333209 -1.498750
v 1.178787 1.390249 -1.443099
v 1.179968 1.387922 -1.454146
v 1.197468 1.390764 -1.443901
v 1.182553 1.367679 -1.440193
v 1.198009 1.389697 -1.448964
v 1.183096 1.366609 -1.445270
vt 0.274240 0.539347
vt 0.265397 0.539709
vt 0.266768 0.532487
vt 0.231414 0.551290
vt 0.214659 0.541092
vt 0.231357 0.542861
vt 0.231940 0.569242
vt 0.215985 0.562822
vt 0.231472 0.559719
vt 0.230890 0.533338
vt 0.220414 0.530957
vt 0.213134 0.552274
vt 0.289666 0.544440
vt 0.282983 0.540904
vt 0.290637 0.536818
vt 0.279682 0.529141
vt 0.275518 0.536619
vt 0.273707 0.532162
vt 0.280945 0.538772
vt 0.286431 0.530872
vt 0.290637 0.551375
vt 0.284312 0.543753
vt 0.278488 0.537315
vt 0.276318 0.541045
vt 0.804698 0.251197
vt 0.792375 0.255919
vt 0.792638 0.252041
vt 0.786357 0.239035
vt 0.792578 0.249274
vt 0.791489 0.249454
vt 0.271776 0.541127
vt 0.760733 0.199751
vt 0.757502 0.209505
vt 0.750621 0.206121
vt 0.278108 0.542645
vt 0.273009 0.544115
vt 0.772804 0.201934
vt 0.766718 0.213101
vt 0.766203 0.208706
vt 0.264007 0.548518
vt 0.277612 0.547903
vt 0.268747 0.555467
vt 0.275021 0.546378
vt 0.280714 0.548498
vt 0.281954 0.545638
vt 0.276612 0.557409
vt 0.240880 0.530957
vt 0.248168 0.561486
vt 0.249693 0.550306
vt 0.246843 0.539760
vt 0.242415 0.571620
vt 0.762287 0.211045
vt 0.762255 0.210544
vt 0.761023 0.221925
vt 0.757316 0.212491
vt 0.750922 0.216572
vt 0.772804 0.220841
vt 0.791613 0.252007
vt 0.791097 0.255536
vt 0.780068 0.250772
vt 0.780487 0.263708
vt 0.804698 0.264828
vt 0.798786 0.238814
vt 0.221949 0.571626
vt 0.283377 0.553479
vn -0.2439 -0.9539 0.1749
vn 0.3268 -0.1494 0.9332
vn 0.4560 0.6759 0.5790
vn 0.1367 -0.5731 0.8080
vn 0.4370 0.2818 0.8541
vn -0.2729 0.8415 0.4662
vn -0.5922 -0.4074 0.6952
vn -0.5022 0.4953 0.7088
vn 0.2439 0.9539 -0.1749
vn -0.6125 0.0641 0.7879
vn -0.8885 -0.4588 0.0017
vn -0.5169 -0.3927 -0.7607
vn -0.9944 -0.0021 -0.1058
vn 0.3492 0.9238 -0.1573
vn -0.4560 -0.6759 -0.5790
vn 0.8246 0.2500 -0.5075
vn -0.4370 -0.2818 -0.8541
vn -0.4268 -0.8143 -0.3933
vn 0.2729 -0.8415 -0.4663
vn 0.6125 -0.0641 -0.7879
vn 0.5022 -0.4953 -0.7088
vn 0.5922 0.4074 -0.6952
vn 0.5692 -0.7901 0.2273
vn 0.9944 0.0021 0.1058
vn 0.8841 -0.4291 0.1849
vn 0.8885 0.4588 -0.0017
vn -0.4540 -0.4109 -0.7906
vn 0.1722 0.9277 -0.3313
vn -0.6981 0.7157 0.0210
vn 0.3303 0.9426 0.0488
vn 0.6308 -0.2260 -0.7423
vn -0.8831 0.4285 -0.1911
vn -0.9826 -0.1728 -0.0686
vn -0.0359 0.9771 -0.2097
vn -0.5478 0.5070 0.6655
vn -0.8659 -0.5001 0.0128
vn 0.0520 0.4032 -0.9136
vn 0.0071 0.7581 0.6521
vn -0.4098 0.1903 -0.8921
vn 0.7849 0.2270 -0.5765
vn 0.2729 -0.8415 -0.4662
vn -0.6651 0.7409 0.0928
vn 0.6076 -0.0627 -0.7917
vn -0.9497 0.2948 -0.1055
vn -0.6499 -0.0106 0.7599
vn 0.2021 0.4641 -0.8624
vn -0.1053 0.7264 0.6791
s off
f 59/66/55 69/67/55 47/68/55
f 45/69/56 51/70/56 46/71/56
f 43/72/57 49/73/57 44/74/57
f 47/75/58 51/70/58 52/76/58
f 44/74/59 50/77/59 45/69/59
f 48/78/60 71/79/60 49/80/60
f 51/81/61 55/82/61 52/83/61
f 49/80/62 53/84/62 50/85/62
f 43/86/63 70/87/63 48/78/63
f 50/85/64 54/88/64 51/81/64
f 55/82/65 58/89/65 59/66/65
f 72/90/66 84/91/66 80/92/66
f 53/84/67 58/89/67 54/88/67
f 70/93/68 83/94/68 81/95/68
f 58/89/69 64/96/69 59/66/69
f 61/97/70 77/98/70 60/99/70
f 57/100/71 63/101/71 58/89/71
f 62/102/72 76/103/72 78/104/72
f 64/96/73 68/105/73 69/67/73
f 61/106/74 67/107/74 62/108/74
f 43/86/63 60/109/63 56/110/63
f 62/108/75 68/105/75 63/101/75
f 60/109/76 66/111/76 61/106/76
f 69/112/77 46/71/77 47/75/77
f 66/113/78 45/69/78 67/114/78
f 67/114/79 46/71/79 68/115/79
f 65/116/80 44/74/80 66/113/80
f 55/82/55 47/68/55 52/83/55
f 73/117/81 78/104/81 76/103/81
f 73/117/82 77/98/82 74/118/82
f 72/119/83 75/120/83 73/117/83
f 60/99/84 75/120/84 56/121/84
f 61/97/85 78/104/85 74/118/85
f 72/119/86 76/103/86 57/122/86
f 79/123/87 84/91/87 82/124/87
f 79/123/88 83/94/88 80/92/88
f 71/125/89 82/124/89 53/126/89
f 53/126/90 84/91/90 57/127/90
f 72/90/91 83/94/91 56/128/91
f 71/125/92 81/95/92 79/123/92
f 59/66/55 64/96/55 69/67/55
f 45/69/56 50/77/56 51/70/56
f 43/72/57 48/129/57 49/73/57
f 47/75/58 46/71/58 51/70/58
f 44/74/59 49/73/59 50/77/59
f 48/78/60 70/87/60 71/79/60
f 51/81/61 54/88/61 55/82/61
f 49/80/62 71/79/62 53/84/62
f 43/86/63 56/110/63 70/87/63
f 50/85/64 53/84/64 54/88/64
f 55/82/65 54/88/65 58/89/65
f 72/90/93 57/127/93 84/91/93
f 53/84/67 57/100/67 58/89/67
f 70/93/68 56/128/68 83/94/68
f 58/89/69 63/101/69 64/96/69
f 61/97/94 74/118/94 77/98/94
f 57/100/71 62/108/71 63/101/71
f 62/102/72 57/122/72 76/103/72
f 64/96/95 63/101/95 68/105/95
f 61/106/74 66/111/74 67/107/74
f 43/86/63 65/130/63 60/109/63
f 62/108/75 67/107/75 68/105/75
f 60/109/76 65/130/76 66/111/76
f 69/112/77 68/115/77 46/71/77
f 66/113/78 44/74/78 45/69/78
f 67/114/79 45/69/79 46/71/79
f 65/116/80 43/72/80 44/74/80
f 55/82/55 59/66/55 47/68/55
f 73/117/81 74/118/81 78/104/81
f 73/117/82 75/120/82 77/98/82
f 72/119/96 56/121/96 75/120/96
f 60/99/84 77/98/84 75/120/84
f 61/97/97 62/102/97 78/104/97
f 72/119/98 73/117/98 76/103/98
f 79/123/87 80/92/87 84/91/87
f 79/123/88 81/95/88 83/94/88
f 71/125/99 79/123/99 82/124/99
f 53/126/90 82/124/90 84/91/90
f 72/90/100 80/92/100 83/94/100
f 71/125/101 70/93/101 81/95/101
