# Blender v2.81 (sub 16) OBJ File: 'garbage.blend'
# www.blender.org
v 1.768589 2.602633 1.096710
v 1.750098 2.588675 1.113587
v 1.739502 2.564073 1.123791
v 1.739641 2.535421 1.124586
v 1.750477 2.510396 1.115760
v 1.762683 2.598279 1.070013
v 1.739868 2.581134 1.067347
v 1.727690 2.555366 1.070397
v 1.729411 2.527880 1.078345
v 1.744571 2.506042 1.089063
v 1.767752 2.540248 1.035286
v 1.764106 2.514787 1.047938
v 1.764602 2.498483 1.071508
v 1.808651 2.587515 1.061599
v 1.819625 2.533838 1.053569
v 1.809030 2.509236 1.063772
v 1.790539 2.495278 1.080649
v 1.814557 2.591869 1.088296
v 1.829716 2.570031 1.099014
v 1.831438 2.542545 1.106963
v 1.819259 2.516777 1.110012
v 1.796445 2.499631 1.107346
v 1.794526 2.599428 1.105852
v 1.795022 2.583123 1.129421
v 1.791376 2.557663 1.142074
v 1.784565 2.529870 1.140419
v 1.776414 2.507190 1.124901
v 1.782714 2.590720 1.052458
v 1.774563 2.568041 1.036940
v 1.819487 2.562490 1.052774
v 1.866918 2.575780 1.062951
v 1.867753 2.576396 1.066724
v 1.833282 2.588881 1.063178
v 1.847196 2.546723 1.063058
v 1.836206 2.591036 1.076393
v 1.851731 2.550066 1.083556
v 1.807291 2.574700 1.001847
v 1.817924 2.573386 1.005595
v 1.805486 2.583802 1.018088
v 1.802701 2.556374 1.015080
v 1.810359 2.583200 1.019805
v 1.807588 2.555770 1.016803
vt 0.274240 0.539347
vt 0.265397 0.539709
vt 0.266768 0.532487
vt 0.231414 0.551290
vt 0.214659 0.541092
vt 0.231357 0.542861
vt 0.231940 0.569242
vt 0.215985 0.562822
vt 0.231472 0.559719
vt 0.230890 0.533338
vt 0.220414 0.530957
vt 0.213134 0.552274
vt 0.289666 0.544440
vt 0.282983 0.540904
vt 0.290637 0.536818
vt 0.279682 0.529141
vt 0.275518 0.536619
vt 0.273707 0.532162
vt 0.280945 0.538772
vt 0.286431 0.530872
vt 0.290637 0.551375
vt 0.284312 0.543753
vt 0.278488 0.537315
vt 0.276318 0.541045
vt 0.804698 0.251197
vt 0.792375 0.255919
vt 0.792638 0.252041
vt 0.786357 0.239035
vt 0.792578 0.249274
vt 0.791489 0.249454
vt 0.271776 0.541127
vt 0.760733 0.199751
vt 0.757502 0.209505
vt 0.750621 0.206121
vt 0.278108 0.542645
vt 0.273009 0.544115
vt 0.772804 0.201934
vt 0.766718 0.213101
vt 0.766203 0.208706
vt 0.264007 0.548518
vt 0.277612 0.547903
vt 0.268747 0.555467
vt 0.275021 0.546378
vt 0.280714 0.548498
vt 0.281954 0.545638
vt 0.276612 0.557409
vt 0.240880 0.530957
vt 0.248168 0.561486
vt 0.249693 0.550306
vt 0.246843 0.539760
vt 0.242415 0.571620
vt 0.762287 0.211045
vt 0.762255 0.210544
vt 0.761023 0.221925
vt 0.757316 0.212491
vt 0.750922 0.216572
vt 0.772804 0.220841
vt 0.791613 0.252007
vt 0.791097 0.255536
vt 0.780068 0.250772
vt 0.780487 0.263708
vt 0.804698 0.264828
vt 0.798786 0.238814
vt 0.221949 0.571626
vt 0.283377 0.553479
vn -0.1888 -0.9617 0.1986
vn -0.9764 0.0013 0.2158
vn -0.6010 0.7993 0.0026
vn -0.8482 -0.4599 0.2627
vn -0.8911 0.4360 0.1260
vn -0.3783 0.6115 -0.6950
vn -0.6256 -0.6477 -0.4349
vn -0.6041 0.1941 -0.7729
vn 0.1888 0.9617 -0.1986
vn -0.6895 -0.2407 -0.6831
vn 0.0990 -0.8174 -0.5675
vn 0.8040 -0.5729 -0.1589
vn 0.2442 -0.4594 -0.8540
vn 0.1551 0.9833 -0.0952
vn 0.6010 -0.7993 -0.0026
vn 0.3990 0.6121 0.6828
vn 0.8911 -0.4361 -0.1260
vn 0.4060 -0.9120 0.0589
vn 0.3783 -0.6115 0.6950
vn 0.6895 0.2407 0.6831
vn 0.6041 -0.1941 0.7729
vn 0.6256 0.6477 0.4349
vn -0.3463 -0.4418 0.8276
vn -0.2442 0.4594 0.8540
vn -0.3296 0.0246 0.9438
vn -0.0990 0.8174 0.5675
vn 0.8238 -0.5595 -0.0910
vn 0.3522 0.9082 -0.2262
vn 0.1150 0.3117 -0.9432
vn -0.0451 0.9875 -0.1511
vn 0.6334 0.1048 0.7667
vn 0.3356 -0.0245 -0.9417
vn 0.1969 -0.6059 -0.7708
vn 0.2638 0.8536 -0.4491
vn -0.5543 0.1841 -0.8117
vn 0.0827 -0.8437 -0.5304
vn 0.9172 0.3984 -0.0037
vn -0.6058 0.6634 -0.4392
vn 0.9496 -0.0041 -0.3134
vn 0.4717 0.5746 0.6689
vn 0.8911 -0.4360 -0.1260
vn -0.0990 0.8174 0.5676
vn 0.8238 -0.5595 -0.0909
vn 0.3522 0.9082 -0.2260
vn 0.0407 0.3480 -0.9366
vn -0.0450 0.9875 -0.1511
vn 0.6941 0.2398 0.6788
vn 0.2533 -0.1754 -0.9514
vn 0.1968 -0.6059 -0.7708
vn -0.6605 -0.3237 -0.6774
vn 0.8487 0.5208 0.0922
vn -0.6184 0.5829 -0.5271
s off
f 17/1/1 27/2/1 5/3/1
f 3/4/2 9/5/2 4/6/2
f 1/7/3 7/8/3 2/9/3
f 5/10/4 9/5/4 10/11/4
f 2/9/5 8/12/5 3/4/5
f 6/13/6 29/14/6 7/15/6
f 9/16/7 13/17/7 10/18/7
f 7/15/8 11/19/8 8/20/8
f 1/21/9 28/22/9 6/13/9
f 8/20/10 12/23/10 9/16/10
f 13/17/11 16/24/11 17/1/11
f 30/25/12 42/26/12 38/27/12
f 11/19/13 16/24/13 12/23/13
f 28/28/14 41/29/14 39/30/14
f 16/24/15 22/31/15 17/1/15
f 19/32/16 35/33/16 18/34/16
f 15/35/17 21/36/17 16/24/17
f 20/37/18 34/38/18 36/39/18
f 22/31/19 26/40/19 27/2/19
f 19/41/20 25/42/20 20/43/20
f 1/21/9 18/44/9 14/45/9
f 20/43/21 26/40/21 21/36/21
f 18/44/22 24/46/22 19/41/22
f 27/47/23 4/6/23 5/10/23
f 24/48/24 3/4/24 25/49/24
f 25/49/25 4/6/25 26/50/25
f 23/51/26 2/9/26 24/48/26
f 13/17/1 5/3/1 10/18/1
f 31/52/27 36/39/27 34/38/27
f 31/52/28 35/33/28 32/53/28
f 30/54/29 33/55/29 31/52/29
f 18/34/30 33/55/30 14/56/30
f 19/32/31 36/39/31 32/53/31
f 30/54/32 34/38/32 15/57/32
f 37/58/33 42/26/33 40/59/33
f 37/58/34 41/29/34 38/27/34
f 29/60/35 40/59/35 11/61/35
f 11/61/36 42/26/36 15/62/36
f 30/25/37 41/29/37 14/63/37
f 29/60/38 39/30/38 37/58/38
f 17/1/1 22/31/1 27/2/1
f 3/4/2 8/12/2 9/5/2
f 1/7/3 6/64/3 7/8/3
f 5/10/4 4/6/4 9/5/4
f 2/9/5 7/8/5 8/12/5
f 6/13/6 28/22/6 29/14/6
f 9/16/7 12/23/7 13/17/7
f 7/15/8 29/14/8 11/19/8
f 1/21/9 14/45/9 28/22/9
f 8/20/10 11/19/10 12/23/10
f 13/17/11 12/23/11 16/24/11
f 30/25/39 15/62/39 42/26/39
f 11/19/13 15/35/13 16/24/13
f 28/28/14 14/63/14 41/29/14
f 16/24/15 21/36/15 22/31/15
f 19/32/40 32/53/40 35/33/40
f 15/35/41 20/43/41 21/36/41
f 20/37/18 15/57/18 34/38/18
f 22/31/19 21/36/19 26/40/19
f 19/41/20 24/46/20 25/42/20
f 1/21/9 23/65/9 18/44/9
f 20/43/21 25/42/21 26/40/21
f 18/44/22 23/65/22 24/46/22
f 27/47/23 26/50/23 4/6/23
f 24/48/24 2/9/24 3/4/24
f 25/49/25 3/4/25 4/6/25
f 23/51/42 1/7/42 2/9/42
f 13/17/1 17/1/1 5/3/1
f 31/52/43 32/53/43 36/39/43
f 31/52/44 33/55/44 35/33/44
f 30/54/45 14/56/45 33/55/45
f 18/34/46 35/33/46 33/55/46
f 19/32/47 20/37/47 36/39/47
f 30/54/48 31/52/48 34/38/48
f 37/58/49 38/27/49 42/26/49
f 37/58/34 39/30/34 41/29/34
f 29/60/50 37/58/50 40/59/50
f 11/61/36 40/59/36 42/26/36
f 30/25/51 38/27/51 41/29/51
f 29/60/52 28/28/52 39/30/52
v 0.707129 2.134777 -0.887340
v 0.719994 2.119451 -0.907863
v 0.726076 2.094109 -0.919796
v 0.723744 2.065541 -0.919940
v 0.713625 2.041401 -0.908257
v 0.718963 2.130092 -0.862752
v 0.740491 2.111337 -0.865276
v 0.749744 2.084739 -0.870620
v 0.744242 2.057426 -0.877352
v 0.725459 2.036716 -0.883669
v 0.718346 2.072700 -0.826626
v 0.717050 2.047000 -0.839252
v 0.709760 2.030697 -0.861672
v 0.675731 2.122737 -0.843346
v 0.663280 2.070030 -0.831808
v 0.669362 2.044688 -0.843740
v 0.682227 2.029362 -0.864263
v 0.663897 2.127422 -0.867934
v 0.645114 2.106712 -0.874251
v 0.639612 2.079399 -0.880984
v 0.648864 2.052802 -0.886328
v 0.670393 2.034046 -0.888851
v 0.679596 2.133442 -0.889931
v 0.672305 2.117139 -0.912351
v 0.671009 2.091439 -0.924978
v 0.676056 2.063228 -0.924428
v 0.686092 2.040066 -0.910848
v 0.703264 2.124073 -0.840755
v 0.713300 2.100910 -0.827176
v 0.665611 2.098598 -0.831663
v 0.618174 2.115279 -0.830451
v 0.616502 2.115941 -0.833925
v 0.651600 2.125890 -0.839003
v 0.635208 2.084861 -0.834679
v 0.645742 2.128209 -0.851174
v 0.626122 2.088458 -0.853557
v 0.690521 2.110055 -0.785408
v 0.679234 2.109508 -0.786470
v 0.689000 2.118948 -0.801793
v 0.690500 2.091399 -0.798973
v 0.683827 2.118697 -0.802280
v 0.685312 2.091148 -0.799461
vt 0.274240 0.539347
vt 0.265397 0.539709
vt 0.266768 0.532487
vt 0.231414 0.551290
vt 0.214659 0.541092
vt 0.231357 0.542861
vt 0.231940 0.569242
vt 0.215985 0.562822
vt 0.231472 0.559719
vt 0.230890 0.533338
vt 0.220414 0.530957
vt 0.213134 0.552274
vt 0.289666 0.544440
vt 0.282983 0.540904
vt 0.290637 0.536818
vt 0.279682 0.529141
vt 0.275518 0.536619
vt 0.273707 0.532162
vt 0.280945 0.538772
vt 0.286431 0.530872
vt 0.290637 0.551375
vt 0.284312 0.543753
vt 0.278488 0.537315
vt 0.276318 0.541045
vt 0.804698 0.251197
vt 0.792375 0.255919
vt 0.792638 0.252041
vt 0.786357 0.239035
vt 0.792578 0.249274
vt 0.791489 0.249454
vt 0.271776 0.541127
vt 0.760733 0.199751
vt 0.757502 0.209505
vt 0.750621 0.206121
vt 0.278108 0.542645
vt 0.273009 0.544115
vt 0.772804 0.201934
vt 0.766718 0.213101
vt 0.766203 0.208706
vt 0.264007 0.548518
vt 0.277612 0.547903
vt 0.268747 0.555467
vt 0.275021 0.546378
vt 0.280714 0.548498
vt 0.281954 0.545638
vt 0.276612 0.557409
vt 0.240880 0.530957
vt 0.248168 0.561486
vt 0.249693 0.550306
vt 0.246843 0.539760
vt 0.242415 0.571620
vt 0.762287 0.211045
vt 0.762255 0.210544
vt 0.761023 0.221925
vt 0.757316 0.212491
vt 0.750922 0.216572
vt 0.772804 0.220841
vt 0.791613 0.252007
vt 0.791097 0.255536
vt 0.780068 0.250772
vt 0.780487 0.263708
vt 0.804698 0.264828
vt 0.798786 0.238814
vt 0.221949 0.571626
vt 0.283377 0.553479
vn 0.0677 -0.9736 -0.2181
vn 0.8935 -0.0707 -0.4435
vn 0.6371 0.7533 -0.1631
vn 0.7258 -0.5214 -0.4487
vn 0.8629 0.3695 -0.3449
vn 0.5762 0.5846 0.5712
vn 0.6649 -0.6902 0.2857
vn 0.7844 0.1520 0.6014
vn -0.0677 0.9736 0.2181
vn 0.8150 -0.2881 0.5028
vn -0.0166 -0.8061 0.5916
vn -0.7803 -0.5122 0.3589
vn -0.0632 -0.4375 0.8970
vn -0.0584 0.9923 0.1092
vn -0.6371 -0.7533 0.1631
vn -0.5076 0.6373 -0.5798
vn -0.8629 -0.3695 0.3449
vn -0.4710 -0.8801 0.0590
vn -0.5762 -0.5846 -0.5712
vn -0.8150 0.2881 -0.5028
vn -0.7844 -0.1520 -0.6014
vn -0.6649 0.6902 -0.2857
vn 0.1053 -0.4686 -0.8771
vn 0.0632 0.4375 -0.8970
vn 0.0938 -0.0026 -0.9956
vn 0.0166 0.8061 -0.5916
vn -0.8148 -0.4976 0.2974
vn -0.2230 0.9322 0.2849
vn 0.1373 0.3224 0.9366
vn 0.1491 0.9821 0.1154
vn -0.7903 0.1481 -0.5946
vn -0.1001 0.0031 0.9950
vn -0.0476 -0.5874 0.8079
vn -0.0876 0.8721 0.4814
vn 0.7447 0.1459 0.6512
vn -0.0115 -0.8337 0.5521
vn -0.8592 0.4643 0.2151
vn 0.7386 0.6189 0.2673
vn -0.8443 0.0662 0.5318
vn -0.0584 0.9923 0.1091
vn -0.5773 0.6053 -0.5481
vn -0.5762 -0.5845 -0.5712
vn -0.8148 -0.4976 0.2973
vn -0.2230 0.9322 0.2850
vn 0.2102 0.3531 0.9117
vn 0.1491 0.9821 0.1153
vn -0.8184 0.2875 -0.4975
vn -0.0287 -0.1533 0.9878
vn -0.0475 -0.5874 0.8079
vn 0.7797 -0.3688 0.5060
vn -0.8074 0.5810 0.1031
vn 0.7663 0.5380 0.3513
s off
f 59/66/53 69/67/53 47/68/53
f 45/69/54 51/70/54 46/71/54
f 43/72/55 49/73/55 44/74/55
f 47/75/56 51/70/56 52/76/56
f 44/74/57 50/77/57 45/69/57
f 48/78/58 71/79/58 49/80/58
f 51/81/59 55/82/59 52/83/59
f 49/80/60 53/84/60 50/85/60
f 43/86/61 70/87/61 48/78/61
f 50/85/62 54/88/62 51/81/62
f 55/82/63 58/89/63 59/66/63
f 72/90/64 84/91/64 80/92/64
f 53/84/65 58/89/65 54/88/65
f 70/93/66 83/94/66 81/95/66
f 58/89/67 64/96/67 59/66/67
f 61/97/68 77/98/68 60/99/68
f 57/100/69 63/101/69 58/89/69
f 62/102/70 76/103/70 78/104/70
f 64/96/71 68/105/71 69/67/71
f 61/106/72 67/107/72 62/108/72
f 43/86/61 60/109/61 56/110/61
f 62/108/73 68/105/73 63/101/73
f 60/109/74 66/111/74 61/106/74
f 69/112/75 46/71/75 47/75/75
f 66/113/76 45/69/76 67/114/76
f 67/114/77 46/71/77 68/115/77
f 65/116/78 44/74/78 66/113/78
f 55/82/53 47/68/53 52/83/53
f 73/117/79 78/104/79 76/103/79
f 73/117/80 77/98/80 74/118/80
f 72/119/81 75/120/81 73/117/81
f 60/99/82 75/120/82 56/121/82
f 61/97/83 78/104/83 74/118/83
f 72/119/84 76/103/84 57/122/84
f 79/123/85 84/91/85 82/124/85
f 79/123/86 83/94/86 80/92/86
f 71/125/87 82/124/87 53/126/87
f 53/126/88 84/91/88 57/127/88
f 72/90/89 83/94/89 56/128/89
f 71/125/90 81/95/90 79/123/90
f 59/66/53 64/96/53 69/67/53
f 45/69/54 50/77/54 51/70/54
f 43/72/55 48/129/55 49/73/55
f 47/75/56 46/71/56 51/70/56
f 44/74/57 49/73/57 50/77/57
f 48/78/58 70/87/58 71/79/58
f 51/81/59 54/88/59 55/82/59
f 49/80/60 71/79/60 53/84/60
f 43/86/61 56/110/61 70/87/61
f 50/85/62 53/84/62 54/88/62
f 55/82/63 54/88/63 58/89/63
f 72/90/91 57/127/91 84/91/91
f 53/84/65 57/100/65 58/89/65
f 70/93/92 56/128/92 83/94/92
f 58/89/67 63/101/67 64/96/67
f 61/97/93 74/118/93 77/98/93
f 57/100/69 62/108/69 63/101/69
f 62/102/70 57/122/70 76/103/70
f 64/96/94 63/101/94 68/105/94
f 61/106/72 66/111/72 67/107/72
f 43/86/61 65/130/61 60/109/61
f 62/108/73 67/107/73 68/105/73
f 60/109/74 65/130/74 66/111/74
f 69/112/75 68/115/75 46/71/75
f 66/113/76 44/74/76 45/69/76
f 67/114/77 45/69/77 46/71/77
f 65/116/78 43/72/78 44/74/78
f 55/82/53 59/66/53 47/68/53
f 73/117/95 74/118/95 78/104/95
f 73/117/96 75/120/96 77/98/96
f 72/119/97 56/121/97 75/120/97
f 60/99/98 77/98/98 75/120/98
f 61/97/99 62/102/99 78/104/99
f 72/119/100 73/117/100 76/103/100
f 79/123/101 80/92/101 84/91/101
f 79/123/86 81/95/86 83/94/86
f 71/125/102 79/123/102 82/124/102
f 53/126/88 82/124/88 84/91/88
f 72/90/103 80/92/103 83/94/103
f 71/125/104 70/93/104 81/95/104
