# Blender v2.81 (sub 16) OBJ File: 'garbage.blend'
# www.blender.org
v 1.159706 2.324910 -1.163024
v 1.169181 2.298137 -1.159144
v 1.163879 2.270161 -1.155857
v 1.145221 2.248477 -1.154042
v 1.118206 2.238896 -1.154186
v 1.146047 2.333800 -1.140641
v 1.145523 2.313534 -1.120377
v 1.136562 2.287940 -1.111092
v 1.121563 2.263874 -1.115274
v 1.104548 2.247786 -1.131803
v 1.086716 2.311424 -1.116588
v 1.078396 2.284212 -1.120034
v 1.079625 2.259528 -1.134551
v 1.109861 2.348394 -1.168520
v 1.064188 2.317129 -1.166849
v 1.058887 2.289153 -1.163561
v 1.068361 2.262380 -1.159682
v 1.123519 2.339505 -1.190902
v 1.106504 2.323416 -1.207432
v 1.091506 2.299350 -1.211614
v 1.082544 2.273756 -1.202329
v 1.082020 2.253491 -1.182065
v 1.148442 2.327763 -1.188154
v 1.149671 2.303078 -1.202672
v 1.141351 2.275866 -1.206118
v 1.125711 2.253418 -1.197569
v 1.106942 2.241748 -1.179317
v 1.121125 2.345542 -1.143389
v 1.102356 2.333873 -1.125136
v 1.082846 2.338813 -1.168664
v 1.071532 2.361811 -1.211943
v 1.073462 2.360555 -1.215106
v 1.098378 2.358226 -1.188079
v 1.062900 2.332402 -1.194801
v 1.105139 2.353826 -1.199159
v 1.073387 2.325576 -1.211987
v 1.070894 2.370664 -1.127022
v 1.066276 2.371833 -1.137325
v 1.086377 2.367936 -1.137155
v 1.068114 2.348072 -1.130753
v 1.084261 2.368472 -1.141877
v 1.065991 2.348609 -1.135489
vt 0.274240 0.539347
vt 0.265397 0.539709
vt 0.266768 0.532487
vt 0.231414 0.551290
vt 0.214659 0.541092
vt 0.231357 0.542861
vt 0.231940 0.569242
vt 0.215985 0.562822
vt 0.231472 0.559719
vt 0.230890 0.533338
vt 0.220414 0.530957
vt 0.213134 0.552274
vt 0.289666 0.544440
vt 0.282983 0.540904
vt 0.290637 0.536818
vt 0.279682 0.529141
vt 0.275518 0.536619
vt 0.273707 0.532162
vt 0.280945 0.538772
vt 0.286431 0.530872
vt 0.290637 0.551375
vt 0.284312 0.543753
vt 0.278488 0.537315
vt 0.276318 0.541045
vt 0.804698 0.251197
vt 0.792375 0.255919
vt 0.792638 0.252041
vt 0.786357 0.239035
vt 0.792578 0.249274
vt 0.791489 0.249454
vt 0.271776 0.541127
vt 0.760733 0.199751
vt 0.757502 0.209505
vt 0.750621 0.206121
vt 0.278108 0.542645
vt 0.273009 0.544115
vt 0.772804 0.201934
vt 0.766718 0.213101
vt 0.766203 0.208706
vt 0.264007 0.548518
vt 0.277612 0.547903
vt 0.268747 0.555467
vt 0.275021 0.546378
vt 0.280714 0.548498
vt 0.281954 0.545638
vt 0.276612 0.557409
vt 0.240880 0.530957
vt 0.248168 0.561486
vt 0.249693 0.550306
vt 0.246843 0.539760
vt 0.242415 0.571620
vt 0.762287 0.211045
vt 0.762255 0.210544
vt 0.761023 0.221925
vt 0.757316 0.212491
vt 0.750922 0.216572
vt 0.772804 0.220841
vt 0.791613 0.252007
vt 0.791097 0.255536
vt 0.780068 0.250772
vt 0.780487 0.263708
vt 0.804698 0.264828
vt 0.798786 0.238814
vt 0.221949 0.571626
vt 0.283377 0.553479
vn -0.4327 -0.8968 0.0921
vn 0.6373 -0.4992 0.5871
vn 0.8537 0.3570 0.3791
vn 0.2872 -0.8172 0.4998
vn 0.8329 -0.0937 0.5455
vn 0.2455 0.6823 0.6886
vn -0.3210 -0.4919 0.8093
vn 0.0492 0.3254 0.9443
vn 0.4327 0.8968 -0.0921
vn -0.1465 -0.0801 0.9860
vn -0.8914 -0.2619 0.3698
vn -0.8942 -0.0244 -0.4471
vn -0.8815 0.2164 0.4197
vn 0.5192 0.8436 -0.1369
vn -0.8537 -0.3570 -0.3791
vn 0.5483 0.2423 -0.8004
vn -0.8329 0.0937 -0.5455
vn -0.7917 -0.5507 -0.2644
vn -0.2455 -0.6823 -0.6886
vn 0.1464 0.0801 -0.9860
vn -0.0492 -0.3254 -0.9443
vn 0.3210 0.4919 -0.8093
vn 0.3249 -0.9123 -0.2492
vn 0.8815 -0.2164 -0.4197
vn 0.6859 -0.6218 -0.3780
vn 0.8914 0.2619 -0.3698
vn -0.4327 -0.8968 0.0922
vn -0.8604 -0.0434 -0.5078
vn 0.2953 0.9360 -0.1917
vn -0.3475 0.7873 0.5092
vn 0.6001 0.7984 0.0491
vn 0.1301 -0.0883 -0.9876
vn -0.6879 0.6231 0.3722
vn -0.9098 0.0438 0.4127
vn 0.1901 0.9814 0.0263
vn -0.0044 0.3586 0.9335
vn -0.8807 -0.3080 0.3598
vn -0.2297 0.6584 -0.7168
vn 0.5356 0.4931 0.6856
vn 0.8537 0.3571 0.3791
vn 0.2455 0.6823 0.6887
vn -0.1464 -0.0801 0.9860
vn -0.6757 0.5393 -0.5026
vn 0.5191 0.8437 -0.1369
vn 0.4773 0.2506 -0.8423
vn 0.1465 0.0801 -0.9860
vn 0.4327 0.8968 -0.0922
vn 0.2953 0.9360 -0.1915
vn -0.2802 0.7816 0.5573
vn 0.6001 0.7984 0.0490
vn 0.1411 0.0835 -0.9865
vn -0.7489 0.4838 0.4529
vn -0.9098 0.0438 0.4128
vn 0.1901 0.9814 0.0262
vn -0.2141 -0.1335 0.9677
vn -0.0618 0.6706 -0.7392
vn 0.4430 0.4759 0.7598
s off
f 17/1/1 27/2/1 5/3/1
f 3/4/2 9/5/2 4/6/2
f 1/7/3 7/8/3 2/9/3
f 5/10/4 9/5/4 10/11/4
f 2/9/5 8/12/5 3/4/5
f 6/13/6 29/14/6 7/15/6
f 9/16/7 13/17/7 10/18/7
f 7/15/8 11/19/8 8/20/8
f 1/21/9 28/22/9 6/13/9
f 8/20/10 12/23/10 9/16/10
f 13/17/11 16/24/11 17/1/11
f 30/25/12 42/26/12 38/27/12
f 11/19/13 16/24/13 12/23/13
f 28/28/14 41/29/14 39/30/14
f 16/24/15 22/31/15 17/1/15
f 19/32/16 35/33/16 18/34/16
f 15/35/17 21/36/17 16/24/17
f 20/37/18 34/38/18 36/39/18
f 22/31/19 26/40/19 27/2/19
f 19/41/20 25/42/20 20/43/20
f 1/21/9 18/44/9 14/45/9
f 20/43/21 26/40/21 21/36/21
f 18/44/22 24/46/22 19/41/22
f 27/47/23 4/6/23 5/10/23
f 24/48/24 3/4/24 25/49/24
f 25/49/25 4/6/25 26/50/25
f 23/51/26 2/9/26 24/48/26
f 13/17/27 5/3/27 10/18/27
f 31/52/28 36/39/28 34/38/28
f 31/52/29 35/33/29 32/53/29
f 30/54/30 33/55/30 31/52/30
f 18/34/31 33/55/31 14/56/31
f 19/32/32 36/39/32 32/53/32
f 30/54/33 34/38/33 15/57/33
f 37/58/34 42/26/34 40/59/34
f 37/58/35 41/29/35 38/27/35
f 29/60/36 40/59/36 11/61/36
f 11/61/37 42/26/37 15/62/37
f 30/25/38 41/29/38 14/63/38
f 29/60/39 39/30/39 37/58/39
f 17/1/1 22/31/1 27/2/1
f 3/4/2 8/12/2 9/5/2
f 1/7/40 6/64/40 7/8/40
f 5/10/4 4/6/4 9/5/4
f 2/9/5 7/8/5 8/12/5
f 6/13/41 28/22/41 29/14/41
f 9/16/7 12/23/7 13/17/7
f 7/15/8 29/14/8 11/19/8
f 1/21/9 14/45/9 28/22/9
f 8/20/42 11/19/42 12/23/42
f 13/17/11 12/23/11 16/24/11
f 30/25/43 15/62/43 42/26/43
f 11/19/13 15/35/13 16/24/13
f 28/28/44 14/63/44 41/29/44
f 16/24/15 21/36/15 22/31/15
f 19/32/45 32/53/45 35/33/45
f 15/35/17 20/43/17 21/36/17
f 20/37/18 15/57/18 34/38/18
f 22/31/19 21/36/19 26/40/19
f 19/41/46 24/46/46 25/42/46
f 1/21/47 23/65/47 18/44/47
f 20/43/21 25/42/21 26/40/21
f 18/44/22 23/65/22 24/46/22
f 27/47/23 26/50/23 4/6/23
f 24/48/24 2/9/24 3/4/24
f 25/49/25 3/4/25 4/6/25
f 23/51/26 1/7/26 2/9/26
f 13/17/1 17/1/1 5/3/1
f 31/52/28 32/53/28 36/39/28
f 31/52/48 33/55/48 35/33/48
f 30/54/49 14/56/49 33/55/49
f 18/34/50 35/33/50 33/55/50
f 19/32/51 20/37/51 36/39/51
f 30/54/52 31/52/52 34/38/52
f 37/58/53 38/27/53 42/26/53
f 37/58/54 39/30/54 41/29/54
f 29/60/55 37/58/55 40/59/55
f 11/61/37 40/59/37 42/26/37
f 30/25/56 38/27/56 41/29/56
f 29/60/57 28/28/57 39/30/57
v 1.505041 2.129252 -0.494888
v 1.482708 2.112020 -0.489799
v 1.472303 2.086025 -0.483669
v 1.476613 2.058231 -0.478140
v 1.494485 2.036088 -0.474694
v 1.517215 2.122674 -0.518869
v 1.503794 2.100627 -0.531335
v 1.496651 2.072870 -0.531631
v 1.497699 2.046839 -0.519677
v 1.506659 2.029510 -0.498676
v 1.551571 2.066160 -0.533876
v 1.545261 2.041028 -0.521621
v 1.534119 2.026155 -0.499798
v 1.559961 2.122542 -0.497133
v 1.582142 2.072605 -0.488159
v 1.571737 2.046610 -0.482029
v 1.549404 2.029378 -0.476939
v 1.547787 2.129120 -0.473152
v 1.556746 2.111791 -0.452151
v 1.557794 2.085760 -0.440196
v 1.550651 2.058002 -0.440492
v 1.537230 2.035956 -0.452958
v 1.520327 2.132474 -0.472029
v 1.509184 2.117601 -0.450207
v 1.502875 2.092470 -0.437952
v 1.503089 2.063813 -0.438548
v 1.509770 2.039310 -0.451836
v 1.544675 2.119320 -0.519992
v 1.551356 2.094817 -0.533280
v 1.577832 2.100399 -0.493687
v 1.606596 2.124671 -0.460318
v 1.604875 2.125600 -0.456929
v 1.578035 2.129629 -0.481830
v 1.595867 2.091862 -0.466779
v 1.572009 2.132885 -0.469959
v 1.586519 2.096912 -0.448367
v 1.596977 2.107581 -0.543419
v 1.603244 2.108902 -0.534048
v 1.584299 2.116607 -0.533043
v 1.588414 2.089187 -0.532447
v 1.587171 2.117212 -0.528748
v 1.591295 2.089795 -0.528139
vt 0.274240 0.539347
vt 0.265397 0.539709
vt 0.266768 0.532487
vt 0.231414 0.551290
vt 0.214659 0.541092
vt 0.231357 0.542861
vt 0.231940 0.569242
vt 0.215985 0.562822
vt 0.231472 0.559719
vt 0.230890 0.533338
vt 0.220414 0.530957
vt 0.213134 0.552274
vt 0.289666 0.544440
vt 0.282983 0.540904
vt 0.290637 0.536818
vt 0.279682 0.529141
vt 0.275518 0.536619
vt 0.273707 0.532162
vt 0.280945 0.538772
vt 0.286431 0.530872
vt 0.290637 0.551375
vt 0.284312 0.543753
vt 0.278488 0.537315
vt 0.276318 0.541045
vt 0.804698 0.251197
vt 0.792375 0.255919
vt 0.792638 0.252041
vt 0.786357 0.239035
vt 0.792578 0.249274
vt 0.791489 0.249454
vt 0.271776 0.541127
vt 0.760733 0.199751
vt 0.757502 0.209505
vt 0.750621 0.206121
vt 0.278108 0.542645
vt 0.273009 0.544115
vt 0.772804 0.201934
vt 0.766718 0.213101
vt 0.766203 0.208706
vt 0.264007 0.548518
vt 0.277612 0.547903
vt 0.268747 0.555467
vt 0.275021 0.546378
vt 0.280714 0.548498
vt 0.281954 0.545638
vt 0.276612 0.557409
vt 0.240880 0.530957
vt 0.248168 0.561486
vt 0.249693 0.550306
vt 0.246843 0.539760
vt 0.242415 0.571620
vt 0.762287 0.211045
vt 0.762255 0.210544
vt 0.761023 0.221925
vt 0.757316 0.212491
vt 0.750922 0.216572
vt 0.772804 0.220841
vt 0.791613 0.252007
vt 0.791097 0.255536
vt 0.780068 0.250772
vt 0.780487 0.263708
vt 0.804698 0.264828
vt 0.798786 0.238814
vt 0.221949 0.571626
vt 0.283377 0.553479
vn -0.1101 -0.9714 0.2105
vn -0.8932 -0.2169 -0.3939
vn -0.6018 0.6380 -0.4805
vn -0.7459 -0.6338 -0.2048
vn -0.8434 0.2223 -0.4891
vn 0.0230 0.4814 -0.8762
vn -0.1211 -0.7904 -0.6005
vn -0.0383 0.0205 -0.9991
vn 0.1101 0.9714 -0.2105
vn -0.0881 -0.4186 -0.9039
vn 0.5527 -0.7925 -0.2579
vn 0.8176 -0.3767 0.4354
vn 0.7802 -0.4213 -0.4623
vn 0.0179 0.9883 -0.1512
vn 0.6018 -0.6380 0.4805
vn -0.1994 0.7124 0.6729
vn 0.8434 -0.2223 0.4891
vn 0.4307 -0.7905 0.4355
vn -0.0230 -0.4814 0.8762
vn 0.0881 0.4186 0.9039
vn 0.1101 0.9714 -0.2106
vn 0.0383 -0.0205 0.9991
vn 0.1211 0.7904 0.6005
vn -0.6968 -0.4794 0.5336
vn -0.7802 0.4213 0.4623
vn -0.8300 -0.0178 0.5575
vn -0.5527 0.7925 0.2579
vn -0.1101 -0.9714 0.2106
vn 0.7900 -0.3566 0.4988
vn 0.2630 0.9562 -0.1286
vn 0.6070 0.2951 -0.7379
vn -0.1056 0.9440 -0.3125
vn 0.0161 0.2765 0.9609
vn 0.8334 0.0194 -0.5524
vn 0.7170 -0.5717 -0.3989
vn 0.3371 0.8745 -0.3487
vn 0.0257 0.0210 -0.9995
vn 0.5219 -0.8205 -0.2333
vn 0.6538 0.5995 0.4617
vn -0.3173 0.4886 -0.8128
vn 0.9314 0.2044 0.3011
vn 0.0178 0.9883 -0.1513
vn -0.1281 0.6923 0.7102
vn 0.8434 -0.2222 0.4891
vn -0.6968 -0.4793 0.5335
vn 0.7899 -0.3566 0.4989
vn 0.2630 0.9562 -0.1288
vn 0.5390 0.3134 -0.7818
vn 0.0944 0.4186 0.9032
vn 0.7995 -0.1468 -0.5824
vn 0.7170 -0.5717 -0.3988
vn -0.0553 -0.4924 -0.8686
vn 0.5219 -0.8205 -0.2334
vn 0.5226 0.7061 0.4778
vn -0.2611 0.4042 -0.8766
s off
f 59/66/58 69/67/58 47/68/58
f 45/69/59 51/70/59 46/71/59
f 43/72/60 49/73/60 44/74/60
f 47/75/61 51/70/61 52/76/61
f 44/74/62 50/77/62 45/69/62
f 48/78/63 71/79/63 49/80/63
f 51/81/64 55/82/64 52/83/64
f 49/80/65 53/84/65 50/85/65
f 43/86/66 70/87/66 48/78/66
f 50/85/67 54/88/67 51/81/67
f 55/82/68 58/89/68 59/66/68
f 72/90/69 84/91/69 80/92/69
f 53/84/70 58/89/70 54/88/70
f 70/93/71 83/94/71 81/95/71
f 58/89/72 64/96/72 59/66/72
f 61/97/73 77/98/73 60/99/73
f 57/100/74 63/101/74 58/89/74
f 62/102/75 76/103/75 78/104/75
f 64/96/76 68/105/76 69/67/76
f 61/106/77 67/107/77 62/108/77
f 43/86/78 60/109/78 56/110/78
f 62/108/79 68/105/79 63/101/79
f 60/109/80 66/111/80 61/106/80
f 69/112/81 46/71/81 47/75/81
f 66/113/82 45/69/82 67/114/82
f 67/114/83 46/71/83 68/115/83
f 65/116/84 44/74/84 66/113/84
f 55/82/85 47/68/85 52/83/85
f 73/117/86 78/104/86 76/103/86
f 73/117/87 77/98/87 74/118/87
f 72/119/88 75/120/88 73/117/88
f 60/99/89 75/120/89 56/121/89
f 61/97/90 78/104/90 74/118/90
f 72/119/91 76/103/91 57/122/91
f 79/123/92 84/91/92 82/124/92
f 79/123/93 83/94/93 80/92/93
f 71/125/94 82/124/94 53/126/94
f 53/126/95 84/91/95 57/127/95
f 72/90/96 83/94/96 56/128/96
f 71/125/97 81/95/97 79/123/97
f 59/66/85 64/96/85 69/67/85
f 45/69/59 50/77/59 51/70/59
f 43/72/60 48/129/60 49/73/60
f 47/75/61 46/71/61 51/70/61
f 44/74/62 49/73/62 50/77/62
f 48/78/63 70/87/63 71/79/63
f 51/81/64 54/88/64 55/82/64
f 49/80/65 71/79/65 53/84/65
f 43/86/66 56/110/66 70/87/66
f 50/85/67 53/84/67 54/88/67
f 55/82/68 54/88/68 58/89/68
f 72/90/98 57/127/98 84/91/98
f 53/84/70 57/100/70 58/89/70
f 70/93/99 56/128/99 83/94/99
f 58/89/72 63/101/72 64/96/72
f 61/97/100 74/118/100 77/98/100
f 57/100/101 62/108/101 63/101/101
f 62/102/75 57/122/75 76/103/75
f 64/96/76 63/101/76 68/105/76
f 61/106/77 66/111/77 67/107/77
f 43/86/66 65/130/66 60/109/66
f 62/108/79 67/107/79 68/105/79
f 60/109/80 65/130/80 66/111/80
f 69/112/102 68/115/102 46/71/102
f 66/113/82 44/74/82 45/69/82
f 67/114/83 45/69/83 46/71/83
f 65/116/84 43/72/84 44/74/84
f 55/82/58 59/66/58 47/68/58
f 73/117/103 74/118/103 78/104/103
f 73/117/104 75/120/104 77/98/104
f 72/119/105 56/121/105 75/120/105
f 60/99/89 77/98/89 75/120/89
f 61/97/106 62/102/106 78/104/106
f 72/119/107 73/117/107 76/103/107
f 79/123/108 80/92/108 84/91/108
f 79/123/93 81/95/93 83/94/93
f 71/125/109 79/123/109 82/124/109
f 53/126/110 82/124/110 84/91/110
f 72/90/111 80/92/111 83/94/111
f 71/125/112 70/93/112 81/95/112
