# Blender v2.81 (sub 16) OBJ File: 'garbage.blend'
# www.blender.org
v 2.102156 2.195533 -0.463702
v 2.108692 2.180313 -0.440309
v 2.108133 2.155584 -0.425826
v 2.100630 2.127971 -0.424134
v 2.088192 2.104875 -0.435687
v 2.074777 2.199131 -0.465705
v 2.061270 2.186545 -0.443779
v 2.053375 2.162780 -0.429834
v 2.053208 2.134203 -0.427605
v 2.060813 2.108473 -0.437690
v 2.027457 2.152021 -0.477569
v 2.030762 2.124886 -0.468945
v 2.047853 2.103094 -0.461558
v 2.076237 2.184774 -0.511438
v 2.056296 2.134066 -0.521298
v 2.055737 2.109336 -0.506815
v 2.062273 2.094116 -0.483423
v 2.103616 2.181176 -0.509434
v 2.111221 2.155446 -0.519519
v 2.111053 2.126870 -0.517291
v 2.103159 2.103105 -0.503345
v 2.089652 2.090518 -0.481419
v 2.116575 2.186556 -0.485566
v 2.133667 2.164764 -0.478179
v 2.136972 2.137629 -0.469555
v 2.125605 2.112422 -0.462005
v 2.102611 2.095898 -0.457551
v 2.061817 2.193752 -0.489573
v 2.038824 2.177227 -0.485120
v 2.063799 2.161678 -0.522990
v 2.089685 2.165270 -0.565966
v 2.093554 2.164762 -0.565683
v 2.084674 2.182314 -0.534543
v 2.076118 2.140155 -0.545510
v 2.098227 2.180533 -0.533551
v 2.097139 2.137393 -0.543972
v 2.017246 2.188277 -0.527064
v 2.023157 2.184597 -0.536027
v 2.034319 2.192992 -0.521054
v 2.022891 2.167939 -0.517763
v 2.037029 2.191306 -0.525162
v 2.025608 2.166247 -0.521883
vt 0.274240 0.539347
vt 0.265397 0.539709
vt 0.266768 0.532487
vt 0.231414 0.551290
vt 0.214659 0.541092
vt 0.231357 0.542861
vt 0.231940 0.569242
vt 0.215985 0.562822
vt 0.231472 0.559719
vt 0.230890 0.533338
vt 0.220414 0.530957
vt 0.213134 0.552274
vt 0.289666 0.544440
vt 0.282983 0.540904
vt 0.290637 0.536818
vt 0.279682 0.529141
vt 0.275518 0.536619
vt 0.273707 0.532162
vt 0.280945 0.538772
vt 0.286431 0.530872
vt 0.290637 0.551375
vt 0.284312 0.543753
vt 0.278488 0.537315
vt 0.276318 0.541045
vt 0.804698 0.251197
vt 0.792375 0.255919
vt 0.792638 0.252041
vt 0.786357 0.239035
vt 0.792578 0.249274
vt 0.791489 0.249454
vt 0.271776 0.541127
vt 0.760733 0.199751
vt 0.757502 0.209505
vt 0.750621 0.206121
vt 0.278108 0.542645
vt 0.273009 0.544115
vt 0.772804 0.201934
vt 0.766718 0.213101
vt 0.766203 0.208706
vt 0.264007 0.548518
vt 0.277612 0.547903
vt 0.268747 0.555467
vt 0.275021 0.546378
vt 0.280714 0.548498
vt 0.281954 0.545638
vt 0.276612 0.557409
vt 0.240880 0.530957
vt 0.248168 0.561486
vt 0.249693 0.550306
vt 0.246843 0.539760
vt 0.242415 0.571620
vt 0.762287 0.211045
vt 0.762255 0.210544
vt 0.761023 0.221925
vt 0.757316 0.212491
vt 0.750922 0.216572
vt 0.772804 0.220841
vt 0.791613 0.252007
vt 0.791097 0.255536
vt 0.780068 0.250772
vt 0.780487 0.263708
vt 0.804698 0.264828
vt 0.798786 0.238814
vt 0.221949 0.571626
vt 0.283377 0.553479
vn -0.1456 -0.9452 0.2921
vn -0.0626 0.0780 0.9950
vn 0.0723 0.8451 0.5297
vn -0.1183 -0.3925 0.9121
vn 0.0033 0.5053 0.8629
vn -0.5636 0.8170 0.1218
vn -0.7542 -0.4206 0.5043
vn -0.8161 0.4691 0.3374
vn 0.1456 0.9452 -0.2921
vn -0.8820 0.0418 0.4695
vn -0.7312 -0.6469 -0.2166
vn -0.0963 -0.6157 -0.7821
vn -0.8523 -0.2499 -0.4595
vn 0.2379 0.9435 -0.2306
vn -0.0723 -0.8451 -0.5297
vn 0.9111 0.3528 -0.2130
vn -0.0032 -0.5053 -0.8629
vn -0.1005 -0.9423 -0.3193
vn 0.5636 -0.8170 -0.1218
vn 0.8820 -0.0418 -0.4695
vn 0.8162 -0.4691 -0.3374
vn 0.7542 0.4206 -0.5043
vn 0.5406 -0.5907 0.5990
vn 0.8523 0.2499 0.4595
vn 0.7865 -0.1775 0.5916
vn 0.7312 0.6469 0.2166
vn -0.0247 -0.6233 -0.7816
vn 0.1487 0.8790 -0.4531
vn -0.7463 0.5280 -0.4054
vn 0.1341 0.9894 -0.0564
vn 0.9046 -0.1859 -0.3837
vn -0.7829 0.1762 -0.5966
vn -0.8308 -0.4051 -0.3816
vn -0.0958 0.8970 -0.4315
vn -0.8414 0.4630 0.2789
vn -0.7090 -0.6795 -0.1886
vn 0.3571 0.2569 -0.8980
vn -0.3743 0.8310 0.4115
vn -0.0351 -0.0516 -0.9981
vn 0.2379 0.9435 -0.2305
vn 0.9070 0.3107 -0.2844
vn -0.0033 -0.5053 -0.8629
vn -0.1005 -0.9423 -0.3192
vn 0.5636 -0.8170 -0.1219
vn 0.8161 -0.4691 -0.3374
vn 0.5405 -0.5907 0.5990
vn 0.1487 0.8790 -0.4530
vn -0.7496 0.5710 -0.3346
vn 0.8790 -0.0422 -0.4750
vn -0.8574 0.0457 -0.5126
vn -0.8930 -0.0430 0.4481
vn -0.7090 -0.6796 -0.1886
vn 0.4622 0.3582 -0.8112
vn -0.4817 0.7787 0.4020
s off
f 17/1/1 27/2/1 5/3/1
f 3/4/2 9/5/2 4/6/2
f 1/7/3 7/8/3 2/9/3
f 5/10/4 9/5/4 10/11/4
f 2/9/5 8/12/5 3/4/5
f 6/13/6 29/14/6 7/15/6
f 9/16/7 13/17/7 10/18/7
f 7/15/8 11/19/8 8/20/8
f 1/21/9 28/22/9 6/13/9
f 8/20/10 12/23/10 9/16/10
f 13/17/11 16/24/11 17/1/11
f 30/25/12 42/26/12 38/27/12
f 11/19/13 16/24/13 12/23/13
f 28/28/14 41/29/14 39/30/14
f 16/24/15 22/31/15 17/1/15
f 19/32/16 35/33/16 18/34/16
f 15/35/17 21/36/17 16/24/17
f 20/37/18 34/38/18 36/39/18
f 22/31/19 26/40/19 27/2/19
f 19/41/20 25/42/20 20/43/20
f 1/21/9 18/44/9 14/45/9
f 20/43/21 26/40/21 21/36/21
f 18/44/22 24/46/22 19/41/22
f 27/47/23 4/6/23 5/10/23
f 24/48/24 3/4/24 25/49/24
f 25/49/25 4/6/25 26/50/25
f 23/51/26 2/9/26 24/48/26
f 13/17/1 5/3/1 10/18/1
f 31/52/27 36/39/27 34/38/27
f 31/52/28 35/33/28 32/53/28
f 30/54/29 33/55/29 31/52/29
f 18/34/30 33/55/30 14/56/30
f 19/32/31 36/39/31 32/53/31
f 30/54/32 34/38/32 15/57/32
f 37/58/33 42/26/33 40/59/33
f 37/58/34 41/29/34 38/27/34
f 29/60/35 40/59/35 11/61/35
f 11/61/36 42/26/36 15/62/36
f 30/25/37 41/29/37 14/63/37
f 29/60/38 39/30/38 37/58/38
f 17/1/1 22/31/1 27/2/1
f 3/4/2 8/12/2 9/5/2
f 1/7/3 6/64/3 7/8/3
f 5/10/4 4/6/4 9/5/4
f 2/9/5 7/8/5 8/12/5
f 6/13/6 28/22/6 29/14/6
f 9/16/7 12/23/7 13/17/7
f 7/15/8 29/14/8 11/19/8
f 1/21/9 14/45/9 28/22/9
f 8/20/10 11/19/10 12/23/10
f 13/17/11 12/23/11 16/24/11
f 30/25/39 15/62/39 42/26/39
f 11/19/13 15/35/13 16/24/13
f 28/28/40 14/63/40 41/29/40
f 16/24/15 21/36/15 22/31/15
f 19/32/41 32/53/41 35/33/41
f 15/35/42 20/43/42 21/36/42
f 20/37/43 15/57/43 34/38/43
f 22/31/44 21/36/44 26/40/44
f 19/41/20 24/46/20 25/42/20
f 1/21/9 23/65/9 18/44/9
f 20/43/45 25/42/45 26/40/45
f 18/44/22 23/65/22 24/46/22
f 27/47/46 26/50/46 4/6/46
f 24/48/24 2/9/24 3/4/24
f 25/49/25 3/4/25 4/6/25
f 23/51/26 1/7/26 2/9/26
f 13/17/1 17/1/1 5/3/1
f 31/52/27 32/53/27 36/39/27
f 31/52/47 33/55/47 35/33/47
f 30/54/48 14/56/48 33/55/48
f 18/34/30 35/33/30 33/55/30
f 19/32/49 20/37/49 36/39/49
f 30/54/50 31/52/50 34/38/50
f 37/58/33 38/27/33 42/26/33
f 37/58/34 39/30/34 41/29/34
f 29/60/51 37/58/51 40/59/51
f 11/61/52 40/59/52 42/26/52
f 30/25/53 38/27/53 41/29/53
f 29/60/54 28/28/54 39/30/54
v 1.071259 1.516217 -0.420819
v 1.063362 1.490544 -0.430826
v 1.065087 1.461947 -0.429924
v 1.075971 1.438088 -0.418353
v 1.093098 1.425360 -0.399215
v 1.097861 1.521229 -0.426631
v 1.109438 1.499225 -0.440893
v 1.118291 1.471971 -0.441548
v 1.122046 1.446769 -0.428420
v 1.119699 1.430372 -0.405027
v 1.152474 1.489654 -0.401735
v 1.151650 1.462082 -0.393941
v 1.136791 1.439213 -0.385121
v 1.105443 1.533900 -0.381006
v 1.133453 1.497313 -0.350298
v 1.135178 1.468715 -0.349395
v 1.127281 1.443043 -0.359402
v 1.078841 1.528888 -0.375194
v 1.076494 1.512491 -0.351801
v 1.080250 1.487289 -0.338673
v 1.089102 1.460034 -0.339328
v 1.100679 1.438031 -0.353590
v 1.061749 1.520047 -0.395100
v 1.046890 1.497177 -0.386280
v 1.046066 1.469606 -0.378486
v 1.059498 1.444721 -0.373807
v 1.083587 1.429189 -0.373496
v 1.114953 1.530071 -0.406725
v 1.139042 1.514539 -0.406414
v 1.122570 1.521172 -0.361868
v 1.103355 1.546618 -0.322967
v 1.099596 1.545909 -0.322145
v 1.101079 1.544073 -0.358903
v 1.116943 1.514890 -0.329448
v 1.087911 1.541592 -0.356026
v 1.096518 1.511042 -0.324986
v 1.165084 1.547257 -0.381953
v 1.161185 1.548827 -0.371410
v 1.146805 1.547397 -0.385916
v 1.160930 1.524950 -0.377810
v 1.145018 1.548116 -0.381084
v 1.159138 1.525671 -0.372964
vt 0.274240 0.539347
vt 0.265397 0.539709
vt 0.266768 0.532487
vt 0.231414 0.551290
vt 0.214659 0.541092
vt 0.231357 0.542861
vt 0.231940 0.569242
vt 0.215985 0.562822
vt 0.231472 0.559719
vt 0.230890 0.533338
vt 0.220414 0.530957
vt 0.213134 0.552274
vt 0.289666 0.544440
vt 0.282983 0.540904
vt 0.290637 0.536818
vt 0.279682 0.529141
vt 0.275518 0.536619
vt 0.273707 0.532162
vt 0.280945 0.538772
vt 0.286431 0.530872
vt 0.290637 0.551375
vt 0.284312 0.543753
vt 0.278488 0.537315
vt 0.276318 0.541045
vt 0.804698 0.251197
vt 0.792375 0.255919
vt 0.792638 0.252041
vt 0.786357 0.239035
vt 0.792578 0.249274
vt 0.791489 0.249454
vt 0.271776 0.541127
vt 0.760733 0.199751
vt 0.757502 0.209505
vt 0.750621 0.206121
vt 0.278108 0.542645
vt 0.273009 0.544115
vt 0.772804 0.201934
vt 0.766718 0.213101
vt 0.766203 0.208706
vt 0.264007 0.548518
vt 0.277612 0.547903
vt 0.268747 0.555467
vt 0.275021 0.546378
vt 0.280714 0.548498
vt 0.281954 0.545638
vt 0.276612 0.557409
vt 0.240880 0.530957
vt 0.248168 0.561486
vt 0.249693 0.550306
vt 0.246843 0.539760
vt 0.242415 0.571620
vt 0.762287 0.211045
vt 0.762255 0.210544
vt 0.761023 0.221925
vt 0.757316 0.212491
vt 0.750922 0.216572
vt 0.772804 0.220841
vt 0.791613 0.252007
vt 0.791097 0.255536
vt 0.780068 0.250772
vt 0.780487 0.263708
vt 0.804698 0.264828
vt 0.798786 0.238814
vt 0.221949 0.571626
vt 0.283377 0.553479
vn 0.2277 -0.9473 0.2253
vn -0.1025 -0.4715 -0.8759
vn -0.2686 0.4204 -0.8667
vn 0.0296 -0.8199 -0.5717
vn -0.2055 -0.0433 -0.9777
vn 0.4202 0.6388 -0.6445
vn 0.7183 -0.6015 -0.3496
vn 0.6821 0.2382 -0.6914
vn -0.2277 0.9473 -0.2252
vn 0.7850 -0.1901 -0.5896
vn 0.8378 -0.4018 0.3696
vn 0.2993 -0.0902 0.9499
vn 0.9390 0.0673 0.3372
vn -0.3272 0.9095 -0.2564
vn 0.2686 -0.4204 0.8667
vn -0.9073 0.3816 0.1765
vn 0.2055 0.0433 0.9777
vn 0.2772 -0.6152 0.7381
vn -0.4202 -0.6388 0.6445
vn -0.7850 0.1901 0.5896
vn -0.2277 0.9473 -0.2253
vn -0.6821 -0.2382 0.6914
vn -0.7183 0.6015 0.3496
vn -0.5397 -0.8385 -0.0747
vn -0.9390 -0.0673 -0.3372
vn -0.8361 -0.4955 -0.2354
vn -0.8378 0.4018 -0.3696
vn 0.2277 -0.9473 0.2252
vn 0.2302 -0.0992 0.9681
vn -0.1968 0.9788 -0.0569
vn 0.7198 0.6877 -0.0943
vn -0.2588 0.8570 -0.4455
vn -0.8005 0.0219 0.5990
vn 0.8336 0.4971 0.2410
vn 0.9274 -0.1061 0.3587
vn 0.0366 0.9903 -0.1339
vn 0.7166 0.2655 -0.6450
vn 0.8163 -0.4451 0.3681
vn -0.2467 0.6905 0.6800
vn 0.1886 0.4873 -0.8526
vn -0.2055 -0.0432 -0.9777
vn 0.1949 0.4985 0.8447
vn -0.8865 0.3851 0.2567
vn 0.2055 0.0432 0.9777
vn 0.2772 -0.6151 0.7381
vn 0.7063 0.6856 -0.1761
vn -0.2588 0.8571 -0.4455
vn -0.7812 0.1929 0.5938
vn 0.9115 0.3444 0.2249
vn 0.8107 -0.2494 -0.5296
vn -0.3768 0.7251 0.5765
vn 0.3023 0.4521 -0.8392
s off
f 59/66/55 69/67/55 47/68/55
f 45/69/56 51/70/56 46/71/56
f 43/72/57 49/73/57 44/74/57
f 47/75/58 51/70/58 52/76/58
f 44/74/59 50/77/59 45/69/59
f 48/78/60 71/79/60 49/80/60
f 51/81/61 55/82/61 52/83/61
f 49/80/62 53/84/62 50/85/62
f 43/86/63 70/87/63 48/78/63
f 50/85/64 54/88/64 51/81/64
f 55/82/65 58/89/65 59/66/65
f 72/90/66 84/91/66 80/92/66
f 53/84/67 58/89/67 54/88/67
f 70/93/68 83/94/68 81/95/68
f 58/89/69 64/96/69 59/66/69
f 61/97/70 77/98/70 60/99/70
f 57/100/71 63/101/71 58/89/71
f 62/102/72 76/103/72 78/104/72
f 64/96/73 68/105/73 69/67/73
f 61/106/74 67/107/74 62/108/74
f 43/86/75 60/109/75 56/110/75
f 62/108/76 68/105/76 63/101/76
f 60/109/77 66/111/77 61/106/77
f 69/112/78 46/71/78 47/75/78
f 66/113/79 45/69/79 67/114/79
f 67/114/80 46/71/80 68/115/80
f 65/116/81 44/74/81 66/113/81
f 55/82/82 47/68/82 52/83/82
f 73/117/83 78/104/83 76/103/83
f 73/117/84 77/98/84 74/118/84
f 72/119/85 75/120/85 73/117/85
f 60/99/86 75/120/86 56/121/86
f 61/97/87 78/104/87 74/118/87
f 72/119/88 76/103/88 57/122/88
f 79/123/89 84/91/89 82/124/89
f 79/123/90 83/94/90 80/92/90
f 71/125/91 82/124/91 53/126/91
f 53/126/92 84/91/92 57/127/92
f 72/90/93 83/94/93 56/128/93
f 71/125/94 81/95/94 79/123/94
f 59/66/82 64/96/82 69/67/82
f 45/69/56 50/77/56 51/70/56
f 43/72/57 48/129/57 49/73/57
f 47/75/58 46/71/58 51/70/58
f 44/74/95 49/73/95 50/77/95
f 48/78/60 70/87/60 71/79/60
f 51/81/61 54/88/61 55/82/61
f 49/80/62 71/79/62 53/84/62
f 43/86/75 56/110/75 70/87/75
f 50/85/64 53/84/64 54/88/64
f 55/82/65 54/88/65 58/89/65
f 72/90/96 57/127/96 84/91/96
f 53/84/67 57/100/67 58/89/67
f 70/93/68 56/128/68 83/94/68
f 58/89/69 63/101/69 64/96/69
f 61/97/97 74/118/97 77/98/97
f 57/100/98 62/108/98 63/101/98
f 62/102/99 57/122/99 76/103/99
f 64/96/73 63/101/73 68/105/73
f 61/106/74 66/111/74 67/107/74
f 43/86/75 65/130/75 60/109/75
f 62/108/76 67/107/76 68/105/76
f 60/109/77 65/130/77 66/111/77
f 69/112/78 68/115/78 46/71/78
f 66/113/79 44/74/79 45/69/79
f 67/114/80 45/69/80 46/71/80
f 65/116/81 43/72/81 44/74/81
f 55/82/55 59/66/55 47/68/55
f 73/117/83 74/118/83 78/104/83
f 73/117/84 75/120/84 77/98/84
f 72/119/100 56/121/100 75/120/100
f 60/99/101 77/98/101 75/120/101
f 61/97/102 62/102/102 78/104/102
f 72/119/103 73/117/103 76/103/103
f 79/123/89 80/92/89 84/91/89
f 79/123/90 81/95/90 83/94/90
f 71/125/104 79/123/104 82/124/104
f 53/126/92 82/124/92 84/91/92
f 72/90/105 80/92/105 83/94/105
f 71/125/106 70/93/106 81/95/106
