# Blender v2.81 (sub 16) OBJ File: 'garbage.blend'
# www.blender.org
v 0.175331 2.682276 -0.912616
v 0.189721 2.661749 -0.926515
v 0.193459 2.634071 -0.932961
v 0.185542 2.606658 -0.930229
v 0.168093 2.586856 -0.919049
v 0.179188 2.680141 -0.885282
v 0.196401 2.658051 -0.879171
v 0.201171 2.629801 -0.878294
v 0.192221 2.602960 -0.882885
v 0.171949 2.584721 -0.891715
v 0.157678 2.630790 -0.844036
v 0.154555 2.603817 -0.853217
v 0.150202 2.585216 -0.874586
v 0.131838 2.683266 -0.878358
v 0.106472 2.636051 -0.864446
v 0.110210 2.608373 -0.870892
v 0.124599 2.587846 -0.884791
v 0.127982 2.685401 -0.905692
v 0.107710 2.667162 -0.914522
v 0.098760 2.640321 -0.919113
v 0.103530 2.612071 -0.918236
v 0.120743 2.589981 -0.912125
v 0.149729 2.684906 -0.922821
v 0.145376 2.666305 -0.944190
v 0.142253 2.639332 -0.953371
v 0.141197 2.611214 -0.947904
v 0.142490 2.589486 -0.929254
v 0.157441 2.680636 -0.868153
v 0.158734 2.658908 -0.849503
v 0.114389 2.663464 -0.867178
v 0.072627 2.687431 -0.881720
v 0.072082 2.687732 -0.885583
v 0.108554 2.690928 -0.881556
v 0.083688 2.654426 -0.877074
v 0.106645 2.691985 -0.895086
v 0.080727 2.656065 -0.898061
v 0.128225 2.678721 -0.817508
v 0.117729 2.679799 -0.821692
v 0.132829 2.684738 -0.834610
v 0.127968 2.658225 -0.828087
v 0.128019 2.685232 -0.836527
v 0.123143 2.658721 -0.830010
vt 0.274240 0.539347
vt 0.265397 0.539709
vt 0.266768 0.532487
vt 0.231414 0.551290
vt 0.214659 0.541092
vt 0.231357 0.542861
vt 0.231940 0.569242
vt 0.215985 0.562822
vt 0.231472 0.559719
vt 0.230890 0.533338
vt 0.220414 0.530957
vt 0.213134 0.552274
vt 0.289666 0.544440
vt 0.282983 0.540904
vt 0.290637 0.536818
vt 0.279682 0.529141
vt 0.275518 0.536619
vt 0.273707 0.532162
vt 0.280945 0.538772
vt 0.286431 0.530872
vt 0.290637 0.551375
vt 0.284312 0.543753
vt 0.278488 0.537315
vt 0.276318 0.541045
vt 0.804698 0.251197
vt 0.792375 0.255919
vt 0.792638 0.252041
vt 0.786357 0.239035
vt 0.792578 0.249274
vt 0.791489 0.249454
vt 0.271776 0.541127
vt 0.760733 0.199751
vt 0.757502 0.209505
vt 0.750621 0.206121
vt 0.278108 0.542645
vt 0.273009 0.544115
vt 0.772804 0.201934
vt 0.766718 0.213101
vt 0.766203 0.208706
vt 0.264007 0.548518
vt 0.277612 0.547903
vt 0.268747 0.555467
vt 0.275021 0.546378
vt 0.280714 0.548498
vt 0.281954 0.545638
vt 0.276612 0.557409
vt 0.240880 0.530957
vt 0.248168 0.561486
vt 0.249693 0.550306
vt 0.246843 0.539760
vt 0.242415 0.571620
vt 0.762287 0.211045
vt 0.762255 0.210544
vt 0.761023 0.221925
vt 0.757316 0.212491
vt 0.750922 0.216572
vt 0.772804 0.220841
vt 0.791613 0.252007
vt 0.791097 0.255536
vt 0.780068 0.250772
vt 0.780487 0.263708
vt 0.804698 0.264828
vt 0.798786 0.238814
vt 0.221949 0.571626
vt 0.283377 0.553479
vn -0.0755 -0.9949 -0.0671
vn 0.9448 -0.2884 -0.1558
vn 0.7958 0.6020 -0.0652
vn 0.6970 -0.7006 -0.1531
vn 0.9789 0.1614 -0.1255
vn 0.5138 0.5762 0.6356
vn 0.4150 -0.7264 0.5478
vn 0.6155 0.1281 0.7777
vn 0.0755 0.9949 0.0671
vn 0.5813 -0.3217 0.7474
vn -0.3314 -0.6772 0.6570
vn -0.9332 -0.3108 0.1801
vn -0.3805 -0.2582 0.8880
vn 0.1163 0.9926 -0.0360
vn -0.7958 -0.6020 0.0652
vn -0.2008 0.5986 -0.7755
vn -0.9789 -0.1614 0.1255
vn -0.6374 -0.7699 0.0298
vn -0.5138 -0.5762 -0.6356
vn -0.5813 0.3217 -0.7474
vn -0.6155 -0.1281 -0.7777
vn -0.4150 0.7264 -0.5478
vn 0.2326 -0.6254 -0.7448
vn 0.3805 0.2582 -0.8880
vn 0.3464 -0.1916 -0.9183
vn 0.3314 0.6772 -0.6570
vn -0.9470 -0.3019 0.1100
vn -0.0969 0.9911 0.0913
vn -0.0484 0.4552 0.8891
vn 0.3086 0.9507 0.0307
vn -0.5624 0.1657 -0.8101
vn -0.3520 0.1930 0.9159
vn -0.3728 -0.4219 0.8265
vn -0.0320 0.9455 0.3240
vn 0.5639 0.1372 0.8144
vn -0.3220 -0.7117 0.6244
vn -0.7739 0.6254 -0.1001
vn 0.7529 0.5306 0.3894
vn -0.9221 0.2917 0.2544
vn -0.2812 0.5841 -0.7614
vn 0.0755 0.9949 0.0670
vn 0.2326 -0.6255 -0.7448
vn 0.3463 -0.1916 -0.9183
vn -0.0969 0.9911 0.0911
vn 0.0331 0.4691 0.8825
vn -0.5861 0.3226 -0.7433
vn -0.3142 0.0283 0.9489
vn 0.5310 -0.3939 0.7503
vn -0.3220 -0.7117 0.6243
vn -0.6723 0.7110 -0.2060
vn 0.7410 0.4622 0.4871
s off
f 17/1/1 27/2/1 5/3/1
f 3/4/2 9/5/2 4/6/2
f 1/7/3 7/8/3 2/9/3
f 5/10/4 9/5/4 10/11/4
f 2/9/5 8/12/5 3/4/5
f 6/13/6 29/14/6 7/15/6
f 9/16/7 13/17/7 10/18/7
f 7/15/8 11/19/8 8/20/8
f 1/21/9 28/22/9 6/13/9
f 8/20/10 12/23/10 9/16/10
f 13/17/11 16/24/11 17/1/11
f 30/25/12 42/26/12 38/27/12
f 11/19/13 16/24/13 12/23/13
f 28/28/14 41/29/14 39/30/14
f 16/24/15 22/31/15 17/1/15
f 19/32/16 35/33/16 18/34/16
f 15/35/17 21/36/17 16/24/17
f 20/37/18 34/38/18 36/39/18
f 22/31/19 26/40/19 27/2/19
f 19/41/20 25/42/20 20/43/20
f 1/21/9 18/44/9 14/45/9
f 20/43/21 26/40/21 21/36/21
f 18/44/22 24/46/22 19/41/22
f 27/47/23 4/6/23 5/10/23
f 24/48/24 3/4/24 25/49/24
f 25/49/25 4/6/25 26/50/25
f 23/51/26 2/9/26 24/48/26
f 13/17/1 5/3/1 10/18/1
f 31/52/27 36/39/27 34/38/27
f 31/52/28 35/33/28 32/53/28
f 30/54/29 33/55/29 31/52/29
f 18/34/30 33/55/30 14/56/30
f 19/32/31 36/39/31 32/53/31
f 30/54/32 34/38/32 15/57/32
f 37/58/33 42/26/33 40/59/33
f 37/58/34 41/29/34 38/27/34
f 29/60/35 40/59/35 11/61/35
f 11/61/36 42/26/36 15/62/36
f 30/25/37 41/29/37 14/63/37
f 29/60/38 39/30/38 37/58/38
f 17/1/1 22/31/1 27/2/1
f 3/4/2 8/12/2 9/5/2
f 1/7/3 6/64/3 7/8/3
f 5/10/4 4/6/4 9/5/4
f 2/9/5 7/8/5 8/12/5
f 6/13/6 28/22/6 29/14/6
f 9/16/7 12/23/7 13/17/7
f 7/15/8 29/14/8 11/19/8
f 1/21/9 14/45/9 28/22/9
f 8/20/10 11/19/10 12/23/10
f 13/17/11 12/23/11 16/24/11
f 30/25/39 15/62/39 42/26/39
f 11/19/13 15/35/13 16/24/13
f 28/28/14 14/63/14 41/29/14
f 16/24/15 21/36/15 22/31/15
f 19/32/40 32/53/40 35/33/40
f 15/35/17 20/43/17 21/36/17
f 20/37/18 15/57/18 34/38/18
f 22/31/19 21/36/19 26/40/19
f 19/41/20 24/46/20 25/42/20
f 1/21/41 23/65/41 18/44/41
f 20/43/21 25/42/21 26/40/21
f 18/44/22 23/65/22 24/46/22
f 27/47/42 26/50/42 4/6/42
f 24/48/24 2/9/24 3/4/24
f 25/49/43 3/4/43 4/6/43
f 23/51/26 1/7/26 2/9/26
f 13/17/1 17/1/1 5/3/1
f 31/52/27 32/53/27 36/39/27
f 31/52/44 33/55/44 35/33/44
f 30/54/45 14/56/45 33/55/45
f 18/34/30 35/33/30 33/55/30
f 19/32/46 20/37/46 36/39/46
f 30/54/47 31/52/47 34/38/47
f 37/58/33 38/27/33 42/26/33
f 37/58/34 39/30/34 41/29/34
f 29/60/48 37/58/48 40/59/48
f 11/61/49 40/59/49 42/26/49
f 30/25/50 38/27/50 41/29/50
f 29/60/51 28/28/51 39/30/51
v 1.739780 2.086501 -0.828499
v 1.723942 2.071597 -0.809828
v 1.714856 2.046449 -0.799501
v 1.714957 2.017797 -0.800286
v 1.724218 1.993317 -0.811971
v 1.729930 2.083586 -0.854209
v 1.706881 2.066548 -0.854360
v 1.695156 2.040619 -0.850923
v 1.697896 2.012748 -0.844818
v 1.714368 1.990401 -0.837682
v 1.729443 2.027538 -0.892390
v 1.727590 2.001419 -0.880730
v 1.731512 1.983861 -0.858416
v 1.774067 2.073421 -0.869966
v 1.783430 2.020288 -0.882436
v 1.774344 1.995140 -0.872109
v 1.758505 1.980236 -0.853438
v 1.783917 2.076336 -0.844255
v 1.800389 2.053990 -0.837119
v 1.803130 2.026118 -0.831014
v 1.791404 2.000189 -0.827577
v 1.768355 1.983151 -0.827728
v 1.766774 2.082876 -0.823522
v 1.770696 2.065318 -0.801207
v 1.768843 2.039199 -0.789547
v 1.761711 2.011518 -0.791665
v 1.751212 1.989691 -0.806994
v 1.747074 2.077046 -0.874943
v 1.736574 2.055219 -0.890272
v 1.783329 2.048940 -0.881651
v 1.831819 2.061789 -0.877971
v 1.833211 2.062201 -0.874338
v 1.798666 2.074766 -0.872014
v 1.812177 2.032715 -0.876489
v 1.803541 2.076209 -0.859287
v 1.819740 2.034954 -0.856749
v 1.763731 2.063863 -0.929449
v 1.774797 2.062376 -0.927409
v 1.764420 2.072065 -0.912653
v 1.761069 2.044833 -0.916689
v 1.769492 2.071384 -0.911718
v 1.766155 2.044150 -0.915751
vt 0.274240 0.539347
vt 0.265397 0.539709
vt 0.266768 0.532487
vt 0.231414 0.551290
vt 0.214659 0.541092
vt 0.231357 0.542861
vt 0.231940 0.569242
vt 0.215985 0.562822
vt 0.231472 0.559719
vt 0.230890 0.533338
vt 0.220414 0.530957
vt 0.213134 0.552274
vt 0.289666 0.544440
vt 0.282983 0.540904
vt 0.290637 0.536818
vt 0.279682 0.529141
vt 0.275518 0.536619
vt 0.273707 0.532162
vt 0.280945 0.538772
vt 0.286431 0.530872
vt 0.290637 0.551375
vt 0.284312 0.543753
vt 0.278488 0.537315
vt 0.276318 0.541045
vt 0.804698 0.251197
vt 0.792375 0.255919
vt 0.792638 0.252041
vt 0.786357 0.239035
vt 0.792578 0.249274
vt 0.791489 0.249454
vt 0.271776 0.541127
vt 0.760733 0.199751
vt 0.757502 0.209505
vt 0.750621 0.206121
vt 0.278108 0.542645
vt 0.273009 0.544115
vt 0.772804 0.201934
vt 0.766718 0.213101
vt 0.766203 0.208706
vt 0.264007 0.548518
vt 0.277612 0.547903
vt 0.268747 0.555467
vt 0.275021 0.546378
vt 0.280714 0.548498
vt 0.281954 0.545638
vt 0.276612 0.557409
vt 0.240880 0.530957
vt 0.248168 0.561486
vt 0.249693 0.550306
vt 0.246843 0.539760
vt 0.242415 0.571620
vt 0.762287 0.211045
vt 0.762255 0.210544
vt 0.761023 0.221925
vt 0.757316 0.212491
vt 0.750922 0.216572
vt 0.772804 0.220841
vt 0.791613 0.252007
vt 0.791097 0.255536
vt 0.780068 0.250772
vt 0.780487 0.263708
vt 0.804698 0.264828
vt 0.798786 0.238814
vt 0.221949 0.571626
vt 0.283377 0.553479
vn -0.1623 -0.9716 0.1723
vn -0.9332 -0.0131 0.3590
vn -0.5895 0.7963 0.1356
vn -0.8020 -0.4758 0.3612
vn -0.8599 0.4261 0.2811
vn -0.4746 0.6472 -0.5966
vn -0.6870 -0.6249 -0.3709
vn -0.7117 0.2340 -0.6623
vn 0.1623 0.9716 -0.1723
vn -0.7851 -0.2052 -0.5844
vn 0.0087 -0.7851 -0.6193
vn 0.7682 -0.5612 -0.3080
vn 0.1115 -0.4117 -0.9045
vn 0.1444 0.9874 -0.0640
vn 0.5895 -0.7963 -0.1356
vn 0.4998 0.5752 0.6476
vn 0.8599 -0.4261 -0.2811
vn 0.4053 -0.9127 -0.0518
vn 0.4746 -0.6472 0.5966
vn 0.7851 0.2052 0.5844
vn 0.7117 -0.2340 0.6623
vn 0.6870 0.6249 0.3709
vn -0.2212 -0.4870 0.8449
vn -0.1115 0.4117 0.9045
vn -0.1848 -0.0275 0.9824
vn -0.0087 0.7851 0.6193
vn 0.7980 -0.5515 -0.2432
vn 0.3194 0.9201 -0.2267
vn -0.0254 0.3627 -0.9316
vn -0.0618 0.9941 -0.0890
vn 0.7413 0.0647 0.6680
vn 0.1911 0.0275 -0.9812
vn 0.0762 -0.5626 -0.8232
vn 0.1983 0.8775 -0.4367
vn -0.6683 0.2264 -0.7086
vn -0.0020 -0.8135 -0.5816
vn 0.9085 0.4006 -0.1191
vn -0.6611 0.6846 -0.3072
vn -0.5895 0.7963 0.1355
vn -0.4745 0.6472 -0.5966
vn 0.8922 0.0155 -0.4515
vn 0.5694 0.5388 0.6209
vn 0.4745 -0.6472 0.5966
vn 0.6870 0.6248 0.3709
vn -0.1848 -0.0276 0.9824
vn 0.7979 -0.5515 -0.2432
vn -0.0977 0.3984 -0.9120
vn 0.7889 0.2045 0.5794
vn 0.1074 -0.1229 -0.9866
vn 0.1984 0.8775 -0.4367
vn -0.7560 -0.2883 -0.5876
vn -0.0020 -0.8134 -0.5817
vn 0.8557 0.5173 -0.0076
vn -0.6870 0.6089 -0.3964
s off
f 59/66/52 69/67/52 47/68/52
f 45/69/53 51/70/53 46/71/53
f 43/72/54 49/73/54 44/74/54
f 47/75/55 51/70/55 52/76/55
f 44/74/56 50/77/56 45/69/56
f 48/78/57 71/79/57 49/80/57
f 51/81/58 55/82/58 52/83/58
f 49/80/59 53/84/59 50/85/59
f 43/86/60 70/87/60 48/78/60
f 50/85/61 54/88/61 51/81/61
f 55/82/62 58/89/62 59/66/62
f 72/90/63 84/91/63 80/92/63
f 53/84/64 58/89/64 54/88/64
f 70/93/65 83/94/65 81/95/65
f 58/89/66 64/96/66 59/66/66
f 61/97/67 77/98/67 60/99/67
f 57/100/68 63/101/68 58/89/68
f 62/102/69 76/103/69 78/104/69
f 64/96/70 68/105/70 69/67/70
f 61/106/71 67/107/71 62/108/71
f 43/86/60 60/109/60 56/110/60
f 62/108/72 68/105/72 63/101/72
f 60/109/73 66/111/73 61/106/73
f 69/112/74 46/71/74 47/75/74
f 66/113/75 45/69/75 67/114/75
f 67/114/76 46/71/76 68/115/76
f 65/116/77 44/74/77 66/113/77
f 55/82/52 47/68/52 52/83/52
f 73/117/78 78/104/78 76/103/78
f 73/117/79 77/98/79 74/118/79
f 72/119/80 75/120/80 73/117/80
f 60/99/81 75/120/81 56/121/81
f 61/97/82 78/104/82 74/118/82
f 72/119/83 76/103/83 57/122/83
f 79/123/84 84/91/84 82/124/84
f 79/123/85 83/94/85 80/92/85
f 71/125/86 82/124/86 53/126/86
f 53/126/87 84/91/87 57/127/87
f 72/90/88 83/94/88 56/128/88
f 71/125/89 81/95/89 79/123/89
f 59/66/52 64/96/52 69/67/52
f 45/69/53 50/77/53 51/70/53
f 43/72/90 48/129/90 49/73/90
f 47/75/55 46/71/55 51/70/55
f 44/74/56 49/73/56 50/77/56
f 48/78/91 70/87/91 71/79/91
f 51/81/58 54/88/58 55/82/58
f 49/80/59 71/79/59 53/84/59
f 43/86/60 56/110/60 70/87/60
f 50/85/61 53/84/61 54/88/61
f 55/82/62 54/88/62 58/89/62
f 72/90/92 57/127/92 84/91/92
f 53/84/64 57/100/64 58/89/64
f 70/93/65 56/128/65 83/94/65
f 58/89/66 63/101/66 64/96/66
f 61/97/93 74/118/93 77/98/93
f 57/100/68 62/108/68 63/101/68
f 62/102/69 57/122/69 76/103/69
f 64/96/94 63/101/94 68/105/94
f 61/106/71 66/111/71 67/107/71
f 43/86/60 65/130/60 60/109/60
f 62/108/72 67/107/72 68/105/72
f 60/109/95 65/130/95 66/111/95
f 69/112/74 68/115/74 46/71/74
f 66/113/75 44/74/75 45/69/75
f 67/114/96 45/69/96 46/71/96
f 65/116/77 43/72/77 44/74/77
f 55/82/52 59/66/52 47/68/52
f 73/117/97 74/118/97 78/104/97
f 73/117/79 75/120/79 77/98/79
f 72/119/98 56/121/98 75/120/98
f 60/99/81 77/98/81 75/120/81
f 61/97/99 62/102/99 78/104/99
f 72/119/100 73/117/100 76/103/100
f 79/123/84 80/92/84 84/91/84
f 79/123/101 81/95/101 83/94/101
f 71/125/102 79/123/102 82/124/102
f 53/126/103 82/124/103 84/91/103
f 72/90/104 80/92/104 83/94/104
f 71/125/105 70/93/105 81/95/105
