# Blender v2.81 (sub 16) OBJ File: 'garbage.blend'
# www.blender.org
v 2.149988 2.454490 0.575110
v 2.140311 2.437778 0.596292
v 2.134151 2.411714 0.606505
v 2.133158 2.383281 0.603013
v 2.137598 2.360099 0.586751
v 2.132546 2.454128 0.553610
v 2.110102 2.437151 0.559054
v 2.099268 2.410990 0.563506
v 2.102948 2.382654 0.565775
v 2.120156 2.359736 0.565251
v 2.118551 2.402150 0.512356
v 2.119648 2.374999 0.521478
v 2.129798 2.355317 0.539676
v 2.169271 2.445651 0.523960
v 2.172717 2.394036 0.504206
v 2.166557 2.367971 0.514419
v 2.156881 2.351259 0.535601
v 2.186712 2.446013 0.545459
v 2.203920 2.423095 0.544936
v 2.207600 2.394760 0.547205
v 2.196767 2.368598 0.551657
v 2.174322 2.351621 0.557101
v 2.177071 2.450433 0.571034
v 2.187220 2.430750 0.589233
v 2.188317 2.403599 0.598354
v 2.180067 2.376253 0.595954
v 2.164681 2.356041 0.582675
v 2.142188 2.449708 0.528035
v 2.126801 2.429496 0.514757
v 2.173711 2.422468 0.507698
v 2.221297 2.434967 0.497242
v 2.223761 2.435018 0.500281
v 2.192040 2.447233 0.514465
v 2.202242 2.405858 0.502022
v 2.200673 2.447412 0.525107
v 2.215633 2.406136 0.518529
v 2.140664 2.442034 0.470062
v 2.151767 2.440370 0.468391
v 2.146786 2.448528 0.486500
v 2.141544 2.421826 0.481148
v 2.151875 2.447766 0.485734
v 2.146648 2.421062 0.480380
vt 0.274240 0.539347
vt 0.265397 0.539709
vt 0.266768 0.532487
vt 0.231414 0.551290
vt 0.214659 0.541092
vt 0.231357 0.542861
vt 0.231940 0.569242
vt 0.215985 0.562822
vt 0.231472 0.559719
vt 0.230890 0.533338
vt 0.220414 0.530957
vt 0.213134 0.552274
vt 0.289666 0.544440
vt 0.282983 0.540904
vt 0.290637 0.536818
vt 0.279682 0.529141
vt 0.275518 0.536619
vt 0.273707 0.532162
vt 0.280945 0.538772
vt 0.286431 0.530872
vt 0.290637 0.551375
vt 0.284312 0.543753
vt 0.278488 0.537315
vt 0.276318 0.541045
vt 0.804698 0.251197
vt 0.792375 0.255919
vt 0.792638 0.252041
vt 0.786357 0.239035
vt 0.792578 0.249274
vt 0.791489 0.249454
vt 0.271776 0.541127
vt 0.760733 0.199751
vt 0.757502 0.209505
vt 0.750621 0.206121
vt 0.278108 0.542645
vt 0.273009 0.544115
vt 0.772804 0.201934
vt 0.766718 0.213101
vt 0.766203 0.208706
vt 0.264007 0.548518
vt 0.277612 0.547903
vt 0.268747 0.555467
vt 0.275021 0.546378
vt 0.280714 0.548498
vt 0.281954 0.545638
vt 0.276612 0.557409
vt 0.240880 0.530957
vt 0.248168 0.561486
vt 0.249693 0.550306
vt 0.246843 0.539760
vt 0.242415 0.571620
vt 0.762287 0.211045
vt 0.762255 0.210544
vt 0.761023 0.221925
vt 0.757316 0.212491
vt 0.750922 0.216572
vt 0.772804 0.220841
vt 0.791613 0.252007
vt 0.791097 0.255536
vt 0.780068 0.250772
vt 0.780487 0.263708
vt 0.804698 0.264828
vt 0.798786 0.238814
vt 0.221949 0.571626
vt 0.283377 0.553479
vn -0.1292 -0.9842 0.1214
vn -0.7752 -0.0503 0.6297
vn -0.4943 0.7779 0.3879
vn -0.6635 -0.5107 0.5468
vn -0.7168 0.3947 0.5749
vn -0.6173 0.7025 -0.3541
vn -0.7864 -0.5860 -0.1952
vn -0.8752 0.2975 -0.3814
vn 0.1292 0.9842 -0.1214
vn -0.9336 -0.1474 -0.3265
vn -0.2075 -0.7197 -0.6626
vn 0.6173 -0.5266 -0.5845
vn -0.1876 -0.3196 -0.9288
vn 0.1464 0.9892 -0.0119
vn 0.4943 -0.7779 -0.3879
vn 0.6932 0.5088 0.5105
vn 0.7168 -0.3947 -0.5749
vn 0.3420 -0.9024 -0.2622
vn 0.6173 -0.7025 0.3541
vn 0.9336 0.1474 0.3265
vn 0.8752 -0.2975 0.3814
vn 0.7864 0.5860 0.1952
vn 0.0384 -0.5689 0.8215
vn 0.1876 0.3196 0.9288
vn 0.1292 -0.1253 0.9837
vn 0.2075 0.7197 0.6626
vn 0.6661 -0.5233 -0.5315
vn 0.2600 0.9386 -0.2268
vn -0.3033 0.4535 -0.8381
vn -0.0571 0.9979 0.0295
vn 0.9139 -0.0007 0.4059
vn -0.1230 0.1252 -0.9845
vn -0.2003 -0.4780 -0.8552
vn 0.0785 0.9168 -0.3915
vn -0.8486 0.2946 -0.4395
vn -0.2068 -0.7517 -0.6263
vn 0.8378 0.4119 -0.3585
vn -0.7033 0.7106 -0.0188
vn -0.4943 0.7779 0.3880
vn 0.7075 0.0618 -0.7041
vn 0.7499 0.4753 0.4601
vn 0.3419 -0.9024 -0.2622
vn 0.1292 0.9842 -0.1213
vn 0.6660 -0.5234 -0.5315
vn -0.3648 0.4869 -0.7937
vn 0.9357 0.1472 0.3205
vn -0.2085 -0.0240 -0.9777
vn -0.2003 -0.4779 -0.8552
vn 0.0785 0.9169 -0.3914
vn -0.9095 -0.2297 -0.3465
vn -0.2069 -0.7516 -0.6263
vn 0.8258 0.5170 -0.2255
vn -0.7580 0.6442 -0.1022
s off
f 17/1/1 27/2/1 5/3/1
f 3/4/2 9/5/2 4/6/2
f 1/7/3 7/8/3 2/9/3
f 5/10/4 9/5/4 10/11/4
f 2/9/5 8/12/5 3/4/5
f 6/13/6 29/14/6 7/15/6
f 9/16/7 13/17/7 10/18/7
f 7/15/8 11/19/8 8/20/8
f 1/21/9 28/22/9 6/13/9
f 8/20/10 12/23/10 9/16/10
f 13/17/11 16/24/11 17/1/11
f 30/25/12 42/26/12 38/27/12
f 11/19/13 16/24/13 12/23/13
f 28/28/14 41/29/14 39/30/14
f 16/24/15 22/31/15 17/1/15
f 19/32/16 35/33/16 18/34/16
f 15/35/17 21/36/17 16/24/17
f 20/37/18 34/38/18 36/39/18
f 22/31/19 26/40/19 27/2/19
f 19/41/20 25/42/20 20/43/20
f 1/21/9 18/44/9 14/45/9
f 20/43/21 26/40/21 21/36/21
f 18/44/22 24/46/22 19/41/22
f 27/47/23 4/6/23 5/10/23
f 24/48/24 3/4/24 25/49/24
f 25/49/25 4/6/25 26/50/25
f 23/51/26 2/9/26 24/48/26
f 13/17/1 5/3/1 10/18/1
f 31/52/27 36/39/27 34/38/27
f 31/52/28 35/33/28 32/53/28
f 30/54/29 33/55/29 31/52/29
f 18/34/30 33/55/30 14/56/30
f 19/32/31 36/39/31 32/53/31
f 30/54/32 34/38/32 15/57/32
f 37/58/33 42/26/33 40/59/33
f 37/58/34 41/29/34 38/27/34
f 29/60/35 40/59/35 11/61/35
f 11/61/36 42/26/36 15/62/36
f 30/25/37 41/29/37 14/63/37
f 29/60/38 39/30/38 37/58/38
f 17/1/1 22/31/1 27/2/1
f 3/4/2 8/12/2 9/5/2
f 1/7/39 6/64/39 7/8/39
f 5/10/4 4/6/4 9/5/4
f 2/9/5 7/8/5 8/12/5
f 6/13/6 28/22/6 29/14/6
f 9/16/7 12/23/7 13/17/7
f 7/15/8 29/14/8 11/19/8
f 1/21/9 14/45/9 28/22/9
f 8/20/10 11/19/10 12/23/10
f 13/17/11 12/23/11 16/24/11
f 30/25/40 15/62/40 42/26/40
f 11/19/13 15/35/13 16/24/13
f 28/28/14 14/63/14 41/29/14
f 16/24/15 21/36/15 22/31/15
f 19/32/41 32/53/41 35/33/41
f 15/35/17 20/43/17 21/36/17
f 20/37/42 15/57/42 34/38/42
f 22/31/19 21/36/19 26/40/19
f 19/41/20 24/46/20 25/42/20
f 1/21/43 23/65/43 18/44/43
f 20/43/21 25/42/21 26/40/21
f 18/44/22 23/65/22 24/46/22
f 27/47/23 26/50/23 4/6/23
f 24/48/24 2/9/24 3/4/24
f 25/49/25 3/4/25 4/6/25
f 23/51/26 1/7/26 2/9/26
f 13/17/1 17/1/1 5/3/1
f 31/52/44 32/53/44 36/39/44
f 31/52/28 33/55/28 35/33/28
f 30/54/45 14/56/45 33/55/45
f 18/34/30 35/33/30 33/55/30
f 19/32/46 20/37/46 36/39/46
f 30/54/47 31/52/47 34/38/47
f 37/58/48 38/27/48 42/26/48
f 37/58/49 39/30/49 41/29/49
f 29/60/50 37/58/50 40/59/50
f 11/61/51 40/59/51 42/26/51
f 30/25/52 38/27/52 41/29/52
f 29/60/53 28/28/53 39/30/53
v 0.770110 1.684940 -0.656015
v 0.774687 1.674475 -0.682304
v 0.779324 1.652152 -0.699676
v 0.782779 1.623952 -0.703475
v 0.784127 1.597432 -0.692684
v 0.792651 1.681932 -0.640221
v 0.813728 1.669266 -0.654949
v 0.824405 1.646137 -0.668089
v 0.821821 1.618743 -0.676120
v 0.806668 1.594424 -0.676890
v 0.819995 1.624205 -0.617435
v 0.818002 1.599749 -0.632253
v 0.804463 1.583458 -0.651563
v 0.765700 1.663008 -0.605361
v 0.770504 1.608288 -0.598369
v 0.775141 1.585964 -0.615741
v 0.779717 1.575500 -0.642030
v 0.743160 1.666015 -0.621155
v 0.728007 1.641696 -0.621925
v 0.725423 1.614303 -0.629956
v 0.736100 1.591174 -0.643096
v 0.757177 1.578507 -0.657824
v 0.745365 1.676981 -0.646482
v 0.731826 1.660690 -0.665793
v 0.729833 1.636235 -0.680610
v 0.739919 1.610167 -0.686963
v 0.759382 1.589473 -0.683151
v 0.790446 1.670966 -0.614894
v 0.809909 1.650272 -0.611082
v 0.767048 1.636487 -0.594570
v 0.723367 1.640809 -0.570009
v 0.720181 1.641234 -0.572241
v 0.746241 1.659836 -0.590449
v 0.742029 1.615847 -0.586193
v 0.735084 1.661325 -0.598267
v 0.724722 1.618156 -0.598319
v 0.807812 1.651090 -0.562688
v 0.797667 1.647827 -0.558780
v 0.797175 1.660251 -0.575049
v 0.805120 1.633816 -0.577735
v 0.792526 1.658756 -0.573258
v 0.800457 1.632317 -0.575939
vt 0.274240 0.539347
vt 0.265397 0.539709
vt 0.266768 0.532487
vt 0.231414 0.551290
vt 0.214659 0.541092
vt 0.231357 0.542861
vt 0.231940 0.569242
vt 0.215985 0.562822
vt 0.231472 0.559719
vt 0.230890 0.533338
vt 0.220414 0.530957
vt 0.213134 0.552274
vt 0.289666 0.544440
vt 0.282983 0.540904
vt 0.290637 0.536818
vt 0.279682 0.529141
vt 0.275518 0.536619
vt 0.273707 0.532162
vt 0.280945 0.538772
vt 0.286431 0.530872
vt 0.290637 0.551375
vt 0.284312 0.543753
vt 0.278488 0.537315
vt 0.276318 0.541045
vt 0.804698 0.251197
vt 0.792375 0.255919
vt 0.792638 0.252041
vt 0.786357 0.239035
vt 0.792578 0.249274
vt 0.791489 0.249454
vt 0.271776 0.541127
vt 0.760733 0.199751
vt 0.757502 0.209505
vt 0.750621 0.206121
vt 0.278108 0.542645
vt 0.273009 0.544115
vt 0.772804 0.201934
vt 0.766718 0.213101
vt 0.766203 0.208706
vt 0.264007 0.548518
vt 0.277612 0.547903
vt 0.268747 0.555467
vt 0.275021 0.546378
vt 0.280714 0.548498
vt 0.281954 0.545638
vt 0.276612 0.557409
vt 0.240880 0.530957
vt 0.248168 0.561486
vt 0.249693 0.550306
vt 0.246843 0.539760
vt 0.242415 0.571620
vt 0.762287 0.211045
vt 0.762255 0.210544
vt 0.761023 0.221925
vt 0.757316 0.212491
vt 0.750922 0.216572
vt 0.772804 0.220841
vt 0.791613 0.252007
vt 0.791097 0.255536
vt 0.780068 0.250772
vt 0.780487 0.263708
vt 0.804698 0.264828
vt 0.798786 0.238814
vt 0.221949 0.571626
vt 0.283377 0.553479
vn 0.1462 -0.9124 -0.3823
vn 0.5805 0.1782 -0.7945
vn 0.3292 0.8956 -0.2992
vn 0.5205 -0.2990 -0.7998
vn 0.5144 0.5907 -0.6217
vn 0.6497 0.6753 0.3490
vn 0.8411 -0.5193 -0.1516
vn 0.9275 0.3068 0.2136
vn -0.1462 0.9124 0.3823
vn 0.9936 -0.1057 0.0407
vn 0.4162 -0.8176 0.3979
vn -0.4089 -0.7091 0.5745
vn 0.4461 -0.4901 0.7489
vn -0.1922 0.9391 0.2850
vn -0.3292 -0.8956 0.2992
vn -0.8313 0.5239 -0.1859
vn -0.5144 -0.5907 0.6217
vn -0.2092 -0.9712 0.1137
vn -0.6497 -0.6753 -0.3490
vn -0.9936 0.1057 -0.0407
vn -0.1461 0.9124 0.3823
vn -0.9275 -0.3068 -0.2136
vn -0.8411 0.5193 0.1516
vn -0.2249 -0.3770 -0.8985
vn -0.4461 0.4901 -0.7489
vn -0.3800 0.0776 -0.9217
vn -0.4162 0.8176 -0.3979
vn 0.1461 -0.9124 -0.3823
vn -0.4701 -0.7000 0.5376
vn -0.2414 0.8301 0.5026
vn 0.4905 0.2922 0.8210
vn -0.0080 0.9802 0.1980
vn -0.9876 -0.0183 -0.1557
vn 0.3742 -0.0786 0.9240
vn 0.4474 -0.6261 0.6387
vn -0.0215 0.7943 0.6072
vn 0.9175 0.2882 0.2740
vn 0.4077 -0.8407 0.3563
vn -0.7330 0.2241 0.6422
vn 0.6425 0.7661 0.0149
vn -0.4961 -0.1754 0.8504
vn -0.8706 0.4738 -0.1327
vn -0.6497 -0.6754 -0.3490
vn 0.5360 0.3414 0.7721
vn -0.0080 0.9802 0.1981
vn -0.9940 0.1039 -0.0347
vn 0.4630 -0.2119 0.8607
vn 0.4474 -0.6261 0.6386
vn 0.9802 -0.1926 0.0457
vn 0.4076 -0.8408 0.3563
vn -0.7628 0.3562 0.5397
vn 0.7211 0.6899 0.0638
s off
f 59/66/54 69/67/54 47/68/54
f 45/69/55 51/70/55 46/71/55
f 43/72/56 49/73/56 44/74/56
f 47/75/57 51/70/57 52/76/57
f 44/74/58 50/77/58 45/69/58
f 48/78/59 71/79/59 49/80/59
f 51/81/60 55/82/60 52/83/60
f 49/80/61 53/84/61 50/85/61
f 43/86/62 70/87/62 48/78/62
f 50/85/63 54/88/63 51/81/63
f 55/82/64 58/89/64 59/66/64
f 72/90/65 84/91/65 80/92/65
f 53/84/66 58/89/66 54/88/66
f 70/93/67 83/94/67 81/95/67
f 58/89/68 64/96/68 59/66/68
f 61/97/69 77/98/69 60/99/69
f 57/100/70 63/101/70 58/89/70
f 62/102/71 76/103/71 78/104/71
f 64/96/72 68/105/72 69/67/72
f 61/106/73 67/107/73 62/108/73
f 43/86/74 60/109/74 56/110/74
f 62/108/75 68/105/75 63/101/75
f 60/109/76 66/111/76 61/106/76
f 69/112/77 46/71/77 47/75/77
f 66/113/78 45/69/78 67/114/78
f 67/114/79 46/71/79 68/115/79
f 65/116/80 44/74/80 66/113/80
f 55/82/81 47/68/81 52/83/81
f 73/117/82 78/104/82 76/103/82
f 73/117/83 77/98/83 74/118/83
f 72/119/84 75/120/84 73/117/84
f 60/99/85 75/120/85 56/121/85
f 61/97/86 78/104/86 74/118/86
f 72/119/87 76/103/87 57/122/87
f 79/123/88 84/91/88 82/124/88
f 79/123/89 83/94/89 80/92/89
f 71/125/90 82/124/90 53/126/90
f 53/126/91 84/91/91 57/127/91
f 72/90/92 83/94/92 56/128/92
f 71/125/93 81/95/93 79/123/93
f 59/66/81 64/96/81 69/67/81
f 45/69/55 50/77/55 51/70/55
f 43/72/56 48/129/56 49/73/56
f 47/75/57 46/71/57 51/70/57
f 44/74/58 49/73/58 50/77/58
f 48/78/59 70/87/59 71/79/59
f 51/81/60 54/88/60 55/82/60
f 49/80/61 71/79/61 53/84/61
f 43/86/74 56/110/74 70/87/74
f 50/85/63 53/84/63 54/88/63
f 55/82/64 54/88/64 58/89/64
f 72/90/94 57/127/94 84/91/94
f 53/84/66 57/100/66 58/89/66
f 70/93/67 56/128/67 83/94/67
f 58/89/68 63/101/68 64/96/68
f 61/97/95 74/118/95 77/98/95
f 57/100/70 62/108/70 63/101/70
f 62/102/71 57/122/71 76/103/71
f 64/96/96 63/101/96 68/105/96
f 61/106/73 66/111/73 67/107/73
f 43/86/74 65/130/74 60/109/74
f 62/108/75 67/107/75 68/105/75
f 60/109/76 65/130/76 66/111/76
f 69/112/77 68/115/77 46/71/77
f 66/113/78 44/74/78 45/69/78
f 67/114/79 45/69/79 46/71/79
f 65/116/80 43/72/80 44/74/80
f 55/82/81 59/66/81 47/68/81
f 73/117/82 74/118/82 78/104/82
f 73/117/83 75/120/83 77/98/83
f 72/119/97 56/121/97 75/120/97
f 60/99/98 77/98/98 75/120/98
f 61/97/99 62/102/99 78/104/99
f 72/119/100 73/117/100 76/103/100
f 79/123/101 80/92/101 84/91/101
f 79/123/89 81/95/89 83/94/89
f 71/125/102 79/123/102 82/124/102
f 53/126/103 82/124/103 84/91/103
f 72/90/104 80/92/104 83/94/104
f 71/125/105 70/93/105 81/95/105
