# Blender v2.81 (sub 16) OBJ File: 'garbage.blend'
# www.blender.org
v 0.393584 2.652866 -1.048372
v 0.407384 2.629457 -1.057491
v 0.408573 2.600992 -1.060648
v 0.396832 2.575099 -1.056997
v 0.375308 2.558717 -1.047516
v 0.392357 2.653355 -1.020717
v 0.405259 2.630304 -1.009591
v 0.406120 2.601971 -1.005337
v 0.394708 2.575948 -1.009096
v 0.374081 2.559206 -1.019861
v 0.357865 2.611569 -0.979929
v 0.352918 2.584260 -0.987092
v 0.349954 2.564005 -1.007156
v 0.345329 2.662464 -1.022964
v 0.312063 2.620188 -1.009832
v 0.313252 2.591724 -1.012989
v 0.327053 2.568315 -1.022108
v 0.346555 2.661974 -1.050619
v 0.325928 2.645233 -1.061383
v 0.314516 2.619209 -1.065142
v 0.315377 2.590876 -1.060889
v 0.328279 2.567825 -1.049763
v 0.370683 2.657175 -1.063323
v 0.367718 2.636921 -1.083387
v 0.362771 2.609611 -1.090551
v 0.357167 2.582564 -1.082893
v 0.352407 2.563026 -1.062467
v 0.368229 2.658154 -1.008012
v 0.363469 2.638617 -0.987586
v 0.323804 2.646081 -1.013483
v 0.288626 2.672777 -1.037562
v 0.288799 2.672708 -1.041470
v 0.324132 2.672261 -1.031076
v 0.294365 2.639467 -1.028035
v 0.324740 2.672019 -1.044765
v 0.295307 2.639091 -1.049269
v 0.330714 2.665113 -0.963669
v 0.321325 2.666880 -0.969799
v 0.338938 2.668652 -0.980092
v 0.329642 2.643728 -0.972247
v 0.334635 2.669461 -0.982901
v 0.325327 2.644541 -0.975065
vt 0.274240 0.539347
vt 0.265397 0.539709
vt 0.266768 0.532487
vt 0.231414 0.551290
vt 0.214659 0.541092
vt 0.231357 0.542861
vt 0.231940 0.569242
vt 0.215985 0.562822
vt 0.231472 0.559719
vt 0.230890 0.533338
vt 0.220414 0.530957
vt 0.213134 0.552274
vt 0.289666 0.544440
vt 0.282983 0.540904
vt 0.290637 0.536818
vt 0.279682 0.529141
vt 0.275518 0.536619
vt 0.273707 0.532162
vt 0.280945 0.538772
vt 0.286431 0.530872
vt 0.290637 0.551375
vt 0.284312 0.543753
vt 0.278488 0.537315
vt 0.276318 0.541045
vt 0.804698 0.251197
vt 0.792375 0.255919
vt 0.792638 0.252041
vt 0.786357 0.239035
vt 0.792578 0.249274
vt 0.791489 0.249454
vt 0.271776 0.541127
vt 0.760733 0.199751
vt 0.757502 0.209505
vt 0.750621 0.206121
vt 0.278108 0.542645
vt 0.273009 0.544115
vt 0.772804 0.201934
vt 0.766718 0.213101
vt 0.766203 0.208706
vt 0.264007 0.548518
vt 0.277612 0.547903
vt 0.268747 0.555467
vt 0.275021 0.546378
vt 0.280714 0.548498
vt 0.281954 0.545638
vt 0.276612 0.557409
vt 0.240880 0.530957
vt 0.248168 0.561486
vt 0.249693 0.550306
vt 0.246843 0.539760
vt 0.242415 0.571620
vt 0.762287 0.211045
vt 0.762255 0.210544
vt 0.761023 0.221925
vt 0.757316 0.212491
vt 0.750922 0.216572
vt 0.772804 0.220841
vt 0.791613 0.252007
vt 0.791097 0.255536
vt 0.780068 0.250772
vt 0.780487 0.263708
vt 0.804698 0.264828
vt 0.798786 0.238814
vt 0.221949 0.571626
vt 0.283377 0.553479
vn -0.1905 -0.9816 0.0089
vn 0.9122 -0.4069 0.0477
vn 0.8661 0.4990 0.0296
vn 0.6166 -0.7862 0.0413
vn 0.9984 0.0369 0.0436
vn 0.4664 0.5824 0.6658
vn 0.2169 -0.7029 0.6775
vn 0.4833 0.1443 0.8635
vn 0.1906 0.9816 -0.0089
vn 0.3972 -0.2995 0.8675
vn -0.5244 -0.5593 0.6420
vn -0.9825 -0.1834 0.0316
vn -0.5581 -0.1145 0.8218
vn 0.2479 0.9634 -0.1021
vn -0.8661 -0.4990 -0.0296
vn 0.0150 0.5276 -0.8494
vn -0.9984 -0.0369 -0.0436
vn -0.7270 -0.6864 -0.0201
vn -0.4664 -0.5824 -0.6658
vn -0.3972 0.2995 -0.8675
vn -0.4833 -0.1443 -0.8635
vn -0.2169 0.7028 -0.6775
vn 0.2749 -0.7260 -0.6303
vn 0.5581 0.1145 -0.8218
vn 0.4719 -0.3293 -0.8178
vn 0.5244 0.5593 -0.6420
vn -0.1906 -0.9816 0.0089
vn -0.9827 -0.1809 -0.0404
vn 0.0176 0.9997 -0.0168
vn -0.1419 0.5533 0.8208
vn 0.4188 0.9081 0.0025
vn -0.3880 0.1364 -0.9115
vn -0.4769 0.3311 0.8142
vn -0.5611 -0.2838 0.7776
vn 0.0348 0.9732 0.2271
vn 0.4278 0.1631 0.8891
vn -0.5140 -0.5980 0.6150
vn -0.6577 0.6925 -0.2965
vn 0.7365 0.4835 0.4730
vn 0.8661 0.4991 0.0296
vn 0.2169 -0.7028 0.6775
vn 0.1905 0.9816 -0.0089
vn -0.9067 0.4186 0.0527
vn -0.8661 -0.4991 -0.0296
vn -0.0678 0.5238 -0.8491
vn -0.2169 0.7029 -0.6775
vn 0.2749 -0.7260 -0.6304
vn 0.0176 0.9997 -0.0169
vn -0.0594 0.5573 0.8282
vn -0.4024 0.3013 -0.8644
vn -0.4669 0.1679 0.8682
vn 0.3382 -0.3649 0.8675
vn -0.5140 -0.5980 0.6149
vn -0.5292 0.7540 -0.3890
vn 0.6992 0.4282 0.5725
s off
f 17/1/1 27/2/1 5/3/1
f 3/4/2 9/5/2 4/6/2
f 1/7/3 7/8/3 2/9/3
f 5/10/4 9/5/4 10/11/4
f 2/9/5 8/12/5 3/4/5
f 6/13/6 29/14/6 7/15/6
f 9/16/7 13/17/7 10/18/7
f 7/15/8 11/19/8 8/20/8
f 1/21/9 28/22/9 6/13/9
f 8/20/10 12/23/10 9/16/10
f 13/17/11 16/24/11 17/1/11
f 30/25/12 42/26/12 38/27/12
f 11/19/13 16/24/13 12/23/13
f 28/28/14 41/29/14 39/30/14
f 16/24/15 22/31/15 17/1/15
f 19/32/16 35/33/16 18/34/16
f 15/35/17 21/36/17 16/24/17
f 20/37/18 34/38/18 36/39/18
f 22/31/19 26/40/19 27/2/19
f 19/41/20 25/42/20 20/43/20
f 1/21/9 18/44/9 14/45/9
f 20/43/21 26/40/21 21/36/21
f 18/44/22 24/46/22 19/41/22
f 27/47/23 4/6/23 5/10/23
f 24/48/24 3/4/24 25/49/24
f 25/49/25 4/6/25 26/50/25
f 23/51/26 2/9/26 24/48/26
f 13/17/27 5/3/27 10/18/27
f 31/52/28 36/39/28 34/38/28
f 31/52/29 35/33/29 32/53/29
f 30/54/30 33/55/30 31/52/30
f 18/34/31 33/55/31 14/56/31
f 19/32/32 36/39/32 32/53/32
f 30/54/33 34/38/33 15/57/33
f 37/58/34 42/26/34 40/59/34
f 37/58/35 41/29/35 38/27/35
f 29/60/36 40/59/36 11/61/36
f 11/61/37 42/26/37 15/62/37
f 30/25/38 41/29/38 14/63/38
f 29/60/39 39/30/39 37/58/39
f 17/1/27 22/31/27 27/2/27
f 3/4/2 8/12/2 9/5/2
f 1/7/40 6/64/40 7/8/40
f 5/10/4 4/6/4 9/5/4
f 2/9/5 7/8/5 8/12/5
f 6/13/6 28/22/6 29/14/6
f 9/16/41 12/23/41 13/17/41
f 7/15/8 29/14/8 11/19/8
f 1/21/42 14/45/42 28/22/42
f 8/20/10 11/19/10 12/23/10
f 13/17/11 12/23/11 16/24/11
f 30/25/43 15/62/43 42/26/43
f 11/19/13 15/35/13 16/24/13
f 28/28/14 14/63/14 41/29/14
f 16/24/44 21/36/44 22/31/44
f 19/32/45 32/53/45 35/33/45
f 15/35/17 20/43/17 21/36/17
f 20/37/18 15/57/18 34/38/18
f 22/31/19 21/36/19 26/40/19
f 19/41/20 24/46/20 25/42/20
f 1/21/9 23/65/9 18/44/9
f 20/43/21 25/42/21 26/40/21
f 18/44/46 23/65/46 24/46/46
f 27/47/47 26/50/47 4/6/47
f 24/48/24 2/9/24 3/4/24
f 25/49/25 3/4/25 4/6/25
f 23/51/26 1/7/26 2/9/26
f 13/17/1 17/1/1 5/3/1
f 31/52/28 32/53/28 36/39/28
f 31/52/48 33/55/48 35/33/48
f 30/54/49 14/56/49 33/55/49
f 18/34/31 35/33/31 33/55/31
f 19/32/50 20/37/50 36/39/50
f 30/54/51 31/52/51 34/38/51
f 37/58/34 38/27/34 42/26/34
f 37/58/35 39/30/35 41/29/35
f 29/60/52 37/58/52 40/59/52
f 11/61/53 40/59/53 42/26/53
f 30/25/54 38/27/54 41/29/54
f 29/60/55 28/28/55 39/30/55
v 1.724064 2.147664 -0.743285
v 1.705303 2.133797 -0.726631
v 1.694548 2.109252 -0.716459
v 1.694680 2.080606 -0.715495
v 1.705664 2.055532 -0.723997
v 1.718595 2.143153 -0.770049
v 1.695831 2.125985 -0.772987
v 1.683610 2.100231 -0.769987
v 1.685207 2.072793 -0.761852
v 1.700195 2.051022 -0.750761
v 1.724242 2.084922 -0.804351
v 1.720396 2.059535 -0.791612
v 1.720511 2.043367 -0.767944
v 1.764696 2.132354 -0.777649
v 1.775812 2.078634 -0.785188
v 1.765057 2.054089 -0.775016
v 1.746296 2.040223 -0.758362
v 1.770165 2.136865 -0.750885
v 1.785153 2.115094 -0.739795
v 1.786750 2.087656 -0.731660
v 1.774529 2.061902 -0.728660
v 1.751765 2.044734 -0.731598
v 1.749849 2.144520 -0.733703
v 1.749964 2.128352 -0.710035
v 1.746118 2.102965 -0.697296
v 1.739341 2.075160 -0.698899
v 1.731449 2.052388 -0.714416
v 1.738911 2.135498 -0.787231
v 1.731019 2.112727 -0.802748
v 1.775680 2.107281 -0.786152
v 1.822937 2.120646 -0.775279
v 1.823710 2.121283 -0.771497
v 1.789299 2.133737 -0.775677
v 1.803222 2.091584 -0.775325
v 1.792006 2.135969 -0.762429
v 1.807421 2.095047 -0.754775
v 1.764314 2.119192 -0.837340
v 1.774885 2.117903 -0.833412
v 1.762242 2.128388 -0.821185
v 1.759512 2.100942 -0.824077
v 1.767087 2.127797 -0.819384
v 1.764371 2.100349 -0.822272
vt 0.274240 0.539347
vt 0.265397 0.539709
vt 0.266768 0.532487
vt 0.231414 0.551290
vt 0.214659 0.541092
vt 0.231357 0.542861
vt 0.231940 0.569242
vt 0.215985 0.562822
vt 0.231472 0.559719
vt 0.230890 0.533338
vt 0.220414 0.530957
vt 0.213134 0.552274
vt 0.289666 0.544440
vt 0.282983 0.540904
vt 0.290637 0.536818
vt 0.279682 0.529141
vt 0.275518 0.536619
vt 0.273707 0.532162
vt 0.280945 0.538772
vt 0.286431 0.530872
vt 0.290637 0.551375
vt 0.284312 0.543753
vt 0.278488 0.537315
vt 0.276318 0.541045
vt 0.804698 0.251197
vt 0.792375 0.255919
vt 0.792638 0.252041
vt 0.786357 0.239035
vt 0.792578 0.249274
vt 0.791489 0.249454
vt 0.271776 0.541127
vt 0.760733 0.199751
vt 0.757502 0.209505
vt 0.750621 0.206121
vt 0.278108 0.542645
vt 0.273009 0.544115
vt 0.772804 0.201934
vt 0.766718 0.213101
vt 0.766203 0.208706
vt 0.264007 0.548518
vt 0.277612 0.547903
vt 0.268747 0.555467
vt 0.275021 0.546378
vt 0.280714 0.548498
vt 0.281954 0.545638
vt 0.276612 0.557409
vt 0.240880 0.530957
vt 0.248168 0.561486
vt 0.249693 0.550306
vt 0.246843 0.539760
vt 0.242415 0.571620
vt 0.762287 0.211045
vt 0.762255 0.210544
vt 0.761023 0.221925
vt 0.757316 0.212491
vt 0.750922 0.216572
vt 0.772804 0.220841
vt 0.791613 0.252007
vt 0.791097 0.255536
vt 0.780068 0.250772
vt 0.780487 0.263708
vt 0.804698 0.264828
vt 0.798786 0.238814
vt 0.221949 0.571626
vt 0.283377 0.553479
vn -0.1918 -0.9606 0.2011
vn -0.9798 0.0022 0.1998
vn -0.6011 0.7991 -0.0118
vn -0.8523 -0.4586 0.2515
vn -0.8931 0.4365 0.1089
vn -0.3671 0.6073 -0.7046
vn -0.6183 -0.6504 -0.4413
vn -0.5915 0.1894 -0.7838
vn 0.1919 0.9606 -0.2011
vn -0.6782 -0.2449 -0.6928
vn 0.1084 -0.8206 -0.5611
vn 0.8067 -0.5736 -0.1425
vn 0.2582 -0.4642 -0.8472
vn 0.1564 0.9828 -0.0983
vn 0.6011 -0.7991 0.0118
vn 0.3877 0.6161 0.6856
vn 0.8931 -0.4365 -0.1089
vn 0.4051 -0.9115 0.0708
vn 0.3671 -0.6073 0.7046
vn 0.6782 0.2449 0.6928
vn 0.5915 -0.1894 0.7838
vn 0.6183 0.6504 0.4413
vn -0.3596 -0.4371 0.8244
vn -0.2582 0.4643 0.8472
vn -0.3450 0.0300 0.9381
vn -0.1084 0.8206 0.5611
vn -0.1919 -0.9606 0.2011
vn 0.8253 -0.5598 -0.0743
vn 0.3557 0.9070 -0.2256
vn 0.1303 0.3062 -0.9430
vn -0.0428 0.9866 -0.1575
vn 0.6208 0.1094 0.7763
vn 0.3509 -0.0299 -0.9359
vn 0.2095 -0.6103 -0.7640
vn 0.2709 0.8511 -0.4497
vn -0.5410 0.1792 -0.8217
vn 0.0915 -0.8468 -0.5241
vn 0.9170 0.3987 0.0090
vn -0.5988 0.6606 -0.4528
vn -0.5915 0.1894 -0.7837
vn 0.1918 0.9606 -0.2011
vn 0.9546 -0.0056 -0.2978
vn 0.2582 -0.4643 -0.8472
vn 0.1564 0.9828 -0.0984
vn 0.4606 0.5786 0.6731
vn 0.5915 -0.1894 0.7837
vn -0.2582 0.4642 0.8472
vn 0.8253 -0.5597 -0.0744
vn 0.3557 0.9070 -0.2255
vn 0.0559 0.3425 -0.9378
vn 0.6829 0.2439 0.6886
vn 0.2688 -0.1809 -0.9461
vn -0.6493 -0.3279 -0.6862
vn 0.0915 -0.8468 -0.5240
vn 0.8470 0.5216 0.1030
vn -0.6099 0.5796 -0.5405
s off
f 59/66/56 69/67/56 47/68/56
f 45/69/57 51/70/57 46/71/57
f 43/72/58 49/73/58 44/74/58
f 47/75/59 51/70/59 52/76/59
f 44/74/60 50/77/60 45/69/60
f 48/78/61 71/79/61 49/80/61
f 51/81/62 55/82/62 52/83/62
f 49/80/63 53/84/63 50/85/63
f 43/86/64 70/87/64 48/78/64
f 50/85/65 54/88/65 51/81/65
f 55/82/66 58/89/66 59/66/66
f 72/90/67 84/91/67 80/92/67
f 53/84/68 58/89/68 54/88/68
f 70/93/69 83/94/69 81/95/69
f 58/89/70 64/96/70 59/66/70
f 61/97/71 77/98/71 60/99/71
f 57/100/72 63/101/72 58/89/72
f 62/102/73 76/103/73 78/104/73
f 64/96/74 68/105/74 69/67/74
f 61/106/75 67/107/75 62/108/75
f 43/86/64 60/109/64 56/110/64
f 62/108/76 68/105/76 63/101/76
f 60/109/77 66/111/77 61/106/77
f 69/112/78 46/71/78 47/75/78
f 66/113/79 45/69/79 67/114/79
f 67/114/80 46/71/80 68/115/80
f 65/116/81 44/74/81 66/113/81
f 55/82/82 47/68/82 52/83/82
f 73/117/83 78/104/83 76/103/83
f 73/117/84 77/98/84 74/118/84
f 72/119/85 75/120/85 73/117/85
f 60/99/86 75/120/86 56/121/86
f 61/97/87 78/104/87 74/118/87
f 72/119/88 76/103/88 57/122/88
f 79/123/89 84/91/89 82/124/89
f 79/123/90 83/94/90 80/92/90
f 71/125/91 82/124/91 53/126/91
f 53/126/92 84/91/92 57/127/92
f 72/90/93 83/94/93 56/128/93
f 71/125/94 81/95/94 79/123/94
f 59/66/82 64/96/82 69/67/82
f 45/69/57 50/77/57 51/70/57
f 43/72/58 48/129/58 49/73/58
f 47/75/59 46/71/59 51/70/59
f 44/74/60 49/73/60 50/77/60
f 48/78/61 70/87/61 71/79/61
f 51/81/62 54/88/62 55/82/62
f 49/80/95 71/79/95 53/84/95
f 43/86/96 56/110/96 70/87/96
f 50/85/65 53/84/65 54/88/65
f 55/82/66 54/88/66 58/89/66
f 72/90/97 57/127/97 84/91/97
f 53/84/98 57/100/98 58/89/98
f 70/93/99 56/128/99 83/94/99
f 58/89/70 63/101/70 64/96/70
f 61/97/100 74/118/100 77/98/100
f 57/100/72 62/108/72 63/101/72
f 62/102/73 57/122/73 76/103/73
f 64/96/74 63/101/74 68/105/74
f 61/106/75 66/111/75 67/107/75
f 43/86/64 65/130/64 60/109/64
f 62/108/101 67/107/101 68/105/101
f 60/109/77 65/130/77 66/111/77
f 69/112/78 68/115/78 46/71/78
f 66/113/102 44/74/102 45/69/102
f 67/114/80 45/69/80 46/71/80
f 65/116/81 43/72/81 44/74/81
f 55/82/56 59/66/56 47/68/56
f 73/117/103 74/118/103 78/104/103
f 73/117/104 75/120/104 77/98/104
f 72/119/105 56/121/105 75/120/105
f 60/99/86 77/98/86 75/120/86
f 61/97/106 62/102/106 78/104/106
f 72/119/107 73/117/107 76/103/107
f 79/123/89 80/92/89 84/91/89
f 79/123/90 81/95/90 83/94/90
f 71/125/108 79/123/108 82/124/108
f 53/126/109 82/124/109 84/91/109
f 72/90/110 80/92/110 83/94/110
f 71/125/111 70/93/111 81/95/111
