# Blender v2.81 (sub 16) OBJ File: 'garbage.blend'
# www.blender.org
v 0.377049 2.689011 1.276592
v 0.365415 2.663043 1.273136
v 0.366741 2.634605 1.276470
v 0.380670 2.611317 1.285701
v 0.403472 2.599417 1.298355
v 0.399598 2.691819 1.260773
v 0.404471 2.667906 1.245738
v 0.411839 2.640221 1.244834
v 0.419726 2.616179 1.258303
v 0.426021 2.602225 1.282536
v 0.458878 2.659438 1.266839
v 0.460464 2.632823 1.277360
v 0.449540 2.611834 1.293539
v 0.424089 2.708229 1.298597
v 0.460819 2.673041 1.320481
v 0.462145 2.644603 1.323815
v 0.450511 2.618635 1.320360
v 0.401539 2.705421 1.314415
v 0.407834 2.691467 1.338648
v 0.415721 2.667426 1.352118
v 0.423089 2.639740 1.351213
v 0.427962 2.615828 1.336178
v 0.378020 2.695812 1.303412
v 0.367096 2.674824 1.319591
v 0.368682 2.648208 1.330112
v 0.382351 2.623097 1.332156
v 0.404442 2.606219 1.325175
v 0.423118 2.701427 1.271776
v 0.445209 2.684550 1.264795
v 0.446890 2.696330 1.311250
v 0.444307 2.726442 1.351457
v 0.441120 2.726045 1.353692
v 0.428598 2.720679 1.319471
v 0.453767 2.693475 1.343911
v 0.417436 2.719289 1.327301
v 0.436454 2.691319 1.356056
v 0.479244 2.717765 1.274034
v 0.479642 2.720553 1.285029
v 0.460827 2.718650 1.277177
v 0.476483 2.696241 1.281853
v 0.461009 2.719928 1.282217
v 0.476665 2.697522 1.286906
vt 0.274240 0.539347
vt 0.265397 0.539709
vt 0.266768 0.532487
vt 0.231414 0.551290
vt 0.214659 0.541092
vt 0.231357 0.542861
vt 0.231940 0.569242
vt 0.215985 0.562822
vt 0.231472 0.559719
vt 0.230890 0.533338
vt 0.220414 0.530957
vt 0.213134 0.552274
vt 0.289666 0.544440
vt 0.282983 0.540904
vt 0.290637 0.536818
vt 0.279682 0.529141
vt 0.275518 0.536619
vt 0.273707 0.532162
vt 0.280945 0.538772
vt 0.286431 0.530872
vt 0.290637 0.551375
vt 0.284312 0.543753
vt 0.278488 0.537315
vt 0.276318 0.541045
vt 0.804698 0.251197
vt 0.792375 0.255919
vt 0.792638 0.252041
vt 0.786357 0.239035
vt 0.792578 0.249274
vt 0.791489 0.249454
vt 0.271776 0.541127
vt 0.760733 0.199751
vt 0.757502 0.209505
vt 0.750621 0.206121
vt 0.278108 0.542645
vt 0.273009 0.544115
vt 0.772804 0.201934
vt 0.766718 0.213101
vt 0.766203 0.208706
vt 0.264007 0.548518
vt 0.277612 0.547903
vt 0.268747 0.555467
vt 0.275021 0.546378
vt 0.280714 0.548498
vt 0.281954 0.545638
vt 0.276612 0.557409
vt 0.240880 0.530957
vt 0.248168 0.561486
vt 0.249693 0.550306
vt 0.246843 0.539760
vt 0.242415 0.571620
vt 0.762287 0.211045
vt 0.762255 0.210544
vt 0.761023 0.221925
vt 0.757316 0.212491
vt 0.750922 0.216572
vt 0.772804 0.220841
vt 0.791613 0.252007
vt 0.791097 0.255536
vt 0.780068 0.250772
vt 0.780487 0.263708
vt 0.804698 0.264828
vt 0.798786 0.238814
vt 0.221949 0.571626
vt 0.283377 0.553479
vn 0.2755 -0.9341 0.2269
vn -0.4352 -0.5445 -0.7170
vn -0.5664 0.3529 -0.7448
vn -0.2057 -0.8702 -0.4477
vn -0.5598 -0.1222 -0.8196
vn 0.1598 0.5486 -0.8207
vn 0.5205 -0.6745 -0.5236
vn 0.3760 0.1300 -0.9174
vn -0.2755 0.9341 -0.2269
vn 0.5006 -0.2923 -0.8148
vn 0.9065 -0.4158 0.0726
vn 0.6333 -0.0188 0.7737
vn 0.9981 0.0411 -0.0465
vn -0.3802 0.8997 -0.2144
vn 0.5664 -0.3529 0.7448
vn -0.7655 0.4513 0.4587
vn 0.5598 0.1222 0.8196
vn 0.5217 -0.5589 0.6445
vn -0.1598 -0.5486 0.8207
vn -0.5006 0.2923 0.8148
vn -0.3761 -0.1300 0.9174
vn -0.5205 0.6745 0.5236
vn -0.5458 -0.8073 0.2244
vn -0.9981 -0.0411 0.0465
vn -0.8735 -0.4634 0.1491
vn -0.9065 0.4158 -0.0726
vn 0.5760 -0.0218 0.8172
vn -0.1828 0.9793 -0.0867
vn 0.6457 0.6305 -0.4307
vn -0.3893 0.8257 -0.4083
vn -0.5150 0.1269 0.8478
vn 0.8733 0.4656 -0.1432
vn 0.9917 -0.1284 -0.0033
vn 0.0046 0.9693 -0.2459
vn 0.4261 0.1595 -0.8905
vn 0.8851 -0.4577 0.0840
vn 0.0427 0.7650 0.6426
vn -0.1364 0.3927 -0.9095
vn 0.3761 0.1300 -0.9174
vn 0.5096 0.5628 0.6509
vn -0.7159 0.4610 0.5244
vn 0.5597 0.1222 0.8196
vn -0.5458 -0.8073 0.2245
vn 0.5760 -0.0218 0.8171
vn 0.6023 0.6216 -0.5008
vn -0.3893 0.8257 -0.4084
vn -0.4954 0.2952 0.8170
vn 0.9362 0.3076 -0.1702
vn 0.5457 -0.3471 -0.7627
vn -0.1161 0.7976 0.5918
vn -0.0267 0.3520 -0.9356
s off
f 17/1/1 27/2/1 5/3/1
f 3/4/2 9/5/2 4/6/2
f 1/7/3 7/8/3 2/9/3
f 5/10/4 9/5/4 10/11/4
f 2/9/5 8/12/5 3/4/5
f 6/13/6 29/14/6 7/15/6
f 9/16/7 13/17/7 10/18/7
f 7/15/8 11/19/8 8/20/8
f 1/21/9 28/22/9 6/13/9
f 8/20/10 12/23/10 9/16/10
f 13/17/11 16/24/11 17/1/11
f 30/25/12 42/26/12 38/27/12
f 11/19/13 16/24/13 12/23/13
f 28/28/14 41/29/14 39/30/14
f 16/24/15 22/31/15 17/1/15
f 19/32/16 35/33/16 18/34/16
f 15/35/17 21/36/17 16/24/17
f 20/37/18 34/38/18 36/39/18
f 22/31/19 26/40/19 27/2/19
f 19/41/20 25/42/20 20/43/20
f 1/21/9 18/44/9 14/45/9
f 20/43/21 26/40/21 21/36/21
f 18/44/22 24/46/22 19/41/22
f 27/47/23 4/6/23 5/10/23
f 24/48/24 3/4/24 25/49/24
f 25/49/25 4/6/25 26/50/25
f 23/51/26 2/9/26 24/48/26
f 13/17/1 5/3/1 10/18/1
f 31/52/27 36/39/27 34/38/27
f 31/52/28 35/33/28 32/53/28
f 30/54/29 33/55/29 31/52/29
f 18/34/30 33/55/30 14/56/30
f 19/32/31 36/39/31 32/53/31
f 30/54/32 34/38/32 15/57/32
f 37/58/33 42/26/33 40/59/33
f 37/58/34 41/29/34 38/27/34
f 29/60/35 40/59/35 11/61/35
f 11/61/36 42/26/36 15/62/36
f 30/25/37 41/29/37 14/63/37
f 29/60/38 39/30/38 37/58/38
f 17/1/1 22/31/1 27/2/1
f 3/4/2 8/12/2 9/5/2
f 1/7/3 6/64/3 7/8/3
f 5/10/4 4/6/4 9/5/4
f 2/9/5 7/8/5 8/12/5
f 6/13/6 28/22/6 29/14/6
f 9/16/7 12/23/7 13/17/7
f 7/15/39 29/14/39 11/19/39
f 1/21/9 14/45/9 28/22/9
f 8/20/10 11/19/10 12/23/10
f 13/17/11 12/23/11 16/24/11
f 30/25/40 15/62/40 42/26/40
f 11/19/13 15/35/13 16/24/13
f 28/28/14 14/63/14 41/29/14
f 16/24/15 21/36/15 22/31/15
f 19/32/41 32/53/41 35/33/41
f 15/35/42 20/43/42 21/36/42
f 20/37/18 15/57/18 34/38/18
f 22/31/19 21/36/19 26/40/19
f 19/41/20 24/46/20 25/42/20
f 1/21/9 23/65/9 18/44/9
f 20/43/21 25/42/21 26/40/21
f 18/44/22 23/65/22 24/46/22
f 27/47/43 26/50/43 4/6/43
f 24/48/24 2/9/24 3/4/24
f 25/49/25 3/4/25 4/6/25
f 23/51/26 1/7/26 2/9/26
f 13/17/1 17/1/1 5/3/1
f 31/52/44 32/53/44 36/39/44
f 31/52/28 33/55/28 35/33/28
f 30/54/45 14/56/45 33/55/45
f 18/34/46 35/33/46 33/55/46
f 19/32/47 20/37/47 36/39/47
f 30/54/48 31/52/48 34/38/48
f 37/58/33 38/27/33 42/26/33
f 37/58/34 39/30/34 41/29/34
f 29/60/49 37/58/49 40/59/49
f 11/61/36 40/59/36 42/26/36
f 30/25/50 38/27/50 41/29/50
f 29/60/51 28/28/51 39/30/51
v 1.017828 1.812065 -1.377201
v 1.027494 1.785425 -1.372899
v 1.022408 1.757430 -1.369436
v 1.003933 1.735580 -1.367739
v 0.977020 1.725731 -1.368263
v 1.003693 1.821029 -1.355146
v 1.003011 1.800952 -1.334700
v 0.994137 1.775359 -1.325328
v 0.979450 1.751107 -1.329540
v 0.962884 1.734696 -1.346209
v 0.944170 1.798295 -1.331919
v 0.936177 1.770971 -1.335248
v 0.937901 1.746164 -1.349504
v 0.967861 1.835001 -1.383792
v 0.922473 1.803303 -1.382618
v 0.917387 1.775307 -1.379155
v 0.927052 1.748667 -1.374854
v 0.981996 1.826036 -1.405846
v 0.965431 1.809625 -1.422514
v 0.950744 1.785373 -1.426727
v 0.941870 1.759780 -1.417354
v 0.941188 1.739703 -1.396908
v 1.006980 1.814568 -1.402550
v 1.008704 1.789761 -1.416806
v 1.000711 1.762437 -1.420136
v 0.985143 1.739916 -1.411646
v 0.966171 1.728234 -1.393613
v 0.978709 1.832498 -1.358442
v 0.959738 1.820816 -1.340408
v 0.940948 1.825152 -1.384315
v 0.930171 1.847628 -1.428004
v 0.932169 1.846361 -1.431121
v 0.956629 1.844534 -1.403642
v 0.921526 1.818297 -1.410735
v 0.963625 1.840096 -1.414559
v 0.932380 1.811413 -1.427668
v 0.927956 1.857274 -1.343197
v 0.923509 1.858300 -1.353589
v 0.943641 1.854604 -1.353031
v 0.925462 1.834621 -1.346759
v 0.941603 1.855074 -1.357794
v 0.923418 1.835093 -1.351536
vt 0.274240 0.539347
vt 0.265397 0.539709
vt 0.266768 0.532487
vt 0.231414 0.551290
vt 0.214659 0.541092
vt 0.231357 0.542861
vt 0.231940 0.569242
vt 0.215985 0.562822
vt 0.231472 0.559719
vt 0.230890 0.533338
vt 0.220414 0.530957
vt 0.213134 0.552274
vt 0.289666 0.544440
vt 0.282983 0.540904
vt 0.290637 0.536818
vt 0.279682 0.529141
vt 0.275518 0.536619
vt 0.273707 0.532162
vt 0.280945 0.538772
vt 0.286431 0.530872
vt 0.290637 0.551375
vt 0.284312 0.543753
vt 0.278488 0.537315
vt 0.276318 0.541045
vt 0.804698 0.251197
vt 0.792375 0.255919
vt 0.792638 0.252041
vt 0.786357 0.239035
vt 0.792578 0.249274
vt 0.791489 0.249454
vt 0.271776 0.541127
vt 0.760733 0.199751
vt 0.757502 0.209505
vt 0.750621 0.206121
vt 0.278108 0.542645
vt 0.273009 0.544115
vt 0.772804 0.201934
vt 0.766718 0.213101
vt 0.766203 0.208706
vt 0.264007 0.548518
vt 0.277612 0.547903
vt 0.268747 0.555467
vt 0.275021 0.546378
vt 0.280714 0.548498
vt 0.281954 0.545638
vt 0.276612 0.557409
vt 0.240880 0.530957
vt 0.248168 0.561486
vt 0.249693 0.550306
vt 0.246843 0.539760
vt 0.242415 0.571620
vt 0.762287 0.211045
vt 0.762255 0.210544
vt 0.761023 0.221925
vt 0.757316 0.212491
vt 0.750922 0.216572
vt 0.772804 0.220841
vt 0.791613 0.252007
vt 0.791097 0.255536
vt 0.780068 0.250772
vt 0.780487 0.263708
vt 0.804698 0.264828
vt 0.798786 0.238814
vt 0.221949 0.571626
vt 0.283377 0.553479
vn -0.4255 -0.9002 0.0932
vn 0.6317 -0.4873 0.6029
vn 0.8434 0.3690 0.3905
vn 0.2863 -0.8095 0.5125
vn 0.8240 -0.0803 0.5608
vn 0.2267 0.6911 0.6862
vn -0.3304 -0.4874 0.8083
vn 0.0294 0.3347 0.9419
vn 0.4255 0.9002 -0.0932
vn -0.1629 -0.0722 0.9840
vn -0.8952 -0.2672 0.3567
vn -0.8859 -0.0375 -0.4624
vn -0.8908 0.2116 0.4021
vn 0.5132 0.8474 -0.1360
vn -0.8434 -0.3690 -0.3905
vn 0.5599 0.2402 -0.7930
vn -0.8240 0.0803 -0.5608
vn -0.7815 -0.5610 -0.2729
vn -0.2267 -0.6911 -0.6862
vn 0.1629 0.0722 -0.9840
vn -0.0294 -0.3347 -0.9419
vn 0.3304 0.4874 -0.8082
vn 0.3381 -0.9114 -0.2347
vn 0.8908 -0.2116 -0.4021
vn 0.6984 -0.6185 -0.3600
vn 0.8952 0.2672 -0.3567
vn -0.8509 -0.0567 -0.5223
vn 0.2895 0.9370 -0.1954
vn -0.3640 0.7886 0.4955
vn 0.5913 0.8048 0.0519
vn 0.1482 -0.0964 -0.9842
vn -0.7004 0.6197 0.3541
vn -0.9173 0.0387 0.3964
vn 0.1800 0.9835 0.0201
vn -0.0243 0.3673 0.9298
vn -0.8839 -0.3133 0.3473
vn -0.2235 0.6493 -0.7270
vn 0.5186 0.5048 0.6901
vn 0.2863 -0.8095 0.5126
vn -0.3304 -0.4874 0.8082
vn -0.1630 -0.0722 0.9840
vn -0.6720 0.5278 -0.5194
vn 0.5132 0.8474 -0.1359
vn 0.4895 0.2473 -0.8362
vn 0.1630 0.0722 -0.9840
vn 0.6985 -0.6185 -0.3600
vn -0.2975 0.7840 0.5448
vn 0.1576 0.0756 -0.9846
vn -0.7614 0.4806 0.4350
vn -0.9173 0.0386 0.3964
vn -0.2297 -0.1265 0.9650
vn -0.0553 0.6630 -0.7466
vn 0.4249 0.4874 0.7628
s off
f 59/66/52 69/67/52 47/68/52
f 45/69/53 51/70/53 46/71/53
f 43/72/54 49/73/54 44/74/54
f 47/75/55 51/70/55 52/76/55
f 44/74/56 50/77/56 45/69/56
f 48/78/57 71/79/57 49/80/57
f 51/81/58 55/82/58 52/83/58
f 49/80/59 53/84/59 50/85/59
f 43/86/60 70/87/60 48/78/60
f 50/85/61 54/88/61 51/81/61
f 55/82/62 58/89/62 59/66/62
f 72/90/63 84/91/63 80/92/63
f 53/84/64 58/89/64 54/88/64
f 70/93/65 83/94/65 81/95/65
f 58/89/66 64/96/66 59/66/66
f 61/97/67 77/98/67 60/99/67
f 57/100/68 63/101/68 58/89/68
f 62/102/69 76/103/69 78/104/69
f 64/96/70 68/105/70 69/67/70
f 61/106/71 67/107/71 62/108/71
f 43/86/60 60/109/60 56/110/60
f 62/108/72 68/105/72 63/101/72
f 60/109/73 66/111/73 61/106/73
f 69/112/74 46/71/74 47/75/74
f 66/113/75 45/69/75 67/114/75
f 67/114/76 46/71/76 68/115/76
f 65/116/77 44/74/77 66/113/77
f 55/82/52 47/68/52 52/83/52
f 73/117/78 78/104/78 76/103/78
f 73/117/79 77/98/79 74/118/79
f 72/119/80 75/120/80 73/117/80
f 60/99/81 75/120/81 56/121/81
f 61/97/82 78/104/82 74/118/82
f 72/119/83 76/103/83 57/122/83
f 79/123/84 84/91/84 82/124/84
f 79/123/85 83/94/85 80/92/85
f 71/125/86 82/124/86 53/126/86
f 53/126/87 84/91/87 57/127/87
f 72/90/88 83/94/88 56/128/88
f 71/125/89 81/95/89 79/123/89
f 59/66/52 64/96/52 69/67/52
f 45/69/53 50/77/53 51/70/53
f 43/72/54 48/129/54 49/73/54
f 47/75/90 46/71/90 51/70/90
f 44/74/56 49/73/56 50/77/56
f 48/78/57 70/87/57 71/79/57
f 51/81/91 54/88/91 55/82/91
f 49/80/59 71/79/59 53/84/59
f 43/86/60 56/110/60 70/87/60
f 50/85/92 53/84/92 54/88/92
f 55/82/62 54/88/62 58/89/62
f 72/90/93 57/127/93 84/91/93
f 53/84/64 57/100/64 58/89/64
f 70/93/94 56/128/94 83/94/94
f 58/89/66 63/101/66 64/96/66
f 61/97/95 74/118/95 77/98/95
f 57/100/68 62/108/68 63/101/68
f 62/102/69 57/122/69 76/103/69
f 64/96/70 63/101/70 68/105/70
f 61/106/96 66/111/96 67/107/96
f 43/86/60 65/130/60 60/109/60
f 62/108/72 67/107/72 68/105/72
f 60/109/73 65/130/73 66/111/73
f 69/112/74 68/115/74 46/71/74
f 66/113/75 44/74/75 45/69/75
f 67/114/97 45/69/97 46/71/97
f 65/116/77 43/72/77 44/74/77
f 55/82/52 59/66/52 47/68/52
f 73/117/78 74/118/78 78/104/78
f 73/117/79 75/120/79 77/98/79
f 72/119/98 56/121/98 75/120/98
f 60/99/81 77/98/81 75/120/81
f 61/97/99 62/102/99 78/104/99
f 72/119/100 73/117/100 76/103/100
f 79/123/101 80/92/101 84/91/101
f 79/123/85 81/95/85 83/94/85
f 71/125/102 79/123/102 82/124/102
f 53/126/87 82/124/87 84/91/87
f 72/90/103 80/92/103 83/94/103
f 71/125/104 70/93/104 81/95/104
