# Blender v2.81 (sub 16) OBJ File: 'garbage.blend'
# www.blender.org
v 0.941146 2.840196 1.395187
v 0.920102 2.821256 1.399662
v 0.911604 2.794518 1.405532
v 0.917929 2.767146 1.411223
v 0.937382 2.746475 1.415211
v 0.954480 2.834616 1.371573
v 0.943198 2.811590 1.358762
v 0.938272 2.783357 1.358304
v 0.941024 2.757480 1.370322
v 0.950716 2.740895 1.391597
v 0.993592 2.780993 1.357638
v 0.988932 2.755433 1.369746
v 0.978375 2.739712 1.391264
v 0.996465 2.837832 1.394521
v 1.022243 2.789790 1.404200
v 1.013744 2.763052 1.410069
v 0.992701 2.744111 1.414544
v 0.983131 2.843413 1.418135
v 0.992822 2.826828 1.439409
v 0.995574 2.800951 1.451427
v 0.990649 2.772717 1.450970
v 0.979367 2.749692 1.438158
v 0.955471 2.844595 1.418468
v 0.944914 2.828875 1.439986
v 0.940255 2.803315 1.452094
v 0.942741 2.774765 1.451547
v 0.951707 2.750874 1.438491
v 0.982140 2.833434 1.371240
v 0.991105 2.809543 1.358185
v 1.015918 2.817161 1.398509
v 1.041717 2.843597 1.432649
v 1.039832 2.844386 1.435986
v 1.013481 2.846308 1.410323
v 1.033792 2.810050 1.425933
v 1.006880 2.849071 1.422012
v 1.023554 2.814335 1.444064
v 1.035852 2.825866 1.349333
v 1.041725 2.827669 1.358877
v 1.022211 2.833858 1.359329
v 1.028453 2.806847 1.360084
v 1.024902 2.834684 1.363703
v 1.031152 2.807676 1.364471
vt 0.274240 0.539347
vt 0.265397 0.539709
vt 0.266768 0.532487
vt 0.231414 0.551290
vt 0.214659 0.541092
vt 0.231357 0.542861
vt 0.231940 0.569242
vt 0.215985 0.562822
vt 0.231472 0.559719
vt 0.230890 0.533338
vt 0.220414 0.530957
vt 0.213134 0.552274
vt 0.289666 0.544440
vt 0.282983 0.540904
vt 0.290637 0.536818
vt 0.279682 0.529141
vt 0.275518 0.536619
vt 0.273707 0.532162
vt 0.280945 0.538772
vt 0.286431 0.530872
vt 0.290637 0.551375
vt 0.284312 0.543753
vt 0.278488 0.537315
vt 0.276318 0.541045
vt 0.804698 0.251197
vt 0.792375 0.255919
vt 0.792638 0.252041
vt 0.786357 0.239035
vt 0.792578 0.249274
vt 0.791489 0.249454
vt 0.271776 0.541127
vt 0.760733 0.199751
vt 0.757502 0.209505
vt 0.750621 0.206121
vt 0.278108 0.542645
vt 0.273009 0.544115
vt 0.772804 0.201934
vt 0.766718 0.213101
vt 0.766203 0.208706
vt 0.264007 0.548518
vt 0.277612 0.547903
vt 0.268747 0.555467
vt 0.275021 0.546378
vt 0.280714 0.548498
vt 0.281954 0.545638
vt 0.276612 0.557409
vt 0.240880 0.530957
vt 0.248168 0.561486
vt 0.249693 0.550306
vt 0.246843 0.539760
vt 0.242415 0.571620
vt 0.762287 0.211045
vt 0.762255 0.210544
vt 0.761023 0.221925
vt 0.757316 0.212491
vt 0.750922 0.216572
vt 0.772804 0.220841
vt 0.791613 0.252007
vt 0.791097 0.255536
vt 0.780068 0.250772
vt 0.780487 0.263708
vt 0.804698 0.264828
vt 0.798786 0.238814
vt 0.221949 0.571626
vt 0.283377 0.553479
vn -0.0392 -0.9772 0.2088
vn -0.8617 -0.2862 -0.4189
vn -0.6361 0.5890 -0.4984
vn -0.6875 -0.6904 -0.2251
vn -0.8440 0.1555 -0.5133
vn 0.0101 0.4824 -0.8759
vn -0.0413 -0.7970 -0.6025
vn -0.0113 0.0182 -0.9998
vn 0.0392 0.9772 -0.2088
vn -0.0290 -0.4236 -0.9054
vn 0.6205 -0.7463 -0.2408
vn 0.8320 -0.3115 0.4592
vn 0.8238 -0.3583 -0.4393
vn -0.0557 0.9868 -0.1521
vn 0.6361 -0.5890 0.4984
vn -0.2740 0.6940 0.6658
vn 0.8440 -0.1555 0.5133
vn 0.4790 -0.7544 0.4488
vn -0.0101 -0.4824 0.8759
vn 0.0290 0.4236 0.9054
vn 0.0113 -0.0182 0.9998
vn 0.0413 0.7970 0.6025
vn -0.6719 -0.5331 0.5142
vn -0.8238 0.3583 0.4393
vn -0.8416 -0.0835 0.5336
vn -0.6205 0.7463 0.2408
vn 0.8010 -0.2937 0.5217
vn 0.1905 0.9740 -0.1227
vn 0.6027 0.3425 -0.7207
vn -0.1705 0.9330 -0.3168
vn -0.0332 0.2762 0.9605
vn 0.8447 0.0853 -0.5284
vn 0.7709 -0.5132 -0.3774
vn 0.2771 0.8986 -0.3402
vn 0.0525 0.0237 -0.9983
vn 0.5913 -0.7767 -0.2171
vn 0.5911 0.6488 0.4792
vn -0.3314 0.4627 -0.8222
vn -0.0413 -0.7970 -0.6026
vn 0.9035 0.2768 0.3272
vn 0.8238 -0.3583 -0.4392
vn -0.0557 0.9868 -0.1522
vn -0.2024 0.6795 0.7052
vn 0.0413 0.7970 0.6026
vn -0.8238 0.3583 0.4392
vn 0.8010 -0.2936 0.5217
vn 0.5348 0.3554 -0.7666
vn 0.0353 0.4241 0.9049
vn 0.8249 -0.0829 -0.5591
vn 0.0085 -0.4946 -0.8691
vn 0.4515 0.7447 0.4915
vn -0.2669 0.3831 -0.8843
s off
f 17/1/1 27/2/1 5/3/1
f 3/4/2 9/5/2 4/6/2
f 1/7/3 7/8/3 2/9/3
f 5/10/4 9/5/4 10/11/4
f 2/9/5 8/12/5 3/4/5
f 6/13/6 29/14/6 7/15/6
f 9/16/7 13/17/7 10/18/7
f 7/15/8 11/19/8 8/20/8
f 1/21/9 28/22/9 6/13/9
f 8/20/10 12/23/10 9/16/10
f 13/17/11 16/24/11 17/1/11
f 30/25/12 42/26/12 38/27/12
f 11/19/13 16/24/13 12/23/13
f 28/28/14 41/29/14 39/30/14
f 16/24/15 22/31/15 17/1/15
f 19/32/16 35/33/16 18/34/16
f 15/35/17 21/36/17 16/24/17
f 20/37/18 34/38/18 36/39/18
f 22/31/19 26/40/19 27/2/19
f 19/41/20 25/42/20 20/43/20
f 1/21/9 18/44/9 14/45/9
f 20/43/21 26/40/21 21/36/21
f 18/44/22 24/46/22 19/41/22
f 27/47/23 4/6/23 5/10/23
f 24/48/24 3/4/24 25/49/24
f 25/49/25 4/6/25 26/50/25
f 23/51/26 2/9/26 24/48/26
f 13/17/1 5/3/1 10/18/1
f 31/52/27 36/39/27 34/38/27
f 31/52/28 35/33/28 32/53/28
f 30/54/29 33/55/29 31/52/29
f 18/34/30 33/55/30 14/56/30
f 19/32/31 36/39/31 32/53/31
f 30/54/32 34/38/32 15/57/32
f 37/58/33 42/26/33 40/59/33
f 37/58/34 41/29/34 38/27/34
f 29/60/35 40/59/35 11/61/35
f 11/61/36 42/26/36 15/62/36
f 30/25/37 41/29/37 14/63/37
f 29/60/38 39/30/38 37/58/38
f 17/1/1 22/31/1 27/2/1
f 3/4/2 8/12/2 9/5/2
f 1/7/3 6/64/3 7/8/3
f 5/10/4 4/6/4 9/5/4
f 2/9/5 7/8/5 8/12/5
f 6/13/6 28/22/6 29/14/6
f 9/16/39 12/23/39 13/17/39
f 7/15/8 29/14/8 11/19/8
f 1/21/9 14/45/9 28/22/9
f 8/20/10 11/19/10 12/23/10
f 13/17/11 12/23/11 16/24/11
f 30/25/40 15/62/40 42/26/40
f 11/19/41 15/35/41 16/24/41
f 28/28/42 14/63/42 41/29/42
f 16/24/15 21/36/15 22/31/15
f 19/32/43 32/53/43 35/33/43
f 15/35/17 20/43/17 21/36/17
f 20/37/18 15/57/18 34/38/18
f 22/31/19 21/36/19 26/40/19
f 19/41/20 24/46/20 25/42/20
f 1/21/9 23/65/9 18/44/9
f 20/43/21 25/42/21 26/40/21
f 18/44/44 23/65/44 24/46/44
f 27/47/23 26/50/23 4/6/23
f 24/48/45 2/9/45 3/4/45
f 25/49/25 3/4/25 4/6/25
f 23/51/26 1/7/26 2/9/26
f 13/17/1 17/1/1 5/3/1
f 31/52/46 32/53/46 36/39/46
f 31/52/28 33/55/28 35/33/28
f 30/54/47 14/56/47 33/55/47
f 18/34/30 35/33/30 33/55/30
f 19/32/48 20/37/48 36/39/48
f 30/54/49 31/52/49 34/38/49
f 37/58/33 38/27/33 42/26/33
f 37/58/34 39/30/34 41/29/34
f 29/60/50 37/58/50 40/59/50
f 11/61/36 40/59/36 42/26/36
f 30/25/51 38/27/51 41/29/51
f 29/60/52 28/28/52 39/30/52
v 0.876897 2.289134 -1.246565
v 0.888544 2.263178 -1.250061
v 0.886025 2.234625 -1.249985
v 0.870017 2.211127 -1.246357
v 0.844808 2.198979 -1.240149
v 0.870253 2.293388 -1.220026
v 0.877035 2.270545 -1.204095
v 0.872736 2.243133 -1.196907
v 0.858508 2.218495 -1.200390
v 0.838163 2.203233 -1.213611
v 0.822390 2.261996 -1.183652
v 0.814907 2.234831 -1.188911
v 0.812990 2.212665 -1.206983
v 0.826551 2.307998 -1.233310
v 0.785334 2.272352 -1.223475
v 0.782815 2.243799 -1.223398
v 0.794462 2.217843 -1.226894
v 0.833196 2.303744 -1.259849
v 0.812851 2.288482 -1.273069
v 0.798623 2.263844 -1.276552
v 0.794324 2.236432 -1.269365
v 0.801106 2.213589 -1.253433
v 0.858369 2.294312 -1.266477
v 0.856452 2.272146 -1.284549
v 0.848969 2.244981 -1.289808
v 0.837925 2.220095 -1.280844
v 0.826279 2.204157 -1.260061
v 0.845080 2.302820 -1.213399
v 0.833434 2.286882 -1.192615
v 0.801342 2.295850 -1.227103
v 0.776137 2.323400 -1.260803
v 0.777076 2.322798 -1.264553
v 0.809135 2.319251 -1.246768
v 0.774755 2.291166 -1.246935
v 0.812424 2.317145 -1.259905
v 0.779857 2.287899 -1.267311
v 0.800944 2.320207 -1.179165
v 0.793348 2.322330 -1.187328
v 0.812725 2.320498 -1.193691
v 0.798391 2.298193 -1.185560
v 0.809244 2.321471 -1.197432
v 0.794900 2.299168 -1.189312
vt 0.274240 0.539347
vt 0.265397 0.539709
vt 0.266768 0.532487
vt 0.231414 0.551290
vt 0.214659 0.541092
vt 0.231357 0.542861
vt 0.231940 0.569242
vt 0.215985 0.562822
vt 0.231472 0.559719
vt 0.230890 0.533338
vt 0.220414 0.530957
vt 0.213134 0.552274
vt 0.289666 0.544440
vt 0.282983 0.540904
vt 0.290637 0.536818
vt 0.279682 0.529141
vt 0.275518 0.536619
vt 0.273707 0.532162
vt 0.280945 0.538772
vt 0.286431 0.530872
vt 0.290637 0.551375
vt 0.284312 0.543753
vt 0.278488 0.537315
vt 0.276318 0.541045
vt 0.804698 0.251197
vt 0.792375 0.255919
vt 0.792638 0.252041
vt 0.786357 0.239035
vt 0.792578 0.249274
vt 0.791489 0.249454
vt 0.271776 0.541127
vt 0.760733 0.199751
vt 0.757502 0.209505
vt 0.750621 0.206121
vt 0.278108 0.542645
vt 0.273009 0.544115
vt 0.772804 0.201934
vt 0.766718 0.213101
vt 0.766203 0.208706
vt 0.264007 0.548518
vt 0.277612 0.547903
vt 0.268747 0.555467
vt 0.275021 0.546378
vt 0.280714 0.548498
vt 0.281954 0.545638
vt 0.276612 0.557409
vt 0.240880 0.530957
vt 0.248168 0.561486
vt 0.249693 0.550306
vt 0.246843 0.539760
vt 0.242415 0.571620
vt 0.762287 0.211045
vt 0.762255 0.210544
vt 0.761023 0.221925
vt 0.757316 0.212491
vt 0.750922 0.216572
vt 0.772804 0.220841
vt 0.791613 0.252007
vt 0.791097 0.255536
vt 0.780068 0.250772
vt 0.780487 0.263708
vt 0.804698 0.264828
vt 0.798786 0.238814
vt 0.221949 0.571626
vt 0.283377 0.553479
vn -0.3346 -0.9400 0.0669
vn 0.8121 -0.5093 0.2849
vn 0.9079 0.3851 0.1656
vn 0.4698 -0.8457 0.2532
vn 0.9633 -0.0843 0.2547
vn 0.4064 0.6008 0.6884
vn -0.0317 -0.6299 0.7760
vn 0.3170 0.1937 0.9284
vn 0.3346 0.9400 -0.0669
vn 0.1658 -0.2313 0.9587
vn -0.7206 -0.3996 0.5666
vn -0.9852 -0.0520 -0.1634
vn -0.7220 0.0655 0.6888
vn 0.4060 0.9026 -0.1431
vn -0.9079 -0.3851 -0.1656
vn 0.2641 0.4058 -0.8750
vn -0.9633 0.0843 -0.2547
vn -0.8035 -0.5856 -0.1073
vn -0.4064 -0.6008 -0.6884
vn -0.1657 0.2312 -0.9587
vn -0.3170 -0.1937 -0.9284
vn 0.0317 0.6299 -0.7760
vn 0.2825 -0.8311 -0.4790
vn 0.7219 -0.0655 -0.6888
vn 0.5707 -0.4905 -0.6586
vn 0.7206 0.3996 -0.5666
vn -0.9706 -0.0589 -0.2336
vn 0.1715 0.9786 -0.1138
vn -0.2179 0.6694 0.7102
vn 0.5421 0.8403 0.0010
vn -0.1727 0.0639 -0.9829
vn -0.5745 0.4923 0.6539
vn -0.7416 -0.1064 0.6624
vn 0.1354 0.9823 0.1295
vn 0.2609 0.2225 0.9394
vn -0.7110 -0.4426 0.5465
vn -0.4727 0.7253 -0.5004
vn 0.6915 0.4442 0.5697
vn 0.8121 -0.5093 0.2850
vn 0.1658 -0.2312 0.9587
vn -0.8250 0.5331 -0.1874
vn -0.7219 0.0655 0.6888
vn 0.1833 0.4126 -0.8923
vn -0.1658 0.2313 -0.9587
vn 0.7220 -0.0655 -0.6888
vn 0.1715 0.9786 -0.1139
vn -0.1389 0.6638 0.7349
vn -0.1711 0.2341 -0.9570
vn -0.6003 0.3377 0.7250
vn 0.0988 -0.2881 0.9525
vn -0.3206 0.7575 -0.5687
vn 0.6271 0.4075 0.6639
s off
f 59/66/53 69/67/53 47/68/53
f 45/69/54 51/70/54 46/71/54
f 43/72/55 49/73/55 44/74/55
f 47/75/56 51/70/56 52/76/56
f 44/74/57 50/77/57 45/69/57
f 48/78/58 71/79/58 49/80/58
f 51/81/59 55/82/59 52/83/59
f 49/80/60 53/84/60 50/85/60
f 43/86/61 70/87/61 48/78/61
f 50/85/62 54/88/62 51/81/62
f 55/82/63 58/89/63 59/66/63
f 72/90/64 84/91/64 80/92/64
f 53/84/65 58/89/65 54/88/65
f 70/93/66 83/94/66 81/95/66
f 58/89/67 64/96/67 59/66/67
f 61/97/68 77/98/68 60/99/68
f 57/100/69 63/101/69 58/89/69
f 62/102/70 76/103/70 78/104/70
f 64/96/71 68/105/71 69/67/71
f 61/106/72 67/107/72 62/108/72
f 43/86/61 60/109/61 56/110/61
f 62/108/73 68/105/73 63/101/73
f 60/109/74 66/111/74 61/106/74
f 69/112/75 46/71/75 47/75/75
f 66/113/76 45/69/76 67/114/76
f 67/114/77 46/71/77 68/115/77
f 65/116/78 44/74/78 66/113/78
f 55/82/53 47/68/53 52/83/53
f 73/117/79 78/104/79 76/103/79
f 73/117/80 77/98/80 74/118/80
f 72/119/81 75/120/81 73/117/81
f 60/99/82 75/120/82 56/121/82
f 61/97/83 78/104/83 74/118/83
f 72/119/84 76/103/84 57/122/84
f 79/123/85 84/91/85 82/124/85
f 79/123/86 83/94/86 80/92/86
f 71/125/87 82/124/87 53/126/87
f 53/126/88 84/91/88 57/127/88
f 72/90/89 83/94/89 56/128/89
f 71/125/90 81/95/90 79/123/90
f 59/66/53 64/96/53 69/67/53
f 45/69/91 50/77/91 51/70/91
f 43/72/55 48/129/55 49/73/55
f 47/75/56 46/71/56 51/70/56
f 44/74/57 49/73/57 50/77/57
f 48/78/58 70/87/58 71/79/58
f 51/81/59 54/88/59 55/82/59
f 49/80/60 71/79/60 53/84/60
f 43/86/61 56/110/61 70/87/61
f 50/85/92 53/84/92 54/88/92
f 55/82/63 54/88/63 58/89/63
f 72/90/93 57/127/93 84/91/93
f 53/84/94 57/100/94 58/89/94
f 70/93/66 56/128/66 83/94/66
f 58/89/67 63/101/67 64/96/67
f 61/97/95 74/118/95 77/98/95
f 57/100/69 62/108/69 63/101/69
f 62/102/70 57/122/70 76/103/70
f 64/96/71 63/101/71 68/105/71
f 61/106/96 66/111/96 67/107/96
f 43/86/61 65/130/61 60/109/61
f 62/108/73 67/107/73 68/105/73
f 60/109/74 65/130/74 66/111/74
f 69/112/75 68/115/75 46/71/75
f 66/113/97 44/74/97 45/69/97
f 67/114/77 45/69/77 46/71/77
f 65/116/78 43/72/78 44/74/78
f 55/82/53 59/66/53 47/68/53
f 73/117/79 74/118/79 78/104/79
f 73/117/98 75/120/98 77/98/98
f 72/119/99 56/121/99 75/120/99
f 60/99/82 77/98/82 75/120/82
f 61/97/100 62/102/100 78/104/100
f 72/119/101 73/117/101 76/103/101
f 79/123/85 80/92/85 84/91/85
f 79/123/86 81/95/86 83/94/86
f 71/125/102 79/123/102 82/124/102
f 53/126/88 82/124/88 84/91/88
f 72/90/103 80/92/103 83/94/103
f 71/125/104 70/93/104 81/95/104
