# Blender v2.81 (sub 16) OBJ File: 'garbage.blend'
# www.blender.org
v -0.002348 2.513985 0.997690
v -0.011031 2.488129 0.988877
v -0.009381 2.459551 0.990357
v 0.002161 2.435909 1.001733
v 0.020501 2.423537 1.019959
v 0.023815 2.518689 0.989950
v 0.034285 2.496276 0.975470
v 0.042946 2.468959 0.974876
v 0.047477 2.444056 0.988327
v 0.046665 2.428241 1.012218
v 0.079861 2.487378 1.011811
v 0.079446 2.460008 1.020314
v 0.065122 2.437451 1.030686
v 0.034567 2.532404 1.034626
v 0.064449 2.496390 1.064228
v 0.066099 2.467813 1.065708
v 0.057416 2.441957 1.056895
v 0.008404 2.527701 1.042366
v 0.007591 2.511885 1.066258
v 0.012122 2.486983 1.079709
v 0.020783 2.459666 1.079115
v 0.031253 2.437253 1.064635
v -0.010054 2.518491 1.023898
v -0.024378 2.495934 1.034271
v -0.024793 2.468563 1.042773
v -0.011186 2.443714 1.047128
v 0.012795 2.428043 1.046167
v 0.042273 2.527898 1.008417
v 0.066254 2.512228 1.007457
v 0.052908 2.520032 1.052851
v 0.036525 2.546525 1.092344
v 0.032828 2.545861 1.093438
v 0.031777 2.543132 1.056721
v 0.049490 2.514567 1.085724
v 0.018826 2.540804 1.060553
v 0.029401 2.510955 1.091667
v 0.094064 2.545360 1.029272
v 0.090905 2.547208 1.040017
v 0.075557 2.545519 1.026568
v 0.090101 2.523185 1.034233
v 0.074109 2.546366 1.031492
v 0.088649 2.524035 1.039172
vt 0.274240 0.539347
vt 0.265397 0.539709
vt 0.266768 0.532487
vt 0.231414 0.551290
vt 0.214659 0.541092
vt 0.231357 0.542861
vt 0.231940 0.569242
vt 0.215985 0.562822
vt 0.231472 0.559719
vt 0.230890 0.533338
vt 0.220414 0.530957
vt 0.213134 0.552274
vt 0.289666 0.544440
vt 0.282983 0.540904
vt 0.290637 0.536818
vt 0.279682 0.529141
vt 0.275518 0.536619
vt 0.273707 0.532162
vt 0.280945 0.538772
vt 0.286431 0.530872
vt 0.290637 0.551375
vt 0.284312 0.543753
vt 0.278488 0.537315
vt 0.276318 0.541045
vt 0.804698 0.251197
vt 0.792375 0.255919
vt 0.792638 0.252041
vt 0.786357 0.239035
vt 0.792578 0.249274
vt 0.791489 0.249454
vt 0.271776 0.541127
vt 0.760733 0.199751
vt 0.757502 0.209505
vt 0.750621 0.206121
vt 0.278108 0.542645
vt 0.273009 0.544115
vt 0.772804 0.201934
vt 0.766718 0.213101
vt 0.766203 0.208706
vt 0.264007 0.548518
vt 0.277612 0.547903
vt 0.268747 0.555467
vt 0.275021 0.546378
vt 0.280714 0.548498
vt 0.281954 0.545638
vt 0.276612 0.557409
vt 0.240880 0.530957
vt 0.248168 0.561486
vt 0.249693 0.550306
vt 0.246843 0.539760
vt 0.242415 0.571620
vt 0.762287 0.211045
vt 0.762255 0.210544
vt 0.761023 0.221925
vt 0.757316 0.212491
vt 0.750922 0.216572
vt 0.772804 0.220841
vt 0.791613 0.252007
vt 0.791097 0.255536
vt 0.780068 0.250772
vt 0.780487 0.263708
vt 0.804698 0.264828
vt 0.798786 0.238814
vt 0.221949 0.571626
vt 0.283377 0.553479
vn 0.2382 -0.9430 0.2322
vn -0.1645 -0.4918 -0.8550
vn -0.3254 0.4012 -0.8562
vn -0.0135 -0.8336 -0.5523
vn -0.2722 -0.0654 -0.9600
vn 0.3779 0.6205 -0.6872
vn 0.6899 -0.6143 -0.3831
vn 0.6341 0.2172 -0.7421
vn -0.2382 0.9430 -0.2322
vn 0.7418 -0.2092 -0.6371
vn 0.8593 -0.3980 0.3211
vn 0.3634 -0.0692 0.9291
vn 0.9602 0.0695 0.2704
vn -0.3398 0.9051 -0.2555
vn 0.3254 -0.4012 0.8562
vn -0.8913 0.3914 0.2288
vn 0.2723 0.0654 0.9600
vn 0.3243 -0.5990 0.7322
vn -0.3779 -0.6205 0.6871
vn -0.7418 0.2092 0.6371
vn -0.6341 -0.2172 0.7421
vn -0.6898 0.6143 0.3831
vn -0.5474 -0.8367 -0.0171
vn -0.9602 -0.0695 -0.2704
vn -0.8525 -0.4958 -0.1654
vn -0.8593 0.3980 -0.3211
vn 0.2382 -0.9431 0.2322
vn 0.2956 -0.0773 0.9522
vn -0.1957 0.9784 -0.0671
vn 0.7148 0.6807 -0.1601
vn -0.2848 0.8477 -0.4475
vn -0.7574 0.0413 0.6516
vn 0.8504 0.4975 0.1711
vn 0.9493 -0.1032 0.2969
vn 0.0319 0.9866 -0.1602
vn 0.6719 0.2454 -0.6988
vn 0.8376 -0.4412 0.3221
vn -0.1963 0.7081 0.6782
vn 0.1319 0.4655 -0.8752
vn -0.0135 -0.8336 -0.5522
vn -0.2723 -0.0654 -0.9600
vn 0.3779 0.6205 -0.6871
vn 0.2547 0.5175 0.8169
vn -0.8650 0.3967 0.3073
vn 0.2722 0.0654 0.9600
vn -0.6899 0.6142 0.3831
vn -0.8593 0.3981 -0.3211
vn 0.6957 0.6768 -0.2407
vn -0.7377 0.2120 0.6410
vn 0.9263 0.3440 0.1535
vn 0.0319 0.9865 -0.1603
vn 0.7713 -0.2671 -0.5777
vn 0.8376 -0.4413 0.3221
vn -0.3330 0.7410 0.5831
vn 0.2461 0.4299 -0.8687
s off
f 17/1/1 27/2/1 5/3/1
f 3/4/2 9/5/2 4/6/2
f 1/7/3 7/8/3 2/9/3
f 5/10/4 9/5/4 10/11/4
f 2/9/5 8/12/5 3/4/5
f 6/13/6 29/14/6 7/15/6
f 9/16/7 13/17/7 10/18/7
f 7/15/8 11/19/8 8/20/8
f 1/21/9 28/22/9 6/13/9
f 8/20/10 12/23/10 9/16/10
f 13/17/11 16/24/11 17/1/11
f 30/25/12 42/26/12 38/27/12
f 11/19/13 16/24/13 12/23/13
f 28/28/14 41/29/14 39/30/14
f 16/24/15 22/31/15 17/1/15
f 19/32/16 35/33/16 18/34/16
f 15/35/17 21/36/17 16/24/17
f 20/37/18 34/38/18 36/39/18
f 22/31/19 26/40/19 27/2/19
f 19/41/20 25/42/20 20/43/20
f 1/21/9 18/44/9 14/45/9
f 20/43/21 26/40/21 21/36/21
f 18/44/22 24/46/22 19/41/22
f 27/47/23 4/6/23 5/10/23
f 24/48/24 3/4/24 25/49/24
f 25/49/25 4/6/25 26/50/25
f 23/51/26 2/9/26 24/48/26
f 13/17/27 5/3/27 10/18/27
f 31/52/28 36/39/28 34/38/28
f 31/52/29 35/33/29 32/53/29
f 30/54/30 33/55/30 31/52/30
f 18/34/31 33/55/31 14/56/31
f 19/32/32 36/39/32 32/53/32
f 30/54/33 34/38/33 15/57/33
f 37/58/34 42/26/34 40/59/34
f 37/58/35 41/29/35 38/27/35
f 29/60/36 40/59/36 11/61/36
f 11/61/37 42/26/37 15/62/37
f 30/25/38 41/29/38 14/63/38
f 29/60/39 39/30/39 37/58/39
f 17/1/1 22/31/1 27/2/1
f 3/4/2 8/12/2 9/5/2
f 1/7/3 6/64/3 7/8/3
f 5/10/40 4/6/40 9/5/40
f 2/9/41 7/8/41 8/12/41
f 6/13/42 28/22/42 29/14/42
f 9/16/7 12/23/7 13/17/7
f 7/15/8 29/14/8 11/19/8
f 1/21/9 14/45/9 28/22/9
f 8/20/10 11/19/10 12/23/10
f 13/17/11 12/23/11 16/24/11
f 30/25/43 15/62/43 42/26/43
f 11/19/13 15/35/13 16/24/13
f 28/28/14 14/63/14 41/29/14
f 16/24/15 21/36/15 22/31/15
f 19/32/44 32/53/44 35/33/44
f 15/35/45 20/43/45 21/36/45
f 20/37/18 15/57/18 34/38/18
f 22/31/19 21/36/19 26/40/19
f 19/41/20 24/46/20 25/42/20
f 1/21/9 23/65/9 18/44/9
f 20/43/21 25/42/21 26/40/21
f 18/44/46 23/65/46 24/46/46
f 27/47/23 26/50/23 4/6/23
f 24/48/24 2/9/24 3/4/24
f 25/49/25 3/4/25 4/6/25
f 23/51/47 1/7/47 2/9/47
f 13/17/1 17/1/1 5/3/1
f 31/52/28 32/53/28 36/39/28
f 31/52/29 33/55/29 35/33/29
f 30/54/48 14/56/48 33/55/48
f 18/34/31 35/33/31 33/55/31
f 19/32/49 20/37/49 36/39/49
f 30/54/50 31/52/50 34/38/50
f 37/58/34 38/27/34 42/26/34
f 37/58/51 39/30/51 41/29/51
f 29/60/52 37/58/52 40/59/52
f 11/61/53 40/59/53 42/26/53
f 30/25/54 38/27/54 41/29/54
f 29/60/55 28/28/55 39/30/55
v 1.210082 1.449339 -1.426126
v 1.221398 1.426638 -1.412776
v 1.219798 1.399120 -1.404914
v 1.205711 1.374159 -1.404646
v 1.182911 1.358442 -1.412045
v 1.187406 1.458163 -1.412917
v 1.182122 1.441923 -1.389896
v 1.174446 1.416770 -1.378495
v 1.166435 1.389444 -1.381767
v 1.160235 1.367267 -1.398835
v 1.127843 1.426310 -1.406838
v 1.126075 1.397705 -1.406313
v 1.136933 1.372037 -1.413007
v 1.163478 1.458879 -1.454469
v 1.126591 1.418200 -1.461600
v 1.124991 1.390683 -1.453738
v 1.136307 1.367982 -1.440388
v 1.186154 1.450054 -1.467679
v 1.179954 1.427877 -1.484748
v 1.171942 1.400551 -1.488020
v 1.164267 1.375398 -1.476618
v 1.158983 1.359157 -1.453598
v 1.209456 1.445284 -1.453507
v 1.220314 1.419615 -1.460202
v 1.218546 1.391011 -1.459676
v 1.204627 1.367136 -1.452072
v 1.182285 1.354387 -1.439426
v 1.164104 1.462933 -1.427088
v 1.141762 1.450185 -1.414442
v 1.140678 1.443162 -1.461868
v 1.143993 1.455437 -1.510533
v 1.147198 1.454190 -1.512400
v 1.159315 1.462350 -1.478588
v 1.134101 1.427982 -1.490997
v 1.170539 1.457982 -1.485127
v 1.151511 1.421207 -1.501139
v 1.108184 1.477481 -1.436223
v 1.107927 1.475819 -1.447449
v 1.126640 1.476974 -1.439216
v 1.110791 1.454590 -1.435108
v 1.126523 1.476212 -1.444361
v 1.110673 1.453826 -1.440267
vt 0.274240 0.539347
vt 0.265397 0.539709
vt 0.266768 0.532487
vt 0.231414 0.551290
vt 0.214659 0.541092
vt 0.231357 0.542861
vt 0.231940 0.569242
vt 0.215985 0.562822
vt 0.231472 0.559719
vt 0.230890 0.533338
vt 0.220414 0.530957
vt 0.213134 0.552274
vt 0.289666 0.544440
vt 0.282983 0.540904
vt 0.290637 0.536818
vt 0.279682 0.529141
vt 0.275518 0.536619
vt 0.273707 0.532162
vt 0.280945 0.538772
vt 0.286431 0.530872
vt 0.290637 0.551375
vt 0.284312 0.543753
vt 0.278488 0.537315
vt 0.276318 0.541045
vt 0.804698 0.251197
vt 0.792375 0.255919
vt 0.792638 0.252041
vt 0.786357 0.239035
vt 0.792578 0.249274
vt 0.791489 0.249454
vt 0.271776 0.541127
vt 0.760733 0.199751
vt 0.757502 0.209505
vt 0.750621 0.206121
vt 0.278108 0.542645
vt 0.273009 0.544115
vt 0.772804 0.201934
vt 0.766718 0.213101
vt 0.766203 0.208706
vt 0.264007 0.548518
vt 0.277612 0.547903
vt 0.268747 0.555467
vt 0.275021 0.546378
vt 0.280714 0.548498
vt 0.281954 0.545638
vt 0.276612 0.557409
vt 0.240880 0.530957
vt 0.248168 0.561486
vt 0.249693 0.550306
vt 0.246843 0.539760
vt 0.242415 0.571620
vt 0.762287 0.211045
vt 0.762255 0.210544
vt 0.761023 0.221925
vt 0.757316 0.212491
vt 0.750922 0.216572
vt 0.772804 0.220841
vt 0.791613 0.252007
vt 0.791097 0.255536
vt 0.780068 0.250772
vt 0.780487 0.263708
vt 0.804698 0.264828
vt 0.798786 0.238814
vt 0.221949 0.571626
vt 0.283377 0.553479
vn -0.2833 -0.9477 0.1468
vn 0.4220 -0.2288 0.8773
vn 0.5626 0.6092 0.5589
vn 0.1917 -0.6317 0.7511
vn 0.5501 0.1997 0.8109
vn -0.1621 0.8235 0.5437
vn -0.5330 -0.4174 0.7360
vn -0.3839 0.4758 0.7913
vn 0.2833 0.9477 -0.1468
vn -0.5119 0.0474 0.8577
vn -0.9102 -0.4061 0.0809
vn -0.6256 -0.3116 -0.7152
vn -0.9980 0.0619 0.0136
vn 0.3878 0.9105 -0.1437
vn -0.5626 -0.6092 -0.5589
vn 0.7749 0.2350 -0.5868
vn -0.5501 -0.1997 -0.8109
vn -0.5212 -0.7610 -0.3864
vn 0.1621 -0.8235 -0.5437
vn 0.5119 -0.0474 -0.8577
vn 0.3839 -0.4758 -0.7913
vn 0.5330 0.4174 -0.7360
vn 0.5393 -0.8347 0.1113
vn 0.9980 -0.0619 -0.0136
vn 0.8699 -0.4904 0.0527
vn 0.9102 0.4061 -0.0809
vn -0.5679 -0.3315 -0.7534
vn 0.1925 0.9360 -0.2948
vn -0.6432 0.7517 0.1458
vn 0.3941 0.9169 0.0639
vn 0.5249 -0.2128 -0.8242
vn -0.8696 0.4902 -0.0591
vn -0.9930 -0.1112 0.0392
vn 0.0034 0.9892 -0.1466
vn -0.4333 0.4929 0.7545
vn -0.8892 -0.4493 0.0869
vn -0.0279 0.4586 -0.8882
vn 0.1314 0.7120 0.6897
vn -0.4969 0.2716 -0.8242
vn 0.3877 0.9105 -0.1437
vn 0.7261 0.2189 -0.6518
vn -0.6006 0.7703 0.2145
vn 0.3940 0.9169 0.0640
vn 0.5068 -0.0455 -0.8609
vn -0.9344 0.3552 0.0259
vn -0.5571 -0.0230 0.8301
vn -0.8891 -0.4493 0.0869
vn 0.1307 0.5072 -0.8518
vn 0.0211 0.6852 0.7281
s off
f 59/66/56 69/67/56 47/68/56
f 45/69/57 51/70/57 46/71/57
f 43/72/58 49/73/58 44/74/58
f 47/75/59 51/70/59 52/76/59
f 44/74/60 50/77/60 45/69/60
f 48/78/61 71/79/61 49/80/61
f 51/81/62 55/82/62 52/83/62
f 49/80/63 53/84/63 50/85/63
f 43/86/64 70/87/64 48/78/64
f 50/85/65 54/88/65 51/81/65
f 55/82/66 58/89/66 59/66/66
f 72/90/67 84/91/67 80/92/67
f 53/84/68 58/89/68 54/88/68
f 70/93/69 83/94/69 81/95/69
f 58/89/70 64/96/70 59/66/70
f 61/97/71 77/98/71 60/99/71
f 57/100/72 63/101/72 58/89/72
f 62/102/73 76/103/73 78/104/73
f 64/96/74 68/105/74 69/67/74
f 61/106/75 67/107/75 62/108/75
f 43/86/64 60/109/64 56/110/64
f 62/108/76 68/105/76 63/101/76
f 60/109/77 66/111/77 61/106/77
f 69/112/78 46/71/78 47/75/78
f 66/113/79 45/69/79 67/114/79
f 67/114/80 46/71/80 68/115/80
f 65/116/81 44/74/81 66/113/81
f 55/82/56 47/68/56 52/83/56
f 73/117/82 78/104/82 76/103/82
f 73/117/83 77/98/83 74/118/83
f 72/119/84 75/120/84 73/117/84
f 60/99/85 75/120/85 56/121/85
f 61/97/86 78/104/86 74/118/86
f 72/119/87 76/103/87 57/122/87
f 79/123/88 84/91/88 82/124/88
f 79/123/89 83/94/89 80/92/89
f 71/125/90 82/124/90 53/126/90
f 53/126/91 84/91/91 57/127/91
f 72/90/92 83/94/92 56/128/92
f 71/125/93 81/95/93 79/123/93
f 59/66/56 64/96/56 69/67/56
f 45/69/57 50/77/57 51/70/57
f 43/72/58 48/129/58 49/73/58
f 47/75/59 46/71/59 51/70/59
f 44/74/60 49/73/60 50/77/60
f 48/78/61 70/87/61 71/79/61
f 51/81/62 54/88/62 55/82/62
f 49/80/63 71/79/63 53/84/63
f 43/86/64 56/110/64 70/87/64
f 50/85/65 53/84/65 54/88/65
f 55/82/66 54/88/66 58/89/66
f 72/90/94 57/127/94 84/91/94
f 53/84/68 57/100/68 58/89/68
f 70/93/95 56/128/95 83/94/95
f 58/89/70 63/101/70 64/96/70
f 61/97/96 74/118/96 77/98/96
f 57/100/72 62/108/72 63/101/72
f 62/102/73 57/122/73 76/103/73
f 64/96/74 63/101/74 68/105/74
f 61/106/75 66/111/75 67/107/75
f 43/86/64 65/130/64 60/109/64
f 62/108/76 67/107/76 68/105/76
f 60/109/77 65/130/77 66/111/77
f 69/112/78 68/115/78 46/71/78
f 66/113/79 44/74/79 45/69/79
f 67/114/80 45/69/80 46/71/80
f 65/116/81 43/72/81 44/74/81
f 55/82/56 59/66/56 47/68/56
f 73/117/82 74/118/82 78/104/82
f 73/117/83 75/120/83 77/98/83
f 72/119/97 56/121/97 75/120/97
f 60/99/98 77/98/98 75/120/98
f 61/97/99 62/102/99 78/104/99
f 72/119/100 73/117/100 76/103/100
f 79/123/88 80/92/88 84/91/88
f 79/123/89 81/95/89 83/94/89
f 71/125/101 79/123/101 82/124/101
f 53/126/102 82/124/102 84/91/102
f 72/90/103 80/92/103 83/94/103
f 71/125/104 70/93/104 81/95/104
