# Blender v2.81 (sub 16) OBJ File: 'garbage.blend'
# www.blender.org
v 0.626751 2.583830 -1.137389
v 0.638662 2.558069 -1.141404
v 0.636517 2.529486 -1.141596
v 0.620891 2.505741 -1.137915
v 0.595970 2.493194 -1.131347
v 0.620581 2.587706 -1.110678
v 0.627975 2.564782 -1.095139
v 0.624177 2.537238 -1.088175
v 0.610204 2.512454 -1.091651
v 0.589800 2.497070 -1.104636
v 0.573864 2.555289 -1.073718
v 0.566631 2.528086 -1.079131
v 0.564643 2.506096 -1.097408
v 0.576438 2.601880 -1.122932
v 0.535891 2.565588 -1.112682
v 0.533746 2.537006 -1.112875
v 0.545657 2.511245 -1.116890
v 0.582608 2.598005 -1.149643
v 0.562204 2.582621 -1.162628
v 0.548231 2.557836 -1.166104
v 0.544433 2.530292 -1.159140
v 0.551827 2.507369 -1.143601
v 0.607765 2.588979 -1.156871
v 0.605777 2.566988 -1.175148
v 0.598544 2.539785 -1.180561
v 0.588005 2.514660 -1.171660
v 0.576984 2.498344 -1.150830
v 0.595424 2.596731 -1.103449
v 0.584403 2.580415 -1.082619
v 0.551517 2.589334 -1.116363
v 0.525291 2.616914 -1.149250
v 0.526163 2.616366 -1.153024
v 0.558613 2.613049 -1.135916
v 0.524604 2.584515 -1.135718
v 0.561667 2.611130 -1.149138
v 0.529341 2.581539 -1.156226
v 0.551757 2.613159 -1.068159
v 0.543973 2.615270 -1.076146
v 0.563241 2.613764 -1.082910
v 0.549363 2.591184 -1.074747
v 0.559674 2.614732 -1.086571
v 0.545786 2.592154 -1.078418
vt 0.274240 0.539347
vt 0.265397 0.539709
vt 0.266768 0.532487
vt 0.231414 0.551290
vt 0.214659 0.541092
vt 0.231357 0.542861
vt 0.231940 0.569242
vt 0.215985 0.562822
vt 0.231472 0.559719
vt 0.230890 0.533338
vt 0.220414 0.530957
vt 0.213134 0.552274
vt 0.289666 0.544440
vt 0.282983 0.540904
vt 0.290637 0.536818
vt 0.279682 0.529141
vt 0.275518 0.536619
vt 0.273707 0.532162
vt 0.280945 0.538772
vt 0.286431 0.530872
vt 0.290637 0.551375
vt 0.284312 0.543753
vt 0.278488 0.537315
vt 0.276318 0.541045
vt 0.804698 0.251197
vt 0.792375 0.255919
vt 0.792638 0.252041
vt 0.786357 0.239035
vt 0.792578 0.249274
vt 0.791489 0.249454
vt 0.271776 0.541127
vt 0.760733 0.199751
vt 0.757502 0.209505
vt 0.750621 0.206121
vt 0.278108 0.542645
vt 0.273009 0.544115
vt 0.772804 0.201934
vt 0.766718 0.213101
vt 0.766203 0.208706
vt 0.264007 0.548518
vt 0.277612 0.547903
vt 0.268747 0.555467
vt 0.275021 0.546378
vt 0.280714 0.548498
vt 0.281954 0.545638
vt 0.276612 0.557409
vt 0.240880 0.530957
vt 0.248168 0.561486
vt 0.249693 0.550306
vt 0.246843 0.539760
vt 0.242415 0.571620
vt 0.762287 0.211045
vt 0.762255 0.210544
vt 0.761023 0.221925
vt 0.757316 0.212491
vt 0.750922 0.216572
vt 0.772804 0.220841
vt 0.791613 0.252007
vt 0.791097 0.255536
vt 0.780068 0.250772
vt 0.780487 0.263708
vt 0.804698 0.264828
vt 0.798786 0.238814
vt 0.221949 0.571626
vt 0.283377 0.553479
vn -0.3209 -0.9450 0.0630
vn 0.8241 -0.5015 0.2632
vn 0.9059 0.3952 0.1519
vn 0.4857 -0.8421 0.2344
vn 0.9692 -0.0743 0.2347
vn 0.4121 0.5986 0.6869
vn -0.0081 -0.6387 0.7694
vn 0.3329 0.1877 0.9241
vn 0.3209 0.9450 -0.0630
vn 0.1878 -0.2395 0.9526
vn -0.7039 -0.4153 0.5762
vn -0.9875 -0.0632 -0.1445
vn -0.7089 0.0485 0.7036
vn 0.3913 0.9094 -0.1409
vn -0.9059 -0.3952 -0.1519
vn 0.2414 0.4188 -0.8754
vn -0.9692 0.0743 -0.2347
vn -0.7978 -0.5950 -0.0979
vn -0.4121 -0.5986 -0.6869
vn -0.1878 0.2395 -0.9526
vn -0.3329 -0.1877 -0.9241
vn 0.0081 0.6387 -0.7694
vn 0.2837 -0.8220 -0.4938
vn 0.7089 -0.0485 -0.7036
vn 0.5638 -0.4757 -0.6752
vn 0.7039 0.4153 -0.5762
vn -0.9742 -0.0691 -0.2150
vn 0.1565 0.9820 -0.1062
vn -0.2124 0.6587 0.7218
vn 0.5311 0.8473 -0.0003
vn -0.1930 0.0723 -0.9785
vn -0.5677 0.4775 0.6706
vn -0.7268 -0.1234 0.6757
vn 0.1251 0.9825 0.1377
vn 0.2767 0.2157 0.9364
vn -0.6941 -0.4579 0.5555
vn -0.4920 0.7244 -0.4829
vn 0.6968 0.4471 0.5608
vn 0.8241 -0.5015 0.2631
vn -0.8354 0.5242 -0.1652
vn -0.7089 0.0485 0.7037
vn 0.3913 0.9094 -0.1410
vn 0.1602 0.4246 -0.8911
vn 0.7089 -0.0485 -0.7037
vn 0.1564 0.9819 -0.1064
vn -0.1329 0.6539 0.7448
vn 0.5311 0.8473 -0.0002
vn -0.1932 0.2423 -0.9508
vn -0.5901 0.3218 0.7404
vn 0.1251 0.9825 0.1378
vn 0.1214 -0.2972 0.9471
vn -0.6941 -0.4579 0.5554
vn -0.3417 0.7593 -0.5538
vn 0.6348 0.4085 0.6559
s off
f 17/1/1 27/2/1 5/3/1
f 3/4/2 9/5/2 4/6/2
f 1/7/3 7/8/3 2/9/3
f 5/10/4 9/5/4 10/11/4
f 2/9/5 8/12/5 3/4/5
f 6/13/6 29/14/6 7/15/6
f 9/16/7 13/17/7 10/18/7
f 7/15/8 11/19/8 8/20/8
f 1/21/9 28/22/9 6/13/9
f 8/20/10 12/23/10 9/16/10
f 13/17/11 16/24/11 17/1/11
f 30/25/12 42/26/12 38/27/12
f 11/19/13 16/24/13 12/23/13
f 28/28/14 41/29/14 39/30/14
f 16/24/15 22/31/15 17/1/15
f 19/32/16 35/33/16 18/34/16
f 15/35/17 21/36/17 16/24/17
f 20/37/18 34/38/18 36/39/18
f 22/31/19 26/40/19 27/2/19
f 19/41/20 25/42/20 20/43/20
f 1/21/9 18/44/9 14/45/9
f 20/43/21 26/40/21 21/36/21
f 18/44/22 24/46/22 19/41/22
f 27/47/23 4/6/23 5/10/23
f 24/48/24 3/4/24 25/49/24
f 25/49/25 4/6/25 26/50/25
f 23/51/26 2/9/26 24/48/26
f 13/17/1 5/3/1 10/18/1
f 31/52/27 36/39/27 34/38/27
f 31/52/28 35/33/28 32/53/28
f 30/54/29 33/55/29 31/52/29
f 18/34/30 33/55/30 14/56/30
f 19/32/31 36/39/31 32/53/31
f 30/54/32 34/38/32 15/57/32
f 37/58/33 42/26/33 40/59/33
f 37/58/34 41/29/34 38/27/34
f 29/60/35 40/59/35 11/61/35
f 11/61/36 42/26/36 15/62/36
f 30/25/37 41/29/37 14/63/37
f 29/60/38 39/30/38 37/58/38
f 17/1/1 22/31/1 27/2/1
f 3/4/39 8/12/39 9/5/39
f 1/7/3 6/64/3 7/8/3
f 5/10/4 4/6/4 9/5/4
f 2/9/5 7/8/5 8/12/5
f 6/13/6 28/22/6 29/14/6
f 9/16/7 12/23/7 13/17/7
f 7/15/8 29/14/8 11/19/8
f 1/21/9 14/45/9 28/22/9
f 8/20/10 11/19/10 12/23/10
f 13/17/11 12/23/11 16/24/11
f 30/25/40 15/62/40 42/26/40
f 11/19/41 15/35/41 16/24/41
f 28/28/42 14/63/42 41/29/42
f 16/24/15 21/36/15 22/31/15
f 19/32/43 32/53/43 35/33/43
f 15/35/17 20/43/17 21/36/17
f 20/37/18 15/57/18 34/38/18
f 22/31/19 21/36/19 26/40/19
f 19/41/20 24/46/20 25/42/20
f 1/21/9 23/65/9 18/44/9
f 20/43/21 25/42/21 26/40/21
f 18/44/22 23/65/22 24/46/22
f 27/47/23 26/50/23 4/6/23
f 24/48/44 2/9/44 3/4/44
f 25/49/25 3/4/25 4/6/25
f 23/51/26 1/7/26 2/9/26
f 13/17/1 17/1/1 5/3/1
f 31/52/27 32/53/27 36/39/27
f 31/52/45 33/55/45 35/33/45
f 30/54/46 14/56/46 33/55/46
f 18/34/47 35/33/47 33/55/47
f 19/32/48 20/37/48 36/39/48
f 30/54/49 31/52/49 34/38/49
f 37/58/33 38/27/33 42/26/33
f 37/58/50 39/30/50 41/29/50
f 29/60/51 37/58/51 40/59/51
f 11/61/52 40/59/52 42/26/52
f 30/25/53 38/27/53 41/29/53
f 29/60/54 28/28/54 39/30/54
v 1.690705 2.180897 -0.657760
v 1.669562 2.167717 -0.643589
v 1.657387 2.143622 -0.633955
v 1.657442 2.115069 -0.631442
v 1.669713 2.089708 -0.636721
v 1.689596 2.174921 -0.684772
v 1.667642 2.157365 -0.690374
v 1.655170 2.131668 -0.687978
v 1.655522 2.104716 -0.678227
v 1.668605 2.083731 -0.663733
v 1.700815 2.115030 -0.714549
v 1.695052 2.090308 -0.701238
v 1.691427 2.075413 -0.677018
v 1.736349 2.164260 -0.684331
v 1.748676 2.110347 -0.687097
v 1.736501 2.086251 -0.677464
v 1.715358 2.073071 -0.663292
v 1.737458 2.170237 -0.657320
v 1.750540 2.149252 -0.642825
v 1.750893 2.122300 -0.633074
v 1.738421 2.096604 -0.630679
v 1.716466 2.079048 -0.636281
v 1.714635 2.178556 -0.644034
v 1.711011 2.163661 -0.619815
v 1.705248 2.138938 -0.606503
v 1.698891 2.111012 -0.607668
v 1.693644 2.087366 -0.622995
v 1.712419 2.166602 -0.698057
v 1.707171 2.142956 -0.713385
v 1.748621 2.138900 -0.689610
v 1.793494 2.153353 -0.672077
v 1.793651 2.154198 -0.668260
v 1.760316 2.166023 -0.678539
v 1.774121 2.124108 -0.673701
v 1.760865 2.168982 -0.665168
v 1.774971 2.128697 -0.652962
v 1.745550 2.147966 -0.742523
v 1.755360 2.147006 -0.736896
v 1.740896 2.157977 -0.727423
v 1.738740 2.130387 -0.729232
v 1.745393 2.157537 -0.724844
v 1.743249 2.129946 -0.726646
vt 0.274240 0.539347
vt 0.265397 0.539709
vt 0.266768 0.532487
vt 0.231414 0.551290
vt 0.214659 0.541092
vt 0.231357 0.542861
vt 0.231940 0.569242
vt 0.215985 0.562822
vt 0.231472 0.559719
vt 0.230890 0.533338
vt 0.220414 0.530957
vt 0.213134 0.552274
vt 0.289666 0.544440
vt 0.282983 0.540904
vt 0.290637 0.536818
vt 0.279682 0.529141
vt 0.275518 0.536619
vt 0.273707 0.532162
vt 0.280945 0.538772
vt 0.286431 0.530872
vt 0.290637 0.551375
vt 0.284312 0.543753
vt 0.278488 0.537315
vt 0.276318 0.541045
vt 0.804698 0.251197
vt 0.792375 0.255919
vt 0.792638 0.252041
vt 0.786357 0.239035
vt 0.792578 0.249274
vt 0.791489 0.249454
vt 0.271776 0.541127
vt 0.760733 0.199751
vt 0.757502 0.209505
vt 0.750621 0.206121
vt 0.278108 0.542645
vt 0.273009 0.544115
vt 0.772804 0.201934
vt 0.766718 0.213101
vt 0.766203 0.208706
vt 0.264007 0.548518
vt 0.277612 0.547903
vt 0.268747 0.555467
vt 0.275021 0.546378
vt 0.280714 0.548498
vt 0.281954 0.545638
vt 0.276612 0.557409
vt 0.240880 0.530957
vt 0.248168 0.561486
vt 0.249693 0.550306
vt 0.246843 0.539760
vt 0.242415 0.571620
vt 0.762287 0.211045
vt 0.762255 0.210544
vt 0.761023 0.221925
vt 0.757316 0.212491
vt 0.750922 0.216572
vt 0.772804 0.220841
vt 0.791613 0.252007
vt 0.791097 0.255536
vt 0.780068 0.250772
vt 0.780487 0.263708
vt 0.804698 0.264828
vt 0.798786 0.238814
vt 0.221949 0.571626
vt 0.283377 0.553479
vn -0.2189 -0.9508 0.2194
vn -0.9992 0.0016 0.0406
vn -0.5937 0.7905 -0.1506
vn -0.8803 -0.4544 0.1367
vn -0.9002 0.4315 -0.0585
vn -0.2514 0.5651 -0.7858
vn -0.5380 -0.6797 -0.4985
vn -0.4591 0.1411 -0.8771
vn 0.2189 0.9508 -0.2194
vn -0.5581 -0.2888 -0.7779
vn 0.1990 -0.8478 -0.4916
vn 0.8207 -0.5711 0.0191
vn 0.3916 -0.5053 -0.7690
vn 0.1674 0.9779 -0.1250
vn 0.5937 -0.7905 0.1506
vn 0.2714 0.6558 0.7045
vn 0.9002 -0.4315 0.0585
vn 0.3911 -0.9019 0.1835
vn 0.2514 -0.5651 0.7858
vn 0.5581 0.2888 0.7779
vn 0.4591 -0.1411 0.8771
vn 0.5380 0.6797 0.4985
vn -0.4856 -0.3971 0.7788
vn -0.3916 0.5053 0.7690
vn -0.4906 0.0755 0.8681
vn -0.1990 0.8478 0.4916
vn 0.8281 -0.5535 0.0885
vn 0.3846 0.8978 -0.2144
vn 0.2785 0.2576 -0.9252
vn -0.0198 0.9764 -0.2152
vn 0.4884 0.1572 0.8584
vn 0.4961 -0.0752 -0.8650
vn 0.3306 -0.6473 -0.6868
vn 0.3369 0.8292 -0.4459
vn -0.4032 0.1295 -0.9059
vn 0.1764 -0.8721 -0.4564
vn 0.9027 0.4090 0.1336
vn -0.5205 0.6290 -0.5774
vn -0.2514 0.5651 -0.7857
vn -0.5380 -0.6797 -0.4986
vn -0.4592 0.1411 -0.8771
vn 0.9899 -0.0105 -0.1410
vn 0.1674 0.9779 -0.1249
vn 0.3455 0.6185 0.7058
vn 0.5581 0.2887 0.7779
vn 0.3846 0.8978 -0.2145
vn 0.2042 0.2932 -0.9340
vn 0.5633 0.2876 0.7746
vn 0.4171 -0.2274 -0.8800
vn 0.3369 0.8293 -0.4459
vn -0.5304 -0.3709 -0.7623
vn 0.8182 0.5358 0.2085
vn -0.5173 0.5434 -0.6612
s off
f 59/66/55 69/67/55 47/68/55
f 45/69/56 51/70/56 46/71/56
f 43/72/57 49/73/57 44/74/57
f 47/75/58 51/70/58 52/76/58
f 44/74/59 50/77/59 45/69/59
f 48/78/60 71/79/60 49/80/60
f 51/81/61 55/82/61 52/83/61
f 49/80/62 53/84/62 50/85/62
f 43/86/63 70/87/63 48/78/63
f 50/85/64 54/88/64 51/81/64
f 55/82/65 58/89/65 59/66/65
f 72/90/66 84/91/66 80/92/66
f 53/84/67 58/89/67 54/88/67
f 70/93/68 83/94/68 81/95/68
f 58/89/69 64/96/69 59/66/69
f 61/97/70 77/98/70 60/99/70
f 57/100/71 63/101/71 58/89/71
f 62/102/72 76/103/72 78/104/72
f 64/96/73 68/105/73 69/67/73
f 61/106/74 67/107/74 62/108/74
f 43/86/63 60/109/63 56/110/63
f 62/108/75 68/105/75 63/101/75
f 60/109/76 66/111/76 61/106/76
f 69/112/77 46/71/77 47/75/77
f 66/113/78 45/69/78 67/114/78
f 67/114/79 46/71/79 68/115/79
f 65/116/80 44/74/80 66/113/80
f 55/82/55 47/68/55 52/83/55
f 73/117/81 78/104/81 76/103/81
f 73/117/82 77/98/82 74/118/82
f 72/119/83 75/120/83 73/117/83
f 60/99/84 75/120/84 56/121/84
f 61/97/85 78/104/85 74/118/85
f 72/119/86 76/103/86 57/122/86
f 79/123/87 84/91/87 82/124/87
f 79/123/88 83/94/88 80/92/88
f 71/125/89 82/124/89 53/126/89
f 53/126/90 84/91/90 57/127/90
f 72/90/91 83/94/91 56/128/91
f 71/125/92 81/95/92 79/123/92
f 59/66/55 64/96/55 69/67/55
f 45/69/56 50/77/56 51/70/56
f 43/72/57 48/129/57 49/73/57
f 47/75/58 46/71/58 51/70/58
f 44/74/59 49/73/59 50/77/59
f 48/78/93 70/87/93 71/79/93
f 51/81/94 54/88/94 55/82/94
f 49/80/95 71/79/95 53/84/95
f 43/86/63 56/110/63 70/87/63
f 50/85/64 53/84/64 54/88/64
f 55/82/65 54/88/65 58/89/65
f 72/90/96 57/127/96 84/91/96
f 53/84/67 57/100/67 58/89/67
f 70/93/97 56/128/97 83/94/97
f 58/89/69 63/101/69 64/96/69
f 61/97/98 74/118/98 77/98/98
f 57/100/71 62/108/71 63/101/71
f 62/102/72 57/122/72 76/103/72
f 64/96/73 63/101/73 68/105/73
f 61/106/99 66/111/99 67/107/99
f 43/86/63 65/130/63 60/109/63
f 62/108/75 67/107/75 68/105/75
f 60/109/76 65/130/76 66/111/76
f 69/112/77 68/115/77 46/71/77
f 66/113/78 44/74/78 45/69/78
f 67/114/79 45/69/79 46/71/79
f 65/116/80 43/72/80 44/74/80
f 55/82/55 59/66/55 47/68/55
f 73/117/81 74/118/81 78/104/81
f 73/117/100 75/120/100 77/98/100
f 72/119/101 56/121/101 75/120/101
f 60/99/84 77/98/84 75/120/84
f 61/97/102 62/102/102 78/104/102
f 72/119/103 73/117/103 76/103/103
f 79/123/87 80/92/87 84/91/87
f 79/123/104 81/95/104 83/94/104
f 71/125/105 79/123/105 82/124/105
f 53/126/90 82/124/90 84/91/90
f 72/90/106 80/92/106 83/94/106
f 71/125/107 70/93/107 81/95/107
