# Blender v2.81 (sub 16) OBJ File: 'garbage.blend'
# www.blender.org
v -0.055001 2.486877 0.938353
v -0.063095 2.461156 0.928631
v -0.061404 2.432562 0.929685
v -0.050380 2.408756 0.941234
v -0.032978 2.396117 0.960182
v -0.028485 2.491806 0.932096
v -0.017168 2.469694 0.917793
v -0.008371 2.442420 0.917171
v -0.004453 2.417294 0.930396
v -0.006462 2.401047 0.953924
v 0.026458 2.460291 0.956335
v 0.025710 2.432770 0.964313
v 0.010953 2.409982 0.973506
v -0.020172 2.504747 0.977517
v 0.008254 2.468303 1.008014
v 0.009946 2.439709 1.009068
v 0.001851 2.413988 0.999346
v -0.046688 2.499818 0.983775
v -0.048697 2.483571 1.007303
v -0.044778 2.458444 1.020528
v -0.035982 2.431171 1.019906
v -0.024665 2.409059 1.005603
v -0.064103 2.490883 0.964193
v -0.078860 2.468095 0.973386
v -0.079607 2.440574 0.981364
v -0.066145 2.415694 0.985989
v -0.042080 2.400123 0.986021
v -0.011070 2.500741 0.951678
v 0.012995 2.485170 0.951710
v -0.002769 2.492109 0.996465
v -0.021333 2.517829 1.035502
v -0.025080 2.517133 1.036386
v -0.024173 2.515065 0.999622
v -0.007900 2.486038 1.029008
v -0.037298 2.512625 1.002720
v -0.028259 2.482254 1.033812
v 0.039470 2.517994 0.975558
v 0.035738 2.519637 0.986151
v 0.021131 2.518141 0.971879
v 0.035344 2.495720 0.979904
v 0.019421 2.518894 0.976734
v 0.033629 2.496475 0.984773
vt 0.274240 0.539347
vt 0.265397 0.539709
vt 0.266768 0.532487
vt 0.231414 0.551290
vt 0.214659 0.541092
vt 0.231357 0.542861
vt 0.231940 0.569242
vt 0.215985 0.562822
vt 0.231472 0.559719
vt 0.230890 0.533338
vt 0.220414 0.530957
vt 0.213134 0.552274
vt 0.289666 0.544440
vt 0.282983 0.540904
vt 0.290637 0.536818
vt 0.279682 0.529141
vt 0.275518 0.536619
vt 0.273707 0.532162
vt 0.280945 0.538772
vt 0.286431 0.530872
vt 0.290637 0.551375
vt 0.284312 0.543753
vt 0.278488 0.537315
vt 0.276318 0.541045
vt 0.804698 0.251197
vt 0.792375 0.255919
vt 0.792638 0.252041
vt 0.786357 0.239035
vt 0.792578 0.249274
vt 0.791489 0.249454
vt 0.271776 0.541127
vt 0.760733 0.199751
vt 0.757502 0.209505
vt 0.750621 0.206121
vt 0.278108 0.542645
vt 0.273009 0.544115
vt 0.772804 0.201934
vt 0.766718 0.213101
vt 0.766203 0.208706
vt 0.264007 0.548518
vt 0.277612 0.547903
vt 0.268747 0.555467
vt 0.275021 0.546378
vt 0.280714 0.548498
vt 0.281954 0.545638
vt 0.276612 0.557409
vt 0.240880 0.530957
vt 0.248168 0.561486
vt 0.249693 0.550306
vt 0.246843 0.539760
vt 0.242415 0.571620
vt 0.762287 0.211045
vt 0.762255 0.210544
vt 0.761023 0.221925
vt 0.757316 0.212491
vt 0.750922 0.216572
vt 0.772804 0.220841
vt 0.791613 0.252007
vt 0.791097 0.255536
vt 0.780068 0.250772
vt 0.780487 0.263708
vt 0.804698 0.264828
vt 0.798786 0.238814
vt 0.221949 0.571626
vt 0.283377 0.553479
vn 0.2296 -0.9463 0.2276
vn -0.1169 -0.4768 -0.8712
vn -0.2814 0.4155 -0.8650
vn 0.0193 -0.8235 -0.5670
vn -0.2208 -0.0490 -0.9741
vn 0.4111 0.6340 -0.6550
vn 0.7118 -0.6049 -0.3570
vn 0.6716 0.2327 -0.7034
vn -0.2296 0.9463 -0.2276
vn 0.7754 -0.1952 -0.6005
vn 0.8428 -0.4009 0.3590
vn 0.3139 -0.0848 0.9456
vn 0.9443 0.0677 0.3221
vn -0.3297 0.9085 -0.2569
vn 0.2814 -0.4155 0.8650
vn -0.9038 0.3843 0.1882
vn 0.2208 0.0490 0.9741
vn 0.2876 -0.6110 0.7375
vn -0.4111 -0.6341 0.6549
vn -0.7754 0.1951 0.6005
vn -0.6716 -0.2327 0.7034
vn -0.7118 0.6049 0.3570
vn -0.5422 -0.8380 -0.0611
vn -0.9443 -0.0677 -0.3221
vn -0.8405 -0.4955 -0.2192
vn -0.8428 0.4009 -0.3590
vn 0.2451 -0.0936 0.9650
vn -0.1961 0.9788 -0.0599
vn 0.7194 0.6859 -0.1098
vn -0.2643 0.8547 -0.4468
vn -0.7910 0.0270 0.6112
vn 0.8380 0.4971 0.2248
vn 0.9327 -0.1054 0.3449
vn 0.0361 0.9894 -0.1406
vn 0.7069 0.2602 -0.6577
vn 0.8212 -0.4442 0.3581
vn -0.2349 0.6951 0.6794
vn 0.1760 0.4817 -0.8585
vn -0.1170 -0.4768 -0.8712
vn 0.4111 0.6341 -0.6549
vn 0.2089 0.5035 0.8384
vn -0.3297 0.9084 -0.2570
vn -0.8817 0.3882 0.2680
vn -0.4111 -0.6340 0.6550
vn -0.7754 0.1952 0.6005
vn -0.7118 0.6049 0.3569
vn -0.5422 -0.8380 -0.0610
vn 0.7046 0.6833 -0.1914
vn -0.7715 0.1979 0.6047
vn 0.9154 0.3442 0.2085
vn 0.0361 0.9894 -0.1407
vn 0.8020 -0.2540 -0.5406
vn -0.3666 0.7293 0.5777
vn 0.2899 0.4463 -0.8466
s off
f 17/1/1 27/2/1 5/3/1
f 3/4/2 9/5/2 4/6/2
f 1/7/3 7/8/3 2/9/3
f 5/10/4 9/5/4 10/11/4
f 2/9/5 8/12/5 3/4/5
f 6/13/6 29/14/6 7/15/6
f 9/16/7 13/17/7 10/18/7
f 7/15/8 11/19/8 8/20/8
f 1/21/9 28/22/9 6/13/9
f 8/20/10 12/23/10 9/16/10
f 13/17/11 16/24/11 17/1/11
f 30/25/12 42/26/12 38/27/12
f 11/19/13 16/24/13 12/23/13
f 28/28/14 41/29/14 39/30/14
f 16/24/15 22/31/15 17/1/15
f 19/32/16 35/33/16 18/34/16
f 15/35/17 21/36/17 16/24/17
f 20/37/18 34/38/18 36/39/18
f 22/31/19 26/40/19 27/2/19
f 19/41/20 25/42/20 20/43/20
f 1/21/9 18/44/9 14/45/9
f 20/43/21 26/40/21 21/36/21
f 18/44/22 24/46/22 19/41/22
f 27/47/23 4/6/23 5/10/23
f 24/48/24 3/4/24 25/49/24
f 25/49/25 4/6/25 26/50/25
f 23/51/26 2/9/26 24/48/26
f 13/17/1 5/3/1 10/18/1
f 31/52/27 36/39/27 34/38/27
f 31/52/28 35/33/28 32/53/28
f 30/54/29 33/55/29 31/52/29
f 18/34/30 33/55/30 14/56/30
f 19/32/31 36/39/31 32/53/31
f 30/54/32 34/38/32 15/57/32
f 37/58/33 42/26/33 40/59/33
f 37/58/34 41/29/34 38/27/34
f 29/60/35 40/59/35 11/61/35
f 11/61/36 42/26/36 15/62/36
f 30/25/37 41/29/37 14/63/37
f 29/60/38 39/30/38 37/58/38
f 17/1/1 22/31/1 27/2/1
f 3/4/39 8/12/39 9/5/39
f 1/7/3 6/64/3 7/8/3
f 5/10/4 4/6/4 9/5/4
f 2/9/5 7/8/5 8/12/5
f 6/13/40 28/22/40 29/14/40
f 9/16/7 12/23/7 13/17/7
f 7/15/8 29/14/8 11/19/8
f 1/21/9 14/45/9 28/22/9
f 8/20/10 11/19/10 12/23/10
f 13/17/11 12/23/11 16/24/11
f 30/25/41 15/62/41 42/26/41
f 11/19/13 15/35/13 16/24/13
f 28/28/42 14/63/42 41/29/42
f 16/24/15 21/36/15 22/31/15
f 19/32/43 32/53/43 35/33/43
f 15/35/17 20/43/17 21/36/17
f 20/37/18 15/57/18 34/38/18
f 22/31/44 21/36/44 26/40/44
f 19/41/45 24/46/45 25/42/45
f 1/21/9 23/65/9 18/44/9
f 20/43/21 25/42/21 26/40/21
f 18/44/46 23/65/46 24/46/46
f 27/47/47 26/50/47 4/6/47
f 24/48/24 2/9/24 3/4/24
f 25/49/25 3/4/25 4/6/25
f 23/51/26 1/7/26 2/9/26
f 13/17/1 17/1/1 5/3/1
f 31/52/27 32/53/27 36/39/27
f 31/52/28 33/55/28 35/33/28
f 30/54/48 14/56/48 33/55/48
f 18/34/30 35/33/30 33/55/30
f 19/32/49 20/37/49 36/39/49
f 30/54/50 31/52/50 34/38/50
f 37/58/33 38/27/33 42/26/33
f 37/58/51 39/30/51 41/29/51
f 29/60/52 37/58/52 40/59/52
f 11/61/36 40/59/36 42/26/36
f 30/25/53 38/27/53 41/29/53
f 29/60/54 28/28/54 39/30/54
v 1.245301 1.406823 -1.423946
v 1.256476 1.384901 -1.409245
v 1.255231 1.357595 -1.400617
v 1.241898 1.332222 -1.400374
v 1.220050 1.315581 -1.408581
v 1.221633 1.415323 -1.412364
v 1.215482 1.399623 -1.389184
v 1.207895 1.374595 -1.377453
v 1.200904 1.346945 -1.380313
v 1.196382 1.324081 -1.396999
v 1.162784 1.381809 -1.408746
v 1.161837 1.353192 -1.407414
v 1.173827 1.327688 -1.412645
v 1.200190 1.414037 -1.455239
v 1.165010 1.372023 -1.463203
v 1.163764 1.344717 -1.454575
v 1.174940 1.322795 -1.439874
v 1.223858 1.405537 -1.466820
v 1.219337 1.382673 -1.483506
v 1.212346 1.355023 -1.486366
v 1.204758 1.329995 -1.474635
v 1.198608 1.314295 -1.451456
v 1.246413 1.401930 -1.451174
v 1.258403 1.376426 -1.456405
v 1.257456 1.347809 -1.455073
v 1.243825 1.323747 -1.447535
v 1.221163 1.310688 -1.435809
v 1.199077 1.418930 -1.428010
v 1.176415 1.405871 -1.416285
v 1.178342 1.397396 -1.463446
v 1.184161 1.408302 -1.512202
v 1.187506 1.407100 -1.513839
v 1.197358 1.416649 -1.479656
v 1.173950 1.381149 -1.492409
v 1.209073 1.412442 -1.485389
v 1.192122 1.374623 -1.501302
v 1.143388 1.431432 -1.440838
v 1.143844 1.429426 -1.452001
v 1.161996 1.431415 -1.442736
v 1.146601 1.408678 -1.438845
v 1.162205 1.430496 -1.447852
v 1.146811 1.407756 -1.443976
vt 0.274240 0.539347
vt 0.265397 0.539709
vt 0.266768 0.532487
vt 0.231414 0.551290
vt 0.214659 0.541092
vt 0.231357 0.542861
vt 0.231940 0.569242
vt 0.215985 0.562822
vt 0.231472 0.559719
vt 0.230890 0.533338
vt 0.220414 0.530957
vt 0.213134 0.552274
vt 0.289666 0.544440
vt 0.282983 0.540904
vt 0.290637 0.536818
vt 0.279682 0.529141
vt 0.275518 0.536619
vt 0.273707 0.532162
vt 0.280945 0.538772
vt 0.286431 0.530872
vt 0.290637 0.551375
vt 0.284312 0.543753
vt 0.278488 0.537315
vt 0.276318 0.541045
vt 0.804698 0.251197
vt 0.792375 0.255919
vt 0.792638 0.252041
vt 0.786357 0.239035
vt 0.792578 0.249274
vt 0.791489 0.249454
vt 0.271776 0.541127
vt 0.760733 0.199751
vt 0.757502 0.209505
vt 0.750621 0.206121
vt 0.278108 0.542645
vt 0.273009 0.544115
vt 0.772804 0.201934
vt 0.766718 0.213101
vt 0.766203 0.208706
vt 0.264007 0.548518
vt 0.277612 0.547903
vt 0.268747 0.555467
vt 0.275021 0.546378
vt 0.280714 0.548498
vt 0.281954 0.545638
vt 0.276612 0.557409
vt 0.240880 0.530957
vt 0.248168 0.561486
vt 0.249693 0.550306
vt 0.246843 0.539760
vt 0.242415 0.571620
vt 0.762287 0.211045
vt 0.762255 0.210544
vt 0.761023 0.221925
vt 0.757316 0.212491
vt 0.750922 0.216572
vt 0.772804 0.220841
vt 0.791613 0.252007
vt 0.791097 0.255536
vt 0.780068 0.250772
vt 0.780487 0.263708
vt 0.804698 0.264828
vt 0.798786 0.238814
vt 0.221949 0.571626
vt 0.283377 0.553479
vn -0.2633 -0.9513 0.1602
vn 0.3761 -0.1889 0.9071
vn 0.5103 0.6431 0.5710
vn 0.1657 -0.6025 0.7807
vn 0.4951 0.2412 0.8347
vn -0.2183 0.8339 0.5069
vn -0.5630 -0.4117 0.7166
vn -0.4439 0.4871 0.7521
vn 0.2633 0.9513 -0.1602
vn -0.5629 0.0570 0.8246
vn -0.9010 -0.4319 0.0408
vn -0.5728 -0.3525 -0.7400
vn -0.9984 0.0309 -0.0464
vn 0.3684 0.9175 -0.1498
vn -0.5104 -0.6431 -0.5710
vn 0.8009 0.2415 -0.5479
vn -0.4951 -0.2412 -0.8347
vn -0.4747 -0.7882 -0.3916
vn 0.2183 -0.8339 -0.5069
vn 0.5629 -0.0570 -0.8246
vn 0.4439 -0.4871 -0.7521
vn 0.5630 0.4117 -0.7166
vn 0.5563 -0.8136 0.1689
vn 0.9984 -0.0309 0.0464
vn 0.8794 -0.4610 0.1188
vn 0.9010 0.4319 -0.0408
vn -0.5123 -0.3717 -0.7742
vn 0.1817 0.9323 -0.3128
vn -0.6726 0.7352 0.0842
vn 0.3623 0.9303 0.0575
vn 0.5787 -0.2208 -0.7851
vn -0.8788 0.4606 -0.1251
vn -0.9899 -0.1411 -0.0151
vn -0.0172 0.9840 -0.1775
vn -0.4915 0.5015 0.7120
vn -0.8790 -0.4742 0.0493
vn 0.0111 0.4306 -0.9025
vn 0.0693 0.7362 0.6732
vn 0.5104 0.6431 0.5710
vn 0.1656 -0.6025 0.7807
vn -0.5630 -0.4117 0.7167
vn -0.4551 0.2309 -0.8600
vn 0.7565 0.2219 -0.6152
vn -0.6347 0.7571 0.1546
vn 0.5579 -0.0554 -0.8281
vn -0.9445 0.3262 -0.0397
vn -0.6043 -0.0156 0.7966
vn 0.1657 0.4853 -0.8585
vn -0.0422 0.7071 0.7059
s off
f 59/66/55 69/67/55 47/68/55
f 45/69/56 51/70/56 46/71/56
f 43/72/57 49/73/57 44/74/57
f 47/75/58 51/70/58 52/76/58
f 44/74/59 50/77/59 45/69/59
f 48/78/60 71/79/60 49/80/60
f 51/81/61 55/82/61 52/83/61
f 49/80/62 53/84/62 50/85/62
f 43/86/63 70/87/63 48/78/63
f 50/85/64 54/88/64 51/81/64
f 55/82/65 58/89/65 59/66/65
f 72/90/66 84/91/66 80/92/66
f 53/84/67 58/89/67 54/88/67
f 70/93/68 83/94/68 81/95/68
f 58/89/69 64/96/69 59/66/69
f 61/97/70 77/98/70 60/99/70
f 57/100/71 63/101/71 58/89/71
f 62/102/72 76/103/72 78/104/72
f 64/96/73 68/105/73 69/67/73
f 61/106/74 67/107/74 62/108/74
f 43/86/63 60/109/63 56/110/63
f 62/108/75 68/105/75 63/101/75
f 60/109/76 66/111/76 61/106/76
f 69/112/77 46/71/77 47/75/77
f 66/113/78 45/69/78 67/114/78
f 67/114/79 46/71/79 68/115/79
f 65/116/80 44/74/80 66/113/80
f 55/82/55 47/68/55 52/83/55
f 73/117/81 78/104/81 76/103/81
f 73/117/82 77/98/82 74/118/82
f 72/119/83 75/120/83 73/117/83
f 60/99/84 75/120/84 56/121/84
f 61/97/85 78/104/85 74/118/85
f 72/119/86 76/103/86 57/122/86
f 79/123/87 84/91/87 82/124/87
f 79/123/88 83/94/88 80/92/88
f 71/125/89 82/124/89 53/126/89
f 53/126/90 84/91/90 57/127/90
f 72/90/91 83/94/91 56/128/91
f 71/125/92 81/95/92 79/123/92
f 59/66/55 64/96/55 69/67/55
f 45/69/56 50/77/56 51/70/56
f 43/72/93 48/129/93 49/73/93
f 47/75/94 46/71/94 51/70/94
f 44/74/59 49/73/59 50/77/59
f 48/78/60 70/87/60 71/79/60
f 51/81/95 54/88/95 55/82/95
f 49/80/62 71/79/62 53/84/62
f 43/86/63 56/110/63 70/87/63
f 50/85/64 53/84/64 54/88/64
f 55/82/65 54/88/65 58/89/65
f 72/90/96 57/127/96 84/91/96
f 53/84/67 57/100/67 58/89/67
f 70/93/68 56/128/68 83/94/68
f 58/89/69 63/101/69 64/96/69
f 61/97/97 74/118/97 77/98/97
f 57/100/71 62/108/71 63/101/71
f 62/102/72 57/122/72 76/103/72
f 64/96/73 63/101/73 68/105/73
f 61/106/74 66/111/74 67/107/74
f 43/86/63 65/130/63 60/109/63
f 62/108/75 67/107/75 68/105/75
f 60/109/76 65/130/76 66/111/76
f 69/112/77 68/115/77 46/71/77
f 66/113/78 44/74/78 45/69/78
f 67/114/79 45/69/79 46/71/79
f 65/116/80 43/72/80 44/74/80
f 55/82/55 59/66/55 47/68/55
f 73/117/81 74/118/81 78/104/81
f 73/117/82 75/120/82 77/98/82
f 72/119/98 56/121/98 75/120/98
f 60/99/84 77/98/84 75/120/84
f 61/97/99 62/102/99 78/104/99
f 72/119/100 73/117/100 76/103/100
f 79/123/87 80/92/87 84/91/87
f 79/123/88 81/95/88 83/94/88
f 71/125/101 79/123/101 82/124/101
f 53/126/90 82/124/90 84/91/90
f 72/90/102 80/92/102 83/94/102
f 71/125/103 70/93/103 81/95/103
