# Blender v2.81 (sub 16) OBJ File: 'garbage.blend'
# www.blender.org
v 0.470244 2.634269 -1.083774
v 0.483570 2.610010 -1.091229
v 0.483739 2.581427 -1.093357
v 0.470708 2.556176 -1.089589
v 0.447968 2.541025 -1.080934
v 0.467352 2.635797 -1.056281
v 0.478559 2.612658 -1.043610
v 0.477954 2.584484 -1.038371
v 0.465698 2.558824 -1.041970
v 0.445075 2.542553 -1.053441
v 0.428687 2.596924 -1.016365
v 0.423032 2.569597 -1.022911
v 0.420442 2.548774 -1.042437
v 0.420978 2.646709 -1.061767
v 0.385206 2.606308 -1.049344
v 0.385376 2.577724 -1.051472
v 0.398701 2.553465 -1.058927
v 0.423871 2.645181 -1.089260
v 0.403248 2.628911 -1.100731
v 0.390992 2.603251 -1.104329
v 0.390386 2.575076 -1.099091
v 0.401594 2.551937 -1.086420
v 0.448504 2.638960 -1.100263
v 0.445914 2.618137 -1.119789
v 0.440258 2.590810 -1.126336
v 0.433052 2.564302 -1.118150
v 0.426227 2.545717 -1.097423
v 0.442718 2.642018 -1.045278
v 0.435893 2.623432 -1.024551
v 0.398237 2.631558 -1.053112
v 0.365763 2.658772 -1.080219
v 0.366172 2.658556 -1.084104
v 0.400753 2.657057 -1.071511
v 0.369489 2.625620 -1.069249
v 0.402185 2.656301 -1.085120
v 0.371710 2.624446 -1.090358
v 0.402892 2.652068 -1.003624
v 0.393979 2.653991 -1.010384
v 0.412247 2.654681 -1.019609
v 0.401439 2.630450 -1.011537
v 0.408162 2.655563 -1.022707
v 0.397343 2.631334 -1.014644
vt 0.274240 0.539347
vt 0.265397 0.539709
vt 0.266768 0.532487
vt 0.231414 0.551290
vt 0.214659 0.541092
vt 0.231357 0.542861
vt 0.231940 0.569242
vt 0.215985 0.562822
vt 0.231472 0.559719
vt 0.230890 0.533338
vt 0.220414 0.530957
vt 0.213134 0.552274
vt 0.289666 0.544440
vt 0.282983 0.540904
vt 0.290637 0.536818
vt 0.279682 0.529141
vt 0.275518 0.536619
vt 0.273707 0.532162
vt 0.280945 0.538772
vt 0.286431 0.530872
vt 0.290637 0.551375
vt 0.284312 0.543753
vt 0.278488 0.537315
vt 0.276318 0.541045
vt 0.804698 0.251197
vt 0.792375 0.255919
vt 0.792638 0.252041
vt 0.786357 0.239035
vt 0.792578 0.249274
vt 0.791489 0.249454
vt 0.271776 0.541127
vt 0.760733 0.199751
vt 0.757502 0.209505
vt 0.750621 0.206121
vt 0.278108 0.542645
vt 0.273009 0.544115
vt 0.772804 0.201934
vt 0.766718 0.213101
vt 0.766203 0.208706
vt 0.264007 0.548518
vt 0.277612 0.547903
vt 0.268747 0.555467
vt 0.275021 0.546378
vt 0.280714 0.548498
vt 0.281954 0.545638
vt 0.276612 0.557409
vt 0.240880 0.530957
vt 0.248168 0.561486
vt 0.249693 0.550306
vt 0.246843 0.539760
vt 0.242415 0.571620
vt 0.762287 0.211045
vt 0.762255 0.210544
vt 0.761023 0.221925
vt 0.757316 0.212491
vt 0.750922 0.216572
vt 0.772804 0.220841
vt 0.791613 0.252007
vt 0.791097 0.255536
vt 0.780068 0.250772
vt 0.780487 0.263708
vt 0.804698 0.264828
vt 0.798786 0.238814
vt 0.221949 0.571626
vt 0.283377 0.553479
vn -0.2323 -0.9722 0.0296
vn 0.8895 -0.4414 0.1181
vn 0.8831 0.4644 0.0671
vn 0.5790 -0.8085 0.1059
vn 0.9945 -0.0019 0.1047
vn 0.4492 0.5866 0.6739
vn 0.1450 -0.6863 0.7127
vn 0.4354 0.1555 0.8867
vn 0.2323 0.9722 -0.0296
vn 0.3303 -0.2840 0.9001
vn -0.5860 -0.5143 0.6262
vn -0.9895 -0.1424 -0.0238
vn -0.6116 -0.0624 0.7887
vn 0.2944 0.9483 -0.1183
vn -0.8831 -0.4644 -0.0671
vn 0.0893 0.4958 -0.8638
vn -0.9945 0.0019 -0.1047
vn -0.7529 -0.6568 -0.0427
vn -0.4492 -0.5866 -0.6739
vn -0.3303 0.2840 -0.9001
vn -0.4354 -0.1555 -0.8867
vn -0.1450 0.6863 -0.7127
vn 0.2818 -0.7586 -0.5874
vn 0.6116 0.0624 -0.7887
vn 0.5066 -0.3772 -0.7753
vn 0.5860 0.5143 -0.6262
vn -0.9852 -0.1424 -0.0957
vn 0.0611 0.9969 -0.0490
vn -0.1682 0.5877 0.7914
vn 0.4561 0.8900 -0.0015
vn -0.3254 0.1192 -0.9380
vn -0.5113 0.3790 0.7714
vn -0.6191 -0.2329 0.7500
vn 0.0622 0.9785 0.1964
vn 0.3792 0.1774 0.9082
vn -0.5756 -0.5544 0.6011
vn -0.6083 0.7074 -0.3599
vn 0.7261 0.4701 0.5018
vn 0.5789 -0.8085 0.1059
vn 0.4491 0.5866 0.6739
vn 0.3304 -0.2840 0.9001
vn -0.8896 0.4564 -0.0180
vn 0.2944 0.9483 -0.1184
vn 0.0065 0.4954 -0.8687
vn -0.3304 0.2840 -0.9001
vn -0.0862 0.5885 0.8039
vn -0.3357 0.2862 -0.8975
vn -0.5116 0.2176 0.8313
vn 0.2687 -0.3470 0.8985
vn -0.4720 0.7603 -0.4462
vn 0.6804 0.4199 0.6006
s off
f 17/1/1 27/2/1 5/3/1
f 3/4/2 9/5/2 4/6/2
f 1/7/3 7/8/3 2/9/3
f 5/10/4 9/5/4 10/11/4
f 2/9/5 8/12/5 3/4/5
f 6/13/6 29/14/6 7/15/6
f 9/16/7 13/17/7 10/18/7
f 7/15/8 11/19/8 8/20/8
f 1/21/9 28/22/9 6/13/9
f 8/20/10 12/23/10 9/16/10
f 13/17/11 16/24/11 17/1/11
f 30/25/12 42/26/12 38/27/12
f 11/19/13 16/24/13 12/23/13
f 28/28/14 41/29/14 39/30/14
f 16/24/15 22/31/15 17/1/15
f 19/32/16 35/33/16 18/34/16
f 15/35/17 21/36/17 16/24/17
f 20/37/18 34/38/18 36/39/18
f 22/31/19 26/40/19 27/2/19
f 19/41/20 25/42/20 20/43/20
f 1/21/9 18/44/9 14/45/9
f 20/43/21 26/40/21 21/36/21
f 18/44/22 24/46/22 19/41/22
f 27/47/23 4/6/23 5/10/23
f 24/48/24 3/4/24 25/49/24
f 25/49/25 4/6/25 26/50/25
f 23/51/26 2/9/26 24/48/26
f 13/17/1 5/3/1 10/18/1
f 31/52/27 36/39/27 34/38/27
f 31/52/28 35/33/28 32/53/28
f 30/54/29 33/55/29 31/52/29
f 18/34/30 33/55/30 14/56/30
f 19/32/31 36/39/31 32/53/31
f 30/54/32 34/38/32 15/57/32
f 37/58/33 42/26/33 40/59/33
f 37/58/34 41/29/34 38/27/34
f 29/60/35 40/59/35 11/61/35
f 11/61/36 42/26/36 15/62/36
f 30/25/37 41/29/37 14/63/37
f 29/60/38 39/30/38 37/58/38
f 17/1/1 22/31/1 27/2/1
f 3/4/2 8/12/2 9/5/2
f 1/7/3 6/64/3 7/8/3
f 5/10/39 4/6/39 9/5/39
f 2/9/5 7/8/5 8/12/5
f 6/13/40 28/22/40 29/14/40
f 9/16/7 12/23/7 13/17/7
f 7/15/8 29/14/8 11/19/8
f 1/21/9 14/45/9 28/22/9
f 8/20/41 11/19/41 12/23/41
f 13/17/11 12/23/11 16/24/11
f 30/25/42 15/62/42 42/26/42
f 11/19/13 15/35/13 16/24/13
f 28/28/43 14/63/43 41/29/43
f 16/24/15 21/36/15 22/31/15
f 19/32/44 32/53/44 35/33/44
f 15/35/17 20/43/17 21/36/17
f 20/37/18 15/57/18 34/38/18
f 22/31/19 21/36/19 26/40/19
f 19/41/45 24/46/45 25/42/45
f 1/21/9 23/65/9 18/44/9
f 20/43/21 25/42/21 26/40/21
f 18/44/22 23/65/22 24/46/22
f 27/47/23 26/50/23 4/6/23
f 24/48/24 2/9/24 3/4/24
f 25/49/25 3/4/25 4/6/25
f 23/51/26 1/7/26 2/9/26
f 13/17/1 17/1/1 5/3/1
f 31/52/27 32/53/27 36/39/27
f 31/52/28 33/55/28 35/33/28
f 30/54/46 14/56/46 33/55/46
f 18/34/30 35/33/30 33/55/30
f 19/32/47 20/37/47 36/39/47
f 30/54/48 31/52/48 34/38/48
f 37/58/33 38/27/33 42/26/33
f 37/58/34 39/30/34 41/29/34
f 29/60/49 37/58/49 40/59/49
f 11/61/36 40/59/36 42/26/36
f 30/25/50 38/27/50 41/29/50
f 29/60/51 28/28/51 39/30/51
v 1.715219 2.162126 -0.715014
v 1.695602 2.148542 -0.699133
v 1.684335 2.124173 -0.689093
v 1.684436 2.095549 -0.687585
v 1.695880 2.070340 -0.695012
v 1.711198 2.157105 -0.741944
v 1.688637 2.139844 -0.745776
v 1.676293 2.114130 -0.742951
v 1.677472 2.086852 -0.734227
v 1.691859 2.065319 -0.721941
v 1.718723 2.098251 -0.774792
v 1.714217 2.073101 -0.761802
v 1.713074 2.057380 -0.737861
v 1.757649 2.146248 -0.746855
v 1.769194 2.092415 -0.752774
v 1.757927 2.068046 -0.742734
v 1.738310 2.054462 -0.726852
v 1.761670 2.151269 -0.719926
v 1.776057 2.129736 -0.707640
v 1.777236 2.102458 -0.698916
v 1.764892 2.076744 -0.696091
v 1.742331 2.059483 -0.699923
v 1.740455 2.159208 -0.704005
v 1.739312 2.143487 -0.680065
v 1.734806 2.118337 -0.667075
v 1.728146 2.090495 -0.668517
v 1.721116 2.067422 -0.684003
v 1.732413 2.149166 -0.757864
v 1.725383 2.126093 -0.773350
v 1.769093 2.121039 -0.754282
v 1.815687 2.134688 -0.741144
v 1.816255 2.135398 -0.737338
v 1.782109 2.147710 -0.743592
v 1.796025 2.105596 -0.741700
v 1.784099 2.150196 -0.730262
v 1.799112 2.109451 -0.721024
v 1.760482 2.131968 -0.806222
v 1.770828 2.130772 -0.801709
v 1.757538 2.141461 -0.790377
v 1.754989 2.113961 -0.792895
v 1.762280 2.140913 -0.788309
v 1.759744 2.113411 -0.790821
vt 0.274240 0.539347
vt 0.265397 0.539709
vt 0.266768 0.532487
vt 0.231414 0.551290
vt 0.214659 0.541092
vt 0.231357 0.542861
vt 0.231940 0.569242
vt 0.215985 0.562822
vt 0.231472 0.559719
vt 0.230890 0.533338
vt 0.220414 0.530957
vt 0.213134 0.552274
vt 0.289666 0.544440
vt 0.282983 0.540904
vt 0.290637 0.536818
vt 0.279682 0.529141
vt 0.275518 0.536619
vt 0.273707 0.532162
vt 0.280945 0.538772
vt 0.286431 0.530872
vt 0.290637 0.551375
vt 0.284312 0.543753
vt 0.278488 0.537315
vt 0.276318 0.541045
vt 0.804698 0.251197
vt 0.792375 0.255919
vt 0.792638 0.252041
vt 0.786357 0.239035
vt 0.792578 0.249274
vt 0.791489 0.249454
vt 0.271776 0.541127
vt 0.760733 0.199751
vt 0.757502 0.209505
vt 0.750621 0.206121
vt 0.278108 0.542645
vt 0.273009 0.544115
vt 0.772804 0.201934
vt 0.766718 0.213101
vt 0.766203 0.208706
vt 0.264007 0.548518
vt 0.277612 0.547903
vt 0.268747 0.555467
vt 0.275021 0.546378
vt 0.280714 0.548498
vt 0.281954 0.545638
vt 0.276612 0.557409
vt 0.240880 0.530957
vt 0.248168 0.561486
vt 0.249693 0.550306
vt 0.246843 0.539760
vt 0.242415 0.571620
vt 0.762287 0.211045
vt 0.762255 0.210544
vt 0.761023 0.221925
vt 0.757316 0.212491
vt 0.750922 0.216572
vt 0.772804 0.220841
vt 0.791613 0.252007
vt 0.791097 0.255536
vt 0.780068 0.250772
vt 0.780487 0.263708
vt 0.804698 0.264828
vt 0.798786 0.238814
vt 0.221949 0.571626
vt 0.283377 0.553479
vn -0.2016 -0.9570 0.2086
vn -0.9891 0.0042 0.1469
vn -0.6002 0.7977 -0.0591
vn -0.8642 -0.4553 0.2139
vn -0.8980 0.4369 0.0526
vn -0.3292 0.5933 -0.7346
vn -0.5932 -0.6597 -0.4615
vn -0.5487 0.1736 -0.8178
vn 0.2016 0.9570 -0.2086
vn -0.6399 -0.2590 -0.7235
vn 0.1390 -0.8308 -0.5389
vn 0.8136 -0.5747 -0.0882
vn 0.3037 -0.4796 -0.8233
vn 0.1607 0.9810 -0.1083
vn 0.6002 -0.7977 0.0591
vn 0.3498 0.6296 0.6937
vn 0.8980 -0.4369 -0.0526
vn 0.4014 -0.9093 0.1096
vn 0.3292 -0.5934 0.7346
vn 0.6399 0.2591 0.7235
vn 0.5487 -0.1736 0.8178
vn 0.5932 0.6597 0.4615
vn -0.4030 -0.4222 0.8120
vn -0.3037 0.4796 0.8233
vn -0.3948 0.0469 0.9175
vn -0.1390 0.8308 0.5389
vn 0.8285 -0.5596 -0.0194
vn 0.3665 0.9032 -0.2232
vn 0.1805 0.2887 -0.9402
vn -0.0350 0.9834 -0.1781
vn 0.5781 0.1250 0.8063
vn 0.4007 -0.0468 -0.9150
vn 0.2507 -0.6241 -0.7400
vn 0.2940 0.8430 -0.4504
vn -0.4962 0.1629 -0.8528
vn 0.1201 -0.8563 -0.5024
vn 0.9149 0.4004 0.0507
vn -0.5741 0.6510 -0.4966
vn -0.2016 -0.9570 0.2085
vn -0.8642 -0.4554 0.2139
vn -0.3292 0.5934 -0.7346
vn -0.6399 -0.2591 -0.7235
vn 0.9692 -0.0095 -0.2460
vn 0.4233 0.5919 0.6859
vn 0.4015 -0.9093 0.1096
vn 0.6399 0.2590 0.7235
vn 0.2016 0.9570 -0.2085
vn 0.8285 -0.5596 -0.0193
vn 0.3666 0.9032 -0.2231
vn 0.1059 0.3250 -0.9398
vn -0.0350 0.9834 -0.1782
vn 0.6447 0.2580 0.7196
vn 0.3193 -0.1981 -0.9267
vn 0.2506 -0.6241 -0.7400
vn 0.2940 0.8430 -0.4505
vn -0.6113 -0.3418 -0.7138
vn 0.1202 -0.8563 -0.5024
vn 0.8398 0.5249 0.1384
vn -0.5804 0.5683 -0.5832
s off
f 59/66/52 69/67/52 47/68/52
f 45/69/53 51/70/53 46/71/53
f 43/72/54 49/73/54 44/74/54
f 47/75/55 51/70/55 52/76/55
f 44/74/56 50/77/56 45/69/56
f 48/78/57 71/79/57 49/80/57
f 51/81/58 55/82/58 52/83/58
f 49/80/59 53/84/59 50/85/59
f 43/86/60 70/87/60 48/78/60
f 50/85/61 54/88/61 51/81/61
f 55/82/62 58/89/62 59/66/62
f 72/90/63 84/91/63 80/92/63
f 53/84/64 58/89/64 54/88/64
f 70/93/65 83/94/65 81/95/65
f 58/89/66 64/96/66 59/66/66
f 61/97/67 77/98/67 60/99/67
f 57/100/68 63/101/68 58/89/68
f 62/102/69 76/103/69 78/104/69
f 64/96/70 68/105/70 69/67/70
f 61/106/71 67/107/71 62/108/71
f 43/86/60 60/109/60 56/110/60
f 62/108/72 68/105/72 63/101/72
f 60/109/73 66/111/73 61/106/73
f 69/112/74 46/71/74 47/75/74
f 66/113/75 45/69/75 67/114/75
f 67/114/76 46/71/76 68/115/76
f 65/116/77 44/74/77 66/113/77
f 55/82/52 47/68/52 52/83/52
f 73/117/78 78/104/78 76/103/78
f 73/117/79 77/98/79 74/118/79
f 72/119/80 75/120/80 73/117/80
f 60/99/81 75/120/81 56/121/81
f 61/97/82 78/104/82 74/118/82
f 72/119/83 76/103/83 57/122/83
f 79/123/84 84/91/84 82/124/84
f 79/123/85 83/94/85 80/92/85
f 71/125/86 82/124/86 53/126/86
f 53/126/87 84/91/87 57/127/87
f 72/90/88 83/94/88 56/128/88
f 71/125/89 81/95/89 79/123/89
f 59/66/90 64/96/90 69/67/90
f 45/69/53 50/77/53 51/70/53
f 43/72/54 48/129/54 49/73/54
f 47/75/91 46/71/91 51/70/91
f 44/74/56 49/73/56 50/77/56
f 48/78/92 70/87/92 71/79/92
f 51/81/58 54/88/58 55/82/58
f 49/80/59 71/79/59 53/84/59
f 43/86/60 56/110/60 70/87/60
f 50/85/93 53/84/93 54/88/93
f 55/82/62 54/88/62 58/89/62
f 72/90/94 57/127/94 84/91/94
f 53/84/64 57/100/64 58/89/64
f 70/93/65 56/128/65 83/94/65
f 58/89/66 63/101/66 64/96/66
f 61/97/95 74/118/95 77/98/95
f 57/100/68 62/108/68 63/101/68
f 62/102/96 57/122/96 76/103/96
f 64/96/70 63/101/70 68/105/70
f 61/106/97 66/111/97 67/107/97
f 43/86/98 65/130/98 60/109/98
f 62/108/72 67/107/72 68/105/72
f 60/109/73 65/130/73 66/111/73
f 69/112/74 68/115/74 46/71/74
f 66/113/75 44/74/75 45/69/75
f 67/114/76 45/69/76 46/71/76
f 65/116/77 43/72/77 44/74/77
f 55/82/52 59/66/52 47/68/52
f 73/117/99 74/118/99 78/104/99
f 73/117/100 75/120/100 77/98/100
f 72/119/101 56/121/101 75/120/101
f 60/99/102 77/98/102 75/120/102
f 61/97/103 62/102/103 78/104/103
f 72/119/104 73/117/104 76/103/104
f 79/123/105 80/92/105 84/91/105
f 79/123/106 81/95/106 83/94/106
f 71/125/107 79/123/107 82/124/107
f 53/126/108 82/124/108 84/91/108
f 72/90/109 80/92/109 83/94/109
f 71/125/110 70/93/110 81/95/110
