# Blender v2.81 (sub 16) OBJ File: 'garbage.blend'
# www.blender.org
v 0.548135 2.611283 -1.113635
v 0.560832 2.586236 -1.119384
v 0.559888 2.557611 -1.120519
v 0.545557 2.533077 -1.116738
v 0.521678 2.519209 -1.109053
v 0.543588 2.613943 -1.086454
v 0.552956 2.590842 -1.072304
v 0.550794 2.562929 -1.066157
v 0.537681 2.537683 -1.069659
v 0.517131 2.521868 -1.081872
v 0.500831 2.578199 -1.047807
v 0.494412 2.550907 -1.053767
v 0.492149 2.529503 -1.072697
v 0.498172 2.626553 -1.095285
v 0.459961 2.588151 -1.083819
v 0.459017 2.559525 -1.084955
v 0.471714 2.534479 -1.090703
v 0.502718 2.623894 -1.122466
v 0.482168 2.608079 -1.134679
v 0.469055 2.582833 -1.138181
v 0.466893 2.554920 -1.132034
v 0.476261 2.531819 -1.117884
v 0.527700 2.616259 -1.131641
v 0.525438 2.594855 -1.150571
v 0.519018 2.567563 -1.156532
v 0.510162 2.541695 -1.147926
v 0.501243 2.524184 -1.127059
v 0.518606 2.621578 -1.077279
v 0.509687 2.604067 -1.056413
v 0.474293 2.612685 -1.087600
v 0.444805 2.640201 -1.117656
v 0.445448 2.639825 -1.121497
v 0.479070 2.637363 -1.106659
v 0.446384 2.607350 -1.105344
v 0.481321 2.636046 -1.120113
v 0.449875 2.605308 -1.126213
v 0.476716 2.634794 -1.038644
v 0.468338 2.636834 -1.046026
v 0.487163 2.636428 -1.054074
v 0.474822 2.612978 -1.045892
v 0.483323 2.637363 -1.057457
v 0.470971 2.613916 -1.049284
vt 0.274240 0.539347
vt 0.265397 0.539709
vt 0.266768 0.532487
vt 0.231414 0.551290
vt 0.214659 0.541092
vt 0.231357 0.542861
vt 0.231940 0.569242
vt 0.215985 0.562822
vt 0.231472 0.559719
vt 0.230890 0.533338
vt 0.220414 0.530957
vt 0.213134 0.552274
vt 0.289666 0.544440
vt 0.282983 0.540904
vt 0.290637 0.536818
vt 0.279682 0.529141
vt 0.275518 0.536619
vt 0.273707 0.532162
vt 0.280945 0.538772
vt 0.286431 0.530872
vt 0.290637 0.551375
vt 0.284312 0.543753
vt 0.278488 0.537315
vt 0.276318 0.541045
vt 0.804698 0.251197
vt 0.792375 0.255919
vt 0.792638 0.252041
vt 0.786357 0.239035
vt 0.792578 0.249274
vt 0.791489 0.249454
vt 0.271776 0.541127
vt 0.760733 0.199751
vt 0.757502 0.209505
vt 0.750621 0.206121
vt 0.278108 0.542645
vt 0.273009 0.544115
vt 0.772804 0.201934
vt 0.766718 0.213101
vt 0.766203 0.208706
vt 0.264007 0.548518
vt 0.277612 0.547903
vt 0.268747 0.555467
vt 0.275021 0.546378
vt 0.280714 0.548498
vt 0.281954 0.545638
vt 0.276612 0.557409
vt 0.240880 0.530957
vt 0.248168 0.561486
vt 0.249693 0.550306
vt 0.246843 0.539760
vt 0.242415 0.571620
vt 0.762287 0.211045
vt 0.762255 0.210544
vt 0.761023 0.221925
vt 0.757316 0.212491
vt 0.750922 0.216572
vt 0.772804 0.220841
vt 0.791613 0.252007
vt 0.791097 0.255536
vt 0.780068 0.250772
vt 0.780487 0.263708
vt 0.804698 0.264828
vt 0.798786 0.238814
vt 0.221949 0.571626
vt 0.283377 0.553479
vn -0.2759 -0.9600 0.0478
vn 0.8602 -0.4732 0.1902
vn 0.8965 0.4297 0.1079
vn 0.5353 -0.8273 0.1705
vn 0.9849 -0.0392 0.1686
vn 0.4310 0.5920 0.6810
vn 0.0699 -0.6650 0.7436
vn 0.3851 0.1699 0.9071
vn 0.2759 0.9600 -0.0478
vn 0.2604 -0.2641 0.9287
vn -0.6461 -0.4662 0.6044
vn -0.9913 -0.1021 -0.0827
vn -0.6622 -0.0079 0.7493
vn 0.3424 0.9303 -0.1315
vn -0.8965 -0.4297 -0.1079
vn 0.1650 0.4595 -0.8727
vn -0.9849 0.0392 -0.1686
vn -0.7766 -0.6262 -0.0687
vn -0.4310 -0.5920 -0.6810
vn -0.2604 0.2641 -0.9287
vn -0.3851 -0.1699 -0.9071
vn -0.0699 0.6650 -0.7436
vn 0.2849 -0.7907 -0.5418
vn 0.6622 0.0079 -0.7493
vn 0.5375 -0.4261 -0.7277
vn 0.6461 0.4662 -0.6044
vn -0.9825 -0.1050 -0.1541
vn 0.1074 0.9911 -0.0790
vn -0.1918 0.6229 0.7584
vn 0.4936 0.8697 -0.0025
vn -0.2602 0.0979 -0.9606
vn -0.5418 0.4280 0.7234
vn -0.6746 -0.1793 0.7161
vn 0.0924 0.9817 0.1665
vn 0.3287 0.1949 0.9241
vn -0.6359 -0.5076 0.5814
vn -0.5530 0.7182 -0.4223
vn 0.7129 0.4578 0.5312
vn -0.2758 -0.9600 0.0478
vn 0.2759 0.9600 -0.0477
vn -0.8659 0.4918 -0.0909
vn 0.0828 0.4623 -0.8828
vn -0.1108 0.6208 0.7761
vn -0.2658 0.2665 -0.9265
vn -0.5528 0.2690 0.7887
vn 0.1963 -0.3244 0.9253
vn -0.4093 0.7623 -0.5014
vn 0.6590 0.4132 0.6285
s off
f 17/1/1 27/2/1 5/3/1
f 3/4/2 9/5/2 4/6/2
f 1/7/3 7/8/3 2/9/3
f 5/10/4 9/5/4 10/11/4
f 2/9/5 8/12/5 3/4/5
f 6/13/6 29/14/6 7/15/6
f 9/16/7 13/17/7 10/18/7
f 7/15/8 11/19/8 8/20/8
f 1/21/9 28/22/9 6/13/9
f 8/20/10 12/23/10 9/16/10
f 13/17/11 16/24/11 17/1/11
f 30/25/12 42/26/12 38/27/12
f 11/19/13 16/24/13 12/23/13
f 28/28/14 41/29/14 39/30/14
f 16/24/15 22/31/15 17/1/15
f 19/32/16 35/33/16 18/34/16
f 15/35/17 21/36/17 16/24/17
f 20/37/18 34/38/18 36/39/18
f 22/31/19 26/40/19 27/2/19
f 19/41/20 25/42/20 20/43/20
f 1/21/9 18/44/9 14/45/9
f 20/43/21 26/40/21 21/36/21
f 18/44/22 24/46/22 19/41/22
f 27/47/23 4/6/23 5/10/23
f 24/48/24 3/4/24 25/49/24
f 25/49/25 4/6/25 26/50/25
f 23/51/26 2/9/26 24/48/26
f 13/17/1 5/3/1 10/18/1
f 31/52/27 36/39/27 34/38/27
f 31/52/28 35/33/28 32/53/28
f 30/54/29 33/55/29 31/52/29
f 18/34/30 33/55/30 14/56/30
f 19/32/31 36/39/31 32/53/31
f 30/54/32 34/38/32 15/57/32
f 37/58/33 42/26/33 40/59/33
f 37/58/34 41/29/34 38/27/34
f 29/60/35 40/59/35 11/61/35
f 11/61/36 42/26/36 15/62/36
f 30/25/37 41/29/37 14/63/37
f 29/60/38 39/30/38 37/58/38
f 17/1/39 22/31/39 27/2/39
f 3/4/2 8/12/2 9/5/2
f 1/7/3 6/64/3 7/8/3
f 5/10/4 4/6/4 9/5/4
f 2/9/5 7/8/5 8/12/5
f 6/13/6 28/22/6 29/14/6
f 9/16/7 12/23/7 13/17/7
f 7/15/8 29/14/8 11/19/8
f 1/21/40 14/45/40 28/22/40
f 8/20/10 11/19/10 12/23/10
f 13/17/11 12/23/11 16/24/11
f 30/25/41 15/62/41 42/26/41
f 11/19/13 15/35/13 16/24/13
f 28/28/14 14/63/14 41/29/14
f 16/24/15 21/36/15 22/31/15
f 19/32/42 32/53/42 35/33/42
f 15/35/17 20/43/17 21/36/17
f 20/37/18 15/57/18 34/38/18
f 22/31/19 21/36/19 26/40/19
f 19/41/20 24/46/20 25/42/20
f 1/21/9 23/65/9 18/44/9
f 20/43/21 25/42/21 26/40/21
f 18/44/22 23/65/22 24/46/22
f 27/47/23 26/50/23 4/6/23
f 24/48/24 2/9/24 3/4/24
f 25/49/25 3/4/25 4/6/25
f 23/51/26 1/7/26 2/9/26
f 13/17/1 17/1/1 5/3/1
f 31/52/27 32/53/27 36/39/27
f 31/52/28 33/55/28 35/33/28
f 30/54/43 14/56/43 33/55/43
f 18/34/30 35/33/30 33/55/30
f 19/32/44 20/37/44 36/39/44
f 30/54/45 31/52/45 34/38/45
f 37/58/33 38/27/33 42/26/33
f 37/58/34 39/30/34 41/29/34
f 29/60/46 37/58/46 40/59/46
f 11/61/36 40/59/36 42/26/36
f 30/25/47 38/27/47 41/29/47
f 29/60/48 28/28/48 39/30/48
v 1.704460 2.173253 -0.686197
v 1.684050 2.159902 -0.671137
v 1.672307 2.135686 -0.661274
v 1.672377 2.107095 -0.659249
v 1.684241 2.081788 -0.665606
v 1.701882 2.167742 -0.713207
v 1.679586 2.150357 -0.717920
v 1.667152 2.124665 -0.715294
v 1.667912 2.097549 -0.706032
v 1.681664 2.076277 -0.692616
v 1.711239 2.108333 -0.744550
v 1.706093 2.083406 -0.731368
v 1.703707 2.068111 -0.707244
v 1.748547 2.156922 -0.715453
v 1.760481 2.103023 -0.719785
v 1.748737 2.078807 -0.709921
v 1.728328 2.065456 -0.694862
v 1.751124 2.162433 -0.688443
v 1.764875 2.141160 -0.675027
v 1.765636 2.114045 -0.665765
v 1.753202 2.088352 -0.663138
v 1.730906 2.070967 -0.667852
v 1.729081 2.170599 -0.673815
v 1.726695 2.155304 -0.649691
v 1.721549 2.130376 -0.636509
v 1.715022 2.102496 -0.637802
v 1.708862 2.079133 -0.653224
v 1.723926 2.159577 -0.727835
v 1.717766 2.136214 -0.743257
v 1.760411 2.131615 -0.721810
v 1.806219 2.145619 -0.706465
v 1.806584 2.146398 -0.702648
v 1.772797 2.158506 -0.710924
v 1.786663 2.116469 -0.707542
v 1.774073 2.161234 -0.697554
v 1.788642 2.120701 -0.686803
v 1.754550 2.141594 -0.774321
v 1.764644 2.140506 -0.769245
v 1.750754 2.151361 -0.758827
v 1.748388 2.123813 -0.760983
v 1.755380 2.150862 -0.756500
v 1.753027 2.123313 -0.758650
vt 0.274240 0.539347
vt 0.265397 0.539709
vt 0.266768 0.532487
vt 0.231414 0.551290
vt 0.214659 0.541092
vt 0.231357 0.542861
vt 0.231940 0.569242
vt 0.215985 0.562822
vt 0.231472 0.559719
vt 0.230890 0.533338
vt 0.220414 0.530957
vt 0.213134 0.552274
vt 0.289666 0.544440
vt 0.282983 0.540904
vt 0.290637 0.536818
vt 0.279682 0.529141
vt 0.275518 0.536619
vt 0.273707 0.532162
vt 0.280945 0.538772
vt 0.286431 0.530872
vt 0.290637 0.551375
vt 0.284312 0.543753
vt 0.278488 0.537315
vt 0.276318 0.541045
vt 0.804698 0.251197
vt 0.792375 0.255919
vt 0.792638 0.252041
vt 0.786357 0.239035
vt 0.792578 0.249274
vt 0.791489 0.249454
vt 0.271776 0.541127
vt 0.760733 0.199751
vt 0.757502 0.209505
vt 0.750621 0.206121
vt 0.278108 0.542645
vt 0.273009 0.544115
vt 0.772804 0.201934
vt 0.766718 0.213101
vt 0.766203 0.208706
vt 0.264007 0.548518
vt 0.277612 0.547903
vt 0.268747 0.555467
vt 0.275021 0.546378
vt 0.280714 0.548498
vt 0.281954 0.545638
vt 0.276612 0.557409
vt 0.240880 0.530957
vt 0.248168 0.561486
vt 0.249693 0.550306
vt 0.246843 0.539760
vt 0.242415 0.571620
vt 0.762287 0.211045
vt 0.762255 0.210544
vt 0.761023 0.221925
vt 0.757316 0.212491
vt 0.750922 0.216572
vt 0.772804 0.220841
vt 0.791613 0.252007
vt 0.791097 0.255536
vt 0.780068 0.250772
vt 0.780487 0.263708
vt 0.804698 0.264828
vt 0.798786 0.238814
vt 0.221949 0.571626
vt 0.283377 0.553479
vn -0.2108 -0.9537 0.2147
vn -0.9955 0.0042 0.0941
vn -0.5976 0.7949 -0.1052
vn -0.8736 -0.4537 0.1759
vn -0.9002 0.4354 -0.0029
vn -0.2907 0.5793 -0.7615
vn -0.5667 -0.6693 -0.4804
vn -0.5048 0.1576 -0.8487
vn 0.2108 0.9537 -0.2147
vn -0.6001 -0.2736 -0.7517
vn 0.1688 -0.8399 -0.5158
vn 0.8181 -0.5741 -0.0346
vn 0.3478 -0.4934 -0.7973
vn 0.1645 0.9794 -0.1172
vn 0.5976 -0.7949 0.1052
vn 0.3115 0.6427 0.6999
vn 0.9002 -0.4354 0.0029
vn 0.3966 -0.9061 0.1470
vn 0.2907 -0.5793 0.7615
vn 0.6001 0.2736 0.7517
vn 0.5048 -0.1576 0.8487
vn 0.5667 0.6693 0.4804
vn -0.4448 -0.4087 0.7969
vn -0.3478 0.4934 0.7973
vn -0.4431 0.0622 0.8943
vn -0.1688 0.8399 0.5158
vn 0.8293 -0.5577 0.0346
vn 0.3764 0.9001 -0.2196
vn 0.2297 0.2724 -0.9344
vn -0.0272 0.9800 -0.1974
vn 0.5343 0.1409 0.8335
vn 0.4487 -0.0620 -0.8915
vn 0.2906 -0.6366 -0.7143
vn 0.3161 0.8356 -0.4493
vn -0.4506 0.1463 -0.8807
vn 0.1481 -0.8648 -0.4798
vn 0.9103 0.4037 0.0919
vn -0.5480 0.6405 -0.5380
vn -0.5976 0.7949 -0.1051
vn -0.8736 -0.4538 0.1759
vn -0.5668 -0.6693 -0.4804
vn 0.9809 -0.0113 -0.1940
vn 0.1646 0.9794 -0.1172
vn 0.5976 -0.7949 0.1051
vn 0.3853 0.6052 0.6966
vn -0.4449 -0.4087 0.7969
vn 0.8293 -0.5577 0.0347
vn 0.1551 0.3085 -0.9385
vn -0.0272 0.9800 -0.1973
vn 0.6052 0.2725 0.7480
vn 0.3684 -0.2137 -0.9048
vn 0.2906 -0.6366 -0.7144
vn 0.3160 0.8356 -0.4493
vn -0.5720 -0.3561 -0.7390
vn 0.1481 -0.8647 -0.4799
vn 0.8304 0.5295 0.1734
vn -0.5496 0.5563 -0.6233
s off
f 59/66/49 69/67/49 47/68/49
f 45/69/50 51/70/50 46/71/50
f 43/72/51 49/73/51 44/74/51
f 47/75/52 51/70/52 52/76/52
f 44/74/53 50/77/53 45/69/53
f 48/78/54 71/79/54 49/80/54
f 51/81/55 55/82/55 52/83/55
f 49/80/56 53/84/56 50/85/56
f 43/86/57 70/87/57 48/78/57
f 50/85/58 54/88/58 51/81/58
f 55/82/59 58/89/59 59/66/59
f 72/90/60 84/91/60 80/92/60
f 53/84/61 58/89/61 54/88/61
f 70/93/62 83/94/62 81/95/62
f 58/89/63 64/96/63 59/66/63
f 61/97/64 77/98/64 60/99/64
f 57/100/65 63/101/65 58/89/65
f 62/102/66 76/103/66 78/104/66
f 64/96/67 68/105/67 69/67/67
f 61/106/68 67/107/68 62/108/68
f 43/86/57 60/109/57 56/110/57
f 62/108/69 68/105/69 63/101/69
f 60/109/70 66/111/70 61/106/70
f 69/112/71 46/71/71 47/75/71
f 66/113/72 45/69/72 67/114/72
f 67/114/73 46/71/73 68/115/73
f 65/116/74 44/74/74 66/113/74
f 55/82/49 47/68/49 52/83/49
f 73/117/75 78/104/75 76/103/75
f 73/117/76 77/98/76 74/118/76
f 72/119/77 75/120/77 73/117/77
f 60/99/78 75/120/78 56/121/78
f 61/97/79 78/104/79 74/118/79
f 72/119/80 76/103/80 57/122/80
f 79/123/81 84/91/81 82/124/81
f 79/123/82 83/94/82 80/92/82
f 71/125/83 82/124/83 53/126/83
f 53/126/84 84/91/84 57/127/84
f 72/90/85 83/94/85 56/128/85
f 71/125/86 81/95/86 79/123/86
f 59/66/49 64/96/49 69/67/49
f 45/69/50 50/77/50 51/70/50
f 43/72/87 48/129/87 49/73/87
f 47/75/88 46/71/88 51/70/88
f 44/74/53 49/73/53 50/77/53
f 48/78/54 70/87/54 71/79/54
f 51/81/89 54/88/89 55/82/89
f 49/80/56 71/79/56 53/84/56
f 43/86/57 56/110/57 70/87/57
f 50/85/58 53/84/58 54/88/58
f 55/82/59 54/88/59 58/89/59
f 72/90/90 57/127/90 84/91/90
f 53/84/61 57/100/61 58/89/61
f 70/93/91 56/128/91 83/94/91
f 58/89/92 63/101/92 64/96/92
f 61/97/93 74/118/93 77/98/93
f 57/100/65 62/108/65 63/101/65
f 62/102/66 57/122/66 76/103/66
f 64/96/67 63/101/67 68/105/67
f 61/106/68 66/111/68 67/107/68
f 43/86/57 65/130/57 60/109/57
f 62/108/69 67/107/69 68/105/69
f 60/109/70 65/130/70 66/111/70
f 69/112/94 68/115/94 46/71/94
f 66/113/72 44/74/72 45/69/72
f 67/114/73 45/69/73 46/71/73
f 65/116/74 43/72/74 44/74/74
f 55/82/49 59/66/49 47/68/49
f 73/117/95 74/118/95 78/104/95
f 73/117/76 75/120/76 77/98/76
f 72/119/96 56/121/96 75/120/96
f 60/99/97 77/98/97 75/120/97
f 61/97/98 62/102/98 78/104/98
f 72/119/99 73/117/99 76/103/99
f 79/123/100 80/92/100 84/91/100
f 79/123/101 81/95/101 83/94/101
f 71/125/102 79/123/102 82/124/102
f 53/126/103 82/124/103 84/91/103
f 72/90/104 80/92/104 83/94/104
f 71/125/105 70/93/105 81/95/105
