# Blender v2.81 (sub 16) OBJ File: 'garbage.blend'
# www.blender.org
v 0.523599 2.746920 1.337744
v 0.510675 2.721362 1.336572
v 0.511329 2.693003 1.340688
v 0.525385 2.669442 1.348988
v 0.549077 2.656991 1.359248
v 0.544182 2.748337 1.319280
v 0.546326 2.723815 1.304593
v 0.552495 2.695836 1.303761
v 0.561036 2.671895 1.317009
v 0.569660 2.658408 1.340785
v 0.602513 2.713741 1.319378
v 0.604353 2.687401 1.330533
v 0.594669 2.667360 1.348593
v 0.573617 2.764825 1.353360
v 0.611364 2.728813 1.371920
v 0.612018 2.700454 1.376036
v 0.599094 2.674897 1.374865
v 0.553033 2.763409 1.371823
v 0.561657 2.749922 1.395599
v 0.570198 2.725981 1.408847
v 0.576367 2.698001 1.408015
v 0.578511 2.673480 1.393328
v 0.528024 2.754457 1.364015
v 0.518341 2.734416 1.382075
v 0.520180 2.708076 1.393230
v 0.533050 2.682495 1.394491
v 0.553502 2.664528 1.385520
v 0.569191 2.757289 1.327088
v 0.589643 2.739322 1.318117
v 0.597308 2.752375 1.363620
v 0.600679 2.783729 1.402806
v 0.597770 2.783529 1.405415
v 0.581052 2.777684 1.373119
v 0.607933 2.750195 1.395314
v 0.570864 2.776983 1.382258
v 0.592129 2.749108 1.409490
v 0.625754 2.771368 1.322129
v 0.627568 2.774457 1.332899
v 0.607891 2.773099 1.327400
v 0.623147 2.750213 1.330945
v 0.608722 2.774515 1.332336
v 0.623981 2.751633 1.335895
vt 0.274240 0.539347
vt 0.265397 0.539709
vt 0.266768 0.532487
vt 0.231414 0.551290
vt 0.214659 0.541092
vt 0.231357 0.542861
vt 0.231940 0.569242
vt 0.215985 0.562822
vt 0.231472 0.559719
vt 0.230890 0.533338
vt 0.220414 0.530957
vt 0.213134 0.552274
vt 0.289666 0.544440
vt 0.282983 0.540904
vt 0.290637 0.536818
vt 0.279682 0.529141
vt 0.275518 0.536619
vt 0.273707 0.532162
vt 0.280945 0.538772
vt 0.286431 0.530872
vt 0.290637 0.551375
vt 0.284312 0.543753
vt 0.278488 0.537315
vt 0.276318 0.541045
vt 0.804698 0.251197
vt 0.792375 0.255919
vt 0.792638 0.252041
vt 0.786357 0.239035
vt 0.792578 0.249274
vt 0.791489 0.249454
vt 0.271776 0.541127
vt 0.760733 0.199751
vt 0.757502 0.209505
vt 0.750621 0.206121
vt 0.278108 0.542645
vt 0.273009 0.544115
vt 0.772804 0.201934
vt 0.766718 0.213101
vt 0.766203 0.208706
vt 0.264007 0.548518
vt 0.277612 0.547903
vt 0.268747 0.555467
vt 0.275021 0.546378
vt 0.280714 0.548498
vt 0.281954 0.545638
vt 0.276612 0.557409
vt 0.240880 0.530957
vt 0.248168 0.561486
vt 0.249693 0.550306
vt 0.246843 0.539760
vt 0.242415 0.571620
vt 0.762287 0.211045
vt 0.762255 0.210544
vt 0.761023 0.221925
vt 0.757316 0.212491
vt 0.750922 0.216572
vt 0.772804 0.220841
vt 0.791613 0.252007
vt 0.791097 0.255536
vt 0.780068 0.250772
vt 0.780487 0.263708
vt 0.804698 0.264828
vt 0.798786 0.238814
vt 0.221949 0.571626
vt 0.283377 0.553479
vn 0.2656 -0.9376 0.2242
vn -0.5379 -0.5469 -0.6416
vn -0.6379 0.3539 -0.6840
vn -0.2901 -0.8737 -0.3904
vn -0.6580 -0.1230 -0.7429
vn 0.0808 0.5174 -0.8519
vn 0.4286 -0.7103 -0.5584
vn 0.2682 0.0876 -0.9594
vn -0.2656 0.9376 -0.2242
vn 0.3883 -0.3363 -0.8580
vn 0.8926 -0.4504 -0.0212
vn 0.7202 -0.0222 0.6934
vn 0.9862 -0.0013 -0.1658
vn -0.3693 0.9079 -0.1981
vn 0.6379 -0.3539 0.6840
vn -0.6877 0.4955 0.5305
vn 0.6579 0.1230 0.7430
vn 0.5739 -0.5608 0.5968
vn -0.0808 -0.5174 0.8519
vn -0.3883 0.3363 0.8580
vn -0.2682 -0.0876 0.9594
vn -0.4286 0.7103 0.5584
vn -0.5448 -0.7773 0.3147
vn -0.9862 0.0013 0.1658
vn -0.8661 -0.4226 0.2671
vn -0.8926 0.4504 0.0212
vn 0.6684 -0.0215 0.7435
vn -0.1552 0.9831 -0.0975
vn 0.6126 0.5906 -0.5253
vn -0.4043 0.8287 -0.3871
vn -0.4047 0.1727 0.8980
vn 0.8667 0.4250 -0.2613
vn 0.9787 -0.1691 -0.1164
vn 0.0113 0.9607 -0.2774
vn 0.3221 0.1158 -0.9396
vn 0.8712 -0.4910 -0.0059
vn 0.1477 0.7811 0.6067
vn -0.2295 0.3712 -0.8997
vn 0.2656 -0.9376 0.2243
vn 0.3882 -0.3363 -0.8580
vn 0.6044 0.5601 0.5665
vn -0.3693 0.9079 -0.1982
vn -0.6303 0.5051 0.5896
vn 0.6580 0.1230 0.7429
vn -0.0808 -0.5174 0.8520
vn -0.5448 -0.7773 0.3148
vn -0.1552 0.9831 -0.0976
vn 0.5608 0.5814 -0.5894
vn -0.3827 0.3390 0.8594
vn 0.9199 0.2638 -0.2902
vn 0.4372 -0.3913 -0.8097
vn 0.8711 -0.4910 -0.0059
vn -0.0146 0.8187 0.5740
vn -0.1253 0.3253 -0.9373
s off
f 17/1/1 27/2/1 5/3/1
f 3/4/2 9/5/2 4/6/2
f 1/7/3 7/8/3 2/9/3
f 5/10/4 9/5/4 10/11/4
f 2/9/5 8/12/5 3/4/5
f 6/13/6 29/14/6 7/15/6
f 9/16/7 13/17/7 10/18/7
f 7/15/8 11/19/8 8/20/8
f 1/21/9 28/22/9 6/13/9
f 8/20/10 12/23/10 9/16/10
f 13/17/11 16/24/11 17/1/11
f 30/25/12 42/26/12 38/27/12
f 11/19/13 16/24/13 12/23/13
f 28/28/14 41/29/14 39/30/14
f 16/24/15 22/31/15 17/1/15
f 19/32/16 35/33/16 18/34/16
f 15/35/17 21/36/17 16/24/17
f 20/37/18 34/38/18 36/39/18
f 22/31/19 26/40/19 27/2/19
f 19/41/20 25/42/20 20/43/20
f 1/21/9 18/44/9 14/45/9
f 20/43/21 26/40/21 21/36/21
f 18/44/22 24/46/22 19/41/22
f 27/47/23 4/6/23 5/10/23
f 24/48/24 3/4/24 25/49/24
f 25/49/25 4/6/25 26/50/25
f 23/51/26 2/9/26 24/48/26
f 13/17/1 5/3/1 10/18/1
f 31/52/27 36/39/27 34/38/27
f 31/52/28 35/33/28 32/53/28
f 30/54/29 33/55/29 31/52/29
f 18/34/30 33/55/30 14/56/30
f 19/32/31 36/39/31 32/53/31
f 30/54/32 34/38/32 15/57/32
f 37/58/33 42/26/33 40/59/33
f 37/58/34 41/29/34 38/27/34
f 29/60/35 40/59/35 11/61/35
f 11/61/36 42/26/36 15/62/36
f 30/25/37 41/29/37 14/63/37
f 29/60/38 39/30/38 37/58/38
f 17/1/39 22/31/39 27/2/39
f 3/4/2 8/12/2 9/5/2
f 1/7/3 6/64/3 7/8/3
f 5/10/4 4/6/4 9/5/4
f 2/9/5 7/8/5 8/12/5
f 6/13/6 28/22/6 29/14/6
f 9/16/7 12/23/7 13/17/7
f 7/15/8 29/14/8 11/19/8
f 1/21/9 14/45/9 28/22/9
f 8/20/40 11/19/40 12/23/40
f 13/17/11 12/23/11 16/24/11
f 30/25/41 15/62/41 42/26/41
f 11/19/13 15/35/13 16/24/13
f 28/28/42 14/63/42 41/29/42
f 16/24/15 21/36/15 22/31/15
f 19/32/43 32/53/43 35/33/43
f 15/35/44 20/43/44 21/36/44
f 20/37/18 15/57/18 34/38/18
f 22/31/45 21/36/45 26/40/45
f 19/41/20 24/46/20 25/42/20
f 1/21/9 23/65/9 18/44/9
f 20/43/21 25/42/21 26/40/21
f 18/44/22 23/65/22 24/46/22
f 27/47/46 26/50/46 4/6/46
f 24/48/24 2/9/24 3/4/24
f 25/49/25 3/4/25 4/6/25
f 23/51/26 1/7/26 2/9/26
f 13/17/1 17/1/1 5/3/1
f 31/52/27 32/53/27 36/39/27
f 31/52/47 33/55/47 35/33/47
f 30/54/48 14/56/48 33/55/48
f 18/34/30 35/33/30 33/55/30
f 19/32/49 20/37/49 36/39/49
f 30/54/50 31/52/50 34/38/50
f 37/58/33 38/27/33 42/26/33
f 37/58/34 39/30/34 41/29/34
f 29/60/51 37/58/51 40/59/51
f 11/61/52 40/59/52 42/26/52
f 30/25/53 38/27/53 41/29/53
f 29/60/54 28/28/54 39/30/54
v 0.969778 1.964645 -1.335116
v 0.978338 1.937374 -1.332962
v 0.972078 1.909523 -1.330368
v 0.952676 1.888555 -1.328030
v 0.925330 1.880087 -1.326573
v 0.958143 1.973150 -1.311476
v 0.958185 1.952105 -1.292016
v 0.948808 1.926533 -1.283088
v 0.932523 1.903285 -1.287084
v 0.913695 1.888592 -1.302933
v 0.899761 1.952219 -1.284042
v 0.890047 1.925530 -1.287910
v 0.889172 1.901435 -1.303410
v 0.920732 1.990331 -1.336070
v 0.873984 1.960895 -1.332276
v 0.867724 1.933043 -1.329682
v 0.876284 1.905772 -1.327528
v 0.932367 1.981826 -1.359710
v 0.913539 1.967132 -1.375560
v 0.897255 1.943885 -1.379556
v 0.887877 1.918312 -1.370628
v 0.887919 1.897268 -1.351168
v 0.956890 1.968983 -1.359233
v 0.956015 1.944888 -1.374734
v 0.946301 1.918199 -1.378602
v 0.930353 1.896068 -1.369802
v 0.912442 1.884425 -1.350691
v 0.933620 1.985993 -1.311953
v 0.915709 1.974350 -1.292842
v 0.893386 1.981863 -1.334614
v 0.880029 2.007063 -1.376045
v 0.881673 2.005861 -1.379386
v 0.908324 2.001416 -1.354353
v 0.871373 1.977345 -1.359457
v 0.914083 1.997206 -1.366054
v 0.880306 1.970814 -1.377608
v 0.885814 2.012429 -1.291027
v 0.880530 2.014207 -1.300914
v 0.900405 2.009497 -1.302357
v 0.881801 1.990140 -1.295406
v 0.897983 2.010312 -1.306888
v 0.879372 1.990958 -1.299951
vt 0.274240 0.539347
vt 0.265397 0.539709
vt 0.266768 0.532487
vt 0.231414 0.551290
vt 0.214659 0.541092
vt 0.231357 0.542861
vt 0.231940 0.569242
vt 0.215985 0.562822
vt 0.231472 0.559719
vt 0.230890 0.533338
vt 0.220414 0.530957
vt 0.213134 0.552274
vt 0.289666 0.544440
vt 0.282983 0.540904
vt 0.290637 0.536818
vt 0.279682 0.529141
vt 0.275518 0.536619
vt 0.273707 0.532162
vt 0.280945 0.538772
vt 0.286431 0.530872
vt 0.290637 0.551375
vt 0.284312 0.543753
vt 0.278488 0.537315
vt 0.276318 0.541045
vt 0.804698 0.251197
vt 0.792375 0.255919
vt 0.792638 0.252041
vt 0.786357 0.239035
vt 0.792578 0.249274
vt 0.791489 0.249454
vt 0.271776 0.541127
vt 0.760733 0.199751
vt 0.757502 0.209505
vt 0.750621 0.206121
vt 0.278108 0.542645
vt 0.273009 0.544115
vt 0.772804 0.201934
vt 0.766718 0.213101
vt 0.766203 0.208706
vt 0.264007 0.548518
vt 0.277612 0.547903
vt 0.268747 0.555467
vt 0.275021 0.546378
vt 0.280714 0.548498
vt 0.281954 0.545638
vt 0.276612 0.557409
vt 0.240880 0.530957
vt 0.248168 0.561486
vt 0.249693 0.550306
vt 0.246843 0.539760
vt 0.242415 0.571620
vt 0.762287 0.211045
vt 0.762255 0.210544
vt 0.761023 0.221925
vt 0.757316 0.212491
vt 0.750922 0.216572
vt 0.772804 0.220841
vt 0.791613 0.252007
vt 0.791097 0.255536
vt 0.780068 0.250772
vt 0.780487 0.263708
vt 0.804698 0.264828
vt 0.798786 0.238814
vt 0.221949 0.571626
vt 0.283377 0.553479
vn -0.4634 -0.8816 0.0891
vn 0.6552 -0.5483 0.5197
vn 0.8931 0.3063 0.3294
vn 0.2863 -0.8480 0.4460
vn 0.8647 -0.1497 0.4795
vn 0.3231 0.6428 0.6945
vn -0.2836 -0.5115 0.8111
vn 0.1302 0.2839 0.9500
vn 0.4634 0.8816 -0.0891
vn -0.0793 -0.1147 0.9902
vn -0.8734 -0.2407 0.4235
vn -0.9239 0.0302 -0.3814
vn -0.8393 0.2343 0.4906
vn 0.5441 0.8269 -0.1421
vn -0.8931 -0.3063 -0.3294
vn 0.5000 0.2528 -0.8283
vn -0.8647 0.1497 -0.4795
vn -0.8316 -0.5069 -0.2269
vn -0.3232 -0.6428 -0.6945
vn 0.0793 0.1147 -0.9902
vn -0.1302 -0.2839 -0.9500
vn 0.2836 0.5115 -0.8111
vn 0.2666 -0.9137 -0.3068
vn 0.8393 -0.2343 -0.4906
vn 0.6297 -0.6329 -0.4504
vn 0.8734 0.2407 -0.4234
vn -0.8954 0.0123 -0.4451
vn 0.3211 0.9304 -0.1766
vn -0.2760 0.7791 0.5629
vn 0.6360 0.7708 0.0357
vn 0.0556 -0.0527 -0.9971
vn -0.6321 0.6345 0.4447
vn -0.8754 0.0634 0.4792
vn 0.2337 0.9710 0.0497
vn 0.0775 0.3197 0.9443
vn -0.8654 -0.2867 0.4109
vn -0.2514 0.6961 -0.6725
vn 0.6038 0.4424 0.6631
vn -0.8734 -0.2407 0.4234
vn -0.6857 0.5864 -0.4311
vn -0.8393 0.2343 0.4907
vn 0.5441 0.8269 -0.1420
vn 0.4266 0.2656 -0.8646
vn -0.8647 0.1497 -0.4794
vn -0.3231 -0.6428 -0.6945
vn 0.2837 0.5115 -0.8111
vn 0.8393 -0.2343 -0.4907
vn 0.3211 0.9304 -0.1767
vn -0.2058 0.7686 0.6057
vn 0.0741 0.1183 -0.9902
vn -0.6932 0.4946 0.5243
vn 0.2337 0.9710 0.0498
vn -0.1503 -0.1645 0.9749
vn -0.0851 0.7024 -0.7066
vn 0.5161 0.4259 0.7431
s off
f 59/66/55 69/67/55 47/68/55
f 45/69/56 51/70/56 46/71/56
f 43/72/57 49/73/57 44/74/57
f 47/75/58 51/70/58 52/76/58
f 44/74/59 50/77/59 45/69/59
f 48/78/60 71/79/60 49/80/60
f 51/81/61 55/82/61 52/83/61
f 49/80/62 53/84/62 50/85/62
f 43/86/63 70/87/63 48/78/63
f 50/85/64 54/88/64 51/81/64
f 55/82/65 58/89/65 59/66/65
f 72/90/66 84/91/66 80/92/66
f 53/84/67 58/89/67 54/88/67
f 70/93/68 83/94/68 81/95/68
f 58/89/69 64/96/69 59/66/69
f 61/97/70 77/98/70 60/99/70
f 57/100/71 63/101/71 58/89/71
f 62/102/72 76/103/72 78/104/72
f 64/96/73 68/105/73 69/67/73
f 61/106/74 67/107/74 62/108/74
f 43/86/63 60/109/63 56/110/63
f 62/108/75 68/105/75 63/101/75
f 60/109/76 66/111/76 61/106/76
f 69/112/77 46/71/77 47/75/77
f 66/113/78 45/69/78 67/114/78
f 67/114/79 46/71/79 68/115/79
f 65/116/80 44/74/80 66/113/80
f 55/82/55 47/68/55 52/83/55
f 73/117/81 78/104/81 76/103/81
f 73/117/82 77/98/82 74/118/82
f 72/119/83 75/120/83 73/117/83
f 60/99/84 75/120/84 56/121/84
f 61/97/85 78/104/85 74/118/85
f 72/119/86 76/103/86 57/122/86
f 79/123/87 84/91/87 82/124/87
f 79/123/88 83/94/88 80/92/88
f 71/125/89 82/124/89 53/126/89
f 53/126/90 84/91/90 57/127/90
f 72/90/91 83/94/91 56/128/91
f 71/125/92 81/95/92 79/123/92
f 59/66/55 64/96/55 69/67/55
f 45/69/56 50/77/56 51/70/56
f 43/72/57 48/129/57 49/73/57
f 47/75/58 46/71/58 51/70/58
f 44/74/59 49/73/59 50/77/59
f 48/78/60 70/87/60 71/79/60
f 51/81/61 54/88/61 55/82/61
f 49/80/62 71/79/62 53/84/62
f 43/86/63 56/110/63 70/87/63
f 50/85/64 53/84/64 54/88/64
f 55/82/93 54/88/93 58/89/93
f 72/90/94 57/127/94 84/91/94
f 53/84/95 57/100/95 58/89/95
f 70/93/96 56/128/96 83/94/96
f 58/89/69 63/101/69 64/96/69
f 61/97/97 74/118/97 77/98/97
f 57/100/98 62/108/98 63/101/98
f 62/102/72 57/122/72 76/103/72
f 64/96/99 63/101/99 68/105/99
f 61/106/74 66/111/74 67/107/74
f 43/86/63 65/130/63 60/109/63
f 62/108/75 67/107/75 68/105/75
f 60/109/100 65/130/100 66/111/100
f 69/112/77 68/115/77 46/71/77
f 66/113/101 44/74/101 45/69/101
f 67/114/79 45/69/79 46/71/79
f 65/116/80 43/72/80 44/74/80
f 55/82/55 59/66/55 47/68/55
f 73/117/81 74/118/81 78/104/81
f 73/117/102 75/120/102 77/98/102
f 72/119/103 56/121/103 75/120/103
f 60/99/84 77/98/84 75/120/84
f 61/97/104 62/102/104 78/104/104
f 72/119/105 73/117/105 76/103/105
f 79/123/87 80/92/87 84/91/87
f 79/123/106 81/95/106 83/94/106
f 71/125/107 79/123/107 82/124/107
f 53/126/90 82/124/90 84/91/90
f 72/90/108 80/92/108 83/94/108
f 71/125/109 70/93/109 81/95/109
