# Blender v2.81 (sub 16) OBJ File: 'garbage.blend'
# www.blender.org
v 1.458276 2.213680 -1.076154
v 1.469503 2.189300 -1.066096
v 1.466858 2.161422 -1.059976
v 1.451051 2.137517 -1.059434
v 1.426317 2.123991 -1.064615
v 1.438338 2.222949 -1.059327
v 1.434969 2.205354 -1.036952
v 1.426982 2.179961 -1.026323
v 1.416518 2.153572 -1.030290
v 1.406379 2.133260 -1.047789
v 1.377859 2.194787 -1.047140
v 1.373976 2.166412 -1.048318
v 1.381817 2.140673 -1.058197
v 1.409153 2.228506 -1.096971
v 1.368612 2.191074 -1.101610
v 1.365967 2.163197 -1.095490
v 1.377194 2.138817 -1.085432
v 1.429091 2.219237 -1.113797
v 1.418952 2.198924 -1.131296
v 1.408487 2.172536 -1.135263
v 1.400500 2.147142 -1.124634
v 1.397132 2.129547 -1.102259
v 1.453652 2.211824 -1.103389
v 1.461494 2.186085 -1.113268
v 1.457611 2.157710 -1.114446
v 1.443042 2.134302 -1.106606
v 1.421693 2.122134 -1.091850
v 1.413777 2.230362 -1.069736
v 1.392427 2.218194 -1.054980
v 1.384419 2.214979 -1.102152
v 1.382079 2.230761 -1.149854
v 1.384896 2.229451 -1.152231
v 1.402056 2.234118 -1.119976
v 1.372821 2.202593 -1.131035
v 1.411925 2.229530 -1.128304
v 1.388130 2.195476 -1.143955
v 1.358427 2.249297 -1.069933
v 1.356531 2.248536 -1.081099
v 1.376217 2.247787 -1.075511
v 1.359385 2.226266 -1.070753
v 1.375348 2.247439 -1.080628
v 1.358514 2.225916 -1.075885
vt 0.274240 0.539347
vt 0.265397 0.539709
vt 0.266768 0.532487
vt 0.231414 0.551290
vt 0.214659 0.541092
vt 0.231357 0.542861
vt 0.231940 0.569242
vt 0.215985 0.562822
vt 0.231472 0.559719
vt 0.230890 0.533338
vt 0.220414 0.530957
vt 0.213134 0.552274
vt 0.289666 0.544440
vt 0.282983 0.540904
vt 0.290637 0.536818
vt 0.279682 0.529141
vt 0.275518 0.536619
vt 0.273707 0.532162
vt 0.280945 0.538772
vt 0.286431 0.530872
vt 0.290637 0.551375
vt 0.284312 0.543753
vt 0.278488 0.537315
vt 0.276318 0.541045
vt 0.804698 0.251197
vt 0.792375 0.255919
vt 0.792638 0.252041
vt 0.786357 0.239035
vt 0.792578 0.249274
vt 0.791489 0.249454
vt 0.271776 0.541127
vt 0.760733 0.199751
vt 0.757502 0.209505
vt 0.750621 0.206121
vt 0.278108 0.542645
vt 0.273009 0.544115
vt 0.772804 0.201934
vt 0.766718 0.213101
vt 0.766203 0.208706
vt 0.264007 0.548518
vt 0.277612 0.547903
vt 0.268747 0.555467
vt 0.275021 0.546378
vt 0.280714 0.548498
vt 0.281954 0.545638
vt 0.276612 0.557409
vt 0.240880 0.530957
vt 0.248168 0.561486
vt 0.249693 0.550306
vt 0.246843 0.539760
vt 0.242415 0.571620
vt 0.762287 0.211045
vt 0.762255 0.210544
vt 0.761023 0.221925
vt 0.757316 0.212491
vt 0.750922 0.216572
vt 0.772804 0.220841
vt 0.791613 0.252007
vt 0.791097 0.255536
vt 0.780068 0.250772
vt 0.780487 0.263708
vt 0.804698 0.264828
vt 0.798786 0.238814
vt 0.221949 0.571626
vt 0.283377 0.553479
vn -0.3332 -0.9351 0.1203
vn 0.5175 -0.3243 0.7919
vn 0.6782 0.5246 0.5146
vn 0.2419 -0.6998 0.6721
vn 0.6682 0.0985 0.7375
vn -0.0233 0.7876 0.6158
vn -0.4595 -0.4368 0.7733
vn -0.2357 0.4374 0.8678
vn 0.3332 0.9351 -0.1203
vn -0.3864 0.0146 0.9222
vn -0.9196 -0.3492 0.1799
vn -0.7385 -0.2122 -0.6400
vn -0.9792 0.1275 0.1576
vn 0.4340 0.8909 -0.1343
vn -0.6782 -0.5246 -0.5146
vn 0.7045 0.2275 -0.6722
vn -0.6682 -0.0985 -0.7375
vn -0.6257 -0.6918 -0.3603
vn 0.0233 -0.7876 -0.6158
vn 0.3864 -0.0146 -0.9222
vn 0.2358 -0.4374 -0.8678
vn 0.4595 0.4368 -0.7733
vn 0.4833 -0.8752 -0.0224
vn 0.9792 -0.1275 -0.1576
vn 0.8286 -0.5503 -0.1032
vn 0.9196 0.3492 -0.1799
vn -0.6882 -0.2329 -0.6871
vn 0.2226 0.9411 -0.2545
vn -0.5577 0.7795 0.2852
vn 0.4687 0.8806 0.0702
vn 0.3909 -0.1826 -0.9021
vn -0.8292 0.5505 0.0969
vn -0.9843 -0.0470 0.1703
vn 0.0600 0.9951 -0.0780
vn -0.2882 0.4606 0.8395
vn -0.9013 -0.3940 0.1799
vn -0.1119 0.5273 -0.8423
vn 0.2778 0.6457 0.7113
vn 0.5175 -0.3243 0.7918
vn -0.2358 0.4374 0.8678
vn -0.5810 0.3677 -0.7261
vn 0.4339 0.8909 -0.1344
vn 0.6463 0.2198 -0.7308
vn 0.2226 0.9411 -0.2546
vn -0.5049 0.7897 0.3484
vn 0.4687 0.8806 0.0703
vn 0.3810 -0.0121 -0.9245
vn -0.8922 0.4140 0.1807
vn 0.0600 0.9951 -0.0781
vn -0.4402 -0.0502 0.8965
vn 0.0534 0.5622 -0.8253
vn 0.1719 0.6234 0.7628
s off
f 17/1/1 27/2/1 5/3/1
f 3/4/2 9/5/2 4/6/2
f 1/7/3 7/8/3 2/9/3
f 5/10/4 9/5/4 10/11/4
f 2/9/5 8/12/5 3/4/5
f 6/13/6 29/14/6 7/15/6
f 9/16/7 13/17/7 10/18/7
f 7/15/8 11/19/8 8/20/8
f 1/21/9 28/22/9 6/13/9
f 8/20/10 12/23/10 9/16/10
f 13/17/11 16/24/11 17/1/11
f 30/25/12 42/26/12 38/27/12
f 11/19/13 16/24/13 12/23/13
f 28/28/14 41/29/14 39/30/14
f 16/24/15 22/31/15 17/1/15
f 19/32/16 35/33/16 18/34/16
f 15/35/17 21/36/17 16/24/17
f 20/37/18 34/38/18 36/39/18
f 22/31/19 26/40/19 27/2/19
f 19/41/20 25/42/20 20/43/20
f 1/21/9 18/44/9 14/45/9
f 20/43/21 26/40/21 21/36/21
f 18/44/22 24/46/22 19/41/22
f 27/47/23 4/6/23 5/10/23
f 24/48/24 3/4/24 25/49/24
f 25/49/25 4/6/25 26/50/25
f 23/51/26 2/9/26 24/48/26
f 13/17/1 5/3/1 10/18/1
f 31/52/27 36/39/27 34/38/27
f 31/52/28 35/33/28 32/53/28
f 30/54/29 33/55/29 31/52/29
f 18/34/30 33/55/30 14/56/30
f 19/32/31 36/39/31 32/53/31
f 30/54/32 34/38/32 15/57/32
f 37/58/33 42/26/33 40/59/33
f 37/58/34 41/29/34 38/27/34
f 29/60/35 40/59/35 11/61/35
f 11/61/36 42/26/36 15/62/36
f 30/25/37 41/29/37 14/63/37
f 29/60/38 39/30/38 37/58/38
f 17/1/1 22/31/1 27/2/1
f 3/4/39 8/12/39 9/5/39
f 1/7/3 6/64/3 7/8/3
f 5/10/4 4/6/4 9/5/4
f 2/9/5 7/8/5 8/12/5
f 6/13/6 28/22/6 29/14/6
f 9/16/7 12/23/7 13/17/7
f 7/15/40 29/14/40 11/19/40
f 1/21/9 14/45/9 28/22/9
f 8/20/10 11/19/10 12/23/10
f 13/17/11 12/23/11 16/24/11
f 30/25/41 15/62/41 42/26/41
f 11/19/13 15/35/13 16/24/13
f 28/28/42 14/63/42 41/29/42
f 16/24/15 21/36/15 22/31/15
f 19/32/43 32/53/43 35/33/43
f 15/35/17 20/43/17 21/36/17
f 20/37/18 15/57/18 34/38/18
f 22/31/19 21/36/19 26/40/19
f 19/41/20 24/46/20 25/42/20
f 1/21/9 23/65/9 18/44/9
f 20/43/21 25/42/21 26/40/21
f 18/44/22 23/65/22 24/46/22
f 27/47/23 26/50/23 4/6/23
f 24/48/24 2/9/24 3/4/24
f 25/49/25 3/4/25 4/6/25
f 23/51/26 1/7/26 2/9/26
f 13/17/1 17/1/1 5/3/1
f 31/52/27 32/53/27 36/39/27
f 31/52/44 33/55/44 35/33/44
f 30/54/45 14/56/45 33/55/45
f 18/34/46 35/33/46 33/55/46
f 19/32/47 20/37/47 36/39/47
f 30/54/48 31/52/48 34/38/48
f 37/58/33 38/27/33 42/26/33
f 37/58/49 39/30/49 41/29/49
f 29/60/50 37/58/50 40/59/50
f 11/61/36 40/59/36 42/26/36
f 30/25/51 38/27/51 41/29/51
f 29/60/52 28/28/52 39/30/52
v 1.360191 1.956499 -0.440427
v 1.345627 1.931834 -0.439359
v 1.344970 1.903582 -0.434564
v 1.358395 1.879313 -0.427327
v 1.382306 1.865530 -0.419586
v 1.378472 1.956181 -0.461218
v 1.377292 1.931282 -0.475369
v 1.381533 1.902945 -0.476145
v 1.390060 1.878761 -0.463337
v 1.400587 1.865212 -0.440376
v 1.434090 1.917810 -0.467030
v 1.435575 1.891635 -0.455443
v 1.426865 1.872644 -0.435819
v 1.412747 1.971364 -0.431312
v 1.450083 1.933313 -0.416333
v 1.449426 1.905061 -0.411538
v 1.434862 1.880396 -0.410471
v 1.394466 1.971683 -0.410521
v 1.404993 1.958134 -0.387561
v 1.413520 1.933950 -0.374752
v 1.417761 1.905613 -0.375528
v 1.416581 1.880714 -0.389680
v 1.368187 1.964251 -0.415079
v 1.359478 1.945260 -0.395455
v 1.360963 1.919085 -0.383868
v 1.372246 1.892739 -0.383422
v 1.390302 1.873282 -0.394238
v 1.404750 1.963613 -0.456660
v 1.422807 1.944156 -0.467475
v 1.436658 1.957582 -0.423571
v 1.446658 1.989422 -0.385940
v 1.444075 1.989468 -0.383002
v 1.423287 1.984096 -0.412929
v 1.450828 1.955338 -0.393300
v 1.414237 1.984254 -0.402638
v 1.436791 1.955583 -0.377337
v 1.461095 1.973816 -0.468633
v 1.464373 1.976993 -0.458242
v 1.444134 1.976831 -0.461346
v 1.458224 1.953060 -0.458989
v 1.445637 1.978287 -0.456584
v 1.459731 1.954521 -0.454212
vt 0.274240 0.539347
vt 0.265397 0.539709
vt 0.266768 0.532487
vt 0.231414 0.551290
vt 0.214659 0.541092
vt 0.231357 0.542861
vt 0.231940 0.569242
vt 0.215985 0.562822
vt 0.231472 0.559719
vt 0.230890 0.533338
vt 0.220414 0.530957
vt 0.213134 0.552274
vt 0.289666 0.544440
vt 0.282983 0.540904
vt 0.290637 0.536818
vt 0.279682 0.529141
vt 0.275518 0.536619
vt 0.273707 0.532162
vt 0.280945 0.538772
vt 0.286431 0.530872
vt 0.290637 0.551375
vt 0.284312 0.543753
vt 0.278488 0.537315
vt 0.276318 0.541045
vt 0.804698 0.251197
vt 0.792375 0.255919
vt 0.792638 0.252041
vt 0.786357 0.239035
vt 0.792578 0.249274
vt 0.791489 0.249454
vt 0.271776 0.541127
vt 0.760733 0.199751
vt 0.757502 0.209505
vt 0.750621 0.206121
vt 0.278108 0.542645
vt 0.273009 0.544115
vt 0.772804 0.201934
vt 0.766718 0.213101
vt 0.766203 0.208706
vt 0.264007 0.548518
vt 0.277612 0.547903
vt 0.268747 0.555467
vt 0.275021 0.546378
vt 0.280714 0.548498
vt 0.281954 0.545638
vt 0.276612 0.557409
vt 0.240880 0.530957
vt 0.248168 0.561486
vt 0.249693 0.550306
vt 0.246843 0.539760
vt 0.242415 0.571620
vt 0.762287 0.211045
vt 0.762255 0.210544
vt 0.761023 0.221925
vt 0.757316 0.212491
vt 0.750922 0.216572
vt 0.772804 0.220841
vt 0.791613 0.252007
vt 0.791097 0.255536
vt 0.780068 0.250772
vt 0.780487 0.263708
vt 0.804698 0.264828
vt 0.798786 0.238814
vt 0.221949 0.571626
vt 0.283377 0.553479
vn 0.2306 -0.9485 0.2173
vn -0.6441 -0.5228 -0.5584
vn -0.6912 0.3816 -0.6137
vn -0.3893 -0.8603 -0.3292
vn -0.7484 -0.0940 -0.6566
vn 0.0112 0.4937 -0.8696
vn 0.3131 -0.7481 -0.5850
vn 0.1568 0.0505 -0.9863
vn -0.2306 0.9485 -0.2173
vn 0.2610 -0.3783 -0.8881
vn 0.8534 -0.5088 -0.1136
vn 0.7949 -0.0559 0.6042
vn 0.9573 -0.0699 -0.2806
vn -0.3321 0.9262 -0.1785
vn 0.6912 -0.3816 0.6137
vn -0.5868 0.5505 0.5939
vn 0.7484 0.0940 0.6566
vn 0.6043 -0.5855 0.5404
vn -0.0112 -0.4937 0.8696
vn -0.2610 0.3783 0.8881
vn -0.1568 -0.0505 0.9863
vn -0.3131 0.7481 0.5850
vn -0.5515 -0.7331 0.3981
vn -0.9573 0.0699 0.2806
vn -0.8530 -0.3589 0.3789
vn -0.8534 0.5088 0.1136
vn 0.7496 -0.0508 0.6599
vn -0.1031 0.9890 -0.1059
vn 0.5817 0.5381 -0.6099
vn -0.3943 0.8457 -0.3597
vn -0.2830 0.2170 0.9343
vn 0.8545 0.3614 -0.3732
vn 0.9451 -0.2358 -0.2261
vn 0.0389 0.9521 -0.3034
vn 0.2144 0.0754 -0.9738
vn 0.8314 -0.5476 -0.0948
vn 0.2682 0.7816 0.5632
vn -0.3112 0.3675 -0.8764
vn 0.0112 0.4937 -0.8695
vn 0.7019 0.5301 0.4756
vn -0.5222 0.5574 0.6455
vn 0.5222 0.5311 -0.6673
vn -0.2552 0.3807 0.8888
vn 0.8935 0.1965 -0.4037
vn 0.3119 -0.4355 -0.8444
vn 0.1058 0.8292 0.5489
vn -0.2154 0.3140 -0.9246
s off
f 59/66/53 69/67/53 47/68/53
f 45/69/54 51/70/54 46/71/54
f 43/72/55 49/73/55 44/74/55
f 47/75/56 51/70/56 52/76/56
f 44/74/57 50/77/57 45/69/57
f 48/78/58 71/79/58 49/80/58
f 51/81/59 55/82/59 52/83/59
f 49/80/60 53/84/60 50/85/60
f 43/86/61 70/87/61 48/78/61
f 50/85/62 54/88/62 51/81/62
f 55/82/63 58/89/63 59/66/63
f 72/90/64 84/91/64 80/92/64
f 53/84/65 58/89/65 54/88/65
f 70/93/66 83/94/66 81/95/66
f 58/89/67 64/96/67 59/66/67
f 61/97/68 77/98/68 60/99/68
f 57/100/69 63/101/69 58/89/69
f 62/102/70 76/103/70 78/104/70
f 64/96/71 68/105/71 69/67/71
f 61/106/72 67/107/72 62/108/72
f 43/86/61 60/109/61 56/110/61
f 62/108/73 68/105/73 63/101/73
f 60/109/74 66/111/74 61/106/74
f 69/112/75 46/71/75 47/75/75
f 66/113/76 45/69/76 67/114/76
f 67/114/77 46/71/77 68/115/77
f 65/116/78 44/74/78 66/113/78
f 55/82/53 47/68/53 52/83/53
f 73/117/79 78/104/79 76/103/79
f 73/117/80 77/98/80 74/118/80
f 72/119/81 75/120/81 73/117/81
f 60/99/82 75/120/82 56/121/82
f 61/97/83 78/104/83 74/118/83
f 72/119/84 76/103/84 57/122/84
f 79/123/85 84/91/85 82/124/85
f 79/123/86 83/94/86 80/92/86
f 71/125/87 82/124/87 53/126/87
f 53/126/88 84/91/88 57/127/88
f 72/90/89 83/94/89 56/128/89
f 71/125/90 81/95/90 79/123/90
f 59/66/53 64/96/53 69/67/53
f 45/69/54 50/77/54 51/70/54
f 43/72/55 48/129/55 49/73/55
f 47/75/56 46/71/56 51/70/56
f 44/74/57 49/73/57 50/77/57
f 48/78/91 70/87/91 71/79/91
f 51/81/59 54/88/59 55/82/59
f 49/80/60 71/79/60 53/84/60
f 43/86/61 56/110/61 70/87/61
f 50/85/62 53/84/62 54/88/62
f 55/82/63 54/88/63 58/89/63
f 72/90/92 57/127/92 84/91/92
f 53/84/65 57/100/65 58/89/65
f 70/93/66 56/128/66 83/94/66
f 58/89/67 63/101/67 64/96/67
f 61/97/93 74/118/93 77/98/93
f 57/100/69 62/108/69 63/101/69
f 62/102/70 57/122/70 76/103/70
f 64/96/71 63/101/71 68/105/71
f 61/106/72 66/111/72 67/107/72
f 43/86/61 65/130/61 60/109/61
f 62/108/73 67/107/73 68/105/73
f 60/109/74 65/130/74 66/111/74
f 69/112/75 68/115/75 46/71/75
f 66/113/76 44/74/76 45/69/76
f 67/114/77 45/69/77 46/71/77
f 65/116/78 43/72/78 44/74/78
f 55/82/53 59/66/53 47/68/53
f 73/117/79 74/118/79 78/104/79
f 73/117/80 75/120/80 77/98/80
f 72/119/94 56/121/94 75/120/94
f 60/99/82 77/98/82 75/120/82
f 61/97/95 62/102/95 78/104/95
f 72/119/96 73/117/96 76/103/96
f 79/123/85 80/92/85 84/91/85
f 79/123/86 81/95/86 83/94/86
f 71/125/97 79/123/97 82/124/97
f 53/126/88 82/124/88 84/91/88
f 72/90/98 80/92/98 83/94/98
f 71/125/99 70/93/99 81/95/99
