# Blender v2.81 (sub 16) OBJ File: 'garbage.blend'
# www.blender.org
v 1.084989 2.360711 -1.170158
v 1.093860 2.333590 -1.167452
v 1.087915 2.305691 -1.164640
v 1.068746 2.284490 -1.162475
v 1.041489 2.275669 -1.161537
v 1.072697 2.369356 -1.146904
v 1.072570 2.348562 -1.127175
v 1.063331 2.322980 -1.118132
v 1.047455 2.299463 -1.122198
v 1.029197 2.284313 -1.138283
v 1.013980 2.347978 -1.120547
v 1.004716 2.321112 -1.124290
v 1.004522 2.296812 -1.139491
v 1.035638 2.385709 -1.172573
v 0.989213 2.355687 -1.169470
v 0.983267 2.327788 -1.166658
v 0.992139 2.300667 -1.163952
v 1.047930 2.377065 -1.195827
v 1.029672 2.361915 -1.211912
v 1.013797 2.338398 -1.215978
v 1.004558 2.312816 -1.206935
v 1.004431 2.292022 -1.187206
v 1.072605 2.364566 -1.194619
v 1.072411 2.340266 -1.209820
v 1.063148 2.313400 -1.213563
v 1.047297 2.291166 -1.204843
v 1.029106 2.279523 -1.185999
v 1.048022 2.381855 -1.148111
v 1.029831 2.370211 -1.129267
v 1.008382 2.376888 -1.171635
v 0.995651 2.401374 -1.213686
v 0.997388 2.400152 -1.216973
v 1.023510 2.396390 -1.191278
v 0.987012 2.371753 -1.196916
v 1.029594 2.392111 -1.202789
v 0.996450 2.365116 -1.214770
v 0.999394 2.407898 -1.128635
v 0.994317 2.409478 -1.138664
v 1.014282 2.405022 -1.139588
v 0.995782 2.385503 -1.132815
v 1.011955 2.405746 -1.144184
v 0.993449 2.386229 -1.137424
vt 0.274240 0.539347
vt 0.265397 0.539709
vt 0.266768 0.532487
vt 0.231414 0.551290
vt 0.214659 0.541092
vt 0.231357 0.542861
vt 0.231940 0.569242
vt 0.215985 0.562822
vt 0.231472 0.559719
vt 0.230890 0.533338
vt 0.220414 0.530957
vt 0.213134 0.552274
vt 0.289666 0.544440
vt 0.282983 0.540904
vt 0.290637 0.536818
vt 0.279682 0.529141
vt 0.275518 0.536619
vt 0.273707 0.532162
vt 0.280945 0.538772
vt 0.286431 0.530872
vt 0.290637 0.551375
vt 0.284312 0.543753
vt 0.278488 0.537315
vt 0.276318 0.541045
vt 0.804698 0.251197
vt 0.792375 0.255919
vt 0.792638 0.252041
vt 0.786357 0.239035
vt 0.792578 0.249274
vt 0.791489 0.249454
vt 0.271776 0.541127
vt 0.760733 0.199751
vt 0.757502 0.209505
vt 0.750621 0.206121
vt 0.278108 0.542645
vt 0.273009 0.544115
vt 0.772804 0.201934
vt 0.766718 0.213101
vt 0.766203 0.208706
vt 0.264007 0.548518
vt 0.277612 0.547903
vt 0.268747 0.555467
vt 0.275021 0.546378
vt 0.280714 0.548498
vt 0.281954 0.545638
vt 0.276612 0.557409
vt 0.240880 0.530957
vt 0.248168 0.561486
vt 0.249693 0.550306
vt 0.246843 0.539760
vt 0.242415 0.571620
vt 0.762287 0.211045
vt 0.762255 0.210544
vt 0.761023 0.221925
vt 0.757316 0.212491
vt 0.750922 0.216572
vt 0.772804 0.220841
vt 0.791613 0.252007
vt 0.791097 0.255536
vt 0.780068 0.250772
vt 0.780487 0.263708
vt 0.804698 0.264828
vt 0.798786 0.238814
vt 0.221949 0.571626
vt 0.283377 0.553479
vn -0.4535 -0.8867 0.0899
vn 0.6503 -0.5326 0.5417
vn 0.8811 0.3227 0.3458
vn 0.2873 -0.8383 0.4635
vn 0.8553 -0.1318 0.5011
vn 0.2984 0.6560 0.6933
vn -0.2955 -0.5050 0.8110
vn 0.1044 0.2977 0.9489
vn 0.4535 0.8867 -0.0899
vn -0.1007 -0.1031 0.9896
vn -0.8796 -0.2472 0.4064
vn -0.9151 0.0127 -0.4029
vn -0.8534 0.2291 0.4681
vn 0.5361 0.8324 -0.1402
vn -0.8811 -0.3227 -0.3458
vn 0.5156 0.2490 -0.8198
vn -0.8553 0.1318 -0.5011
vn -0.8193 -0.5211 -0.2394
vn -0.2984 -0.6560 -0.6933
vn 0.1007 0.1031 -0.9896
vn -0.1044 -0.2977 -0.9489
vn 0.2955 0.5050 -0.8110
vn 0.2858 -0.9138 -0.2887
vn 0.8534 -0.2291 -0.4681
vn 0.6484 -0.6299 -0.4275
vn 0.8796 0.2472 -0.4064
vn -0.8849 -0.0056 -0.4657
vn 0.3127 0.9324 -0.1815
vn -0.2994 0.7823 0.5462
vn 0.6247 0.7799 0.0403
vn 0.0793 -0.0647 -0.9947
vn -0.6507 0.6314 0.4218
vn -0.8870 0.0576 0.4581
vn 0.2195 0.9747 0.0425
vn 0.0513 0.3327 0.9416
vn -0.8708 -0.2933 0.3946
vn -0.2450 0.6840 -0.6871
vn 0.5823 0.4590 0.6710
vn -0.6834 0.5715 -0.4543
vn -0.8534 0.2291 0.4682
vn 0.5361 0.8324 -0.1403
vn 0.4429 0.2604 -0.8580
vn -0.8192 -0.5211 -0.2393
vn 0.3127 0.9324 -0.1813
vn -0.2300 0.7734 0.5907
vn 0.0954 0.1067 -0.9897
vn -0.7117 0.4917 0.5017
vn 0.2195 0.9747 0.0426
vn -0.1706 -0.1541 0.9732
vn -0.0781 0.6922 -0.7175
vn 0.4930 0.4423 0.7492
s off
f 17/1/1 27/2/1 5/3/1
f 3/4/2 9/5/2 4/6/2
f 1/7/3 7/8/3 2/9/3
f 5/10/4 9/5/4 10/11/4
f 2/9/5 8/12/5 3/4/5
f 6/13/6 29/14/6 7/15/6
f 9/16/7 13/17/7 10/18/7
f 7/15/8 11/19/8 8/20/8
f 1/21/9 28/22/9 6/13/9
f 8/20/10 12/23/10 9/16/10
f 13/17/11 16/24/11 17/1/11
f 30/25/12 42/26/12 38/27/12
f 11/19/13 16/24/13 12/23/13
f 28/28/14 41/29/14 39/30/14
f 16/24/15 22/31/15 17/1/15
f 19/32/16 35/33/16 18/34/16
f 15/35/17 21/36/17 16/24/17
f 20/37/18 34/38/18 36/39/18
f 22/31/19 26/40/19 27/2/19
f 19/41/20 25/42/20 20/43/20
f 1/21/9 18/44/9 14/45/9
f 20/43/21 26/40/21 21/36/21
f 18/44/22 24/46/22 19/41/22
f 27/47/23 4/6/23 5/10/23
f 24/48/24 3/4/24 25/49/24
f 25/49/25 4/6/25 26/50/25
f 23/51/26 2/9/26 24/48/26
f 13/17/1 5/3/1 10/18/1
f 31/52/27 36/39/27 34/38/27
f 31/52/28 35/33/28 32/53/28
f 30/54/29 33/55/29 31/52/29
f 18/34/30 33/55/30 14/56/30
f 19/32/31 36/39/31 32/53/31
f 30/54/32 34/38/32 15/57/32
f 37/58/33 42/26/33 40/59/33
f 37/58/34 41/29/34 38/27/34
f 29/60/35 40/59/35 11/61/35
f 11/61/36 42/26/36 15/62/36
f 30/25/37 41/29/37 14/63/37
f 29/60/38 39/30/38 37/58/38
f 17/1/1 22/31/1 27/2/1
f 3/4/2 8/12/2 9/5/2
f 1/7/3 6/64/3 7/8/3
f 5/10/4 4/6/4 9/5/4
f 2/9/5 7/8/5 8/12/5
f 6/13/6 28/22/6 29/14/6
f 9/16/7 12/23/7 13/17/7
f 7/15/8 29/14/8 11/19/8
f 1/21/9 14/45/9 28/22/9
f 8/20/10 11/19/10 12/23/10
f 13/17/11 12/23/11 16/24/11
f 30/25/39 15/62/39 42/26/39
f 11/19/40 15/35/40 16/24/40
f 28/28/41 14/63/41 41/29/41
f 16/24/15 21/36/15 22/31/15
f 19/32/42 32/53/42 35/33/42
f 15/35/17 20/43/17 21/36/17
f 20/37/43 15/57/43 34/38/43
f 22/31/19 21/36/19 26/40/19
f 19/41/20 24/46/20 25/42/20
f 1/21/9 23/65/9 18/44/9
f 20/43/21 25/42/21 26/40/21
f 18/44/22 23/65/22 24/46/22
f 27/47/23 26/50/23 4/6/23
f 24/48/24 2/9/24 3/4/24
f 25/49/25 3/4/25 4/6/25
f 23/51/26 1/7/26 2/9/26
f 13/17/1 17/1/1 5/3/1
f 31/52/27 32/53/27 36/39/27
f 31/52/44 33/55/44 35/33/44
f 30/54/45 14/56/45 33/55/45
f 18/34/30 35/33/30 33/55/30
f 19/32/46 20/37/46 36/39/46
f 30/54/47 31/52/47 34/38/47
f 37/58/33 38/27/33 42/26/33
f 37/58/48 39/30/48 41/29/48
f 29/60/49 37/58/49 40/59/49
f 11/61/36 40/59/36 42/26/36
f 30/25/50 38/27/50 41/29/50
f 29/60/51 28/28/51 39/30/51
v 1.541546 2.149658 -0.506546
v 1.518186 2.134339 -0.500128
v 1.506009 2.109273 -0.493418
v 1.508278 2.081177 -0.488214
v 1.524386 2.057580 -0.485911
v 1.551635 2.142244 -0.531240
v 1.535661 2.121497 -0.542900
v 1.526187 2.094444 -0.542807
v 1.525753 2.068335 -0.530986
v 1.534475 2.050165 -0.510605
v 1.580102 2.083137 -0.548426
v 1.572445 2.058543 -0.535853
v 1.561433 2.044512 -0.513415
v 1.595461 2.138351 -0.512165
v 1.613839 2.086658 -0.504658
v 1.601662 2.061592 -0.497948
v 1.578301 2.046273 -0.491530
v 1.585372 2.145766 -0.487471
v 1.594094 2.127596 -0.467090
v 1.593660 2.101487 -0.455270
v 1.584187 2.074434 -0.455177
v 1.568212 2.053687 -0.466836
v 1.558415 2.151419 -0.484662
v 1.547403 2.137388 -0.462223
v 1.539745 2.112794 -0.449650
v 1.537495 2.084227 -0.450310
v 1.541254 2.059340 -0.464026
v 1.578593 2.136590 -0.534050
v 1.582352 2.111704 -0.547766
v 1.611569 2.114754 -0.509862
v 1.644265 2.136277 -0.478275
v 1.642839 2.137325 -0.474786
v 1.614969 2.143780 -0.497987
v 1.630422 2.104537 -0.484125
v 1.609975 2.147449 -0.485763
v 1.622675 2.110230 -0.465165
v 1.628188 2.120641 -0.560660
v 1.635103 2.121363 -0.551689
v 1.616975 2.130633 -0.549511
v 1.618782 2.102960 -0.549217
v 1.620145 2.130963 -0.545399
v 1.621961 2.103292 -0.545093
vt 0.274240 0.539347
vt 0.265397 0.539709
vt 0.266768 0.532487
vt 0.231414 0.551290
vt 0.214659 0.541092
vt 0.231357 0.542861
vt 0.231940 0.569242
vt 0.215985 0.562822
vt 0.231472 0.559719
vt 0.230890 0.533338
vt 0.220414 0.530957
vt 0.213134 0.552274
vt 0.289666 0.544440
vt 0.282983 0.540904
vt 0.290637 0.536818
vt 0.279682 0.529141
vt 0.275518 0.536619
vt 0.273707 0.532162
vt 0.280945 0.538772
vt 0.286431 0.530872
vt 0.290637 0.551375
vt 0.284312 0.543753
vt 0.278488 0.537315
vt 0.276318 0.541045
vt 0.804698 0.251197
vt 0.792375 0.255919
vt 0.792638 0.252041
vt 0.786357 0.239035
vt 0.792578 0.249274
vt 0.791489 0.249454
vt 0.271776 0.541127
vt 0.760733 0.199751
vt 0.757502 0.209505
vt 0.750621 0.206121
vt 0.278108 0.542645
vt 0.273009 0.544115
vt 0.772804 0.201934
vt 0.766718 0.213101
vt 0.766203 0.208706
vt 0.264007 0.548518
vt 0.277612 0.547903
vt 0.268747 0.555467
vt 0.275021 0.546378
vt 0.280714 0.548498
vt 0.281954 0.545638
vt 0.276612 0.557409
vt 0.240880 0.530957
vt 0.248168 0.561486
vt 0.249693 0.550306
vt 0.246843 0.539760
vt 0.242415 0.571620
vt 0.762287 0.211045
vt 0.762255 0.210544
vt 0.761023 0.221925
vt 0.757316 0.212491
vt 0.750922 0.216572
vt 0.772804 0.220841
vt 0.791613 0.252007
vt 0.791097 0.255536
vt 0.780068 0.250772
vt 0.780487 0.263708
vt 0.804698 0.264828
vt 0.798786 0.238814
vt 0.221949 0.571626
vt 0.283377 0.553479
vn -0.1789 -0.9601 0.2151
vn -0.9307 -0.1379 -0.3388
vn -0.5737 0.6899 -0.4415
vn -0.8080 -0.5671 -0.1598
vn -0.8498 0.2961 -0.4361
vn 0.0103 0.4839 -0.8751
vn -0.2240 -0.7731 -0.5934
vn -0.0973 0.0306 -0.9948
vn 0.1789 0.9600 -0.2152
vn -0.1782 -0.4034 -0.8975
vn 0.4668 -0.8345 -0.2927
vn 0.8078 -0.4474 0.3838
vn 0.7121 -0.4825 -0.5101
vn 0.0923 0.9843 -0.1503
vn 0.5737 -0.6899 0.4415
vn -0.0970 0.7220 0.6851
vn 0.8498 -0.2961 0.4361
vn 0.3880 -0.8270 0.4068
vn -0.0103 -0.4839 0.8751
vn 0.1782 0.4034 0.8975
vn 0.1789 0.9601 -0.2152
vn 0.0973 -0.0306 0.9948
vn 0.2240 0.7731 0.5934
vn -0.7011 -0.4225 0.5744
vn -0.7121 0.4825 0.5101
vn -0.7930 0.0484 0.6073
vn -0.4668 0.8345 0.2927
vn -0.1789 -0.9600 0.2152
vn 0.7858 -0.4255 0.4488
vn 0.3347 0.9314 -0.1429
vn 0.5837 0.2479 -0.7732
vn -0.0441 0.9517 -0.3038
vn 0.0979 0.2675 0.9586
vn 0.7968 -0.0472 -0.6024
vn 0.6404 -0.6274 -0.4431
vn 0.3881 0.8453 -0.3672
vn -0.0336 0.0257 -0.9991
vn 0.4353 -0.8600 -0.2663
vn 0.7292 0.5389 0.4218
vn -0.3237 0.5193 -0.7909
vn 0.1789 0.9601 -0.2151
vn -0.1781 -0.4034 -0.8975
vn 0.9620 0.1229 0.2438
vn -0.0255 0.6956 0.7179
vn 0.1781 0.4034 0.8975
vn 0.7859 -0.4255 0.4488
vn 0.5150 0.2722 -0.8128
vn -0.0441 0.9517 -0.3037
vn 0.1844 0.4028 0.8965
vn 0.7472 -0.2097 -0.6306
vn 0.6403 -0.6274 -0.4431
vn 0.3881 0.8453 -0.3671
vn -0.1496 -0.4799 -0.8645
vn 0.6087 0.6561 0.4462
vn -0.2788 0.4309 -0.8582
s off
f 59/66/52 69/67/52 47/68/52
f 45/69/53 51/70/53 46/71/53
f 43/72/54 49/73/54 44/74/54
f 47/75/55 51/70/55 52/76/55
f 44/74/56 50/77/56 45/69/56
f 48/78/57 71/79/57 49/80/57
f 51/81/58 55/82/58 52/83/58
f 49/80/59 53/84/59 50/85/59
f 43/86/60 70/87/60 48/78/60
f 50/85/61 54/88/61 51/81/61
f 55/82/62 58/89/62 59/66/62
f 72/90/63 84/91/63 80/92/63
f 53/84/64 58/89/64 54/88/64
f 70/93/65 83/94/65 81/95/65
f 58/89/66 64/96/66 59/66/66
f 61/97/67 77/98/67 60/99/67
f 57/100/68 63/101/68 58/89/68
f 62/102/69 76/103/69 78/104/69
f 64/96/70 68/105/70 69/67/70
f 61/106/71 67/107/71 62/108/71
f 43/86/72 60/109/72 56/110/72
f 62/108/73 68/105/73 63/101/73
f 60/109/74 66/111/74 61/106/74
f 69/112/75 46/71/75 47/75/75
f 66/113/76 45/69/76 67/114/76
f 67/114/77 46/71/77 68/115/77
f 65/116/78 44/74/78 66/113/78
f 55/82/79 47/68/79 52/83/79
f 73/117/80 78/104/80 76/103/80
f 73/117/81 77/98/81 74/118/81
f 72/119/82 75/120/82 73/117/82
f 60/99/83 75/120/83 56/121/83
f 61/97/84 78/104/84 74/118/84
f 72/119/85 76/103/85 57/122/85
f 79/123/86 84/91/86 82/124/86
f 79/123/87 83/94/87 80/92/87
f 71/125/88 82/124/88 53/126/88
f 53/126/89 84/91/89 57/127/89
f 72/90/90 83/94/90 56/128/90
f 71/125/91 81/95/91 79/123/91
f 59/66/79 64/96/79 69/67/79
f 45/69/53 50/77/53 51/70/53
f 43/72/54 48/129/54 49/73/54
f 47/75/55 46/71/55 51/70/55
f 44/74/56 49/73/56 50/77/56
f 48/78/57 70/87/57 71/79/57
f 51/81/58 54/88/58 55/82/58
f 49/80/59 71/79/59 53/84/59
f 43/86/92 56/110/92 70/87/92
f 50/85/93 53/84/93 54/88/93
f 55/82/62 54/88/62 58/89/62
f 72/90/94 57/127/94 84/91/94
f 53/84/64 57/100/64 58/89/64
f 70/93/65 56/128/65 83/94/65
f 58/89/66 63/101/66 64/96/66
f 61/97/95 74/118/95 77/98/95
f 57/100/68 62/108/68 63/101/68
f 62/102/69 57/122/69 76/103/69
f 64/96/70 63/101/70 68/105/70
f 61/106/96 66/111/96 67/107/96
f 43/86/60 65/130/60 60/109/60
f 62/108/73 67/107/73 68/105/73
f 60/109/74 65/130/74 66/111/74
f 69/112/75 68/115/75 46/71/75
f 66/113/76 44/74/76 45/69/76
f 67/114/77 45/69/77 46/71/77
f 65/116/78 43/72/78 44/74/78
f 55/82/52 59/66/52 47/68/52
f 73/117/97 74/118/97 78/104/97
f 73/117/81 75/120/81 77/98/81
f 72/119/98 56/121/98 75/120/98
f 60/99/99 77/98/99 75/120/99
f 61/97/100 62/102/100 78/104/100
f 72/119/101 73/117/101 76/103/101
f 79/123/102 80/92/102 84/91/102
f 79/123/103 81/95/103 83/94/103
f 71/125/104 79/123/104 82/124/104
f 53/126/89 82/124/89 84/91/89
f 72/90/105 80/92/105 83/94/105
f 71/125/106 70/93/106 81/95/106
