# Blender v2.81 (sub 16) OBJ File: 'garbage.blend'
# www.blender.org
v 2.178262 2.441342 0.497107
v 2.170031 2.424384 0.518700
v 2.164443 2.398212 0.528968
v 2.162997 2.369840 0.525159
v 2.166080 2.346869 0.508294
v 2.159304 2.441397 0.476929
v 2.137194 2.424480 0.483751
v 2.126527 2.398323 0.488612
v 2.130161 2.369936 0.490210
v 2.147122 2.346924 0.488116
v 2.141983 2.390109 0.436078
v 2.143546 2.362822 0.444713
v 2.154850 2.342817 0.461849
v 2.193718 2.433129 0.444572
v 2.195355 2.381785 0.423898
v 2.189768 2.355613 0.434166
v 2.181536 2.338655 0.455759
v 2.212676 2.433073 0.464750
v 2.229638 2.410062 0.462656
v 2.233272 2.381675 0.464254
v 2.222605 2.355518 0.469115
v 2.200495 2.338600 0.475937
v 2.204948 2.437180 0.491018
v 2.216253 2.417175 0.508153
v 2.217816 2.389888 0.516789
v 2.209219 2.362631 0.514611
v 2.192767 2.342707 0.502204
v 2.167032 2.437291 0.450662
v 2.150579 2.417367 0.438255
v 2.196801 2.410158 0.427707
v 2.243590 2.422518 0.413997
v 2.246269 2.422510 0.416848
v 2.215748 2.434711 0.433471
v 2.224726 2.393459 0.419740
v 2.225132 2.434683 0.443459
v 2.239283 2.393416 0.435233
v 2.161250 2.430467 0.392851
v 2.172190 2.428760 0.390354
v 2.168595 2.436685 0.408890
v 2.162789 2.410095 0.403560
v 2.173609 2.435903 0.407745
v 2.167817 2.409311 0.402412
vt 0.274240 0.539347
vt 0.265397 0.539709
vt 0.266768 0.532487
vt 0.231414 0.551290
vt 0.214659 0.541092
vt 0.231357 0.542861
vt 0.231940 0.569242
vt 0.215985 0.562822
vt 0.231472 0.559719
vt 0.230890 0.533338
vt 0.220414 0.530957
vt 0.213134 0.552274
vt 0.289666 0.544440
vt 0.282983 0.540904
vt 0.290637 0.536818
vt 0.279682 0.529141
vt 0.275518 0.536619
vt 0.273707 0.532162
vt 0.280945 0.538772
vt 0.286431 0.530872
vt 0.290637 0.551375
vt 0.284312 0.543753
vt 0.278488 0.537315
vt 0.276318 0.541045
vt 0.804698 0.251197
vt 0.792375 0.255919
vt 0.792638 0.252041
vt 0.786357 0.239035
vt 0.792578 0.249274
vt 0.791489 0.249454
vt 0.271776 0.541127
vt 0.760733 0.199751
vt 0.757502 0.209505
vt 0.750621 0.206121
vt 0.278108 0.542645
vt 0.273009 0.544115
vt 0.772804 0.201934
vt 0.766718 0.213101
vt 0.766203 0.208706
vt 0.264007 0.548518
vt 0.277612 0.547903
vt 0.268747 0.555467
vt 0.275021 0.546378
vt 0.280714 0.548498
vt 0.281954 0.545638
vt 0.276612 0.557409
vt 0.240880 0.530957
vt 0.248168 0.561486
vt 0.249693 0.550306
vt 0.246843 0.539760
vt 0.242415 0.571620
vt 0.762287 0.211045
vt 0.762255 0.210544
vt 0.761023 0.221925
vt 0.757316 0.212491
vt 0.750922 0.216572
vt 0.772804 0.220841
vt 0.791613 0.252007
vt 0.791097 0.255536
vt 0.780068 0.250772
vt 0.780487 0.263708
vt 0.804698 0.264828
vt 0.798786 0.238814
vt 0.221949 0.571626
vt 0.283377 0.553479
vn -0.1270 -0.9850 0.1166
vn -0.7278 -0.0547 0.6836
vn -0.4593 0.7752 0.4337
vn -0.6256 -0.5145 0.5864
vn -0.6703 0.3906 0.6309
vn -0.6364 0.7113 -0.2984
vn -0.8027 -0.5784 -0.1457
vn -0.8985 0.3083 -0.3125
vn 0.1270 0.9850 -0.1166
vn -0.9559 -0.1370 -0.2598
vn -0.2602 -0.7087 -0.6558
vn 0.5695 -0.5218 -0.6351
vn -0.2568 -0.3050 -0.9171
vn 0.1522 0.9883 -0.0086
vn 0.4593 -0.7752 -0.4337
vn 0.7320 0.4972 0.4658
vn 0.6704 -0.3906 -0.6309
vn 0.3156 -0.9006 -0.2990
vn 0.6364 -0.7113 0.2984
vn 0.9559 0.1370 0.2598
vn 0.8985 -0.3083 0.3125
vn 0.8027 0.5784 0.1457
vn 0.0939 -0.5810 0.8085
vn 0.2568 0.3050 0.9171
vn 0.1994 -0.1404 0.9698
vn 0.2602 0.7087 0.6558
vn 0.6220 -0.5195 -0.5858
vn 0.2495 0.9402 -0.2318
vn -0.3601 0.4674 -0.8074
vn -0.0477 0.9977 0.0475
vn 0.9410 -0.0121 0.3383
vn -0.1932 0.1402 -0.9711
vn -0.2652 -0.4643 -0.8450
vn 0.0563 0.9219 -0.3832
vn -0.8761 0.3061 -0.3725
vn -0.2571 -0.7412 -0.6201
vn 0.8124 0.4120 -0.4126
vn -0.6978 0.7151 0.0423
vn -0.6704 0.3906 0.6309
vn 0.6549 0.0677 -0.7527
vn 0.1522 0.9883 -0.0087
vn 0.7847 0.4640 0.4110
vn 0.2495 0.9402 -0.2319
vn -0.4180 0.5005 -0.7581
vn 0.9576 0.1369 0.2537
vn -0.2791 -0.0086 -0.9602
vn -0.9338 -0.2192 -0.2827
vn 0.8109 0.5151 -0.2777
vn -0.7588 0.6502 -0.0378
s off
f 17/1/1 27/2/1 5/3/1
f 3/4/2 9/5/2 4/6/2
f 1/7/3 7/8/3 2/9/3
f 5/10/4 9/5/4 10/11/4
f 2/9/5 8/12/5 3/4/5
f 6/13/6 29/14/6 7/15/6
f 9/16/7 13/17/7 10/18/7
f 7/15/8 11/19/8 8/20/8
f 1/21/9 28/22/9 6/13/9
f 8/20/10 12/23/10 9/16/10
f 13/17/11 16/24/11 17/1/11
f 30/25/12 42/26/12 38/27/12
f 11/19/13 16/24/13 12/23/13
f 28/28/14 41/29/14 39/30/14
f 16/24/15 22/31/15 17/1/15
f 19/32/16 35/33/16 18/34/16
f 15/35/17 21/36/17 16/24/17
f 20/37/18 34/38/18 36/39/18
f 22/31/19 26/40/19 27/2/19
f 19/41/20 25/42/20 20/43/20
f 1/21/9 18/44/9 14/45/9
f 20/43/21 26/40/21 21/36/21
f 18/44/22 24/46/22 19/41/22
f 27/47/23 4/6/23 5/10/23
f 24/48/24 3/4/24 25/49/24
f 25/49/25 4/6/25 26/50/25
f 23/51/26 2/9/26 24/48/26
f 13/17/1 5/3/1 10/18/1
f 31/52/27 36/39/27 34/38/27
f 31/52/28 35/33/28 32/53/28
f 30/54/29 33/55/29 31/52/29
f 18/34/30 33/55/30 14/56/30
f 19/32/31 36/39/31 32/53/31
f 30/54/32 34/38/32 15/57/32
f 37/58/33 42/26/33 40/59/33
f 37/58/34 41/29/34 38/27/34
f 29/60/35 40/59/35 11/61/35
f 11/61/36 42/26/36 15/62/36
f 30/25/37 41/29/37 14/63/37
f 29/60/38 39/30/38 37/58/38
f 17/1/1 22/31/1 27/2/1
f 3/4/2 8/12/2 9/5/2
f 1/7/3 6/64/3 7/8/3
f 5/10/4 4/6/4 9/5/4
f 2/9/39 7/8/39 8/12/39
f 6/13/6 28/22/6 29/14/6
f 9/16/7 12/23/7 13/17/7
f 7/15/8 29/14/8 11/19/8
f 1/21/9 14/45/9 28/22/9
f 8/20/10 11/19/10 12/23/10
f 13/17/11 12/23/11 16/24/11
f 30/25/40 15/62/40 42/26/40
f 11/19/13 15/35/13 16/24/13
f 28/28/41 14/63/41 41/29/41
f 16/24/15 21/36/15 22/31/15
f 19/32/42 32/53/42 35/33/42
f 15/35/17 20/43/17 21/36/17
f 20/37/18 15/57/18 34/38/18
f 22/31/19 21/36/19 26/40/19
f 19/41/20 24/46/20 25/42/20
f 1/21/9 23/65/9 18/44/9
f 20/43/21 25/42/21 26/40/21
f 18/44/22 23/65/22 24/46/22
f 27/47/23 26/50/23 4/6/23
f 24/48/24 2/9/24 3/4/24
f 25/49/25 3/4/25 4/6/25
f 23/51/26 1/7/26 2/9/26
f 13/17/1 17/1/1 5/3/1
f 31/52/27 32/53/27 36/39/27
f 31/52/43 33/55/43 35/33/43
f 30/54/44 14/56/44 33/55/44
f 18/34/30 35/33/30 33/55/30
f 19/32/45 20/37/45 36/39/45
f 30/54/46 31/52/46 34/38/46
f 37/58/33 38/27/33 42/26/33
f 37/58/34 39/30/34 41/29/34
f 29/60/47 37/58/47 40/59/47
f 11/61/36 40/59/36 42/26/36
f 30/25/48 38/27/48 41/29/48
f 29/60/49 28/28/49 39/30/49
v 0.789537 1.629876 -0.635834
v 0.793052 1.618065 -0.661713
v 0.797254 1.594901 -0.678065
v 0.801017 1.566591 -0.680507
v 0.803332 1.540720 -0.668385
v 0.812844 1.628067 -0.621000
v 0.833422 1.614932 -0.636021
v 0.843870 1.591283 -0.648397
v 0.841387 1.563457 -0.654814
v 0.826640 1.538911 -0.653551
v 0.842230 1.572077 -0.596487
v 0.839967 1.546824 -0.609858
v 0.825820 1.529308 -0.627596
v 0.787897 1.610670 -0.583924
v 0.793975 1.556489 -0.574244
v 0.798177 1.533325 -0.590595
v 0.801693 1.521514 -0.616475
v 0.764590 1.612480 -0.598757
v 0.749842 1.587933 -0.597495
v 0.747360 1.560108 -0.603912
v 0.757807 1.536459 -0.616288
v 0.778385 1.523323 -0.631308
v 0.765409 1.622083 -0.624713
v 0.751262 1.604566 -0.642451
v 0.748999 1.579314 -0.655822
v 0.759227 1.553092 -0.661244
v 0.779205 1.532926 -0.657264
v 0.812025 1.618464 -0.595045
v 0.832002 1.598299 -0.591065
v 0.790212 1.584799 -0.571802
v 0.747667 1.589804 -0.545443
v 0.744373 1.590059 -0.547540
v 0.769220 1.608027 -0.567947
v 0.765977 1.564277 -0.561141
v 0.757682 1.608922 -0.575290
v 0.748082 1.565666 -0.572530
v 0.832171 1.601717 -0.542740
v 0.822280 1.598522 -0.538180
v 0.820807 1.610034 -0.555051
v 0.829075 1.583613 -0.556692
v 0.816274 1.608569 -0.552961
v 0.824528 1.582144 -0.554597
vt 0.274240 0.539347
vt 0.265397 0.539709
vt 0.266768 0.532487
vt 0.231414 0.551290
vt 0.214659 0.541092
vt 0.231357 0.542861
vt 0.231940 0.569242
vt 0.215985 0.562822
vt 0.231472 0.559719
vt 0.230890 0.533338
vt 0.220414 0.530957
vt 0.213134 0.552274
vt 0.289666 0.544440
vt 0.282983 0.540904
vt 0.290637 0.536818
vt 0.279682 0.529141
vt 0.275518 0.536619
vt 0.273707 0.532162
vt 0.280945 0.538772
vt 0.286431 0.530872
vt 0.290637 0.551375
vt 0.284312 0.543753
vt 0.278488 0.537315
vt 0.276318 0.541045
vt 0.804698 0.251197
vt 0.792375 0.255919
vt 0.792638 0.252041
vt 0.786357 0.239035
vt 0.792578 0.249274
vt 0.791489 0.249454
vt 0.271776 0.541127
vt 0.760733 0.199751
vt 0.757502 0.209505
vt 0.750621 0.206121
vt 0.278108 0.542645
vt 0.273009 0.544115
vt 0.772804 0.201934
vt 0.766718 0.213101
vt 0.766203 0.208706
vt 0.264007 0.548518
vt 0.277612 0.547903
vt 0.268747 0.555467
vt 0.275021 0.546378
vt 0.280714 0.548498
vt 0.281954 0.545638
vt 0.276612 0.557409
vt 0.240880 0.530957
vt 0.248168 0.561486
vt 0.249693 0.550306
vt 0.246843 0.539760
vt 0.242415 0.571620
vt 0.762287 0.211045
vt 0.762255 0.210544
vt 0.761023 0.221925
vt 0.757316 0.212491
vt 0.750922 0.216572
vt 0.772804 0.220841
vt 0.791613 0.252007
vt 0.791097 0.255536
vt 0.780068 0.250772
vt 0.780487 0.263708
vt 0.804698 0.264828
vt 0.798786 0.238814
vt 0.221949 0.571626
vt 0.283377 0.553479
vn 0.1438 -0.9296 -0.3394
vn 0.5393 0.1433 -0.8299
vn 0.2991 0.8828 -0.3623
vn 0.4874 -0.3343 -0.8066
vn 0.4742 0.5635 -0.6764
vn 0.6536 0.7029 0.2807
vn 0.8419 -0.5142 -0.1637
vn 0.9310 0.3317 0.1521
vn -0.1438 0.9296 0.3394
vn 0.9961 -0.0886 -0.0013
vn 0.4486 -0.7884 0.4208
vn -0.3690 -0.6828 0.6306
vn 0.4893 -0.4420 0.7518
vn -0.1949 0.9502 0.2431
vn -0.2991 -0.8828 0.3623
vn -0.8481 0.5006 -0.1737
vn -0.4742 -0.5635 0.6764
vn -0.1867 -0.9666 0.1755
vn -0.6536 -0.7029 -0.2807
vn -0.9961 0.0886 0.0013
vn -0.9310 -0.3317 -0.1521
vn -0.8419 0.5142 0.1637
vn -0.2603 -0.4287 -0.8652
vn -0.4893 0.4419 -0.7518
vn -0.4243 0.0217 -0.9053
vn -0.4486 0.7884 -0.4208
vn -0.4320 -0.6766 0.5963
vn -0.2319 0.8526 0.4683
vn 0.5235 0.3437 0.7797
vn -0.0157 0.9893 0.1453
vn -0.9934 -0.0414 -0.1070
vn 0.4186 -0.0227 0.9079
vn 0.4878 -0.5837 0.6491
vn -0.0068 0.8257 0.5640
vn 0.9242 0.3163 0.2139
vn 0.4385 -0.8140 0.3809
vn -0.7058 0.2478 0.6637
vn 0.6291 0.7752 -0.0570
vn 0.4486 -0.7885 0.4208
vn -0.4524 -0.1362 0.8813
vn 0.4893 -0.4419 0.7518
vn -0.8839 0.4530 -0.1161
vn 0.5657 0.3908 0.7261
vn -0.0157 0.9893 0.1454
vn -0.9962 0.0871 0.0075
vn 0.5066 -0.1579 0.8476
vn -0.0067 0.8257 0.5640
vn 0.9845 -0.1753 0.0090
vn -0.7426 0.3737 0.5558
vn 0.7112 0.7030 -0.0080
s off
f 59/66/50 69/67/50 47/68/50
f 45/69/51 51/70/51 46/71/51
f 43/72/52 49/73/52 44/74/52
f 47/75/53 51/70/53 52/76/53
f 44/74/54 50/77/54 45/69/54
f 48/78/55 71/79/55 49/80/55
f 51/81/56 55/82/56 52/83/56
f 49/80/57 53/84/57 50/85/57
f 43/86/58 70/87/58 48/78/58
f 50/85/59 54/88/59 51/81/59
f 55/82/60 58/89/60 59/66/60
f 72/90/61 84/91/61 80/92/61
f 53/84/62 58/89/62 54/88/62
f 70/93/63 83/94/63 81/95/63
f 58/89/64 64/96/64 59/66/64
f 61/97/65 77/98/65 60/99/65
f 57/100/66 63/101/66 58/89/66
f 62/102/67 76/103/67 78/104/67
f 64/96/68 68/105/68 69/67/68
f 61/106/69 67/107/69 62/108/69
f 43/86/58 60/109/58 56/110/58
f 62/108/70 68/105/70 63/101/70
f 60/109/71 66/111/71 61/106/71
f 69/112/72 46/71/72 47/75/72
f 66/113/73 45/69/73 67/114/73
f 67/114/74 46/71/74 68/115/74
f 65/116/75 44/74/75 66/113/75
f 55/82/50 47/68/50 52/83/50
f 73/117/76 78/104/76 76/103/76
f 73/117/77 77/98/77 74/118/77
f 72/119/78 75/120/78 73/117/78
f 60/99/79 75/120/79 56/121/79
f 61/97/80 78/104/80 74/118/80
f 72/119/81 76/103/81 57/122/81
f 79/123/82 84/91/82 82/124/82
f 79/123/83 83/94/83 80/92/83
f 71/125/84 82/124/84 53/126/84
f 53/126/85 84/91/85 57/127/85
f 72/90/86 83/94/86 56/128/86
f 71/125/87 81/95/87 79/123/87
f 59/66/50 64/96/50 69/67/50
f 45/69/51 50/77/51 51/70/51
f 43/72/52 48/129/52 49/73/52
f 47/75/53 46/71/53 51/70/53
f 44/74/54 49/73/54 50/77/54
f 48/78/55 70/87/55 71/79/55
f 51/81/56 54/88/56 55/82/56
f 49/80/57 71/79/57 53/84/57
f 43/86/58 56/110/58 70/87/58
f 50/85/59 53/84/59 54/88/59
f 55/82/88 54/88/88 58/89/88
f 72/90/89 57/127/89 84/91/89
f 53/84/90 57/100/90 58/89/90
f 70/93/63 56/128/63 83/94/63
f 58/89/64 63/101/64 64/96/64
f 61/97/91 74/118/91 77/98/91
f 57/100/66 62/108/66 63/101/66
f 62/102/67 57/122/67 76/103/67
f 64/96/68 63/101/68 68/105/68
f 61/106/69 66/111/69 67/107/69
f 43/86/58 65/130/58 60/109/58
f 62/108/70 67/107/70 68/105/70
f 60/109/71 65/130/71 66/111/71
f 69/112/72 68/115/72 46/71/72
f 66/113/73 44/74/73 45/69/73
f 67/114/74 45/69/74 46/71/74
f 65/116/75 43/72/75 44/74/75
f 55/82/50 59/66/50 47/68/50
f 73/117/76 74/118/76 78/104/76
f 73/117/77 75/120/77 77/98/77
f 72/119/92 56/121/92 75/120/92
f 60/99/93 77/98/93 75/120/93
f 61/97/94 62/102/94 78/104/94
f 72/119/95 73/117/95 76/103/95
f 79/123/82 80/92/82 84/91/82
f 79/123/96 81/95/96 83/94/96
f 71/125/97 79/123/97 82/124/97
f 53/126/85 82/124/85 84/91/85
f 72/90/98 80/92/98 83/94/98
f 71/125/99 70/93/99 81/95/99
