# Blender v2.81 (sub 16) OBJ File: 'garbage.blend'
# www.blender.org
v 1.736671 2.156976 -0.906330
v 1.747684 2.135623 -0.890699
v 1.746656 2.108487 -0.881525
v 1.733862 2.082839 -0.881266
v 1.712729 2.065551 -0.889992
v 1.712368 2.165200 -0.895922
v 1.705592 2.149868 -0.872672
v 1.698052 2.124935 -0.860709
v 1.691769 2.097083 -0.863239
v 1.688426 2.073775 -0.879584
v 1.654139 2.130489 -0.893982
v 1.653739 2.101893 -0.892054
v 1.666470 2.076552 -0.896221
v 1.692758 2.162530 -0.939603
v 1.658830 2.119594 -0.948070
v 1.657802 2.092458 -0.938896
v 1.668816 2.071105 -0.923265
v 1.717060 2.154306 -0.950011
v 1.713718 2.130998 -0.966356
v 1.707435 2.103146 -0.968886
v 1.699895 2.078214 -0.956923
v 1.693118 2.062881 -0.933673
v 1.739017 2.151529 -0.933374
v 1.751748 2.126189 -0.937541
v 1.751348 2.097593 -0.935613
v 1.737925 2.073404 -0.928108
v 1.715075 2.060104 -0.917037
v 1.690412 2.167977 -0.912558
v 1.667562 2.154677 -0.901487
v 1.671625 2.145243 -0.948329
v 1.679234 2.155231 -0.997035
v 1.682668 2.154068 -0.998506
v 1.690888 2.164558 -0.964168
v 1.668782 2.128289 -0.977080
v 1.702918 2.160487 -0.969320
v 1.687441 2.121975 -0.985072
v 1.635053 2.178978 -0.927938
v 1.636015 2.176745 -0.939025
v 1.653720 2.179329 -0.929069
v 1.638659 2.156348 -0.925310
v 1.654161 2.178305 -0.934150
v 1.639101 2.155321 -0.930406
vt 0.274240 0.539347
vt 0.265397 0.539709
vt 0.266768 0.532487
vt 0.231414 0.551290
vt 0.214659 0.541092
vt 0.231357 0.542861
vt 0.231940 0.569242
vt 0.215985 0.562822
vt 0.231472 0.559719
vt 0.230890 0.533338
vt 0.220414 0.530957
vt 0.213134 0.552274
vt 0.289666 0.544440
vt 0.282983 0.540904
vt 0.290637 0.536818
vt 0.279682 0.529141
vt 0.275518 0.536619
vt 0.273707 0.532162
vt 0.280945 0.538772
vt 0.286431 0.530872
vt 0.290637 0.551375
vt 0.284312 0.543753
vt 0.278488 0.537315
vt 0.276318 0.541045
vt 0.804698 0.251197
vt 0.792375 0.255919
vt 0.792638 0.252041
vt 0.786357 0.239035
vt 0.792578 0.249274
vt 0.791489 0.249454
vt 0.271776 0.541127
vt 0.760733 0.199751
vt 0.757502 0.209505
vt 0.750621 0.206121
vt 0.278108 0.542645
vt 0.273009 0.544115
vt 0.772804 0.201934
vt 0.766718 0.213101
vt 0.766203 0.208706
vt 0.264007 0.548518
vt 0.277612 0.547903
vt 0.268747 0.555467
vt 0.275021 0.546378
vt 0.280714 0.548498
vt 0.281954 0.545638
vt 0.276612 0.557409
vt 0.240880 0.530957
vt 0.248168 0.561486
vt 0.249693 0.550306
vt 0.246843 0.539760
vt 0.242415 0.571620
vt 0.762287 0.211045
vt 0.762255 0.210544
vt 0.761023 0.221925
vt 0.757316 0.212491
vt 0.750922 0.216572
vt 0.772804 0.220841
vt 0.791613 0.252007
vt 0.791097 0.255536
vt 0.780068 0.250772
vt 0.780487 0.263708
vt 0.804698 0.264828
vt 0.798786 0.238814
vt 0.221949 0.571626
vt 0.283377 0.553479
vn -0.2496 -0.9532 0.1704
vn 0.3419 -0.1612 0.9258
vn 0.4725 0.6661 0.5770
vn 0.1457 -0.5820 0.8001
vn 0.4548 0.2697 0.8488
vn -0.2566 0.8395 0.4788
vn -0.5835 -0.4085 0.7019
vn -0.4849 0.4932 0.7223
vn 0.2496 0.9532 -0.1703
vn -0.5977 0.0622 0.7993
vn -0.8926 -0.4506 0.0133
vn -0.5340 -0.3807 -0.7549
vn -0.9961 0.0080 -0.0880
vn 0.3549 0.9220 -0.1549
vn -0.4725 -0.6661 -0.5770
vn 0.8177 0.2472 -0.5198
vn -0.4548 -0.2697 -0.8488
vn -0.4413 -0.8066 -0.3932
vn 0.2566 -0.8395 -0.4789
vn 0.5977 -0.0622 -0.7993
vn 0.4849 -0.4932 -0.7223
vn 0.5835 0.4085 -0.7019
vn 0.5658 -0.7974 0.2097
vn 0.9961 -0.0080 0.0880
vn 0.8832 -0.4389 0.1650
vn 0.8926 0.4506 -0.0133
vn -0.2496 -0.9532 0.1703
vn -0.4718 -0.3992 -0.7861
vn 0.1750 0.9291 -0.3257
vn -0.6909 0.7219 0.0401
vn 0.3399 0.9390 0.0517
vn 0.6153 -0.2248 -0.7555
vn -0.8823 0.4384 -0.1713
vn -0.9852 -0.1631 -0.0526
vn -0.0305 0.9793 -0.1999
vn -0.5311 0.5057 0.6798
vn -0.8701 -0.4922 0.0237
vn 0.0395 0.4114 -0.9106
vn 0.0258 0.7518 0.6589
vn -0.2566 0.8395 0.4789
vn 0.2496 0.9532 -0.1704
vn -0.4238 0.2025 -0.8828
vn -0.4726 -0.6661 -0.5770
vn 0.7766 0.2253 -0.5884
vn 0.2566 -0.8396 -0.4788
vn 0.5658 -0.7975 0.2097
vn 0.1749 0.9291 -0.3257
vn -0.6564 0.7461 0.1116
vn 0.3399 0.9390 0.0516
vn 0.5928 -0.0608 -0.8030
vn -0.9486 0.3045 -0.0858
vn -0.6364 -0.0118 0.7713
vn 0.1910 0.4703 -0.8616
vn -0.0864 0.7209 0.6876
s off
f 17/1/1 27/2/1 5/3/1
f 3/4/2 9/5/2 4/6/2
f 1/7/3 7/8/3 2/9/3
f 5/10/4 9/5/4 10/11/4
f 2/9/5 8/12/5 3/4/5
f 6/13/6 29/14/6 7/15/6
f 9/16/7 13/17/7 10/18/7
f 7/15/8 11/19/8 8/20/8
f 1/21/9 28/22/9 6/13/9
f 8/20/10 12/23/10 9/16/10
f 13/17/11 16/24/11 17/1/11
f 30/25/12 42/26/12 38/27/12
f 11/19/13 16/24/13 12/23/13
f 28/28/14 41/29/14 39/30/14
f 16/24/15 22/31/15 17/1/15
f 19/32/16 35/33/16 18/34/16
f 15/35/17 21/36/17 16/24/17
f 20/37/18 34/38/18 36/39/18
f 22/31/19 26/40/19 27/2/19
f 19/41/20 25/42/20 20/43/20
f 1/21/9 18/44/9 14/45/9
f 20/43/21 26/40/21 21/36/21
f 18/44/22 24/46/22 19/41/22
f 27/47/23 4/6/23 5/10/23
f 24/48/24 3/4/24 25/49/24
f 25/49/25 4/6/25 26/50/25
f 23/51/26 2/9/26 24/48/26
f 13/17/27 5/3/27 10/18/27
f 31/52/28 36/39/28 34/38/28
f 31/52/29 35/33/29 32/53/29
f 30/54/30 33/55/30 31/52/30
f 18/34/31 33/55/31 14/56/31
f 19/32/32 36/39/32 32/53/32
f 30/54/33 34/38/33 15/57/33
f 37/58/34 42/26/34 40/59/34
f 37/58/35 41/29/35 38/27/35
f 29/60/36 40/59/36 11/61/36
f 11/61/37 42/26/37 15/62/37
f 30/25/38 41/29/38 14/63/38
f 29/60/39 39/30/39 37/58/39
f 17/1/27 22/31/27 27/2/27
f 3/4/2 8/12/2 9/5/2
f 1/7/3 6/64/3 7/8/3
f 5/10/4 4/6/4 9/5/4
f 2/9/5 7/8/5 8/12/5
f 6/13/40 28/22/40 29/14/40
f 9/16/7 12/23/7 13/17/7
f 7/15/8 29/14/8 11/19/8
f 1/21/41 14/45/41 28/22/41
f 8/20/10 11/19/10 12/23/10
f 13/17/11 12/23/11 16/24/11
f 30/25/42 15/62/42 42/26/42
f 11/19/13 15/35/13 16/24/13
f 28/28/14 14/63/14 41/29/14
f 16/24/43 21/36/43 22/31/43
f 19/32/44 32/53/44 35/33/44
f 15/35/17 20/43/17 21/36/17
f 20/37/18 15/57/18 34/38/18
f 22/31/45 21/36/45 26/40/45
f 19/41/20 24/46/20 25/42/20
f 1/21/9 23/65/9 18/44/9
f 20/43/21 25/42/21 26/40/21
f 18/44/22 23/65/22 24/46/22
f 27/47/46 26/50/46 4/6/46
f 24/48/24 2/9/24 3/4/24
f 25/49/25 3/4/25 4/6/25
f 23/51/26 1/7/26 2/9/26
f 13/17/1 17/1/1 5/3/1
f 31/52/28 32/53/28 36/39/28
f 31/52/47 33/55/47 35/33/47
f 30/54/48 14/56/48 33/55/48
f 18/34/49 35/33/49 33/55/49
f 19/32/50 20/37/50 36/39/50
f 30/54/51 31/52/51 34/38/51
f 37/58/34 38/27/34 42/26/34
f 37/58/35 39/30/35 41/29/35
f 29/60/52 37/58/52 40/59/52
f 11/61/37 40/59/37 42/26/37
f 30/25/53 38/27/53 41/29/53
f 29/60/54 28/28/54 39/30/54
v 1.251650 1.748975 -0.412506
v 1.240184 1.722977 -0.416275
v 1.241574 1.694529 -0.413056
v 1.255450 1.671253 -0.403711
v 1.278092 1.659387 -0.390745
v 1.274442 1.751953 -0.427941
v 1.279660 1.728135 -0.443009
v 1.287158 1.700485 -0.443926
v 1.294926 1.676411 -0.430446
v 1.300884 1.662365 -0.406180
v 1.333751 1.719790 -0.421065
v 1.335277 1.693130 -0.410647
v 1.324180 1.672017 -0.394750
v 1.298243 1.768280 -0.389644
v 1.334761 1.733139 -0.367334
v 1.336152 1.704690 -0.364115
v 1.324685 1.678692 -0.367884
v 1.275452 1.765302 -0.374209
v 1.281409 1.751256 -0.349944
v 1.289178 1.727183 -0.336464
v 1.296676 1.699532 -0.337381
v 1.301894 1.675714 -0.352449
v 1.252155 1.755650 -0.385640
v 1.241058 1.734538 -0.369742
v 1.242584 1.707878 -0.359325
v 1.256325 1.682814 -0.357179
v 1.278597 1.666062 -0.363880
v 1.297738 1.761606 -0.416510
v 1.320011 1.744853 -0.423211
v 1.320886 1.756414 -0.376678
v 1.317521 1.786319 -0.336375
v 1.314300 1.785898 -0.334194
v 1.302360 1.780647 -0.368640
v 1.327242 1.753428 -0.343924
v 1.291078 1.779173 -0.360999
v 1.309742 1.751142 -0.332073
v 1.353751 1.778164 -0.413259
v 1.353958 1.780900 -0.402245
v 1.335281 1.778957 -0.410412
v 1.350953 1.756591 -0.405589
v 1.335376 1.780211 -0.405364
v 1.351048 1.757849 -0.400527
vt 0.274240 0.539347
vt 0.265397 0.539709
vt 0.266768 0.532487
vt 0.231414 0.551290
vt 0.214659 0.541092
vt 0.231357 0.542861
vt 0.231940 0.569242
vt 0.215985 0.562822
vt 0.231472 0.559719
vt 0.230890 0.533338
vt 0.220414 0.530957
vt 0.213134 0.552274
vt 0.289666 0.544440
vt 0.282983 0.540904
vt 0.290637 0.536818
vt 0.279682 0.529141
vt 0.275518 0.536619
vt 0.273707 0.532162
vt 0.280945 0.538772
vt 0.286431 0.530872
vt 0.290637 0.551375
vt 0.284312 0.543753
vt 0.278488 0.537315
vt 0.276318 0.541045
vt 0.804698 0.251197
vt 0.792375 0.255919
vt 0.792638 0.252041
vt 0.786357 0.239035
vt 0.792578 0.249274
vt 0.791489 0.249454
vt 0.271776 0.541127
vt 0.760733 0.199751
vt 0.757502 0.209505
vt 0.750621 0.206121
vt 0.278108 0.542645
vt 0.273009 0.544115
vt 0.772804 0.201934
vt 0.766718 0.213101
vt 0.766203 0.208706
vt 0.264007 0.548518
vt 0.277612 0.547903
vt 0.268747 0.555467
vt 0.275021 0.546378
vt 0.280714 0.548498
vt 0.281954 0.545638
vt 0.276612 0.557409
vt 0.240880 0.530957
vt 0.248168 0.561486
vt 0.249693 0.550306
vt 0.246843 0.539760
vt 0.242415 0.571620
vt 0.762287 0.211045
vt 0.762255 0.210544
vt 0.761023 0.221925
vt 0.757316 0.212491
vt 0.750922 0.216572
vt 0.772804 0.220841
vt 0.791613 0.252007
vt 0.791097 0.255536
vt 0.780068 0.250772
vt 0.780487 0.263708
vt 0.804698 0.264828
vt 0.798786 0.238814
vt 0.221949 0.571626
vt 0.283377 0.553479
vn 0.2757 -0.9341 0.2269
vn -0.4212 -0.5428 -0.7266
vn -0.5557 0.3541 -0.7522
vn -0.1947 -0.8689 -0.4551
vn -0.5458 -0.1205 -0.8292
vn 0.1708 0.5532 -0.8153
vn 0.5318 -0.6698 -0.5183
vn 0.3904 0.1361 -0.9105
vn -0.2757 0.9341 -0.2269
vn 0.5150 -0.2862 -0.8080
vn 0.9070 -0.4124 0.0854
vn 0.6207 -0.0199 0.7838
vn 0.9985 0.0454 -0.0301
vn -0.3804 0.8992 -0.2162
vn 0.5557 -0.3541 0.7522
vn -0.7747 0.4459 0.4483
vn 0.5458 0.1205 0.8292
vn 0.5135 -0.5599 0.6502
vn -0.1708 -0.5532 0.8153
vn -0.5150 0.2862 0.8080
vn -0.3904 -0.1361 0.9105
vn -0.5318 0.6698 0.5183
vn -0.5460 -0.8106 0.2117
vn -0.9985 -0.0454 0.0301
vn -0.8739 -0.4677 0.1326
vn -0.9070 0.4124 -0.0854
vn 0.5627 -0.0234 0.8263
vn -0.1855 0.9790 -0.0850
vn 0.6500 0.6353 -0.4171
vn -0.3860 0.8260 -0.4107
vn -0.5292 0.1207 0.8398
vn 0.8736 0.4699 -0.1267
vn 0.9922 -0.1243 0.0122
vn 0.0045 0.9705 -0.2412
vn 0.4399 0.1656 -0.8827
vn 0.8856 -0.4544 0.0962
vn 0.0290 0.7621 0.6468
vn -0.1232 0.3966 -0.9097
vn 0.4965 0.5617 0.6618
vn -0.3805 0.8992 -0.2162
vn -0.7263 0.4554 0.5149
vn 0.6078 0.6265 -0.4880
vn -0.5099 0.2892 0.8102
vn 0.9375 0.3123 -0.1535
vn 0.5595 -0.3411 -0.7554
vn 0.8856 -0.4544 0.0963
vn -0.1291 0.7943 0.5937
vn -0.0130 0.3564 -0.9342
s off
f 59/66/55 69/67/55 47/68/55
f 45/69/56 51/70/56 46/71/56
f 43/72/57 49/73/57 44/74/57
f 47/75/58 51/70/58 52/76/58
f 44/74/59 50/77/59 45/69/59
f 48/78/60 71/79/60 49/80/60
f 51/81/61 55/82/61 52/83/61
f 49/80/62 53/84/62 50/85/62
f 43/86/63 70/87/63 48/78/63
f 50/85/64 54/88/64 51/81/64
f 55/82/65 58/89/65 59/66/65
f 72/90/66 84/91/66 80/92/66
f 53/84/67 58/89/67 54/88/67
f 70/93/68 83/94/68 81/95/68
f 58/89/69 64/96/69 59/66/69
f 61/97/70 77/98/70 60/99/70
f 57/100/71 63/101/71 58/89/71
f 62/102/72 76/103/72 78/104/72
f 64/96/73 68/105/73 69/67/73
f 61/106/74 67/107/74 62/108/74
f 43/86/63 60/109/63 56/110/63
f 62/108/75 68/105/75 63/101/75
f 60/109/76 66/111/76 61/106/76
f 69/112/77 46/71/77 47/75/77
f 66/113/78 45/69/78 67/114/78
f 67/114/79 46/71/79 68/115/79
f 65/116/80 44/74/80 66/113/80
f 55/82/55 47/68/55 52/83/55
f 73/117/81 78/104/81 76/103/81
f 73/117/82 77/98/82 74/118/82
f 72/119/83 75/120/83 73/117/83
f 60/99/84 75/120/84 56/121/84
f 61/97/85 78/104/85 74/118/85
f 72/119/86 76/103/86 57/122/86
f 79/123/87 84/91/87 82/124/87
f 79/123/88 83/94/88 80/92/88
f 71/125/89 82/124/89 53/126/89
f 53/126/90 84/91/90 57/127/90
f 72/90/91 83/94/91 56/128/91
f 71/125/92 81/95/92 79/123/92
f 59/66/55 64/96/55 69/67/55
f 45/69/56 50/77/56 51/70/56
f 43/72/57 48/129/57 49/73/57
f 47/75/58 46/71/58 51/70/58
f 44/74/59 49/73/59 50/77/59
f 48/78/60 70/87/60 71/79/60
f 51/81/61 54/88/61 55/82/61
f 49/80/62 71/79/62 53/84/62
f 43/86/63 56/110/63 70/87/63
f 50/85/64 53/84/64 54/88/64
f 55/82/65 54/88/65 58/89/65
f 72/90/93 57/127/93 84/91/93
f 53/84/67 57/100/67 58/89/67
f 70/93/94 56/128/94 83/94/94
f 58/89/69 63/101/69 64/96/69
f 61/97/95 74/118/95 77/98/95
f 57/100/71 62/108/71 63/101/71
f 62/102/72 57/122/72 76/103/72
f 64/96/73 63/101/73 68/105/73
f 61/106/74 66/111/74 67/107/74
f 43/86/63 65/130/63 60/109/63
f 62/108/75 67/107/75 68/105/75
f 60/109/76 65/130/76 66/111/76
f 69/112/77 68/115/77 46/71/77
f 66/113/78 44/74/78 45/69/78
f 67/114/79 45/69/79 46/71/79
f 65/116/80 43/72/80 44/74/80
f 55/82/55 59/66/55 47/68/55
f 73/117/81 74/118/81 78/104/81
f 73/117/82 75/120/82 77/98/82
f 72/119/96 56/121/96 75/120/96
f 60/99/84 77/98/84 75/120/84
f 61/97/97 62/102/97 78/104/97
f 72/119/98 73/117/98 76/103/98
f 79/123/87 80/92/87 84/91/87
f 79/123/88 81/95/88 83/94/88
f 71/125/99 79/123/99 82/124/99
f 53/126/100 82/124/100 84/91/100
f 72/90/101 80/92/101 83/94/101
f 71/125/102 70/93/102 81/95/102
