# Blender v2.81 (sub 16) OBJ File: 'garbage.blend'
# www.blender.org
v 2.230282 2.367662 0.079306
v 2.228054 2.354251 0.104541
v 2.224612 2.330108 0.119603
v 2.220879 2.301702 0.120457
v 2.217854 2.276643 0.106873
v 2.206239 2.366795 0.065604
v 2.186410 2.352750 0.080808
v 2.176526 2.328374 0.092199
v 2.179235 2.300200 0.096724
v 2.193811 2.275776 0.093171
v 2.175437 2.312462 0.039172
v 2.178292 2.286420 0.050801
v 2.193266 2.267820 0.066658
v 2.229192 2.351750 0.026279
v 2.222434 2.298285 0.013549
v 2.218992 2.274142 0.028611
v 2.216765 2.260731 0.053846
v 2.253236 2.352617 0.039981
v 2.267811 2.328193 0.036428
v 2.270520 2.300019 0.040953
v 2.260636 2.275644 0.052344
v 2.240808 2.261599 0.067548
v 2.253780 2.360573 0.066495
v 2.268754 2.341973 0.082351
v 2.271609 2.315931 0.093980
v 2.261579 2.289424 0.098267
v 2.241352 2.269554 0.094062
v 2.205694 2.358839 0.039091
v 2.185467 2.338969 0.034886
v 2.226168 2.326691 0.012695
v 2.267326 2.333325 -0.015447
v 2.270723 2.333448 -0.013511
v 2.247018 2.350107 0.009231
v 2.249752 2.306870 -0.000461
v 2.258919 2.350537 0.016013
v 2.268212 2.307536 0.010060
v 2.182837 2.345414 -0.013058
v 2.192470 2.342508 -0.018310
v 2.194846 2.352937 -0.000850
v 2.186579 2.326468 -0.000444
v 2.199261 2.351605 -0.003257
v 2.191007 2.325133 -0.002858
vt 0.274240 0.539347
vt 0.265397 0.539709
vt 0.266768 0.532487
vt 0.231414 0.551290
vt 0.214659 0.541092
vt 0.231357 0.542861
vt 0.231940 0.569242
vt 0.215985 0.562822
vt 0.231472 0.559719
vt 0.230890 0.533338
vt 0.220414 0.530957
vt 0.213134 0.552274
vt 0.289666 0.544440
vt 0.282983 0.540904
vt 0.290637 0.536818
vt 0.279682 0.529141
vt 0.275518 0.536619
vt 0.273707 0.532162
vt 0.280945 0.538772
vt 0.286431 0.530872
vt 0.290637 0.551375
vt 0.284312 0.543753
vt 0.278488 0.537315
vt 0.276318 0.541045
vt 0.804698 0.251197
vt 0.792375 0.255919
vt 0.792638 0.252041
vt 0.786357 0.239035
vt 0.792578 0.249274
vt 0.791489 0.249454
vt 0.271776 0.541127
vt 0.760733 0.199751
vt 0.757502 0.209505
vt 0.750621 0.206121
vt 0.278108 0.542645
vt 0.273009 0.544115
vt 0.772804 0.201934
vt 0.766718 0.213101
vt 0.766203 0.208706
vt 0.264007 0.548518
vt 0.277612 0.547903
vt 0.268747 0.555467
vt 0.275021 0.546378
vt 0.280714 0.548498
vt 0.281954 0.545638
vt 0.276612 0.557409
vt 0.240880 0.530957
vt 0.248168 0.561486
vt 0.249693 0.550306
vt 0.246843 0.539760
vt 0.242415 0.571620
vt 0.762287 0.211045
vt 0.762255 0.210544
vt 0.761023 0.221925
vt 0.757316 0.212491
vt 0.750922 0.216572
vt 0.772804 0.220841
vt 0.791613 0.252007
vt 0.791097 0.255536
vt 0.780068 0.250772
vt 0.780487 0.263708
vt 0.804698 0.264828
vt 0.798786 0.238814
vt 0.221949 0.571626
vt 0.283377 0.553479
vn -0.1296 -0.9490 0.2874
vn -0.4956 0.0911 0.8638
vn -0.2770 0.8584 0.4317
vn -0.4467 -0.3841 0.8081
vn -0.4370 0.5201 0.7338
vn -0.6646 0.7193 -0.2022
vn -0.8342 -0.5232 0.1741
vn -0.9364 0.3409 -0.0831
vn 0.1296 0.9490 -0.2874
vn -0.9950 -0.0881 0.0469
vn -0.4724 -0.7603 -0.4458
vn 0.3338 -0.6420 -0.6903
vn -0.5287 -0.3937 -0.7519
vn 0.1856 0.9635 -0.1928
vn 0.2770 -0.8584 -0.4317
vn 0.8576 0.4884 0.1610
vn 0.4370 -0.5201 -0.7338
vn 0.1741 -0.9538 -0.2451
vn 0.6646 -0.7193 0.2022
vn 0.9950 0.0881 -0.0469
vn 0.9364 -0.3409 0.0831
vn 0.8342 0.5232 -0.1741
vn 0.3027 -0.4822 0.8221
vn 0.5287 0.3937 0.7519
vn 0.4702 -0.0353 0.8819
vn 0.4724 0.7603 0.4458
vn -0.1296 -0.9490 0.2875
vn 0.3985 -0.6380 -0.6589
vn 0.2106 0.8802 -0.4253
vn -0.5615 0.3921 -0.7287
vn 0.0118 0.9964 -0.0837
vn 0.9974 -0.0484 0.0531
vn -0.4646 0.0345 -0.8848
vn -0.5224 -0.5417 -0.6585
vn -0.0192 0.8595 -0.5108
vn -0.9329 0.3294 -0.1459
vn -0.4604 -0.7883 -0.4082
vn 0.6718 0.2887 -0.6822
vn -0.6226 0.7703 0.1377
vn 0.4062 -0.0807 -0.9102
vn 0.8903 0.4445 0.0987
vn 0.1741 -0.9537 -0.2451
vn 0.3028 -0.4822 0.8221
vn -0.6008 0.4358 -0.6702
vn 0.0117 0.9964 -0.0837
vn 0.9948 0.0871 -0.0531
vn -0.5499 -0.1042 -0.8287
vn -0.5224 -0.5416 -0.6585
vn -0.9843 -0.1741 0.0306
vn 0.7145 0.4076 -0.5686
vn -0.7073 0.7013 0.0885
s off
f 17/1/1 27/2/1 5/3/1
f 3/4/2 9/5/2 4/6/2
f 1/7/3 7/8/3 2/9/3
f 5/10/4 9/5/4 10/11/4
f 2/9/5 8/12/5 3/4/5
f 6/13/6 29/14/6 7/15/6
f 9/16/7 13/17/7 10/18/7
f 7/15/8 11/19/8 8/20/8
f 1/21/9 28/22/9 6/13/9
f 8/20/10 12/23/10 9/16/10
f 13/17/11 16/24/11 17/1/11
f 30/25/12 42/26/12 38/27/12
f 11/19/13 16/24/13 12/23/13
f 28/28/14 41/29/14 39/30/14
f 16/24/15 22/31/15 17/1/15
f 19/32/16 35/33/16 18/34/16
f 15/35/17 21/36/17 16/24/17
f 20/37/18 34/38/18 36/39/18
f 22/31/19 26/40/19 27/2/19
f 19/41/20 25/42/20 20/43/20
f 1/21/9 18/44/9 14/45/9
f 20/43/21 26/40/21 21/36/21
f 18/44/22 24/46/22 19/41/22
f 27/47/23 4/6/23 5/10/23
f 24/48/24 3/4/24 25/49/24
f 25/49/25 4/6/25 26/50/25
f 23/51/26 2/9/26 24/48/26
f 13/17/27 5/3/27 10/18/27
f 31/52/28 36/39/28 34/38/28
f 31/52/29 35/33/29 32/53/29
f 30/54/30 33/55/30 31/52/30
f 18/34/31 33/55/31 14/56/31
f 19/32/32 36/39/32 32/53/32
f 30/54/33 34/38/33 15/57/33
f 37/58/34 42/26/34 40/59/34
f 37/58/35 41/29/35 38/27/35
f 29/60/36 40/59/36 11/61/36
f 11/61/37 42/26/37 15/62/37
f 30/25/38 41/29/38 14/63/38
f 29/60/39 39/30/39 37/58/39
f 17/1/1 22/31/1 27/2/1
f 3/4/2 8/12/2 9/5/2
f 1/7/3 6/64/3 7/8/3
f 5/10/4 4/6/4 9/5/4
f 2/9/5 7/8/5 8/12/5
f 6/13/6 28/22/6 29/14/6
f 9/16/7 12/23/7 13/17/7
f 7/15/8 29/14/8 11/19/8
f 1/21/9 14/45/9 28/22/9
f 8/20/10 11/19/10 12/23/10
f 13/17/11 12/23/11 16/24/11
f 30/25/40 15/62/40 42/26/40
f 11/19/13 15/35/13 16/24/13
f 28/28/14 14/63/14 41/29/14
f 16/24/15 21/36/15 22/31/15
f 19/32/41 32/53/41 35/33/41
f 15/35/17 20/43/17 21/36/17
f 20/37/42 15/57/42 34/38/42
f 22/31/19 21/36/19 26/40/19
f 19/41/20 24/46/20 25/42/20
f 1/21/9 23/65/9 18/44/9
f 20/43/21 25/42/21 26/40/21
f 18/44/22 23/65/22 24/46/22
f 27/47/43 26/50/43 4/6/43
f 24/48/24 2/9/24 3/4/24
f 25/49/25 3/4/25 4/6/25
f 23/51/26 1/7/26 2/9/26
f 13/17/1 17/1/1 5/3/1
f 31/52/28 32/53/28 36/39/28
f 31/52/29 33/55/29 35/33/29
f 30/54/44 14/56/44 33/55/44
f 18/34/45 35/33/45 33/55/45
f 19/32/46 20/37/46 36/39/46
f 30/54/47 31/52/47 34/38/47
f 37/58/48 38/27/48 42/26/48
f 37/58/35 39/30/35 41/29/35
f 29/60/49 37/58/49 40/59/49
f 11/61/37 40/59/37 42/26/37
f 30/25/50 38/27/50 41/29/50
f 29/60/51 28/28/51 39/30/51
v 0.872115 1.496099 -0.530065
v 0.870322 1.473383 -0.547454
v 0.873117 1.445195 -0.551838
v 0.879751 1.419088 -0.542040
v 0.888447 1.402056 -0.520688
v 0.898495 1.501336 -0.523490
v 0.916014 1.482454 -0.536066
v 0.925877 1.455669 -0.538688
v 0.925443 1.428158 -0.530652
v 0.914827 1.407293 -0.514113
v 0.940204 1.463434 -0.485766
v 0.937851 1.434883 -0.484821
v 0.921990 1.411175 -0.487653
v 0.886442 1.503864 -0.477144
v 0.901771 1.460725 -0.445994
v 0.904566 1.432537 -0.450378
v 0.902774 1.409821 -0.467767
v 0.860062 1.498627 -0.483718
v 0.849446 1.477762 -0.467179
v 0.849011 1.450251 -0.459144
v 0.858875 1.423466 -0.461766
v 0.876394 1.404584 -0.474341
v 0.852898 1.494745 -0.510179
v 0.837038 1.471037 -0.513011
v 0.834684 1.442486 -0.512066
v 0.846467 1.416742 -0.507597
v 0.869230 1.400702 -0.500802
v 0.905658 1.505218 -0.497030
v 0.928421 1.489178 -0.490235
v 0.895137 1.486832 -0.455791
v 0.860569 1.504146 -0.423616
v 0.856841 1.503406 -0.424546
v 0.873031 1.509297 -0.457101
v 0.877346 1.474060 -0.430444
v 0.859973 1.506705 -0.460356
v 0.857091 1.470039 -0.435493
v 0.940626 1.515134 -0.451192
v 0.932748 1.514579 -0.443039
v 0.925490 1.516711 -0.462067
v 0.936399 1.492605 -0.453761
v 0.921879 1.516457 -0.458331
v 0.932778 1.492350 -0.450014
vt 0.274240 0.539347
vt 0.265397 0.539709
vt 0.266768 0.532487
vt 0.231414 0.551290
vt 0.214659 0.541092
vt 0.231357 0.542861
vt 0.231940 0.569242
vt 0.215985 0.562822
vt 0.231472 0.559719
vt 0.230890 0.533338
vt 0.220414 0.530957
vt 0.213134 0.552274
vt 0.289666 0.544440
vt 0.282983 0.540904
vt 0.290637 0.536818
vt 0.279682 0.529141
vt 0.275518 0.536619
vt 0.273707 0.532162
vt 0.280945 0.538772
vt 0.286431 0.530872
vt 0.290637 0.551375
vt 0.284312 0.543753
vt 0.278488 0.537315
vt 0.276318 0.541045
vt 0.804698 0.251197
vt 0.792375 0.255919
vt 0.792638 0.252041
vt 0.786357 0.239035
vt 0.792578 0.249274
vt 0.791489 0.249454
vt 0.271776 0.541127
vt 0.760733 0.199751
vt 0.757502 0.209505
vt 0.750621 0.206121
vt 0.278108 0.542645
vt 0.273009 0.544115
vt 0.772804 0.201934
vt 0.766718 0.213101
vt 0.766203 0.208706
vt 0.264007 0.548518
vt 0.277612 0.547903
vt 0.268747 0.555467
vt 0.275021 0.546378
vt 0.280714 0.548498
vt 0.281954 0.545638
vt 0.276612 0.557409
vt 0.240880 0.530957
vt 0.248168 0.561486
vt 0.249693 0.550306
vt 0.246843 0.539760
vt 0.242415 0.571620
vt 0.762287 0.211045
vt 0.762255 0.210544
vt 0.761023 0.221925
vt 0.757316 0.212491
vt 0.750922 0.216572
vt 0.772804 0.220841
vt 0.791613 0.252007
vt 0.791097 0.255536
vt 0.780068 0.250772
vt 0.780487 0.263708
vt 0.804698 0.264828
vt 0.798786 0.238814
vt 0.221949 0.571626
vt 0.283377 0.553479
vn 0.1703 -0.9805 0.0978
vn 0.2833 -0.2730 -0.9193
vn 0.0785 0.6021 -0.7946
vn 0.3015 -0.6818 -0.6666
vn 0.2063 0.1703 -0.9635
vn 0.6073 0.7458 -0.2738
vn 0.8302 -0.5380 -0.1458
vn 0.8877 0.3555 -0.2925
vn -0.1703 0.9805 -0.0978
vn 0.9647 -0.0878 -0.2483
vn 0.6402 -0.4982 0.5848
vn -0.1020 -0.2980 0.9491
vn 0.7199 -0.0364 0.6932
vn -0.2467 0.9534 -0.1735
vn -0.0785 -0.6021 0.7946
vn -0.9216 0.3658 -0.1300
vn -0.2063 -0.1703 0.9635
vn -0.0084 -0.7655 0.6433
vn -0.6073 -0.7458 0.2738
vn -0.9647 0.0878 0.2483
vn -0.8877 -0.3555 0.2925
vn -0.8302 0.5380 0.1458
vn -0.4173 -0.7857 -0.4567
vn -0.7199 0.0364 -0.6932
vn -0.6429 -0.4069 -0.6490
vn -0.6402 0.4982 -0.5848
vn -0.1720 -0.3082 0.9356
vn -0.2113 0.9748 0.0713
vn 0.6581 0.6679 0.3477
vn -0.1055 0.9397 -0.3253
vn -0.9733 -0.0781 0.2158
vn 0.6382 0.4073 0.6533
vn 0.7102 -0.2099 0.6720
vn 0.0324 0.9946 0.0991
vn 0.8992 0.3713 -0.2315
vn 0.6236 -0.5394 0.5658
vn -0.5363 0.5397 0.6489
vn 0.4872 0.6493 -0.5840
vn -0.1878 0.3029 0.9343
vn -0.9348 0.3517 -0.0494
vn 0.6786 0.6835 0.2688
vn -0.9630 0.0894 0.2542
vn 0.7244 0.2589 0.6389
vn 0.9675 -0.1591 -0.1967
vn 0.6236 -0.5395 0.5658
vn -0.6157 0.5996 0.5112
vn 0.5878 0.6083 -0.5334
s off
f 59/66/52 69/67/52 47/68/52
f 45/69/53 51/70/53 46/71/53
f 43/72/54 49/73/54 44/74/54
f 47/75/55 51/70/55 52/76/55
f 44/74/56 50/77/56 45/69/56
f 48/78/57 71/79/57 49/80/57
f 51/81/58 55/82/58 52/83/58
f 49/80/59 53/84/59 50/85/59
f 43/86/60 70/87/60 48/78/60
f 50/85/61 54/88/61 51/81/61
f 55/82/62 58/89/62 59/66/62
f 72/90/63 84/91/63 80/92/63
f 53/84/64 58/89/64 54/88/64
f 70/93/65 83/94/65 81/95/65
f 58/89/66 64/96/66 59/66/66
f 61/97/67 77/98/67 60/99/67
f 57/100/68 63/101/68 58/89/68
f 62/102/69 76/103/69 78/104/69
f 64/96/70 68/105/70 69/67/70
f 61/106/71 67/107/71 62/108/71
f 43/86/60 60/109/60 56/110/60
f 62/108/72 68/105/72 63/101/72
f 60/109/73 66/111/73 61/106/73
f 69/112/74 46/71/74 47/75/74
f 66/113/75 45/69/75 67/114/75
f 67/114/76 46/71/76 68/115/76
f 65/116/77 44/74/77 66/113/77
f 55/82/52 47/68/52 52/83/52
f 73/117/78 78/104/78 76/103/78
f 73/117/79 77/98/79 74/118/79
f 72/119/80 75/120/80 73/117/80
f 60/99/81 75/120/81 56/121/81
f 61/97/82 78/104/82 74/118/82
f 72/119/83 76/103/83 57/122/83
f 79/123/84 84/91/84 82/124/84
f 79/123/85 83/94/85 80/92/85
f 71/125/86 82/124/86 53/126/86
f 53/126/87 84/91/87 57/127/87
f 72/90/88 83/94/88 56/128/88
f 71/125/89 81/95/89 79/123/89
f 59/66/52 64/96/52 69/67/52
f 45/69/53 50/77/53 51/70/53
f 43/72/54 48/129/54 49/73/54
f 47/75/55 46/71/55 51/70/55
f 44/74/56 49/73/56 50/77/56
f 48/78/57 70/87/57 71/79/57
f 51/81/58 54/88/58 55/82/58
f 49/80/59 71/79/59 53/84/59
f 43/86/60 56/110/60 70/87/60
f 50/85/61 53/84/61 54/88/61
f 55/82/62 54/88/62 58/89/62
f 72/90/90 57/127/90 84/91/90
f 53/84/64 57/100/64 58/89/64
f 70/93/65 56/128/65 83/94/65
f 58/89/66 63/101/66 64/96/66
f 61/97/91 74/118/91 77/98/91
f 57/100/68 62/108/68 63/101/68
f 62/102/69 57/122/69 76/103/69
f 64/96/70 63/101/70 68/105/70
f 61/106/71 66/111/71 67/107/71
f 43/86/60 65/130/60 60/109/60
f 62/108/72 67/107/72 68/105/72
f 60/109/73 65/130/73 66/111/73
f 69/112/74 68/115/74 46/71/74
f 66/113/75 44/74/75 45/69/75
f 67/114/76 45/69/76 46/71/76
f 65/116/77 43/72/77 44/74/77
f 55/82/52 59/66/52 47/68/52
f 73/117/78 74/118/78 78/104/78
f 73/117/79 75/120/79 77/98/79
f 72/119/92 56/121/92 75/120/92
f 60/99/81 77/98/81 75/120/81
f 61/97/93 62/102/93 78/104/93
f 72/119/94 73/117/94 76/103/94
f 79/123/84 80/92/84 84/91/84
f 79/123/85 81/95/85 83/94/85
f 71/125/95 79/123/95 82/124/95
f 53/126/96 82/124/96 84/91/96
f 72/90/97 80/92/97 83/94/97
f 71/125/98 70/93/98 81/95/98
