# Blender v2.81 (sub 16) OBJ File: 'garbage.blend'
# www.blender.org
v 0.705448 2.552120 -1.154768
v 0.716434 2.525747 -1.157071
v 0.713034 2.497293 -1.156401
v 0.696158 2.474385 -1.152935
v 0.670328 2.463160 -1.147605
v 0.697732 2.557267 -1.128681
v 0.703071 2.534661 -1.111887
v 0.697603 2.507586 -1.104226
v 0.682795 2.483299 -1.107751
v 0.662613 2.468306 -1.121517
v 0.647311 2.528280 -1.093798
v 0.639241 2.501220 -1.098720
v 0.637467 2.478653 -1.116303
v 0.655156 2.572814 -1.144340
v 0.612450 2.538680 -1.135544
v 0.609050 2.510227 -1.134873
v 0.620036 2.483853 -1.137176
v 0.662871 2.567667 -1.170428
v 0.642689 2.552675 -1.184194
v 0.627881 2.528387 -1.187719
v 0.622413 2.501313 -1.180058
v 0.627752 2.478706 -1.163264
v 0.688017 2.557321 -1.175642
v 0.686243 2.534754 -1.193225
v 0.678173 2.507694 -1.198147
v 0.665967 2.483392 -1.189089
v 0.652898 2.468360 -1.168478
v 0.672586 2.567614 -1.123467
v 0.659517 2.552582 -1.102856
v 0.629326 2.561589 -1.139009
v 0.606550 2.588978 -1.174520
v 0.607640 2.588251 -1.178207
v 0.638728 2.584222 -1.158869
v 0.603540 2.557176 -1.159932
v 0.642547 2.581674 -1.171782
v 0.609464 2.553224 -1.179962
v 0.627492 2.587200 -1.091765
v 0.620346 2.589332 -1.100322
v 0.639927 2.586758 -1.105730
v 0.624554 2.565110 -1.097720
v 0.636652 2.587735 -1.109652
v 0.621270 2.566090 -1.101653
vt 0.274240 0.539347
vt 0.265397 0.539709
vt 0.266768 0.532487
vt 0.231414 0.551290
vt 0.214659 0.541092
vt 0.231357 0.542861
vt 0.231940 0.569242
vt 0.215985 0.562822
vt 0.231472 0.559719
vt 0.230890 0.533338
vt 0.220414 0.530957
vt 0.213134 0.552274
vt 0.289666 0.544440
vt 0.282983 0.540904
vt 0.290637 0.536818
vt 0.279682 0.529141
vt 0.275518 0.536619
vt 0.273707 0.532162
vt 0.280945 0.538772
vt 0.286431 0.530872
vt 0.290637 0.551375
vt 0.284312 0.543753
vt 0.278488 0.537315
vt 0.276318 0.541045
vt 0.804698 0.251197
vt 0.792375 0.255919
vt 0.792638 0.252041
vt 0.786357 0.239035
vt 0.792578 0.249274
vt 0.791489 0.249454
vt 0.271776 0.541127
vt 0.760733 0.199751
vt 0.757502 0.209505
vt 0.750621 0.206121
vt 0.278108 0.542645
vt 0.273009 0.544115
vt 0.772804 0.201934
vt 0.766718 0.213101
vt 0.766203 0.208706
vt 0.264007 0.548518
vt 0.277612 0.547903
vt 0.268747 0.555467
vt 0.275021 0.546378
vt 0.280714 0.548498
vt 0.281954 0.545638
vt 0.276612 0.557409
vt 0.240880 0.530957
vt 0.248168 0.561486
vt 0.249693 0.550306
vt 0.246843 0.539760
vt 0.242415 0.571620
vt 0.762287 0.211045
vt 0.762255 0.210544
vt 0.761023 0.221925
vt 0.757316 0.212491
vt 0.750922 0.216572
vt 0.772804 0.220841
vt 0.791613 0.252007
vt 0.791097 0.255536
vt 0.780068 0.250772
vt 0.780487 0.263708
vt 0.804698 0.264828
vt 0.798786 0.238814
vt 0.221949 0.571626
vt 0.283377 0.553479
vn -0.3662 -0.9275 0.0747
vn 0.7821 -0.5255 0.3350
vn 0.9109 0.3622 0.1979
vn 0.4314 -0.8523 0.2957
vn 0.9476 -0.1061 0.3012
vn 0.3929 0.6064 0.6914
vn -0.0866 -0.6081 0.7891
vn 0.2801 0.2086 0.9370
vn 0.3662 0.9275 -0.0747
vn 0.1146 -0.2108 0.9708
vn -0.7577 -0.3630 0.5423
vn -0.9778 -0.0270 -0.2076
vn -0.7503 0.1051 0.6527
vn 0.4398 0.8861 -0.1465
vn -0.9109 -0.3622 -0.1979
vn 0.3163 0.3746 -0.8716
vn -0.9476 0.1061 -0.3012
vn -0.8154 -0.5641 -0.1299
vn -0.3929 -0.6064 -0.6913
vn -0.1146 0.2108 -0.9708
vn -0.2801 -0.2086 -0.9370
vn 0.0866 0.6081 -0.7891
vn 0.2783 -0.8515 -0.4445
vn 0.7503 -0.1050 -0.6527
vn 0.5848 -0.5244 -0.6189
vn 0.7577 0.3630 -0.5423
vn -0.9602 -0.0361 -0.2769
vn 0.2066 0.9697 -0.1302
vn -0.2293 0.6941 0.6824
vn 0.5672 0.8235 0.0053
vn -0.1255 0.0431 -0.9912
vn -0.5883 0.5262 0.6140
vn -0.7740 -0.0668 0.6297
vn 0.1596 0.9809 0.1111
vn 0.2245 0.2393 0.9446
vn -0.7485 -0.4067 0.5237
vn -0.4267 0.7256 -0.5398
vn 0.6781 0.4383 0.5899
vn 0.3929 0.6064 0.6913
vn -0.0866 -0.6081 0.7892
vn -0.7987 0.5523 -0.2388
vn -0.7503 0.1050 0.6527
vn -0.9109 -0.3621 -0.1979
vn 0.2365 0.3833 -0.8928
vn -0.3929 -0.6064 -0.6914
vn 0.0866 0.6081 -0.7892
vn 0.2783 -0.8514 -0.4445
vn 0.7503 -0.1051 -0.6527
vn 0.5847 -0.5244 -0.6189
vn 0.2067 0.9697 -0.1302
vn -0.1518 0.6868 0.7108
vn 0.5672 0.8236 0.0053
vn -0.1199 0.2138 -0.9695
vn -0.6221 0.3743 0.6877
vn 0.0462 -0.2658 0.9629
vn -0.2707 0.7514 -0.6017
vn 0.6084 0.4061 0.6819
s off
f 17/1/1 27/2/1 5/3/1
f 3/4/2 9/5/2 4/6/2
f 1/7/3 7/8/3 2/9/3
f 5/10/4 9/5/4 10/11/4
f 2/9/5 8/12/5 3/4/5
f 6/13/6 29/14/6 7/15/6
f 9/16/7 13/17/7 10/18/7
f 7/15/8 11/19/8 8/20/8
f 1/21/9 28/22/9 6/13/9
f 8/20/10 12/23/10 9/16/10
f 13/17/11 16/24/11 17/1/11
f 30/25/12 42/26/12 38/27/12
f 11/19/13 16/24/13 12/23/13
f 28/28/14 41/29/14 39/30/14
f 16/24/15 22/31/15 17/1/15
f 19/32/16 35/33/16 18/34/16
f 15/35/17 21/36/17 16/24/17
f 20/37/18 34/38/18 36/39/18
f 22/31/19 26/40/19 27/2/19
f 19/41/20 25/42/20 20/43/20
f 1/21/9 18/44/9 14/45/9
f 20/43/21 26/40/21 21/36/21
f 18/44/22 24/46/22 19/41/22
f 27/47/23 4/6/23 5/10/23
f 24/48/24 3/4/24 25/49/24
f 25/49/25 4/6/25 26/50/25
f 23/51/26 2/9/26 24/48/26
f 13/17/1 5/3/1 10/18/1
f 31/52/27 36/39/27 34/38/27
f 31/52/28 35/33/28 32/53/28
f 30/54/29 33/55/29 31/52/29
f 18/34/30 33/55/30 14/56/30
f 19/32/31 36/39/31 32/53/31
f 30/54/32 34/38/32 15/57/32
f 37/58/33 42/26/33 40/59/33
f 37/58/34 41/29/34 38/27/34
f 29/60/35 40/59/35 11/61/35
f 11/61/36 42/26/36 15/62/36
f 30/25/37 41/29/37 14/63/37
f 29/60/38 39/30/38 37/58/38
f 17/1/1 22/31/1 27/2/1
f 3/4/2 8/12/2 9/5/2
f 1/7/3 6/64/3 7/8/3
f 5/10/4 4/6/4 9/5/4
f 2/9/5 7/8/5 8/12/5
f 6/13/39 28/22/39 29/14/39
f 9/16/40 12/23/40 13/17/40
f 7/15/8 29/14/8 11/19/8
f 1/21/9 14/45/9 28/22/9
f 8/20/10 11/19/10 12/23/10
f 13/17/11 12/23/11 16/24/11
f 30/25/41 15/62/41 42/26/41
f 11/19/42 15/35/42 16/24/42
f 28/28/14 14/63/14 41/29/14
f 16/24/43 21/36/43 22/31/43
f 19/32/44 32/53/44 35/33/44
f 15/35/17 20/43/17 21/36/17
f 20/37/18 15/57/18 34/38/18
f 22/31/45 21/36/45 26/40/45
f 19/41/20 24/46/20 25/42/20
f 1/21/9 23/65/9 18/44/9
f 20/43/21 25/42/21 26/40/21
f 18/44/46 23/65/46 24/46/46
f 27/47/47 26/50/47 4/6/47
f 24/48/48 2/9/48 3/4/48
f 25/49/49 3/4/49 4/6/49
f 23/51/26 1/7/26 2/9/26
f 13/17/1 17/1/1 5/3/1
f 31/52/27 32/53/27 36/39/27
f 31/52/50 33/55/50 35/33/50
f 30/54/51 14/56/51 33/55/51
f 18/34/52 35/33/52 33/55/52
f 19/32/53 20/37/53 36/39/53
f 30/54/54 31/52/54 34/38/54
f 37/58/33 38/27/33 42/26/33
f 37/58/34 39/30/34 41/29/34
f 29/60/55 37/58/55 40/59/55
f 11/61/36 40/59/36 42/26/36
f 30/25/56 38/27/56 41/29/56
f 29/60/57 28/28/57 39/30/57
v 1.674433 2.184687 -0.628315
v 1.652606 2.171612 -0.615117
v 1.640040 2.147604 -0.605770
v 1.640104 2.119097 -0.602781
v 1.652779 2.093729 -0.606949
v 1.674854 2.178262 -0.655243
v 1.653334 2.160483 -0.661757
v 1.640882 2.134753 -0.659626
v 1.640833 2.107968 -0.649421
v 1.653200 2.087303 -0.633877
v 1.688014 2.117961 -0.683350
v 1.681650 2.093425 -0.669967
v 1.676766 2.078907 -0.645739
v 1.721565 2.167894 -0.652039
v 1.734304 2.114019 -0.653219
v 1.721739 2.090011 -0.643872
v 1.699911 2.076936 -0.630674
v 1.721144 2.174320 -0.625112
v 1.733512 2.153655 -0.609568
v 1.733463 2.126869 -0.599363
v 1.721010 2.101140 -0.597232
v 1.699491 2.083361 -0.603746
v 1.697578 2.182716 -0.613250
v 1.692694 2.168198 -0.589022
v 1.686331 2.143662 -0.575639
v 1.680193 2.115683 -0.576687
v 1.675925 2.091758 -0.591884
v 1.698420 2.169865 -0.667105
v 1.694152 2.145940 -0.682302
v 1.734240 2.142526 -0.656208
v 1.777999 2.157537 -0.636464
v 1.777939 2.158445 -0.632659
v 1.745165 2.169898 -0.644961
v 1.758896 2.128152 -0.638668
v 1.744957 2.173078 -0.631631
v 1.758573 2.133085 -0.617993
v 1.734059 2.150705 -0.709353
v 1.743547 2.149897 -0.703177
v 1.728524 2.160933 -0.694703
v 1.726614 2.133305 -0.696168
v 1.732873 2.160563 -0.691873
v 1.730976 2.132933 -0.693329
vt 0.274240 0.539347
vt 0.265397 0.539709
vt 0.266768 0.532487
vt 0.231414 0.551290
vt 0.214659 0.541092
vt 0.231357 0.542861
vt 0.231940 0.569242
vt 0.215985 0.562822
vt 0.231472 0.559719
vt 0.230890 0.533338
vt 0.220414 0.530957
vt 0.213134 0.552274
vt 0.289666 0.544440
vt 0.282983 0.540904
vt 0.290637 0.536818
vt 0.279682 0.529141
vt 0.275518 0.536619
vt 0.273707 0.532162
vt 0.280945 0.538772
vt 0.286431 0.530872
vt 0.290637 0.551375
vt 0.284312 0.543753
vt 0.278488 0.537315
vt 0.276318 0.541045
vt 0.804698 0.251197
vt 0.792375 0.255919
vt 0.792638 0.252041
vt 0.786357 0.239035
vt 0.792578 0.249274
vt 0.791489 0.249454
vt 0.271776 0.541127
vt 0.760733 0.199751
vt 0.757502 0.209505
vt 0.750621 0.206121
vt 0.278108 0.542645
vt 0.273009 0.544115
vt 0.772804 0.201934
vt 0.766718 0.213101
vt 0.766203 0.208706
vt 0.264007 0.548518
vt 0.277612 0.547903
vt 0.268747 0.555467
vt 0.275021 0.546378
vt 0.280714 0.548498
vt 0.281954 0.545638
vt 0.276612 0.557409
vt 0.240880 0.530957
vt 0.248168 0.561486
vt 0.249693 0.550306
vt 0.246843 0.539760
vt 0.242415 0.571620
vt 0.762287 0.211045
vt 0.762255 0.210544
vt 0.761023 0.221925
vt 0.757316 0.212491
vt 0.750922 0.216572
vt 0.772804 0.220841
vt 0.791613 0.252007
vt 0.791097 0.255536
vt 0.780068 0.250772
vt 0.780487 0.263708
vt 0.804698 0.264828
vt 0.798786 0.238814
vt 0.221949 0.571626
vt 0.283377 0.553479
vn -0.2258 -0.9484 0.2228
vn -0.9999 -0.0038 -0.0147
vn -0.5885 0.7843 -0.1963
vn -0.8841 -0.4574 0.0953
vn -0.8978 0.4250 -0.1154
vn -0.2104 0.5506 -0.8078
vn -0.5060 -0.6911 -0.5161
vn -0.4106 0.1239 -0.9034
vn 0.2258 0.9484 -0.2228
vn -0.5126 -0.3049 -0.8027
vn 0.2303 -0.8545 -0.4656
vn 0.8213 -0.5657 0.0740
vn 0.4362 -0.5155 -0.7376
vn 0.1690 0.9768 -0.1318
vn 0.5885 -0.7843 0.1963
vn 0.2285 0.6689 0.7074
vn 0.8978 -0.4250 0.1154
vn 0.3850 -0.8963 0.2199
vn 0.2104 -0.5506 0.8078
vn 0.5126 0.3049 0.8027
vn 0.4106 -0.1239 0.9034
vn 0.5060 0.6911 0.5161
vn -0.5259 -0.3872 0.7573
vn -0.4362 0.5155 0.7376
vn -0.5383 0.0867 0.8383
vn -0.2303 0.8545 0.4656
vn 0.8248 -0.5469 0.1434
vn 0.3913 0.8965 -0.2079
vn 0.3280 0.2441 -0.9126
vn -0.0129 0.9726 -0.2323
vn 0.4393 0.1742 0.8813
vn 0.5436 -0.0863 -0.8349
vn 0.3715 -0.6564 -0.6566
vn 0.3568 0.8239 -0.4404
vn -0.3530 0.1122 -0.9289
vn 0.2059 -0.8784 -0.4313
vn 0.8918 0.4166 0.1765
vn -0.4910 0.6163 -0.6157
vn -0.5885 0.7843 -0.1964
vn 0.9963 -0.0068 -0.0859
vn 0.4362 -0.5154 -0.7376
vn 0.3026 0.6321 0.7134
vn 0.3913 0.8965 -0.2078
vn 0.2541 0.2791 -0.9260
vn 0.5181 0.3037 0.7996
vn 0.4663 -0.2393 -0.8516
vn 0.3715 -0.6565 -0.6566
vn 0.3568 0.8238 -0.4404
vn -0.4854 -0.3866 -0.7842
vn 0.8026 0.5442 0.2444
vn -0.4826 0.5293 -0.6978
s off
f 59/66/58 69/67/58 47/68/58
f 45/69/59 51/70/59 46/71/59
f 43/72/60 49/73/60 44/74/60
f 47/75/61 51/70/61 52/76/61
f 44/74/62 50/77/62 45/69/62
f 48/78/63 71/79/63 49/80/63
f 51/81/64 55/82/64 52/83/64
f 49/80/65 53/84/65 50/85/65
f 43/86/66 70/87/66 48/78/66
f 50/85/67 54/88/67 51/81/67
f 55/82/68 58/89/68 59/66/68
f 72/90/69 84/91/69 80/92/69
f 53/84/70 58/89/70 54/88/70
f 70/93/71 83/94/71 81/95/71
f 58/89/72 64/96/72 59/66/72
f 61/97/73 77/98/73 60/99/73
f 57/100/74 63/101/74 58/89/74
f 62/102/75 76/103/75 78/104/75
f 64/96/76 68/105/76 69/67/76
f 61/106/77 67/107/77 62/108/77
f 43/86/66 60/109/66 56/110/66
f 62/108/78 68/105/78 63/101/78
f 60/109/79 66/111/79 61/106/79
f 69/112/80 46/71/80 47/75/80
f 66/113/81 45/69/81 67/114/81
f 67/114/82 46/71/82 68/115/82
f 65/116/83 44/74/83 66/113/83
f 55/82/58 47/68/58 52/83/58
f 73/117/84 78/104/84 76/103/84
f 73/117/85 77/98/85 74/118/85
f 72/119/86 75/120/86 73/117/86
f 60/99/87 75/120/87 56/121/87
f 61/97/88 78/104/88 74/118/88
f 72/119/89 76/103/89 57/122/89
f 79/123/90 84/91/90 82/124/90
f 79/123/91 83/94/91 80/92/91
f 71/125/92 82/124/92 53/126/92
f 53/126/93 84/91/93 57/127/93
f 72/90/94 83/94/94 56/128/94
f 71/125/95 81/95/95 79/123/95
f 59/66/58 64/96/58 69/67/58
f 45/69/59 50/77/59 51/70/59
f 43/72/96 48/129/96 49/73/96
f 47/75/61 46/71/61 51/70/61
f 44/74/62 49/73/62 50/77/62
f 48/78/63 70/87/63 71/79/63
f 51/81/64 54/88/64 55/82/64
f 49/80/65 71/79/65 53/84/65
f 43/86/66 56/110/66 70/87/66
f 50/85/67 53/84/67 54/88/67
f 55/82/68 54/88/68 58/89/68
f 72/90/97 57/127/97 84/91/97
f 53/84/98 57/100/98 58/89/98
f 70/93/71 56/128/71 83/94/71
f 58/89/72 63/101/72 64/96/72
f 61/97/99 74/118/99 77/98/99
f 57/100/74 62/108/74 63/101/74
f 62/102/75 57/122/75 76/103/75
f 64/96/76 63/101/76 68/105/76
f 61/106/77 66/111/77 67/107/77
f 43/86/66 65/130/66 60/109/66
f 62/108/78 67/107/78 68/105/78
f 60/109/79 65/130/79 66/111/79
f 69/112/80 68/115/80 46/71/80
f 66/113/81 44/74/81 45/69/81
f 67/114/82 45/69/82 46/71/82
f 65/116/83 43/72/83 44/74/83
f 55/82/58 59/66/58 47/68/58
f 73/117/84 74/118/84 78/104/84
f 73/117/100 75/120/100 77/98/100
f 72/119/101 56/121/101 75/120/101
f 60/99/87 77/98/87 75/120/87
f 61/97/102 62/102/102 78/104/102
f 72/119/103 73/117/103 76/103/103
f 79/123/104 80/92/104 84/91/104
f 79/123/105 81/95/105 83/94/105
f 71/125/106 79/123/106 82/124/106
f 53/126/93 82/124/93 84/91/93
f 72/90/107 80/92/107 83/94/107
f 71/125/108 70/93/108 81/95/108
