# Blender v2.81 (sub 16) OBJ File: 'garbage.blend'
# www.blender.org
v 1.800372 2.151371 -0.853386
v 1.811061 2.130868 -0.836446
v 1.810298 2.104005 -0.826475
v 1.798289 2.077981 -0.826146
v 1.778250 2.059768 -0.835546
v 1.775250 2.159128 -0.844709
v 1.767548 2.144303 -0.821418
v 1.760054 2.119519 -0.809122
v 1.754776 2.091416 -0.811118
v 1.753128 2.067525 -0.826869
v 1.718080 2.122648 -0.845103
v 1.718426 2.094126 -0.842278
v 1.732141 2.069090 -0.844860
v 1.758398 2.154501 -0.889367
v 1.726350 2.110264 -0.898437
v 1.725587 2.083401 -0.888467
v 1.736276 2.062898 -0.871527
v 1.783520 2.146744 -0.898043
v 1.781872 2.122853 -0.913795
v 1.776594 2.094750 -0.915790
v 1.769100 2.069966 -0.903495
v 1.761398 2.055141 -0.880203
v 1.804507 2.145180 -0.880053
v 1.818223 2.120143 -0.882634
v 1.818568 2.091621 -0.879809
v 1.805451 2.067256 -0.872334
v 1.782385 2.053576 -0.862213
v 1.754263 2.160693 -0.862700
v 1.731197 2.147013 -0.852578
v 1.738359 2.136288 -0.898767
v 1.748587 2.145023 -0.947234
v 1.752137 2.143927 -0.948460
v 1.757953 2.155717 -0.914053
v 1.737767 2.118383 -0.927072
v 1.770388 2.151878 -0.918348
v 1.757055 2.112427 -0.933734
v 1.699626 2.169443 -0.881684
v 1.701321 2.166905 -0.892617
v 1.718309 2.170356 -0.881717
v 1.703746 2.147031 -0.878115
v 1.719085 2.169193 -0.886727
v 1.704525 2.145864 -0.883140
vt 0.274240 0.539347
vt 0.265397 0.539709
vt 0.266768 0.532487
vt 0.231414 0.551290
vt 0.214659 0.541092
vt 0.231357 0.542861
vt 0.231940 0.569242
vt 0.215985 0.562822
vt 0.231472 0.559719
vt 0.230890 0.533338
vt 0.220414 0.530957
vt 0.213134 0.552274
vt 0.289666 0.544440
vt 0.282983 0.540904
vt 0.290637 0.536818
vt 0.279682 0.529141
vt 0.275518 0.536619
vt 0.273707 0.532162
vt 0.280945 0.538772
vt 0.286431 0.530872
vt 0.290637 0.551375
vt 0.284312 0.543753
vt 0.278488 0.537315
vt 0.276318 0.541045
vt 0.804698 0.251197
vt 0.792375 0.255919
vt 0.792638 0.252041
vt 0.786357 0.239035
vt 0.792578 0.249274
vt 0.791489 0.249454
vt 0.271776 0.541127
vt 0.760733 0.199751
vt 0.757502 0.209505
vt 0.750621 0.206121
vt 0.278108 0.542645
vt 0.273009 0.544115
vt 0.772804 0.201934
vt 0.766718 0.213101
vt 0.766203 0.208706
vt 0.264007 0.548518
vt 0.277612 0.547903
vt 0.268747 0.555467
vt 0.275021 0.546378
vt 0.280714 0.548498
vt 0.281954 0.545638
vt 0.276612 0.557409
vt 0.240880 0.530957
vt 0.248168 0.561486
vt 0.249693 0.550306
vt 0.246843 0.539760
vt 0.242415 0.571620
vt 0.762287 0.211045
vt 0.762255 0.210544
vt 0.761023 0.221925
vt 0.757316 0.212491
vt 0.750922 0.216572
vt 0.772804 0.220841
vt 0.791613 0.252007
vt 0.791097 0.255536
vt 0.780068 0.250772
vt 0.780487 0.263708
vt 0.804698 0.264828
vt 0.798786 0.238814
vt 0.221949 0.571626
vt 0.283377 0.553479
vn -0.2306 -0.9551 0.1860
vn 0.2902 -0.1219 0.9492
vn 0.4166 0.6982 0.5822
vn 0.1146 -0.5523 0.8257
vn 0.3945 0.3099 0.8651
vn -0.3102 0.8451 0.4353
vn -0.6122 -0.4054 0.6789
vn -0.5422 0.4992 0.6759
vn 0.2307 0.9551 -0.1860
vn -0.6464 0.0674 0.7600
vn -0.8778 -0.4783 -0.0250
vn -0.4758 -0.4204 -0.7726
vn -0.9888 -0.0265 -0.1471
vn 0.3357 0.9277 -0.1633
vn -0.4166 -0.6982 -0.5822
vn 0.8398 0.2573 -0.4781
vn -0.3945 -0.3099 -0.8651
vn -0.3924 -0.8319 -0.3923
vn 0.3102 -0.8451 -0.4354
vn 0.6464 -0.0674 -0.7600
vn 0.5422 -0.4992 -0.6759
vn 0.6122 0.4054 -0.6789
vn 0.5758 -0.7722 0.2686
vn 0.9888 0.0266 0.1472
vn 0.8845 -0.4052 0.2312
vn 0.8778 0.4783 0.0250
vn -0.4113 -0.4379 -0.7994
vn 0.1662 0.9239 -0.3447
vn -0.7134 0.7003 -0.0243
vn 0.3078 0.9506 0.0413
vn 0.6662 -0.2279 -0.7100
vn -0.8832 0.4046 -0.2374
vn -0.9749 -0.1960 -0.1056
vn -0.0479 0.9713 -0.2330
vn -0.5861 0.5090 0.6304
vn -0.8548 -0.5188 -0.0121
vn 0.0819 0.3844 -0.9195
vn -0.0366 0.7719 0.6346
vn -0.2307 -0.9551 0.1860
vn -0.3102 0.8451 0.4354
vn 0.2306 0.9551 -0.1860
vn -0.3757 0.1618 -0.9125
vn -0.9888 -0.0266 -0.1472
vn 0.8035 0.2319 -0.5482
vn 0.3102 -0.8451 -0.4353
vn 0.9888 0.0265 0.1471
vn 0.8778 0.4783 0.0251
vn -0.4114 -0.4379 -0.7994
vn -0.6841 0.7278 0.0482
vn 0.6417 -0.0663 -0.7641
vn -0.9505 0.2713 -0.1517
vn -0.9749 -0.1960 -0.1057
vn -0.6811 -0.0086 0.7321
vn 0.2284 0.4497 -0.8635
vn -0.1494 0.7384 0.6576
s off
f 17/1/1 27/2/1 5/3/1
f 3/4/2 9/5/2 4/6/2
f 1/7/3 7/8/3 2/9/3
f 5/10/4 9/5/4 10/11/4
f 2/9/5 8/12/5 3/4/5
f 6/13/6 29/14/6 7/15/6
f 9/16/7 13/17/7 10/18/7
f 7/15/8 11/19/8 8/20/8
f 1/21/9 28/22/9 6/13/9
f 8/20/10 12/23/10 9/16/10
f 13/17/11 16/24/11 17/1/11
f 30/25/12 42/26/12 38/27/12
f 11/19/13 16/24/13 12/23/13
f 28/28/14 41/29/14 39/30/14
f 16/24/15 22/31/15 17/1/15
f 19/32/16 35/33/16 18/34/16
f 15/35/17 21/36/17 16/24/17
f 20/37/18 34/38/18 36/39/18
f 22/31/19 26/40/19 27/2/19
f 19/41/20 25/42/20 20/43/20
f 1/21/9 18/44/9 14/45/9
f 20/43/21 26/40/21 21/36/21
f 18/44/22 24/46/22 19/41/22
f 27/47/23 4/6/23 5/10/23
f 24/48/24 3/4/24 25/49/24
f 25/49/25 4/6/25 26/50/25
f 23/51/26 2/9/26 24/48/26
f 13/17/1 5/3/1 10/18/1
f 31/52/27 36/39/27 34/38/27
f 31/52/28 35/33/28 32/53/28
f 30/54/29 33/55/29 31/52/29
f 18/34/30 33/55/30 14/56/30
f 19/32/31 36/39/31 32/53/31
f 30/54/32 34/38/32 15/57/32
f 37/58/33 42/26/33 40/59/33
f 37/58/34 41/29/34 38/27/34
f 29/60/35 40/59/35 11/61/35
f 11/61/36 42/26/36 15/62/36
f 30/25/37 41/29/37 14/63/37
f 29/60/38 39/30/38 37/58/38
f 17/1/39 22/31/39 27/2/39
f 3/4/2 8/12/2 9/5/2
f 1/7/3 6/64/3 7/8/3
f 5/10/4 4/6/4 9/5/4
f 2/9/5 7/8/5 8/12/5
f 6/13/40 28/22/40 29/14/40
f 9/16/7 12/23/7 13/17/7
f 7/15/8 29/14/8 11/19/8
f 1/21/41 14/45/41 28/22/41
f 8/20/10 11/19/10 12/23/10
f 13/17/11 12/23/11 16/24/11
f 30/25/42 15/62/42 42/26/42
f 11/19/43 15/35/43 16/24/43
f 28/28/14 14/63/14 41/29/14
f 16/24/15 21/36/15 22/31/15
f 19/32/44 32/53/44 35/33/44
f 15/35/17 20/43/17 21/36/17
f 20/37/18 15/57/18 34/38/18
f 22/31/45 21/36/45 26/40/45
f 19/41/20 24/46/20 25/42/20
f 1/21/41 23/65/41 18/44/41
f 20/43/21 25/42/21 26/40/21
f 18/44/22 23/65/22 24/46/22
f 27/47/23 26/50/23 4/6/23
f 24/48/46 2/9/46 3/4/46
f 25/49/25 3/4/25 4/6/25
f 23/51/47 1/7/47 2/9/47
f 13/17/39 17/1/39 5/3/39
f 31/52/48 32/53/48 36/39/48
f 31/52/28 33/55/28 35/33/28
f 30/54/49 14/56/49 33/55/49
f 18/34/30 35/33/30 33/55/30
f 19/32/50 20/37/50 36/39/50
f 30/54/51 31/52/51 34/38/51
f 37/58/52 38/27/52 42/26/52
f 37/58/34 39/30/34 41/29/34
f 29/60/53 37/58/53 40/59/53
f 11/61/36 40/59/36 42/26/36
f 30/25/54 38/27/54 41/29/54
f 29/60/55 28/28/55 39/30/55
v 1.227011 1.703298 -0.410084
v 1.216085 1.677233 -0.414863
v 1.217663 1.648754 -0.412029
v 1.231321 1.625491 -0.402339
v 1.253401 1.613678 -0.388391
v 1.250540 1.706798 -0.424250
v 1.256839 1.683294 -0.439401
v 1.264721 1.655753 -0.440362
v 1.272075 1.631552 -0.426876
v 1.276930 1.617177 -0.402557
v 1.309808 1.675221 -0.414779
v 1.311121 1.648412 -0.404721
v 1.299473 1.626912 -0.389766
v 1.272097 1.722767 -0.384502
v 1.307835 1.687691 -0.360864
v 1.309413 1.659212 -0.358029
v 1.298487 1.633147 -0.362809
v 1.248568 1.719267 -0.370335
v 1.253423 1.704893 -0.346016
v 1.260777 1.680692 -0.332531
v 1.268659 1.653150 -0.333492
v 1.274958 1.629647 -0.348642
v 1.226025 1.709533 -0.383126
v 1.214377 1.688032 -0.368171
v 1.215690 1.661224 -0.358113
v 1.229613 1.636290 -0.355647
v 1.252414 1.619913 -0.361433
v 1.273083 1.716532 -0.411459
v 1.295885 1.700155 -0.417246
v 1.294177 1.710954 -0.370554
v 1.288331 1.740147 -0.330013
v 1.285006 1.739652 -0.328011
v 1.274953 1.734832 -0.363116
v 1.298846 1.707502 -0.337562
v 1.263306 1.733100 -0.356103
v 1.280781 1.704815 -0.326685
v 1.328637 1.733689 -0.405006
v 1.328232 1.736245 -0.393955
v 1.310035 1.734219 -0.403121
v 1.325712 1.711961 -0.397838
v 1.309849 1.735390 -0.398056
v 1.325526 1.713135 -0.392759
vt 0.274240 0.539347
vt 0.265397 0.539709
vt 0.266768 0.532487
vt 0.231414 0.551290
vt 0.214659 0.541092
vt 0.231357 0.542861
vt 0.231940 0.569242
vt 0.215985 0.562822
vt 0.231472 0.559719
vt 0.230890 0.533338
vt 0.220414 0.530957
vt 0.213134 0.552274
vt 0.289666 0.544440
vt 0.282983 0.540904
vt 0.290637 0.536818
vt 0.279682 0.529141
vt 0.275518 0.536619
vt 0.273707 0.532162
vt 0.280945 0.538772
vt 0.286431 0.530872
vt 0.290637 0.551375
vt 0.284312 0.543753
vt 0.278488 0.537315
vt 0.276318 0.541045
vt 0.804698 0.251197
vt 0.792375 0.255919
vt 0.792638 0.252041
vt 0.786357 0.239035
vt 0.792578 0.249274
vt 0.791489 0.249454
vt 0.271776 0.541127
vt 0.760733 0.199751
vt 0.757502 0.209505
vt 0.750621 0.206121
vt 0.278108 0.542645
vt 0.273009 0.544115
vt 0.772804 0.201934
vt 0.766718 0.213101
vt 0.766203 0.208706
vt 0.264007 0.548518
vt 0.277612 0.547903
vt 0.268747 0.555467
vt 0.275021 0.546378
vt 0.280714 0.548498
vt 0.281954 0.545638
vt 0.276612 0.557409
vt 0.240880 0.530957
vt 0.248168 0.561486
vt 0.249693 0.550306
vt 0.246843 0.539760
vt 0.242415 0.571620
vt 0.762287 0.211045
vt 0.762255 0.210544
vt 0.761023 0.221925
vt 0.757316 0.212491
vt 0.750922 0.216572
vt 0.772804 0.220841
vt 0.791613 0.252007
vt 0.791097 0.255536
vt 0.780068 0.250772
vt 0.780487 0.263708
vt 0.804698 0.264828
vt 0.798786 0.238814
vt 0.221949 0.571626
vt 0.283377 0.553479
vn 0.2751 -0.9344 0.2262
vn -0.3757 -0.5356 -0.7563
vn -0.5199 0.3600 -0.7746
vn -0.1597 -0.8634 -0.4785
vn -0.5001 -0.1132 -0.8585
vn 0.2063 0.5686 -0.7963
vn 0.5666 -0.6548 -0.5002
vn 0.4358 0.1556 -0.8865
vn -0.2751 0.9344 -0.2262
vn 0.5602 -0.2668 -0.7842
vn 0.9064 -0.4031 0.1264
vn 0.5790 -0.0256 0.8149
vn 0.9981 0.0576 0.0232
vn -0.3799 0.8981 -0.2216
vn 0.5199 -0.3600 0.7746
vn -0.8027 0.4293 0.4140
vn 0.5001 0.1132 0.8585
vn 0.4857 -0.5645 0.6674
vn -0.2063 -0.5686 0.7963
vn -0.5602 0.2668 0.7842
vn -0.2752 0.9344 -0.2262
vn -0.4358 -0.1557 0.8865
vn -0.5666 0.6548 0.5002
vn -0.5461 -0.8203 0.1698
vn -0.9981 -0.0576 -0.0232
vn -0.8737 -0.4800 0.0791
vn -0.9064 0.4031 -0.1264
vn 0.2752 -0.9344 0.2262
vn 0.5189 -0.0304 0.8543
vn -0.1930 0.9780 -0.0791
vn 0.6629 0.6496 -0.3722
vn -0.3744 0.8281 -0.4172
vn -0.5740 0.1005 0.8127
vn 0.8730 0.4821 -0.0731
vn 0.9917 -0.1128 0.0624
vn 0.0049 0.9743 -0.2251
vn 0.4834 0.1853 -0.8556
vn 0.8850 -0.4455 0.1354
vn -0.0145 0.7516 0.6595
vn -0.0804 0.4101 -0.9085
vn 0.4358 0.1557 -0.8865
vn 0.4541 0.5565 0.6958
vn -0.7579 0.4383 0.4832
vn 0.5001 0.1132 0.8586
vn 0.4858 -0.5645 0.6673
vn -0.5461 -0.8203 0.1697
vn -0.1930 0.9780 -0.0790
vn 0.6246 0.6416 -0.4453
vn -0.5552 0.2697 0.7868
vn 0.9403 0.3258 -0.0990
vn 0.9916 -0.1129 0.0624
vn 0.0049 0.9743 -0.2252
vn 0.6026 -0.3220 -0.7302
vn 0.8849 -0.4456 0.1354
vn -0.1700 0.7828 0.5986
vn 0.0315 0.3716 -0.9278
s off
f 59/66/56 69/67/56 47/68/56
f 45/69/57 51/70/57 46/71/57
f 43/72/58 49/73/58 44/74/58
f 47/75/59 51/70/59 52/76/59
f 44/74/60 50/77/60 45/69/60
f 48/78/61 71/79/61 49/80/61
f 51/81/62 55/82/62 52/83/62
f 49/80/63 53/84/63 50/85/63
f 43/86/64 70/87/64 48/78/64
f 50/85/65 54/88/65 51/81/65
f 55/82/66 58/89/66 59/66/66
f 72/90/67 84/91/67 80/92/67
f 53/84/68 58/89/68 54/88/68
f 70/93/69 83/94/69 81/95/69
f 58/89/70 64/96/70 59/66/70
f 61/97/71 77/98/71 60/99/71
f 57/100/72 63/101/72 58/89/72
f 62/102/73 76/103/73 78/104/73
f 64/96/74 68/105/74 69/67/74
f 61/106/75 67/107/75 62/108/75
f 43/86/76 60/109/76 56/110/76
f 62/108/77 68/105/77 63/101/77
f 60/109/78 66/111/78 61/106/78
f 69/112/79 46/71/79 47/75/79
f 66/113/80 45/69/80 67/114/80
f 67/114/81 46/71/81 68/115/81
f 65/116/82 44/74/82 66/113/82
f 55/82/83 47/68/83 52/83/83
f 73/117/84 78/104/84 76/103/84
f 73/117/85 77/98/85 74/118/85
f 72/119/86 75/120/86 73/117/86
f 60/99/87 75/120/87 56/121/87
f 61/97/88 78/104/88 74/118/88
f 72/119/89 76/103/89 57/122/89
f 79/123/90 84/91/90 82/124/90
f 79/123/91 83/94/91 80/92/91
f 71/125/92 82/124/92 53/126/92
f 53/126/93 84/91/93 57/127/93
f 72/90/94 83/94/94 56/128/94
f 71/125/95 81/95/95 79/123/95
f 59/66/56 64/96/56 69/67/56
f 45/69/57 50/77/57 51/70/57
f 43/72/58 48/129/58 49/73/58
f 47/75/59 46/71/59 51/70/59
f 44/74/60 49/73/60 50/77/60
f 48/78/61 70/87/61 71/79/61
f 51/81/62 54/88/62 55/82/62
f 49/80/96 71/79/96 53/84/96
f 43/86/76 56/110/76 70/87/76
f 50/85/65 53/84/65 54/88/65
f 55/82/66 54/88/66 58/89/66
f 72/90/97 57/127/97 84/91/97
f 53/84/68 57/100/68 58/89/68
f 70/93/69 56/128/69 83/94/69
f 58/89/70 63/101/70 64/96/70
f 61/97/98 74/118/98 77/98/98
f 57/100/99 62/108/99 63/101/99
f 62/102/100 57/122/100 76/103/100
f 64/96/74 63/101/74 68/105/74
f 61/106/75 66/111/75 67/107/75
f 43/86/64 65/130/64 60/109/64
f 62/108/77 67/107/77 68/105/77
f 60/109/78 65/130/78 66/111/78
f 69/112/101 68/115/101 46/71/101
f 66/113/80 44/74/80 45/69/80
f 67/114/81 45/69/81 46/71/81
f 65/116/82 43/72/82 44/74/82
f 55/82/83 59/66/83 47/68/83
f 73/117/84 74/118/84 78/104/84
f 73/117/102 75/120/102 77/98/102
f 72/119/103 56/121/103 75/120/103
f 60/99/87 77/98/87 75/120/87
f 61/97/104 62/102/104 78/104/104
f 72/119/105 73/117/105 76/103/105
f 79/123/106 80/92/106 84/91/106
f 79/123/107 81/95/107 83/94/107
f 71/125/108 79/123/108 82/124/108
f 53/126/109 82/124/109 84/91/109
f 72/90/110 80/92/110 83/94/110
f 71/125/111 70/93/111 81/95/111
