# Blender v2.81 (sub 16) OBJ File: 'garbage.blend'
# www.blender.org
v -0.151684 2.435431 0.811731
v -0.158406 2.410091 0.800143
v -0.156477 2.381492 0.800160
v -0.146412 2.357298 0.811777
v -0.130910 2.343992 0.831882
v -0.124725 2.440839 0.808479
v -0.111713 2.419457 0.794510
v -0.102560 2.392308 0.793656
v -0.099719 2.366665 0.806144
v -0.103952 2.349399 0.828630
v -0.072200 2.408746 0.836949
v -0.073427 2.380901 0.843637
v -0.088772 2.357618 0.850276
v -0.121323 2.451869 0.855024
v -0.095757 2.414368 0.886746
v -0.093827 2.385770 0.886763
v -0.100550 2.360430 0.875175
v -0.148282 2.446461 0.858276
v -0.152514 2.429195 0.880761
v -0.149673 2.403552 0.893250
v -0.140520 2.376403 0.892395
v -0.127508 2.355021 0.878427
v -0.163462 2.438242 0.836630
v -0.178806 2.414960 0.843268
v -0.180033 2.387114 0.849957
v -0.166813 2.362167 0.854902
v -0.142688 2.346802 0.856780
v -0.109545 2.449058 0.830126
v -0.085421 2.433693 0.832003
v -0.105821 2.438562 0.875129
v -0.128646 2.462420 0.913073
v -0.132456 2.461656 0.913533
v -0.127721 2.461188 0.877009
v -0.114218 2.431048 0.906676
v -0.141065 2.458511 0.878618
v -0.134916 2.426896 0.909173
v -0.061970 2.465666 0.859839
v -0.066798 2.466819 0.870046
v -0.079829 2.465825 0.854283
v -0.066245 2.443193 0.862789
v -0.082042 2.466353 0.858961
v -0.068464 2.443722 0.867481
vt 0.274240 0.539347
vt 0.265397 0.539709
vt 0.266768 0.532487
vt 0.231414 0.551290
vt 0.214659 0.541092
vt 0.231357 0.542861
vt 0.231940 0.569242
vt 0.215985 0.562822
vt 0.231472 0.559719
vt 0.230890 0.533338
vt 0.220414 0.530957
vt 0.213134 0.552274
vt 0.289666 0.544440
vt 0.282983 0.540904
vt 0.290637 0.536818
vt 0.279682 0.529141
vt 0.275518 0.536619
vt 0.273707 0.532162
vt 0.280945 0.538772
vt 0.286431 0.530872
vt 0.290637 0.551375
vt 0.284312 0.543753
vt 0.278488 0.537315
vt 0.276318 0.541045
vt 0.804698 0.251197
vt 0.792375 0.255919
vt 0.792638 0.252041
vt 0.786357 0.239035
vt 0.792578 0.249274
vt 0.791489 0.249454
vt 0.271776 0.541127
vt 0.760733 0.199751
vt 0.757502 0.209505
vt 0.750621 0.206121
vt 0.278108 0.542645
vt 0.273009 0.544115
vt 0.772804 0.201934
vt 0.766718 0.213101
vt 0.766203 0.208706
vt 0.264007 0.548518
vt 0.277612 0.547903
vt 0.268747 0.555467
vt 0.275021 0.546378
vt 0.280714 0.548498
vt 0.281954 0.545638
vt 0.276612 0.557409
vt 0.240880 0.530957
vt 0.248168 0.561486
vt 0.249693 0.550306
vt 0.246843 0.539760
vt 0.242415 0.571620
vt 0.762287 0.211045
vt 0.762255 0.210544
vt 0.761023 0.221925
vt 0.757316 0.212491
vt 0.750922 0.216572
vt 0.772804 0.220841
vt 0.791613 0.252007
vt 0.791097 0.255536
vt 0.780068 0.250772
vt 0.780487 0.263708
vt 0.804698 0.264828
vt 0.798786 0.238814
vt 0.221949 0.571626
vt 0.283377 0.553479
vn 0.2166 -0.9534 0.2101
vn -0.0201 -0.4396 -0.8980
vn -0.1954 0.4503 -0.8712
vn 0.0882 -0.7980 -0.5961
vn -0.1181 -0.0085 -0.9930
vn 0.4688 0.6651 -0.5813
vn 0.7524 -0.5832 -0.3062
vn 0.7379 0.2683 -0.6193
vn -0.2166 0.9534 -0.2101
vn 0.8358 -0.1628 -0.5243
vn 0.8060 -0.4093 0.4275
vn 0.2153 -0.1231 0.9687
vn 0.9049 0.0613 0.4211
vn -0.3126 0.9160 -0.2514
vn 0.1954 -0.4503 0.8712
vn -0.9232 0.3685 0.1092
vn 0.1181 0.0085 0.9930
vn 0.2173 -0.6400 0.7370
vn -0.4688 -0.6651 0.5813
vn -0.8358 0.1628 0.5243
vn -0.7379 -0.2683 0.6193
vn -0.7524 0.5832 0.3062
vn -0.5224 -0.8389 -0.1524
vn -0.9049 -0.0613 -0.4211
vn -0.8070 -0.4923 -0.3262
vn -0.8060 0.4093 -0.4275
vn 0.1450 -0.1333 0.9804
vn -0.2010 0.9788 -0.0386
vn 0.7183 0.6957 -0.0053
vn -0.2273 0.8711 -0.4354
vn -0.8503 -0.0058 0.5262
vn 0.8040 0.4937 0.3316
vn 0.8932 -0.1128 0.4352
vn 0.0382 0.9948 -0.0942
vn 0.7679 0.2941 -0.5691
vn 0.7852 -0.4527 0.4225
vn -0.3127 0.6632 0.6800
vn 0.2580 0.5198 -0.8144
vn 0.0882 -0.7980 -0.5962
vn 0.1147 0.4684 0.8761
vn 0.9049 0.0613 0.4212
vn -0.3126 0.9160 -0.2513
vn -0.9095 0.3692 0.1910
vn 0.2173 -0.6401 0.7370
vn 0.7121 0.6966 -0.0881
vn -0.8324 0.1654 0.5289
vn 0.8846 0.3422 0.3170
vn 0.8932 -0.1128 0.4353
vn 0.0382 0.9948 -0.0943
vn 0.8568 -0.2240 -0.4645
vn -0.4335 0.7006 0.5667
vn 0.3705 0.4849 -0.7922
s off
f 17/1/1 27/2/1 5/3/1
f 3/4/2 9/5/2 4/6/2
f 1/7/3 7/8/3 2/9/3
f 5/10/4 9/5/4 10/11/4
f 2/9/5 8/12/5 3/4/5
f 6/13/6 29/14/6 7/15/6
f 9/16/7 13/17/7 10/18/7
f 7/15/8 11/19/8 8/20/8
f 1/21/9 28/22/9 6/13/9
f 8/20/10 12/23/10 9/16/10
f 13/17/11 16/24/11 17/1/11
f 30/25/12 42/26/12 38/27/12
f 11/19/13 16/24/13 12/23/13
f 28/28/14 41/29/14 39/30/14
f 16/24/15 22/31/15 17/1/15
f 19/32/16 35/33/16 18/34/16
f 15/35/17 21/36/17 16/24/17
f 20/37/18 34/38/18 36/39/18
f 22/31/19 26/40/19 27/2/19
f 19/41/20 25/42/20 20/43/20
f 1/21/9 18/44/9 14/45/9
f 20/43/21 26/40/21 21/36/21
f 18/44/22 24/46/22 19/41/22
f 27/47/23 4/6/23 5/10/23
f 24/48/24 3/4/24 25/49/24
f 25/49/25 4/6/25 26/50/25
f 23/51/26 2/9/26 24/48/26
f 13/17/1 5/3/1 10/18/1
f 31/52/27 36/39/27 34/38/27
f 31/52/28 35/33/28 32/53/28
f 30/54/29 33/55/29 31/52/29
f 18/34/30 33/55/30 14/56/30
f 19/32/31 36/39/31 32/53/31
f 30/54/32 34/38/32 15/57/32
f 37/58/33 42/26/33 40/59/33
f 37/58/34 41/29/34 38/27/34
f 29/60/35 40/59/35 11/61/35
f 11/61/36 42/26/36 15/62/36
f 30/25/37 41/29/37 14/63/37
f 29/60/38 39/30/38 37/58/38
f 17/1/1 22/31/1 27/2/1
f 3/4/2 8/12/2 9/5/2
f 1/7/3 6/64/3 7/8/3
f 5/10/39 4/6/39 9/5/39
f 2/9/5 7/8/5 8/12/5
f 6/13/6 28/22/6 29/14/6
f 9/16/7 12/23/7 13/17/7
f 7/15/8 29/14/8 11/19/8
f 1/21/9 14/45/9 28/22/9
f 8/20/10 11/19/10 12/23/10
f 13/17/11 12/23/11 16/24/11
f 30/25/40 15/62/40 42/26/40
f 11/19/41 15/35/41 16/24/41
f 28/28/42 14/63/42 41/29/42
f 16/24/15 21/36/15 22/31/15
f 19/32/43 32/53/43 35/33/43
f 15/35/17 20/43/17 21/36/17
f 20/37/44 15/57/44 34/38/44
f 22/31/19 21/36/19 26/40/19
f 19/41/20 24/46/20 25/42/20
f 1/21/9 23/65/9 18/44/9
f 20/43/21 25/42/21 26/40/21
f 18/44/22 23/65/22 24/46/22
f 27/47/23 26/50/23 4/6/23
f 24/48/24 2/9/24 3/4/24
f 25/49/25 3/4/25 4/6/25
f 23/51/26 1/7/26 2/9/26
f 13/17/1 17/1/1 5/3/1
f 31/52/27 32/53/27 36/39/27
f 31/52/28 33/55/28 35/33/28
f 30/54/45 14/56/45 33/55/45
f 18/34/30 35/33/30 33/55/30
f 19/32/46 20/37/46 36/39/46
f 30/54/47 31/52/47 34/38/47
f 37/58/48 38/27/48 42/26/48
f 37/58/49 39/30/49 41/29/49
f 29/60/50 37/58/50 40/59/50
f 11/61/36 40/59/36 42/26/36
f 30/25/51 38/27/51 41/29/51
f 29/60/52 28/28/52 39/30/52
v 1.314644 1.337355 -1.413000
v 1.325213 1.317116 -1.395671
v 1.324520 1.290343 -1.385457
v 1.312750 1.264210 -1.385095
v 1.293058 1.245719 -1.394682
v 1.289297 1.344954 -1.404857
v 1.281309 1.330278 -1.381567
v 1.273824 1.305541 -1.369171
v 1.268846 1.277372 -1.370991
v 1.267710 1.253318 -1.386539
v 1.232487 1.307929 -1.405938
v 1.233047 1.279440 -1.402832
v 1.247041 1.254512 -1.404922
v 1.273307 1.339743 -1.449766
v 1.241845 1.295120 -1.458991
v 1.241152 1.268346 -1.448777
v 1.251721 1.248107 -1.431448
v 1.298655 1.332145 -1.457909
v 1.297519 1.308091 -1.473457
v 1.292541 1.279922 -1.475277
v 1.285056 1.255185 -1.462881
v 1.277068 1.240508 -1.439591
v 1.319324 1.330950 -1.439526
v 1.333318 1.306023 -1.441616
v 1.333878 1.277533 -1.438510
v 1.320855 1.253116 -1.431040
v 1.297737 1.239314 -1.421208
v 1.268628 1.346148 -1.423240
v 1.245510 1.332346 -1.413408
v 1.253615 1.321253 -1.459353
v 1.264645 1.329625 -1.507708
v 1.268227 1.328551 -1.508859
v 1.273302 1.340722 -1.474467
v 1.253707 1.303075 -1.487491
v 1.285849 1.336961 -1.478498
v 1.273169 1.297241 -1.493743
v 1.214268 1.354198 -1.443298
v 1.216186 1.351572 -1.454173
v 1.232938 1.355289 -1.443000
v 1.218531 1.331860 -1.439439
v 1.233818 1.354085 -1.447984
v 1.219413 1.330654 -1.444437
vt 0.274240 0.539347
vt 0.265397 0.539709
vt 0.266768 0.532487
vt 0.231414 0.551290
vt 0.214659 0.541092
vt 0.231357 0.542861
vt 0.231940 0.569242
vt 0.215985 0.562822
vt 0.231472 0.559719
vt 0.230890 0.533338
vt 0.220414 0.530957
vt 0.213134 0.552274
vt 0.289666 0.544440
vt 0.282983 0.540904
vt 0.290637 0.536818
vt 0.279682 0.529141
vt 0.275518 0.536619
vt 0.273707 0.532162
vt 0.280945 0.538772
vt 0.286431 0.530872
vt 0.290637 0.551375
vt 0.284312 0.543753
vt 0.278488 0.537315
vt 0.276318 0.541045
vt 0.804698 0.251197
vt 0.792375 0.255919
vt 0.792638 0.252041
vt 0.786357 0.239035
vt 0.792578 0.249274
vt 0.791489 0.249454
vt 0.271776 0.541127
vt 0.760733 0.199751
vt 0.757502 0.209505
vt 0.750621 0.206121
vt 0.278108 0.542645
vt 0.273009 0.544115
vt 0.772804 0.201934
vt 0.766718 0.213101
vt 0.766203 0.208706
vt 0.264007 0.548518
vt 0.277612 0.547903
vt 0.268747 0.555467
vt 0.275021 0.546378
vt 0.280714 0.548498
vt 0.281954 0.545638
vt 0.276612 0.557409
vt 0.240880 0.530957
vt 0.248168 0.561486
vt 0.249693 0.550306
vt 0.246843 0.539760
vt 0.242415 0.571620
vt 0.762287 0.211045
vt 0.762255 0.210544
vt 0.761023 0.221925
vt 0.757316 0.212491
vt 0.750922 0.216572
vt 0.772804 0.220841
vt 0.791613 0.252007
vt 0.791097 0.255536
vt 0.780068 0.250772
vt 0.780487 0.263708
vt 0.804698 0.264828
vt 0.798786 0.238814
vt 0.221949 0.571626
vt 0.283377 0.553479
vn -0.2251 -0.9554 0.1910
vn 0.2739 -0.1101 0.9554
vn 0.3994 0.7076 0.5829
vn 0.1047 -0.5433 0.8330
vn 0.3757 0.3218 0.8691
vn -0.3260 0.8462 0.4215
vn -0.6207 -0.4047 0.6715
vn -0.5591 0.5004 0.6611
vn 0.2251 0.9554 -0.1910
vn -0.6608 0.0685 0.7474
vn -0.8727 -0.4869 -0.0364
vn -0.4577 -0.4322 -0.7770
vn -0.9856 -0.0374 -0.1648
vn 0.3300 0.9292 -0.1662
vn -0.3994 -0.7076 -0.5829
vn 0.8459 0.2607 -0.4652
vn -0.3757 -0.3218 -0.8691
vn -0.3773 -0.8393 -0.3913
vn 0.3260 -0.8462 -0.4215
vn 0.6608 -0.0685 -0.7474
vn 0.5591 -0.5004 -0.6611
vn 0.6207 0.4047 -0.6715
vn 0.5780 -0.7641 0.2865
vn 0.9856 0.0374 0.1648
vn 0.8839 -0.3946 0.2512
vn 0.8727 0.4869 0.0364
vn -0.3925 -0.4494 -0.8025
vn 0.1639 0.9221 -0.3505
vn -0.7194 0.6932 -0.0441
vn 0.2981 0.9538 0.0377
vn 0.6812 -0.2283 -0.6956
vn -0.8824 0.3938 -0.2573
vn -0.9709 -0.2063 -0.1215
vn -0.0527 0.9686 -0.2431
vn -0.6023 0.5093 0.6147
vn -0.8495 -0.5270 -0.0226
vn 0.0951 0.3765 -0.9215
vn -0.0554 0.7776 0.6264
vn -0.3604 0.1496 -0.9207
vn 0.3300 0.9293 -0.1662
vn 0.8112 0.2344 -0.5358
vn 0.1638 0.9221 -0.3505
vn -0.6916 0.7217 0.0287
vn 0.2980 0.9538 0.0377
vn 0.6562 -0.0674 -0.7516
vn -0.9500 0.2608 -0.1716
vn -0.6942 -0.0082 0.7197
vn 0.2399 0.4437 -0.8635
vn -0.1682 0.7431 0.6476
s off
f 59/66/53 69/67/53 47/68/53
f 45/69/54 51/70/54 46/71/54
f 43/72/55 49/73/55 44/74/55
f 47/75/56 51/70/56 52/76/56
f 44/74/57 50/77/57 45/69/57
f 48/78/58 71/79/58 49/80/58
f 51/81/59 55/82/59 52/83/59
f 49/80/60 53/84/60 50/85/60
f 43/86/61 70/87/61 48/78/61
f 50/85/62 54/88/62 51/81/62
f 55/82/63 58/89/63 59/66/63
f 72/90/64 84/91/64 80/92/64
f 53/84/65 58/89/65 54/88/65
f 70/93/66 83/94/66 81/95/66
f 58/89/67 64/96/67 59/66/67
f 61/97/68 77/98/68 60/99/68
f 57/100/69 63/101/69 58/89/69
f 62/102/70 76/103/70 78/104/70
f 64/96/71 68/105/71 69/67/71
f 61/106/72 67/107/72 62/108/72
f 43/86/61 60/109/61 56/110/61
f 62/108/73 68/105/73 63/101/73
f 60/109/74 66/111/74 61/106/74
f 69/112/75 46/71/75 47/75/75
f 66/113/76 45/69/76 67/114/76
f 67/114/77 46/71/77 68/115/77
f 65/116/78 44/74/78 66/113/78
f 55/82/53 47/68/53 52/83/53
f 73/117/79 78/104/79 76/103/79
f 73/117/80 77/98/80 74/118/80
f 72/119/81 75/120/81 73/117/81
f 60/99/82 75/120/82 56/121/82
f 61/97/83 78/104/83 74/118/83
f 72/119/84 76/103/84 57/122/84
f 79/123/85 84/91/85 82/124/85
f 79/123/86 83/94/86 80/92/86
f 71/125/87 82/124/87 53/126/87
f 53/126/88 84/91/88 57/127/88
f 72/90/89 83/94/89 56/128/89
f 71/125/90 81/95/90 79/123/90
f 59/66/53 64/96/53 69/67/53
f 45/69/54 50/77/54 51/70/54
f 43/72/55 48/129/55 49/73/55
f 47/75/56 46/71/56 51/70/56
f 44/74/57 49/73/57 50/77/57
f 48/78/58 70/87/58 71/79/58
f 51/81/59 54/88/59 55/82/59
f 49/80/60 71/79/60 53/84/60
f 43/86/61 56/110/61 70/87/61
f 50/85/62 53/84/62 54/88/62
f 55/82/63 54/88/63 58/89/63
f 72/90/91 57/127/91 84/91/91
f 53/84/65 57/100/65 58/89/65
f 70/93/92 56/128/92 83/94/92
f 58/89/67 63/101/67 64/96/67
f 61/97/93 74/118/93 77/98/93
f 57/100/69 62/108/69 63/101/69
f 62/102/70 57/122/70 76/103/70
f 64/96/71 63/101/71 68/105/71
f 61/106/72 66/111/72 67/107/72
f 43/86/61 65/130/61 60/109/61
f 62/108/73 67/107/73 68/105/73
f 60/109/74 65/130/74 66/111/74
f 69/112/75 68/115/75 46/71/75
f 66/113/76 44/74/76 45/69/76
f 67/114/77 45/69/77 46/71/77
f 65/116/78 43/72/78 44/74/78
f 55/82/53 59/66/53 47/68/53
f 73/117/79 74/118/79 78/104/79
f 73/117/94 75/120/94 77/98/94
f 72/119/95 56/121/95 75/120/95
f 60/99/96 77/98/96 75/120/96
f 61/97/97 62/102/97 78/104/97
f 72/119/98 73/117/98 76/103/98
f 79/123/85 80/92/85 84/91/85
f 79/123/86 81/95/86 83/94/86
f 71/125/99 79/123/99 82/124/99
f 53/126/88 82/124/88 84/91/88
f 72/90/100 80/92/100 83/94/100
f 71/125/101 70/93/101 81/95/101
