# Blender v2.81 (sub 16) OBJ File: 'garbage.blend'
# www.blender.org
v 1.969808 2.157737 -0.671487
v 1.978847 2.139947 -0.650910
v 1.978505 2.114097 -0.638530
v 1.968875 2.087113 -0.637665
v 1.952537 2.066226 -0.648546
v 1.942950 2.163620 -0.668239
v 1.932326 2.150137 -0.645284
v 1.924787 2.125864 -0.632033
v 1.922354 2.097304 -0.632039
v 1.925678 2.072110 -0.645298
v 1.890123 2.121633 -0.675007
v 1.892334 2.093640 -0.669255
v 1.908346 2.069994 -0.666785
v 1.935144 2.153506 -0.714461
v 1.909176 2.105635 -0.724477
v 1.908834 2.079785 -0.712097
v 1.917872 2.061995 -0.691520
v 1.962003 2.147622 -0.717709
v 1.965327 2.122428 -0.730969
v 1.962893 2.093868 -0.730974
v 1.955355 2.069594 -0.717723
v 1.944731 2.056112 -0.694768
v 1.979335 2.149737 -0.696222
v 1.995347 2.126092 -0.693752
v 1.997558 2.098099 -0.688000
v 1.985375 2.073258 -0.680507
v 1.962063 2.058227 -0.673281
v 1.925617 2.161505 -0.689726
v 1.902305 2.146473 -0.682500
v 1.918806 2.132619 -0.725342
v 1.937095 2.138168 -0.771868
v 1.940891 2.137337 -0.772327
v 1.939195 2.152555 -0.738828
v 1.924994 2.112391 -0.751317
v 1.952490 2.149643 -0.740436
v 1.945616 2.107873 -0.753811
v 1.874924 2.163016 -0.718882
v 1.878829 2.159737 -0.729022
v 1.893142 2.165812 -0.715698
v 1.880178 2.141524 -0.712359
v 1.894932 2.164309 -0.720346
v 1.881973 2.140017 -0.717020
vt 0.274240 0.539347
vt 0.265397 0.539709
vt 0.266768 0.532487
vt 0.231414 0.551290
vt 0.214659 0.541092
vt 0.231357 0.542861
vt 0.231940 0.569242
vt 0.215985 0.562822
vt 0.231472 0.559719
vt 0.230890 0.533338
vt 0.220414 0.530957
vt 0.213134 0.552274
vt 0.289666 0.544440
vt 0.282983 0.540904
vt 0.290637 0.536818
vt 0.279682 0.529141
vt 0.275518 0.536619
vt 0.273707 0.532162
vt 0.280945 0.538772
vt 0.286431 0.530872
vt 0.290637 0.551375
vt 0.284312 0.543753
vt 0.278488 0.537315
vt 0.276318 0.541045
vt 0.804698 0.251197
vt 0.792375 0.255919
vt 0.792638 0.252041
vt 0.786357 0.239035
vt 0.792578 0.249274
vt 0.791489 0.249454
vt 0.271776 0.541127
vt 0.760733 0.199751
vt 0.757502 0.209505
vt 0.750621 0.206121
vt 0.278108 0.542645
vt 0.273009 0.544115
vt 0.772804 0.201934
vt 0.766718 0.213101
vt 0.766203 0.208706
vt 0.264007 0.548518
vt 0.277612 0.547903
vt 0.268747 0.555467
vt 0.275021 0.546378
vt 0.280714 0.548498
vt 0.281954 0.545638
vt 0.276612 0.557409
vt 0.240880 0.530957
vt 0.248168 0.561486
vt 0.249693 0.550306
vt 0.246843 0.539760
vt 0.242415 0.571620
vt 0.762287 0.211045
vt 0.762255 0.210544
vt 0.761023 0.221925
vt 0.757316 0.212491
vt 0.750922 0.216572
vt 0.772804 0.220841
vt 0.791613 0.252007
vt 0.791097 0.255536
vt 0.780068 0.250772
vt 0.780487 0.263708
vt 0.804698 0.264828
vt 0.798786 0.238814
vt 0.221949 0.571626
vt 0.283377 0.553479
vn -0.1801 -0.9541 0.2392
vn 0.1179 -0.0102 0.9930
vn 0.2409 0.7841 0.5720
vn 0.0052 -0.4652 0.8852
vn 0.1993 0.4211 0.8848
vn -0.4557 0.8435 0.2845
vn -0.6914 -0.4058 0.5977
vn -0.6984 0.4977 0.5144
vn 0.1801 0.9541 -0.2392
vn -0.7798 0.0663 0.6225
vn -0.8145 -0.5652 -0.1309
vn -0.2868 -0.5310 -0.7974
vn -0.9384 -0.1391 -0.3164
vn 0.2811 0.9395 -0.1956
vn -0.2409 -0.7841 -0.5720
vn 0.8894 0.2992 -0.3456
vn -0.1993 -0.4211 -0.8848
vn -0.2412 -0.8979 -0.3682
vn 0.4557 -0.8435 -0.2845
vn 0.7798 -0.0663 -0.6225
vn 0.6984 -0.4977 -0.5144
vn 0.6914 0.4058 -0.5977
vn 0.5787 -0.6840 0.4441
vn 0.9384 0.1391 0.3164
vn 0.8569 -0.2922 0.4246
vn 0.8145 0.5652 0.1309
vn -0.2172 -0.5441 -0.8104
vn 0.1491 0.9031 -0.4027
vn -0.7528 0.6197 -0.2220
vn 0.2137 0.9769 -0.0026
vn 0.8034 -0.2191 -0.5537
vn -0.8545 0.2912 -0.4303
vn -0.9183 -0.3022 -0.2560
vn -0.0852 0.9379 -0.3362
vn -0.7338 0.4990 0.4611
vn -0.7909 -0.6019 -0.1100
vn 0.2188 0.3107 -0.9250
vn -0.2187 0.8157 0.5355
vn 0.2409 0.7840 0.5720
vn -0.2117 0.0443 -0.9763
vn 0.2810 0.9396 -0.1956
vn 0.8690 0.2644 -0.4181
vn 0.8570 -0.2922 0.4245
vn -0.7399 0.6561 -0.1486
vn 0.7759 -0.0660 -0.6274
vn -0.9251 0.1596 -0.3446
vn -0.9183 -0.3022 -0.2559
vn -0.8022 -0.0150 0.5969
vn 0.3463 0.3950 -0.8509
vn -0.3306 0.7730 0.5415
s off
f 17/1/1 27/2/1 5/3/1
f 3/4/2 9/5/2 4/6/2
f 1/7/3 7/8/3 2/9/3
f 5/10/4 9/5/4 10/11/4
f 2/9/5 8/12/5 3/4/5
f 6/13/6 29/14/6 7/15/6
f 9/16/7 13/17/7 10/18/7
f 7/15/8 11/19/8 8/20/8
f 1/21/9 28/22/9 6/13/9
f 8/20/10 12/23/10 9/16/10
f 13/17/11 16/24/11 17/1/11
f 30/25/12 42/26/12 38/27/12
f 11/19/13 16/24/13 12/23/13
f 28/28/14 41/29/14 39/30/14
f 16/24/15 22/31/15 17/1/15
f 19/32/16 35/33/16 18/34/16
f 15/35/17 21/36/17 16/24/17
f 20/37/18 34/38/18 36/39/18
f 22/31/19 26/40/19 27/2/19
f 19/41/20 25/42/20 20/43/20
f 1/21/9 18/44/9 14/45/9
f 20/43/21 26/40/21 21/36/21
f 18/44/22 24/46/22 19/41/22
f 27/47/23 4/6/23 5/10/23
f 24/48/24 3/4/24 25/49/24
f 25/49/25 4/6/25 26/50/25
f 23/51/26 2/9/26 24/48/26
f 13/17/1 5/3/1 10/18/1
f 31/52/27 36/39/27 34/38/27
f 31/52/28 35/33/28 32/53/28
f 30/54/29 33/55/29 31/52/29
f 18/34/30 33/55/30 14/56/30
f 19/32/31 36/39/31 32/53/31
f 30/54/32 34/38/32 15/57/32
f 37/58/33 42/26/33 40/59/33
f 37/58/34 41/29/34 38/27/34
f 29/60/35 40/59/35 11/61/35
f 11/61/36 42/26/36 15/62/36
f 30/25/37 41/29/37 14/63/37
f 29/60/38 39/30/38 37/58/38
f 17/1/1 22/31/1 27/2/1
f 3/4/2 8/12/2 9/5/2
f 1/7/39 6/64/39 7/8/39
f 5/10/4 4/6/4 9/5/4
f 2/9/5 7/8/5 8/12/5
f 6/13/6 28/22/6 29/14/6
f 9/16/7 12/23/7 13/17/7
f 7/15/8 29/14/8 11/19/8
f 1/21/9 14/45/9 28/22/9
f 8/20/10 11/19/10 12/23/10
f 13/17/11 12/23/11 16/24/11
f 30/25/40 15/62/40 42/26/40
f 11/19/13 15/35/13 16/24/13
f 28/28/41 14/63/41 41/29/41
f 16/24/15 21/36/15 22/31/15
f 19/32/42 32/53/42 35/33/42
f 15/35/17 20/43/17 21/36/17
f 20/37/18 15/57/18 34/38/18
f 22/31/19 21/36/19 26/40/19
f 19/41/20 24/46/20 25/42/20
f 1/21/9 23/65/9 18/44/9
f 20/43/21 25/42/21 26/40/21
f 18/44/22 23/65/22 24/46/22
f 27/47/23 26/50/23 4/6/23
f 24/48/24 2/9/24 3/4/24
f 25/49/43 3/4/43 4/6/43
f 23/51/26 1/7/26 2/9/26
f 13/17/1 17/1/1 5/3/1
f 31/52/27 32/53/27 36/39/27
f 31/52/28 33/55/28 35/33/28
f 30/54/44 14/56/44 33/55/44
f 18/34/30 35/33/30 33/55/30
f 19/32/45 20/37/45 36/39/45
f 30/54/46 31/52/46 34/38/46
f 37/58/47 38/27/47 42/26/47
f 37/58/34 39/30/34 41/29/34
f 29/60/48 37/58/48 40/59/48
f 11/61/36 40/59/36 42/26/36
f 30/25/49 38/27/49 41/29/49
f 29/60/50 28/28/50 39/30/50
v 1.150648 1.590554 -0.407708
v 1.141279 1.564541 -0.415269
v 1.143182 1.535994 -0.413521
v 1.155849 1.512562 -0.402934
v 1.175885 1.500523 -0.386344
v 1.175941 1.595210 -0.417962
v 1.185087 1.572607 -0.433030
v 1.193768 1.545308 -0.434030
v 1.199658 1.520628 -0.420695
v 1.201178 1.505180 -0.396599
v 1.233936 1.564396 -0.401039
v 1.234444 1.537159 -0.392125
v 1.221262 1.514724 -0.380103
v 1.190816 1.609642 -0.374717
v 1.223519 1.574171 -0.347540
v 1.225423 1.545624 -0.345793
v 1.216053 1.519612 -0.353354
v 1.165523 1.604985 -0.364463
v 1.167044 1.589537 -0.340366
v 1.172933 1.564857 -0.327031
v 1.181614 1.537558 -0.328032
v 1.190761 1.514955 -0.343099
v 1.145439 1.595441 -0.380958
v 1.132257 1.573006 -0.368937
v 1.132765 1.545769 -0.360022
v 1.146828 1.521027 -0.356603
v 1.170676 1.505411 -0.359595
v 1.196025 1.604755 -0.401467
v 1.219874 1.589138 -0.404459
v 1.210852 1.597603 -0.358127
v 1.198171 1.624655 -0.317663
v 1.194596 1.623997 -0.316214
v 1.190086 1.620701 -0.352620
v 1.210585 1.592634 -0.325000
v 1.177566 1.618396 -0.347545
v 1.191165 1.589059 -0.317127
v 1.249484 1.622679 -0.385878
v 1.247348 1.624683 -0.374912
v 1.230803 1.622745 -0.386819
v 1.246102 1.600573 -0.380230
v 1.229824 1.623664 -0.381793
v 1.245121 1.601494 -0.375190
vt 0.274240 0.539347
vt 0.265397 0.539709
vt 0.266768 0.532487
vt 0.231414 0.551290
vt 0.214659 0.541092
vt 0.231357 0.542861
vt 0.231940 0.569242
vt 0.215985 0.562822
vt 0.231472 0.559719
vt 0.230890 0.533338
vt 0.220414 0.530957
vt 0.213134 0.552274
vt 0.289666 0.544440
vt 0.282983 0.540904
vt 0.290637 0.536818
vt 0.279682 0.529141
vt 0.275518 0.536619
vt 0.273707 0.532162
vt 0.280945 0.538772
vt 0.286431 0.530872
vt 0.290637 0.551375
vt 0.284312 0.543753
vt 0.278488 0.537315
vt 0.276318 0.541045
vt 0.804698 0.251197
vt 0.792375 0.255919
vt 0.792638 0.252041
vt 0.786357 0.239035
vt 0.792578 0.249274
vt 0.791489 0.249454
vt 0.271776 0.541127
vt 0.760733 0.199751
vt 0.757502 0.209505
vt 0.750621 0.206121
vt 0.278108 0.542645
vt 0.273009 0.544115
vt 0.772804 0.201934
vt 0.766718 0.213101
vt 0.766203 0.208706
vt 0.264007 0.548518
vt 0.277612 0.547903
vt 0.268747 0.555467
vt 0.275021 0.546378
vt 0.280714 0.548498
vt 0.281954 0.545638
vt 0.276612 0.557409
vt 0.240880 0.530957
vt 0.248168 0.561486
vt 0.249693 0.550306
vt 0.246843 0.539760
vt 0.242415 0.571620
vt 0.762287 0.211045
vt 0.762255 0.210544
vt 0.761023 0.221925
vt 0.757316 0.212491
vt 0.750922 0.216572
vt 0.772804 0.220841
vt 0.791613 0.252007
vt 0.791097 0.255536
vt 0.780068 0.250772
vt 0.780487 0.263708
vt 0.804698 0.264828
vt 0.798786 0.238814
vt 0.221949 0.571626
vt 0.283377 0.553479
vn 0.2631 -0.9387 0.2228
vn -0.2427 -0.5053 -0.8281
vn -0.4068 0.3870 -0.8275
vn -0.0622 -0.8420 -0.5359
vn -0.3616 -0.0810 -0.9288
vn 0.3085 0.6109 -0.7291
vn 0.6531 -0.6182 -0.4375
vn 0.5601 0.2075 -0.8020
vn -0.2631 0.9387 -0.2228
vn 0.6791 -0.2169 -0.7013
vn 0.8876 -0.3907 0.2442
vn 0.4500 -0.0539 0.8914
vn 0.9812 0.0763 0.1771
vn -0.3663 0.9001 -0.2358
vn 0.4068 -0.3870 0.8275
vn -0.8673 0.3924 0.3063
vn 0.3616 0.0810 0.9288
vn 0.3947 -0.5867 0.7071
vn -0.3085 -0.6109 0.7291
vn -0.6791 0.2169 0.7013
vn -0.2631 0.9387 -0.2227
vn -0.5601 -0.2075 0.8020
vn -0.6531 0.6182 0.4375
vn -0.5430 -0.8384 0.0474
vn -0.9812 -0.0763 -0.1771
vn -0.8623 -0.5007 -0.0764
vn -0.8875 0.3907 -0.2442
vn 0.3848 -0.0618 0.9209
vn -0.2053 0.9767 -0.0630
vn 0.6936 0.6802 -0.2373
vn -0.3295 0.8399 -0.4312
vn -0.6925 0.0492 0.7198
vn 0.8607 0.5024 0.0823
vn 0.9736 -0.0960 0.2071
vn 0.0124 0.9841 -0.1774
vn 0.6016 0.2365 -0.7629
vn 0.8662 -0.4339 0.2479
vn -0.1342 0.7180 0.6830
vn 0.0464 0.4524 -0.8906
vn 0.2631 -0.9387 0.2227
vn -0.4067 0.3870 -0.8275
vn 0.6531 -0.6181 -0.4375
vn 0.8875 -0.3907 0.2442
vn 0.3287 0.5307 0.7812
vn 0.4067 -0.3870 0.8275
vn -0.8337 0.3990 0.3818
vn -0.8876 0.3907 -0.2442
vn 0.6669 0.6749 -0.3157
vn -0.3295 0.8399 -0.4313
vn -0.6746 0.2198 0.7047
vn 0.9353 0.3489 0.0599
vn 0.7143 -0.2738 -0.6441
vn -0.2795 0.7490 0.6007
vn 0.1609 0.4172 -0.8945
s off
f 59/66/51 69/67/51 47/68/51
f 45/69/52 51/70/52 46/71/52
f 43/72/53 49/73/53 44/74/53
f 47/75/54 51/70/54 52/76/54
f 44/74/55 50/77/55 45/69/55
f 48/78/56 71/79/56 49/80/56
f 51/81/57 55/82/57 52/83/57
f 49/80/58 53/84/58 50/85/58
f 43/86/59 70/87/59 48/78/59
f 50/85/60 54/88/60 51/81/60
f 55/82/61 58/89/61 59/66/61
f 72/90/62 84/91/62 80/92/62
f 53/84/63 58/89/63 54/88/63
f 70/93/64 83/94/64 81/95/64
f 58/89/65 64/96/65 59/66/65
f 61/97/66 77/98/66 60/99/66
f 57/100/67 63/101/67 58/89/67
f 62/102/68 76/103/68 78/104/68
f 64/96/69 68/105/69 69/67/69
f 61/106/70 67/107/70 62/108/70
f 43/86/71 60/109/71 56/110/71
f 62/108/72 68/105/72 63/101/72
f 60/109/73 66/111/73 61/106/73
f 69/112/74 46/71/74 47/75/74
f 66/113/75 45/69/75 67/114/75
f 67/114/76 46/71/76 68/115/76
f 65/116/77 44/74/77 66/113/77
f 55/82/51 47/68/51 52/83/51
f 73/117/78 78/104/78 76/103/78
f 73/117/79 77/98/79 74/118/79
f 72/119/80 75/120/80 73/117/80
f 60/99/81 75/120/81 56/121/81
f 61/97/82 78/104/82 74/118/82
f 72/119/83 76/103/83 57/122/83
f 79/123/84 84/91/84 82/124/84
f 79/123/85 83/94/85 80/92/85
f 71/125/86 82/124/86 53/126/86
f 53/126/87 84/91/87 57/127/87
f 72/90/88 83/94/88 56/128/88
f 71/125/89 81/95/89 79/123/89
f 59/66/90 64/96/90 69/67/90
f 45/69/52 50/77/52 51/70/52
f 43/72/91 48/129/91 49/73/91
f 47/75/54 46/71/54 51/70/54
f 44/74/55 49/73/55 50/77/55
f 48/78/56 70/87/56 71/79/56
f 51/81/92 54/88/92 55/82/92
f 49/80/58 71/79/58 53/84/58
f 43/86/71 56/110/71 70/87/71
f 50/85/60 53/84/60 54/88/60
f 55/82/93 54/88/93 58/89/93
f 72/90/94 57/127/94 84/91/94
f 53/84/63 57/100/63 58/89/63
f 70/93/64 56/128/64 83/94/64
f 58/89/95 63/101/95 64/96/95
f 61/97/96 74/118/96 77/98/96
f 57/100/67 62/108/67 63/101/67
f 62/102/68 57/122/68 76/103/68
f 64/96/69 63/101/69 68/105/69
f 61/106/70 66/111/70 67/107/70
f 43/86/71 65/130/71 60/109/71
f 62/108/72 67/107/72 68/105/72
f 60/109/73 65/130/73 66/111/73
f 69/112/74 68/115/74 46/71/74
f 66/113/75 44/74/75 45/69/75
f 67/114/76 45/69/76 46/71/76
f 65/116/97 43/72/97 44/74/97
f 55/82/90 59/66/90 47/68/90
f 73/117/78 74/118/78 78/104/78
f 73/117/79 75/120/79 77/98/79
f 72/119/98 56/121/98 75/120/98
f 60/99/99 77/98/99 75/120/99
f 61/97/100 62/102/100 78/104/100
f 72/119/101 73/117/101 76/103/101
f 79/123/84 80/92/84 84/91/84
f 79/123/85 81/95/85 83/94/85
f 71/125/102 79/123/102 82/124/102
f 53/126/87 82/124/87 84/91/87
f 72/90/103 80/92/103 83/94/103
f 71/125/104 70/93/104 81/95/104
