# Blender v2.81 (sub 16) OBJ File: 'garbage.blend'
# www.blender.org
v 0.502182 0.629452 -0.204468
v 0.497763 0.616647 -0.190262
v 0.497966 0.598323 -0.183227
v 0.502734 0.579389 -0.185248
v 0.510791 0.564919 -0.195785
v 0.491932 0.625989 -0.220039
v 0.480011 0.610649 -0.217231
v 0.477467 0.591397 -0.214369
v 0.484982 0.573391 -0.212218
v 0.500542 0.561456 -0.211356
v 0.494509 0.589122 -0.248168
v 0.499741 0.571421 -0.241489
v 0.509063 0.560319 -0.228255
v 0.519224 0.627177 -0.238267
v 0.532049 0.593774 -0.250825
v 0.532252 0.575449 -0.243790
v 0.527833 0.562645 -0.229584
v 0.529473 0.630640 -0.222696
v 0.545033 0.618705 -0.221834
v 0.552548 0.600699 -0.219683
v 0.550004 0.581447 -0.216821
v 0.538083 0.566108 -0.214013
v 0.520952 0.631777 -0.205797
v 0.530275 0.620675 -0.192563
v 0.535506 0.602974 -0.185884
v 0.535245 0.583417 -0.187550
v 0.529562 0.567245 -0.197113
v 0.500453 0.624852 -0.236939
v 0.494770 0.608679 -0.246502
v 0.527281 0.612707 -0.248804
v 0.556824 0.629737 -0.253673
v 0.558272 0.630226 -0.251473
v 0.534409 0.632425 -0.243600
v 0.549400 0.607022 -0.250968
v 0.539483 0.634139 -0.235893
v 0.557269 0.609681 -0.239012
v 0.503967 0.619502 -0.276485
v 0.511662 0.620455 -0.277030
v 0.505917 0.624917 -0.265042
v 0.507673 0.606340 -0.268577
v 0.509443 0.625354 -0.265292
v 0.511210 0.606778 -0.268827
vt 0.274240 0.539347
vt 0.265397 0.539709
vt 0.266768 0.532487
vt 0.231414 0.551290
vt 0.214659 0.541092
vt 0.231357 0.542861
vt 0.231940 0.569242
vt 0.215985 0.562822
vt 0.231472 0.559719
vt 0.230890 0.533338
vt 0.220414 0.530957
vt 0.213134 0.552274
vt 0.289666 0.544440
vt 0.282983 0.540904
vt 0.290637 0.536818
vt 0.279682 0.529141
vt 0.275518 0.536619
vt 0.273707 0.532162
vt 0.280945 0.538772
vt 0.286431 0.530872
vt 0.290637 0.551375
vt 0.284312 0.543753
vt 0.278488 0.537315
vt 0.276318 0.541045
vt 0.804698 0.251197
vt 0.792375 0.255919
vt 0.792638 0.252041
vt 0.786357 0.239035
vt 0.792578 0.249274
vt 0.791489 0.249454
vt 0.271776 0.541127
vt 0.760733 0.199751
vt 0.757502 0.209505
vt 0.750621 0.206121
vt 0.278108 0.542645
vt 0.273009 0.544115
vt 0.772804 0.201934
vt 0.766718 0.213101
vt 0.766203 0.208706
vt 0.264007 0.548518
vt 0.277612 0.547903
vt 0.268747 0.555467
vt 0.275021 0.546378
vt 0.280714 0.548498
vt 0.281954 0.545638
vt 0.276612 0.557409
vt 0.240880 0.530957
vt 0.248168 0.561486
vt 0.249693 0.550306
vt 0.246843 0.539760
vt 0.242415 0.571620
vt 0.762287 0.211045
vt 0.762255 0.210544
vt 0.761023 0.221925
vt 0.757316 0.212491
vt 0.750922 0.216572
vt 0.772804 0.220841
vt 0.791613 0.252007
vt 0.791097 0.255536
vt 0.780068 0.250772
vt 0.780487 0.263708
vt 0.804698 0.264828
vt 0.798786 0.238814
vt 0.221949 0.571626
vt 0.283377 0.553479
vn 0.1311 -0.9825 0.1322
vn -0.7799 -0.2573 0.5706
vn -0.7140 0.6159 0.3330
vn -0.5424 -0.6706 0.5061
vn -0.8391 0.1868 0.5108
vn -0.7538 0.5100 -0.4144
vn -0.5822 -0.7764 -0.2413
vn -0.8904 0.0504 -0.4523
vn -0.1311 0.9825 -0.1322
vn -0.8312 -0.3938 -0.3926
vn 0.0460 -0.7491 -0.6609
vn 0.7799 -0.3407 -0.5251
vn -0.0216 -0.3585 -0.9333
vn -0.1244 0.9920 -0.0219
vn 0.7140 -0.6158 -0.3330
vn 0.4888 0.6770 0.5502
vn 0.8391 -0.1868 -0.5108
vn 0.5914 -0.7768 -0.2165
vn 0.7538 -0.5100 0.4144
vn 0.8312 0.3938 0.3926
vn 0.8904 -0.0504 0.4523
vn 0.5822 0.7764 0.2413
vn 0.1256 -0.5373 0.8340
vn 0.0216 0.3585 0.9333
vn 0.0809 -0.0857 0.9930
vn -0.0460 0.7491 0.6609
vn 0.8216 -0.3244 -0.4687
vn 0.0150 0.9739 -0.2265
vn -0.3475 0.3547 -0.8680
vn -0.3254 0.9456 0.0039
vn 0.8459 0.2458 0.4734
vn -0.0748 0.0872 -0.9934
vn 0.0030 -0.5144 -0.8575
vn -0.1406 0.9040 -0.4038
vn -0.8595 0.0547 -0.5082
vn 0.0524 -0.7797 -0.6239
vn 0.7215 0.6225 -0.3031
vn -0.8648 0.4946 -0.0867
vn 0.7176 0.2501 -0.6500
vn -0.1245 0.9920 -0.0219
vn 0.7140 -0.6159 -0.3330
vn 0.5562 0.6600 0.5050
vn -0.4191 0.3703 -0.8290
vn 0.8337 0.3941 0.3868
vn -0.1173 -0.0796 -0.9899
vn -0.7843 -0.4665 -0.4090
vn 0.0524 -0.7797 -0.6240
vn 0.6714 0.7204 -0.1737
vn -0.8929 0.4159 -0.1726
s off
f 17/1/1 27/2/1 5/3/1
f 3/4/2 9/5/2 4/6/2
f 1/7/3 7/8/3 2/9/3
f 5/10/4 9/5/4 10/11/4
f 2/9/5 8/12/5 3/4/5
f 6/13/6 29/14/6 7/15/6
f 9/16/7 13/17/7 10/18/7
f 7/15/8 11/19/8 8/20/8
f 1/21/9 28/22/9 6/13/9
f 8/20/10 12/23/10 9/16/10
f 13/17/11 16/24/11 17/1/11
f 30/25/12 42/26/12 38/27/12
f 11/19/13 16/24/13 12/23/13
f 28/28/14 41/29/14 39/30/14
f 16/24/15 22/31/15 17/1/15
f 19/32/16 35/33/16 18/34/16
f 15/35/17 21/36/17 16/24/17
f 20/37/18 34/38/18 36/39/18
f 22/31/19 26/40/19 27/2/19
f 19/41/20 25/42/20 20/43/20
f 1/21/9 18/44/9 14/45/9
f 20/43/21 26/40/21 21/36/21
f 18/44/22 24/46/22 19/41/22
f 27/47/23 4/6/23 5/10/23
f 24/48/24 3/4/24 25/49/24
f 25/49/25 4/6/25 26/50/25
f 23/51/26 2/9/26 24/48/26
f 13/17/1 5/3/1 10/18/1
f 31/52/27 36/39/27 34/38/27
f 31/52/28 35/33/28 32/53/28
f 30/54/29 33/55/29 31/52/29
f 18/34/30 33/55/30 14/56/30
f 19/32/31 36/39/31 32/53/31
f 30/54/32 34/38/32 15/57/32
f 37/58/33 42/26/33 40/59/33
f 37/58/34 41/29/34 38/27/34
f 29/60/35 40/59/35 11/61/35
f 11/61/36 42/26/36 15/62/36
f 30/25/37 41/29/37 14/63/37
f 29/60/38 39/30/38 37/58/38
f 17/1/1 22/31/1 27/2/1
f 3/4/2 8/12/2 9/5/2
f 1/7/3 6/64/3 7/8/3
f 5/10/4 4/6/4 9/5/4
f 2/9/5 7/8/5 8/12/5
f 6/13/6 28/22/6 29/14/6
f 9/16/7 12/23/7 13/17/7
f 7/15/8 29/14/8 11/19/8
f 1/21/9 14/45/9 28/22/9
f 8/20/10 11/19/10 12/23/10
f 13/17/11 12/23/11 16/24/11
f 30/25/39 15/62/39 42/26/39
f 11/19/13 15/35/13 16/24/13
f 28/28/40 14/63/40 41/29/40
f 16/24/41 21/36/41 22/31/41
f 19/32/42 32/53/42 35/33/42
f 15/35/17 20/43/17 21/36/17
f 20/37/18 15/57/18 34/38/18
f 22/31/19 21/36/19 26/40/19
f 19/41/20 24/46/20 25/42/20
f 1/21/9 23/65/9 18/44/9
f 20/43/21 25/42/21 26/40/21
f 18/44/22 23/65/22 24/46/22
f 27/47/23 26/50/23 4/6/23
f 24/48/24 2/9/24 3/4/24
f 25/49/25 3/4/25 4/6/25
f 23/51/26 1/7/26 2/9/26
f 13/17/1 17/1/1 5/3/1
f 31/52/27 32/53/27 36/39/27
f 31/52/28 33/55/28 35/33/28
f 30/54/43 14/56/43 33/55/43
f 18/34/30 35/33/30 33/55/30
f 19/32/44 20/37/44 36/39/44
f 30/54/45 31/52/45 34/38/45
f 37/58/33 38/27/33 42/26/33
f 37/58/34 39/30/34 41/29/34
f 29/60/46 37/58/46 40/59/46
f 11/61/47 40/59/47 42/26/47
f 30/25/48 38/27/48 41/29/48
f 29/60/49 28/28/49 39/30/49
