# Blender v2.81 (sub 16) OBJ File: 'garbage.blend'
# www.blender.org
v -0.456003 0.558348 0.159027
v -0.456398 0.547134 0.142921
v -0.457212 0.529382 0.134582
v -0.458228 0.509850 0.136245
v -0.459173 0.493770 0.147464
v -0.439793 0.555849 0.168539
v -0.428322 0.542805 0.159397
v -0.424792 0.524384 0.153607
v -0.430151 0.505522 0.152721
v -0.442963 0.491272 0.156976
v -0.425544 0.517738 0.190934
v -0.430803 0.499766 0.185047
v -0.443339 0.487948 0.175639
v -0.456755 0.551701 0.196353
v -0.458716 0.516089 0.209234
v -0.459530 0.498338 0.200896
v -0.459925 0.487124 0.184790
v -0.472965 0.554200 0.186840
v -0.485776 0.539950 0.191095
v -0.491136 0.521087 0.190209
v -0.487606 0.502666 0.184419
v -0.476135 0.489623 0.175277
v -0.472589 0.557523 0.168177
v -0.485125 0.545706 0.158770
v -0.490384 0.527734 0.152883
v -0.486955 0.508422 0.152094
v -0.475759 0.492946 0.156614
v -0.440169 0.552525 0.187202
v -0.428973 0.537049 0.191723
v -0.457700 0.535621 0.207572
v -0.484336 0.547365 0.225986
v -0.486627 0.547718 0.224642
v -0.468806 0.554145 0.207988
v -0.475919 0.526318 0.217953
v -0.476830 0.555382 0.203279
v -0.488365 0.528236 0.210649
v -0.425961 0.544770 0.223848
v -0.432761 0.544432 0.227599
v -0.433228 0.550343 0.214892
v -0.430946 0.531578 0.216731
v -0.436344 0.550188 0.216611
v -0.434072 0.531423 0.218455
vt 0.274240 0.539347
vt 0.265397 0.539709
vt 0.266768 0.532487
vt 0.231414 0.551290
vt 0.214659 0.541092
vt 0.231357 0.542861
vt 0.231940 0.569242
vt 0.215985 0.562822
vt 0.231472 0.559719
vt 0.230890 0.533338
vt 0.220414 0.530957
vt 0.213134 0.552274
vt 0.289666 0.544440
vt 0.282983 0.540904
vt 0.290637 0.536818
vt 0.279682 0.529141
vt 0.275518 0.536619
vt 0.273707 0.532162
vt 0.280945 0.538772
vt 0.286431 0.530872
vt 0.290637 0.551375
vt 0.284312 0.543753
vt 0.278488 0.537315
vt 0.276318 0.541045
vt 0.804698 0.251197
vt 0.792375 0.255919
vt 0.792638 0.252041
vt 0.786357 0.239035
vt 0.792578 0.249274
vt 0.791489 0.249454
vt 0.271776 0.541127
vt 0.760733 0.199751
vt 0.757502 0.209505
vt 0.750621 0.206121
vt 0.278108 0.542645
vt 0.273009 0.544115
vt 0.772804 0.201934
vt 0.766718 0.213101
vt 0.766203 0.208706
vt 0.264007 0.548518
vt 0.277612 0.547903
vt 0.268747 0.555467
vt 0.275021 0.546378
vt 0.280714 0.548498
vt 0.281954 0.545638
vt 0.276612 0.557409
vt 0.240880 0.530957
vt 0.248168 0.561486
vt 0.249693 0.550306
vt 0.246843 0.539760
vt 0.242415 0.571620
vt 0.762287 0.211045
vt 0.762255 0.210544
vt 0.761023 0.221925
vt 0.757316 0.212491
vt 0.750922 0.216572
vt 0.772804 0.220841
vt 0.791613 0.252007
vt 0.791097 0.255536
vt 0.780068 0.250772
vt 0.780487 0.263708
vt 0.804698 0.264828
vt 0.798786 0.238814
vt 0.221949 0.571626
vt 0.283377 0.553479
vn -0.0483 -0.9832 -0.1761
vn 0.4922 -0.0992 -0.8648
vn 0.4220 0.7391 -0.5250
vn 0.3588 -0.5482 -0.7555
vn 0.5140 0.3453 -0.7852
vn 0.7865 0.6051 0.1236
vn 0.7233 -0.6822 -0.1069
vn 0.9837 0.1726 0.0505
vn 0.0483 0.9832 0.1761
vn 0.9619 -0.2719 -0.0290
vn 0.3329 -0.7777 0.5333
vn -0.4352 -0.4880 0.7566
vn 0.4588 -0.3949 0.7960
vn -0.0054 0.9968 0.0799
vn -0.4220 -0.7391 0.5250
vn -0.7571 0.6143 -0.2222
vn -0.5140 -0.3453 0.7852
vn -0.3406 -0.8722 0.3512
vn -0.7865 -0.6051 -0.1236
vn -0.9619 0.2719 0.0290
vn 0.0483 0.9832 0.1760
vn -0.9837 -0.1726 -0.0505
vn -0.7233 0.6822 0.1069
vn -0.3961 -0.5096 -0.7638
vn -0.4588 0.3949 -0.7960
vn -0.4806 -0.0495 -0.8756
vn -0.3329 0.7777 -0.5333
vn -0.0483 -0.9832 -0.1760
vn -0.4986 -0.4759 0.7245
vn -0.0420 0.9464 0.3203
vn 0.6329 0.3641 0.6833
vn 0.1700 0.9850 -0.0309
vn -0.9903 0.1276 -0.0547
vn 0.4750 0.0501 0.8785
vn 0.4245 -0.5489 0.7200
vn 0.1814 0.8942 0.4093
vn 0.9789 0.1691 0.1143
vn 0.3155 -0.8071 0.4991
vn -0.5992 0.4815 0.6397
vn 0.7499 0.6239 -0.2202
vn -0.4019 0.0984 0.9104
vn -0.7964 0.5845 -0.1555
vn 0.6787 0.3930 0.6204
vn -0.9618 0.2716 0.0354
vn 0.5330 -0.1072 0.8393
vn 0.9360 -0.3520 -0.0031
vn -0.6212 0.5924 0.5129
vn 0.8214 0.5467 -0.1628
s off
f 17/1/1 27/2/1 5/3/1
f 3/4/2 9/5/2 4/6/2
f 1/7/3 7/8/3 2/9/3
f 5/10/4 9/5/4 10/11/4
f 2/9/5 8/12/5 3/4/5
f 6/13/6 29/14/6 7/15/6
f 9/16/7 13/17/7 10/18/7
f 7/15/8 11/19/8 8/20/8
f 1/21/9 28/22/9 6/13/9
f 8/20/10 12/23/10 9/16/10
f 13/17/11 16/24/11 17/1/11
f 30/25/12 42/26/12 38/27/12
f 11/19/13 16/24/13 12/23/13
f 28/28/14 41/29/14 39/30/14
f 16/24/15 22/31/15 17/1/15
f 19/32/16 35/33/16 18/34/16
f 15/35/17 21/36/17 16/24/17
f 20/37/18 34/38/18 36/39/18
f 22/31/19 26/40/19 27/2/19
f 19/41/20 25/42/20 20/43/20
f 1/21/21 18/44/21 14/45/21
f 20/43/22 26/40/22 21/36/22
f 18/44/23 24/46/23 19/41/23
f 27/47/24 4/6/24 5/10/24
f 24/48/25 3/4/25 25/49/25
f 25/49/26 4/6/26 26/50/26
f 23/51/27 2/9/27 24/48/27
f 13/17/28 5/3/28 10/18/28
f 31/52/29 36/39/29 34/38/29
f 31/52/30 35/33/30 32/53/30
f 30/54/31 33/55/31 31/52/31
f 18/34/32 33/55/32 14/56/32
f 19/32/33 36/39/33 32/53/33
f 30/54/34 34/38/34 15/57/34
f 37/58/35 42/26/35 40/59/35
f 37/58/36 41/29/36 38/27/36
f 29/60/37 40/59/37 11/61/37
f 11/61/38 42/26/38 15/62/38
f 30/25/39 41/29/39 14/63/39
f 29/60/40 39/30/40 37/58/40
f 17/1/28 22/31/28 27/2/28
f 3/4/2 8/12/2 9/5/2
f 1/7/3 6/64/3 7/8/3
f 5/10/4 4/6/4 9/5/4
f 2/9/5 7/8/5 8/12/5
f 6/13/6 28/22/6 29/14/6
f 9/16/7 12/23/7 13/17/7
f 7/15/8 29/14/8 11/19/8
f 1/21/21 14/45/21 28/22/21
f 8/20/10 11/19/10 12/23/10
f 13/17/11 12/23/11 16/24/11
f 30/25/41 15/62/41 42/26/41
f 11/19/13 15/35/13 16/24/13
f 28/28/14 14/63/14 41/29/14
f 16/24/15 21/36/15 22/31/15
f 19/32/42 32/53/42 35/33/42
f 15/35/17 20/43/17 21/36/17
f 20/37/18 15/57/18 34/38/18
f 22/31/19 21/36/19 26/40/19
f 19/41/20 24/46/20 25/42/20
f 1/21/21 23/65/21 18/44/21
f 20/43/22 25/42/22 26/40/22
f 18/44/23 23/65/23 24/46/23
f 27/47/24 26/50/24 4/6/24
f 24/48/25 2/9/25 3/4/25
f 25/49/26 3/4/26 4/6/26
f 23/51/27 1/7/27 2/9/27
f 13/17/28 17/1/28 5/3/28
f 31/52/29 32/53/29 36/39/29
f 31/52/30 33/55/30 35/33/30
f 30/54/43 14/56/43 33/55/43
f 18/34/32 35/33/32 33/55/32
f 19/32/44 20/37/44 36/39/44
f 30/54/45 31/52/45 34/38/45
f 37/58/35 38/27/35 42/26/35
f 37/58/36 39/30/36 41/29/36
f 29/60/46 37/58/46 40/59/46
f 11/61/38 40/59/38 42/26/38
f 30/25/47 38/27/47 41/29/47
f 29/60/48 28/28/48 39/30/48
