# Blender v2.81 (sub 16) OBJ File: 'garbage.blend'
# www.blender.org
v -0.028976 0.595762 -0.799807
v -0.020117 0.578336 -0.801585
v -0.020363 0.558835 -0.799357
v -0.029647 0.542485 -0.793720
v -0.045482 0.533666 -0.786184
v -0.031145 0.600347 -0.781538
v -0.023874 0.586277 -0.769941
v -0.024701 0.568004 -0.762818
v -0.033404 0.550426 -0.762076
v -0.047651 0.538251 -0.767915
v -0.058433 0.579762 -0.750096
v -0.062617 0.560608 -0.751058
v -0.064517 0.544130 -0.761554
v -0.062708 0.607520 -0.787085
v -0.087828 0.582351 -0.773913
v -0.088074 0.562850 -0.771684
v -0.079215 0.545424 -0.773462
v -0.060539 0.602935 -0.805355
v -0.074787 0.590760 -0.811193
v -0.083490 0.573182 -0.810452
v -0.084317 0.554909 -0.803328
v -0.077046 0.540839 -0.791732
v -0.043673 0.597056 -0.811716
v -0.045573 0.580578 -0.822211
v -0.049757 0.561424 -0.823174
v -0.055103 0.544727 -0.814346
v -0.060179 0.534960 -0.798093
v -0.048011 0.606226 -0.775177
v -0.053087 0.596460 -0.758924
v -0.078544 0.598701 -0.779550
v -0.100211 0.613908 -0.801589
v -0.099905 0.613260 -0.804171
v -0.076345 0.613466 -0.795165
v -0.098182 0.592972 -0.789931
v -0.075271 0.611196 -0.804208
v -0.096517 0.589452 -0.803958
v -0.075461 0.618784 -0.748839
v -0.081487 0.619315 -0.753721
v -0.068900 0.618385 -0.759833
v -0.076682 0.603247 -0.751410
v -0.071662 0.618629 -0.762071
v -0.079451 0.603490 -0.753653
vt 0.274240 0.539347
vt 0.265397 0.539709
vt 0.266768 0.532487
vt 0.231414 0.551290
vt 0.214659 0.541092
vt 0.231357 0.542861
vt 0.231940 0.569242
vt 0.215985 0.562822
vt 0.231472 0.559719
vt 0.230890 0.533338
vt 0.220414 0.530957
vt 0.213134 0.552274
vt 0.289666 0.544440
vt 0.282983 0.540904
vt 0.290637 0.536818
vt 0.279682 0.529141
vt 0.275518 0.536619
vt 0.273707 0.532162
vt 0.280945 0.538772
vt 0.286431 0.530872
vt 0.290637 0.551375
vt 0.284312 0.543753
vt 0.278488 0.537315
vt 0.276318 0.541045
vt 0.804698 0.251197
vt 0.792375 0.255919
vt 0.792638 0.252041
vt 0.786357 0.239035
vt 0.792578 0.249274
vt 0.791489 0.249454
vt 0.271776 0.541127
vt 0.760733 0.199751
vt 0.757502 0.209505
vt 0.750621 0.206121
vt 0.278108 0.542645
vt 0.273009 0.544115
vt 0.772804 0.201934
vt 0.766718 0.213101
vt 0.766203 0.208706
vt 0.264007 0.548518
vt 0.277612 0.547903
vt 0.268747 0.555467
vt 0.275021 0.546378
vt 0.280714 0.548498
vt 0.281954 0.545638
vt 0.276612 0.557409
vt 0.240880 0.530957
vt 0.248168 0.561486
vt 0.249693 0.550306
vt 0.246843 0.539760
vt 0.242415 0.571620
vt 0.762287 0.211045
vt 0.762255 0.210544
vt 0.761023 0.221925
vt 0.757316 0.212491
vt 0.750922 0.216572
vt 0.772804 0.220841
vt 0.791613 0.252007
vt 0.791097 0.255536
vt 0.780068 0.250772
vt 0.780487 0.263708
vt 0.804698 0.264828
vt 0.798786 0.238814
vt 0.221949 0.571626
vt 0.283377 0.553479
vn -0.2513 -0.9454 0.2074
vn 0.8794 -0.4265 0.2114
vn 0.8911 0.4538 -0.0081
vn 0.5620 -0.7840 0.2635
vn 0.9931 0.0009 0.1177
vn 0.4529 0.6947 0.5589
vn 0.1239 -0.5432 0.8304
vn 0.4284 0.3113 0.8483
vn 0.2513 0.9454 -0.2074
vn 0.3148 -0.1161 0.9420
vn -0.6027 -0.3781 0.7027
vn -0.9918 -0.1276 -0.0112
vn -0.6214 0.0967 0.7775
vn 0.3140 0.9043 -0.2892
vn -0.8911 -0.4538 0.0081
vn 0.1084 0.3238 -0.9399
vn -0.9931 -0.0009 -0.1177
vn -0.7649 -0.6403 0.0699
vn -0.4529 -0.6947 -0.5589
vn -0.3148 0.1161 -0.9420
vn -0.4284 -0.3113 -0.8483
vn -0.1239 0.5432 -0.8304
vn 0.2736 -0.8598 -0.4312
vn 0.6214 -0.0967 -0.7775
vn 0.5078 -0.5241 -0.6837
vn 0.6027 0.3781 -0.7027
vn -0.9866 -0.1411 -0.0817
vn 0.0808 0.9690 -0.2335
vn -0.1655 0.7281 0.6651
vn 0.4731 0.8661 -0.1612
vn -0.3126 -0.0530 -0.9484
vn -0.5124 0.5252 0.6794
vn -0.6318 -0.0780 0.7712
vn 0.0789 0.9968 0.0109
vn 0.3724 0.3378 0.8644
vn -0.5928 -0.4223 0.6857
vn -0.5905 0.6377 -0.4946
vn 0.7294 0.5433 0.4156
vn -0.8804 0.4599 -0.1159
vn 0.0257 0.3239 -0.9457
vn 0.0808 0.9690 -0.2336
vn -0.0837 0.7299 0.6784
vn -0.3201 0.1188 -0.9399
vn -0.5164 0.3779 0.7684
vn -0.6317 -0.0780 0.7712
vn 0.2520 -0.1772 0.9514
vn -0.4522 0.6713 -0.5873
vn 0.6817 0.5133 0.5213
s off
f 17/1/1 27/2/1 5/3/1
f 3/4/2 9/5/2 4/6/2
f 1/7/3 7/8/3 2/9/3
f 5/10/4 9/5/4 10/11/4
f 2/9/5 8/12/5 3/4/5
f 6/13/6 29/14/6 7/15/6
f 9/16/7 13/17/7 10/18/7
f 7/15/8 11/19/8 8/20/8
f 1/21/9 28/22/9 6/13/9
f 8/20/10 12/23/10 9/16/10
f 13/17/11 16/24/11 17/1/11
f 30/25/12 42/26/12 38/27/12
f 11/19/13 16/24/13 12/23/13
f 28/28/14 41/29/14 39/30/14
f 16/24/15 22/31/15 17/1/15
f 19/32/16 35/33/16 18/34/16
f 15/35/17 21/36/17 16/24/17
f 20/37/18 34/38/18 36/39/18
f 22/31/19 26/40/19 27/2/19
f 19/41/20 25/42/20 20/43/20
f 1/21/9 18/44/9 14/45/9
f 20/43/21 26/40/21 21/36/21
f 18/44/22 24/46/22 19/41/22
f 27/47/23 4/6/23 5/10/23
f 24/48/24 3/4/24 25/49/24
f 25/49/25 4/6/25 26/50/25
f 23/51/26 2/9/26 24/48/26
f 13/17/1 5/3/1 10/18/1
f 31/52/27 36/39/27 34/38/27
f 31/52/28 35/33/28 32/53/28
f 30/54/29 33/55/29 31/52/29
f 18/34/30 33/55/30 14/56/30
f 19/32/31 36/39/31 32/53/31
f 30/54/32 34/38/32 15/57/32
f 37/58/33 42/26/33 40/59/33
f 37/58/34 41/29/34 38/27/34
f 29/60/35 40/59/35 11/61/35
f 11/61/36 42/26/36 15/62/36
f 30/25/37 41/29/37 14/63/37
f 29/60/38 39/30/38 37/58/38
f 17/1/1 22/31/1 27/2/1
f 3/4/2 8/12/2 9/5/2
f 1/7/3 6/64/3 7/8/3
f 5/10/4 4/6/4 9/5/4
f 2/9/5 7/8/5 8/12/5
f 6/13/6 28/22/6 29/14/6
f 9/16/7 12/23/7 13/17/7
f 7/15/8 29/14/8 11/19/8
f 1/21/9 14/45/9 28/22/9
f 8/20/10 11/19/10 12/23/10
f 13/17/11 12/23/11 16/24/11
f 30/25/39 15/62/39 42/26/39
f 11/19/13 15/35/13 16/24/13
f 28/28/14 14/63/14 41/29/14
f 16/24/15 21/36/15 22/31/15
f 19/32/40 32/53/40 35/33/40
f 15/35/17 20/43/17 21/36/17
f 20/37/18 15/57/18 34/38/18
f 22/31/19 21/36/19 26/40/19
f 19/41/20 24/46/20 25/42/20
f 1/21/9 23/65/9 18/44/9
f 20/43/21 25/42/21 26/40/21
f 18/44/22 23/65/22 24/46/22
f 27/47/23 26/50/23 4/6/23
f 24/48/24 2/9/24 3/4/24
f 25/49/25 3/4/25 4/6/25
f 23/51/26 1/7/26 2/9/26
f 13/17/1 17/1/1 5/3/1
f 31/52/27 32/53/27 36/39/27
f 31/52/41 33/55/41 35/33/41
f 30/54/42 14/56/42 33/55/42
f 18/34/30 35/33/30 33/55/30
f 19/32/43 20/37/43 36/39/43
f 30/54/44 31/52/44 34/38/44
f 37/58/45 38/27/45 42/26/45
f 37/58/34 39/30/34 41/29/34
f 29/60/46 37/58/46 40/59/46
f 11/61/36 40/59/36 42/26/36
f 30/25/47 38/27/47 41/29/47
f 29/60/48 28/28/48 39/30/48
