# Blender v2.81 (sub 16) OBJ File: 'garbage.blend'
# www.blender.org
v -0.182560 0.517720 0.601589
v -0.194690 0.502330 0.600437
v -0.197538 0.482909 0.600212
v -0.190342 0.464663 0.600972
v -0.175029 0.452478 0.602514
v -0.171579 0.518768 0.586168
v -0.175670 0.504146 0.573727
v -0.175576 0.485007 0.569369
v -0.171322 0.466479 0.574261
v -0.164048 0.453527 0.587093
v -0.138089 0.489386 0.573049
v -0.138857 0.470272 0.577448
v -0.145305 0.455717 0.588933
v -0.145073 0.522099 0.605268
v -0.122564 0.491668 0.607571
v -0.125413 0.472248 0.607345
v -0.137542 0.456858 0.606193
v -0.156054 0.521050 0.620690
v -0.148780 0.508098 0.633521
v -0.144526 0.489570 0.638413
v -0.144432 0.470431 0.634055
v -0.148523 0.455809 0.621615
v -0.174798 0.518860 0.618850
v -0.181245 0.504305 0.630334
v -0.182013 0.485191 0.634733
v -0.176897 0.466638 0.630868
v -0.167267 0.453619 0.619775
v -0.152836 0.520958 0.588007
v -0.143205 0.507939 0.576914
v -0.129761 0.509915 0.606811
v -0.117549 0.525319 0.635096
v -0.119100 0.525171 0.637275
v -0.135562 0.527277 0.618280
v -0.118475 0.503230 0.625631
v -0.140997 0.526758 0.625913
v -0.126906 0.502425 0.637472
v -0.114587 0.524721 0.576702
v -0.111405 0.525189 0.583779
v -0.125281 0.527157 0.583319
v -0.117900 0.509836 0.580824
v -0.123823 0.527371 0.586562
v -0.116438 0.510051 0.584076
vt 0.274240 0.539347
vt 0.265397 0.539709
vt 0.266768 0.532487
vt 0.231414 0.551290
vt 0.214659 0.541092
vt 0.231357 0.542861
vt 0.231940 0.569242
vt 0.215985 0.562822
vt 0.231472 0.559719
vt 0.230890 0.533338
vt 0.220414 0.530957
vt 0.213134 0.552274
vt 0.289666 0.544440
vt 0.282983 0.540904
vt 0.290637 0.536818
vt 0.279682 0.529141
vt 0.275518 0.536619
vt 0.273707 0.532162
vt 0.280945 0.538772
vt 0.286431 0.530872
vt 0.290637 0.551375
vt 0.284312 0.543753
vt 0.278488 0.537315
vt 0.276318 0.541045
vt 0.804698 0.251197
vt 0.792375 0.255919
vt 0.792638 0.252041
vt 0.786357 0.239035
vt 0.792578 0.249274
vt 0.791489 0.249454
vt 0.271776 0.541127
vt 0.760733 0.199751
vt 0.757502 0.209505
vt 0.750621 0.206121
vt 0.278108 0.542645
vt 0.273009 0.544115
vt 0.772804 0.201934
vt 0.766718 0.213101
vt 0.766203 0.208706
vt 0.264007 0.548518
vt 0.277612 0.547903
vt 0.268747 0.555467
vt 0.275021 0.546378
vt 0.280714 0.548498
vt 0.281954 0.545638
vt 0.276612 0.557409
vt 0.240880 0.530957
vt 0.248168 0.561486
vt 0.249693 0.550306
vt 0.246843 0.539760
vt 0.242415 0.571620
vt 0.762287 0.211045
vt 0.762255 0.210544
vt 0.761023 0.221925
vt 0.757316 0.212491
vt 0.750922 0.216572
vt 0.772804 0.220841
vt 0.791613 0.252007
vt 0.791097 0.255536
vt 0.780068 0.250772
vt 0.780487 0.263708
vt 0.804698 0.264828
vt 0.798786 0.238814
vt 0.221949 0.571626
vt 0.283377 0.553479
vn 0.1147 -0.9933 0.0141
vn -0.7603 -0.3233 -0.5634
vn -0.6852 0.5736 -0.4489
vn -0.5351 -0.7269 -0.4304
vn -0.8121 0.1257 -0.5698
vn -0.0010 0.6482 -0.7615
vn 0.1491 -0.6524 -0.7431
vn 0.0696 0.2218 -0.9726
vn -0.1147 0.9933 -0.0141
vn 0.1214 -0.2273 -0.9662
vn 0.7593 -0.5757 -0.3034
vn 0.8321 -0.2671 0.4860
vn 0.9076 -0.1285 -0.3997
vn -0.2142 0.9763 0.0318
vn 0.6852 -0.5736 0.4489
vn -0.4458 0.4911 0.7484
vn 0.8121 -0.1257 0.5698
vn 0.5641 -0.7475 0.3508
vn 0.0010 -0.6482 0.7615
vn -0.1214 0.2273 0.9662
vn -0.0696 -0.2218 0.9726
vn -0.1492 0.6524 0.7431
vn -0.6091 -0.7248 0.3218
vn -0.9076 0.1285 0.3997
vn -0.8558 -0.3206 0.4060
vn -0.7593 0.5757 0.3034
vn 0.7934 -0.2676 0.5468
vn 0.0270 0.9958 0.0870
vn 0.5919 0.5725 -0.5673
vn -0.3037 0.9405 -0.1523
vn -0.1613 0.0639 0.9848
vn 0.8581 0.3217 -0.4002
vn 0.8775 -0.2991 -0.3749
vn 0.1434 0.9812 -0.1294
vn 0.1310 0.2367 -0.9627
vn 0.7339 -0.6145 -0.2894
vn 0.4265 0.6194 0.6591
vn -0.3371 0.5653 -0.7528
vn -0.8121 0.1257 -0.5697
vn 0.1492 -0.6524 -0.7431
vn 0.8106 0.3396 0.4771
vn -0.3764 0.4800 0.7924
vn -0.1491 0.6524 0.7431
vn 0.5269 0.5840 -0.6176
vn -0.1153 0.2288 0.9666
vn 0.8706 0.1624 -0.4644
vn 0.8775 -0.2991 -0.3748
vn 0.1434 0.9812 -0.1293
vn 0.1675 -0.2975 -0.9399
vn 0.2717 0.6880 0.6729
vn -0.2546 0.5111 -0.8209
s off
f 17/1/1 27/2/1 5/3/1
f 3/4/2 9/5/2 4/6/2
f 1/7/3 7/8/3 2/9/3
f 5/10/4 9/5/4 10/11/4
f 2/9/5 8/12/5 3/4/5
f 6/13/6 29/14/6 7/15/6
f 9/16/7 13/17/7 10/18/7
f 7/15/8 11/19/8 8/20/8
f 1/21/9 28/22/9 6/13/9
f 8/20/10 12/23/10 9/16/10
f 13/17/11 16/24/11 17/1/11
f 30/25/12 42/26/12 38/27/12
f 11/19/13 16/24/13 12/23/13
f 28/28/14 41/29/14 39/30/14
f 16/24/15 22/31/15 17/1/15
f 19/32/16 35/33/16 18/34/16
f 15/35/17 21/36/17 16/24/17
f 20/37/18 34/38/18 36/39/18
f 22/31/19 26/40/19 27/2/19
f 19/41/20 25/42/20 20/43/20
f 1/21/9 18/44/9 14/45/9
f 20/43/21 26/40/21 21/36/21
f 18/44/22 24/46/22 19/41/22
f 27/47/23 4/6/23 5/10/23
f 24/48/24 3/4/24 25/49/24
f 25/49/25 4/6/25 26/50/25
f 23/51/26 2/9/26 24/48/26
f 13/17/1 5/3/1 10/18/1
f 31/52/27 36/39/27 34/38/27
f 31/52/28 35/33/28 32/53/28
f 30/54/29 33/55/29 31/52/29
f 18/34/30 33/55/30 14/56/30
f 19/32/31 36/39/31 32/53/31
f 30/54/32 34/38/32 15/57/32
f 37/58/33 42/26/33 40/59/33
f 37/58/34 41/29/34 38/27/34
f 29/60/35 40/59/35 11/61/35
f 11/61/36 42/26/36 15/62/36
f 30/25/37 41/29/37 14/63/37
f 29/60/38 39/30/38 37/58/38
f 17/1/1 22/31/1 27/2/1
f 3/4/2 8/12/2 9/5/2
f 1/7/3 6/64/3 7/8/3
f 5/10/4 4/6/4 9/5/4
f 2/9/39 7/8/39 8/12/39
f 6/13/6 28/22/6 29/14/6
f 9/16/40 12/23/40 13/17/40
f 7/15/8 29/14/8 11/19/8
f 1/21/9 14/45/9 28/22/9
f 8/20/10 11/19/10 12/23/10
f 13/17/11 12/23/11 16/24/11
f 30/25/41 15/62/41 42/26/41
f 11/19/13 15/35/13 16/24/13
f 28/28/14 14/63/14 41/29/14
f 16/24/15 21/36/15 22/31/15
f 19/32/42 32/53/42 35/33/42
f 15/35/17 20/43/17 21/36/17
f 20/37/18 15/57/18 34/38/18
f 22/31/19 21/36/19 26/40/19
f 19/41/20 24/46/20 25/42/20
f 1/21/9 23/65/9 18/44/9
f 20/43/21 25/42/21 26/40/21
f 18/44/43 23/65/43 24/46/43
f 27/47/23 26/50/23 4/6/23
f 24/48/24 2/9/24 3/4/24
f 25/49/25 3/4/25 4/6/25
f 23/51/26 1/7/26 2/9/26
f 13/17/1 17/1/1 5/3/1
f 31/52/27 32/53/27 36/39/27
f 31/52/28 33/55/28 35/33/28
f 30/54/44 14/56/44 33/55/44
f 18/34/30 35/33/30 33/55/30
f 19/32/45 20/37/45 36/39/45
f 30/54/46 31/52/46 34/38/46
f 37/58/47 38/27/47 42/26/47
f 37/58/48 39/30/48 41/29/48
f 29/60/49 37/58/49 40/59/49
f 11/61/36 40/59/36 42/26/36
f 30/25/50 38/27/50 41/29/50
f 29/60/51 28/28/51 39/30/51
