# Blender v2.81 (sub 16) OBJ File: 'garbage.blend'
# www.blender.org
v -0.172645 0.644603 -0.731231
v -0.164176 0.627657 -0.736370
v -0.163680 0.608042 -0.735805
v -0.171291 0.591014 -0.729686
v -0.184969 0.581136 -0.719654
v -0.170800 0.647642 -0.712607
v -0.160981 0.632921 -0.704112
v -0.159991 0.614120 -0.698556
v -0.168096 0.596278 -0.697428
v -0.183124 0.584175 -0.701030
v -0.190245 0.623775 -0.677833
v -0.194297 0.604639 -0.679481
v -0.198251 0.589002 -0.690668
v -0.202899 0.654258 -0.710508
v -0.224188 0.627352 -0.694357
v -0.223692 0.607737 -0.693792
v -0.215223 0.590791 -0.698931
v -0.204743 0.651219 -0.729132
v -0.219772 0.639116 -0.732734
v -0.227877 0.621274 -0.731606
v -0.226887 0.602473 -0.726050
v -0.217067 0.587752 -0.717555
v -0.189616 0.646391 -0.739494
v -0.193571 0.630754 -0.750681
v -0.197623 0.611619 -0.752329
v -0.200686 0.594112 -0.743997
v -0.201940 0.582924 -0.727917
v -0.185927 0.652469 -0.702245
v -0.187182 0.641282 -0.686165
v -0.216577 0.644379 -0.700476
v -0.242751 0.660624 -0.715887
v -0.243012 0.660195 -0.718519
v -0.218052 0.660407 -0.714884
v -0.237944 0.638895 -0.706771
v -0.218965 0.658902 -0.724103
v -0.239360 0.636562 -0.721071
v -0.207069 0.662026 -0.669586
v -0.214027 0.662760 -0.672974
v -0.203082 0.662711 -0.681740
v -0.208630 0.646714 -0.673138
v -0.206271 0.663047 -0.683293
v -0.211828 0.647051 -0.674694
vt 0.274240 0.539347
vt 0.265397 0.539709
vt 0.266768 0.532487
vt 0.231414 0.551290
vt 0.214659 0.541092
vt 0.231357 0.542861
vt 0.231940 0.569242
vt 0.215985 0.562822
vt 0.231472 0.559719
vt 0.230890 0.533338
vt 0.220414 0.530957
vt 0.213134 0.552274
vt 0.289666 0.544440
vt 0.282983 0.540904
vt 0.290637 0.536818
vt 0.279682 0.529141
vt 0.275518 0.536619
vt 0.273707 0.532162
vt 0.280945 0.538772
vt 0.286431 0.530872
vt 0.290637 0.551375
vt 0.284312 0.543753
vt 0.278488 0.537315
vt 0.276318 0.541045
vt 0.804698 0.251197
vt 0.792375 0.255919
vt 0.792638 0.252041
vt 0.786357 0.239035
vt 0.792578 0.249274
vt 0.791489 0.249454
vt 0.271776 0.541127
vt 0.760733 0.199751
vt 0.757502 0.209505
vt 0.750621 0.206121
vt 0.278108 0.542645
vt 0.273009 0.544115
vt 0.772804 0.201934
vt 0.766718 0.213101
vt 0.766203 0.208706
vt 0.264007 0.548518
vt 0.277612 0.547903
vt 0.268747 0.555467
vt 0.275021 0.546378
vt 0.280714 0.548498
vt 0.281954 0.545638
vt 0.276612 0.557409
vt 0.240880 0.530957
vt 0.248168 0.561486
vt 0.249693 0.550306
vt 0.246843 0.539760
vt 0.242415 0.571620
vt 0.762287 0.211045
vt 0.762255 0.210544
vt 0.761023 0.221925
vt 0.757316 0.212491
vt 0.750922 0.216572
vt 0.772804 0.220841
vt 0.791613 0.252007
vt 0.791097 0.255536
vt 0.780068 0.250772
vt 0.780487 0.263708
vt 0.804698 0.264828
vt 0.798786 0.238814
vt 0.221949 0.571626
vt 0.283377 0.553479
vn -0.1876 -0.9663 0.1763
vn 0.9097 -0.4147 -0.0224
vn 0.8617 0.4803 -0.1637
vn 0.6160 -0.7849 0.0671
vn 0.9945 0.0222 -0.1021
vn 0.5559 0.6614 0.5035
vn 0.3103 -0.6038 0.7343
vn 0.6005 0.2555 0.7577
vn 0.1876 0.9663 -0.1763
vn 0.5157 -0.1813 0.8374
vn -0.4286 -0.4515 0.7826
vn -0.9682 -0.1569 0.1946
vn -0.4364 0.0149 0.8996
vn 0.2313 0.9338 -0.2729
vn -0.8617 -0.4803 0.1637
vn -0.1050 0.4012 -0.9100
vn -0.9945 -0.0222 0.1021
vn -0.7227 -0.6672 0.1804
vn -0.5559 -0.6614 -0.5035
vn -0.5157 0.1813 -0.8374
vn -0.6005 -0.2555 -0.7577
vn -0.3103 0.6038 -0.7343
vn 0.1829 -0.8137 -0.5518
vn 0.4364 -0.0149 -0.8996
vn 0.3516 -0.4518 -0.8199
vn 0.4286 0.4515 -0.7826
vn -0.9786 -0.1646 0.1238
vn 0.0153 0.9866 -0.1625
vn -0.0244 0.6671 0.7446
vn 0.4152 0.8904 -0.1864
vn -0.5128 0.0134 -0.8584
vn -0.3570 0.4531 0.8169
vn -0.4456 -0.1589 0.8810
vn 0.0669 0.9947 0.0780
vn 0.5491 0.2789 0.7878
vn -0.4221 -0.4939 0.7602
vn -0.6928 0.6567 -0.2979
vn 0.7961 0.5306 0.2910
vn -0.8900 0.4403 0.1183
vn -0.1870 0.3991 -0.8976
vn 0.0584 0.6704 0.7397
vn -0.5205 0.1837 -0.8339
vn -0.3395 0.2990 0.8918
vn 0.0668 0.9947 0.0780
vn 0.4573 -0.2449 0.8549
vn -0.5787 0.7018 -0.4154
vn 0.7732 0.4907 0.4017
s off
f 17/1/1 27/2/1 5/3/1
f 3/4/2 9/5/2 4/6/2
f 1/7/3 7/8/3 2/9/3
f 5/10/4 9/5/4 10/11/4
f 2/9/5 8/12/5 3/4/5
f 6/13/6 29/14/6 7/15/6
f 9/16/7 13/17/7 10/18/7
f 7/15/8 11/19/8 8/20/8
f 1/21/9 28/22/9 6/13/9
f 8/20/10 12/23/10 9/16/10
f 13/17/11 16/24/11 17/1/11
f 30/25/12 42/26/12 38/27/12
f 11/19/13 16/24/13 12/23/13
f 28/28/14 41/29/14 39/30/14
f 16/24/15 22/31/15 17/1/15
f 19/32/16 35/33/16 18/34/16
f 15/35/17 21/36/17 16/24/17
f 20/37/18 34/38/18 36/39/18
f 22/31/19 26/40/19 27/2/19
f 19/41/20 25/42/20 20/43/20
f 1/21/9 18/44/9 14/45/9
f 20/43/21 26/40/21 21/36/21
f 18/44/22 24/46/22 19/41/22
f 27/47/23 4/6/23 5/10/23
f 24/48/24 3/4/24 25/49/24
f 25/49/25 4/6/25 26/50/25
f 23/51/26 2/9/26 24/48/26
f 13/17/1 5/3/1 10/18/1
f 31/52/27 36/39/27 34/38/27
f 31/52/28 35/33/28 32/53/28
f 30/54/29 33/55/29 31/52/29
f 18/34/30 33/55/30 14/56/30
f 19/32/31 36/39/31 32/53/31
f 30/54/32 34/38/32 15/57/32
f 37/58/33 42/26/33 40/59/33
f 37/58/34 41/29/34 38/27/34
f 29/60/35 40/59/35 11/61/35
f 11/61/36 42/26/36 15/62/36
f 30/25/37 41/29/37 14/63/37
f 29/60/38 39/30/38 37/58/38
f 17/1/1 22/31/1 27/2/1
f 3/4/2 8/12/2 9/5/2
f 1/7/3 6/64/3 7/8/3
f 5/10/4 4/6/4 9/5/4
f 2/9/5 7/8/5 8/12/5
f 6/13/6 28/22/6 29/14/6
f 9/16/7 12/23/7 13/17/7
f 7/15/8 29/14/8 11/19/8
f 1/21/9 14/45/9 28/22/9
f 8/20/10 11/19/10 12/23/10
f 13/17/11 12/23/11 16/24/11
f 30/25/39 15/62/39 42/26/39
f 11/19/13 15/35/13 16/24/13
f 28/28/14 14/63/14 41/29/14
f 16/24/15 21/36/15 22/31/15
f 19/32/40 32/53/40 35/33/40
f 15/35/17 20/43/17 21/36/17
f 20/37/18 15/57/18 34/38/18
f 22/31/19 21/36/19 26/40/19
f 19/41/20 24/46/20 25/42/20
f 1/21/9 23/65/9 18/44/9
f 20/43/21 25/42/21 26/40/21
f 18/44/22 23/65/22 24/46/22
f 27/47/23 26/50/23 4/6/23
f 24/48/24 2/9/24 3/4/24
f 25/49/25 3/4/25 4/6/25
f 23/51/26 1/7/26 2/9/26
f 13/17/1 17/1/1 5/3/1
f 31/52/27 32/53/27 36/39/27
f 31/52/28 33/55/28 35/33/28
f 30/54/41 14/56/41 33/55/41
f 18/34/30 35/33/30 33/55/30
f 19/32/42 20/37/42 36/39/42
f 30/54/43 31/52/43 34/38/43
f 37/58/33 38/27/33 42/26/33
f 37/58/44 39/30/44 41/29/44
f 29/60/45 37/58/45 40/59/45
f 11/61/36 40/59/36 42/26/36
f 30/25/46 38/27/46 41/29/46
f 29/60/47 28/28/47 39/30/47
