# Blender v2.81 (sub 16) OBJ File: 'garbage.blend'
# www.blender.org
v 0.463495 0.632260 -0.130790
v 0.459004 0.618952 -0.117078
v 0.459384 0.600428 -0.110597
v 0.464534 0.581650 -0.113084
v 0.473074 0.567651 -0.123873
v 0.453646 0.629099 -0.146680
v 0.441945 0.613476 -0.144600
v 0.439686 0.594105 -0.142377
v 0.447475 0.576174 -0.140606
v 0.463225 0.564489 -0.139763
v 0.457487 0.593160 -0.175846
v 0.462891 0.575356 -0.169592
v 0.472125 0.564017 -0.156497
v 0.481296 0.631316 -0.164260
v 0.494986 0.598539 -0.177536
v 0.495366 0.580014 -0.171055
v 0.490875 0.566706 -0.157342
v 0.491145 0.634477 -0.148370
v 0.506895 0.622793 -0.147526
v 0.514684 0.604862 -0.145756
v 0.512426 0.585490 -0.143532
v 0.500724 0.569868 -0.141452
v 0.482245 0.634950 -0.131635
v 0.491479 0.623611 -0.118541
v 0.496883 0.605807 -0.112286
v 0.497009 0.586308 -0.114547
v 0.491824 0.570340 -0.124717
v 0.462547 0.628626 -0.163415
v 0.457361 0.612658 -0.173586
v 0.489836 0.617316 -0.175049
v 0.519166 0.634995 -0.178751
v 0.520558 0.635442 -0.176506
v 0.496496 0.636986 -0.169097
v 0.512095 0.612084 -0.176897
v 0.501372 0.638551 -0.161231
v 0.519657 0.614511 -0.164696
v 0.467003 0.624550 -0.203018
v 0.474690 0.625653 -0.203365
v 0.468609 0.629646 -0.191377
v 0.470774 0.611218 -0.195431
v 0.472132 0.630151 -0.191535
v 0.474307 0.611725 -0.195591
vt 0.274240 0.539347
vt 0.265397 0.539709
vt 0.266768 0.532487
vt 0.231414 0.551290
vt 0.214659 0.541092
vt 0.231357 0.542861
vt 0.231940 0.569242
vt 0.215985 0.562822
vt 0.231472 0.559719
vt 0.230890 0.533338
vt 0.220414 0.530957
vt 0.213134 0.552274
vt 0.289666 0.544440
vt 0.282983 0.540904
vt 0.290637 0.536818
vt 0.279682 0.529141
vt 0.275518 0.536619
vt 0.273707 0.532162
vt 0.280945 0.538772
vt 0.286431 0.530872
vt 0.290637 0.551375
vt 0.284312 0.543753
vt 0.278488 0.537315
vt 0.276318 0.541045
vt 0.804698 0.251197
vt 0.792375 0.255919
vt 0.792638 0.252041
vt 0.786357 0.239035
vt 0.792578 0.249274
vt 0.791489 0.249454
vt 0.271776 0.541127
vt 0.760733 0.199751
vt 0.757502 0.209505
vt 0.750621 0.206121
vt 0.278108 0.542645
vt 0.273009 0.544115
vt 0.772804 0.201934
vt 0.766718 0.213101
vt 0.766203 0.208706
vt 0.264007 0.548518
vt 0.277612 0.547903
vt 0.268747 0.555467
vt 0.275021 0.546378
vt 0.280714 0.548498
vt 0.281954 0.545638
vt 0.276612 0.557409
vt 0.240880 0.530957
vt 0.248168 0.561486
vt 0.249693 0.550306
vt 0.246843 0.539760
vt 0.242415 0.571620
vt 0.762287 0.211045
vt 0.762255 0.210544
vt 0.761023 0.221925
vt 0.757316 0.212491
vt 0.750922 0.216572
vt 0.772804 0.220841
vt 0.791613 0.252007
vt 0.791097 0.255536
vt 0.780068 0.250772
vt 0.780487 0.263708
vt 0.804698 0.264828
vt 0.798786 0.238814
vt 0.221949 0.571626
vt 0.283377 0.553479
vn 0.1458 -0.9837 0.1053
vn -0.7872 -0.2881 0.5453
vn -0.7319 0.5929 0.3357
vn -0.5410 -0.6950 0.4736
vn -0.8531 0.1566 0.4976
vn -0.7538 0.5093 -0.4153
vn -0.5628 -0.7787 -0.2774
vn -0.8813 0.0488 -0.4701
vn -0.1458 0.9837 -0.1053
vn -0.8153 -0.3959 -0.4225
vn 0.0736 -0.7276 -0.6820
vn 0.7970 -0.3110 -0.5178
vn 0.0048 -0.3301 -0.9439
vn -0.1418 0.9899 0.0053
vn 0.7319 -0.5929 -0.3357
vn 0.4646 0.6682 0.5810
vn 0.8531 -0.1566 -0.4976
vn 0.6097 -0.7595 -0.2268
vn 0.7538 -0.5093 0.4153
vn 0.8153 0.3959 0.4225
vn 0.8813 -0.0488 0.4701
vn 0.5628 0.7787 0.2774
vn 0.1173 -0.5603 0.8199
vn -0.0048 0.3301 0.9439
vn 0.0611 -0.1146 0.9915
vn -0.0736 0.7276 0.6820
vn 0.8372 -0.2956 -0.4601
vn 0.0024 0.9805 -0.1966
vn -0.3352 0.3750 -0.8643
vn -0.3423 0.9392 0.0253
vn 0.8310 0.2458 0.4991
vn -0.0550 0.1163 -0.9917
vn 0.0307 -0.4878 -0.8724
vn -0.1481 0.9133 -0.3793
vn -0.8492 0.0554 -0.5251
vn 0.0798 -0.7592 -0.6459
vn 0.7166 0.6439 -0.2683
vn -0.8715 0.4820 -0.0908
vn 0.7268 0.2823 -0.6262
vn -0.1417 0.9899 0.0054
vn 0.5333 0.6538 0.5368
vn -0.4078 0.3882 -0.8265
vn 0.8180 0.3965 0.4168
vn -0.0946 -0.0513 -0.9942
vn -0.7668 -0.4673 -0.4400
vn 0.6619 0.7369 -0.1371
vn -0.8963 0.4055 -0.1796
s off
f 17/1/1 27/2/1 5/3/1
f 3/4/2 9/5/2 4/6/2
f 1/7/3 7/8/3 2/9/3
f 5/10/4 9/5/4 10/11/4
f 2/9/5 8/12/5 3/4/5
f 6/13/6 29/14/6 7/15/6
f 9/16/7 13/17/7 10/18/7
f 7/15/8 11/19/8 8/20/8
f 1/21/9 28/22/9 6/13/9
f 8/20/10 12/23/10 9/16/10
f 13/17/11 16/24/11 17/1/11
f 30/25/12 42/26/12 38/27/12
f 11/19/13 16/24/13 12/23/13
f 28/28/14 41/29/14 39/30/14
f 16/24/15 22/31/15 17/1/15
f 19/32/16 35/33/16 18/34/16
f 15/35/17 21/36/17 16/24/17
f 20/37/18 34/38/18 36/39/18
f 22/31/19 26/40/19 27/2/19
f 19/41/20 25/42/20 20/43/20
f 1/21/9 18/44/9 14/45/9
f 20/43/21 26/40/21 21/36/21
f 18/44/22 24/46/22 19/41/22
f 27/47/23 4/6/23 5/10/23
f 24/48/24 3/4/24 25/49/24
f 25/49/25 4/6/25 26/50/25
f 23/51/26 2/9/26 24/48/26
f 13/17/1 5/3/1 10/18/1
f 31/52/27 36/39/27 34/38/27
f 31/52/28 35/33/28 32/53/28
f 30/54/29 33/55/29 31/52/29
f 18/34/30 33/55/30 14/56/30
f 19/32/31 36/39/31 32/53/31
f 30/54/32 34/38/32 15/57/32
f 37/58/33 42/26/33 40/59/33
f 37/58/34 41/29/34 38/27/34
f 29/60/35 40/59/35 11/61/35
f 11/61/36 42/26/36 15/62/36
f 30/25/37 41/29/37 14/63/37
f 29/60/38 39/30/38 37/58/38
f 17/1/1 22/31/1 27/2/1
f 3/4/2 8/12/2 9/5/2
f 1/7/3 6/64/3 7/8/3
f 5/10/4 4/6/4 9/5/4
f 2/9/5 7/8/5 8/12/5
f 6/13/6 28/22/6 29/14/6
f 9/16/7 12/23/7 13/17/7
f 7/15/8 29/14/8 11/19/8
f 1/21/9 14/45/9 28/22/9
f 8/20/10 11/19/10 12/23/10
f 13/17/11 12/23/11 16/24/11
f 30/25/39 15/62/39 42/26/39
f 11/19/13 15/35/13 16/24/13
f 28/28/40 14/63/40 41/29/40
f 16/24/15 21/36/15 22/31/15
f 19/32/41 32/53/41 35/33/41
f 15/35/17 20/43/17 21/36/17
f 20/37/18 15/57/18 34/38/18
f 22/31/19 21/36/19 26/40/19
f 19/41/20 24/46/20 25/42/20
f 1/21/9 23/65/9 18/44/9
f 20/43/21 25/42/21 26/40/21
f 18/44/22 23/65/22 24/46/22
f 27/47/23 26/50/23 4/6/23
f 24/48/24 2/9/24 3/4/24
f 25/49/25 3/4/25 4/6/25
f 23/51/26 1/7/26 2/9/26
f 13/17/1 17/1/1 5/3/1
f 31/52/27 32/53/27 36/39/27
f 31/52/28 33/55/28 35/33/28
f 30/54/42 14/56/42 33/55/42
f 18/34/30 35/33/30 33/55/30
f 19/32/43 20/37/43 36/39/43
f 30/54/44 31/52/44 34/38/44
f 37/58/33 38/27/33 42/26/33
f 37/58/34 39/30/34 41/29/34
f 29/60/45 37/58/45 40/59/45
f 11/61/36 40/59/36 42/26/36
f 30/25/46 38/27/46 41/29/46
f 29/60/47 28/28/47 39/30/47
