# Blender v2.81 (sub 16) OBJ File: 'garbage.blend'
# www.blender.org
v -0.295554 0.681169 -0.623641
v -0.288880 0.665496 -0.633393
v -0.287874 0.646019 -0.635618
v -0.292805 0.627958 -0.629720
v -0.302353 0.616152 -0.617280
v -0.287878 0.682060 -0.606327
v -0.275585 0.667039 -0.603404
v -0.272522 0.647801 -0.600990
v -0.279510 0.629501 -0.599731
v -0.294677 0.617043 -0.599965
v -0.294681 0.653085 -0.570674
v -0.298701 0.634077 -0.573477
v -0.305757 0.619684 -0.584808
v -0.317714 0.686452 -0.593325
v -0.332193 0.656585 -0.574987
v -0.331187 0.637108 -0.577212
v -0.324512 0.621435 -0.586964
v -0.325390 0.685561 -0.610640
v -0.340557 0.673102 -0.610874
v -0.347545 0.654802 -0.609616
v -0.344482 0.635564 -0.607201
v -0.332188 0.620543 -0.604278
v -0.314310 0.682919 -0.625797
v -0.321366 0.668527 -0.637128
v -0.325385 0.649519 -0.639931
v -0.325291 0.630989 -0.633455
v -0.321109 0.617902 -0.619436
v -0.298958 0.684702 -0.591169
v -0.294775 0.671615 -0.577150
v -0.327262 0.674646 -0.580885
v -0.357289 0.691031 -0.584930
v -0.358374 0.690905 -0.587377
v -0.333578 0.692167 -0.591829
v -0.349415 0.668691 -0.580767
v -0.337378 0.691726 -0.600399
v -0.355309 0.668007 -0.594061
v -0.308653 0.689002 -0.552537
v -0.316342 0.689720 -0.553421
v -0.308796 0.691374 -0.565124
v -0.310994 0.674160 -0.557409
v -0.312320 0.691703 -0.565529
v -0.314528 0.674489 -0.557815
vt 0.274240 0.539347
vt 0.265397 0.539709
vt 0.266768 0.532487
vt 0.231414 0.551290
vt 0.214659 0.541092
vt 0.231357 0.542861
vt 0.231940 0.569242
vt 0.215985 0.562822
vt 0.231472 0.559719
vt 0.230890 0.533338
vt 0.220414 0.530957
vt 0.213134 0.552274
vt 0.289666 0.544440
vt 0.282983 0.540904
vt 0.290637 0.536818
vt 0.279682 0.529141
vt 0.275518 0.536619
vt 0.273707 0.532162
vt 0.280945 0.538772
vt 0.286431 0.530872
vt 0.290637 0.551375
vt 0.284312 0.543753
vt 0.278488 0.537315
vt 0.276318 0.541045
vt 0.804698 0.251197
vt 0.792375 0.255919
vt 0.792638 0.252041
vt 0.786357 0.239035
vt 0.792578 0.249274
vt 0.791489 0.249454
vt 0.271776 0.541127
vt 0.760733 0.199751
vt 0.757502 0.209505
vt 0.750621 0.206121
vt 0.278108 0.542645
vt 0.273009 0.544115
vt 0.772804 0.201934
vt 0.766718 0.213101
vt 0.766203 0.208706
vt 0.264007 0.548518
vt 0.277612 0.547903
vt 0.268747 0.555467
vt 0.275021 0.546378
vt 0.280714 0.548498
vt 0.281954 0.545638
vt 0.276612 0.557409
vt 0.240880 0.530957
vt 0.248168 0.561486
vt 0.249693 0.550306
vt 0.246843 0.539760
vt 0.242415 0.571620
vt 0.762287 0.211045
vt 0.762255 0.210544
vt 0.761023 0.221925
vt 0.757316 0.212491
vt 0.750922 0.216572
vt 0.772804 0.220841
vt 0.791613 0.252007
vt 0.791097 0.255536
vt 0.780068 0.250772
vt 0.780487 0.263708
vt 0.804698 0.264828
vt 0.798786 0.238814
vt 0.221949 0.571626
vt 0.283377 0.553479
vn -0.1035 -0.9899 0.0969
vn 0.8616 -0.3540 -0.3638
vn 0.7545 0.5470 -0.3627
vn 0.6190 -0.7491 -0.2359
vn 0.9084 0.0935 -0.4075
vn 0.6762 0.6283 0.3848
vn 0.5407 -0.6678 0.5116
vn 0.8074 0.1983 0.5556
vn 0.1035 0.9899 -0.0969
vn 0.7606 -0.2492 0.5994
vn -0.1461 -0.5667 0.8108
vn -0.8513 -0.2365 0.4683
vn -0.1244 -0.1190 0.9851
vn 0.1144 0.9719 -0.2058
vn -0.7545 -0.5470 0.3627
vn -0.3991 0.5003 -0.7684
vn -0.9084 -0.0935 0.4075
vn -0.6142 -0.7259 0.3097
vn -0.6762 -0.6283 -0.3848
vn -0.7606 0.2492 -0.5994
vn 0.1035 0.9899 -0.0968
vn -0.8074 -0.1983 -0.5556
vn -0.5407 0.6678 -0.5116
vn 0.0106 -0.7294 -0.6840
vn 0.1244 0.1190 -0.9851
vn 0.0776 -0.3286 -0.9413
vn 0.1461 0.5667 -0.8108
vn -0.8838 -0.2362 0.4040
vn -0.0556 0.9981 -0.0267
vn 0.2041 0.5705 0.7955
vn 0.3171 0.9295 -0.1884
vn -0.7616 0.0856 -0.6423
vn -0.0837 0.3299 0.9403
vn -0.1360 -0.2895 0.9475
vn 0.0703 0.9804 0.1839
vn 0.7680 0.2147 0.6033
vn -0.1464 -0.6057 0.7821
vn -0.7636 0.6452 0.0263
vn 0.8376 0.5384 0.0919
vn -0.1035 -0.9899 0.0968
vn 0.8616 -0.3540 -0.3637
vn 0.7545 0.5469 -0.3627
vn 0.8074 0.1983 0.5557
vn -0.1461 -0.5667 0.8109
vn -0.8126 0.3691 0.4510
vn -0.4727 0.4919 -0.7311
vn -0.8074 -0.1983 -0.5557
vn 0.1461 0.5667 -0.8109
vn -0.8838 -0.2362 0.4039
vn 0.2808 0.5793 0.7652
vn -0.7641 0.2509 -0.5944
vn -0.0403 0.1693 0.9847
vn 0.7121 -0.3178 0.6260
vn -0.1465 -0.6057 0.7821
vn -0.6941 0.7108 -0.1141
vn 0.8522 0.4843 0.1979
s off
f 17/1/1 27/2/1 5/3/1
f 3/4/2 9/5/2 4/6/2
f 1/7/3 7/8/3 2/9/3
f 5/10/4 9/5/4 10/11/4
f 2/9/5 8/12/5 3/4/5
f 6/13/6 29/14/6 7/15/6
f 9/16/7 13/17/7 10/18/7
f 7/15/8 11/19/8 8/20/8
f 1/21/9 28/22/9 6/13/9
f 8/20/10 12/23/10 9/16/10
f 13/17/11 16/24/11 17/1/11
f 30/25/12 42/26/12 38/27/12
f 11/19/13 16/24/13 12/23/13
f 28/28/14 41/29/14 39/30/14
f 16/24/15 22/31/15 17/1/15
f 19/32/16 35/33/16 18/34/16
f 15/35/17 21/36/17 16/24/17
f 20/37/18 34/38/18 36/39/18
f 22/31/19 26/40/19 27/2/19
f 19/41/20 25/42/20 20/43/20
f 1/21/21 18/44/21 14/45/21
f 20/43/22 26/40/22 21/36/22
f 18/44/23 24/46/23 19/41/23
f 27/47/24 4/6/24 5/10/24
f 24/48/25 3/4/25 25/49/25
f 25/49/26 4/6/26 26/50/26
f 23/51/27 2/9/27 24/48/27
f 13/17/1 5/3/1 10/18/1
f 31/52/28 36/39/28 34/38/28
f 31/52/29 35/33/29 32/53/29
f 30/54/30 33/55/30 31/52/30
f 18/34/31 33/55/31 14/56/31
f 19/32/32 36/39/32 32/53/32
f 30/54/33 34/38/33 15/57/33
f 37/58/34 42/26/34 40/59/34
f 37/58/35 41/29/35 38/27/35
f 29/60/36 40/59/36 11/61/36
f 11/61/37 42/26/37 15/62/37
f 30/25/38 41/29/38 14/63/38
f 29/60/39 39/30/39 37/58/39
f 17/1/40 22/31/40 27/2/40
f 3/4/41 8/12/41 9/5/41
f 1/7/42 6/64/42 7/8/42
f 5/10/4 4/6/4 9/5/4
f 2/9/5 7/8/5 8/12/5
f 6/13/6 28/22/6 29/14/6
f 9/16/7 12/23/7 13/17/7
f 7/15/43 29/14/43 11/19/43
f 1/21/9 14/45/9 28/22/9
f 8/20/10 11/19/10 12/23/10
f 13/17/44 12/23/44 16/24/44
f 30/25/45 15/62/45 42/26/45
f 11/19/13 15/35/13 16/24/13
f 28/28/14 14/63/14 41/29/14
f 16/24/15 21/36/15 22/31/15
f 19/32/46 32/53/46 35/33/46
f 15/35/17 20/43/17 21/36/17
f 20/37/18 15/57/18 34/38/18
f 22/31/19 21/36/19 26/40/19
f 19/41/20 24/46/20 25/42/20
f 1/21/9 23/65/9 18/44/9
f 20/43/47 25/42/47 26/40/47
f 18/44/23 23/65/23 24/46/23
f 27/47/24 26/50/24 4/6/24
f 24/48/25 2/9/25 3/4/25
f 25/49/26 3/4/26 4/6/26
f 23/51/48 1/7/48 2/9/48
f 13/17/1 17/1/1 5/3/1
f 31/52/49 32/53/49 36/39/49
f 31/52/29 33/55/29 35/33/29
f 30/54/50 14/56/50 33/55/50
f 18/34/31 35/33/31 33/55/31
f 19/32/51 20/37/51 36/39/51
f 30/54/52 31/52/52 34/38/52
f 37/58/34 38/27/34 42/26/34
f 37/58/35 39/30/35 41/29/35
f 29/60/53 37/58/53 40/59/53
f 11/61/54 40/59/54 42/26/54
f 30/25/55 38/27/55 41/29/55
f 29/60/56 28/28/56 39/30/56
