# Blender v2.81 (sub 16) OBJ File: 'garbage.blend'
# www.blender.org
v 0.251613 0.613069 0.224722
v 0.246851 0.598173 0.236585
v 0.247876 0.579122 0.241203
v 0.254415 0.561022 0.237340
v 0.264716 0.548721 0.226030
v 0.243359 0.611044 0.207773
v 0.232554 0.594665 0.207228
v 0.231368 0.575071 0.207305
v 0.240119 0.557514 0.207984
v 0.256462 0.546696 0.209081
v 0.251945 0.578618 0.175651
v 0.257938 0.560585 0.180570
v 0.266750 0.548469 0.193253
v 0.272190 0.616615 0.193067
v 0.289029 0.586214 0.177893
v 0.290054 0.567164 0.182512
v 0.285292 0.552268 0.194375
v 0.280444 0.618640 0.210016
v 0.296786 0.607823 0.211113
v 0.305537 0.590265 0.211791
v 0.304351 0.570672 0.211868
v 0.293546 0.554293 0.211324
v 0.270156 0.616867 0.225843
v 0.278967 0.604752 0.238527
v 0.284961 0.586719 0.243446
v 0.286531 0.567601 0.239282
v 0.283258 0.552520 0.227151
v 0.253648 0.612817 0.191945
v 0.250374 0.597736 0.179814
v 0.282490 0.604315 0.181757
v 0.310828 0.623883 0.182489
v 0.311995 0.624169 0.184884
v 0.287346 0.623593 0.190208
v 0.305116 0.600546 0.181415
v 0.291432 0.624596 0.198598
v 0.311453 0.602101 0.194428
v 0.261672 0.613154 0.152698
v 0.269274 0.614711 0.153157
v 0.261962 0.617087 0.164885
v 0.265642 0.599333 0.159233
v 0.265446 0.617800 0.165096
v 0.269136 0.600048 0.159445
vt 0.274240 0.539347
vt 0.265397 0.539709
vt 0.266768 0.532487
vt 0.231414 0.551290
vt 0.214659 0.541092
vt 0.231357 0.542861
vt 0.231940 0.569242
vt 0.215985 0.562822
vt 0.231472 0.559719
vt 0.230890 0.533338
vt 0.220414 0.530957
vt 0.213134 0.552274
vt 0.289666 0.544440
vt 0.282983 0.540904
vt 0.290637 0.536818
vt 0.279682 0.529141
vt 0.275518 0.536619
vt 0.273707 0.532162
vt 0.280945 0.538772
vt 0.286431 0.530872
vt 0.290637 0.551375
vt 0.284312 0.543753
vt 0.278488 0.537315
vt 0.276318 0.541045
vt 0.804698 0.251197
vt 0.792375 0.255919
vt 0.792638 0.252041
vt 0.786357 0.239035
vt 0.792578 0.249274
vt 0.791489 0.249454
vt 0.271776 0.541127
vt 0.760733 0.199751
vt 0.757502 0.209505
vt 0.750621 0.206121
vt 0.278108 0.542645
vt 0.273009 0.544115
vt 0.772804 0.201934
vt 0.766718 0.213101
vt 0.766203 0.208706
vt 0.264007 0.548518
vt 0.277612 0.547903
vt 0.268747 0.555467
vt 0.275021 0.546378
vt 0.280714 0.548498
vt 0.281954 0.545638
vt 0.276612 0.557409
vt 0.240880 0.530957
vt 0.248168 0.561486
vt 0.249693 0.550306
vt 0.246843 0.539760
vt 0.242415 0.571620
vt 0.762287 0.211045
vt 0.762255 0.210544
vt 0.761023 0.221925
vt 0.757316 0.212491
vt 0.750922 0.216572
vt 0.772804 0.220841
vt 0.791613 0.252007
vt 0.791097 0.255536
vt 0.780068 0.250772
vt 0.780487 0.263708
vt 0.804698 0.264828
vt 0.798786 0.238814
vt 0.221949 0.571626
vt 0.283377 0.553479
vn 0.1995 -0.9797 0.0199
vn -0.8101 -0.3867 0.4407
vn -0.7942 0.5131 0.3255
vn -0.5330 -0.7696 0.3515
vn -0.9003 0.0562 0.4317
vn -0.7474 0.5073 -0.4290
vn -0.4862 -0.7754 -0.4029
vn -0.8399 0.0487 -0.5405
vn -0.1995 0.9797 -0.0199
vn -0.7497 -0.3942 -0.5315
vn 0.1774 -0.6472 -0.7414
vn 0.8560 -0.2105 -0.4721
vn 0.1054 -0.2289 -0.9677
vn -0.2051 0.9745 0.0908
vn 0.7942 -0.5131 -0.3255
vn 0.3701 0.6286 0.6840
vn 0.9003 -0.0562 -0.4317
vn 0.6743 -0.6966 -0.2451
vn 0.7474 -0.5073 0.4290
vn 0.7497 0.3942 0.5315
vn 0.8399 -0.0487 0.5405
vn 0.4862 0.7754 0.4029
vn 0.0838 -0.6356 0.7675
vn -0.1054 0.2289 0.9677
vn -0.0152 -0.2140 0.9767
vn -0.1774 0.6472 0.7414
vn 0.8902 -0.1991 -0.4097
vn -0.0442 0.9943 -0.0973
vn -0.2847 0.4441 -0.8495
vn -0.4030 0.9110 0.0874
vn 0.7685 0.2380 0.5939
vn 0.0212 0.2160 -0.9762
vn 0.1353 -0.3915 -0.9102
vn -0.1742 0.9383 -0.2986
vn -0.8039 0.0628 -0.5915
vn 0.1825 -0.6820 -0.7082
vn 0.6937 0.7071 -0.1373
vn -0.8900 0.4398 -0.1207
vn 0.7572 0.3860 -0.5270
vn 0.4431 0.6227 0.6449
vn 0.8902 -0.1990 -0.4097
vn -0.3610 0.4492 -0.8173
vn 0.7528 0.3955 0.5261
vn -0.0072 0.0477 -0.9988
vn -0.6954 -0.4606 -0.5516
vn 0.6223 0.7828 -0.0030
vn -0.9023 0.3717 -0.2186
s off
f 17/1/1 27/2/1 5/3/1
f 3/4/2 9/5/2 4/6/2
f 1/7/3 7/8/3 2/9/3
f 5/10/4 9/5/4 10/11/4
f 2/9/5 8/12/5 3/4/5
f 6/13/6 29/14/6 7/15/6
f 9/16/7 13/17/7 10/18/7
f 7/15/8 11/19/8 8/20/8
f 1/21/9 28/22/9 6/13/9
f 8/20/10 12/23/10 9/16/10
f 13/17/11 16/24/11 17/1/11
f 30/25/12 42/26/12 38/27/12
f 11/19/13 16/24/13 12/23/13
f 28/28/14 41/29/14 39/30/14
f 16/24/15 22/31/15 17/1/15
f 19/32/16 35/33/16 18/34/16
f 15/35/17 21/36/17 16/24/17
f 20/37/18 34/38/18 36/39/18
f 22/31/19 26/40/19 27/2/19
f 19/41/20 25/42/20 20/43/20
f 1/21/9 18/44/9 14/45/9
f 20/43/21 26/40/21 21/36/21
f 18/44/22 24/46/22 19/41/22
f 27/47/23 4/6/23 5/10/23
f 24/48/24 3/4/24 25/49/24
f 25/49/25 4/6/25 26/50/25
f 23/51/26 2/9/26 24/48/26
f 13/17/1 5/3/1 10/18/1
f 31/52/27 36/39/27 34/38/27
f 31/52/28 35/33/28 32/53/28
f 30/54/29 33/55/29 31/52/29
f 18/34/30 33/55/30 14/56/30
f 19/32/31 36/39/31 32/53/31
f 30/54/32 34/38/32 15/57/32
f 37/58/33 42/26/33 40/59/33
f 37/58/34 41/29/34 38/27/34
f 29/60/35 40/59/35 11/61/35
f 11/61/36 42/26/36 15/62/36
f 30/25/37 41/29/37 14/63/37
f 29/60/38 39/30/38 37/58/38
f 17/1/1 22/31/1 27/2/1
f 3/4/2 8/12/2 9/5/2
f 1/7/3 6/64/3 7/8/3
f 5/10/4 4/6/4 9/5/4
f 2/9/5 7/8/5 8/12/5
f 6/13/6 28/22/6 29/14/6
f 9/16/7 12/23/7 13/17/7
f 7/15/8 29/14/8 11/19/8
f 1/21/9 14/45/9 28/22/9
f 8/20/10 11/19/10 12/23/10
f 13/17/11 12/23/11 16/24/11
f 30/25/39 15/62/39 42/26/39
f 11/19/13 15/35/13 16/24/13
f 28/28/14 14/63/14 41/29/14
f 16/24/15 21/36/15 22/31/15
f 19/32/40 32/53/40 35/33/40
f 15/35/17 20/43/17 21/36/17
f 20/37/18 15/57/18 34/38/18
f 22/31/19 21/36/19 26/40/19
f 19/41/20 24/46/20 25/42/20
f 1/21/9 23/65/9 18/44/9
f 20/43/21 25/42/21 26/40/21
f 18/44/22 23/65/22 24/46/22
f 27/47/23 26/50/23 4/6/23
f 24/48/24 2/9/24 3/4/24
f 25/49/25 3/4/25 4/6/25
f 23/51/26 1/7/26 2/9/26
f 13/17/1 17/1/1 5/3/1
f 31/52/41 32/53/41 36/39/41
f 31/52/28 33/55/28 35/33/28
f 30/54/42 14/56/42 33/55/42
f 18/34/30 35/33/30 33/55/30
f 19/32/43 20/37/43 36/39/43
f 30/54/44 31/52/44 34/38/44
f 37/58/33 38/27/33 42/26/33
f 37/58/34 39/30/34 41/29/34
f 29/60/45 37/58/45 40/59/45
f 11/61/36 40/59/36 42/26/36
f 30/25/46 38/27/46 41/29/46
f 29/60/47 28/28/47 39/30/47
