# Blender v2.81 (sub 16) OBJ File: 'garbage.blend'
# www.blender.org
v 0.509136 0.470381 -0.786821
v 0.520858 0.457405 -0.777903
v 0.524172 0.439216 -0.771307
v 0.518190 0.420689 -0.768801
v 0.504516 0.406788 -0.771055
v 0.493934 0.474136 -0.776130
v 0.494527 0.463908 -0.759386
v 0.493768 0.446726 -0.749926
v 0.491860 0.427193 -0.750283
v 0.489314 0.410543 -0.760364
v 0.459076 0.445463 -0.765186
v 0.461816 0.426100 -0.763499
v 0.471968 0.409912 -0.767994
v 0.474444 0.469118 -0.802081
v 0.454788 0.436690 -0.801828
v 0.458102 0.418502 -0.795232
v 0.469824 0.405525 -0.786315
v 0.489646 0.465363 -0.812772
v 0.487101 0.448713 -0.822852
v 0.485192 0.429180 -0.823210
v 0.484433 0.411998 -0.813749
v 0.485026 0.401770 -0.797006
v 0.506992 0.465995 -0.805142
v 0.517145 0.449807 -0.809636
v 0.519884 0.430443 -0.807949
v 0.514477 0.413092 -0.800534
v 0.502372 0.402402 -0.789375
v 0.476588 0.473505 -0.783760
v 0.464483 0.462815 -0.772602
v 0.460770 0.455217 -0.804335
v 0.457271 0.461046 -0.838103
v 0.459419 0.460515 -0.839613
v 0.469196 0.469508 -0.818171
v 0.456023 0.442508 -0.822833
v 0.476721 0.467649 -0.823463
v 0.467695 0.439625 -0.831042
v 0.436609 0.475511 -0.785351
v 0.435730 0.473712 -0.792862
v 0.448723 0.477377 -0.789070
v 0.441538 0.460573 -0.783903
v 0.448321 0.476553 -0.792512
v 0.441134 0.459747 -0.787356
vt 0.274240 0.539347
vt 0.265397 0.539709
vt 0.266768 0.532487
vt 0.231414 0.551290
vt 0.214659 0.541092
vt 0.231357 0.542861
vt 0.231940 0.569242
vt 0.215985 0.562822
vt 0.231472 0.559719
vt 0.230890 0.533338
vt 0.220414 0.530957
vt 0.213134 0.552274
vt 0.289666 0.544440
vt 0.282983 0.540904
vt 0.290637 0.536818
vt 0.279682 0.529141
vt 0.275518 0.536619
vt 0.273707 0.532162
vt 0.280945 0.538772
vt 0.286431 0.530872
vt 0.290637 0.551375
vt 0.284312 0.543753
vt 0.278488 0.537315
vt 0.276318 0.541045
vt 0.804698 0.251197
vt 0.792375 0.255919
vt 0.792638 0.252041
vt 0.786357 0.239035
vt 0.792578 0.249274
vt 0.791489 0.249454
vt 0.271776 0.541127
vt 0.760733 0.199751
vt 0.757502 0.209505
vt 0.750621 0.206121
vt 0.278108 0.542645
vt 0.273009 0.544115
vt 0.772804 0.201934
vt 0.766718 0.213101
vt 0.766203 0.208706
vt 0.264007 0.548518
vt 0.277612 0.547903
vt 0.268747 0.555467
vt 0.275021 0.546378
vt 0.280714 0.548498
vt 0.281954 0.545638
vt 0.276612 0.557409
vt 0.240880 0.530957
vt 0.248168 0.561486
vt 0.249693 0.550306
vt 0.246843 0.539760
vt 0.242415 0.571620
vt 0.762287 0.211045
vt 0.762255 0.210544
vt 0.761023 0.221925
vt 0.757316 0.212491
vt 0.750922 0.216572
vt 0.772804 0.220841
vt 0.791613 0.252007
vt 0.791097 0.255536
vt 0.780068 0.250772
vt 0.780487 0.263708
vt 0.804698 0.264828
vt 0.798786 0.238814
vt 0.221949 0.571626
vt 0.283377 0.553479
vn -0.0703 -0.9682 0.2400
vn 0.5622 -0.0700 0.8240
vn 0.4947 0.7493 0.4402
vn 0.4026 -0.5183 0.7545
vn 0.5940 0.3677 0.7155
vn -0.2545 0.8212 0.5107
vn -0.3466 -0.4464 0.8249
vn -0.3714 0.4604 0.8063
vn 0.0703 0.9682 -0.2400
vn -0.4032 0.0226 0.9148
vn -0.7952 -0.5619 0.2276
vn -0.6337 -0.4833 -0.6040
vn -0.9813 -0.1262 0.1450
vn 0.1797 0.9517 -0.2489
vn -0.4947 -0.7493 -0.4402
vn 0.6361 0.3261 -0.6993
vn -0.5940 -0.3677 -0.7155
vn -0.4034 -0.8755 -0.2662
vn 0.2545 -0.8212 -0.5107
vn 0.4032 -0.0226 -0.9148
vn 0.3714 -0.4604 -0.8063
vn 0.3466 0.4464 -0.8249
vn 0.7031 -0.7057 0.0867
vn 0.9813 0.1262 -0.1450
vn 0.9495 -0.3115 -0.0365
vn 0.7952 0.5619 -0.2276
vn -0.5783 -0.4951 -0.6484
vn -0.0336 0.9271 -0.3734
vn -0.7566 0.6267 0.1866
vn 0.2098 0.9767 -0.0448
vn 0.4526 -0.1792 -0.8735
vn -0.9500 0.3108 0.0302
vn -0.9392 -0.2925 0.1799
vn -0.2100 0.9561 -0.2043
vn -0.4274 0.4646 0.7755
vn -0.7655 -0.5997 0.2332
vn -0.2256 0.3682 -0.9020
vn 0.0708 0.7799 0.6219
vn -0.6370 0.1023 -0.7640
vn 0.5839 0.2957 -0.7561
vn -0.4034 -0.8754 -0.2662
vn -0.0336 0.9270 -0.3734
vn -0.7105 0.6587 0.2477
vn 0.3975 -0.0220 -0.9174
vn -0.9760 0.1737 0.1311
vn -0.4366 -0.0571 0.8978
vn -0.7655 -0.5997 0.2331
vn -0.0765 0.4487 -0.8904
vn -0.0266 0.7361 0.6764
s off
f 17/1/1 27/2/1 5/3/1
f 3/4/2 9/5/2 4/6/2
f 1/7/3 7/8/3 2/9/3
f 5/10/4 9/5/4 10/11/4
f 2/9/5 8/12/5 3/4/5
f 6/13/6 29/14/6 7/15/6
f 9/16/7 13/17/7 10/18/7
f 7/15/8 11/19/8 8/20/8
f 1/21/9 28/22/9 6/13/9
f 8/20/10 12/23/10 9/16/10
f 13/17/11 16/24/11 17/1/11
f 30/25/12 42/26/12 38/27/12
f 11/19/13 16/24/13 12/23/13
f 28/28/14 41/29/14 39/30/14
f 16/24/15 22/31/15 17/1/15
f 19/32/16 35/33/16 18/34/16
f 15/35/17 21/36/17 16/24/17
f 20/37/18 34/38/18 36/39/18
f 22/31/19 26/40/19 27/2/19
f 19/41/20 25/42/20 20/43/20
f 1/21/9 18/44/9 14/45/9
f 20/43/21 26/40/21 21/36/21
f 18/44/22 24/46/22 19/41/22
f 27/47/23 4/6/23 5/10/23
f 24/48/24 3/4/24 25/49/24
f 25/49/25 4/6/25 26/50/25
f 23/51/26 2/9/26 24/48/26
f 13/17/1 5/3/1 10/18/1
f 31/52/27 36/39/27 34/38/27
f 31/52/28 35/33/28 32/53/28
f 30/54/29 33/55/29 31/52/29
f 18/34/30 33/55/30 14/56/30
f 19/32/31 36/39/31 32/53/31
f 30/54/32 34/38/32 15/57/32
f 37/58/33 42/26/33 40/59/33
f 37/58/34 41/29/34 38/27/34
f 29/60/35 40/59/35 11/61/35
f 11/61/36 42/26/36 15/62/36
f 30/25/37 41/29/37 14/63/37
f 29/60/38 39/30/38 37/58/38
f 17/1/1 22/31/1 27/2/1
f 3/4/2 8/12/2 9/5/2
f 1/7/3 6/64/3 7/8/3
f 5/10/4 4/6/4 9/5/4
f 2/9/5 7/8/5 8/12/5
f 6/13/6 28/22/6 29/14/6
f 9/16/7 12/23/7 13/17/7
f 7/15/8 29/14/8 11/19/8
f 1/21/9 14/45/9 28/22/9
f 8/20/10 11/19/10 12/23/10
f 13/17/11 12/23/11 16/24/11
f 30/25/39 15/62/39 42/26/39
f 11/19/13 15/35/13 16/24/13
f 28/28/14 14/63/14 41/29/14
f 16/24/15 21/36/15 22/31/15
f 19/32/40 32/53/40 35/33/40
f 15/35/17 20/43/17 21/36/17
f 20/37/41 15/57/41 34/38/41
f 22/31/19 21/36/19 26/40/19
f 19/41/20 24/46/20 25/42/20
f 1/21/9 23/65/9 18/44/9
f 20/43/21 25/42/21 26/40/21
f 18/44/22 23/65/22 24/46/22
f 27/47/23 26/50/23 4/6/23
f 24/48/24 2/9/24 3/4/24
f 25/49/25 3/4/25 4/6/25
f 23/51/26 1/7/26 2/9/26
f 13/17/1 17/1/1 5/3/1
f 31/52/27 32/53/27 36/39/27
f 31/52/42 33/55/42 35/33/42
f 30/54/43 14/56/43 33/55/43
f 18/34/30 35/33/30 33/55/30
f 19/32/44 20/37/44 36/39/44
f 30/54/45 31/52/45 34/38/45
f 37/58/33 38/27/33 42/26/33
f 37/58/34 39/30/34 41/29/34
f 29/60/46 37/58/46 40/59/46
f 11/61/47 40/59/47 42/26/47
f 30/25/48 38/27/48 41/29/48
f 29/60/49 28/28/49 39/30/49
