# Blender v2.81 (sub 16) OBJ File: 'garbage.blend'
# www.blender.org
v -0.449583 0.538349 0.278822
v -0.453065 0.526551 0.263525
v -0.454931 0.508490 0.256066
v -0.454683 0.489007 0.258442
v -0.452386 0.473321 0.270018
v -0.431564 0.536801 0.284517
v -0.421855 0.523870 0.273389
v -0.418894 0.505395 0.267456
v -0.423474 0.486326 0.268306
v -0.434368 0.471773 0.275713
v -0.411001 0.500084 0.304164
v -0.416638 0.481727 0.300096
v -0.430421 0.469118 0.294067
v -0.441690 0.533039 0.315530
v -0.439145 0.497870 0.329482
v -0.441011 0.479809 0.322023
v -0.444493 0.468011 0.306726
v -0.459708 0.534586 0.309835
v -0.470602 0.520034 0.317242
v -0.475182 0.500965 0.318092
v -0.472220 0.482490 0.312159
v -0.462511 0.469559 0.301031
v -0.463655 0.537242 0.291481
v -0.477438 0.524633 0.285452
v -0.483075 0.506276 0.281384
v -0.479056 0.487089 0.280369
v -0.466458 0.472214 0.282677
v -0.427618 0.534146 0.302871
v -0.415020 0.519271 0.305180
v -0.439393 0.517353 0.327106
v -0.461741 0.528760 0.350705
v -0.464287 0.528978 0.349901
v -0.450936 0.535454 0.329503
v -0.454404 0.507762 0.341560
v -0.459855 0.536220 0.326684
v -0.468239 0.508950 0.337187
v -0.405260 0.528259 0.335587
v -0.411029 0.527805 0.340777
v -0.414582 0.533230 0.328344
v -0.411117 0.514642 0.330131
v -0.417226 0.533022 0.330722
v -0.413769 0.514434 0.332517
vt 0.274240 0.539347
vt 0.265397 0.539709
vt 0.266768 0.532487
vt 0.231414 0.551290
vt 0.214659 0.541092
vt 0.231357 0.542861
vt 0.231940 0.569242
vt 0.215985 0.562822
vt 0.231472 0.559719
vt 0.230890 0.533338
vt 0.220414 0.530957
vt 0.213134 0.552274
vt 0.289666 0.544440
vt 0.282983 0.540904
vt 0.290637 0.536818
vt 0.279682 0.529141
vt 0.275518 0.536619
vt 0.273707 0.532162
vt 0.280945 0.538772
vt 0.286431 0.530872
vt 0.290637 0.551375
vt 0.284312 0.543753
vt 0.278488 0.537315
vt 0.276318 0.541045
vt 0.804698 0.251197
vt 0.792375 0.255919
vt 0.792638 0.252041
vt 0.786357 0.239035
vt 0.792578 0.249274
vt 0.791489 0.249454
vt 0.271776 0.541127
vt 0.760733 0.199751
vt 0.757502 0.209505
vt 0.750621 0.206121
vt 0.278108 0.542645
vt 0.273009 0.544115
vt 0.772804 0.201934
vt 0.766718 0.213101
vt 0.766203 0.208706
vt 0.264007 0.548518
vt 0.277612 0.547903
vt 0.268747 0.555467
vt 0.275021 0.546378
vt 0.280714 0.548498
vt 0.281954 0.545638
vt 0.276612 0.557409
vt 0.240880 0.530957
vt 0.248168 0.561486
vt 0.249693 0.550306
vt 0.246843 0.539760
vt 0.242415 0.571620
vt 0.762287 0.211045
vt 0.762255 0.210544
vt 0.761023 0.221925
vt 0.757316 0.212491
vt 0.750922 0.216572
vt 0.772804 0.220841
vt 0.791613 0.252007
vt 0.791097 0.255536
vt 0.780068 0.250772
vt 0.780487 0.263708
vt 0.804698 0.264828
vt 0.798786 0.238814
vt 0.221949 0.571626
vt 0.283377 0.553479
vn -0.0427 -0.9901 -0.1340
vn 0.2907 -0.1122 -0.9502
vn 0.2610 0.7347 -0.6261
vn 0.2051 -0.5615 -0.8016
vn 0.3100 0.3354 -0.8896
vn 0.7666 0.6380 -0.0726
vn 0.7107 -0.6583 -0.2481
vn 0.9615 0.2107 -0.1763
vn 0.0427 0.9901 0.1340
vn 0.9422 -0.2369 -0.2369
vn 0.4777 -0.7449 0.4658
vn -0.2333 -0.4760 0.8479
vn 0.6419 -0.3485 0.6830
vn -0.0317 0.9981 0.0521
vn -0.2610 -0.7347 0.6261
vn -0.8141 0.5773 -0.0631
vn -0.3100 -0.3354 0.8896
vn -0.2146 -0.8709 0.4422
vn -0.7666 -0.6380 0.0726
vn -0.9422 0.2369 0.2369
vn -0.9615 -0.2107 0.1763
vn -0.7107 0.6583 0.2481
vn -0.5335 -0.5514 -0.6413
vn -0.6419 0.3485 -0.6830
vn -0.6612 -0.0991 -0.7436
vn -0.4777 0.7449 -0.4658
vn -0.3027 -0.4675 0.8306
vn -0.0114 0.9552 0.2958
vn 0.7527 0.4119 0.5136
vn 0.1149 0.9888 -0.0949
vn -0.9822 0.0887 0.1656
vn 0.6564 0.0996 0.7478
vn 0.5984 -0.5062 0.6210
vn 0.2283 0.9146 0.3338
vn 0.9713 0.2094 -0.1130
vn 0.4544 -0.7762 0.4372
vn -0.4620 0.4818 0.7446
vn 0.6534 0.6429 -0.3997
vn 0.7666 0.6380 -0.0725
vn -0.1925 0.1164 0.9744
vn -0.8361 0.5484 0.0115
vn -0.7666 -0.6380 0.0725
vn 0.7819 0.4402 0.4413
vn -0.9407 0.2368 0.2430
vn 0.7111 -0.0568 0.7008
vn 0.5984 -0.5063 0.6209
vn 0.9263 -0.3169 -0.2037
vn 0.4543 -0.7762 0.4372
vn -0.5167 0.5872 0.6231
vn 0.7392 0.5706 -0.3578
s off
f 17/1/1 27/2/1 5/3/1
f 3/4/2 9/5/2 4/6/2
f 1/7/3 7/8/3 2/9/3
f 5/10/4 9/5/4 10/11/4
f 2/9/5 8/12/5 3/4/5
f 6/13/6 29/14/6 7/15/6
f 9/16/7 13/17/7 10/18/7
f 7/15/8 11/19/8 8/20/8
f 1/21/9 28/22/9 6/13/9
f 8/20/10 12/23/10 9/16/10
f 13/17/11 16/24/11 17/1/11
f 30/25/12 42/26/12 38/27/12
f 11/19/13 16/24/13 12/23/13
f 28/28/14 41/29/14 39/30/14
f 16/24/15 22/31/15 17/1/15
f 19/32/16 35/33/16 18/34/16
f 15/35/17 21/36/17 16/24/17
f 20/37/18 34/38/18 36/39/18
f 22/31/19 26/40/19 27/2/19
f 19/41/20 25/42/20 20/43/20
f 1/21/9 18/44/9 14/45/9
f 20/43/21 26/40/21 21/36/21
f 18/44/22 24/46/22 19/41/22
f 27/47/23 4/6/23 5/10/23
f 24/48/24 3/4/24 25/49/24
f 25/49/25 4/6/25 26/50/25
f 23/51/26 2/9/26 24/48/26
f 13/17/1 5/3/1 10/18/1
f 31/52/27 36/39/27 34/38/27
f 31/52/28 35/33/28 32/53/28
f 30/54/29 33/55/29 31/52/29
f 18/34/30 33/55/30 14/56/30
f 19/32/31 36/39/31 32/53/31
f 30/54/32 34/38/32 15/57/32
f 37/58/33 42/26/33 40/59/33
f 37/58/34 41/29/34 38/27/34
f 29/60/35 40/59/35 11/61/35
f 11/61/36 42/26/36 15/62/36
f 30/25/37 41/29/37 14/63/37
f 29/60/38 39/30/38 37/58/38
f 17/1/1 22/31/1 27/2/1
f 3/4/2 8/12/2 9/5/2
f 1/7/3 6/64/3 7/8/3
f 5/10/4 4/6/4 9/5/4
f 2/9/5 7/8/5 8/12/5
f 6/13/39 28/22/39 29/14/39
f 9/16/7 12/23/7 13/17/7
f 7/15/8 29/14/8 11/19/8
f 1/21/9 14/45/9 28/22/9
f 8/20/10 11/19/10 12/23/10
f 13/17/11 12/23/11 16/24/11
f 30/25/40 15/62/40 42/26/40
f 11/19/13 15/35/13 16/24/13
f 28/28/14 14/63/14 41/29/14
f 16/24/15 21/36/15 22/31/15
f 19/32/41 32/53/41 35/33/41
f 15/35/17 20/43/17 21/36/17
f 20/37/18 15/57/18 34/38/18
f 22/31/42 21/36/42 26/40/42
f 19/41/20 24/46/20 25/42/20
f 1/21/9 23/65/9 18/44/9
f 20/43/21 25/42/21 26/40/21
f 18/44/22 23/65/22 24/46/22
f 27/47/23 26/50/23 4/6/23
f 24/48/24 2/9/24 3/4/24
f 25/49/25 3/4/25 4/6/25
f 23/51/26 1/7/26 2/9/26
f 13/17/1 17/1/1 5/3/1
f 31/52/27 32/53/27 36/39/27
f 31/52/28 33/55/28 35/33/28
f 30/54/43 14/56/43 33/55/43
f 18/34/30 35/33/30 33/55/30
f 19/32/44 20/37/44 36/39/44
f 30/54/45 31/52/45 34/38/45
f 37/58/46 38/27/46 42/26/46
f 37/58/34 39/30/34 41/29/34
f 29/60/47 37/58/47 40/59/47
f 11/61/48 40/59/48 42/26/48
f 30/25/49 38/27/49 41/29/49
f 29/60/50 28/28/50 39/30/50
