# Blender v2.81 (sub 16) OBJ File: 'garbage.blend'
# www.blender.org
v -0.320461 0.512820 0.524360
v -0.330918 0.499111 0.514978
v -0.334635 0.480218 0.511161
v -0.330618 0.461205 0.513932
v -0.319943 0.447166 0.522548
v -0.302597 0.513136 0.518014
v -0.299976 0.499658 0.503986
v -0.298907 0.480851 0.498468
v -0.299677 0.461753 0.502940
v -0.302079 0.447482 0.516202
v -0.270041 0.480400 0.523055
v -0.274678 0.461363 0.524232
v -0.287646 0.447257 0.528495
v -0.291595 0.512369 0.548947
v -0.276902 0.479317 0.560334
v -0.280620 0.460425 0.556517
v -0.291076 0.446715 0.547135
v -0.309458 0.512053 0.555293
v -0.311860 0.497782 0.568555
v -0.312630 0.478684 0.573027
v -0.311561 0.459877 0.567509
v -0.308940 0.446399 0.553481
v -0.323892 0.512278 0.543000
v -0.336860 0.498173 0.547263
v -0.341497 0.479135 0.548440
v -0.336560 0.460267 0.546216
v -0.323374 0.446624 0.541188
v -0.288164 0.512911 0.530307
v -0.274977 0.499268 0.525279
v -0.280919 0.498330 0.557563
v -0.285897 0.510924 0.589235
v -0.288421 0.510880 0.590132
v -0.290852 0.515789 0.565510
v -0.282975 0.489529 0.578648
v -0.299695 0.515633 0.568651
v -0.296691 0.489286 0.583521
v -0.250162 0.512372 0.542976
v -0.251569 0.512150 0.550618
v -0.262489 0.515838 0.542631
v -0.256388 0.497855 0.542934
v -0.263133 0.515736 0.546133
v -0.257035 0.497753 0.546446
vt 0.274240 0.539347
vt 0.265397 0.539709
vt 0.266768 0.532487
vt 0.231414 0.551290
vt 0.214659 0.541092
vt 0.231357 0.542861
vt 0.231940 0.569242
vt 0.215985 0.562822
vt 0.231472 0.559719
vt 0.230890 0.533338
vt 0.220414 0.530957
vt 0.213134 0.552274
vt 0.289666 0.544440
vt 0.282983 0.540904
vt 0.290637 0.536818
vt 0.279682 0.529141
vt 0.275518 0.536619
vt 0.273707 0.532162
vt 0.280945 0.538772
vt 0.286431 0.530872
vt 0.290637 0.551375
vt 0.284312 0.543753
vt 0.278488 0.537315
vt 0.276318 0.541045
vt 0.804698 0.251197
vt 0.792375 0.255919
vt 0.792638 0.252041
vt 0.786357 0.239035
vt 0.792578 0.249274
vt 0.791489 0.249454
vt 0.271776 0.541127
vt 0.760733 0.199751
vt 0.757502 0.209505
vt 0.750621 0.206121
vt 0.278108 0.542645
vt 0.273009 0.544115
vt 0.772804 0.201934
vt 0.766718 0.213101
vt 0.766203 0.208706
vt 0.264007 0.548518
vt 0.277612 0.547903
vt 0.268747 0.555467
vt 0.275021 0.546378
vt 0.280714 0.548498
vt 0.281954 0.545638
vt 0.276612 0.557409
vt 0.240880 0.530957
vt 0.248168 0.561486
vt 0.249693 0.550306
vt 0.246843 0.539760
vt 0.242415 0.571620
vt 0.762287 0.211045
vt 0.762255 0.210544
vt 0.761023 0.221925
vt 0.757316 0.212491
vt 0.750922 0.216572
vt 0.772804 0.220841
vt 0.791613 0.252007
vt 0.791097 0.255536
vt 0.780068 0.250772
vt 0.780487 0.263708
vt 0.804698 0.264828
vt 0.798786 0.238814
vt 0.221949 0.571626
vt 0.283377 0.553479
vn 0.0079 -0.9996 -0.0276
vn -0.3246 -0.2032 -0.9238
vn -0.2584 0.6720 -0.6940
vn -0.2481 -0.6367 -0.7301
vn -0.3281 0.2487 -0.9113
vn 0.4850 0.6741 -0.5571
vn 0.4953 -0.6346 -0.5932
vn 0.6299 0.2514 -0.7349
vn -0.0079 0.9996 0.0276
vn 0.6334 -0.2005 -0.7474
vn 0.7486 -0.6523 0.1188
vn 0.3812 -0.3879 0.8392
vn 0.9598 -0.2233 0.1702
vn -0.1168 0.9931 0.0073
vn 0.2584 -0.6720 0.6940
vn -0.7534 0.5112 0.4136
vn 0.3281 -0.2487 0.9113
vn 0.2019 -0.8254 0.5272
vn -0.4850 -0.6741 0.5571
vn -0.6334 0.2005 0.7474
vn -0.6299 -0.2514 0.7349
vn -0.4953 0.6346 0.5932
vn -0.7383 -0.6565 -0.1550
vn -0.9598 0.2233 -0.1702
vn -0.9562 -0.2286 -0.1826
vn -0.7486 0.6523 -0.1188
vn 0.3149 -0.3860 0.8671
vn 0.0503 0.9804 0.1905
vn 0.8525 0.5177 -0.0719
vn -0.0875 0.9764 -0.1977
vn -0.6895 0.0427 0.7231
vn 0.9549 0.2293 0.1888
vn 0.9077 -0.3897 0.1557
vn 0.2679 0.9604 0.0772
vn 0.6756 0.2581 -0.6906
vn 0.7169 -0.6882 0.1119
vn 0.0204 0.5342 0.8451
vn 0.1990 0.6333 -0.7479
vn 0.4163 0.2166 0.8831
vn -0.1168 0.9931 0.0074
vn -0.7226 0.4899 0.4877
vn 0.3148 -0.3860 0.8671
vn 0.8290 0.5392 -0.1485
vn -0.0875 0.9763 -0.1977
vn -0.6285 0.2012 0.7513
vn 0.9893 0.0724 0.1267
vn 0.6506 -0.2770 -0.7071
vn -0.1086 0.6208 0.7764
vn 0.3010 0.5721 -0.7629
s off
f 17/1/1 27/2/1 5/3/1
f 3/4/2 9/5/2 4/6/2
f 1/7/3 7/8/3 2/9/3
f 5/10/4 9/5/4 10/11/4
f 2/9/5 8/12/5 3/4/5
f 6/13/6 29/14/6 7/15/6
f 9/16/7 13/17/7 10/18/7
f 7/15/8 11/19/8 8/20/8
f 1/21/9 28/22/9 6/13/9
f 8/20/10 12/23/10 9/16/10
f 13/17/11 16/24/11 17/1/11
f 30/25/12 42/26/12 38/27/12
f 11/19/13 16/24/13 12/23/13
f 28/28/14 41/29/14 39/30/14
f 16/24/15 22/31/15 17/1/15
f 19/32/16 35/33/16 18/34/16
f 15/35/17 21/36/17 16/24/17
f 20/37/18 34/38/18 36/39/18
f 22/31/19 26/40/19 27/2/19
f 19/41/20 25/42/20 20/43/20
f 1/21/9 18/44/9 14/45/9
f 20/43/21 26/40/21 21/36/21
f 18/44/22 24/46/22 19/41/22
f 27/47/23 4/6/23 5/10/23
f 24/48/24 3/4/24 25/49/24
f 25/49/25 4/6/25 26/50/25
f 23/51/26 2/9/26 24/48/26
f 13/17/1 5/3/1 10/18/1
f 31/52/27 36/39/27 34/38/27
f 31/52/28 35/33/28 32/53/28
f 30/54/29 33/55/29 31/52/29
f 18/34/30 33/55/30 14/56/30
f 19/32/31 36/39/31 32/53/31
f 30/54/32 34/38/32 15/57/32
f 37/58/33 42/26/33 40/59/33
f 37/58/34 41/29/34 38/27/34
f 29/60/35 40/59/35 11/61/35
f 11/61/36 42/26/36 15/62/36
f 30/25/37 41/29/37 14/63/37
f 29/60/38 39/30/38 37/58/38
f 17/1/1 22/31/1 27/2/1
f 3/4/2 8/12/2 9/5/2
f 1/7/3 6/64/3 7/8/3
f 5/10/4 4/6/4 9/5/4
f 2/9/5 7/8/5 8/12/5
f 6/13/6 28/22/6 29/14/6
f 9/16/7 12/23/7 13/17/7
f 7/15/8 29/14/8 11/19/8
f 1/21/9 14/45/9 28/22/9
f 8/20/10 11/19/10 12/23/10
f 13/17/11 12/23/11 16/24/11
f 30/25/39 15/62/39 42/26/39
f 11/19/13 15/35/13 16/24/13
f 28/28/40 14/63/40 41/29/40
f 16/24/15 21/36/15 22/31/15
f 19/32/41 32/53/41 35/33/41
f 15/35/17 20/43/17 21/36/17
f 20/37/18 15/57/18 34/38/18
f 22/31/19 21/36/19 26/40/19
f 19/41/20 24/46/20 25/42/20
f 1/21/9 23/65/9 18/44/9
f 20/43/21 25/42/21 26/40/21
f 18/44/22 23/65/22 24/46/22
f 27/47/23 26/50/23 4/6/23
f 24/48/24 2/9/24 3/4/24
f 25/49/25 3/4/25 4/6/25
f 23/51/26 1/7/26 2/9/26
f 13/17/1 17/1/1 5/3/1
f 31/52/42 32/53/42 36/39/42
f 31/52/28 33/55/28 35/33/28
f 30/54/43 14/56/43 33/55/43
f 18/34/44 35/33/44 33/55/44
f 19/32/45 20/37/45 36/39/45
f 30/54/46 31/52/46 34/38/46
f 37/58/33 38/27/33 42/26/33
f 37/58/34 39/30/34 41/29/34
f 29/60/47 37/58/47 40/59/47
f 11/61/36 40/59/36 42/26/36
f 30/25/48 38/27/48 41/29/48
f 29/60/49 28/28/49 39/30/49
