# Blender v2.81 (sub 16) OBJ File: 'garbage.blend'
# www.blender.org
v 0.317609 0.482236 -0.837585
v 0.327914 0.465985 -0.833710
v 0.328486 0.446865 -0.829304
v 0.319172 0.430000 -0.825545
v 0.302467 0.419909 -0.823442
v 0.308175 0.488022 -0.822190
v 0.311574 0.476006 -0.807045
v 0.309618 0.458436 -0.798512
v 0.302831 0.440021 -0.798879
v 0.293033 0.425695 -0.808047
v 0.272722 0.466851 -0.800933
v 0.270878 0.447309 -0.800976
v 0.274585 0.429902 -0.809257
v 0.280713 0.490651 -0.840006
v 0.254694 0.463695 -0.834145
v 0.255266 0.444575 -0.829738
v 0.265571 0.428324 -0.825863
v 0.290147 0.484865 -0.855402
v 0.280349 0.470539 -0.864569
v 0.273562 0.452124 -0.864936
v 0.271606 0.434554 -0.856404
v 0.275005 0.422538 -0.841259
v 0.308595 0.480658 -0.854191
v 0.312302 0.463251 -0.862473
v 0.310458 0.443709 -0.862515
v 0.303559 0.427267 -0.854307
v 0.293453 0.418331 -0.840048
v 0.289727 0.492229 -0.823400
v 0.279621 0.483293 -0.809141
v 0.264008 0.480560 -0.837903
v 0.251319 0.491003 -0.868176
v 0.252653 0.490185 -0.870351
v 0.270801 0.494125 -0.853282
v 0.250463 0.471541 -0.854073
v 0.275470 0.491261 -0.860903
v 0.257706 0.467099 -0.865893
v 0.253278 0.503370 -0.811061
v 0.249583 0.502723 -0.817868
v 0.263583 0.502886 -0.818654
v 0.254470 0.487642 -0.811925
v 0.261889 0.502590 -0.821774
v 0.252771 0.487345 -0.815054
vt 0.274240 0.539347
vt 0.265397 0.539709
vt 0.266768 0.532487
vt 0.231414 0.551290
vt 0.214659 0.541092
vt 0.231357 0.542861
vt 0.231940 0.569242
vt 0.215985 0.562822
vt 0.231472 0.559719
vt 0.230890 0.533338
vt 0.220414 0.530957
vt 0.213134 0.552274
vt 0.289666 0.544440
vt 0.282983 0.540904
vt 0.290637 0.536818
vt 0.279682 0.529141
vt 0.275518 0.536619
vt 0.273707 0.532162
vt 0.280945 0.538772
vt 0.286431 0.530872
vt 0.290637 0.551375
vt 0.284312 0.543753
vt 0.278488 0.537315
vt 0.276318 0.541045
vt 0.804698 0.251197
vt 0.792375 0.255919
vt 0.792638 0.252041
vt 0.786357 0.239035
vt 0.792578 0.249274
vt 0.791489 0.249454
vt 0.271776 0.541127
vt 0.760733 0.199751
vt 0.757502 0.209505
vt 0.750621 0.206121
vt 0.278108 0.542645
vt 0.273009 0.544115
vt 0.772804 0.201934
vt 0.766718 0.213101
vt 0.766203 0.208706
vt 0.264007 0.548518
vt 0.277612 0.547903
vt 0.268747 0.555467
vt 0.275021 0.546378
vt 0.280714 0.548498
vt 0.281954 0.545638
vt 0.276612 0.557409
vt 0.240880 0.530957
vt 0.248168 0.561486
vt 0.249693 0.550306
vt 0.246843 0.539760
vt 0.242415 0.571620
vt 0.762287 0.211045
vt 0.762255 0.210544
vt 0.761023 0.221925
vt 0.757316 0.212491
vt 0.750922 0.216572
vt 0.772804 0.220841
vt 0.791613 0.252007
vt 0.791097 0.255536
vt 0.780068 0.250772
vt 0.780487 0.263708
vt 0.804698 0.264828
vt 0.798786 0.238814
vt 0.221949 0.571626
vt 0.283377 0.553479
vn -0.2305 -0.9489 0.2153
vn 0.7625 -0.2925 0.5771
vn 0.7831 0.5607 0.2691
vn 0.4812 -0.6817 0.5511
vn 0.8667 0.1365 0.4798
vn 0.1413 0.7907 0.5957
vn -0.1606 -0.4517 0.8776
vn 0.0397 0.4329 0.9006
vn 0.2305 0.9489 -0.2153
vn -0.0646 0.0039 0.9979
vn -0.7927 -0.3912 0.4675
vn -0.8959 -0.2526 -0.3655
vn -0.8792 0.0819 0.4694
vn 0.3232 0.9094 -0.2619
vn -0.7831 -0.5607 -0.2691
vn 0.4349 0.2552 -0.8636
vn -0.8667 -0.1365 -0.4798
vn -0.6752 -0.7239 -0.1417
vn -0.1413 -0.7907 -0.5957
vn 0.0646 -0.0039 -0.9979
vn -0.0397 -0.4329 -0.9006
vn 0.1606 0.4517 -0.8776
vn 0.4909 -0.8512 -0.1856
vn 0.8792 -0.0819 -0.4694
vn 0.7749 -0.5109 -0.3721
vn 0.7927 0.3912 -0.4675
vn -0.8627 -0.2713 -0.4267
vn 0.0820 0.9484 -0.3062
vn -0.4707 0.7544 0.4575
vn 0.4232 0.9025 -0.0798
vn 0.0834 -0.1713 -0.9817
vn -0.7776 0.5111 0.3663
vn -0.8714 -0.0925 0.4818
vn -0.0165 0.9962 -0.0857
vn -0.0203 0.4533 0.8911
vn -0.7733 -0.4351 0.4611
vn -0.4057 0.5142 -0.7556
vn 0.4634 0.6642 0.5866
vn -0.2306 -0.9489 0.2153
vn 0.2306 0.9489 -0.2153
vn -0.8030 0.3334 -0.4939
vn 0.3232 0.9094 -0.2618
vn 0.3611 0.2443 -0.9000
vn 0.0820 0.9484 -0.3061
vn -0.4008 0.7676 0.5001
vn 0.0586 -0.0017 -0.9983
vn -0.8031 0.3724 0.4651
vn -0.0165 0.9962 -0.0858
vn -0.1207 -0.0636 0.9907
vn -0.7734 -0.4351 0.4611
vn -0.2458 0.5571 -0.7932
vn 0.3813 0.6373 0.6697
s off
f 17/1/1 27/2/1 5/3/1
f 3/4/2 9/5/2 4/6/2
f 1/7/3 7/8/3 2/9/3
f 5/10/4 9/5/4 10/11/4
f 2/9/5 8/12/5 3/4/5
f 6/13/6 29/14/6 7/15/6
f 9/16/7 13/17/7 10/18/7
f 7/15/8 11/19/8 8/20/8
f 1/21/9 28/22/9 6/13/9
f 8/20/10 12/23/10 9/16/10
f 13/17/11 16/24/11 17/1/11
f 30/25/12 42/26/12 38/27/12
f 11/19/13 16/24/13 12/23/13
f 28/28/14 41/29/14 39/30/14
f 16/24/15 22/31/15 17/1/15
f 19/32/16 35/33/16 18/34/16
f 15/35/17 21/36/17 16/24/17
f 20/37/18 34/38/18 36/39/18
f 22/31/19 26/40/19 27/2/19
f 19/41/20 25/42/20 20/43/20
f 1/21/9 18/44/9 14/45/9
f 20/43/21 26/40/21 21/36/21
f 18/44/22 24/46/22 19/41/22
f 27/47/23 4/6/23 5/10/23
f 24/48/24 3/4/24 25/49/24
f 25/49/25 4/6/25 26/50/25
f 23/51/26 2/9/26 24/48/26
f 13/17/1 5/3/1 10/18/1
f 31/52/27 36/39/27 34/38/27
f 31/52/28 35/33/28 32/53/28
f 30/54/29 33/55/29 31/52/29
f 18/34/30 33/55/30 14/56/30
f 19/32/31 36/39/31 32/53/31
f 30/54/32 34/38/32 15/57/32
f 37/58/33 42/26/33 40/59/33
f 37/58/34 41/29/34 38/27/34
f 29/60/35 40/59/35 11/61/35
f 11/61/36 42/26/36 15/62/36
f 30/25/37 41/29/37 14/63/37
f 29/60/38 39/30/38 37/58/38
f 17/1/39 22/31/39 27/2/39
f 3/4/2 8/12/2 9/5/2
f 1/7/3 6/64/3 7/8/3
f 5/10/4 4/6/4 9/5/4
f 2/9/5 7/8/5 8/12/5
f 6/13/6 28/22/6 29/14/6
f 9/16/7 12/23/7 13/17/7
f 7/15/8 29/14/8 11/19/8
f 1/21/40 14/45/40 28/22/40
f 8/20/10 11/19/10 12/23/10
f 13/17/11 12/23/11 16/24/11
f 30/25/41 15/62/41 42/26/41
f 11/19/13 15/35/13 16/24/13
f 28/28/42 14/63/42 41/29/42
f 16/24/15 21/36/15 22/31/15
f 19/32/43 32/53/43 35/33/43
f 15/35/17 20/43/17 21/36/17
f 20/37/18 15/57/18 34/38/18
f 22/31/19 21/36/19 26/40/19
f 19/41/20 24/46/20 25/42/20
f 1/21/9 23/65/9 18/44/9
f 20/43/21 25/42/21 26/40/21
f 18/44/22 23/65/22 24/46/22
f 27/47/23 26/50/23 4/6/23
f 24/48/24 2/9/24 3/4/24
f 25/49/25 3/4/25 4/6/25
f 23/51/26 1/7/26 2/9/26
f 13/17/1 17/1/1 5/3/1
f 31/52/27 32/53/27 36/39/27
f 31/52/44 33/55/44 35/33/44
f 30/54/45 14/56/45 33/55/45
f 18/34/30 35/33/30 33/55/30
f 19/32/46 20/37/46 36/39/46
f 30/54/47 31/52/47 34/38/47
f 37/58/33 38/27/33 42/26/33
f 37/58/48 39/30/48 41/29/48
f 29/60/49 37/58/49 40/59/49
f 11/61/50 40/59/50 42/26/50
f 30/25/51 38/27/51 41/29/51
f 29/60/52 28/28/52 39/30/52
