# Blender v2.81 (sub 16) OBJ File: 'Boat2.0 - Joined.blend'
# www.blender.org
v 0.000000 0.103716 -0.374442
v 0.000000 0.186091 -0.408735
v 0.000000 0.598685 -0.443308
v 0.000000 0.711604 -0.434241
v 0.000000 0.972519 -0.374442
v 0.264771 0.972519 -0.264771
v 0.307055 0.711604 -0.307055
v 0.313466 0.598685 -0.313466
v 0.289019 0.186091 -0.289019
v 0.264771 0.103716 -0.264771
v 0.374442 0.972519 0.000000
v 0.434241 0.711604 0.000000
v 0.443308 0.598685 0.000000
v 0.408735 0.186091 0.000000
v 0.374442 0.103716 0.000000
v 0.264771 0.972519 0.264771
v 0.307055 0.711604 0.307055
v 0.313466 0.598685 0.313466
v 0.289019 0.186091 0.289019
v 0.264771 0.103716 0.264771
v 0.000000 0.972519 0.374442
v 0.000000 0.711604 0.434241
v 0.000000 0.598685 0.443308
v 0.000000 0.186091 0.408735
v 0.000000 0.103716 0.374442
v -0.264771 0.972519 0.264771
v -0.307055 0.711604 0.307055
v -0.313466 0.598685 0.313466
v -0.289019 0.186091 0.289019
v -0.264771 0.103716 0.264771
v -0.374442 0.972519 -0.000000
v -0.434241 0.711604 -0.000000
v -0.443308 0.598685 -0.000000
v -0.408735 0.186091 -0.000000
v -0.374442 0.103716 -0.000000
v -0.264771 0.972519 -0.264771
v -0.307055 0.711604 -0.307055
v -0.313466 0.598685 -0.313466
v -0.289019 0.186091 -0.289019
v -0.264771 0.103716 -0.264771
v 0.000000 1.089247 -0.355672
v 0.251498 1.089247 -0.251498
v 0.355672 1.089247 0.000000
v 0.251498 1.089247 0.251498
v 0.000000 1.089247 0.355672
v -0.251498 1.089247 0.251498
v -0.355672 1.089247 -0.000000
v -0.251498 1.089247 -0.251498
v 0.000000 0.974816 -0.390486
v 0.276116 0.974816 -0.276116
v 0.390486 0.974816 0.000000
v 0.276116 0.974816 0.276116
v 0.000000 0.974816 0.390486
v -0.276116 0.974816 0.276116
v -0.390486 0.974816 -0.000000
v -0.276116 0.974816 -0.276116
v 0.216082 1.089247 -0.216082
v 0.000000 1.089247 -0.305587
v -0.216082 1.089247 -0.216082
v -0.305587 1.089247 -0.000000
v -0.216082 1.089247 0.216082
v 0.000000 1.089247 0.305587
v 0.216082 1.089247 0.216082
v 0.305587 1.089247 0.000000
v 0.214313 1.057211 -0.214313
v 0.000000 1.057211 -0.303084
v 0.303084 1.057211 0.000000
v -0.214313 1.057211 -0.214313
v -0.303084 1.057211 -0.000000
v -0.214313 1.057211 0.214313
v 0.000000 1.057211 0.303084
v 0.214313 1.057211 0.214313
v 0.000000 0.598685 -0.465441
v 0.000000 0.711604 -0.455921
v 0.322385 0.711604 -0.322385
v 0.329116 0.598685 -0.329116
v 0.455922 0.711604 0.000000
v 0.465441 0.598685 0.000000
v 0.322385 0.711604 0.322385
v 0.329116 0.598685 0.329116
v 0.000000 0.711604 0.455921
v 0.000000 0.598685 0.465441
v -0.322385 0.711604 0.322385
v -0.329116 0.598685 0.329116
v -0.455921 0.711604 -0.000000
v -0.465441 0.598685 -0.000000
v -0.322385 0.711604 -0.322385
v -0.329116 0.598685 -0.329116
v 0.000000 0.309360 -0.434327
v 0.000000 0.424543 -0.437253
v 0.309184 0.424543 -0.309184
v 0.307116 0.309360 -0.307115
v 0.437253 0.424543 0.000000
v 0.434327 0.309360 0.000000
v 0.309184 0.424543 0.309184
v 0.307116 0.309360 0.307115
v 0.000000 0.424543 0.437253
v 0.000000 0.309360 0.434327
v -0.309184 0.424543 0.309184
v -0.307115 0.309360 0.307115
v -0.437253 0.424543 -0.000000
v -0.434327 0.309360 -0.000000
v -0.309184 0.424543 -0.309184
v -0.307115 0.309360 -0.307115
v 0.000000 0.309360 -0.452454
v 0.000000 0.426384 -0.455502
v 0.322089 0.426383 -0.322089
v 0.319933 0.309360 -0.319933
v 0.455502 0.426383 0.000000
v 0.452454 0.309360 0.000000
v 0.322089 0.426383 0.322089
v 0.319933 0.309360 0.319933
v 0.000000 0.426383 0.455502
v 0.000000 0.309360 0.452454
v -0.322089 0.426383 0.322089
v -0.319933 0.309360 0.319933
v -0.455502 0.426383 -0.000000
v -0.452454 0.309360 -0.000000
v -0.322089 0.426383 -0.322089
v -0.319933 0.309360 -0.319933
v 0.000000 0.000000 -0.318518
v 0.225226 0.000000 -0.225226
v 0.276462 0.103716 -0.276462
v 0.318518 0.000000 0.000000
v 0.390976 0.103716 0.000000
v 0.225226 0.000000 0.225226
v 0.276462 0.103716 0.276462
v 0.000000 0.000000 0.318518
v 0.000000 0.103716 0.390976
v -0.225226 0.000000 0.225226
v -0.276462 0.103716 0.276462
v -0.318518 0.000000 -0.000000
v -0.390976 0.103716 -0.000000
v -0.225226 0.000000 -0.225226
v -0.276462 0.103716 -0.276462
v 0.000000 0.103716 -0.390976
v 0.000000 1.072753 -0.371719
v 0.262845 1.072753 -0.262845
v 0.371719 1.072753 0.000000
v 0.262845 1.072753 0.262845
v 0.000000 1.072753 0.371719
v -0.262845 1.072753 0.262845
v -0.371719 1.072753 -0.000000
v -0.262845 1.072753 -0.262845
v 0.000000 0.842062 -0.417489
v 0.295209 0.842062 -0.295209
v 0.417489 0.842062 0.000000
v 0.295209 0.842062 0.295209
v 0.000000 0.842062 0.417489
v -0.295209 0.842062 0.295209
v -0.417489 0.842062 -0.000000
v -0.295209 0.842062 -0.295209
v 0.000000 0.000000 -0.349270
v 0.246971 0.000000 -0.246971
v 0.349270 0.000000 0.000000
v 0.246971 0.000000 0.246971
v 0.000000 0.000000 0.349270
v -0.246971 0.000000 0.246971
v -0.349270 0.000000 -0.000000
v -0.246971 0.000000 -0.246971
v 0.000000 0.032399 -0.318518
v 0.225226 0.032399 -0.225226
v 0.318518 0.032399 0.000000
v 0.225226 0.032399 0.225226
v 0.000000 0.032399 0.318518
v -0.225226 0.032399 0.225226
v -0.318518 0.032399 -0.000000
v -0.225226 0.032399 -0.225226
v 0.000000 0.032399 0.000000
v 0.000000 1.057211 0.000000
vt 0.382275 0.255859
vt 0.348782 0.293286
vt 0.345943 0.292192
vt 0.433657 0.379907
vt 0.467151 0.342481
vt 0.469990 0.343574
vt 0.348724 0.342340
vt 0.345942 0.343574
vt 0.467209 0.293426
vt 0.469990 0.292192
vt 0.383369 0.377068
vt 0.382275 0.379907
vt 0.432564 0.258698
vt 0.433657 0.255859
vt 0.432423 0.377126
vt 0.383509 0.258640
vt 0.523623 0.273369
vt 0.572489 0.270575
vt 0.573751 0.273369
vt 0.416891 0.128041
vt 0.459802 0.139536
vt 0.417556 0.140722
vt 0.414756 0.069739
vt 0.459452 0.090381
vt 0.415964 0.091120
vt 0.632365 0.069220
vt 0.682733 0.067403
vt 0.681571 0.070051
vt 0.415757 0.012113
vt 0.458751 0.031977
vt 0.415438 0.031823
vt 0.523622 0.152347
vt 0.491043 0.188877
vt 0.488176 0.187794
vt 0.373754 0.131021
vt 0.375373 0.143696
vt 0.369637 0.069512
vt 0.371272 0.093122
vt 0.458347 0.066855
vt 0.458335 0.069466
vt 0.372986 0.010698
vt 0.371548 0.030783
vt 0.329041 0.138959
vt 0.333377 0.151533
vt 0.320730 0.070255
vt 0.322005 0.094658
vt 0.502078 0.048952
vt 0.458955 0.051586
vt 0.458977 0.048983
vt 0.324979 0.025890
vt 0.629492 0.129828
vt 0.670306 0.150018
vt 0.628082 0.142630
vt 0.680961 0.094374
vt 0.632969 0.092771
vt 0.632737 0.048677
vt 0.588351 0.051634
vt 0.588368 0.048998
vt 0.629889 0.010891
vt 0.677011 0.024996
vt 0.631474 0.030389
vt 0.572668 0.155215
vt 0.524884 0.155141
vt 0.586294 0.140074
vt 0.587817 0.069602
vt 0.588412 0.090885
vt 0.415436 0.048982
vt 0.370713 0.051208
vt 0.370864 0.048601
vt 0.587484 0.012320
vt 0.587904 0.031850
vt 0.606330 0.236840
vt 0.609197 0.237922
vt 0.544338 0.126632
vt 0.544248 0.139247
vt 0.544382 0.069409
vt 0.545209 0.090269
vt 0.501413 0.066731
vt 0.501391 0.069323
vt 0.544753 0.012460
vt 0.544844 0.032041
vt 0.501959 0.126493
vt 0.502056 0.139130
vt 0.502369 0.090146
vt 0.632389 0.066624
vt 0.501838 0.031996
vt 0.490969 0.236661
vt 0.488176 0.237923
vt 0.459511 0.126881
vt 0.369667 0.066525
vt 0.414780 0.067064
vt 0.458743 0.012314
vt 0.390619 0.277333
vt 0.364095 0.300289
vt 0.389385 0.274420
vt 0.367027 0.301476
vt 0.364504 0.336464
vt 0.367416 0.335231
vt 0.390372 0.361755
vt 0.391560 0.358823
vt 0.426547 0.361346
vt 0.425314 0.358433
vt 0.451838 0.335477
vt 0.448906 0.334290
vt 0.451429 0.299302
vt 0.372597 0.303848
vt 0.376756 0.331135
vt 0.373032 0.332969
vt 0.448517 0.300536
vt 0.425560 0.274011
vt 0.424373 0.276943
vt 0.392881 0.282948
vt 0.422002 0.282513
vt 0.442901 0.302797
vt 0.443336 0.331919
vt 0.423052 0.352818
vt 0.393931 0.353253
vt 0.407966 0.317883
vt 0.439177 0.304631
vt 0.439406 0.330582
vt 0.421218 0.349094
vt 0.394714 0.286673
vt 0.376527 0.305185
vt 0.395268 0.349323
vt 0.420665 0.286443
vt 0.415400 0.051623
vt 0.320999 0.046738
vt 0.319293 0.066874
vt 0.632825 0.051567
vt 0.587830 0.066962
vt 0.545075 0.051599
vt 0.544412 0.066809
vt 0.502054 0.051542
vt 0.680154 0.044617
vt 0.322358 0.044181
vt 0.545102 0.049003
vt 0.458996 0.110598
vt 0.588333 0.093101
vt 0.501674 0.110260
vt 0.415967 0.111573
vt 0.458981 0.108419
vt 0.587159 0.111183
vt 0.586753 0.127471
vt 0.631087 0.110858
vt 0.630872 0.113011
vt 0.371345 0.095311
vt 0.678451 0.119845
vt 0.674467 0.137118
vt 0.545174 0.092440
vt 0.324335 0.120247
vt 0.371747 0.113545
vt 0.415912 0.109353
vt 0.544283 0.110409
vt 0.587243 0.108989
vt 0.321148 0.096914
vt 0.459462 0.092556
vt 0.501686 0.108092
vt 0.544324 0.108237
vt 0.632843 0.095239
vt 0.679686 0.117779
vt 0.371554 0.111113
vt 0.322837 0.117680
vt 0.416021 0.093336
vt 0.502356 0.092308
vt 0.531068 0.172477
vt 0.507675 0.196763
vt 0.508306 0.230477
vt 0.532592 0.253870
vt 0.566306 0.253239
vt 0.589699 0.228953
vt 0.606404 0.189056
vt 0.589068 0.195239
vt 0.564782 0.171846
vt 0.609197 0.187794
vt 0.573751 0.152348
vt 0.524705 0.270501
vt 0.563277 0.175380
vt 0.534416 0.179835
vt 0.532503 0.176040
vt 0.585505 0.196674
vt 0.586165 0.227448
vt 0.564871 0.249676
vt 0.534097 0.250336
vt 0.511869 0.229042
vt 0.511209 0.198268
vt 0.548687 0.212858
vt 0.562957 0.245881
vt 0.535427 0.246300
vt 0.515245 0.199598
vt 0.582128 0.226118
vt 0.561947 0.179417
vt 0.515664 0.227129
vt 0.581710 0.198588
vt 0.329820 0.005307
vt 0.671937 0.005307
vt 0.501794 0.012361
vt 0.681745 0.047734
vt 0.682000 0.097194
vn 0.0586 -0.9882 -0.1415
vn -0.0586 -0.9882 0.1415
vn 0.1415 -0.9882 -0.0586
vn -0.1415 -0.9882 0.0586
vn 0.1415 -0.9882 0.0586
vn -0.1415 -0.9882 -0.0586
vn 0.0586 -0.9882 0.1415
vn -0.0586 -0.9882 -0.1415
vn 0.0000 1.0000 -0.0000
vn -0.3572 -0.3590 -0.8623
vn -0.3825 -0.0321 -0.9234
vn 0.0000 -1.0000 -0.0000
vn -0.3661 0.2916 -0.8837
vn -0.8623 -0.3590 -0.3572
vn -0.9234 -0.0321 -0.3825
vn -0.8837 0.2916 -0.3661
vn -0.8623 -0.3590 0.3572
vn -0.9234 -0.0321 0.3825
vn -0.8837 0.2916 0.3661
vn -0.3572 -0.3590 0.8623
vn -0.3825 -0.0321 0.9234
vn -0.3661 0.2916 0.8837
vn 0.3572 -0.3590 0.8623
vn 0.3825 -0.0321 0.9234
vn 0.3661 0.2916 0.8837
vn 0.8623 -0.3590 0.3572
vn 0.9234 -0.0321 0.3825
vn 0.8837 0.2916 0.3661
vn 0.8623 -0.3590 -0.3572
vn 0.9234 -0.0321 -0.3825
vn 0.8837 0.2916 -0.3661
vn 0.3572 -0.3590 -0.8623
vn 0.3825 -0.0321 -0.9234
vn 0.3661 0.2916 -0.8837
vn 0.2846 0.6685 -0.6871
vn 0.6871 0.6685 -0.2846
vn 0.6871 0.6685 0.2846
vn 0.2846 0.6685 0.6871
vn -0.2846 0.6685 0.6871
vn -0.6871 0.6685 0.2846
vn -0.9215 0.0720 0.3817
vn -0.6871 0.6685 -0.2846
vn -0.2846 0.6685 -0.6871
vn -0.3817 0.0720 -0.9215
vn 0.9215 0.0720 -0.3817
vn 0.3817 0.0720 0.9215
vn -0.3817 0.0720 0.9215
vn -0.9215 0.0720 -0.3817
vn 0.3817 0.0720 -0.9215
vn 0.9215 0.0720 0.3817
vn -0.3815 0.0777 -0.9211
vn -0.9211 0.0777 -0.3815
vn -0.9211 0.0776 0.3815
vn -0.3815 0.0777 0.9211
vn 0.3815 0.0777 0.9211
vn 0.9211 0.0776 0.3815
vn 0.9211 0.0776 -0.3815
vn 0.3815 0.0777 -0.9211
vn 0.3758 -0.1884 -0.9073
vn -0.0415 0.9941 -0.1003
vn 0.9073 -0.1884 -0.3758
vn 0.9073 -0.1884 0.3758
vn 0.3758 -0.1884 0.9073
vn 0.1003 0.9941 0.0415
vn -0.3758 -0.1884 0.9073
vn -0.1003 0.9941 -0.0415
vn -0.9073 -0.1884 0.3758
vn -0.9073 -0.1884 -0.3758
vn -0.3758 -0.1884 -0.9073
vn 0.1003 0.9941 -0.0415
vn 0.3826 -0.0241 -0.9236
vn 0.9236 -0.0241 -0.3826
vn 0.9236 -0.0241 0.3826
vn 0.3826 -0.0241 0.9236
vn -0.3826 -0.0241 0.9236
vn -0.9236 -0.0241 0.3826
vn -0.9236 -0.0241 -0.3826
vn -0.3826 -0.0241 -0.9236
vn 0.0415 0.9941 0.1003
vn -0.0415 0.9941 0.1003
vn 0.0415 0.9941 -0.1003
vn -0.1003 0.9941 0.0415
vn -0.3587 -0.3482 -0.8660
vn -0.8660 -0.3482 -0.3587
vn -0.8660 -0.3482 0.3587
vn -0.3587 -0.3482 0.8660
vn 0.3587 -0.3482 0.8660
vn 0.8660 -0.3482 0.3587
vn 0.8660 -0.3482 -0.3587
vn 0.3587 -0.3482 -0.8660
vn -0.3768 0.1743 -0.9097
vn -0.9097 0.1743 -0.3768
vn -0.9097 0.1743 0.3768
vn -0.3768 0.1743 0.9097
vn 0.3768 0.1743 0.9097
vn 0.9097 0.1743 0.3768
vn 0.9097 0.1743 -0.3768
vn 0.3768 0.1743 -0.9097
vn 0.3800 0.1178 -0.9174
vn 0.9174 0.1178 -0.3800
vn 0.9174 0.1178 0.3800
vn 0.3800 0.1178 0.9174
vn -0.3800 0.1178 0.9174
vn -0.9174 0.1178 0.3800
vn -0.9174 0.1178 -0.3800
vn -0.3800 0.1178 -0.9174
vn -0.3827 0.0000 0.9239
vn 0.3827 0.0000 0.9239
vn 0.9239 0.0000 -0.3827
vn -0.3827 0.0000 -0.9239
vn -0.9239 0.0000 0.3827
vn 0.9239 0.0000 0.3827
vn 0.3827 0.0000 -0.9239
vn -0.9239 0.0000 -0.3827
vn 0.0586 -0.9882 -0.1414
vn -0.0586 -0.9882 0.1414
vn 0.0586 -0.9882 0.1414
vn -0.0586 -0.9882 -0.1414
vn -0.9211 0.0776 -0.3815
vn -0.9211 0.0777 0.3815
s off
f 5/1/1 50/2/1 6/3/1
f 21/4/2 54/5/2 26/6/2
f 6/3/3 51/7/3 11/8/3
f 26/6/4 55/9/4 31/10/4
f 11/8/5 52/11/5 16/12/5
f 31/10/6 56/13/6 36/14/6
f 16/12/7 53/15/7 21/4/7
f 36/14/8 49/16/8 5/1/8
f 30/17/9 129/18/9 25/19/9
f 39/20/10 1/21/10 40/22/10
f 38/23/11 90/24/11 103/25/11
f 23/26/12 84/27/12 28/28/12
f 36/29/13 145/30/13 152/31/13
f 1/32/9 135/33/9 40/34/9
f 34/35/14 40/22/14 35/36/14
f 33/37/15 103/25/15 101/38/15
f 38/23/12 73/39/12 3/40/12
f 31/41/16 152/31/16 151/42/16
f 29/43/17 35/36/17 30/44/17
f 28/45/18 101/38/18 99/46/18
f 7/47/9 74/48/9 4/49/9
f 150/50/19 31/41/19 151/42/19
f 24/51/20 30/52/20 25/53/20
f 23/26/21 99/54/21 97/55/21
f 22/56/9 79/57/9 17/58/9
f 21/59/22 150/60/22 149/61/22
f 1/32/9 123/62/9 136/63/9
f 20/64/23 24/51/23 25/53/23
f 18/65/24 97/55/24 95/66/24
f 37/67/9 85/68/9 32/69/9
f 16/70/25 149/61/25 148/71/25
f 25/19/9 127/72/9 20/73/9
f 14/74/26 20/64/26 15/75/26
f 13/76/27 95/66/27 93/77/27
f 3/40/12 76/78/12 8/79/12
f 11/80/28 148/71/28 147/81/28
f 9/82/29 15/75/29 10/83/29
f 8/79/30 93/77/30 91/84/30
f 18/65/12 82/85/12 23/26/12
f 146/86/31 11/80/31 147/81/31
f 40/34/9 133/87/9 35/88/9
f 2/89/32 10/83/32 1/21/32
f 90/24/33 8/79/33 91/84/33
f 38/23/12 86/90/12 88/91/12
f 5/92/34 146/86/34 145/30/34
f 41/93/35 138/94/35 137/95/35
f 42/96/36 139/97/36 138/94/36
f 43/98/37 140/99/37 139/97/37
f 44/100/38 141/101/38 140/99/38
f 45/102/39 142/103/39 141/101/39
f 46/104/40 143/105/40 142/103/40
f 57/106/41 67/107/41 64/108/41
f 47/109/42 144/110/42 143/105/42
f 144/110/43 41/93/43 137/95/43
f 41/93/9 57/106/9 42/96/9
f 48/111/9 58/112/9 41/93/9
f 47/109/9 59/113/9 48/111/9
f 46/104/9 60/114/9 47/109/9
f 45/102/9 61/115/9 46/104/9
f 44/100/9 62/116/9 45/102/9
f 43/98/9 63/117/9 44/100/9
f 43/98/9 57/106/9 64/108/9
f 170/118/9 69/119/9 70/120/9
f 63/117/44 71/121/44 62/116/44
f 61/115/45 69/119/45 60/114/45
f 59/113/46 66/122/46 58/112/46
f 58/112/47 65/123/47 57/106/47
f 64/108/48 72/124/48 63/117/48
f 62/116/49 70/120/49 61/115/49
f 59/113/50 69/119/50 68/125/50
f 87/126/51 73/39/51 88/91/51
f 85/68/52 88/91/52 86/90/52
f 83/127/53 86/90/53 84/128/53
f 81/129/54 84/27/54 82/85/54
f 79/57/55 82/85/55 80/130/55
f 77/131/56 80/130/56 78/132/56
f 75/133/57 78/132/57 76/78/57
f 74/48/58 76/78/58 73/39/58
f 13/76/12 76/78/12 78/132/12
f 4/49/9 87/126/9 37/67/9
f 27/134/9 81/129/9 22/56/9
f 7/47/9 77/131/9 75/133/9
f 28/45/12 86/90/12 33/37/12
f 13/76/12 80/130/12 18/65/12
f 32/69/9 83/127/9 27/135/9
f 12/136/9 79/57/9 77/131/9
f 89/137/59 9/82/59 2/89/59
f 97/55/60 111/138/60 95/66/60
f 92/139/61 14/74/61 9/82/61
f 104/140/12 105/141/12 89/137/12
f 14/74/62 96/142/62 19/143/62
f 96/142/12 114/144/12 98/145/12
f 19/143/63 98/145/63 24/51/63
f 103/25/64 117/146/64 101/38/64
f 24/51/65 100/147/65 29/148/65
f 95/66/66 109/149/66 93/77/66
f 100/150/67 34/35/67 29/43/67
f 102/151/12 120/152/12 104/140/12
f 102/151/68 39/20/68 34/35/68
f 94/153/12 112/154/12 96/142/12
f 104/140/69 2/89/69 39/20/69
f 101/38/70 115/155/70 99/46/70
f 106/156/71 108/157/71 105/141/71
f 108/157/72 109/149/72 110/158/72
f 109/149/73 112/154/73 110/158/73
f 111/138/74 114/144/74 112/154/74
f 113/159/75 116/160/75 114/144/75
f 115/155/76 118/161/76 116/162/76
f 117/146/77 120/152/77 118/161/77
f 120/152/78 106/156/78 105/141/78
f 92/139/12 105/141/12 108/157/12
f 90/24/79 119/163/79 103/25/79
f 100/147/12 114/144/12 116/160/12
f 91/84/80 106/156/80 90/24/80
f 99/54/81 113/159/81 97/55/81
f 92/139/12 110/158/12 94/153/12
f 100/150/12 118/161/12 102/151/12
f 93/77/82 107/164/82 91/84/82
f 135/33/83 153/165/83 160/166/83
f 133/87/84 160/166/84 159/167/84
f 158/168/85 133/87/85 159/167/85
f 129/18/86 158/168/86 157/169/86
f 127/72/87 157/169/87 156/170/87
f 125/171/88 156/170/88 155/172/88
f 123/62/89 155/172/89 154/173/89
f 153/165/90 123/62/90 154/173/90
f 15/174/9 123/62/9 10/175/9
f 35/88/9 131/176/9 30/17/9
f 20/73/9 125/171/9 15/174/9
f 144/110/91 49/16/91 56/13/91
f 55/9/92 144/110/92 56/13/92
f 142/103/93 55/9/93 54/5/93
f 141/101/94 54/5/94 53/15/94
f 52/11/95 141/101/95 53/15/95
f 139/97/96 52/11/96 51/7/96
f 50/2/97 139/97/97 51/7/97
f 137/95/98 50/2/98 49/16/98
f 4/49/99 146/86/99 7/47/99
f 146/86/100 12/136/100 7/47/100
f 147/81/101 17/58/101 12/136/101
f 17/58/102 149/61/102 22/56/102
f 149/61/103 27/134/103 22/56/103
f 150/50/104 32/69/104 27/135/104
f 32/69/105 152/31/105 37/67/105
f 152/31/106 4/49/106 37/67/106
f 122/177/107 161/178/107 121/179/107
f 122/177/12 153/165/12 154/173/12
f 122/177/12 155/172/12 124/180/12
f 124/180/12 156/170/12 126/181/12
f 128/182/12 156/170/12 157/169/12
f 128/182/12 158/168/12 130/183/12
f 130/183/12 159/167/12 132/184/12
f 132/184/12 160/166/12 134/185/12
f 121/179/12 160/166/12 153/165/12
f 169/186/12 165/187/12 166/188/12
f 121/179/108 168/189/108 134/185/108
f 132/184/109 166/188/109 130/183/109
f 128/182/110 164/190/110 126/181/110
f 124/180/111 162/191/111 122/177/111
f 134/185/112 167/192/112 132/184/112
f 130/183/113 165/187/113 128/182/113
f 126/181/114 163/193/114 124/180/114
f 169/186/12 167/192/12 168/189/12
f 161/178/12 169/186/12 168/189/12
f 163/193/12 169/186/12 162/191/12
f 170/118/9 71/121/9 72/124/9
f 67/107/9 170/118/9 72/124/9
f 66/122/9 170/118/9 65/123/9
f 5/1/115 49/16/115 50/2/115
f 21/4/116 53/15/116 54/5/116
f 6/3/3 50/2/3 51/7/3
f 26/6/4 54/5/4 55/9/4
f 11/8/5 51/7/5 52/11/5
f 31/10/6 55/9/6 56/13/6
f 16/12/117 52/11/117 53/15/117
f 36/14/118 56/13/118 49/16/118
f 30/17/9 131/176/9 129/18/9
f 39/20/10 2/89/10 1/21/10
f 38/23/11 3/40/11 90/24/11
f 23/26/12 82/85/12 84/27/12
f 36/29/13 5/92/13 145/30/13
f 1/32/9 136/63/9 135/33/9
f 34/35/14 39/20/14 40/22/14
f 33/37/15 38/23/15 103/25/15
f 38/23/12 88/91/12 73/39/12
f 31/41/16 36/29/16 152/31/16
f 29/43/17 34/35/17 35/36/17
f 28/45/18 33/37/18 101/38/18
f 7/47/9 75/133/9 74/48/9
f 150/50/19 26/194/19 31/41/19
f 24/51/20 29/148/20 30/52/20
f 23/26/21 28/28/21 99/54/21
f 22/56/9 81/129/9 79/57/9
f 21/59/22 26/195/22 150/60/22
f 1/32/9 10/175/9 123/62/9
f 20/64/23 19/143/23 24/51/23
f 18/65/24 23/26/24 97/55/24
f 37/67/9 87/126/9 85/68/9
f 16/70/25 21/59/25 149/61/25
f 25/19/9 129/18/9 127/72/9
f 14/74/26 19/143/26 20/64/26
f 13/76/27 18/65/27 95/66/27
f 3/40/12 73/39/12 76/78/12
f 11/80/28 16/70/28 148/71/28
f 9/82/29 14/74/29 15/75/29
f 8/79/30 13/76/30 93/77/30
f 18/65/12 80/130/12 82/85/12
f 146/86/31 6/196/31 11/80/31
f 40/34/9 135/33/9 133/87/9
f 2/89/32 9/82/32 10/83/32
f 90/24/33 3/40/33 8/79/33
f 38/23/12 33/37/12 86/90/12
f 5/92/34 6/196/34 146/86/34
f 41/93/35 42/96/35 138/94/35
f 42/96/36 43/98/36 139/97/36
f 43/98/37 44/100/37 140/99/37
f 44/100/38 45/102/38 141/101/38
f 45/102/39 46/104/39 142/103/39
f 46/104/40 47/109/40 143/105/40
f 57/106/41 65/123/41 67/107/41
f 47/109/42 48/111/42 144/110/42
f 144/110/43 48/111/43 41/93/43
f 41/93/9 58/112/9 57/106/9
f 48/111/9 59/113/9 58/112/9
f 47/109/9 60/114/9 59/113/9
f 46/104/9 61/115/9 60/114/9
f 45/102/9 62/116/9 61/115/9
f 44/100/9 63/117/9 62/116/9
f 43/98/9 64/108/9 63/117/9
f 43/98/9 42/96/9 57/106/9
f 170/118/9 68/125/9 69/119/9
f 63/117/44 72/124/44 71/121/44
f 61/115/45 70/120/45 69/119/45
f 59/113/46 68/125/46 66/122/46
f 58/112/47 66/122/47 65/123/47
f 64/108/48 67/107/48 72/124/48
f 62/116/49 71/121/49 70/120/49
f 59/113/50 60/114/50 69/119/50
f 87/126/51 74/48/51 73/39/51
f 85/68/119 87/126/119 88/91/119
f 83/127/120 85/68/120 86/90/120
f 81/129/54 83/197/54 84/27/54
f 79/57/55 81/129/55 82/85/55
f 77/131/56 79/57/56 80/130/56
f 75/133/57 77/131/57 78/132/57
f 74/48/58 75/133/58 76/78/58
f 13/76/12 8/79/12 76/78/12
f 4/49/9 74/48/9 87/126/9
f 27/134/9 83/197/9 81/129/9
f 7/47/9 12/136/9 77/131/9
f 28/45/12 84/128/12 86/90/12
f 13/76/12 78/132/12 80/130/12
f 32/69/9 85/68/9 83/127/9
f 12/136/9 17/58/9 79/57/9
f 89/137/59 92/139/59 9/82/59
f 97/55/60 113/159/60 111/138/60
f 92/139/61 94/153/61 14/74/61
f 104/140/12 120/152/12 105/141/12
f 14/74/62 94/153/62 96/142/62
f 96/142/12 112/154/12 114/144/12
f 19/143/63 96/142/63 98/145/63
f 103/25/64 119/163/64 117/146/64
f 24/51/65 98/145/65 100/147/65
f 95/66/66 111/138/66 109/149/66
f 100/150/67 102/151/67 34/35/67
f 102/151/12 118/161/12 120/152/12
f 102/151/68 104/140/68 39/20/68
f 94/153/12 110/158/12 112/154/12
f 104/140/69 89/137/69 2/89/69
f 101/38/70 117/146/70 115/155/70
f 106/156/71 107/164/71 108/157/71
f 108/157/72 107/164/72 109/149/72
f 109/149/73 111/138/73 112/154/73
f 111/138/74 113/159/74 114/144/74
f 113/159/75 115/198/75 116/160/75
f 115/155/76 117/146/76 118/161/76
f 117/146/77 119/163/77 120/152/77
f 120/152/78 119/163/78 106/156/78
f 92/139/12 89/137/12 105/141/12
f 90/24/79 106/156/79 119/163/79
f 100/147/12 98/145/12 114/144/12
f 91/84/80 107/164/80 106/156/80
f 99/54/81 115/198/81 113/159/81
f 92/139/12 108/157/12 110/158/12
f 100/150/12 116/162/12 118/161/12
f 93/77/82 109/149/82 107/164/82
f 135/33/83 136/63/83 153/165/83
f 133/87/84 135/33/84 160/166/84
f 158/168/85 131/176/85 133/87/85
f 129/18/86 131/176/86 158/168/86
f 127/72/87 129/18/87 157/169/87
f 125/171/88 127/72/88 156/170/88
f 123/62/89 125/171/89 155/172/89
f 153/165/90 136/63/90 123/62/90
f 15/174/9 125/171/9 123/62/9
f 35/88/9 133/87/9 131/176/9
f 20/73/9 127/72/9 125/171/9
f 144/110/91 137/95/91 49/16/91
f 55/9/92 143/105/92 144/110/92
f 142/103/93 143/105/93 55/9/93
f 141/101/94 142/103/94 54/5/94
f 52/11/95 140/99/95 141/101/95
f 139/97/96 140/99/96 52/11/96
f 50/2/97 138/94/97 139/97/97
f 137/95/98 138/94/98 50/2/98
f 4/49/99 145/30/99 146/86/99
f 146/86/100 147/81/100 12/136/100
f 147/81/101 148/71/101 17/58/101
f 17/58/102 148/71/102 149/61/102
f 149/61/103 150/60/103 27/134/103
f 150/50/104 151/42/104 32/69/104
f 32/69/105 151/42/105 152/31/105
f 152/31/106 145/30/106 4/49/106
f 122/177/107 162/191/107 161/178/107
f 122/177/12 121/179/12 153/165/12
f 122/177/12 154/173/12 155/172/12
f 124/180/12 155/172/12 156/170/12
f 128/182/12 126/181/12 156/170/12
f 128/182/12 157/169/12 158/168/12
f 130/183/12 158/168/12 159/167/12
f 132/184/12 159/167/12 160/166/12
f 121/179/12 134/185/12 160/166/12
f 169/186/12 164/190/12 165/187/12
f 121/179/108 161/178/108 168/189/108
f 132/184/109 167/192/109 166/188/109
f 128/182/110 165/187/110 164/190/110
f 124/180/111 163/193/111 162/191/111
f 134/185/112 168/189/112 167/192/112
f 130/183/113 166/188/113 165/187/113
f 126/181/114 164/190/114 163/193/114
f 169/186/12 166/188/12 167/192/12
f 161/178/12 162/191/12 169/186/12
f 163/193/12 164/190/12 169/186/12
f 170/118/9 70/120/9 71/121/9
f 67/107/9 65/123/9 170/118/9
f 66/122/9 68/125/9 170/118/9
