# Blender v2.81 (sub 16) OBJ File: 'Boat2.0 - Joined.blend'
# www.blender.org
v -0.900137 -0.819432 -0.011049
v -0.885133 0.928098 0.169517
v -1.121189 -1.030471 -0.216013
v -1.121190 1.154346 0.004846
v 0.900137 -0.819432 -0.011049
v 0.915141 0.928097 0.169517
v 1.121189 -1.030471 -0.216013
v 1.121189 1.154347 0.004846
v -1.121188 -1.030471 -0.083617
v -1.106184 1.139560 0.122931
v 1.136194 1.139560 0.122932
v 1.121189 -1.030471 -0.083617
v -1.121188 0.011110 0.153595
v -1.121189 0.005824 -0.009686
v 1.121189 0.005824 -0.009686
v 1.121189 0.011110 0.153595
v -0.900137 0.004974 0.157543
v 0.900137 0.004974 0.157543
v -0.900138 -0.819432 -0.144478
v -0.900137 0.941105 0.013078
v 0.900137 -0.819431 -0.144478
v 0.900139 0.941105 0.013078
v -0.900137 0.000000 0.000001
v 0.900137 0.000000 0.000001
vt 0.685057 0.161767
vt 0.764363 0.134327
vt 0.762351 0.150050
vt 0.763131 0.334515
vt 0.683014 0.303926
vt 0.761842 0.318158
vt 0.849518 0.315375
vt 0.840072 0.160618
vt 0.849518 0.153409
vt 0.672925 0.310131
vt 0.699422 0.174953
vt 0.762516 0.167087
vt 0.822802 0.294411
vt 0.762927 0.300815
vt 0.838119 0.307831
vt 0.699334 0.290643
vt 0.822421 0.175063
vt 0.880159 0.135627
vt 0.898742 0.356800
vt 0.875206 0.338964
vt 0.662184 0.117853
vt 0.767162 0.089170
vt 0.768696 0.115311
vt 0.661847 0.329612
vt 0.762211 0.368605
vt 0.646737 0.342257
vt 0.766707 0.343114
vt 0.641406 0.102476
vt 0.896907 0.119938
vt 0.609557 0.071463
vt 0.619451 0.368716
vt 0.761089 0.394065
vt 0.924747 0.385539
vt 0.926772 0.093251
vt 0.769170 0.062395
vt 0.677253 0.155038
vn -0.9999 0.0133 -0.0004
vn 0.9999 -0.0133 0.0004
vn -0.0000 -1.0000 -0.0000
vn -0.0000 0.9923 0.1242
vn -0.0182 -0.0127 0.9998
vn 0.0231 -0.2003 0.9795
vn 0.0000 -0.3252 0.9457
vn 0.0000 0.2151 0.9766
vn 0.1839 0.0243 0.9826
vn -0.1075 -0.2208 0.9694
vn 1.0000 -0.0000 0.0000
vn -1.0000 -0.0000 0.0000
vn -0.0000 -0.9966 -0.0829
vn -0.9999 0.0163 -0.0005
vn -0.0000 1.0000 -0.0000
vn 0.9954 0.0013 -0.0954
vn 0.0000 0.3210 -0.9471
vn -0.1298 0.1936 -0.9724
vn -0.0494 0.0126 -0.9987
vn 0.0000 -0.0386 -0.9993
vn 0.0494 0.0126 -0.9987
vn 0.1299 0.1936 -0.9724
vn -0.9920 -0.0016 0.1259
vn 0.9920 0.0016 -0.1259
vn -0.1794 0.0291 0.9833
vn 0.1075 -0.2208 0.9694
vn 0.0182 -0.0133 0.9997
vn -0.0231 -0.2003 0.9795
vn -0.9954 -0.0013 0.0954
vn 0.9999 -0.0163 0.0005
vn -0.0477 0.1734 -0.9837
vn -0.0441 0.0139 -0.9989
vn 0.0441 0.0139 -0.9989
vn 0.0477 0.1734 -0.9837
s off
f 10/1/1 14/2/1 13/3/1
f 15/4/2 11/5/2 16/6/2
f 7/7/3 9/8/3 3/9/3
f 8/10/4 10/1/4 11/5/4
f 2/11/5 13/3/5 17/12/5
f 5/13/6 16/6/6 18/14/6
f 5/13/7 9/8/7 12/15/7
f 6/16/8 10/1/8 2/11/8
f 6/16/9 16/6/9 11/5/9
f 1/17/10 13/3/10 9/8/10
f 15/4/11 12/15/11 7/7/11
f 9/8/12 14/2/12 3/9/12
f 2/18/13 22/19/13 6/20/13
f 1/21/11 23/22/11 17/23/11
f 5/24/12 24/25/12 21/26/12
f 6/20/14 24/25/14 18/27/14
f 1/21/15 21/26/15 19/28/15
f 2/18/16 23/22/16 20/29/16
f 3/30/17 21/26/17 7/31/17
f 21/26/18 15/32/18 7/31/18
f 15/32/19 22/19/19 8/33/19
f 8/33/20 20/29/20 4/34/20
f 20/29/21 14/35/21 4/34/21
f 14/35/22 19/28/22 3/30/22
f 10/1/23 4/36/23 14/2/23
f 15/4/24 8/10/24 11/5/24
f 7/7/3 12/15/3 9/8/3
f 8/10/4 4/36/4 10/1/4
f 2/11/25 10/1/25 13/3/25
f 5/13/26 12/15/26 16/6/26
f 5/13/7 1/17/7 9/8/7
f 6/16/8 11/5/8 10/1/8
f 6/16/27 18/14/27 16/6/27
f 1/17/28 17/12/28 13/3/28
f 15/4/11 16/6/11 12/15/11
f 9/8/12 13/3/12 14/2/12
f 2/18/13 20/29/13 22/19/13
f 1/21/11 19/28/11 23/22/11
f 5/24/12 18/27/12 24/25/12
f 6/20/29 22/19/29 24/25/29
f 1/21/15 5/24/15 21/26/15
f 2/18/30 17/23/30 23/22/30
f 3/30/17 19/28/17 21/26/17
f 21/26/31 24/25/31 15/32/31
f 15/32/32 24/25/32 22/19/32
f 8/33/20 22/19/20 20/29/20
f 20/29/33 23/22/33 14/35/33
f 14/35/34 23/22/34 19/28/34
