# Blender v2.81 (sub 16) OBJ File: 'Boat2.0 - Joined.blend'
# www.blender.org
v 0.180389 0.074533 -0.006139
v 0.180389 0.060260 -0.006139
v 0.059490 0.078924 -0.034501
v 0.040078 0.039773 -0.020629
v 0.180389 0.074532 0.016496
v 0.180388 0.060259 0.016496
v 0.059491 0.078924 0.044857
v 0.040077 0.039773 0.030985
v -0.182304 0.074532 -0.006139
v -0.182304 0.060260 -0.006139
v -0.061407 0.078924 -0.034501
v -0.041993 0.039773 -0.020628
v -0.182304 0.074532 0.016496
v -0.182304 0.060260 0.016496
v -0.061407 0.078924 0.044858
v -0.041993 0.039773 0.030985
v 0.059490 0.047437 0.044857
v 0.059490 0.047437 -0.034501
v -0.061407 0.047437 -0.034501
v -0.061408 0.047437 0.044858
v 0.048179 0.006459 0.036081
v 0.048180 0.006459 -0.025725
v -0.050096 0.006459 -0.025725
v -0.050097 0.006459 0.036081
v -0.038514 0.030027 0.028797
v 0.036598 0.030027 0.028797
v 0.036599 0.030027 -0.018441
v -0.038514 0.030027 -0.018441
v -0.041995 0.018303 0.030985
v -0.041993 0.018303 -0.020628
v 0.040077 0.018303 0.030985
v 0.040077 0.018303 -0.020628
v 0.049784 0.047437 0.040692
v 0.049784 0.047437 -0.030336
v -0.051701 0.047437 -0.030335
v -0.051701 0.047437 0.040692
v 0.055101 0.006459 0.040433
v 0.055100 0.006459 -0.030077
v -0.057017 0.006459 -0.030077
v -0.057017 0.006459 0.040433
v 0.055100 0.000970 0.040433
v 0.055100 0.000970 -0.030077
v -0.057016 0.000970 -0.030077
v -0.057016 0.000970 0.040433
vt 0.846185 0.638563
vt 0.851036 0.644922
vt 0.846787 0.645301
vt 0.811531 0.656959
vt 0.848990 0.659214
vt 0.812369 0.666330
vt 0.809423 0.633338
vt 0.801785 0.613038
vt 0.774602 0.611597
vt 0.803854 0.608985
vt 0.773437 0.636552
vt 0.808586 0.623966
vt 0.887976 0.650130
vt 0.850433 0.638184
vt 0.885865 0.626510
vt 0.845887 0.624482
vt 0.846266 0.628730
vt 0.775546 0.660173
vt 0.738785 0.654947
vt 0.733934 0.648588
vt 0.738183 0.648209
vt 0.739081 0.669028
vt 0.738702 0.664780
vt 0.696993 0.643378
vt 0.734535 0.655327
vt 0.699102 0.666999
vt 0.735978 0.634298
vt 0.772600 0.627180
vt 0.890754 0.648632
vt 0.888864 0.627491
vt 0.779382 0.670527
vt 0.809589 0.667829
vt 0.805585 0.622984
vt 0.775378 0.625682
vt 0.694215 0.644876
vt 0.696103 0.666016
vt 0.679664 0.647558
vt 0.679363 0.667434
vt 0.677489 0.646448
vt 0.899525 0.629450
vt 0.905304 0.645948
vt 0.900898 0.644813
vt 0.685443 0.664056
vt 0.684071 0.648693
vt 0.807611 0.678291
vt 0.781116 0.684525
vt 0.783184 0.680473
vt 0.807029 0.671768
vt 0.783902 0.676831
vt 0.782601 0.673949
vt 0.692163 0.663455
vt 0.687769 0.649021
vt 0.690792 0.648093
vt 0.892804 0.630051
vt 0.897200 0.644486
vt 0.894177 0.645414
vt 0.802367 0.619560
vt 0.778709 0.618677
vt 0.801066 0.616680
vt 0.895943 0.630427
vt 0.777939 0.621742
vt 0.772427 0.610485
vt 0.805651 0.605872
vt 0.805797 0.607505
vt 0.812541 0.683026
vt 0.779171 0.686006
vt 0.905604 0.626072
vt 0.907480 0.647059
vt 0.909113 0.646913
vt 0.677730 0.667580
vt 0.675856 0.646593
vt 0.779316 0.687638
vt 0.848610 0.654965
vt 0.777355 0.615220
vt 0.776383 0.669544
vt 0.736358 0.638544
vt 0.681307 0.665955
vt 0.903660 0.627552
vt 0.810367 0.681914
vt 0.806260 0.674833
vt 0.689025 0.663081
vt 0.772280 0.608852
vt 0.907238 0.625926
vt 0.812688 0.684658
vn 1.0000 0.0000 0.0000
vn 0.2284 -0.0000 -0.9736
vn 0.0363 0.9993 0.0000
vn -0.0000 0.3952 0.9186
vn 0.0000 -0.0000 1.0000
vn 0.1055 -0.9944 0.0000
vn 0.2284 0.0000 0.9736
vn 0.0000 1.0000 0.0000
vn -1.0000 -0.0000 0.0000
vn -0.2284 -0.0000 -0.9736
vn -0.0363 0.9993 0.0000
vn -0.1055 -0.9944 -0.0000
vn 0.0000 0.0000 -1.0000
vn -0.2284 0.0000 0.9736
vn 0.0000 -1.0000 -0.0000
vn 0.0000 -1.0000 0.0001
vn 0.8253 0.5647 0.0000
vn -0.8254 0.5646 -0.0000
vn 0.0000 0.3952 -0.9186
vn -0.0000 -0.2190 -0.9757
vn -0.9418 -0.3362 0.0000
vn 0.9418 -0.3362 0.0000
vn -0.0000 -0.2190 0.9757
vn 0.0000 0.1834 -0.9830
vn -0.9586 0.2846 -0.0000
vn 0.9587 0.2844 0.0000
vn -0.0000 0.1834 0.9830
vn -0.6197 -0.7849 -0.0000
vn -0.0000 -0.7848 0.6197
vn -0.0000 -0.7848 -0.6197
vn 0.6197 -0.7848 0.0000
vn -1.0000 -0.0001 0.0000
vn 0.8254 0.5646 0.0000
vn -0.8253 0.5646 -0.0000
vn 0.0000 -0.2191 0.9757
vn -0.9587 0.2845 0.0000
vn 0.0000 0.1835 0.9830
vn 0.0000 -0.7849 0.6197
vn 1.0000 -0.0001 0.0000
s off
f 5/1/1 2/2/1 1/3/1
f 3/4/2 2/5/2 18/6/2
f 1/3/3 7/7/3 5/1/3
f 31/8/4 24/9/4 21/10/4
f 15/11/5 17/12/5 7/7/5
f 18/13/6 6/14/6 17/15/6
f 7/7/7 6/16/7 5/17/7
f 15/11/8 3/4/8 11/18/8
f 9/19/9 14/20/9 13/21/9
f 11/18/10 10/22/10 9/23/10
f 13/21/11 11/18/11 9/19/11
f 20/24/12 10/25/12 19/26/12
f 18/6/13 11/18/13 3/4/13
f 15/11/14 14/27/14 20/28/14
f 34/29/15 17/15/15 33/30/15
f 35/31/16 18/6/16 34/32/16
f 33/33/16 20/28/16 36/34/16
f 36/35/15 19/26/15 35/36/15
f 24/37/8 39/38/8 40/39/8
f 31/40/17 22/41/17 32/42/17
f 30/43/18 24/37/18 29/44/18
f 32/45/19 23/46/19 30/47/19
f 4/48/20 28/49/20 12/50/20
f 12/51/21 25/52/21 16/53/21
f 8/54/22 27/55/22 4/56/22
f 8/57/23 25/58/23 26/59/23
f 28/49/24 32/45/24 30/47/24
f 25/52/25 30/43/25 29/44/25
f 26/60/26 32/42/26 27/55/26
f 25/58/27 31/8/27 26/59/27
f 12/51/28 36/35/28 35/36/28
f 16/61/29 33/33/29 36/34/29
f 12/50/30 34/32/30 4/48/30
f 4/56/31 33/30/31 8/54/31
f 40/62/5 41/63/5 37/64/5
f 23/46/8 38/65/8 39/66/8
f 21/10/8 40/62/8 37/64/8
f 22/41/8 37/67/8 38/68/8
f 37/67/1 42/69/1 38/68/1
f 40/39/32 43/70/32 44/71/32
f 38/65/13 43/72/13 39/66/13
f 5/1/1 6/14/1 2/2/1
f 3/4/2 1/73/2 2/5/2
f 1/3/3 3/4/3 7/7/3
f 31/8/4 29/74/4 24/9/4
f 15/11/5 20/28/5 17/12/5
f 18/13/6 2/2/6 6/14/6
f 7/7/7 17/12/7 6/16/7
f 15/11/8 7/7/8 3/4/8
f 9/19/32 10/25/32 14/20/32
f 11/18/10 19/75/10 10/22/10
f 13/21/11 15/11/11 11/18/11
f 20/24/12 14/20/12 10/25/12
f 18/6/13 19/75/13 11/18/13
f 15/11/14 13/76/14 14/27/14
f 34/29/15 18/13/15 17/15/15
f 35/31/15 19/75/15 18/6/15
f 33/33/16 17/12/16 20/28/16
f 36/35/15 20/24/15 19/26/15
f 24/37/8 23/77/8 39/38/8
f 31/40/33 21/78/33 22/41/33
f 30/43/34 23/77/34 24/37/34
f 32/45/19 22/79/19 23/46/19
f 4/48/20 27/80/20 28/49/20
f 12/51/21 28/81/21 25/52/21
f 8/54/22 26/60/22 27/55/22
f 8/57/35 16/61/35 25/58/35
f 28/49/24 27/80/24 32/45/24
f 25/52/36 28/81/36 30/43/36
f 26/60/26 31/40/26 32/42/26
f 25/58/37 29/74/37 31/8/37
f 12/51/28 16/53/28 36/35/28
f 16/61/38 8/57/38 33/33/38
f 12/50/30 35/31/30 34/32/30
f 4/56/31 34/29/31 33/30/31
f 40/62/5 44/82/5 41/63/5
f 23/46/8 22/79/8 38/65/8
f 21/10/8 24/9/8 40/62/8
f 22/41/8 21/78/8 37/67/8
f 37/67/39 41/83/39 42/69/39
f 40/39/32 39/38/32 43/70/32
f 38/65/13 42/84/13 43/72/13
