# Blender v2.81 (sub 16) OBJ File: 'Boat2.0 - Joined.blend'
# www.blender.org
v -0.201000 -2.931895 1.386117
v 0.587603 -2.931895 1.386117
v -0.201000 -0.652966 1.386117
v 0.587603 -0.652966 1.386117
v 0.587603 -0.198388 0.959400
v -0.201000 -0.198388 0.959400
v -0.201000 -2.931895 1.759827
v 0.587603 -2.931895 1.759827
v 0.587603 -0.541683 1.759827
v -0.201000 -0.541683 1.759827
v 0.587603 0.073987 1.222107
v -0.201000 0.073987 1.222107
v 0.587603 0.073987 1.222107
v -0.201000 0.073987 1.222107
v -0.201000 -2.931895 -1.386117
v 0.587603 -2.931895 -1.386117
v -0.201000 -0.652966 -1.386117
v 0.587603 -0.652966 -1.386117
v 0.587603 -0.198388 -0.959400
v -0.201000 -0.198388 -0.959400
v 0.587603 -0.198388 0.000000
v -0.201000 -0.198388 0.000000
v -0.201000 -2.931895 -1.759827
v 0.587603 -2.931895 -1.759827
v 0.587603 -0.541683 -1.759827
v -0.201000 -0.541683 -1.759827
v 0.587603 0.073987 -1.222107
v -0.201000 0.073987 -1.222107
v 0.587603 0.073987 -1.222107
v -0.201000 0.073987 -1.222107
v 0.587603 0.073987 0.000000
v -0.201000 0.073987 0.000000
vt 0.201549 0.047468
vt 0.382361 0.100246
vt 0.224158 0.125440
vt 0.992871 0.402147
vt 0.395567 0.329372
vt 0.990179 0.316846
vt 0.394944 0.623115
vt 0.999921 0.601747
vt 0.179568 0.603362
vt 0.398675 0.429306
vt 0.999921 0.049629
vt 0.994056 0.136689
vt 0.205245 0.395247
vt 0.225168 0.309340
vt 0.287789 0.556421
vt 0.001787 0.374086
vt 0.286779 0.372520
vt 0.000079 0.063152
vt 0.000428 0.126669
vt 0.001438 0.310569
vt 0.382361 0.100246
vt 0.201549 0.047468
vt 0.224158 0.125440
vt 0.395567 0.329372
vt 0.992871 0.402147
vt 0.990179 0.316846
vt 0.394944 0.623115
vt 0.999921 0.601747
vt 0.398675 0.429306
vt 0.179568 0.603362
vt 0.999921 0.049629
vt 0.383736 0.000079
vt 0.205245 0.395247
vt 0.287789 0.556421
vt 0.286779 0.372520
vt 0.225168 0.309340
vt 0.994056 0.136689
vt 0.383736 0.000079
vt 0.002797 0.557986
vt 0.285071 0.061586
vt 0.285071 0.061586
vn 1.0000 0.0000 0.0000
vn -1.0000 0.0000 0.0000
vn 0.0000 0.0000 1.0000
vn 0.0000 0.6578 0.7532
vn 0.0000 1.0000 -0.0000
vn 0.0000 -1.0000 0.0000
vn 0.0000 -0.6844 -0.7291
vn 0.0000 0.0000 -1.0000
vn 0.0000 0.6578 -0.7532
vn 0.0000 -0.6844 0.7291
s off
f 11/1/1 4/2/1 5/3/1
f 7/4/2 3/5/2 1/6/2
f 9/7/3 7/4/3 8/8/3
f 11/9/4 10/10/4 9/7/4
f 4/2/1 8/11/1 2/12/1
f 3/5/2 12/13/2 6/14/2
f 13/15/5 32/16/5 14/17/5
f 31/18/1 5/3/1 21/19/1
f 6/14/2 32/16/2 22/20/2
f 5/3/6 22/20/6 21/19/6
f 5/3/7 3/5/7 6/14/7
f 1/6/8 4/2/8 2/12/8
f 18/21/1 27/22/1 19/23/1
f 17/24/2 23/25/2 15/26/2
f 23/25/8 25/27/8 24/28/8
f 26/29/9 27/30/9 25/27/9
f 18/21/1 24/31/1 25/32/1
f 17/24/2 28/33/2 26/29/2
f 32/16/5 29/34/5 30/35/5
f 19/23/1 31/18/1 21/19/1
f 20/36/2 32/16/2 30/35/2
f 22/20/6 19/23/6 21/19/6
f 17/24/10 19/23/10 20/36/10
f 18/21/3 15/26/3 16/37/3
f 11/1/1 9/38/1 4/2/1
f 7/4/2 10/10/2 3/5/2
f 9/7/3 10/10/3 7/4/3
f 11/9/4 12/13/4 10/10/4
f 4/2/1 9/38/1 8/11/1
f 3/5/2 10/10/2 12/13/2
f 13/15/5 31/39/5 32/16/5
f 31/18/1 13/40/1 5/3/1
f 6/14/2 14/17/2 32/16/2
f 5/3/6 6/14/6 22/20/6
f 5/3/7 4/2/7 3/5/7
f 1/6/8 3/5/8 4/2/8
f 18/21/1 25/32/1 27/22/1
f 17/24/2 26/29/2 23/25/2
f 23/25/8 26/29/8 25/27/8
f 26/29/9 28/33/9 27/30/9
f 18/21/1 16/37/1 24/31/1
f 17/24/2 20/36/2 28/33/2
f 32/16/5 31/39/5 29/34/5
f 19/23/1 29/41/1 31/18/1
f 20/36/2 22/20/2 32/16/2
f 22/20/6 20/36/6 19/23/6
f 17/24/10 18/21/10 19/23/10
f 18/21/3 17/24/3 15/26/3
