# Blender v2.81 (sub 16) OBJ File: 'Environtment Rope.blend'
# www.blender.org
v 0.000000 -0.030093 -0.180074
v 0.000000 0.064758 -0.180074
v 0.127331 -0.030093 -0.127331
v 0.127331 0.064758 -0.127331
v 0.180074 -0.030093 0.000000
v 0.180074 0.064758 0.000000
v 0.127331 -0.030093 0.127331
v 0.127331 0.064758 0.127331
v -0.000000 -0.030093 0.180074
v -0.000000 0.064758 0.180074
v -0.127331 -0.030093 0.127331
v -0.127331 0.064758 0.127331
v -0.180074 -0.030093 -0.000000
v -0.180074 0.064758 -0.000000
v -0.127331 -0.030093 -0.127331
v -0.127331 0.064758 -0.127331
v 0.000000 -0.030093 -0.254902
v 0.180243 -0.030093 -0.180243
v 0.180243 0.030093 -0.180243
v 0.000000 0.030093 -0.254902
v 0.254902 -0.030093 0.000000
v 0.254902 0.030093 0.000000
v 0.180243 -0.030093 0.180243
v 0.180243 0.030093 0.180243
v -0.000000 -0.030093 0.254902
v -0.000000 0.030093 0.254902
v -0.180243 -0.030093 0.180243
v -0.180243 0.030093 0.180243
v -0.254902 -0.030093 -0.000000
v -0.254902 0.030093 -0.000000
v -0.180243 -0.030093 -0.180243
v -0.180243 0.030093 -0.180243
v 0.169289 0.010277 0.149694
v 0.080804 0.012999 0.311259
v 0.181986 0.005441 0.156730
v 0.093501 0.008164 0.318295
v 0.179702 -0.008788 0.157903
v 0.099408 -0.005519 0.321760
v 0.183548 -0.022756 0.158060
v 0.095063 -0.020034 0.319625
v 0.171497 -0.029601 0.151576
v 0.083012 -0.026878 0.313141
v 0.158799 -0.024765 0.144540
v 0.070314 -0.022042 0.306105
v 0.152893 -0.011082 0.141075
v 0.064408 -0.008359 0.302640
v 0.157238 0.003433 0.143210
v 0.068753 0.006155 0.304775
v -0.035736 0.005770 0.389485
v -0.037111 0.011361 0.375309
v -0.034918 -0.008252 0.395553
v -0.035137 -0.022492 0.389958
v -0.036263 -0.028607 0.375977
v -0.037638 -0.023016 0.361801
v -0.038456 -0.008993 0.355733
v -0.038237 0.005246 0.361329
v -0.186104 0.002610 0.367698
v -0.185625 0.008325 0.353513
v -0.186076 -0.011465 0.373699
v -0.185556 -0.025655 0.367999
v -0.184849 -0.031648 0.353939
v -0.184369 -0.025933 0.339753
v -0.184398 -0.011858 0.333753
v -0.184918 0.002332 0.339452
v -0.185237 -0.011661 0.353726
v -0.134849 0.007749 -0.217216
v -0.176624 0.014531 -0.131972
v -0.119885 0.005501 -0.214946
v -0.163611 0.009360 -0.125804
v -0.108756 -0.001740 -0.222550
v -0.157018 -0.004375 -0.124388
v -0.107981 -0.009732 -0.235575
v -0.160707 -0.018628 -0.128554
v -0.118014 -0.013793 -0.246390
v -0.172517 -0.025050 -0.135862
v -0.132977 -0.011545 -0.248660
v -0.185529 -0.019879 -0.142031
v -0.144106 -0.004304 -0.241056
v -0.192122 -0.006144 -0.143446
v -0.144881 0.003688 -0.228031
v -0.188433 0.008109 -0.139280
v -0.102258 0.073750 -0.218862
v -0.091277 0.063173 -0.220152
v -0.081195 0.059312 -0.230994
v -0.077918 0.064428 -0.245037
v -0.083365 0.075524 -0.254054
v -0.094346 0.086101 -0.252764
v -0.104428 0.089962 -0.241922
v -0.107705 0.084846 -0.227879
v -0.014767 -0.059259 -0.117016
v -0.000693 -0.059628 -0.123007
v 0.013474 -0.058014 -0.117458
v 0.019435 -0.055362 -0.103618
v 0.013699 -0.053225 -0.089595
v -0.000376 -0.052856 -0.083604
v -0.014543 -0.054470 -0.089153
v -0.020504 -0.057122 -0.102993
v -0.050811 0.096271 -0.173045
v -0.046295 0.108477 -0.165000
v -0.033996 0.117578 -0.165134
v -0.021118 0.118243 -0.173369
v -0.015205 0.110081 -0.184882
v -0.019720 0.097875 -0.192927
v -0.032019 0.088774 -0.192793
v -0.044897 0.088109 -0.184558
vt 0.098773 0.536533
vt 0.235859 0.811398
vt 0.002501 0.571455
vt 0.280538 0.718631
vt 0.571309 0.814001
vt 0.536473 0.716951
vt 0.808919 0.576344
vt 0.715322 0.532708
vt 0.808919 0.239591
vt 0.711670 0.274735
vt 0.571443 0.000598
vt 0.527357 0.094068
vt 0.235245 0.000142
vt 0.270447 0.096954
vt 0.000142 0.238382
vt 0.093210 0.281262
vt 0.197803 0.494715
vt 0.494571 0.619169
vt 0.321037 0.620436
vt 0.615749 0.493211
vt 0.612825 0.316859
vt 0.487120 0.193238
vt 0.312471 0.194527
vt 0.192136 0.319844
vt 0.292399 0.450163
vt 0.287554 0.350458
vt 0.356075 0.284851
vt 0.452785 0.289028
vt 0.520540 0.361468
vt 0.519192 0.460737
vt 0.450239 0.529017
vt 0.355345 0.526491
vt 0.883846 0.349094
vt 0.900901 0.569512
vt 0.882647 0.569292
vt 0.901507 0.354338
vt 0.918748 0.567291
vt 0.938071 0.354437
vt 0.936668 0.569825
vt 0.955805 0.569870
vt 0.809202 0.349753
vt 0.830555 0.569352
vt 0.812295 0.569609
vt 0.846303 0.341417
vt 0.848023 0.569179
vt 0.920132 0.178280
vt 0.919771 0.356070
vt 0.865219 0.569158
vt 0.865715 0.343461
vt 0.955805 0.180150
vt 0.934815 0.023428
vt 0.951012 0.011765
vt 0.827041 0.343842
vt 0.811282 0.179823
vt 0.828413 0.182100
vt 0.884543 0.180256
vt 0.902283 0.178640
vt 0.938017 0.178620
vt 0.847921 0.183212
vt 0.955584 0.349171
vt 0.867435 0.182338
vt 0.849486 0.005341
vt 0.836564 0.026891
vt 0.820900 0.017719
vt 0.919664 0.026600
vt 0.862052 0.027099
vt 0.904500 0.023535
vt 0.877859 0.018187
vt 0.849292 0.028971
vt 0.919571 0.000142
vt 0.379222 0.941488
vt 0.532815 0.980326
vt 0.367845 0.965203
vt 0.528634 0.999858
vt 0.353806 0.982422
vt 0.366714 0.837007
vt 0.535610 0.838051
vt 0.361499 0.853494
vt 0.536090 0.864471
vt 0.363541 0.868255
vt 0.367448 0.883811
vt 0.535885 0.892807
vt 0.375568 0.900065
vt 0.535796 0.919071
vt 0.383330 0.918443
vt 0.536090 0.940670
vt 0.271573 0.874499
vt 0.269978 0.920527
vt 0.270584 0.953591
vt 0.271152 0.936198
vt 0.273952 0.842308
vt 0.270782 0.889183
vt 0.273033 0.860165
vt 0.269842 0.904937
vt 0.178753 0.919490
vt 0.002082 0.924477
vt 0.174314 0.908766
vt 0.179262 0.872451
vt 0.002962 0.889118
vt 0.007457 0.874152
vt 0.000142 0.906551
vt 0.173753 0.897013
vt 0.185792 0.930538
vt 0.007489 0.939868
vt 0.187851 0.946172
vt 0.013245 0.952813
vt 0.184791 0.858409
vt 0.010514 0.860468
vt 0.185390 0.840826
vt 0.010671 0.844252
vt 0.174579 0.884263
vt 0.888227 0.011998
vt 0.535653 0.960608
vt 0.535175 0.814284
vt 0.267568 0.973330
vt 0.018099 0.967935
vn 0.3827 0.0000 -0.9239
vn 0.9239 0.0000 -0.3827
vn 0.9239 0.0000 0.3827
vn 0.3827 0.0000 0.9239
vn -0.3827 0.0000 0.9239
vn -0.9239 0.0000 0.3827
vn -0.9239 0.0000 -0.3827
vn -0.3827 0.0000 -0.9239
vn 0.1715 0.8939 -0.4141
vn 0.4141 0.8939 -0.1715
vn 0.4141 0.8939 0.1715
vn 0.1715 0.8939 0.4141
vn -0.1715 0.8939 0.4141
vn -0.4141 0.8939 0.1715
vn -0.4141 0.8939 -0.1715
vn -0.1715 0.8939 -0.4141
vn 0.2840 0.9486 0.1395
vn 0.8719 -0.1004 0.4792
vn 0.8531 0.2401 0.4632
vn 0.3860 -0.8943 0.2265
vn -0.2840 -0.9486 -0.1395
vn -0.7876 -0.4473 -0.4238
vn 0.4365 0.3933 0.8092
vn -0.8299 0.3160 -0.4598
vn -0.3860 0.8943 -0.2265
vn -0.0390 -0.9199 0.3901
vn -0.1708 -0.9221 -0.3471
vn -0.2517 0.8613 -0.4413
vn 0.1674 0.9272 0.3351
vn 0.4532 -0.3320 0.8273
vn -0.4223 -0.3806 -0.8227
vn 0.2118 -0.9015 0.3773
vn -0.4529 0.2610 -0.8525
vn -0.9989 -0.0198 -0.0418
vn -0.1400 0.3863 0.9117
vn 0.1306 0.3608 -0.9234
vn 0.0741 -0.9259 -0.3705
vn -0.1263 -0.3737 0.9189
vn -0.0734 0.9253 0.3721
vn 0.0405 0.9142 -0.4032
vn 0.1447 -0.3878 -0.9103
vn 0.1444 0.9891 0.0280
vn 0.6661 0.6612 0.3452
vn 0.7953 -0.4944 0.3507
vn 0.3179 -0.9462 0.0604
vn -0.1228 -0.9794 -0.1603
vn -0.6729 -0.6339 -0.3812
vn -0.7677 0.5248 -0.3677
vn -0.2211 0.9626 -0.1564
vn 0.1289 -0.1343 -0.9825
vn -0.7495 0.3422 0.5667
vn 0.0955 -0.0223 0.9952
vn 0.8898 -0.3635 0.2760
vn -0.4860 0.1561 -0.8599
vn 0.7459 -0.3728 -0.5519
vn -0.8858 0.3703 -0.2799
vn 0.4828 -0.1618 0.8606
vn -0.2661 0.3727 0.8890
vn 0.9182 0.0037 -0.3962
vn 0.4603 0.4634 0.7572
vn -0.8931 0.0347 0.4485
vn -0.9182 -0.2997 -0.2591
vn 0.3767 -0.3279 -0.8664
vn -0.3600 -0.4485 -0.8180
vn 0.8877 0.3389 0.3115
vn 0.2685 -0.8985 0.3473
vn 0.4613 0.5626 -0.6860
vn -0.4624 0.8623 0.2062
vn -0.0037 -0.8167 0.5770
vn 0.7735 -0.1251 -0.6213
vn 0.0013 0.9424 -0.3344
vn -0.5715 0.7762 0.2664
vn -0.5557 -0.3044 0.7736
vn 0.8071 0.4463 0.3866
vn 0.8493 -0.3164 0.4225
vn 0.4413 0.3779 0.8139
vn -0.0396 -0.9143 0.4031
vn -0.1651 -0.9263 -0.3388
vn -0.2074 0.9023 -0.3780
vn 0.1754 0.9215 0.3465
vn 0.4685 -0.2642 0.8430
vn -0.4196 -0.3889 -0.8202
vn 0.2534 -0.8620 0.4389
vn -0.4337 0.3353 -0.8363
vn -0.1401 0.3881 0.9109
vn 0.1310 0.3736 -0.9183
vn 0.0741 -0.9252 -0.3721
vn -0.1259 -0.3611 0.9240
vn -0.0733 0.9259 0.3706
vn 0.0399 0.9199 -0.3901
vn 0.1446 -0.3858 -0.9112
vn 0.3316 0.9393 0.0878
vn 0.8171 0.4316 0.3821
vn 0.8479 -0.3387 0.4078
vn 0.4116 -0.9024 0.1278
vn -0.2742 -0.9388 -0.2085
vn -0.8072 -0.4292 -0.4052
vn -0.8369 0.3416 -0.4277
vn -0.3443 0.9074 -0.2409
vn -0.1137 0.0032 -0.9935
vn -0.5936 0.3116 0.7420
vn -0.1261 0.1510 0.9805
vn 0.9272 -0.3652 0.0833
vn -0.6555 0.2694 -0.7055
vn 0.6082 -0.2990 -0.7353
vn -0.9075 0.4158 -0.0603
vn 0.6780 -0.2086 0.7048
vn -0.3767 0.3296 0.8657
vn 0.8926 -0.0339 -0.4495
vn 0.3581 0.4595 0.8128
vn -0.9184 -0.0007 0.3957
vn -0.8912 -0.3265 -0.3148
vn 0.2666 -0.3734 -0.8885
vn -0.4629 -0.4553 -0.7605
vn 0.9170 0.3092 0.2518
vn 0.5915 -0.7921 -0.1505
vn 0.5688 0.2955 -0.7675
vn -0.2081 0.9459 -0.2490
vn 0.1367 -0.8862 0.4427
vn 0.5640 -0.7667 -0.3069
vn 0.1441 0.8407 -0.5220
vn -0.7362 0.1707 0.6548
vn -0.4233 -0.5292 0.7354
s off
f 20/1/1 18/2/1 17/3/1
f 19/4/2 21/5/2 18/2/2
f 22/6/3 23/7/3 21/5/3
f 24/8/4 25/9/4 23/7/4
f 26/10/5 27/11/5 25/9/5
f 28/12/6 29/13/6 27/11/6
f 30/14/7 31/15/7 29/13/7
f 32/16/8 17/3/8 31/15/8
f 2/17/9 19/4/9 20/1/9
f 6/18/10 19/4/10 4/19/10
f 8/20/11 22/6/11 6/18/11
f 10/21/12 24/8/12 8/20/12
f 12/22/13 26/10/13 10/21/13
f 14/23/14 28/12/14 12/22/14
f 16/24/15 30/14/15 14/23/15
f 2/17/16 32/16/16 16/24/16
f 16/24/4 1/25/4 2/17/4
f 14/23/3 15/26/3 16/24/3
f 12/22/2 13/27/2 14/23/2
f 10/21/1 11/28/1 12/22/1
f 8/20/8 9/29/8 10/21/8
f 6/18/7 7/30/7 8/20/7
f 4/19/6 5/31/6 6/18/6
f 2/17/5 3/32/5 4/19/5
f 34/33/17 35/34/17 33/35/17
f 36/36/18 37/37/18 35/34/18
f 37/37/19 40/38/19 39/39/19
f 40/38/20 41/40/20 39/39/20
f 42/41/21 43/42/21 41/43/21
f 43/42/22 46/44/22 45/45/22
f 36/36/23 51/46/23 38/47/23
f 46/44/24 47/48/24 45/45/24
f 48/49/25 33/35/25 47/48/25
f 53/50/26 60/51/26 61/52/26
f 44/53/27 53/54/27 54/55/27
f 48/49/28 50/56/28 34/33/28
f 34/33/29 49/57/29 36/36/29
f 40/38/30 51/46/30 52/58/30
f 46/44/31 54/55/31 55/59/31
f 42/60/32 52/58/32 53/50/32
f 46/44/33 56/61/33 48/49/33
f 65/62/34 62/63/34 61/64/34
f 49/57/35 59/65/35 51/46/35
f 55/59/36 64/66/36 56/61/36
f 54/55/37 61/64/37 62/63/37
f 52/58/38 59/65/38 60/51/38
f 50/56/39 57/67/39 49/57/39
f 56/61/40 58/68/40 50/56/40
f 55/59/41 62/63/41 63/69/41
f 65/70/34 60/51/34 59/65/34
f 64/66/34 65/62/34 58/68/34
f 57/67/34 65/70/34 59/65/34
f 66/71/42 69/72/42 68/73/42
f 68/73/43 71/74/43 70/75/43
f 70/76/44 73/77/44 72/78/44
f 72/78/45 75/79/45 74/80/45
f 75/79/46 76/81/46 74/80/46
f 77/82/47 78/83/47 76/81/47
f 79/84/48 80/85/48 78/83/48
f 81/86/49 66/71/49 80/85/49
f 76/81/50 86/87/50 74/80/50
f 66/71/51 89/88/51 80/85/51
f 66/71/52 83/89/52 82/90/52
f 72/78/53 84/91/53 70/76/53
f 78/83/54 87/92/54 76/81/54
f 74/80/55 85/93/55 72/78/55
f 80/85/56 88/94/56 78/83/56
f 70/75/57 83/89/57 68/73/57
f 99/95/58 95/96/58 100/97/58
f 103/98/59 93/99/59 92/100/59
f 100/97/60 94/101/60 101/102/60
f 98/103/61 96/104/61 99/95/61
f 105/105/62 97/106/62 98/103/62
f 104/107/63 92/100/63 91/108/63
f 105/109/64 91/108/64 90/110/64
f 102/111/65 94/101/65 93/99/65
f 84/91/66 104/107/66 105/109/66
f 87/92/67 103/98/67 86/87/67
f 89/88/68 101/102/68 88/94/68
f 83/89/69 105/105/69 98/103/69
f 86/87/70 104/107/70 85/93/70
f 88/94/71 102/111/71 87/92/71
f 89/88/72 99/95/72 100/97/72
f 82/90/73 98/103/73 99/95/73
f 20/1/1 19/4/1 18/2/1
f 19/4/2 22/6/2 21/5/2
f 22/6/3 24/8/3 23/7/3
f 24/8/4 26/10/4 25/9/4
f 26/10/5 28/12/5 27/11/5
f 28/12/6 30/14/6 29/13/6
f 30/14/7 32/16/7 31/15/7
f 32/16/8 20/1/8 17/3/8
f 2/17/9 4/19/9 19/4/9
f 6/18/10 22/6/10 19/4/10
f 8/20/11 24/8/11 22/6/11
f 10/21/12 26/10/12 24/8/12
f 12/22/13 28/12/13 26/10/13
f 14/23/14 30/14/14 28/12/14
f 16/24/15 32/16/15 30/14/15
f 2/17/16 20/1/16 32/16/16
f 16/24/4 15/26/4 1/25/4
f 14/23/3 13/27/3 15/26/3
f 12/22/2 11/28/2 13/27/2
f 10/21/1 9/29/1 11/28/1
f 8/20/8 7/30/8 9/29/8
f 6/18/7 5/31/7 7/30/7
f 4/19/6 3/32/6 5/31/6
f 2/17/5 1/25/5 3/32/5
f 34/33/17 36/36/17 35/34/17
f 36/36/74 38/47/74 37/37/74
f 37/37/75 38/47/75 40/38/75
f 40/38/20 42/60/20 41/40/20
f 42/41/21 44/53/21 43/42/21
f 43/42/22 44/53/22 46/44/22
f 36/36/76 49/57/76 51/46/76
f 46/44/24 48/49/24 47/48/24
f 48/49/25 34/33/25 33/35/25
f 53/50/77 52/58/77 60/51/77
f 44/53/78 42/41/78 53/54/78
f 48/49/79 56/61/79 50/56/79
f 34/33/80 50/56/80 49/57/80
f 40/38/81 38/47/81 51/46/81
f 46/44/82 44/53/82 54/55/82
f 42/60/83 40/38/83 52/58/83
f 46/44/84 55/59/84 56/61/84
f 65/62/34 63/69/34 62/63/34
f 49/57/85 57/67/85 59/65/85
f 55/59/86 63/69/86 64/66/86
f 54/55/87 53/54/87 61/64/87
f 52/58/88 51/46/88 59/65/88
f 50/56/89 58/112/89 57/67/89
f 56/61/90 64/66/90 58/68/90
f 55/59/91 54/55/91 62/63/91
f 65/70/34 61/52/34 60/51/34
f 64/66/34 63/69/34 65/62/34
f 57/67/34 58/112/34 65/70/34
f 66/71/92 67/113/92 69/72/92
f 68/73/93 69/72/93 71/74/93
f 70/76/94 71/114/94 73/77/94
f 72/78/95 73/77/95 75/79/95
f 75/79/96 77/82/96 76/81/96
f 77/82/97 79/84/97 78/83/97
f 79/84/98 81/86/98 80/85/98
f 81/86/99 67/113/99 66/71/99
f 76/81/100 87/92/100 86/87/100
f 66/71/101 82/90/101 89/88/101
f 66/71/102 68/73/102 83/89/102
f 72/78/103 85/93/103 84/91/103
f 78/83/104 88/94/104 87/92/104
f 74/80/105 86/87/105 85/93/105
f 80/85/106 89/88/106 88/94/106
f 70/75/107 84/115/107 83/89/107
f 99/95/108 96/104/108 95/96/108
f 103/98/109 102/111/109 93/99/109
f 100/97/110 95/96/110 94/101/110
f 98/103/111 97/106/111 96/104/111
f 105/105/112 90/116/112 97/106/112
f 104/107/113 103/98/113 92/100/113
f 105/109/114 104/107/114 91/108/114
f 102/111/115 101/102/115 94/101/115
f 84/91/116 85/93/116 104/107/116
f 87/92/117 102/111/117 103/98/117
f 89/88/118 100/97/118 101/102/118
f 83/89/119 84/115/119 105/105/119
f 86/87/120 103/98/120 104/107/120
f 88/94/121 101/102/121 102/111/121
f 89/88/122 82/90/122 99/95/122
f 82/90/123 83/89/123 98/103/123
