# Blender v2.81 (sub 16) OBJ File: 'Boat2.0 - Joined.blend'
# www.blender.org
v -0.095688 -0.030093 -0.152546
v -0.095688 0.064758 -0.152546
v 0.040205 -0.030093 -0.175528
v 0.040205 0.064758 -0.175528
v 0.152546 -0.030093 -0.095688
v 0.152546 0.064758 -0.095688
v 0.175528 -0.030093 0.040205
v 0.175528 0.064758 0.040205
v 0.095688 -0.030093 0.152546
v 0.095688 0.064758 0.152546
v -0.040205 -0.030093 0.175528
v -0.040205 0.064758 0.175528
v -0.152546 -0.030093 0.095688
v -0.152546 0.064758 0.095688
v -0.175528 -0.030093 -0.040205
v -0.175528 0.064758 -0.040205
v -0.135450 -0.030093 -0.215935
v 0.056912 -0.030093 -0.248467
v 0.056912 0.030093 -0.248467
v -0.135450 0.030093 -0.215935
v 0.215935 -0.030093 -0.135450
v 0.215935 0.030093 -0.135450
v 0.248467 -0.030093 0.056912
v 0.248467 0.030093 0.056912
v 0.135450 -0.030093 0.215935
v 0.135450 0.030093 0.215935
v -0.056912 -0.030093 0.248467
v -0.056912 0.030093 0.248467
v -0.215935 -0.030093 0.135450
v -0.215935 0.030093 0.135450
v -0.248467 -0.030093 -0.056912
v -0.248467 0.030093 -0.056912
v 0.222955 0.010277 0.036854
v 0.233849 0.012999 0.220740
v 0.237450 0.005441 0.036067
v 0.248344 0.008164 0.219953
v 0.236138 -0.008788 0.038275
v 0.255189 -0.005519 0.219750
v 0.239479 -0.022756 0.036364
v 0.250374 -0.020034 0.220250
v 0.225825 -0.029601 0.037275
v 0.236719 -0.026878 0.221161
v 0.211330 -0.024765 0.038062
v 0.222224 -0.022042 0.221948
v 0.204485 -0.011082 0.038265
v 0.215379 -0.008359 0.222151
v 0.209300 0.003433 0.037765
v 0.220195 0.006155 0.221651
v 0.176692 0.005770 0.348935
v 0.167994 0.011361 0.337656
v 0.180609 -0.008252 0.353640
v 0.177451 -0.022492 0.349017
v 0.169067 -0.028607 0.337772
v 0.160370 -0.023016 0.326494
v 0.156453 -0.008993 0.321788
v 0.159611 0.005246 0.326412
v 0.037733 0.002610 0.410381
v 0.030601 0.008325 0.398110
v 0.040945 -0.011465 0.415450
v 0.038357 -0.025655 0.410345
v 0.031485 -0.031648 0.398058
v 0.024353 -0.025933 0.385787
v 0.021141 -0.011858 0.380719
v 0.023729 0.002332 0.385823
v 0.031043 -0.011661 0.398084
v -0.229659 0.007749 -0.112355
v -0.219751 0.014531 -0.017943
v -0.215777 0.005501 -0.118383
v -0.205450 0.009360 -0.019632
v -0.210390 -0.001740 -0.130738
v -0.199113 -0.004375 -0.021937
v -0.216654 -0.009732 -0.142184
v -0.204451 -0.018628 -0.023506
v -0.230900 -0.013793 -0.146015
v -0.218339 -0.025050 -0.023421
v -0.244782 -0.011545 -0.139987
v -0.232640 -0.019879 -0.021732
v -0.250169 -0.004304 -0.127631
v -0.238977 -0.006144 -0.019428
v -0.243905 0.003688 -0.116185
v -0.233639 0.008109 -0.017859
v -0.202925 0.073750 -0.131067
v -0.194309 0.063173 -0.137995
v -0.191529 0.059312 -0.152537
v -0.196215 0.064428 -0.166175
v -0.205621 0.075524 -0.170919
v -0.214237 0.086101 -0.163991
v -0.217017 0.089962 -0.149449
v -0.212331 0.084846 -0.135811
v -0.074690 -0.059259 -0.091281
v -0.065951 -0.059628 -0.103835
v -0.051001 -0.058014 -0.106662
v -0.038596 -0.055362 -0.098106
v -0.036005 -0.053225 -0.083178
v -0.044744 -0.052856 -0.070624
v -0.059694 -0.054470 -0.067797
v -0.072098 -0.057122 -0.076353
v -0.134996 0.096271 -0.119593
v -0.126896 0.108477 -0.115176
v -0.116548 0.117578 -0.121825
v -0.110015 0.118243 -0.135645
v -0.111123 0.110081 -0.148540
v -0.119223 0.097875 -0.152956
v -0.129571 0.088774 -0.146307
v -0.136104 0.088109 -0.132488
vt 0.689122 0.882217
vt 0.716190 0.936490
vt 0.670113 0.889112
vt 0.725012 0.918173
vt 0.782426 0.937004
vt 0.775547 0.917841
vt 0.829342 0.890077
vt 0.810861 0.881461
vt 0.829342 0.823584
vt 0.810140 0.830524
vt 0.782452 0.776394
vt 0.773747 0.794850
vt 0.716069 0.776304
vt 0.723019 0.795420
vt 0.669647 0.823346
vt 0.688023 0.831812
vt 0.708676 0.873960
vt 0.767273 0.898533
vt 0.733008 0.898784
vt 0.791201 0.873663
vt 0.790623 0.838841
vt 0.765802 0.814432
vt 0.731317 0.814686
vt 0.707557 0.839431
vt 0.727354 0.865162
vt 0.726397 0.845475
vt 0.739927 0.832521
vt 0.759023 0.833346
vt 0.772401 0.847649
vt 0.772135 0.867250
vt 0.758520 0.880732
vt 0.739783 0.880234
vt 0.804332 0.691324
vt 0.808118 0.740259
vt 0.804066 0.740210
vt 0.808253 0.692488
vt 0.812081 0.739766
vt 0.816370 0.692510
vt 0.816059 0.740328
vt 0.820308 0.740338
vt 0.787760 0.691470
vt 0.792501 0.740224
vt 0.788447 0.740281
vt 0.795997 0.689619
vt 0.796379 0.740185
vt 0.812388 0.653401
vt 0.812308 0.692872
vt 0.800197 0.740180
vt 0.800306 0.690073
vt 0.820308 0.653816
vt 0.815648 0.619021
vt 0.819243 0.616432
vt 0.791721 0.690157
vt 0.788222 0.653743
vt 0.792025 0.654249
vt 0.804487 0.653839
vt 0.808425 0.653480
vt 0.816359 0.653476
vt 0.796356 0.654495
vt 0.820259 0.691341
vt 0.800689 0.654302
vt 0.796704 0.615006
vt 0.793835 0.619790
vt 0.790357 0.617754
vt 0.812284 0.619726
vt 0.799493 0.619836
vt 0.808917 0.619045
vt 0.803003 0.617858
vt 0.796660 0.620252
vt 0.812263 0.613852
vt 0.705286 0.709926
vt 0.695187 0.749866
vt 0.699119 0.706967
vt 0.690108 0.748779
vt 0.694642 0.703317
vt 0.732455 0.706673
vt 0.732184 0.750593
vt 0.728168 0.705317
vt 0.725314 0.750718
vt 0.724330 0.705848
vt 0.720285 0.706864
vt 0.717945 0.750665
vt 0.716058 0.708975
vt 0.711116 0.750641
vt 0.711279 0.710994
vt 0.705499 0.750718
vt 0.722706 0.681933
vt 0.710737 0.681518
vt 0.702139 0.681675
vt 0.706662 0.681823
vt 0.731077 0.682551
vt 0.718888 0.681727
vt 0.726433 0.682312
vt 0.714791 0.681483
vt 0.711007 0.657795
vt 0.709710 0.611854
vt 0.713795 0.656641
vt 0.723239 0.657928
vt 0.718905 0.612083
vt 0.722797 0.613252
vt 0.714371 0.611349
vt 0.716852 0.656495
vt 0.708134 0.659626
vt 0.705708 0.613260
vt 0.704068 0.660161
vt 0.702341 0.614757
vt 0.726890 0.659366
vt 0.726355 0.614047
vt 0.731462 0.659521
vt 0.730572 0.614088
vt 0.720167 0.656710
vt 0.805304 0.616484
vt 0.700314 0.750604
vt 0.738364 0.750480
vt 0.697006 0.680891
vt 0.698409 0.616019
vn -0.1667 0.0000 -0.9860
vn 0.5793 0.0000 -0.8151
vn 0.9860 0.0000 -0.1667
vn 0.8151 0.0000 0.5793
vn 0.1667 0.0000 0.9860
vn -0.5793 0.0000 0.8151
vn -0.9860 0.0000 0.1667
vn -0.8151 0.0000 -0.5793
vn -0.0747 0.8939 -0.4420
vn 0.2597 0.8939 -0.3654
vn 0.4420 0.8939 -0.0747
vn 0.3654 0.8939 0.2597
vn 0.0747 0.8939 0.4420
vn -0.2597 0.8939 0.3654
vn -0.4420 0.8939 0.0747
vn -0.3654 0.8939 -0.2597
vn 0.3147 0.9486 -0.0327
vn 0.9933 -0.1005 -0.0574
vn 0.9688 0.2401 -0.0610
vn 0.4474 -0.8943 -0.0133
vn -0.3147 -0.9486 0.0327
vn -0.8924 -0.4473 0.0595
vn 0.7998 0.3933 0.4535
vn -0.9473 0.3160 0.0514
vn -0.4473 0.8943 0.0133
vn 0.1742 -0.9199 0.3512
vn -0.3291 -0.9221 -0.2033
vn -0.4477 0.8613 -0.2401
vn 0.3199 0.9272 0.1949
vn 0.8235 -0.3320 0.4600
vn -0.7949 -0.3806 -0.4725
vn 0.3799 -0.9015 0.2070
vn -0.8367 0.2610 -0.4816
vn -0.8684 -0.0198 0.4954
vn 0.3658 0.3863 0.8467
vn -0.3801 0.3608 -0.8517
vn -0.1341 -0.9259 -0.3532
vn 0.3813 -0.3737 0.8455
vn 0.1356 0.9253 0.3542
vn -0.1799 0.9142 -0.3630
vn -0.3611 -0.3878 -0.8481
vn 0.1372 0.9891 -0.0530
vn 0.7477 0.6612 -0.0615
vn 0.8601 -0.4944 -0.1255
vn 0.3014 -0.9462 -0.1178
vn -0.1893 -0.9794 -0.0705
vn -0.7726 -0.6339 0.0347
vn -0.8457 0.5248 0.0964
vn -0.2704 0.9626 -0.0150
vn -0.4129 -0.1343 -0.9008
vn -0.3338 0.3422 0.8783
vn 0.6097 -0.0223 0.7923
vn 0.9004 -0.3635 -0.2390
vn -0.8686 0.1561 -0.4702
vn 0.3386 -0.3728 -0.8639
vn -0.8991 0.3703 0.2336
vn 0.8663 -0.1618 0.4725
vn 0.2469 0.3727 0.8945
vn 0.5673 0.0037 -0.8235
vn 0.7923 0.4634 0.3969
vn -0.5182 0.0347 0.8545
vn -0.9155 -0.2997 0.2684
vn -0.1412 -0.3279 -0.9341
vn -0.7397 -0.4485 -0.5017
vn 0.9176 0.3389 -0.2078
vn 0.4120 -0.8985 0.1516
vn 0.0262 0.5626 -0.8263
vn -0.2822 0.8623 0.4204
vn 0.3035 -0.8167 0.4908
vn 0.3252 -0.1251 -0.9373
vn -0.1766 0.9424 -0.2840
vn -0.3425 0.7762 0.5293
vn -0.0597 -0.3044 0.9507
vn 0.8891 0.4463 -0.1014
vn 0.9440 -0.3164 -0.0934
vn 0.8063 0.3779 0.4550
vn -0.4474 0.8943 0.0133
vn 0.1806 -0.9143 0.3625
vn -0.3198 -0.9263 -0.1993
vn -0.3766 0.9023 -0.2099
vn 0.3327 0.9215 0.2003
vn 0.8448 -0.2642 0.4652
vn -0.7913 -0.3889 -0.4718
vn 0.4479 -0.8620 0.2372
vn -0.8119 0.3353 -0.4780
vn 0.3653 0.3881 0.8461
vn -0.3770 0.3736 -0.8475
vn -0.1349 -0.9252 -0.3546
vn 0.3843 -0.3611 0.8496
vn 0.1348 0.9259 0.3529
vn -0.1735 0.9199 -0.3517
vn -0.3617 -0.3858 -0.8487
vn 0.3276 0.9393 -0.1019
vn 0.8953 0.4316 -0.1105
vn 0.9350 -0.3387 -0.1051
vn 0.4166 -0.9024 -0.1105
vn -0.3431 -0.9388 -0.0309
vn -0.8991 -0.4292 0.0857
vn -0.9362 0.3416 0.0824
vn -0.4197 0.9074 -0.0211
vn -0.6242 0.0032 -0.7812
vn -0.1085 0.3116 0.9440
vn 0.4142 0.1510 0.8976
vn 0.8297 -0.3652 -0.4221
vn -0.9302 0.2694 -0.2493
vn 0.1244 -0.2990 -0.9461
vn -0.8008 0.4158 0.4311
vn 0.9489 -0.2086 0.2368
vn 0.1409 0.3296 0.9336
vn 0.5173 -0.0339 -0.8551
vn 0.7353 0.4595 0.4983
vn -0.5677 -0.0007 0.8232
vn -0.9223 -0.3265 0.2069
vn -0.2463 -0.3734 -0.8944
vn -0.7962 -0.4553 -0.3983
vn 0.9107 0.3092 -0.2740
vn 0.4211 -0.7921 -0.4418
vn 0.0740 0.2955 -0.9525
vn -0.3086 0.9459 -0.1004
vn 0.3511 -0.8862 0.3024
vn 0.3147 -0.7667 -0.5596
vn -0.1553 0.8407 -0.5187
vn -0.2757 0.1707 0.9460
vn 0.0322 -0.5292 0.8479
s off
f 20/1/1 18/2/1 17/3/1
f 19/4/2 21/5/2 18/2/2
f 22/6/3 23/7/3 21/5/3
f 24/8/4 25/9/4 23/7/4
f 26/10/5 27/11/5 25/9/5
f 28/12/6 29/13/6 27/11/6
f 30/14/7 31/15/7 29/13/7
f 32/16/8 17/3/8 31/15/8
f 2/17/9 19/4/9 20/1/9
f 6/18/10 19/4/10 4/19/10
f 8/20/11 22/6/11 6/18/11
f 10/21/12 24/8/12 8/20/12
f 12/22/13 26/10/13 10/21/13
f 14/23/14 28/12/14 12/22/14
f 16/24/15 30/14/15 14/23/15
f 2/17/16 32/16/16 16/24/16
f 16/24/4 1/25/4 2/17/4
f 14/23/3 15/26/3 16/24/3
f 12/22/2 13/27/2 14/23/2
f 10/21/1 11/28/1 12/22/1
f 8/20/8 9/29/8 10/21/8
f 6/18/7 7/30/7 8/20/7
f 4/19/6 5/31/6 6/18/6
f 2/17/5 3/32/5 4/19/5
f 34/33/17 35/34/17 33/35/17
f 36/36/18 37/37/18 35/34/18
f 37/37/19 40/38/19 39/39/19
f 40/38/20 41/40/20 39/39/20
f 42/41/21 43/42/21 41/43/21
f 43/42/22 46/44/22 45/45/22
f 36/36/23 51/46/23 38/47/23
f 46/44/24 47/48/24 45/45/24
f 48/49/25 33/35/25 47/48/25
f 53/50/26 60/51/26 61/52/26
f 44/53/27 53/54/27 54/55/27
f 48/49/28 50/56/28 34/33/28
f 34/33/29 49/57/29 36/36/29
f 40/38/30 51/46/30 52/58/30
f 46/44/31 54/55/31 55/59/31
f 42/60/32 52/58/32 53/50/32
f 46/44/33 56/61/33 48/49/33
f 65/62/34 62/63/34 61/64/34
f 49/57/35 59/65/35 51/46/35
f 55/59/36 64/66/36 56/61/36
f 54/55/37 61/64/37 62/63/37
f 52/58/38 59/65/38 60/51/38
f 50/56/39 57/67/39 49/57/39
f 56/61/40 58/68/40 50/56/40
f 55/59/41 62/63/41 63/69/41
f 65/70/34 60/51/34 59/65/34
f 64/66/34 65/62/34 58/68/34
f 57/67/34 65/70/34 59/65/34
f 66/71/42 69/72/42 68/73/42
f 68/73/43 71/74/43 70/75/43
f 70/76/44 73/77/44 72/78/44
f 72/78/45 75/79/45 74/80/45
f 75/79/46 76/81/46 74/80/46
f 77/82/47 78/83/47 76/81/47
f 79/84/48 80/85/48 78/83/48
f 81/86/49 66/71/49 80/85/49
f 76/81/50 86/87/50 74/80/50
f 66/71/51 89/88/51 80/85/51
f 66/71/52 83/89/52 82/90/52
f 72/78/53 84/91/53 70/76/53
f 78/83/54 87/92/54 76/81/54
f 74/80/55 85/93/55 72/78/55
f 80/85/56 88/94/56 78/83/56
f 70/75/57 83/89/57 68/73/57
f 99/95/58 95/96/58 100/97/58
f 103/98/59 93/99/59 92/100/59
f 100/97/60 94/101/60 101/102/60
f 98/103/61 96/104/61 99/95/61
f 105/105/62 97/106/62 98/103/62
f 104/107/63 92/100/63 91/108/63
f 105/109/64 91/108/64 90/110/64
f 102/111/65 94/101/65 93/99/65
f 84/91/66 104/107/66 105/109/66
f 87/92/67 103/98/67 86/87/67
f 89/88/68 101/102/68 88/94/68
f 83/89/69 105/105/69 98/103/69
f 86/87/70 104/107/70 85/93/70
f 88/94/71 102/111/71 87/92/71
f 89/88/72 99/95/72 100/97/72
f 82/90/73 98/103/73 99/95/73
f 20/1/1 19/4/1 18/2/1
f 19/4/2 22/6/2 21/5/2
f 22/6/3 24/8/3 23/7/3
f 24/8/4 26/10/4 25/9/4
f 26/10/5 28/12/5 27/11/5
f 28/12/6 30/14/6 29/13/6
f 30/14/7 32/16/7 31/15/7
f 32/16/8 20/1/8 17/3/8
f 2/17/9 4/19/9 19/4/9
f 6/18/10 22/6/10 19/4/10
f 8/20/11 24/8/11 22/6/11
f 10/21/12 26/10/12 24/8/12
f 12/22/13 28/12/13 26/10/13
f 14/23/14 30/14/14 28/12/14
f 16/24/15 32/16/15 30/14/15
f 2/17/16 20/1/16 32/16/16
f 16/24/4 15/26/4 1/25/4
f 14/23/3 13/27/3 15/26/3
f 12/22/2 11/28/2 13/27/2
f 10/21/1 9/29/1 11/28/1
f 8/20/8 7/30/8 9/29/8
f 6/18/7 5/31/7 7/30/7
f 4/19/6 3/32/6 5/31/6
f 2/17/5 1/25/5 3/32/5
f 34/33/17 36/36/17 35/34/17
f 36/36/74 38/47/74 37/37/74
f 37/37/75 38/47/75 40/38/75
f 40/38/20 42/60/20 41/40/20
f 42/41/21 44/53/21 43/42/21
f 43/42/22 44/53/22 46/44/22
f 36/36/76 49/57/76 51/46/76
f 46/44/24 48/49/24 47/48/24
f 48/49/77 34/33/77 33/35/77
f 53/50/78 52/58/78 60/51/78
f 44/53/79 42/41/79 53/54/79
f 48/49/80 56/61/80 50/56/80
f 34/33/81 50/56/81 49/57/81
f 40/38/82 38/47/82 51/46/82
f 46/44/83 44/53/83 54/55/83
f 42/60/84 40/38/84 52/58/84
f 46/44/85 55/59/85 56/61/85
f 65/62/34 63/69/34 62/63/34
f 49/57/86 57/67/86 59/65/86
f 55/59/87 63/69/87 64/66/87
f 54/55/88 53/54/88 61/64/88
f 52/58/89 51/46/89 59/65/89
f 50/56/90 58/112/90 57/67/90
f 56/61/91 64/66/91 58/68/91
f 55/59/92 54/55/92 62/63/92
f 65/70/34 61/52/34 60/51/34
f 64/66/34 63/69/34 65/62/34
f 57/67/34 58/112/34 65/70/34
f 66/71/93 67/113/93 69/72/93
f 68/73/94 69/72/94 71/74/94
f 70/76/95 71/114/95 73/77/95
f 72/78/96 73/77/96 75/79/96
f 75/79/97 77/82/97 76/81/97
f 77/82/98 79/84/98 78/83/98
f 79/84/99 81/86/99 80/85/99
f 81/86/100 67/113/100 66/71/100
f 76/81/101 87/92/101 86/87/101
f 66/71/102 82/90/102 89/88/102
f 66/71/103 68/73/103 83/89/103
f 72/78/104 85/93/104 84/91/104
f 78/83/105 88/94/105 87/92/105
f 74/80/106 86/87/106 85/93/106
f 80/85/107 89/88/107 88/94/107
f 70/75/108 84/115/108 83/89/108
f 99/95/109 96/104/109 95/96/109
f 103/98/110 102/111/110 93/99/110
f 100/97/111 95/96/111 94/101/111
f 98/103/112 97/106/112 96/104/112
f 105/105/113 90/116/113 97/106/113
f 104/107/114 103/98/114 92/100/114
f 105/109/115 104/107/115 91/108/115
f 102/111/116 101/102/116 94/101/116
f 84/91/117 85/93/117 104/107/117
f 87/92/118 102/111/118 103/98/118
f 89/88/119 100/97/119 101/102/119
f 83/89/120 84/115/120 105/105/120
f 86/87/121 103/98/121 104/107/121
f 88/94/122 101/102/122 102/111/122
f 89/88/123 82/90/123 99/95/123
f 82/90/124 83/89/124 98/103/124
