# Blender v2.81 (sub 16) OBJ File: 'Boat2.0 - Joined.blend'
# www.blender.org
v -0.003285 0.000952 -0.574426
v -1.092170 0.150498 -0.352069
v 0.028505 0.232427 -0.533290
v -1.072235 0.295647 -0.322926
v 0.055455 0.428661 -0.400939
v -1.055335 0.418699 -0.239934
v 0.073464 0.559781 -0.202863
v -1.044043 0.500919 -0.115728
v 0.079786 0.605824 0.030784
v -1.040079 0.529791 0.030784
v 0.073464 0.559780 0.264431
v -1.044043 0.500919 0.177295
v 0.055455 0.428661 0.462507
v -1.055335 0.418698 0.301501
v 0.028505 0.232427 0.594857
v -1.072235 0.295647 0.384493
v -0.003285 0.000952 0.641333
v -1.092170 0.150498 0.413637
v -0.035075 -0.230522 0.594857
v -1.112104 0.005349 0.384494
v -0.062025 -0.426756 0.462507
v -1.129003 -0.117702 0.301501
v -0.080032 -0.557876 0.264431
v -1.140297 -0.199923 0.177295
v -0.086357 -0.603918 0.030784
v -1.144261 -0.228794 0.030784
v -0.080032 -0.557876 -0.202863
v -1.140297 -0.199923 -0.115728
v -0.062025 -0.426756 -0.400939
v -1.129003 -0.117702 -0.239935
v -0.035075 -0.230521 -0.533290
v -1.112104 0.005349 -0.322927
v -1.063552 0.358875 -0.477005
v -1.092170 0.150498 -0.518843
v -1.039289 0.535528 -0.357861
v -1.023079 0.653565 -0.179549
v -1.017387 0.695013 0.030784
v -1.023079 0.653564 0.241117
v -1.039289 0.535529 0.419428
v -1.063552 0.358875 0.538572
v -1.092170 0.150498 0.580410
v -1.120788 -0.057879 0.538572
v -1.145049 -0.234532 0.419428
v -1.161258 -0.352568 0.241117
v -1.166951 -0.394017 0.030784
v -1.161258 -0.352568 -0.179549
v -1.145049 -0.234532 -0.357861
v -1.120788 -0.057879 -0.477005
v -0.373418 0.051786 -0.579765
v -0.341626 0.283260 -0.533290
v -0.314676 0.479495 -0.400940
v -0.296668 0.610614 -0.202863
v -0.290346 0.656657 0.030784
v -0.296669 0.610614 0.264431
v -0.314676 0.479494 0.462507
v -0.341626 0.283260 0.594857
v -0.373418 0.051786 0.641333
v -0.405208 -0.179688 0.594857
v -0.432158 -0.375922 0.462507
v -0.450166 -0.507042 0.264431
v -0.456490 -0.553085 0.030784
v -0.450166 -0.507042 -0.202863
v -0.432158 -0.375922 -0.400940
v -0.405208 -0.179688 -0.533290
v -0.415662 0.057588 -0.518843
v -0.387042 0.265964 -0.477005
v -0.362781 0.442618 -0.357861
v -0.346570 0.560654 -0.179549
v -0.340879 0.602102 0.030784
v -0.346570 0.560654 0.241117
v -0.362781 0.442618 0.419428
v -0.387042 0.265964 0.538572
v -0.415662 0.057588 0.580410
v -0.444280 -0.150789 0.538572
v -0.468538 -0.327443 0.419428
v -0.484750 -0.445479 0.241117
v -0.490443 -0.486928 0.030784
v -0.484750 -0.445478 -0.179549
v -0.468538 -0.327443 -0.357861
v -0.444280 -0.150789 -0.477005
v -8.263241 1.025402 -0.685014
v -8.299518 0.885294 -0.575528
v -8.314546 0.827260 -0.311203
v -8.299518 0.885294 -0.046878
v -8.263241 1.025402 0.062608
v -8.226969 1.165510 -0.046878
v -8.211944 1.223545 -0.311203
v -8.226969 1.165510 -0.575527
v -8.263244 1.140129 -1.361661
v -8.307749 0.745363 -1.053173
v -8.326187 0.581845 -0.308416
v -8.307752 0.745363 0.436342
v -8.263244 1.140129 0.744831
v -8.218735 1.534894 0.436342
v -8.200299 1.698413 -0.308415
v -8.218735 1.534894 -1.053173
v -6.947627 0.960807 -0.685014
v -6.983901 0.820699 -0.575527
v -6.998927 0.762664 -0.311203
v -6.983901 0.820699 -0.046878
v -6.947627 0.960807 0.062608
v -6.911353 1.100915 -0.046878
v -6.896327 1.158949 -0.311203
v -6.911353 1.100915 -0.575527
v -6.947627 0.991799 -1.361662
v -6.992139 0.597032 -1.053173
v -7.010571 0.433515 -0.308416
v -6.992139 0.597032 0.436342
v -6.947627 0.991798 0.744830
v -6.903118 1.386564 0.436342
v -6.884683 1.550082 -0.308416
v -6.903118 1.386564 -1.053173
vt 0.469710 0.363506
vt 0.543084 0.354878
vt 0.480024 0.386518
vt 0.552915 0.371965
vt 0.491880 0.409074
vt 0.504871 0.430758
vt 0.565575 0.388510
vt 0.520152 0.450555
vt 0.491836 0.075507
vt 0.544638 0.129341
vt 0.479328 0.097073
vt 0.534889 0.147046
vt 0.469632 0.120523
vt 0.461044 0.144379
vt 0.528402 0.165393
vt 0.454635 0.168403
vt 0.523508 0.183778
vt 0.449630 0.192502
vt 0.517867 0.222743
vt 0.447850 0.217461
vt 0.517235 0.242671
vt 0.446731 0.242702
vt 0.447716 0.267581
vt 0.520155 0.281943
vt 0.450533 0.292290
vt 0.455123 0.316700
vt 0.523695 0.301268
vt 0.461260 0.340447
vt 0.529010 0.320088
vt 0.558451 0.346934
vt 0.535558 0.337668
vt 0.550752 0.331641
vt 0.567788 0.361790
vt 0.593399 0.387247
vt 0.579219 0.375496
vt 0.559173 0.139082
vt 0.558205 0.111505
vt 0.569992 0.126165
vt 0.551382 0.154713
vt 0.540630 0.187494
vt 0.544275 0.170596
vt 0.538344 0.205428
vt 0.520234 0.202896
vt 0.537203 0.224288
vt 0.535028 0.242831
vt 0.517885 0.262433
vt 0.536675 0.261082
vt 0.537528 0.279322
vt 0.542121 0.296980
vt 0.545923 0.314947
vt 0.453910 0.342752
vt 0.422488 0.381826
vt 0.413546 0.354614
vt 0.447191 0.318580
vt 0.406582 0.327289
vt 0.442345 0.293604
vt 0.401414 0.299774
vt 0.397706 0.271667
vt 0.438342 0.242804
vt 0.396458 0.243066
vt 0.396994 0.214202
vt 0.400304 0.185497
vt 0.439174 0.216932
vt 0.405308 0.157293
vt 0.441863 0.191429
vt 0.453059 0.142001
vt 0.412889 0.129469
vt 0.422253 0.102587
vt 0.432997 0.076364
vt 0.461352 0.117321
vt 0.445235 0.050460
vt 0.472035 0.093429
vt 0.498108 0.435506
vt 0.478705 0.482230
vt 0.462456 0.458679
vt 0.447246 0.434221
vt 0.433973 0.408373
vt 0.484595 0.413281
vt 0.472060 0.390382
vt 0.462090 0.366488
vt 0.439566 0.268283
vt 0.446685 0.166639
vt 0.484916 0.070015
vt 0.514618 0.456592
vt 0.206543 0.621723
vt 0.099548 0.692304
vt 0.059463 0.636520
vt 0.203802 0.963277
vt 0.098225 0.888593
vt 0.160216 0.889371
vt 0.055798 0.732444
vt 0.100994 0.735684
vt 0.058075 0.756856
vt 0.079200 0.792168
vt 0.056178 0.791843
vt 0.058333 0.826342
vt 0.100618 0.847544
vt 0.056300 0.849968
vt 0.106752 0.867589
vt 0.047727 0.868973
vt 0.057750 0.942496
vt 0.024366 0.893464
vt 0.047121 0.712360
vt 0.107101 0.716170
vt 0.152998 0.866461
vt 0.158222 0.843770
vt 0.175859 0.791161
vt 0.159129 0.737783
vt 0.153877 0.714381
vt 0.213178 0.726059
vt 0.212236 0.752264
vt 0.211180 0.790823
vt 0.212743 0.830103
vt 0.213461 0.856933
vt 0.221140 0.882214
vt 0.246063 0.917464
vt 0.220992 0.701679
vt 0.246063 0.667877
vt 0.162251 0.693847
vt 0.582480 0.405236
vt 0.023910 0.686295
vn 0.0265 0.1933 -0.9808
vn 0.0756 0.5504 -0.8315
vn 0.1131 0.8237 -0.5556
vn 0.1334 0.9717 -0.1951
vn 0.1334 0.9717 0.1951
vn 0.1131 0.8237 0.5556
vn 0.0756 0.5504 0.8315
vn 0.0265 0.1933 0.9808
vn -0.0265 -0.1933 0.9808
vn -0.0756 -0.5504 0.8315
vn -0.1131 -0.8237 0.5556
vn -0.1334 -0.9717 0.1951
vn -0.1334 -0.9717 -0.1951
vn -0.1131 -0.8237 -0.5556
vn -0.0756 -0.5504 -0.8315
vn -0.0265 -0.1933 -0.9808
vn -0.9907 0.1361 0.0000
vn -0.9907 0.1360 0.0000
vn -0.0236 -0.1718 -0.9849
vn 0.0236 0.1718 -0.9849
vn -0.8218 -0.0015 -0.5697
vn -0.8503 -0.2090 -0.4830
vn -0.8721 -0.3677 -0.3227
vn -0.8839 -0.4537 -0.1133
vn -0.8839 -0.4536 0.1133
vn -0.8721 -0.3677 0.3227
vn -0.8503 -0.2090 0.4830
vn -0.8218 -0.0015 0.5697
vn -0.7910 0.2230 0.5697
vn -0.7625 0.4305 0.4830
vn -0.7407 0.5892 0.3227
vn -0.7289 0.6752 0.1133
vn -0.7289 0.6752 -0.1133
vn -0.7407 0.5892 -0.3227
vn -0.7625 0.4305 -0.4830
vn -0.7910 0.2230 -0.5697
vn 0.1094 0.9703 -0.2157
vn 0.1094 0.9703 0.2157
vn -0.9753 0.2162 -0.0465
vn -0.9978 0.0468 -0.0465
vn -0.9966 0.0818 0.0067
vn -0.9914 0.1287 -0.0216
vn -0.9797 0.1670 -0.1109
vn -0.9984 0.0248 -0.0513
vn -0.9990 0.0423 0.0155
vn -0.9949 0.0991 0.0168
vn 0.0687 0.6095 0.7898
vn -0.0687 -0.6095 0.7898
vn -0.1094 -0.9703 0.2157
vn -0.1094 -0.9703 -0.2157
vn -0.0687 -0.6095 -0.7898
vn 0.9780 -0.1950 0.0745
vn 0.9982 -0.0349 0.0491
vn 0.9982 -0.0357 -0.0489
vn 0.9779 -0.1955 -0.0738
vn 0.9790 -0.1823 0.0911
vn 0.9983 -0.0301 0.0501
vn 0.9983 -0.0294 -0.0503
vn 0.9791 -0.1817 -0.0918
vn 0.0687 0.6095 -0.7898
vn -0.0127 -0.1952 -0.9807
vn 0.0404 0.1913 -0.9807
vn -0.8839 -0.4536 -0.1133
vn -0.8839 -0.4537 0.1133
vn -0.9914 0.1288 0.0219
vn -0.9966 0.0817 -0.0067
vn -0.9978 0.0479 0.0462
vn -0.9752 0.2165 0.0461
vn -0.9949 0.0991 -0.0167
vn -0.9990 0.0424 -0.0154
vn -0.9984 0.0242 0.0514
vn -0.9797 0.1663 0.1117
vn 0.9932 -0.1161 -0.0053
vn 0.9981 -0.0609 0.0113
vn 0.9981 -0.0611 -0.0113
vn 0.9932 -0.1161 0.0053
vn 0.9941 -0.1082 0.0049
vn 0.9986 -0.0515 0.0134
vn 0.9986 -0.0513 -0.0135
vn 0.9941 -0.1082 -0.0050
s off
f 65/1/1 33/2/1 66/3/1
f 66/3/2 35/4/2 67/5/2
f 35/4/3 68/6/3 67/5/3
f 36/7/4 69/8/4 68/6/4
f 69/9/5 38/10/5 70/11/5
f 70/11/6 39/12/6 71/13/6
f 39/12/7 72/14/7 71/13/7
f 40/15/8 73/16/8 72/14/8
f 41/17/9 74/18/9 73/16/9
f 74/18/10 43/19/10 75/20/10
f 75/20/11 44/21/11 76/22/11
f 44/21/12 77/23/12 76/22/12
f 77/23/13 46/24/13 78/25/13
f 46/24/14 79/26/14 78/25/14
f 47/27/15 80/28/15 79/26/15
f 48/29/16 65/1/16 80/28/16
f 4/30/17 34/31/17 2/32/17
f 4/30/17 35/4/17 33/2/17
f 6/33/17 36/7/17 35/4/17
f 10/34/17 36/7/17 8/35/17
f 12/36/17 37/37/17 10/38/17
f 14/39/17 38/10/17 12/36/17
f 14/39/17 40/15/17 39/12/17
f 18/40/17 40/15/17 16/41/17
f 20/42/17 41/17/17 18/40/17
f 20/42/17 43/19/17 42/43/17
f 22/44/17 44/21/17 43/19/17
f 24/45/18 45/46/18 44/21/18
f 26/47/17 46/24/17 45/46/17
f 28/48/18 47/27/18 46/24/18
f 30/49/17 48/29/17 47/27/17
f 32/50/17 34/31/17 48/29/17
f 64/51/19 1/52/19 31/53/19
f 63/54/15 31/53/15 29/55/15
f 62/56/14 29/55/14 27/57/14
f 25/58/13 62/56/13 27/57/13
f 60/59/12 25/58/12 23/60/12
f 21/61/11 60/59/11 23/60/11
f 19/62/10 59/63/10 21/61/10
f 17/64/9 58/65/9 19/62/9
f 56/66/8 17/64/8 15/67/8
f 13/68/7 56/66/7 15/67/7
f 11/69/6 55/70/6 13/68/6
f 9/71/5 54/72/5 11/69/5
f 52/73/4 9/74/4 7/75/4
f 5/76/3 52/73/3 7/75/3
f 3/77/2 51/78/2 5/76/2
f 1/52/20 50/79/20 3/77/20
f 64/51/21 65/1/21 49/80/21
f 79/26/22 64/51/22 63/54/22
f 62/56/23 79/26/23 63/54/23
f 77/23/24 62/56/24 61/81/24
f 76/22/25 61/81/25 60/59/25
f 75/20/26 60/59/26 59/63/26
f 58/65/27 75/20/27 59/63/27
f 73/16/28 58/65/28 57/82/28
f 72/14/29 57/82/29 56/66/29
f 71/13/30 56/66/30 55/70/30
f 54/72/31 71/13/31 55/70/31
f 53/83/32 70/11/32 54/72/32
f 68/6/33 53/84/33 52/73/33
f 67/5/34 52/73/34 51/78/34
f 50/79/35 67/5/35 51/78/35
f 49/80/36 66/3/36 50/79/36
f 111/85/37 96/86/37 95/87/37
f 111/88/38 94/89/38 110/90/38
f 81/91/39 90/92/39 82/93/39
f 82/93/40 91/94/40 83/95/40
f 84/96/41 91/94/41 92/97/41
f 85/98/42 92/97/42 93/99/42
f 85/98/43 94/89/43 86/100/43
f 86/100/44 95/101/44 87/102/44
f 88/103/45 95/87/45 96/86/45
f 81/91/46 96/86/46 89/104/46
f 109/105/47 94/89/47 93/99/47
f 108/106/48 93/99/48 92/97/48
f 108/106/49 91/94/49 107/107/49
f 106/108/50 91/94/50 90/92/50
f 106/108/51 89/104/51 105/109/51
f 106/108/52 97/110/52 98/111/52
f 107/107/53 98/111/53 99/112/53
f 100/113/54 107/107/54 99/112/54
f 101/114/55 108/106/55 100/113/55
f 110/90/56 101/114/56 102/115/56
f 111/88/57 102/115/57 103/116/57
f 104/117/58 111/85/58 103/118/58
f 97/110/59 112/119/59 104/117/59
f 105/109/60 96/86/60 112/119/60
f 65/1/1 34/31/1 33/2/1
f 66/3/2 33/2/2 35/4/2
f 35/4/3 36/7/3 68/6/3
f 36/7/4 37/120/4 69/8/4
f 69/9/5 37/37/5 38/10/5
f 70/11/6 38/10/6 39/12/6
f 39/12/7 40/15/7 72/14/7
f 40/15/8 41/17/8 73/16/8
f 41/17/9 42/43/9 74/18/9
f 74/18/10 42/43/10 43/19/10
f 75/20/11 43/19/11 44/21/11
f 44/21/12 45/46/12 77/23/12
f 77/23/13 45/46/13 46/24/13
f 46/24/14 47/27/14 79/26/14
f 47/27/15 48/29/15 80/28/15
f 48/29/16 34/31/16 65/1/16
f 4/30/17 33/2/17 34/31/17
f 4/30/17 6/33/17 35/4/17
f 6/33/17 8/35/17 36/7/17
f 10/34/17 37/120/17 36/7/17
f 12/36/17 38/10/17 37/37/17
f 14/39/17 39/12/17 38/10/17
f 14/39/17 16/41/17 40/15/17
f 18/40/17 41/17/17 40/15/17
f 20/42/17 42/43/17 41/17/17
f 20/42/17 22/44/17 43/19/17
f 22/44/17 24/45/17 44/21/17
f 24/45/17 26/47/17 45/46/17
f 26/47/18 28/48/18 46/24/18
f 28/48/17 30/49/17 47/27/17
f 30/49/17 32/50/17 48/29/17
f 32/50/17 2/32/17 34/31/17
f 64/51/61 49/80/61 1/52/61
f 63/54/15 64/51/15 31/53/15
f 62/56/14 63/54/14 29/55/14
f 25/58/13 61/81/13 62/56/13
f 60/59/12 61/81/12 25/58/12
f 21/61/11 59/63/11 60/59/11
f 19/62/10 58/65/10 59/63/10
f 17/64/9 57/82/9 58/65/9
f 56/66/8 57/82/8 17/64/8
f 13/68/7 55/70/7 56/66/7
f 11/69/6 54/72/6 55/70/6
f 9/71/5 53/83/5 54/72/5
f 52/73/4 53/84/4 9/74/4
f 5/76/3 51/78/3 52/73/3
f 3/77/2 50/79/2 51/78/2
f 1/52/62 49/80/62 50/79/62
f 64/51/21 80/28/21 65/1/21
f 79/26/22 80/28/22 64/51/22
f 62/56/23 78/25/23 79/26/23
f 77/23/63 78/25/63 62/56/63
f 76/22/64 77/23/64 61/81/64
f 75/20/26 76/22/26 60/59/26
f 58/65/27 74/18/27 75/20/27
f 73/16/28 74/18/28 58/65/28
f 72/14/29 73/16/29 57/82/29
f 71/13/30 72/14/30 56/66/30
f 54/72/31 70/11/31 71/13/31
f 53/83/32 69/9/32 70/11/32
f 68/6/33 69/8/33 53/84/33
f 67/5/34 68/6/34 52/73/34
f 50/79/35 66/3/35 67/5/35
f 49/80/36 65/1/36 66/3/36
f 111/85/37 112/119/37 96/86/37
f 111/88/38 95/101/38 94/89/38
f 81/91/65 89/104/65 90/92/65
f 82/93/66 90/92/66 91/94/66
f 84/96/67 83/95/67 91/94/67
f 85/98/68 84/96/68 92/97/68
f 85/98/69 93/99/69 94/89/69
f 86/100/70 94/89/70 95/101/70
f 88/103/71 87/121/71 95/87/71
f 81/91/72 88/103/72 96/86/72
f 109/105/47 110/90/47 94/89/47
f 108/106/48 109/105/48 93/99/48
f 108/106/49 92/97/49 91/94/49
f 106/108/50 107/107/50 91/94/50
f 106/108/51 90/92/51 89/104/51
f 106/108/73 105/109/73 97/110/73
f 107/107/74 106/108/74 98/111/74
f 100/113/75 108/106/75 107/107/75
f 101/114/76 109/105/76 108/106/76
f 110/90/77 109/105/77 101/114/77
f 111/88/78 110/90/78 102/115/78
f 104/117/79 112/119/79 111/85/79
f 97/110/80 105/109/80 112/119/80
f 105/109/60 89/104/60 96/86/60
