# Blender v2.81 (sub 16) OBJ File: 'Boat2.0 - Joined.blend'
# www.blender.org
v 3.917940 7.037069 -0.072743
v 1.647811 6.075755 -0.072743
v 0.867317 3.986446 -0.207085
v 1.760824 1.829329 -0.207085
v 4.537943 1.249748 -0.072743
v 6.075057 1.829330 -0.072743
v 6.968564 3.986446 -0.072743
v 6.075057 6.143563 -0.072743
v -3.917940 6.975003 -0.072743
v -6.075058 6.081496 -0.072743
v -6.968564 3.924379 -0.072743
v -6.075058 1.767263 -0.072743
v -4.969590 1.156289 -0.072743
v -1.760823 1.767263 -0.207085
v -0.867317 3.924380 -0.207085
v -1.591303 5.900675 -0.072743
v -3.917940 3.924379 -0.207085
v 3.917940 3.986446 -0.207085
v 0.158218 6.113620 -0.072743
v 0.000000 3.955413 -0.207085
v 4.153871 -1.714897 -0.072743
v 4.294652 -0.984723 -0.072743
v -4.569335 -1.363854 -0.072743
v -3.438117 -2.575318 -0.072743
v 1.483381 -5.824287 -0.072743
v -1.643483 -5.980169 -0.072743
v 0.150617 -6.870700 -0.072743
v -0.856949 -6.986828 -0.072743
v -0.372001 -7.037069 -0.072743
v 0.000000 -5.850431 -0.207085
v 0.000002 -2.465311 -0.207085
v 0.000000 1.798296 -0.207085
v 3.636144 -2.469912 -0.072743
v -3.046636 -2.725405 -0.072743
v 0.000001 -2.947549 -0.207085
v 2.616925 -3.388052 -0.072743
v -2.796126 -4.112764 -0.072743
v 0.000001 -4.182216 -0.207085
v 3.917940 7.037069 0.072742
v 1.647811 6.075755 0.072742
v 0.867317 3.986446 0.207085
v 1.760824 1.829329 0.207085
v 4.537943 1.249748 0.072742
v 6.075057 1.829330 0.072742
v 6.968564 3.986446 0.072742
v 6.075057 6.143563 0.072742
v -3.917940 6.975003 0.072742
v -6.075058 6.081496 0.072742
v -6.968564 3.924379 0.072742
v -6.075058 1.767263 0.072742
v -4.969590 1.156289 0.072742
v -1.760823 1.767263 0.207085
v -0.867317 3.924380 0.207085
v -1.591303 5.900675 0.072742
v -3.917940 3.924379 0.207085
v 3.917940 3.986446 0.207085
v 0.158218 6.113620 0.072742
v 0.000000 3.955413 0.207085
v 4.153871 -1.714897 0.072742
v 4.294652 -0.984723 0.072742
v -4.569335 -1.363854 0.072742
v -3.438117 -2.575318 0.072742
v 1.483381 -5.824287 0.072742
v -1.643483 -5.980169 0.072742
v 0.150617 -6.870700 0.072742
v -0.856949 -6.986828 0.072742
v -0.372001 -7.037069 0.072742
v 0.000000 -5.850431 0.207085
v 0.000002 -2.465311 0.207085
v 0.000000 1.798296 0.207085
v 3.636144 -2.469912 0.072742
v -3.046636 -2.725405 0.072742
v 0.000001 -2.947549 0.207085
v 2.616925 -3.388052 0.072742
v -2.796126 -4.112764 0.072742
v 0.000001 -4.182216 0.207085
vt 0.440163 0.775323
vt 0.512214 0.929132
vt 0.501098 0.777503
vt 0.225836 0.775323
vt 0.377389 0.623771
vt 0.151951 0.580846
vt 0.776360 0.779684
vt 0.927912 0.628131
vt 0.819919 0.587412
vt 0.074284 0.623771
vt 0.011509 0.775323
vt 0.389298 0.914171
vt 0.225836 0.989650
vt 0.074284 0.926875
vt 0.927912 0.931236
vt 0.776360 0.994010
vt 0.624808 0.628131
vt 0.562033 0.779684
vt 0.616868 0.926472
vt 0.180071 0.403789
vt 0.802826 0.430425
vt 0.440892 0.008736
vt 0.501098 0.088576
vt 0.474963 0.005207
vt 0.287051 0.308130
vt 0.501098 0.326404
vt 0.501098 0.292523
vt 0.792935 0.379125
vt 0.501098 0.625951
vt 0.259547 0.318675
vt 0.756562 0.326080
vt 0.511680 0.016895
vt 0.605316 0.090413
vt 0.684955 0.261575
vt 0.304651 0.210659
vt 0.501098 0.205779
vt 0.385632 0.079461
vt 0.512214 0.929132
vt 0.440163 0.775323
vt 0.501098 0.777503
vt 0.225836 0.775323
vt 0.377389 0.623771
vt 0.776360 0.779684
vt 0.927912 0.628131
vt 0.990687 0.779684
vt 0.074284 0.623771
vt 0.011509 0.775323
vt 0.389298 0.914171
vt 0.225836 0.989650
vt 0.074284 0.926875
vt 0.927912 0.931236
vt 0.776360 0.994010
vt 0.624808 0.628131
vt 0.562033 0.779684
vt 0.616868 0.926472
vt 0.180071 0.403789
vt 0.259547 0.318675
vt 0.802826 0.430425
vt 0.819919 0.587412
vt 0.501098 0.088576
vt 0.440892 0.008736
vt 0.474963 0.005207
vt 0.501098 0.326404
vt 0.287051 0.308130
vt 0.501098 0.292523
vt 0.501098 0.625951
vt 0.756562 0.326080
vt 0.511680 0.016895
vt 0.684955 0.261575
vt 0.501098 0.205779
vt 0.304651 0.210659
vt 0.385632 0.079461
vt 0.605316 0.090413
vt 0.990687 0.779684
vt 0.792935 0.379125
vt 0.151951 0.580846
vn -0.0022 0.0623 -0.9981
vn -0.0351 -0.0351 -0.9988
vn 0.0170 -0.0452 -0.9988
vn -0.0440 -0.0182 -0.9989
vn 0.0203 0.0440 -0.9988
vn -0.0440 0.0182 -0.9989
vn 0.0182 0.0440 -0.9989
vn 0.0000 0.0000 -1.0000
vn 0.0000 0.0642 -0.9979
vn 0.0016 0.0636 -0.9980
vn -0.0406 -0.0064 -0.9992
vn 0.0472 -0.0051 -0.9989
vn -0.0113 -0.1090 -0.9940
vn -0.0441 0.0000 -0.9990
vn 0.0349 -0.0143 -0.9993
vn -0.0385 -0.0160 -0.9991
vn 0.0369 -0.0253 -0.9990
vn 0.0916 -0.1167 -0.9889
vn 0.0432 -0.0479 -0.9979
vn -0.0480 0.0000 -0.9988
vn -0.0815 0.0000 -0.9967
vn 0.0596 -0.0278 -0.9978
vn -0.0022 0.0623 0.9981
vn 0.0000 -0.0000 1.0000
vn 0.0440 -0.0182 0.9989
vn -0.0440 -0.0182 0.9989
vn 0.0203 0.0440 0.9988
vn -0.0182 0.0440 0.9989
vn 0.0182 0.0440 0.9989
vn -0.0186 0.0440 0.9989
vn -0.0234 -0.0219 0.9995
vn 0.0472 -0.0051 0.9989
vn -0.0113 -0.1090 0.9940
vn -0.0441 -0.0000 0.9990
vn -0.0385 -0.0160 0.9991
vn 0.0369 -0.0000 0.9993
vn 0.0397 -0.1247 0.9914
vn 0.0513 -0.0000 0.9987
vn -0.0480 0.0000 0.9988
vn -0.0815 0.0000 0.9967
vn 0.0902 -0.0000 0.9959
vn 0.9239 -0.3827 0.0000
vn -0.9841 -0.1777 0.0000
vn 0.9067 -0.4219 0.0000
vn 0.3033 -0.9529 0.0000
vn 0.9239 0.3827 0.0000
vn -0.8510 -0.5252 0.0000
vn 0.8247 -0.5655 0.0000
vn 0.9819 -0.1893 0.0000
vn 0.3827 0.9239 0.0000
vn 0.6175 -0.7865 0.0000
vn -0.3899 0.9208 0.0000
vn -0.3580 -0.9337 0.0000
vn 0.4192 0.9079 0.0000
vn -0.7309 -0.6825 0.0000
vn -0.3827 0.9239 0.0000
vn -0.7880 -0.6157 0.0000
vn -0.1208 0.9927 0.0000
vn -0.9876 -0.1569 0.0000
vn -0.9239 0.3827 0.0000
vn -0.1030 -0.9947 0.0000
vn -0.9239 -0.3827 0.0000
vn -0.4837 -0.8752 0.0000
vn 0.0254 0.9997 0.0000
vn 0.3528 -0.9357 0.0000
vn 0.6693 -0.7430 0.0000
vn 0.9941 -0.1082 0.0000
vn -0.0079 0.0649 -0.9979
vn 0.0440 -0.0182 -0.9989
vn -0.0221 -0.0401 -0.9990
vn -0.0000 0.0678 -0.9977
vn -0.0182 0.0440 -0.9989
vn 0.0440 0.0182 -0.9989
vn 0.0400 -0.0400 -0.9984
vn -0.0186 0.0440 -0.9989
vn -0.0234 -0.0219 -0.9995
vn 0.0436 -0.0084 -0.9990
vn -0.0766 -0.0599 -0.9953
vn -0.0359 -0.0936 -0.9950
vn 0.0369 -0.0000 -0.9993
vn 0.0397 -0.1247 -0.9914
vn 0.0513 -0.0000 -0.9987
vn -0.0446 -0.0081 -0.9990
vn -0.0487 -0.0301 -0.9984
vn 0.0902 -0.0000 -0.9959
vn -0.0079 0.0649 0.9979
vn -0.0351 -0.0351 0.9988
vn 0.0170 -0.0452 0.9988
vn -0.0221 -0.0401 0.9990
vn -0.0000 0.0678 0.9977
vn -0.0440 0.0182 0.9989
vn 0.0440 0.0182 0.9989
vn 0.0400 -0.0400 0.9984
vn -0.0000 0.0642 0.9979
vn 0.0016 0.0636 0.9980
vn -0.0406 -0.0064 0.9992
vn 0.0436 -0.0084 0.9990
vn -0.0766 -0.0599 0.9953
vn -0.0359 -0.0936 0.9950
vn 0.0349 -0.0143 0.9993
vn 0.0369 -0.0253 0.9990
vn 0.0916 -0.1167 0.9889
vn 0.0432 -0.0479 0.9979
vn -0.0446 -0.0081 0.9990
vn -0.0487 -0.0301 0.9984
vn 0.0596 -0.0278 0.9978
s off
f 15/1/1 19/2/1 20/3/1
f 17/4/2 14/5/2 13/6/2
f 18/7/3 6/8/3 5/9/3
f 17/4/4 12/10/4 11/11/4
f 16/12/5 17/4/5 9/13/5
f 10/14/6 17/4/6 11/11/6
f 8/15/7 18/7/7 1/16/7
f 18/7/8 4/17/8 3/18/8
f 2/19/9 18/7/9 3/18/9
f 3/18/10 19/2/10 2/19/10
f 14/5/11 23/20/11 13/6/11
f 22/21/12 4/17/12 5/9/12
f 28/22/13 30/23/13 29/24/13
f 34/25/14 31/26/14 35/27/14
f 31/26/15 4/17/15 21/28/15
f 32/29/8 15/1/8 20/3/8
f 14/5/16 31/26/16 24/30/16
f 33/31/17 31/26/17 21/28/17
f 27/32/18 30/23/18 25/33/18
f 32/29/8 3/18/8 4/17/8
f 36/34/19 35/27/19 33/31/19
f 37/35/20 35/27/20 38/36/20
f 26/37/21 38/36/21 30/23/21
f 25/33/22 38/36/22 36/34/22
f 57/38/23 53/39/23 58/40/23
f 55/41/24 52/42/24 53/39/24
f 56/43/25 44/44/25 45/45/25
f 50/46/26 55/41/26 49/47/26
f 55/41/27 54/48/27 47/49/27
f 48/50/28 55/41/28 47/49/28
f 56/43/29 46/51/29 39/52/29
f 42/53/24 56/43/24 41/54/24
f 40/55/30 56/43/30 39/52/30
f 41/54/23 57/38/23 58/40/23
f 52/42/31 61/56/31 62/57/31
f 42/53/32 60/58/32 43/59/32
f 68/60/33 66/61/33 67/62/33
f 69/63/34 72/64/34 73/65/34
f 69/63/24 42/53/24 70/66/24
f 70/66/24 53/39/24 52/42/24
f 69/63/35 52/42/35 62/57/35
f 71/67/36 69/63/36 73/65/36
f 65/68/37 68/60/37 67/62/37
f 41/54/24 70/66/24 42/53/24
f 74/69/38 73/65/38 76/70/38
f 73/65/39 75/71/39 76/70/39
f 76/70/40 64/72/40 68/60/40
f 63/73/41 76/70/41 68/60/41
f 7/74/42 44/44/42 6/8/42
f 37/35/43 72/64/43 34/25/43
f 36/34/44 63/73/44 25/33/44
f 27/32/45 67/62/45 29/24/45
f 8/15/46 45/45/46 7/74/46
f 26/37/47 75/71/47 37/35/47
f 21/28/48 71/67/48 33/31/48
f 22/21/49 59/75/49 21/28/49
f 1/16/50 46/51/50 8/15/50
f 25/33/51 65/68/51 27/32/51
f 2/19/52 39/52/52 1/16/52
f 34/25/53 62/57/53 24/30/53
f 9/13/54 54/48/54 16/12/54
f 24/30/55 61/56/55 23/20/55
f 10/14/56 47/49/56 9/13/56
f 28/22/57 64/72/57 26/37/57
f 16/12/58 57/38/58 19/2/58
f 23/20/59 51/76/59 13/6/59
f 11/11/60 48/50/60 10/14/60
f 29/24/61 66/61/61 28/22/61
f 12/10/62 49/47/62 11/11/62
f 13/6/63 50/46/63 12/10/63
f 2/19/64 57/38/64 40/55/64
f 6/8/65 43/59/65 5/9/65
f 33/31/66 74/69/66 36/34/66
f 5/9/67 60/58/67 22/21/67
f 15/1/68 16/12/68 19/2/68
f 17/4/8 15/1/8 14/5/8
f 18/7/69 7/74/69 6/8/69
f 17/4/70 13/6/70 12/10/70
f 16/12/71 15/1/71 17/4/71
f 10/14/72 9/13/72 17/4/72
f 8/15/73 7/74/73 18/7/73
f 18/7/74 5/9/74 4/17/74
f 2/19/75 1/16/75 18/7/75
f 3/18/1 20/3/1 19/2/1
f 14/5/76 24/30/76 23/20/76
f 22/21/77 21/28/77 4/17/77
f 28/22/78 26/37/78 30/23/78
f 34/25/79 24/30/79 31/26/79
f 31/26/8 32/29/8 4/17/8
f 32/29/8 14/5/8 15/1/8
f 14/5/8 32/29/8 31/26/8
f 33/31/80 35/27/80 31/26/80
f 27/32/81 29/24/81 30/23/81
f 32/29/8 20/3/8 3/18/8
f 36/34/82 38/36/82 35/27/82
f 37/35/83 34/25/83 35/27/83
f 26/37/84 37/35/84 38/36/84
f 25/33/85 30/23/85 38/36/85
f 57/38/86 54/48/86 53/39/86
f 55/41/87 51/76/87 52/42/87
f 56/43/88 43/59/88 44/44/88
f 50/46/89 51/76/89 55/41/89
f 55/41/90 53/39/90 54/48/90
f 48/50/91 49/47/91 55/41/91
f 56/43/92 45/45/92 46/51/92
f 42/53/93 43/59/93 56/43/93
f 40/55/94 41/54/94 56/43/94
f 41/54/95 40/55/95 57/38/95
f 52/42/96 51/76/96 61/56/96
f 42/53/97 59/75/97 60/58/97
f 68/60/98 64/72/98 66/61/98
f 69/63/99 62/57/99 72/64/99
f 69/63/100 59/75/100 42/53/100
f 70/66/24 58/40/24 53/39/24
f 69/63/24 70/66/24 52/42/24
f 71/67/101 59/75/101 69/63/101
f 65/68/102 63/73/102 68/60/102
f 41/54/24 58/40/24 70/66/24
f 74/69/103 71/67/103 73/65/103
f 73/65/104 72/64/104 75/71/104
f 76/70/105 75/71/105 64/72/105
f 63/73/106 74/69/106 76/70/106
f 7/74/42 45/45/42 44/44/42
f 37/35/43 75/71/43 72/64/43
f 36/34/44 74/69/44 63/73/44
f 27/32/45 65/68/45 67/62/45
f 8/15/46 46/51/46 45/45/46
f 26/37/47 64/72/47 75/71/47
f 21/28/48 59/75/48 71/67/48
f 22/21/49 60/58/49 59/75/49
f 1/16/50 39/52/50 46/51/50
f 25/33/51 63/73/51 65/68/51
f 2/19/52 40/55/52 39/52/52
f 34/25/53 72/64/53 62/57/53
f 9/13/54 47/49/54 54/48/54
f 24/30/55 62/57/55 61/56/55
f 10/14/56 48/50/56 47/49/56
f 28/22/57 66/61/57 64/72/57
f 16/12/58 54/48/58 57/38/58
f 23/20/59 61/56/59 51/76/59
f 11/11/60 49/47/60 48/50/60
f 29/24/61 67/62/61 66/61/61
f 12/10/62 50/46/62 49/47/62
f 13/6/63 51/76/63 50/46/63
f 2/19/64 19/2/64 57/38/64
f 6/8/65 44/44/65 43/59/65
f 33/31/66 71/67/66 74/69/66
f 5/9/67 43/59/67 60/58/67
