# Blender v2.81 (sub 16) OBJ File: 'Boat2.0 - Joined.blend'
# www.blender.org
v -0.123081 4.080586 0.433726
v -0.122450 3.324969 0.433726
v 0.033576 4.171033 0.464901
v 0.034168 3.461864 0.464901
v -0.255847 3.955772 0.344944
v -0.255211 3.193593 0.344944
v 0.412355 3.697498 0.212073
v 0.411759 4.412026 0.212073
v 0.190221 4.274510 0.433726
v 0.190801 3.580328 0.433726
v 0.323034 4.343097 0.344944
v 0.323605 3.661341 0.344944
v 0.289068 3.678857 0.250883
v 0.288553 4.296040 0.250883
v 0.168843 3.605515 0.331256
v 0.168318 4.233949 0.331256
v 0.368874 4.358441 0.130597
v 0.369413 3.711589 0.130597
v -0.234926 3.255409 0.250883
v -0.235503 3.945401 0.250883
v 0.027045 3.498271 0.359479
v 0.026508 4.140274 0.359479
v -0.114739 3.374343 0.331256
v -0.115310 4.058393 0.331256
v -0.000000 0.000001 -0.610549
v -0.000918 1.099105 -0.409560
v 0.233647 0.000195 -0.564074
v 0.155814 1.099236 -0.378384
v 0.431723 0.000362 -0.431724
v 0.288686 1.099347 -0.289603
v 0.564074 0.000472 -0.233647
v 0.377466 1.099422 -0.156732
v 0.610549 0.000510 0.000000
v 0.408643 1.099447 0.000000
v 0.564073 0.000472 0.233647
v 0.377467 1.099422 0.156732
v 0.431723 0.000362 0.431723
v 0.288685 1.099347 0.289603
v 0.233646 0.000195 0.564074
v 0.155814 1.099236 0.378384
v -0.000000 0.000001 0.610549
v -0.000918 1.099105 0.409560
v -0.233647 -0.000194 0.564074
v -0.157650 1.098975 0.378384
v -0.431724 -0.000360 0.431724
v -0.290522 1.098864 0.289603
v -0.564073 -0.000470 0.233647
v -0.379303 1.098789 0.156732
v -0.610549 -0.000509 -0.000000
v -0.410479 1.098764 0.000000
v -0.564073 -0.000470 -0.233647
v -0.379303 1.098789 -0.156732
v -0.431724 -0.000360 -0.431724
v -0.290520 1.098864 -0.289603
v -0.233647 -0.000194 -0.564074
v -0.157650 1.098975 -0.378384
v 0.209415 1.099282 -0.507789
v -0.000918 1.099105 -0.549627
v 0.387725 1.099430 -0.388645
v 0.506870 1.099529 -0.210333
v 0.548708 1.099564 0.000000
v 0.506870 1.099529 0.210333
v 0.387726 1.099430 0.388645
v 0.209415 1.099281 0.507789
v -0.000918 1.099105 0.549626
v -0.211250 1.098931 0.507788
v -0.389563 1.098781 0.388645
v -0.508707 1.098682 0.210333
v -0.550544 1.098647 -0.000000
v -0.508707 1.098682 -0.210333
v -0.389562 1.098781 -0.388645
v -0.211251 1.098929 -0.507789
v -0.000312 0.373608 -0.610550
v 0.233335 0.373803 -0.564074
v 0.431410 0.373968 -0.431723
v 0.563760 0.374079 -0.233647
v 0.610237 0.374117 0.000000
v 0.563762 0.374079 0.233647
v 0.431411 0.373968 0.431724
v 0.233335 0.373803 0.564074
v -0.000312 0.373608 0.610550
v -0.233959 0.373412 0.564074
v -0.432036 0.373248 0.431724
v -0.564386 0.373137 0.233647
v -0.610862 0.373098 -0.000000
v -0.564386 0.373137 -0.233647
v -0.432036 0.373248 -0.431724
v -0.233959 0.373412 -0.564074
v -0.000348 0.416246 -0.549626
v 0.209985 0.416422 -0.507789
v 0.388296 0.416571 -0.388645
v 0.507440 0.416671 -0.210333
v 0.549278 0.416706 0.000000
v 0.507440 0.416671 0.210333
v 0.388296 0.416571 0.388645
v 0.209985 0.416422 0.507788
v -0.000348 0.416246 0.549627
v -0.210681 0.416071 0.507788
v -0.388992 0.415922 0.388645
v -0.508137 0.415823 0.210333
v -0.549974 0.415788 0.000000
v -0.508136 0.415823 -0.210333
v -0.388993 0.415922 -0.388645
v -0.210681 0.416071 -0.507788
vt 0.863933 0.981616
vt 0.837982 0.968945
vt 0.868658 0.966312
vt 0.762569 0.884802
vt 0.824308 0.976180
vt 0.807840 0.854996
vt 0.836745 0.876607
vt 0.803659 0.873655
vt 0.922715 0.979871
vt 0.894794 0.963357
vt 0.921697 0.961345
vt 0.871467 0.860266
vt 0.895099 0.873427
vt 0.867214 0.877253
vt 0.947085 0.959990
vt 0.950577 0.977541
vt 0.898704 0.857439
vt 0.919507 0.863619
vt 0.840845 0.858826
vt 0.974780 0.960302
vt 0.977528 0.978329
vt 0.775570 0.848275
vt 0.769783 0.868007
vt 0.983099 0.945932
vt 0.933061 0.858407
vt 0.892241 0.980942
vt 0.333341 0.292208
vt 0.146652 0.376402
vt 0.138126 0.310512
vt 0.341405 0.344292
vt 0.159162 0.441854
vt 0.369432 0.445730
vt 0.176323 0.505827
vt 0.200341 0.568370
vt 0.152566 0.050203
vt 0.336417 0.136714
vt 0.140805 0.114947
vt 0.135603 0.179851
vt 0.329769 0.239519
vt 0.134793 0.244789
vt 0.138126 0.310512
vt 0.333341 0.292208
vt 0.146652 0.376402
vt 0.352263 0.395454
vt 0.159162 0.441854
vt 0.176323 0.505827
vt 0.395843 0.498309
vt 0.200341 0.568370
vt 0.352034 0.081441
vt 0.140805 0.114947
vt 0.152566 0.050203
vt 0.330792 0.188296
vt 0.135603 0.179851
vt 0.329769 0.239519
vt 0.134793 0.244789
vt 0.374681 0.287744
vt 0.379287 0.337639
vt 0.352263 0.395454
vt 0.389922 0.384971
vt 0.428292 0.470891
vt 0.403848 0.430336
vt 0.373470 0.144742
vt 0.352034 0.081441
vt 0.387362 0.100883
vt 0.367477 0.190676
vt 0.368624 0.238009
vt 0.330792 0.188296
vt 0.374681 0.287744
vt 0.341405 0.344292
vt 0.389922 0.384971
vt 0.379287 0.337639
vt 0.369432 0.445730
vt 0.403848 0.430336
vt 0.373470 0.144742
vt 0.387362 0.100883
vt 0.336417 0.136714
vt 0.367477 0.190676
vt 0.368624 0.238009
vt 0.015779 0.246559
vt 0.138126 0.310512
vt 0.018963 0.320171
vt 0.017352 0.173372
vt 0.134793 0.244789
vt 0.024016 0.101098
vt 0.135603 0.179851
vt 0.033280 0.031828
vt 0.140805 0.114947
vt 0.176323 0.505827
vt 0.082169 0.609723
vt 0.060122 0.539178
vt 0.159162 0.441854
vt 0.041423 0.467844
vt 0.146652 0.376402
vt 0.027073 0.394357
vt 0.018963 0.320171
vt 0.015779 0.246559
vt 0.138126 0.310512
vt 0.017352 0.173372
vt 0.134793 0.244789
vt 0.140805 0.114947
vt 0.024016 0.101098
vt 0.152566 0.050203
vt 0.033280 0.031828
vt 0.060122 0.539178
vt 0.200341 0.568370
vt 0.082169 0.609723
vt 0.041423 0.467844
vt 0.176323 0.505827
vt 0.027073 0.394357
vt 0.159162 0.441854
vt 0.146652 0.376402
vt 0.152566 0.050203
vt 0.200341 0.568370
vt 0.135603 0.179851
vt 0.833699 0.984376
vt 0.921584 0.848275
vt 0.395843 0.498309
vt 0.428292 0.470891
vn -0.5896 0.7790 -0.2134
vn -0.9774 -0.0008 -0.2113
vn 0.6624 -0.6932 -0.2841
vn -0.5673 0.8000 -0.1954
vn 0.3472 -0.8907 -0.2934
vn -0.5526 0.8086 -0.2020
vn 0.0808 -0.9741 -0.2111
vn 0.5341 -0.7873 -0.3080
vn -0.6984 0.7089 -0.0986
vn 0.7586 -0.6074 -0.2356
vn 0.8847 0.0007 -0.4662
vn -0.4542 0.8630 -0.2213
vn 0.8315 0.0007 0.5556
vn 0.5556 0.0005 0.8315
vn -0.5556 -0.0005 0.8315
vn 0.1951 0.0002 0.9808
vn -0.1951 -0.0002 0.9808
vn 0.1951 0.0002 -0.9808
vn 0.5556 0.0005 -0.8315
vn 0.8315 0.0007 -0.5556
vn 0.9808 0.0008 -0.1951
vn 0.9808 0.0008 0.1951
vn -0.8315 -0.0007 0.5556
vn -0.9808 -0.0008 0.1951
vn -0.9808 -0.0008 -0.1951
vn -0.8315 -0.0007 -0.5556
vn -0.5556 -0.0005 -0.8315
vn -0.1951 -0.0002 -0.9808
vn -0.0008 1.0000 0.0000
vn -0.1140 0.8139 -0.5697
vn -0.3234 0.8137 -0.4830
vn -0.4837 0.8136 -0.3227
vn -0.5704 0.8135 -0.1133
vn -0.5704 0.8135 0.1133
vn -0.4837 0.8136 0.3227
vn -0.3234 0.8137 0.4830
vn -0.1140 0.8139 0.5697
vn 0.1126 0.8141 0.5697
vn 0.3220 0.8143 0.4830
vn 0.4823 0.8144 0.3227
vn 0.5690 0.8145 0.1133
vn 0.5690 0.8145 -0.1133
vn 0.4823 0.8144 -0.3227
vn 0.3220 0.8143 -0.4830
vn 0.1126 0.8141 -0.5697
vn 0.8847 0.0007 -0.4661
vn -0.4836 0.8136 0.3227
s off
f 24/1/1 5/2/1 1/3/1
f 19/4/2 5/2/2 20/5/2
f 23/6/3 4/7/3 2/8/3
f 16/9/4 3/10/4 9/11/4
f 15/12/5 12/13/5 10/14/5
f 16/9/6 11/15/6 14/16/6
f 13/17/7 7/18/7 12/13/7
f 21/19/8 10/14/8 4/7/8
f 14/16/9 8/20/9 17/21/9
f 19/22/10 2/8/10 6/23/10
f 17/24/11 7/18/11 18/25/11
f 22/26/12 1/3/12 3/10/12
f 7/18/13 11/15/13 12/13/13
f 12/13/14 9/11/14 10/14/14
f 2/8/15 5/2/15 6/23/15
f 10/14/16 3/10/16 4/7/16
f 4/7/17 1/3/17 2/8/17
f 58/27/18 90/28/18 89/29/18
f 57/30/19 91/31/19 90/28/19
f 91/31/20 60/32/20 92/33/20
f 60/32/21 93/34/21 92/33/21
f 93/35/22 62/36/22 94/37/22
f 62/36/13 95/38/13 94/37/13
f 95/38/14 64/39/14 96/40/14
f 64/39/16 97/41/16 96/40/16
f 65/42/17 98/43/17 97/41/17
f 98/43/15 67/44/15 99/45/15
f 67/44/23 100/46/23 99/45/23
f 100/46/24 69/47/24 101/48/24
f 69/49/25 102/50/25 101/51/25
f 102/50/26 71/52/26 103/53/26
f 103/53/27 72/54/27 104/55/27
f 72/54/28 89/29/28 104/55/28
f 26/56/29 57/30/29 58/27/29
f 28/57/29 59/58/29 57/30/29
f 30/59/29 60/32/29 59/58/29
f 34/60/29 60/32/29 32/61/29
f 36/62/29 61/63/29 34/64/29
f 38/65/29 62/36/29 36/62/29
f 40/66/29 63/67/29 38/65/29
f 42/68/29 64/39/29 40/66/29
f 42/68/29 66/69/29 65/42/29
f 46/70/29 66/69/29 44/71/29
f 46/70/29 68/72/29 67/44/29
f 48/73/29 69/47/29 68/72/29
f 52/74/29 69/49/29 50/75/29
f 52/74/29 71/52/29 70/76/29
f 54/77/29 72/54/29 71/52/29
f 56/78/29 58/27/29 72/54/29
f 55/79/28 73/80/28 25/81/28
f 53/82/27 88/83/27 55/79/27
f 51/84/26 87/85/26 53/82/26
f 49/86/25 86/87/25 51/84/25
f 84/88/24 49/89/24 47/90/24
f 83/91/23 47/90/23 45/92/23
f 82/93/15 45/92/15 43/94/15
f 41/95/17 82/93/17 43/94/17
f 39/96/16 81/97/16 41/95/16
f 37/98/14 80/99/14 39/96/14
f 78/100/13 37/98/13 35/101/13
f 77/102/22 35/101/22 33/103/22
f 31/104/21 77/105/21 33/106/21
f 29/107/20 76/108/20 31/104/20
f 27/109/19 75/110/19 29/107/19
f 25/81/18 74/111/18 27/109/18
f 88/83/30 89/29/30 73/80/30
f 87/85/31 104/55/31 88/83/31
f 86/87/32 103/53/32 87/85/32
f 101/51/33 86/87/33 85/112/33
f 84/88/34 101/48/34 85/113/34
f 83/91/35 100/46/35 84/88/35
f 98/43/36 83/91/36 82/93/36
f 97/41/37 82/93/37 81/97/37
f 96/40/38 81/97/38 80/99/38
f 95/38/39 80/99/39 79/114/39
f 94/37/40 79/114/40 78/100/40
f 93/35/41 78/100/41 77/102/41
f 76/108/42 93/34/42 77/105/42
f 91/31/43 76/108/43 75/110/43
f 90/28/44 75/110/44 74/111/44
f 73/80/45 90/28/45 74/111/45
f 24/1/1 20/115/1 5/2/1
f 19/4/2 6/23/2 5/2/2
f 23/6/3 21/19/3 4/7/3
f 16/9/4 22/26/4 3/10/4
f 15/12/5 13/17/5 12/13/5
f 16/9/6 9/11/6 11/15/6
f 13/17/7 18/116/7 7/18/7
f 21/19/8 15/12/8 10/14/8
f 14/16/9 11/15/9 8/20/9
f 19/22/10 23/6/10 2/8/10
f 17/24/46 8/20/46 7/18/46
f 22/26/12 24/1/12 1/3/12
f 7/18/13 8/20/13 11/15/13
f 12/13/14 11/15/14 9/11/14
f 2/8/15 1/3/15 5/2/15
f 10/14/16 9/11/16 3/10/16
f 4/7/17 3/10/17 1/3/17
f 58/27/18 57/30/18 90/28/18
f 57/30/19 59/58/19 91/31/19
f 91/31/20 59/58/20 60/32/20
f 60/32/21 61/117/21 93/34/21
f 93/35/22 61/63/22 62/36/22
f 62/36/13 63/67/13 95/38/13
f 95/38/14 63/67/14 64/39/14
f 64/39/16 65/42/16 97/41/16
f 65/42/17 66/69/17 98/43/17
f 98/43/15 66/69/15 67/44/15
f 67/44/23 68/72/23 100/46/23
f 100/46/24 68/72/24 69/47/24
f 69/49/25 70/76/25 102/50/25
f 102/50/26 70/76/26 71/52/26
f 103/53/27 71/52/27 72/54/27
f 72/54/28 58/27/28 89/29/28
f 26/56/29 28/57/29 57/30/29
f 28/57/29 30/59/29 59/58/29
f 30/59/29 32/61/29 60/32/29
f 34/60/29 61/117/29 60/32/29
f 36/62/29 62/36/29 61/63/29
f 38/65/29 63/67/29 62/36/29
f 40/66/29 64/39/29 63/67/29
f 42/68/29 65/42/29 64/39/29
f 42/68/29 44/71/29 66/69/29
f 46/70/29 67/44/29 66/69/29
f 46/70/29 48/73/29 68/72/29
f 48/73/29 50/118/29 69/47/29
f 52/74/29 70/76/29 69/49/29
f 52/74/29 54/77/29 71/52/29
f 54/77/29 56/78/29 72/54/29
f 56/78/29 26/56/29 58/27/29
f 55/79/28 88/83/28 73/80/28
f 53/82/27 87/85/27 88/83/27
f 51/84/26 86/87/26 87/85/26
f 49/86/25 85/112/25 86/87/25
f 84/88/24 85/113/24 49/89/24
f 83/91/23 84/88/23 47/90/23
f 82/93/15 83/91/15 45/92/15
f 41/95/17 81/97/17 82/93/17
f 39/96/16 80/99/16 81/97/16
f 37/98/14 79/114/14 80/99/14
f 78/100/13 79/114/13 37/98/13
f 77/102/22 78/100/22 35/101/22
f 31/104/21 76/108/21 77/105/21
f 29/107/20 75/110/20 76/108/20
f 27/109/19 74/111/19 75/110/19
f 25/81/18 73/80/18 74/111/18
f 88/83/30 104/55/30 89/29/30
f 87/85/31 103/53/31 104/55/31
f 86/87/32 102/50/32 103/53/32
f 101/51/33 102/50/33 86/87/33
f 84/88/34 100/46/34 101/48/34
f 83/91/47 99/45/47 100/46/47
f 98/43/36 99/45/36 83/91/36
f 97/41/37 98/43/37 82/93/37
f 96/40/38 97/41/38 81/97/38
f 95/38/39 96/40/39 80/99/39
f 94/37/40 95/38/40 79/114/40
f 93/35/41 94/37/41 78/100/41
f 76/108/42 92/33/42 93/34/42
f 91/31/43 92/33/43 76/108/43
f 90/28/44 91/31/44 75/110/44
f 73/80/45 89/29/45 90/28/45
