# Blender v2.81 (sub 16) OBJ File: 'Boat2.0 - Joined.blend'
# www.blender.org
v -0.123081 4.080586 0.433726
v -0.122450 3.324969 0.433726
v 0.033576 4.171033 0.464901
v 0.034168 3.461864 0.464901
v -0.255847 3.955772 0.344944
v -0.255211 3.193593 0.344944
v 0.412355 3.697498 0.212073
v 0.411759 4.412026 0.212073
v 0.190221 4.274510 0.433726
v 0.190801 3.580328 0.433726
v 0.323034 4.343097 0.344944
v 0.323605 3.661341 0.344944
v 0.289068 3.678857 0.250883
v 0.288553 4.296040 0.250883
v 0.168843 3.605515 0.331256
v 0.168318 4.233949 0.331256
v 0.368874 4.358441 0.130597
v 0.369413 3.711589 0.130597
v -0.234926 3.255409 0.250883
v -0.235503 3.945401 0.250883
v 0.027045 3.498271 0.359479
v 0.026508 4.140274 0.359479
v -0.114739 3.374343 0.331256
v -0.115310 4.058393 0.331256
v -0.000000 0.000001 -0.610549
v -0.000918 1.099105 -0.409560
v 0.233647 0.000195 -0.564074
v 0.155814 1.099236 -0.378384
v 0.431723 0.000362 -0.431724
v 0.288686 1.099347 -0.289603
v 0.564074 0.000472 -0.233647
v 0.377466 1.099422 -0.156732
v 0.610549 0.000510 0.000000
v 0.408643 1.099447 0.000000
v 0.564073 0.000472 0.233647
v 0.377467 1.099422 0.156732
v 0.431723 0.000362 0.431723
v 0.288685 1.099347 0.289603
v 0.233646 0.000195 0.564074
v 0.155814 1.099236 0.378384
v -0.000000 0.000001 0.610549
v -0.000918 1.099105 0.409560
v -0.233647 -0.000194 0.564074
v -0.157650 1.098975 0.378384
v -0.431724 -0.000360 0.431724
v -0.290522 1.098864 0.289603
v -0.564073 -0.000470 0.233647
v -0.379303 1.098789 0.156732
v -0.610549 -0.000509 -0.000000
v -0.410479 1.098764 0.000000
v -0.564073 -0.000470 -0.233647
v -0.379303 1.098789 -0.156732
v -0.431724 -0.000360 -0.431724
v -0.290520 1.098864 -0.289603
v -0.233647 -0.000194 -0.564074
v -0.157650 1.098975 -0.378384
v 0.209415 1.099282 -0.507789
v -0.000918 1.099105 -0.549627
v 0.387725 1.099430 -0.388645
v 0.506870 1.099529 -0.210333
v 0.548708 1.099564 0.000000
v 0.506870 1.099529 0.210333
v 0.387726 1.099430 0.388645
v 0.209415 1.099281 0.507789
v -0.000918 1.099105 0.549626
v -0.211250 1.098931 0.507788
v -0.389563 1.098781 0.388645
v -0.508707 1.098682 0.210333
v -0.550544 1.098647 -0.000000
v -0.508707 1.098682 -0.210333
v -0.389562 1.098781 -0.388645
v -0.211251 1.098929 -0.507789
v -0.000312 0.373608 -0.610550
v 0.233335 0.373803 -0.564074
v 0.431410 0.373968 -0.431723
v 0.563760 0.374079 -0.233647
v 0.610237 0.374117 0.000000
v 0.563762 0.374079 0.233647
v 0.431411 0.373968 0.431724
v 0.233335 0.373803 0.564074
v -0.000312 0.373608 0.610550
v -0.233959 0.373412 0.564074
v -0.432036 0.373248 0.431724
v -0.564386 0.373137 0.233647
v -0.610862 0.373098 -0.000000
v -0.564386 0.373137 -0.233647
v -0.432036 0.373248 -0.431724
v -0.233959 0.373412 -0.564074
v -0.000348 0.416246 -0.549626
v 0.209985 0.416422 -0.507789
v 0.388296 0.416571 -0.388645
v 0.507440 0.416671 -0.210333
v 0.549278 0.416706 0.000000
v 0.507440 0.416671 0.210333
v 0.388296 0.416571 0.388645
v 0.209985 0.416422 0.507788
v -0.000348 0.416246 0.549627
v -0.210681 0.416071 0.507788
v -0.388992 0.415922 0.388645
v -0.508137 0.415823 0.210333
v -0.549974 0.415788 0.000000
v -0.508136 0.415823 -0.210333
v -0.388993 0.415922 -0.388645
v -0.210681 0.416071 -0.507788
vt 0.863933 0.981616
vt 0.837982 0.968945
vt 0.868658 0.966312
vt 0.762569 0.884802
vt 0.824308 0.976180
vt 0.807840 0.854996
vt 0.836745 0.876607
vt 0.803659 0.873655
vt 0.922715 0.979871
vt 0.894794 0.963357
vt 0.921697 0.961345
vt 0.871467 0.860266
vt 0.895099 0.873427
vt 0.867214 0.877253
vt 0.947085 0.959990
vt 0.950577 0.977541
vt 0.898704 0.857439
vt 0.919507 0.863619
vt 0.840845 0.858826
vt 0.974780 0.960302
vt 0.977528 0.978329
vt 0.775570 0.848275
vt 0.769783 0.868007
vt 0.983099 0.945932
vt 0.933061 0.858407
vt 0.892241 0.980942
vt 0.333341 0.292208
vt 0.146652 0.376402
vt 0.138126 0.310512
vt 0.341405 0.344292
vt 0.159162 0.441854
vt 0.369432 0.445730
vt 0.176323 0.505827
vt 0.200341 0.568370
vt 0.152566 0.050203
vt 0.336417 0.136714
vt 0.140805 0.114947
vt 0.135603 0.179851
vt 0.329769 0.239519
vt 0.134793 0.244789
vt 0.138126 0.310512
vt 0.333341 0.292208
vt 0.146652 0.376402
vt 0.352263 0.395454
vt 0.159162 0.441854
vt 0.176323 0.505827
vt 0.395843 0.498309
vt 0.200341 0.568370
vt 0.352034 0.081441
vt 0.140805 0.114947
vt 0.152566 0.050203
vt 0.330792 0.188296
vt 0.135603 0.179851
vt 0.329769 0.239519
vt 0.134793 0.244789
vt 0.374681 0.287744
vt 0.379287 0.337639
vt 0.352263 0.395454
vt 0.389922 0.384971
vt 0.428292 0.470891
vt 0.403848 0.430336
vt 0.373470 0.144742
vt 0.352034 0.081441
vt 0.387362 0.100883
vt 0.367477 0.190676
vt 0.368624 0.238009
vt 0.330792 0.188296
vt 0.374681 0.287744
vt 0.341405 0.344292
vt 0.389922 0.384971
vt 0.379287 0.337639
vt 0.369432 0.445730
vt 0.403848 0.430336
vt 0.373470 0.144742
vt 0.387362 0.100883
vt 0.336417 0.136714
vt 0.367477 0.190676
vt 0.368624 0.238009
vt 0.015779 0.246559
vt 0.138126 0.310512
vt 0.018963 0.320171
vt 0.017352 0.173372
vt 0.134793 0.244789
vt 0.024016 0.101098
vt 0.135603 0.179851
vt 0.033280 0.031828
vt 0.140805 0.114947
vt 0.176323 0.505827
vt 0.082169 0.609723
vt 0.060122 0.539178
vt 0.159162 0.441854
vt 0.041423 0.467844
vt 0.146652 0.376402
vt 0.027073 0.394357
vt 0.018963 0.320171
vt 0.015779 0.246559
vt 0.138126 0.310512
vt 0.017352 0.173372
vt 0.134793 0.244789
vt 0.140805 0.114947
vt 0.024016 0.101098
vt 0.152566 0.050203
vt 0.033280 0.031828
vt 0.060122 0.539178
vt 0.200341 0.568370
vt 0.082169 0.609723
vt 0.041423 0.467844
vt 0.176323 0.505827
vt 0.027073 0.394357
vt 0.159162 0.441854
vt 0.146652 0.376402
vt 0.152566 0.050203
vt 0.200341 0.568370
vt 0.135603 0.179851
vt 0.833699 0.984376
vt 0.921584 0.848275
vt 0.395843 0.498309
vt 0.428292 0.470891
vn -0.5380 0.8144 -0.2172
vn -0.8964 0.3536 0.2671
vn -0.5884 0.5912 0.5516
vn -0.5272 -0.6534 -0.5431
vn -0.9026 0.3607 -0.2350
vn 0.7103 -0.6535 -0.2614
vn 0.4270 -0.6106 0.6669
vn 0.2240 -0.6680 0.7096
vn -0.5600 0.8043 -0.1986
vn -0.3405 0.6344 0.6939
vn -0.0826 0.7284 0.6802
vn 0.4277 -0.8523 -0.3011
vn 0.6959 -0.5972 0.3988
vn 0.5868 -0.5870 0.5577
vn 0.1951 0.7863 0.5862
vn -0.6363 0.7575 -0.1457
vn 0.1802 -0.9530 -0.2436
vn 0.8202 -0.5713 -0.0297
vn 0.5941 -0.7470 -0.2981
vn 0.4736 0.8807 -0.0090
vn 0.5108 0.5699 -0.6437
vn -0.3640 -0.9134 0.1818
vn 0.7426 -0.4737 -0.4733
vn -0.5051 0.8370 -0.2103
vn -0.0005 0.6657 -0.7462
vn 0.3338 0.4874 -0.8068
vn -0.0004 0.4871 -0.8733
vn 0.2850 0.6659 -0.6894
vn 0.6171 0.4876 -0.6175
vn 0.6888 0.6663 -0.2855
vn 0.8065 0.4877 -0.3342
vn 0.8730 0.4878 0.0000
vn 0.6888 0.6663 0.2855
vn 0.8065 0.4877 0.3342
vn 0.6171 0.4876 0.6175
vn 0.2850 0.6659 0.6894
vn 0.3338 0.4874 0.8068
vn -0.0004 0.4871 0.8733
vn -0.0005 0.6657 0.7462
vn -0.3346 0.4868 0.8069
vn -0.5282 0.6653 0.5276
vn -0.6179 0.4866 0.6175
vn -0.8073 0.4864 0.3342
vn -0.7468 0.6651 0.0000
vn -0.8737 0.4863 0.0000
vn -0.8073 0.4864 -0.3342
vn -0.5282 0.6653 -0.5276
vn -0.6179 0.4866 -0.6175
vn -0.2861 0.6655 -0.6894
vn -0.3346 0.4868 -0.8069
vn -0.0008 1.0000 0.0000
vn 0.5271 0.6662 -0.5276
vn 0.7456 0.6663 0.0000
vn 0.5271 0.6662 0.5276
vn -0.2861 0.6655 0.6894
vn -0.6899 0.6651 0.2855
vn -0.6899 0.6651 -0.2855
vn -0.3827 -0.0003 -0.9239
vn -0.0004 0.4398 -0.8981
vn 0.0000 0.0000 -1.0000
vn -0.7071 -0.0006 -0.7071
vn -0.3440 0.4395 -0.8297
vn -0.9239 -0.0008 -0.3827
vn -0.6354 0.4393 -0.6350
vn -1.0000 -0.0008 0.0000
vn -0.8301 0.4391 -0.3437
vn -0.8301 0.4391 0.3437
vn -0.9239 -0.0008 0.3827
vn -0.6354 0.4393 0.6350
vn -0.7071 -0.0006 0.7071
vn -0.3440 0.4395 0.8297
vn -0.3827 -0.0003 0.9239
vn 0.0000 0.0000 1.0000
vn 0.3827 0.0003 0.9239
vn -0.0004 0.4398 0.8981
vn 0.7071 0.0006 0.7071
vn 0.3433 0.4401 0.8297
vn 0.8293 0.4405 0.3437
vn 0.9239 0.0008 0.3827
vn 0.8977 0.4406 0.0000
vn 1.0000 0.0008 0.0000
vn 0.9239 0.0008 -0.3827
vn 0.7071 0.0006 -0.7071
vn 0.8293 0.4405 -0.3437
vn 0.3827 0.0003 -0.9239
vn 0.6347 0.4403 -0.6350
vn 0.3433 0.4401 -0.8297
vn -0.8984 0.4391 0.0000
vn 0.6347 0.4403 0.6350
s 1
f 24/1/1 5/2/2 1/3/3
f 19/4/4 5/2/2 20/5/5
f 23/6/6 4/7/7 2/8/8
f 16/9/9 3/10/10 9/11/11
f 15/12/12 12/13/13 10/14/14
f 16/9/9 11/15/15 14/16/16
f 13/17/17 7/18/18 12/13/13
f 21/19/19 10/14/14 4/7/7
f 14/16/16 8/20/20 17/21/21
f 19/22/4 2/8/8 6/23/22
f 17/24/21 7/18/18 18/25/23
f 22/26/24 1/3/3 3/10/10
f 7/18/18 11/15/15 12/13/13
f 12/13/13 9/11/11 10/14/14
f 2/8/8 5/2/2 6/23/22
f 10/14/14 3/10/10 4/7/7
f 4/7/7 1/3/3 2/8/8
f 58/27/25 90/28/26 89/29/27
f 57/30/28 91/31/29 90/28/26
f 91/31/29 60/32/30 92/33/31
f 60/32/30 93/34/32 92/33/31
f 93/35/32 62/36/33 94/37/34
f 62/36/33 95/38/35 94/37/34
f 95/38/35 64/39/36 96/40/37
f 64/39/36 97/41/38 96/40/37
f 65/42/39 98/43/40 97/41/38
f 98/43/40 67/44/41 99/45/42
f 67/44/41 100/46/43 99/45/42
f 100/46/43 69/47/44 101/48/45
f 69/49/44 102/50/46 101/51/45
f 102/50/46 71/52/47 103/53/48
f 103/53/48 72/54/49 104/55/50
f 72/54/49 89/29/27 104/55/50
f 26/56/51 57/30/28 58/27/25
f 28/57/51 59/58/52 57/30/28
f 30/59/51 60/32/30 59/58/52
f 34/60/51 60/32/30 32/61/51
f 36/62/51 61/63/53 34/64/51
f 38/65/51 62/36/33 36/62/51
f 40/66/51 63/67/54 38/65/51
f 42/68/51 64/39/36 40/66/51
f 42/68/51 66/69/55 65/42/39
f 46/70/51 66/69/55 44/71/51
f 46/70/51 68/72/56 67/44/41
f 48/73/51 69/47/44 68/72/56
f 52/74/51 69/49/44 50/75/51
f 52/74/51 71/52/47 70/76/57
f 54/77/51 72/54/49 71/52/47
f 56/78/51 58/27/25 72/54/49
f 55/79/58 73/80/59 25/81/60
f 53/82/61 88/83/62 55/79/58
f 51/84/63 87/85/64 53/82/61
f 49/86/65 86/87/66 51/84/63
f 84/88/67 49/89/65 47/90/68
f 83/91/69 47/90/68 45/92/70
f 82/93/71 45/92/70 43/94/72
f 41/95/73 82/93/71 43/94/72
f 39/96/74 81/97/75 41/95/73
f 37/98/76 80/99/77 39/96/74
f 78/100/78 37/98/76 35/101/79
f 77/102/80 35/101/79 33/103/81
f 31/104/82 77/105/80 33/106/81
f 29/107/83 76/108/84 31/104/82
f 27/109/85 75/110/86 29/107/83
f 25/81/60 74/111/87 27/109/85
f 88/83/62 89/29/27 73/80/59
f 87/85/64 104/55/50 88/83/62
f 86/87/66 103/53/48 87/85/64
f 101/51/45 86/87/66 85/112/88
f 84/88/67 101/48/45 85/113/88
f 83/91/69 100/46/43 84/88/67
f 98/43/40 83/91/69 82/93/71
f 97/41/38 82/93/71 81/97/75
f 96/40/37 81/97/75 80/99/77
f 95/38/35 80/99/77 79/114/89
f 94/37/34 79/114/89 78/100/78
f 93/35/32 78/100/78 77/102/80
f 76/108/84 93/34/32 77/105/80
f 91/31/29 76/108/84 75/110/86
f 90/28/26 75/110/86 74/111/87
f 73/80/59 90/28/26 74/111/87
f 24/1/1 20/115/5 5/2/2
f 19/4/4 6/23/22 5/2/2
f 23/6/6 21/19/19 4/7/7
f 16/9/9 22/26/24 3/10/10
f 15/12/12 13/17/17 12/13/13
f 16/9/9 9/11/11 11/15/15
f 13/17/17 18/116/23 7/18/18
f 21/19/19 15/12/12 10/14/14
f 14/16/16 11/15/15 8/20/20
f 19/22/4 23/6/6 2/8/8
f 17/24/21 8/20/20 7/18/18
f 22/26/24 24/1/1 1/3/3
f 7/18/18 8/20/20 11/15/15
f 12/13/13 11/15/15 9/11/11
f 2/8/8 1/3/3 5/2/2
f 10/14/14 9/11/11 3/10/10
f 4/7/7 3/10/10 1/3/3
f 58/27/25 57/30/28 90/28/26
f 57/30/28 59/58/52 91/31/29
f 91/31/29 59/58/52 60/32/30
f 60/32/30 61/117/53 93/34/32
f 93/35/32 61/63/53 62/36/33
f 62/36/33 63/67/54 95/38/35
f 95/38/35 63/67/54 64/39/36
f 64/39/36 65/42/39 97/41/38
f 65/42/39 66/69/55 98/43/40
f 98/43/40 66/69/55 67/44/41
f 67/44/41 68/72/56 100/46/43
f 100/46/43 68/72/56 69/47/44
f 69/49/44 70/76/57 102/50/46
f 102/50/46 70/76/57 71/52/47
f 103/53/48 71/52/47 72/54/49
f 72/54/49 58/27/25 89/29/27
f 26/56/51 28/57/51 57/30/28
f 28/57/51 30/59/51 59/58/52
f 30/59/51 32/61/51 60/32/30
f 34/60/51 61/117/53 60/32/30
f 36/62/51 62/36/33 61/63/53
f 38/65/51 63/67/54 62/36/33
f 40/66/51 64/39/36 63/67/54
f 42/68/51 65/42/39 64/39/36
f 42/68/51 44/71/51 66/69/55
f 46/70/51 67/44/41 66/69/55
f 46/70/51 48/73/51 68/72/56
f 48/73/51 50/118/51 69/47/44
f 52/74/51 70/76/57 69/49/44
f 52/74/51 54/77/51 71/52/47
f 54/77/51 56/78/51 72/54/49
f 56/78/51 26/56/51 58/27/25
f 55/79/58 88/83/62 73/80/59
f 53/82/61 87/85/64 88/83/62
f 51/84/63 86/87/66 87/85/64
f 49/86/65 85/112/88 86/87/66
f 84/88/67 85/113/88 49/89/65
f 83/91/69 84/88/67 47/90/68
f 82/93/71 83/91/69 45/92/70
f 41/95/73 81/97/75 82/93/71
f 39/96/74 80/99/77 81/97/75
f 37/98/76 79/114/89 80/99/77
f 78/100/78 79/114/89 37/98/76
f 77/102/80 78/100/78 35/101/79
f 31/104/82 76/108/84 77/105/80
f 29/107/83 75/110/86 76/108/84
f 27/109/85 74/111/87 75/110/86
f 25/81/60 73/80/59 74/111/87
f 88/83/62 104/55/50 89/29/27
f 87/85/64 103/53/48 104/55/50
f 86/87/66 102/50/46 103/53/48
f 101/51/45 102/50/46 86/87/66
f 84/88/67 100/46/43 101/48/45
f 83/91/69 99/45/42 100/46/43
f 98/43/40 99/45/42 83/91/69
f 97/41/38 98/43/40 82/93/71
f 96/40/37 97/41/38 81/97/75
f 95/38/35 96/40/37 80/99/77
f 94/37/34 95/38/35 79/114/89
f 93/35/32 94/37/34 78/100/78
f 76/108/84 92/33/31 93/34/32
f 91/31/29 92/33/31 76/108/84
f 90/28/26 91/31/29 75/110/86
f 73/80/59 89/29/27 90/28/26
