# Blender v2.81 (sub 16) OBJ File: 'Boat2.0 - Joined.blend'
# www.blender.org
v -0.000000 1.723705 0.832278
v -0.000000 1.880296 0.832278
v -0.000000 1.723705 -0.832278
v -0.000000 1.880296 -0.832278
v -0.000000 0.684724 0.832278
v -0.000000 0.841314 0.832278
v -0.000000 0.684724 -0.832278
v -0.000000 0.841314 -0.832278
v -0.000000 2.871454 0.832278
v -0.000000 2.871454 -0.832278
v -0.738998 1.723705 -0.644944
v -0.738998 1.723705 0.644944
v -0.738998 1.880296 0.644944
v -0.738998 1.880296 -0.644944
v -0.000000 1.723705 0.644944
v -0.000000 1.723705 -0.644944
v -0.000000 1.880296 -0.644944
v -0.000000 1.880296 0.644944
v -0.738998 0.684724 -0.644944
v -0.738998 0.684724 0.644944
v -0.738998 0.841314 0.644944
v -0.738998 0.841314 -0.644944
v -0.000000 0.684724 0.644944
v -0.000000 0.684724 -0.644944
v -0.000000 0.841314 -0.644944
v -0.000000 0.841314 0.644944
v -0.000000 2.871454 -0.644944
v -0.000000 2.871454 0.644944
v -0.738998 2.871454 0.644944
v -0.738998 2.871454 -0.644944
v -0.000000 0.118120 0.832278
v -0.000000 0.118120 -0.832278
v -0.738998 0.118120 -0.644944
v -0.738998 0.118120 0.644944
v -0.000000 0.118120 0.644944
v -0.000000 0.118120 -0.644944
v -0.000000 0.000000 0.832278
v -0.000000 0.000000 -0.832278
v -0.000000 0.000000 0.644944
v -0.000000 0.000000 -0.644944
v -0.000000 2.992815 0.832278
v -0.000000 2.992815 -0.832278
v -0.000000 2.992815 -0.644944
v -0.000000 2.992815 0.644944
vt 0.912697 0.425681
vt 0.945260 0.452899
vt 0.912697 0.452899
vt 0.784244 0.452899
vt 0.560035 0.606277
vt 0.560035 0.452899
vt 0.912697 0.606277
vt 0.945260 0.633496
vt 0.912697 0.633496
vt 0.784244 0.633496
vt 0.560035 0.731983
vt 0.560035 0.633496
vt 0.431582 0.253397
vt 0.399019 0.425681
vt 0.399019 0.253397
vt 0.431582 0.606277
vt 0.399019 0.452899
vt 0.431582 0.452899
vt 0.076188 0.817462
vt 0.183643 0.411632
vt 0.183643 0.817462
vt 0.784244 0.253397
vt 0.560035 0.425681
vt 0.560035 0.253397
vt 0.206412 0.817462
vt 0.313867 0.411632
vt 0.313867 0.817462
vt 0.206412 0.411632
vt 0.431582 0.731983
vt 0.399019 0.633496
vt 0.431582 0.633496
vt 0.076188 0.817462
vt 0.183643 0.411632
vt 0.183643 0.817462
vt 0.206412 0.817462
vt 0.313867 0.411632
vt 0.313867 0.817462
vt 0.399019 0.606277
vt 0.206412 0.411632
vt 0.912697 0.731983
vt 0.945260 0.731983
vt 0.912697 0.253397
vt 0.945260 0.232302
vt 0.945260 0.253397
vt 0.945260 0.425681
vt 0.431582 0.425681
vt 0.784244 0.731983
vt 0.784244 0.606277
vt 0.912697 0.752515
vt 0.884822 0.876749
vt 0.478992 0.859574
vt 0.884822 0.859574
vt 0.399019 0.752515
vt 0.399019 0.731983
vt 0.884822 0.752119
vt 0.478992 0.752119
vt 0.431582 0.232302
vt 0.886024 0.876985
vt 0.480194 0.859338
vt 0.886024 0.859338
vt 0.480194 0.751883
vt 0.945260 0.606277
vt 0.076188 0.411632
vt 0.784244 0.425681
vt 0.076188 0.411632
vt 0.912697 0.232302
vt 0.945260 0.752515
vt 0.478992 0.876749
vt 0.431582 0.752515
vt 0.399019 0.232301
vt 0.480194 0.876985
vt 0.886024 0.751883
vn 1.0000 0.0000 0.0000
vn 0.0000 1.0000 0.0000
vn 0.0000 -1.0000 0.0000
vn 0.0000 0.0000 1.0000
vn 0.0000 0.0000 -1.0000
s off
f 18/1/1 1/2/1 15/3/1
f 12/4/1 22/5/1 11/6/1
f 26/7/1 5/8/1 23/9/1
f 20/10/1 33/11/1 19/12/1
f 27/13/1 4/14/1 10/15/1
f 25/16/1 3/17/1 16/18/1
f 14/19/2 18/20/2 17/21/2
f 29/22/1 14/23/1 30/24/1
f 16/25/3 12/26/3 11/27/3
f 4/14/1 16/18/1 3/17/1
f 17/21/1 15/28/1 16/25/1
f 36/29/1 7/30/1 24/31/1
f 22/32/2 26/33/2 25/34/2
f 24/35/3 20/36/3 19/37/3
f 8/38/1 24/31/1 7/30/1
f 25/34/1 23/39/1 24/35/1
f 35/40/1 5/8/1 31/41/1
f 28/42/1 41/43/1 9/44/1
f 1/2/1 26/7/1 15/3/1
f 28/42/1 2/45/1 18/1/1
f 36/29/4 19/12/4 33/11/4
f 25/16/4 11/6/4 22/5/4
f 30/24/4 17/46/4 27/13/4
f 20/10/5 35/40/5 34/47/5
f 12/4/5 26/7/5 21/48/5
f 18/1/5 29/22/5 28/42/5
f 31/41/1 39/49/1 35/40/1
f 39/50/1 36/51/1 35/52/1
f 36/29/1 38/53/1 32/54/1
f 34/55/2 36/51/2 33/56/2
f 10/15/1 43/57/1 27/13/1
f 43/58/1 28/59/1 27/60/1
f 29/61/3 27/60/3 28/59/3
f 18/1/1 2/45/1 1/2/1
f 12/4/1 21/48/1 22/5/1
f 26/7/1 6/62/1 5/8/1
f 20/10/1 34/47/1 33/11/1
f 27/13/1 17/46/1 4/14/1
f 25/16/1 8/38/1 3/17/1
f 14/19/2 13/63/2 18/20/2
f 29/22/1 13/64/1 14/23/1
f 16/25/3 15/28/3 12/26/3
f 4/14/1 17/46/1 16/18/1
f 17/21/1 18/20/1 15/28/1
f 36/29/1 32/54/1 7/30/1
f 22/32/2 21/65/2 26/33/2
f 24/35/3 23/39/3 20/36/3
f 8/38/1 25/16/1 24/31/1
f 25/34/1 26/33/1 23/39/1
f 35/40/1 23/9/1 5/8/1
f 28/42/1 44/66/1 41/43/1
f 1/2/1 6/62/1 26/7/1
f 28/42/1 9/44/1 2/45/1
f 36/29/4 24/31/4 19/12/4
f 25/16/4 16/18/4 11/6/4
f 30/24/4 14/23/4 17/46/4
f 20/10/5 23/9/5 35/40/5
f 12/4/5 15/3/5 26/7/5
f 18/1/5 13/64/5 29/22/5
f 31/41/1 37/67/1 39/49/1
f 39/50/1 40/68/1 36/51/1
f 36/29/1 40/69/1 38/53/1
f 34/55/2 35/52/2 36/51/2
f 10/15/1 42/70/1 43/57/1
f 43/58/1 44/71/1 28/59/1
f 29/61/3 30/72/3 27/60/3
