# Blender v2.81 (sub 16) OBJ File: 'SpawnDoor.blend'
# www.blender.org
v -0.647902 0.004140 0.034209
v -0.647902 2.901749 0.034209
v -0.749902 0.004140 -0.157204
v -0.749902 3.003750 -0.157204
v 0.647902 0.004140 0.034209
v 0.647902 2.901749 0.034209
v 0.749902 0.004140 -0.157204
v 0.749902 3.003750 -0.157204
v -0.749902 0.004140 0.034209
v -0.749902 3.003750 0.034209
v 0.749902 3.003750 0.034209
v 0.749902 0.004140 0.034209
v -0.647902 0.004140 -0.094319
v -0.597664 2.851511 -0.094319
v 0.597664 2.851511 -0.094319
v 0.647902 0.004140 -0.094319
v -0.647902 2.901749 -0.094319
v -0.597664 0.054379 -0.094319
v 0.647902 2.901749 -0.094319
v -0.487468 0.202869 -0.099048
v 0.597664 0.054379 -0.094319
v 0.487468 0.202869 -0.099048
v -0.487468 2.703021 -0.099048
v 0.487468 2.703021 -0.099048
v 0.569086 0.121251 -0.122766
v -0.569086 2.784638 -0.122766
v -0.569086 0.121251 -0.122766
v 0.569086 2.784638 -0.122766
v 0.513491 1.525303 -0.053939
v 0.513491 1.481333 -0.110765
v 0.513491 1.437568 -0.064033
v 0.513491 1.392214 -0.053939
v 0.533693 1.522773 -0.054339
v 0.536323 1.481221 -0.104172
v 0.539732 1.460507 -0.109141
v 0.536323 1.439794 -0.104172
v 0.533693 1.398242 -0.054339
v 0.538250 1.527324 -0.036738
v 0.544214 1.504565 -0.027890
v 0.548967 1.460507 -0.021987
v 0.544214 1.416449 -0.027890
v 0.538250 1.394773 -0.036738
v 0.513491 1.533994 -0.037139
v 0.513491 1.504565 -0.015803
v 0.513491 1.460507 -0.011789
v 0.513491 1.416449 -0.015803
v 0.513491 1.384606 -0.037139
v 0.488732 1.527324 -0.036738
v 0.482769 1.504565 -0.027890
v 0.478016 1.460507 -0.021987
v 0.482769 1.416449 -0.027890
v 0.488732 1.394773 -0.036738
v 0.493289 1.522773 -0.054339
v 0.490659 1.481221 -0.104172
v 0.487251 1.460507 -0.109141
v 0.490659 1.439794 -0.104172
v 0.493289 1.398242 -0.054339
v 0.535819 1.483447 -0.059289
v 0.539273 1.460507 -0.062362
v 0.535819 1.437568 -0.059289
v 0.513491 1.439682 -0.110765
v 0.513491 1.483447 -0.064033
v 0.491163 1.483447 -0.059289
v 0.487709 1.460507 -0.062362
v 0.491163 1.437568 -0.059289
vt 0.036640 0.390054
vt 0.329857 0.000099
vt 0.360816 0.027872
vt 0.006805 0.626254
vt 0.363661 0.978650
vt 0.339818 0.999901
vt 0.370818 0.036841
vt 0.072123 0.404077
vt 0.051262 0.396215
vt 0.000099 0.379861
vt 0.036776 0.613767
vt 0.056387 0.606940
vt 0.598961 0.462346
vt 0.591632 0.021406
vt 0.598889 0.008560
vt 0.074694 0.599279
vt 0.386489 0.958549
vt 0.373738 0.969702
vt 0.607099 0.470708
vt 0.394897 0.462247
vt 0.386687 0.000099
vt 0.394825 0.008461
vt 0.386687 0.470513
vt 0.607099 0.000294
vt 0.591569 0.449784
vt 0.402216 0.021023
vt 0.402154 0.449401
vt 0.416169 0.035177
vt 0.577644 0.035502
vt 0.416142 0.435305
vt 0.577616 0.435631
vt 0.401406 0.474713
vt 0.394579 0.474003
vt 0.394602 0.470906
vt 0.401399 0.492331
vt 0.394665 0.492906
vt 0.399300 0.488374
vt 0.417813 0.492742
vt 0.414618 0.495811
vt 0.415802 0.492152
vt 0.399272 0.478662
vt 0.392705 0.483569
vt 0.392526 0.477422
vt 0.392663 0.489664
vt 0.392567 0.474593
vt 0.399817 0.483526
vt 0.386687 0.483648
vt 0.387626 0.476280
vt 0.392746 0.492440
vt 0.387843 0.490991
vt 0.391383 0.470934
vt 0.409922 0.483097
vt 0.415761 0.489324
vt 0.410861 0.490466
vt 0.411078 0.475754
vt 0.415981 0.474305
vt 0.415898 0.477081
vt 0.415940 0.483176
vt 0.422506 0.488084
vt 0.417900 0.473839
vt 0.422535 0.478372
vt 0.423052 0.483219
vt 0.391702 0.495839
vt 0.424634 0.474414
vt 0.424641 0.492033
vt 0.417837 0.495839
vt 0.414937 0.470906
vt 0.418229 0.470936
vt 0.407999 0.487294
vt 0.408830 0.483524
vt 0.407996 0.479754
vt 0.409723 0.475854
vt 0.431234 0.479452
vt 0.431231 0.486991
vt 0.432065 0.483222
vt 0.432958 0.475548
vt 0.386489 0.050785
vt 0.394994 0.495809
vt 0.409723 0.491198
vt 0.432958 0.490891
vn -1.0000 0.0000 0.0000
vn 1.0000 0.0000 0.0000
vn 0.0000 1.0000 0.0000
vn 0.0000 0.0000 1.0000
vn 0.7055 0.0000 0.7087
vn 0.0000 -1.0000 0.0000
vn 0.0000 0.3914 0.9202
vn 0.0000 -0.3914 0.9202
vn -0.7055 0.0000 0.7087
vn 0.0000 0.2791 0.9603
vn 0.2791 0.0000 0.9603
vn -0.2791 0.0000 0.9603
vn 0.0454 -0.2170 -0.9751
vn 0.2060 0.1332 -0.9695
vn -0.3694 -0.8889 -0.2708
vn 0.9528 -0.0630 -0.2971
vn 0.9452 0.0906 -0.3136
vn 0.9498 -0.1489 -0.2752
vn 0.9574 0.1750 -0.2298
vn 0.3648 -0.0845 0.9273
vn 0.3329 0.4162 0.8461
vn 0.2103 -0.5442 0.8122
vn 0.2729 0.1566 0.9492
vn -0.3648 -0.0845 0.9273
vn -0.3329 0.4162 0.8461
vn -0.2103 -0.5442 0.8122
vn -0.2729 0.1566 0.9492
vn -0.9528 -0.0630 -0.2971
vn -0.9452 0.0906 -0.3136
vn -0.9498 -0.1489 -0.2752
vn -0.9574 0.1750 -0.2299
vn 0.2525 0.9189 -0.3030
vn 0.2549 -0.8808 -0.3989
vn -0.2060 0.1331 -0.9695
vn -0.0454 -0.2170 -0.9751
vn -0.1016 0.8836 -0.4571
vn 0.9871 0.1601 0.0097
vn 0.9889 -0.1484 0.0037
vn 0.0179 -0.9988 -0.0452
vn 0.0105 0.9987 -0.0494
vn -0.9889 0.1484 0.0037
vn -0.9871 -0.1601 0.0097
vn -0.0179 0.9988 -0.0452
vn -0.0105 -0.9987 -0.0494
vn 0.0000 -0.2791 0.9603
vn 0.2060 -0.1331 -0.9695
vn 0.0101 0.2344 -0.9721
vn -0.2549 -0.8808 -0.3989
vn 0.9574 -0.1750 -0.2298
vn 0.9493 0.1392 -0.2818
vn 0.9452 -0.0906 -0.3136
vn 0.9528 0.0630 -0.2971
vn 0.2729 -0.1566 0.9492
vn 0.1435 0.5809 0.8012
vn 0.3300 -0.4332 0.8387
vn 0.3648 0.0845 0.9273
vn -0.2729 -0.1566 0.9492
vn -0.1435 0.5809 0.8012
vn -0.3300 -0.4332 0.8387
vn -0.3648 0.0845 0.9273
vn -0.9574 -0.1750 -0.2298
vn -0.9493 0.1392 -0.2818
vn -0.9452 -0.0906 -0.3136
vn -0.9528 0.0630 -0.2971
vn 0.1016 0.8836 -0.4571
vn 0.3694 -0.8889 -0.2708
vn -0.0101 0.2344 -0.9721
vn -0.2060 -0.1331 -0.9695
vn -0.2525 0.9189 -0.3030
vn 0.9889 0.1484 0.0037
vn 0.9871 -0.1601 0.0097
vn 0.0105 -0.9987 -0.0494
vn 0.0179 0.9988 -0.0452
vn -0.9871 0.1601 0.0097
vn -0.9889 -0.1484 0.0037
vn -0.0105 0.9987 -0.0494
vn -0.0179 -0.9988 -0.0452
s off
f 10/1/1 3/2/1 9/3/1
f 8/4/2 12/5/2 7/6/2
f 1/7/2 17/8/2 2/9/2
f 4/10/3 11/11/3 8/4/3
f 2/9/4 9/3/4 1/7/4
f 6/12/4 12/5/4 11/11/4
f 2/9/4 11/11/4 10/1/4
f 18/13/5 26/14/5 14/15/5
f 2/9/6 19/16/6 6/12/6
f 6/12/1 16/17/1 5/18/1
f 14/15/4 13/19/4 18/13/4
f 21/20/4 19/21/4 15/22/4
f 18/13/4 16/23/4 21/20/4
f 15/22/4 17/24/4 14/15/4
f 21/20/7 27/25/7 18/13/7
f 14/15/8 28/26/8 15/22/8
f 15/22/9 25/27/9 21/20/9
f 24/28/10 26/14/10 23/29/10
f 22/30/11 28/26/11 24/28/11
f 23/29/12 27/25/12 20/31/12
f 24/28/4 20/31/4 22/30/4
f 31/32/13 37/33/13 32/34/13
f 62/35/14 33/36/14 58/37/14
f 57/38/15 47/39/15 52/40/15
f 60/41/16 40/42/16 41/43/16
f 33/36/17 39/44/17 58/37/17
f 37/33/18 41/43/18 42/45/18
f 58/37/19 40/42/19 59/46/19
f 41/43/20 45/47/20 46/48/20
f 38/49/21 44/50/21 39/44/21
f 42/45/22 46/48/22 47/51/22
f 39/44/23 45/47/23 40/42/23
f 45/52/24 51/53/24 46/54/24
f 44/55/25 48/56/25 49/57/25
f 46/54/26 52/40/26 47/39/26
f 45/52/27 49/57/27 50/58/27
f 50/58/28 65/59/28 51/53/28
f 49/57/29 53/60/29 63/61/29
f 51/53/30 57/38/30 52/40/30
f 50/58/31 63/61/31 64/62/31
f 33/36/32 43/63/32 38/49/32
f 37/33/33 47/51/33 32/34/33
f 53/60/34 62/64/34 63/61/34
f 57/38/35 31/65/35 32/66/35
f 53/60/36 43/67/36 29/68/36
f 34/69/37 59/46/37 35/70/37
f 36/71/38 59/46/38 60/41/38
f 36/71/39 31/32/39 61/72/39
f 34/69/40 62/35/40 58/37/40
f 54/73/41 64/62/41 63/61/41
f 56/74/42 64/62/42 55/75/42
f 54/73/43 62/64/43 30/76/43
f 56/74/44 31/65/44 65/59/44
f 20/31/45 25/27/45 22/30/45
f 10/1/1 4/10/1 3/2/1
f 8/4/2 11/11/2 12/5/2
f 1/7/2 13/77/2 17/8/2
f 4/10/3 10/1/3 11/11/3
f 2/9/4 10/1/4 9/3/4
f 6/12/4 5/18/4 12/5/4
f 2/9/4 6/12/4 11/11/4
f 18/13/5 27/25/5 26/14/5
f 2/9/6 17/8/6 19/16/6
f 6/12/1 19/16/1 16/17/1
f 14/15/4 17/24/4 13/19/4
f 21/20/4 16/23/4 19/21/4
f 18/13/4 13/19/4 16/23/4
f 15/22/4 19/21/4 17/24/4
f 21/20/7 25/27/7 27/25/7
f 14/15/8 26/14/8 28/26/8
f 15/22/9 28/26/9 25/27/9
f 24/28/10 28/26/10 26/14/10
f 22/30/11 25/27/11 28/26/11
f 23/29/12 26/14/12 27/25/12
f 24/28/4 23/29/4 20/31/4
f 31/32/46 60/41/46 37/33/46
f 62/35/47 29/78/47 33/36/47
f 57/38/48 32/66/48 47/39/48
f 60/41/49 59/46/49 40/42/49
f 33/36/50 38/49/50 39/44/50
f 37/33/51 60/41/51 41/43/51
f 58/37/52 39/44/52 40/42/52
f 41/43/53 40/42/53 45/47/53
f 38/49/54 43/63/54 44/50/54
f 42/45/55 41/43/55 46/48/55
f 39/44/56 44/50/56 45/47/56
f 45/52/57 50/58/57 51/53/57
f 44/55/58 43/67/58 48/56/58
f 46/54/59 51/53/59 52/40/59
f 45/52/60 44/55/60 49/57/60
f 50/58/61 64/62/61 65/59/61
f 49/57/62 48/56/62 53/60/62
f 51/53/63 65/59/63 57/38/63
f 50/58/64 49/57/64 63/61/64
f 33/36/65 29/78/65 43/63/65
f 37/33/66 42/45/66 47/51/66
f 53/60/67 29/68/67 62/64/67
f 57/38/68 65/59/68 31/65/68
f 53/60/69 48/56/69 43/67/69
f 34/69/70 58/37/70 59/46/70
f 36/71/71 35/70/71 59/46/71
f 36/71/72 60/41/72 31/32/72
f 34/69/73 30/79/73 62/35/73
f 54/73/74 55/75/74 64/62/74
f 56/74/75 65/59/75 64/62/75
f 54/73/76 63/61/76 62/64/76
f 56/74/77 61/80/77 31/65/77
f 20/31/45 27/25/45 25/27/45
