# Blender v2.81 (sub 16) OBJ File: 'Boat2.0 - Joined.blend'
# www.blender.org
v 0.292121 0.027191 0.320035
v 0.223678 0.785799 0.251595
v 0.303533 0.843781 0.331448
v 0.303534 1.133647 0.331449
v 0.223678 1.185542 0.251595
v 0.195033 0.613137 0.222945
v 0.209134 0.314859 0.237049
v 0.303534 1.076722 0.331449
v 0.303534 0.900707 0.331449
v 0.257119 1.062810 0.285033
v 0.257119 0.914619 0.285033
v -0.272287 0.027191 0.320035
v -0.203844 0.785799 0.251595
v 0.009917 0.027192 0.436927
v 0.009916 0.785799 0.340138
v -0.283701 0.843781 0.331449
v 0.009917 0.843781 0.453069
v -0.283699 1.133647 0.331449
v 0.009917 1.133647 0.453069
v -0.203846 1.185542 0.251594
v 0.009916 1.185542 0.340138
v -0.175195 0.613137 0.222945
v 0.009917 0.613137 0.299622
v -0.189303 0.314859 0.237049
v 0.009916 0.314859 0.319567
v 0.009917 0.900707 0.453069
v 0.009918 1.076722 0.453069
v -0.283701 1.076722 0.331448
v -0.283701 0.900707 0.331449
v 0.009916 0.914619 0.387428
v 0.009917 1.062809 0.387427
v -0.237286 1.062809 0.285033
v -0.237284 0.914619 0.285033
v 0.409013 0.027191 0.037832
v 0.312223 0.785799 0.037832
v 0.292121 0.027191 -0.244371
v 0.223680 0.785799 -0.175932
v 0.425154 0.843781 0.037832
v 0.303534 0.843781 -0.255785
v 0.425152 1.133647 0.037832
v 0.303533 1.133647 -0.255785
v 0.312225 1.185542 0.037832
v 0.223680 1.185542 -0.175931
v 0.271707 0.613137 0.037832
v 0.195029 0.613137 -0.147282
v 0.291652 0.314859 0.037832
v 0.209134 0.314859 -0.161385
v 0.425156 0.900707 0.037832
v 0.425154 1.076722 0.037832
v 0.303533 1.076722 -0.255785
v 0.303534 0.900707 -0.255785
v 0.359512 0.914619 0.037832
v 0.359512 1.062809 0.037832
v 0.257119 1.062810 -0.209370
v 0.257119 0.914619 -0.209369
v -0.389179 0.027192 0.037832
v -0.292390 0.785799 0.037832
v -0.272287 0.027192 -0.244372
v -0.203846 0.785799 -0.175931
v 0.009917 0.027191 -0.361264
v 0.009917 0.785799 -0.264475
v -0.405322 0.843781 0.037832
v -0.283701 0.843781 -0.255785
v 0.009916 0.843781 -0.377406
v -0.405322 1.133647 0.037832
v -0.283701 1.133647 -0.255785
v 0.009917 1.133647 -0.377406
v -0.292390 1.185542 0.037832
v -0.203847 1.185542 -0.175932
v 0.009917 1.185542 -0.264475
v -0.251871 0.613137 0.037832
v -0.175197 0.613137 -0.147282
v 0.009917 0.613137 -0.223958
v -0.271819 0.314859 0.037832
v -0.189301 0.314859 -0.161385
v 0.009917 0.314860 -0.243904
v 0.009917 1.185542 0.037832
v 0.009918 0.900707 -0.377405
v 0.009917 1.076722 -0.377405
v -0.405319 0.900707 0.037832
v -0.405322 1.076722 0.037832
v -0.283699 1.076722 -0.255785
v -0.283701 0.900707 -0.255785
v 0.009917 0.914619 -0.311764
v 0.009916 1.062809 -0.311764
v -0.339681 0.914619 0.037832
v -0.339679 1.062809 0.037832
v -0.237286 1.062809 -0.209370
v -0.237284 0.914619 -0.209369
vt 0.398748 0.884214
vt 0.432296 0.837749
vt 0.432523 0.883884
vt 0.394215 0.840686
vt 0.430540 0.790061
vt 0.373519 0.841721
vt 0.364274 0.792132
vt 0.387551 0.792024
vt 0.299164 0.808082
vt 0.303015 0.858599
vt 0.282554 0.825552
vt 0.325410 0.851391
vt 0.324384 0.887123
vt 0.318250 0.853049
vt 0.309344 0.804391
vt 0.310872 0.887750
vt 0.501585 0.840777
vt 0.502311 0.791709
vt 0.498093 0.888772
vt 0.561759 0.897309
vt 0.566398 0.841893
vt 0.566312 0.788245
vt 0.256332 0.890429
vt 0.353894 0.794368
vt 0.376982 0.884907
vt 0.365072 0.843120
vt 0.331271 0.886665
vt 0.334502 0.848781
vt 0.339262 0.885857
vt 0.356119 0.844820
vt 0.320576 0.805627
vt 0.345452 0.800574
vt 0.358651 0.885597
vt 0.368665 0.885193
vt 0.433815 0.699214
vt 0.394347 0.742680
vt 0.399759 0.699469
vt 0.432223 0.743336
vt 0.373563 0.741135
vt 0.278845 0.755526
vt 0.316899 0.729404
vt 0.296746 0.773671
vt 0.324152 0.731419
vt 0.324828 0.695031
vt 0.331914 0.695442
vt 0.306693 0.777527
vt 0.310374 0.693643
vt 0.501351 0.742947
vt 0.498268 0.695510
vt 0.556952 0.685285
vt 0.563183 0.736127
vt 0.303059 0.723116
vt 0.256332 0.689620
vt 0.364905 0.739735
vt 0.369689 0.697528
vt 0.377940 0.698131
vt 0.331944 0.733712
vt 0.319624 0.776520
vt 0.354817 0.738070
vt 0.342962 0.782610
vt 0.361850 0.696953
vt 0.353581 0.790074
vt 0.395658 0.927092
vt 0.431365 0.926906
vt 0.397734 0.968822
vt 0.377153 0.927173
vt 0.288402 0.953505
vt 0.322006 0.921178
vt 0.309720 0.967992
vt 0.329274 0.922079
vt 0.320423 0.969700
vt 0.306603 0.917374
vt 0.483484 0.975036
vt 0.493121 0.934563
vt 0.550646 0.950449
vt 0.532347 0.999631
vt 0.364149 0.975560
vt 0.374530 0.976397
vt 0.368873 0.926662
vt 0.337408 0.922737
vt 0.355006 0.970517
vt 0.360020 0.926060
vt 0.398684 0.657542
vt 0.433186 0.657155
vt 0.432754 0.618821
vt 0.379733 0.656158
vt 0.380374 0.605874
vt 0.400813 0.614887
vt 0.323021 0.659559
vt 0.288563 0.626702
vt 0.310033 0.611738
vt 0.330531 0.658502
vt 0.320894 0.609698
vt 0.306974 0.663285
vt 0.484839 0.612608
vt 0.493227 0.651284
vt 0.546783 0.636522
vt 0.530500 0.590614
vt 0.371381 0.655920
vt 0.369597 0.605827
vt 0.338674 0.657634
vt 0.341360 0.696227
vt 0.361502 0.655875
vt 0.333599 0.612854
vt 0.357963 0.610955
vt 0.429360 0.966300
vt 0.330660 0.966958
vn 0.9029 -0.2119 0.3740
vn 0.3740 -0.2119 0.9029
vn 0.4488 -0.8741 0.1859
vn 0.1859 -0.8741 0.4488
vn 0.1704 0.8954 0.4114
vn 0.9239 0.0000 0.3827
vn 0.3827 0.0000 0.9239
vn 0.4114 0.8954 0.1704
vn 0.3820 0.0617 0.9221
vn 0.9221 0.0617 0.3820
vn 0.8645 0.3527 0.3581
vn 0.3581 0.3527 0.8645
vn 0.0000 1.0000 0.0000
vn 0.2066 -0.9747 0.0856
vn 0.0856 0.9747 0.2066
vn 0.2066 0.9747 0.0856
vn 0.0856 -0.9747 0.2066
vn -0.9029 -0.2119 0.3740
vn -0.3740 -0.2119 0.9029
vn -0.4488 -0.8741 0.1859
vn -0.1859 -0.8741 0.4488
vn -0.1704 0.8954 0.4114
vn -0.9239 0.0000 0.3827
vn -0.3827 0.0000 0.9239
vn -0.4114 0.8954 0.1704
vn -0.3820 0.0617 0.9221
vn -0.9221 0.0617 0.3819
vn -0.8645 0.3527 0.3581
vn -0.3581 0.3527 0.8645
vn -0.2066 -0.9747 0.0856
vn -0.0856 0.9747 0.2066
vn -0.2066 0.9747 0.0856
vn -0.0856 -0.9747 0.2066
vn 0.9029 -0.2119 -0.3740
vn 0.3740 -0.2119 -0.9029
vn 0.4488 -0.8741 -0.1859
vn 0.1859 -0.8741 -0.4488
vn 0.1704 0.8954 -0.4114
vn 0.9239 0.0000 -0.3827
vn 0.3827 0.0000 -0.9239
vn 0.4114 0.8954 -0.1704
vn 0.3820 0.0617 -0.9221
vn 0.9221 0.0617 -0.3820
vn 0.8645 0.3527 -0.3581
vn 0.3581 0.3527 -0.8645
vn 0.2066 -0.9747 -0.0856
vn 0.0856 0.9747 -0.2066
vn 0.2066 0.9747 -0.0856
vn 0.0856 -0.9747 -0.2066
vn -0.9029 -0.2119 -0.3740
vn -0.3740 -0.2119 -0.9029
vn -0.4488 -0.8741 -0.1859
vn -0.1859 -0.8741 -0.4488
vn -0.1704 0.8954 -0.4114
vn -0.9239 -0.0000 -0.3827
vn -0.3827 -0.0000 -0.9239
vn -0.4114 0.8954 -0.1704
vn -0.3820 0.0617 -0.9221
vn -0.9221 0.0617 -0.3820
vn -0.8645 0.3527 -0.3581
vn -0.3581 0.3527 -0.8645
vn -0.2066 -0.9747 -0.0856
vn -0.0856 0.9747 -0.2066
vn -0.2066 0.9747 -0.0856
vn -0.0856 -0.9747 -0.2066
vn 0.4115 0.8954 0.1704
vn 0.9221 0.0617 0.3819
vn -0.9221 0.0617 0.3820
vn 0.4115 0.8954 -0.1704
vn -0.9221 0.0617 -0.3819
s off
f 35/1/1 6/2/1 44/3/1
f 2/4/2 23/5/2 6/2/2
f 35/1/3 3/6/3 2/4/3
f 2/4/4 17/7/4 15/8/4
f 19/9/5 5/10/5 21/11/5
f 8/12/6 40/13/6 4/14/6
f 27/15/7 4/14/7 19/9/7
f 4/14/8 42/16/8 5/10/8
f 7/17/9 23/5/9 25/18/9
f 46/19/10 6/2/10 7/17/10
f 34/20/11 7/17/11 1/21/11
f 7/17/12 14/22/12 1/21/12
f 77/23/13 5/10/13 42/16/13
f 3/6/7 26/24/7 17/7/7
f 38/25/6 9/26/6 3/6/6
f 49/27/14 10/28/14 53/29/14
f 11/30/7 31/31/7 30/32/7
f 52/33/6 10/28/6 11/30/6
f 26/24/15 11/30/15 30/32/15
f 48/34/16 11/30/16 9/26/16
f 27/15/17 10/28/17 8/12/17
f 71/35/18 13/36/18 57/37/18
f 22/38/19 15/8/19 13/36/19
f 16/39/20 57/37/20 13/36/20
f 17/7/21 13/36/21 15/8/21
f 21/40/22 18/41/22 19/42/22
f 28/43/23 65/44/23 81/45/23
f 27/46/24 18/41/24 28/43/24
f 18/41/25 68/47/25 65/44/25
f 25/18/26 22/38/26 24/48/26
f 24/48/27 71/35/27 74/49/27
f 56/50/28 24/48/28 74/49/28
f 12/51/29 25/18/29 24/48/29
f 20/52/13 77/53/13 68/47/13
f 17/7/24 29/54/24 16/39/24
f 16/39/23 80/55/23 62/56/23
f 81/45/30 32/57/30 28/43/30
f 31/58/24 33/59/24 30/60/24
f 32/57/23 86/61/23 33/59/23
f 30/60/31 29/54/31 26/62/31
f 29/54/32 86/61/32 80/55/32
f 28/43/33 31/58/33 27/46/33
f 44/3/34 37/63/34 35/1/34
f 45/64/35 61/65/35 37/63/35
f 39/66/36 35/1/36 37/63/36
f 61/65/37 39/66/37 37/63/37
f 70/67/38 41/68/38 67/69/38
f 50/70/39 40/13/39 49/27/39
f 79/71/40 41/68/40 50/70/40
f 43/72/41 40/13/41 41/68/41
f 76/73/42 45/64/42 47/74/42
f 47/74/43 44/3/43 46/19/43
f 36/75/44 46/19/44 34/20/44
f 60/76/45 47/74/45 36/75/45
f 43/72/13 77/23/13 42/16/13
f 78/77/40 39/66/40 64/78/40
f 51/79/39 38/25/39 39/66/39
f 49/27/46 54/80/46 50/70/46
f 84/81/40 54/80/40 55/82/40
f 55/82/39 53/29/39 52/33/39
f 78/77/47 55/82/47 51/79/47
f 51/79/48 52/33/48 48/34/48
f 54/80/49 79/71/49 50/70/49
f 71/35/50 59/83/50 72/84/50
f 59/83/51 73/85/51 72/84/51
f 57/37/52 63/86/52 59/83/52
f 59/83/53 64/87/53 61/88/53
f 66/89/54 70/90/54 67/91/54
f 81/45/55 66/89/55 82/92/55
f 82/92/56 67/91/56 79/93/56
f 65/44/57 69/94/57 66/89/57
f 72/84/58 76/95/58 75/96/58
f 71/35/59 75/96/59 74/49/59
f 56/50/60 75/96/60 58/97/60
f 75/96/61 60/98/61 58/97/61
f 77/53/13 69/94/13 68/47/13
f 64/87/56 83/99/56 78/100/56
f 63/86/55 80/55/55 83/99/55
f 81/45/62 88/101/62 87/102/62
f 89/103/56 85/104/56 84/105/56
f 89/103/55 87/102/55 88/101/55
f 83/99/63 84/105/63 78/100/63
f 80/55/64 89/103/64 83/99/64
f 82/92/65 85/104/65 88/101/65
f 35/1/1 2/4/1 6/2/1
f 2/4/2 15/8/2 23/5/2
f 35/1/3 38/25/3 3/6/3
f 2/4/4 3/6/4 17/7/4
f 19/9/5 4/14/5 5/10/5
f 8/12/6 49/27/6 40/13/6
f 27/15/7 8/12/7 4/14/7
f 4/14/66 40/13/66 42/16/66
f 7/17/9 6/2/9 23/5/9
f 46/19/67 44/3/67 6/2/67
f 34/20/11 46/19/11 7/17/11
f 7/17/12 25/18/12 14/22/12
f 77/23/13 21/11/13 5/10/13
f 3/6/7 9/26/7 26/24/7
f 38/25/6 48/34/6 9/26/6
f 49/27/14 8/12/14 10/28/14
f 11/30/7 10/28/7 31/31/7
f 52/33/6 53/29/6 10/28/6
f 26/24/15 9/26/15 11/30/15
f 48/34/16 52/33/16 11/30/16
f 27/15/17 31/31/17 10/28/17
f 71/35/18 22/38/18 13/36/18
f 22/38/19 23/5/19 15/8/19
f 16/39/20 62/56/20 57/37/20
f 17/7/21 16/39/21 13/36/21
f 21/40/22 20/52/22 18/41/22
f 28/43/23 18/41/23 65/44/23
f 27/46/24 19/42/24 18/41/24
f 18/41/25 20/52/25 68/47/25
f 25/18/26 23/5/26 22/38/26
f 24/48/68 22/38/68 71/35/68
f 56/50/28 12/51/28 24/48/28
f 12/51/29 14/22/29 25/18/29
f 20/52/13 21/40/13 77/53/13
f 17/7/24 26/62/24 29/54/24
f 16/39/23 29/54/23 80/55/23
f 81/45/30 87/102/30 32/57/30
f 31/58/24 32/57/24 33/59/24
f 32/57/23 87/102/23 86/61/23
f 30/60/31 33/59/31 29/54/31
f 29/54/32 33/59/32 86/61/32
f 28/43/33 32/57/33 31/58/33
f 44/3/34 45/64/34 37/63/34
f 45/64/35 73/106/35 61/65/35
f 39/66/36 38/25/36 35/1/36
f 61/65/37 64/78/37 39/66/37
f 70/67/38 43/72/38 41/68/38
f 50/70/39 41/68/39 40/13/39
f 79/71/40 67/69/40 41/68/40
f 43/72/69 42/16/69 40/13/69
f 76/73/42 73/106/42 45/64/42
f 47/74/43 45/64/43 44/3/43
f 36/75/44 47/74/44 46/19/44
f 60/76/45 76/73/45 47/74/45
f 43/72/13 70/67/13 77/23/13
f 78/77/40 51/79/40 39/66/40
f 51/79/39 48/34/39 38/25/39
f 49/27/46 53/29/46 54/80/46
f 84/81/40 85/107/40 54/80/40
f 55/82/39 54/80/39 53/29/39
f 78/77/47 84/81/47 55/82/47
f 51/79/48 55/82/48 52/33/48
f 54/80/49 85/107/49 79/71/49
f 71/35/50 57/37/50 59/83/50
f 59/83/51 61/88/51 73/85/51
f 57/37/52 62/56/52 63/86/52
f 59/83/53 63/86/53 64/87/53
f 66/89/54 69/94/54 70/90/54
f 81/45/55 65/44/55 66/89/55
f 82/92/56 66/89/56 67/91/56
f 65/44/57 68/47/57 69/94/57
f 72/84/58 73/85/58 76/95/58
f 71/35/70 72/84/70 75/96/70
f 56/50/60 74/49/60 75/96/60
f 75/96/61 76/95/61 60/98/61
f 77/53/13 70/90/13 69/94/13
f 64/87/56 63/86/56 83/99/56
f 63/86/55 62/56/55 80/55/55
f 81/45/62 82/92/62 88/101/62
f 89/103/56 88/101/56 85/104/56
f 89/103/55 86/61/55 87/102/55
f 83/99/63 89/103/63 84/105/63
f 80/55/64 86/61/64 89/103/64
f 82/92/65 79/93/65 85/104/65
