# Blender v2.81 (sub 16) OBJ File: 'garbage.blend'
# www.blender.org
v -3.412584 2.604864 0.966237
v -3.399102 2.590226 0.945608
v -3.391031 2.565233 0.934126
v -3.390533 2.536584 0.934867
v -3.397742 2.511954 0.947634
v -3.399369 2.602135 0.990413
v -3.376212 2.585498 0.987481
v -3.364599 2.559775 0.982477
v -3.367642 2.531856 0.976741
v -3.384526 2.509224 0.971809
v -3.392864 2.546125 1.028096
v -3.392120 2.520036 1.016247
v -3.398659 2.502399 0.994618
v -3.440849 2.591214 1.011855
v -3.447560 2.537935 1.025363
v -3.439489 2.512942 1.013881
v -3.426007 2.498304 0.993252
v -3.454065 2.593944 0.987680
v -3.470949 2.571312 0.982748
v -3.473992 2.543393 0.977012
v -3.462379 2.517670 0.972008
v -3.439222 2.501033 0.969076
v -3.439933 2.600769 0.964871
v -3.446471 2.583133 0.943242
v -3.445727 2.557043 0.931393
v -3.437901 2.529490 0.932501
v -3.425090 2.507858 0.946267
v -3.413501 2.595310 1.013222
v -3.400690 2.573678 1.026988
v -3.448058 2.566584 1.024622
v -3.496824 2.578588 1.027415
v -3.498691 2.578974 1.023999
v -3.464979 2.592134 1.017144
v -3.477052 2.549859 1.023296
v -3.471521 2.593485 1.005177
v -3.487200 2.551954 1.004734
v -3.422566 2.581871 1.069430
v -3.433778 2.580192 1.068870
v -3.425614 2.590051 1.052887
v -3.421289 2.562883 1.056397
v -3.430752 2.589281 1.052631
v -3.426442 2.562111 1.056139
vt 0.274240 0.539347
vt 0.265397 0.539709
vt 0.266768 0.532487
vt 0.231414 0.551290
vt 0.214659 0.541092
vt 0.231357 0.542861
vt 0.231940 0.569242
vt 0.215985 0.562822
vt 0.231472 0.559719
vt 0.230890 0.533338
vt 0.220414 0.530957
vt 0.213134 0.552274
vt 0.289666 0.544440
vt 0.282983 0.540904
vt 0.290637 0.536818
vt 0.279682 0.529141
vt 0.275518 0.536619
vt 0.273707 0.532162
vt 0.280945 0.538772
vt 0.286431 0.530872
vt 0.290637 0.551375
vt 0.284312 0.543753
vt 0.278488 0.537315
vt 0.276318 0.541045
vt 0.804698 0.251197
vt 0.792375 0.255919
vt 0.792638 0.252041
vt 0.786357 0.239035
vt 0.792578 0.249274
vt 0.791489 0.249454
vt 0.271776 0.541127
vt 0.760733 0.199751
vt 0.757502 0.209505
vt 0.750621 0.206121
vt 0.278108 0.542645
vt 0.273009 0.544115
vt 0.772804 0.201934
vt 0.766718 0.213101
vt 0.766203 0.208706
vt 0.264007 0.548518
vt 0.277612 0.547903
vt 0.268747 0.555467
vt 0.275021 0.546378
vt 0.280714 0.548498
vt 0.281954 0.545638
vt 0.276612 0.557409
vt 0.240880 0.530957
vt 0.248168 0.561486
vt 0.249693 0.550306
vt 0.246843 0.539760
vt 0.242415 0.571620
vt 0.762287 0.211045
vt 0.762255 0.210544
vt 0.761023 0.221925
vt 0.757316 0.212491
vt 0.750922 0.216572
vt 0.772804 0.220841
vt 0.791613 0.252007
vt 0.791097 0.255536
vt 0.780068 0.250772
vt 0.780487 0.263708
vt 0.804698 0.264828
vt 0.798786 0.238814
vt 0.221949 0.571626
vt 0.283377 0.553479
vn 0.1548 -0.9687 -0.1940
vn 0.8776 0.0029 -0.4794
vn 0.5526 0.8063 -0.2110
vn 0.7552 -0.4620 -0.4650
vn 0.8076 0.4408 -0.3917
vn 0.5381 0.6557 0.5296
vn 0.7407 -0.6126 0.2756
vn 0.7890 0.2467 0.5627
vn -0.1548 0.9687 0.1940
vn 0.8590 -0.1912 0.4750
vn 0.0869 -0.7848 0.6137
vn -0.7109 -0.5743 0.4060
vn 0.0164 -0.4130 0.9106
vn -0.1517 0.9848 0.0843
vn -0.5526 -0.8063 0.2110
vn -0.5910 0.5661 -0.5747
vn -0.8076 -0.4408 0.3917
vn -0.3790 -0.9196 0.1034
vn -0.5381 -0.6557 -0.5296
vn -0.8590 0.1912 -0.4750
vn -0.7890 -0.2467 -0.5627
vn -0.7407 0.6127 -0.2756
vn 0.1158 -0.4836 -0.8676
vn -0.0164 0.4130 -0.9106
vn 0.0536 -0.0249 -0.9983
vn -0.0869 0.7848 -0.6137
vn -0.7491 -0.5651 0.3457
vn -0.3024 0.9146 0.2686
vn 0.1422 0.3636 0.9206
vn 0.0559 0.9951 0.0818
vn -0.8242 0.0515 -0.5639
vn -0.0599 0.0248 0.9979
vn 0.0431 -0.5634 0.8251
vn -0.1539 0.8742 0.4606
vn 0.7522 0.2384 0.6143
vn 0.0930 -0.8130 0.5748
vn -0.8915 0.3848 0.2390
vn 0.6840 0.6961 0.2182
vn 0.8776 0.0028 -0.4794
vn 0.7552 -0.4621 -0.4650
vn 0.7407 -0.6127 0.2756
vn 0.0869 -0.7848 0.6136
vn -0.8247 0.0003 0.5656
vn 0.0164 -0.4131 0.9106
vn -0.1517 0.9848 0.0842
vn -0.6557 0.5284 -0.5392
vn -0.3791 -0.9196 0.1034
vn -0.7407 0.6126 -0.2756
vn -0.0164 0.4131 -0.9106
vn 0.2107 0.4005 0.8917
vn -0.8621 0.1905 -0.4696
vn 0.0263 -0.1242 0.9919
vn 0.0432 -0.5634 0.8250
vn -0.1539 0.8741 0.4606
vn 0.8320 -0.2748 0.4819
vn 0.0930 -0.8130 0.5747
vn -0.8560 0.5024 0.1217
vn 0.7229 0.6210 0.3031
s off
f 17/1/1 27/2/1 5/3/1
f 3/4/2 9/5/2 4/6/2
f 1/7/3 7/8/3 2/9/3
f 5/10/4 9/5/4 10/11/4
f 2/9/5 8/12/5 3/4/5
f 6/13/6 29/14/6 7/15/6
f 9/16/7 13/17/7 10/18/7
f 7/15/8 11/19/8 8/20/8
f 1/21/9 28/22/9 6/13/9
f 8/20/10 12/23/10 9/16/10
f 13/17/11 16/24/11 17/1/11
f 30/25/12 42/26/12 38/27/12
f 11/19/13 16/24/13 12/23/13
f 28/28/14 41/29/14 39/30/14
f 16/24/15 22/31/15 17/1/15
f 19/32/16 35/33/16 18/34/16
f 15/35/17 21/36/17 16/24/17
f 20/37/18 34/38/18 36/39/18
f 22/31/19 26/40/19 27/2/19
f 19/41/20 25/42/20 20/43/20
f 1/21/9 18/44/9 14/45/9
f 20/43/21 26/40/21 21/36/21
f 18/44/22 24/46/22 19/41/22
f 27/47/23 4/6/23 5/10/23
f 24/48/24 3/4/24 25/49/24
f 25/49/25 4/6/25 26/50/25
f 23/51/26 2/9/26 24/48/26
f 13/17/1 5/3/1 10/18/1
f 31/52/27 36/39/27 34/38/27
f 31/52/28 35/33/28 32/53/28
f 30/54/29 33/55/29 31/52/29
f 18/34/30 33/55/30 14/56/30
f 19/32/31 36/39/31 32/53/31
f 30/54/32 34/38/32 15/57/32
f 37/58/33 42/26/33 40/59/33
f 37/58/34 41/29/34 38/27/34
f 29/60/35 40/59/35 11/61/35
f 11/61/36 42/26/36 15/62/36
f 30/25/37 41/29/37 14/63/37
f 29/60/38 39/30/38 37/58/38
f 17/1/1 22/31/1 27/2/1
f 3/4/39 8/12/39 9/5/39
f 1/7/3 6/64/3 7/8/3
f 5/10/40 4/6/40 9/5/40
f 2/9/5 7/8/5 8/12/5
f 6/13/6 28/22/6 29/14/6
f 9/16/41 12/23/41 13/17/41
f 7/15/8 29/14/8 11/19/8
f 1/21/9 14/45/9 28/22/9
f 8/20/10 11/19/10 12/23/10
f 13/17/42 12/23/42 16/24/42
f 30/25/43 15/62/43 42/26/43
f 11/19/44 15/35/44 16/24/44
f 28/28/45 14/63/45 41/29/45
f 16/24/15 21/36/15 22/31/15
f 19/32/46 32/53/46 35/33/46
f 15/35/17 20/43/17 21/36/17
f 20/37/47 15/57/47 34/38/47
f 22/31/19 21/36/19 26/40/19
f 19/41/20 24/46/20 25/42/20
f 1/21/9 23/65/9 18/44/9
f 20/43/21 25/42/21 26/40/21
f 18/44/48 23/65/48 24/46/48
f 27/47/23 26/50/23 4/6/23
f 24/48/49 2/9/49 3/4/49
f 25/49/25 3/4/25 4/6/25
f 23/51/26 1/7/26 2/9/26
f 13/17/1 17/1/1 5/3/1
f 31/52/27 32/53/27 36/39/27
f 31/52/28 33/55/28 35/33/28
f 30/54/50 14/56/50 33/55/50
f 18/34/30 35/33/30 33/55/30
f 19/32/51 20/37/51 36/39/51
f 30/54/52 31/52/52 34/38/52
f 37/58/53 38/27/53 42/26/53
f 37/58/54 39/30/54 41/29/54
f 29/60/55 37/58/55 40/59/55
f 11/61/56 40/59/56 42/26/56
f 30/25/57 38/27/57 41/29/57
f 29/60/58 28/28/58 39/30/58
v -1.555337 3.858309 1.248638
v -1.569214 3.833260 1.249898
v -1.568927 3.804907 1.254097
v -1.554554 3.780847 1.260109
v -1.529946 3.767527 1.266323
v -1.538141 3.858892 1.226946
v -1.539430 3.834271 1.212327
v -1.534536 3.806074 1.210713
v -1.524770 3.781858 1.222538
v -1.512750 3.768111 1.244631
v -1.481964 3.822096 1.217480
v -1.479242 3.795734 1.228398
v -1.486464 3.776122 1.248015
v -1.502766 3.874331 1.255404
v -1.463784 3.836951 1.267631
v -1.463498 3.808598 1.271829
v -1.477374 3.783550 1.273090
v -1.519961 3.873747 1.277096
v -1.507941 3.860000 1.299190
v -1.498176 3.835784 1.311014
v -1.493281 3.807587 1.309401
v -1.494570 3.782966 1.294782
v -1.546247 3.865736 1.273713
v -1.553469 3.846124 1.293330
v -1.550747 3.819762 1.304247
v -1.538810 3.793712 1.303540
v -1.520856 3.774955 1.291398
v -1.511856 3.866904 1.230329
v -1.493902 3.848146 1.218187
v -1.478157 3.861011 1.261619
v -1.467033 3.892312 1.299388
v -1.469463 3.892229 1.302453
v -1.491616 3.886946 1.273505
v -1.462405 3.858507 1.291076
v -1.500128 3.886657 1.284243
v -1.475608 3.858058 1.307731
v -1.456467 3.878801 1.215745
v -1.452740 3.881846 1.226025
v -1.473102 3.881226 1.223947
v -1.458327 3.857783 1.225063
v -1.471394 3.882622 1.228658
v -1.456614 3.859182 1.229788
vt 0.274240 0.539347
vt 0.265397 0.539709
vt 0.266768 0.532487
vt 0.231414 0.551290
vt 0.214659 0.541092
vt 0.231357 0.542861
vt 0.231940 0.569242
vt 0.215985 0.562822
vt 0.231472 0.559719
vt 0.230890 0.533338
vt 0.220414 0.530957
vt 0.213134 0.552274
vt 0.289666 0.544440
vt 0.282983 0.540904
vt 0.290637 0.536818
vt 0.279682 0.529141
vt 0.275518 0.536619
vt 0.273707 0.532162
vt 0.280945 0.538772
vt 0.286431 0.530872
vt 0.290637 0.551375
vt 0.284312 0.543753
vt 0.278488 0.537315
vt 0.276318 0.541045
vt 0.804698 0.251197
vt 0.792375 0.255919
vt 0.792638 0.252041
vt 0.786357 0.239035
vt 0.792578 0.249274
vt 0.791489 0.249454
vt 0.271776 0.541127
vt 0.760733 0.199751
vt 0.757502 0.209505
vt 0.750621 0.206121
vt 0.278108 0.542645
vt 0.273009 0.544115
vt 0.772804 0.201934
vt 0.766718 0.213101
vt 0.766203 0.208706
vt 0.264007 0.548518
vt 0.277612 0.547903
vt 0.268747 0.555467
vt 0.275021 0.546378
vt 0.280714 0.548498
vt 0.281954 0.545638
vt 0.276612 0.557409
vt 0.240880 0.530957
vt 0.248168 0.561486
vt 0.249693 0.550306
vt 0.246843 0.539760
vt 0.242415 0.571620
vt 0.762287 0.211045
vt 0.762255 0.210544
vt 0.761023 0.221925
vt 0.757316 0.212491
vt 0.750922 0.216572
vt 0.772804 0.220841
vt 0.791613 0.252007
vt 0.791097 0.255536
vt 0.780068 0.250772
vt 0.780487 0.263708
vt 0.804698 0.264828
vt 0.798786 0.238814
vt 0.221949 0.571626
vt 0.283377 0.553479
vn 0.2647 -0.9465 0.1844
vn -0.6587 -0.5276 -0.5364
vn -0.7310 0.3763 -0.5693
vn -0.3843 -0.8630 -0.3279
vn -0.7784 -0.0996 -0.6198
vn -0.0455 0.5118 -0.8579
vn 0.3011 -0.7275 -0.6165
vn 0.1048 0.0749 -0.9917
vn -0.2647 0.9465 -0.1844
vn 0.2245 -0.3530 -0.9083
vn 0.8587 -0.4842 -0.1679
vn 0.8259 -0.0479 0.5617
vn 0.9431 -0.0394 -0.3302
vn -0.3635 0.9208 -0.1410
vn 0.7309 -0.3763 0.5693
vn -0.5690 0.5227 0.6348
vn 0.7784 0.0996 0.6198
vn 0.6454 -0.5808 0.4960
vn 0.0455 -0.5118 0.8579
vn -0.2245 0.3530 0.9083
vn -0.1048 -0.0749 0.9917
vn -0.3011 0.7275 0.6165
vn -0.5121 -0.7551 0.4093
vn -0.9431 0.0394 0.3302
vn -0.8234 -0.3885 0.4136
vn -0.8587 0.4842 0.1679
vn 0.7834 -0.0451 0.6198
vn -0.1328 0.9880 -0.0787
vn 0.5363 0.5655 -0.6266
vn -0.4329 0.8425 -0.3205
vn -0.2400 0.1902 0.9519
vn 0.8251 0.3909 -0.4080
vn 0.9379 -0.2066 -0.2788
vn -0.0002 0.9588 -0.2840
vn 0.1623 0.1010 -0.9815
vn 0.8387 -0.5239 -0.1489
vn 0.2773 0.7764 0.5659
vn -0.3646 0.3775 -0.8512
vn -0.6588 -0.5276 -0.5364
vn 0.7121 0.5381 0.4510
vn -0.5021 0.5302 0.6832
vn 0.7834 -0.0451 0.6199
vn 0.4741 0.5581 -0.6810
vn -0.2187 0.3555 0.9087
vn 0.8666 0.2278 -0.4440
vn 0.2789 -0.4097 -0.8685
vn 0.8387 -0.5239 -0.1488
vn 0.1133 0.8201 0.5609
vn -0.2702 0.3275 -0.9054
s off
f 59/66/59 69/67/59 47/68/59
f 45/69/60 51/70/60 46/71/60
f 43/72/61 49/73/61 44/74/61
f 47/75/62 51/70/62 52/76/62
f 44/74/63 50/77/63 45/69/63
f 48/78/64 71/79/64 49/80/64
f 51/81/65 55/82/65 52/83/65
f 49/80/66 53/84/66 50/85/66
f 43/86/67 70/87/67 48/78/67
f 50/85/68 54/88/68 51/81/68
f 55/82/69 58/89/69 59/66/69
f 72/90/70 84/91/70 80/92/70
f 53/84/71 58/89/71 54/88/71
f 70/93/72 83/94/72 81/95/72
f 58/89/73 64/96/73 59/66/73
f 61/97/74 77/98/74 60/99/74
f 57/100/75 63/101/75 58/89/75
f 62/102/76 76/103/76 78/104/76
f 64/96/77 68/105/77 69/67/77
f 61/106/78 67/107/78 62/108/78
f 43/86/67 60/109/67 56/110/67
f 62/108/79 68/105/79 63/101/79
f 60/109/80 66/111/80 61/106/80
f 69/112/81 46/71/81 47/75/81
f 66/113/82 45/69/82 67/114/82
f 67/114/83 46/71/83 68/115/83
f 65/116/84 44/74/84 66/113/84
f 55/82/59 47/68/59 52/83/59
f 73/117/85 78/104/85 76/103/85
f 73/117/86 77/98/86 74/118/86
f 72/119/87 75/120/87 73/117/87
f 60/99/88 75/120/88 56/121/88
f 61/97/89 78/104/89 74/118/89
f 72/119/90 76/103/90 57/122/90
f 79/123/91 84/91/91 82/124/91
f 79/123/92 83/94/92 80/92/92
f 71/125/93 82/124/93 53/126/93
f 53/126/94 84/91/94 57/127/94
f 72/90/95 83/94/95 56/128/95
f 71/125/96 81/95/96 79/123/96
f 59/66/59 64/96/59 69/67/59
f 45/69/97 50/77/97 51/70/97
f 43/72/61 48/129/61 49/73/61
f 47/75/62 46/71/62 51/70/62
f 44/74/63 49/73/63 50/77/63
f 48/78/64 70/87/64 71/79/64
f 51/81/65 54/88/65 55/82/65
f 49/80/66 71/79/66 53/84/66
f 43/86/67 56/110/67 70/87/67
f 50/85/68 53/84/68 54/88/68
f 55/82/69 54/88/69 58/89/69
f 72/90/98 57/127/98 84/91/98
f 53/84/71 57/100/71 58/89/71
f 70/93/72 56/128/72 83/94/72
f 58/89/73 63/101/73 64/96/73
f 61/97/99 74/118/99 77/98/99
f 57/100/75 62/108/75 63/101/75
f 62/102/76 57/122/76 76/103/76
f 64/96/77 63/101/77 68/105/77
f 61/106/78 66/111/78 67/107/78
f 43/86/67 65/130/67 60/109/67
f 62/108/79 67/107/79 68/105/79
f 60/109/80 65/130/80 66/111/80
f 69/112/81 68/115/81 46/71/81
f 66/113/82 44/74/82 45/69/82
f 67/114/83 45/69/83 46/71/83
f 65/116/84 43/72/84 44/74/84
f 55/82/59 59/66/59 47/68/59
f 73/117/100 74/118/100 78/104/100
f 73/117/86 75/120/86 77/98/86
f 72/119/101 56/121/101 75/120/101
f 60/99/88 77/98/88 75/120/88
f 61/97/102 62/102/102 78/104/102
f 72/119/103 73/117/103 76/103/103
f 79/123/91 80/92/91 84/91/91
f 79/123/92 81/95/92 83/94/92
f 71/125/104 79/123/104 82/124/104
f 53/126/105 82/124/105 84/91/105
f 72/90/106 80/92/106 83/94/106
f 71/125/107 70/93/107 81/95/107
v -1.161661 4.247910 -0.780200
v -1.158872 4.228221 -0.800844
v -1.156848 4.200777 -0.808863
v -1.156129 4.172930 -0.802107
v -1.156910 4.152142 -0.782387
v -1.139025 4.248669 -0.764275
v -1.119666 4.229536 -0.773261
v -1.111575 4.202295 -0.777013
v -1.116922 4.174245 -0.774525
v -1.134274 4.152901 -0.766463
v -1.116451 4.200794 -0.721875
v -1.121145 4.172945 -0.726773
v -1.136711 4.152151 -0.738893
v -1.166536 4.246408 -0.725061
v -1.166598 4.197773 -0.698586
v -1.164573 4.170329 -0.706605
v -1.161785 4.150640 -0.727249
v -1.189172 4.245649 -0.740986
v -1.206523 4.224305 -0.732924
v -1.211870 4.196255 -0.730435
v -1.203780 4.169014 -0.734187
v -1.184421 4.149881 -0.743174
v -1.186735 4.246399 -0.768555
v -1.202301 4.225605 -0.780675
v -1.206995 4.197756 -0.785574
v -1.199558 4.170314 -0.781938
v -1.181983 4.150632 -0.770743
v -1.141463 4.247918 -0.736706
v -1.123888 4.228236 -0.725510
v -1.167317 4.225620 -0.705342
v -1.209645 4.242786 -0.684279
v -1.212844 4.242679 -0.686530
v -1.185743 4.250773 -0.710123
v -1.193870 4.211966 -0.690155
v -1.196947 4.250398 -0.718006
v -1.211250 4.211382 -0.702382
v -1.124428 4.246771 -0.680753
v -1.134707 4.246152 -0.675979
v -1.134544 4.251804 -0.695660
v -1.129161 4.225561 -0.688487
v -1.139255 4.251521 -0.693472
v -1.133885 4.225277 -0.686293
vt 0.274240 0.539347
vt 0.265397 0.539709
vt 0.266768 0.532487
vt 0.231414 0.551290
vt 0.214659 0.541092
vt 0.231357 0.542861
vt 0.231940 0.569242
vt 0.215985 0.562822
vt 0.231472 0.559719
vt 0.230890 0.533338
vt 0.220414 0.530957
vt 0.213134 0.552274
vt 0.289666 0.544440
vt 0.282983 0.540904
vt 0.290637 0.536818
vt 0.279682 0.529141
vt 0.275518 0.536619
vt 0.273707 0.532162
vt 0.280945 0.538772
vt 0.286431 0.530872
vt 0.290637 0.551375
vt 0.284312 0.543753
vt 0.278488 0.537315
vt 0.276318 0.541045
vt 0.804698 0.251197
vt 0.792375 0.255919
vt 0.792638 0.252041
vt 0.786357 0.239035
vt 0.792578 0.249274
vt 0.791489 0.249454
vt 0.271776 0.541127
vt 0.760733 0.199751
vt 0.757502 0.209505
vt 0.750621 0.206121
vt 0.278108 0.542645
vt 0.273009 0.544115
vt 0.772804 0.201934
vt 0.766718 0.213101
vt 0.766203 0.208706
vt 0.264007 0.548518
vt 0.277612 0.547903
vt 0.268747 0.555467
vt 0.275021 0.546378
vt 0.280714 0.548498
vt 0.281954 0.545638
vt 0.276612 0.557409
vt 0.240880 0.530957
vt 0.248168 0.561486
vt 0.249693 0.550306
vt 0.246843 0.539760
vt 0.242415 0.571620
vt 0.762287 0.211045
vt 0.762255 0.210544
vt 0.761023 0.221925
vt 0.757316 0.212491
vt 0.750922 0.216572
vt 0.772804 0.220841
vt 0.791613 0.252007
vt 0.791097 0.255536
vt 0.780068 0.250772
vt 0.780487 0.263708
vt 0.804698 0.264828
vt 0.798786 0.238814
vt 0.221949 0.571626
vt 0.283377 0.553479
vn 0.0495 -0.9985 -0.0228
vn 0.5700 -0.1798 -0.8017
vn 0.4012 0.6893 -0.6032
vn 0.4661 -0.6180 -0.6331
vn 0.5476 0.2716 -0.7914
vn 0.7196 0.6894 0.0824
vn 0.7845 -0.6179 0.0525
vn 0.9579 0.2718 0.0921
vn -0.0495 0.9985 0.0228
vn 0.9803 -0.1796 0.0818
vn 0.3508 -0.6536 0.6706
vn -0.4550 -0.4088 0.7911
vn 0.4215 -0.2255 0.8783
vn -0.0959 0.9923 -0.0778
vn -0.4012 -0.6893 0.6032
vn -0.7846 0.4986 -0.3685
vn -0.5477 -0.2716 0.7914
vn -0.2945 -0.8384 0.4586
vn -0.7196 -0.6894 -0.0824
vn -0.9803 0.1796 -0.0818
vn -0.9579 -0.2718 -0.0921
vn -0.7845 0.6179 -0.0525
vn -0.2860 -0.6538 -0.7005
vn -0.4215 0.2255 -0.8783
vn -0.3991 -0.2259 -0.8886
vn -0.3508 0.6535 -0.6707
vn -0.5162 -0.4078 0.7532
vn -0.1483 0.9752 0.1644
vn 0.5402 0.5213 0.6607
vn 0.0886 0.9810 -0.1727
vn -0.9894 0.0224 -0.1436
vn 0.3933 0.2263 0.8911
vn 0.4068 -0.3917 0.8253
vn 0.0704 0.9586 0.2759
vn 0.9481 0.2775 0.1551
vn 0.3389 -0.6893 0.6403
vn -0.6893 0.5120 0.5125
vn 0.7107 0.6529 -0.2618
vn 0.4661 -0.6181 -0.6331
vn 0.3508 -0.6535 0.6707
vn -0.4841 0.1945 0.8531
vn -0.8267 0.4754 -0.3009
vn -0.5476 -0.2716 0.7914
vn -0.2860 -0.6538 -0.7006
vn -0.3991 -0.2259 -0.8887
vn -0.3508 0.6536 -0.6707
vn -0.5162 -0.4078 0.7531
vn -0.1483 0.9752 0.1643
vn 0.5885 0.5447 0.5975
vn -0.9807 0.1802 -0.0755
vn 0.4674 0.0712 0.8812
vn 0.9592 -0.2571 0.1180
vn -0.7099 0.6001 0.3687
vn 0.7833 0.5924 -0.1881
s off
f 101/131/108 111/132/108 89/133/108
f 87/134/109 93/135/109 88/136/109
f 85/137/110 91/138/110 86/139/110
f 89/140/111 93/135/111 94/141/111
f 86/139/112 92/142/112 87/134/112
f 90/143/113 113/144/113 91/145/113
f 93/146/114 97/147/114 94/148/114
f 91/145/115 95/149/115 92/150/115
f 85/151/116 112/152/116 90/143/116
f 92/150/117 96/153/117 93/146/117
f 97/147/118 100/154/118 101/131/118
f 114/155/119 126/156/119 122/157/119
f 95/149/120 100/154/120 96/153/120
f 112/158/121 125/159/121 123/160/121
f 100/154/122 106/161/122 101/131/122
f 103/162/123 119/163/123 102/164/123
f 99/165/124 105/166/124 100/154/124
f 104/167/125 118/168/125 120/169/125
f 106/161/126 110/170/126 111/132/126
f 103/171/127 109/172/127 104/173/127
f 85/151/116 102/174/116 98/175/116
f 104/173/128 110/170/128 105/166/128
f 102/174/129 108/176/129 103/171/129
f 111/177/130 88/136/130 89/140/130
f 108/178/131 87/134/131 109/179/131
f 109/179/132 88/136/132 110/180/132
f 107/181/133 86/139/133 108/178/133
f 97/147/108 89/133/108 94/148/108
f 115/182/134 120/169/134 118/168/134
f 115/182/135 119/163/135 116/183/135
f 114/184/136 117/185/136 115/182/136
f 102/164/137 117/185/137 98/186/137
f 103/162/138 120/169/138 116/183/138
f 114/184/139 118/168/139 99/187/139
f 121/188/140 126/156/140 124/189/140
f 121/188/141 125/159/141 122/157/141
f 113/190/142 124/189/142 95/191/142
f 95/191/143 126/156/143 99/192/143
f 114/155/144 125/159/144 98/193/144
f 113/190/145 123/160/145 121/188/145
f 101/131/108 106/161/108 111/132/108
f 87/134/109 92/142/109 93/135/109
f 85/137/110 90/194/110 91/138/110
f 89/140/146 88/136/146 93/135/146
f 86/139/112 91/138/112 92/142/112
f 90/143/113 112/152/113 113/144/113
f 93/146/114 96/153/114 97/147/114
f 91/145/115 113/144/115 95/149/115
f 85/151/116 98/175/116 112/152/116
f 92/150/117 95/149/117 96/153/117
f 97/147/147 96/153/147 100/154/147
f 114/155/148 99/192/148 126/156/148
f 95/149/120 99/165/120 100/154/120
f 112/158/121 98/193/121 125/159/121
f 100/154/122 105/166/122 106/161/122
f 103/162/149 116/183/149 119/163/149
f 99/165/150 104/173/150 105/166/150
f 104/167/125 99/187/125 118/168/125
f 106/161/126 105/166/126 110/170/126
f 103/171/127 108/176/127 109/172/127
f 85/151/116 107/195/116 102/174/116
f 104/173/128 109/172/128 110/170/128
f 102/174/129 107/195/129 108/176/129
f 111/177/151 110/180/151 88/136/151
f 108/178/131 86/139/131 87/134/131
f 109/179/152 87/134/152 88/136/152
f 107/181/153 85/137/153 86/139/153
f 97/147/108 101/131/108 89/133/108
f 115/182/154 116/183/154 120/169/154
f 115/182/155 117/185/155 119/163/155
f 114/184/156 98/186/156 117/185/156
f 102/164/137 119/163/137 117/185/137
f 103/162/157 104/167/157 120/169/157
f 114/184/158 115/182/158 118/168/158
f 121/188/140 122/157/140 126/156/140
f 121/188/141 123/160/141 125/159/141
f 113/190/159 121/188/159 124/189/159
f 95/191/143 124/189/143 126/156/143
f 114/155/160 122/157/160 125/159/160
f 113/190/161 112/158/161 123/160/161
