# Blender v2.81 (sub 16) OBJ File: 'garbage.blend'
# www.blender.org
v -0.159214 2.908703 2.661740
v -0.180321 2.892034 2.671649
v -0.190059 2.866140 2.679153
v -0.185817 2.837960 2.682239
v -0.168733 2.815046 2.680082
v -0.153848 2.902959 2.635192
v -0.171027 2.882084 2.625668
v -0.179327 2.854651 2.626058
v -0.176523 2.828011 2.636258
v -0.163367 2.809301 2.653534
v -0.127156 2.846120 2.609574
v -0.131342 2.820623 2.621982
v -0.137282 2.805036 2.645292
v -0.107043 2.900172 2.645256
v -0.085718 2.849078 2.646185
v -0.095455 2.823184 2.653688
v -0.116563 2.806515 2.663598
v -0.112409 2.905917 2.671803
v -0.099253 2.887207 2.689080
v -0.096450 2.860567 2.699280
v -0.104749 2.833134 2.699670
v -0.121929 2.812259 2.690145
v -0.138494 2.910182 2.680045
v -0.144434 2.894595 2.703356
v -0.148620 2.869098 2.715764
v -0.149930 2.840522 2.713945
v -0.148014 2.816525 2.698387
v -0.127763 2.898693 2.626950
v -0.125846 2.874696 2.611392
v -0.089959 2.877258 2.643098
v -0.052550 2.898716 2.668983
v -0.053308 2.899528 2.672734
v -0.085362 2.905803 2.655711
v -0.066118 2.866692 2.664125
v -0.088018 2.908647 2.668852
v -0.070238 2.871102 2.684508
v -0.083733 2.886343 2.590467
v -0.075239 2.886949 2.597971
v -0.092920 2.895259 2.604104
v -0.090100 2.867717 2.602491
v -0.089027 2.895537 2.607543
v -0.086196 2.867996 2.605941
vt 0.274240 0.539347
vt 0.265397 0.539709
vt 0.266768 0.532487
vt 0.231414 0.551290
vt 0.214659 0.541092
vt 0.231357 0.542861
vt 0.231940 0.569242
vt 0.215985 0.562822
vt 0.231472 0.559719
vt 0.230890 0.533338
vt 0.220414 0.530957
vt 0.213134 0.552274
vt 0.289666 0.544440
vt 0.282983 0.540904
vt 0.290637 0.536818
vt 0.279682 0.529141
vt 0.275518 0.536619
vt 0.273707 0.532162
vt 0.280945 0.538772
vt 0.286431 0.530872
vt 0.290637 0.551375
vt 0.284312 0.543753
vt 0.278488 0.537315
vt 0.276318 0.541045
vt 0.804698 0.251197
vt 0.792375 0.255919
vt 0.792638 0.252041
vt 0.786357 0.239035
vt 0.792578 0.249274
vt 0.791489 0.249454
vt 0.271776 0.541127
vt 0.760733 0.199751
vt 0.757502 0.209505
vt 0.750621 0.206121
vt 0.278108 0.542645
vt 0.273009 0.544115
vt 0.772804 0.201934
vt 0.766718 0.213101
vt 0.766203 0.208706
vt 0.264007 0.548518
vt 0.277612 0.547903
vt 0.268747 0.555467
vt 0.275021 0.546378
vt 0.280714 0.548498
vt 0.281954 0.545638
vt 0.276612 0.557409
vt 0.240880 0.530957
vt 0.248168 0.561486
vt 0.249693 0.550306
vt 0.246843 0.539760
vt 0.242415 0.571620
vt 0.762287 0.211045
vt 0.762255 0.210544
vt 0.761023 0.221925
vt 0.757316 0.212491
vt 0.750922 0.216572
vt 0.772804 0.220841
vt 0.791613 0.252007
vt 0.791097 0.255536
vt 0.780068 0.250772
vt 0.780487 0.263708
vt 0.804698 0.264828
vt 0.798786 0.238814
vt 0.221949 0.571626
vt 0.283377 0.553479
vn -0.0993 -0.9765 0.1912
vn -0.9732 -0.1641 -0.1612
vn -0.6728 0.6832 -0.2838
vn -0.8028 -0.5954 -0.0334
vn -0.9283 0.2773 -0.2476
vn -0.1770 0.5254 -0.8322
vn -0.3070 -0.7531 -0.5818
vn -0.2894 0.0740 -0.9543
vn 0.0992 0.9765 -0.1912
vn -0.3343 -0.3675 -0.8679
vn 0.4308 -0.7971 -0.4232
vn 0.8824 -0.4277 0.1960
vn 0.6164 -0.4241 -0.6634
vn 0.0260 0.9936 -0.1098
vn 0.6728 -0.6832 0.2838
vn 0.0120 0.6829 0.7304
vn 0.9283 -0.2773 0.2476
vn 0.4889 -0.8269 0.2778
vn 0.1770 -0.5254 0.8322
vn 0.3343 0.3675 0.8679
vn 0.0992 0.9765 -0.1913
vn 0.2894 -0.0740 0.9543
vn 0.3070 0.7531 0.5818
vn -0.5608 -0.4815 0.6736
vn -0.6164 0.4241 0.6635
vn -0.6613 -0.0174 0.7499
vn -0.4308 0.7971 0.4232
vn 0.8727 -0.4100 0.2651
vn 0.2670 0.9516 -0.1520
vn 0.4134 0.3115 -0.8556
vn -0.1362 0.9622 -0.2357
vn 0.2724 0.2252 0.9355
vn 0.6660 0.0186 -0.7458
vn 0.5643 -0.5752 -0.5922
vn 0.2790 0.8790 -0.3868
vn -0.2277 0.0722 -0.9710
vn 0.4059 -0.8252 -0.3928
vn 0.7773 0.5510 0.3036
vn -0.4894 0.5413 -0.6837
vn -0.0992 -0.9765 0.1912
vn -0.1771 0.5254 -0.8322
vn 0.0993 0.9765 -0.1912
vn 0.9860 0.1551 0.0612
vn 0.6164 -0.4241 -0.6635
vn 0.0260 0.9936 -0.1097
vn 0.0893 0.6584 0.7474
vn -0.5607 -0.4815 0.6736
vn -0.6164 0.4241 0.6634
vn -0.0993 -0.9765 0.1913
vn 0.8727 -0.4100 0.2652
vn 0.3375 0.3344 -0.8799
vn 0.3402 0.3673 0.8657
vn 0.6177 -0.1445 -0.7730
vn 0.2789 0.8790 -0.3867
vn -0.2972 -0.4441 -0.8453
vn 0.4059 -0.8253 -0.3927
vn 0.6597 0.6612 0.3572
vn -0.4553 0.4585 -0.7632
s off
f 17/1/1 27/2/1 5/3/1
f 3/4/2 9/5/2 4/6/2
f 1/7/3 7/8/3 2/9/3
f 5/10/4 9/5/4 10/11/4
f 2/9/5 8/12/5 3/4/5
f 6/13/6 29/14/6 7/15/6
f 9/16/7 13/17/7 10/18/7
f 7/15/8 11/19/8 8/20/8
f 1/21/9 28/22/9 6/13/9
f 8/20/10 12/23/10 9/16/10
f 13/17/11 16/24/11 17/1/11
f 30/25/12 42/26/12 38/27/12
f 11/19/13 16/24/13 12/23/13
f 28/28/14 41/29/14 39/30/14
f 16/24/15 22/31/15 17/1/15
f 19/32/16 35/33/16 18/34/16
f 15/35/17 21/36/17 16/24/17
f 20/37/18 34/38/18 36/39/18
f 22/31/19 26/40/19 27/2/19
f 19/41/20 25/42/20 20/43/20
f 1/21/21 18/44/21 14/45/21
f 20/43/22 26/40/22 21/36/22
f 18/44/23 24/46/23 19/41/23
f 27/47/24 4/6/24 5/10/24
f 24/48/25 3/4/25 25/49/25
f 25/49/26 4/6/26 26/50/26
f 23/51/27 2/9/27 24/48/27
f 13/17/1 5/3/1 10/18/1
f 31/52/28 36/39/28 34/38/28
f 31/52/29 35/33/29 32/53/29
f 30/54/30 33/55/30 31/52/30
f 18/34/31 33/55/31 14/56/31
f 19/32/32 36/39/32 32/53/32
f 30/54/33 34/38/33 15/57/33
f 37/58/34 42/26/34 40/59/34
f 37/58/35 41/29/35 38/27/35
f 29/60/36 40/59/36 11/61/36
f 11/61/37 42/26/37 15/62/37
f 30/25/38 41/29/38 14/63/38
f 29/60/39 39/30/39 37/58/39
f 17/1/40 22/31/40 27/2/40
f 3/4/2 8/12/2 9/5/2
f 1/7/3 6/64/3 7/8/3
f 5/10/4 4/6/4 9/5/4
f 2/9/5 7/8/5 8/12/5
f 6/13/41 28/22/41 29/14/41
f 9/16/7 12/23/7 13/17/7
f 7/15/8 29/14/8 11/19/8
f 1/21/42 14/45/42 28/22/42
f 8/20/10 11/19/10 12/23/10
f 13/17/11 12/23/11 16/24/11
f 30/25/43 15/62/43 42/26/43
f 11/19/44 15/35/44 16/24/44
f 28/28/45 14/63/45 41/29/45
f 16/24/15 21/36/15 22/31/15
f 19/32/46 32/53/46 35/33/46
f 15/35/17 20/43/17 21/36/17
f 20/37/18 15/57/18 34/38/18
f 22/31/19 21/36/19 26/40/19
f 19/41/20 24/46/20 25/42/20
f 1/21/42 23/65/42 18/44/42
f 20/43/22 25/42/22 26/40/22
f 18/44/23 23/65/23 24/46/23
f 27/47/47 26/50/47 4/6/47
f 24/48/48 2/9/48 3/4/48
f 25/49/26 3/4/26 4/6/26
f 23/51/27 1/7/27 2/9/27
f 13/17/49 17/1/49 5/3/49
f 31/52/50 32/53/50 36/39/50
f 31/52/29 33/55/29 35/33/29
f 30/54/51 14/56/51 33/55/51
f 18/34/31 35/33/31 33/55/31
f 19/32/52 20/37/52 36/39/52
f 30/54/53 31/52/53 34/38/53
f 37/58/34 38/27/34 42/26/34
f 37/58/54 39/30/54 41/29/54
f 29/60/55 37/58/55 40/59/55
f 11/61/56 40/59/56 42/26/56
f 30/25/57 38/27/57 41/29/57
f 29/60/58 28/28/58 39/30/58
v 3.681987 2.808881 -4.463779
v 3.693971 2.790839 -4.445005
v 3.696881 2.764368 -4.434402
v 3.689938 2.736561 -4.434813
v 3.675003 2.714869 -4.446126
v 3.654952 2.811862 -4.458604
v 3.647145 2.796001 -4.436041
v 3.642811 2.770329 -4.424051
v 3.643112 2.741723 -4.425848
v 3.647968 2.717849 -4.440950
v 3.606039 2.765343 -4.465151
v 3.611267 2.737405 -4.461442
v 3.629582 2.715356 -4.461500
v 3.645215 2.803895 -4.504879
v 3.623337 2.754396 -4.516603
v 3.626247 2.727925 -4.506000
v 3.638231 2.709883 -4.487226
v 3.672250 2.800915 -4.510055
v 3.677106 2.777041 -4.525156
v 3.677407 2.748435 -4.526954
v 3.673073 2.722763 -4.514964
v 3.665266 2.706903 -4.492401
v 3.690636 2.803408 -4.489505
v 3.708951 2.781359 -4.489563
v 3.714179 2.753421 -4.485854
v 3.704919 2.727081 -4.479371
v 3.683652 2.709395 -4.471851
v 3.636566 2.809369 -4.479154
v 3.615299 2.791683 -4.471634
v 3.630280 2.782203 -4.516192
v 3.644955 2.792400 -4.563210
v 3.648776 2.791978 -4.563941
v 3.647778 2.804857 -4.529447
v 3.636697 2.764330 -4.543788
v 3.661160 2.803382 -4.532009
v 3.657454 2.762042 -4.547762
v 3.584205 2.807644 -4.505181
v 3.587750 2.805400 -4.515728
v 3.602240 2.812030 -4.502868
v 3.591886 2.786417 -4.500440
v 3.603865 2.811002 -4.507701
v 3.593516 2.785386 -4.505288
vt 0.274240 0.539347
vt 0.265397 0.539709
vt 0.266768 0.532487
vt 0.231414 0.551290
vt 0.214659 0.541092
vt 0.231357 0.542861
vt 0.231940 0.569242
vt 0.215985 0.562822
vt 0.231472 0.559719
vt 0.230890 0.533338
vt 0.220414 0.530957
vt 0.213134 0.552274
vt 0.289666 0.544440
vt 0.282983 0.540904
vt 0.290637 0.536818
vt 0.279682 0.529141
vt 0.275518 0.536619
vt 0.273707 0.532162
vt 0.280945 0.538772
vt 0.286431 0.530872
vt 0.290637 0.551375
vt 0.284312 0.543753
vt 0.278488 0.537315
vt 0.276318 0.541045
vt 0.804698 0.251197
vt 0.792375 0.255919
vt 0.792638 0.252041
vt 0.786357 0.239035
vt 0.792578 0.249274
vt 0.791489 0.249454
vt 0.271776 0.541127
vt 0.760733 0.199751
vt 0.757502 0.209505
vt 0.750621 0.206121
vt 0.278108 0.542645
vt 0.273009 0.544115
vt 0.772804 0.201934
vt 0.766718 0.213101
vt 0.766203 0.208706
vt 0.264007 0.548518
vt 0.277612 0.547903
vt 0.268747 0.555467
vt 0.275021 0.546378
vt 0.280714 0.548498
vt 0.281954 0.545638
vt 0.276612 0.557409
vt 0.240880 0.530957
vt 0.248168 0.561486
vt 0.249693 0.550306
vt 0.246843 0.539760
vt 0.242415 0.571620
vt 0.762287 0.211045
vt 0.762255 0.210544
vt 0.761023 0.221925
vt 0.757316 0.212491
vt 0.750922 0.216572
vt 0.772804 0.220841
vt 0.791613 0.252007
vt 0.791097 0.255536
vt 0.780068 0.250772
vt 0.780487 0.263708
vt 0.804698 0.264828
vt 0.798786 0.238814
vt 0.221949 0.571626
vt 0.283377 0.553479
vn -0.0728 -0.9802 0.1841
vn 0.1813 -0.0598 0.9816
vn 0.2012 0.7673 0.6090
vn 0.1058 -0.5161 0.8499
vn 0.2143 0.3834 0.8984
vn -0.5148 0.7750 0.3666
vn -0.6101 -0.5085 0.6076
vn -0.7084 0.3933 0.5861
vn 0.0728 0.9802 -0.1841
vn -0.7413 -0.0499 0.6693
vn -0.7636 -0.6340 -0.1219
vn -0.2852 -0.5066 -0.8137
vn -0.9391 -0.2116 -0.2707
vn 0.1773 0.9730 -0.1476
vn -0.2012 -0.7673 -0.6090
vn 0.8330 0.4067 -0.3751
vn -0.2143 -0.3834 -0.8984
vn -0.1776 -0.8930 -0.4136
vn 0.5148 -0.7750 -0.3666
vn 0.7413 0.0499 -0.6693
vn 0.7084 -0.3933 -0.5861
vn 0.6102 0.5084 -0.6076
vn 0.6683 -0.6494 0.3629
vn 0.9391 0.2116 0.2707
vn 0.9062 -0.2315 0.3539
vn 0.7636 0.6340 0.1219
vn -0.2156 -0.5119 -0.8315
vn 0.0366 0.9366 -0.3486
vn -0.8210 0.5545 -0.1360
vn 0.1191 0.9916 0.0512
vn 0.7837 -0.1038 -0.6124
vn -0.9040 0.2310 -0.3598
vn -0.8998 -0.3753 -0.2226
vn -0.1954 0.9438 -0.2664
vn -0.7471 0.3944 0.5351
vn -0.7354 -0.6694 -0.1048
vn 0.1289 0.3874 -0.9129
vn -0.2608 0.7554 0.6011
vn -0.6102 -0.5084 0.6076
vn -0.7637 -0.6340 -0.1219
vn -0.2767 0.0832 -0.9573
vn -0.9391 -0.2117 -0.2707
vn 0.1773 0.9731 -0.1474
vn -0.2012 -0.7673 -0.6089
vn 0.8115 0.3746 -0.4485
vn 0.9391 0.2117 0.2707
vn 0.7637 0.6340 0.1219
vn -0.2156 -0.5120 -0.8315
vn 0.0365 0.9366 -0.3486
vn -0.8069 0.5875 -0.0612
vn 0.7370 0.0501 -0.6740
vn -0.9561 0.0880 -0.2794
vn -0.8997 -0.3753 -0.2227
vn -0.1953 0.9438 -0.2665
vn -0.7574 -0.1312 0.6396
vn -0.7355 -0.6694 -0.1048
vn 0.2522 0.4792 -0.8407
vn -0.3675 0.7015 0.6106
s off
f 59/66/59 69/67/59 47/68/59
f 45/69/60 51/70/60 46/71/60
f 43/72/61 49/73/61 44/74/61
f 47/75/62 51/70/62 52/76/62
f 44/74/63 50/77/63 45/69/63
f 48/78/64 71/79/64 49/80/64
f 51/81/65 55/82/65 52/83/65
f 49/80/66 53/84/66 50/85/66
f 43/86/67 70/87/67 48/78/67
f 50/85/68 54/88/68 51/81/68
f 55/82/69 58/89/69 59/66/69
f 72/90/70 84/91/70 80/92/70
f 53/84/71 58/89/71 54/88/71
f 70/93/72 83/94/72 81/95/72
f 58/89/73 64/96/73 59/66/73
f 61/97/74 77/98/74 60/99/74
f 57/100/75 63/101/75 58/89/75
f 62/102/76 76/103/76 78/104/76
f 64/96/77 68/105/77 69/67/77
f 61/106/78 67/107/78 62/108/78
f 43/86/67 60/109/67 56/110/67
f 62/108/79 68/105/79 63/101/79
f 60/109/80 66/111/80 61/106/80
f 69/112/81 46/71/81 47/75/81
f 66/113/82 45/69/82 67/114/82
f 67/114/83 46/71/83 68/115/83
f 65/116/84 44/74/84 66/113/84
f 55/82/59 47/68/59 52/83/59
f 73/117/85 78/104/85 76/103/85
f 73/117/86 77/98/86 74/118/86
f 72/119/87 75/120/87 73/117/87
f 60/99/88 75/120/88 56/121/88
f 61/97/89 78/104/89 74/118/89
f 72/119/90 76/103/90 57/122/90
f 79/123/91 84/91/91 82/124/91
f 79/123/92 83/94/92 80/92/92
f 71/125/93 82/124/93 53/126/93
f 53/126/94 84/91/94 57/127/94
f 72/90/95 83/94/95 56/128/95
f 71/125/96 81/95/96 79/123/96
f 59/66/59 64/96/59 69/67/59
f 45/69/60 50/77/60 51/70/60
f 43/72/61 48/129/61 49/73/61
f 47/75/62 46/71/62 51/70/62
f 44/74/63 49/73/63 50/77/63
f 48/78/64 70/87/64 71/79/64
f 51/81/97 54/88/97 55/82/97
f 49/80/66 71/79/66 53/84/66
f 43/86/67 56/110/67 70/87/67
f 50/85/68 53/84/68 54/88/68
f 55/82/98 54/88/98 58/89/98
f 72/90/99 57/127/99 84/91/99
f 53/84/100 57/100/100 58/89/100
f 70/93/101 56/128/101 83/94/101
f 58/89/102 63/101/102 64/96/102
f 61/97/103 74/118/103 77/98/103
f 57/100/75 62/108/75 63/101/75
f 62/102/76 57/122/76 76/103/76
f 64/96/77 63/101/77 68/105/77
f 61/106/78 66/111/78 67/107/78
f 43/86/67 65/130/67 60/109/67
f 62/108/79 67/107/79 68/105/79
f 60/109/80 65/130/80 66/111/80
f 69/112/81 68/115/81 46/71/81
f 66/113/104 44/74/104 45/69/104
f 67/114/83 45/69/83 46/71/83
f 65/116/105 43/72/105 44/74/105
f 55/82/59 59/66/59 47/68/59
f 73/117/106 74/118/106 78/104/106
f 73/117/107 75/120/107 77/98/107
f 72/119/108 56/121/108 75/120/108
f 60/99/88 77/98/88 75/120/88
f 61/97/109 62/102/109 78/104/109
f 72/119/110 73/117/110 76/103/110
f 79/123/111 80/92/111 84/91/111
f 79/123/112 81/95/112 83/94/112
f 71/125/113 79/123/113 82/124/113
f 53/126/114 82/124/114 84/91/114
f 72/90/115 80/92/115 83/94/115
f 71/125/116 70/93/116 81/95/116
v 0.920239 4.340972 -0.700666
v 0.914347 4.323517 -0.678706
v 0.910545 4.297060 -0.668354
v 0.909851 4.268690 -0.672383
v 0.912452 4.246008 -0.689714
v 0.899774 4.340500 -0.719308
v 0.878902 4.322701 -0.710995
v 0.869616 4.296117 -0.705638
v 0.874406 4.267873 -0.704672
v 0.891987 4.245536 -0.708356
v 0.881216 4.288976 -0.759311
v 0.884451 4.261688 -0.751154
v 0.897787 4.241966 -0.735192
v 0.931838 4.333831 -0.754338
v 0.933745 4.282778 -0.775698
v 0.929943 4.256321 -0.765346
v 0.924051 4.238867 -0.743386
v 0.952303 4.334302 -0.735695
v 0.969884 4.311966 -0.739379
v 0.974674 4.283722 -0.738413
v 0.965388 4.257138 -0.733056
v 0.944516 4.239338 -0.724744
v 0.946503 4.337873 -0.708859
v 0.959839 4.318151 -0.692898
v 0.963074 4.290863 -0.684741
v 0.955343 4.263323 -0.686575
v 0.938716 4.242909 -0.697908
v 0.905574 4.336930 -0.746144
v 0.888947 4.316516 -0.757477
v 0.934439 4.311149 -0.771669
v 0.979528 4.325387 -0.788821
v 0.982420 4.325454 -0.786186
v 0.952862 4.336343 -0.767097
v 0.962252 4.295587 -0.781983
v 0.962992 4.336576 -0.757869
v 0.977965 4.295949 -0.767669
v 0.895552 4.330427 -0.803410
v 0.906319 4.329156 -0.806770
v 0.903892 4.336769 -0.787916
v 0.898670 4.310030 -0.793101
v 0.908827 4.336186 -0.789455
v 0.903619 4.309446 -0.794645
vt 0.274240 0.539347
vt 0.265397 0.539709
vt 0.266768 0.532487
vt 0.231414 0.551290
vt 0.214659 0.541092
vt 0.231357 0.542861
vt 0.231940 0.569242
vt 0.215985 0.562822
vt 0.231472 0.559719
vt 0.230890 0.533338
vt 0.220414 0.530957
vt 0.213134 0.552274
vt 0.289666 0.544440
vt 0.282983 0.540904
vt 0.290637 0.536818
vt 0.279682 0.529141
vt 0.275518 0.536619
vt 0.273707 0.532162
vt 0.280945 0.538772
vt 0.286431 0.530872
vt 0.290637 0.551375
vt 0.284312 0.543753
vt 0.278488 0.537315
vt 0.276318 0.541045
vt 0.804698 0.251197
vt 0.792375 0.255919
vt 0.792638 0.252041
vt 0.786357 0.239035
vt 0.792578 0.249274
vt 0.791489 0.249454
vt 0.271776 0.541127
vt 0.760733 0.199751
vt 0.757502 0.209505
vt 0.750621 0.206121
vt 0.278108 0.542645
vt 0.273009 0.544115
vt 0.772804 0.201934
vt 0.766718 0.213101
vt 0.766203 0.208706
vt 0.264007 0.548518
vt 0.277612 0.547903
vt 0.268747 0.555467
vt 0.275021 0.546378
vt 0.280714 0.548498
vt 0.281954 0.545638
vt 0.276612 0.557409
vt 0.240880 0.530957
vt 0.248168 0.561486
vt 0.249693 0.550306
vt 0.246843 0.539760
vt 0.242415 0.571620
vt 0.762287 0.211045
vt 0.762255 0.210544
vt 0.761023 0.221925
vt 0.757316 0.212491
vt 0.750922 0.216572
vt 0.772804 0.220841
vt 0.791613 0.252007
vt 0.791097 0.255536
vt 0.780068 0.250772
vt 0.780487 0.263708
vt 0.804698 0.264828
vt 0.798786 0.238814
vt 0.221949 0.571626
vt 0.283377 0.553479
vn -0.0812 -0.9901 0.1142
vn -0.6697 -0.0883 0.7374
vn -0.4523 0.7533 0.4774
vn -0.5586 -0.5431 0.6269
vn -0.6330 0.3593 0.6858
vn -0.6835 0.6896 -0.2394
vn -0.7898 -0.6068 -0.0900
vn -0.9309 0.2772 -0.2381
vn 0.0812 0.9901 -0.1142
vn -0.9676 -0.1705 -0.1864
vn -0.2843 -0.7119 -0.6421
vn 0.5370 -0.4941 -0.6837
vn -0.3162 -0.3059 -0.8980
vn 0.1146 0.9934 -0.0085
vn 0.4523 -0.7533 -0.4775
vn 0.7473 0.5200 0.4136
vn 0.6330 -0.3593 -0.6858
vn 0.3242 -0.8853 -0.3335
vn 0.6835 -0.6896 0.2394
vn 0.9676 0.1705 0.1864
vn 0.9309 -0.2772 0.2381
vn 0.7898 0.6068 0.0900
vn 0.1780 -0.5845 0.7916
vn 0.3162 0.3059 0.8980
vn 0.2795 -0.1417 0.9496
vn 0.2843 0.7119 0.6421
vn 0.5931 -0.4903 -0.6386
vn 0.1959 0.9510 -0.2391
vn -0.4389 0.4609 -0.7713
vn -0.0805 0.9947 0.0632
vn 0.9643 0.0201 0.2641
vn -0.2735 0.1418 -0.9514
vn -0.3132 -0.4661 -0.8274
vn -0.0077 0.9269 -0.3752
vn -0.9132 0.2763 -0.2995
vn -0.2773 -0.7446 -0.6072
vn 0.7620 0.4460 -0.4694
vn -0.7182 0.6879 0.1051
vn -0.6330 0.3593 0.6857
vn -0.6835 0.6896 -0.2395
vn 0.5912 0.0992 -0.8004
vn 0.1146 0.9934 -0.0084
vn 0.4523 -0.7533 -0.4774
vn 0.7968 0.4894 0.3544
vn 0.6330 -0.3593 -0.6857
vn 0.3242 -0.8852 -0.3335
vn 0.6835 -0.6896 0.2395
vn 0.7898 0.6068 0.0899
vn 0.1780 -0.5845 0.7917
vn 0.5931 -0.4904 -0.6386
vn 0.1959 0.9510 -0.2392
vn -0.4940 0.4914 -0.7173
vn 0.9687 0.1704 0.1802
vn -0.3527 -0.0102 -0.9357
vn -0.3131 -0.4661 -0.8275
vn -0.0077 0.9269 -0.3753
vn -0.9444 -0.2515 -0.2120
vn 0.7672 0.5478 -0.3336
vn -0.7829 0.6215 0.0291
s off
f 101/131/117 111/132/117 89/133/117
f 87/134/118 93/135/118 88/136/118
f 85/137/119 91/138/119 86/139/119
f 89/140/120 93/135/120 94/141/120
f 86/139/121 92/142/121 87/134/121
f 90/143/122 113/144/122 91/145/122
f 93/146/123 97/147/123 94/148/123
f 91/145/124 95/149/124 92/150/124
f 85/151/125 112/152/125 90/143/125
f 92/150/126 96/153/126 93/146/126
f 97/147/127 100/154/127 101/131/127
f 114/155/128 126/156/128 122/157/128
f 95/149/129 100/154/129 96/153/129
f 112/158/130 125/159/130 123/160/130
f 100/154/131 106/161/131 101/131/131
f 103/162/132 119/163/132 102/164/132
f 99/165/133 105/166/133 100/154/133
f 104/167/134 118/168/134 120/169/134
f 106/161/135 110/170/135 111/132/135
f 103/171/136 109/172/136 104/173/136
f 85/151/125 102/174/125 98/175/125
f 104/173/137 110/170/137 105/166/137
f 102/174/138 108/176/138 103/171/138
f 111/177/139 88/136/139 89/140/139
f 108/178/140 87/134/140 109/179/140
f 109/179/141 88/136/141 110/180/141
f 107/181/142 86/139/142 108/178/142
f 97/147/117 89/133/117 94/148/117
f 115/182/143 120/169/143 118/168/143
f 115/182/144 119/163/144 116/183/144
f 114/184/145 117/185/145 115/182/145
f 102/164/146 117/185/146 98/186/146
f 103/162/147 120/169/147 116/183/147
f 114/184/148 118/168/148 99/187/148
f 121/188/149 126/156/149 124/189/149
f 121/188/150 125/159/150 122/157/150
f 113/190/151 124/189/151 95/191/151
f 95/191/152 126/156/152 99/192/152
f 114/155/153 125/159/153 98/193/153
f 113/190/154 123/160/154 121/188/154
f 101/131/117 106/161/117 111/132/117
f 87/134/118 92/142/118 93/135/118
f 85/137/119 90/194/119 91/138/119
f 89/140/120 88/136/120 93/135/120
f 86/139/155 91/138/155 92/142/155
f 90/143/156 112/152/156 113/144/156
f 93/146/123 96/153/123 97/147/123
f 91/145/124 113/144/124 95/149/124
f 85/151/125 98/175/125 112/152/125
f 92/150/126 95/149/126 96/153/126
f 97/147/127 96/153/127 100/154/127
f 114/155/157 99/192/157 126/156/157
f 95/149/129 99/165/129 100/154/129
f 112/158/158 98/193/158 125/159/158
f 100/154/159 105/166/159 106/161/159
f 103/162/160 116/183/160 119/163/160
f 99/165/161 104/173/161 105/166/161
f 104/167/162 99/187/162 118/168/162
f 106/161/163 105/166/163 110/170/163
f 103/171/136 108/176/136 109/172/136
f 85/151/125 107/195/125 102/174/125
f 104/173/137 109/172/137 110/170/137
f 102/174/164 107/195/164 108/176/164
f 111/177/165 110/180/165 88/136/165
f 108/178/140 86/139/140 87/134/140
f 109/179/141 87/134/141 88/136/141
f 107/181/142 85/137/142 86/139/142
f 97/147/117 101/131/117 89/133/117
f 115/182/166 116/183/166 120/169/166
f 115/182/167 117/185/167 119/163/167
f 114/184/168 98/186/168 117/185/168
f 102/164/146 119/163/146 117/185/146
f 103/162/169 104/167/169 120/169/169
f 114/184/170 115/182/170 118/168/170
f 121/188/171 122/157/171 126/156/171
f 121/188/172 123/160/172 125/159/172
f 113/190/173 121/188/173 124/189/173
f 95/191/152 124/189/152 126/156/152
f 114/155/174 122/157/174 125/159/174
f 113/190/175 112/158/175 123/160/175
