# Blender v2.81 (sub 16) OBJ File: 'garbage.blend'
# www.blender.org
v 0.102028 1.954834 -1.904314
v 0.110465 1.939312 -1.881742
v 0.112904 1.913981 -1.868551
v 0.108694 1.885630 -1.868274
v 0.098961 1.861854 -1.880986
v 0.074403 1.955297 -1.906101
v 0.062616 1.940114 -1.884837
v 0.057654 1.914907 -1.872124
v 0.060845 1.886432 -1.871369
v 0.071336 1.862317 -1.882773
v 0.032834 1.903633 -1.920323
v 0.039351 1.876669 -1.913111
v 0.058926 1.856681 -1.906873
v 0.077208 1.943560 -1.952513
v 0.063265 1.891434 -1.964948
v 0.065705 1.866103 -1.951757
v 0.074141 1.850581 -1.929185
v 0.104834 1.943097 -1.950725
v 0.115324 1.918983 -1.962130
v 0.118515 1.890508 -1.961374
v 0.113553 1.865301 -1.948662
v 0.101766 1.850118 -1.927398
v 0.117244 1.948734 -1.926626
v 0.136818 1.928746 -1.920388
v 0.143335 1.901781 -1.913175
v 0.135048 1.875065 -1.906920
v 0.114176 1.855755 -1.903299
v 0.061993 1.949660 -1.930200
v 0.041122 1.930350 -1.926579
v 0.067476 1.919785 -1.965225
v 0.092460 1.928572 -2.007987
v 0.096363 1.928506 -2.007734
v 0.085712 1.943286 -1.975722
v 0.082067 1.901030 -1.988836
v 0.099386 1.943057 -1.974838
v 0.103278 1.900675 -1.987464
v 0.018103 1.940920 -1.967876
v 0.024341 1.938420 -1.977023
v 0.034550 1.947290 -1.961649
v 0.026154 1.920936 -1.959640
v 0.037409 1.946144 -1.965841
v 0.029021 1.919786 -1.963844
vt 0.274240 0.539347
vt 0.265397 0.539709
vt 0.266768 0.532487
vt 0.231414 0.551290
vt 0.214659 0.541092
vt 0.231357 0.542861
vt 0.231940 0.569242
vt 0.215985 0.562822
vt 0.231472 0.559719
vt 0.230890 0.533338
vt 0.220414 0.530957
vt 0.213134 0.552274
vt 0.289666 0.544440
vt 0.282983 0.540904
vt 0.290637 0.536818
vt 0.279682 0.529141
vt 0.275518 0.536619
vt 0.273707 0.532162
vt 0.280945 0.538772
vt 0.286431 0.530872
vt 0.290637 0.551375
vt 0.284312 0.543753
vt 0.278488 0.537315
vt 0.276318 0.541045
vt 0.804698 0.251197
vt 0.792375 0.255919
vt 0.792638 0.252041
vt 0.786357 0.239035
vt 0.792578 0.249274
vt 0.791489 0.249454
vt 0.271776 0.541127
vt 0.760733 0.199751
vt 0.757502 0.209505
vt 0.750621 0.206121
vt 0.278108 0.542645
vt 0.273009 0.544115
vt 0.772804 0.201934
vt 0.766718 0.213101
vt 0.766203 0.208706
vt 0.264007 0.548518
vt 0.277612 0.547903
vt 0.268747 0.555467
vt 0.275021 0.546378
vt 0.280714 0.548498
vt 0.281954 0.545638
vt 0.276612 0.557409
vt 0.240880 0.530957
vt 0.248168 0.561486
vt 0.249693 0.550306
vt 0.246843 0.539760
vt 0.242415 0.571620
vt 0.762287 0.211045
vt 0.762255 0.210544
vt 0.761023 0.221925
vt 0.757316 0.212491
vt 0.750922 0.216572
vt 0.772804 0.220841
vt 0.791613 0.252007
vt 0.791097 0.255536
vt 0.780068 0.250772
vt 0.780487 0.263708
vt 0.804698 0.264828
vt 0.798786 0.238814
vt 0.221949 0.571626
vt 0.283377 0.553479
vn -0.0320 -0.9694 0.2432
vn -0.0642 0.0193 0.9977
vn -0.0233 0.8197 0.5724
vn -0.0652 -0.4496 0.8908
vn -0.0498 0.4575 0.8878
vn -0.6544 0.7381 0.1643
vn -0.6962 -0.5312 0.4828
vn -0.8630 0.3524 0.3620
vn 0.0320 0.9694 -0.2432
vn -0.8775 -0.0858 0.4719
vn -0.6520 -0.7162 -0.2488
vn -0.0292 -0.5821 -0.8126
vn -0.8205 -0.3242 -0.4708
vn 0.1243 0.9754 -0.1819
vn 0.0233 -0.8197 -0.5724
vn 0.8621 0.4675 -0.1955
vn 0.0498 -0.4575 -0.8878
vn 0.0082 -0.9301 -0.3672
vn 0.6544 -0.7381 -0.1643
vn 0.8775 0.0858 -0.4719
vn 0.8630 -0.3524 -0.3620
vn 0.6962 0.5312 -0.4828
vn 0.6101 -0.5531 0.5673
vn 0.8205 0.3242 0.4709
vn 0.8060 -0.1140 0.5808
vn 0.6520 0.7162 0.2488
vn 0.0428 -0.5812 -0.8126
vn 0.0416 0.9123 -0.4074
vn -0.8057 0.4569 -0.3769
vn 0.0171 0.9998 -0.0055
vn 0.9174 -0.0588 -0.3937
vn -0.8024 0.1135 -0.5860
vn -0.7804 -0.4797 -0.4010
vn -0.2031 0.9004 -0.3846
vn -0.8877 0.3464 0.3033
vn -0.6260 -0.7474 -0.2226
vn 0.3183 0.3424 -0.8840
vn -0.4660 0.7594 0.4541
vn -0.0359 -0.0044 -0.9993
vn -0.8205 -0.3242 -0.4709
vn 0.1243 0.9754 -0.1820
vn 0.8624 0.4289 -0.2690
vn -0.8136 0.4956 -0.3039
vn 0.8745 0.0853 -0.4775
vn -0.8605 -0.0290 -0.5087
vn -0.7804 -0.4797 -0.4011
vn -0.2031 0.9004 -0.3847
vn -0.8786 -0.1701 0.4462
vn 0.4114 0.4507 -0.7922
vn -0.5666 0.6954 0.4420
s off
f 17/1/1 27/2/1 5/3/1
f 3/4/2 9/5/2 4/6/2
f 1/7/3 7/8/3 2/9/3
f 5/10/4 9/5/4 10/11/4
f 2/9/5 8/12/5 3/4/5
f 6/13/6 29/14/6 7/15/6
f 9/16/7 13/17/7 10/18/7
f 7/15/8 11/19/8 8/20/8
f 1/21/9 28/22/9 6/13/9
f 8/20/10 12/23/10 9/16/10
f 13/17/11 16/24/11 17/1/11
f 30/25/12 42/26/12 38/27/12
f 11/19/13 16/24/13 12/23/13
f 28/28/14 41/29/14 39/30/14
f 16/24/15 22/31/15 17/1/15
f 19/32/16 35/33/16 18/34/16
f 15/35/17 21/36/17 16/24/17
f 20/37/18 34/38/18 36/39/18
f 22/31/19 26/40/19 27/2/19
f 19/41/20 25/42/20 20/43/20
f 1/21/9 18/44/9 14/45/9
f 20/43/21 26/40/21 21/36/21
f 18/44/22 24/46/22 19/41/22
f 27/47/23 4/6/23 5/10/23
f 24/48/24 3/4/24 25/49/24
f 25/49/25 4/6/25 26/50/25
f 23/51/26 2/9/26 24/48/26
f 13/17/1 5/3/1 10/18/1
f 31/52/27 36/39/27 34/38/27
f 31/52/28 35/33/28 32/53/28
f 30/54/29 33/55/29 31/52/29
f 18/34/30 33/55/30 14/56/30
f 19/32/31 36/39/31 32/53/31
f 30/54/32 34/38/32 15/57/32
f 37/58/33 42/26/33 40/59/33
f 37/58/34 41/29/34 38/27/34
f 29/60/35 40/59/35 11/61/35
f 11/61/36 42/26/36 15/62/36
f 30/25/37 41/29/37 14/63/37
f 29/60/38 39/30/38 37/58/38
f 17/1/1 22/31/1 27/2/1
f 3/4/2 8/12/2 9/5/2
f 1/7/3 6/64/3 7/8/3
f 5/10/4 4/6/4 9/5/4
f 2/9/5 7/8/5 8/12/5
f 6/13/6 28/22/6 29/14/6
f 9/16/7 12/23/7 13/17/7
f 7/15/8 29/14/8 11/19/8
f 1/21/9 14/45/9 28/22/9
f 8/20/10 11/19/10 12/23/10
f 13/17/11 12/23/11 16/24/11
f 30/25/39 15/62/39 42/26/39
f 11/19/40 15/35/40 16/24/40
f 28/28/41 14/63/41 41/29/41
f 16/24/15 21/36/15 22/31/15
f 19/32/42 32/53/42 35/33/42
f 15/35/17 20/43/17 21/36/17
f 20/37/18 15/57/18 34/38/18
f 22/31/19 21/36/19 26/40/19
f 19/41/20 24/46/20 25/42/20
f 1/21/9 23/65/9 18/44/9
f 20/43/21 25/42/21 26/40/21
f 18/44/22 23/65/22 24/46/22
f 27/47/23 26/50/23 4/6/23
f 24/48/24 2/9/24 3/4/24
f 25/49/25 3/4/25 4/6/25
f 23/51/26 1/7/26 2/9/26
f 13/17/1 17/1/1 5/3/1
f 31/52/27 32/53/27 36/39/27
f 31/52/28 33/55/28 35/33/28
f 30/54/43 14/56/43 33/55/43
f 18/34/30 35/33/30 33/55/30
f 19/32/44 20/37/44 36/39/44
f 30/54/45 31/52/45 34/38/45
f 37/58/46 38/27/46 42/26/46
f 37/58/47 39/30/47 41/29/47
f 29/60/48 37/58/48 40/59/48
f 11/61/36 40/59/36 42/26/36
f 30/25/49 38/27/49 41/29/49
f 29/60/50 28/28/50 39/30/50
v -2.038214 2.748430 -7.193357
v -2.024062 2.733109 -7.213020
v -2.016058 2.707731 -7.223672
v -2.016347 2.679094 -7.222459
v -2.024851 2.654873 -7.209707
v -2.026351 2.745777 -7.168482
v -2.003515 2.728515 -7.169934
v -1.992332 2.702425 -7.173921
v -1.995799 2.674500 -7.179374
v -2.012987 2.652220 -7.184832
v -2.023280 2.690267 -7.129642
v -2.022601 2.663970 -7.141027
v -2.028462 2.646141 -7.162692
v -2.069163 2.736271 -7.149079
v -2.077955 2.683414 -7.135114
v -2.069951 2.658035 -7.145766
v -2.055799 2.642715 -7.165428
v -2.081026 2.738924 -7.173954
v -2.098214 2.716645 -7.179412
v -2.101681 2.688719 -7.184865
v -2.090499 2.662629 -7.188851
v -2.067662 2.645367 -7.190303
v -2.065552 2.745003 -7.196094
v -2.071412 2.727174 -7.217759
v -2.070733 2.700877 -7.229144
v -2.063697 2.673159 -7.227198
v -2.052188 2.651446 -7.212443
v -2.041825 2.739698 -7.146343
v -2.030317 2.717985 -7.131588
v -2.077666 2.712050 -7.136326
v -2.126181 2.725326 -7.136284
v -2.127858 2.725701 -7.139799
v -2.093503 2.737889 -7.145079
v -2.106978 2.696041 -7.138912
v -2.099375 2.739202 -7.157393
v -2.116087 2.698078 -7.158011
v -2.054152 2.727445 -7.090485
v -2.065359 2.726040 -7.091607
v -2.056120 2.735418 -7.107290
v -2.052693 2.708213 -7.103136
v -2.061256 2.734774 -7.107804
v -2.057845 2.707567 -7.103652
vt 0.274240 0.539347
vt 0.265397 0.539709
vt 0.266768 0.532487
vt 0.231414 0.551290
vt 0.214659 0.541092
vt 0.231357 0.542861
vt 0.231940 0.569242
vt 0.215985 0.562822
vt 0.231472 0.559719
vt 0.230890 0.533338
vt 0.220414 0.530957
vt 0.213134 0.552274
vt 0.289666 0.544440
vt 0.282983 0.540904
vt 0.290637 0.536818
vt 0.279682 0.529141
vt 0.275518 0.536619
vt 0.273707 0.532162
vt 0.280945 0.538772
vt 0.286431 0.530872
vt 0.290637 0.551375
vt 0.284312 0.543753
vt 0.278488 0.537315
vt 0.276318 0.541045
vt 0.804698 0.251197
vt 0.792375 0.255919
vt 0.792638 0.252041
vt 0.786357 0.239035
vt 0.792578 0.249274
vt 0.791489 0.249454
vt 0.271776 0.541127
vt 0.760733 0.199751
vt 0.757502 0.209505
vt 0.750621 0.206121
vt 0.278108 0.542645
vt 0.273009 0.544115
vt 0.772804 0.201934
vt 0.766718 0.213101
vt 0.766203 0.208706
vt 0.264007 0.548518
vt 0.277612 0.547903
vt 0.268747 0.555467
vt 0.275021 0.546378
vt 0.280714 0.548498
vt 0.281954 0.545638
vt 0.276612 0.557409
vt 0.240880 0.530957
vt 0.248168 0.561486
vt 0.249693 0.550306
vt 0.246843 0.539760
vt 0.242415 0.571620
vt 0.762287 0.211045
vt 0.762255 0.210544
vt 0.761023 0.221925
vt 0.757316 0.212491
vt 0.750922 0.216572
vt 0.772804 0.220841
vt 0.791613 0.252007
vt 0.791097 0.255536
vt 0.780068 0.250772
vt 0.780487 0.263708
vt 0.804698 0.264828
vt 0.798786 0.238814
vt 0.221949 0.571626
vt 0.283377 0.553479
vn 0.1393 -0.9755 -0.1705
vn 0.9011 -0.0274 -0.4327
vn 0.5836 0.7884 -0.1943
vn 0.7661 -0.4887 -0.4174
vn 0.8381 0.4136 -0.3556
vn 0.5267 0.6508 0.5468
vn 0.7091 -0.6264 0.3237
vn 0.7648 0.2362 0.5994
vn -0.1393 0.9755 0.1705
vn 0.8278 -0.2048 0.5223
vn 0.0343 -0.7762 0.6295
vn -0.7458 -0.5492 0.3771
vn -0.0418 -0.3979 0.9165
vn -0.1301 0.9896 0.0608
vn -0.5836 -0.7884 0.1943
vn -0.5452 0.5710 -0.6137
vn -0.8381 -0.4136 0.3556
vn -0.4078 -0.9078 0.0977
vn -0.5267 -0.6508 -0.5468
vn -0.8278 0.2048 -0.5223
vn -0.7648 -0.2362 -0.5994
vn -0.7091 0.6264 -0.3237
vn 0.1482 -0.5009 -0.8527
vn 0.0418 0.3979 -0.9165
vn 0.1048 -0.0431 -0.9936
vn -0.0343 0.7762 -0.6295
vn -0.7806 -0.5401 0.3147
vn -0.2920 0.9263 0.2381
vn 0.1036 0.3755 0.9210
vn 0.0774 0.9946 0.0691
vn -0.7921 0.0627 -0.6071
vn -0.1111 0.0432 0.9929
vn -0.0148 -0.5503 0.8348
vn -0.1548 0.8854 0.4382
vn 0.7251 0.2296 0.6492
vn 0.0417 -0.8052 0.5915
vn -0.8924 0.4112 0.1859
vn 0.6896 0.6822 0.2429
vn 0.5836 0.7884 -0.1942
vn 0.7661 -0.4888 -0.4175
vn 0.7091 -0.6264 0.3236
vn 0.8278 -0.2048 0.5224
vn -0.8527 0.0307 0.5215
vn -0.6128 0.5356 -0.5810
vn -0.4078 -0.9079 0.0977
vn -0.8278 0.2048 -0.5224
vn 0.1481 -0.5010 -0.8527
vn 0.0419 0.3979 -0.9165
vn 0.1049 -0.0431 -0.9936
vn -0.7806 -0.5400 0.3146
vn -0.2921 0.9263 0.2380
vn 0.1743 0.4101 0.8952
vn 0.0775 0.9946 0.0691
vn -0.8312 0.2042 -0.5171
vn -0.0287 -0.1080 0.9937
vn -0.0145 -0.5503 0.8348
vn -0.1549 0.8854 0.4382
vn 0.7983 -0.2875 0.5291
vn 0.0418 -0.8052 0.5915
vn -0.8478 0.5259 0.0688
vn 0.7221 0.6076 0.3309
s off
f 59/66/51 69/67/51 47/68/51
f 45/69/52 51/70/52 46/71/52
f 43/72/53 49/73/53 44/74/53
f 47/75/54 51/70/54 52/76/54
f 44/74/55 50/77/55 45/69/55
f 48/78/56 71/79/56 49/80/56
f 51/81/57 55/82/57 52/83/57
f 49/80/58 53/84/58 50/85/58
f 43/86/59 70/87/59 48/78/59
f 50/85/60 54/88/60 51/81/60
f 55/82/61 58/89/61 59/66/61
f 72/90/62 84/91/62 80/92/62
f 53/84/63 58/89/63 54/88/63
f 70/93/64 83/94/64 81/95/64
f 58/89/65 64/96/65 59/66/65
f 61/97/66 77/98/66 60/99/66
f 57/100/67 63/101/67 58/89/67
f 62/102/68 76/103/68 78/104/68
f 64/96/69 68/105/69 69/67/69
f 61/106/70 67/107/70 62/108/70
f 43/86/59 60/109/59 56/110/59
f 62/108/71 68/105/71 63/101/71
f 60/109/72 66/111/72 61/106/72
f 69/112/73 46/71/73 47/75/73
f 66/113/74 45/69/74 67/114/74
f 67/114/75 46/71/75 68/115/75
f 65/116/76 44/74/76 66/113/76
f 55/82/51 47/68/51 52/83/51
f 73/117/77 78/104/77 76/103/77
f 73/117/78 77/98/78 74/118/78
f 72/119/79 75/120/79 73/117/79
f 60/99/80 75/120/80 56/121/80
f 61/97/81 78/104/81 74/118/81
f 72/119/82 76/103/82 57/122/82
f 79/123/83 84/91/83 82/124/83
f 79/123/84 83/94/84 80/92/84
f 71/125/85 82/124/85 53/126/85
f 53/126/86 84/91/86 57/127/86
f 72/90/87 83/94/87 56/128/87
f 71/125/88 81/95/88 79/123/88
f 59/66/51 64/96/51 69/67/51
f 45/69/52 50/77/52 51/70/52
f 43/72/89 48/129/89 49/73/89
f 47/75/90 46/71/90 51/70/90
f 44/74/55 49/73/55 50/77/55
f 48/78/56 70/87/56 71/79/56
f 51/81/91 54/88/91 55/82/91
f 49/80/58 71/79/58 53/84/58
f 43/86/59 56/110/59 70/87/59
f 50/85/92 53/84/92 54/88/92
f 55/82/61 54/88/61 58/89/61
f 72/90/93 57/127/93 84/91/93
f 53/84/63 57/100/63 58/89/63
f 70/93/64 56/128/64 83/94/64
f 58/89/65 63/101/65 64/96/65
f 61/97/94 74/118/94 77/98/94
f 57/100/67 62/108/67 63/101/67
f 62/102/95 57/122/95 76/103/95
f 64/96/69 63/101/69 68/105/69
f 61/106/96 66/111/96 67/107/96
f 43/86/59 65/130/59 60/109/59
f 62/108/71 67/107/71 68/105/71
f 60/109/72 65/130/72 66/111/72
f 69/112/97 68/115/97 46/71/97
f 66/113/98 44/74/98 45/69/98
f 67/114/99 45/69/99 46/71/99
f 65/116/76 43/72/76 44/74/76
f 55/82/51 59/66/51 47/68/51
f 73/117/100 74/118/100 78/104/100
f 73/117/101 75/120/101 77/98/101
f 72/119/102 56/121/102 75/120/102
f 60/99/103 77/98/103 75/120/103
f 61/97/104 62/102/104 78/104/104
f 72/119/105 73/117/105 76/103/105
f 79/123/106 80/92/106 84/91/106
f 79/123/107 81/95/107 83/94/107
f 71/125/108 79/123/108 82/124/108
f 53/126/109 82/124/109 84/91/109
f 72/90/110 80/92/110 83/94/110
f 71/125/111 70/93/111 81/95/111
v 0.521767 3.699967 -3.748583
v 0.532579 3.675419 -3.738479
v 0.528675 3.649327 -3.727273
v 0.511102 3.628683 -3.717968
v 0.484568 3.619017 -3.713058
v 0.509680 3.714424 -3.728297
v 0.511645 3.700458 -3.703343
v 0.504503 3.678240 -3.686702
v 0.490168 3.653722 -3.682833
v 0.472482 3.633473 -3.692772
v 0.453487 3.698569 -3.693797
v 0.445987 3.671327 -3.688977
v 0.446974 3.643638 -3.696319
v 0.470751 3.720297 -3.755678
v 0.426643 3.689986 -3.741462
v 0.422740 3.663894 -3.730256
v 0.433552 3.639346 -3.720152
v 0.482837 3.705840 -3.775963
v 0.465151 3.685592 -3.785903
v 0.450816 3.661074 -3.782033
v 0.443674 3.638855 -3.765392
v 0.445638 3.624890 -3.740438
v 0.508345 3.695676 -3.772416
v 0.509332 3.667986 -3.779758
v 0.501832 3.640744 -3.774939
v 0.487855 3.621249 -3.759248
v 0.471146 3.614725 -3.736890
v 0.484172 3.724588 -3.731845
v 0.467464 3.718064 -3.709487
v 0.444216 3.710631 -3.750767
v 0.428439 3.720759 -3.797441
v 0.430147 3.718716 -3.800308
v 0.457300 3.724236 -3.776041
v 0.422430 3.697021 -3.772268
v 0.463283 3.717081 -3.786082
v 0.431710 3.685922 -3.787843
v 0.434528 3.752458 -3.718395
v 0.429026 3.750699 -3.728165
v 0.449210 3.747302 -3.728775
v 0.432340 3.729667 -3.715602
v 0.446688 3.746496 -3.733253
v 0.429811 3.728858 -3.720093
vt 0.274240 0.539347
vt 0.265397 0.539709
vt 0.266768 0.532487
vt 0.231414 0.551290
vt 0.214659 0.541092
vt 0.231357 0.542861
vt 0.231940 0.569242
vt 0.215985 0.562822
vt 0.231472 0.559719
vt 0.230890 0.533338
vt 0.220414 0.530957
vt 0.213134 0.552274
vt 0.289666 0.544440
vt 0.282983 0.540904
vt 0.290637 0.536818
vt 0.279682 0.529141
vt 0.275518 0.536619
vt 0.273707 0.532162
vt 0.280945 0.538772
vt 0.286431 0.530872
vt 0.290637 0.551375
vt 0.284312 0.543753
vt 0.278488 0.537315
vt 0.276318 0.541045
vt 0.804698 0.251197
vt 0.792375 0.255919
vt 0.792638 0.252041
vt 0.786357 0.239035
vt 0.792578 0.249274
vt 0.791489 0.249454
vt 0.271776 0.541127
vt 0.760733 0.199751
vt 0.757502 0.209505
vt 0.750621 0.206121
vt 0.278108 0.542645
vt 0.273009 0.544115
vt 0.772804 0.201934
vt 0.766718 0.213101
vt 0.766203 0.208706
vt 0.264007 0.548518
vt 0.277612 0.547903
vt 0.268747 0.555467
vt 0.275021 0.546378
vt 0.280714 0.548498
vt 0.281954 0.545638
vt 0.276612 0.557409
vt 0.240880 0.530957
vt 0.248168 0.561486
vt 0.249693 0.550306
vt 0.246843 0.539760
vt 0.242415 0.571620
vt 0.762287 0.211045
vt 0.762255 0.210544
vt 0.761023 0.221925
vt 0.757316 0.212491
vt 0.750922 0.216572
vt 0.772804 0.220841
vt 0.791613 0.252007
vt 0.791097 0.255536
vt 0.780068 0.250772
vt 0.780487 0.263708
vt 0.804698 0.264828
vt 0.798786 0.238814
vt 0.221949 0.571626
vt 0.283377 0.553479
vn -0.3879 -0.8440 0.3704
vn 0.7031 -0.3101 0.6399
vn 0.8676 0.4600 0.1891
vn 0.3598 -0.6451 0.6741
vn 0.8785 0.0715 0.4724
vn 0.2750 0.8481 0.4530
vn -0.2328 -0.2570 0.9379
vn 0.1148 0.5716 0.8125
vn 0.3878 0.8440 -0.3704
vn -0.0605 0.1900 0.9799
vn -0.8465 -0.1644 0.5063
vn -0.9266 -0.1592 -0.3406
vn -0.8513 0.3093 0.4237
vn 0.4723 0.7820 -0.4067
vn -0.8676 -0.4600 -0.1891
vn 0.4698 0.0228 -0.8825
vn -0.8785 -0.0715 -0.4724
vn -0.7887 -0.6140 -0.0323
vn -0.2749 -0.8481 -0.4530
vn 0.0605 -0.1900 -0.9799
vn -0.1148 -0.5716 -0.8124
vn 0.2329 0.2570 -0.9379
vn 0.3387 -0.9407 -0.0214
vn 0.8513 -0.3093 -0.4237
vn 0.6760 -0.6909 -0.2563
vn 0.8465 0.1644 -0.5063
vn -0.3878 -0.8440 0.3704
vn -0.8973 -0.1935 -0.3967
vn 0.2412 0.8525 -0.4638
vn -0.3346 0.8911 0.3065
vn 0.5701 0.7905 -0.2237
vn 0.0507 -0.3527 -0.9344
vn -0.6786 0.6905 0.2505
vn -0.8733 0.1410 0.4664
vn 0.1528 0.9540 -0.2578
vn 0.0592 0.5998 0.7980
vn -0.8349 -0.2114 0.5082
vn -0.3144 0.4340 -0.8443
vn 0.5709 0.6697 0.4749
vn 0.8785 0.0715 0.4725
vn 0.2749 0.8481 0.4530
vn -0.2329 -0.2570 0.9379
vn 0.1148 0.5716 0.8124
vn 0.3879 0.8440 -0.3704
vn -0.7359 0.3712 -0.5662
vn 0.4723 0.7820 -0.4068
vn 0.3952 0.0182 -0.9184
vn -0.2750 -0.8481 -0.4530
vn -0.1148 -0.5716 -0.8125
vn 0.2328 0.2570 -0.9379
vn -0.8973 -0.1935 -0.3966
vn -0.2633 0.8997 0.3480
vn 0.5702 0.7905 -0.2236
vn 0.0551 -0.1870 -0.9808
vn -0.7271 0.5776 0.3711
vn -0.1273 0.1327 0.9830
vn -0.8349 -0.2114 0.5083
vn -0.1495 0.4422 -0.8844
vn 0.4857 0.6720 0.5590
s off
f 101/131/112 111/132/112 89/133/112
f 87/134/113 93/135/113 88/136/113
f 85/137/114 91/138/114 86/139/114
f 89/140/115 93/135/115 94/141/115
f 86/139/116 92/142/116 87/134/116
f 90/143/117 113/144/117 91/145/117
f 93/146/118 97/147/118 94/148/118
f 91/145/119 95/149/119 92/150/119
f 85/151/120 112/152/120 90/143/120
f 92/150/121 96/153/121 93/146/121
f 97/147/122 100/154/122 101/131/122
f 114/155/123 126/156/123 122/157/123
f 95/149/124 100/154/124 96/153/124
f 112/158/125 125/159/125 123/160/125
f 100/154/126 106/161/126 101/131/126
f 103/162/127 119/163/127 102/164/127
f 99/165/128 105/166/128 100/154/128
f 104/167/129 118/168/129 120/169/129
f 106/161/130 110/170/130 111/132/130
f 103/171/131 109/172/131 104/173/131
f 85/151/120 102/174/120 98/175/120
f 104/173/132 110/170/132 105/166/132
f 102/174/133 108/176/133 103/171/133
f 111/177/134 88/136/134 89/140/134
f 108/178/135 87/134/135 109/179/135
f 109/179/136 88/136/136 110/180/136
f 107/181/137 86/139/137 108/178/137
f 97/147/138 89/133/138 94/148/138
f 115/182/139 120/169/139 118/168/139
f 115/182/140 119/163/140 116/183/140
f 114/184/141 117/185/141 115/182/141
f 102/164/142 117/185/142 98/186/142
f 103/162/143 120/169/143 116/183/143
f 114/184/144 118/168/144 99/187/144
f 121/188/145 126/156/145 124/189/145
f 121/188/146 125/159/146 122/157/146
f 113/190/147 124/189/147 95/191/147
f 95/191/148 126/156/148 99/192/148
f 114/155/149 125/159/149 98/193/149
f 113/190/150 123/160/150 121/188/150
f 101/131/138 106/161/138 111/132/138
f 87/134/113 92/142/113 93/135/113
f 85/137/114 90/194/114 91/138/114
f 89/140/115 88/136/115 93/135/115
f 86/139/151 91/138/151 92/142/151
f 90/143/152 112/152/152 113/144/152
f 93/146/153 96/153/153 97/147/153
f 91/145/154 113/144/154 95/149/154
f 85/151/155 98/175/155 112/152/155
f 92/150/121 95/149/121 96/153/121
f 97/147/122 96/153/122 100/154/122
f 114/155/156 99/192/156 126/156/156
f 95/149/124 99/165/124 100/154/124
f 112/158/157 98/193/157 125/159/157
f 100/154/126 105/166/126 106/161/126
f 103/162/158 116/183/158 119/163/158
f 99/165/128 104/173/128 105/166/128
f 104/167/129 99/187/129 118/168/129
f 106/161/159 105/166/159 110/170/159
f 103/171/131 108/176/131 109/172/131
f 85/151/120 107/195/120 102/174/120
f 104/173/160 109/172/160 110/170/160
f 102/174/161 107/195/161 108/176/161
f 111/177/134 110/180/134 88/136/134
f 108/178/135 86/139/135 87/134/135
f 109/179/136 87/134/136 88/136/136
f 107/181/137 85/137/137 86/139/137
f 97/147/138 101/131/138 89/133/138
f 115/182/162 116/183/162 120/169/162
f 115/182/140 117/185/140 119/163/140
f 114/184/163 98/186/163 117/185/163
f 102/164/164 119/163/164 117/185/164
f 103/162/165 104/167/165 120/169/165
f 114/184/166 115/182/166 118/168/166
f 121/188/145 122/157/145 126/156/145
f 121/188/146 123/160/146 125/159/146
f 113/190/167 121/188/167 124/189/167
f 95/191/168 124/189/168 126/156/168
f 114/155/169 122/157/169 125/159/169
f 113/190/170 112/158/170 123/160/170
