# Blender v2.81 (sub 16) OBJ File: 'garbage.blend'
# www.blender.org
v -2.600371 2.978570 -0.984475
v -2.585207 2.954455 -0.987654
v -2.583796 2.925826 -0.987570
v -2.596515 2.900355 -0.984246
v -2.619958 2.884867 -0.978574
v -2.608127 2.981852 -0.958101
v -2.598641 2.960140 -0.941971
v -2.599308 2.932390 -0.934820
v -2.609949 2.906040 -0.938564
v -2.627714 2.888149 -0.952199
v -2.652045 2.944175 -0.922730
v -2.655621 2.916246 -0.928094
v -2.654082 2.894042 -0.946155
v -2.653108 2.990355 -0.972386
v -2.689270 2.949396 -0.963391
v -2.687859 2.920767 -0.963307
v -2.672695 2.896652 -0.966485
v -2.645352 2.987073 -0.998761
v -2.663117 2.969182 -1.012397
v -2.673759 2.942831 -1.016140
v -2.674425 2.915082 -1.008989
v -2.664939 2.893369 -0.992860
v -2.618984 2.981180 -1.004806
v -2.617445 2.958976 -1.022866
v -2.621021 2.931046 -1.028230
v -2.628754 2.904876 -1.019459
v -2.638571 2.887477 -0.998904
v -2.634495 2.987745 -0.952056
v -2.644312 2.970346 -0.931501
v -2.676551 2.974867 -0.966714
v -2.704529 2.998736 -1.001028
v -2.703433 2.998272 -1.004755
v -2.671596 2.999130 -0.986253
v -2.701797 2.966604 -0.987122
v -2.667756 2.997506 -0.999309
v -2.695842 2.964084 -1.007373
v -2.681349 2.998899 -0.918852
v -2.688979 2.999970 -0.927187
v -2.669397 3.000812 -0.933113
v -2.680722 2.976748 -0.925253
v -2.672894 3.001303 -0.936932
v -2.684229 2.977240 -0.929084
vt 0.274240 0.539347
vt 0.265397 0.539709
vt 0.266768 0.532487
vt 0.231414 0.551290
vt 0.214659 0.541092
vt 0.231357 0.542861
vt 0.231940 0.569242
vt 0.215985 0.562822
vt 0.231472 0.559719
vt 0.230890 0.533338
vt 0.220414 0.530957
vt 0.213134 0.552274
vt 0.289666 0.544440
vt 0.282983 0.540904
vt 0.290637 0.536818
vt 0.279682 0.529141
vt 0.275518 0.536619
vt 0.273707 0.532162
vt 0.280945 0.538772
vt 0.286431 0.530872
vt 0.290637 0.551375
vt 0.284312 0.543753
vt 0.278488 0.537315
vt 0.276318 0.541045
vt 0.804698 0.251197
vt 0.792375 0.255919
vt 0.792638 0.252041
vt 0.786357 0.239035
vt 0.792578 0.249274
vt 0.791489 0.249454
vt 0.271776 0.541127
vt 0.760733 0.199751
vt 0.757502 0.209505
vt 0.750621 0.206121
vt 0.278108 0.542645
vt 0.273009 0.544115
vt 0.772804 0.201934
vt 0.766718 0.213101
vt 0.766203 0.208706
vt 0.264007 0.548518
vt 0.277612 0.547903
vt 0.268747 0.555467
vt 0.275021 0.546378
vt 0.280714 0.548498
vt 0.281954 0.545638
vt 0.276612 0.557409
vt 0.240880 0.530957
vt 0.248168 0.561486
vt 0.249693 0.550306
vt 0.246843 0.539760
vt 0.242415 0.571620
vt 0.762287 0.211045
vt 0.762255 0.210544
vt 0.761023 0.221925
vt 0.757316 0.212491
vt 0.750922 0.216572
vt 0.772804 0.220841
vt 0.791613 0.252007
vt 0.791097 0.255536
vt 0.780068 0.250772
vt 0.780487 0.263708
vt 0.804698 0.264828
vt 0.798786 0.238814
vt 0.221949 0.571626
vt 0.283377 0.553479
vn -0.2042 -0.9770 0.0615
vn 0.8675 -0.3936 0.3041
vn 0.8427 0.5056 0.1849
vn 0.5754 -0.7736 0.2655
vn 0.9599 0.0481 0.2763
vn 0.3048 0.6502 0.6959
vn 0.0374 -0.6290 0.7765
vn 0.2667 0.2345 0.9348
vn 0.2042 0.9770 -0.0615
vn 0.1744 -0.2072 0.9626
vn -0.6716 -0.4950 0.5513
vn -0.9649 -0.1862 -0.1852
vn -0.7393 -0.0345 0.6725
vn 0.2818 0.9498 -0.1360
vn -0.8427 -0.5056 -0.1849
vn 0.2256 0.4389 -0.8698
vn -0.9599 -0.0481 -0.2763
vn -0.7132 -0.6900 -0.1238
vn -0.3048 -0.6502 -0.6960
vn -0.1744 0.2072 -0.9626
vn -0.2667 -0.2345 -0.9348
vn -0.0374 0.6290 -0.7765
vn 0.4042 -0.7842 -0.4708
vn 0.7393 0.0345 -0.6724
vn 0.6470 -0.4072 -0.6446
vn 0.6716 0.4950 -0.5513
vn -0.9479 -0.1909 -0.2550
vn 0.0385 0.9929 -0.1122
vn -0.3233 0.6327 0.7037
vn 0.4219 0.9066 0.0113
vn -0.1578 0.0405 -0.9866
vn -0.6509 0.4086 0.6398
vn -0.7346 -0.2074 0.6460
vn -0.0032 0.9915 0.1303
vn 0.2070 0.2554 0.9444
vn -0.6558 -0.5362 0.5315
vn -0.5562 0.6542 -0.5124
vn 0.6113 0.5342 0.5840
vn 0.8676 -0.3935 0.3041
vn 0.3048 0.6502 0.6960
vn -0.8858 0.4154 -0.2070
vn -0.7393 -0.0345 0.6724
vn 0.1450 0.4345 -0.8889
vn -0.7132 -0.6900 -0.1239
vn -0.3048 -0.6502 -0.6959
vn 0.7393 0.0345 -0.6725
vn -0.2448 0.6380 0.7301
vn 0.4219 0.9066 0.0112
vn -0.1801 0.2093 -0.9611
vn -0.6569 0.2517 0.7107
vn -0.7347 -0.2074 0.6460
vn -0.0032 0.9915 0.1302
vn 0.1159 -0.2727 0.9551
vn -0.4084 0.7070 -0.5774
vn 0.5504 0.4890 0.6767
s off
f 17/1/1 27/2/1 5/3/1
f 3/4/2 9/5/2 4/6/2
f 1/7/3 7/8/3 2/9/3
f 5/10/4 9/5/4 10/11/4
f 2/9/5 8/12/5 3/4/5
f 6/13/6 29/14/6 7/15/6
f 9/16/7 13/17/7 10/18/7
f 7/15/8 11/19/8 8/20/8
f 1/21/9 28/22/9 6/13/9
f 8/20/10 12/23/10 9/16/10
f 13/17/11 16/24/11 17/1/11
f 30/25/12 42/26/12 38/27/12
f 11/19/13 16/24/13 12/23/13
f 28/28/14 41/29/14 39/30/14
f 16/24/15 22/31/15 17/1/15
f 19/32/16 35/33/16 18/34/16
f 15/35/17 21/36/17 16/24/17
f 20/37/18 34/38/18 36/39/18
f 22/31/19 26/40/19 27/2/19
f 19/41/20 25/42/20 20/43/20
f 1/21/9 18/44/9 14/45/9
f 20/43/21 26/40/21 21/36/21
f 18/44/22 24/46/22 19/41/22
f 27/47/23 4/6/23 5/10/23
f 24/48/24 3/4/24 25/49/24
f 25/49/25 4/6/25 26/50/25
f 23/51/26 2/9/26 24/48/26
f 13/17/1 5/3/1 10/18/1
f 31/52/27 36/39/27 34/38/27
f 31/52/28 35/33/28 32/53/28
f 30/54/29 33/55/29 31/52/29
f 18/34/30 33/55/30 14/56/30
f 19/32/31 36/39/31 32/53/31
f 30/54/32 34/38/32 15/57/32
f 37/58/33 42/26/33 40/59/33
f 37/58/34 41/29/34 38/27/34
f 29/60/35 40/59/35 11/61/35
f 11/61/36 42/26/36 15/62/36
f 30/25/37 41/29/37 14/63/37
f 29/60/38 39/30/38 37/58/38
f 17/1/1 22/31/1 27/2/1
f 3/4/39 8/12/39 9/5/39
f 1/7/3 6/64/3 7/8/3
f 5/10/4 4/6/4 9/5/4
f 2/9/5 7/8/5 8/12/5
f 6/13/40 28/22/40 29/14/40
f 9/16/7 12/23/7 13/17/7
f 7/15/8 29/14/8 11/19/8
f 1/21/9 14/45/9 28/22/9
f 8/20/10 11/19/10 12/23/10
f 13/17/11 12/23/11 16/24/11
f 30/25/41 15/62/41 42/26/41
f 11/19/42 15/35/42 16/24/42
f 28/28/14 14/63/14 41/29/14
f 16/24/15 21/36/15 22/31/15
f 19/32/43 32/53/43 35/33/43
f 15/35/17 20/43/17 21/36/17
f 20/37/44 15/57/44 34/38/44
f 22/31/45 21/36/45 26/40/45
f 19/41/20 24/46/20 25/42/20
f 1/21/9 23/65/9 18/44/9
f 20/43/21 25/42/21 26/40/21
f 18/44/22 23/65/22 24/46/22
f 27/47/23 26/50/23 4/6/23
f 24/48/46 2/9/46 3/4/46
f 25/49/25 3/4/25 4/6/25
f 23/51/26 1/7/26 2/9/26
f 13/17/1 17/1/1 5/3/1
f 31/52/27 32/53/27 36/39/27
f 31/52/28 33/55/28 35/33/28
f 30/54/47 14/56/47 33/55/47
f 18/34/48 35/33/48 33/55/48
f 19/32/49 20/37/49 36/39/49
f 30/54/50 31/52/50 34/38/50
f 37/58/51 38/27/51 42/26/51
f 37/58/52 39/30/52 41/29/52
f 29/60/53 37/58/53 40/59/53
f 11/61/36 40/59/36 42/26/36
f 30/25/54 38/27/54 41/29/54
f 29/60/55 28/28/55 39/30/55
v -3.458623 3.277108 -1.518321
v -3.464539 3.251541 -1.529851
v -3.461093 3.223088 -1.530237
v -3.449209 3.199373 -1.519377
v -3.432070 3.186750 -1.500180
v -3.432178 3.283981 -1.522796
v -3.418736 3.263445 -1.537600
v -3.408204 3.236833 -1.539186
v -3.403406 3.211276 -1.527127
v -3.405625 3.193622 -1.504654
v -3.376710 3.254515 -1.497213
v -3.376131 3.226589 -1.490777
v -3.389879 3.202463 -1.483668
v -3.427129 3.294790 -1.476348
v -3.398105 3.258451 -1.446291
v -3.394660 3.229998 -1.446677
v -3.400576 3.204432 -1.458207
v -3.453573 3.287917 -1.471874
v -3.455793 3.270263 -1.449402
v -3.450994 3.244706 -1.437342
v -3.440463 3.218095 -1.438928
v -3.427021 3.197559 -1.453733
v -3.469320 3.279076 -1.492860
v -3.483068 3.254950 -1.485751
v -3.482488 3.227024 -1.479316
v -3.467737 3.202782 -1.475277
v -3.442767 3.188718 -1.474719
v -3.416431 3.292821 -1.501809
v -3.391461 3.278758 -1.501251
v -3.409990 3.282167 -1.457151
v -3.432197 3.304450 -1.417904
v -3.435934 3.303478 -1.417272
v -3.432946 3.303569 -1.453984
v -3.416445 3.273951 -1.425324
v -3.446036 3.300167 -1.451769
v -3.436749 3.268674 -1.421888
v -3.368429 3.311710 -1.474219
v -3.372815 3.312516 -1.463781
v -3.386519 3.310956 -1.478915
v -3.371357 3.289015 -1.471313
v -3.388529 3.311326 -1.474131
v -3.373372 3.289386 -1.466515
vt 0.274240 0.539347
vt 0.265397 0.539709
vt 0.266768 0.532487
vt 0.231414 0.551290
vt 0.214659 0.541092
vt 0.231357 0.542861
vt 0.231940 0.569242
vt 0.215985 0.562822
vt 0.231472 0.559719
vt 0.230890 0.533338
vt 0.220414 0.530957
vt 0.213134 0.552274
vt 0.289666 0.544440
vt 0.282983 0.540904
vt 0.290637 0.536818
vt 0.279682 0.529141
vt 0.275518 0.536619
vt 0.273707 0.532162
vt 0.280945 0.538772
vt 0.286431 0.530872
vt 0.290637 0.551375
vt 0.284312 0.543753
vt 0.278488 0.537315
vt 0.276318 0.541045
vt 0.804698 0.251197
vt 0.792375 0.255919
vt 0.792638 0.252041
vt 0.786357 0.239035
vt 0.792578 0.249274
vt 0.791489 0.249454
vt 0.271776 0.541127
vt 0.760733 0.199751
vt 0.757502 0.209505
vt 0.750621 0.206121
vt 0.278108 0.542645
vt 0.273009 0.544115
vt 0.772804 0.201934
vt 0.766718 0.213101
vt 0.766203 0.208706
vt 0.264007 0.548518
vt 0.277612 0.547903
vt 0.268747 0.555467
vt 0.275021 0.546378
vt 0.280714 0.548498
vt 0.281954 0.545638
vt 0.276612 0.557409
vt 0.240880 0.530957
vt 0.248168 0.561486
vt 0.249693 0.550306
vt 0.246843 0.539760
vt 0.242415 0.571620
vt 0.762287 0.211045
vt 0.762255 0.210544
vt 0.761023 0.221925
vt 0.757316 0.212491
vt 0.750922 0.216572
vt 0.772804 0.220841
vt 0.791613 0.252007
vt 0.791097 0.255536
vt 0.780068 0.250772
vt 0.780487 0.263708
vt 0.804698 0.264828
vt 0.798786 0.238814
vt 0.221949 0.571626
vt 0.283377 0.553479
vn 0.2768 -0.9421 0.1891
vn -0.0400 -0.4325 -0.9007
vn -0.2608 0.4464 -0.8560
vn 0.1017 -0.7871 -0.6083
vn -0.1652 -0.0066 -0.9862
vn 0.4042 0.6941 -0.5957
vn 0.7667 -0.5394 -0.3480
vn 0.6919 0.3126 -0.6508
vn -0.2769 0.9421 -0.1891
vn 0.8171 -0.1133 -0.5653
vn 0.8463 -0.3691 0.3841
vn 0.2680 -0.1195 0.9560
vn 0.9196 0.1062 0.3782
vn -0.3726 0.9000 -0.2261
vn 0.2608 -0.4464 0.8560
vn -0.9351 0.3176 0.1571
vn 0.1651 0.0066 0.9862
vn 0.2863 -0.6336 0.7187
vn -0.4042 -0.6941 0.5957
vn -0.8171 0.1133 0.5653
vn -0.2768 0.9421 -0.1891
vn -0.6919 -0.3126 0.6508
vn -0.7667 0.5395 0.3480
vn -0.4838 -0.8645 -0.1365
vn -0.9196 -0.1062 -0.3782
vn -0.7945 -0.5322 -0.2927
vn -0.8463 0.3691 -0.3841
vn 0.2769 -0.9421 0.1891
vn 0.1990 -0.1334 0.9709
vn -0.2544 0.9669 -0.0184
vn 0.6792 0.7332 -0.0320
vn -0.2940 0.8612 -0.4145
vn -0.8225 -0.0558 0.5660
vn 0.7916 0.5333 0.2982
vn 0.9179 -0.0684 0.3909
vn -0.0194 0.9962 -0.0851
vn 0.7229 0.3396 -0.6018
vn 0.8276 -0.4134 0.3797
vn -0.3144 0.6398 0.7014
vn 0.1904 0.5396 -0.8201
vn -0.2608 0.4463 -0.8560
vn 0.1016 -0.7871 -0.6083
vn -0.1651 -0.0066 -0.9862
vn 0.7667 -0.5395 -0.3480
vn -0.2768 0.9421 -0.1892
vn 0.1317 0.4665 0.8747
vn -0.9176 0.3182 0.2382
vn 0.1652 0.0066 0.9862
vn 0.2863 -0.6336 0.7188
vn -0.8170 0.1133 0.5653
vn -0.7945 -0.5321 -0.2927
vn -0.8463 0.3690 -0.3841
vn 0.2768 -0.9421 0.1892
vn -0.2544 0.9669 -0.0183
vn 0.6690 0.7344 -0.1143
vn -0.8135 0.1161 0.5698
vn 0.8794 0.3865 0.2781
vn 0.9179 -0.0683 0.3909
vn 0.8441 -0.1738 -0.5073
vn 0.8276 -0.4135 0.3796
vn -0.4423 0.6717 0.5943
vn 0.3056 0.5106 -0.8037
s off
f 59/66/56 69/67/56 47/68/56
f 45/69/57 51/70/57 46/71/57
f 43/72/58 49/73/58 44/74/58
f 47/75/59 51/70/59 52/76/59
f 44/74/60 50/77/60 45/69/60
f 48/78/61 71/79/61 49/80/61
f 51/81/62 55/82/62 52/83/62
f 49/80/63 53/84/63 50/85/63
f 43/86/64 70/87/64 48/78/64
f 50/85/65 54/88/65 51/81/65
f 55/82/66 58/89/66 59/66/66
f 72/90/67 84/91/67 80/92/67
f 53/84/68 58/89/68 54/88/68
f 70/93/69 83/94/69 81/95/69
f 58/89/70 64/96/70 59/66/70
f 61/97/71 77/98/71 60/99/71
f 57/100/72 63/101/72 58/89/72
f 62/102/73 76/103/73 78/104/73
f 64/96/74 68/105/74 69/67/74
f 61/106/75 67/107/75 62/108/75
f 43/86/76 60/109/76 56/110/76
f 62/108/77 68/105/77 63/101/77
f 60/109/78 66/111/78 61/106/78
f 69/112/79 46/71/79 47/75/79
f 66/113/80 45/69/80 67/114/80
f 67/114/81 46/71/81 68/115/81
f 65/116/82 44/74/82 66/113/82
f 55/82/83 47/68/83 52/83/83
f 73/117/84 78/104/84 76/103/84
f 73/117/85 77/98/85 74/118/85
f 72/119/86 75/120/86 73/117/86
f 60/99/87 75/120/87 56/121/87
f 61/97/88 78/104/88 74/118/88
f 72/119/89 76/103/89 57/122/89
f 79/123/90 84/91/90 82/124/90
f 79/123/91 83/94/91 80/92/91
f 71/125/92 82/124/92 53/126/92
f 53/126/93 84/91/93 57/127/93
f 72/90/94 83/94/94 56/128/94
f 71/125/95 81/95/95 79/123/95
f 59/66/83 64/96/83 69/67/83
f 45/69/57 50/77/57 51/70/57
f 43/72/96 48/129/96 49/73/96
f 47/75/97 46/71/97 51/70/97
f 44/74/98 49/73/98 50/77/98
f 48/78/61 70/87/61 71/79/61
f 51/81/99 54/88/99 55/82/99
f 49/80/63 71/79/63 53/84/63
f 43/86/100 56/110/100 70/87/100
f 50/85/65 53/84/65 54/88/65
f 55/82/66 54/88/66 58/89/66
f 72/90/101 57/127/101 84/91/101
f 53/84/68 57/100/68 58/89/68
f 70/93/69 56/128/69 83/94/69
f 58/89/70 63/101/70 64/96/70
f 61/97/102 74/118/102 77/98/102
f 57/100/103 62/108/103 63/101/103
f 62/102/104 57/122/104 76/103/104
f 64/96/74 63/101/74 68/105/74
f 61/106/105 66/111/105 67/107/105
f 43/86/76 65/130/76 60/109/76
f 62/108/77 67/107/77 68/105/77
f 60/109/78 65/130/78 66/111/78
f 69/112/79 68/115/79 46/71/79
f 66/113/80 44/74/80 45/69/80
f 67/114/106 45/69/106 46/71/106
f 65/116/107 43/72/107 44/74/107
f 55/82/108 59/66/108 47/68/108
f 73/117/84 74/118/84 78/104/84
f 73/117/109 75/120/109 77/98/109
f 72/119/110 56/121/110 75/120/110
f 60/99/87 77/98/87 75/120/87
f 61/97/111 62/102/111 78/104/111
f 72/119/112 73/117/112 76/103/112
f 79/123/113 80/92/113 84/91/113
f 79/123/91 81/95/91 83/94/91
f 71/125/114 79/123/114 82/124/114
f 53/126/115 82/124/115 84/91/115
f 72/90/116 80/92/116 83/94/116
f 71/125/117 70/93/117 81/95/117
v -1.029684 4.613938 -2.243722
v -1.027973 4.598741 -2.267965
v -1.027601 4.573438 -2.281428
v -1.028669 4.544809 -2.280502
v -1.030888 4.520526 -2.265436
v -1.007164 4.610016 -2.228101
v -0.988967 4.591949 -2.240908
v -0.982561 4.565595 -2.250185
v -0.989662 4.538017 -2.253445
v -1.008368 4.516604 -2.249815
v -0.987931 4.553183 -2.196488
v -0.994313 4.527267 -2.206942
v -1.011053 4.510398 -2.222966
v -1.035054 4.601525 -2.190026
v -1.038341 4.548613 -2.174034
v -1.037969 4.523310 -2.187496
v -1.036258 4.508113 -2.211739
v -1.057574 4.605447 -2.205647
v -1.076280 4.584034 -2.202017
v -1.083381 4.556456 -2.205276
v -1.076975 4.530103 -2.214553
v -1.058778 4.512035 -2.227360
v -1.054889 4.611653 -2.232495
v -1.071630 4.594784 -2.248519
v -1.078012 4.568869 -2.258973
v -1.072325 4.540852 -2.261056
v -1.056094 4.518241 -2.254209
v -1.009849 4.603810 -2.201253
v -0.993617 4.581199 -2.194406
v -1.037274 4.577242 -2.174960
v -1.078607 4.592359 -2.150608
v -1.081789 4.592913 -2.152815
v -1.054062 4.603942 -2.174407
v -1.064738 4.562461 -2.162736
v -1.065209 4.605883 -2.182139
v -1.082029 4.565473 -2.174730
v -0.993336 4.590209 -2.146806
v -1.003669 4.589272 -2.142203
v -1.003007 4.598800 -2.160316
v -0.999322 4.571362 -2.158679
v -1.007743 4.598370 -2.158206
v -1.004071 4.570931 -2.156564
vt 0.274240 0.539347
vt 0.265397 0.539709
vt 0.266768 0.532487
vt 0.231414 0.551290
vt 0.214659 0.541092
vt 0.231357 0.542861
vt 0.231940 0.569242
vt 0.215985 0.562822
vt 0.231472 0.559719
vt 0.230890 0.533338
vt 0.220414 0.530957
vt 0.213134 0.552274
vt 0.289666 0.544440
vt 0.282983 0.540904
vt 0.290637 0.536818
vt 0.279682 0.529141
vt 0.275518 0.536619
vt 0.273707 0.532162
vt 0.280945 0.538772
vt 0.286431 0.530872
vt 0.290637 0.551375
vt 0.284312 0.543753
vt 0.278488 0.537315
vt 0.276318 0.541045
vt 0.804698 0.251197
vt 0.792375 0.255919
vt 0.792638 0.252041
vt 0.786357 0.239035
vt 0.792578 0.249274
vt 0.791489 0.249454
vt 0.271776 0.541127
vt 0.760733 0.199751
vt 0.757502 0.209505
vt 0.750621 0.206121
vt 0.278108 0.542645
vt 0.273009 0.544115
vt 0.772804 0.201934
vt 0.766718 0.213101
vt 0.766203 0.208706
vt 0.264007 0.548518
vt 0.277612 0.547903
vt 0.268747 0.555467
vt 0.275021 0.546378
vt 0.280714 0.548498
vt 0.281954 0.545638
vt 0.276612 0.557409
vt 0.240880 0.530957
vt 0.248168 0.561486
vt 0.249693 0.550306
vt 0.246843 0.539760
vt 0.242415 0.571620
vt 0.762287 0.211045
vt 0.762255 0.210544
vt 0.761023 0.221925
vt 0.757316 0.212491
vt 0.750922 0.216572
vt 0.772804 0.220841
vt 0.791613 0.252007
vt 0.791097 0.255536
vt 0.780068 0.250772
vt 0.780487 0.263708
vt 0.804698 0.264828
vt 0.798786 0.238814
vt 0.221949 0.571626
vt 0.283377 0.553479
vn -0.0125 -0.9740 -0.2264
vn 0.5637 -0.0477 -0.8246
vn 0.4479 0.7714 -0.4520
vn 0.4314 -0.5037 -0.7484
vn 0.5694 0.3926 -0.7223
vn 0.7605 0.6118 0.2175
vn 0.7441 -0.6634 -0.0790
vn 0.9723 0.1869 0.1404
vn 0.0126 0.9740 0.2264
vn 0.9666 -0.2534 0.0381
vn 0.3044 -0.7972 0.5213
vn -0.4854 -0.5324 0.6935
vn 0.4001 -0.4259 0.8115
vn -0.0334 0.9914 0.1269
vn -0.4479 -0.7715 0.4520
vn -0.7492 0.6114 -0.2547
vn -0.5694 -0.3926 0.7223
vn -0.3496 -0.8943 0.2794
vn -0.7605 -0.6118 -0.2175
vn -0.9666 0.2534 -0.0381
vn -0.9723 -0.1869 -0.1404
vn -0.7441 0.6634 0.0789
vn -0.3209 -0.4780 -0.8177
vn -0.4001 0.4259 -0.8115
vn -0.4058 -0.0144 -0.9139
vn -0.3045 0.7973 -0.5212
vn -0.0126 -0.9740 -0.2264
vn -0.5462 -0.5198 0.6569
vn -0.0885 0.9286 0.3605
vn 0.5666 0.3407 0.7502
vn 0.1508 0.9881 0.0306
vn -0.9850 0.1130 -0.1307
vn 0.3999 0.0147 0.9164
vn 0.3755 -0.5765 0.7257
vn 0.1279 0.8758 0.4654
vn 0.9624 0.1802 0.2033
vn 0.2905 -0.8252 0.4843
vn -0.6599 0.4387 0.6099
vn 0.7519 0.6469 -0.1269
vn 0.4314 -0.5038 -0.7484
vn 0.5694 0.3926 -0.7222
vn 0.7441 -0.6634 -0.0789
vn 0.0125 0.9740 0.2264
vn 0.3045 -0.7973 0.5212
vn -0.4774 0.0462 0.8775
vn -0.0333 0.9914 0.1269
vn -0.4479 -0.7714 0.4520
vn -0.7932 0.5775 -0.1930
vn -0.5694 -0.3927 0.7223
vn -0.3044 0.7972 -0.5213
vn -0.0885 0.9285 0.3607
vn 0.6168 0.3735 0.6928
vn -0.9670 0.2528 -0.0318
vn 0.4643 -0.1394 0.8746
vn 0.9404 -0.3352 0.0579
vn -0.6738 0.5554 0.4873
vn 0.8201 0.5683 -0.0675
s off
f 101/131/118 111/132/118 89/133/118
f 87/134/119 93/135/119 88/136/119
f 85/137/120 91/138/120 86/139/120
f 89/140/121 93/135/121 94/141/121
f 86/139/122 92/142/122 87/134/122
f 90/143/123 113/144/123 91/145/123
f 93/146/124 97/147/124 94/148/124
f 91/145/125 95/149/125 92/150/125
f 85/151/126 112/152/126 90/143/126
f 92/150/127 96/153/127 93/146/127
f 97/147/128 100/154/128 101/131/128
f 114/155/129 126/156/129 122/157/129
f 95/149/130 100/154/130 96/153/130
f 112/158/131 125/159/131 123/160/131
f 100/154/132 106/161/132 101/131/132
f 103/162/133 119/163/133 102/164/133
f 99/165/134 105/166/134 100/154/134
f 104/167/135 118/168/135 120/169/135
f 106/161/136 110/170/136 111/132/136
f 103/171/137 109/172/137 104/173/137
f 85/151/126 102/174/126 98/175/126
f 104/173/138 110/170/138 105/166/138
f 102/174/139 108/176/139 103/171/139
f 111/177/140 88/136/140 89/140/140
f 108/178/141 87/134/141 109/179/141
f 109/179/142 88/136/142 110/180/142
f 107/181/143 86/139/143 108/178/143
f 97/147/144 89/133/144 94/148/144
f 115/182/145 120/169/145 118/168/145
f 115/182/146 119/163/146 116/183/146
f 114/184/147 117/185/147 115/182/147
f 102/164/148 117/185/148 98/186/148
f 103/162/149 120/169/149 116/183/149
f 114/184/150 118/168/150 99/187/150
f 121/188/151 126/156/151 124/189/151
f 121/188/152 125/159/152 122/157/152
f 113/190/153 124/189/153 95/191/153
f 95/191/154 126/156/154 99/192/154
f 114/155/155 125/159/155 98/193/155
f 113/190/156 123/160/156 121/188/156
f 101/131/144 106/161/144 111/132/144
f 87/134/119 92/142/119 93/135/119
f 85/137/120 90/194/120 91/138/120
f 89/140/157 88/136/157 93/135/157
f 86/139/158 91/138/158 92/142/158
f 90/143/123 112/152/123 113/144/123
f 93/146/159 96/153/159 97/147/159
f 91/145/125 113/144/125 95/149/125
f 85/151/160 98/175/160 112/152/160
f 92/150/127 95/149/127 96/153/127
f 97/147/161 96/153/161 100/154/161
f 114/155/162 99/192/162 126/156/162
f 95/149/130 99/165/130 100/154/130
f 112/158/163 98/193/163 125/159/163
f 100/154/164 105/166/164 106/161/164
f 103/162/165 116/183/165 119/163/165
f 99/165/166 104/173/166 105/166/166
f 104/167/135 99/187/135 118/168/135
f 106/161/136 105/166/136 110/170/136
f 103/171/137 108/176/137 109/172/137
f 85/151/126 107/195/126 102/174/126
f 104/173/138 109/172/138 110/170/138
f 102/174/139 107/195/139 108/176/139
f 111/177/140 110/180/140 88/136/140
f 108/178/141 86/139/141 87/134/141
f 109/179/142 87/134/142 88/136/142
f 107/181/167 85/137/167 86/139/167
f 97/147/144 101/131/144 89/133/144
f 115/182/145 116/183/145 120/169/145
f 115/182/168 117/185/168 119/163/168
f 114/184/169 98/186/169 117/185/169
f 102/164/148 119/163/148 117/185/148
f 103/162/170 104/167/170 120/169/170
f 114/184/171 115/182/171 118/168/171
f 121/188/151 122/157/151 126/156/151
f 121/188/152 123/160/152 125/159/152
f 113/190/172 121/188/172 124/189/172
f 95/191/154 124/189/154 126/156/154
f 114/155/173 122/157/173 125/159/173
f 113/190/174 112/158/174 123/160/174
