# Blender v2.81 (sub 16) OBJ File: 'garbage.blend'
# www.blender.org
v -2.963901 2.510787 3.700129
v -2.965645 2.487167 3.683985
v -2.961328 2.459032 3.680609
v -2.952107 2.433922 3.690907
v -2.940453 2.418564 3.712119
v -2.937468 2.518021 3.704072
v -2.919861 2.499695 3.690814
v -2.908462 2.473498 3.688495
v -2.906324 2.446450 3.697736
v -2.914020 2.425797 3.716061
v -2.890161 2.484785 3.739524
v -2.890475 2.456224 3.741928
v -2.904870 2.431440 3.741576
v -2.945601 2.522074 3.751158
v -2.924726 2.481606 3.782667
v -2.920409 2.453471 3.779292
v -2.922153 2.429851 3.763148
v -2.972034 2.514841 3.747216
v -2.979730 2.494188 3.765541
v -2.977592 2.467140 3.774782
v -2.966193 2.440943 3.772463
v -2.948586 2.422617 3.759205
v -2.981184 2.509198 3.721701
v -2.995579 2.484414 3.721349
v -2.995893 2.455853 3.723753
v -2.982041 2.431168 3.728271
v -2.957736 2.416974 3.733691
v -2.928318 2.523664 3.729586
v -2.904013 2.509470 3.735006
v -2.933947 2.506716 3.772370
v -2.966693 2.523363 3.806729
v -2.970429 2.522341 3.806172
v -2.957562 2.527628 3.772067
v -2.948563 2.494109 3.799748
v -2.970646 2.524048 3.770115
v -2.968858 2.488555 3.796721
v -2.890264 2.538062 3.771619
v -2.897349 2.537410 3.780462
v -2.906358 2.538126 3.762088
v -2.893154 2.515209 3.770430
v -2.909605 2.537827 3.766141
v -2.896410 2.514909 3.774495
vt 0.274240 0.539347
vt 0.265397 0.539709
vt 0.266768 0.532487
vt 0.231414 0.551290
vt 0.214659 0.541092
vt 0.231357 0.542861
vt 0.231940 0.569242
vt 0.215985 0.562822
vt 0.231472 0.559719
vt 0.230890 0.533338
vt 0.220414 0.530957
vt 0.213134 0.552274
vt 0.289666 0.544440
vt 0.282983 0.540904
vt 0.290637 0.536818
vt 0.279682 0.529141
vt 0.275518 0.536619
vt 0.273707 0.532162
vt 0.280945 0.538772
vt 0.286431 0.530872
vt 0.290637 0.551375
vt 0.284312 0.543753
vt 0.278488 0.537315
vt 0.276318 0.541045
vt 0.804698 0.251197
vt 0.792375 0.255919
vt 0.792638 0.252041
vt 0.786357 0.239035
vt 0.792578 0.249274
vt 0.791489 0.249454
vt 0.271776 0.541127
vt 0.760733 0.199751
vt 0.757502 0.209505
vt 0.750621 0.206121
vt 0.278108 0.542645
vt 0.273009 0.544115
vt 0.772804 0.201934
vt 0.766718 0.213101
vt 0.766203 0.208706
vt 0.264007 0.548518
vt 0.277612 0.547903
vt 0.268747 0.555467
vt 0.275021 0.546378
vt 0.280714 0.548498
vt 0.281954 0.545638
vt 0.276612 0.557409
vt 0.240880 0.530957
vt 0.248168 0.561486
vt 0.249693 0.550306
vt 0.246843 0.539760
vt 0.242415 0.571620
vt 0.762287 0.211045
vt 0.762255 0.210544
vt 0.761023 0.221925
vt 0.757316 0.212491
vt 0.750922 0.216572
vt 0.772804 0.220841
vt 0.791613 0.252007
vt 0.791097 0.255536
vt 0.780068 0.250772
vt 0.780487 0.263708
vt 0.804698 0.264828
vt 0.798786 0.238814
vt 0.221949 0.571626
vt 0.283377 0.553479
vn 0.2445 -0.9616 0.1250
vn 0.2205 -0.2997 -0.9282
vn -0.0318 0.5656 -0.8241
vn 0.2882 -0.6934 -0.6604
vn 0.1099 0.1350 -0.9847
vn 0.5291 0.7686 -0.3597
vn 0.8492 -0.4904 -0.1961
vn 0.8327 0.3966 -0.3864
vn -0.2445 0.9616 -0.1250
vn 0.9433 -0.0381 -0.3298
vn 0.7210 -0.4265 0.5462
vn 0.0012 -0.2563 0.9666
vn 0.7781 0.0442 0.6266
vn -0.3252 0.9259 -0.1923
vn 0.0319 -0.5656 0.8241
vn -0.9521 0.2993 -0.0626
vn -0.1099 -0.1350 0.9847
vn 0.0996 -0.7316 0.6744
vn -0.5290 -0.7686 0.3597
vn -0.9433 0.0382 0.3298
vn -0.8327 -0.3966 0.3864
vn -0.8492 0.4904 0.1961
vn -0.4009 -0.8325 -0.3825
vn -0.7781 -0.0442 -0.6266
vn -0.6675 -0.4789 -0.5701
vn -0.7210 0.4265 -0.5462
vn -0.0688 -0.2717 0.9599
vn -0.2702 0.9617 0.0472
vn 0.6388 0.7250 0.2575
vn -0.1970 0.9137 -0.3554
vn -0.9433 -0.1293 0.3056
vn 0.6633 0.4793 0.5748
vn 0.7785 -0.1304 0.6140
vn -0.0269 0.9983 0.0520
vn 0.8483 0.4161 -0.3274
vn 0.7056 -0.4697 0.5307
vn -0.5135 0.5359 0.6701
vn 0.3894 0.6493 -0.6533
vn -0.0319 0.5656 -0.8241
vn 0.8491 -0.4904 -0.1961
vn 0.9433 -0.0382 -0.3298
vn 0.7209 -0.4265 0.5462
vn -0.1263 0.3364 0.9332
vn -0.9573 0.2883 0.0194
vn 0.0996 -0.7316 0.6745
vn -0.5291 -0.7686 0.3597
vn -0.9433 0.0381 0.3298
vn -0.8492 0.4904 0.1960
vn -0.0687 -0.2717 0.9599
vn 0.6513 0.7380 0.1765
vn -0.9412 0.0402 0.3355
vn 0.7577 0.3362 0.5593
vn 0.7784 -0.1304 0.6141
vn -0.0269 0.9983 0.0521
vn 0.9554 -0.1065 -0.2756
vn 0.7055 -0.4697 0.5307
vn -0.6084 0.5837 0.5377
vn 0.4966 0.6173 -0.6102
s off
f 17/1/1 27/2/1 5/3/1
f 3/4/2 9/5/2 4/6/2
f 1/7/3 7/8/3 2/9/3
f 5/10/4 9/5/4 10/11/4
f 2/9/5 8/12/5 3/4/5
f 6/13/6 29/14/6 7/15/6
f 9/16/7 13/17/7 10/18/7
f 7/15/8 11/19/8 8/20/8
f 1/21/9 28/22/9 6/13/9
f 8/20/10 12/23/10 9/16/10
f 13/17/11 16/24/11 17/1/11
f 30/25/12 42/26/12 38/27/12
f 11/19/13 16/24/13 12/23/13
f 28/28/14 41/29/14 39/30/14
f 16/24/15 22/31/15 17/1/15
f 19/32/16 35/33/16 18/34/16
f 15/35/17 21/36/17 16/24/17
f 20/37/18 34/38/18 36/39/18
f 22/31/19 26/40/19 27/2/19
f 19/41/20 25/42/20 20/43/20
f 1/21/9 18/44/9 14/45/9
f 20/43/21 26/40/21 21/36/21
f 18/44/22 24/46/22 19/41/22
f 27/47/23 4/6/23 5/10/23
f 24/48/24 3/4/24 25/49/24
f 25/49/25 4/6/25 26/50/25
f 23/51/26 2/9/26 24/48/26
f 13/17/1 5/3/1 10/18/1
f 31/52/27 36/39/27 34/38/27
f 31/52/28 35/33/28 32/53/28
f 30/54/29 33/55/29 31/52/29
f 18/34/30 33/55/30 14/56/30
f 19/32/31 36/39/31 32/53/31
f 30/54/32 34/38/32 15/57/32
f 37/58/33 42/26/33 40/59/33
f 37/58/34 41/29/34 38/27/34
f 29/60/35 40/59/35 11/61/35
f 11/61/36 42/26/36 15/62/36
f 30/25/37 41/29/37 14/63/37
f 29/60/38 39/30/38 37/58/38
f 17/1/1 22/31/1 27/2/1
f 3/4/2 8/12/2 9/5/2
f 1/7/39 6/64/39 7/8/39
f 5/10/4 4/6/4 9/5/4
f 2/9/5 7/8/5 8/12/5
f 6/13/6 28/22/6 29/14/6
f 9/16/40 12/23/40 13/17/40
f 7/15/8 29/14/8 11/19/8
f 1/21/9 14/45/9 28/22/9
f 8/20/41 11/19/41 12/23/41
f 13/17/42 12/23/42 16/24/42
f 30/25/43 15/62/43 42/26/43
f 11/19/13 15/35/13 16/24/13
f 28/28/14 14/63/14 41/29/14
f 16/24/15 21/36/15 22/31/15
f 19/32/44 32/53/44 35/33/44
f 15/35/17 20/43/17 21/36/17
f 20/37/45 15/57/45 34/38/45
f 22/31/46 21/36/46 26/40/46
f 19/41/47 24/46/47 25/42/47
f 1/21/9 23/65/9 18/44/9
f 20/43/21 25/42/21 26/40/21
f 18/44/48 23/65/48 24/46/48
f 27/47/23 26/50/23 4/6/23
f 24/48/24 2/9/24 3/4/24
f 25/49/25 3/4/25 4/6/25
f 23/51/26 1/7/26 2/9/26
f 13/17/1 17/1/1 5/3/1
f 31/52/49 32/53/49 36/39/49
f 31/52/28 33/55/28 35/33/28
f 30/54/50 14/56/50 33/55/50
f 18/34/30 35/33/30 33/55/30
f 19/32/51 20/37/51 36/39/51
f 30/54/52 31/52/52 34/38/52
f 37/58/53 38/27/53 42/26/53
f 37/58/54 39/30/54 41/29/54
f 29/60/55 37/58/55 40/59/55
f 11/61/56 40/59/56 42/26/56
f 30/25/57 38/27/57 41/29/57
f 29/60/58 28/28/58 39/30/58
v 1.994001 3.727596 2.005955
v 1.979141 3.710542 2.023561
v 1.972724 3.684300 2.033140
v 1.976468 3.655900 2.032124
v 1.989371 3.632953 2.020786
v 1.986048 3.723871 1.979698
v 1.965367 3.704089 1.978083
v 1.956819 3.676849 1.980625
v 1.962695 3.649447 1.986645
v 1.981419 3.629227 1.994529
v 1.994743 3.668798 1.941087
v 1.995538 3.642475 1.952404
v 2.000381 3.625202 1.974760
v 2.031924 3.719545 1.966418
v 2.048572 3.668198 1.954064
v 2.042154 3.641956 1.963643
v 2.027295 3.624902 1.981248
v 2.039877 3.723271 1.992675
v 2.058601 3.703051 2.000559
v 2.064476 3.675649 2.006579
v 2.055928 3.648409 2.009121
v 2.035247 3.628628 2.007506
v 2.020915 3.727296 2.012444
v 2.025758 3.710023 2.034800
v 2.026552 3.683700 2.046117
v 2.023085 3.655381 2.043362
v 2.016285 3.632653 2.027275
v 2.005010 3.719845 1.959929
v 1.998210 3.697117 1.943842
v 2.044827 3.696598 1.955080
v 2.091037 3.715348 1.961645
v 2.092160 3.715874 1.965356
v 2.056234 3.723986 1.965797
v 2.075152 3.684028 1.961755
v 2.060171 3.725830 1.978794
v 2.081258 3.686888 1.981915
v 2.026213 3.709691 1.906362
v 2.037247 3.709568 1.909022
v 2.024926 3.717655 1.923237
v 2.025254 3.690283 1.918790
v 2.029983 3.717599 1.924457
v 2.030326 3.690227 1.920012
vt 0.274240 0.539347
vt 0.265397 0.539709
vt 0.266768 0.532487
vt 0.231414 0.551290
vt 0.214659 0.541092
vt 0.231357 0.542861
vt 0.231940 0.569242
vt 0.215985 0.562822
vt 0.231472 0.559719
vt 0.230890 0.533338
vt 0.220414 0.530957
vt 0.213134 0.552274
vt 0.289666 0.544440
vt 0.282983 0.540904
vt 0.290637 0.536818
vt 0.279682 0.529141
vt 0.275518 0.536619
vt 0.273707 0.532162
vt 0.280945 0.538772
vt 0.286431 0.530872
vt 0.290637 0.551375
vt 0.284312 0.543753
vt 0.278488 0.537315
vt 0.276318 0.541045
vt 0.804698 0.251197
vt 0.792375 0.255919
vt 0.792638 0.252041
vt 0.786357 0.239035
vt 0.792578 0.249274
vt 0.791489 0.249454
vt 0.271776 0.541127
vt 0.760733 0.199751
vt 0.757502 0.209505
vt 0.750621 0.206121
vt 0.278108 0.542645
vt 0.273009 0.544115
vt 0.772804 0.201934
vt 0.766718 0.213101
vt 0.766203 0.208706
vt 0.264007 0.548518
vt 0.277612 0.547903
vt 0.268747 0.555467
vt 0.275021 0.546378
vt 0.280714 0.548498
vt 0.281954 0.545638
vt 0.276612 0.557409
vt 0.240880 0.530957
vt 0.248168 0.561486
vt 0.249693 0.550306
vt 0.246843 0.539760
vt 0.242415 0.571620
vt 0.762287 0.211045
vt 0.762255 0.210544
vt 0.761023 0.221925
vt 0.757316 0.212491
vt 0.750922 0.216572
vt 0.772804 0.220841
vt 0.791613 0.252007
vt 0.791097 0.255536
vt 0.780068 0.250772
vt 0.780487 0.263708
vt 0.804698 0.264828
vt 0.798786 0.238814
vt 0.221949 0.571626
vt 0.283377 0.553479
vn -0.0483 -0.9868 0.1546
vn -0.9428 -0.1352 0.3047
vn -0.6916 0.7142 0.1081
vn -0.7548 -0.5778 0.3106
vn -0.9210 0.3109 0.2348
vn -0.5180 0.5920 -0.6174
vn -0.5812 -0.7000 -0.4149
vn -0.6973 0.1535 -0.7001
vn 0.0483 0.9868 -0.1546
vn -0.7192 -0.2926 -0.6302
vn 0.1419 -0.7682 -0.6243
vn 0.8486 -0.4560 -0.2681
vn 0.2127 -0.3805 -0.9000
vn 0.0226 0.9986 -0.0473
vn 0.6916 -0.7142 -0.1081
vn 0.3865 0.6231 0.6800
vn 0.9210 -0.3109 -0.2348
vn 0.5190 -0.8540 -0.0360
vn 0.5180 -0.5920 0.6174
vn 0.7192 0.2926 0.6302
vn 0.6973 -0.1535 0.7001
vn 0.5812 0.7000 0.4149
vn -0.2051 -0.5238 0.8267
vn -0.2127 0.3805 0.9000
vn -0.2345 -0.0656 0.9699
vn -0.1420 0.7682 0.6243
vn 0.8733 -0.4436 -0.2015
vn 0.2134 0.9562 -0.2004
vn -0.0187 0.3711 -0.9284
vn -0.1811 0.9799 -0.0842
vn 0.6888 0.1465 0.7100
vn 0.2406 0.0664 -0.9683
vn 0.1922 -0.5359 -0.8221
vn 0.1106 0.9020 -0.4172
vn -0.6507 0.1520 -0.7439
vn 0.1327 -0.7982 -0.5875
vn 0.8562 0.5127 -0.0634
vn -0.7236 0.6013 -0.3389
vn 0.9070 0.1339 -0.3994
vn 0.0225 0.9986 -0.0474
vn 0.4615 0.5960 0.6571
vn -0.2051 -0.5238 0.8268
vn -0.1419 0.7682 0.6243
vn 0.8733 -0.4436 -0.2016
vn 0.2134 0.9562 -0.2003
vn -0.0958 0.3971 -0.9128
vn 0.7233 0.2925 0.6255
vn 0.1770 -0.0932 -0.9798
vn 0.1107 0.9020 -0.4173
vn -0.6797 -0.3714 -0.6325
vn 0.1327 -0.7983 -0.5875
vn 0.7830 0.6203 0.0458
vn -0.7349 0.5243 -0.4302
s off
f 59/66/59 69/67/59 47/68/59
f 45/69/60 51/70/60 46/71/60
f 43/72/61 49/73/61 44/74/61
f 47/75/62 51/70/62 52/76/62
f 44/74/63 50/77/63 45/69/63
f 48/78/64 71/79/64 49/80/64
f 51/81/65 55/82/65 52/83/65
f 49/80/66 53/84/66 50/85/66
f 43/86/67 70/87/67 48/78/67
f 50/85/68 54/88/68 51/81/68
f 55/82/69 58/89/69 59/66/69
f 72/90/70 84/91/70 80/92/70
f 53/84/71 58/89/71 54/88/71
f 70/93/72 83/94/72 81/95/72
f 58/89/73 64/96/73 59/66/73
f 61/97/74 77/98/74 60/99/74
f 57/100/75 63/101/75 58/89/75
f 62/102/76 76/103/76 78/104/76
f 64/96/77 68/105/77 69/67/77
f 61/106/78 67/107/78 62/108/78
f 43/86/67 60/109/67 56/110/67
f 62/108/79 68/105/79 63/101/79
f 60/109/80 66/111/80 61/106/80
f 69/112/81 46/71/81 47/75/81
f 66/113/82 45/69/82 67/114/82
f 67/114/83 46/71/83 68/115/83
f 65/116/84 44/74/84 66/113/84
f 55/82/59 47/68/59 52/83/59
f 73/117/85 78/104/85 76/103/85
f 73/117/86 77/98/86 74/118/86
f 72/119/87 75/120/87 73/117/87
f 60/99/88 75/120/88 56/121/88
f 61/97/89 78/104/89 74/118/89
f 72/119/90 76/103/90 57/122/90
f 79/123/91 84/91/91 82/124/91
f 79/123/92 83/94/92 80/92/92
f 71/125/93 82/124/93 53/126/93
f 53/126/94 84/91/94 57/127/94
f 72/90/95 83/94/95 56/128/95
f 71/125/96 81/95/96 79/123/96
f 59/66/59 64/96/59 69/67/59
f 45/69/60 50/77/60 51/70/60
f 43/72/61 48/129/61 49/73/61
f 47/75/62 46/71/62 51/70/62
f 44/74/63 49/73/63 50/77/63
f 48/78/64 70/87/64 71/79/64
f 51/81/65 54/88/65 55/82/65
f 49/80/66 71/79/66 53/84/66
f 43/86/67 56/110/67 70/87/67
f 50/85/68 53/84/68 54/88/68
f 55/82/69 54/88/69 58/89/69
f 72/90/97 57/127/97 84/91/97
f 53/84/71 57/100/71 58/89/71
f 70/93/98 56/128/98 83/94/98
f 58/89/73 63/101/73 64/96/73
f 61/97/99 74/118/99 77/98/99
f 57/100/75 62/108/75 63/101/75
f 62/102/76 57/122/76 76/103/76
f 64/96/77 63/101/77 68/105/77
f 61/106/78 66/111/78 67/107/78
f 43/86/67 65/130/67 60/109/67
f 62/108/79 67/107/79 68/105/79
f 60/109/80 65/130/80 66/111/80
f 69/112/100 68/115/100 46/71/100
f 66/113/82 44/74/82 45/69/82
f 67/114/83 45/69/83 46/71/83
f 65/116/101 43/72/101 44/74/101
f 55/82/59 59/66/59 47/68/59
f 73/117/102 74/118/102 78/104/102
f 73/117/103 75/120/103 77/98/103
f 72/119/104 56/121/104 75/120/104
f 60/99/88 77/98/88 75/120/88
f 61/97/105 62/102/105 78/104/105
f 72/119/106 73/117/106 76/103/106
f 79/123/91 80/92/91 84/91/91
f 79/123/107 81/95/107 83/94/107
f 71/125/108 79/123/108 82/124/108
f 53/126/109 82/124/109 84/91/109
f 72/90/110 80/92/110 83/94/110
f 71/125/111 70/93/111 81/95/111
v -0.621616 4.354885 0.998307
v -0.632960 4.332616 0.984271
v -0.634572 4.304364 0.979705
v -0.626020 4.277701 0.985830
v -0.609596 4.259769 1.001006
v -0.594925 4.358070 0.991673
v -0.586730 4.338132 0.972780
v -0.581190 4.310734 0.966436
v -0.579790 4.283217 0.974339
v -0.582905 4.262954 0.994372
v -0.543259 4.316659 1.006340
v -0.546941 4.288349 1.008897
v -0.563940 4.265917 1.014324
v -0.583685 4.360811 1.038211
v -0.558709 4.316216 1.059513
v -0.560321 4.287965 1.054946
v -0.571665 4.265696 1.040911
v -0.610376 4.357626 1.044845
v -0.613491 4.337364 1.064878
v -0.612091 4.309847 1.072781
v -0.606551 4.282449 1.066437
v -0.598356 4.262511 1.047545
v -0.629341 4.354663 1.024893
v -0.646340 4.332232 1.030320
v -0.650023 4.303921 1.032877
v -0.639401 4.277317 1.031879
v -0.617322 4.259548 1.027593
v -0.575960 4.361033 1.011625
v -0.553880 4.343264 1.007339
v -0.567261 4.342880 1.053387
v -0.581422 4.362227 1.097604
v -0.585194 4.361777 1.098542
v -0.585735 4.366928 1.062075
v -0.571997 4.331089 1.084383
v -0.598947 4.365351 1.065358
v -0.592490 4.328643 1.089476
v -0.523004 4.367686 1.035574
v -0.526171 4.367595 1.046473
v -0.541311 4.370529 1.033003
v -0.529547 4.345568 1.035769
v -0.542763 4.370488 1.037999
v -0.531003 4.345526 1.040779
vt 0.274240 0.539347
vt 0.265397 0.539709
vt 0.266768 0.532487
vt 0.231414 0.551290
vt 0.214659 0.541092
vt 0.231357 0.542861
vt 0.231940 0.569242
vt 0.215985 0.562822
vt 0.231472 0.559719
vt 0.230890 0.533338
vt 0.220414 0.530957
vt 0.213134 0.552274
vt 0.289666 0.544440
vt 0.282983 0.540904
vt 0.290637 0.536818
vt 0.279682 0.529141
vt 0.275518 0.536619
vt 0.273707 0.532162
vt 0.280945 0.538772
vt 0.286431 0.530872
vt 0.290637 0.551375
vt 0.284312 0.543753
vt 0.278488 0.537315
vt 0.276318 0.541045
vt 0.804698 0.251197
vt 0.792375 0.255919
vt 0.792638 0.252041
vt 0.786357 0.239035
vt 0.792578 0.249274
vt 0.791489 0.249454
vt 0.271776 0.541127
vt 0.760733 0.199751
vt 0.757502 0.209505
vt 0.750621 0.206121
vt 0.278108 0.542645
vt 0.273009 0.544115
vt 0.772804 0.201934
vt 0.766718 0.213101
vt 0.766203 0.208706
vt 0.264007 0.548518
vt 0.277612 0.547903
vt 0.268747 0.555467
vt 0.275021 0.546378
vt 0.280714 0.548498
vt 0.281954 0.545638
vt 0.276612 0.557409
vt 0.240880 0.530957
vt 0.248168 0.561486
vt 0.249693 0.550306
vt 0.246843 0.539760
vt 0.242415 0.571620
vt 0.762287 0.211045
vt 0.762255 0.210544
vt 0.761023 0.221925
vt 0.757316 0.212491
vt 0.750922 0.216572
vt 0.772804 0.220841
vt 0.791613 0.252007
vt 0.791097 0.255536
vt 0.780068 0.250772
vt 0.780487 0.263708
vt 0.804698 0.264828
vt 0.798786 0.238814
vt 0.221949 0.571626
vt 0.283377 0.553479
vn 0.1253 -0.9917 0.0282
vn -0.2000 -0.2799 -0.9390
vn -0.2592 0.6060 -0.7520
vn -0.0951 -0.6925 -0.7151
vn -0.2567 0.1685 -0.9517
vn 0.4605 0.7029 -0.5421
vn 0.6246 -0.5955 -0.5052
vn 0.6708 0.2934 -0.6812
vn -0.1253 0.9917 -0.0281
vn 0.7274 -0.1550 -0.6685
vn 0.8017 -0.5523 0.2284
vn 0.3327 -0.3033 0.8930
vn 0.9558 -0.0993 0.2769
vn -0.2300 0.9714 -0.0589
vn 0.2592 -0.6060 0.7520
vn -0.8464 0.4345 0.3079
vn 0.2567 -0.1685 0.9517
vn 0.2385 -0.7720 0.5891
vn -0.4605 -0.7029 0.5421
vn -0.7274 0.1550 0.6685
vn -0.6708 -0.2934 0.6812
vn -0.6246 0.5955 0.5052
vn -0.6377 -0.7461 -0.1915
vn -0.9558 0.0993 -0.2769
vn -0.8991 -0.3490 -0.2642
vn -0.8017 0.5523 -0.2284
vn 0.1253 -0.9917 0.0281
vn 0.2640 -0.3082 0.9140
vn -0.0828 0.9866 0.1406
vn 0.7903 0.6125 -0.0149
vn -0.1776 0.9495 -0.2586
vn -0.7621 -0.0093 0.6474
vn 0.8970 0.3498 0.2701
vn 0.9249 -0.2713 0.2664
vn 0.1463 0.9879 0.0507
vn 0.7105 0.3074 -0.6330
vn 0.7752 -0.5920 0.2203
vn -0.1302 0.5684 0.8124
vn 0.2027 0.6200 -0.7579
vn -0.0951 -0.6924 -0.7152
vn -0.1253 0.9917 -0.0282
vn 0.8017 -0.5523 0.2283
vn 0.2933 0.3024 0.9069
vn -0.2300 0.9714 -0.0587
vn -0.8214 0.4202 0.3857
vn 0.2386 -0.7720 0.5891
vn -0.6376 -0.7461 -0.1915
vn -0.8991 -0.3491 -0.2642
vn 0.2639 -0.3082 0.9140
vn -0.0828 0.9866 0.1405
vn 0.7727 0.6277 -0.0945
vn -0.7231 0.1565 0.6728
vn 0.9556 0.1956 0.2204
vn 0.9249 -0.2713 0.2665
vn 0.1463 0.9879 0.0506
vn 0.7489 -0.2271 -0.6226
vn 0.7753 -0.5920 0.2203
vn -0.2602 0.6359 0.7266
vn 0.3121 0.5709 -0.7594
s off
f 101/131/112 111/132/112 89/133/112
f 87/134/113 93/135/113 88/136/113
f 85/137/114 91/138/114 86/139/114
f 89/140/115 93/135/115 94/141/115
f 86/139/116 92/142/116 87/134/116
f 90/143/117 113/144/117 91/145/117
f 93/146/118 97/147/118 94/148/118
f 91/145/119 95/149/119 92/150/119
f 85/151/120 112/152/120 90/143/120
f 92/150/121 96/153/121 93/146/121
f 97/147/122 100/154/122 101/131/122
f 114/155/123 126/156/123 122/157/123
f 95/149/124 100/154/124 96/153/124
f 112/158/125 125/159/125 123/160/125
f 100/154/126 106/161/126 101/131/126
f 103/162/127 119/163/127 102/164/127
f 99/165/128 105/166/128 100/154/128
f 104/167/129 118/168/129 120/169/129
f 106/161/130 110/170/130 111/132/130
f 103/171/131 109/172/131 104/173/131
f 85/151/120 102/174/120 98/175/120
f 104/173/132 110/170/132 105/166/132
f 102/174/133 108/176/133 103/171/133
f 111/177/134 88/136/134 89/140/134
f 108/178/135 87/134/135 109/179/135
f 109/179/136 88/136/136 110/180/136
f 107/181/137 86/139/137 108/178/137
f 97/147/138 89/133/138 94/148/138
f 115/182/139 120/169/139 118/168/139
f 115/182/140 119/163/140 116/183/140
f 114/184/141 117/185/141 115/182/141
f 102/164/142 117/185/142 98/186/142
f 103/162/143 120/169/143 116/183/143
f 114/184/144 118/168/144 99/187/144
f 121/188/145 126/156/145 124/189/145
f 121/188/146 125/159/146 122/157/146
f 113/190/147 124/189/147 95/191/147
f 95/191/148 126/156/148 99/192/148
f 114/155/149 125/159/149 98/193/149
f 113/190/150 123/160/150 121/188/150
f 101/131/138 106/161/138 111/132/138
f 87/134/113 92/142/113 93/135/113
f 85/137/114 90/194/114 91/138/114
f 89/140/151 88/136/151 93/135/151
f 86/139/116 91/138/116 92/142/116
f 90/143/117 112/152/117 113/144/117
f 93/146/118 96/153/118 97/147/118
f 91/145/119 113/144/119 95/149/119
f 85/151/152 98/175/152 112/152/152
f 92/150/121 95/149/121 96/153/121
f 97/147/153 96/153/153 100/154/153
f 114/155/154 99/192/154 126/156/154
f 95/149/124 99/165/124 100/154/124
f 112/158/155 98/193/155 125/159/155
f 100/154/126 105/166/126 106/161/126
f 103/162/156 116/183/156 119/163/156
f 99/165/128 104/173/128 105/166/128
f 104/167/157 99/187/157 118/168/157
f 106/161/130 105/166/130 110/170/130
f 103/171/131 108/176/131 109/172/131
f 85/151/120 107/195/120 102/174/120
f 104/173/132 109/172/132 110/170/132
f 102/174/133 107/195/133 108/176/133
f 111/177/158 110/180/158 88/136/158
f 108/178/135 86/139/135 87/134/135
f 109/179/159 87/134/159 88/136/159
f 107/181/137 85/137/137 86/139/137
f 97/147/112 101/131/112 89/133/112
f 115/182/160 116/183/160 120/169/160
f 115/182/161 117/185/161 119/163/161
f 114/184/162 98/186/162 117/185/162
f 102/164/142 119/163/142 117/185/142
f 103/162/163 104/167/163 120/169/163
f 114/184/164 115/182/164 118/168/164
f 121/188/165 122/157/165 126/156/165
f 121/188/166 123/160/166 125/159/166
f 113/190/167 121/188/167 124/189/167
f 95/191/168 124/189/168 126/156/168
f 114/155/169 122/157/169 125/159/169
f 113/190/170 112/158/170 123/160/170
