# Blender v2.81 (sub 16) OBJ File: 'garbage.blend'
# www.blender.org
v -1.613799 2.755056 -1.991158
v -1.599134 2.731911 -1.982739
v -1.597985 2.703707 -1.977763
v -1.610659 2.677998 -1.977563
v -1.633762 2.661675 -1.982191
v -1.633834 2.761080 -1.973023
v -1.633835 2.742346 -1.951329
v -1.638054 2.715755 -1.941493
v -1.645361 2.688433 -1.946152
v -1.653797 2.667700 -1.964056
v -1.689647 2.725073 -1.959316
v -1.690041 2.696503 -1.961587
v -1.679593 2.672359 -1.972968
v -1.665392 2.764374 -2.008981
v -1.701169 2.722343 -2.013409
v -1.700020 2.694138 -2.008433
v -1.685354 2.670994 -2.000014
v -1.645357 2.758349 -2.027116
v -1.653793 2.737616 -2.045020
v -1.661099 2.710294 -2.049679
v -1.665318 2.683703 -2.039843
v -1.665320 2.664969 -2.018149
v -1.619561 2.753690 -2.018204
v -1.609113 2.729547 -2.029585
v -1.609507 2.700976 -2.031856
v -1.620638 2.675634 -2.024408
v -1.639523 2.660310 -2.009238
v -1.659630 2.765739 -1.981934
v -1.678516 2.750416 -1.966764
v -1.688494 2.748051 -2.013610
v -1.695236 2.765252 -2.060393
v -1.692405 2.764400 -2.062955
v -1.674310 2.769936 -2.031355
v -1.699947 2.735433 -2.042450
v -1.664393 2.766954 -2.040331
v -1.684564 2.730807 -2.056374
v -1.716835 2.777546 -1.978706
v -1.719197 2.776986 -1.989794
v -1.699308 2.778506 -1.985168
v -1.713074 2.754868 -1.980605
v -1.700390 2.778249 -1.990249
v -1.714160 2.754610 -1.985701
vt 0.274240 0.539347
vt 0.265397 0.539709
vt 0.266768 0.532487
vt 0.231414 0.551290
vt 0.214659 0.541092
vt 0.231357 0.542861
vt 0.231940 0.569242
vt 0.215985 0.562822
vt 0.231472 0.559719
vt 0.230890 0.533338
vt 0.220414 0.530957
vt 0.213134 0.552274
vt 0.289666 0.544440
vt 0.282983 0.540904
vt 0.290637 0.536818
vt 0.279682 0.529141
vt 0.275518 0.536619
vt 0.273707 0.532162
vt 0.280945 0.538772
vt 0.286431 0.530872
vt 0.290637 0.551375
vt 0.284312 0.543753
vt 0.278488 0.537315
vt 0.276318 0.541045
vt 0.804698 0.251197
vt 0.792375 0.255919
vt 0.792638 0.252041
vt 0.786357 0.239035
vt 0.792578 0.249274
vt 0.791489 0.249454
vt 0.271776 0.541127
vt 0.760733 0.199751
vt 0.757502 0.209505
vt 0.750621 0.206121
vt 0.278108 0.542645
vt 0.273009 0.544115
vt 0.772804 0.201934
vt 0.766718 0.213101
vt 0.766203 0.208706
vt 0.264007 0.548518
vt 0.277612 0.547903
vt 0.268747 0.555467
vt 0.275021 0.546378
vt 0.280714 0.548498
vt 0.281954 0.545638
vt 0.276612 0.557409
vt 0.240880 0.530957
vt 0.248168 0.561486
vt 0.249693 0.550306
vt 0.246843 0.539760
vt 0.242415 0.571620
vt 0.762287 0.211045
vt 0.762255 0.210544
vt 0.761023 0.221925
vt 0.757316 0.212491
vt 0.750922 0.216572
vt 0.772804 0.220841
vt 0.791613 0.252007
vt 0.791097 0.255536
vt 0.780068 0.250772
vt 0.780487 0.263708
vt 0.804698 0.264828
vt 0.798786 0.238814
vt 0.221949 0.571626
vt 0.283377 0.553479
vn -0.2081 -0.9736 0.0935
vn 0.5940 -0.2870 0.7516
vn 0.6337 0.5855 0.5056
vn 0.3612 -0.6893 0.6280
vn 0.6881 0.1532 0.7093
vn -0.0887 0.7539 0.6510
vn -0.3613 -0.5209 0.7734
vn -0.2429 0.3702 0.8966
vn 0.2081 0.9736 -0.0935
vn -0.3370 -0.0700 0.9389
vn -0.8587 -0.4690 0.2066
vn -0.7387 -0.2786 -0.6138
vn -0.9780 -0.0031 0.2085
vn 0.3127 0.9430 -0.1142
vn -0.6337 -0.5855 -0.5056
vn 0.6352 0.3403 -0.6934
vn -0.6881 -0.1532 -0.7093
vn -0.5530 -0.7506 -0.3616
vn 0.0888 -0.7539 -0.6510
vn 0.3370 0.0700 -0.9389
vn 0.2429 -0.3702 -0.8966
vn 0.3613 0.5209 -0.7734
vn 0.5862 -0.8058 -0.0842
vn 0.9780 0.0031 -0.2085
vn 0.8839 -0.4371 -0.1662
vn 0.8587 0.4690 -0.2066
vn -0.6887 -0.2909 -0.6642
vn 0.0909 0.9708 -0.2220
vn -0.6344 0.6914 0.3456
vn 0.3590 0.9292 0.0879
vn 0.3633 -0.0967 -0.9266
vn -0.8849 0.4375 0.1600
vn -0.9607 -0.1772 0.2136
vn -0.0678 0.9971 -0.0359
vn -0.2992 0.3877 0.8719
vn -0.8350 -0.5111 0.2037
vn -0.2198 0.5413 -0.8116
vn 0.2321 0.6474 0.7259
vn 0.5940 -0.2870 0.7515
vn -0.6589 0.3195 -0.6810
vn 0.5754 0.3277 -0.7494
vn 0.0887 -0.7539 -0.6510
vn -0.6886 -0.2909 -0.6642
vn 0.0909 0.9708 -0.2221
vn -0.5801 0.7057 0.4067
vn 0.3312 0.0718 -0.9408
vn -0.9260 0.2910 0.2404
vn -0.0678 0.9970 -0.0359
vn -0.3836 -0.1400 0.9128
vn -0.8351 -0.5111 0.2036
vn -0.0594 0.5960 -0.8008
vn 0.1326 0.6100 0.7812
s off
f 17/1/1 27/2/1 5/3/1
f 3/4/2 9/5/2 4/6/2
f 1/7/3 7/8/3 2/9/3
f 5/10/4 9/5/4 10/11/4
f 2/9/5 8/12/5 3/4/5
f 6/13/6 29/14/6 7/15/6
f 9/16/7 13/17/7 10/18/7
f 7/15/8 11/19/8 8/20/8
f 1/21/9 28/22/9 6/13/9
f 8/20/10 12/23/10 9/16/10
f 13/17/11 16/24/11 17/1/11
f 30/25/12 42/26/12 38/27/12
f 11/19/13 16/24/13 12/23/13
f 28/28/14 41/29/14 39/30/14
f 16/24/15 22/31/15 17/1/15
f 19/32/16 35/33/16 18/34/16
f 15/35/17 21/36/17 16/24/17
f 20/37/18 34/38/18 36/39/18
f 22/31/19 26/40/19 27/2/19
f 19/41/20 25/42/20 20/43/20
f 1/21/9 18/44/9 14/45/9
f 20/43/21 26/40/21 21/36/21
f 18/44/22 24/46/22 19/41/22
f 27/47/23 4/6/23 5/10/23
f 24/48/24 3/4/24 25/49/24
f 25/49/25 4/6/25 26/50/25
f 23/51/26 2/9/26 24/48/26
f 13/17/1 5/3/1 10/18/1
f 31/52/27 36/39/27 34/38/27
f 31/52/28 35/33/28 32/53/28
f 30/54/29 33/55/29 31/52/29
f 18/34/30 33/55/30 14/56/30
f 19/32/31 36/39/31 32/53/31
f 30/54/32 34/38/32 15/57/32
f 37/58/33 42/26/33 40/59/33
f 37/58/34 41/29/34 38/27/34
f 29/60/35 40/59/35 11/61/35
f 11/61/36 42/26/36 15/62/36
f 30/25/37 41/29/37 14/63/37
f 29/60/38 39/30/38 37/58/38
f 17/1/1 22/31/1 27/2/1
f 3/4/39 8/12/39 9/5/39
f 1/7/3 6/64/3 7/8/3
f 5/10/4 4/6/4 9/5/4
f 2/9/5 7/8/5 8/12/5
f 6/13/6 28/22/6 29/14/6
f 9/16/7 12/23/7 13/17/7
f 7/15/8 29/14/8 11/19/8
f 1/21/9 14/45/9 28/22/9
f 8/20/10 11/19/10 12/23/10
f 13/17/11 12/23/11 16/24/11
f 30/25/40 15/62/40 42/26/40
f 11/19/13 15/35/13 16/24/13
f 28/28/14 14/63/14 41/29/14
f 16/24/15 21/36/15 22/31/15
f 19/32/41 32/53/41 35/33/41
f 15/35/17 20/43/17 21/36/17
f 20/37/18 15/57/18 34/38/18
f 22/31/42 21/36/42 26/40/42
f 19/41/20 24/46/20 25/42/20
f 1/21/9 23/65/9 18/44/9
f 20/43/21 25/42/21 26/40/21
f 18/44/22 23/65/22 24/46/22
f 27/47/23 26/50/23 4/6/23
f 24/48/24 2/9/24 3/4/24
f 25/49/25 3/4/25 4/6/25
f 23/51/26 1/7/26 2/9/26
f 13/17/1 17/1/1 5/3/1
f 31/52/43 32/53/43 36/39/43
f 31/52/44 33/55/44 35/33/44
f 30/54/45 14/56/45 33/55/45
f 18/34/30 35/33/30 33/55/30
f 19/32/46 20/37/46 36/39/46
f 30/54/47 31/52/47 34/38/47
f 37/58/33 38/27/33 42/26/33
f 37/58/48 39/30/48 41/29/48
f 29/60/49 37/58/49 40/59/49
f 11/61/50 40/59/50 42/26/50
f 30/25/51 38/27/51 41/29/51
f 29/60/52 28/28/52 39/30/52
v -3.745733 2.836087 -4.338825
v -3.743019 2.817061 -4.360092
v -3.737707 2.790324 -4.368951
v -3.731220 2.763039 -4.363030
v -3.725295 2.742518 -4.343916
v -3.721287 2.840766 -4.326699
v -3.700677 2.825167 -4.339088
v -3.688815 2.799683 -4.344699
v -3.688878 2.771145 -4.342027
v -3.700849 2.747197 -4.331789
v -3.684429 2.797640 -4.289536
v -3.685079 2.769375 -4.294256
v -3.698656 2.746176 -4.304208
v -3.741347 2.834043 -4.283663
v -3.728935 2.786237 -4.258627
v -3.723623 2.759500 -4.267487
v -3.720910 2.740474 -4.288754
v -3.765793 2.829364 -4.295789
v -3.777765 2.805416 -4.285552
v -3.777828 2.776878 -4.282880
v -3.765965 2.751394 -4.288491
v -3.745356 2.735795 -4.300880
v -3.767986 2.830385 -4.323370
v -3.781563 2.807186 -4.333323
v -3.782213 2.778921 -4.338042
v -3.769763 2.753164 -4.336262
v -3.747549 2.736816 -4.328461
v -3.719094 2.839745 -4.299118
v -3.696879 2.823397 -4.291317
v -3.735423 2.813522 -4.264548
v -3.776093 2.823330 -4.236624
v -3.779547 2.822669 -4.238338
v -3.758357 2.835146 -4.265759
v -3.756494 2.795619 -4.245637
v -3.770458 2.832830 -4.271762
v -3.775264 2.792025 -4.254948
v -3.693331 2.841786 -4.246636
v -3.702455 2.839448 -4.240300
v -3.706417 2.844951 -4.259622
v -3.695597 2.820043 -4.253996
v -3.710598 2.843879 -4.256718
v -3.699790 2.818969 -4.251084
vt 0.274240 0.539347
vt 0.265397 0.539709
vt 0.266768 0.532487
vt 0.231414 0.551290
vt 0.214659 0.541092
vt 0.231357 0.542861
vt 0.231940 0.569242
vt 0.215985 0.562822
vt 0.231472 0.559719
vt 0.230890 0.533338
vt 0.220414 0.530957
vt 0.213134 0.552274
vt 0.289666 0.544440
vt 0.282983 0.540904
vt 0.290637 0.536818
vt 0.279682 0.529141
vt 0.275518 0.536619
vt 0.273707 0.532162
vt 0.280945 0.538772
vt 0.286431 0.530872
vt 0.290637 0.551375
vt 0.284312 0.543753
vt 0.278488 0.537315
vt 0.276318 0.541045
vt 0.804698 0.251197
vt 0.792375 0.255919
vt 0.792638 0.252041
vt 0.786357 0.239035
vt 0.792578 0.249274
vt 0.791489 0.249454
vt 0.271776 0.541127
vt 0.760733 0.199751
vt 0.757502 0.209505
vt 0.750621 0.206121
vt 0.278108 0.542645
vt 0.273009 0.544115
vt 0.772804 0.201934
vt 0.766718 0.213101
vt 0.766203 0.208706
vt 0.264007 0.548518
vt 0.277612 0.547903
vt 0.268747 0.555467
vt 0.275021 0.546378
vt 0.280714 0.548498
vt 0.281954 0.545638
vt 0.276612 0.557409
vt 0.240880 0.530957
vt 0.248168 0.561486
vt 0.249693 0.550306
vt 0.246843 0.539760
vt 0.242415 0.571620
vt 0.762287 0.211045
vt 0.762255 0.210544
vt 0.761023 0.221925
vt 0.757316 0.212491
vt 0.750922 0.216572
vt 0.772804 0.220841
vt 0.791613 0.252007
vt 0.791097 0.255536
vt 0.780068 0.250772
vt 0.780487 0.263708
vt 0.804698 0.264828
vt 0.798786 0.238814
vt 0.221949 0.571626
vt 0.283377 0.553479
vn 0.2131 -0.9756 -0.0531
vn 0.4557 -0.0840 -0.8862
vn 0.1767 0.7447 -0.6436
vn 0.4557 -0.5327 -0.7131
vn 0.3593 0.3571 -0.8622
vn 0.5966 0.8023 -0.0177
vn 0.8756 -0.4750 -0.0872
vn 0.9004 0.4314 -0.0556
vn -0.2131 0.9756 0.0531
vn 0.9968 -0.0096 -0.0796
vn 0.5594 -0.5810 0.5912
vn -0.2461 -0.4765 0.8440
vn 0.5893 -0.1462 0.7946
vn -0.2733 0.9611 -0.0390
vn -0.1767 -0.7446 0.6436
vn -0.9064 0.3559 -0.2273
vn -0.3593 -0.3571 0.8622
vn -0.0710 -0.8741 0.4805
vn -0.5967 -0.8023 0.0177
vn -0.9968 0.0096 0.0796
vn -0.9004 -0.4314 0.0556
vn -0.8756 0.4750 0.0872
vn -0.2804 -0.6963 -0.6607
vn -0.5893 0.1462 -0.7946
vn -0.4929 -0.2949 -0.8186
vn -0.5594 0.5810 -0.5912
vn -0.3119 -0.4861 0.8164
vn -0.2825 0.9365 0.2079
vn 0.5435 0.6088 0.5778
vn -0.1073 0.9809 -0.1623
vn -0.9890 -0.1471 0.0164
vn 0.4876 0.2943 0.8219
vn 0.5945 -0.3127 0.7408
vn -0.0490 0.9579 0.2828
vn 0.9001 0.4356 0.0082
vn 0.5490 -0.6184 0.5623
vn -0.6743 0.3896 0.6273
vn 0.5387 0.7632 -0.3569
vn -0.3663 0.1133 0.9236
vn -0.1767 -0.7447 0.6436
vn -0.9326 0.3263 -0.1544
vn -0.5966 -0.8023 0.0177
vn -0.8756 0.4751 0.0872
vn -0.4929 -0.2948 -0.8186
vn -0.3120 -0.4861 0.8163
vn -0.2824 0.9365 0.2079
vn 0.5765 0.6398 0.5082
vn -0.1072 0.9809 -0.1623
vn -0.9963 0.0102 0.0859
vn 0.5842 0.1540 0.7968
vn 0.5946 -0.3127 0.7407
vn 0.9951 -0.0894 -0.0422
vn 0.5489 -0.6184 0.5624
vn -0.7323 0.4723 0.4907
vn 0.6314 0.7163 -0.2971
s off
f 59/66/53 69/67/53 47/68/53
f 45/69/54 51/70/54 46/71/54
f 43/72/55 49/73/55 44/74/55
f 47/75/56 51/70/56 52/76/56
f 44/74/57 50/77/57 45/69/57
f 48/78/58 71/79/58 49/80/58
f 51/81/59 55/82/59 52/83/59
f 49/80/60 53/84/60 50/85/60
f 43/86/61 70/87/61 48/78/61
f 50/85/62 54/88/62 51/81/62
f 55/82/63 58/89/63 59/66/63
f 72/90/64 84/91/64 80/92/64
f 53/84/65 58/89/65 54/88/65
f 70/93/66 83/94/66 81/95/66
f 58/89/67 64/96/67 59/66/67
f 61/97/68 77/98/68 60/99/68
f 57/100/69 63/101/69 58/89/69
f 62/102/70 76/103/70 78/104/70
f 64/96/71 68/105/71 69/67/71
f 61/106/72 67/107/72 62/108/72
f 43/86/61 60/109/61 56/110/61
f 62/108/73 68/105/73 63/101/73
f 60/109/74 66/111/74 61/106/74
f 69/112/75 46/71/75 47/75/75
f 66/113/76 45/69/76 67/114/76
f 67/114/77 46/71/77 68/115/77
f 65/116/78 44/74/78 66/113/78
f 55/82/53 47/68/53 52/83/53
f 73/117/79 78/104/79 76/103/79
f 73/117/80 77/98/80 74/118/80
f 72/119/81 75/120/81 73/117/81
f 60/99/82 75/120/82 56/121/82
f 61/97/83 78/104/83 74/118/83
f 72/119/84 76/103/84 57/122/84
f 79/123/85 84/91/85 82/124/85
f 79/123/86 83/94/86 80/92/86
f 71/125/87 82/124/87 53/126/87
f 53/126/88 84/91/88 57/127/88
f 72/90/89 83/94/89 56/128/89
f 71/125/90 81/95/90 79/123/90
f 59/66/53 64/96/53 69/67/53
f 45/69/54 50/77/54 51/70/54
f 43/72/55 48/129/55 49/73/55
f 47/75/56 46/71/56 51/70/56
f 44/74/57 49/73/57 50/77/57
f 48/78/58 70/87/58 71/79/58
f 51/81/59 54/88/59 55/82/59
f 49/80/60 71/79/60 53/84/60
f 43/86/61 56/110/61 70/87/61
f 50/85/62 53/84/62 54/88/62
f 55/82/63 54/88/63 58/89/63
f 72/90/91 57/127/91 84/91/91
f 53/84/65 57/100/65 58/89/65
f 70/93/66 56/128/66 83/94/66
f 58/89/92 63/101/92 64/96/92
f 61/97/93 74/118/93 77/98/93
f 57/100/69 62/108/69 63/101/69
f 62/102/70 57/122/70 76/103/70
f 64/96/94 63/101/94 68/105/94
f 61/106/72 66/111/72 67/107/72
f 43/86/61 65/130/61 60/109/61
f 62/108/73 67/107/73 68/105/73
f 60/109/95 65/130/95 66/111/95
f 69/112/75 68/115/75 46/71/75
f 66/113/76 44/74/76 45/69/76
f 67/114/96 45/69/96 46/71/96
f 65/116/78 43/72/78 44/74/78
f 55/82/53 59/66/53 47/68/53
f 73/117/97 74/118/97 78/104/97
f 73/117/98 75/120/98 77/98/98
f 72/119/99 56/121/99 75/120/99
f 60/99/100 77/98/100 75/120/100
f 61/97/101 62/102/101 78/104/101
f 72/119/102 73/117/102 76/103/102
f 79/123/103 80/92/103 84/91/103
f 79/123/86 81/95/86 83/94/86
f 71/125/104 79/123/104 82/124/104
f 53/126/105 82/124/105 84/91/105
f 72/90/106 80/92/106 83/94/106
f 71/125/107 70/93/107 81/95/107
v -0.618815 4.537159 -3.307893
v -0.612214 4.510979 -3.317517
v -0.614892 4.482492 -3.315794
v -0.626131 4.459333 -3.303187
v -0.642919 4.447707 -3.283072
v -0.608168 4.541289 -3.282671
v -0.593774 4.518131 -3.273831
v -0.593599 4.490752 -3.265350
v -0.607691 4.466486 -3.259501
v -0.632273 4.451837 -3.257850
v -0.625549 4.510633 -3.224727
v -0.635360 4.483704 -3.224320
v -0.648247 4.461777 -3.237539
v -0.650764 4.557040 -3.267270
v -0.678791 4.522255 -3.234548
v -0.681469 4.493769 -3.232826
v -0.674869 4.467588 -3.242449
v -0.661411 4.552911 -3.292492
v -0.685992 4.538261 -3.290842
v -0.700084 4.513996 -3.284993
v -0.699909 4.486616 -3.276512
v -0.685515 4.463459 -3.267672
v -0.645436 4.542970 -3.312804
v -0.658323 4.521043 -3.326023
v -0.668134 4.494114 -3.325616
v -0.672240 4.469398 -3.311692
v -0.669540 4.453518 -3.287983
v -0.624143 4.551229 -3.262359
v -0.621443 4.535349 -3.238650
v -0.667552 4.545414 -3.247156
v -0.707214 4.573886 -3.259250
v -0.708718 4.573303 -3.262814
v -0.672486 4.568832 -3.267706
v -0.700827 4.541551 -3.247131
v -0.677756 4.566788 -3.280191
v -0.709002 4.538380 -3.266496
v -0.638611 4.569273 -3.208626
v -0.649525 4.571656 -3.210640
v -0.637849 4.569444 -3.227315
v -0.645024 4.547391 -3.212105
v -0.642851 4.570536 -3.228237
v -0.650040 4.548486 -3.213031
vt 0.274240 0.539347
vt 0.265397 0.539709
vt 0.266768 0.532487
vt 0.231414 0.551290
vt 0.214659 0.541092
vt 0.231357 0.542861
vt 0.231940 0.569242
vt 0.215985 0.562822
vt 0.231472 0.559719
vt 0.230890 0.533338
vt 0.220414 0.530957
vt 0.213134 0.552274
vt 0.289666 0.544440
vt 0.282983 0.540904
vt 0.290637 0.536818
vt 0.279682 0.529141
vt 0.275518 0.536619
vt 0.273707 0.532162
vt 0.280945 0.538772
vt 0.286431 0.530872
vt 0.290637 0.551375
vt 0.284312 0.543753
vt 0.278488 0.537315
vt 0.276318 0.541045
vt 0.804698 0.251197
vt 0.792375 0.255919
vt 0.792638 0.252041
vt 0.786357 0.239035
vt 0.792578 0.249274
vt 0.791489 0.249454
vt 0.271776 0.541127
vt 0.760733 0.199751
vt 0.757502 0.209505
vt 0.750621 0.206121
vt 0.278108 0.542645
vt 0.273009 0.544115
vt 0.772804 0.201934
vt 0.766718 0.213101
vt 0.766203 0.208706
vt 0.264007 0.548518
vt 0.277612 0.547903
vt 0.268747 0.555467
vt 0.275021 0.546378
vt 0.280714 0.548498
vt 0.281954 0.545638
vt 0.276612 0.557409
vt 0.240880 0.530957
vt 0.248168 0.561486
vt 0.249693 0.550306
vt 0.246843 0.539760
vt 0.242415 0.571620
vt 0.762287 0.211045
vt 0.762255 0.210544
vt 0.761023 0.221925
vt 0.757316 0.212491
vt 0.750922 0.216572
vt 0.772804 0.220841
vt 0.791613 0.252007
vt 0.791097 0.255536
vt 0.780068 0.250772
vt 0.780487 0.263708
vt 0.804698 0.264828
vt 0.798786 0.238814
vt 0.221949 0.571626
vt 0.283377 0.553479
vn -0.2513 -0.9327 0.2588
vn 0.8084 -0.5308 -0.2543
vn 0.8360 0.3623 -0.4122
vn 0.5069 -0.8589 -0.0734
vn 0.9221 -0.1091 -0.3713
vn 0.7520 0.5841 0.3056
vn 0.4229 -0.6371 0.6444
vn 0.8138 0.1767 0.5536
vn 0.2513 0.9327 -0.2588
vn 0.7002 -0.2450 0.6706
vn -0.2485 -0.3888 0.8872
vn -0.8884 -0.0275 0.4583
vn -0.1650 0.0750 0.9834
vn 0.2621 0.8944 -0.3624
vn -0.8360 -0.3623 0.4122
vn -0.3014 0.4087 -0.8615
vn -0.9221 0.1091 0.3713
vn -0.7224 -0.5658 0.3976
vn -0.7520 -0.5841 -0.3056
vn -0.7002 0.2450 -0.6706
vn -0.8138 -0.1767 -0.5536
vn -0.4229 0.6371 -0.6444
vn -0.0805 -0.8324 -0.5483
vn 0.1650 -0.0750 -0.9834
vn 0.0514 -0.4967 -0.8664
vn 0.2485 0.3888 -0.8872
vn -0.9187 -0.0340 0.3934
vn 0.0935 0.9755 -0.1991
vn 0.2665 0.6669 0.6959
vn 0.4558 0.8275 -0.3279
vn -0.7244 0.0781 -0.6850
vn -0.0572 0.4986 0.8649
vn -0.2007 -0.0961 0.9749
vn 0.2102 0.9775 0.0175
vn 0.7761 0.2067 0.5957
vn -0.2539 -0.4317 0.8655
vn -0.6600 0.7412 -0.1225
vn 0.9056 0.4222 0.0408
vn 0.5069 -0.8589 -0.0733
vn -0.7599 0.5539 0.3401
vn -0.3763 0.4175 -0.8271
vn -0.0805 -0.8324 -0.5484
vn 0.1651 -0.0750 -0.9834
vn 0.0514 -0.4966 -0.8664
vn 0.3444 0.6592 0.6685
vn -0.7035 0.2480 -0.6661
vn -0.0392 0.3439 0.9382
vn -0.2008 -0.0961 0.9749
vn 0.6414 -0.3002 0.7060
vn -0.5781 0.7706 -0.2683
vn 0.9094 0.3860 0.1550
s off
f 101/131/108 111/132/108 89/133/108
f 87/134/109 93/135/109 88/136/109
f 85/137/110 91/138/110 86/139/110
f 89/140/111 93/135/111 94/141/111
f 86/139/112 92/142/112 87/134/112
f 90/143/113 113/144/113 91/145/113
f 93/146/114 97/147/114 94/148/114
f 91/145/115 95/149/115 92/150/115
f 85/151/116 112/152/116 90/143/116
f 92/150/117 96/153/117 93/146/117
f 97/147/118 100/154/118 101/131/118
f 114/155/119 126/156/119 122/157/119
f 95/149/120 100/154/120 96/153/120
f 112/158/121 125/159/121 123/160/121
f 100/154/122 106/161/122 101/131/122
f 103/162/123 119/163/123 102/164/123
f 99/165/124 105/166/124 100/154/124
f 104/167/125 118/168/125 120/169/125
f 106/161/126 110/170/126 111/132/126
f 103/171/127 109/172/127 104/173/127
f 85/151/116 102/174/116 98/175/116
f 104/173/128 110/170/128 105/166/128
f 102/174/129 108/176/129 103/171/129
f 111/177/130 88/136/130 89/140/130
f 108/178/131 87/134/131 109/179/131
f 109/179/132 88/136/132 110/180/132
f 107/181/133 86/139/133 108/178/133
f 97/147/108 89/133/108 94/148/108
f 115/182/134 120/169/134 118/168/134
f 115/182/135 119/163/135 116/183/135
f 114/184/136 117/185/136 115/182/136
f 102/164/137 117/185/137 98/186/137
f 103/162/138 120/169/138 116/183/138
f 114/184/139 118/168/139 99/187/139
f 121/188/140 126/156/140 124/189/140
f 121/188/141 125/159/141 122/157/141
f 113/190/142 124/189/142 95/191/142
f 95/191/143 126/156/143 99/192/143
f 114/155/144 125/159/144 98/193/144
f 113/190/145 123/160/145 121/188/145
f 101/131/108 106/161/108 111/132/108
f 87/134/109 92/142/109 93/135/109
f 85/137/110 90/194/110 91/138/110
f 89/140/146 88/136/146 93/135/146
f 86/139/112 91/138/112 92/142/112
f 90/143/113 112/152/113 113/144/113
f 93/146/114 96/153/114 97/147/114
f 91/145/115 113/144/115 95/149/115
f 85/151/116 98/175/116 112/152/116
f 92/150/117 95/149/117 96/153/117
f 97/147/118 96/153/118 100/154/118
f 114/155/147 99/192/147 126/156/147
f 95/149/120 99/165/120 100/154/120
f 112/158/121 98/193/121 125/159/121
f 100/154/122 105/166/122 106/161/122
f 103/162/148 116/183/148 119/163/148
f 99/165/124 104/173/124 105/166/124
f 104/167/125 99/187/125 118/168/125
f 106/161/126 105/166/126 110/170/126
f 103/171/127 108/176/127 109/172/127
f 85/151/116 107/195/116 102/174/116
f 104/173/128 109/172/128 110/170/128
f 102/174/129 107/195/129 108/176/129
f 111/177/149 110/180/149 88/136/149
f 108/178/150 86/139/150 87/134/150
f 109/179/151 87/134/151 88/136/151
f 107/181/133 85/137/133 86/139/133
f 97/147/108 101/131/108 89/133/108
f 115/182/134 116/183/134 120/169/134
f 115/182/135 117/185/135 119/163/135
f 114/184/152 98/186/152 117/185/152
f 102/164/137 119/163/137 117/185/137
f 103/162/153 104/167/153 120/169/153
f 114/184/154 115/182/154 118/168/154
f 121/188/155 122/157/155 126/156/155
f 121/188/141 123/160/141 125/159/141
f 113/190/156 121/188/156 124/189/156
f 95/191/143 124/189/143 126/156/143
f 114/155/157 122/157/157 125/159/157
f 113/190/158 112/158/158 123/160/158
