# Blender v2.81 (sub 16) OBJ File: 'garbage.blend'
# www.blender.org
v 0.392632 1.925869 -1.721626
v 0.398825 1.911391 -1.697675
v 0.400674 1.886579 -1.683444
v 0.397685 1.858080 -1.682746
v 0.390658 1.833532 -1.695768
v 0.365457 1.924988 -1.726847
v 0.351755 1.909865 -1.706718
v 0.346323 1.884817 -1.693886
v 0.350615 1.856554 -1.691789
v 0.363482 1.832651 -1.700989
v 0.328265 1.871060 -1.744393
v 0.334977 1.844640 -1.735529
v 0.354453 1.825772 -1.726243
v 0.374575 1.912112 -1.772132
v 0.364559 1.859065 -1.784457
v 0.366408 1.834252 -1.770226
v 0.372600 1.819774 -1.746275
v 0.401751 1.912993 -1.766911
v 0.414618 1.889089 -1.776111
v 0.418910 1.860827 -1.774014
v 0.413478 1.835778 -1.761182
v 0.399776 1.820655 -1.741053
v 0.410779 1.919872 -1.741657
v 0.430256 1.901003 -1.732371
v 0.436968 1.874584 -1.723508
v 0.429116 1.847692 -1.717442
v 0.408805 1.827534 -1.715800
v 0.356428 1.918110 -1.752100
v 0.336116 1.897951 -1.750458
v 0.367548 1.887563 -1.785154
v 0.397307 1.896320 -1.824749
v 0.401147 1.896444 -1.824011
v 0.385931 1.911592 -1.794083
v 0.385784 1.868864 -1.806129
v 0.399383 1.912028 -1.791498
v 0.406649 1.869540 -1.802120
v 0.318037 1.906281 -1.794626
v 0.325477 1.903822 -1.802838
v 0.333283 1.913585 -1.786619
v 0.325841 1.886932 -1.784790
v 0.336692 1.912458 -1.790383
v 0.329261 1.885802 -1.788565
vt 0.274240 0.539347
vt 0.265397 0.539709
vt 0.266768 0.532487
vt 0.231414 0.551290
vt 0.214659 0.541092
vt 0.231357 0.542861
vt 0.231940 0.569242
vt 0.215985 0.562822
vt 0.231472 0.559719
vt 0.230890 0.533338
vt 0.220414 0.530957
vt 0.213134 0.552274
vt 0.289666 0.544440
vt 0.282983 0.540904
vt 0.290637 0.536818
vt 0.279682 0.529141
vt 0.275518 0.536619
vt 0.273707 0.532162
vt 0.280945 0.538772
vt 0.286431 0.530872
vt 0.290637 0.551375
vt 0.284312 0.543753
vt 0.278488 0.537315
vt 0.276318 0.541045
vt 0.804698 0.251197
vt 0.792375 0.255919
vt 0.792638 0.252041
vt 0.786357 0.239035
vt 0.792578 0.249274
vt 0.791489 0.249454
vt 0.271776 0.541127
vt 0.760733 0.199751
vt 0.757502 0.209505
vt 0.750621 0.206121
vt 0.278108 0.542645
vt 0.273009 0.544115
vt 0.772804 0.201934
vt 0.766718 0.213101
vt 0.766203 0.208706
vt 0.264007 0.548518
vt 0.277612 0.547903
vt 0.268747 0.555467
vt 0.275021 0.546378
vt 0.280714 0.548498
vt 0.281954 0.545638
vt 0.276612 0.557409
vt 0.240880 0.530957
vt 0.248168 0.561486
vt 0.249693 0.550306
vt 0.246843 0.539760
vt 0.242415 0.571620
vt 0.762287 0.211045
vt 0.762255 0.210544
vt 0.761023 0.221925
vt 0.757316 0.212491
vt 0.750922 0.216572
vt 0.772804 0.220841
vt 0.791613 0.252007
vt 0.791097 0.255536
vt 0.780068 0.250772
vt 0.780487 0.263708
vt 0.804698 0.264828
vt 0.798786 0.238814
vt 0.221949 0.571626
vt 0.283377 0.553479
vn -0.0206 -0.9628 0.2696
vn -0.1899 0.0439 0.9808
vn -0.1303 0.8332 0.5373
vn -0.1572 -0.4273 0.8903
vn -0.1806 0.4792 0.8589
vn -0.7010 0.7109 0.0570
vn -0.7279 -0.5496 0.4100
vn -0.9160 0.3216 0.2399
vn 0.0206 0.9627 -0.2696
vn -0.9253 -0.1137 0.3618
vn -0.5842 -0.7526 -0.3039
vn 0.0982 -0.6051 -0.7900
vn -0.7401 -0.3752 -0.5581
vn 0.1041 0.9747 -0.1976
vn 0.1303 -0.8332 -0.5374
vn 0.8589 0.5018 -0.1024
vn 0.1806 -0.4792 -0.8589
vn 0.0942 -0.9385 -0.3321
vn 0.7010 -0.7109 -0.0570
vn 0.9253 0.1137 -0.3618
vn 0.0206 0.9628 -0.2696
vn 0.9160 -0.3216 -0.2399
vn 0.7279 0.5496 -0.4100
vn 0.5572 -0.5080 0.6569
vn 0.7401 0.3752 0.5581
vn 0.7308 -0.0600 0.6800
vn 0.5842 0.7526 0.3039
vn 0.1696 -0.6009 -0.7811
vn 0.0533 0.9016 -0.4293
vn -0.7709 0.4080 -0.4892
vn -0.0253 0.9990 -0.0368
vn 0.9612 -0.0267 -0.2744
vn -0.7265 0.0594 -0.6846
vn -0.7025 -0.5267 -0.4787
vn -0.1917 0.8789 -0.4368
vn -0.9329 0.3127 0.1788
vn -0.5603 -0.7818 -0.2735
vn 0.4118 0.3322 -0.8485
vn -0.5516 0.7490 0.3670
vn -0.0206 -0.9627 0.2696
vn 0.0902 -0.0338 -0.9953
vn 0.1041 0.9748 -0.1976
vn 0.1303 -0.8332 -0.5373
vn 0.8701 0.4612 -0.1739
vn 0.0532 0.9016 -0.4293
vn -0.7895 0.4483 -0.4191
vn 0.9231 0.1129 -0.3677
vn -0.7877 -0.0834 -0.6104
vn -0.7025 -0.5266 -0.4787
vn -0.9196 -0.1986 0.3390
vn 0.4879 0.4473 -0.7495
vn -0.6471 0.6801 0.3447
s off
f 17/1/1 27/2/1 5/3/1
f 3/4/2 9/5/2 4/6/2
f 1/7/3 7/8/3 2/9/3
f 5/10/4 9/5/4 10/11/4
f 2/9/5 8/12/5 3/4/5
f 6/13/6 29/14/6 7/15/6
f 9/16/7 13/17/7 10/18/7
f 7/15/8 11/19/8 8/20/8
f 1/21/9 28/22/9 6/13/9
f 8/20/10 12/23/10 9/16/10
f 13/17/11 16/24/11 17/1/11
f 30/25/12 42/26/12 38/27/12
f 11/19/13 16/24/13 12/23/13
f 28/28/14 41/29/14 39/30/14
f 16/24/15 22/31/15 17/1/15
f 19/32/16 35/33/16 18/34/16
f 15/35/17 21/36/17 16/24/17
f 20/37/18 34/38/18 36/39/18
f 22/31/19 26/40/19 27/2/19
f 19/41/20 25/42/20 20/43/20
f 1/21/21 18/44/21 14/45/21
f 20/43/22 26/40/22 21/36/22
f 18/44/23 24/46/23 19/41/23
f 27/47/24 4/6/24 5/10/24
f 24/48/25 3/4/25 25/49/25
f 25/49/26 4/6/26 26/50/26
f 23/51/27 2/9/27 24/48/27
f 13/17/1 5/3/1 10/18/1
f 31/52/28 36/39/28 34/38/28
f 31/52/29 35/33/29 32/53/29
f 30/54/30 33/55/30 31/52/30
f 18/34/31 33/55/31 14/56/31
f 19/32/32 36/39/32 32/53/32
f 30/54/33 34/38/33 15/57/33
f 37/58/34 42/26/34 40/59/34
f 37/58/35 41/29/35 38/27/35
f 29/60/36 40/59/36 11/61/36
f 11/61/37 42/26/37 15/62/37
f 30/25/38 41/29/38 14/63/38
f 29/60/39 39/30/39 37/58/39
f 17/1/40 22/31/40 27/2/40
f 3/4/2 8/12/2 9/5/2
f 1/7/3 6/64/3 7/8/3
f 5/10/4 4/6/4 9/5/4
f 2/9/5 7/8/5 8/12/5
f 6/13/6 28/22/6 29/14/6
f 9/16/7 12/23/7 13/17/7
f 7/15/8 29/14/8 11/19/8
f 1/21/21 14/45/21 28/22/21
f 8/20/10 11/19/10 12/23/10
f 13/17/11 12/23/11 16/24/11
f 30/25/41 15/62/41 42/26/41
f 11/19/13 15/35/13 16/24/13
f 28/28/42 14/63/42 41/29/42
f 16/24/43 21/36/43 22/31/43
f 19/32/44 32/53/44 35/33/44
f 15/35/17 20/43/17 21/36/17
f 20/37/18 15/57/18 34/38/18
f 22/31/19 21/36/19 26/40/19
f 19/41/20 24/46/20 25/42/20
f 1/21/21 23/65/21 18/44/21
f 20/43/22 25/42/22 26/40/22
f 18/44/23 23/65/23 24/46/23
f 27/47/24 26/50/24 4/6/24
f 24/48/25 2/9/25 3/4/25
f 25/49/26 3/4/26 4/6/26
f 23/51/27 1/7/27 2/9/27
f 13/17/1 17/1/1 5/3/1
f 31/52/28 32/53/28 36/39/28
f 31/52/45 33/55/45 35/33/45
f 30/54/46 14/56/46 33/55/46
f 18/34/31 35/33/31 33/55/31
f 19/32/47 20/37/47 36/39/47
f 30/54/48 31/52/48 34/38/48
f 37/58/49 38/27/49 42/26/49
f 37/58/35 39/30/35 41/29/35
f 29/60/50 37/58/50 40/59/50
f 11/61/37 40/59/37 42/26/37
f 30/25/51 38/27/51 41/29/51
f 29/60/52 28/28/52 39/30/52
v -1.525597 2.768851 -7.475368
v -1.510197 2.751893 -7.492598
v -1.502597 2.725653 -7.501276
v -1.504835 2.697162 -7.499078
v -1.516310 2.674053 -7.486591
v -1.516976 2.766592 -7.449155
v -1.495264 2.747981 -7.447196
v -1.485355 2.721136 -7.448850
v -1.489902 2.693250 -7.453675
v -1.507688 2.671794 -7.460378
v -1.522067 2.712733 -7.408257
v -1.521696 2.685973 -7.418520
v -1.526045 2.667593 -7.440081
v -1.562310 2.760448 -7.434774
v -1.576022 2.708848 -7.420089
v -1.568422 2.682608 -7.428768
v -1.553022 2.665651 -7.445998
v -1.570931 2.762707 -7.460988
v -1.588717 2.741251 -7.467690
v -1.593265 2.713365 -7.472516
v -1.583355 2.686520 -7.474170
v -1.561643 2.667909 -7.472211
v -1.552575 2.766908 -7.481285
v -1.556923 2.748528 -7.502846
v -1.556552 2.721768 -7.513109
v -1.551561 2.693797 -7.509326
v -1.543287 2.672111 -7.492508
v -1.535332 2.762390 -7.428858
v -1.527058 2.740704 -7.412040
v -1.573785 2.737339 -7.422288
v -1.621024 2.753410 -7.428626
v -1.622242 2.753729 -7.432330
v -1.586803 2.763654 -7.433826
v -1.603531 2.722969 -7.427842
v -1.591070 2.764772 -7.446802
v -1.610150 2.724704 -7.447968
v -1.554980 2.753309 -7.374510
v -1.566040 2.752513 -7.376936
v -1.554423 2.760648 -7.391706
v -1.553240 2.733495 -7.386189
v -1.559492 2.760283 -7.392818
v -1.558323 2.733129 -7.387304
vt 0.274240 0.539347
vt 0.265397 0.539709
vt 0.266768 0.532487
vt 0.231414 0.551290
vt 0.214659 0.541092
vt 0.231357 0.542861
vt 0.231940 0.569242
vt 0.215985 0.562822
vt 0.231472 0.559719
vt 0.230890 0.533338
vt 0.220414 0.530957
vt 0.213134 0.552274
vt 0.289666 0.544440
vt 0.282983 0.540904
vt 0.290637 0.536818
vt 0.279682 0.529141
vt 0.275518 0.536619
vt 0.273707 0.532162
vt 0.280945 0.538772
vt 0.286431 0.530872
vt 0.290637 0.551375
vt 0.284312 0.543753
vt 0.278488 0.537315
vt 0.276318 0.541045
vt 0.804698 0.251197
vt 0.792375 0.255919
vt 0.792638 0.252041
vt 0.786357 0.239035
vt 0.792578 0.249274
vt 0.791489 0.249454
vt 0.271776 0.541127
vt 0.760733 0.199751
vt 0.757502 0.209505
vt 0.750621 0.206121
vt 0.278108 0.542645
vt 0.273009 0.544115
vt 0.772804 0.201934
vt 0.766718 0.213101
vt 0.766203 0.208706
vt 0.264007 0.548518
vt 0.277612 0.547903
vt 0.268747 0.555467
vt 0.275021 0.546378
vt 0.280714 0.548498
vt 0.281954 0.545638
vt 0.276612 0.557409
vt 0.240880 0.530957
vt 0.248168 0.561486
vt 0.249693 0.550306
vt 0.246843 0.539760
vt 0.242415 0.571620
vt 0.762287 0.211045
vt 0.762255 0.210544
vt 0.761023 0.221925
vt 0.757316 0.212491
vt 0.750922 0.216572
vt 0.772804 0.220841
vt 0.791613 0.252007
vt 0.791097 0.255536
vt 0.780068 0.250772
vt 0.780487 0.263708
vt 0.804698 0.264828
vt 0.798786 0.238814
vt 0.221949 0.571626
vt 0.283377 0.553479
vn 0.0968 -0.9884 -0.1170
vn 0.9428 -0.0986 -0.3186
vn 0.6512 0.7439 -0.1501
vn 0.7780 -0.5502 -0.3033
vn 0.8990 0.3482 -0.2657
vn 0.4978 0.6421 0.5831
vn 0.6245 -0.6520 0.4299
vn 0.7012 0.2170 0.6791
vn -0.0968 0.9884 0.1170
vn 0.7450 -0.2298 0.6262
vn -0.0901 -0.7489 0.6565
vn -0.8186 -0.4880 0.3030
vn -0.1759 -0.3546 0.9183
vn -0.0738 0.9972 0.0089
vn -0.6512 -0.7439 0.1501
vn -0.4311 0.5747 -0.6956
vn -0.8990 -0.3482 0.2657
vn -0.4730 -0.8774 0.0800
vn -0.4977 -0.6421 -0.5831
vn -0.7450 0.2298 -0.6262
vn -0.7012 -0.2170 -0.6791
vn -0.6245 0.6520 -0.4299
vn 0.2168 -0.5452 -0.8098
vn 0.1759 0.3546 -0.9183
vn 0.2196 -0.0922 -0.9712
vn 0.0901 0.7489 -0.6566
vn -0.8450 -0.4795 0.2366
vn -0.2593 0.9512 0.1673
vn 0.0165 0.4083 0.9127
vn 0.1313 0.9904 0.0422
vn -0.7085 0.0824 -0.7009
vn -0.2258 0.0926 0.9698
vn -0.1486 -0.5118 0.8461
vn -0.1498 0.9111 0.3840
vn 0.6556 0.2149 0.7239
vn -0.0800 -0.7799 0.6208
vn -0.8805 0.4702 0.0610
vn 0.6974 0.6507 0.3003
vn 0.4977 0.6421 0.5831
vn 0.6246 -0.6520 0.4299
vn -0.0901 -0.7489 0.6566
vn -0.9052 0.1029 0.4124
vn -0.5041 0.5447 -0.6702
vn -0.4730 -0.8774 0.0799
vn -0.4978 -0.6421 -0.5831
vn -0.6246 0.6520 -0.4299
vn 0.2169 -0.5452 -0.8098
vn 0.1759 0.3547 -0.9183
vn 0.0900 0.7489 -0.6565
vn -0.8450 -0.4795 0.2367
vn -0.2593 0.9512 0.1672
vn 0.0919 0.4377 0.8944
vn 0.1313 0.9905 0.0422
vn -0.7491 0.2297 -0.6214
vn -0.1537 -0.0629 0.9861
vn -0.1488 -0.5118 0.8461
vn -0.1499 0.9111 0.3840
vn 0.7098 -0.3104 0.6323
vn -0.8151 0.5769 -0.0538
vn 0.7143 0.5782 0.3942
s off
f 59/66/53 69/67/53 47/68/53
f 45/69/54 51/70/54 46/71/54
f 43/72/55 49/73/55 44/74/55
f 47/75/56 51/70/56 52/76/56
f 44/74/57 50/77/57 45/69/57
f 48/78/58 71/79/58 49/80/58
f 51/81/59 55/82/59 52/83/59
f 49/80/60 53/84/60 50/85/60
f 43/86/61 70/87/61 48/78/61
f 50/85/62 54/88/62 51/81/62
f 55/82/63 58/89/63 59/66/63
f 72/90/64 84/91/64 80/92/64
f 53/84/65 58/89/65 54/88/65
f 70/93/66 83/94/66 81/95/66
f 58/89/67 64/96/67 59/66/67
f 61/97/68 77/98/68 60/99/68
f 57/100/69 63/101/69 58/89/69
f 62/102/70 76/103/70 78/104/70
f 64/96/71 68/105/71 69/67/71
f 61/106/72 67/107/72 62/108/72
f 43/86/61 60/109/61 56/110/61
f 62/108/73 68/105/73 63/101/73
f 60/109/74 66/111/74 61/106/74
f 69/112/75 46/71/75 47/75/75
f 66/113/76 45/69/76 67/114/76
f 67/114/77 46/71/77 68/115/77
f 65/116/78 44/74/78 66/113/78
f 55/82/53 47/68/53 52/83/53
f 73/117/79 78/104/79 76/103/79
f 73/117/80 77/98/80 74/118/80
f 72/119/81 75/120/81 73/117/81
f 60/99/82 75/120/82 56/121/82
f 61/97/83 78/104/83 74/118/83
f 72/119/84 76/103/84 57/122/84
f 79/123/85 84/91/85 82/124/85
f 79/123/86 83/94/86 80/92/86
f 71/125/87 82/124/87 53/126/87
f 53/126/88 84/91/88 57/127/88
f 72/90/89 83/94/89 56/128/89
f 71/125/90 81/95/90 79/123/90
f 59/66/53 64/96/53 69/67/53
f 45/69/54 50/77/54 51/70/54
f 43/72/55 48/129/55 49/73/55
f 47/75/56 46/71/56 51/70/56
f 44/74/57 49/73/57 50/77/57
f 48/78/91 70/87/91 71/79/91
f 51/81/92 54/88/92 55/82/92
f 49/80/60 71/79/60 53/84/60
f 43/86/61 56/110/61 70/87/61
f 50/85/62 53/84/62 54/88/62
f 55/82/93 54/88/93 58/89/93
f 72/90/94 57/127/94 84/91/94
f 53/84/65 57/100/65 58/89/65
f 70/93/66 56/128/66 83/94/66
f 58/89/67 63/101/67 64/96/67
f 61/97/95 74/118/95 77/98/95
f 57/100/69 62/108/69 63/101/69
f 62/102/96 57/122/96 76/103/96
f 64/96/97 63/101/97 68/105/97
f 61/106/72 66/111/72 67/107/72
f 43/86/61 65/130/61 60/109/61
f 62/108/73 67/107/73 68/105/73
f 60/109/98 65/130/98 66/111/98
f 69/112/99 68/115/99 46/71/99
f 66/113/100 44/74/100 45/69/100
f 67/114/77 45/69/77 46/71/77
f 65/116/101 43/72/101 44/74/101
f 55/82/53 59/66/53 47/68/53
f 73/117/102 74/118/102 78/104/102
f 73/117/103 75/120/103 77/98/103
f 72/119/104 56/121/104 75/120/104
f 60/99/105 77/98/105 75/120/105
f 61/97/106 62/102/106 78/104/106
f 72/119/107 73/117/107 76/103/107
f 79/123/108 80/92/108 84/91/108
f 79/123/109 81/95/109 83/94/109
f 71/125/110 79/123/110 82/124/110
f 53/126/88 82/124/88 84/91/88
f 72/90/111 80/92/111 83/94/111
f 71/125/112 70/93/112 81/95/112
v 0.755560 3.647210 -3.685000
v 0.769215 3.626470 -3.670682
v 0.768959 3.600807 -3.657917
v 0.754862 3.577097 -3.650125
v 0.730700 3.561694 -3.649395
v 0.736651 3.659419 -3.668878
v 0.736463 3.647618 -3.642757
v 0.731141 3.625226 -3.625672
v 0.722110 3.598245 -3.622200
v 0.711791 3.573904 -3.633272
v 0.679482 3.632516 -3.644233
v 0.677373 3.604558 -3.638275
v 0.685961 3.577548 -3.642553
v 0.703902 3.654499 -3.703561
v 0.665642 3.615386 -3.695039
v 0.665387 3.589723 -3.682274
v 0.679041 3.568983 -3.667956
v 0.722811 3.642289 -3.719684
v 0.712491 3.617948 -3.730756
v 0.703461 3.590966 -3.727284
v 0.698138 3.568575 -3.710199
v 0.697950 3.556773 -3.684078
v 0.748640 3.638644 -3.710403
v 0.757229 3.611635 -3.714681
v 0.755119 3.583677 -3.708723
v 0.742876 3.562262 -3.694124
v 0.723780 3.553129 -3.674798
v 0.710822 3.663064 -3.678158
v 0.691726 3.653931 -3.658832
v 0.679740 3.639096 -3.702831
v 0.672098 3.642789 -3.752409
v 0.674770 3.641063 -3.754687
v 0.694415 3.654092 -3.726385
v 0.666430 3.619630 -3.726624
v 0.703775 3.648048 -3.734365
v 0.680948 3.610256 -3.739003
v 0.654559 3.679051 -3.677124
v 0.651722 3.675540 -3.687539
v 0.671836 3.676988 -3.683988
v 0.656944 3.656563 -3.672579
v 0.670536 3.675379 -3.688761
v 0.655640 3.654949 -3.677366
vt 0.274240 0.539347
vt 0.265397 0.539709
vt 0.266768 0.532487
vt 0.231414 0.551290
vt 0.214659 0.541092
vt 0.231357 0.542861
vt 0.231940 0.569242
vt 0.215985 0.562822
vt 0.231472 0.559719
vt 0.230890 0.533338
vt 0.220414 0.530957
vt 0.213134 0.552274
vt 0.289666 0.544440
vt 0.282983 0.540904
vt 0.290637 0.536818
vt 0.279682 0.529141
vt 0.275518 0.536619
vt 0.273707 0.532162
vt 0.280945 0.538772
vt 0.286431 0.530872
vt 0.290637 0.551375
vt 0.284312 0.543753
vt 0.278488 0.537315
vt 0.276318 0.541045
vt 0.804698 0.251197
vt 0.792375 0.255919
vt 0.792638 0.252041
vt 0.786357 0.239035
vt 0.792578 0.249274
vt 0.791489 0.249454
vt 0.271776 0.541127
vt 0.760733 0.199751
vt 0.757502 0.209505
vt 0.750621 0.206121
vt 0.278108 0.542645
vt 0.273009 0.544115
vt 0.772804 0.201934
vt 0.766718 0.213101
vt 0.766203 0.208706
vt 0.264007 0.548518
vt 0.277612 0.547903
vt 0.268747 0.555467
vt 0.275021 0.546378
vt 0.280714 0.548498
vt 0.281954 0.545638
vt 0.276612 0.557409
vt 0.240880 0.530957
vt 0.248168 0.561486
vt 0.249693 0.550306
vt 0.246843 0.539760
vt 0.242415 0.571620
vt 0.762287 0.211045
vt 0.762255 0.210544
vt 0.761023 0.221925
vt 0.757316 0.212491
vt 0.750922 0.216572
vt 0.772804 0.220841
vt 0.791613 0.252007
vt 0.791097 0.255536
vt 0.780068 0.250772
vt 0.780487 0.263708
vt 0.804698 0.264828
vt 0.798786 0.238814
vt 0.221949 0.571626
vt 0.283377 0.553479
vn -0.2592 -0.8916 0.3712
vn 0.6067 -0.1016 0.7884
vn 0.6859 0.6613 0.3037
vn 0.3465 -0.5062 0.7898
vn 0.7238 0.3015 0.6206
vn -0.0193 0.9112 0.4116
vn -0.3587 -0.2562 0.8976
vn -0.1849 0.6236 0.7596
vn 0.2592 0.8916 -0.3712
vn -0.3021 0.2205 0.9274
vn -0.8749 -0.3338 0.3509
vn -0.7776 -0.3912 -0.4923
vn -0.9674 0.1205 0.2229
vn 0.3609 0.8495 -0.3847
vn -0.6859 -0.6613 -0.3037
vn 0.6249 0.0879 -0.7757
vn -0.7238 -0.3015 -0.6206
vn -0.6090 -0.7840 -0.1205
vn 0.0193 -0.9112 -0.4115
vn 0.3021 -0.2205 -0.9274
vn 0.1849 -0.6236 -0.7596
vn 0.3587 0.2562 -0.8976
vn 0.5355 -0.8336 0.1352
vn 0.9674 -0.1205 -0.2229
vn 0.8502 -0.5236 -0.0551
vn 0.8749 0.3338 -0.3509
vn -0.7304 -0.4205 -0.5382
vn 0.1368 0.8603 -0.4910
vn -0.5795 0.8012 0.1490
vn 0.4145 0.8904 -0.1882
vn 0.3194 -0.3783 -0.8689
vn -0.8514 0.5223 0.0490
vn -0.9598 -0.0458 0.2769
vn -0.0124 0.9485 -0.3164
vn -0.2412 0.6370 0.7322
vn -0.8538 -0.3765 0.3595
vn -0.2213 0.3033 -0.9268
vn 0.2978 0.8093 0.5063
vn -0.1849 0.6235 0.7596
vn -0.6667 0.1569 -0.7286
vn 0.3609 0.8495 -0.3848
vn 0.5623 0.0639 -0.8245
vn 0.0193 -0.9112 -0.4116
vn 0.1849 -0.6235 -0.7596
vn 0.3586 0.2562 -0.8976
vn -0.7305 -0.4205 -0.5382
vn 0.1369 0.8603 -0.4910
vn -0.5221 0.8285 0.2022
vn 0.4145 0.8904 -0.1881
vn 0.2964 -0.2188 -0.9296
vn -0.8975 0.4075 0.1687
vn -0.3537 0.1491 0.9234
vn -0.8538 -0.3765 0.3596
vn -0.0578 0.3482 -0.9356
vn 0.1986 0.7957 0.5722
s off
f 101/131/113 111/132/113 89/133/113
f 87/134/114 93/135/114 88/136/114
f 85/137/115 91/138/115 86/139/115
f 89/140/116 93/135/116 94/141/116
f 86/139/117 92/142/117 87/134/117
f 90/143/118 113/144/118 91/145/118
f 93/146/119 97/147/119 94/148/119
f 91/145/120 95/149/120 92/150/120
f 85/151/121 112/152/121 90/143/121
f 92/150/122 96/153/122 93/146/122
f 97/147/123 100/154/123 101/131/123
f 114/155/124 126/156/124 122/157/124
f 95/149/125 100/154/125 96/153/125
f 112/158/126 125/159/126 123/160/126
f 100/154/127 106/161/127 101/131/127
f 103/162/128 119/163/128 102/164/128
f 99/165/129 105/166/129 100/154/129
f 104/167/130 118/168/130 120/169/130
f 106/161/131 110/170/131 111/132/131
f 103/171/132 109/172/132 104/173/132
f 85/151/121 102/174/121 98/175/121
f 104/173/133 110/170/133 105/166/133
f 102/174/134 108/176/134 103/171/134
f 111/177/135 88/136/135 89/140/135
f 108/178/136 87/134/136 109/179/136
f 109/179/137 88/136/137 110/180/137
f 107/181/138 86/139/138 108/178/138
f 97/147/113 89/133/113 94/148/113
f 115/182/139 120/169/139 118/168/139
f 115/182/140 119/163/140 116/183/140
f 114/184/141 117/185/141 115/182/141
f 102/164/142 117/185/142 98/186/142
f 103/162/143 120/169/143 116/183/143
f 114/184/144 118/168/144 99/187/144
f 121/188/145 126/156/145 124/189/145
f 121/188/146 125/159/146 122/157/146
f 113/190/147 124/189/147 95/191/147
f 95/191/148 126/156/148 99/192/148
f 114/155/149 125/159/149 98/193/149
f 113/190/150 123/160/150 121/188/150
f 101/131/113 106/161/113 111/132/113
f 87/134/114 92/142/114 93/135/114
f 85/137/115 90/194/115 91/138/115
f 89/140/116 88/136/116 93/135/116
f 86/139/117 91/138/117 92/142/117
f 90/143/118 112/152/118 113/144/118
f 93/146/119 96/153/119 97/147/119
f 91/145/151 113/144/151 95/149/151
f 85/151/121 98/175/121 112/152/121
f 92/150/122 95/149/122 96/153/122
f 97/147/123 96/153/123 100/154/123
f 114/155/152 99/192/152 126/156/152
f 95/149/125 99/165/125 100/154/125
f 112/158/153 98/193/153 125/159/153
f 100/154/127 105/166/127 106/161/127
f 103/162/154 116/183/154 119/163/154
f 99/165/129 104/173/129 105/166/129
f 104/167/130 99/187/130 118/168/130
f 106/161/155 105/166/155 110/170/155
f 103/171/132 108/176/132 109/172/132
f 85/151/121 107/195/121 102/174/121
f 104/173/156 109/172/156 110/170/156
f 102/174/157 107/195/157 108/176/157
f 111/177/135 110/180/135 88/136/135
f 108/178/136 86/139/136 87/134/136
f 109/179/137 87/134/137 88/136/137
f 107/181/138 85/137/138 86/139/138
f 97/147/113 101/131/113 89/133/113
f 115/182/158 116/183/158 120/169/158
f 115/182/159 117/185/159 119/163/159
f 114/184/160 98/186/160 117/185/160
f 102/164/161 119/163/161 117/185/161
f 103/162/162 104/167/162 120/169/162
f 114/184/163 115/182/163 118/168/163
f 121/188/145 122/157/145 126/156/145
f 121/188/146 123/160/146 125/159/146
f 113/190/164 121/188/164 124/189/164
f 95/191/165 124/189/165 126/156/165
f 114/155/166 122/157/166 125/159/166
f 113/190/167 112/158/167 123/160/167
