# Blender v2.81 (sub 16) OBJ File: 'garbage.blend'
# www.blender.org
v -2.678270 2.961595 -0.844608
v -2.662507 2.938170 -0.849548
v -2.660038 2.909624 -0.850338
v -2.671524 2.883606 -0.846768
v -2.693887 2.867088 -0.839794
v -2.684140 2.963939 -0.817652
v -2.672676 2.942229 -0.802859
v -2.671779 2.914310 -0.796427
v -2.681692 2.887665 -0.800079
v -2.699757 2.869431 -0.812838
v -2.723860 2.923746 -0.780152
v -2.726795 2.895836 -0.785985
v -2.725797 2.874149 -0.804700
v -2.730350 2.971030 -0.828333
v -2.764199 2.928494 -0.817788
v -2.761729 2.899948 -0.818579
v -2.745967 2.876523 -0.823519
v -2.724479 2.968687 -0.855289
v -2.742544 2.950453 -0.868047
v -2.752457 2.923808 -0.871700
v -2.751561 2.895889 -0.865268
v -2.740096 2.874179 -0.850474
v -2.698439 2.963969 -0.863426
v -2.697441 2.942282 -0.882142
v -2.700377 2.914372 -0.887975
v -2.706458 2.887718 -0.879362
v -2.714056 2.869462 -0.858612
v -2.710181 2.968656 -0.809515
v -2.717778 2.950400 -0.788765
v -2.752713 2.954512 -0.821359
v -2.784049 2.978096 -0.852852
v -2.783219 2.977765 -0.856662
v -2.750137 2.979413 -0.840552
v -2.779097 2.945769 -0.840056
v -2.747231 2.978253 -0.853895
v -2.774590 2.943970 -0.860752
v -2.754790 2.977182 -0.772644
v -2.763059 2.978156 -0.780359
v -2.744021 2.979900 -0.787694
v -2.753828 2.955232 -0.779667
v -2.747811 2.980346 -0.791230
v -2.757629 2.955680 -0.783213
vt 0.274240 0.539347
vt 0.265397 0.539709
vt 0.266768 0.532487
vt 0.231414 0.551290
vt 0.214659 0.541092
vt 0.231357 0.542861
vt 0.231940 0.569242
vt 0.215985 0.562822
vt 0.231472 0.559719
vt 0.230890 0.533338
vt 0.220414 0.530957
vt 0.213134 0.552274
vt 0.289666 0.544440
vt 0.282983 0.540904
vt 0.290637 0.536818
vt 0.279682 0.529141
vt 0.275518 0.536619
vt 0.273707 0.532162
vt 0.280945 0.538772
vt 0.286431 0.530872
vt 0.290637 0.551375
vt 0.284312 0.543753
vt 0.278488 0.537315
vt 0.276318 0.541045
vt 0.804698 0.251197
vt 0.792375 0.255919
vt 0.792638 0.252041
vt 0.786357 0.239035
vt 0.792578 0.249274
vt 0.791489 0.249454
vt 0.271776 0.541127
vt 0.760733 0.199751
vt 0.757502 0.209505
vt 0.750621 0.206121
vt 0.278108 0.542645
vt 0.273009 0.544115
vt 0.772804 0.201934
vt 0.766718 0.213101
vt 0.766203 0.208706
vt 0.264007 0.548518
vt 0.277612 0.547903
vt 0.268747 0.555467
vt 0.275021 0.546378
vt 0.280714 0.548498
vt 0.281954 0.545638
vt 0.276612 0.557409
vt 0.240880 0.530957
vt 0.248168 0.561486
vt 0.249693 0.550306
vt 0.246843 0.539760
vt 0.242415 0.571620
vt 0.762287 0.211045
vt 0.762255 0.210544
vt 0.761023 0.221925
vt 0.757316 0.212491
vt 0.750922 0.216572
vt 0.772804 0.220841
vt 0.791613 0.252007
vt 0.791097 0.255536
vt 0.780068 0.250772
vt 0.780487 0.263708
vt 0.804698 0.264828
vt 0.798786 0.238814
vt 0.221949 0.571626
vt 0.283377 0.553479
vn -0.1628 -0.9854 0.0502
vn 0.9019 -0.3668 0.2283
vn 0.8350 0.5333 0.1355
vn 0.6218 -0.7569 0.2012
vn 0.9755 0.0787 0.2056
vn 0.3320 0.6446 0.6887
vn 0.1188 -0.6456 0.7544
vn 0.3273 0.2221 0.9185
vn 0.1628 0.9854 -0.0502
vn 0.2536 -0.2234 0.9412
vn -0.6096 -0.5338 0.5860
vn -0.9685 -0.2190 -0.1181
vn -0.6850 -0.0793 0.7242
vn 0.2355 0.9630 -0.1309
vn -0.8350 -0.5333 -0.1355
vn 0.1434 0.4681 -0.8720
vn -0.9755 -0.0787 -0.2056
vn -0.6945 -0.7139 -0.0892
vn -0.3320 -0.6446 -0.6887
vn -0.2536 0.2234 -0.9412
vn -0.3273 -0.2221 -0.9185
vn -0.1188 0.6456 -0.7544
vn 0.3964 -0.7564 -0.5203
vn 0.6850 0.0793 -0.7242
vn 0.6114 -0.3662 -0.7015
vn 0.6096 0.5338 -0.5861
vn -0.9567 -0.2214 -0.1891
vn -0.0067 0.9961 -0.0881
vn -0.2927 0.6026 0.7425
vn 0.3878 0.9217 0.0043
vn -0.2328 0.0581 -0.9708
vn -0.6157 0.3675 0.6970
vn -0.6760 -0.2513 0.6928
vn -0.0300 0.9872 0.1568
vn 0.2677 0.2404 0.9330
vn -0.5938 -0.5738 0.5640
vn -0.6169 0.6443 -0.4521
vn 0.6332 0.5433 0.5512
vn 0.9018 -0.3668 0.2283
vn -0.9136 0.3855 -0.1295
vn 0.0618 0.4611 -0.8852
vn 0.6096 0.5338 -0.5860
vn -0.0067 0.9961 -0.0880
vn -0.2127 0.6102 0.7631
vn -0.2594 0.2252 -0.9392
vn -0.6106 0.2089 0.7639
vn -0.0301 0.9872 0.1568
vn 0.1973 -0.2909 0.9362
vn -0.5938 -0.5739 0.5640
vn -0.4764 0.7043 -0.5264
vn 0.5812 0.4935 0.6470
s off
f 17/1/1 27/2/1 5/3/1
f 3/4/2 9/5/2 4/6/2
f 1/7/3 7/8/3 2/9/3
f 5/10/4 9/5/4 10/11/4
f 2/9/5 8/12/5 3/4/5
f 6/13/6 29/14/6 7/15/6
f 9/16/7 13/17/7 10/18/7
f 7/15/8 11/19/8 8/20/8
f 1/21/9 28/22/9 6/13/9
f 8/20/10 12/23/10 9/16/10
f 13/17/11 16/24/11 17/1/11
f 30/25/12 42/26/12 38/27/12
f 11/19/13 16/24/13 12/23/13
f 28/28/14 41/29/14 39/30/14
f 16/24/15 22/31/15 17/1/15
f 19/32/16 35/33/16 18/34/16
f 15/35/17 21/36/17 16/24/17
f 20/37/18 34/38/18 36/39/18
f 22/31/19 26/40/19 27/2/19
f 19/41/20 25/42/20 20/43/20
f 1/21/9 18/44/9 14/45/9
f 20/43/21 26/40/21 21/36/21
f 18/44/22 24/46/22 19/41/22
f 27/47/23 4/6/23 5/10/23
f 24/48/24 3/4/24 25/49/24
f 25/49/25 4/6/25 26/50/25
f 23/51/26 2/9/26 24/48/26
f 13/17/1 5/3/1 10/18/1
f 31/52/27 36/39/27 34/38/27
f 31/52/28 35/33/28 32/53/28
f 30/54/29 33/55/29 31/52/29
f 18/34/30 33/55/30 14/56/30
f 19/32/31 36/39/31 32/53/31
f 30/54/32 34/38/32 15/57/32
f 37/58/33 42/26/33 40/59/33
f 37/58/34 41/29/34 38/27/34
f 29/60/35 40/59/35 11/61/35
f 11/61/36 42/26/36 15/62/36
f 30/25/37 41/29/37 14/63/37
f 29/60/38 39/30/38 37/58/38
f 17/1/1 22/31/1 27/2/1
f 3/4/39 8/12/39 9/5/39
f 1/7/3 6/64/3 7/8/3
f 5/10/4 4/6/4 9/5/4
f 2/9/5 7/8/5 8/12/5
f 6/13/6 28/22/6 29/14/6
f 9/16/7 12/23/7 13/17/7
f 7/15/8 29/14/8 11/19/8
f 1/21/9 14/45/9 28/22/9
f 8/20/10 11/19/10 12/23/10
f 13/17/11 12/23/11 16/24/11
f 30/25/40 15/62/40 42/26/40
f 11/19/13 15/35/13 16/24/13
f 28/28/14 14/63/14 41/29/14
f 16/24/15 21/36/15 22/31/15
f 19/32/41 32/53/41 35/33/41
f 15/35/17 20/43/17 21/36/17
f 20/37/18 15/57/18 34/38/18
f 22/31/19 21/36/19 26/40/19
f 19/41/20 24/46/20 25/42/20
f 1/21/9 23/65/9 18/44/9
f 20/43/21 25/42/21 26/40/21
f 18/44/22 23/65/22 24/46/22
f 27/47/23 26/50/23 4/6/23
f 24/48/24 2/9/24 3/4/24
f 25/49/25 3/4/25 4/6/25
f 23/51/42 1/7/42 2/9/42
f 13/17/1 17/1/1 5/3/1
f 31/52/27 32/53/27 36/39/27
f 31/52/43 33/55/43 35/33/43
f 30/54/44 14/56/44 33/55/44
f 18/34/30 35/33/30 33/55/30
f 19/32/45 20/37/45 36/39/45
f 30/54/46 31/52/46 34/38/46
f 37/58/33 38/27/33 42/26/33
f 37/58/47 39/30/47 41/29/47
f 29/60/48 37/58/48 40/59/48
f 11/61/49 40/59/49 42/26/49
f 30/25/50 38/27/50 41/29/50
f 29/60/51 28/28/51 39/30/51
v -3.340011 3.316349 -1.230471
v -3.346619 3.290558 -1.241088
v -3.343313 3.262085 -1.240996
v -3.330979 3.238562 -1.230221
v -3.312921 3.226290 -1.211649
v -3.313806 3.322980 -1.236463
v -3.301231 3.302042 -1.251465
v -3.290903 3.275346 -1.252979
v -3.285590 3.250046 -1.240598
v -3.286716 3.232921 -1.217640
v -3.257208 3.293815 -1.213107
v -3.256409 3.266041 -1.206068
v -3.269868 3.242155 -1.197704
v -3.306315 3.334818 -1.190599
v -3.275923 3.299023 -1.161252
v -3.272617 3.270551 -1.161161
v -3.279225 3.244759 -1.171777
v -3.332520 3.328188 -1.184608
v -3.333646 3.311063 -1.161650
v -3.328333 3.285763 -1.149270
v -3.318005 3.259067 -1.150783
v -3.305430 3.238129 -1.165786
v -3.349368 3.318954 -1.204544
v -3.362827 3.295068 -1.196181
v -3.362028 3.267294 -1.189142
v -3.347186 3.243073 -1.185313
v -3.322278 3.228894 -1.185722
v -3.296958 3.332214 -1.216527
v -3.272050 3.318036 -1.216935
v -3.288257 3.322546 -1.172028
v -3.308312 3.345834 -1.132210
v -3.312016 3.344897 -1.131364
v -3.310931 3.344135 -1.168173
v -3.293090 3.315093 -1.139728
v -3.323903 3.340853 -1.165207
v -3.313210 3.310002 -1.135128
v -3.247516 3.351475 -1.191895
v -3.251352 3.352542 -1.181266
v -3.265828 3.350709 -1.195632
v -3.250381 3.328868 -1.188319
v -3.267586 3.351199 -1.190761
v -3.252144 3.329359 -1.183434
vt 0.274240 0.539347
vt 0.265397 0.539709
vt 0.266768 0.532487
vt 0.231414 0.551290
vt 0.214659 0.541092
vt 0.231357 0.542861
vt 0.231940 0.569242
vt 0.215985 0.562822
vt 0.231472 0.559719
vt 0.230890 0.533338
vt 0.220414 0.530957
vt 0.213134 0.552274
vt 0.289666 0.544440
vt 0.282983 0.540904
vt 0.290637 0.536818
vt 0.279682 0.529141
vt 0.275518 0.536619
vt 0.273707 0.532162
vt 0.280945 0.538772
vt 0.286431 0.530872
vt 0.290637 0.551375
vt 0.284312 0.543753
vt 0.278488 0.537315
vt 0.276318 0.541045
vt 0.804698 0.251197
vt 0.792375 0.255919
vt 0.792638 0.252041
vt 0.786357 0.239035
vt 0.792578 0.249274
vt 0.791489 0.249454
vt 0.271776 0.541127
vt 0.760733 0.199751
vt 0.757502 0.209505
vt 0.750621 0.206121
vt 0.278108 0.542645
vt 0.273009 0.544115
vt 0.772804 0.201934
vt 0.766718 0.213101
vt 0.766203 0.208706
vt 0.264007 0.548518
vt 0.277612 0.547903
vt 0.268747 0.555467
vt 0.275021 0.546378
vt 0.280714 0.548498
vt 0.281954 0.545638
vt 0.276612 0.557409
vt 0.240880 0.530957
vt 0.248168 0.561486
vt 0.249693 0.550306
vt 0.246843 0.539760
vt 0.242415 0.571620
vt 0.762287 0.211045
vt 0.762255 0.210544
vt 0.761023 0.221925
vt 0.757316 0.212491
vt 0.750922 0.216572
vt 0.772804 0.220841
vt 0.791613 0.252007
vt 0.791097 0.255536
vt 0.780068 0.250772
vt 0.780487 0.263708
vt 0.804698 0.264828
vt 0.798786 0.238814
vt 0.221949 0.571626
vt 0.283377 0.553479
vn 0.2824 -0.9390 0.1962
vn -0.0883 -0.4527 -0.8873
vn -0.3030 0.4281 -0.8514
vn 0.0668 -0.8013 -0.5945
vn -0.2160 -0.0282 -0.9760
vn 0.3757 0.6782 -0.6316
vn 0.7455 -0.5512 -0.3747
vn 0.6585 0.2940 -0.6927
vn -0.2824 0.9390 -0.1962
vn 0.7862 -0.1305 -0.6040
vn 0.8636 -0.3646 0.3483
vn 0.3166 -0.0991 0.9434
vn 0.9384 0.1100 0.3276
vn -0.3801 0.8966 -0.2272
vn 0.3030 -0.4281 0.8514
vn -0.9244 0.3260 0.1978
vn 0.2160 0.0282 0.9760
vn 0.3205 -0.6185 0.7174
vn -0.3757 -0.6782 0.6316
vn -0.7862 0.1305 0.6040
vn -0.2824 0.9390 -0.1963
vn -0.6585 -0.2940 0.6927
vn -0.7455 0.5512 0.3747
vn -0.4937 -0.8648 -0.0913
vn -0.9384 -0.1100 -0.3276
vn -0.8107 -0.5345 -0.2389
vn -0.8636 0.3646 -0.3483
vn 0.2824 -0.9390 0.1963
vn 0.2484 -0.1123 0.9621
vn -0.2511 0.9676 -0.0274
vn 0.6796 0.7288 -0.0839
vn -0.3115 0.8531 -0.4185
vn -0.7923 -0.0386 0.6089
vn 0.8082 0.5358 0.2446
vn 0.9366 -0.0642 0.3445
vn -0.0197 0.9941 -0.1070
vn 0.6921 0.3220 -0.6460
vn 0.8444 -0.4090 0.3458
vn -0.2750 0.6572 0.7017
vn 0.1499 0.5198 -0.8410
vn 0.2825 -0.9390 0.1962
vn 0.7455 -0.5513 -0.3747
vn 0.6585 0.2941 -0.6927
vn -0.2825 0.9390 -0.1962
vn 0.1787 0.4857 0.8557
vn -0.3802 0.8966 -0.2272
vn -0.9027 0.3284 0.2778
vn -0.7455 0.5513 0.3747
vn -0.4938 -0.8648 -0.0913
vn 0.2483 -0.1123 0.9622
vn 0.6651 0.7281 -0.1656
vn -0.3116 0.8531 -0.4185
vn -0.7825 0.1333 0.6082
vn 0.8941 0.3881 0.2234
vn 0.8160 -0.1898 -0.5460
vn 0.8445 -0.4090 0.3459
vn -0.4083 0.6873 0.6007
vn 0.2656 0.4905 -0.8299
s off
f 59/66/52 69/67/52 47/68/52
f 45/69/53 51/70/53 46/71/53
f 43/72/54 49/73/54 44/74/54
f 47/75/55 51/70/55 52/76/55
f 44/74/56 50/77/56 45/69/56
f 48/78/57 71/79/57 49/80/57
f 51/81/58 55/82/58 52/83/58
f 49/80/59 53/84/59 50/85/59
f 43/86/60 70/87/60 48/78/60
f 50/85/61 54/88/61 51/81/61
f 55/82/62 58/89/62 59/66/62
f 72/90/63 84/91/63 80/92/63
f 53/84/64 58/89/64 54/88/64
f 70/93/65 83/94/65 81/95/65
f 58/89/66 64/96/66 59/66/66
f 61/97/67 77/98/67 60/99/67
f 57/100/68 63/101/68 58/89/68
f 62/102/69 76/103/69 78/104/69
f 64/96/70 68/105/70 69/67/70
f 61/106/71 67/107/71 62/108/71
f 43/86/72 60/109/72 56/110/72
f 62/108/73 68/105/73 63/101/73
f 60/109/74 66/111/74 61/106/74
f 69/112/75 46/71/75 47/75/75
f 66/113/76 45/69/76 67/114/76
f 67/114/77 46/71/77 68/115/77
f 65/116/78 44/74/78 66/113/78
f 55/82/79 47/68/79 52/83/79
f 73/117/80 78/104/80 76/103/80
f 73/117/81 77/98/81 74/118/81
f 72/119/82 75/120/82 73/117/82
f 60/99/83 75/120/83 56/121/83
f 61/97/84 78/104/84 74/118/84
f 72/119/85 76/103/85 57/122/85
f 79/123/86 84/91/86 82/124/86
f 79/123/87 83/94/87 80/92/87
f 71/125/88 82/124/88 53/126/88
f 53/126/89 84/91/89 57/127/89
f 72/90/90 83/94/90 56/128/90
f 71/125/91 81/95/91 79/123/91
f 59/66/92 64/96/92 69/67/92
f 45/69/53 50/77/53 51/70/53
f 43/72/54 48/129/54 49/73/54
f 47/75/55 46/71/55 51/70/55
f 44/74/56 49/73/56 50/77/56
f 48/78/57 70/87/57 71/79/57
f 51/81/93 54/88/93 55/82/93
f 49/80/94 71/79/94 53/84/94
f 43/86/95 56/110/95 70/87/95
f 50/85/61 53/84/61 54/88/61
f 55/82/62 54/88/62 58/89/62
f 72/90/96 57/127/96 84/91/96
f 53/84/64 57/100/64 58/89/64
f 70/93/97 56/128/97 83/94/97
f 58/89/66 63/101/66 64/96/66
f 61/97/98 74/118/98 77/98/98
f 57/100/68 62/108/68 63/101/68
f 62/102/69 57/122/69 76/103/69
f 64/96/70 63/101/70 68/105/70
f 61/106/71 66/111/71 67/107/71
f 43/86/72 65/130/72 60/109/72
f 62/108/73 67/107/73 68/105/73
f 60/109/99 65/130/99 66/111/99
f 69/112/100 68/115/100 46/71/100
f 66/113/76 44/74/76 45/69/76
f 67/114/77 45/69/77 46/71/77
f 65/116/78 43/72/78 44/74/78
f 55/82/92 59/66/92 47/68/92
f 73/117/101 74/118/101 78/104/101
f 73/117/81 75/120/81 77/98/81
f 72/119/102 56/121/102 75/120/102
f 60/99/103 77/98/103 75/120/103
f 61/97/104 62/102/104 78/104/104
f 72/119/105 73/117/105 76/103/105
f 79/123/86 80/92/86 84/91/86
f 79/123/87 81/95/87 83/94/87
f 71/125/106 79/123/106 82/124/106
f 53/126/107 82/124/107 84/91/107
f 72/90/108 80/92/108 83/94/108
f 71/125/109 70/93/109 81/95/109
v -1.040529 4.582563 -2.117769
v -1.039466 4.568504 -2.142725
v -1.039128 4.543841 -2.157328
v -1.039607 4.515184 -2.157665
v -1.040774 4.490210 -2.143645
v -1.017350 4.578422 -2.103205
v -0.999318 4.561330 -2.117499
v -0.992769 4.535557 -2.128199
v -0.999459 4.508009 -2.132438
v -1.017594 4.486068 -2.129081
v -0.995816 4.520648 -2.074958
v -1.002098 4.495098 -2.086330
v -1.019118 4.478613 -2.102460
v -1.043576 4.567654 -2.064528
v -1.045222 4.514023 -2.050845
v -1.044884 4.489360 -2.065447
v -1.043821 4.475301 -2.090403
v -1.066756 4.571796 -2.079092
v -1.084891 4.549855 -2.075734
v -1.091581 4.522307 -2.079973
v -1.085032 4.496534 -2.090674
v -1.067000 4.479443 -2.104968
v -1.065232 4.579251 -2.105713
v -1.082252 4.562767 -2.121843
v -1.088534 4.537216 -2.133215
v -1.082394 4.509446 -2.136782
v -1.065477 4.486897 -2.131588
v -1.018873 4.570967 -2.076584
v -1.001956 4.548418 -2.071391
v -1.044743 4.542680 -2.050508
v -1.085386 4.555823 -2.023949
v -1.088662 4.556409 -2.026007
v -1.062008 4.568971 -2.048108
v -1.071424 4.526796 -2.037939
v -1.073482 4.571022 -2.055317
v -1.089221 4.529976 -2.049121
v -1.000006 4.555296 -2.023475
v -1.010133 4.553938 -2.018532
v -1.010357 4.564277 -2.036205
v -1.006083 4.536876 -2.035958
v -1.014998 4.563654 -2.033940
v -1.010738 4.536252 -2.033686
vt 0.274240 0.539347
vt 0.265397 0.539709
vt 0.266768 0.532487
vt 0.231414 0.551290
vt 0.214659 0.541092
vt 0.231357 0.542861
vt 0.231940 0.569242
vt 0.215985 0.562822
vt 0.231472 0.559719
vt 0.230890 0.533338
vt 0.220414 0.530957
vt 0.213134 0.552274
vt 0.289666 0.544440
vt 0.282983 0.540904
vt 0.290637 0.536818
vt 0.279682 0.529141
vt 0.275518 0.536619
vt 0.273707 0.532162
vt 0.280945 0.538772
vt 0.286431 0.530872
vt 0.290637 0.551375
vt 0.284312 0.543753
vt 0.278488 0.537315
vt 0.276318 0.541045
vt 0.804698 0.251197
vt 0.792375 0.255919
vt 0.792638 0.252041
vt 0.786357 0.239035
vt 0.792578 0.249274
vt 0.791489 0.249454
vt 0.271776 0.541127
vt 0.760733 0.199751
vt 0.757502 0.209505
vt 0.750621 0.206121
vt 0.278108 0.542645
vt 0.273009 0.544115
vt 0.772804 0.201934
vt 0.766718 0.213101
vt 0.766203 0.208706
vt 0.264007 0.548518
vt 0.277612 0.547903
vt 0.268747 0.555467
vt 0.275021 0.546378
vt 0.280714 0.548498
vt 0.281954 0.545638
vt 0.276612 0.557409
vt 0.240880 0.530957
vt 0.248168 0.561486
vt 0.249693 0.550306
vt 0.246843 0.539760
vt 0.242415 0.571620
vt 0.762287 0.211045
vt 0.762255 0.210544
vt 0.761023 0.221925
vt 0.757316 0.212491
vt 0.750922 0.216572
vt 0.772804 0.220841
vt 0.791613 0.252007
vt 0.791097 0.255536
vt 0.780068 0.250772
vt 0.780487 0.263708
vt 0.804698 0.264828
vt 0.798786 0.238814
vt 0.221949 0.571626
vt 0.283377 0.553479
vn -0.0026 -0.9629 -0.2698
vn 0.5322 0.0011 -0.8466
vn 0.4151 0.8001 -0.4331
vn 0.4117 -0.4606 -0.7863
vn 0.5333 0.4364 -0.7247
vn 0.7565 0.6173 0.2162
vn 0.7531 -0.6435 -0.1371
vn 0.9732 0.2008 0.1119
vn 0.0025 0.9629 0.2698
vn 0.9721 -0.2345 -0.0100
vn 0.3397 -0.8132 0.4726
vn -0.4479 -0.5729 0.6865
vn 0.4393 -0.4532 0.7756
vn -0.0475 0.9838 0.1730
vn -0.4151 -0.8001 0.4331
vn -0.7702 0.6063 -0.1982
vn -0.5333 -0.4364 0.7247
vn -0.3212 -0.9130 0.2515
vn -0.7564 -0.6173 -0.2161
vn -0.9721 0.2345 0.0100
vn 0.0026 0.9629 0.2698
vn -0.9732 -0.2008 -0.1119
vn -0.7531 0.6434 0.1371
vn -0.3430 -0.4476 -0.8258
vn -0.4393 0.4532 -0.7756
vn -0.4405 0.0179 -0.8976
vn -0.3397 0.8132 -0.4726
vn -0.5102 -0.5600 0.6527
vn -0.0923 0.9094 0.4056
vn 0.5886 0.3187 0.7430
vn 0.1328 0.9887 0.0698
vn -0.9913 0.0980 -0.0881
vn 0.4348 -0.0178 0.9004
vn 0.4144 -0.6003 0.6840
vn 0.1289 0.8567 0.4995
vn 0.9659 0.1911 0.1748
vn 0.3249 -0.8398 0.4350
vn -0.6442 0.3971 0.6537
vn 0.7338 0.6676 -0.1257
vn -0.0025 -0.9629 -0.2698
vn 0.5322 0.0010 -0.8466
vn 0.4117 -0.4607 -0.7863
vn 0.7564 0.6173 0.2161
vn 0.7531 -0.6434 -0.1371
vn -0.4439 -0.0031 0.8961
vn -0.8111 0.5688 -0.1365
vn -0.7564 -0.6173 -0.2162
vn -0.7531 0.6435 0.1371
vn 0.6359 0.3550 0.6853
vn -0.9722 0.2336 0.0163
vn 0.5004 -0.1686 0.8492
vn 0.4143 -0.6003 0.6841
vn 0.1288 0.8566 0.4996
vn 0.9482 -0.3176 0.0070
vn 0.3250 -0.8398 0.4350
vn -0.6650 0.5188 0.5372
vn 0.8058 0.5878 -0.0726
s off
f 101/131/110 111/132/110 89/133/110
f 87/134/111 93/135/111 88/136/111
f 85/137/112 91/138/112 86/139/112
f 89/140/113 93/135/113 94/141/113
f 86/139/114 92/142/114 87/134/114
f 90/143/115 113/144/115 91/145/115
f 93/146/116 97/147/116 94/148/116
f 91/145/117 95/149/117 92/150/117
f 85/151/118 112/152/118 90/143/118
f 92/150/119 96/153/119 93/146/119
f 97/147/120 100/154/120 101/131/120
f 114/155/121 126/156/121 122/157/121
f 95/149/122 100/154/122 96/153/122
f 112/158/123 125/159/123 123/160/123
f 100/154/124 106/161/124 101/131/124
f 103/162/125 119/163/125 102/164/125
f 99/165/126 105/166/126 100/154/126
f 104/167/127 118/168/127 120/169/127
f 106/161/128 110/170/128 111/132/128
f 103/171/129 109/172/129 104/173/129
f 85/151/130 102/174/130 98/175/130
f 104/173/131 110/170/131 105/166/131
f 102/174/132 108/176/132 103/171/132
f 111/177/133 88/136/133 89/140/133
f 108/178/134 87/134/134 109/179/134
f 109/179/135 88/136/135 110/180/135
f 107/181/136 86/139/136 108/178/136
f 97/147/110 89/133/110 94/148/110
f 115/182/137 120/169/137 118/168/137
f 115/182/138 119/163/138 116/183/138
f 114/184/139 117/185/139 115/182/139
f 102/164/140 117/185/140 98/186/140
f 103/162/141 120/169/141 116/183/141
f 114/184/142 118/168/142 99/187/142
f 121/188/143 126/156/143 124/189/143
f 121/188/144 125/159/144 122/157/144
f 113/190/145 124/189/145 95/191/145
f 95/191/146 126/156/146 99/192/146
f 114/155/147 125/159/147 98/193/147
f 113/190/148 123/160/148 121/188/148
f 101/131/149 106/161/149 111/132/149
f 87/134/150 92/142/150 93/135/150
f 85/137/112 90/194/112 91/138/112
f 89/140/151 88/136/151 93/135/151
f 86/139/114 91/138/114 92/142/114
f 90/143/152 112/152/152 113/144/152
f 93/146/153 96/153/153 97/147/153
f 91/145/117 113/144/117 95/149/117
f 85/151/130 98/175/130 112/152/130
f 92/150/119 95/149/119 96/153/119
f 97/147/120 96/153/120 100/154/120
f 114/155/154 99/192/154 126/156/154
f 95/149/122 99/165/122 100/154/122
f 112/158/123 98/193/123 125/159/123
f 100/154/124 105/166/124 106/161/124
f 103/162/155 116/183/155 119/163/155
f 99/165/126 104/173/126 105/166/126
f 104/167/127 99/187/127 118/168/127
f 106/161/156 105/166/156 110/170/156
f 103/171/129 108/176/129 109/172/129
f 85/151/118 107/195/118 102/174/118
f 104/173/131 109/172/131 110/170/131
f 102/174/157 107/195/157 108/176/157
f 111/177/133 110/180/133 88/136/133
f 108/178/134 86/139/134 87/134/134
f 109/179/135 87/134/135 88/136/135
f 107/181/136 85/137/136 86/139/136
f 97/147/110 101/131/110 89/133/110
f 115/182/137 116/183/137 120/169/137
f 115/182/138 117/185/138 119/163/138
f 114/184/158 98/186/158 117/185/158
f 102/164/140 119/163/140 117/185/140
f 103/162/159 104/167/159 120/169/159
f 114/184/160 115/182/160 118/168/160
f 121/188/161 122/157/161 126/156/161
f 121/188/162 123/160/162 125/159/162
f 113/190/163 121/188/163 124/189/163
f 95/191/164 124/189/164 126/156/164
f 114/155/165 122/157/165 125/159/165
f 113/190/166 112/158/166 123/160/166
