# Blender v2.81 (sub 16) OBJ File: 'garbage.blend'
# www.blender.org
v -1.475454 2.861096 4.124904
v -1.484683 2.834707 4.118578
v -1.481564 2.806261 4.120217
v -1.466932 2.783380 4.129381
v -1.444707 2.772196 4.143614
v -1.451686 2.866558 4.111796
v -1.443516 2.844167 4.095875
v -1.434028 2.817184 4.094001
v -1.425764 2.792840 4.106677
v -1.420939 2.777658 4.130506
v -1.391061 2.837955 4.122085
v -1.388554 2.810828 4.130998
v -1.399456 2.788043 4.144547
v -1.432487 2.881867 4.152987
v -1.395630 2.847802 4.176384
v -1.392511 2.819356 4.178023
v -1.401740 2.792966 4.171697
v -1.456255 2.876405 4.166096
v -1.451430 2.861223 4.189924
v -1.443166 2.836879 4.202600
v -1.433678 2.809896 4.200726
v -1.425508 2.787505 4.184805
v -1.477738 2.866020 4.152054
v -1.488640 2.843235 4.165603
v -1.486133 2.816108 4.174516
v -1.470889 2.791908 4.176405
v -1.446992 2.777119 4.170763
v -1.430202 2.876943 4.125838
v -1.406306 2.862155 4.120196
v -1.410263 2.870683 4.167221
v -1.419195 2.897607 4.208757
v -1.422554 2.896835 4.210609
v -1.431081 2.893077 4.174975
v -1.406556 2.865985 4.200181
v -1.442846 2.890374 4.181463
v -1.424805 2.861791 4.210245
v -1.375992 2.896876 4.135115
v -1.376928 2.898894 4.146245
v -1.394648 2.896274 4.136323
v -1.377905 2.874711 4.141207
v -1.395077 2.897199 4.141424
v -1.378335 2.875639 4.146323
vt 0.274240 0.539347
vt 0.265397 0.539709
vt 0.266768 0.532487
vt 0.231414 0.551290
vt 0.214659 0.541092
vt 0.231357 0.542861
vt 0.231940 0.569242
vt 0.215985 0.562822
vt 0.231472 0.559719
vt 0.230890 0.533338
vt 0.220414 0.530957
vt 0.213134 0.552274
vt 0.289666 0.544440
vt 0.282983 0.540904
vt 0.290637 0.536818
vt 0.279682 0.529141
vt 0.275518 0.536619
vt 0.273707 0.532162
vt 0.280945 0.538772
vt 0.286431 0.530872
vt 0.290637 0.551375
vt 0.284312 0.543753
vt 0.278488 0.537315
vt 0.276318 0.541045
vt 0.804698 0.251197
vt 0.792375 0.255919
vt 0.792638 0.252041
vt 0.786357 0.239035
vt 0.792578 0.249274
vt 0.791489 0.249454
vt 0.271776 0.541127
vt 0.760733 0.199751
vt 0.757502 0.209505
vt 0.750621 0.206121
vt 0.278108 0.542645
vt 0.273009 0.544115
vt 0.772804 0.201934
vt 0.766718 0.213101
vt 0.766203 0.208706
vt 0.264007 0.548518
vt 0.277612 0.547903
vt 0.268747 0.555467
vt 0.275021 0.546378
vt 0.280714 0.548498
vt 0.281954 0.545638
vt 0.276612 0.557409
vt 0.240880 0.530957
vt 0.248168 0.561486
vt 0.249693 0.550306
vt 0.246843 0.539760
vt 0.242415 0.571620
vt 0.762287 0.211045
vt 0.762255 0.210544
vt 0.761023 0.221925
vt 0.757316 0.212491
vt 0.750922 0.216572
vt 0.772804 0.220841
vt 0.791613 0.252007
vt 0.791097 0.255536
vt 0.780068 0.250772
vt 0.780487 0.263708
vt 0.804698 0.264828
vt 0.798786 0.238814
vt 0.221949 0.571626
vt 0.283377 0.553479
vn 0.3206 -0.9269 0.1951
vn -0.3175 -0.5205 -0.7926
vn -0.5125 0.3655 -0.7770
vn -0.0928 -0.8481 -0.5216
vn -0.4625 -0.1014 -0.8808
vn 0.2008 0.6153 -0.7623
vn 0.6205 -0.5983 -0.5069
vn 0.4567 0.2205 -0.8618
vn -0.3206 0.9269 -0.1951
vn 0.6017 -0.1986 -0.7737
vn 0.9232 -0.3570 0.1424
vn 0.5507 -0.0306 0.8341
vn 0.9917 0.1124 0.0631
vn -0.4231 0.8846 -0.1960
vn 0.5125 -0.3655 0.7770
vn -0.8401 0.3641 0.4021
vn 0.4624 0.1014 0.8808
vn 0.4940 -0.5665 0.6596
vn -0.2008 -0.6153 0.7623
vn -0.6017 0.1986 0.7737
vn -0.4567 -0.2205 0.8619
vn -0.6205 0.5983 0.5069
vn -0.5034 -0.8566 0.1130
vn -0.9917 -0.1124 -0.0631
vn -0.8467 -0.5314 0.0251
vn -0.9232 0.3570 -0.1424
vn 0.4897 -0.0405 0.8710
vn -0.2463 0.9682 -0.0431
vn 0.6369 0.7022 -0.3182
vn -0.4068 0.8241 -0.3942
vn -0.6068 0.0307 0.7942
vn 0.8458 0.5332 -0.0191
vn 0.9937 -0.0598 0.0945
vn -0.0435 0.9824 -0.1818
vn 0.5014 0.2512 -0.8279
vn 0.9039 -0.4009 0.1488
vn -0.0809 0.7184 0.6909
vn -0.0722 0.4463 -0.8920
vn 0.4567 0.2205 -0.8619
vn 0.3967 0.5485 0.7361
vn -0.7983 0.3724 0.4733
vn 0.4625 0.1014 0.8808
vn 0.4939 -0.5665 0.6596
vn -0.6017 0.1986 0.7736
vn -0.4567 -0.2205 0.8618
vn -0.6206 0.5983 0.5069
vn 0.4896 -0.0405 0.8710
vn -0.2463 0.9682 -0.0432
vn 0.6016 0.6954 -0.3930
vn -0.5969 0.2017 0.7765
vn 0.9228 0.3822 -0.0493
vn 0.6453 -0.2538 -0.7206
vn 0.9039 -0.4010 0.1488
vn -0.2357 0.7437 0.6257
vn 0.0423 0.4151 -0.9088
s off
f 17/1/1 27/2/1 5/3/1
f 3/4/2 9/5/2 4/6/2
f 1/7/3 7/8/3 2/9/3
f 5/10/4 9/5/4 10/11/4
f 2/9/5 8/12/5 3/4/5
f 6/13/6 29/14/6 7/15/6
f 9/16/7 13/17/7 10/18/7
f 7/15/8 11/19/8 8/20/8
f 1/21/9 28/22/9 6/13/9
f 8/20/10 12/23/10 9/16/10
f 13/17/11 16/24/11 17/1/11
f 30/25/12 42/26/12 38/27/12
f 11/19/13 16/24/13 12/23/13
f 28/28/14 41/29/14 39/30/14
f 16/24/15 22/31/15 17/1/15
f 19/32/16 35/33/16 18/34/16
f 15/35/17 21/36/17 16/24/17
f 20/37/18 34/38/18 36/39/18
f 22/31/19 26/40/19 27/2/19
f 19/41/20 25/42/20 20/43/20
f 1/21/9 18/44/9 14/45/9
f 20/43/21 26/40/21 21/36/21
f 18/44/22 24/46/22 19/41/22
f 27/47/23 4/6/23 5/10/23
f 24/48/24 3/4/24 25/49/24
f 25/49/25 4/6/25 26/50/25
f 23/51/26 2/9/26 24/48/26
f 13/17/1 5/3/1 10/18/1
f 31/52/27 36/39/27 34/38/27
f 31/52/28 35/33/28 32/53/28
f 30/54/29 33/55/29 31/52/29
f 18/34/30 33/55/30 14/56/30
f 19/32/31 36/39/31 32/53/31
f 30/54/32 34/38/32 15/57/32
f 37/58/33 42/26/33 40/59/33
f 37/58/34 41/29/34 38/27/34
f 29/60/35 40/59/35 11/61/35
f 11/61/36 42/26/36 15/62/36
f 30/25/37 41/29/37 14/63/37
f 29/60/38 39/30/38 37/58/38
f 17/1/1 22/31/1 27/2/1
f 3/4/2 8/12/2 9/5/2
f 1/7/3 6/64/3 7/8/3
f 5/10/4 4/6/4 9/5/4
f 2/9/5 7/8/5 8/12/5
f 6/13/6 28/22/6 29/14/6
f 9/16/7 12/23/7 13/17/7
f 7/15/39 29/14/39 11/19/39
f 1/21/9 14/45/9 28/22/9
f 8/20/10 11/19/10 12/23/10
f 13/17/11 12/23/11 16/24/11
f 30/25/40 15/62/40 42/26/40
f 11/19/13 15/35/13 16/24/13
f 28/28/14 14/63/14 41/29/14
f 16/24/15 21/36/15 22/31/15
f 19/32/41 32/53/41 35/33/41
f 15/35/42 20/43/42 21/36/42
f 20/37/43 15/57/43 34/38/43
f 22/31/19 21/36/19 26/40/19
f 19/41/44 24/46/44 25/42/44
f 1/21/9 23/65/9 18/44/9
f 20/43/45 25/42/45 26/40/45
f 18/44/46 23/65/46 24/46/46
f 27/47/23 26/50/23 4/6/23
f 24/48/24 2/9/24 3/4/24
f 25/49/25 3/4/25 4/6/25
f 23/51/26 1/7/26 2/9/26
f 13/17/1 17/1/1 5/3/1
f 31/52/47 32/53/47 36/39/47
f 31/52/48 33/55/48 35/33/48
f 30/54/49 14/56/49 33/55/49
f 18/34/30 35/33/30 33/55/30
f 19/32/50 20/37/50 36/39/50
f 30/54/51 31/52/51 34/38/51
f 37/58/33 38/27/33 42/26/33
f 37/58/34 39/30/34 41/29/34
f 29/60/52 37/58/52 40/59/52
f 11/61/53 40/59/53 42/26/53
f 30/25/54 38/27/54 41/29/54
f 29/60/55 28/28/55 39/30/55
v 4.035137 3.564683 -0.284340
v 4.033747 3.547687 -0.261301
v 4.032945 3.521428 -0.249838
v 4.032946 3.492941 -0.253021
v 4.033751 3.469861 -0.269999
v 4.011947 3.562753 -0.299342
v 3.993580 3.544344 -0.287285
v 3.986564 3.517568 -0.279841
v 3.992779 3.489599 -0.279005
v 4.010561 3.467931 -0.285001
v 3.989563 3.509256 -0.334505
v 3.995376 3.482401 -0.326346
v 4.012060 3.463775 -0.312333
v 4.038135 3.556371 -0.339005
v 4.038941 3.504805 -0.359166
v 4.038139 3.478545 -0.347703
v 4.036749 3.461550 -0.324664
v 4.061326 3.558301 -0.324003
v 4.079106 3.536634 -0.329999
v 4.085322 3.508665 -0.329163
v 4.078306 3.481888 -0.321719
v 4.059939 3.463480 -0.309662
v 4.059826 3.562457 -0.296671
v 4.076510 3.543832 -0.282658
v 4.082324 3.516976 -0.274499
v 4.075710 3.489086 -0.274378
v 4.058440 3.467635 -0.282330
v 4.013446 3.558597 -0.326674
v 3.996176 3.537146 -0.334626
v 4.038940 3.533291 -0.355983
v 4.079895 3.548904 -0.380659
v 4.083172 3.549177 -0.378539
v 4.056648 3.559381 -0.355107
v 4.065400 3.518619 -0.370362
v 4.068127 3.560337 -0.347682
v 4.083205 3.520101 -0.358844
v 3.994520 3.549885 -0.381338
v 4.004642 3.548972 -0.386393
v 4.004971 3.557059 -0.367583
v 4.000244 3.529972 -0.371200
v 4.009610 3.556641 -0.369900
v 4.004896 3.529553 -0.373524
vt 0.274240 0.539347
vt 0.265397 0.539709
vt 0.266768 0.532487
vt 0.231414 0.551290
vt 0.214659 0.541092
vt 0.231357 0.542861
vt 0.231940 0.569242
vt 0.215985 0.562822
vt 0.231472 0.559719
vt 0.230890 0.533338
vt 0.220414 0.530957
vt 0.213134 0.552274
vt 0.289666 0.544440
vt 0.282983 0.540904
vt 0.290637 0.536818
vt 0.279682 0.529141
vt 0.275518 0.536619
vt 0.273707 0.532162
vt 0.280945 0.538772
vt 0.286431 0.530872
vt 0.290637 0.551375
vt 0.284312 0.543753
vt 0.278488 0.537315
vt 0.276318 0.541045
vt 0.804698 0.251197
vt 0.792375 0.255919
vt 0.792638 0.252041
vt 0.786357 0.239035
vt 0.792578 0.249274
vt 0.791489 0.249454
vt 0.271776 0.541127
vt 0.760733 0.199751
vt 0.757502 0.209505
vt 0.750621 0.206121
vt 0.278108 0.542645
vt 0.273009 0.544115
vt 0.772804 0.201934
vt 0.766718 0.213101
vt 0.766203 0.208706
vt 0.264007 0.548518
vt 0.277612 0.547903
vt 0.268747 0.555467
vt 0.275021 0.546378
vt 0.280714 0.548498
vt 0.281954 0.545638
vt 0.276612 0.557409
vt 0.240880 0.530957
vt 0.248168 0.561486
vt 0.249693 0.550306
vt 0.246843 0.539760
vt 0.242415 0.571620
vt 0.762287 0.211045
vt 0.762255 0.210544
vt 0.761023 0.221925
vt 0.757316 0.212491
vt 0.750922 0.216572
vt 0.772804 0.220841
vt 0.791613 0.252007
vt 0.791097 0.255536
vt 0.780068 0.250772
vt 0.780487 0.263708
vt 0.804698 0.264828
vt 0.798786 0.238814
vt 0.221949 0.571626
vt 0.283377 0.553479
vn -0.0145 -0.9887 0.1495
vn -0.5352 -0.0938 0.8395
vn -0.4034 0.7478 0.5273
vn -0.4223 -0.5466 0.7231
vn -0.5287 0.3531 0.7719
vn -0.7453 0.6519 -0.1400
vn -0.7642 -0.6426 0.0558
vn -0.9693 0.2295 -0.0881
vn 0.0144 0.9886 -0.1495
vn -0.9759 -0.2174 -0.0205
vn -0.3514 -0.7431 -0.5694
vn 0.4409 -0.4918 -0.7509
vn -0.4439 -0.3471 -0.8261
vn 0.0644 0.9966 -0.0508
vn 0.4034 -0.7478 -0.5273
vn 0.7794 0.5642 0.2724
vn 0.5287 -0.3531 -0.7719
vn 0.3069 -0.8805 -0.3612
vn 0.7453 -0.6519 0.1400
vn 0.9759 0.2174 0.0205
vn 0.0144 0.9887 -0.1495
vn 0.9693 -0.2295 0.0881
vn 0.7642 0.6426 -0.0558
vn 0.3325 -0.5513 0.7652
vn 0.4439 0.3471 0.8261
vn 0.4373 -0.0999 0.8937
vn 0.3514 0.7432 0.5694
vn -0.0144 -0.9887 0.1495
vn 0.5033 -0.4842 -0.7157
vn 0.1089 0.9506 -0.2907
vn -0.5804 0.4174 -0.6992
vn -0.1161 0.9919 0.0519
vn 0.9924 0.0696 0.1011
vn -0.4316 0.1002 -0.8965
vn -0.4217 -0.5047 -0.7533
vn -0.1128 0.9136 -0.3907
vn -0.9619 0.2274 -0.1516
vn -0.3372 -0.7744 -0.5353
vn 0.6531 0.4634 -0.5990
vn -0.7231 0.6595 0.2055
vn -0.5352 -0.0939 0.8395
vn 0.0145 0.9887 -0.1495
vn -0.9759 -0.2175 -0.0205
vn 0.4471 0.0994 -0.8889
vn 0.0645 0.9966 -0.0508
vn 0.8199 0.5339 0.2066
vn 0.9758 0.2175 0.0205
vn 0.5032 -0.4843 -0.7157
vn -0.6273 0.4472 -0.6376
vn 0.9760 0.2173 0.0141
vn -0.5000 -0.0546 -0.8643
vn -0.1128 0.9135 -0.3908
vn -0.9533 -0.2982 -0.0475
vn -0.3372 -0.7744 -0.5354
vn 0.6756 0.5694 -0.4683
vn -0.7961 0.5880 0.1428
s off
f 59/66/56 69/67/56 47/68/56
f 45/69/57 51/70/57 46/71/57
f 43/72/58 49/73/58 44/74/58
f 47/75/59 51/70/59 52/76/59
f 44/74/60 50/77/60 45/69/60
f 48/78/61 71/79/61 49/80/61
f 51/81/62 55/82/62 52/83/62
f 49/80/63 53/84/63 50/85/63
f 43/86/64 70/87/64 48/78/64
f 50/85/65 54/88/65 51/81/65
f 55/82/66 58/89/66 59/66/66
f 72/90/67 84/91/67 80/92/67
f 53/84/68 58/89/68 54/88/68
f 70/93/69 83/94/69 81/95/69
f 58/89/70 64/96/70 59/66/70
f 61/97/71 77/98/71 60/99/71
f 57/100/72 63/101/72 58/89/72
f 62/102/73 76/103/73 78/104/73
f 64/96/74 68/105/74 69/67/74
f 61/106/75 67/107/75 62/108/75
f 43/86/76 60/109/76 56/110/76
f 62/108/77 68/105/77 63/101/77
f 60/109/78 66/111/78 61/106/78
f 69/112/79 46/71/79 47/75/79
f 66/113/80 45/69/80 67/114/80
f 67/114/81 46/71/81 68/115/81
f 65/116/82 44/74/82 66/113/82
f 55/82/83 47/68/83 52/83/83
f 73/117/84 78/104/84 76/103/84
f 73/117/85 77/98/85 74/118/85
f 72/119/86 75/120/86 73/117/86
f 60/99/87 75/120/87 56/121/87
f 61/97/88 78/104/88 74/118/88
f 72/119/89 76/103/89 57/122/89
f 79/123/90 84/91/90 82/124/90
f 79/123/91 83/94/91 80/92/91
f 71/125/92 82/124/92 53/126/92
f 53/126/93 84/91/93 57/127/93
f 72/90/94 83/94/94 56/128/94
f 71/125/95 81/95/95 79/123/95
f 59/66/83 64/96/83 69/67/83
f 45/69/96 50/77/96 51/70/96
f 43/72/58 48/129/58 49/73/58
f 47/75/59 46/71/59 51/70/59
f 44/74/60 49/73/60 50/77/60
f 48/78/61 70/87/61 71/79/61
f 51/81/62 54/88/62 55/82/62
f 49/80/63 71/79/63 53/84/63
f 43/86/97 56/110/97 70/87/97
f 50/85/98 53/84/98 54/88/98
f 55/82/66 54/88/66 58/89/66
f 72/90/99 57/127/99 84/91/99
f 53/84/68 57/100/68 58/89/68
f 70/93/100 56/128/100 83/94/100
f 58/89/70 63/101/70 64/96/70
f 61/97/101 74/118/101 77/98/101
f 57/100/72 62/108/72 63/101/72
f 62/102/73 57/122/73 76/103/73
f 64/96/74 63/101/74 68/105/74
f 61/106/102 66/111/102 67/107/102
f 43/86/97 65/130/97 60/109/97
f 62/108/77 67/107/77 68/105/77
f 60/109/78 65/130/78 66/111/78
f 69/112/79 68/115/79 46/71/79
f 66/113/80 44/74/80 45/69/80
f 67/114/81 45/69/81 46/71/81
f 65/116/82 43/72/82 44/74/82
f 55/82/56 59/66/56 47/68/56
f 73/117/103 74/118/103 78/104/103
f 73/117/85 75/120/85 77/98/85
f 72/119/104 56/121/104 75/120/104
f 60/99/87 77/98/87 75/120/87
f 61/97/105 62/102/105 78/104/105
f 72/119/106 73/117/106 76/103/106
f 79/123/90 80/92/90 84/91/90
f 79/123/107 81/95/107 83/94/107
f 71/125/108 79/123/108 82/124/108
f 53/126/109 82/124/109 84/91/109
f 72/90/110 80/92/110 83/94/110
f 71/125/111 70/93/111 81/95/111
v 0.452857 4.472564 0.895809
v 0.444726 4.452702 0.914809
v 0.441741 4.425169 0.922198
v 0.444700 4.397341 0.915995
v 0.452811 4.376676 0.897864
v 0.436435 4.472094 0.873523
v 0.416282 4.451888 0.876209
v 0.408896 4.424229 0.877626
v 0.416256 4.396527 0.877395
v 0.436389 4.376206 0.875578
v 0.431083 4.423131 0.826903
v 0.435470 4.395577 0.833468
v 0.447482 4.375657 0.850216
v 0.475043 4.471466 0.845086
v 0.486113 4.422973 0.820752
v 0.483128 4.395440 0.828141
v 0.474997 4.375578 0.847141
v 0.491465 4.471936 0.867372
v 0.511598 4.451614 0.865554
v 0.518958 4.423913 0.865323
v 0.511572 4.396254 0.866741
v 0.491419 4.376048 0.869426
v 0.480372 4.472485 0.892733
v 0.492384 4.452565 0.909482
v 0.496771 4.425010 0.916046
v 0.492358 4.397204 0.910668
v 0.480326 4.376596 0.894788
v 0.447528 4.471545 0.848162
v 0.435496 4.450938 0.832282
v 0.483154 4.450801 0.826954
v 0.528991 4.470355 0.820124
v 0.531311 4.470421 0.823273
v 0.497732 4.476933 0.836937
v 0.513847 4.438687 0.821176
v 0.505861 4.477166 0.847968
v 0.526456 4.439047 0.838287
v 0.449208 4.469579 0.789720
v 0.460489 4.469546 0.788459
v 0.453787 4.475135 0.806983
v 0.452376 4.448649 0.798882
v 0.458957 4.475120 0.806405
v 0.457561 4.448634 0.798302
vt 0.274240 0.539347
vt 0.265397 0.539709
vt 0.266768 0.532487
vt 0.231414 0.551290
vt 0.214659 0.541092
vt 0.231357 0.542861
vt 0.231940 0.569242
vt 0.215985 0.562822
vt 0.231472 0.559719
vt 0.230890 0.533338
vt 0.220414 0.530957
vt 0.213134 0.552274
vt 0.289666 0.544440
vt 0.282983 0.540904
vt 0.290637 0.536818
vt 0.279682 0.529141
vt 0.275518 0.536619
vt 0.273707 0.532162
vt 0.280945 0.538772
vt 0.286431 0.530872
vt 0.290637 0.551375
vt 0.284312 0.543753
vt 0.278488 0.537315
vt 0.276318 0.541045
vt 0.804698 0.251197
vt 0.792375 0.255919
vt 0.792638 0.252041
vt 0.786357 0.239035
vt 0.792578 0.249274
vt 0.791489 0.249454
vt 0.271776 0.541127
vt 0.760733 0.199751
vt 0.757502 0.209505
vt 0.750621 0.206121
vt 0.278108 0.542645
vt 0.273009 0.544115
vt 0.772804 0.201934
vt 0.766718 0.213101
vt 0.766203 0.208706
vt 0.264007 0.548518
vt 0.277612 0.547903
vt 0.268747 0.555467
vt 0.275021 0.546378
vt 0.280714 0.548498
vt 0.281954 0.545638
vt 0.276612 0.557409
vt 0.240880 0.530957
vt 0.248168 0.561486
vt 0.249693 0.550306
vt 0.246843 0.539760
vt 0.242415 0.571620
vt 0.762287 0.211045
vt 0.762255 0.210544
vt 0.761023 0.221925
vt 0.757316 0.212491
vt 0.750922 0.216572
vt 0.772804 0.220841
vt 0.791613 0.252007
vt 0.791097 0.255536
vt 0.780068 0.250772
vt 0.780487 0.263708
vt 0.804698 0.264828
vt 0.798786 0.238814
vt 0.221949 0.571626
vt 0.283377 0.553479
vn -0.0005 -0.9998 0.0214
vn -0.7844 -0.2132 0.5825
vn -0.6083 0.6644 0.4342
vn -0.6089 -0.6446 0.4623
vn -0.7842 0.2387 0.5728
vn -0.6923 0.6483 -0.3168
vn -0.6929 -0.6607 -0.2888
vn -0.8924 0.2181 -0.3951
vn 0.0005 0.9998 -0.0214
vn -0.8926 -0.2339 -0.3854
vn -0.0843 -0.6705 -0.7371
vn 0.7037 -0.3808 -0.5998
vn -0.1084 -0.2467 -0.9630
vn 0.0129 0.9960 0.0888
vn 0.6083 -0.6644 -0.4342
vn 0.5992 0.5408 0.5903
vn 0.7841 -0.2387 -0.5728
vn 0.4694 -0.8196 -0.3286
vn 0.6923 -0.6483 0.3168
vn 0.8926 0.2339 0.3854
vn 0.8924 -0.2181 0.3951
vn 0.6929 0.6607 0.2888
vn 0.0837 -0.6384 0.7651
vn 0.1084 0.2467 0.9630
vn 0.1081 -0.2053 0.9727
vn 0.0843 0.6706 0.7370
vn 0.7496 -0.3765 -0.5444
vn 0.1401 0.9823 -0.1240
vn -0.3299 0.4918 -0.8058
vn -0.1914 0.9741 0.1205
vn 0.8900 0.0773 0.4493
vn -0.1019 0.2061 -0.9732
vn -0.1024 -0.4119 -0.9055
vn -0.0307 0.9538 -0.2988
vn -0.8634 0.2244 -0.4518
vn -0.0807 -0.7057 -0.7039
vn 0.7877 0.5510 -0.2756
vn -0.7911 0.6116 0.0130
vn -0.6083 0.6644 0.4343
vn -0.7841 0.2387 0.5728
vn -0.0843 -0.6706 -0.7370
vn 0.7185 0.2232 -0.6587
vn 0.0128 0.9960 0.0888
vn 0.6617 0.5202 0.5399
vn 0.0837 -0.6385 0.7651
vn 0.0843 0.6705 0.7371
vn 0.7496 -0.3766 -0.5444
vn 0.1401 0.9824 -0.1239
vn -0.3970 0.5124 -0.7615
vn -0.1914 0.9741 0.1206
vn 0.8949 0.2346 0.3795
vn -0.1668 0.0471 -0.9849
vn -0.0306 0.9538 -0.2989
vn -0.8569 -0.3100 -0.4119
vn -0.0807 -0.7056 -0.7040
vn 0.7568 0.6397 -0.1341
vn -0.8332 0.5473 -0.0789
s off
f 101/131/112 111/132/112 89/133/112
f 87/134/113 93/135/113 88/136/113
f 85/137/114 91/138/114 86/139/114
f 89/140/115 93/135/115 94/141/115
f 86/139/116 92/142/116 87/134/116
f 90/143/117 113/144/117 91/145/117
f 93/146/118 97/147/118 94/148/118
f 91/145/119 95/149/119 92/150/119
f 85/151/120 112/152/120 90/143/120
f 92/150/121 96/153/121 93/146/121
f 97/147/122 100/154/122 101/131/122
f 114/155/123 126/156/123 122/157/123
f 95/149/124 100/154/124 96/153/124
f 112/158/125 125/159/125 123/160/125
f 100/154/126 106/161/126 101/131/126
f 103/162/127 119/163/127 102/164/127
f 99/165/128 105/166/128 100/154/128
f 104/167/129 118/168/129 120/169/129
f 106/161/130 110/170/130 111/132/130
f 103/171/131 109/172/131 104/173/131
f 85/151/120 102/174/120 98/175/120
f 104/173/132 110/170/132 105/166/132
f 102/174/133 108/176/133 103/171/133
f 111/177/134 88/136/134 89/140/134
f 108/178/135 87/134/135 109/179/135
f 109/179/136 88/136/136 110/180/136
f 107/181/137 86/139/137 108/178/137
f 97/147/112 89/133/112 94/148/112
f 115/182/138 120/169/138 118/168/138
f 115/182/139 119/163/139 116/183/139
f 114/184/140 117/185/140 115/182/140
f 102/164/141 117/185/141 98/186/141
f 103/162/142 120/169/142 116/183/142
f 114/184/143 118/168/143 99/187/143
f 121/188/144 126/156/144 124/189/144
f 121/188/145 125/159/145 122/157/145
f 113/190/146 124/189/146 95/191/146
f 95/191/147 126/156/147 99/192/147
f 114/155/148 125/159/148 98/193/148
f 113/190/149 123/160/149 121/188/149
f 101/131/112 106/161/112 111/132/112
f 87/134/113 92/142/113 93/135/113
f 85/137/150 90/194/150 91/138/150
f 89/140/115 88/136/115 93/135/115
f 86/139/151 91/138/151 92/142/151
f 90/143/117 112/152/117 113/144/117
f 93/146/118 96/153/118 97/147/118
f 91/145/119 113/144/119 95/149/119
f 85/151/120 98/175/120 112/152/120
f 92/150/121 95/149/121 96/153/121
f 97/147/152 96/153/152 100/154/152
f 114/155/153 99/192/153 126/156/153
f 95/149/124 99/165/124 100/154/124
f 112/158/154 98/193/154 125/159/154
f 100/154/126 105/166/126 106/161/126
f 103/162/155 116/183/155 119/163/155
f 99/165/128 104/173/128 105/166/128
f 104/167/129 99/187/129 118/168/129
f 106/161/130 105/166/130 110/170/130
f 103/171/131 108/176/131 109/172/131
f 85/151/120 107/195/120 102/174/120
f 104/173/132 109/172/132 110/170/132
f 102/174/133 107/195/133 108/176/133
f 111/177/156 110/180/156 88/136/156
f 108/178/135 86/139/135 87/134/135
f 109/179/136 87/134/136 88/136/136
f 107/181/157 85/137/157 86/139/157
f 97/147/112 101/131/112 89/133/112
f 115/182/158 116/183/158 120/169/158
f 115/182/159 117/185/159 119/163/159
f 114/184/160 98/186/160 117/185/160
f 102/164/161 119/163/161 117/185/161
f 103/162/162 104/167/162 120/169/162
f 114/184/163 115/182/163 118/168/163
f 121/188/144 122/157/144 126/156/144
f 121/188/164 123/160/164 125/159/164
f 113/190/165 121/188/165 124/189/165
f 95/191/166 124/189/166 126/156/166
f 114/155/167 122/157/167 125/159/167
f 113/190/168 112/158/168 123/160/168
