# Blender v2.81 (sub 16) OBJ File: 'garbage.blend'
# www.blender.org
v 0.490612 2.649329 1.388214
v 0.475651 2.632295 1.405753
v 0.469180 2.606063 1.415324
v 0.472932 2.577662 1.414363
v 0.485902 2.554703 1.403127
v 0.482812 2.645573 1.361915
v 0.462142 2.625788 1.360202
v 0.453581 2.598550 1.362727
v 0.459423 2.571156 1.368812
v 0.478102 2.550946 1.376828
v 0.491735 2.590456 1.323419
v 0.492465 2.564146 1.334771
v 0.497179 2.546899 1.357175
v 0.528765 2.641235 1.348907
v 0.545487 2.589875 1.336709
v 0.539015 2.563643 1.346281
v 0.524055 2.546609 1.363820
v 0.536564 2.644992 1.375205
v 0.555244 2.624782 1.383221
v 0.561085 2.597388 1.389307
v 0.552524 2.570150 1.391832
v 0.531854 2.550365 1.390118
v 0.517488 2.649039 1.394859
v 0.522202 2.631792 1.417262
v 0.522932 2.605482 1.428614
v 0.519482 2.577159 1.425873
v 0.512778 2.554412 1.409772
v 0.501889 2.641526 1.342261
v 0.495184 2.618779 1.326161
v 0.541735 2.618276 1.337671
v 0.587904 2.637036 1.344482
v 0.589006 2.637567 1.348199
v 0.553078 2.645676 1.348422
v 0.572021 2.605715 1.344536
v 0.556939 2.647536 1.361439
v 0.578009 2.608599 1.364728
v 0.523404 2.631311 1.288830
v 0.534422 2.631192 1.291554
v 0.522018 2.639294 1.305688
v 0.522374 2.611917 1.301274
v 0.527068 2.639240 1.306937
v 0.527438 2.611863 1.302526
vt 0.274240 0.539347
vt 0.265397 0.539709
vt 0.266768 0.532487
vt 0.231414 0.551290
vt 0.214659 0.541092
vt 0.231357 0.542861
vt 0.231940 0.569242
vt 0.215985 0.562822
vt 0.231472 0.559719
vt 0.230890 0.533338
vt 0.220414 0.530957
vt 0.213134 0.552274
vt 0.289666 0.544440
vt 0.282983 0.540904
vt 0.290637 0.536818
vt 0.279682 0.529141
vt 0.275518 0.536619
vt 0.273707 0.532162
vt 0.280945 0.538772
vt 0.286431 0.530872
vt 0.290637 0.551375
vt 0.284312 0.543753
vt 0.278488 0.537315
vt 0.276318 0.541045
vt 0.804698 0.251197
vt 0.792375 0.255919
vt 0.792638 0.252041
vt 0.786357 0.239035
vt 0.792578 0.249274
vt 0.791489 0.249454
vt 0.271776 0.541127
vt 0.760733 0.199751
vt 0.757502 0.209505
vt 0.750621 0.206121
vt 0.278108 0.542645
vt 0.273009 0.544115
vt 0.772804 0.201934
vt 0.766718 0.213101
vt 0.766203 0.208706
vt 0.264007 0.548518
vt 0.277612 0.547903
vt 0.268747 0.555467
vt 0.275021 0.546378
vt 0.280714 0.548498
vt 0.281954 0.545638
vt 0.276612 0.557409
vt 0.240880 0.530957
vt 0.248168 0.561486
vt 0.249693 0.550306
vt 0.246843 0.539760
vt 0.242415 0.571620
vt 0.762287 0.211045
vt 0.762255 0.210544
vt 0.761023 0.221925
vt 0.757316 0.212491
vt 0.750922 0.216572
vt 0.772804 0.220841
vt 0.791613 0.252007
vt 0.791097 0.255536
vt 0.780068 0.250772
vt 0.780487 0.263708
vt 0.804698 0.264828
vt 0.798786 0.238814
vt 0.221949 0.571626
vt 0.283377 0.553479
vn -0.0491 -0.9866 0.1555
vn -0.9445 -0.1349 0.2994
vn -0.6922 0.7143 0.1033
vn -0.7565 -0.5775 0.3069
vn -0.9223 0.3111 0.2291
vn -0.5144 0.5913 -0.6211
vn -0.5787 -0.7005 -0.4175
vn -0.6933 0.1526 -0.7044
vn 0.0491 0.9866 -0.1555
vn -0.7155 -0.2934 -0.6340
vn 0.1456 -0.7689 -0.6226
vn 0.8502 -0.4563 -0.2626
vn 0.2180 -0.3815 -0.8983
vn 0.0228 0.9986 -0.0484
vn 0.6922 -0.7143 -0.1033
vn 0.3825 0.6239 0.6815
vn 0.9223 -0.3111 -0.2291
vn 0.5193 -0.8540 -0.0320
vn 0.5144 -0.5913 0.6211
vn 0.7155 0.2934 0.6340
vn 0.6933 -0.1526 0.7043
vn 0.5787 0.7005 0.4175
vn -0.2099 -0.5229 0.8262
vn -0.2180 0.3815 0.8983
vn -0.2402 -0.0645 0.9686
vn -0.1456 0.7689 0.6226
vn 0.8745 -0.4438 -0.1959
vn 0.2145 0.9560 -0.2002
vn -0.0133 0.3700 -0.9289
vn -0.1807 0.9797 -0.0864
vn 0.6846 0.1474 0.7138
vn 0.2463 0.0653 -0.9670
vn 0.1970 -0.5369 -0.8203
vn 0.1130 0.9016 -0.4176
vn -0.6464 0.1511 -0.7479
vn 0.1362 -0.7989 -0.5858
vn 0.8565 0.5127 -0.0590
vn -0.7217 0.6008 -0.3438
vn -0.5145 0.5913 -0.6211
vn -0.6933 0.1526 -0.7043
vn 0.9093 0.1335 -0.3942
vn 0.4577 0.5968 0.6591
vn -0.1456 0.7689 0.6225
vn 0.8744 -0.4438 -0.1959
vn -0.0906 0.3960 -0.9138
vn 0.7197 0.2933 0.6293
vn 0.1827 -0.0943 -0.9786
vn -0.6760 -0.3722 -0.6360
vn 0.7827 0.6204 0.0496
vn -0.7324 0.5238 -0.4350
s off
f 17/1/1 27/2/1 5/3/1
f 3/4/2 9/5/2 4/6/2
f 1/7/3 7/8/3 2/9/3
f 5/10/4 9/5/4 10/11/4
f 2/9/5 8/12/5 3/4/5
f 6/13/6 29/14/6 7/15/6
f 9/16/7 13/17/7 10/18/7
f 7/15/8 11/19/8 8/20/8
f 1/21/9 28/22/9 6/13/9
f 8/20/10 12/23/10 9/16/10
f 13/17/11 16/24/11 17/1/11
f 30/25/12 42/26/12 38/27/12
f 11/19/13 16/24/13 12/23/13
f 28/28/14 41/29/14 39/30/14
f 16/24/15 22/31/15 17/1/15
f 19/32/16 35/33/16 18/34/16
f 15/35/17 21/36/17 16/24/17
f 20/37/18 34/38/18 36/39/18
f 22/31/19 26/40/19 27/2/19
f 19/41/20 25/42/20 20/43/20
f 1/21/9 18/44/9 14/45/9
f 20/43/21 26/40/21 21/36/21
f 18/44/22 24/46/22 19/41/22
f 27/47/23 4/6/23 5/10/23
f 24/48/24 3/4/24 25/49/24
f 25/49/25 4/6/25 26/50/25
f 23/51/26 2/9/26 24/48/26
f 13/17/1 5/3/1 10/18/1
f 31/52/27 36/39/27 34/38/27
f 31/52/28 35/33/28 32/53/28
f 30/54/29 33/55/29 31/52/29
f 18/34/30 33/55/30 14/56/30
f 19/32/31 36/39/31 32/53/31
f 30/54/32 34/38/32 15/57/32
f 37/58/33 42/26/33 40/59/33
f 37/58/34 41/29/34 38/27/34
f 29/60/35 40/59/35 11/61/35
f 11/61/36 42/26/36 15/62/36
f 30/25/37 41/29/37 14/63/37
f 29/60/38 39/30/38 37/58/38
f 17/1/1 22/31/1 27/2/1
f 3/4/2 8/12/2 9/5/2
f 1/7/3 6/64/3 7/8/3
f 5/10/4 4/6/4 9/5/4
f 2/9/5 7/8/5 8/12/5
f 6/13/39 28/22/39 29/14/39
f 9/16/7 12/23/7 13/17/7
f 7/15/40 29/14/40 11/19/40
f 1/21/9 14/45/9 28/22/9
f 8/20/10 11/19/10 12/23/10
f 13/17/11 12/23/11 16/24/11
f 30/25/41 15/62/41 42/26/41
f 11/19/13 15/35/13 16/24/13
f 28/28/14 14/63/14 41/29/14
f 16/24/15 21/36/15 22/31/15
f 19/32/42 32/53/42 35/33/42
f 15/35/17 20/43/17 21/36/17
f 20/37/18 15/57/18 34/38/18
f 22/31/19 21/36/19 26/40/19
f 19/41/20 24/46/20 25/42/20
f 1/21/9 23/65/9 18/44/9
f 20/43/21 25/42/21 26/40/21
f 18/44/22 23/65/22 24/46/22
f 27/47/23 26/50/23 4/6/23
f 24/48/24 2/9/24 3/4/24
f 25/49/25 3/4/25 4/6/25
f 23/51/43 1/7/43 2/9/43
f 13/17/1 17/1/1 5/3/1
f 31/52/44 32/53/44 36/39/44
f 31/52/28 33/55/28 35/33/28
f 30/54/45 14/56/45 33/55/45
f 18/34/30 35/33/30 33/55/30
f 19/32/46 20/37/46 36/39/46
f 30/54/47 31/52/47 34/38/47
f 37/58/33 38/27/33 42/26/33
f 37/58/34 39/30/34 41/29/34
f 29/60/48 37/58/48 40/59/48
f 11/61/36 40/59/36 42/26/36
f 30/25/49 38/27/49 41/29/49
f 29/60/50 28/28/50 39/30/50
v 2.433142 2.702084 -6.431028
v 2.447798 2.678877 -6.422768
v 2.448899 2.650657 -6.417866
v 2.436150 2.624986 -6.417634
v 2.412966 2.608743 -6.422136
v 2.413255 2.708125 -6.412737
v 2.413353 2.689341 -6.391087
v 2.409125 2.662740 -6.381283
v 2.401704 2.635450 -6.385953
v 2.393079 2.614784 -6.403845
v 2.357435 2.672252 -6.398716
v 2.356939 2.643688 -6.401050
v 2.367234 2.619540 -6.412561
v 2.381453 2.711596 -6.448461
v 2.345519 2.669682 -6.452731
v 2.346620 2.641462 -6.447829
v 2.361276 2.618255 -6.439569
v 2.401340 2.705555 -6.466752
v 2.392714 2.684889 -6.484644
v 2.385293 2.657599 -6.489314
v 2.381065 2.630999 -6.479510
v 2.381163 2.612214 -6.457860
v 2.427185 2.700799 -6.458036
v 2.437479 2.676651 -6.469547
v 2.436983 2.648087 -6.471881
v 2.425830 2.622760 -6.464413
v 2.407008 2.607458 -6.449143
v 2.387410 2.712882 -6.421453
v 2.368588 2.697579 -6.406184
v 2.358269 2.695353 -6.452963
v 2.351245 2.712683 -6.499657
v 2.354055 2.711829 -6.502241
v 2.372391 2.717238 -6.470758
v 2.346573 2.682837 -6.481750
v 2.382235 2.714247 -6.479812
v 2.361842 2.678198 -6.495794
v 2.330266 2.724850 -6.417790
v 2.327823 2.724323 -6.428862
v 2.347749 2.725774 -6.424374
v 2.333945 2.702165 -6.419768
v 2.346630 2.725532 -6.429448
v 2.332822 2.701923 -6.424857
vt 0.274240 0.539347
vt 0.265397 0.539709
vt 0.266768 0.532487
vt 0.231414 0.551290
vt 0.214659 0.541092
vt 0.231357 0.542861
vt 0.231940 0.569242
vt 0.215985 0.562822
vt 0.231472 0.559719
vt 0.230890 0.533338
vt 0.220414 0.530957
vt 0.213134 0.552274
vt 0.289666 0.544440
vt 0.282983 0.540904
vt 0.290637 0.536818
vt 0.279682 0.529141
vt 0.275518 0.536619
vt 0.273707 0.532162
vt 0.280945 0.538772
vt 0.286431 0.530872
vt 0.290637 0.551375
vt 0.284312 0.543753
vt 0.278488 0.537315
vt 0.276318 0.541045
vt 0.804698 0.251197
vt 0.792375 0.255919
vt 0.792638 0.252041
vt 0.786357 0.239035
vt 0.792578 0.249274
vt 0.791489 0.249454
vt 0.271776 0.541127
vt 0.760733 0.199751
vt 0.757502 0.209505
vt 0.750621 0.206121
vt 0.278108 0.542645
vt 0.273009 0.544115
vt 0.772804 0.201934
vt 0.766718 0.213101
vt 0.766203 0.208706
vt 0.264007 0.548518
vt 0.277612 0.547903
vt 0.268747 0.555467
vt 0.275021 0.546378
vt 0.280714 0.548498
vt 0.281954 0.545638
vt 0.276612 0.557409
vt 0.240880 0.530957
vt 0.248168 0.561486
vt 0.249693 0.550306
vt 0.246843 0.539760
vt 0.242415 0.571620
vt 0.762287 0.211045
vt 0.762255 0.210544
vt 0.761023 0.221925
vt 0.757316 0.212491
vt 0.750922 0.216572
vt 0.772804 0.220841
vt 0.791613 0.252007
vt 0.791097 0.255536
vt 0.780068 0.250772
vt 0.780487 0.263708
vt 0.804698 0.264828
vt 0.798786 0.238814
vt 0.221949 0.571626
vt 0.283377 0.553479
vn -0.2104 -0.9732 0.0927
vn 0.5985 -0.2905 0.7466
vn 0.6390 0.5824 0.5024
vn 0.3636 -0.6918 0.6238
vn 0.6936 0.1495 0.7047
vn -0.0819 0.7526 0.6534
vn -0.3573 -0.5216 0.7748
vn -0.2354 0.3688 0.8992
vn 0.2104 0.9732 -0.0927
vn -0.3305 -0.0712 0.9411
vn -0.8586 -0.4669 0.2116
vn -0.7438 -0.2749 -0.6092
vn -0.9765 -0.0007 0.2155
vn 0.3146 0.9423 -0.1143
vn -0.6390 -0.5824 -0.5024
vn 0.6312 0.3400 -0.6971
vn -0.6936 -0.1495 -0.7047
vn -0.5578 -0.7481 -0.3594
vn 0.0819 -0.7526 -0.6534
vn 0.3305 0.0712 -0.9411
vn 0.2354 -0.3688 -0.8992
vn 0.3573 0.5216 -0.7748
vn 0.5832 -0.8073 -0.0902
vn 0.9765 0.0007 -0.2155
vn 0.8814 -0.4393 -0.1735
vn 0.8586 0.4669 -0.2116
vn -0.6942 -0.2873 -0.6599
vn 0.0922 0.9710 -0.2206
vn -0.6299 0.6925 0.3517
vn 0.3624 0.9279 0.0875
vn 0.3564 -0.0957 -0.9294
vn -0.8824 0.4398 0.1673
vn -0.9597 -0.1748 0.2201
vn -0.0651 0.9973 -0.0331
vn -0.2919 0.3865 0.8749
vn -0.8351 -0.5091 0.2084
vn -0.2240 0.5438 -0.8088
vn 0.2392 0.6450 0.7258
vn -0.6627 0.3231 -0.6756
vn -0.9765 -0.0007 0.2154
vn 0.3147 0.9423 -0.1143
vn 0.5710 0.3277 -0.7527
vn 0.0818 -0.7526 -0.6534
vn 0.9765 0.0006 -0.2155
vn -0.6942 -0.2873 -0.6600
vn 0.0922 0.9710 -0.2205
vn -0.5751 0.7065 0.4125
vn 0.3248 0.0731 -0.9430
vn -0.9234 0.2931 0.2477
vn -0.9597 -0.1748 0.2200
vn -0.0651 0.9973 -0.0330
vn -0.3775 -0.1410 0.9152
vn -0.8351 -0.5090 0.2085
vn -0.0634 0.5981 -0.7989
vn 0.1400 0.6078 0.7817
s off
f 59/66/51 69/67/51 47/68/51
f 45/69/52 51/70/52 46/71/52
f 43/72/53 49/73/53 44/74/53
f 47/75/54 51/70/54 52/76/54
f 44/74/55 50/77/55 45/69/55
f 48/78/56 71/79/56 49/80/56
f 51/81/57 55/82/57 52/83/57
f 49/80/58 53/84/58 50/85/58
f 43/86/59 70/87/59 48/78/59
f 50/85/60 54/88/60 51/81/60
f 55/82/61 58/89/61 59/66/61
f 72/90/62 84/91/62 80/92/62
f 53/84/63 58/89/63 54/88/63
f 70/93/64 83/94/64 81/95/64
f 58/89/65 64/96/65 59/66/65
f 61/97/66 77/98/66 60/99/66
f 57/100/67 63/101/67 58/89/67
f 62/102/68 76/103/68 78/104/68
f 64/96/69 68/105/69 69/67/69
f 61/106/70 67/107/70 62/108/70
f 43/86/59 60/109/59 56/110/59
f 62/108/71 68/105/71 63/101/71
f 60/109/72 66/111/72 61/106/72
f 69/112/73 46/71/73 47/75/73
f 66/113/74 45/69/74 67/114/74
f 67/114/75 46/71/75 68/115/75
f 65/116/76 44/74/76 66/113/76
f 55/82/51 47/68/51 52/83/51
f 73/117/77 78/104/77 76/103/77
f 73/117/78 77/98/78 74/118/78
f 72/119/79 75/120/79 73/117/79
f 60/99/80 75/120/80 56/121/80
f 61/97/81 78/104/81 74/118/81
f 72/119/82 76/103/82 57/122/82
f 79/123/83 84/91/83 82/124/83
f 79/123/84 83/94/84 80/92/84
f 71/125/85 82/124/85 53/126/85
f 53/126/86 84/91/86 57/127/86
f 72/90/87 83/94/87 56/128/87
f 71/125/88 81/95/88 79/123/88
f 59/66/51 64/96/51 69/67/51
f 45/69/52 50/77/52 51/70/52
f 43/72/53 48/129/53 49/73/53
f 47/75/54 46/71/54 51/70/54
f 44/74/55 49/73/55 50/77/55
f 48/78/56 70/87/56 71/79/56
f 51/81/57 54/88/57 55/82/57
f 49/80/58 71/79/58 53/84/58
f 43/86/59 56/110/59 70/87/59
f 50/85/60 53/84/60 54/88/60
f 55/82/61 54/88/61 58/89/61
f 72/90/89 57/127/89 84/91/89
f 53/84/90 57/100/90 58/89/90
f 70/93/91 56/128/91 83/94/91
f 58/89/65 63/101/65 64/96/65
f 61/97/92 74/118/92 77/98/92
f 57/100/67 62/108/67 63/101/67
f 62/102/68 57/122/68 76/103/68
f 64/96/93 63/101/93 68/105/93
f 61/106/70 66/111/70 67/107/70
f 43/86/59 65/130/59 60/109/59
f 62/108/71 67/107/71 68/105/71
f 60/109/72 65/130/72 66/111/72
f 69/112/73 68/115/73 46/71/73
f 66/113/94 44/74/94 45/69/94
f 67/114/75 45/69/75 46/71/75
f 65/116/76 43/72/76 44/74/76
f 55/82/51 59/66/51 47/68/51
f 73/117/95 74/118/95 78/104/95
f 73/117/96 75/120/96 77/98/96
f 72/119/97 56/121/97 75/120/97
f 60/99/80 77/98/80 75/120/80
f 61/97/98 62/102/98 78/104/98
f 72/119/99 73/117/99 76/103/99
f 79/123/100 80/92/100 84/91/100
f 79/123/101 81/95/101 83/94/101
f 71/125/102 79/123/102 82/124/102
f 53/126/103 82/124/103 84/91/103
f 72/90/104 80/92/104 83/94/104
f 71/125/105 70/93/105 81/95/105
v 1.105485 4.174288 -1.699003
v 1.100184 4.158685 -1.675550
v 1.095798 4.133220 -1.663144
v 1.093503 4.104716 -1.665110
v 1.093915 4.080811 -1.680921
v 1.083875 4.173617 -1.716298
v 1.062754 4.157524 -1.705505
v 1.052577 4.131879 -1.697734
v 1.056073 4.103555 -1.695066
v 1.072304 4.080141 -1.698216
v 1.060382 4.120538 -1.751369
v 1.062832 4.093733 -1.741515
v 1.076207 4.074470 -1.725034
v 1.113290 4.162946 -1.752638
v 1.111406 4.110538 -1.770415
v 1.107021 4.085073 -1.758009
v 1.101719 4.069469 -1.734556
v 1.134900 4.163617 -1.735343
v 1.151131 4.140203 -1.738493
v 1.154627 4.111878 -1.735825
v 1.144451 4.086234 -1.728053
v 1.123329 4.070140 -1.717261
v 1.130998 4.169287 -1.708525
v 1.144372 4.150024 -1.692044
v 1.146823 4.123219 -1.682190
v 1.137692 4.096055 -1.681604
v 1.119427 4.075810 -1.690444
v 1.087777 4.167947 -1.743115
v 1.069512 4.147702 -1.751955
v 1.113701 4.139041 -1.768448
v 1.158231 4.149735 -1.789250
v 1.161285 4.149830 -1.786806
v 1.133553 4.163499 -1.766786
v 1.140031 4.121399 -1.779295
v 1.144250 4.163831 -1.758226
v 1.156624 4.121914 -1.766016
v 1.073829 4.158118 -1.799070
v 1.084289 4.156068 -1.802974
v 1.083432 4.165051 -1.784594
v 1.076627 4.138330 -1.787553
v 1.088226 4.164112 -1.786383
v 1.081434 4.137387 -1.789348
vt 0.274240 0.539347
vt 0.265397 0.539709
vt 0.266768 0.532487
vt 0.231414 0.551290
vt 0.214659 0.541092
vt 0.231357 0.542861
vt 0.231940 0.569242
vt 0.215985 0.562822
vt 0.231472 0.559719
vt 0.230890 0.533338
vt 0.220414 0.530957
vt 0.213134 0.552274
vt 0.289666 0.544440
vt 0.282983 0.540904
vt 0.290637 0.536818
vt 0.279682 0.529141
vt 0.275518 0.536619
vt 0.273707 0.532162
vt 0.280945 0.538772
vt 0.286431 0.530872
vt 0.290637 0.551375
vt 0.284312 0.543753
vt 0.278488 0.537315
vt 0.276318 0.541045
vt 0.804698 0.251197
vt 0.792375 0.255919
vt 0.792638 0.252041
vt 0.786357 0.239035
vt 0.792578 0.249274
vt 0.791489 0.249454
vt 0.271776 0.541127
vt 0.760733 0.199751
vt 0.757502 0.209505
vt 0.750621 0.206121
vt 0.278108 0.542645
vt 0.273009 0.544115
vt 0.772804 0.201934
vt 0.766718 0.213101
vt 0.766203 0.208706
vt 0.264007 0.548518
vt 0.277612 0.547903
vt 0.268747 0.555467
vt 0.275021 0.546378
vt 0.280714 0.548498
vt 0.281954 0.545638
vt 0.276612 0.557409
vt 0.240880 0.530957
vt 0.248168 0.561486
vt 0.249693 0.550306
vt 0.246843 0.539760
vt 0.242415 0.571620
vt 0.762287 0.211045
vt 0.762255 0.210544
vt 0.761023 0.221925
vt 0.757316 0.212491
vt 0.750922 0.216572
vt 0.772804 0.220841
vt 0.791613 0.252007
vt 0.791097 0.255536
vt 0.780068 0.250772
vt 0.780487 0.263708
vt 0.804698 0.264828
vt 0.798786 0.238814
vt 0.221949 0.571626
vt 0.283377 0.553479
vn -0.1207 -0.9746 0.1885
vn -0.6248 -0.0036 0.7808
vn -0.3847 0.8062 0.4494
vn -0.5426 -0.4698 0.6963
vn -0.5702 0.4371 0.6956
vn -0.6638 0.7063 -0.2459
vn -0.8218 -0.5698 0.0009
vn -0.9299 0.3083 -0.2005
vn 0.1206 0.9746 -0.1885
vn -0.9845 -0.1324 -0.1153
vn -0.3581 -0.7380 -0.5719
vn 0.4683 -0.5663 -0.6782
vn -0.3870 -0.3491 -0.8534
vn 0.1609 0.9833 -0.0855
vn 0.3847 -0.8062 -0.4494
vn 0.7960 0.5074 0.3300
vn 0.5702 -0.4371 -0.6956
vn 0.2599 -0.9213 -0.2891
vn 0.6638 -0.7063 0.2459
vn 0.9845 0.1324 0.1153
vn 0.1207 0.9746 -0.1885
vn 0.9299 -0.3083 0.2005
vn 0.8218 0.5698 -0.0009
vn 0.2001 -0.5381 0.8188
vn 0.3870 0.3491 0.8534
vn 0.3324 -0.0915 0.9387
vn 0.3581 0.7380 0.5719
vn -0.1206 -0.9746 0.1885
vn 0.5272 -0.5624 -0.6370
vn 0.2251 0.9213 -0.3171
vn -0.4648 0.4299 -0.7741
vn -0.0290 0.9996 -0.0025
vn 0.9790 -0.0120 0.2034
vn -0.3265 0.0912 -0.9408
vn -0.3870 -0.5041 -0.7721
vn 0.0124 0.8986 -0.4386
vn -0.9163 0.3023 -0.2627
vn -0.3504 -0.7686 -0.5352
vn 0.7509 0.3733 -0.5448
vn -0.6766 0.7297 0.0993
vn -0.3847 0.8063 0.4494
vn -0.9299 0.3082 -0.2005
vn 0.1207 0.9746 -0.1886
vn 0.5431 0.0142 -0.8396
vn 0.1608 0.9833 -0.0855
vn 0.8401 0.4704 0.2703
vn 0.9299 -0.3082 0.2005
vn 0.2002 -0.5381 0.8188
vn 0.2252 0.9213 -0.3171
vn -0.5148 0.4667 -0.7191
vn 0.9853 0.1319 0.1090
vn -0.4117 -0.0552 -0.9096
vn 0.0124 0.8985 -0.4387
vn -0.9668 -0.2161 -0.1363
vn -0.3505 -0.7686 -0.5352
vn 0.7695 0.4836 -0.4171
vn -0.7491 0.6617 0.0323
s off
f 101/131/106 111/132/106 89/133/106
f 87/134/107 93/135/107 88/136/107
f 85/137/108 91/138/108 86/139/108
f 89/140/109 93/135/109 94/141/109
f 86/139/110 92/142/110 87/134/110
f 90/143/111 113/144/111 91/145/111
f 93/146/112 97/147/112 94/148/112
f 91/145/113 95/149/113 92/150/113
f 85/151/114 112/152/114 90/143/114
f 92/150/115 96/153/115 93/146/115
f 97/147/116 100/154/116 101/131/116
f 114/155/117 126/156/117 122/157/117
f 95/149/118 100/154/118 96/153/118
f 112/158/119 125/159/119 123/160/119
f 100/154/120 106/161/120 101/131/120
f 103/162/121 119/163/121 102/164/121
f 99/165/122 105/166/122 100/154/122
f 104/167/123 118/168/123 120/169/123
f 106/161/124 110/170/124 111/132/124
f 103/171/125 109/172/125 104/173/125
f 85/151/126 102/174/126 98/175/126
f 104/173/127 110/170/127 105/166/127
f 102/174/128 108/176/128 103/171/128
f 111/177/129 88/136/129 89/140/129
f 108/178/130 87/134/130 109/179/130
f 109/179/131 88/136/131 110/180/131
f 107/181/132 86/139/132 108/178/132
f 97/147/133 89/133/133 94/148/133
f 115/182/134 120/169/134 118/168/134
f 115/182/135 119/163/135 116/183/135
f 114/184/136 117/185/136 115/182/136
f 102/164/137 117/185/137 98/186/137
f 103/162/138 120/169/138 116/183/138
f 114/184/139 118/168/139 99/187/139
f 121/188/140 126/156/140 124/189/140
f 121/188/141 125/159/141 122/157/141
f 113/190/142 124/189/142 95/191/142
f 95/191/143 126/156/143 99/192/143
f 114/155/144 125/159/144 98/193/144
f 113/190/145 123/160/145 121/188/145
f 101/131/133 106/161/133 111/132/133
f 87/134/107 92/142/107 93/135/107
f 85/137/146 90/194/146 91/138/146
f 89/140/109 88/136/109 93/135/109
f 86/139/110 91/138/110 92/142/110
f 90/143/111 112/152/111 113/144/111
f 93/146/112 96/153/112 97/147/112
f 91/145/147 113/144/147 95/149/147
f 85/151/148 98/175/148 112/152/148
f 92/150/115 95/149/115 96/153/115
f 97/147/116 96/153/116 100/154/116
f 114/155/149 99/192/149 126/156/149
f 95/149/118 99/165/118 100/154/118
f 112/158/150 98/193/150 125/159/150
f 100/154/120 105/166/120 106/161/120
f 103/162/151 116/183/151 119/163/151
f 99/165/122 104/173/122 105/166/122
f 104/167/123 99/187/123 118/168/123
f 106/161/124 105/166/124 110/170/124
f 103/171/125 108/176/125 109/172/125
f 85/151/126 107/195/126 102/174/126
f 104/173/152 109/172/152 110/170/152
f 102/174/128 107/195/128 108/176/128
f 111/177/153 110/180/153 88/136/153
f 108/178/130 86/139/130 87/134/130
f 109/179/131 87/134/131 88/136/131
f 107/181/132 85/137/132 86/139/132
f 97/147/106 101/131/106 89/133/106
f 115/182/134 116/183/134 120/169/134
f 115/182/154 117/185/154 119/163/154
f 114/184/155 98/186/155 117/185/155
f 102/164/137 119/163/137 117/185/137
f 103/162/156 104/167/156 120/169/156
f 114/184/157 115/182/157 118/168/157
f 121/188/140 122/157/140 126/156/140
f 121/188/158 123/160/158 125/159/158
f 113/190/159 121/188/159 124/189/159
f 95/191/160 124/189/160 126/156/160
f 114/155/161 122/157/161 125/159/161
f 113/190/162 112/158/162 123/160/162
