# Blender v2.81 (sub 16) OBJ File: 'garbage.blend'
# www.blender.org
v -2.586370 2.604187 4.121644
v -2.590739 2.579213 4.108272
v -2.586972 2.550834 4.106831
v -2.576079 2.526655 4.117708
v -2.560978 2.513155 4.137989
v -2.559671 2.611412 4.120409
v -2.544495 2.591728 4.106132
v -2.533575 2.565286 4.104361
v -2.529835 2.539171 4.115569
v -2.534279 2.520380 4.136753
v -2.506978 2.580958 4.150331
v -2.506802 2.552744 4.155380
v -2.520981 2.528217 4.159738
v -2.559774 2.619859 4.167614
v -2.533779 2.582180 4.198771
v -2.530012 2.553802 4.197330
v -2.534381 2.528827 4.183959
v -2.586473 2.612634 4.168849
v -2.590916 2.593843 4.190033
v -2.587177 2.567729 4.201241
v -2.576256 2.541286 4.199470
v -2.561080 2.521602 4.185194
v -2.599771 2.604797 4.145864
v -2.613950 2.580271 4.150222
v -2.613773 2.552056 4.155271
v -2.599289 2.527713 4.159658
v -2.574378 2.513765 4.162209
v -2.546373 2.619249 4.143394
v -2.521462 2.605301 4.145944
v -2.544673 2.606359 4.187894
v -2.571215 2.626495 4.225577
v -2.574988 2.625474 4.225751
v -2.568061 2.627455 4.189630
v -2.554435 2.596495 4.218383
v -2.581276 2.623878 4.190241
v -2.574935 2.590948 4.219331
v -2.501828 2.636945 4.176930
v -2.507322 2.637195 4.186860
v -2.519297 2.636341 4.170272
v -2.504812 2.614117 4.178359
v -2.521815 2.636456 4.174823
v -2.507337 2.614232 4.182923
vt 0.274240 0.539347
vt 0.265397 0.539709
vt 0.266768 0.532487
vt 0.231414 0.551290
vt 0.214659 0.541092
vt 0.231357 0.542861
vt 0.231940 0.569242
vt 0.215985 0.562822
vt 0.231472 0.559719
vt 0.230890 0.533338
vt 0.220414 0.530957
vt 0.213134 0.552274
vt 0.289666 0.544440
vt 0.282983 0.540904
vt 0.290637 0.536818
vt 0.279682 0.529141
vt 0.275518 0.536619
vt 0.273707 0.532162
vt 0.280945 0.538772
vt 0.286431 0.530872
vt 0.290637 0.551375
vt 0.284312 0.543753
vt 0.278488 0.537315
vt 0.276318 0.541045
vt 0.804698 0.251197
vt 0.792375 0.255919
vt 0.792638 0.252041
vt 0.786357 0.239035
vt 0.792578 0.249274
vt 0.791489 0.249454
vt 0.271776 0.541127
vt 0.760733 0.199751
vt 0.757502 0.209505
vt 0.750621 0.206121
vt 0.278108 0.542645
vt 0.273009 0.544115
vt 0.772804 0.201934
vt 0.766718 0.213101
vt 0.766203 0.208706
vt 0.264007 0.548518
vt 0.277612 0.547903
vt 0.268747 0.555467
vt 0.275021 0.546378
vt 0.280714 0.548498
vt 0.281954 0.545638
vt 0.276612 0.557409
vt 0.240880 0.530957
vt 0.248168 0.561486
vt 0.249693 0.550306
vt 0.246843 0.539760
vt 0.242415 0.571620
vt 0.762287 0.211045
vt 0.762255 0.210544
vt 0.761023 0.221925
vt 0.757316 0.212491
vt 0.750922 0.216572
vt 0.772804 0.220841
vt 0.791613 0.252007
vt 0.791097 0.255536
vt 0.780068 0.250772
vt 0.780487 0.263708
vt 0.804698 0.264828
vt 0.798786 0.238814
vt 0.221949 0.571626
vt 0.283377 0.553479
vn 0.2648 -0.9491 0.1704
vn 0.0619 -0.3861 -0.9204
vn -0.1717 0.4882 -0.8557
vn 0.1749 -0.7545 -0.6325
vn -0.0578 0.0430 -0.9974
vn 0.4588 0.7256 -0.5128
vn 0.8054 -0.5171 -0.2897
vn 0.7547 0.3489 -0.5556
vn -0.2648 0.9491 -0.1704
vn 0.8744 -0.0802 -0.4785
vn 0.8038 -0.3839 0.4544
vn 0.1646 -0.1668 0.9722
vn 0.8723 0.0914 0.4803
vn -0.3555 0.9085 -0.2196
vn 0.1718 -0.4882 0.8557
vn -0.9499 0.3044 0.0707
vn 0.0578 -0.0430 0.9974
vn 0.2137 -0.6680 0.7128
vn -0.4588 -0.7256 0.5128
vn -0.8744 0.0802 0.4786
vn -0.7547 -0.3489 0.5556
vn -0.8054 0.5171 0.2897
vn -0.4571 -0.8588 -0.2313
vn -0.8723 -0.0914 -0.4803
vn -0.7526 -0.5205 -0.4033
vn -0.8038 0.3839 -0.4544
vn 0.2647 -0.9491 0.1704
vn 0.0945 -0.1819 0.9788
vn -0.2611 0.9653 0.0029
vn 0.6709 0.7373 0.0786
vn -0.2566 0.8798 -0.4001
vn -0.8781 -0.0888 0.4702
vn 0.7492 0.5213 0.4086
vn 0.8711 -0.0836 0.4840
vn -0.0206 0.9991 -0.0366
vn 0.7799 0.3736 -0.5022
vn 0.7861 -0.4281 0.4458
vn -0.3949 0.6015 0.6944
vn 0.2721 0.5818 -0.7665
vn 0.4588 0.7256 -0.5129
vn 0.8744 -0.0802 -0.4786
vn 0.0317 0.4219 0.9061
vn 0.1717 -0.4882 0.8557
vn -0.9412 0.3011 0.1531
vn 0.2138 -0.6680 0.7128
vn -0.8744 0.0802 0.4785
vn -0.4572 -0.8588 -0.2313
vn 0.0942 -0.1819 0.9788
vn 0.6696 0.7427 -0.0042
vn -0.2567 0.8798 -0.4001
vn -0.8714 0.0827 0.4835
vn 0.8401 0.3762 0.3907
vn 0.8710 -0.0836 0.4840
vn -0.0206 0.9991 -0.0365
vn 0.8956 -0.1434 -0.4210
vn 0.7862 -0.4281 0.4457
vn -0.5109 0.6382 0.5760
vn 0.3850 0.5525 -0.7392
s off
f 17/1/1 27/2/1 5/3/1
f 3/4/2 9/5/2 4/6/2
f 1/7/3 7/8/3 2/9/3
f 5/10/4 9/5/4 10/11/4
f 2/9/5 8/12/5 3/4/5
f 6/13/6 29/14/6 7/15/6
f 9/16/7 13/17/7 10/18/7
f 7/15/8 11/19/8 8/20/8
f 1/21/9 28/22/9 6/13/9
f 8/20/10 12/23/10 9/16/10
f 13/17/11 16/24/11 17/1/11
f 30/25/12 42/26/12 38/27/12
f 11/19/13 16/24/13 12/23/13
f 28/28/14 41/29/14 39/30/14
f 16/24/15 22/31/15 17/1/15
f 19/32/16 35/33/16 18/34/16
f 15/35/17 21/36/17 16/24/17
f 20/37/18 34/38/18 36/39/18
f 22/31/19 26/40/19 27/2/19
f 19/41/20 25/42/20 20/43/20
f 1/21/9 18/44/9 14/45/9
f 20/43/21 26/40/21 21/36/21
f 18/44/22 24/46/22 19/41/22
f 27/47/23 4/6/23 5/10/23
f 24/48/24 3/4/24 25/49/24
f 25/49/25 4/6/25 26/50/25
f 23/51/26 2/9/26 24/48/26
f 13/17/27 5/3/27 10/18/27
f 31/52/28 36/39/28 34/38/28
f 31/52/29 35/33/29 32/53/29
f 30/54/30 33/55/30 31/52/30
f 18/34/31 33/55/31 14/56/31
f 19/32/32 36/39/32 32/53/32
f 30/54/33 34/38/33 15/57/33
f 37/58/34 42/26/34 40/59/34
f 37/58/35 41/29/35 38/27/35
f 29/60/36 40/59/36 11/61/36
f 11/61/37 42/26/37 15/62/37
f 30/25/38 41/29/38 14/63/38
f 29/60/39 39/30/39 37/58/39
f 17/1/1 22/31/1 27/2/1
f 3/4/2 8/12/2 9/5/2
f 1/7/3 6/64/3 7/8/3
f 5/10/4 4/6/4 9/5/4
f 2/9/5 7/8/5 8/12/5
f 6/13/40 28/22/40 29/14/40
f 9/16/7 12/23/7 13/17/7
f 7/15/8 29/14/8 11/19/8
f 1/21/9 14/45/9 28/22/9
f 8/20/41 11/19/41 12/23/41
f 13/17/11 12/23/11 16/24/11
f 30/25/42 15/62/42 42/26/42
f 11/19/13 15/35/13 16/24/13
f 28/28/14 14/63/14 41/29/14
f 16/24/43 21/36/43 22/31/43
f 19/32/44 32/53/44 35/33/44
f 15/35/17 20/43/17 21/36/17
f 20/37/45 15/57/45 34/38/45
f 22/31/19 21/36/19 26/40/19
f 19/41/46 24/46/46 25/42/46
f 1/21/9 23/65/9 18/44/9
f 20/43/21 25/42/21 26/40/21
f 18/44/22 23/65/22 24/46/22
f 27/47/47 26/50/47 4/6/47
f 24/48/24 2/9/24 3/4/24
f 25/49/25 3/4/25 4/6/25
f 23/51/26 1/7/26 2/9/26
f 13/17/1 17/1/1 5/3/1
f 31/52/48 32/53/48 36/39/48
f 31/52/29 33/55/29 35/33/29
f 30/54/49 14/56/49 33/55/49
f 18/34/50 35/33/50 33/55/50
f 19/32/51 20/37/51 36/39/51
f 30/54/52 31/52/52 34/38/52
f 37/58/53 38/27/53 42/26/53
f 37/58/54 39/30/54 41/29/54
f 29/60/55 37/58/55 40/59/55
f 11/61/56 40/59/56 42/26/56
f 30/25/57 38/27/57 41/29/57
f 29/60/58 28/28/58 39/30/58
v 2.702747 3.683100 1.736508
v 2.691038 3.665467 1.755837
v 2.686214 3.638919 1.765508
v 2.689567 3.610569 1.762929
v 2.700198 3.588014 1.748793
v 2.690378 3.680253 1.711902
v 2.669615 3.660535 1.713218
v 2.661477 3.633224 1.716295
v 2.668144 3.605637 1.720310
v 2.687829 3.585167 1.724187
v 2.691993 3.626500 1.670581
v 2.694571 3.599814 1.680720
v 2.703087 3.581805 1.701329
v 2.733263 3.676376 1.690794
v 2.747247 3.625471 1.674079
v 2.742422 3.598923 1.683750
v 2.730714 3.581290 1.703079
v 2.745632 3.679223 1.715401
v 2.765317 3.658753 1.719277
v 2.771984 3.631166 1.723292
v 2.763845 3.603855 1.726370
v 2.743083 3.584137 1.727685
v 2.730373 3.682585 1.738258
v 2.738889 3.664576 1.758867
v 2.741467 3.637890 1.769006
v 2.737417 3.609678 1.765959
v 2.727824 3.587499 1.750542
v 2.705636 3.676891 1.689045
v 2.696043 3.654712 1.673628
v 2.743894 3.653821 1.676658
v 2.790650 3.672343 1.675790
v 2.792398 3.672746 1.679268
v 2.757129 3.680836 1.686148
v 2.774843 3.641037 1.677600
v 2.763252 3.682245 1.698328
v 2.784340 3.643223 1.696493
v 2.717258 3.668532 1.632324
v 2.728584 3.668321 1.633041
v 2.718936 3.675928 1.649423
v 2.718339 3.648720 1.644087
v 2.724126 3.675831 1.649751
v 2.723545 3.648623 1.644416
vt 0.274240 0.539347
vt 0.265397 0.539709
vt 0.266768 0.532487
vt 0.231414 0.551290
vt 0.214659 0.541092
vt 0.231357 0.542861
vt 0.231940 0.569242
vt 0.215985 0.562822
vt 0.231472 0.559719
vt 0.230890 0.533338
vt 0.220414 0.530957
vt 0.213134 0.552274
vt 0.289666 0.544440
vt 0.282983 0.540904
vt 0.290637 0.536818
vt 0.279682 0.529141
vt 0.275518 0.536619
vt 0.273707 0.532162
vt 0.280945 0.538772
vt 0.286431 0.530872
vt 0.290637 0.551375
vt 0.284312 0.543753
vt 0.278488 0.537315
vt 0.276318 0.541045
vt 0.804698 0.251197
vt 0.792375 0.255919
vt 0.792638 0.252041
vt 0.786357 0.239035
vt 0.792578 0.249274
vt 0.791489 0.249454
vt 0.271776 0.541127
vt 0.760733 0.199751
vt 0.757502 0.209505
vt 0.750621 0.206121
vt 0.278108 0.542645
vt 0.273009 0.544115
vt 0.772804 0.201934
vt 0.766718 0.213101
vt 0.766203 0.208706
vt 0.264007 0.548518
vt 0.277612 0.547903
vt 0.268747 0.555467
vt 0.275021 0.546378
vt 0.280714 0.548498
vt 0.281954 0.545638
vt 0.276612 0.557409
vt 0.240880 0.530957
vt 0.248168 0.561486
vt 0.249693 0.550306
vt 0.246843 0.539760
vt 0.242415 0.571620
vt 0.762287 0.211045
vt 0.762255 0.210544
vt 0.761023 0.221925
vt 0.757316 0.212491
vt 0.750922 0.216572
vt 0.772804 0.220841
vt 0.791613 0.252007
vt 0.791097 0.255536
vt 0.780068 0.250772
vt 0.780487 0.263708
vt 0.804698 0.264828
vt 0.798786 0.238814
vt 0.221949 0.571626
vt 0.283377 0.553479
vn -0.0266 -0.9914 0.1281
vn -0.8771 -0.1453 0.4577
vn -0.6586 0.7101 0.2489
vn -0.6934 -0.5879 0.4166
vn -0.8651 0.3029 0.3998
vn -0.6131 0.6122 -0.4993
vn -0.6479 -0.6858 -0.3316
vn -0.8064 0.1767 -0.5643
vn 0.0266 0.9914 -0.1281
vn -0.8184 -0.2715 -0.5064
vn 0.0282 -0.7469 -0.6643
vn 0.7873 -0.4468 -0.4249
vn 0.0527 -0.3502 -0.9352
vn 0.0198 0.9996 -0.0177
vn 0.6586 -0.7101 -0.2489
vn 0.5012 0.6001 0.6235
vn 0.8651 -0.3029 -0.3998
vn 0.5002 -0.8523 -0.1528
vn 0.6131 -0.6123 0.4993
vn 0.8184 0.2715 0.5064
vn 0.8064 -0.1767 0.5643
vn 0.6479 0.6858 0.3316
vn -0.0629 -0.5511 0.8320
vn -0.0527 0.3502 0.9352
vn -0.0647 -0.0980 0.9931
vn -0.0282 0.7469 0.6643
vn 0.8231 -0.4366 -0.3632
vn 0.1812 0.9624 -0.2024
vn -0.1759 0.4018 -0.8987
vn -0.1873 0.9821 -0.0195
vn 0.8014 0.1228 0.5854
vn 0.0710 0.0987 -0.9926
vn 0.0450 -0.5082 -0.8601
vn 0.0424 0.9155 -0.4002
vn -0.7681 0.1767 -0.6155
vn 0.0252 -0.7782 -0.6275
vn 0.8355 0.5146 -0.1928
vn -0.7677 0.6122 -0.1895
vn -0.8771 -0.1454 0.4577
vn -0.6131 0.6123 -0.4993
vn 0.0281 -0.7469 -0.6643
vn 0.8256 0.1472 -0.5448
vn 0.0197 0.9996 -0.0177
vn 0.5710 0.5738 0.5872
vn 0.6131 -0.6122 0.4993
vn 0.8231 -0.4365 -0.3632
vn 0.1813 0.9624 -0.2025
vn -0.2491 0.4273 -0.8691
vn 0.8218 0.2715 0.5010
vn 0.0054 -0.0604 -0.9982
vn 0.0424 0.9155 -0.4001
vn -0.7804 -0.3501 -0.5180
vn 0.0252 -0.7781 -0.6276
vn 0.7828 0.6185 -0.0691
vn -0.7949 0.5384 -0.2799
s off
f 59/66/59 69/67/59 47/68/59
f 45/69/60 51/70/60 46/71/60
f 43/72/61 49/73/61 44/74/61
f 47/75/62 51/70/62 52/76/62
f 44/74/63 50/77/63 45/69/63
f 48/78/64 71/79/64 49/80/64
f 51/81/65 55/82/65 52/83/65
f 49/80/66 53/84/66 50/85/66
f 43/86/67 70/87/67 48/78/67
f 50/85/68 54/88/68 51/81/68
f 55/82/69 58/89/69 59/66/69
f 72/90/70 84/91/70 80/92/70
f 53/84/71 58/89/71 54/88/71
f 70/93/72 83/94/72 81/95/72
f 58/89/73 64/96/73 59/66/73
f 61/97/74 77/98/74 60/99/74
f 57/100/75 63/101/75 58/89/75
f 62/102/76 76/103/76 78/104/76
f 64/96/77 68/105/77 69/67/77
f 61/106/78 67/107/78 62/108/78
f 43/86/67 60/109/67 56/110/67
f 62/108/79 68/105/79 63/101/79
f 60/109/80 66/111/80 61/106/80
f 69/112/81 46/71/81 47/75/81
f 66/113/82 45/69/82 67/114/82
f 67/114/83 46/71/83 68/115/83
f 65/116/84 44/74/84 66/113/84
f 55/82/59 47/68/59 52/83/59
f 73/117/85 78/104/85 76/103/85
f 73/117/86 77/98/86 74/118/86
f 72/119/87 75/120/87 73/117/87
f 60/99/88 75/120/88 56/121/88
f 61/97/89 78/104/89 74/118/89
f 72/119/90 76/103/90 57/122/90
f 79/123/91 84/91/91 82/124/91
f 79/123/92 83/94/92 80/92/92
f 71/125/93 82/124/93 53/126/93
f 53/126/94 84/91/94 57/127/94
f 72/90/95 83/94/95 56/128/95
f 71/125/96 81/95/96 79/123/96
f 59/66/59 64/96/59 69/67/59
f 45/69/97 50/77/97 51/70/97
f 43/72/61 48/129/61 49/73/61
f 47/75/62 46/71/62 51/70/62
f 44/74/63 49/73/63 50/77/63
f 48/78/98 70/87/98 71/79/98
f 51/81/65 54/88/65 55/82/65
f 49/80/66 71/79/66 53/84/66
f 43/86/67 56/110/67 70/87/67
f 50/85/68 53/84/68 54/88/68
f 55/82/99 54/88/99 58/89/99
f 72/90/100 57/127/100 84/91/100
f 53/84/71 57/100/71 58/89/71
f 70/93/101 56/128/101 83/94/101
f 58/89/73 63/101/73 64/96/73
f 61/97/102 74/118/102 77/98/102
f 57/100/75 62/108/75 63/101/75
f 62/102/76 57/122/76 76/103/76
f 64/96/103 63/101/103 68/105/103
f 61/106/78 66/111/78 67/107/78
f 43/86/67 65/130/67 60/109/67
f 62/108/79 67/107/79 68/105/79
f 60/109/80 65/130/80 66/111/80
f 69/112/81 68/115/81 46/71/81
f 66/113/82 44/74/82 45/69/82
f 67/114/83 45/69/83 46/71/83
f 65/116/84 43/72/84 44/74/84
f 55/82/59 59/66/59 47/68/59
f 73/117/104 74/118/104 78/104/104
f 73/117/105 75/120/105 77/98/105
f 72/119/106 56/121/106 75/120/106
f 60/99/88 77/98/88 75/120/88
f 61/97/107 62/102/107 78/104/107
f 72/119/108 73/117/108 76/103/108
f 79/123/91 80/92/91 84/91/91
f 79/123/109 81/95/109 83/94/109
f 71/125/110 79/123/110 82/124/110
f 53/126/111 82/124/111 84/91/111
f 72/90/112 80/92/112 83/94/112
f 71/125/113 70/93/113 81/95/113
v -0.330597 4.398394 1.242888
v -0.345555 4.375846 1.233429
v -0.348337 4.347506 1.230161
v -0.338197 4.320966 1.233960
v -0.317853 4.303338 1.243808
v -0.307195 4.401391 1.228399
v -0.305022 4.381038 1.208334
v -0.301533 4.353500 1.201184
v -0.297664 4.326157 1.208865
v -0.294451 4.306335 1.229319
v -0.253309 4.360220 1.227557
v -0.255901 4.331977 1.231704
v -0.270339 4.309696 1.242505
v -0.282373 4.405114 1.269261
v -0.251889 4.360947 1.282907
v -0.254671 4.332606 1.279640
v -0.269629 4.310059 1.270181
v -0.305775 4.402117 1.283750
v -0.302562 4.382295 1.304204
v -0.298693 4.354952 1.311885
v -0.295204 4.327415 1.304735
v -0.293031 4.307062 1.284670
v -0.329887 4.398757 1.270563
v -0.344325 4.376475 1.281364
v -0.346917 4.348232 1.285512
v -0.336968 4.321595 1.281896
v -0.317143 4.303701 1.271483
v -0.283083 4.404751 1.241586
v -0.263259 4.386858 1.231173
v -0.262029 4.387486 1.279109
v -0.262197 4.407804 1.325121
v -0.265504 4.407380 1.327169
v -0.277114 4.411746 1.292487
v -0.257075 4.376372 1.310319
v -0.288698 4.410262 1.299659
v -0.275043 4.374071 1.321444
v -0.225390 4.411830 1.248184
v -0.225099 4.411979 1.259530
v -0.243628 4.414648 1.251233
v -0.231456 4.389733 1.250821
v -0.243494 4.414716 1.256433
v -0.231322 4.389801 1.256036
vt 0.274240 0.539347
vt 0.265397 0.539709
vt 0.266768 0.532487
vt 0.231414 0.551290
vt 0.214659 0.541092
vt 0.231357 0.542861
vt 0.231940 0.569242
vt 0.215985 0.562822
vt 0.231472 0.559719
vt 0.230890 0.533338
vt 0.220414 0.530957
vt 0.213134 0.552274
vt 0.289666 0.544440
vt 0.282983 0.540904
vt 0.290637 0.536818
vt 0.279682 0.529141
vt 0.275518 0.536619
vt 0.273707 0.532162
vt 0.280945 0.538772
vt 0.286431 0.530872
vt 0.290637 0.551375
vt 0.284312 0.543753
vt 0.278488 0.537315
vt 0.276318 0.541045
vt 0.804698 0.251197
vt 0.792375 0.255919
vt 0.792638 0.252041
vt 0.786357 0.239035
vt 0.792578 0.249274
vt 0.791489 0.249454
vt 0.271776 0.541127
vt 0.760733 0.199751
vt 0.757502 0.209505
vt 0.750621 0.206121
vt 0.278108 0.542645
vt 0.273009 0.544115
vt 0.772804 0.201934
vt 0.766718 0.213101
vt 0.766203 0.208706
vt 0.264007 0.548518
vt 0.277612 0.547903
vt 0.268747 0.555467
vt 0.275021 0.546378
vt 0.280714 0.548498
vt 0.281954 0.545638
vt 0.276612 0.557409
vt 0.240880 0.530957
vt 0.248168 0.561486
vt 0.249693 0.550306
vt 0.246843 0.539760
vt 0.242415 0.571620
vt 0.762287 0.211045
vt 0.762255 0.210544
vt 0.761023 0.221925
vt 0.757316 0.212491
vt 0.750922 0.216572
vt 0.772804 0.220841
vt 0.791613 0.252007
vt 0.791097 0.255536
vt 0.780068 0.250772
vt 0.780487 0.263708
vt 0.804698 0.264828
vt 0.798786 0.238814
vt 0.221949 0.571626
vt 0.283377 0.553479
vn 0.1329 -0.9911 0.0096
vn -0.4742 -0.2997 -0.8279
vn -0.4783 0.5901 -0.6504
vn -0.3043 -0.7075 -0.6378
vn -0.5343 0.1484 -0.8322
vn 0.2707 0.6903 -0.6709
vn 0.4447 -0.6073 -0.6584
vn 0.4309 0.2775 -0.8587
vn -0.1329 0.9911 -0.0096
vn 0.4910 -0.1705 -0.8543
vn 0.8360 -0.5486 -0.0143
vn 0.5895 -0.2845 0.7560
vn 0.9952 -0.0949 -0.0243
vn -0.2418 0.9703 -0.0066
vn 0.4783 -0.5901 0.6504
vn -0.7151 0.4425 0.5411
vn 0.5342 -0.1484 0.8322
vn 0.4099 -0.7596 0.5050
vn -0.2707 -0.6904 0.6709
vn -0.4910 0.1705 0.8543
vn -0.4309 -0.2775 0.8586
vn -0.4447 0.6073 0.6583
vn -0.6620 -0.7490 0.0268
vn -0.9952 0.0949 0.0243
vn -0.9351 -0.3532 0.0286
vn -0.8360 0.5486 0.0143
vn 0.1329 -0.9911 0.0095
vn 0.5304 -0.2889 0.7970
vn -0.0411 0.9895 0.1383
vn 0.7455 0.6108 -0.2670
vn -0.2524 0.9440 -0.2124
vn -0.5296 0.0059 0.8482
vn 0.9350 0.3540 -0.0223
vn 0.9635 -0.2670 -0.0213
vn 0.1499 0.9886 -0.0169
vn 0.4833 0.2926 -0.8251
vn 0.8085 -0.5884 -0.0130
vn 0.1197 0.5859 0.8015
vn -0.0400 0.6032 -0.7966
vn 0.1329 -0.9911 0.0097
vn -0.3043 -0.7075 -0.6379
vn -0.5342 0.1484 -0.8322
vn 0.4309 0.2775 -0.8586
vn 0.5532 0.3214 0.7685
vn -0.2418 0.9703 -0.0065
vn -0.6676 0.4298 0.6079
vn -0.2707 -0.6903 0.6709
vn -0.4309 -0.2775 0.8587
vn -0.4447 0.6073 0.6584
vn 0.5305 -0.2889 0.7970
vn 0.7044 0.6243 -0.3378
vn -0.4855 0.1721 0.8571
vn 0.9764 0.1988 -0.0842
vn 0.9635 -0.2670 -0.0212
vn 0.1499 0.9886 -0.0168
vn 0.5257 -0.2416 -0.8156
vn 0.8085 -0.5884 -0.0131
vn -0.0306 0.6518 0.7578
vn 0.0640 0.5540 -0.8301
s off
f 101/131/114 111/132/114 89/133/114
f 87/134/115 93/135/115 88/136/115
f 85/137/116 91/138/116 86/139/116
f 89/140/117 93/135/117 94/141/117
f 86/139/118 92/142/118 87/134/118
f 90/143/119 113/144/119 91/145/119
f 93/146/120 97/147/120 94/148/120
f 91/145/121 95/149/121 92/150/121
f 85/151/122 112/152/122 90/143/122
f 92/150/123 96/153/123 93/146/123
f 97/147/124 100/154/124 101/131/124
f 114/155/125 126/156/125 122/157/125
f 95/149/126 100/154/126 96/153/126
f 112/158/127 125/159/127 123/160/127
f 100/154/128 106/161/128 101/131/128
f 103/162/129 119/163/129 102/164/129
f 99/165/130 105/166/130 100/154/130
f 104/167/131 118/168/131 120/169/131
f 106/161/132 110/170/132 111/132/132
f 103/171/133 109/172/133 104/173/133
f 85/151/122 102/174/122 98/175/122
f 104/173/134 110/170/134 105/166/134
f 102/174/135 108/176/135 103/171/135
f 111/177/136 88/136/136 89/140/136
f 108/178/137 87/134/137 109/179/137
f 109/179/138 88/136/138 110/180/138
f 107/181/139 86/139/139 108/178/139
f 97/147/140 89/133/140 94/148/140
f 115/182/141 120/169/141 118/168/141
f 115/182/142 119/163/142 116/183/142
f 114/184/143 117/185/143 115/182/143
f 102/164/144 117/185/144 98/186/144
f 103/162/145 120/169/145 116/183/145
f 114/184/146 118/168/146 99/187/146
f 121/188/147 126/156/147 124/189/147
f 121/188/148 125/159/148 122/157/148
f 113/190/149 124/189/149 95/191/149
f 95/191/150 126/156/150 99/192/150
f 114/155/151 125/159/151 98/193/151
f 113/190/152 123/160/152 121/188/152
f 101/131/153 106/161/153 111/132/153
f 87/134/115 92/142/115 93/135/115
f 85/137/116 90/194/116 91/138/116
f 89/140/154 88/136/154 93/135/154
f 86/139/155 91/138/155 92/142/155
f 90/143/119 112/152/119 113/144/119
f 93/146/120 96/153/120 97/147/120
f 91/145/156 113/144/156 95/149/156
f 85/151/122 98/175/122 112/152/122
f 92/150/123 95/149/123 96/153/123
f 97/147/124 96/153/124 100/154/124
f 114/155/157 99/192/157 126/156/157
f 95/149/126 99/165/126 100/154/126
f 112/158/158 98/193/158 125/159/158
f 100/154/128 105/166/128 106/161/128
f 103/162/159 116/183/159 119/163/159
f 99/165/130 104/173/130 105/166/130
f 104/167/131 99/187/131 118/168/131
f 106/161/160 105/166/160 110/170/160
f 103/171/133 108/176/133 109/172/133
f 85/151/122 107/195/122 102/174/122
f 104/173/161 109/172/161 110/170/161
f 102/174/162 107/195/162 108/176/162
f 111/177/136 110/180/136 88/136/136
f 108/178/137 86/139/137 87/134/137
f 109/179/138 87/134/138 88/136/138
f 107/181/139 85/137/139 86/139/139
f 97/147/114 101/131/114 89/133/114
f 115/182/163 116/183/163 120/169/163
f 115/182/142 117/185/142 119/163/142
f 114/184/164 98/186/164 117/185/164
f 102/164/144 119/163/144 117/185/144
f 103/162/165 104/167/165 120/169/165
f 114/184/166 115/182/166 118/168/166
f 121/188/167 122/157/167 126/156/167
f 121/188/168 123/160/168 125/159/168
f 113/190/169 121/188/169 124/189/169
f 95/191/170 124/189/170 126/156/170
f 114/155/171 122/157/171 125/159/171
f 113/190/172 112/158/172 123/160/172
