# Blender v2.81 (sub 16) OBJ File: 'garbage.blend'
# www.blender.org
v -0.971584 2.960371 3.658692
v -0.984181 2.934626 3.658356
v -0.982751 2.906241 3.662076
v -0.967678 2.882822 3.668854
v -0.943001 2.870643 3.676874
v -0.952710 2.962298 3.638527
v -0.951489 2.937963 3.623430
v -0.945002 2.910094 3.621747
v -0.934986 2.886159 3.633928
v -0.924126 2.872570 3.656709
v -0.894085 2.928627 3.633161
v -0.890891 2.902209 3.643813
v -0.898668 2.881837 3.662416
v -0.920668 2.978904 3.670106
v -0.880918 2.943307 3.684905
v -0.879488 2.914922 3.688624
v -0.892084 2.889176 3.688288
v -0.939542 2.976978 3.690271
v -0.928682 2.963389 3.713053
v -0.918667 2.939454 3.725233
v -0.912179 2.911585 3.723550
v -0.910959 2.887250 3.708453
v -0.965001 2.967711 3.684564
v -0.972777 2.947339 3.703167
v -0.969583 2.920921 3.713819
v -0.956274 2.895535 3.713665
v -0.936417 2.877983 3.702745
v -0.927252 2.971565 3.644235
v -0.907394 2.954013 3.633316
v -0.895991 2.966726 3.678127
v -0.889687 2.997733 3.717227
v -0.892354 2.997461 3.720076
v -0.911732 2.991679 3.689291
v -0.882616 2.964395 3.708751
v -0.921074 2.990726 3.699272
v -0.897108 2.962915 3.724233
v -0.871550 2.986582 3.634540
v -0.868851 2.989591 3.645147
v -0.888910 2.987979 3.641363
v -0.873066 2.965301 3.643307
v -0.887673 2.989358 3.646224
v -0.871825 2.966684 3.648182
vt 0.274240 0.539347
vt 0.265397 0.539709
vt 0.266768 0.532487
vt 0.231414 0.551290
vt 0.214659 0.541092
vt 0.231357 0.542861
vt 0.231940 0.569242
vt 0.215985 0.562822
vt 0.231472 0.559719
vt 0.230890 0.533338
vt 0.220414 0.530957
vt 0.213134 0.552274
vt 0.289666 0.544440
vt 0.282983 0.540904
vt 0.290637 0.536818
vt 0.279682 0.529141
vt 0.275518 0.536619
vt 0.273707 0.532162
vt 0.280945 0.538772
vt 0.286431 0.530872
vt 0.290637 0.551375
vt 0.284312 0.543753
vt 0.278488 0.537315
vt 0.276318 0.541045
vt 0.804698 0.251197
vt 0.792375 0.255919
vt 0.792638 0.252041
vt 0.786357 0.239035
vt 0.792578 0.249274
vt 0.791489 0.249454
vt 0.271776 0.541127
vt 0.760733 0.199751
vt 0.757502 0.209505
vt 0.750621 0.206121
vt 0.278108 0.542645
vt 0.273009 0.544115
vt 0.772804 0.201934
vt 0.766718 0.213101
vt 0.766203 0.208706
vt 0.264007 0.548518
vt 0.277612 0.547903
vt 0.268747 0.555467
vt 0.275021 0.546378
vt 0.280714 0.548498
vt 0.281954 0.545638
vt 0.276612 0.557409
vt 0.240880 0.530957
vt 0.248168 0.561486
vt 0.249693 0.550306
vt 0.246843 0.539760
vt 0.242415 0.571620
vt 0.762287 0.211045
vt 0.762255 0.210544
vt 0.761023 0.221925
vt 0.757316 0.212491
vt 0.750922 0.216572
vt 0.772804 0.220841
vt 0.791613 0.252007
vt 0.791097 0.255536
vt 0.780068 0.250772
vt 0.780487 0.263708
vt 0.804698 0.264828
vt 0.798786 0.238814
vt 0.221949 0.571626
vt 0.283377 0.553479
vn 0.2980 -0.9355 0.1896
vn -0.5835 -0.5488 -0.5986
vn -0.7002 0.3507 -0.6219
vn -0.3100 -0.8742 -0.3737
vn -0.7182 -0.1259 -0.6843
vn -0.0014 0.5271 -0.8498
vn 0.3889 -0.6978 -0.6016
vn 0.1823 0.1015 -0.9780
vn -0.2980 0.9355 -0.1896
vn 0.3170 -0.3214 -0.8923
vn 0.8939 -0.4360 -0.1038
vn 0.7781 -0.0178 0.6279
vn 0.9679 0.0159 -0.2508
vn -0.3986 0.9039 -0.1550
vn 0.7002 -0.3507 0.6219
vn -0.6462 0.4792 0.5939
vn 0.7182 0.1259 0.6843
vn 0.6319 -0.5577 0.5382
vn 0.0014 -0.5271 0.8498
vn -0.3170 0.3214 0.8923
vn -0.1823 -0.1015 0.9780
vn -0.3889 0.6978 0.6016
vn -0.5037 -0.7889 0.3520
vn -0.9679 -0.0159 0.2508
vn -0.8332 -0.4388 0.3365
vn -0.8939 0.4360 0.1038
vn 0.7308 -0.0185 0.6823
vn -0.1777 0.9814 -0.0725
vn 0.5557 0.6055 -0.5697
vn -0.4487 0.8260 -0.3411
vn -0.3276 0.1572 0.9317
vn 0.8342 0.4412 -0.3307
vn 0.9673 -0.1525 -0.2029
vn -0.0272 0.9635 -0.2664
vn 0.2373 0.1303 -0.9627
vn 0.8745 -0.4771 -0.0872
vn 0.1884 0.7772 0.6004
vn -0.3124 0.3766 -0.8721
vn 0.3888 -0.6978 -0.6016
vn 0.6431 0.5639 0.5182
vn -0.5840 0.4891 0.6479
vn -0.2980 0.9356 -0.1895
vn -0.3888 0.6978 0.6016
vn -0.1776 0.9814 -0.0725
vn 0.4987 0.5961 -0.6292
vn -0.4487 0.8261 -0.3411
vn -0.3114 0.3242 0.8932
vn 0.8871 0.2812 -0.3660
vn 0.3709 -0.3762 -0.8491
vn 0.0232 0.8125 0.5825
vn -0.2113 0.3327 -0.9191
s off
f 17/1/1 27/2/1 5/3/1
f 3/4/2 9/5/2 4/6/2
f 1/7/3 7/8/3 2/9/3
f 5/10/4 9/5/4 10/11/4
f 2/9/5 8/12/5 3/4/5
f 6/13/6 29/14/6 7/15/6
f 9/16/7 13/17/7 10/18/7
f 7/15/8 11/19/8 8/20/8
f 1/21/9 28/22/9 6/13/9
f 8/20/10 12/23/10 9/16/10
f 13/17/11 16/24/11 17/1/11
f 30/25/12 42/26/12 38/27/12
f 11/19/13 16/24/13 12/23/13
f 28/28/14 41/29/14 39/30/14
f 16/24/15 22/31/15 17/1/15
f 19/32/16 35/33/16 18/34/16
f 15/35/17 21/36/17 16/24/17
f 20/37/18 34/38/18 36/39/18
f 22/31/19 26/40/19 27/2/19
f 19/41/20 25/42/20 20/43/20
f 1/21/9 18/44/9 14/45/9
f 20/43/21 26/40/21 21/36/21
f 18/44/22 24/46/22 19/41/22
f 27/47/23 4/6/23 5/10/23
f 24/48/24 3/4/24 25/49/24
f 25/49/25 4/6/25 26/50/25
f 23/51/26 2/9/26 24/48/26
f 13/17/1 5/3/1 10/18/1
f 31/52/27 36/39/27 34/38/27
f 31/52/28 35/33/28 32/53/28
f 30/54/29 33/55/29 31/52/29
f 18/34/30 33/55/30 14/56/30
f 19/32/31 36/39/31 32/53/31
f 30/54/32 34/38/32 15/57/32
f 37/58/33 42/26/33 40/59/33
f 37/58/34 41/29/34 38/27/34
f 29/60/35 40/59/35 11/61/35
f 11/61/36 42/26/36 15/62/36
f 30/25/37 41/29/37 14/63/37
f 29/60/38 39/30/38 37/58/38
f 17/1/1 22/31/1 27/2/1
f 3/4/2 8/12/2 9/5/2
f 1/7/3 6/64/3 7/8/3
f 5/10/4 4/6/4 9/5/4
f 2/9/5 7/8/5 8/12/5
f 6/13/6 28/22/6 29/14/6
f 9/16/39 12/23/39 13/17/39
f 7/15/8 29/14/8 11/19/8
f 1/21/9 14/45/9 28/22/9
f 8/20/10 11/19/10 12/23/10
f 13/17/11 12/23/11 16/24/11
f 30/25/40 15/62/40 42/26/40
f 11/19/13 15/35/13 16/24/13
f 28/28/14 14/63/14 41/29/14
f 16/24/15 21/36/15 22/31/15
f 19/32/41 32/53/41 35/33/41
f 15/35/17 20/43/17 21/36/17
f 20/37/18 15/57/18 34/38/18
f 22/31/19 21/36/19 26/40/19
f 19/41/20 24/46/20 25/42/20
f 1/21/42 23/65/42 18/44/42
f 20/43/21 25/42/21 26/40/21
f 18/44/43 23/65/43 24/46/43
f 27/47/23 26/50/23 4/6/23
f 24/48/24 2/9/24 3/4/24
f 25/49/25 3/4/25 4/6/25
f 23/51/26 1/7/26 2/9/26
f 13/17/1 17/1/1 5/3/1
f 31/52/27 32/53/27 36/39/27
f 31/52/44 33/55/44 35/33/44
f 30/54/45 14/56/45 33/55/45
f 18/34/46 35/33/46 33/55/46
f 19/32/47 20/37/47 36/39/47
f 30/54/48 31/52/48 34/38/48
f 37/58/33 38/27/33 42/26/33
f 37/58/34 39/30/34 41/29/34
f 29/60/49 37/58/49 40/59/49
f 11/61/36 40/59/36 42/26/36
f 30/25/50 38/27/50 41/29/50
f 29/60/51 28/28/51 39/30/51
v 4.203487 3.262391 -1.959303
v 4.207109 3.248646 -1.934412
v 4.208123 3.224207 -1.919469
v 4.206255 3.195621 -1.918478
v 4.202007 3.170549 -1.931705
v 4.177281 3.260210 -1.967966
v 4.161719 3.244869 -1.949416
v 4.155710 3.219845 -1.936795
v 4.160865 3.191844 -1.933483
v 4.175801 3.168368 -1.940368
v 4.144959 3.204372 -1.988864
v 4.151554 3.178444 -1.978577
v 4.170425 3.160632 -1.966403
v 4.192736 3.246918 -2.011372
v 4.186620 3.193260 -2.023608
v 4.187634 3.168821 -2.008666
v 4.191256 3.155076 -1.983775
v 4.218942 3.249099 -2.002709
v 4.233879 3.225623 -2.009594
v 4.239033 3.197622 -2.006283
v 4.233024 3.172598 -1.993661
v 4.217462 3.157257 -1.975112
v 4.224318 3.256835 -1.976675
v 4.243189 3.239023 -1.964501
v 4.249784 3.213095 -1.954213
v 4.242334 3.185998 -1.948567
v 4.222837 3.164993 -1.949077
v 4.171906 3.252474 -1.994000
v 4.152409 3.231469 -1.994510
v 4.188488 3.221846 -2.024599
v 4.222752 3.231181 -2.060220
v 4.226455 3.231489 -2.058995
v 4.206861 3.246497 -2.031655
v 4.210057 3.203589 -2.042589
v 4.219834 3.247576 -2.027366
v 4.230178 3.205264 -2.035938
v 4.139894 3.238173 -2.040829
v 4.148434 3.235896 -2.047951
v 4.153652 3.246292 -2.031100
v 4.147151 3.219373 -2.029607
v 4.157566 3.245248 -2.034364
v 4.151076 3.218326 -2.032880
vt 0.274240 0.539347
vt 0.265397 0.539709
vt 0.266768 0.532487
vt 0.231414 0.551290
vt 0.214659 0.541092
vt 0.231357 0.542861
vt 0.231940 0.569242
vt 0.215985 0.562822
vt 0.231472 0.559719
vt 0.230890 0.533338
vt 0.220414 0.530957
vt 0.213134 0.552274
vt 0.289666 0.544440
vt 0.282983 0.540904
vt 0.290637 0.536818
vt 0.279682 0.529141
vt 0.275518 0.536619
vt 0.273707 0.532162
vt 0.280945 0.538772
vt 0.286431 0.530872
vt 0.290637 0.551375
vt 0.284312 0.543753
vt 0.278488 0.537315
vt 0.276318 0.541045
vt 0.804698 0.251197
vt 0.792375 0.255919
vt 0.792638 0.252041
vt 0.786357 0.239035
vt 0.792578 0.249274
vt 0.791489 0.249454
vt 0.271776 0.541127
vt 0.760733 0.199751
vt 0.757502 0.209505
vt 0.750621 0.206121
vt 0.278108 0.542645
vt 0.273009 0.544115
vt 0.772804 0.201934
vt 0.766718 0.213101
vt 0.766203 0.208706
vt 0.264007 0.548518
vt 0.277612 0.547903
vt 0.268747 0.555467
vt 0.275021 0.546378
vt 0.280714 0.548498
vt 0.281954 0.545638
vt 0.276612 0.557409
vt 0.240880 0.530957
vt 0.248168 0.561486
vt 0.249693 0.550306
vt 0.246843 0.539760
vt 0.242415 0.571620
vt 0.762287 0.211045
vt 0.762255 0.210544
vt 0.761023 0.221925
vt 0.757316 0.212491
vt 0.750922 0.216572
vt 0.772804 0.220841
vt 0.791613 0.252007
vt 0.791097 0.255536
vt 0.780068 0.250772
vt 0.780487 0.263708
vt 0.804698 0.264828
vt 0.798786 0.238814
vt 0.221949 0.571626
vt 0.283377 0.553479
vn -0.0154 -0.9576 0.2878
vn -0.3174 0.0536 0.9468
vn -0.2335 0.8364 0.4959
vn -0.2537 -0.4173 0.8726
vn -0.3104 0.4865 0.8167
vn -0.7314 0.6801 -0.0511
vn -0.7516 -0.5737 0.3256
vn -0.9520 0.2850 0.1118
vn 0.0154 0.9576 -0.2877
vn -0.9590 -0.1479 0.2420
vn -0.5079 -0.7832 -0.3586
vn 0.2252 -0.6146 -0.7560
vn -0.6450 -0.4179 -0.6398
vn 0.0883 0.9746 -0.2059
vn 0.2335 -0.8364 -0.4958
vn 0.8433 0.5374 -0.0027
vn 0.3105 -0.4865 -0.8167
vn 0.1755 -0.9394 -0.2945
vn 0.7314 -0.6801 0.0511
vn 0.9589 0.1479 -0.2419
vn 0.9520 -0.2850 -0.1119
vn 0.7515 0.5737 -0.3257
vn 0.4877 -0.4706 0.7353
vn 0.6450 0.4179 0.6398
vn 0.6380 -0.0150 0.7699
vn 0.5079 0.7832 0.3586
vn -0.0154 -0.9576 0.2877
vn 0.2945 -0.6071 -0.7380
vn 0.0711 0.8950 -0.4404
vn -0.7170 0.3644 -0.5942
vn -0.0618 0.9961 -0.0637
vn 0.9890 0.0109 -0.1473
vn -0.6332 0.0146 -0.7739
vn -0.6118 -0.5660 -0.5526
vn -0.1696 0.8613 -0.4789
vn -0.9604 0.2743 0.0494
vn -0.4871 -0.8108 -0.3247
vn 0.5045 0.3345 -0.7960
vn -0.6253 0.7304 0.2747
vn -0.3174 0.0535 0.9468
vn -0.2537 -0.4174 0.8726
vn -0.3105 0.4865 0.8167
vn -0.7313 0.6801 -0.0511
vn -0.7515 -0.5737 0.3257
vn -0.9520 0.2850 0.1119
vn 0.0154 0.9576 -0.2878
vn -0.9590 -0.1479 0.2419
vn 0.2202 -0.0482 -0.9743
vn 0.0883 0.9746 -0.2058
vn 0.2335 -0.8364 -0.4959
vn 0.8654 0.4961 -0.0711
vn 0.3104 -0.4865 -0.8167
vn 0.9590 0.1478 -0.2419
vn 0.7516 0.5737 -0.3256
vn 0.4877 -0.4705 0.7353
vn 0.2946 -0.6071 -0.7380
vn 0.0711 0.8950 -0.4403
vn -0.7463 0.4051 -0.5282
vn 0.9575 0.1469 -0.2480
vn -0.6974 -0.1295 -0.7048
vn -0.1696 0.8614 -0.4788
vn -0.9468 -0.2328 0.2221
vn -0.4870 -0.8108 -0.3247
vn 0.5622 0.4547 -0.6908
vn -0.7141 0.6569 0.2419
s off
f 59/66/52 69/67/52 47/68/52
f 45/69/53 51/70/53 46/71/53
f 43/72/54 49/73/54 44/74/54
f 47/75/55 51/70/55 52/76/55
f 44/74/56 50/77/56 45/69/56
f 48/78/57 71/79/57 49/80/57
f 51/81/58 55/82/58 52/83/58
f 49/80/59 53/84/59 50/85/59
f 43/86/60 70/87/60 48/78/60
f 50/85/61 54/88/61 51/81/61
f 55/82/62 58/89/62 59/66/62
f 72/90/63 84/91/63 80/92/63
f 53/84/64 58/89/64 54/88/64
f 70/93/65 83/94/65 81/95/65
f 58/89/66 64/96/66 59/66/66
f 61/97/67 77/98/67 60/99/67
f 57/100/68 63/101/68 58/89/68
f 62/102/69 76/103/69 78/104/69
f 64/96/70 68/105/70 69/67/70
f 61/106/71 67/107/71 62/108/71
f 43/86/60 60/109/60 56/110/60
f 62/108/72 68/105/72 63/101/72
f 60/109/73 66/111/73 61/106/73
f 69/112/74 46/71/74 47/75/74
f 66/113/75 45/69/75 67/114/75
f 67/114/76 46/71/76 68/115/76
f 65/116/77 44/74/77 66/113/77
f 55/82/78 47/68/78 52/83/78
f 73/117/79 78/104/79 76/103/79
f 73/117/80 77/98/80 74/118/80
f 72/119/81 75/120/81 73/117/81
f 60/99/82 75/120/82 56/121/82
f 61/97/83 78/104/83 74/118/83
f 72/119/84 76/103/84 57/122/84
f 79/123/85 84/91/85 82/124/85
f 79/123/86 83/94/86 80/92/86
f 71/125/87 82/124/87 53/126/87
f 53/126/88 84/91/88 57/127/88
f 72/90/89 83/94/89 56/128/89
f 71/125/90 81/95/90 79/123/90
f 59/66/78 64/96/78 69/67/78
f 45/69/91 50/77/91 51/70/91
f 43/72/54 48/129/54 49/73/54
f 47/75/92 46/71/92 51/70/92
f 44/74/93 49/73/93 50/77/93
f 48/78/94 70/87/94 71/79/94
f 51/81/95 54/88/95 55/82/95
f 49/80/96 71/79/96 53/84/96
f 43/86/97 56/110/97 70/87/97
f 50/85/98 53/84/98 54/88/98
f 55/82/62 54/88/62 58/89/62
f 72/90/99 57/127/99 84/91/99
f 53/84/64 57/100/64 58/89/64
f 70/93/100 56/128/100 83/94/100
f 58/89/101 63/101/101 64/96/101
f 61/97/102 74/118/102 77/98/102
f 57/100/103 62/108/103 63/101/103
f 62/102/69 57/122/69 76/103/69
f 64/96/70 63/101/70 68/105/70
f 61/106/104 66/111/104 67/107/104
f 43/86/60 65/130/60 60/109/60
f 62/108/72 67/107/72 68/105/72
f 60/109/105 65/130/105 66/111/105
f 69/112/106 68/115/106 46/71/106
f 66/113/75 44/74/75 45/69/75
f 67/114/76 45/69/76 46/71/76
f 65/116/77 43/72/77 44/74/77
f 55/82/78 59/66/78 47/68/78
f 73/117/107 74/118/107 78/104/107
f 73/117/108 75/120/108 77/98/108
f 72/119/109 56/121/109 75/120/109
f 60/99/82 77/98/82 75/120/82
f 61/97/110 62/102/110 78/104/110
f 72/119/111 73/117/111 76/103/111
f 79/123/85 80/92/85 84/91/85
f 79/123/112 81/95/112 83/94/112
f 71/125/113 79/123/113 82/124/113
f 53/126/114 82/124/114 84/91/114
f 72/90/115 80/92/115 83/94/115
f 71/125/116 70/93/116 81/95/116
v 0.667815 4.442480 0.290698
v 0.661256 4.423724 0.311357
v 0.658022 4.396648 0.320189
v 0.658978 4.368506 0.314828
v 0.663869 4.346840 0.296710
v 0.648745 4.442006 0.270632
v 0.628226 4.422903 0.276601
v 0.619882 4.395699 0.280056
v 0.625948 4.367684 0.280072
v 0.644799 4.346366 0.276644
v 0.635522 4.391724 0.227086
v 0.639492 4.364242 0.234198
v 0.652619 4.344378 0.250159
v 0.683455 4.438505 0.237728
v 0.689302 4.388697 0.214249
v 0.686067 4.361621 0.223081
v 0.679509 4.342865 0.243740
v 0.702525 4.438979 0.257795
v 0.721376 4.417661 0.254367
v 0.727442 4.389646 0.254383
v 0.719098 4.362442 0.257838
v 0.698579 4.343339 0.263807
v 0.694705 4.440967 0.284280
v 0.707831 4.421103 0.300240
v 0.711802 4.393621 0.307353
v 0.705553 4.365885 0.303711
v 0.690759 4.345327 0.290292
v 0.656565 4.440018 0.244147
v 0.641771 4.419460 0.230727
v 0.688346 4.416839 0.219610
v 0.733782 4.433907 0.206411
v 0.736477 4.433974 0.209247
v 0.705170 4.442579 0.226641
v 0.717528 4.403063 0.210621
v 0.714610 4.442814 0.236574
v 0.732170 4.403427 0.226029
v 0.650881 4.435887 0.186071
v 0.661905 4.435266 0.183440
v 0.657807 4.441829 0.202398
v 0.654253 4.415169 0.195634
v 0.662859 4.441545 0.201192
v 0.659320 4.414884 0.194425
vt 0.274240 0.539347
vt 0.265397 0.539709
vt 0.266768 0.532487
vt 0.231414 0.551290
vt 0.214659 0.541092
vt 0.231357 0.542861
vt 0.231940 0.569242
vt 0.215985 0.562822
vt 0.231472 0.559719
vt 0.230890 0.533338
vt 0.220414 0.530957
vt 0.213134 0.552274
vt 0.289666 0.544440
vt 0.282983 0.540904
vt 0.290637 0.536818
vt 0.279682 0.529141
vt 0.275518 0.536619
vt 0.273707 0.532162
vt 0.280945 0.538772
vt 0.286431 0.530872
vt 0.290637 0.551375
vt 0.284312 0.543753
vt 0.278488 0.537315
vt 0.276318 0.541045
vt 0.804698 0.251197
vt 0.792375 0.255919
vt 0.792638 0.252041
vt 0.786357 0.239035
vt 0.792578 0.249274
vt 0.791489 0.249454
vt 0.271776 0.541127
vt 0.760733 0.199751
vt 0.757502 0.209505
vt 0.750621 0.206121
vt 0.278108 0.542645
vt 0.273009 0.544115
vt 0.772804 0.201934
vt 0.766718 0.213101
vt 0.766203 0.208706
vt 0.264007 0.548518
vt 0.277612 0.547903
vt 0.268747 0.555467
vt 0.275021 0.546378
vt 0.280714 0.548498
vt 0.281954 0.545638
vt 0.276612 0.557409
vt 0.240880 0.530957
vt 0.248168 0.561486
vt 0.249693 0.550306
vt 0.246843 0.539760
vt 0.242415 0.571620
vt 0.762287 0.211045
vt 0.762255 0.210544
vt 0.761023 0.221925
vt 0.757316 0.212491
vt 0.750922 0.216572
vt 0.772804 0.220841
vt 0.791613 0.252007
vt 0.791097 0.255536
vt 0.780068 0.250772
vt 0.780487 0.263708
vt 0.804698 0.264828
vt 0.798786 0.238814
vt 0.221949 0.571626
vt 0.283377 0.553479
vn -0.0411 -0.9972 0.0627
vn -0.7144 -0.1543 0.6825
vn -0.5202 0.7080 0.4777
vn -0.5741 -0.5976 0.5597
vn -0.6958 0.2965 0.6542
vn -0.6975 0.6692 -0.2562
vn -0.7514 -0.6364 -0.1741
vn -0.9243 0.2465 -0.2914
vn 0.0411 0.9972 -0.0627
vn -0.9429 -0.2043 -0.2631
vn -0.2043 -0.6916 -0.6928
vn 0.6065 -0.4355 -0.6652
vn -0.2378 -0.2754 -0.9314
vn 0.0669 0.9967 0.0452
vn 0.5202 -0.7080 -0.4776
vn 0.6908 0.5321 0.4895
vn 0.6958 -0.2965 -0.6542
vn 0.3889 -0.8524 -0.3494
vn 0.6975 -0.6692 0.2562
vn 0.9429 0.2043 0.2631
vn 0.0412 0.9972 -0.0627
vn 0.9243 -0.2465 0.2914
vn 0.7514 0.6364 0.1741
vn 0.1504 -0.6140 0.7748
vn 0.2378 0.2754 0.9314
vn 0.2192 -0.1754 0.9598
vn 0.2043 0.6916 0.6928
vn -0.0412 -0.9972 0.0627
vn 0.6590 -0.4314 -0.6161
vn 0.1661 0.9694 -0.1806
vn -0.4059 0.4781 -0.7789
vn -0.1325 0.9858 0.1027
vn 0.9415 0.0504 0.3333
vn -0.2130 0.1759 -0.9611
vn -0.2319 -0.4386 -0.8683
vn -0.0262 0.9429 -0.3321
vn -0.9024 0.2494 -0.3515
vn -0.1981 -0.7256 -0.6589
vn 0.7705 0.5022 -0.3926
vn -0.7560 0.6490 0.0845
vn -0.5202 0.7080 0.4776
vn 0.6401 0.1647 -0.7505
vn 0.7457 0.5067 0.4327
vn 0.3889 -0.8524 -0.3495
vn 0.1504 -0.6140 0.7749
vn 0.1660 0.9694 -0.1808
vn -0.4659 0.5033 -0.7277
vn -0.1326 0.9858 0.1027
vn 0.9445 0.2047 0.2570
vn -0.2858 0.0198 -0.9581
vn -0.0262 0.9429 -0.3320
vn -0.9141 -0.2829 -0.2905
vn -0.1981 -0.7257 -0.6589
vn 0.7613 0.5974 -0.2522
vn -0.8120 0.5836 0.0011
s off
f 101/131/117 111/132/117 89/133/117
f 87/134/118 93/135/118 88/136/118
f 85/137/119 91/138/119 86/139/119
f 89/140/120 93/135/120 94/141/120
f 86/139/121 92/142/121 87/134/121
f 90/143/122 113/144/122 91/145/122
f 93/146/123 97/147/123 94/148/123
f 91/145/124 95/149/124 92/150/124
f 85/151/125 112/152/125 90/143/125
f 92/150/126 96/153/126 93/146/126
f 97/147/127 100/154/127 101/131/127
f 114/155/128 126/156/128 122/157/128
f 95/149/129 100/154/129 96/153/129
f 112/158/130 125/159/130 123/160/130
f 100/154/131 106/161/131 101/131/131
f 103/162/132 119/163/132 102/164/132
f 99/165/133 105/166/133 100/154/133
f 104/167/134 118/168/134 120/169/134
f 106/161/135 110/170/135 111/132/135
f 103/171/136 109/172/136 104/173/136
f 85/151/137 102/174/137 98/175/137
f 104/173/138 110/170/138 105/166/138
f 102/174/139 108/176/139 103/171/139
f 111/177/140 88/136/140 89/140/140
f 108/178/141 87/134/141 109/179/141
f 109/179/142 88/136/142 110/180/142
f 107/181/143 86/139/143 108/178/143
f 97/147/144 89/133/144 94/148/144
f 115/182/145 120/169/145 118/168/145
f 115/182/146 119/163/146 116/183/146
f 114/184/147 117/185/147 115/182/147
f 102/164/148 117/185/148 98/186/148
f 103/162/149 120/169/149 116/183/149
f 114/184/150 118/168/150 99/187/150
f 121/188/151 126/156/151 124/189/151
f 121/188/152 125/159/152 122/157/152
f 113/190/153 124/189/153 95/191/153
f 95/191/154 126/156/154 99/192/154
f 114/155/155 125/159/155 98/193/155
f 113/190/156 123/160/156 121/188/156
f 101/131/117 106/161/117 111/132/117
f 87/134/118 92/142/118 93/135/118
f 85/137/157 90/194/157 91/138/157
f 89/140/120 88/136/120 93/135/120
f 86/139/121 91/138/121 92/142/121
f 90/143/122 112/152/122 113/144/122
f 93/146/123 96/153/123 97/147/123
f 91/145/124 113/144/124 95/149/124
f 85/151/125 98/175/125 112/152/125
f 92/150/126 95/149/126 96/153/126
f 97/147/127 96/153/127 100/154/127
f 114/155/158 99/192/158 126/156/158
f 95/149/129 99/165/129 100/154/129
f 112/158/130 98/193/130 125/159/130
f 100/154/131 105/166/131 106/161/131
f 103/162/159 116/183/159 119/163/159
f 99/165/133 104/173/133 105/166/133
f 104/167/160 99/187/160 118/168/160
f 106/161/135 105/166/135 110/170/135
f 103/171/136 108/176/136 109/172/136
f 85/151/125 107/195/125 102/174/125
f 104/173/138 109/172/138 110/170/138
f 102/174/139 107/195/139 108/176/139
f 111/177/161 110/180/161 88/136/161
f 108/178/141 86/139/141 87/134/141
f 109/179/142 87/134/142 88/136/142
f 107/181/143 85/137/143 86/139/143
f 97/147/117 101/131/117 89/133/117
f 115/182/145 116/183/145 120/169/145
f 115/182/162 117/185/162 119/163/162
f 114/184/163 98/186/163 117/185/163
f 102/164/164 119/163/164 117/185/164
f 103/162/165 104/167/165 120/169/165
f 114/184/166 115/182/166 118/168/166
f 121/188/151 122/157/151 126/156/151
f 121/188/167 123/160/167 125/159/167
f 113/190/168 121/188/168 124/189/168
f 95/191/169 124/189/169 126/156/169
f 114/155/170 122/157/170 125/159/170
f 113/190/171 112/158/171 123/160/171
