# Blender v2.81 (sub 16) OBJ File: 'garbage.blend'
# www.blender.org
v -1.332593 2.632205 -2.105393
v -1.318008 2.610322 -2.093989
v -1.316055 2.582457 -2.087563
v -1.327258 2.556075 -2.087835
v -1.348615 2.538245 -2.094733
v -1.355206 2.637760 -2.090415
v -1.357175 2.619945 -2.068047
v -1.361282 2.593568 -2.057607
v -1.366426 2.565697 -2.061893
v -1.371229 2.543801 -2.079755
v -1.410380 2.599104 -2.082608
v -1.408946 2.570492 -2.083544
v -1.395777 2.546569 -2.092255
v -1.381690 2.637741 -2.130394
v -1.414250 2.593529 -2.137564
v -1.412297 2.565663 -2.131137
v -1.397713 2.543781 -2.119734
v -1.359077 2.632185 -2.145372
v -1.363879 2.610288 -2.163234
v -1.369023 2.582418 -2.167520
v -1.373130 2.556041 -2.157079
v -1.375099 2.538225 -2.134711
v -1.334528 2.629417 -2.132871
v -1.321360 2.605494 -2.141583
v -1.319926 2.576882 -2.142519
v -1.330610 2.551247 -2.135428
v -1.350550 2.535458 -2.122211
v -1.379755 2.640528 -2.102916
v -1.399695 2.624739 -2.089699
v -1.403047 2.619911 -2.137292
v -1.404243 2.634792 -2.185325
v -1.401047 2.634007 -2.187441
v -1.387753 2.641865 -2.154001
v -1.409771 2.605491 -2.166772
v -1.376560 2.639115 -2.161415
v -1.392408 2.601226 -2.178271
v -1.437409 2.649060 -2.107951
v -1.438203 2.647918 -2.119216
v -1.419240 2.650793 -2.112043
v -1.432228 2.626585 -2.108243
v -1.419604 2.650269 -2.117206
v -1.432593 2.626060 -2.113420
vt 0.274240 0.539347
vt 0.265397 0.539709
vt 0.266768 0.532487
vt 0.231414 0.551290
vt 0.214659 0.541092
vt 0.231357 0.542861
vt 0.231940 0.569242
vt 0.215985 0.562822
vt 0.231472 0.559719
vt 0.230890 0.533338
vt 0.220414 0.530957
vt 0.213134 0.552274
vt 0.289666 0.544440
vt 0.282983 0.540904
vt 0.290637 0.536818
vt 0.279682 0.529141
vt 0.275518 0.536619
vt 0.273707 0.532162
vt 0.280945 0.538772
vt 0.286431 0.530872
vt 0.290637 0.551375
vt 0.284312 0.543753
vt 0.278488 0.537315
vt 0.276318 0.541045
vt 0.804698 0.251197
vt 0.792375 0.255919
vt 0.792638 0.252041
vt 0.786357 0.239035
vt 0.792578 0.249274
vt 0.791489 0.249454
vt 0.271776 0.541127
vt 0.760733 0.199751
vt 0.757502 0.209505
vt 0.750621 0.206121
vt 0.278108 0.542645
vt 0.273009 0.544115
vt 0.772804 0.201934
vt 0.766718 0.213101
vt 0.766203 0.208706
vt 0.264007 0.548518
vt 0.277612 0.547903
vt 0.268747 0.555467
vt 0.275021 0.546378
vt 0.280714 0.548498
vt 0.281954 0.545638
vt 0.276612 0.557409
vt 0.240880 0.530957
vt 0.248168 0.561486
vt 0.249693 0.550306
vt 0.246843 0.539760
vt 0.242415 0.571620
vt 0.762287 0.211045
vt 0.762255 0.210544
vt 0.761023 0.221925
vt 0.757316 0.212491
vt 0.750922 0.216572
vt 0.772804 0.220841
vt 0.791613 0.252007
vt 0.791097 0.255536
vt 0.780068 0.250772
vt 0.780487 0.263708
vt 0.804698 0.264828
vt 0.798786 0.238814
vt 0.221949 0.571626
vt 0.283377 0.553479
vn -0.1671 -0.9797 0.1111
vn 0.5002 -0.2210 0.8372
vn 0.5268 0.6416 0.5574
vn 0.3081 -0.6410 0.7030
vn 0.5757 0.2219 0.7870
vn -0.2166 0.7729 0.5965
vn -0.4353 -0.5098 0.7420
vn -0.3823 0.3909 0.8373
vn 0.1671 0.9797 -0.1112
vn -0.4578 -0.0520 0.8875
vn -0.8528 -0.5101 0.1118
vn -0.6322 -0.3461 -0.6933
vn -0.9958 -0.0524 0.0754
vn 0.2750 0.9544 -0.1162
vn -0.5269 -0.6417 -0.5574
vn 0.7049 0.3491 -0.6174
vn -0.5757 -0.2218 -0.7870
vn -0.4579 -0.7958 -0.3962
vn 0.2166 -0.7729 -0.5965
vn 0.4578 0.0520 -0.8875
vn 0.1671 0.9797 -0.1111
vn 0.3823 -0.3909 -0.8373
vn 0.4353 0.5098 -0.7420
vn 0.6341 -0.7725 0.0337
vn 0.9958 0.0524 -0.0754
vn 0.9202 -0.3905 -0.0252
vn 0.8528 0.5101 -0.1118
vn -0.5752 -0.3574 -0.7358
vn 0.0688 0.9647 -0.2542
vn -0.7114 0.6661 0.2241
vn 0.2939 0.9515 0.0908
vn 0.4910 -0.1123 -0.8639
vn -0.9203 0.3906 0.0189
vn -0.9701 -0.2248 0.0911
vn -0.1151 0.9891 -0.0923
vn -0.4356 0.4040 0.8044
vn -0.8268 -0.5509 0.1141
vn -0.1353 0.4943 -0.8587
vn 0.0962 0.6886 0.7187
vn -0.1671 -0.9797 0.1112
vn 0.5757 0.2218 0.7870
vn -0.5758 0.2525 -0.7776
vn -0.5268 -0.6416 -0.5574
vn 0.6541 0.3307 -0.6803
vn -0.5751 -0.3574 -0.7359
vn 0.0688 0.9648 -0.2540
vn -0.6668 0.6861 0.2911
vn 0.2939 0.9515 0.0907
vn 0.4523 0.0534 -0.8903
vn -0.9643 0.2452 0.1000
vn -0.4967 -0.1256 0.8588
vn -0.8268 -0.5508 0.1141
vn 0.0189 0.5589 -0.8291
vn -0.0078 0.6476 0.7619
s off
f 17/1/1 27/2/1 5/3/1
f 3/4/2 9/5/2 4/6/2
f 1/7/3 7/8/3 2/9/3
f 5/10/4 9/5/4 10/11/4
f 2/9/5 8/12/5 3/4/5
f 6/13/6 29/14/6 7/15/6
f 9/16/7 13/17/7 10/18/7
f 7/15/8 11/19/8 8/20/8
f 1/21/9 28/22/9 6/13/9
f 8/20/10 12/23/10 9/16/10
f 13/17/11 16/24/11 17/1/11
f 30/25/12 42/26/12 38/27/12
f 11/19/13 16/24/13 12/23/13
f 28/28/14 41/29/14 39/30/14
f 16/24/15 22/31/15 17/1/15
f 19/32/16 35/33/16 18/34/16
f 15/35/17 21/36/17 16/24/17
f 20/37/18 34/38/18 36/39/18
f 22/31/19 26/40/19 27/2/19
f 19/41/20 25/42/20 20/43/20
f 1/21/21 18/44/21 14/45/21
f 20/43/22 26/40/22 21/36/22
f 18/44/23 24/46/23 19/41/23
f 27/47/24 4/6/24 5/10/24
f 24/48/25 3/4/25 25/49/25
f 25/49/26 4/6/26 26/50/26
f 23/51/27 2/9/27 24/48/27
f 13/17/1 5/3/1 10/18/1
f 31/52/28 36/39/28 34/38/28
f 31/52/29 35/33/29 32/53/29
f 30/54/30 33/55/30 31/52/30
f 18/34/31 33/55/31 14/56/31
f 19/32/32 36/39/32 32/53/32
f 30/54/33 34/38/33 15/57/33
f 37/58/34 42/26/34 40/59/34
f 37/58/35 41/29/35 38/27/35
f 29/60/36 40/59/36 11/61/36
f 11/61/37 42/26/37 15/62/37
f 30/25/38 41/29/38 14/63/38
f 29/60/39 39/30/39 37/58/39
f 17/1/40 22/31/40 27/2/40
f 3/4/2 8/12/2 9/5/2
f 1/7/3 6/64/3 7/8/3
f 5/10/4 4/6/4 9/5/4
f 2/9/41 7/8/41 8/12/41
f 6/13/6 28/22/6 29/14/6
f 9/16/7 12/23/7 13/17/7
f 7/15/8 29/14/8 11/19/8
f 1/21/9 14/45/9 28/22/9
f 8/20/10 11/19/10 12/23/10
f 13/17/11 12/23/11 16/24/11
f 30/25/42 15/62/42 42/26/42
f 11/19/13 15/35/13 16/24/13
f 28/28/14 14/63/14 41/29/14
f 16/24/43 21/36/43 22/31/43
f 19/32/44 32/53/44 35/33/44
f 15/35/17 20/43/17 21/36/17
f 20/37/18 15/57/18 34/38/18
f 22/31/19 21/36/19 26/40/19
f 19/41/20 24/46/20 25/42/20
f 1/21/9 23/65/9 18/44/9
f 20/43/22 25/42/22 26/40/22
f 18/44/23 23/65/23 24/46/23
f 27/47/24 26/50/24 4/6/24
f 24/48/25 2/9/25 3/4/25
f 25/49/26 3/4/26 4/6/26
f 23/51/27 1/7/27 2/9/27
f 13/17/40 17/1/40 5/3/40
f 31/52/45 32/53/45 36/39/45
f 31/52/46 33/55/46 35/33/46
f 30/54/47 14/56/47 33/55/47
f 18/34/48 35/33/48 33/55/48
f 19/32/49 20/37/49 36/39/49
f 30/54/50 31/52/50 34/38/50
f 37/58/34 38/27/34 42/26/34
f 37/58/35 39/30/35 41/29/35
f 29/60/51 37/58/51 40/59/51
f 11/61/52 40/59/52 42/26/52
f 30/25/53 38/27/53 41/29/53
f 29/60/54 28/28/54 39/30/54
v -3.604283 2.793989 -4.935815
v -3.600404 2.779487 -4.960233
v -3.594793 2.754919 -4.973889
v -3.588952 2.726867 -4.973125
v -3.584447 2.702848 -4.958145
v -3.580613 2.795645 -4.921547
v -3.559407 2.782355 -4.935521
v -3.547453 2.758230 -4.945355
v -3.547954 2.729735 -4.948413
v -3.560777 2.704504 -4.943878
v -3.546598 2.745230 -4.891536
v -3.547214 2.718477 -4.901804
v -3.560350 2.698004 -4.916968
v -3.603428 2.780989 -4.881996
v -3.593083 2.728919 -4.866251
v -3.587471 2.704350 -4.879907
v -3.583592 2.689848 -4.904325
v -3.627098 2.779333 -4.896263
v -3.639921 2.754102 -4.891727
v -3.640423 2.725607 -4.894785
v -3.628469 2.701482 -4.904619
v -3.607262 2.688192 -4.918593
v -3.627526 2.785833 -4.923172
v -3.640661 2.765360 -4.938336
v -3.641278 2.738607 -4.948605
v -3.629209 2.712740 -4.951228
v -3.607690 2.694692 -4.945502
v -3.580186 2.789145 -4.894638
v -3.558666 2.771097 -4.888912
v -3.598923 2.756970 -4.867015
v -3.641190 2.761952 -4.840207
v -3.644535 2.761719 -4.842223
v -3.621529 2.778903 -4.865290
v -3.621321 2.736147 -4.853344
v -3.633246 2.778084 -4.872352
v -3.639495 2.734876 -4.864298
v -3.557789 2.780210 -4.841339
v -3.567318 2.776867 -4.836156
v -3.569993 2.786165 -4.854203
v -3.559788 2.760406 -4.852994
v -3.574360 2.784632 -4.851828
v -3.564168 2.758869 -4.850612
vt 0.274240 0.539347
vt 0.265397 0.539709
vt 0.266768 0.532487
vt 0.231414 0.551290
vt 0.214659 0.541092
vt 0.231357 0.542861
vt 0.231940 0.569242
vt 0.215985 0.562822
vt 0.231472 0.559719
vt 0.230890 0.533338
vt 0.220414 0.530957
vt 0.213134 0.552274
vt 0.289666 0.544440
vt 0.282983 0.540904
vt 0.290637 0.536818
vt 0.279682 0.529141
vt 0.275518 0.536619
vt 0.273707 0.532162
vt 0.280945 0.538772
vt 0.286431 0.530872
vt 0.290637 0.551375
vt 0.284312 0.543753
vt 0.278488 0.537315
vt 0.276318 0.541045
vt 0.804698 0.251197
vt 0.792375 0.255919
vt 0.792638 0.252041
vt 0.786357 0.239035
vt 0.792578 0.249274
vt 0.791489 0.249454
vt 0.271776 0.541127
vt 0.760733 0.199751
vt 0.757502 0.209505
vt 0.750621 0.206121
vt 0.278108 0.542645
vt 0.273009 0.544115
vt 0.772804 0.201934
vt 0.766718 0.213101
vt 0.766203 0.208706
vt 0.264007 0.548518
vt 0.277612 0.547903
vt 0.268747 0.555467
vt 0.275021 0.546378
vt 0.280714 0.548498
vt 0.281954 0.545638
vt 0.276612 0.557409
vt 0.240880 0.530957
vt 0.248168 0.561486
vt 0.249693 0.550306
vt 0.246843 0.539760
vt 0.242415 0.571620
vt 0.762287 0.211045
vt 0.762255 0.210544
vt 0.761023 0.221925
vt 0.757316 0.212491
vt 0.750922 0.216572
vt 0.772804 0.220841
vt 0.791613 0.252007
vt 0.791097 0.255536
vt 0.780068 0.250772
vt 0.780487 0.263708
vt 0.804698 0.264828
vt 0.798786 0.238814
vt 0.221949 0.571626
vt 0.283377 0.553479
vn 0.2068 -0.9503 -0.2328
vn 0.5102 0.0829 -0.8561
vn 0.2242 0.8531 -0.4711
vn 0.4950 -0.3911 -0.7759
vn 0.4167 0.5125 -0.7508
vn 0.6041 0.7768 0.1780
vn 0.8749 -0.4674 -0.1268
vn 0.9062 0.4141 0.0856
vn -0.2068 0.9503 0.2328
vn 0.9997 -0.0155 -0.0196
vn 0.5152 -0.6985 0.4967
vn -0.3037 -0.6284 0.7162
vn 0.5363 -0.3132 0.7838
vn -0.2612 0.9556 0.1363
vn -0.2242 -0.8531 0.4711
vn -0.8868 0.4136 -0.2064
vn -0.4167 -0.5125 0.7508
vn -0.1097 -0.9501 0.2922
vn -0.6041 -0.7768 -0.1780
vn -0.9997 0.0155 0.0196
vn -0.9062 -0.4141 -0.0856
vn -0.8749 0.4674 0.1268
vn -0.2445 -0.5457 -0.8015
vn -0.5363 0.3132 -0.7838
vn -0.4427 -0.1164 -0.8891
vn -0.5153 0.6985 -0.4967
vn -0.3677 -0.6309 0.6832
vn -0.2861 0.8829 0.3724
vn 0.5115 0.4706 0.7190
vn -0.0875 0.9957 0.0295
vn -0.9894 -0.1259 -0.0728
vn 0.4372 0.1153 0.8919
vn 0.5434 -0.4658 0.6984
vn -0.0578 0.8840 0.4640
vn 0.9018 0.4056 0.1489
vn 0.5063 -0.7292 0.4604
vn -0.7091 0.2726 0.6503
vn 0.5675 0.8067 -0.1650
vn 0.2068 -0.9503 -0.2329
vn 0.2242 0.8531 -0.4710
vn 0.5153 -0.6985 0.4967
vn -0.4231 -0.0635 0.9038
vn 0.5362 -0.3132 0.7838
vn -0.9178 0.3706 -0.1426
vn -0.8749 0.4675 0.1268
vn -0.2444 -0.5458 -0.8015
vn -0.5362 0.3132 -0.7838
vn -0.5152 0.6985 -0.4967
vn -0.2862 0.8829 0.3723
vn 0.5490 0.5140 0.6590
vn -0.0875 0.9957 0.0296
vn -0.9996 0.0148 0.0259
vn 0.5339 -0.0193 0.8453
vn -0.0578 0.8839 0.4640
vn 0.9949 -0.1010 0.0010
vn 0.5064 -0.7291 0.4604
vn -0.7575 0.3819 0.5296
vn 0.6557 0.7469 -0.1102
s off
f 59/66/55 69/67/55 47/68/55
f 45/69/56 51/70/56 46/71/56
f 43/72/57 49/73/57 44/74/57
f 47/75/58 51/70/58 52/76/58
f 44/74/59 50/77/59 45/69/59
f 48/78/60 71/79/60 49/80/60
f 51/81/61 55/82/61 52/83/61
f 49/80/62 53/84/62 50/85/62
f 43/86/63 70/87/63 48/78/63
f 50/85/64 54/88/64 51/81/64
f 55/82/65 58/89/65 59/66/65
f 72/90/66 84/91/66 80/92/66
f 53/84/67 58/89/67 54/88/67
f 70/93/68 83/94/68 81/95/68
f 58/89/69 64/96/69 59/66/69
f 61/97/70 77/98/70 60/99/70
f 57/100/71 63/101/71 58/89/71
f 62/102/72 76/103/72 78/104/72
f 64/96/73 68/105/73 69/67/73
f 61/106/74 67/107/74 62/108/74
f 43/86/63 60/109/63 56/110/63
f 62/108/75 68/105/75 63/101/75
f 60/109/76 66/111/76 61/106/76
f 69/112/77 46/71/77 47/75/77
f 66/113/78 45/69/78 67/114/78
f 67/114/79 46/71/79 68/115/79
f 65/116/80 44/74/80 66/113/80
f 55/82/55 47/68/55 52/83/55
f 73/117/81 78/104/81 76/103/81
f 73/117/82 77/98/82 74/118/82
f 72/119/83 75/120/83 73/117/83
f 60/99/84 75/120/84 56/121/84
f 61/97/85 78/104/85 74/118/85
f 72/119/86 76/103/86 57/122/86
f 79/123/87 84/91/87 82/124/87
f 79/123/88 83/94/88 80/92/88
f 71/125/89 82/124/89 53/126/89
f 53/126/90 84/91/90 57/127/90
f 72/90/91 83/94/91 56/128/91
f 71/125/92 81/95/92 79/123/92
f 59/66/93 64/96/93 69/67/93
f 45/69/56 50/77/56 51/70/56
f 43/72/94 48/129/94 49/73/94
f 47/75/58 46/71/58 51/70/58
f 44/74/59 49/73/59 50/77/59
f 48/78/60 70/87/60 71/79/60
f 51/81/61 54/88/61 55/82/61
f 49/80/62 71/79/62 53/84/62
f 43/86/63 56/110/63 70/87/63
f 50/85/64 53/84/64 54/88/64
f 55/82/95 54/88/95 58/89/95
f 72/90/96 57/127/96 84/91/96
f 53/84/97 57/100/97 58/89/97
f 70/93/68 56/128/68 83/94/68
f 58/89/69 63/101/69 64/96/69
f 61/97/98 74/118/98 77/98/98
f 57/100/71 62/108/71 63/101/71
f 62/102/72 57/122/72 76/103/72
f 64/96/73 63/101/73 68/105/73
f 61/106/74 66/111/74 67/107/74
f 43/86/63 65/130/63 60/109/63
f 62/108/75 67/107/75 68/105/75
f 60/109/99 65/130/99 66/111/99
f 69/112/100 68/115/100 46/71/100
f 66/113/101 44/74/101 45/69/101
f 67/114/79 45/69/79 46/71/79
f 65/116/102 43/72/102 44/74/102
f 55/82/55 59/66/55 47/68/55
f 73/117/81 74/118/81 78/104/81
f 73/117/103 75/120/103 77/98/103
f 72/119/104 56/121/104 75/120/104
f 60/99/105 77/98/105 75/120/105
f 61/97/106 62/102/106 78/104/106
f 72/119/107 73/117/107 76/103/107
f 79/123/87 80/92/87 84/91/87
f 79/123/108 81/95/108 83/94/108
f 71/125/109 79/123/109 82/124/109
f 53/126/110 82/124/110 84/91/110
f 72/90/111 80/92/111 83/94/111
f 71/125/112 70/93/112 81/95/112
v -0.456127 4.425433 -3.479036
v -0.449741 4.398021 -3.484459
v -0.454148 4.370098 -3.479715
v -0.468169 4.349147 -3.466075
v -0.488046 4.340780 -3.447193
v -0.448667 4.432310 -3.453275
v -0.436820 4.409933 -3.439840
v -0.439229 4.383852 -3.428193
v -0.455248 4.361058 -3.421456
v -0.480586 4.347657 -3.421433
v -0.475105 4.409869 -3.394993
v -0.486318 4.383589 -3.392703
v -0.498524 4.360665 -3.404832
v -0.492004 4.451448 -3.445835
v -0.525901 4.422131 -3.413313
v -0.530309 4.394208 -3.408569
v -0.523923 4.366796 -3.413993
v -0.499464 4.444571 -3.471596
v -0.524801 4.431170 -3.471572
v -0.540821 4.408376 -3.464835
v -0.543230 4.382296 -3.453188
v -0.531382 4.359919 -3.439754
v -0.481525 4.431563 -3.488196
v -0.493732 4.408640 -3.500325
v -0.504945 4.382360 -3.498036
v -0.512160 4.359766 -3.481941
v -0.513444 4.346911 -3.456354
v -0.466606 4.445318 -3.436674
v -0.467890 4.432463 -3.411087
v -0.511881 4.443082 -3.426953
v -0.548030 4.471257 -3.447675
v -0.549084 4.470285 -3.451315
v -0.512816 4.463890 -3.450643
v -0.545032 4.440492 -3.431009
v -0.516509 4.460486 -3.463394
v -0.550760 4.435211 -3.450788
v -0.486992 4.470515 -3.387975
v -0.497404 4.473028 -3.391730
v -0.483782 4.468300 -3.406268
v -0.494061 4.448623 -3.389648
v -0.488554 4.469452 -3.407989
v -0.498847 4.449778 -3.391374
vt 0.274240 0.539347
vt 0.265397 0.539709
vt 0.266768 0.532487
vt 0.231414 0.551290
vt 0.214659 0.541092
vt 0.231357 0.542861
vt 0.231940 0.569242
vt 0.215985 0.562822
vt 0.231472 0.559719
vt 0.230890 0.533338
vt 0.220414 0.530957
vt 0.213134 0.552274
vt 0.289666 0.544440
vt 0.282983 0.540904
vt 0.290637 0.536818
vt 0.279682 0.529141
vt 0.275518 0.536619
vt 0.273707 0.532162
vt 0.280945 0.538772
vt 0.286431 0.530872
vt 0.290637 0.551375
vt 0.284312 0.543753
vt 0.278488 0.537315
vt 0.276318 0.541045
vt 0.804698 0.251197
vt 0.792375 0.255919
vt 0.792638 0.252041
vt 0.786357 0.239035
vt 0.792578 0.249274
vt 0.791489 0.249454
vt 0.271776 0.541127
vt 0.760733 0.199751
vt 0.757502 0.209505
vt 0.750621 0.206121
vt 0.278108 0.542645
vt 0.273009 0.544115
vt 0.772804 0.201934
vt 0.766718 0.213101
vt 0.766203 0.208706
vt 0.264007 0.548518
vt 0.277612 0.547903
vt 0.268747 0.555467
vt 0.275021 0.546378
vt 0.280714 0.548498
vt 0.281954 0.545638
vt 0.276612 0.557409
vt 0.240880 0.530957
vt 0.248168 0.561486
vt 0.249693 0.550306
vt 0.246843 0.539760
vt 0.242415 0.571620
vt 0.762287 0.211045
vt 0.762255 0.210544
vt 0.761023 0.221925
vt 0.757316 0.212491
vt 0.750922 0.216572
vt 0.772804 0.220841
vt 0.791613 0.252007
vt 0.791097 0.255536
vt 0.780068 0.250772
vt 0.780487 0.263708
vt 0.804698 0.264828
vt 0.798786 0.238814
vt 0.221949 0.571626
vt 0.283377 0.553479
vn -0.3328 -0.8826 0.3320
vn 0.8051 -0.5883 -0.0761
vn 0.9010 0.2761 -0.3346
vn 0.4653 -0.8795 0.1001
vn 0.9555 -0.1893 -0.2262
vn 0.7358 0.5896 0.3331
vn 0.3001 -0.5660 0.7678
vn 0.7427 0.2147 0.6343
vn 0.3328 0.8826 -0.3320
vn 0.5922 -0.1844 0.7844
vn -0.3830 -0.2644 0.8851
vn -0.9409 0.0635 0.3327
vn -0.2881 0.2044 0.9355
vn 0.3549 0.8313 -0.4278
vn -0.9010 -0.2761 0.3346
vn -0.1636 0.3077 -0.9373
vn -0.9555 0.1893 0.2262
vn -0.7976 -0.4839 0.3602
vn -0.7358 -0.5896 -0.3331
vn -0.5922 0.1844 -0.7844
vn -0.7427 -0.2147 -0.6343
vn -0.3001 0.5661 -0.7678
vn -0.0527 -0.8913 -0.4504
vn 0.2881 -0.2044 -0.9355
vn 0.1376 -0.6034 -0.7854
vn 0.3830 0.2644 -0.8851
vn -0.9628 0.0500 0.2655
vn 0.1710 0.9384 -0.3001
vn 0.2086 0.7389 0.6408
vn 0.5386 0.7621 -0.3594
vn -0.6232 0.0180 -0.7818
vn -0.1431 0.6055 0.7829
vn -0.3317 0.0350 0.9427
vn 0.2583 0.9634 -0.0713
vn 0.7015 0.2511 0.6670
vn -0.3878 -0.3095 0.8682
vn -0.5975 0.7439 -0.2994
vn 0.9138 0.3900 0.1132
vn 0.4652 -0.8795 0.1001
vn 0.3001 -0.5661 0.7678
vn 0.5922 -0.1843 0.7844
vn -0.7670 0.6202 0.1643
vn -0.2419 0.3236 -0.9148
vn -0.7976 -0.4839 0.3601
vn 0.1376 -0.6034 -0.7855
vn 0.3830 0.2643 -0.8851
vn 0.1711 0.9385 -0.3001
vn 0.2889 0.7249 0.6253
vn -0.5959 0.1880 -0.7808
vn -0.1431 0.4606 0.8760
vn -0.3316 0.0350 0.9428
vn 0.2582 0.9634 -0.0713
vn 0.5264 -0.2325 0.8178
vn -0.3878 -0.3094 0.8683
vn -0.4958 0.7515 -0.4352
vn 0.9007 0.3684 0.2303
s off
f 101/131/113 111/132/113 89/133/113
f 87/134/114 93/135/114 88/136/114
f 85/137/115 91/138/115 86/139/115
f 89/140/116 93/135/116 94/141/116
f 86/139/117 92/142/117 87/134/117
f 90/143/118 113/144/118 91/145/118
f 93/146/119 97/147/119 94/148/119
f 91/145/120 95/149/120 92/150/120
f 85/151/121 112/152/121 90/143/121
f 92/150/122 96/153/122 93/146/122
f 97/147/123 100/154/123 101/131/123
f 114/155/124 126/156/124 122/157/124
f 95/149/125 100/154/125 96/153/125
f 112/158/126 125/159/126 123/160/126
f 100/154/127 106/161/127 101/131/127
f 103/162/128 119/163/128 102/164/128
f 99/165/129 105/166/129 100/154/129
f 104/167/130 118/168/130 120/169/130
f 106/161/131 110/170/131 111/132/131
f 103/171/132 109/172/132 104/173/132
f 85/151/121 102/174/121 98/175/121
f 104/173/133 110/170/133 105/166/133
f 102/174/134 108/176/134 103/171/134
f 111/177/135 88/136/135 89/140/135
f 108/178/136 87/134/136 109/179/136
f 109/179/137 88/136/137 110/180/137
f 107/181/138 86/139/138 108/178/138
f 97/147/113 89/133/113 94/148/113
f 115/182/139 120/169/139 118/168/139
f 115/182/140 119/163/140 116/183/140
f 114/184/141 117/185/141 115/182/141
f 102/164/142 117/185/142 98/186/142
f 103/162/143 120/169/143 116/183/143
f 114/184/144 118/168/144 99/187/144
f 121/188/145 126/156/145 124/189/145
f 121/188/146 125/159/146 122/157/146
f 113/190/147 124/189/147 95/191/147
f 95/191/148 126/156/148 99/192/148
f 114/155/149 125/159/149 98/193/149
f 113/190/150 123/160/150 121/188/150
f 101/131/113 106/161/113 111/132/113
f 87/134/114 92/142/114 93/135/114
f 85/137/115 90/194/115 91/138/115
f 89/140/151 88/136/151 93/135/151
f 86/139/117 91/138/117 92/142/117
f 90/143/118 112/152/118 113/144/118
f 93/146/152 96/153/152 97/147/152
f 91/145/120 113/144/120 95/149/120
f 85/151/121 98/175/121 112/152/121
f 92/150/153 95/149/153 96/153/153
f 97/147/123 96/153/123 100/154/123
f 114/155/154 99/192/154 126/156/154
f 95/149/125 99/165/125 100/154/125
f 112/158/126 98/193/126 125/159/126
f 100/154/127 105/166/127 106/161/127
f 103/162/155 116/183/155 119/163/155
f 99/165/129 104/173/129 105/166/129
f 104/167/156 99/187/156 118/168/156
f 106/161/131 105/166/131 110/170/131
f 103/171/132 108/176/132 109/172/132
f 85/151/121 107/195/121 102/174/121
f 104/173/133 109/172/133 110/170/133
f 102/174/134 107/195/134 108/176/134
f 111/177/135 110/180/135 88/136/135
f 108/178/136 86/139/136 87/134/136
f 109/179/157 87/134/157 88/136/157
f 107/181/158 85/137/158 86/139/158
f 97/147/113 101/131/113 89/133/113
f 115/182/139 116/183/139 120/169/139
f 115/182/159 117/185/159 119/163/159
f 114/184/160 98/186/160 117/185/160
f 102/164/142 119/163/142 117/185/142
f 103/162/161 104/167/161 120/169/161
f 114/184/162 115/182/162 118/168/162
f 121/188/163 122/157/163 126/156/163
f 121/188/164 123/160/164 125/159/164
f 113/190/165 121/188/165 124/189/165
f 95/191/166 124/189/166 126/156/166
f 114/155/167 122/157/167 125/159/167
f 113/190/168 112/158/168 123/160/168
