# Blender v2.81 (sub 16) OBJ File: 'garbage.blend'
# www.blender.org
v 0.191265 2.787763 2.052975
v 0.172728 2.771317 2.067380
v 0.164274 2.745440 2.076353
v 0.168169 2.717065 2.077488
v 0.183369 2.693795 2.070482
v 0.189642 2.782833 2.025779
v 0.169916 2.762778 2.020276
v 0.161027 2.735579 2.021961
v 0.165357 2.708526 2.030383
v 0.181746 2.688865 2.043286
v 0.207113 2.726258 1.992713
v 0.205269 2.700453 2.005054
v 0.204788 2.684204 2.028662
v 0.237351 2.778442 2.023727
v 0.256446 2.726797 2.017857
v 0.247992 2.700920 2.026829
v 0.229455 2.684474 2.041234
v 0.238975 2.783372 2.050923
v 0.255363 2.763711 2.063826
v 0.259693 2.736658 2.072248
v 0.250804 2.709459 2.073934
v 0.231079 2.689404 2.068430
v 0.215932 2.788033 2.065547
v 0.215452 2.771784 2.089156
v 0.213607 2.745979 2.101496
v 0.210893 2.717532 2.099263
v 0.208036 2.694065 2.083054
v 0.212685 2.778172 2.011155
v 0.209827 2.754705 1.994946
v 0.252551 2.755172 2.016721
v 0.295954 2.774685 2.033012
v 0.296184 2.775381 2.036855
v 0.261136 2.783114 2.028577
v 0.280499 2.743228 2.030808
v 0.261940 2.785555 2.042039
v 0.281745 2.747013 2.051689
v 0.245774 2.765968 1.964483
v 0.255886 2.766079 1.969637
v 0.240591 2.774632 1.980229
v 0.241962 2.747100 1.977191
v 0.245226 2.774682 1.982591
v 0.246610 2.747151 1.979560
vt 0.274240 0.539347
vt 0.265397 0.539709
vt 0.266768 0.532487
vt 0.231414 0.551290
vt 0.214659 0.541092
vt 0.231357 0.542861
vt 0.231940 0.569242
vt 0.215985 0.562822
vt 0.231472 0.559719
vt 0.230890 0.533338
vt 0.220414 0.530957
vt 0.213134 0.552274
vt 0.289666 0.544440
vt 0.282983 0.540904
vt 0.290637 0.536818
vt 0.279682 0.529141
vt 0.275518 0.536619
vt 0.273707 0.532162
vt 0.280945 0.538772
vt 0.286431 0.530872
vt 0.290637 0.551375
vt 0.284312 0.543753
vt 0.278488 0.537315
vt 0.276318 0.541045
vt 0.804698 0.251197
vt 0.792375 0.255919
vt 0.792638 0.252041
vt 0.786357 0.239035
vt 0.792578 0.249274
vt 0.791489 0.249454
vt 0.271776 0.541127
vt 0.760733 0.199751
vt 0.757502 0.209505
vt 0.750621 0.206121
vt 0.278108 0.542645
vt 0.273009 0.544115
vt 0.772804 0.201934
vt 0.766718 0.213101
vt 0.766203 0.208706
vt 0.264007 0.548518
vt 0.277612 0.547903
vt 0.268747 0.555467
vt 0.275021 0.546378
vt 0.280714 0.548498
vt 0.281954 0.545638
vt 0.276612 0.557409
vt 0.240880 0.530957
vt 0.248168 0.561486
vt 0.249693 0.550306
vt 0.246843 0.539760
vt 0.242415 0.571620
vt 0.762287 0.211045
vt 0.762255 0.210544
vt 0.761023 0.221925
vt 0.757316 0.212491
vt 0.750922 0.216572
vt 0.772804 0.220841
vt 0.791613 0.252007
vt 0.791097 0.255536
vt 0.780068 0.250772
vt 0.780487 0.263708
vt 0.804698 0.264828
vt 0.798786 0.238814
vt 0.221949 0.571626
vt 0.283377 0.553479
vn -0.0823 -0.9797 0.1825
vn -0.9877 -0.1323 0.0829
vn -0.6982 0.7106 -0.0871
vn -0.8060 -0.5722 0.1518
vn -0.9505 0.3107 0.0004
vn -0.3605 0.5594 -0.7464
vn -0.4683 -0.7234 -0.5074
vn -0.5154 0.1158 -0.8491
vn 0.0823 0.9797 -0.1826
vn -0.5526 -0.3271 -0.7665
vn 0.2838 -0.7926 -0.5397
vn 0.8880 -0.4578 -0.0432
vn 0.4165 -0.4163 -0.8082
vn 0.0324 0.9959 -0.0848
vn 0.6982 -0.7106 0.0871
vn 0.2174 0.6557 0.7230
vn 0.9505 -0.3107 -0.0004
vn 0.5137 -0.8491 0.1233
vn 0.3605 -0.5594 0.7464
vn 0.5526 0.3271 0.7665
vn 0.0823 0.9797 -0.1825
vn 0.5154 -0.1158 0.8491
vn 0.4683 0.7234 0.5074
vn -0.3915 -0.4902 0.7787
vn -0.4165 0.4163 0.8082
vn -0.4537 -0.0266 0.8908
vn -0.2837 0.7926 0.5397
vn 0.8965 -0.4423 0.0267
vn 0.2536 0.9490 -0.1870
vn 0.1976 0.3308 -0.9228
vn -0.1572 0.9733 -0.1671
vn 0.5046 0.1842 0.8435
vn 0.4593 0.0275 -0.8879
vn 0.3785 -0.5684 -0.7305
vn 0.2041 0.8845 -0.4195
vn -0.4599 0.1130 -0.8808
vn 0.2663 -0.8211 -0.5048
vn 0.8471 0.5188 0.1148
vn -0.6253 0.5783 -0.5240
vn 0.2837 -0.7926 -0.5397
vn 0.9749 0.1265 -0.1832
vn 0.0323 0.9959 -0.0848
vn 0.6982 -0.7106 0.0872
vn 0.2956 0.6285 0.7194
vn 0.5526 0.3271 0.7666
vn 0.0823 0.9798 -0.1825
vn 0.8965 -0.4423 0.0266
vn 0.2536 0.9490 -0.1872
vn 0.1189 0.3566 -0.9266
vn 0.5578 0.3268 0.7629
vn 0.4002 -0.1331 -0.9067
vn 0.3785 -0.5685 -0.7305
vn -0.5137 -0.4054 -0.7561
vn 0.2662 -0.8212 -0.5048
vn 0.7505 0.6301 0.1991
vn -0.6149 0.4975 -0.6119
s off
f 17/1/1 27/2/1 5/3/1
f 3/4/2 9/5/2 4/6/2
f 1/7/3 7/8/3 2/9/3
f 5/10/4 9/5/4 10/11/4
f 2/9/5 8/12/5 3/4/5
f 6/13/6 29/14/6 7/15/6
f 9/16/7 13/17/7 10/18/7
f 7/15/8 11/19/8 8/20/8
f 1/21/9 28/22/9 6/13/9
f 8/20/10 12/23/10 9/16/10
f 13/17/11 16/24/11 17/1/11
f 30/25/12 42/26/12 38/27/12
f 11/19/13 16/24/13 12/23/13
f 28/28/14 41/29/14 39/30/14
f 16/24/15 22/31/15 17/1/15
f 19/32/16 35/33/16 18/34/16
f 15/35/17 21/36/17 16/24/17
f 20/37/18 34/38/18 36/39/18
f 22/31/19 26/40/19 27/2/19
f 19/41/20 25/42/20 20/43/20
f 1/21/21 18/44/21 14/45/21
f 20/43/22 26/40/22 21/36/22
f 18/44/23 24/46/23 19/41/23
f 27/47/24 4/6/24 5/10/24
f 24/48/25 3/4/25 25/49/25
f 25/49/26 4/6/26 26/50/26
f 23/51/27 2/9/27 24/48/27
f 13/17/1 5/3/1 10/18/1
f 31/52/28 36/39/28 34/38/28
f 31/52/29 35/33/29 32/53/29
f 30/54/30 33/55/30 31/52/30
f 18/34/31 33/55/31 14/56/31
f 19/32/32 36/39/32 32/53/32
f 30/54/33 34/38/33 15/57/33
f 37/58/34 42/26/34 40/59/34
f 37/58/35 41/29/35 38/27/35
f 29/60/36 40/59/36 11/61/36
f 11/61/37 42/26/37 15/62/37
f 30/25/38 41/29/38 14/63/38
f 29/60/39 39/30/39 37/58/39
f 17/1/1 22/31/1 27/2/1
f 3/4/2 8/12/2 9/5/2
f 1/7/3 6/64/3 7/8/3
f 5/10/4 4/6/4 9/5/4
f 2/9/5 7/8/5 8/12/5
f 6/13/6 28/22/6 29/14/6
f 9/16/7 12/23/7 13/17/7
f 7/15/8 29/14/8 11/19/8
f 1/21/21 14/45/21 28/22/21
f 8/20/10 11/19/10 12/23/10
f 13/17/40 12/23/40 16/24/40
f 30/25/41 15/62/41 42/26/41
f 11/19/13 15/35/13 16/24/13
f 28/28/42 14/63/42 41/29/42
f 16/24/43 21/36/43 22/31/43
f 19/32/44 32/53/44 35/33/44
f 15/35/17 20/43/17 21/36/17
f 20/37/18 15/57/18 34/38/18
f 22/31/19 21/36/19 26/40/19
f 19/41/45 24/46/45 25/42/45
f 1/21/46 23/65/46 18/44/46
f 20/43/22 25/42/22 26/40/22
f 18/44/23 23/65/23 24/46/23
f 27/47/24 26/50/24 4/6/24
f 24/48/25 2/9/25 3/4/25
f 25/49/26 3/4/26 4/6/26
f 23/51/27 1/7/27 2/9/27
f 13/17/1 17/1/1 5/3/1
f 31/52/47 32/53/47 36/39/47
f 31/52/48 33/55/48 35/33/48
f 30/54/49 14/56/49 33/55/49
f 18/34/31 35/33/31 33/55/31
f 19/32/50 20/37/50 36/39/50
f 30/54/51 31/52/51 34/38/51
f 37/58/52 38/27/52 42/26/52
f 37/58/35 39/30/35 41/29/35
f 29/60/53 37/58/53 40/59/53
f 11/61/54 40/59/54 42/26/54
f 30/25/55 38/27/55 41/29/55
f 29/60/56 28/28/56 39/30/56
v 3.126211 2.707488 -5.540150
v 3.140324 2.686802 -5.526203
v 3.142788 2.659320 -5.518440
v 3.132941 2.632406 -5.518941
v 3.113424 2.613270 -5.527572
v 3.101727 2.712407 -5.528196
v 3.097916 2.695322 -5.505498
v 3.093819 2.669158 -5.494532
v 3.090533 2.640925 -5.498236
v 3.088939 2.618189 -5.515618
v 3.047879 2.671276 -5.525374
v 3.050748 2.642759 -5.524946
v 3.065969 2.619248 -5.531039
v 3.080270 2.709606 -5.570992
v 3.050906 2.663556 -5.580123
v 3.053370 2.636074 -5.572361
v 3.067483 2.615388 -5.558414
v 3.104755 2.704687 -5.582945
v 3.103161 2.681951 -5.600327
v 3.099875 2.653718 -5.604031
v 3.095778 2.627554 -5.593065
v 3.091967 2.610469 -5.570367
v 3.127725 2.703628 -5.567524
v 3.142946 2.680117 -5.573617
v 3.145816 2.651600 -5.573189
v 3.135564 2.625720 -5.566355
v 3.114938 2.609410 -5.554946
v 3.078756 2.713466 -5.543617
v 3.058131 2.697156 -5.532208
v 3.060753 2.690470 -5.579622
v 3.064647 2.703550 -5.628035
v 3.068107 2.702855 -5.629724
v 3.076903 2.712570 -5.595301
v 3.058301 2.674685 -5.609066
v 3.089023 2.710135 -5.601218
v 3.077100 2.670908 -5.618245
v 3.021791 2.718846 -5.555787
v 3.022411 2.717264 -5.567010
v 3.040219 2.721361 -5.557770
v 3.028012 2.696671 -5.554532
v 3.040504 2.720636 -5.562913
v 3.028297 2.695943 -5.559690
vt 0.274240 0.539347
vt 0.265397 0.539709
vt 0.266768 0.532487
vt 0.231414 0.551290
vt 0.214659 0.541092
vt 0.231357 0.542861
vt 0.231940 0.569242
vt 0.215985 0.562822
vt 0.231472 0.559719
vt 0.230890 0.533338
vt 0.220414 0.530957
vt 0.213134 0.552274
vt 0.289666 0.544440
vt 0.282983 0.540904
vt 0.290637 0.536818
vt 0.279682 0.529141
vt 0.275518 0.536619
vt 0.273707 0.532162
vt 0.280945 0.538772
vt 0.286431 0.530872
vt 0.290637 0.551375
vt 0.284312 0.543753
vt 0.278488 0.537315
vt 0.276318 0.541045
vt 0.804698 0.251197
vt 0.792375 0.255919
vt 0.792638 0.252041
vt 0.786357 0.239035
vt 0.792578 0.249274
vt 0.791489 0.249454
vt 0.271776 0.541127
vt 0.760733 0.199751
vt 0.757502 0.209505
vt 0.750621 0.206121
vt 0.278108 0.542645
vt 0.273009 0.544115
vt 0.772804 0.201934
vt 0.766718 0.213101
vt 0.766203 0.208706
vt 0.264007 0.548518
vt 0.277612 0.547903
vt 0.268747 0.555467
vt 0.275021 0.546378
vt 0.280714 0.548498
vt 0.281954 0.545638
vt 0.276612 0.557409
vt 0.240880 0.530957
vt 0.248168 0.561486
vt 0.249693 0.550306
vt 0.246843 0.539760
vt 0.242415 0.571620
vt 0.762287 0.211045
vt 0.762255 0.210544
vt 0.761023 0.221925
vt 0.757316 0.212491
vt 0.750922 0.216572
vt 0.772804 0.220841
vt 0.791613 0.252007
vt 0.791097 0.255536
vt 0.780068 0.250772
vt 0.780487 0.263708
vt 0.804698 0.264828
vt 0.798786 0.238814
vt 0.221949 0.571626
vt 0.283377 0.553479
vn -0.1333 -0.9824 0.1311
vn 0.4057 -0.1652 0.8990
vn 0.4255 0.6873 0.5887
vn 0.2510 -0.5990 0.7604
vn 0.4660 0.2790 0.8397
vn -0.3225 0.7815 0.5341
vn -0.4971 -0.5047 0.7058
vn -0.4980 0.4004 0.7692
vn 0.1333 0.9824 -0.1311
vn -0.5582 -0.0437 0.8285
vn -0.8353 -0.5489 0.0312
vn -0.5274 -0.4025 -0.7483
vn -0.9941 -0.1006 -0.0408
vn 0.2421 0.9625 -0.1224
vn -0.4255 -0.6872 -0.5887
vn 0.7570 0.3625 -0.5436
vn -0.4660 -0.2790 -0.8397
vn -0.3693 -0.8319 -0.4142
vn 0.3225 -0.7815 -0.5341
vn 0.5582 0.0437 -0.8285
vn 0.1333 0.9824 -0.1312
vn 0.4980 -0.4004 -0.7692
vn 0.4971 0.5047 -0.7058
vn 0.6608 -0.7373 0.1405
vn 0.9941 0.1006 0.0408
vn 0.9338 -0.3435 0.1001
vn 0.8353 0.5489 -0.0312
vn -0.4652 -0.4124 -0.7833
vn 0.0537 0.9573 -0.2840
vn -0.7635 0.6363 0.1105
vn 0.2361 0.9680 0.0853
vn 0.5960 -0.1176 -0.7943
vn -0.9332 0.3434 -0.1064
vn -0.9625 -0.2709 -0.0150
vn -0.1492 0.9780 -0.1461
vn -0.5475 0.4096 0.7297
vn -0.8079 -0.5881 0.0382
vn -0.0541 0.4558 -0.8884
vn -0.0231 0.7178 0.6959
vn -0.1333 -0.9824 0.1312
vn 0.4057 -0.1651 0.8990
vn 0.4255 0.6872 0.5887
vn 0.2509 -0.5989 0.7605
vn -0.5583 -0.0437 0.8285
vn -0.4892 0.1948 -0.8501
vn 0.2421 0.9625 -0.1223
vn -0.4255 -0.6873 -0.5887
vn 0.7150 0.3393 -0.6113
vn -0.3694 -0.8319 -0.4142
vn -0.4653 -0.4124 -0.7832
vn 0.0537 0.9573 -0.2839
vn -0.7282 0.6609 0.1815
vn 0.5530 0.0448 -0.8320
vn -0.9797 0.1989 -0.0251
vn -0.1492 0.9779 -0.1463
vn -0.5899 -0.1203 0.7985
vn -0.8078 -0.5882 0.0382
vn 0.0924 0.5292 -0.8435
vn -0.1295 0.6731 0.7281
s off
f 59/66/57 69/67/57 47/68/57
f 45/69/58 51/70/58 46/71/58
f 43/72/59 49/73/59 44/74/59
f 47/75/60 51/70/60 52/76/60
f 44/74/61 50/77/61 45/69/61
f 48/78/62 71/79/62 49/80/62
f 51/81/63 55/82/63 52/83/63
f 49/80/64 53/84/64 50/85/64
f 43/86/65 70/87/65 48/78/65
f 50/85/66 54/88/66 51/81/66
f 55/82/67 58/89/67 59/66/67
f 72/90/68 84/91/68 80/92/68
f 53/84/69 58/89/69 54/88/69
f 70/93/70 83/94/70 81/95/70
f 58/89/71 64/96/71 59/66/71
f 61/97/72 77/98/72 60/99/72
f 57/100/73 63/101/73 58/89/73
f 62/102/74 76/103/74 78/104/74
f 64/96/75 68/105/75 69/67/75
f 61/106/76 67/107/76 62/108/76
f 43/86/77 60/109/77 56/110/77
f 62/108/78 68/105/78 63/101/78
f 60/109/79 66/111/79 61/106/79
f 69/112/80 46/71/80 47/75/80
f 66/113/81 45/69/81 67/114/81
f 67/114/82 46/71/82 68/115/82
f 65/116/83 44/74/83 66/113/83
f 55/82/57 47/68/57 52/83/57
f 73/117/84 78/104/84 76/103/84
f 73/117/85 77/98/85 74/118/85
f 72/119/86 75/120/86 73/117/86
f 60/99/87 75/120/87 56/121/87
f 61/97/88 78/104/88 74/118/88
f 72/119/89 76/103/89 57/122/89
f 79/123/90 84/91/90 82/124/90
f 79/123/91 83/94/91 80/92/91
f 71/125/92 82/124/92 53/126/92
f 53/126/93 84/91/93 57/127/93
f 72/90/94 83/94/94 56/128/94
f 71/125/95 81/95/95 79/123/95
f 59/66/96 64/96/96 69/67/96
f 45/69/97 50/77/97 51/70/97
f 43/72/98 48/129/98 49/73/98
f 47/75/99 46/71/99 51/70/99
f 44/74/61 49/73/61 50/77/61
f 48/78/62 70/87/62 71/79/62
f 51/81/63 54/88/63 55/82/63
f 49/80/64 71/79/64 53/84/64
f 43/86/65 56/110/65 70/87/65
f 50/85/100 53/84/100 54/88/100
f 55/82/67 54/88/67 58/89/67
f 72/90/101 57/127/101 84/91/101
f 53/84/69 57/100/69 58/89/69
f 70/93/102 56/128/102 83/94/102
f 58/89/103 63/101/103 64/96/103
f 61/97/104 74/118/104 77/98/104
f 57/100/73 62/108/73 63/101/73
f 62/102/105 57/122/105 76/103/105
f 64/96/75 63/101/75 68/105/75
f 61/106/76 66/111/76 67/107/76
f 43/86/65 65/130/65 60/109/65
f 62/108/78 67/107/78 68/105/78
f 60/109/79 65/130/79 66/111/79
f 69/112/80 68/115/80 46/71/80
f 66/113/81 44/74/81 45/69/81
f 67/114/82 45/69/82 46/71/82
f 65/116/83 43/72/83 44/74/83
f 55/82/96 59/66/96 47/68/96
f 73/117/106 74/118/106 78/104/106
f 73/117/107 75/120/107 77/98/107
f 72/119/108 56/121/108 75/120/108
f 60/99/87 77/98/87 75/120/87
f 61/97/109 62/102/109 78/104/109
f 72/119/110 73/117/110 76/103/110
f 79/123/90 80/92/90 84/91/90
f 79/123/111 81/95/111 83/94/111
f 71/125/112 79/123/112 82/124/112
f 53/126/113 82/124/113 84/91/113
f 72/90/114 80/92/114 83/94/114
f 71/125/115 70/93/115 81/95/115
v 1.021150 4.266967 -1.199639
v 1.015520 4.250322 -1.176993
v 1.011433 4.224285 -1.165727
v 1.009983 4.195829 -1.168862
v 1.011559 4.172583 -1.185555
v 1.000138 4.266413 -1.217660
v 0.979126 4.249363 -1.208205
v 0.969408 4.223177 -1.201768
v 0.973588 4.194870 -1.200074
v 0.990547 4.172029 -1.203576
v 0.979252 4.214158 -1.255508
v 0.982113 4.187059 -1.246614
v 0.995469 4.167519 -1.230446
v 1.030994 4.257947 -1.253379
v 1.031121 4.206245 -1.273207
v 1.027033 4.180207 -1.261942
v 1.021403 4.163563 -1.239295
v 1.052007 4.258501 -1.235359
v 1.068965 4.235659 -1.238861
v 1.073146 4.207353 -1.237167
v 1.063428 4.181166 -1.230730
v 1.042416 4.164116 -1.221275
v 1.047085 4.263011 -1.208489
v 1.060440 4.243470 -1.192321
v 1.063301 4.216372 -1.183426
v 1.054902 4.188977 -1.184189
v 1.037493 4.168626 -1.194405
v 1.005060 4.261903 -1.244530
v 0.987651 4.241552 -1.254745
v 1.032571 4.234700 -1.270073
v 1.077442 4.247359 -1.288949
v 1.080411 4.247437 -1.286403
v 1.051682 4.259583 -1.266811
v 1.059711 4.218190 -1.280703
v 1.062083 4.259857 -1.257891
v 1.075844 4.218615 -1.266867
v 0.993205 4.253919 -1.301256
v 1.003837 4.252296 -1.304884
v 1.002141 4.260526 -1.286211
v 0.996168 4.233773 -1.290420
v 1.007014 4.259783 -1.287874
v 1.001055 4.233027 -1.292087
vt 0.274240 0.539347
vt 0.265397 0.539709
vt 0.266768 0.532487
vt 0.231414 0.551290
vt 0.214659 0.541092
vt 0.231357 0.542861
vt 0.231940 0.569242
vt 0.215985 0.562822
vt 0.231472 0.559719
vt 0.230890 0.533338
vt 0.220414 0.530957
vt 0.213134 0.552274
vt 0.289666 0.544440
vt 0.282983 0.540904
vt 0.290637 0.536818
vt 0.279682 0.529141
vt 0.275518 0.536619
vt 0.273707 0.532162
vt 0.280945 0.538772
vt 0.286431 0.530872
vt 0.290637 0.551375
vt 0.284312 0.543753
vt 0.278488 0.537315
vt 0.276318 0.541045
vt 0.804698 0.251197
vt 0.792375 0.255919
vt 0.792638 0.252041
vt 0.786357 0.239035
vt 0.792578 0.249274
vt 0.791489 0.249454
vt 0.271776 0.541127
vt 0.760733 0.199751
vt 0.757502 0.209505
vt 0.750621 0.206121
vt 0.278108 0.542645
vt 0.273009 0.544115
vt 0.772804 0.201934
vt 0.766718 0.213101
vt 0.766203 0.208706
vt 0.264007 0.548518
vt 0.277612 0.547903
vt 0.268747 0.555467
vt 0.275021 0.546378
vt 0.280714 0.548498
vt 0.281954 0.545638
vt 0.276612 0.557409
vt 0.240880 0.530957
vt 0.248168 0.561486
vt 0.249693 0.550306
vt 0.246843 0.539760
vt 0.242415 0.571620
vt 0.762287 0.211045
vt 0.762255 0.210544
vt 0.761023 0.221925
vt 0.757316 0.212491
vt 0.750922 0.216572
vt 0.772804 0.220841
vt 0.791613 0.252007
vt 0.791097 0.255536
vt 0.780068 0.250772
vt 0.780487 0.263708
vt 0.804698 0.264828
vt 0.798786 0.238814
vt 0.221949 0.571626
vt 0.283377 0.553479
vn -0.1000 -0.9841 0.1469
vn -0.6494 -0.0505 0.7588
vn -0.4209 0.7777 0.4669
vn -0.5519 -0.5108 0.6592
vn -0.6042 0.3944 0.6924
vn -0.6746 0.6979 -0.2407
vn -0.8055 -0.5906 -0.0484
vn -0.9310 0.2916 -0.2195
vn 0.1000 0.9841 -0.1469
vn -0.9762 -0.1533 -0.1531
vn -0.3191 -0.7240 -0.6115
vn 0.5053 -0.5268 -0.6834
vn -0.3494 -0.3253 -0.8787
vn 0.1366 0.9897 -0.0423
vn 0.4209 -0.7777 -0.4670
vn 0.7707 0.5146 0.3757
vn 0.6042 -0.3944 -0.6924
vn 0.2942 -0.9022 -0.3153
vn 0.6746 -0.6979 0.2407
vn 0.9762 0.1533 0.1531
vn 0.9310 -0.2916 0.2195
vn 0.8055 0.5906 0.0484
vn 0.1882 -0.5644 0.8038
vn 0.3495 0.3253 0.8787
vn 0.3042 -0.1196 0.9451
vn 0.3191 0.7241 0.6115
vn 0.5627 -0.5230 -0.6401
vn 0.2101 0.9386 -0.2738
vn -0.4511 0.4477 -0.7721
vn -0.0562 0.9978 0.0349
vn 0.9719 0.0055 0.2354
vn -0.2982 0.1195 -0.9470
vn -0.3479 -0.4833 -0.8034
vn 0.0021 0.9151 -0.4031
vn -0.9152 0.2884 -0.2814
vn -0.3118 -0.7559 -0.5757
vn 0.7577 0.4138 -0.5047
vn -0.6991 0.7073 0.1046
vn -0.3191 -0.7241 -0.6115
vn 0.5694 0.0613 -0.8198
vn -0.3495 -0.3253 -0.8787
vn 0.4209 -0.7777 -0.4669
vn 0.8177 0.4811 0.3161
vn 0.2942 -0.9022 -0.3154
vn 0.1000 0.9841 -0.1468
vn 0.3494 0.3253 0.8787
vn 0.3191 0.7240 0.6115
vn -0.1000 -0.9841 0.1468
vn 0.5628 -0.5230 -0.6401
vn -0.5039 0.4810 -0.7174
vn 0.9772 0.1531 0.1468
vn -0.3804 -0.0301 -0.9243
vn 0.0020 0.9151 -0.4032
vn -0.9556 -0.2356 -0.1768
vn -0.3118 -0.7558 -0.5757
vn 0.7691 0.5195 -0.3723
vn -0.7675 0.6402 0.0326
s off
f 101/131/116 111/132/116 89/133/116
f 87/134/117 93/135/117 88/136/117
f 85/137/118 91/138/118 86/139/118
f 89/140/119 93/135/119 94/141/119
f 86/139/120 92/142/120 87/134/120
f 90/143/121 113/144/121 91/145/121
f 93/146/122 97/147/122 94/148/122
f 91/145/123 95/149/123 92/150/123
f 85/151/124 112/152/124 90/143/124
f 92/150/125 96/153/125 93/146/125
f 97/147/126 100/154/126 101/131/126
f 114/155/127 126/156/127 122/157/127
f 95/149/128 100/154/128 96/153/128
f 112/158/129 125/159/129 123/160/129
f 100/154/130 106/161/130 101/131/130
f 103/162/131 119/163/131 102/164/131
f 99/165/132 105/166/132 100/154/132
f 104/167/133 118/168/133 120/169/133
f 106/161/134 110/170/134 111/132/134
f 103/171/135 109/172/135 104/173/135
f 85/151/124 102/174/124 98/175/124
f 104/173/136 110/170/136 105/166/136
f 102/174/137 108/176/137 103/171/137
f 111/177/138 88/136/138 89/140/138
f 108/178/139 87/134/139 109/179/139
f 109/179/140 88/136/140 110/180/140
f 107/181/141 86/139/141 108/178/141
f 97/147/116 89/133/116 94/148/116
f 115/182/142 120/169/142 118/168/142
f 115/182/143 119/163/143 116/183/143
f 114/184/144 117/185/144 115/182/144
f 102/164/145 117/185/145 98/186/145
f 103/162/146 120/169/146 116/183/146
f 114/184/147 118/168/147 99/187/147
f 121/188/148 126/156/148 124/189/148
f 121/188/149 125/159/149 122/157/149
f 113/190/150 124/189/150 95/191/150
f 95/191/151 126/156/151 99/192/151
f 114/155/152 125/159/152 98/193/152
f 113/190/153 123/160/153 121/188/153
f 101/131/116 106/161/116 111/132/116
f 87/134/117 92/142/117 93/135/117
f 85/137/118 90/194/118 91/138/118
f 89/140/119 88/136/119 93/135/119
f 86/139/120 91/138/120 92/142/120
f 90/143/121 112/152/121 113/144/121
f 93/146/122 96/153/122 97/147/122
f 91/145/123 113/144/123 95/149/123
f 85/151/124 98/175/124 112/152/124
f 92/150/125 95/149/125 96/153/125
f 97/147/154 96/153/154 100/154/154
f 114/155/155 99/192/155 126/156/155
f 95/149/156 99/165/156 100/154/156
f 112/158/129 98/193/129 125/159/129
f 100/154/157 105/166/157 106/161/157
f 103/162/158 116/183/158 119/163/158
f 99/165/132 104/173/132 105/166/132
f 104/167/159 99/187/159 118/168/159
f 106/161/134 105/166/134 110/170/134
f 103/171/135 108/176/135 109/172/135
f 85/151/160 107/195/160 102/174/160
f 104/173/136 109/172/136 110/170/136
f 102/174/137 107/195/137 108/176/137
f 111/177/138 110/180/138 88/136/138
f 108/178/161 86/139/161 87/134/161
f 109/179/140 87/134/140 88/136/140
f 107/181/162 85/137/162 86/139/162
f 97/147/163 101/131/163 89/133/163
f 115/182/164 116/183/164 120/169/164
f 115/182/143 117/185/143 119/163/143
f 114/184/165 98/186/165 117/185/165
f 102/164/145 119/163/145 117/185/145
f 103/162/166 104/167/166 120/169/166
f 114/184/167 115/182/167 118/168/167
f 121/188/148 122/157/148 126/156/148
f 121/188/168 123/160/168 125/159/168
f 113/190/169 121/188/169 124/189/169
f 95/191/170 124/189/170 126/156/170
f 114/155/171 122/157/171 125/159/171
f 113/190/172 112/158/172 123/160/172
