# Blender v2.81 (sub 16) OBJ File: 'garbage.blend'
# www.blender.org
v -2.516105 2.986174 -1.119651
v -2.501674 2.961451 -1.121120
v -2.501359 2.932803 -1.120252
v -2.515244 2.907904 -1.117278
v -2.539610 2.893427 -1.112996
v -2.525644 2.990431 -1.094010
v -2.518196 2.968825 -1.076709
v -2.520437 2.941317 -1.068970
v -2.531766 2.915278 -1.072867
v -2.549149 2.897684 -1.087355
v -2.573434 2.955312 -1.061114
v -2.577663 2.927398 -1.066063
v -2.575647 2.904681 -1.083427
v -2.569102 3.000169 -1.111794
v -2.607352 2.960793 -1.104539
v -2.607038 2.932144 -1.103670
v -2.592607 2.907422 -1.105140
v -2.559562 2.995911 -1.137435
v -2.576945 2.978317 -1.151924
v -2.588274 2.952278 -1.155820
v -2.590516 2.924770 -1.148081
v -2.583068 2.903164 -1.130780
v -2.533064 2.988914 -1.141363
v -2.531048 2.966197 -1.158727
v -2.535278 2.938283 -1.163677
v -2.544619 2.912650 -1.154885
v -2.556569 2.896167 -1.134709
v -2.552142 2.997428 -1.090082
v -2.564092 2.980945 -1.069905
v -2.593467 2.985691 -1.107513
v -2.617928 3.009636 -1.144367
v -2.616580 3.009034 -1.147991
v -2.586176 3.009234 -1.127201
v -2.617444 2.977807 -1.129537
v -2.581454 3.007127 -1.139893
v -2.610120 2.974538 -1.149224
v -2.600847 3.011141 -1.060724
v -2.607800 3.012264 -1.069625
v -2.587818 3.012243 -1.074099
v -2.600593 2.988820 -1.066532
v -2.591005 3.012758 -1.078178
v -2.603789 2.989336 -1.070623
vt 0.274240 0.539347
vt 0.265397 0.539709
vt 0.266768 0.532487
vt 0.231414 0.551290
vt 0.214659 0.541092
vt 0.231357 0.542861
vt 0.231940 0.569242
vt 0.215985 0.562822
vt 0.231472 0.559719
vt 0.230890 0.533338
vt 0.220414 0.530957
vt 0.213134 0.552274
vt 0.289666 0.544440
vt 0.282983 0.540904
vt 0.290637 0.536818
vt 0.279682 0.529141
vt 0.275518 0.536619
vt 0.273707 0.532162
vt 0.280945 0.538772
vt 0.286431 0.530872
vt 0.290637 0.551375
vt 0.284312 0.543753
vt 0.278488 0.537315
vt 0.276318 0.541045
vt 0.804698 0.251197
vt 0.792375 0.255919
vt 0.792638 0.252041
vt 0.786357 0.239035
vt 0.792578 0.249274
vt 0.791489 0.249454
vt 0.271776 0.541127
vt 0.760733 0.199751
vt 0.757502 0.209505
vt 0.750621 0.206121
vt 0.278108 0.542645
vt 0.273009 0.544115
vt 0.772804 0.201934
vt 0.766718 0.213101
vt 0.766203 0.208706
vt 0.264007 0.548518
vt 0.277612 0.547903
vt 0.268747 0.555467
vt 0.275021 0.546378
vt 0.280714 0.548498
vt 0.281954 0.545638
vt 0.276612 0.557409
vt 0.240880 0.530957
vt 0.248168 0.561486
vt 0.249693 0.550306
vt 0.246843 0.539760
vt 0.242415 0.571620
vt 0.762287 0.211045
vt 0.762255 0.210544
vt 0.761023 0.221925
vt 0.757316 0.212491
vt 0.750922 0.216572
vt 0.772804 0.220841
vt 0.791613 0.252007
vt 0.791097 0.255536
vt 0.780068 0.250772
vt 0.780487 0.263708
vt 0.804698 0.264828
vt 0.798786 0.238814
vt 0.221949 0.571626
vt 0.283377 0.553479
vn -0.2451 -0.9670 0.0694
vn 0.8274 -0.4164 0.3769
vn 0.8455 0.4796 0.2349
vn 0.5246 -0.7866 0.3258
vn 0.9382 0.0208 0.3456
vn 0.2774 0.6570 0.7010
vn -0.0435 -0.6091 0.7919
vn 0.2061 0.2494 0.9462
vn 0.2451 0.9670 -0.0694
vn 0.0953 -0.1878 0.9776
vn -0.7285 -0.4556 0.5115
vn -0.9551 -0.1561 -0.2518
vn -0.7874 0.0100 0.6163
vn 0.3268 0.9351 -0.1373
vn -0.8455 -0.4796 -0.2349
vn 0.3053 0.4072 -0.8608
vn -0.9382 -0.0208 -0.3456
vn -0.7278 -0.6668 -0.1601
vn -0.2774 -0.6570 -0.7010
vn -0.0953 0.1878 -0.9776
vn -0.2061 -0.2494 -0.9462
vn 0.0435 0.6091 -0.7919
vn 0.4076 -0.8105 -0.4207
vn 0.7874 -0.0100 -0.6163
vn 0.6766 -0.4472 -0.5850
vn 0.7285 0.4556 -0.5115
vn -0.9332 -0.1633 -0.3201
vn 0.0842 0.9876 -0.1327
vn -0.3498 0.6624 0.6625
vn 0.4540 0.8908 0.0210
vn -0.0834 0.0200 -0.9963
vn -0.6801 0.4485 0.5799
vn -0.7874 -0.1636 0.5944
vn 0.0248 0.9940 0.1061
vn 0.1467 0.2727 0.9509
vn -0.7128 -0.4979 0.4939
vn -0.4920 0.6600 -0.5677
vn 0.5866 0.5271 0.6149
vn -0.0435 -0.6092 0.7919
vn -0.8519 0.4414 -0.2820
vn 0.3268 0.9351 -0.1372
vn 0.2262 0.4053 -0.8858
vn -0.7278 -0.6668 -0.1600
vn -0.2734 0.6655 0.6945
vn -0.1011 0.1901 -0.9765
vn -0.6972 0.2940 0.6538
vn 0.0352 -0.2513 0.9673
vn -0.7128 -0.4979 0.4940
vn -0.3379 0.7057 -0.6228
vn 0.5174 0.4865 0.7040
s off
f 17/1/1 27/2/1 5/3/1
f 3/4/2 9/5/2 4/6/2
f 1/7/3 7/8/3 2/9/3
f 5/10/4 9/5/4 10/11/4
f 2/9/5 8/12/5 3/4/5
f 6/13/6 29/14/6 7/15/6
f 9/16/7 13/17/7 10/18/7
f 7/15/8 11/19/8 8/20/8
f 1/21/9 28/22/9 6/13/9
f 8/20/10 12/23/10 9/16/10
f 13/17/11 16/24/11 17/1/11
f 30/25/12 42/26/12 38/27/12
f 11/19/13 16/24/13 12/23/13
f 28/28/14 41/29/14 39/30/14
f 16/24/15 22/31/15 17/1/15
f 19/32/16 35/33/16 18/34/16
f 15/35/17 21/36/17 16/24/17
f 20/37/18 34/38/18 36/39/18
f 22/31/19 26/40/19 27/2/19
f 19/41/20 25/42/20 20/43/20
f 1/21/9 18/44/9 14/45/9
f 20/43/21 26/40/21 21/36/21
f 18/44/22 24/46/22 19/41/22
f 27/47/23 4/6/23 5/10/23
f 24/48/24 3/4/24 25/49/24
f 25/49/25 4/6/25 26/50/25
f 23/51/26 2/9/26 24/48/26
f 13/17/1 5/3/1 10/18/1
f 31/52/27 36/39/27 34/38/27
f 31/52/28 35/33/28 32/53/28
f 30/54/29 33/55/29 31/52/29
f 18/34/30 33/55/30 14/56/30
f 19/32/31 36/39/31 32/53/31
f 30/54/32 34/38/32 15/57/32
f 37/58/33 42/26/33 40/59/33
f 37/58/34 41/29/34 38/27/34
f 29/60/35 40/59/35 11/61/35
f 11/61/36 42/26/36 15/62/36
f 30/25/37 41/29/37 14/63/37
f 29/60/38 39/30/38 37/58/38
f 17/1/1 22/31/1 27/2/1
f 3/4/2 8/12/2 9/5/2
f 1/7/3 6/64/3 7/8/3
f 5/10/4 4/6/4 9/5/4
f 2/9/5 7/8/5 8/12/5
f 6/13/6 28/22/6 29/14/6
f 9/16/39 12/23/39 13/17/39
f 7/15/8 29/14/8 11/19/8
f 1/21/9 14/45/9 28/22/9
f 8/20/10 11/19/10 12/23/10
f 13/17/11 12/23/11 16/24/11
f 30/25/40 15/62/40 42/26/40
f 11/19/13 15/35/13 16/24/13
f 28/28/41 14/63/41 41/29/41
f 16/24/15 21/36/15 22/31/15
f 19/32/42 32/53/42 35/33/42
f 15/35/17 20/43/17 21/36/17
f 20/37/43 15/57/43 34/38/43
f 22/31/19 21/36/19 26/40/19
f 19/41/20 24/46/20 25/42/20
f 1/21/9 23/65/9 18/44/9
f 20/43/21 25/42/21 26/40/21
f 18/44/22 23/65/22 24/46/22
f 27/47/23 26/50/23 4/6/23
f 24/48/24 2/9/24 3/4/24
f 25/49/25 3/4/25 4/6/25
f 23/51/26 1/7/26 2/9/26
f 13/17/1 17/1/1 5/3/1
f 31/52/27 32/53/27 36/39/27
f 31/52/28 33/55/28 35/33/28
f 30/54/44 14/56/44 33/55/44
f 18/34/30 35/33/30 33/55/30
f 19/32/45 20/37/45 36/39/45
f 30/54/46 31/52/46 34/38/46
f 37/58/33 38/27/33 42/26/33
f 37/58/34 39/30/34 41/29/34
f 29/60/47 37/58/47 40/59/47
f 11/61/48 40/59/48 42/26/48
f 30/25/49 38/27/49 41/29/49
f 29/60/50 28/28/50 39/30/50
v -3.563608 3.234268 -1.813796
v -3.568805 3.208958 -1.826207
v -3.565209 3.180534 -1.827079
v -3.553784 3.156612 -1.816179
v -3.537591 3.143602 -1.796427
v -3.537002 3.241337 -1.816746
v -3.522722 3.221203 -1.831316
v -3.511997 3.194674 -1.832979
v -3.507701 3.168857 -1.821288
v -3.510985 3.150672 -1.799377
v -3.482778 3.211475 -1.789044
v -3.482397 3.183408 -1.783240
v -3.496376 3.159072 -1.777410
v -3.534389 3.251069 -1.769862
v -3.506771 3.214137 -1.739210
v -3.503175 3.185713 -1.740082
v -3.508372 3.160403 -1.752493
v -3.560995 3.243999 -1.766912
v -3.564279 3.225814 -1.745000
v -3.559983 3.199997 -1.733310
v -3.549258 3.173468 -1.734972
v -3.534978 3.153334 -1.749542
v -3.575604 3.235599 -1.788879
v -3.589583 3.211263 -1.783049
v -3.589202 3.183196 -1.777244
v -3.574563 3.158918 -1.773021
v -3.549588 3.144933 -1.771510
v -3.522392 3.249738 -1.794779
v -3.497417 3.235753 -1.793268
v -3.518196 3.238059 -1.750110
v -3.542489 3.259333 -1.711546
v -3.546249 3.258334 -1.711129
v -3.541385 3.259299 -1.747626
v -3.526234 3.229074 -1.718856
v -3.554555 3.255799 -1.746166
v -3.546663 3.223646 -1.716591
v -3.475957 3.268142 -1.764329
v -3.480875 3.268687 -1.754114
v -3.493778 3.267435 -1.769964
v -3.478921 3.245375 -1.762107
v -3.496032 3.267685 -1.765282
v -3.481182 3.245626 -1.757411
vt 0.274240 0.539347
vt 0.265397 0.539709
vt 0.266768 0.532487
vt 0.231414 0.551290
vt 0.214659 0.541092
vt 0.231357 0.542861
vt 0.231940 0.569242
vt 0.215985 0.562822
vt 0.231472 0.559719
vt 0.230890 0.533338
vt 0.220414 0.530957
vt 0.213134 0.552274
vt 0.289666 0.544440
vt 0.282983 0.540904
vt 0.290637 0.536818
vt 0.279682 0.529141
vt 0.275518 0.536619
vt 0.273707 0.532162
vt 0.280945 0.538772
vt 0.286431 0.530872
vt 0.290637 0.551375
vt 0.284312 0.543753
vt 0.278488 0.537315
vt 0.276318 0.541045
vt 0.804698 0.251197
vt 0.792375 0.255919
vt 0.792638 0.252041
vt 0.786357 0.239035
vt 0.792578 0.249274
vt 0.791489 0.249454
vt 0.271776 0.541127
vt 0.760733 0.199751
vt 0.757502 0.209505
vt 0.750621 0.206121
vt 0.278108 0.542645
vt 0.273009 0.544115
vt 0.772804 0.201934
vt 0.766718 0.213101
vt 0.766203 0.208706
vt 0.264007 0.548518
vt 0.277612 0.547903
vt 0.268747 0.555467
vt 0.275021 0.546378
vt 0.280714 0.548498
vt 0.281954 0.545638
vt 0.276612 0.557409
vt 0.240880 0.530957
vt 0.248168 0.561486
vt 0.249693 0.550306
vt 0.246843 0.539760
vt 0.242415 0.571620
vt 0.762287 0.211045
vt 0.762255 0.210544
vt 0.761023 0.221925
vt 0.757316 0.212491
vt 0.750922 0.216572
vt 0.772804 0.220841
vt 0.791613 0.252007
vt 0.791097 0.255536
vt 0.780068 0.250772
vt 0.780487 0.263708
vt 0.804698 0.264828
vt 0.798786 0.238814
vt 0.221949 0.571626
vt 0.283377 0.553479
vn 0.2713 -0.9453 0.1811
vn 0.0082 -0.4114 -0.9114
vn -0.2188 0.4654 -0.8576
vn 0.1364 -0.7723 -0.6205
vn -0.1144 0.0160 -0.9933
vn 0.4309 0.7093 -0.5578
vn 0.7861 -0.5284 -0.3207
vn 0.7228 0.3302 -0.6070
vn -0.2713 0.9453 -0.1811
vn 0.8455 -0.0971 -0.5251
vn 0.8273 -0.3750 0.4183
vn 0.2193 -0.1410 0.9654
vn 0.8985 0.1006 0.4272
vn -0.3648 0.9038 -0.2238
vn 0.2188 -0.4654 0.8576
vn -0.9435 0.3104 0.1163
vn 0.1144 -0.0160 0.9933
vn 0.2521 -0.6493 0.7176
vn -0.4309 -0.7093 0.5578
vn -0.8455 0.0971 0.5251
vn -0.7228 -0.3303 0.6070
vn -0.7861 0.5284 0.3207
vn -0.4721 -0.8627 -0.1812
vn -0.8985 -0.1006 -0.4272
vn -0.7759 -0.5280 -0.3453
vn -0.8273 0.3750 -0.4183
vn 0.1496 -0.1555 0.9764
vn -0.2577 0.9662 -0.0088
vn 0.6765 0.7362 0.0200
vn -0.2764 0.8697 -0.4089
vn -0.8501 -0.0720 0.5216
vn 0.7728 0.5289 0.3508
vn 0.8970 -0.0743 0.4358
vn -0.0197 0.9978 -0.0628
vn 0.7511 0.3562 -0.5558
vn 0.8090 -0.4193 0.4119
vn -0.3529 0.6220 0.6990
vn 0.2296 0.5594 -0.7964
vn -0.2188 0.4655 -0.8576
vn 0.7228 0.3303 -0.6070
vn 0.0845 0.4463 0.8909
vn 0.8985 0.1005 0.4272
vn -0.3648 0.9038 -0.2239
vn 0.2188 -0.4655 0.8576
vn -0.9301 0.3093 0.1981
vn -0.7228 -0.3302 0.6070
vn -0.7759 -0.5279 -0.3454
vn 0.1497 -0.1555 0.9764
vn 0.6705 0.7393 -0.0627
vn -0.8422 0.0998 0.5299
vn 0.8621 0.3830 0.3318
vn -0.0197 0.9978 -0.0627
vn 0.8698 -0.1589 -0.4672
vn -0.4754 0.6559 0.5863
vn 0.3439 0.5304 -0.7748
s off
f 59/66/51 69/67/51 47/68/51
f 45/69/52 51/70/52 46/71/52
f 43/72/53 49/73/53 44/74/53
f 47/75/54 51/70/54 52/76/54
f 44/74/55 50/77/55 45/69/55
f 48/78/56 71/79/56 49/80/56
f 51/81/57 55/82/57 52/83/57
f 49/80/58 53/84/58 50/85/58
f 43/86/59 70/87/59 48/78/59
f 50/85/60 54/88/60 51/81/60
f 55/82/61 58/89/61 59/66/61
f 72/90/62 84/91/62 80/92/62
f 53/84/63 58/89/63 54/88/63
f 70/93/64 83/94/64 81/95/64
f 58/89/65 64/96/65 59/66/65
f 61/97/66 77/98/66 60/99/66
f 57/100/67 63/101/67 58/89/67
f 62/102/68 76/103/68 78/104/68
f 64/96/69 68/105/69 69/67/69
f 61/106/70 67/107/70 62/108/70
f 43/86/59 60/109/59 56/110/59
f 62/108/71 68/105/71 63/101/71
f 60/109/72 66/111/72 61/106/72
f 69/112/73 46/71/73 47/75/73
f 66/113/74 45/69/74 67/114/74
f 67/114/75 46/71/75 68/115/75
f 65/116/76 44/74/76 66/113/76
f 55/82/51 47/68/51 52/83/51
f 73/117/77 78/104/77 76/103/77
f 73/117/78 77/98/78 74/118/78
f 72/119/79 75/120/79 73/117/79
f 60/99/80 75/120/80 56/121/80
f 61/97/81 78/104/81 74/118/81
f 72/119/82 76/103/82 57/122/82
f 79/123/83 84/91/83 82/124/83
f 79/123/84 83/94/84 80/92/84
f 71/125/85 82/124/85 53/126/85
f 53/126/86 84/91/86 57/127/86
f 72/90/87 83/94/87 56/128/87
f 71/125/88 81/95/88 79/123/88
f 59/66/51 64/96/51 69/67/51
f 45/69/52 50/77/52 51/70/52
f 43/72/89 48/129/89 49/73/89
f 47/75/54 46/71/54 51/70/54
f 44/74/55 49/73/55 50/77/55
f 48/78/56 70/87/56 71/79/56
f 51/81/57 54/88/57 55/82/57
f 49/80/90 71/79/90 53/84/90
f 43/86/59 56/110/59 70/87/59
f 50/85/60 53/84/60 54/88/60
f 55/82/61 54/88/61 58/89/61
f 72/90/91 57/127/91 84/91/91
f 53/84/92 57/100/92 58/89/92
f 70/93/93 56/128/93 83/94/93
f 58/89/94 63/101/94 64/96/94
f 61/97/95 74/118/95 77/98/95
f 57/100/67 62/108/67 63/101/67
f 62/102/68 57/122/68 76/103/68
f 64/96/69 63/101/69 68/105/69
f 61/106/70 66/111/70 67/107/70
f 43/86/59 65/130/59 60/109/59
f 62/108/96 67/107/96 68/105/96
f 60/109/72 65/130/72 66/111/72
f 69/112/73 68/115/73 46/71/73
f 66/113/74 44/74/74 45/69/74
f 67/114/97 45/69/97 46/71/97
f 65/116/76 43/72/76 44/74/76
f 55/82/51 59/66/51 47/68/51
f 73/117/98 74/118/98 78/104/98
f 73/117/78 75/120/78 77/98/78
f 72/119/99 56/121/99 75/120/99
f 60/99/80 77/98/80 75/120/80
f 61/97/100 62/102/100 78/104/100
f 72/119/101 73/117/101 76/103/101
f 79/123/83 80/92/83 84/91/83
f 79/123/102 81/95/102 83/94/102
f 71/125/103 79/123/103 82/124/103
f 53/126/86 82/124/86 84/91/86
f 72/90/104 80/92/104 83/94/104
f 71/125/105 70/93/105 81/95/105
v -1.012571 4.638635 -2.370645
v -1.010148 4.622219 -2.394017
v -1.009760 4.596275 -2.406197
v -1.011510 4.567755 -2.403923
v -1.014929 4.544302 -2.387804
v -0.990845 4.635039 -2.353863
v -0.972519 4.615991 -2.364949
v -0.966310 4.589083 -2.372633
v -0.973881 4.561527 -2.374855
v -0.993204 4.540706 -2.371021
v -0.974289 4.579470 -2.318686
v -0.980791 4.553202 -2.328136
v -0.997194 4.535899 -2.344048
v -1.020550 4.629022 -2.316699
v -1.025719 4.577049 -2.298305
v -1.025331 4.551105 -2.310486
v -1.022908 4.534688 -2.333858
v -1.042275 4.632618 -2.333481
v -1.061598 4.611796 -2.329648
v -1.069169 4.584240 -2.331870
v -1.062960 4.557333 -2.339554
v -1.044633 4.538284 -2.350640
v -1.038285 4.637424 -2.360455
v -1.054688 4.620121 -2.376366
v -1.061190 4.593853 -2.385816
v -1.056049 4.565658 -2.386273
v -1.040644 4.543091 -2.377613
v -0.994835 4.630233 -2.326890
v -0.979429 4.607666 -2.318230
v -1.023969 4.605568 -2.300579
v -1.065972 4.622715 -2.278861
v -1.069042 4.623223 -2.281233
v -1.040160 4.632599 -2.302080
v -1.052264 4.591976 -2.288885
v -1.050914 4.634379 -2.310387
v -1.068945 4.594737 -2.301770
v -0.981017 4.619026 -2.271161
v -0.991559 4.618529 -2.266984
v -0.989896 4.627128 -2.285493
v -0.986903 4.599736 -2.282356
v -0.994727 4.626901 -2.283578
v -0.991749 4.599508 -2.280435
vt 0.274240 0.539347
vt 0.265397 0.539709
vt 0.266768 0.532487
vt 0.231414 0.551290
vt 0.214659 0.541092
vt 0.231357 0.542861
vt 0.231940 0.569242
vt 0.215985 0.562822
vt 0.231472 0.559719
vt 0.230890 0.533338
vt 0.220414 0.530957
vt 0.213134 0.552274
vt 0.289666 0.544440
vt 0.282983 0.540904
vt 0.290637 0.536818
vt 0.279682 0.529141
vt 0.275518 0.536619
vt 0.273707 0.532162
vt 0.280945 0.538772
vt 0.286431 0.530872
vt 0.290637 0.551375
vt 0.284312 0.543753
vt 0.278488 0.537315
vt 0.276318 0.541045
vt 0.804698 0.251197
vt 0.792375 0.255919
vt 0.792638 0.252041
vt 0.786357 0.239035
vt 0.792578 0.249274
vt 0.791489 0.249454
vt 0.271776 0.541127
vt 0.760733 0.199751
vt 0.757502 0.209505
vt 0.750621 0.206121
vt 0.278108 0.542645
vt 0.273009 0.544115
vt 0.772804 0.201934
vt 0.766718 0.213101
vt 0.766203 0.208706
vt 0.264007 0.548518
vt 0.277612 0.547903
vt 0.268747 0.555467
vt 0.275021 0.546378
vt 0.280714 0.548498
vt 0.281954 0.545638
vt 0.276612 0.557409
vt 0.240880 0.530957
vt 0.248168 0.561486
vt 0.249693 0.550306
vt 0.246843 0.539760
vt 0.242415 0.571620
vt 0.762287 0.211045
vt 0.762255 0.210544
vt 0.761023 0.221925
vt 0.757316 0.212491
vt 0.750922 0.216572
vt 0.772804 0.220841
vt 0.791613 0.252007
vt 0.791097 0.255536
vt 0.780068 0.250772
vt 0.780487 0.263708
vt 0.804698 0.264828
vt 0.798786 0.238814
vt 0.221949 0.571626
vt 0.283377 0.553479
vn -0.0246 -0.9836 -0.1789
vn 0.5978 -0.1001 -0.7954
vn 0.4843 0.7387 -0.4687
vn 0.4521 -0.5490 -0.7029
vn 0.6089 0.3446 -0.7145
vn 0.7639 0.6063 0.2210
vn 0.7317 -0.6815 -0.0132
vn 0.9692 0.1739 0.1743
vn 0.0246 0.9836 0.1789
vn 0.9581 -0.2708 0.0935
vn 0.2635 -0.7763 0.5726
vn -0.5270 -0.4872 0.6964
vn 0.3547 -0.3930 0.8484
vn -0.0165 0.9969 0.0767
vn -0.4843 -0.7387 0.4687
vn -0.7235 0.6130 -0.3174
vn -0.6089 -0.3446 0.7145
vn -0.3814 -0.8720 0.3069
vn -0.7639 -0.6063 -0.2210
vn -0.9581 0.2708 -0.0935
vn -0.9692 -0.1739 -0.1743
vn -0.7317 0.6815 0.0132
vn -0.2957 -0.5115 -0.8068
vn -0.3547 0.3930 -0.8484
vn -0.3658 -0.0517 -0.9293
vn -0.2635 0.7763 -0.5726
vn -0.5858 -0.4753 0.6565
vn -0.0832 0.9468 0.3107
vn 0.5409 0.3661 0.7572
vn 0.1715 0.9851 -0.0109
vn -0.9756 0.1263 -0.1798
vn 0.3599 0.0522 0.9315
vn 0.3306 -0.5471 0.7690
vn 0.1272 0.8951 0.4273
vn 0.9564 0.1705 0.2369
vn 0.2506 -0.8058 0.5365
vn -0.6758 0.4819 0.5577
vn 0.7711 0.6244 -0.1247
vn 0.5978 -0.1001 -0.7953
vn 0.4522 -0.5490 -0.7029
vn 0.6090 0.3446 -0.7145
vn -0.5140 0.0995 0.8520
vn -0.7709 0.5832 -0.2562
vn -0.6090 -0.3446 0.7145
vn -0.2957 -0.5114 -0.8069
vn -0.3658 -0.0516 -0.9293
vn -0.5859 -0.4752 0.6564
vn -0.0832 0.9469 0.3106
vn 0.5943 0.3949 0.7006
vn -0.9588 0.2705 -0.0872
vn 0.4226 -0.1051 0.9002
vn 0.3305 -0.5471 0.7690
vn 0.9292 -0.3509 0.1160
vn 0.2505 -0.8058 0.5365
vn -0.6817 0.5926 0.4291
vn 0.8348 0.5474 -0.0586
s off
f 101/131/106 111/132/106 89/133/106
f 87/134/107 93/135/107 88/136/107
f 85/137/108 91/138/108 86/139/108
f 89/140/109 93/135/109 94/141/109
f 86/139/110 92/142/110 87/134/110
f 90/143/111 113/144/111 91/145/111
f 93/146/112 97/147/112 94/148/112
f 91/145/113 95/149/113 92/150/113
f 85/151/114 112/152/114 90/143/114
f 92/150/115 96/153/115 93/146/115
f 97/147/116 100/154/116 101/131/116
f 114/155/117 126/156/117 122/157/117
f 95/149/118 100/154/118 96/153/118
f 112/158/119 125/159/119 123/160/119
f 100/154/120 106/161/120 101/131/120
f 103/162/121 119/163/121 102/164/121
f 99/165/122 105/166/122 100/154/122
f 104/167/123 118/168/123 120/169/123
f 106/161/124 110/170/124 111/132/124
f 103/171/125 109/172/125 104/173/125
f 85/151/114 102/174/114 98/175/114
f 104/173/126 110/170/126 105/166/126
f 102/174/127 108/176/127 103/171/127
f 111/177/128 88/136/128 89/140/128
f 108/178/129 87/134/129 109/179/129
f 109/179/130 88/136/130 110/180/130
f 107/181/131 86/139/131 108/178/131
f 97/147/106 89/133/106 94/148/106
f 115/182/132 120/169/132 118/168/132
f 115/182/133 119/163/133 116/183/133
f 114/184/134 117/185/134 115/182/134
f 102/164/135 117/185/135 98/186/135
f 103/162/136 120/169/136 116/183/136
f 114/184/137 118/168/137 99/187/137
f 121/188/138 126/156/138 124/189/138
f 121/188/139 125/159/139 122/157/139
f 113/190/140 124/189/140 95/191/140
f 95/191/141 126/156/141 99/192/141
f 114/155/142 125/159/142 98/193/142
f 113/190/143 123/160/143 121/188/143
f 101/131/106 106/161/106 111/132/106
f 87/134/144 92/142/144 93/135/144
f 85/137/108 90/194/108 91/138/108
f 89/140/145 88/136/145 93/135/145
f 86/139/146 91/138/146 92/142/146
f 90/143/111 112/152/111 113/144/111
f 93/146/112 96/153/112 97/147/112
f 91/145/113 113/144/113 95/149/113
f 85/151/114 98/175/114 112/152/114
f 92/150/115 95/149/115 96/153/115
f 97/147/116 96/153/116 100/154/116
f 114/155/147 99/192/147 126/156/147
f 95/149/118 99/165/118 100/154/118
f 112/158/119 98/193/119 125/159/119
f 100/154/120 105/166/120 106/161/120
f 103/162/148 116/183/148 119/163/148
f 99/165/149 104/173/149 105/166/149
f 104/167/123 99/187/123 118/168/123
f 106/161/124 105/166/124 110/170/124
f 103/171/125 108/176/125 109/172/125
f 85/151/114 107/195/114 102/174/114
f 104/173/126 109/172/126 110/170/126
f 102/174/127 107/195/127 108/176/127
f 111/177/150 110/180/150 88/136/150
f 108/178/129 86/139/129 87/134/129
f 109/179/151 87/134/151 88/136/151
f 107/181/131 85/137/131 86/139/131
f 97/147/106 101/131/106 89/133/106
f 115/182/152 116/183/152 120/169/152
f 115/182/153 117/185/153 119/163/153
f 114/184/154 98/186/154 117/185/154
f 102/164/135 119/163/135 117/185/135
f 103/162/155 104/167/155 120/169/155
f 114/184/156 115/182/156 118/168/156
f 121/188/157 122/157/157 126/156/157
f 121/188/139 123/160/139 125/159/139
f 113/190/158 121/188/158 124/189/158
f 95/191/159 124/189/159 126/156/159
f 114/155/160 122/157/160 125/159/160
f 113/190/161 112/158/161 123/160/161
