# Blender v2.81 (sub 16) OBJ File: 'garbage.blend'
# www.blender.org
v -1.171836 2.925285 3.860151
v -1.182833 2.898989 3.857125
v -1.180374 2.870574 3.859980
v -1.165117 2.847655 3.867950
v -1.141151 2.836372 3.878901
v -1.150495 2.929014 3.842911
v -1.145870 2.905448 3.827264
v -1.137693 2.878032 3.825499
v -1.128154 2.854114 3.838089
v -1.119810 2.840101 3.861660
v -1.089932 2.898541 3.844591
v -1.086792 2.871875 3.854624
v -1.095930 2.850355 3.871207
v -1.124075 2.945794 3.879244
v -1.084852 2.911592 3.898165
v -1.082393 2.883177 3.901020
v -1.093390 2.856881 3.897994
v -1.145416 2.942065 3.896484
v -1.137072 2.928052 3.920056
v -1.127533 2.904134 3.932646
v -1.119356 2.876718 3.930881
v -1.114731 2.853151 3.915234
v -1.169296 2.931811 3.886938
v -1.178434 2.910291 3.903521
v -1.175294 2.883625 3.913553
v -1.160718 2.858957 3.914346
v -1.138611 2.842897 3.905688
v -1.126615 2.939269 3.852457
v -1.104508 2.923209 3.843798
v -1.100109 2.934511 3.890194
v -1.100969 2.964064 3.930887
v -1.103985 2.963537 3.933323
v -1.118585 2.958149 3.899939
v -1.090978 2.931515 3.922285
v -1.129148 2.956303 3.908473
v -1.107363 2.928652 3.935522
v -1.071018 2.957423 3.851205
v -1.069977 2.960098 3.862187
v -1.089203 2.957664 3.855576
v -1.072557 2.935732 3.858899
v -1.088726 2.958890 3.860609
v -1.072079 2.936962 3.863947
vt 0.274240 0.539347
vt 0.265397 0.539709
vt 0.266768 0.532487
vt 0.231414 0.551290
vt 0.214659 0.541092
vt 0.231357 0.542861
vt 0.231940 0.569242
vt 0.215985 0.562822
vt 0.231472 0.559719
vt 0.230890 0.533338
vt 0.220414 0.530957
vt 0.213134 0.552274
vt 0.289666 0.544440
vt 0.282983 0.540904
vt 0.290637 0.536818
vt 0.279682 0.529141
vt 0.275518 0.536619
vt 0.273707 0.532162
vt 0.280945 0.538772
vt 0.286431 0.530872
vt 0.290637 0.551375
vt 0.284312 0.543753
vt 0.278488 0.537315
vt 0.276318 0.541045
vt 0.804698 0.251197
vt 0.792375 0.255919
vt 0.792638 0.252041
vt 0.786357 0.239035
vt 0.792578 0.249274
vt 0.791489 0.249454
vt 0.271776 0.541127
vt 0.760733 0.199751
vt 0.757502 0.209505
vt 0.750621 0.206121
vt 0.278108 0.542645
vt 0.273009 0.544115
vt 0.772804 0.201934
vt 0.766718 0.213101
vt 0.766203 0.208706
vt 0.264007 0.548518
vt 0.277612 0.547903
vt 0.268747 0.555467
vt 0.275021 0.546378
vt 0.280714 0.548498
vt 0.281954 0.545638
vt 0.276612 0.557409
vt 0.240880 0.530957
vt 0.248168 0.561486
vt 0.249693 0.550306
vt 0.246843 0.539760
vt 0.242415 0.571620
vt 0.762287 0.211045
vt 0.762255 0.210544
vt 0.761023 0.221925
vt 0.757316 0.212491
vt 0.750922 0.216572
vt 0.772804 0.220841
vt 0.791613 0.252007
vt 0.791097 0.255536
vt 0.780068 0.250772
vt 0.780487 0.263708
vt 0.804698 0.264828
vt 0.798786 0.238814
vt 0.221949 0.571626
vt 0.283377 0.553479
vn 0.3199 -0.9271 0.1955
vn -0.4644 -0.5504 -0.6938
vn -0.6259 0.3424 -0.7007
vn -0.2070 -0.8714 -0.4448
vn -0.6090 -0.1313 -0.7822
vn 0.0869 0.5628 -0.8220
vn 0.5058 -0.6510 -0.5660
vn 0.3096 0.1528 -0.9385
vn -0.3199 0.9270 -0.1955
vn 0.4542 -0.2664 -0.8501
vn 0.9223 -0.3865 0.0067
vn 0.6838 -0.0066 0.7296
vn 0.9909 0.0745 -0.1121
vn -0.4224 0.8890 -0.1766
vn 0.6259 -0.3424 0.7007
vn -0.7473 0.4205 0.5145
vn 0.6090 0.1313 0.7822
vn 0.5813 -0.5487 0.6009
vn -0.0869 -0.5628 0.8220
vn -0.4542 0.2663 0.8501
vn -0.3199 0.9271 -0.1955
vn -0.3096 -0.1528 0.9385
vn -0.5058 0.6510 0.5660
vn -0.5034 -0.8273 0.2493
vn -0.9909 -0.0745 0.1121
vn -0.8463 -0.4936 0.2005
vn -0.9223 0.3865 -0.0067
vn 0.6296 -0.0120 0.7768
vn -0.2195 0.9737 -0.0612
vn 0.5949 0.6563 -0.4641
vn -0.4420 0.8169 -0.3704
vn -0.4610 0.1002 0.8817
vn 0.8464 0.4958 -0.1945
vn 0.9929 -0.0956 -0.0709
vn -0.0430 0.9716 -0.2326
vn 0.3603 0.1835 -0.9146
vn 0.9030 -0.4291 0.0189
vn 0.0608 0.7587 0.6486
vn -0.2094 0.3983 -0.8930
vn -0.4644 -0.5504 -0.6939
vn -0.2070 -0.8714 -0.4447
vn 0.5335 0.5719 0.6231
vn -0.4224 0.8890 -0.1765
vn -0.6937 0.4311 0.5770
vn -0.2195 0.9737 -0.0611
vn 0.5472 0.6468 -0.5313
vn -0.4490 0.2694 0.8520
vn 0.9123 0.3402 -0.2278
vn 0.9929 -0.0956 -0.0708
vn -0.0430 0.9716 -0.2327
vn 0.5045 -0.3202 -0.8018
vn 0.9030 -0.4292 0.0189
vn -0.1019 0.7866 0.6090
vn -0.1005 0.3615 -0.9269
s off
f 17/1/1 27/2/1 5/3/1
f 3/4/2 9/5/2 4/6/2
f 1/7/3 7/8/3 2/9/3
f 5/10/4 9/5/4 10/11/4
f 2/9/5 8/12/5 3/4/5
f 6/13/6 29/14/6 7/15/6
f 9/16/7 13/17/7 10/18/7
f 7/15/8 11/19/8 8/20/8
f 1/21/9 28/22/9 6/13/9
f 8/20/10 12/23/10 9/16/10
f 13/17/11 16/24/11 17/1/11
f 30/25/12 42/26/12 38/27/12
f 11/19/13 16/24/13 12/23/13
f 28/28/14 41/29/14 39/30/14
f 16/24/15 22/31/15 17/1/15
f 19/32/16 35/33/16 18/34/16
f 15/35/17 21/36/17 16/24/17
f 20/37/18 34/38/18 36/39/18
f 22/31/19 26/40/19 27/2/19
f 19/41/20 25/42/20 20/43/20
f 1/21/21 18/44/21 14/45/21
f 20/43/22 26/40/22 21/36/22
f 18/44/23 24/46/23 19/41/23
f 27/47/24 4/6/24 5/10/24
f 24/48/25 3/4/25 25/49/25
f 25/49/26 4/6/26 26/50/26
f 23/51/27 2/9/27 24/48/27
f 13/17/1 5/3/1 10/18/1
f 31/52/28 36/39/28 34/38/28
f 31/52/29 35/33/29 32/53/29
f 30/54/30 33/55/30 31/52/30
f 18/34/31 33/55/31 14/56/31
f 19/32/32 36/39/32 32/53/32
f 30/54/33 34/38/33 15/57/33
f 37/58/34 42/26/34 40/59/34
f 37/58/35 41/29/35 38/27/35
f 29/60/36 40/59/36 11/61/36
f 11/61/37 42/26/37 15/62/37
f 30/25/38 41/29/38 14/63/38
f 29/60/39 39/30/39 37/58/39
f 17/1/1 22/31/1 27/2/1
f 3/4/40 8/12/40 9/5/40
f 1/7/3 6/64/3 7/8/3
f 5/10/41 4/6/41 9/5/41
f 2/9/5 7/8/5 8/12/5
f 6/13/6 28/22/6 29/14/6
f 9/16/7 12/23/7 13/17/7
f 7/15/8 29/14/8 11/19/8
f 1/21/21 14/45/21 28/22/21
f 8/20/10 11/19/10 12/23/10
f 13/17/11 12/23/11 16/24/11
f 30/25/42 15/62/42 42/26/42
f 11/19/13 15/35/13 16/24/13
f 28/28/43 14/63/43 41/29/43
f 16/24/15 21/36/15 22/31/15
f 19/32/44 32/53/44 35/33/44
f 15/35/17 20/43/17 21/36/17
f 20/37/18 15/57/18 34/38/18
f 22/31/19 21/36/19 26/40/19
f 19/41/20 24/46/20 25/42/20
f 1/21/21 23/65/21 18/44/21
f 20/43/22 25/42/22 26/40/22
f 18/44/23 23/65/23 24/46/23
f 27/47/24 26/50/24 4/6/24
f 24/48/25 2/9/25 3/4/25
f 25/49/26 3/4/26 4/6/26
f 23/51/27 1/7/27 2/9/27
f 13/17/1 17/1/1 5/3/1
f 31/52/28 32/53/28 36/39/28
f 31/52/45 33/55/45 35/33/45
f 30/54/46 14/56/46 33/55/46
f 18/34/31 35/33/31 33/55/31
f 19/32/47 20/37/47 36/39/47
f 30/54/48 31/52/48 34/38/48
f 37/58/49 38/27/49 42/26/49
f 37/58/50 39/30/50 41/29/50
f 29/60/51 37/58/51 40/59/51
f 11/61/52 40/59/52 42/26/52
f 30/25/53 38/27/53 41/29/53
f 29/60/54 28/28/54 39/30/54
v 4.176586 3.404414 -1.295219
v 4.177351 3.390597 -1.270118
v 4.177310 3.366081 -1.255266
v 4.176473 3.337437 -1.254643
v 4.175064 3.312338 -1.268416
v 4.151904 3.401287 -1.307366
v 4.134600 3.385179 -1.291157
v 4.127945 3.359825 -1.279560
v 4.133721 3.332019 -1.275682
v 4.150381 3.309210 -1.280563
v 4.124975 3.344416 -1.332663
v 4.131149 3.318674 -1.321671
v 4.148896 3.301506 -1.307114
v 4.173616 3.389005 -1.348323
v 4.171370 3.335262 -1.361473
v 4.171328 3.310747 -1.346621
v 4.172093 3.296929 -1.321519
v 4.198298 3.392133 -1.336176
v 4.214958 3.369325 -1.341056
v 4.220735 3.341518 -1.337178
v 4.214079 3.316164 -1.325581
v 4.196776 3.300057 -1.309372
v 4.199783 3.399838 -1.309624
v 4.217531 3.382670 -1.295067
v 4.223705 3.356928 -1.284075
v 4.216652 3.329509 -1.279592
v 4.198261 3.307762 -1.282820
v 4.150418 3.393582 -1.333918
v 4.132028 3.371834 -1.337146
v 4.172207 3.363907 -1.362096
v 4.210578 3.374902 -1.392702
v 4.214066 3.375344 -1.390986
v 4.190364 3.389323 -1.366502
v 4.196728 3.346674 -1.377059
v 4.202582 3.390871 -1.360489
v 4.215680 3.349076 -1.367733
v 4.125644 3.378463 -1.384710
v 4.135155 3.376587 -1.390615
v 4.137621 3.387026 -1.373173
v 4.132061 3.359861 -1.372676
v 4.141980 3.386166 -1.375880
v 4.136433 3.358999 -1.375390
vt 0.274240 0.539347
vt 0.265397 0.539709
vt 0.266768 0.532487
vt 0.231414 0.551290
vt 0.214659 0.541092
vt 0.231357 0.542861
vt 0.231940 0.569242
vt 0.215985 0.562822
vt 0.231472 0.559719
vt 0.230890 0.533338
vt 0.220414 0.530957
vt 0.213134 0.552274
vt 0.289666 0.544440
vt 0.282983 0.540904
vt 0.290637 0.536818
vt 0.279682 0.529141
vt 0.275518 0.536619
vt 0.273707 0.532162
vt 0.280945 0.538772
vt 0.286431 0.530872
vt 0.290637 0.551375
vt 0.284312 0.543753
vt 0.278488 0.537315
vt 0.276318 0.541045
vt 0.804698 0.251197
vt 0.792375 0.255919
vt 0.792638 0.252041
vt 0.786357 0.239035
vt 0.792578 0.249274
vt 0.791489 0.249454
vt 0.271776 0.541127
vt 0.760733 0.199751
vt 0.757502 0.209505
vt 0.750621 0.206121
vt 0.278108 0.542645
vt 0.273009 0.544115
vt 0.772804 0.201934
vt 0.766718 0.213101
vt 0.766203 0.208706
vt 0.264007 0.548518
vt 0.277612 0.547903
vt 0.268747 0.555467
vt 0.275021 0.546378
vt 0.280714 0.548498
vt 0.281954 0.545638
vt 0.276612 0.557409
vt 0.240880 0.530957
vt 0.248168 0.561486
vt 0.249693 0.550306
vt 0.246843 0.539760
vt 0.242415 0.571620
vt 0.762287 0.211045
vt 0.762255 0.210544
vt 0.761023 0.221925
vt 0.757316 0.212491
vt 0.750922 0.216572
vt 0.772804 0.220841
vt 0.791613 0.252007
vt 0.791097 0.255536
vt 0.780068 0.250772
vt 0.780487 0.263708
vt 0.804698 0.264828
vt 0.798786 0.238814
vt 0.221949 0.571626
vt 0.283377 0.553479
vn -0.0159 -0.9600 0.2795
vn -0.4446 0.0325 0.8951
vn -0.3319 0.8221 0.4627
vn -0.3526 -0.4349 0.8286
vn -0.4375 0.4665 0.7688
vn -0.7444 0.6513 -0.1474
vn -0.7652 -0.6056 0.2185
vn -0.9690 0.2464 -0.0173
vn 0.0159 0.9600 -0.2795
vn -0.9762 -0.1876 0.1090
vn -0.4229 -0.7992 -0.4271
vn 0.3499 -0.5985 -0.7207
vn -0.5351 -0.4370 -0.7229
vn 0.0762 0.9791 -0.1884
vn 0.3319 -0.8221 -0.4627
vn 0.8137 0.5700 0.1138
vn 0.4375 -0.4665 -0.7688
vn 0.2513 -0.9291 -0.2714
vn 0.7444 -0.6513 0.1474
vn 0.9762 0.1876 -0.1090
vn 0.9690 -0.2465 0.0173
vn 0.7651 0.6057 -0.2185
vn 0.4021 -0.4577 0.7930
vn 0.5351 0.4370 0.7229
vn 0.5280 0.0031 0.8493
vn 0.4229 0.7993 0.4270
vn 0.4158 -0.5884 -0.6935
vn 0.0942 0.9011 -0.4233
vn -0.6440 0.3413 -0.6847
vn -0.0925 0.9934 -0.0678
vn 0.9986 0.0510 -0.0117
vn -0.5226 -0.0033 -0.8526
vn -0.5081 -0.5846 -0.6325
vn -0.1376 0.8583 -0.4943
vn -0.9684 0.2360 -0.0804
vn -0.4057 -0.8263 -0.3908
vn 0.5939 0.3612 -0.7189
vn -0.6855 0.7029 0.1899
vn -0.3527 -0.4349 0.8286
vn -0.7651 -0.6057 0.2185
vn -0.9690 0.2465 -0.0173
vn -0.4229 -0.7993 -0.4270
vn 0.3519 -0.0306 -0.9355
vn 0.8465 0.5302 0.0488
vn 0.0159 0.9600 -0.2794
vn 0.9690 -0.2464 0.0173
vn 0.7651 0.6056 -0.2185
vn 0.5280 0.0030 0.8493
vn 0.4229 0.7992 0.4271
vn 0.4158 -0.5883 -0.6935
vn -0.6835 0.3803 -0.6231
vn -0.0925 0.9934 -0.0679
vn 0.9756 0.1867 -0.1153
vn -0.5898 -0.1503 -0.7934
vn -0.5081 -0.5845 -0.6326
vn -0.1376 0.8584 -0.4943
vn -0.9580 -0.2719 0.0907
vn -0.4056 -0.8263 -0.3908
vn 0.6319 0.4826 -0.6064
vn -0.7660 0.6262 0.1451
s off
f 59/66/55 69/67/55 47/68/55
f 45/69/56 51/70/56 46/71/56
f 43/72/57 49/73/57 44/74/57
f 47/75/58 51/70/58 52/76/58
f 44/74/59 50/77/59 45/69/59
f 48/78/60 71/79/60 49/80/60
f 51/81/61 55/82/61 52/83/61
f 49/80/62 53/84/62 50/85/62
f 43/86/63 70/87/63 48/78/63
f 50/85/64 54/88/64 51/81/64
f 55/82/65 58/89/65 59/66/65
f 72/90/66 84/91/66 80/92/66
f 53/84/67 58/89/67 54/88/67
f 70/93/68 83/94/68 81/95/68
f 58/89/69 64/96/69 59/66/69
f 61/97/70 77/98/70 60/99/70
f 57/100/71 63/101/71 58/89/71
f 62/102/72 76/103/72 78/104/72
f 64/96/73 68/105/73 69/67/73
f 61/106/74 67/107/74 62/108/74
f 43/86/63 60/109/63 56/110/63
f 62/108/75 68/105/75 63/101/75
f 60/109/76 66/111/76 61/106/76
f 69/112/77 46/71/77 47/75/77
f 66/113/78 45/69/78 67/114/78
f 67/114/79 46/71/79 68/115/79
f 65/116/80 44/74/80 66/113/80
f 55/82/55 47/68/55 52/83/55
f 73/117/81 78/104/81 76/103/81
f 73/117/82 77/98/82 74/118/82
f 72/119/83 75/120/83 73/117/83
f 60/99/84 75/120/84 56/121/84
f 61/97/85 78/104/85 74/118/85
f 72/119/86 76/103/86 57/122/86
f 79/123/87 84/91/87 82/124/87
f 79/123/88 83/94/88 80/92/88
f 71/125/89 82/124/89 53/126/89
f 53/126/90 84/91/90 57/127/90
f 72/90/91 83/94/91 56/128/91
f 71/125/92 81/95/92 79/123/92
f 59/66/55 64/96/55 69/67/55
f 45/69/56 50/77/56 51/70/56
f 43/72/57 48/129/57 49/73/57
f 47/75/93 46/71/93 51/70/93
f 44/74/59 49/73/59 50/77/59
f 48/78/60 70/87/60 71/79/60
f 51/81/94 54/88/94 55/82/94
f 49/80/95 71/79/95 53/84/95
f 43/86/63 56/110/63 70/87/63
f 50/85/64 53/84/64 54/88/64
f 55/82/96 54/88/96 58/89/96
f 72/90/97 57/127/97 84/91/97
f 53/84/67 57/100/67 58/89/67
f 70/93/68 56/128/68 83/94/68
f 58/89/69 63/101/69 64/96/69
f 61/97/98 74/118/98 77/98/98
f 57/100/71 62/108/71 63/101/71
f 62/102/72 57/122/72 76/103/72
f 64/96/73 63/101/73 68/105/73
f 61/106/74 66/111/74 67/107/74
f 43/86/99 65/130/99 60/109/99
f 62/108/100 67/107/100 68/105/100
f 60/109/101 65/130/101 66/111/101
f 69/112/77 68/115/77 46/71/77
f 66/113/78 44/74/78 45/69/78
f 67/114/102 45/69/102 46/71/102
f 65/116/103 43/72/103 44/74/103
f 55/82/55 59/66/55 47/68/55
f 73/117/104 74/118/104 78/104/104
f 73/117/82 75/120/82 77/98/82
f 72/119/105 56/121/105 75/120/105
f 60/99/106 77/98/106 75/120/106
f 61/97/107 62/102/107 78/104/107
f 72/119/108 73/117/108 76/103/108
f 79/123/109 80/92/109 84/91/109
f 79/123/110 81/95/110 83/94/110
f 71/125/111 79/123/111 82/124/111
f 53/126/112 82/124/112 84/91/112
f 72/90/113 80/92/113 83/94/113
f 71/125/114 70/93/114 81/95/114
v 0.590446 4.458393 0.535455
v 0.583516 4.439265 0.555646
v 0.580415 4.412027 0.564017
v 0.581973 4.383977 0.558325
v 0.587774 4.362632 0.540095
v 0.572039 4.457904 0.514778
v 0.551634 4.438419 0.519834
v 0.543601 4.411050 0.522665
v 0.550092 4.383132 0.522513
v 0.569367 4.362144 0.519419
v 0.560991 4.408021 0.470180
v 0.565152 4.380508 0.477060
v 0.578063 4.360630 0.493176
v 0.607836 4.455364 0.482970
v 0.615196 4.405969 0.459048
v 0.612095 4.378731 0.467419
v 0.605165 4.359603 0.487610
v 0.626243 4.455852 0.503646
v 0.645519 4.434865 0.500552
v 0.652010 4.406946 0.500400
v 0.643976 4.379577 0.503232
v 0.623572 4.360092 0.508287
v 0.617548 4.457366 0.529889
v 0.630458 4.437488 0.546005
v 0.634619 4.409975 0.552885
v 0.628916 4.382200 0.548685
v 0.614876 4.361606 0.534529
v 0.580734 4.456390 0.488536
v 0.566695 4.435796 0.474381
v 0.613637 4.434019 0.464740
v 0.659206 4.451938 0.453237
v 0.661808 4.452007 0.456159
v 0.629831 4.459910 0.472643
v 0.643300 4.420801 0.456520
v 0.638943 4.460151 0.482878
v 0.657433 4.421176 0.472395
v 0.576980 4.452956 0.430258
v 0.588091 4.452536 0.427977
v 0.583287 4.458781 0.446877
v 0.580360 4.432165 0.439656
v 0.588379 4.458588 0.445831
v 0.585467 4.431971 0.438608
vt 0.274240 0.539347
vt 0.265397 0.539709
vt 0.266768 0.532487
vt 0.231414 0.551290
vt 0.214659 0.541092
vt 0.231357 0.542861
vt 0.231940 0.569242
vt 0.215985 0.562822
vt 0.231472 0.559719
vt 0.230890 0.533338
vt 0.220414 0.530957
vt 0.213134 0.552274
vt 0.289666 0.544440
vt 0.282983 0.540904
vt 0.290637 0.536818
vt 0.279682 0.529141
vt 0.275518 0.536619
vt 0.273707 0.532162
vt 0.280945 0.538772
vt 0.286431 0.530872
vt 0.290637 0.551375
vt 0.284312 0.543753
vt 0.278488 0.537315
vt 0.276318 0.541045
vt 0.804698 0.251197
vt 0.792375 0.255919
vt 0.792638 0.252041
vt 0.786357 0.239035
vt 0.792578 0.249274
vt 0.791489 0.249454
vt 0.271776 0.541127
vt 0.760733 0.199751
vt 0.757502 0.209505
vt 0.750621 0.206121
vt 0.278108 0.542645
vt 0.273009 0.544115
vt 0.772804 0.201934
vt 0.766718 0.213101
vt 0.766203 0.208706
vt 0.264007 0.548518
vt 0.277612 0.547903
vt 0.268747 0.555467
vt 0.275021 0.546378
vt 0.280714 0.548498
vt 0.281954 0.545638
vt 0.276612 0.557409
vt 0.240880 0.530957
vt 0.248168 0.561486
vt 0.249693 0.550306
vt 0.246843 0.539760
vt 0.242415 0.571620
vt 0.762287 0.211045
vt 0.762255 0.210544
vt 0.761023 0.221925
vt 0.757316 0.212491
vt 0.750922 0.216572
vt 0.772804 0.220841
vt 0.791613 0.252007
vt 0.791097 0.255536
vt 0.780068 0.250772
vt 0.780487 0.263708
vt 0.804698 0.264828
vt 0.798786 0.238814
vt 0.221949 0.571626
vt 0.283377 0.553479
vn -0.0279 -0.9984 0.0484
vn -0.7335 -0.1741 0.6571
vn -0.5460 0.6937 0.4697
vn -0.5825 -0.6136 0.5331
vn -0.7208 0.2773 0.6352
vn -0.6991 0.6621 -0.2699
vn -0.7356 -0.6452 -0.2065
vn -0.9181 0.2366 -0.3179
vn 0.0279 0.9984 -0.0484
vn -0.9307 -0.2148 -0.2960
vn -0.1713 -0.6852 -0.7079
vn 0.6341 -0.4174 -0.6509
vn -0.2036 -0.2664 -0.9421
vn 0.0501 0.9969 0.0603
vn 0.5460 -0.6937 -0.4697
vn 0.6665 0.5357 0.5184
vn 0.7209 -0.2773 -0.6352
vn 0.4129 -0.8418 -0.3477
vn 0.6991 -0.6621 0.2699
vn 0.9307 0.2148 0.2960
vn 0.9181 -0.2366 0.3179
vn 0.7356 0.6452 0.2065
vn 0.1348 -0.6221 0.7713
vn 0.2036 0.2664 0.9421
vn 0.1910 -0.1850 0.9640
vn 0.1713 0.6852 0.7079
vn 0.6850 -0.4132 -0.6000
vn 0.1569 0.9741 -0.1628
vn -0.3879 0.4824 -0.7854
vn -0.1509 0.9823 0.1111
vn 0.9294 0.0599 0.3641
vn -0.1848 0.1856 -0.9651
vn -0.1972 -0.4302 -0.8809
vn -0.0300 0.9468 -0.3205
vn -0.8943 0.2407 -0.3771
vn -0.1657 -0.7196 -0.6743
vn 0.7749 0.5189 -0.3609
vn -0.7682 0.6365 0.0685
vn -0.7209 0.2773 0.6352
vn 0.6612 0.1843 -0.7272
vn 0.7235 0.5119 0.4631
vn 0.4130 -0.8418 -0.3477
vn 0.6850 -0.4132 -0.6001
vn 0.1569 0.9741 -0.1626
vn -0.4500 0.5061 -0.7358
vn -0.1508 0.9823 0.1111
vn 0.9325 0.2152 0.2900
vn -0.2552 0.0285 -0.9665
vn -0.8998 -0.2926 -0.3236
vn -0.1658 -0.7196 -0.6744
vn 0.7598 0.6120 -0.2197
vn -0.8205 0.5714 -0.0175
s off
f 101/131/115 111/132/115 89/133/115
f 87/134/116 93/135/116 88/136/116
f 85/137/117 91/138/117 86/139/117
f 89/140/118 93/135/118 94/141/118
f 86/139/119 92/142/119 87/134/119
f 90/143/120 113/144/120 91/145/120
f 93/146/121 97/147/121 94/148/121
f 91/145/122 95/149/122 92/150/122
f 85/151/123 112/152/123 90/143/123
f 92/150/124 96/153/124 93/146/124
f 97/147/125 100/154/125 101/131/125
f 114/155/126 126/156/126 122/157/126
f 95/149/127 100/154/127 96/153/127
f 112/158/128 125/159/128 123/160/128
f 100/154/129 106/161/129 101/131/129
f 103/162/130 119/163/130 102/164/130
f 99/165/131 105/166/131 100/154/131
f 104/167/132 118/168/132 120/169/132
f 106/161/133 110/170/133 111/132/133
f 103/171/134 109/172/134 104/173/134
f 85/151/123 102/174/123 98/175/123
f 104/173/135 110/170/135 105/166/135
f 102/174/136 108/176/136 103/171/136
f 111/177/137 88/136/137 89/140/137
f 108/178/138 87/134/138 109/179/138
f 109/179/139 88/136/139 110/180/139
f 107/181/140 86/139/140 108/178/140
f 97/147/115 89/133/115 94/148/115
f 115/182/141 120/169/141 118/168/141
f 115/182/142 119/163/142 116/183/142
f 114/184/143 117/185/143 115/182/143
f 102/164/144 117/185/144 98/186/144
f 103/162/145 120/169/145 116/183/145
f 114/184/146 118/168/146 99/187/146
f 121/188/147 126/156/147 124/189/147
f 121/188/148 125/159/148 122/157/148
f 113/190/149 124/189/149 95/191/149
f 95/191/150 126/156/150 99/192/150
f 114/155/151 125/159/151 98/193/151
f 113/190/152 123/160/152 121/188/152
f 101/131/115 106/161/115 111/132/115
f 87/134/116 92/142/116 93/135/116
f 85/137/117 90/194/117 91/138/117
f 89/140/118 88/136/118 93/135/118
f 86/139/153 91/138/153 92/142/153
f 90/143/120 112/152/120 113/144/120
f 93/146/121 96/153/121 97/147/121
f 91/145/122 113/144/122 95/149/122
f 85/151/123 98/175/123 112/152/123
f 92/150/124 95/149/124 96/153/124
f 97/147/125 96/153/125 100/154/125
f 114/155/154 99/192/154 126/156/154
f 95/149/127 99/165/127 100/154/127
f 112/158/128 98/193/128 125/159/128
f 100/154/129 105/166/129 106/161/129
f 103/162/155 116/183/155 119/163/155
f 99/165/131 104/173/131 105/166/131
f 104/167/156 99/187/156 118/168/156
f 106/161/133 105/166/133 110/170/133
f 103/171/134 108/176/134 109/172/134
f 85/151/123 107/195/123 102/174/123
f 104/173/135 109/172/135 110/170/135
f 102/174/136 107/195/136 108/176/136
f 111/177/137 110/180/137 88/136/137
f 108/178/138 86/139/138 87/134/138
f 109/179/139 87/134/139 88/136/139
f 107/181/140 85/137/140 86/139/140
f 97/147/115 101/131/115 89/133/115
f 115/182/157 116/183/157 120/169/157
f 115/182/158 117/185/158 119/163/158
f 114/184/159 98/186/159 117/185/159
f 102/164/160 119/163/160 117/185/160
f 103/162/161 104/167/161 120/169/161
f 114/184/162 115/182/162 118/168/162
f 121/188/147 122/157/147 126/156/147
f 121/188/148 123/160/148 125/159/148
f 113/190/163 121/188/163 124/189/163
f 95/191/164 124/189/164 126/156/164
f 114/155/165 122/157/165 125/159/165
f 113/190/166 112/158/166 123/160/166
