# Blender v2.81 (sub 16) OBJ File: 'garbage.blend'
# www.blender.org
v -0.870039 2.974626 3.549846
v -0.883781 2.949496 3.550964
v -0.883363 2.921139 3.555120
v -0.868898 2.897152 3.561201
v -0.844260 2.883963 3.567577
v -0.852686 2.975343 3.528283
v -0.853725 2.950738 3.513617
v -0.848658 2.922572 3.511995
v -0.838842 2.898393 3.523854
v -0.826908 2.884680 3.546015
v -0.796231 2.938884 3.519178
v -0.793439 2.912519 3.530074
v -0.800694 2.892835 3.549606
v -0.817612 2.990937 3.557029
v -0.778509 2.953762 3.569485
v -0.778091 2.925404 3.573642
v -0.791833 2.900274 3.574760
v -0.834964 2.990221 3.578591
v -0.823030 2.976507 3.600752
v -0.813214 2.952328 3.612610
v -0.808147 2.924162 3.610989
v -0.809186 2.899557 3.596322
v -0.861178 2.982065 3.575000
v -0.868433 2.962381 3.594532
v -0.865641 2.936017 3.605428
v -0.853550 2.910036 3.604769
v -0.835399 2.891402 3.592731
v -0.826473 2.983499 3.531875
v -0.808322 2.964864 3.519837
v -0.792974 2.977748 3.563405
v -0.782310 3.009051 3.601304
v -0.784762 3.008950 3.604351
v -0.806669 3.003587 3.575232
v -0.777427 2.975286 3.592975
v -0.815259 3.003232 3.585905
v -0.790750 2.974736 3.609530
v -0.771046 2.995736 3.517721
v -0.767413 2.998785 3.528033
v -0.787755 2.998053 3.525803
v -0.772855 2.974692 3.526993
v -0.786090 2.999450 3.530529
v -0.771185 2.976094 3.531732
vt 0.274240 0.539347
vt 0.265397 0.539709
vt 0.266768 0.532487
vt 0.231414 0.551290
vt 0.214659 0.541092
vt 0.231357 0.542861
vt 0.231940 0.569242
vt 0.215985 0.562822
vt 0.231472 0.559719
vt 0.230890 0.533338
vt 0.220414 0.530957
vt 0.213134 0.552274
vt 0.289666 0.544440
vt 0.282983 0.540904
vt 0.290637 0.536818
vt 0.279682 0.529141
vt 0.275518 0.536619
vt 0.273707 0.532162
vt 0.280945 0.538772
vt 0.286431 0.530872
vt 0.290637 0.551375
vt 0.284312 0.543753
vt 0.278488 0.537315
vt 0.276318 0.541045
vt 0.804698 0.251197
vt 0.792375 0.255919
vt 0.792638 0.252041
vt 0.786357 0.239035
vt 0.792578 0.249274
vt 0.791489 0.249454
vt 0.271776 0.541127
vt 0.760733 0.199751
vt 0.757502 0.209505
vt 0.750621 0.206121
vt 0.278108 0.542645
vt 0.273009 0.544115
vt 0.772804 0.201934
vt 0.766718 0.213101
vt 0.766203 0.208706
vt 0.264007 0.548518
vt 0.277612 0.547903
vt 0.268747 0.555467
vt 0.275021 0.546378
vt 0.280714 0.548498
vt 0.281954 0.545638
vt 0.276612 0.557409
vt 0.240880 0.530957
vt 0.248168 0.561486
vt 0.249693 0.550306
vt 0.246843 0.539760
vt 0.242415 0.571620
vt 0.762287 0.211045
vt 0.762255 0.210544
vt 0.761023 0.221925
vt 0.757316 0.212491
vt 0.750922 0.216572
vt 0.772804 0.220841
vt 0.791613 0.252007
vt 0.791097 0.255536
vt 0.780068 0.250772
vt 0.780487 0.263708
vt 0.804698 0.264828
vt 0.798786 0.238814
vt 0.221949 0.571626
vt 0.283377 0.553479
vn 0.2688 -0.9453 0.1849
vn -0.6517 -0.5305 -0.5421
vn -0.7288 0.3730 -0.5741
vn -0.3769 -0.8647 -0.3321
vn -0.7732 -0.1031 -0.6257
vn -0.0421 0.5129 -0.8574
vn 0.3098 -0.7248 -0.6153
vn 0.1117 0.0771 -0.9907
vn -0.2688 0.9453 -0.1849
vn 0.2332 -0.3502 -0.9072
vn 0.8627 -0.4790 -0.1623
vn 0.8220 -0.0441 0.5678
vn 0.9457 -0.0334 -0.3233
vn -0.3678 0.9190 -0.1423
vn 0.7288 -0.3730 0.5741
vn -0.5767 0.5184 0.6314
vn 0.7732 0.1031 0.6257
vn 0.6450 -0.5779 0.4999
vn 0.0421 -0.5129 0.8574
vn -0.2332 0.3502 0.9072
vn -0.1117 -0.0771 0.9907
vn -0.3098 0.7248 0.6154
vn -0.5108 -0.7587 0.4043
vn -0.9457 0.0335 0.3233
vn -0.8242 -0.3939 0.4068
vn -0.8627 0.4790 0.1623
vn 0.7791 -0.0417 0.6256
vn -0.1379 0.9874 -0.0782
vn 0.5377 0.5696 -0.6217
vn -0.4353 0.8406 -0.3224
vn -0.2482 0.1873 0.9504
vn 0.8258 0.3963 -0.4012
vn 0.9411 -0.2008 -0.2721
vn -0.0036 0.9593 -0.2824
vn 0.1690 0.1035 -0.9802
vn 0.8428 -0.5188 -0.1434
vn 0.2687 0.7771 0.5692
vn -0.3605 0.3768 -0.8533
vn 0.3098 -0.7248 -0.6154
vn 0.7056 0.5414 0.4572
vn 0.9457 -0.0335 -0.3233
vn -0.3677 0.9190 -0.1422
vn -0.5101 0.5263 0.6803
vn 0.6451 -0.5779 0.4999
vn -0.2688 0.9453 -0.1848
vn -0.9457 0.0334 0.3233
vn -0.8627 0.4790 0.1622
vn 0.7790 -0.0417 0.6256
vn -0.1379 0.9874 -0.0781
vn 0.4759 0.5619 -0.6766
vn -0.4353 0.8405 -0.3224
vn -0.2275 0.3528 0.9076
vn 0.8685 0.2334 -0.4372
vn 0.9411 -0.2008 -0.2722
vn 0.2877 -0.4067 -0.8671
vn 0.1044 0.8198 0.5630
vn -0.2653 0.3274 -0.9069
s off
f 17/1/1 27/2/1 5/3/1
f 3/4/2 9/5/2 4/6/2
f 1/7/3 7/8/3 2/9/3
f 5/10/4 9/5/4 10/11/4
f 2/9/5 8/12/5 3/4/5
f 6/13/6 29/14/6 7/15/6
f 9/16/7 13/17/7 10/18/7
f 7/15/8 11/19/8 8/20/8
f 1/21/9 28/22/9 6/13/9
f 8/20/10 12/23/10 9/16/10
f 13/17/11 16/24/11 17/1/11
f 30/25/12 42/26/12 38/27/12
f 11/19/13 16/24/13 12/23/13
f 28/28/14 41/29/14 39/30/14
f 16/24/15 22/31/15 17/1/15
f 19/32/16 35/33/16 18/34/16
f 15/35/17 21/36/17 16/24/17
f 20/37/18 34/38/18 36/39/18
f 22/31/19 26/40/19 27/2/19
f 19/41/20 25/42/20 20/43/20
f 1/21/9 18/44/9 14/45/9
f 20/43/21 26/40/21 21/36/21
f 18/44/22 24/46/22 19/41/22
f 27/47/23 4/6/23 5/10/23
f 24/48/24 3/4/24 25/49/24
f 25/49/25 4/6/25 26/50/25
f 23/51/26 2/9/26 24/48/26
f 13/17/1 5/3/1 10/18/1
f 31/52/27 36/39/27 34/38/27
f 31/52/28 35/33/28 32/53/28
f 30/54/29 33/55/29 31/52/29
f 18/34/30 33/55/30 14/56/30
f 19/32/31 36/39/31 32/53/31
f 30/54/32 34/38/32 15/57/32
f 37/58/33 42/26/33 40/59/33
f 37/58/34 41/29/34 38/27/34
f 29/60/35 40/59/35 11/61/35
f 11/61/36 42/26/36 15/62/36
f 30/25/37 41/29/37 14/63/37
f 29/60/38 39/30/38 37/58/38
f 17/1/1 22/31/1 27/2/1
f 3/4/2 8/12/2 9/5/2
f 1/7/3 6/64/3 7/8/3
f 5/10/4 4/6/4 9/5/4
f 2/9/5 7/8/5 8/12/5
f 6/13/6 28/22/6 29/14/6
f 9/16/39 12/23/39 13/17/39
f 7/15/8 29/14/8 11/19/8
f 1/21/9 14/45/9 28/22/9
f 8/20/10 11/19/10 12/23/10
f 13/17/11 12/23/11 16/24/11
f 30/25/40 15/62/40 42/26/40
f 11/19/41 15/35/41 16/24/41
f 28/28/42 14/63/42 41/29/42
f 16/24/15 21/36/15 22/31/15
f 19/32/43 32/53/43 35/33/43
f 15/35/17 20/43/17 21/36/17
f 20/37/44 15/57/44 34/38/44
f 22/31/19 21/36/19 26/40/19
f 19/41/20 24/46/20 25/42/20
f 1/21/45 23/65/45 18/44/45
f 20/43/21 25/42/21 26/40/21
f 18/44/22 23/65/22 24/46/22
f 27/47/23 26/50/23 4/6/23
f 24/48/46 2/9/46 3/4/46
f 25/49/25 3/4/25 4/6/25
f 23/51/47 1/7/47 2/9/47
f 13/17/1 17/1/1 5/3/1
f 31/52/48 32/53/48 36/39/48
f 31/52/49 33/55/49 35/33/49
f 30/54/50 14/56/50 33/55/50
f 18/34/51 35/33/51 33/55/51
f 19/32/52 20/37/52 36/39/52
f 30/54/53 31/52/53 34/38/53
f 37/58/54 38/27/54 42/26/54
f 37/58/34 39/30/34 41/29/34
f 29/60/55 37/58/55 40/59/55
f 11/61/36 40/59/36 42/26/36
f 30/25/56 38/27/56 41/29/56
f 29/60/57 28/28/57 39/30/57
v 4.190876 3.192154 -2.287963
v 4.195904 3.178075 -2.263507
v 4.197392 3.153466 -2.248886
v 4.194942 3.124921 -2.248018
v 4.189209 3.100088 -2.261135
v 4.164088 3.190648 -2.294795
v 4.149506 3.175467 -2.275340
v 4.143816 3.150455 -2.262550
v 4.148543 3.122313 -2.259851
v 4.162420 3.098582 -2.267967
v 4.129116 3.135764 -2.313876
v 4.135812 3.109590 -2.304301
v 4.155070 3.091237 -2.293630
v 4.176176 3.177464 -2.339289
v 4.167993 3.124085 -2.351538
v 4.169481 3.099476 -2.336917
v 4.174509 3.085397 -2.312461
v 4.202965 3.178969 -2.332457
v 4.216842 3.155239 -2.340573
v 4.221570 3.127097 -2.337874
v 4.215880 3.102084 -2.325084
v 4.201297 3.086903 -2.305629
v 4.210315 3.186315 -2.306794
v 4.229573 3.167961 -2.296123
v 4.236269 3.141787 -2.286548
v 4.228610 3.114806 -2.280634
v 4.208647 3.094248 -2.279966
v 4.156738 3.183303 -2.320458
v 4.136775 3.162745 -2.319790
v 4.170443 3.152631 -2.352406
v 4.202352 3.161566 -2.390248
v 4.206137 3.161779 -2.389282
v 4.188843 3.176937 -2.360510
v 4.190283 3.134084 -2.372016
v 4.202104 3.177683 -2.357129
v 4.210852 3.135241 -2.366771
v 4.121226 3.170205 -2.365062
v 4.129195 3.167811 -2.372782
v 4.135811 3.177914 -2.356246
v 4.128812 3.151133 -2.354538
v 4.139463 3.176817 -2.359784
v 4.132474 3.150033 -2.358087
vt 0.274240 0.539347
vt 0.265397 0.539709
vt 0.266768 0.532487
vt 0.231414 0.551290
vt 0.214659 0.541092
vt 0.231357 0.542861
vt 0.231940 0.569242
vt 0.215985 0.562822
vt 0.231472 0.559719
vt 0.230890 0.533338
vt 0.220414 0.530957
vt 0.213134 0.552274
vt 0.289666 0.544440
vt 0.282983 0.540904
vt 0.290637 0.536818
vt 0.279682 0.529141
vt 0.275518 0.536619
vt 0.273707 0.532162
vt 0.280945 0.538772
vt 0.286431 0.530872
vt 0.290637 0.551375
vt 0.284312 0.543753
vt 0.278488 0.537315
vt 0.276318 0.541045
vt 0.804698 0.251197
vt 0.792375 0.255919
vt 0.792638 0.252041
vt 0.786357 0.239035
vt 0.792578 0.249274
vt 0.791489 0.249454
vt 0.271776 0.541127
vt 0.760733 0.199751
vt 0.757502 0.209505
vt 0.750621 0.206121
vt 0.278108 0.542645
vt 0.273009 0.544115
vt 0.772804 0.201934
vt 0.766718 0.213101
vt 0.766203 0.208706
vt 0.264007 0.548518
vt 0.277612 0.547903
vt 0.268747 0.555467
vt 0.275021 0.546378
vt 0.280714 0.548498
vt 0.281954 0.545638
vt 0.276612 0.557409
vt 0.240880 0.530957
vt 0.248168 0.561486
vt 0.249693 0.550306
vt 0.246843 0.539760
vt 0.242415 0.571620
vt 0.762287 0.211045
vt 0.762255 0.210544
vt 0.761023 0.221925
vt 0.757316 0.212491
vt 0.750922 0.216572
vt 0.772804 0.220841
vt 0.791613 0.252007
vt 0.791097 0.255536
vt 0.780068 0.250772
vt 0.780487 0.263708
vt 0.804698 0.264828
vt 0.798786 0.238814
vt 0.221949 0.571626
vt 0.283377 0.553479
vn -0.0174 -0.9599 0.2797
vn -0.2495 0.0508 0.9670
vn -0.1792 0.8363 0.5182
vn -0.2019 -0.4206 0.8845
vn -0.2416 0.4848 0.8406
vn -0.7173 0.6967 0.0060
vn -0.7401 -0.5601 0.3723
vn -0.9351 0.3051 0.1805
vn 0.0174 0.9599 -0.2797
vn -0.9429 -0.1290 0.3070
vn -0.5495 -0.7680 -0.3291
vn 0.1578 -0.6117 -0.7752
vn -0.6974 -0.3968 -0.5969
vn 0.0961 0.9745 -0.2029
vn 0.1792 -0.8362 -0.5182
vn 0.8533 0.5184 -0.0568
vn 0.2416 -0.4848 -0.8406
vn 0.1330 -0.9400 -0.3142
vn 0.7173 -0.6967 -0.0060
vn 0.9429 0.1290 -0.3070
vn 0.9351 -0.3050 -0.1805
vn 0.7401 0.5601 -0.3723
vn 0.5268 -0.4889 0.6953
vn 0.6974 0.3968 0.5968
vn 0.6895 -0.0372 0.7233
vn 0.5495 0.7679 0.3291
vn 0.2284 -0.6059 -0.7621
vn 0.0608 0.8977 -0.4363
vn -0.7481 0.3864 -0.5395
vn -0.0432 0.9978 -0.0505
vn 0.9764 -0.0097 -0.2159
vn -0.6850 0.0367 -0.7277
vn -0.6616 -0.5464 -0.5135
vn -0.1827 0.8698 -0.4583
vn -0.9481 0.2951 0.1186
vn -0.5270 -0.7963 -0.2970
vn 0.4554 0.3313 -0.8263
vn -0.5877 0.7413 0.3240
vn -0.9351 0.3050 0.1805
vn -0.5495 -0.7679 -0.3291
vn 0.1507 -0.0430 -0.9876
vn -0.6974 -0.3968 -0.5968
vn 0.1792 -0.8363 -0.5182
vn 0.8695 0.4773 -0.1270
vn 0.9429 0.1289 -0.3070
vn 0.5268 -0.4889 0.6954
vn 0.5495 0.7680 0.3291
vn 0.2285 -0.6058 -0.7621
vn 0.0608 0.8977 -0.4364
vn -0.7717 0.4271 -0.4712
vn 0.9411 0.1280 -0.3130
vn -0.7476 -0.1066 -0.6555
vn -0.6616 -0.5465 -0.5135
vn -0.9342 -0.2140 0.2856
vn 0.5231 0.4491 -0.7243
vn -0.6802 0.6702 0.2968
s off
f 59/66/58 69/67/58 47/68/58
f 45/69/59 51/70/59 46/71/59
f 43/72/60 49/73/60 44/74/60
f 47/75/61 51/70/61 52/76/61
f 44/74/62 50/77/62 45/69/62
f 48/78/63 71/79/63 49/80/63
f 51/81/64 55/82/64 52/83/64
f 49/80/65 53/84/65 50/85/65
f 43/86/66 70/87/66 48/78/66
f 50/85/67 54/88/67 51/81/67
f 55/82/68 58/89/68 59/66/68
f 72/90/69 84/91/69 80/92/69
f 53/84/70 58/89/70 54/88/70
f 70/93/71 83/94/71 81/95/71
f 58/89/72 64/96/72 59/66/72
f 61/97/73 77/98/73 60/99/73
f 57/100/74 63/101/74 58/89/74
f 62/102/75 76/103/75 78/104/75
f 64/96/76 68/105/76 69/67/76
f 61/106/77 67/107/77 62/108/77
f 43/86/66 60/109/66 56/110/66
f 62/108/78 68/105/78 63/101/78
f 60/109/79 66/111/79 61/106/79
f 69/112/80 46/71/80 47/75/80
f 66/113/81 45/69/81 67/114/81
f 67/114/82 46/71/82 68/115/82
f 65/116/83 44/74/83 66/113/83
f 55/82/58 47/68/58 52/83/58
f 73/117/84 78/104/84 76/103/84
f 73/117/85 77/98/85 74/118/85
f 72/119/86 75/120/86 73/117/86
f 60/99/87 75/120/87 56/121/87
f 61/97/88 78/104/88 74/118/88
f 72/119/89 76/103/89 57/122/89
f 79/123/90 84/91/90 82/124/90
f 79/123/91 83/94/91 80/92/91
f 71/125/92 82/124/92 53/126/92
f 53/126/93 84/91/93 57/127/93
f 72/90/94 83/94/94 56/128/94
f 71/125/95 81/95/95 79/123/95
f 59/66/58 64/96/58 69/67/58
f 45/69/59 50/77/59 51/70/59
f 43/72/60 48/129/60 49/73/60
f 47/75/61 46/71/61 51/70/61
f 44/74/62 49/73/62 50/77/62
f 48/78/63 70/87/63 71/79/63
f 51/81/64 54/88/64 55/82/64
f 49/80/96 71/79/96 53/84/96
f 43/86/66 56/110/66 70/87/66
f 50/85/67 53/84/67 54/88/67
f 55/82/97 54/88/97 58/89/97
f 72/90/98 57/127/98 84/91/98
f 53/84/99 57/100/99 58/89/99
f 70/93/71 56/128/71 83/94/71
f 58/89/100 63/101/100 64/96/100
f 61/97/101 74/118/101 77/98/101
f 57/100/74 62/108/74 63/101/74
f 62/102/75 57/122/75 76/103/75
f 64/96/76 63/101/76 68/105/76
f 61/106/102 66/111/102 67/107/102
f 43/86/66 65/130/66 60/109/66
f 62/108/78 67/107/78 68/105/78
f 60/109/79 65/130/79 66/111/79
f 69/112/103 68/115/103 46/71/103
f 66/113/81 44/74/81 45/69/81
f 67/114/82 45/69/82 46/71/82
f 65/116/104 43/72/104 44/74/104
f 55/82/58 59/66/58 47/68/58
f 73/117/105 74/118/105 78/104/105
f 73/117/106 75/120/106 77/98/106
f 72/119/107 56/121/107 75/120/107
f 60/99/87 77/98/87 75/120/87
f 61/97/108 62/102/108 78/104/108
f 72/119/109 73/117/109 76/103/109
f 79/123/110 80/92/110 84/91/110
f 79/123/91 81/95/91 83/94/91
f 71/125/111 79/123/111 82/124/111
f 53/126/93 82/124/93 84/91/93
f 72/90/112 80/92/112 83/94/112
f 71/125/113 70/93/113 81/95/113
v 0.703956 4.433102 0.167672
v 0.697532 4.414516 0.188526
v 0.694228 4.387516 0.197564
v 0.694928 4.359337 0.192365
v 0.699445 4.337529 0.174320
v 0.684633 4.432635 0.147849
v 0.664063 4.413708 0.154192
v 0.655581 4.386583 0.157918
v 0.661459 4.358529 0.158030
v 0.680122 4.337062 0.154497
v 0.670527 4.382181 0.104782
v 0.674403 4.354716 0.112013
v 0.687595 4.334861 0.127929
v 0.718903 4.428700 0.114536
v 0.724120 4.378713 0.091291
v 0.720816 4.351713 0.100330
v 0.714392 4.333127 0.121184
v 0.738226 4.429167 0.134359
v 0.756889 4.407700 0.130826
v 0.762767 4.379646 0.130937
v 0.754285 4.352521 0.134664
v 0.733715 4.333593 0.141007
v 0.730753 4.431367 0.160927
v 0.743945 4.411512 0.176843
v 0.747821 4.384048 0.184074
v 0.741341 4.356333 0.180681
v 0.726242 4.335794 0.167575
v 0.692106 4.430434 0.121281
v 0.677007 4.409895 0.108174
v 0.723420 4.406892 0.096491
v 0.768800 4.423572 0.082620
v 0.771531 4.423637 0.085421
v 0.740504 4.432559 0.103152
v 0.752394 4.392864 0.087222
v 0.750069 4.432790 0.112965
v 0.767231 4.393223 0.102442
v 0.685665 4.425990 0.063307
v 0.696651 4.425279 0.060542
v 0.692835 4.431983 0.079510
v 0.689018 4.405308 0.072955
v 0.697870 4.431658 0.078243
v 0.694067 4.404982 0.071684
vt 0.274240 0.539347
vt 0.265397 0.539709
vt 0.266768 0.532487
vt 0.231414 0.551290
vt 0.214659 0.541092
vt 0.231357 0.542861
vt 0.231940 0.569242
vt 0.215985 0.562822
vt 0.231472 0.559719
vt 0.230890 0.533338
vt 0.220414 0.530957
vt 0.213134 0.552274
vt 0.289666 0.544440
vt 0.282983 0.540904
vt 0.290637 0.536818
vt 0.279682 0.529141
vt 0.275518 0.536619
vt 0.273707 0.532162
vt 0.280945 0.538772
vt 0.286431 0.530872
vt 0.290637 0.551375
vt 0.284312 0.543753
vt 0.278488 0.537315
vt 0.276318 0.541045
vt 0.804698 0.251197
vt 0.792375 0.255919
vt 0.792638 0.252041
vt 0.786357 0.239035
vt 0.792578 0.249274
vt 0.791489 0.249454
vt 0.271776 0.541127
vt 0.760733 0.199751
vt 0.757502 0.209505
vt 0.750621 0.206121
vt 0.278108 0.542645
vt 0.273009 0.544115
vt 0.772804 0.201934
vt 0.766718 0.213101
vt 0.766203 0.208706
vt 0.264007 0.548518
vt 0.277612 0.547903
vt 0.268747 0.555467
vt 0.275021 0.546378
vt 0.280714 0.548498
vt 0.281954 0.545638
vt 0.276612 0.557409
vt 0.240880 0.530957
vt 0.248168 0.561486
vt 0.249693 0.550306
vt 0.246843 0.539760
vt 0.242415 0.571620
vt 0.762287 0.211045
vt 0.762255 0.210544
vt 0.761023 0.221925
vt 0.757316 0.212491
vt 0.750922 0.216572
vt 0.772804 0.220841
vt 0.791613 0.252007
vt 0.791097 0.255536
vt 0.780068 0.250772
vt 0.780487 0.263708
vt 0.804698 0.264828
vt 0.798786 0.238814
vt 0.221949 0.571626
vt 0.283377 0.553479
vn -0.0470 -0.9965 0.0693
vn -0.7068 -0.1453 0.6924
vn -0.5094 0.7144 0.4797
vn -0.5710 -0.5903 0.5705
vn -0.6855 0.3052 0.6610
vn -0.6962 0.6723 -0.2515
vn -0.7578 -0.6324 -0.1608
vn -0.9262 0.2510 -0.2813
vn 0.0471 0.9965 -0.0693
vn -0.9475 -0.1995 -0.2500
vn -0.2176 -0.6944 -0.6859
vn 0.5952 -0.4436 -0.6701
vn -0.2513 -0.2794 -0.9267
vn 0.0741 0.9965 0.0383
vn 0.5094 -0.7144 -0.4798
vn 0.7004 0.5304 0.4776
vn 0.6855 -0.3052 -0.6610
vn 0.3788 -0.8571 -0.3491
vn 0.6962 -0.6723 0.2515
vn 0.9475 0.1995 0.2500
vn 0.0470 0.9965 -0.0693
vn 0.9262 -0.2510 0.2813
vn 0.7578 0.6324 0.1608
vn 0.1560 -0.6103 0.7767
vn 0.2514 0.2794 0.9267
vn 0.2301 -0.1711 0.9580
vn 0.2176 0.6944 0.6859
vn 0.6483 -0.4396 -0.6216
vn 0.1703 0.9671 -0.1888
vn -0.4124 0.4761 -0.7767
vn -0.1246 0.9873 0.0982
vn 0.9459 0.0460 0.3212
vn -0.2239 0.1715 -0.9594
vn -0.2457 -0.4422 -0.8626
vn -0.0241 0.9410 -0.3374
vn -0.9050 0.2534 -0.3416
vn -0.2112 -0.7283 -0.6519
vn 0.7689 0.4946 -0.4053
vn -0.7506 0.6546 0.0900
vn -0.0471 -0.9965 0.0693
vn -0.7067 -0.1453 0.6924
vn 0.6317 0.1558 -0.7594
vn -0.2514 -0.2794 -0.9267
vn 0.0741 0.9965 0.0382
vn 0.7544 0.5042 0.4203
vn 0.1560 -0.6103 0.7766
vn 0.2513 0.2794 0.9267
vn 0.6483 -0.4396 -0.6217
vn 0.1703 0.9672 -0.1887
vn -0.4717 0.5021 -0.7249
vn 0.9490 0.1998 0.2438
vn -0.2976 0.0160 -0.9545
vn -0.0241 0.9410 -0.3375
vn -0.9195 -0.2785 -0.2773
vn 0.7621 0.5906 -0.2654
vn -0.8080 0.5891 0.0077
s off
f 101/131/114 111/132/114 89/133/114
f 87/134/115 93/135/115 88/136/115
f 85/137/116 91/138/116 86/139/116
f 89/140/117 93/135/117 94/141/117
f 86/139/118 92/142/118 87/134/118
f 90/143/119 113/144/119 91/145/119
f 93/146/120 97/147/120 94/148/120
f 91/145/121 95/149/121 92/150/121
f 85/151/122 112/152/122 90/143/122
f 92/150/123 96/153/123 93/146/123
f 97/147/124 100/154/124 101/131/124
f 114/155/125 126/156/125 122/157/125
f 95/149/126 100/154/126 96/153/126
f 112/158/127 125/159/127 123/160/127
f 100/154/128 106/161/128 101/131/128
f 103/162/129 119/163/129 102/164/129
f 99/165/130 105/166/130 100/154/130
f 104/167/131 118/168/131 120/169/131
f 106/161/132 110/170/132 111/132/132
f 103/171/133 109/172/133 104/173/133
f 85/151/134 102/174/134 98/175/134
f 104/173/135 110/170/135 105/166/135
f 102/174/136 108/176/136 103/171/136
f 111/177/137 88/136/137 89/140/137
f 108/178/138 87/134/138 109/179/138
f 109/179/139 88/136/139 110/180/139
f 107/181/140 86/139/140 108/178/140
f 97/147/114 89/133/114 94/148/114
f 115/182/141 120/169/141 118/168/141
f 115/182/142 119/163/142 116/183/142
f 114/184/143 117/185/143 115/182/143
f 102/164/144 117/185/144 98/186/144
f 103/162/145 120/169/145 116/183/145
f 114/184/146 118/168/146 99/187/146
f 121/188/147 126/156/147 124/189/147
f 121/188/148 125/159/148 122/157/148
f 113/190/149 124/189/149 95/191/149
f 95/191/150 126/156/150 99/192/150
f 114/155/151 125/159/151 98/193/151
f 113/190/152 123/160/152 121/188/152
f 101/131/153 106/161/153 111/132/153
f 87/134/154 92/142/154 93/135/154
f 85/137/116 90/194/116 91/138/116
f 89/140/117 88/136/117 93/135/117
f 86/139/118 91/138/118 92/142/118
f 90/143/119 112/152/119 113/144/119
f 93/146/120 96/153/120 97/147/120
f 91/145/121 113/144/121 95/149/121
f 85/151/134 98/175/134 112/152/134
f 92/150/123 95/149/123 96/153/123
f 97/147/124 96/153/124 100/154/124
f 114/155/155 99/192/155 126/156/155
f 95/149/156 99/165/156 100/154/156
f 112/158/157 98/193/157 125/159/157
f 100/154/128 105/166/128 106/161/128
f 103/162/158 116/183/158 119/163/158
f 99/165/130 104/173/130 105/166/130
f 104/167/131 99/187/131 118/168/131
f 106/161/132 105/166/132 110/170/132
f 103/171/133 108/176/133 109/172/133
f 85/151/134 107/195/134 102/174/134
f 104/173/135 109/172/135 110/170/135
f 102/174/136 107/195/136 108/176/136
f 111/177/159 110/180/159 88/136/159
f 108/178/160 86/139/160 87/134/160
f 109/179/139 87/134/139 88/136/139
f 107/181/140 85/137/140 86/139/140
f 97/147/114 101/131/114 89/133/114
f 115/182/161 116/183/161 120/169/161
f 115/182/162 117/185/162 119/163/162
f 114/184/163 98/186/163 117/185/163
f 102/164/144 119/163/144 117/185/144
f 103/162/164 104/167/164 120/169/164
f 114/184/165 115/182/165 118/168/165
f 121/188/147 122/157/147 126/156/147
f 121/188/166 123/160/166 125/159/166
f 113/190/167 121/188/167 124/189/167
f 95/191/150 124/189/150 126/156/150
f 114/155/168 122/157/168 125/159/168
f 113/190/169 112/158/169 123/160/169
