# Blender v2.81 (sub 16) OBJ File: 'garbage.blend'
# www.blender.org
v -3.158245 2.465090 3.371767
v -3.157762 2.443155 3.353322
v -3.152970 2.415431 3.347841
v -3.145153 2.389348 3.356792
v -3.136405 2.371893 3.377778
v -3.132592 2.471625 3.379879
v -3.113331 2.454473 3.367372
v -3.101665 2.428501 3.364065
v -3.100721 2.400666 3.370843
v -3.110753 2.378428 3.385890
v -3.090375 2.434621 3.417929
v -3.090944 2.405966 3.417491
v -3.105108 2.381488 3.412822
v -3.146955 2.471210 3.425631
v -3.130390 2.427671 3.455569
v -3.125598 2.399948 3.450088
v -3.125115 2.378013 3.431642
v -3.172608 2.464675 3.417519
v -3.182639 2.442437 3.432566
v -3.181695 2.414602 3.439344
v -3.170030 2.388629 3.436037
v -3.150768 2.371478 3.423530
v -3.178253 2.461615 3.390587
v -3.192416 2.437137 3.385918
v -3.192985 2.408482 3.385480
v -3.179807 2.383329 3.389389
v -3.156413 2.368418 3.396598
v -3.126948 2.474684 3.406811
v -3.103553 2.459774 3.414020
v -3.138208 2.453755 3.446617
v -3.175290 2.467365 3.477756
v -3.178915 2.466442 3.476610
v -3.161616 2.474852 3.445198
v -3.156324 2.438726 3.470452
v -3.174314 2.471617 3.441182
v -3.176020 2.433709 3.464223
v -3.094886 2.484555 3.454736
v -3.103088 2.483131 3.462451
v -3.109561 2.485710 3.443197
v -3.097540 2.461955 3.450963
v -3.113321 2.485057 3.446733
v -3.101310 2.461300 3.454509
vt 0.274240 0.539347
vt 0.265397 0.539709
vt 0.266768 0.532487
vt 0.231414 0.551290
vt 0.214659 0.541092
vt 0.231357 0.542861
vt 0.231940 0.569242
vt 0.215985 0.562822
vt 0.231472 0.559719
vt 0.230890 0.533338
vt 0.220414 0.530957
vt 0.213134 0.552274
vt 0.289666 0.544440
vt 0.282983 0.540904
vt 0.290637 0.536818
vt 0.279682 0.529141
vt 0.275518 0.536619
vt 0.273707 0.532162
vt 0.280945 0.538772
vt 0.286431 0.530872
vt 0.290637 0.551375
vt 0.284312 0.543753
vt 0.278488 0.537315
vt 0.276318 0.541045
vt 0.804698 0.251197
vt 0.792375 0.255919
vt 0.792638 0.252041
vt 0.786357 0.239035
vt 0.792578 0.249274
vt 0.791489 0.249454
vt 0.271776 0.541127
vt 0.760733 0.199751
vt 0.757502 0.209505
vt 0.750621 0.206121
vt 0.278108 0.542645
vt 0.273009 0.544115
vt 0.772804 0.201934
vt 0.766718 0.213101
vt 0.766203 0.208706
vt 0.264007 0.548518
vt 0.277612 0.547903
vt 0.268747 0.555467
vt 0.275021 0.546378
vt 0.280714 0.548498
vt 0.281954 0.545638
vt 0.276612 0.557409
vt 0.240880 0.530957
vt 0.248168 0.561486
vt 0.249693 0.550306
vt 0.246843 0.539760
vt 0.242415 0.571620
vt 0.762287 0.211045
vt 0.762255 0.210544
vt 0.761023 0.221925
vt 0.757316 0.212491
vt 0.750922 0.216572
vt 0.772804 0.220841
vt 0.791613 0.252007
vt 0.791097 0.255536
vt 0.780068 0.250772
vt 0.780487 0.263708
vt 0.804698 0.264828
vt 0.798786 0.238814
vt 0.221949 0.571626
vt 0.283377 0.553479
vn 0.2277 -0.9717 0.0627
vn 0.3432 -0.2112 -0.9152
vn 0.0773 0.6427 -0.7622
vn 0.3755 -0.6296 -0.6802
vn 0.2403 0.2281 -0.9435
vn 0.5707 0.7939 -0.2098
vn 0.8688 -0.4784 -0.1278
vn 0.8760 0.4230 -0.2317
vn -0.2277 0.9717 -0.0627
vn 0.9790 -0.0164 -0.2033
vn 0.6424 -0.4849 0.5934
vn -0.1274 -0.3482 0.9287
vn 0.6872 -0.0247 0.7260
vn -0.2986 0.9436 -0.1432
vn -0.0773 -0.6427 0.7622
vn -0.9359 0.3141 -0.1596
vn -0.2403 -0.2281 0.9435
vn 0.0102 -0.7942 0.6076
vn -0.5707 -0.7939 0.2098
vn -0.9790 0.0163 0.2033
vn -0.8760 -0.4230 0.2317
vn -0.8688 0.4784 0.1278
vn -0.3443 -0.7874 -0.5114
vn -0.6872 0.0247 -0.7260
vn -0.5843 -0.4146 -0.6977
vn -0.6424 0.4849 -0.5934
vn -0.1959 -0.3622 0.9113
vn -0.2762 0.9555 0.1037
vn 0.5970 0.6899 0.4094
vn -0.1498 0.9458 -0.2882
vn -0.9754 -0.1480 0.1632
vn 0.5794 0.4145 0.7018
vn 0.6896 -0.1973 0.6968
vn -0.0358 0.9889 0.1445
vn 0.8835 0.4366 -0.1696
vn 0.6293 -0.5262 0.5719
vn -0.5997 0.4744 0.6445
vn 0.4718 0.7050 -0.5295
vn 0.8688 -0.4783 -0.1278
vn 0.9790 -0.0163 -0.2033
vn -0.2506 0.2462 0.9363
vn 0.6872 -0.0248 0.7260
vn -0.9520 0.2954 -0.0805
vn -0.8688 0.4783 0.1278
vn -0.5843 -0.4145 -0.6977
vn 0.6202 0.7105 0.3324
vn -0.9777 0.0178 0.2093
vn 0.6754 0.2725 0.6852
vn 0.6897 -0.1973 0.6967
vn -0.0358 0.9888 0.1446
vn 0.9839 -0.0897 -0.1548
vn 0.6294 -0.5262 0.5719
vn -0.6761 0.5357 0.5058
vn 0.5723 0.6679 -0.4758
s off
f 17/1/1 27/2/1 5/3/1
f 3/4/2 9/5/2 4/6/2
f 1/7/3 7/8/3 2/9/3
f 5/10/4 9/5/4 10/11/4
f 2/9/5 8/12/5 3/4/5
f 6/13/6 29/14/6 7/15/6
f 9/16/7 13/17/7 10/18/7
f 7/15/8 11/19/8 8/20/8
f 1/21/9 28/22/9 6/13/9
f 8/20/10 12/23/10 9/16/10
f 13/17/11 16/24/11 17/1/11
f 30/25/12 42/26/12 38/27/12
f 11/19/13 16/24/13 12/23/13
f 28/28/14 41/29/14 39/30/14
f 16/24/15 22/31/15 17/1/15
f 19/32/16 35/33/16 18/34/16
f 15/35/17 21/36/17 16/24/17
f 20/37/18 34/38/18 36/39/18
f 22/31/19 26/40/19 27/2/19
f 19/41/20 25/42/20 20/43/20
f 1/21/9 18/44/9 14/45/9
f 20/43/21 26/40/21 21/36/21
f 18/44/22 24/46/22 19/41/22
f 27/47/23 4/6/23 5/10/23
f 24/48/24 3/4/24 25/49/24
f 25/49/25 4/6/25 26/50/25
f 23/51/26 2/9/26 24/48/26
f 13/17/1 5/3/1 10/18/1
f 31/52/27 36/39/27 34/38/27
f 31/52/28 35/33/28 32/53/28
f 30/54/29 33/55/29 31/52/29
f 18/34/30 33/55/30 14/56/30
f 19/32/31 36/39/31 32/53/31
f 30/54/32 34/38/32 15/57/32
f 37/58/33 42/26/33 40/59/33
f 37/58/34 41/29/34 38/27/34
f 29/60/35 40/59/35 11/61/35
f 11/61/36 42/26/36 15/62/36
f 30/25/37 41/29/37 14/63/37
f 29/60/38 39/30/38 37/58/38
f 17/1/1 22/31/1 27/2/1
f 3/4/2 8/12/2 9/5/2
f 1/7/3 6/64/3 7/8/3
f 5/10/4 4/6/4 9/5/4
f 2/9/5 7/8/5 8/12/5
f 6/13/6 28/22/6 29/14/6
f 9/16/39 12/23/39 13/17/39
f 7/15/8 29/14/8 11/19/8
f 1/21/9 14/45/9 28/22/9
f 8/20/40 11/19/40 12/23/40
f 13/17/11 12/23/11 16/24/11
f 30/25/41 15/62/41 42/26/41
f 11/19/42 15/35/42 16/24/42
f 28/28/14 14/63/14 41/29/14
f 16/24/15 21/36/15 22/31/15
f 19/32/43 32/53/43 35/33/43
f 15/35/17 20/43/17 21/36/17
f 20/37/18 15/57/18 34/38/18
f 22/31/19 21/36/19 26/40/19
f 19/41/20 24/46/20 25/42/20
f 1/21/9 23/65/9 18/44/9
f 20/43/21 25/42/21 26/40/21
f 18/44/44 23/65/44 24/46/44
f 27/47/23 26/50/23 4/6/23
f 24/48/24 2/9/24 3/4/24
f 25/49/45 3/4/45 4/6/45
f 23/51/26 1/7/26 2/9/26
f 13/17/1 17/1/1 5/3/1
f 31/52/27 32/53/27 36/39/27
f 31/52/28 33/55/28 35/33/28
f 30/54/46 14/56/46 33/55/46
f 18/34/30 35/33/30 33/55/30
f 19/32/47 20/37/47 36/39/47
f 30/54/48 31/52/48 34/38/48
f 37/58/49 38/27/49 42/26/49
f 37/58/50 39/30/50 41/29/50
f 29/60/51 37/58/51 40/59/51
f 11/61/52 40/59/52 42/26/52
f 30/25/53 38/27/53 41/29/53
f 29/60/54 28/28/54 39/30/54
v 1.511294 3.769315 2.100572
v 1.494509 3.752620 2.116731
v 1.487037 3.726581 2.126100
v 1.490882 3.698177 2.126168
v 1.505012 3.675017 2.116919
v 1.506423 3.764975 2.073665
v 1.486072 3.745103 2.070126
v 1.477296 3.717902 2.072285
v 1.482446 3.690660 2.079564
v 1.500142 3.670677 2.090011
v 1.519528 3.709072 2.037576
v 1.519020 3.683013 2.049505
v 1.521258 3.666262 2.072656
v 1.553526 3.760485 2.065863
v 1.571501 3.708921 2.056681
v 1.564030 3.682883 2.066050
v 1.547244 3.666187 2.082209
v 1.558397 3.764825 2.092770
v 1.576093 3.744843 2.103218
v 1.581242 3.717601 2.110496
v 1.572466 3.690400 2.112655
v 1.552115 3.670527 2.109117
v 1.537281 3.769240 2.110125
v 1.539519 3.752490 2.133277
v 1.539010 3.726431 2.145205
v 1.535892 3.698047 2.142714
v 1.530999 3.674942 2.126471
v 1.527539 3.760560 2.056310
v 1.522646 3.737456 2.040067
v 1.567657 3.737326 2.056613
v 1.612796 3.756353 2.068033
v 1.613484 3.756966 2.071835
v 1.577744 3.764981 2.067947
v 1.597013 3.724997 2.067023
v 1.580155 3.767129 2.081266
v 1.600753 3.728329 2.087682
v 1.554781 3.749263 2.005789
v 1.565435 3.749232 2.009705
v 1.551554 3.757601 2.022218
v 1.552401 3.730137 2.018461
v 1.556437 3.757587 2.024013
v 1.557297 3.730123 2.020261
vt 0.274240 0.539347
vt 0.265397 0.539709
vt 0.266768 0.532487
vt 0.231414 0.551290
vt 0.214659 0.541092
vt 0.231357 0.542861
vt 0.231940 0.569242
vt 0.215985 0.562822
vt 0.231472 0.559719
vt 0.230890 0.533338
vt 0.220414 0.530957
vt 0.213134 0.552274
vt 0.289666 0.544440
vt 0.282983 0.540904
vt 0.290637 0.536818
vt 0.279682 0.529141
vt 0.275518 0.536619
vt 0.273707 0.532162
vt 0.280945 0.538772
vt 0.286431 0.530872
vt 0.290637 0.551375
vt 0.284312 0.543753
vt 0.278488 0.537315
vt 0.276318 0.541045
vt 0.804698 0.251197
vt 0.792375 0.255919
vt 0.792638 0.252041
vt 0.786357 0.239035
vt 0.792578 0.249274
vt 0.791489 0.249454
vt 0.271776 0.541127
vt 0.760733 0.199751
vt 0.757502 0.209505
vt 0.750621 0.206121
vt 0.278108 0.542645
vt 0.273009 0.544115
vt 0.772804 0.201934
vt 0.766718 0.213101
vt 0.766203 0.208706
vt 0.264007 0.548518
vt 0.277612 0.547903
vt 0.268747 0.555467
vt 0.275021 0.546378
vt 0.280714 0.548498
vt 0.281954 0.545638
vt 0.276612 0.557409
vt 0.240880 0.530957
vt 0.248168 0.561486
vt 0.249693 0.550306
vt 0.246843 0.539760
vt 0.242415 0.571620
vt 0.762287 0.211045
vt 0.762255 0.210544
vt 0.761023 0.221925
vt 0.757316 0.212491
vt 0.750922 0.216572
vt 0.772804 0.220841
vt 0.791613 0.252007
vt 0.791097 0.255536
vt 0.780068 0.250772
vt 0.780487 0.263708
vt 0.804698 0.264828
vt 0.798786 0.238814
vt 0.221949 0.571626
vt 0.283377 0.553479
vn -0.0655 -0.9832 0.1704
vn -0.9716 -0.1310 0.1970
vn -0.6996 0.7144 0.0114
vn -0.7854 -0.5729 0.2346
vn -0.9420 0.3135 0.1200
vn -0.4435 0.5764 -0.6863
vn -0.5293 -0.7109 -0.4631
vn -0.6120 0.1356 -0.7791
vn 0.0655 0.9832 -0.1704
vn -0.6416 -0.3089 -0.7021
vn 0.2132 -0.7817 -0.5861
vn 0.8740 -0.4595 -0.1580
vn 0.3152 -0.4001 -0.8606
vn 0.0276 0.9974 -0.0672
vn 0.6996 -0.7144 -0.0114
vn 0.3054 0.6394 0.7056
vn 0.9420 -0.3135 -0.1200
vn 0.5200 -0.8531 0.0435
vn 0.4435 -0.5764 0.6863
vn 0.6416 0.3089 0.7021
vn 0.6120 -0.1356 0.7791
vn 0.5293 0.7109 0.4632
vn -0.2990 -0.5056 0.8093
vn -0.3152 0.4001 0.8606
vn -0.3448 -0.0444 0.9376
vn -0.2132 0.7817 0.5861
vn 0.8908 -0.4455 -0.0894
vn 0.2348 0.9520 -0.1962
vn 0.0884 0.3500 -0.9326
vn -0.1705 0.9772 -0.1267
vn 0.6023 0.1645 0.7811
vn 0.3507 0.0452 -0.9354
vn 0.2859 -0.5538 -0.7820
vn 0.1578 0.8927 -0.4221
vn -0.5606 0.1333 -0.8173
vn 0.1998 -0.8109 -0.5500
vn 0.8576 0.5137 0.0241
vn -0.6799 0.5914 -0.4337
vn -0.9420 0.3134 0.1200
vn -0.5293 -0.7109 -0.4632
vn 0.2132 -0.7816 -0.5862
vn 0.9469 0.1275 -0.2951
vn 0.3825 0.6120 0.6922
vn 0.5199 -0.8531 0.0435
vn 0.5293 0.7109 0.4631
vn -0.2989 -0.5056 0.8093
vn 0.2348 0.9521 -0.1961
vn 0.0099 0.3761 -0.9265
vn 0.6463 0.3086 0.6979
vn 0.2888 -0.1148 -0.9505
vn 0.2859 -0.5538 -0.7821
vn 0.1577 0.8927 -0.4221
vn -0.6022 -0.3875 -0.6980
vn 0.7724 0.6234 0.1217
vn -0.6805 0.5124 -0.5238
s off
f 59/66/55 69/67/55 47/68/55
f 45/69/56 51/70/56 46/71/56
f 43/72/57 49/73/57 44/74/57
f 47/75/58 51/70/58 52/76/58
f 44/74/59 50/77/59 45/69/59
f 48/78/60 71/79/60 49/80/60
f 51/81/61 55/82/61 52/83/61
f 49/80/62 53/84/62 50/85/62
f 43/86/63 70/87/63 48/78/63
f 50/85/64 54/88/64 51/81/64
f 55/82/65 58/89/65 59/66/65
f 72/90/66 84/91/66 80/92/66
f 53/84/67 58/89/67 54/88/67
f 70/93/68 83/94/68 81/95/68
f 58/89/69 64/96/69 59/66/69
f 61/97/70 77/98/70 60/99/70
f 57/100/71 63/101/71 58/89/71
f 62/102/72 76/103/72 78/104/72
f 64/96/73 68/105/73 69/67/73
f 61/106/74 67/107/74 62/108/74
f 43/86/63 60/109/63 56/110/63
f 62/108/75 68/105/75 63/101/75
f 60/109/76 66/111/76 61/106/76
f 69/112/77 46/71/77 47/75/77
f 66/113/78 45/69/78 67/114/78
f 67/114/79 46/71/79 68/115/79
f 65/116/80 44/74/80 66/113/80
f 55/82/55 47/68/55 52/83/55
f 73/117/81 78/104/81 76/103/81
f 73/117/82 77/98/82 74/118/82
f 72/119/83 75/120/83 73/117/83
f 60/99/84 75/120/84 56/121/84
f 61/97/85 78/104/85 74/118/85
f 72/119/86 76/103/86 57/122/86
f 79/123/87 84/91/87 82/124/87
f 79/123/88 83/94/88 80/92/88
f 71/125/89 82/124/89 53/126/89
f 53/126/90 84/91/90 57/127/90
f 72/90/91 83/94/91 56/128/91
f 71/125/92 81/95/92 79/123/92
f 59/66/55 64/96/55 69/67/55
f 45/69/56 50/77/56 51/70/56
f 43/72/57 48/129/57 49/73/57
f 47/75/58 46/71/58 51/70/58
f 44/74/93 49/73/93 50/77/93
f 48/78/60 70/87/60 71/79/60
f 51/81/94 54/88/94 55/82/94
f 49/80/62 71/79/62 53/84/62
f 43/86/63 56/110/63 70/87/63
f 50/85/64 53/84/64 54/88/64
f 55/82/95 54/88/95 58/89/95
f 72/90/96 57/127/96 84/91/96
f 53/84/67 57/100/67 58/89/67
f 70/93/68 56/128/68 83/94/68
f 58/89/69 63/101/69 64/96/69
f 61/97/97 74/118/97 77/98/97
f 57/100/71 62/108/71 63/101/71
f 62/102/98 57/122/98 76/103/98
f 64/96/73 63/101/73 68/105/73
f 61/106/74 66/111/74 67/107/74
f 43/86/63 65/130/63 60/109/63
f 62/108/75 67/107/75 68/105/75
f 60/109/99 65/130/99 66/111/99
f 69/112/100 68/115/100 46/71/100
f 66/113/78 44/74/78 45/69/78
f 67/114/79 45/69/79 46/71/79
f 65/116/80 43/72/80 44/74/80
f 55/82/55 59/66/55 47/68/55
f 73/117/81 74/118/81 78/104/81
f 73/117/101 75/120/101 77/98/101
f 72/119/102 56/121/102 75/120/102
f 60/99/84 77/98/84 75/120/84
f 61/97/103 62/102/103 78/104/103
f 72/119/104 73/117/104 76/103/104
f 79/123/105 80/92/105 84/91/105
f 79/123/106 81/95/106 83/94/106
f 71/125/107 79/123/107 82/124/107
f 53/126/90 82/124/90 84/91/90
f 72/90/108 80/92/108 83/94/108
f 71/125/109 70/93/109 81/95/109
v -0.779415 4.329114 0.798530
v -0.788791 4.307033 0.782842
v -0.789840 4.278836 0.777802
v -0.782278 4.252077 0.784760
v -0.768134 4.233928 0.801851
v -0.752059 4.332255 0.795643
v -0.741409 4.312474 0.777842
v -0.735127 4.285119 0.772027
v -0.734896 4.257518 0.779759
v -0.740777 4.237069 0.798964
v -0.702996 4.290489 0.816805
v -0.707070 4.262169 0.818537
v -0.724712 4.239754 0.821353
v -0.747284 4.334484 0.843308
v -0.725578 4.289576 0.867357
v -0.726626 4.261379 0.862317
v -0.736003 4.239298 0.846629
v -0.774640 4.331343 0.846195
v -0.780521 4.310894 0.865400
v -0.780290 4.283293 0.873132
v -0.774008 4.255938 0.867317
v -0.763359 4.236156 0.849516
v -0.790705 4.328658 0.823806
v -0.808347 4.306243 0.826622
v -0.812421 4.277923 0.828354
v -0.801834 4.251287 0.828539
v -0.779424 4.233471 0.827127
v -0.735993 4.334940 0.818032
v -0.713583 4.317125 0.816620
v -0.733139 4.316335 0.860399
v -0.753164 4.335296 0.902464
v -0.757030 4.334852 0.902872
v -0.752563 4.340370 0.866729
v -0.742103 4.304253 0.890330
v -0.766104 4.338815 0.868159
v -0.763107 4.301841 0.892547
v -0.686794 4.341136 0.849068
v -0.691423 4.340949 0.859430
v -0.704570 4.344080 0.844047
v -0.693362 4.319044 0.848134
v -0.706691 4.343995 0.848796
v -0.695490 4.318958 0.852897
vt 0.274240 0.539347
vt 0.265397 0.539709
vt 0.266768 0.532487
vt 0.231414 0.551290
vt 0.214659 0.541092
vt 0.231357 0.542861
vt 0.231940 0.569242
vt 0.215985 0.562822
vt 0.231472 0.559719
vt 0.230890 0.533338
vt 0.220414 0.530957
vt 0.213134 0.552274
vt 0.289666 0.544440
vt 0.282983 0.540904
vt 0.290637 0.536818
vt 0.279682 0.529141
vt 0.275518 0.536619
vt 0.273707 0.532162
vt 0.280945 0.538772
vt 0.286431 0.530872
vt 0.290637 0.551375
vt 0.284312 0.543753
vt 0.278488 0.537315
vt 0.276318 0.541045
vt 0.804698 0.251197
vt 0.792375 0.255919
vt 0.792638 0.252041
vt 0.786357 0.239035
vt 0.792578 0.249274
vt 0.791489 0.249454
vt 0.271776 0.541127
vt 0.760733 0.199751
vt 0.757502 0.209505
vt 0.750621 0.206121
vt 0.278108 0.542645
vt 0.273009 0.544115
vt 0.772804 0.201934
vt 0.766718 0.213101
vt 0.766203 0.208706
vt 0.264007 0.548518
vt 0.277612 0.547903
vt 0.268747 0.555467
vt 0.275021 0.546378
vt 0.280714 0.548498
vt 0.281954 0.545638
vt 0.276612 0.557409
vt 0.240880 0.530957
vt 0.248168 0.561486
vt 0.249693 0.550306
vt 0.246843 0.539760
vt 0.242415 0.571620
vt 0.762287 0.211045
vt 0.762255 0.210544
vt 0.761023 0.221925
vt 0.757316 0.212491
vt 0.750922 0.216572
vt 0.772804 0.220841
vt 0.791613 0.252007
vt 0.791097 0.255536
vt 0.780068 0.250772
vt 0.780487 0.263708
vt 0.804698 0.264828
vt 0.798786 0.238814
vt 0.221949 0.571626
vt 0.283377 0.553479
vn 0.1176 -0.9925 0.0346
vn -0.0704 -0.2696 -0.9604
vn -0.1523 0.6146 -0.7740
vn 0.0017 -0.6848 -0.7287
vn -0.1236 0.1791 -0.9760
vn 0.5322 0.7064 -0.4666
vn 0.6862 -0.5930 -0.4213
vn 0.7585 0.2974 -0.5799
vn -0.1176 0.9925 -0.0347
vn 0.8116 -0.1513 -0.5642
vn 0.7615 -0.5579 0.3301
vn 0.2065 -0.3135 0.9268
vn 0.9086 -0.1060 0.4040
vn -0.2171 0.9729 -0.0796
vn 0.1523 -0.6146 0.7740
vn -0.8794 0.4349 0.1938
vn 0.1236 -0.1791 0.9760
vn 0.1536 -0.7788 0.6081
vn -0.5322 -0.7064 0.4666
vn -0.8116 0.1513 0.5642
vn -0.1176 0.9925 -0.0346
vn -0.7585 -0.2974 0.5799
vn -0.6862 0.5930 0.4213
vn -0.6075 -0.7416 -0.2847
vn -0.9086 0.1060 -0.4040
vn -0.8554 -0.3427 -0.3883
vn -0.7615 0.5579 -0.3301
vn 0.1176 -0.9925 0.0347
vn 0.1356 -0.3184 0.9382
vn -0.0986 0.9855 0.1382
vn 0.7866 0.6094 0.0998
vn -0.1380 0.9528 -0.2706
vn -0.8435 -0.0127 0.5369
vn 0.8526 0.3433 0.3939
vn 0.8790 -0.2777 0.3876
vn 0.1407 0.9868 0.0807
vn 0.7912 0.3108 -0.5266
vn 0.7362 -0.5974 0.3181
vn -0.2386 0.5607 0.7929
vn 0.3062 0.6267 -0.7166
vn 0.7584 0.2974 -0.5799
vn 0.8116 -0.1513 -0.5643
vn 0.1673 0.2921 0.9416
vn -0.2172 0.9729 -0.0794
vn -0.8653 0.4197 0.2741
vn 0.1536 -0.7789 0.6081
vn -0.8116 0.1513 0.5643
vn -0.7584 -0.2974 0.5799
vn -0.9086 0.1060 -0.4039
vn -0.0986 0.9855 0.1383
vn 0.7800 0.6255 0.0187
vn -0.1380 0.9528 -0.2705
vn -0.8079 0.1527 0.5692
vn 0.9170 0.1895 0.3511
vn 0.1407 0.9868 0.0805
vn 0.8264 -0.2239 -0.5166
vn -0.3555 0.6297 0.6908
vn 0.4146 0.5772 -0.7035
s off
f 101/131/110 111/132/110 89/133/110
f 87/134/111 93/135/111 88/136/111
f 85/137/112 91/138/112 86/139/112
f 89/140/113 93/135/113 94/141/113
f 86/139/114 92/142/114 87/134/114
f 90/143/115 113/144/115 91/145/115
f 93/146/116 97/147/116 94/148/116
f 91/145/117 95/149/117 92/150/117
f 85/151/118 112/152/118 90/143/118
f 92/150/119 96/153/119 93/146/119
f 97/147/120 100/154/120 101/131/120
f 114/155/121 126/156/121 122/157/121
f 95/149/122 100/154/122 96/153/122
f 112/158/123 125/159/123 123/160/123
f 100/154/124 106/161/124 101/131/124
f 103/162/125 119/163/125 102/164/125
f 99/165/126 105/166/126 100/154/126
f 104/167/127 118/168/127 120/169/127
f 106/161/128 110/170/128 111/132/128
f 103/171/129 109/172/129 104/173/129
f 85/151/130 102/174/130 98/175/130
f 104/173/131 110/170/131 105/166/131
f 102/174/132 108/176/132 103/171/132
f 111/177/133 88/136/133 89/140/133
f 108/178/134 87/134/134 109/179/134
f 109/179/135 88/136/135 110/180/135
f 107/181/136 86/139/136 108/178/136
f 97/147/137 89/133/137 94/148/137
f 115/182/138 120/169/138 118/168/138
f 115/182/139 119/163/139 116/183/139
f 114/184/140 117/185/140 115/182/140
f 102/164/141 117/185/141 98/186/141
f 103/162/142 120/169/142 116/183/142
f 114/184/143 118/168/143 99/187/143
f 121/188/144 126/156/144 124/189/144
f 121/188/145 125/159/145 122/157/145
f 113/190/146 124/189/146 95/191/146
f 95/191/147 126/156/147 99/192/147
f 114/155/148 125/159/148 98/193/148
f 113/190/149 123/160/149 121/188/149
f 101/131/137 106/161/137 111/132/137
f 87/134/111 92/142/111 93/135/111
f 85/137/112 90/194/112 91/138/112
f 89/140/113 88/136/113 93/135/113
f 86/139/114 91/138/114 92/142/114
f 90/143/115 112/152/115 113/144/115
f 93/146/116 96/153/116 97/147/116
f 91/145/150 113/144/150 95/149/150
f 85/151/130 98/175/130 112/152/130
f 92/150/151 95/149/151 96/153/151
f 97/147/120 96/153/120 100/154/120
f 114/155/152 99/192/152 126/156/152
f 95/149/122 99/165/122 100/154/122
f 112/158/153 98/193/153 125/159/153
f 100/154/124 105/166/124 106/161/124
f 103/162/154 116/183/154 119/163/154
f 99/165/126 104/173/126 105/166/126
f 104/167/155 99/187/155 118/168/155
f 106/161/128 105/166/128 110/170/128
f 103/171/156 108/176/156 109/172/156
f 85/151/130 107/195/130 102/174/130
f 104/173/157 109/172/157 110/170/157
f 102/174/132 107/195/132 108/176/132
f 111/177/133 110/180/133 88/136/133
f 108/178/158 86/139/158 87/134/158
f 109/179/135 87/134/135 88/136/135
f 107/181/136 85/137/136 86/139/136
f 97/147/110 101/131/110 89/133/110
f 115/182/138 116/183/138 120/169/138
f 115/182/159 117/185/159 119/163/159
f 114/184/160 98/186/160 117/185/160
f 102/164/161 119/163/161 117/185/161
f 103/162/162 104/167/162 120/169/162
f 114/184/163 115/182/163 118/168/163
f 121/188/144 122/157/144 126/156/144
f 121/188/164 123/160/164 125/159/164
f 113/190/165 121/188/165 124/189/165
f 95/191/147 124/189/147 126/156/147
f 114/155/166 122/157/166 125/159/166
f 113/190/167 112/158/167 123/160/167
