# Blender v2.81 (sub 16) OBJ File: 'garbage.blend'
# www.blender.org
v 0.722468 2.492729 0.678502
v 0.711754 2.474940 0.698260
v 0.707393 2.448313 0.707933
v 0.710553 2.419982 0.704931
v 0.720387 2.397540 0.690058
v 0.708823 2.490119 0.654553
v 0.688121 2.470420 0.656778
v 0.680103 2.443094 0.660034
v 0.686919 2.415463 0.663449
v 0.706742 2.394931 0.666108
v 0.708173 2.436738 0.612727
v 0.711228 2.409958 0.622480
v 0.720777 2.391752 0.642455
v 0.750537 2.486372 0.631195
v 0.763532 2.435600 0.613319
v 0.759170 2.408973 0.622993
v 0.748456 2.391183 0.642751
v 0.764182 2.488981 0.655144
v 0.784005 2.468449 0.657803
v 0.790821 2.440818 0.661218
v 0.782804 2.413492 0.664475
v 0.762101 2.393793 0.666700
v 0.750147 2.492160 0.678798
v 0.759696 2.473954 0.698772
v 0.762752 2.447174 0.708525
v 0.758495 2.418997 0.705444
v 0.748066 2.396971 0.690354
v 0.722858 2.486941 0.630899
v 0.712429 2.464916 0.615809
v 0.760372 2.463930 0.616321
v 0.807053 2.482394 0.613172
v 0.808981 2.482763 0.616557
v 0.774136 2.490840 0.625345
v 0.791303 2.451094 0.615529
v 0.780890 2.492132 0.637200
v 0.801780 2.453097 0.633917
v 0.731479 2.479075 0.573576
v 0.742827 2.478842 0.573697
v 0.734064 2.486315 0.590628
v 0.733137 2.459157 0.585089
v 0.739264 2.486208 0.590683
v 0.738353 2.459050 0.585144
vt 0.274240 0.539347
vt 0.265397 0.539709
vt 0.266768 0.532487
vt 0.231414 0.551290
vt 0.214659 0.541092
vt 0.231357 0.542861
vt 0.231940 0.569242
vt 0.215985 0.562822
vt 0.231472 0.559719
vt 0.230890 0.533338
vt 0.220414 0.530957
vt 0.213134 0.552274
vt 0.289666 0.544440
vt 0.282983 0.540904
vt 0.290637 0.536818
vt 0.279682 0.529141
vt 0.275518 0.536619
vt 0.273707 0.532162
vt 0.280945 0.538772
vt 0.286431 0.530872
vt 0.290637 0.551375
vt 0.284312 0.543753
vt 0.278488 0.537315
vt 0.276318 0.541045
vt 0.804698 0.251197
vt 0.792375 0.255919
vt 0.792638 0.252041
vt 0.786357 0.239035
vt 0.792578 0.249274
vt 0.791489 0.249454
vt 0.271776 0.541127
vt 0.760733 0.199751
vt 0.757502 0.209505
vt 0.750621 0.206121
vt 0.278108 0.542645
vt 0.273009 0.544115
vt 0.772804 0.201934
vt 0.766718 0.213101
vt 0.766203 0.208706
vt 0.264007 0.548518
vt 0.277612 0.547903
vt 0.268747 0.555467
vt 0.275021 0.546378
vt 0.280714 0.548498
vt 0.281954 0.545638
vt 0.276612 0.557409
vt 0.240880 0.530957
vt 0.248168 0.561486
vt 0.249693 0.550306
vt 0.246843 0.539760
vt 0.242415 0.571620
vt 0.762287 0.211045
vt 0.762255 0.210544
vt 0.761023 0.221925
vt 0.757316 0.212491
vt 0.750922 0.216572
vt 0.772804 0.220841
vt 0.791613 0.252007
vt 0.791097 0.255536
vt 0.780068 0.250772
vt 0.780487 0.263708
vt 0.804698 0.264828
vt 0.798786 0.238814
vt 0.221949 0.571626
vt 0.283377 0.553479
vn -0.0217 -0.9925 0.1205
vn -0.8522 -0.1482 0.5017
vn -0.6434 0.7088 0.2893
vn -0.6718 -0.5907 0.4471
vn -0.8424 0.3005 0.4472
vn -0.6372 0.6176 -0.4611
vn -0.6656 -0.6819 -0.3033
vn -0.8345 0.1829 -0.5197
vn 0.0217 0.9925 -0.1205
vn -0.8443 -0.2658 -0.4653
vn -0.0080 -0.7410 -0.6715
vn 0.7632 -0.4440 -0.4695
vn 0.0030 -0.3419 -0.9397
vn 0.0206 0.9997 -0.0098
vn 0.6434 -0.7088 -0.2893
vn 0.5343 0.5937 0.6017
vn 0.8424 -0.3005 -0.4472
vn 0.4900 -0.8516 -0.1864
vn 0.6372 -0.6176 0.4611
vn 0.8443 0.2658 0.4653
vn 0.8345 -0.1829 0.5197
vn 0.6656 0.6819 0.3033
vn -0.0203 -0.5585 0.8292
vn -0.0030 0.3419 0.9397
vn -0.0128 -0.1068 0.9942
vn 0.0081 0.7410 0.6715
vn 0.8021 -0.4345 -0.4097
vn 0.1722 0.9639 -0.2032
vn -0.2219 0.4101 -0.8846
vn -0.1862 0.9825 -0.0009
vn 0.8312 0.1164 0.5437
vn 0.0191 0.1075 -0.9940
vn -0.0010 -0.5005 -0.8657
vn 0.0231 0.9190 -0.3937
vn -0.7989 0.1833 -0.5729
vn -0.0091 -0.7726 -0.6349
vn 0.8252 0.5152 -0.2317
vn -0.7754 0.6149 -0.1436
vn -0.0081 -0.7410 -0.6715
vn 0.7962 0.1509 -0.5859
vn 0.0207 0.9997 -0.0098
vn 0.6020 0.5677 0.5615
vn 0.4899 -0.8516 -0.1864
vn -0.0203 -0.5585 0.8293
vn 0.8022 -0.4344 -0.4097
vn 0.1722 0.9639 -0.2031
vn -0.2934 0.4355 -0.8511
vn -0.1863 0.9825 -0.0009
vn 0.8473 0.2658 0.4597
vn -0.0469 -0.0515 -0.9976
vn 0.0231 0.9190 -0.3936
vn -0.8071 -0.3444 -0.4795
vn -0.0091 -0.7725 -0.6349
vn 0.7792 0.6180 -0.1045
vn -0.8074 0.5420 -0.2331
s off
f 17/1/1 27/2/1 5/3/1
f 3/4/2 9/5/2 4/6/2
f 1/7/3 7/8/3 2/9/3
f 5/10/4 9/5/4 10/11/4
f 2/9/5 8/12/5 3/4/5
f 6/13/6 29/14/6 7/15/6
f 9/16/7 13/17/7 10/18/7
f 7/15/8 11/19/8 8/20/8
f 1/21/9 28/22/9 6/13/9
f 8/20/10 12/23/10 9/16/10
f 13/17/11 16/24/11 17/1/11
f 30/25/12 42/26/12 38/27/12
f 11/19/13 16/24/13 12/23/13
f 28/28/14 41/29/14 39/30/14
f 16/24/15 22/31/15 17/1/15
f 19/32/16 35/33/16 18/34/16
f 15/35/17 21/36/17 16/24/17
f 20/37/18 34/38/18 36/39/18
f 22/31/19 26/40/19 27/2/19
f 19/41/20 25/42/20 20/43/20
f 1/21/9 18/44/9 14/45/9
f 20/43/21 26/40/21 21/36/21
f 18/44/22 24/46/22 19/41/22
f 27/47/23 4/6/23 5/10/23
f 24/48/24 3/4/24 25/49/24
f 25/49/25 4/6/25 26/50/25
f 23/51/26 2/9/26 24/48/26
f 13/17/1 5/3/1 10/18/1
f 31/52/27 36/39/27 34/38/27
f 31/52/28 35/33/28 32/53/28
f 30/54/29 33/55/29 31/52/29
f 18/34/30 33/55/30 14/56/30
f 19/32/31 36/39/31 32/53/31
f 30/54/32 34/38/32 15/57/32
f 37/58/33 42/26/33 40/59/33
f 37/58/34 41/29/34 38/27/34
f 29/60/35 40/59/35 11/61/35
f 11/61/36 42/26/36 15/62/36
f 30/25/37 41/29/37 14/63/37
f 29/60/38 39/30/38 37/58/38
f 17/1/1 22/31/1 27/2/1
f 3/4/2 8/12/2 9/5/2
f 1/7/3 6/64/3 7/8/3
f 5/10/4 4/6/4 9/5/4
f 2/9/5 7/8/5 8/12/5
f 6/13/6 28/22/6 29/14/6
f 9/16/7 12/23/7 13/17/7
f 7/15/8 29/14/8 11/19/8
f 1/21/9 14/45/9 28/22/9
f 8/20/10 11/19/10 12/23/10
f 13/17/39 12/23/39 16/24/39
f 30/25/40 15/62/40 42/26/40
f 11/19/13 15/35/13 16/24/13
f 28/28/41 14/63/41 41/29/41
f 16/24/15 21/36/15 22/31/15
f 19/32/42 32/53/42 35/33/42
f 15/35/17 20/43/17 21/36/17
f 20/37/43 15/57/43 34/38/43
f 22/31/19 21/36/19 26/40/19
f 19/41/20 24/46/20 25/42/20
f 1/21/9 23/65/9 18/44/9
f 20/43/21 25/42/21 26/40/21
f 18/44/22 23/65/22 24/46/22
f 27/47/44 26/50/44 4/6/44
f 24/48/24 2/9/24 3/4/24
f 25/49/25 3/4/25 4/6/25
f 23/51/26 1/7/26 2/9/26
f 13/17/1 17/1/1 5/3/1
f 31/52/45 32/53/45 36/39/45
f 31/52/46 33/55/46 35/33/46
f 30/54/47 14/56/47 33/55/47
f 18/34/48 35/33/48 33/55/48
f 19/32/49 20/37/49 36/39/49
f 30/54/50 31/52/50 34/38/50
f 37/58/33 38/27/33 42/26/33
f 37/58/51 39/30/51 41/29/51
f 29/60/52 37/58/52 40/59/52
f 11/61/53 40/59/53 42/26/53
f 30/25/54 38/27/54 41/29/54
f 29/60/55 28/28/55 39/30/55
v 1.659341 2.789282 -7.081197
v 1.672585 2.763965 -7.078907
v 1.671345 2.735427 -7.076534
v 1.655953 2.711314 -7.074716
v 1.630535 2.698089 -7.073938
v 1.645829 2.795411 -7.057822
v 1.649180 2.774581 -7.038420
v 1.644319 2.747685 -7.029784
v 1.632549 2.721930 -7.034228
v 1.617023 2.704218 -7.050562
v 1.591507 2.764203 -7.031850
v 1.586812 2.736235 -7.036018
v 1.590617 2.712477 -7.051596
v 1.606529 2.805800 -7.083264
v 1.565720 2.768462 -7.080667
v 1.564480 2.739924 -7.078295
v 1.577723 2.714606 -7.076005
v 1.620042 2.799671 -7.106639
v 1.604515 2.781958 -7.122973
v 1.592745 2.756204 -7.127418
v 1.587884 2.729308 -7.118782
v 1.591236 2.708477 -7.099380
v 1.646448 2.791412 -7.105606
v 1.650252 2.767654 -7.121184
v 1.645557 2.739686 -7.125351
v 1.633621 2.715003 -7.116992
v 1.617642 2.700218 -7.098346
v 1.619423 2.803670 -7.058856
v 1.603443 2.788886 -7.040209
v 1.581111 2.792574 -7.082486
v 1.564429 2.815264 -7.124162
v 1.566338 2.814397 -7.127465
v 1.592767 2.814614 -7.101811
v 1.560841 2.784365 -7.107862
v 1.599455 2.811580 -7.113382
v 1.571216 2.779659 -7.125809
v 1.567189 2.820999 -7.039017
v 1.561903 2.821872 -7.049023
v 1.582328 2.820798 -7.050000
v 1.567327 2.798383 -7.043547
v 1.579906 2.821198 -7.054586
v 1.564898 2.798784 -7.048147
vt 0.274240 0.539347
vt 0.265397 0.539709
vt 0.266768 0.532487
vt 0.231414 0.551290
vt 0.214659 0.541092
vt 0.231357 0.542861
vt 0.231940 0.569242
vt 0.215985 0.562822
vt 0.231472 0.559719
vt 0.230890 0.533338
vt 0.220414 0.530957
vt 0.213134 0.552274
vt 0.289666 0.544440
vt 0.282983 0.540904
vt 0.290637 0.536818
vt 0.279682 0.529141
vt 0.275518 0.536619
vt 0.273707 0.532162
vt 0.280945 0.538772
vt 0.286431 0.530872
vt 0.290637 0.551375
vt 0.284312 0.543753
vt 0.278488 0.537315
vt 0.276318 0.541045
vt 0.804698 0.251197
vt 0.792375 0.255919
vt 0.792638 0.252041
vt 0.786357 0.239035
vt 0.792578 0.249274
vt 0.791489 0.249454
vt 0.271776 0.541127
vt 0.760733 0.199751
vt 0.757502 0.209505
vt 0.750621 0.206121
vt 0.278108 0.542645
vt 0.273009 0.544115
vt 0.772804 0.201934
vt 0.766718 0.213101
vt 0.766203 0.208706
vt 0.264007 0.548518
vt 0.277612 0.547903
vt 0.268747 0.555467
vt 0.275021 0.546378
vt 0.280714 0.548498
vt 0.281954 0.545638
vt 0.276612 0.557409
vt 0.240880 0.530957
vt 0.248168 0.561486
vt 0.249693 0.550306
vt 0.246843 0.539760
vt 0.242415 0.571620
vt 0.762287 0.211045
vt 0.762255 0.210544
vt 0.761023 0.221925
vt 0.757316 0.212491
vt 0.750922 0.216572
vt 0.772804 0.220841
vt 0.791613 0.252007
vt 0.791097 0.255536
vt 0.780068 0.250772
vt 0.780487 0.263708
vt 0.804698 0.264828
vt 0.798786 0.238814
vt 0.221949 0.571626
vt 0.283377 0.553479
vn -0.3003 -0.9508 0.0757
vn 0.7304 -0.4260 0.5339
vn 0.8161 0.4587 0.3515
vn 0.4229 -0.7862 0.4506
vn 0.8662 0.0039 0.4997
vn 0.1869 0.6855 0.7037
vn -0.2064 -0.5594 0.8028
vn 0.0553 0.2962 0.9535
vn 0.3003 0.9508 -0.0757
vn -0.0805 -0.1337 0.9878
vn -0.8259 -0.3957 0.4017
vn -0.9053 -0.1327 -0.4034
vn -0.8788 0.0773 0.4709
vn 0.3907 0.9117 -0.1268
vn -0.8161 -0.4587 -0.3515
vn 0.4658 0.3436 -0.8154
vn -0.8662 -0.0039 -0.4997
vn -0.7221 -0.6458 -0.2481
vn -0.1869 -0.6855 -0.7037
vn 0.0805 0.1337 -0.9878
vn -0.0553 -0.2962 -0.9535
vn 0.2064 0.5594 -0.8028
vn 0.4326 -0.8493 -0.3026
vn 0.8788 -0.0773 -0.4709
vn 0.7430 -0.5072 -0.4367
vn 0.8259 0.3957 -0.4017
vn -0.3004 -0.9508 0.0757
vn -0.8726 -0.1448 -0.4664
vn 0.1537 0.9740 -0.1666
vn -0.4238 0.7134 0.5580
vn 0.4870 0.8718 0.0529
vn 0.0872 -0.0352 -0.9956
vn -0.7455 0.5084 0.4310
vn -0.8836 -0.0971 0.4581
vn 0.0552 0.9968 0.0578
vn -0.0028 0.3220 0.9467
vn -0.8095 -0.4395 0.3893
vn -0.3561 0.6445 -0.6766
vn 0.4995 0.5386 0.6785
vn -0.7693 0.4574 -0.4460
vn 0.3922 0.3433 -0.8534
vn 0.0804 0.1337 -0.9878
vn 0.8788 -0.0773 -0.4710
vn -0.8726 -0.1448 -0.4665
vn -0.3538 0.7154 0.6025
vn 0.0747 0.1363 -0.9878
vn -0.7824 0.3592 0.5088
vn -0.8835 -0.0972 0.4583
vn 0.0552 0.9968 0.0579
vn -0.1411 -0.1953 0.9706
vn -0.8096 -0.4394 0.3892
vn -0.1929 0.6807 -0.7067
vn 0.4143 0.5062 0.7564
s off
f 59/66/56 69/67/56 47/68/56
f 45/69/57 51/70/57 46/71/57
f 43/72/58 49/73/58 44/74/58
f 47/75/59 51/70/59 52/76/59
f 44/74/60 50/77/60 45/69/60
f 48/78/61 71/79/61 49/80/61
f 51/81/62 55/82/62 52/83/62
f 49/80/63 53/84/63 50/85/63
f 43/86/64 70/87/64 48/78/64
f 50/85/65 54/88/65 51/81/65
f 55/82/66 58/89/66 59/66/66
f 72/90/67 84/91/67 80/92/67
f 53/84/68 58/89/68 54/88/68
f 70/93/69 83/94/69 81/95/69
f 58/89/70 64/96/70 59/66/70
f 61/97/71 77/98/71 60/99/71
f 57/100/72 63/101/72 58/89/72
f 62/102/73 76/103/73 78/104/73
f 64/96/74 68/105/74 69/67/74
f 61/106/75 67/107/75 62/108/75
f 43/86/64 60/109/64 56/110/64
f 62/108/76 68/105/76 63/101/76
f 60/109/77 66/111/77 61/106/77
f 69/112/78 46/71/78 47/75/78
f 66/113/79 45/69/79 67/114/79
f 67/114/80 46/71/80 68/115/80
f 65/116/81 44/74/81 66/113/81
f 55/82/82 47/68/82 52/83/82
f 73/117/83 78/104/83 76/103/83
f 73/117/84 77/98/84 74/118/84
f 72/119/85 75/120/85 73/117/85
f 60/99/86 75/120/86 56/121/86
f 61/97/87 78/104/87 74/118/87
f 72/119/88 76/103/88 57/122/88
f 79/123/89 84/91/89 82/124/89
f 79/123/90 83/94/90 80/92/90
f 71/125/91 82/124/91 53/126/91
f 53/126/92 84/91/92 57/127/92
f 72/90/93 83/94/93 56/128/93
f 71/125/94 81/95/94 79/123/94
f 59/66/56 64/96/56 69/67/56
f 45/69/57 50/77/57 51/70/57
f 43/72/58 48/129/58 49/73/58
f 47/75/59 46/71/59 51/70/59
f 44/74/60 49/73/60 50/77/60
f 48/78/61 70/87/61 71/79/61
f 51/81/62 54/88/62 55/82/62
f 49/80/63 71/79/63 53/84/63
f 43/86/64 56/110/64 70/87/64
f 50/85/65 53/84/65 54/88/65
f 55/82/66 54/88/66 58/89/66
f 72/90/95 57/127/95 84/91/95
f 53/84/68 57/100/68 58/89/68
f 70/93/69 56/128/69 83/94/69
f 58/89/70 63/101/70 64/96/70
f 61/97/96 74/118/96 77/98/96
f 57/100/72 62/108/72 63/101/72
f 62/102/73 57/122/73 76/103/73
f 64/96/74 63/101/74 68/105/74
f 61/106/97 66/111/97 67/107/97
f 43/86/64 65/130/64 60/109/64
f 62/108/76 67/107/76 68/105/76
f 60/109/77 65/130/77 66/111/77
f 69/112/78 68/115/78 46/71/78
f 66/113/98 44/74/98 45/69/98
f 67/114/80 45/69/80 46/71/80
f 65/116/81 43/72/81 44/74/81
f 55/82/56 59/66/56 47/68/56
f 73/117/99 74/118/99 78/104/99
f 73/117/84 75/120/84 77/98/84
f 72/119/100 56/121/100 75/120/100
f 60/99/86 77/98/86 75/120/86
f 61/97/101 62/102/101 78/104/101
f 72/119/102 73/117/102 76/103/102
f 79/123/103 80/92/103 84/91/103
f 79/123/104 81/95/104 83/94/104
f 71/125/105 79/123/105 82/124/105
f 53/126/106 82/124/106 84/91/106
f 72/90/107 80/92/107 83/94/107
f 71/125/108 70/93/108 81/95/108
v 1.168140 4.055552 -2.197250
v 1.163370 4.041647 -2.172644
v 1.158637 4.017188 -2.158467
v 1.155211 3.988730 -2.158519
v 1.154009 3.963898 -2.172785
v 1.145737 4.054671 -2.213495
v 1.124566 4.040120 -2.200780
v 1.113831 4.015425 -2.190956
v 1.116407 3.987203 -2.186655
v 1.131605 3.963016 -2.189029
v 1.118704 4.000499 -2.244057
v 1.120628 3.974277 -2.232642
v 1.134042 3.955554 -2.215580
v 1.173014 4.040627 -2.250351
v 1.168385 3.987337 -2.264669
v 1.163652 3.962878 -2.250493
v 1.158882 3.948973 -2.225886
v 1.195417 4.041509 -2.234107
v 1.210615 4.017323 -2.236482
v 1.213191 3.989101 -2.232181
v 1.202456 3.964406 -2.222357
v 1.181286 3.949854 -2.209642
v 1.192980 4.048972 -2.207557
v 1.206394 4.030248 -2.190495
v 1.208318 4.004026 -2.179080
v 1.198235 3.977332 -2.176370
v 1.178849 3.957317 -2.183092
v 1.148173 4.047208 -2.240045
v 1.128787 4.027194 -2.246767
v 1.171811 4.015795 -2.264618
v 1.215684 4.023421 -2.288006
v 1.218850 4.023545 -2.285710
v 1.192601 4.039506 -2.265390
v 1.196943 3.996492 -2.275479
v 1.203691 4.039943 -2.257349
v 1.214144 3.997169 -2.263006
v 1.131280 4.034506 -2.294593
v 1.141464 4.031808 -2.298818
v 1.141795 4.041934 -2.281024
v 1.133885 4.015371 -2.281979
v 1.146462 4.040698 -2.282960
v 1.138566 4.014131 -2.283921
vt 0.274240 0.539347
vt 0.265397 0.539709
vt 0.266768 0.532487
vt 0.231414 0.551290
vt 0.214659 0.541092
vt 0.231357 0.542861
vt 0.231940 0.569242
vt 0.215985 0.562822
vt 0.231472 0.559719
vt 0.230890 0.533338
vt 0.220414 0.530957
vt 0.213134 0.552274
vt 0.289666 0.544440
vt 0.282983 0.540904
vt 0.290637 0.536818
vt 0.279682 0.529141
vt 0.275518 0.536619
vt 0.273707 0.532162
vt 0.280945 0.538772
vt 0.286431 0.530872
vt 0.290637 0.551375
vt 0.284312 0.543753
vt 0.278488 0.537315
vt 0.276318 0.541045
vt 0.804698 0.251197
vt 0.792375 0.255919
vt 0.792638 0.252041
vt 0.786357 0.239035
vt 0.792578 0.249274
vt 0.791489 0.249454
vt 0.271776 0.541127
vt 0.760733 0.199751
vt 0.757502 0.209505
vt 0.750621 0.206121
vt 0.278108 0.542645
vt 0.273009 0.544115
vt 0.772804 0.201934
vt 0.766718 0.213101
vt 0.766203 0.208706
vt 0.264007 0.548518
vt 0.277612 0.547903
vt 0.268747 0.555467
vt 0.275021 0.546378
vt 0.280714 0.548498
vt 0.281954 0.545638
vt 0.276612 0.557409
vt 0.240880 0.530957
vt 0.248168 0.561486
vt 0.249693 0.550306
vt 0.246843 0.539760
vt 0.242415 0.571620
vt 0.762287 0.211045
vt 0.762255 0.210544
vt 0.761023 0.221925
vt 0.757316 0.212491
vt 0.750922 0.216572
vt 0.772804 0.220841
vt 0.791613 0.252007
vt 0.791097 0.255536
vt 0.780068 0.250772
vt 0.780487 0.263708
vt 0.804698 0.264828
vt 0.798786 0.238814
vt 0.221949 0.571626
vt 0.283377 0.553479
vn -0.1473 -0.9556 0.2551
vn -0.5874 0.0693 0.8063
vn -0.3335 0.8470 0.4140
vn -0.5264 -0.4042 0.7480
vn -0.5208 0.5013 0.6910
vn -0.6483 0.7154 -0.2606
vn -0.8412 -0.5358 0.0734
vn -0.9264 0.3318 -0.1783
vn 0.1474 0.9556 -0.2551
vn -0.9930 -0.1003 -0.0630
vn -0.4112 -0.7571 -0.5076
vn 0.4151 -0.6251 -0.6610
vn -0.4389 -0.3855 -0.8116
vn 0.1925 0.9690 -0.1547
vn 0.3335 -0.8470 -0.4140
vn 0.8286 0.4950 0.2616
vn 0.5208 -0.5013 -0.6910
vn 0.2122 -0.9469 -0.2413
vn 0.6482 -0.7154 0.2606
vn 0.9930 0.1003 0.0630
vn 0.9264 -0.3318 0.1783
vn 0.8412 0.5358 -0.0734
vn 0.2183 -0.4941 0.8416
vn 0.4389 0.3855 0.8116
vn 0.3723 -0.0465 0.9270
vn 0.4112 0.7572 0.5076
vn 0.4760 -0.6210 -0.6227
vn 0.2438 0.8904 -0.3844
vn -0.4844 0.3994 -0.7784
vn 0.0075 0.9979 -0.0646
vn 0.9864 -0.0381 0.1602
vn -0.3664 0.0458 -0.9293
vn -0.4407 -0.5351 -0.7207
vn 0.0248 0.8686 -0.4948
vn -0.9158 0.3215 -0.2406
vn -0.4029 -0.7857 -0.4694
vn 0.7378 0.3090 -0.6001
vn -0.6440 0.7605 0.0827
vn -0.1474 -0.9556 0.2551
vn -0.6482 0.7155 -0.2606
vn 0.1473 0.9556 -0.2551
vn -0.9930 -0.1002 -0.0630
vn 0.5035 -0.0591 -0.8620
vn 0.8684 0.4526 0.2025
vn 0.2122 -0.9470 -0.2413
vn 0.6483 -0.7154 0.2606
vn 0.9930 0.1002 0.0630
vn 0.4112 0.7571 0.5076
vn 0.4759 -0.6210 -0.6228
vn 0.2438 0.8904 -0.3845
vn -0.5304 0.4415 -0.7237
vn 0.9934 0.0993 0.0567
vn -0.4554 -0.0948 -0.8852
vn -0.4408 -0.5351 -0.7207
vn 0.0248 0.8687 -0.4948
vn -0.9794 -0.1857 -0.0795
vn 0.7664 0.4262 -0.4805
vn -0.7220 0.6915 0.0234
s off
f 101/131/109 111/132/109 89/133/109
f 87/134/110 93/135/110 88/136/110
f 85/137/111 91/138/111 86/139/111
f 89/140/112 93/135/112 94/141/112
f 86/139/113 92/142/113 87/134/113
f 90/143/114 113/144/114 91/145/114
f 93/146/115 97/147/115 94/148/115
f 91/145/116 95/149/116 92/150/116
f 85/151/117 112/152/117 90/143/117
f 92/150/118 96/153/118 93/146/118
f 97/147/119 100/154/119 101/131/119
f 114/155/120 126/156/120 122/157/120
f 95/149/121 100/154/121 96/153/121
f 112/158/122 125/159/122 123/160/122
f 100/154/123 106/161/123 101/131/123
f 103/162/124 119/163/124 102/164/124
f 99/165/125 105/166/125 100/154/125
f 104/167/126 118/168/126 120/169/126
f 106/161/127 110/170/127 111/132/127
f 103/171/128 109/172/128 104/173/128
f 85/151/117 102/174/117 98/175/117
f 104/173/129 110/170/129 105/166/129
f 102/174/130 108/176/130 103/171/130
f 111/177/131 88/136/131 89/140/131
f 108/178/132 87/134/132 109/179/132
f 109/179/133 88/136/133 110/180/133
f 107/181/134 86/139/134 108/178/134
f 97/147/109 89/133/109 94/148/109
f 115/182/135 120/169/135 118/168/135
f 115/182/136 119/163/136 116/183/136
f 114/184/137 117/185/137 115/182/137
f 102/164/138 117/185/138 98/186/138
f 103/162/139 120/169/139 116/183/139
f 114/184/140 118/168/140 99/187/140
f 121/188/141 126/156/141 124/189/141
f 121/188/142 125/159/142 122/157/142
f 113/190/143 124/189/143 95/191/143
f 95/191/144 126/156/144 99/192/144
f 114/155/145 125/159/145 98/193/145
f 113/190/146 123/160/146 121/188/146
f 101/131/147 106/161/147 111/132/147
f 87/134/110 92/142/110 93/135/110
f 85/137/111 90/194/111 91/138/111
f 89/140/112 88/136/112 93/135/112
f 86/139/113 91/138/113 92/142/113
f 90/143/148 112/152/148 113/144/148
f 93/146/115 96/153/115 97/147/115
f 91/145/116 113/144/116 95/149/116
f 85/151/149 98/175/149 112/152/149
f 92/150/150 95/149/150 96/153/150
f 97/147/119 96/153/119 100/154/119
f 114/155/151 99/192/151 126/156/151
f 95/149/121 99/165/121 100/154/121
f 112/158/122 98/193/122 125/159/122
f 100/154/123 105/166/123 106/161/123
f 103/162/152 116/183/152 119/163/152
f 99/165/125 104/173/125 105/166/125
f 104/167/153 99/187/153 118/168/153
f 106/161/154 105/166/154 110/170/154
f 103/171/155 108/176/155 109/172/155
f 85/151/149 107/195/149 102/174/149
f 104/173/129 109/172/129 110/170/129
f 102/174/130 107/195/130 108/176/130
f 111/177/131 110/180/131 88/136/131
f 108/178/132 86/139/132 87/134/132
f 109/179/133 87/134/133 88/136/133
f 107/181/156 85/137/156 86/139/156
f 97/147/109 101/131/109 89/133/109
f 115/182/157 116/183/157 120/169/157
f 115/182/158 117/185/158 119/163/158
f 114/184/159 98/186/159 117/185/159
f 102/164/138 119/163/138 117/185/138
f 103/162/160 104/167/160 120/169/160
f 114/184/161 115/182/161 118/168/161
f 121/188/162 122/157/162 126/156/162
f 121/188/163 123/160/163 125/159/163
f 113/190/164 121/188/164 124/189/164
f 95/191/144 124/189/144 126/156/144
f 114/155/165 122/157/165 125/159/165
f 113/190/166 112/158/166 123/160/166
