# Blender v2.81 (sub 16) OBJ File: 'garbage.blend'
# www.blender.org
v -0.557616 2.986753 3.192516
v -0.577029 2.966062 3.196590
v -0.583300 2.938565 3.201712
v -0.574747 2.911632 3.206510
v -0.553662 2.892477 3.209699
v -0.544138 2.982965 3.168630
v -0.553684 2.959500 3.155218
v -0.556343 2.930989 3.153940
v -0.551402 2.905070 3.165138
v -0.540184 2.888689 3.185812
v -0.501022 2.933088 3.152730
v -0.503493 2.906888 3.164091
v -0.512524 2.889739 3.185208
v -0.502295 2.988852 3.191306
v -0.472658 2.942764 3.199293
v -0.478928 2.915268 3.204415
v -0.498342 2.894577 3.208489
v -0.515773 2.992640 3.215192
v -0.504556 2.976259 3.235867
v -0.499614 2.950341 3.247065
v -0.502273 2.921829 3.245787
v -0.511820 2.898365 3.232375
v -0.543434 2.991591 3.215797
v -0.552465 2.974441 3.236914
v -0.554935 2.948241 3.248275
v -0.550182 2.920011 3.246835
v -0.539480 2.897315 3.232980
v -0.516477 2.984014 3.168025
v -0.505775 2.961318 3.154170
v -0.481211 2.969698 3.194494
v -0.457234 2.997089 3.229205
v -0.459139 2.997624 3.232580
v -0.485839 2.998191 3.207214
v -0.462527 2.963230 3.221536
v -0.492511 3.000066 3.219038
v -0.472875 2.966138 3.239876
v -0.462575 2.981433 3.145440
v -0.456761 2.983416 3.154984
v -0.476701 2.988004 3.155791
v -0.468313 2.961570 3.155667
v -0.474036 2.988913 3.160166
v -0.465641 2.962482 3.160054
vt 0.274240 0.539347
vt 0.265397 0.539709
vt 0.266768 0.532487
vt 0.231414 0.551290
vt 0.214659 0.541092
vt 0.231357 0.542861
vt 0.231940 0.569242
vt 0.215985 0.562822
vt 0.231472 0.559719
vt 0.230890 0.533338
vt 0.220414 0.530957
vt 0.213134 0.552274
vt 0.289666 0.544440
vt 0.282983 0.540904
vt 0.290637 0.536818
vt 0.279682 0.529141
vt 0.275518 0.536619
vt 0.273707 0.532162
vt 0.280945 0.538772
vt 0.286431 0.530872
vt 0.290637 0.551375
vt 0.284312 0.543753
vt 0.278488 0.537315
vt 0.276318 0.541045
vt 0.804698 0.251197
vt 0.792375 0.255919
vt 0.792638 0.252041
vt 0.786357 0.239035
vt 0.792578 0.249274
vt 0.791489 0.249454
vt 0.271776 0.541127
vt 0.760733 0.199751
vt 0.757502 0.209505
vt 0.750621 0.206121
vt 0.278108 0.542645
vt 0.273009 0.544115
vt 0.772804 0.201934
vt 0.766718 0.213101
vt 0.766203 0.208706
vt 0.264007 0.548518
vt 0.277612 0.547903
vt 0.268747 0.555467
vt 0.275021 0.546378
vt 0.280714 0.548498
vt 0.281954 0.545638
vt 0.276612 0.557409
vt 0.240880 0.530957
vt 0.248168 0.561486
vt 0.249693 0.550306
vt 0.246843 0.539760
vt 0.242415 0.571620
vt 0.762287 0.211045
vt 0.762255 0.210544
vt 0.761023 0.221925
vt 0.757316 0.212491
vt 0.750922 0.216572
vt 0.772804 0.220841
vt 0.791613 0.252007
vt 0.791097 0.255536
vt 0.780068 0.250772
vt 0.780487 0.263708
vt 0.804698 0.264828
vt 0.798786 0.238814
vt 0.221949 0.571626
vt 0.283377 0.553479
vn 0.0412 -0.9830 0.1791
vn -0.8406 -0.3418 -0.4201
vn -0.6866 0.5507 -0.4747
vn -0.6326 -0.7363 -0.2402
vn -0.8593 0.1026 -0.5011
vn -0.0381 0.5075 -0.8608
vn 0.0159 -0.7795 -0.6262
vn -0.0236 0.0470 -0.9986
vn -0.0412 0.9830 -0.1791
vn -0.0050 -0.3974 -0.9176
vn 0.6755 -0.6867 -0.2688
vn 0.8591 -0.2573 0.4423
vn 0.8450 -0.2778 -0.4570
vn -0.1360 0.9832 -0.1215
vn 0.6866 -0.5507 0.4747
vn -0.3213 0.6496 0.6890
vn 0.8593 -0.1026 0.5011
vn 0.5426 -0.7266 0.4214
vn 0.0381 -0.5075 0.8608
vn 0.0050 0.3974 0.9176
vn 0.0236 -0.0470 0.9986
vn -0.0159 0.7795 0.6262
vn -0.6215 -0.6003 0.5033
vn -0.8450 0.2778 0.4570
vn -0.8263 -0.1666 0.5380
vn -0.6755 0.6867 0.2688
vn 0.0412 -0.9830 0.1792
vn 0.8275 -0.2439 0.5056
vn 0.1107 0.9894 -0.0943
vn 0.5655 0.4110 -0.7150
vn -0.2480 0.9254 -0.2867
vn -0.0447 0.2439 0.9688
vn 0.8293 0.1684 -0.5327
vn 0.8052 -0.4383 -0.3994
vn 0.2007 0.9276 -0.3150
vn 0.0395 0.0575 -0.9976
vn 0.6490 -0.7200 -0.2457
vn 0.5426 0.6795 0.4938
vn -0.3763 0.4589 -0.8048
vn -0.0412 0.9830 -0.1792
vn 0.8820 0.3385 0.3278
vn -0.2483 0.6398 0.7273
vn -0.6215 -0.6003 0.5034
vn 0.8276 -0.2439 0.5056
vn 0.1107 0.9894 -0.0944
vn 0.4963 0.4198 -0.7599
vn 0.0112 0.3984 0.9171
vn 0.8227 0.0001 -0.5684
vn 0.0384 -0.4662 -0.8838
vn 0.3960 0.7635 0.5101
vn -0.3063 0.3866 -0.8699
s off
f 17/1/1 27/2/1 5/3/1
f 3/4/2 9/5/2 4/6/2
f 1/7/3 7/8/3 2/9/3
f 5/10/4 9/5/4 10/11/4
f 2/9/5 8/12/5 3/4/5
f 6/13/6 29/14/6 7/15/6
f 9/16/7 13/17/7 10/18/7
f 7/15/8 11/19/8 8/20/8
f 1/21/9 28/22/9 6/13/9
f 8/20/10 12/23/10 9/16/10
f 13/17/11 16/24/11 17/1/11
f 30/25/12 42/26/12 38/27/12
f 11/19/13 16/24/13 12/23/13
f 28/28/14 41/29/14 39/30/14
f 16/24/15 22/31/15 17/1/15
f 19/32/16 35/33/16 18/34/16
f 15/35/17 21/36/17 16/24/17
f 20/37/18 34/38/18 36/39/18
f 22/31/19 26/40/19 27/2/19
f 19/41/20 25/42/20 20/43/20
f 1/21/9 18/44/9 14/45/9
f 20/43/21 26/40/21 21/36/21
f 18/44/22 24/46/22 19/41/22
f 27/47/23 4/6/23 5/10/23
f 24/48/24 3/4/24 25/49/24
f 25/49/25 4/6/25 26/50/25
f 23/51/26 2/9/26 24/48/26
f 13/17/27 5/3/27 10/18/27
f 31/52/28 36/39/28 34/38/28
f 31/52/29 35/33/29 32/53/29
f 30/54/30 33/55/30 31/52/30
f 18/34/31 33/55/31 14/56/31
f 19/32/32 36/39/32 32/53/32
f 30/54/33 34/38/33 15/57/33
f 37/58/34 42/26/34 40/59/34
f 37/58/35 41/29/35 38/27/35
f 29/60/36 40/59/36 11/61/36
f 11/61/37 42/26/37 15/62/37
f 30/25/38 41/29/38 14/63/38
f 29/60/39 39/30/39 37/58/39
f 17/1/27 22/31/27 27/2/27
f 3/4/2 8/12/2 9/5/2
f 1/7/3 6/64/3 7/8/3
f 5/10/4 4/6/4 9/5/4
f 2/9/5 7/8/5 8/12/5
f 6/13/6 28/22/6 29/14/6
f 9/16/7 12/23/7 13/17/7
f 7/15/8 29/14/8 11/19/8
f 1/21/40 14/45/40 28/22/40
f 8/20/10 11/19/10 12/23/10
f 13/17/11 12/23/11 16/24/11
f 30/25/41 15/62/41 42/26/41
f 11/19/13 15/35/13 16/24/13
f 28/28/14 14/63/14 41/29/14
f 16/24/15 21/36/15 22/31/15
f 19/32/42 32/53/42 35/33/42
f 15/35/17 20/43/17 21/36/17
f 20/37/18 15/57/18 34/38/18
f 22/31/19 21/36/19 26/40/19
f 19/41/20 24/46/20 25/42/20
f 1/21/40 23/65/40 18/44/40
f 20/43/21 25/42/21 26/40/21
f 18/44/22 23/65/22 24/46/22
f 27/47/43 26/50/43 4/6/43
f 24/48/24 2/9/24 3/4/24
f 25/49/25 3/4/25 4/6/25
f 23/51/26 1/7/26 2/9/26
f 13/17/27 17/1/27 5/3/27
f 31/52/44 32/53/44 36/39/44
f 31/52/45 33/55/45 35/33/45
f 30/54/46 14/56/46 33/55/46
f 18/34/31 35/33/31 33/55/31
f 19/32/47 20/37/47 36/39/47
f 30/54/48 31/52/48 34/38/48
f 37/58/34 38/27/34 42/26/34
f 37/58/35 39/30/35 41/29/35
f 29/60/49 37/58/49 40/59/49
f 11/61/37 40/59/37 42/26/37
f 30/25/50 38/27/50 41/29/50
f 29/60/51 28/28/51 39/30/51
v 4.052862 3.000833 -3.252394
v 4.061400 2.985255 -3.229899
v 4.063863 2.959897 -3.216763
v 4.059590 2.931555 -3.216507
v 4.049726 2.907823 -3.229199
v 4.025228 3.001361 -3.254012
v 4.013535 2.986169 -3.232702
v 4.008594 2.960953 -3.220001
v 4.011725 2.932470 -3.219311
v 4.022092 2.908350 -3.230818
v 3.983457 2.949814 -3.268067
v 3.989956 2.922823 -3.260937
v 4.009523 2.902781 -3.254851
v 4.027725 2.989694 -3.300459
v 4.013589 2.937619 -3.312895
v 4.016052 2.912262 -3.299760
v 4.024590 2.896684 -3.277265
v 4.055360 2.989166 -3.298841
v 4.065726 2.965047 -3.310348
v 4.068858 2.936563 -3.309658
v 4.063916 2.911347 -3.296956
v 4.052224 2.896156 -3.275646
v 4.067928 2.994736 -3.274808
v 4.087495 2.974694 -3.268721
v 4.093995 2.947702 -3.261592
v 4.085685 2.920994 -3.255330
v 4.064793 2.901725 -3.251613
v 4.012659 2.995791 -3.278045
v 3.991767 2.976523 -3.274329
v 4.017862 2.965961 -3.313151
v 4.042606 2.974762 -3.356050
v 4.046511 2.974687 -3.355821
v 4.036087 2.989439 -3.323721
v 4.032268 2.947212 -3.336881
v 4.049766 2.989177 -3.322920
v 4.053485 2.946807 -3.335638
v 3.968522 2.987212 -3.315468
v 3.974699 2.984712 -3.324657
v 3.985021 2.993535 -3.309331
v 3.976578 2.967196 -3.307314
v 3.987852 2.992389 -3.313542
v 3.979417 2.966047 -3.311537
vt 0.274240 0.539347
vt 0.265397 0.539709
vt 0.266768 0.532487
vt 0.231414 0.551290
vt 0.214659 0.541092
vt 0.231357 0.542861
vt 0.231940 0.569242
vt 0.215985 0.562822
vt 0.231472 0.559719
vt 0.230890 0.533338
vt 0.220414 0.530957
vt 0.213134 0.552274
vt 0.289666 0.544440
vt 0.282983 0.540904
vt 0.290637 0.536818
vt 0.279682 0.529141
vt 0.275518 0.536619
vt 0.273707 0.532162
vt 0.280945 0.538772
vt 0.286431 0.530872
vt 0.290637 0.551375
vt 0.284312 0.543753
vt 0.278488 0.537315
vt 0.276318 0.541045
vt 0.804698 0.251197
vt 0.792375 0.255919
vt 0.792638 0.252041
vt 0.786357 0.239035
vt 0.792578 0.249274
vt 0.791489 0.249454
vt 0.271776 0.541127
vt 0.760733 0.199751
vt 0.757502 0.209505
vt 0.750621 0.206121
vt 0.278108 0.542645
vt 0.273009 0.544115
vt 0.772804 0.201934
vt 0.766718 0.213101
vt 0.766203 0.208706
vt 0.264007 0.548518
vt 0.277612 0.547903
vt 0.268747 0.555467
vt 0.275021 0.546378
vt 0.280714 0.548498
vt 0.281954 0.545638
vt 0.276612 0.557409
vt 0.240880 0.530957
vt 0.248168 0.561486
vt 0.249693 0.550306
vt 0.246843 0.539760
vt 0.242415 0.571620
vt 0.762287 0.211045
vt 0.762255 0.210544
vt 0.761023 0.221925
vt 0.757316 0.212491
vt 0.750922 0.216572
vt 0.772804 0.220841
vt 0.791613 0.252007
vt 0.791097 0.255536
vt 0.780068 0.250772
vt 0.780487 0.263708
vt 0.804698 0.264828
vt 0.798786 0.238814
vt 0.221949 0.571626
vt 0.283377 0.553479
vn -0.0327 -0.9698 0.2418
vn -0.0581 0.0178 0.9982
vn -0.0180 0.8188 0.5739
vn -0.0608 -0.4510 0.8905
vn -0.0433 0.4562 0.8888
vn -0.6517 0.7393 0.1695
vn -0.6945 -0.5304 0.4861
vn -0.8600 0.3538 0.3678
vn 0.0327 0.9698 -0.2419
vn -0.8748 -0.0847 0.4771
vn -0.6551 -0.7143 -0.2460
vn -0.0355 -0.5807 -0.8134
vn -0.8240 -0.3216 -0.4664
vn 0.1253 0.9754 -0.1811
vn 0.0180 -0.8188 -0.5739
vn 0.8619 0.4659 -0.2000
vn 0.0433 -0.4562 -0.8888
vn 0.0038 -0.9295 -0.3688
vn 0.6517 -0.7393 -0.1695
vn 0.8748 0.0846 -0.4771
vn 0.0327 0.9698 -0.2418
vn 0.8600 -0.3538 -0.3678
vn 0.6945 0.5304 -0.4861
vn 0.6123 -0.5554 0.5627
vn 0.8240 0.3217 0.4664
vn 0.8093 -0.1168 0.5757
vn 0.6551 0.7143 0.2460
vn 0.0366 -0.5800 -0.8138
vn 0.0413 0.9129 -0.4062
vn -0.8070 0.4593 -0.3712
vn 0.0193 0.9998 -0.0040
vn 0.9148 -0.0603 -0.3993
vn -0.8056 0.1162 -0.5809
vn -0.7840 -0.4772 -0.3970
vn -0.2034 0.9015 -0.3820
vn -0.8851 0.3479 0.3092
vn -0.6290 -0.7456 -0.2200
vn 0.3137 0.3431 -0.8854
vn -0.4616 0.7596 0.4582
vn -0.0327 -0.9698 0.2419
vn -0.0608 -0.4509 0.8905
vn -0.8748 -0.0846 0.4771
vn -0.0420 -0.0027 -0.9991
vn 0.1254 0.9754 -0.1811
vn 0.0180 -0.8188 -0.5738
vn 0.8617 0.4274 -0.2735
vn 0.8600 -0.3538 -0.3677
vn 0.6945 0.5304 -0.4862
vn 0.8240 0.3216 0.4664
vn 0.0366 -0.5799 -0.8138
vn 0.0412 0.9129 -0.4061
vn -0.8143 0.4979 -0.2982
vn 0.8718 0.0842 -0.4826
vn -0.8636 -0.0262 -0.5035
vn -0.7839 -0.4773 -0.3971
vn -0.2034 0.9016 -0.3819
vn -0.8763 -0.1688 0.4513
vn -0.6291 -0.7455 -0.2200
vn 0.4076 0.4511 -0.7939
vn -0.5624 0.6959 0.4466
s off
f 59/66/52 69/67/52 47/68/52
f 45/69/53 51/70/53 46/71/53
f 43/72/54 49/73/54 44/74/54
f 47/75/55 51/70/55 52/76/55
f 44/74/56 50/77/56 45/69/56
f 48/78/57 71/79/57 49/80/57
f 51/81/58 55/82/58 52/83/58
f 49/80/59 53/84/59 50/85/59
f 43/86/60 70/87/60 48/78/60
f 50/85/61 54/88/61 51/81/61
f 55/82/62 58/89/62 59/66/62
f 72/90/63 84/91/63 80/92/63
f 53/84/64 58/89/64 54/88/64
f 70/93/65 83/94/65 81/95/65
f 58/89/66 64/96/66 59/66/66
f 61/97/67 77/98/67 60/99/67
f 57/100/68 63/101/68 58/89/68
f 62/102/69 76/103/69 78/104/69
f 64/96/70 68/105/70 69/67/70
f 61/106/71 67/107/71 62/108/71
f 43/86/72 60/109/72 56/110/72
f 62/108/73 68/105/73 63/101/73
f 60/109/74 66/111/74 61/106/74
f 69/112/75 46/71/75 47/75/75
f 66/113/76 45/69/76 67/114/76
f 67/114/77 46/71/77 68/115/77
f 65/116/78 44/74/78 66/113/78
f 55/82/52 47/68/52 52/83/52
f 73/117/79 78/104/79 76/103/79
f 73/117/80 77/98/80 74/118/80
f 72/119/81 75/120/81 73/117/81
f 60/99/82 75/120/82 56/121/82
f 61/97/83 78/104/83 74/118/83
f 72/119/84 76/103/84 57/122/84
f 79/123/85 84/91/85 82/124/85
f 79/123/86 83/94/86 80/92/86
f 71/125/87 82/124/87 53/126/87
f 53/126/88 84/91/88 57/127/88
f 72/90/89 83/94/89 56/128/89
f 71/125/90 81/95/90 79/123/90
f 59/66/91 64/96/91 69/67/91
f 45/69/53 50/77/53 51/70/53
f 43/72/54 48/129/54 49/73/54
f 47/75/92 46/71/92 51/70/92
f 44/74/56 49/73/56 50/77/56
f 48/78/57 70/87/57 71/79/57
f 51/81/58 54/88/58 55/82/58
f 49/80/59 71/79/59 53/84/59
f 43/86/72 56/110/72 70/87/72
f 50/85/93 53/84/93 54/88/93
f 55/82/62 54/88/62 58/89/62
f 72/90/94 57/127/94 84/91/94
f 53/84/64 57/100/64 58/89/64
f 70/93/95 56/128/95 83/94/95
f 58/89/96 63/101/96 64/96/96
f 61/97/97 74/118/97 77/98/97
f 57/100/68 62/108/68 63/101/68
f 62/102/69 57/122/69 76/103/69
f 64/96/70 63/101/70 68/105/70
f 61/106/71 66/111/71 67/107/71
f 43/86/72 65/130/72 60/109/72
f 62/108/98 67/107/98 68/105/98
f 60/109/99 65/130/99 66/111/99
f 69/112/75 68/115/75 46/71/75
f 66/113/100 44/74/100 45/69/100
f 67/114/77 45/69/77 46/71/77
f 65/116/78 43/72/78 44/74/78
f 55/82/52 59/66/52 47/68/52
f 73/117/101 74/118/101 78/104/101
f 73/117/102 75/120/102 77/98/102
f 72/119/103 56/121/103 75/120/103
f 60/99/82 77/98/82 75/120/82
f 61/97/104 62/102/104 78/104/104
f 72/119/105 73/117/105 76/103/105
f 79/123/106 80/92/106 84/91/106
f 79/123/107 81/95/107 83/94/107
f 71/125/108 79/123/108 82/124/108
f 53/126/109 82/124/109 84/91/109
f 72/90/110 80/92/110 83/94/110
f 71/125/111 70/93/111 81/95/111
v 0.802944 4.398688 -0.203412
v 0.796793 4.380579 -0.182062
v 0.793273 4.353801 -0.172463
v 0.793329 4.325530 -0.177186
v 0.796944 4.303339 -0.194966
v 0.783057 4.398234 -0.222670
v 0.762347 4.379792 -0.215418
v 0.753499 4.352892 -0.210978
v 0.758883 4.324742 -0.210541
v 0.777057 4.302885 -0.214224
v 0.766842 4.347318 -0.264431
v 0.770438 4.319914 -0.256832
v 0.783729 4.300097 -0.240950
v 0.816287 4.393114 -0.256864
v 0.819958 4.342652 -0.279368
v 0.816439 4.315874 -0.269768
v 0.810287 4.297765 -0.248418
v 0.836174 4.393568 -0.237607
v 0.854348 4.371711 -0.241289
v 0.859732 4.343561 -0.240852
v 0.850884 4.316661 -0.236413
v 0.830174 4.298219 -0.229161
v 0.829502 4.396356 -0.210880
v 0.842793 4.376539 -0.194998
v 0.846390 4.349135 -0.187400
v 0.839329 4.321489 -0.190122
v 0.823503 4.301006 -0.202434
v 0.789728 4.395447 -0.249396
v 0.773902 4.374964 -0.261709
v 0.819903 4.370924 -0.274644
v 0.865154 4.386542 -0.290083
v 0.867964 4.386606 -0.287361
v 0.837618 4.396388 -0.268919
v 0.848348 4.356219 -0.284481
v 0.847462 4.396613 -0.259387
v 0.863618 4.356568 -0.269695
v 0.781556 4.390134 -0.307078
v 0.792444 4.389177 -0.310139
v 0.789291 4.396272 -0.291192
v 0.784820 4.369562 -0.297168
v 0.794281 4.395833 -0.292595
v 0.789824 4.369123 -0.298575
vt 0.274240 0.539347
vt 0.265397 0.539709
vt 0.266768 0.532487
vt 0.231414 0.551290
vt 0.214659 0.541092
vt 0.231357 0.542861
vt 0.231940 0.569242
vt 0.215985 0.562822
vt 0.231472 0.559719
vt 0.230890 0.533338
vt 0.220414 0.530957
vt 0.213134 0.552274
vt 0.289666 0.544440
vt 0.282983 0.540904
vt 0.290637 0.536818
vt 0.279682 0.529141
vt 0.275518 0.536619
vt 0.273707 0.532162
vt 0.280945 0.538772
vt 0.286431 0.530872
vt 0.290637 0.551375
vt 0.284312 0.543753
vt 0.278488 0.537315
vt 0.276318 0.541045
vt 0.804698 0.251197
vt 0.792375 0.255919
vt 0.792638 0.252041
vt 0.786357 0.239035
vt 0.792578 0.249274
vt 0.791489 0.249454
vt 0.271776 0.541127
vt 0.760733 0.199751
vt 0.757502 0.209505
vt 0.750621 0.206121
vt 0.278108 0.542645
vt 0.273009 0.544115
vt 0.772804 0.201934
vt 0.766718 0.213101
vt 0.766203 0.208706
vt 0.264007 0.548518
vt 0.277612 0.547903
vt 0.268747 0.555467
vt 0.275021 0.546378
vt 0.280714 0.548498
vt 0.281954 0.545638
vt 0.276612 0.557409
vt 0.240880 0.530957
vt 0.248168 0.561486
vt 0.249693 0.550306
vt 0.246843 0.539760
vt 0.242415 0.571620
vt 0.762287 0.211045
vt 0.762255 0.210544
vt 0.761023 0.221925
vt 0.757316 0.212491
vt 0.750922 0.216572
vt 0.772804 0.220841
vt 0.791613 0.252007
vt 0.791097 0.255536
vt 0.780068 0.250772
vt 0.780487 0.263708
vt 0.804698 0.264828
vt 0.798786 0.238814
vt 0.221949 0.571626
vt 0.283377 0.553479
vn -0.0626 -0.9941 0.0880
vn -0.6891 -0.1207 0.7145
vn -0.4829 0.7315 0.4814
vn -0.5647 -0.5701 0.5967
vn -0.6609 0.3287 0.6747
vn -0.6912 0.6804 -0.2435
vn -0.7731 -0.6212 -0.1282
vn -0.9293 0.2629 -0.2594
vn 0.0626 0.9941 -0.0881
vn -0.9576 -0.1866 -0.2196
vn -0.2493 -0.7019 -0.6672
vn 0.5679 -0.4656 -0.6788
vn -0.2826 -0.2906 -0.9142
vn 0.0927 0.9955 0.0187
vn 0.4829 -0.7315 -0.4814
vn 0.7230 0.5257 0.4482
vn 0.6609 -0.3287 -0.6747
vn 0.3535 -0.8697 -0.3446
vn 0.6912 -0.6804 0.2435
vn 0.9576 0.1866 0.2196
vn 0.0626 0.9941 -0.0880
vn 0.9293 -0.2629 0.2594
vn 0.7731 0.6212 0.1282
vn 0.1674 -0.5997 0.7825
vn 0.2826 0.2906 0.9142
vn 0.2543 -0.1589 0.9540
vn 0.2493 0.7019 0.6672
vn -0.0626 -0.9942 0.0880
vn 0.6225 -0.4617 -0.6319
vn 0.1818 0.9606 -0.2103
vn -0.4260 0.4701 -0.7730
vn -0.1044 0.9909 0.0844
vn 0.9554 0.0344 0.2935
vn -0.2482 0.1592 -0.9555
vn -0.2780 -0.4523 -0.8474
vn -0.0171 0.9354 -0.3531
vn -0.9098 0.2639 -0.3203
vn -0.2426 -0.7353 -0.6328
vn 0.7655 0.4736 -0.4354
vn -0.7361 0.6695 0.0997
vn -0.0626 -0.9941 0.0881
vn -0.5648 -0.5701 0.5967
vn 0.6124 0.1314 -0.7796
vn 0.4828 -0.7315 -0.4814
vn 0.7749 0.4976 0.3899
vn 0.1818 0.9606 -0.2104
vn -0.4833 0.4981 -0.7199
vn 0.9590 0.1867 0.2134
vn -0.3245 0.0051 -0.9459
vn -0.9318 -0.2665 -0.2463
vn 0.7644 0.5722 -0.2971
vn -0.7970 0.6036 0.0203
s off
f 101/131/112 111/132/112 89/133/112
f 87/134/113 93/135/113 88/136/113
f 85/137/114 91/138/114 86/139/114
f 89/140/115 93/135/115 94/141/115
f 86/139/116 92/142/116 87/134/116
f 90/143/117 113/144/117 91/145/117
f 93/146/118 97/147/118 94/148/118
f 91/145/119 95/149/119 92/150/119
f 85/151/120 112/152/120 90/143/120
f 92/150/121 96/153/121 93/146/121
f 97/147/122 100/154/122 101/131/122
f 114/155/123 126/156/123 122/157/123
f 95/149/124 100/154/124 96/153/124
f 112/158/125 125/159/125 123/160/125
f 100/154/126 106/161/126 101/131/126
f 103/162/127 119/163/127 102/164/127
f 99/165/128 105/166/128 100/154/128
f 104/167/129 118/168/129 120/169/129
f 106/161/130 110/170/130 111/132/130
f 103/171/131 109/172/131 104/173/131
f 85/151/132 102/174/132 98/175/132
f 104/173/133 110/170/133 105/166/133
f 102/174/134 108/176/134 103/171/134
f 111/177/135 88/136/135 89/140/135
f 108/178/136 87/134/136 109/179/136
f 109/179/137 88/136/137 110/180/137
f 107/181/138 86/139/138 108/178/138
f 97/147/139 89/133/139 94/148/139
f 115/182/140 120/169/140 118/168/140
f 115/182/141 119/163/141 116/183/141
f 114/184/142 117/185/142 115/182/142
f 102/164/143 117/185/143 98/186/143
f 103/162/144 120/169/144 116/183/144
f 114/184/145 118/168/145 99/187/145
f 121/188/146 126/156/146 124/189/146
f 121/188/147 125/159/147 122/157/147
f 113/190/148 124/189/148 95/191/148
f 95/191/149 126/156/149 99/192/149
f 114/155/150 125/159/150 98/193/150
f 113/190/151 123/160/151 121/188/151
f 101/131/152 106/161/152 111/132/152
f 87/134/113 92/142/113 93/135/113
f 85/137/114 90/194/114 91/138/114
f 89/140/153 88/136/153 93/135/153
f 86/139/116 91/138/116 92/142/116
f 90/143/117 112/152/117 113/144/117
f 93/146/118 96/153/118 97/147/118
f 91/145/119 113/144/119 95/149/119
f 85/151/120 98/175/120 112/152/120
f 92/150/121 95/149/121 96/153/121
f 97/147/122 96/153/122 100/154/122
f 114/155/154 99/192/154 126/156/154
f 95/149/124 99/165/124 100/154/124
f 112/158/125 98/193/125 125/159/125
f 100/154/155 105/166/155 106/161/155
f 103/162/156 116/183/156 119/163/156
f 99/165/128 104/173/128 105/166/128
f 104/167/129 99/187/129 118/168/129
f 106/161/130 105/166/130 110/170/130
f 103/171/131 108/176/131 109/172/131
f 85/151/120 107/195/120 102/174/120
f 104/173/133 109/172/133 110/170/133
f 102/174/134 107/195/134 108/176/134
f 111/177/135 110/180/135 88/136/135
f 108/178/136 86/139/136 87/134/136
f 109/179/137 87/134/137 88/136/137
f 107/181/138 85/137/138 86/139/138
f 97/147/152 101/131/152 89/133/152
f 115/182/140 116/183/140 120/169/140
f 115/182/157 117/185/157 119/163/157
f 114/184/158 98/186/158 117/185/158
f 102/164/143 119/163/143 117/185/143
f 103/162/159 104/167/159 120/169/159
f 114/184/160 115/182/160 118/168/160
f 121/188/146 122/157/146 126/156/146
f 121/188/147 123/160/147 125/159/147
f 113/190/161 121/188/161 124/189/161
f 95/191/149 124/189/149 126/156/149
f 114/155/162 122/157/162 125/159/162
f 113/190/163 112/158/163 123/160/163
