# Blender v2.81 (sub 16) OBJ File: 'garbage.blend'
# www.blender.org
v 0.913956 2.046021 -0.994680
v 0.913642 2.031363 -0.970050
v 0.913195 2.006356 -0.956049
v 0.912734 1.977698 -0.956430
v 0.912384 1.953070 -0.971090
v 0.889969 2.043002 -1.008174
v 0.872096 2.026135 -0.993422
v 0.865221 2.000318 -0.983037
v 0.871188 1.972470 -0.979802
v 0.888397 1.950051 -0.984584
v 0.865171 1.986697 -1.036709
v 0.871145 1.960674 -1.026284
v 0.888372 1.943241 -1.011420
v 0.913906 2.032400 -1.048353
v 0.913095 1.979114 -1.063394
v 0.912648 1.954107 -1.049393
v 0.912334 1.939449 -1.024763
v 0.937893 2.035419 -1.034859
v 0.955102 2.013000 -1.039641
v 0.961069 1.985152 -1.036406
v 0.954194 1.959335 -1.026021
v 0.936320 1.942468 -1.011269
v 0.937918 2.042229 -1.008023
v 0.955145 2.024796 -0.993159
v 0.961119 1.998773 -0.982734
v 0.954237 1.971131 -0.979540
v 0.936345 1.949279 -0.984433
v 0.889944 2.036191 -1.035010
v 0.872053 2.014339 -1.039903
v 0.913556 2.007772 -1.063013
v 0.953272 2.020284 -1.091227
v 0.956661 2.020711 -1.089321
v 0.931550 2.033548 -1.065629
v 0.939048 1.991368 -1.077269
v 0.943423 2.035042 -1.058949
v 0.957465 1.993686 -1.066909
v 0.868000 2.022510 -1.087483
v 0.877823 2.020955 -1.092953
v 0.879252 2.030823 -1.075068
v 0.874061 2.003589 -1.075766
v 0.883754 2.030110 -1.077574
v 0.878576 2.002874 -1.078280
vt 0.274240 0.539347
vt 0.265397 0.539709
vt 0.266768 0.532487
vt 0.231414 0.551290
vt 0.214659 0.541092
vt 0.231357 0.542861
vt 0.231940 0.569242
vt 0.215985 0.562822
vt 0.231472 0.559719
vt 0.230890 0.533338
vt 0.220414 0.530957
vt 0.213134 0.552274
vt 0.289666 0.544440
vt 0.282983 0.540904
vt 0.290637 0.536818
vt 0.279682 0.529141
vt 0.275518 0.536619
vt 0.273707 0.532162
vt 0.280945 0.538772
vt 0.286431 0.530872
vt 0.290637 0.551375
vt 0.284312 0.543753
vt 0.278488 0.537315
vt 0.276318 0.541045
vt 0.804698 0.251197
vt 0.792375 0.255919
vt 0.792638 0.252041
vt 0.786357 0.239035
vt 0.792578 0.249274
vt 0.791489 0.249454
vt 0.271776 0.541127
vt 0.760733 0.199751
vt 0.757502 0.209505
vt 0.750621 0.206121
vt 0.278108 0.542645
vt 0.273009 0.544115
vt 0.772804 0.201934
vt 0.766718 0.213101
vt 0.766203 0.208706
vt 0.264007 0.548518
vt 0.277612 0.547903
vt 0.268747 0.555467
vt 0.275021 0.546378
vt 0.280714 0.548498
vt 0.281954 0.545638
vt 0.276612 0.557409
vt 0.240880 0.530957
vt 0.248168 0.561486
vt 0.249693 0.550306
vt 0.246843 0.539760
vt 0.242415 0.571620
vt 0.762287 0.211045
vt 0.762255 0.210544
vt 0.761023 0.221925
vt 0.757316 0.212491
vt 0.750922 0.216572
vt 0.772804 0.220841
vt 0.791613 0.252007
vt 0.791097 0.255536
vt 0.780068 0.250772
vt 0.780487 0.263708
vt 0.804698 0.264828
vt 0.798786 0.238814
vt 0.221949 0.571626
vt 0.283377 0.553479
vn -0.0164 -0.9691 0.2460
vn -0.4899 -0.0037 0.8718
vn -0.3666 0.8016 0.4723
vn -0.3881 -0.4673 0.7944
vn -0.4825 0.4344 0.7606
vn -0.7451 0.6466 -0.1634
vn -0.7666 -0.6223 0.1586
vn -0.9703 0.2348 -0.0587
vn 0.0164 0.9691 -0.2460
vn -0.9777 -0.2034 0.0525
vn -0.3892 -0.7894 -0.4747
vn 0.3946 -0.5691 -0.7215
vn -0.4915 -0.4187 -0.7636
vn 0.0718 0.9859 -0.1513
vn 0.3666 -0.8016 -0.4723
vn 0.7987 0.5759 0.1744
vn 0.4825 -0.4344 -0.7606
vn 0.2779 -0.9160 -0.2891
vn 0.7451 -0.6466 0.1634
vn 0.9777 0.2034 -0.0525
vn 0.9703 -0.2348 0.0587
vn 0.7666 0.6223 -0.1586
vn 0.3678 -0.4795 0.7968
vn 0.4915 0.4187 0.7636
vn 0.4840 -0.0194 0.8748
vn 0.3892 0.7894 0.4747
vn 0.4589 -0.5591 -0.6906
vn 0.1027 0.9161 -0.3875
vn -0.6131 0.3565 -0.7050
vn -0.1030 0.9939 -0.0392
vn 0.9971 0.0638 0.0412
vn -0.4785 0.0194 -0.8779
vn -0.4670 -0.5688 -0.6770
vn -0.1245 0.8730 -0.4716
vn -0.9663 0.2265 -0.1220
vn -0.3735 -0.8174 -0.4385
vn 0.6244 0.3929 -0.6751
vn -0.7042 0.6873 0.1780
vn -0.4899 -0.0037 0.8717
vn 0.3993 0.0058 -0.9168
vn 0.8353 0.5388 0.1098
vn 0.2779 -0.9161 -0.2891
vn 0.3678 -0.4795 0.7967
vn 0.4588 -0.5591 -0.6906
vn -0.6563 0.3928 -0.6442
vn 0.9775 0.2026 -0.0588
vn -0.5466 -0.1305 -0.8272
vn -0.9575 -0.2867 0.0323
vn 0.6550 0.5109 -0.5567
vn -0.7812 0.6113 0.1266
s off
f 17/1/1 27/2/1 5/3/1
f 3/4/2 9/5/2 4/6/2
f 1/7/3 7/8/3 2/9/3
f 5/10/4 9/5/4 10/11/4
f 2/9/5 8/12/5 3/4/5
f 6/13/6 29/14/6 7/15/6
f 9/16/7 13/17/7 10/18/7
f 7/15/8 11/19/8 8/20/8
f 1/21/9 28/22/9 6/13/9
f 8/20/10 12/23/10 9/16/10
f 13/17/11 16/24/11 17/1/11
f 30/25/12 42/26/12 38/27/12
f 11/19/13 16/24/13 12/23/13
f 28/28/14 41/29/14 39/30/14
f 16/24/15 22/31/15 17/1/15
f 19/32/16 35/33/16 18/34/16
f 15/35/17 21/36/17 16/24/17
f 20/37/18 34/38/18 36/39/18
f 22/31/19 26/40/19 27/2/19
f 19/41/20 25/42/20 20/43/20
f 1/21/9 18/44/9 14/45/9
f 20/43/21 26/40/21 21/36/21
f 18/44/22 24/46/22 19/41/22
f 27/47/23 4/6/23 5/10/23
f 24/48/24 3/4/24 25/49/24
f 25/49/25 4/6/25 26/50/25
f 23/51/26 2/9/26 24/48/26
f 13/17/1 5/3/1 10/18/1
f 31/52/27 36/39/27 34/38/27
f 31/52/28 35/33/28 32/53/28
f 30/54/29 33/55/29 31/52/29
f 18/34/30 33/55/30 14/56/30
f 19/32/31 36/39/31 32/53/31
f 30/54/32 34/38/32 15/57/32
f 37/58/33 42/26/33 40/59/33
f 37/58/34 41/29/34 38/27/34
f 29/60/35 40/59/35 11/61/35
f 11/61/36 42/26/36 15/62/36
f 30/25/37 41/29/37 14/63/37
f 29/60/38 39/30/38 37/58/38
f 17/1/1 22/31/1 27/2/1
f 3/4/39 8/12/39 9/5/39
f 1/7/3 6/64/3 7/8/3
f 5/10/4 4/6/4 9/5/4
f 2/9/5 7/8/5 8/12/5
f 6/13/6 28/22/6 29/14/6
f 9/16/7 12/23/7 13/17/7
f 7/15/8 29/14/8 11/19/8
f 1/21/9 14/45/9 28/22/9
f 8/20/10 11/19/10 12/23/10
f 13/17/11 12/23/11 16/24/11
f 30/25/40 15/62/40 42/26/40
f 11/19/13 15/35/13 16/24/13
f 28/28/14 14/63/14 41/29/14
f 16/24/15 21/36/15 22/31/15
f 19/32/41 32/53/41 35/33/41
f 15/35/17 20/43/17 21/36/17
f 20/37/42 15/57/42 34/38/42
f 22/31/19 21/36/19 26/40/19
f 19/41/20 24/46/20 25/42/20
f 1/21/9 23/65/9 18/44/9
f 20/43/21 25/42/21 26/40/21
f 18/44/22 23/65/22 24/46/22
f 27/47/43 26/50/43 4/6/43
f 24/48/24 2/9/24 3/4/24
f 25/49/25 3/4/25 4/6/25
f 23/51/26 1/7/26 2/9/26
f 13/17/1 17/1/1 5/3/1
f 31/52/44 32/53/44 36/39/44
f 31/52/28 33/55/28 35/33/28
f 30/54/45 14/56/45 33/55/45
f 18/34/30 35/33/30 33/55/30
f 19/32/46 20/37/46 36/39/46
f 30/54/47 31/52/47 34/38/47
f 37/58/33 38/27/33 42/26/33
f 37/58/34 39/30/34 41/29/34
f 29/60/48 37/58/48 40/59/48
f 11/61/36 40/59/36 42/26/36
f 30/25/49 38/27/49 41/29/49
f 29/60/50 28/28/50 39/30/50
v -0.182415 2.848765 -7.764703
v -0.165805 2.827673 -7.774745
v -0.160704 2.799708 -7.778425
v -0.168477 2.772364 -7.774755
v -0.187042 2.752967 -7.764720
v -0.182565 2.848768 -7.737017
v -0.166066 2.827677 -7.726791
v -0.161004 2.799713 -7.723052
v -0.168737 2.772368 -7.726801
v -0.187192 2.752969 -7.737033
v -0.209053 2.802029 -7.695626
v -0.210348 2.774374 -7.703049
v -0.211216 2.754127 -7.723320
v -0.230463 2.851081 -7.737277
v -0.256801 2.804340 -7.723572
v -0.251700 2.776375 -7.727252
v -0.235090 2.755283 -7.737294
v -0.230313 2.851079 -7.764964
v -0.248768 2.831680 -7.775196
v -0.256501 2.804335 -7.778945
v -0.251439 2.776371 -7.775206
v -0.234940 2.755280 -7.764980
v -0.206289 2.849921 -7.778677
v -0.207157 2.829674 -7.798948
v -0.208452 2.802019 -7.806371
v -0.209828 2.774365 -7.798958
v -0.210916 2.754122 -7.778693
v -0.206589 2.849926 -7.723304
v -0.207677 2.829683 -7.703039
v -0.249028 2.831684 -7.727242
v -0.288607 2.853340 -7.749480
v -0.288585 2.853340 -7.753393
v -0.253153 2.857836 -7.744392
v -0.277795 2.821089 -7.740746
v -0.253079 2.857835 -7.758097
v -0.277680 2.821087 -7.762003
v -0.242866 2.850956 -7.677423
v -0.252654 2.851429 -7.683151
v -0.235910 2.855816 -7.694091
v -0.241231 2.829734 -7.686311
v -0.240395 2.856033 -7.696717
v -0.245729 2.829952 -7.688944
vt 0.274240 0.539347
vt 0.265397 0.539709
vt 0.266768 0.532487
vt 0.231414 0.551290
vt 0.214659 0.541092
vt 0.231357 0.542861
vt 0.231940 0.569242
vt 0.215985 0.562822
vt 0.231472 0.559719
vt 0.230890 0.533338
vt 0.220414 0.530957
vt 0.213134 0.552274
vt 0.289666 0.544440
vt 0.282983 0.540904
vt 0.290637 0.536818
vt 0.279682 0.529141
vt 0.275518 0.536619
vt 0.273707 0.532162
vt 0.280945 0.538772
vt 0.286431 0.530872
vt 0.290637 0.551375
vt 0.284312 0.543753
vt 0.278488 0.537315
vt 0.276318 0.541045
vt 0.804698 0.251197
vt 0.792375 0.255919
vt 0.792638 0.252041
vt 0.786357 0.239035
vt 0.792578 0.249274
vt 0.791489 0.249454
vt 0.271776 0.541127
vt 0.760733 0.199751
vt 0.757502 0.209505
vt 0.750621 0.206121
vt 0.278108 0.542645
vt 0.273009 0.544115
vt 0.772804 0.201934
vt 0.766718 0.213101
vt 0.766203 0.208706
vt 0.264007 0.548518
vt 0.277612 0.547903
vt 0.268747 0.555467
vt 0.275021 0.546378
vt 0.280714 0.548498
vt 0.281954 0.545638
vt 0.276612 0.557409
vt 0.240880 0.530957
vt 0.248168 0.561486
vt 0.249693 0.550306
vt 0.246843 0.539760
vt 0.242415 0.571620
vt 0.762287 0.211045
vt 0.762255 0.210544
vt 0.761023 0.221925
vt 0.757316 0.212491
vt 0.750922 0.216572
vt 0.772804 0.220841
vt 0.791613 0.252007
vt 0.791097 0.255536
vt 0.780068 0.250772
vt 0.780487 0.263708
vt 0.804698 0.264828
vt 0.798786 0.238814
vt 0.221949 0.571626
vt 0.283377 0.553479
vn -0.0482 -0.9988 -0.0002
vn 0.9621 -0.2728 0.0052
vn 0.7866 0.6174 0.0042
vn 0.7234 -0.6904 0.0040
vn 0.9839 0.1788 0.0053
vn 0.4055 0.6357 0.6568
vn 0.3424 -0.6721 0.6566
vn 0.4928 0.2024 0.8463
vn 0.0482 0.9988 0.0002
vn 0.4710 -0.2492 0.8462
vn -0.4127 -0.6356 0.6525
vn -0.9442 -0.3224 0.0668
vn -0.5020 -0.2022 0.8409
vn 0.1038 0.9900 -0.0954
vn -0.7866 -0.6174 -0.0042
vn -0.0951 0.5337 -0.8403
vn -0.9839 -0.1788 -0.0053
vn -0.6220 -0.7830 -0.0033
vn -0.4055 -0.6357 -0.6568
vn -0.4710 0.2492 -0.8462
vn -0.4928 -0.2024 -0.8463
vn -0.3424 0.6721 -0.6566
vn 0.3495 -0.6722 -0.6527
vn 0.5020 0.2022 -0.8409
vn 0.4802 -0.2493 -0.8410
vn 0.4127 0.6356 -0.6525
vn -0.0482 -0.9988 -0.0001
vn -0.9477 -0.3191 -0.0051
vn -0.1257 0.9921 -0.0007
vn -0.1856 0.5182 0.8349
vn 0.2849 0.9586 0.0015
vn -0.4404 0.0896 -0.8933
vn -0.4854 0.2504 0.8377
vn -0.4826 -0.3697 0.7940
vn -0.0948 0.9656 0.2420
vn 0.4362 0.2127 0.8743
vn -0.3980 -0.6721 0.6244
vn -0.7612 0.5946 -0.2590
vn 0.6788 0.5786 0.4521
vn 0.7235 -0.6904 0.0040
vn 0.4056 0.6357 0.6568
vn 0.4928 0.2023 0.8463
vn -0.9541 0.2840 0.0950
vn 0.1038 0.9900 -0.0955
vn -0.1765 0.5181 -0.8369
vn 0.4802 -0.2494 -0.8410
vn -0.1257 0.9921 -0.0008
vn -0.1042 0.5338 0.8391
vn -0.4763 0.2503 -0.8429
vn -0.4501 0.0897 0.8885
vn -0.0949 0.9656 0.2419
vn 0.4220 -0.3224 0.8474
vn -0.3979 -0.6723 0.6243
vn -0.6468 0.6748 -0.3554
vn 0.6539 0.5174 0.5520
s off
f 59/66/51 69/67/51 47/68/51
f 45/69/52 51/70/52 46/71/52
f 43/72/53 49/73/53 44/74/53
f 47/75/54 51/70/54 52/76/54
f 44/74/55 50/77/55 45/69/55
f 48/78/56 71/79/56 49/80/56
f 51/81/57 55/82/57 52/83/57
f 49/80/58 53/84/58 50/85/58
f 43/86/59 70/87/59 48/78/59
f 50/85/60 54/88/60 51/81/60
f 55/82/61 58/89/61 59/66/61
f 72/90/62 84/91/62 80/92/62
f 53/84/63 58/89/63 54/88/63
f 70/93/64 83/94/64 81/95/64
f 58/89/65 64/96/65 59/66/65
f 61/97/66 77/98/66 60/99/66
f 57/100/67 63/101/67 58/89/67
f 62/102/68 76/103/68 78/104/68
f 64/96/69 68/105/69 69/67/69
f 61/106/70 67/107/70 62/108/70
f 43/86/59 60/109/59 56/110/59
f 62/108/71 68/105/71 63/101/71
f 60/109/72 66/111/72 61/106/72
f 69/112/73 46/71/73 47/75/73
f 66/113/74 45/69/74 67/114/74
f 67/114/75 46/71/75 68/115/75
f 65/116/76 44/74/76 66/113/76
f 55/82/77 47/68/77 52/83/77
f 73/117/78 78/104/78 76/103/78
f 73/117/79 77/98/79 74/118/79
f 72/119/80 75/120/80 73/117/80
f 60/99/81 75/120/81 56/121/81
f 61/97/82 78/104/82 74/118/82
f 72/119/83 76/103/83 57/122/83
f 79/123/84 84/91/84 82/124/84
f 79/123/85 83/94/85 80/92/85
f 71/125/86 82/124/86 53/126/86
f 53/126/87 84/91/87 57/127/87
f 72/90/88 83/94/88 56/128/88
f 71/125/89 81/95/89 79/123/89
f 59/66/51 64/96/51 69/67/51
f 45/69/52 50/77/52 51/70/52
f 43/72/53 48/129/53 49/73/53
f 47/75/90 46/71/90 51/70/90
f 44/74/55 49/73/55 50/77/55
f 48/78/91 70/87/91 71/79/91
f 51/81/57 54/88/57 55/82/57
f 49/80/92 71/79/92 53/84/92
f 43/86/59 56/110/59 70/87/59
f 50/85/60 53/84/60 54/88/60
f 55/82/61 54/88/61 58/89/61
f 72/90/93 57/127/93 84/91/93
f 53/84/63 57/100/63 58/89/63
f 70/93/94 56/128/94 83/94/94
f 58/89/65 63/101/65 64/96/65
f 61/97/95 74/118/95 77/98/95
f 57/100/67 62/108/67 63/101/67
f 62/102/68 57/122/68 76/103/68
f 64/96/69 63/101/69 68/105/69
f 61/106/70 66/111/70 67/107/70
f 43/86/59 65/130/59 60/109/59
f 62/108/71 67/107/71 68/105/71
f 60/109/72 65/130/72 66/111/72
f 69/112/73 68/115/73 46/71/73
f 66/113/74 44/74/74 45/69/74
f 67/114/96 45/69/96 46/71/96
f 65/116/76 43/72/76 44/74/76
f 55/82/51 59/66/51 47/68/51
f 73/117/78 74/118/78 78/104/78
f 73/117/97 75/120/97 77/98/97
f 72/119/98 56/121/98 75/120/98
f 60/99/81 77/98/81 75/120/81
f 61/97/99 62/102/99 78/104/99
f 72/119/100 73/117/100 76/103/100
f 79/123/84 80/92/84 84/91/84
f 79/123/101 81/95/101 83/94/101
f 71/125/102 79/123/102 82/124/102
f 53/126/103 82/124/103 84/91/103
f 72/90/104 80/92/104 83/94/104
f 71/125/105 70/93/105 81/95/105
v 1.217566 3.681264 -3.272437
v 1.220995 3.666012 -3.248411
v 1.217326 3.641672 -3.233724
v 1.207544 3.614767 -3.232310
v 1.194269 3.592505 -3.244548
v 1.190805 3.686954 -3.276685
v 1.174643 3.675866 -3.255769
v 1.163804 3.653051 -3.242220
v 1.161193 3.624621 -3.239668
v 1.167508 3.598194 -3.248796
v 1.140987 3.643475 -3.291757
v 1.141433 3.616328 -3.282568
v 1.156100 3.593406 -3.273565
v 1.194749 3.671688 -3.321974
v 1.171692 3.622521 -3.332798
v 1.168024 3.598181 -3.318111
v 1.171452 3.582929 -3.294086
v 1.221510 3.665999 -3.317726
v 1.227826 3.639572 -3.326854
v 1.225214 3.611142 -3.324302
v 1.214375 3.588327 -3.310753
v 1.198213 3.577240 -3.289837
v 1.232919 3.670787 -3.292957
v 1.247586 3.647865 -3.283954
v 1.248031 3.620718 -3.274765
v 1.234135 3.596620 -3.267853
v 1.209621 3.582027 -3.265069
v 1.179397 3.682166 -3.301453
v 1.154883 3.667573 -3.298670
v 1.181474 3.649426 -3.334212
v 1.210896 3.650194 -3.375001
v 1.214678 3.649390 -3.374401
v 1.204773 3.668151 -3.344292
v 1.193795 3.626596 -3.355405
v 1.218020 3.665335 -3.342189
v 1.214342 3.622228 -3.352144
v 1.137650 3.679504 -3.342347
v 1.143944 3.675208 -3.350760
v 1.154513 3.682979 -3.335037
v 1.140907 3.658960 -3.332377
v 1.157398 3.681011 -3.338893
v 1.143800 3.656986 -3.336244
vt 0.274240 0.539347
vt 0.265397 0.539709
vt 0.266768 0.532487
vt 0.231414 0.551290
vt 0.214659 0.541092
vt 0.231357 0.542861
vt 0.231940 0.569242
vt 0.215985 0.562822
vt 0.231472 0.559719
vt 0.230890 0.533338
vt 0.220414 0.530957
vt 0.213134 0.552274
vt 0.289666 0.544440
vt 0.282983 0.540904
vt 0.290637 0.536818
vt 0.279682 0.529141
vt 0.275518 0.536619
vt 0.273707 0.532162
vt 0.280945 0.538772
vt 0.286431 0.530872
vt 0.290637 0.551375
vt 0.284312 0.543753
vt 0.278488 0.537315
vt 0.276318 0.541045
vt 0.804698 0.251197
vt 0.792375 0.255919
vt 0.792638 0.252041
vt 0.786357 0.239035
vt 0.792578 0.249274
vt 0.791489 0.249454
vt 0.271776 0.541127
vt 0.760733 0.199751
vt 0.757502 0.209505
vt 0.750621 0.206121
vt 0.278108 0.542645
vt 0.273009 0.544115
vt 0.772804 0.201934
vt 0.766718 0.213101
vt 0.766203 0.208706
vt 0.264007 0.548518
vt 0.277612 0.547903
vt 0.268747 0.555467
vt 0.275021 0.546378
vt 0.280714 0.548498
vt 0.281954 0.545638
vt 0.276612 0.557409
vt 0.240880 0.530957
vt 0.248168 0.561486
vt 0.249693 0.550306
vt 0.246843 0.539760
vt 0.242415 0.571620
vt 0.762287 0.211045
vt 0.762255 0.210544
vt 0.761023 0.221925
vt 0.757316 0.212491
vt 0.750922 0.216572
vt 0.772804 0.220841
vt 0.791613 0.252007
vt 0.791097 0.255536
vt 0.780068 0.250772
vt 0.780487 0.263708
vt 0.804698 0.264828
vt 0.798786 0.238814
vt 0.221949 0.571626
vt 0.283377 0.553479
vn -0.2429 -0.9254 0.2908
vn -0.1350 0.1009 0.9857
vn 0.0969 0.8465 0.5235
vn -0.2212 -0.3652 0.9043
vn -0.0252 0.5193 0.8542
vn -0.5048 0.8607 0.0661
vn -0.8229 -0.3510 0.4469
vn -0.8005 0.5376 0.2648
vn 0.2429 0.9254 -0.2908
vn -0.9104 0.1192 0.3963
vn -0.7607 -0.5916 -0.2670
vn -0.0825 -0.6206 -0.7798
vn -0.8302 -0.1909 -0.5237
vn 0.3296 0.9177 -0.2219
vn -0.0968 -0.8465 -0.5236
vn 0.9503 0.2765 -0.1431
vn 0.0252 -0.5193 -0.8542
vn -0.1493 -0.9373 -0.3149
vn 0.5048 -0.8607 -0.0661
vn 0.9104 -0.1192 -0.3963
vn 0.8005 -0.5376 -0.2648
vn 0.8229 0.3510 -0.4469
vn 0.4426 -0.6201 0.6478
vn 0.8303 0.1909 0.5237
vn 0.7204 -0.2275 0.6551
vn 0.7607 0.5916 0.2670
vn -0.2429 -0.9255 0.2907
vn -0.0119 -0.6337 -0.7735
vn 0.2535 0.8562 -0.4501
vn -0.6674 0.5771 -0.4706
vn 0.2163 0.9746 -0.0573
vn 0.9146 -0.2630 -0.3072
vn -0.7166 0.2259 -0.6599
vn -0.8274 -0.3459 -0.4424
vn 0.0103 0.8937 -0.4486
vn -0.8214 0.5324 0.2046
vn -0.7435 -0.6254 -0.2369
vn 0.4466 0.2116 -0.8694
vn -0.3387 0.8651 0.3699
vn -0.5048 0.8607 0.0662
vn 0.0403 -0.0670 -0.9969
vn -0.8303 -0.1909 -0.5237
vn -0.0969 -0.8465 -0.5235
vn 0.9485 0.2336 -0.2140
vn 0.5048 -0.8607 -0.0662
vn 0.4427 -0.6201 0.6478
vn 0.7204 -0.2275 0.6552
vn -0.6730 0.6217 -0.4008
vn 0.9078 -0.1195 -0.4021
vn -0.8076 0.1031 -0.5806
vn -0.9263 0.0352 0.3751
vn 0.5522 0.3060 -0.7756
vn -0.4488 0.8212 0.3524
s off
f 101/131/106 111/132/106 89/133/106
f 87/134/107 93/135/107 88/136/107
f 85/137/108 91/138/108 86/139/108
f 89/140/109 93/135/109 94/141/109
f 86/139/110 92/142/110 87/134/110
f 90/143/111 113/144/111 91/145/111
f 93/146/112 97/147/112 94/148/112
f 91/145/113 95/149/113 92/150/113
f 85/151/114 112/152/114 90/143/114
f 92/150/115 96/153/115 93/146/115
f 97/147/116 100/154/116 101/131/116
f 114/155/117 126/156/117 122/157/117
f 95/149/118 100/154/118 96/153/118
f 112/158/119 125/159/119 123/160/119
f 100/154/120 106/161/120 101/131/120
f 103/162/121 119/163/121 102/164/121
f 99/165/122 105/166/122 100/154/122
f 104/167/123 118/168/123 120/169/123
f 106/161/124 110/170/124 111/132/124
f 103/171/125 109/172/125 104/173/125
f 85/151/114 102/174/114 98/175/114
f 104/173/126 110/170/126 105/166/126
f 102/174/127 108/176/127 103/171/127
f 111/177/128 88/136/128 89/140/128
f 108/178/129 87/134/129 109/179/129
f 109/179/130 88/136/130 110/180/130
f 107/181/131 86/139/131 108/178/131
f 97/147/132 89/133/132 94/148/132
f 115/182/133 120/169/133 118/168/133
f 115/182/134 119/163/134 116/183/134
f 114/184/135 117/185/135 115/182/135
f 102/164/136 117/185/136 98/186/136
f 103/162/137 120/169/137 116/183/137
f 114/184/138 118/168/138 99/187/138
f 121/188/139 126/156/139 124/189/139
f 121/188/140 125/159/140 122/157/140
f 113/190/141 124/189/141 95/191/141
f 95/191/142 126/156/142 99/192/142
f 114/155/143 125/159/143 98/193/143
f 113/190/144 123/160/144 121/188/144
f 101/131/106 106/161/106 111/132/106
f 87/134/107 92/142/107 93/135/107
f 85/137/108 90/194/108 91/138/108
f 89/140/109 88/136/109 93/135/109
f 86/139/110 91/138/110 92/142/110
f 90/143/145 112/152/145 113/144/145
f 93/146/112 96/153/112 97/147/112
f 91/145/113 113/144/113 95/149/113
f 85/151/114 98/175/114 112/152/114
f 92/150/115 95/149/115 96/153/115
f 97/147/116 96/153/116 100/154/116
f 114/155/146 99/192/146 126/156/146
f 95/149/147 99/165/147 100/154/147
f 112/158/119 98/193/119 125/159/119
f 100/154/148 105/166/148 106/161/148
f 103/162/149 116/183/149 119/163/149
f 99/165/122 104/173/122 105/166/122
f 104/167/123 99/187/123 118/168/123
f 106/161/150 105/166/150 110/170/150
f 103/171/125 108/176/125 109/172/125
f 85/151/114 107/195/114 102/174/114
f 104/173/126 109/172/126 110/170/126
f 102/174/127 107/195/127 108/176/127
f 111/177/151 110/180/151 88/136/151
f 108/178/129 86/139/129 87/134/129
f 109/179/152 87/134/152 88/136/152
f 107/181/131 85/137/131 86/139/131
f 97/147/106 101/131/106 89/133/106
f 115/182/133 116/183/133 120/169/133
f 115/182/134 117/185/134 119/163/134
f 114/184/153 98/186/153 117/185/153
f 102/164/136 119/163/136 117/185/136
f 103/162/154 104/167/154 120/169/154
f 114/184/155 115/182/155 118/168/155
f 121/188/139 122/157/139 126/156/139
f 121/188/140 123/160/140 125/159/140
f 113/190/156 121/188/156 124/189/156
f 95/191/142 124/189/142 126/156/142
f 114/155/157 122/157/157 125/159/157
f 113/190/158 112/158/158 123/160/158
