# Blender v2.81 (sub 16) OBJ File: 'garbage.blend'
# www.blender.org
v -0.043747 1.995928 -1.976061
v -0.034333 1.979836 -1.954289
v -0.031691 1.954234 -1.941673
v -0.036530 1.925982 -1.941595
v -0.047552 1.902650 -1.954074
v -0.071412 1.997031 -1.976171
v -0.082250 1.981746 -1.954480
v -0.087021 1.956439 -1.941894
v -0.084446 1.927892 -1.941785
v -0.075217 1.903753 -1.954184
v -0.114938 1.946549 -1.988681
v -0.108623 1.919327 -1.982305
v -0.089175 1.898808 -1.977578
v -0.071664 1.986039 -2.022848
v -0.087525 1.934455 -2.035249
v -0.084883 1.908852 -2.022633
v -0.075469 1.892760 -2.000861
v -0.044000 1.984936 -2.022738
v -0.034770 1.960797 -2.035137
v -0.032196 1.932250 -2.035028
v -0.036967 1.906943 -2.022443
v -0.047805 1.891658 -2.000751
v -0.030041 1.989881 -1.999344
v -0.010593 1.969362 -1.994617
v -0.004279 1.942139 -1.988241
v -0.012790 1.915508 -1.981923
v -0.033846 1.896603 -1.977357
v -0.085370 1.992086 -1.999565
v -0.106426 1.973181 -1.994999
v -0.082687 1.962707 -2.035327
v -0.060115 1.971678 -2.079373
v -0.056205 1.971522 -2.079357
v -0.064576 1.985978 -2.046530
v -0.069973 1.944045 -2.060071
v -0.050882 1.985432 -2.046476
v -0.048732 1.943199 -2.059987
v -0.131629 1.984967 -2.034659
v -0.126010 1.982488 -2.044205
v -0.114696 1.990865 -2.029335
v -0.123561 1.964671 -2.027243
v -0.112121 1.989729 -2.033710
v -0.120979 1.963531 -2.031630
vt 0.274240 0.539347
vt 0.265397 0.539709
vt 0.266768 0.532487
vt 0.231414 0.551290
vt 0.214659 0.541092
vt 0.231357 0.542861
vt 0.231940 0.569242
vt 0.215985 0.562822
vt 0.231472 0.559719
vt 0.230890 0.533338
vt 0.220414 0.530957
vt 0.213134 0.552274
vt 0.289666 0.544440
vt 0.282983 0.540904
vt 0.290637 0.536818
vt 0.279682 0.529141
vt 0.275518 0.536619
vt 0.273707 0.532162
vt 0.280945 0.538772
vt 0.286431 0.530872
vt 0.290637 0.551375
vt 0.284312 0.543753
vt 0.278488 0.537315
vt 0.276318 0.541045
vt 0.804698 0.251197
vt 0.792375 0.255919
vt 0.792638 0.252041
vt 0.786357 0.239035
vt 0.792578 0.249274
vt 0.791489 0.249454
vt 0.271776 0.541127
vt 0.760733 0.199751
vt 0.757502 0.209505
vt 0.750621 0.206121
vt 0.278108 0.542645
vt 0.273009 0.544115
vt 0.772804 0.201934
vt 0.766718 0.213101
vt 0.766203 0.208706
vt 0.264007 0.548518
vt 0.277612 0.547903
vt 0.268747 0.555467
vt 0.275021 0.546378
vt 0.280714 0.548498
vt 0.281954 0.545638
vt 0.276612 0.557409
vt 0.240880 0.530957
vt 0.248168 0.561486
vt 0.249693 0.550306
vt 0.246843 0.539760
vt 0.242415 0.571620
vt 0.762287 0.211045
vt 0.762255 0.210544
vt 0.761023 0.221925
vt 0.757316 0.212491
vt 0.750922 0.216572
vt 0.772804 0.220841
vt 0.791613 0.252007
vt 0.791097 0.255536
vt 0.780068 0.250772
vt 0.780487 0.263708
vt 0.804698 0.264828
vt 0.798786 0.238814
vt 0.221949 0.571626
vt 0.283377 0.553479
vn -0.0397 -0.9726 0.2293
vn -0.0038 0.0034 1.0000
vn 0.0299 0.8100 0.5857
vn -0.0220 -0.4634 0.8859
vn 0.0141 0.4431 0.8963
vn -0.6262 0.7494 0.2152
vn -0.6781 -0.5240 0.5154
vn -0.8314 0.3651 0.4189
vn 0.0397 0.9726 -0.2293
vn -0.8493 -0.0746 0.5226
vn -0.6821 -0.6973 -0.2204
vn -0.0912 -0.5672 -0.8185
vn -0.8545 -0.2979 -0.4256
vn 0.1356 0.9754 -0.1736
vn -0.0299 -0.8100 -0.5857
vn 0.8594 0.4517 -0.2397
vn -0.0141 -0.4431 -0.8963
vn -0.0353 -0.9236 -0.3818
vn 0.6262 -0.7494 -0.2152
vn 0.8493 0.0746 -0.5225
vn 0.0397 0.9726 -0.2292
vn 0.8314 -0.3651 -0.4189
vn 0.6781 0.5240 -0.5154
vn 0.6301 -0.5761 0.5206
vn 0.8545 0.2979 0.4256
vn 0.8365 -0.1418 0.5293
vn 0.6821 0.6973 0.2204
vn -0.0397 -0.9726 0.2292
vn -0.0193 -0.5679 -0.8229
vn 0.0382 0.9181 -0.3946
vn -0.8161 0.4810 -0.3203
vn 0.0398 0.9992 0.0094
vn 0.8905 -0.0722 -0.4492
vn -0.8332 0.1412 -0.5346
vn -0.8139 -0.4554 -0.3608
vn -0.2050 0.9112 -0.3573
vn -0.8597 0.3606 0.3617
vn -0.6553 -0.7295 -0.1963
vn 0.2725 0.3505 -0.8960
vn -0.4204 0.7615 0.4934
vn -0.8493 -0.0746 0.5225
vn -0.0958 0.0136 -0.9953
vn 0.1356 0.9755 -0.1735
vn -0.0300 -0.8100 -0.5857
vn 0.8543 0.4144 -0.3136
vn -0.0194 -0.5679 -0.8229
vn -0.8188 0.5186 -0.2464
vn 0.0398 0.9992 0.0093
vn 0.8460 0.0743 -0.5279
vn -0.8898 -0.0013 -0.4563
vn -0.8540 -0.1584 0.4956
vn 0.3735 0.4552 -0.8083
vn -0.5229 0.6999 0.4864
s off
f 17/1/1 27/2/1 5/3/1
f 3/4/2 9/5/2 4/6/2
f 1/7/3 7/8/3 2/9/3
f 5/10/4 9/5/4 10/11/4
f 2/9/5 8/12/5 3/4/5
f 6/13/6 29/14/6 7/15/6
f 9/16/7 13/17/7 10/18/7
f 7/15/8 11/19/8 8/20/8
f 1/21/9 28/22/9 6/13/9
f 8/20/10 12/23/10 9/16/10
f 13/17/11 16/24/11 17/1/11
f 30/25/12 42/26/12 38/27/12
f 11/19/13 16/24/13 12/23/13
f 28/28/14 41/29/14 39/30/14
f 16/24/15 22/31/15 17/1/15
f 19/32/16 35/33/16 18/34/16
f 15/35/17 21/36/17 16/24/17
f 20/37/18 34/38/18 36/39/18
f 22/31/19 26/40/19 27/2/19
f 19/41/20 25/42/20 20/43/20
f 1/21/21 18/44/21 14/45/21
f 20/43/22 26/40/22 21/36/22
f 18/44/23 24/46/23 19/41/23
f 27/47/24 4/6/24 5/10/24
f 24/48/25 3/4/25 25/49/25
f 25/49/26 4/6/26 26/50/26
f 23/51/27 2/9/27 24/48/27
f 13/17/28 5/3/28 10/18/28
f 31/52/29 36/39/29 34/38/29
f 31/52/30 35/33/30 32/53/30
f 30/54/31 33/55/31 31/52/31
f 18/34/32 33/55/32 14/56/32
f 19/32/33 36/39/33 32/53/33
f 30/54/34 34/38/34 15/57/34
f 37/58/35 42/26/35 40/59/35
f 37/58/36 41/29/36 38/27/36
f 29/60/37 40/59/37 11/61/37
f 11/61/38 42/26/38 15/62/38
f 30/25/39 41/29/39 14/63/39
f 29/60/40 39/30/40 37/58/40
f 17/1/1 22/31/1 27/2/1
f 3/4/2 8/12/2 9/5/2
f 1/7/3 6/64/3 7/8/3
f 5/10/4 4/6/4 9/5/4
f 2/9/5 7/8/5 8/12/5
f 6/13/6 28/22/6 29/14/6
f 9/16/7 12/23/7 13/17/7
f 7/15/8 29/14/8 11/19/8
f 1/21/9 14/45/9 28/22/9
f 8/20/41 11/19/41 12/23/41
f 13/17/11 12/23/11 16/24/11
f 30/25/42 15/62/42 42/26/42
f 11/19/13 15/35/13 16/24/13
f 28/28/43 14/63/43 41/29/43
f 16/24/44 21/36/44 22/31/44
f 19/32/45 32/53/45 35/33/45
f 15/35/17 20/43/17 21/36/17
f 20/37/18 15/57/18 34/38/18
f 22/31/19 21/36/19 26/40/19
f 19/41/20 24/46/20 25/42/20
f 1/21/21 23/65/21 18/44/21
f 20/43/22 25/42/22 26/40/22
f 18/44/23 23/65/23 24/46/23
f 27/47/24 26/50/24 4/6/24
f 24/48/25 2/9/25 3/4/25
f 25/49/26 3/4/26 4/6/26
f 23/51/27 1/7/27 2/9/27
f 13/17/28 17/1/28 5/3/28
f 31/52/46 32/53/46 36/39/46
f 31/52/30 33/55/30 35/33/30
f 30/54/47 14/56/47 33/55/47
f 18/34/48 35/33/48 33/55/48
f 19/32/49 20/37/49 36/39/49
f 30/54/50 31/52/50 34/38/50
f 37/58/35 38/27/35 42/26/35
f 37/58/36 39/30/36 41/29/36
f 29/60/51 37/58/51 40/59/51
f 11/61/38 40/59/38 42/26/38
f 30/25/52 38/27/52 41/29/52
f 29/60/53 28/28/53 39/30/53
v -2.272925 2.752619 -7.025579
v -2.259521 2.738055 -7.046310
v -2.251446 2.713105 -7.057882
v -2.250864 2.684455 -7.057194
v -2.257931 2.659783 -7.044429
v -2.259562 2.749885 -7.001485
v -2.236376 2.733319 -7.004578
v -2.224721 2.707636 -7.009694
v -2.227720 2.679719 -7.015461
v -2.244568 2.657049 -7.020335
v -2.252685 2.693829 -6.963937
v -2.251937 2.667762 -6.975835
v -2.258550 2.650145 -6.997457
v -2.300888 2.738812 -6.979823
v -2.307373 2.685490 -6.966370
v -2.299298 2.660540 -6.977942
v -2.285894 2.645976 -6.998673
v -2.314250 2.741546 -7.003917
v -2.331099 2.718875 -7.008790
v -2.334098 2.690959 -7.014558
v -2.322442 2.665276 -7.019674
v -2.299257 2.648710 -7.022767
v -2.300269 2.748450 -7.026795
v -2.306882 2.730833 -7.048417
v -2.306134 2.704766 -7.060315
v -2.298225 2.677234 -7.059300
v -2.285275 2.655613 -7.045646
v -2.273544 2.742981 -6.978606
v -2.260594 2.721361 -6.964952
v -2.307955 2.714139 -6.967058
v -2.356737 2.726003 -6.963963
v -2.358625 2.726389 -6.967368
v -2.324990 2.739655 -6.974394
v -2.336910 2.697335 -6.968246
v -2.331604 2.741009 -6.986320
v -2.347169 2.699435 -6.986746
v -2.282248 2.729420 -6.922370
v -2.293458 2.727711 -6.922869
v -2.285414 2.737620 -6.938881
v -2.280993 2.710458 -6.935444
v -2.290551 2.736837 -6.939109
v -2.286145 2.709673 -6.935673
vt 0.274240 0.539347
vt 0.265397 0.539709
vt 0.266768 0.532487
vt 0.231414 0.551290
vt 0.214659 0.541092
vt 0.231357 0.542861
vt 0.231940 0.569242
vt 0.215985 0.562822
vt 0.231472 0.559719
vt 0.230890 0.533338
vt 0.220414 0.530957
vt 0.213134 0.552274
vt 0.289666 0.544440
vt 0.282983 0.540904
vt 0.290637 0.536818
vt 0.279682 0.529141
vt 0.275518 0.536619
vt 0.273707 0.532162
vt 0.280945 0.538772
vt 0.286431 0.530872
vt 0.290637 0.551375
vt 0.284312 0.543753
vt 0.278488 0.537315
vt 0.276318 0.541045
vt 0.804698 0.251197
vt 0.792375 0.255919
vt 0.792638 0.252041
vt 0.786357 0.239035
vt 0.792578 0.249274
vt 0.791489 0.249454
vt 0.271776 0.541127
vt 0.760733 0.199751
vt 0.757502 0.209505
vt 0.750621 0.206121
vt 0.278108 0.542645
vt 0.273009 0.544115
vt 0.772804 0.201934
vt 0.766718 0.213101
vt 0.766203 0.208706
vt 0.264007 0.548518
vt 0.277612 0.547903
vt 0.268747 0.555467
vt 0.275021 0.546378
vt 0.280714 0.548498
vt 0.281954 0.545638
vt 0.276612 0.557409
vt 0.240880 0.530957
vt 0.248168 0.561486
vt 0.249693 0.550306
vt 0.246843 0.539760
vt 0.242415 0.571620
vt 0.762287 0.211045
vt 0.762255 0.210544
vt 0.761023 0.221925
vt 0.757316 0.212491
vt 0.750922 0.216572
vt 0.772804 0.220841
vt 0.791613 0.252007
vt 0.791097 0.255536
vt 0.780068 0.250772
vt 0.780487 0.263708
vt 0.804698 0.264828
vt 0.798786 0.238814
vt 0.221949 0.571626
vt 0.283377 0.553479
vn 0.1563 -0.9680 -0.1965
vn 0.8748 0.0061 -0.4844
vn 0.5491 0.8082 -0.2128
vn 0.7538 -0.4591 -0.4701
vn 0.8041 0.4437 -0.3956
vn 0.5393 0.6563 0.5277
vn 0.7440 -0.6110 0.2703
vn 0.7915 0.2480 0.5586
vn -0.1563 0.9680 0.1965
vn 0.8622 -0.1897 0.4697
vn 0.0926 -0.7856 0.6118
vn -0.7069 -0.5770 0.4091
vn 0.0227 -0.4146 0.9097
vn -0.1539 0.9843 0.0868
vn -0.5491 -0.8082 0.2128
vn -0.5958 0.5654 -0.5703
vn -0.8041 -0.4437 0.3956
vn -0.3759 -0.9208 0.1040
vn -0.5393 -0.6563 -0.5276
vn -0.8622 0.1897 -0.4697
vn -0.7915 -0.2480 -0.5586
vn -0.7440 0.6110 -0.2703
vn 0.1121 -0.4817 -0.8691
vn -0.0227 0.4146 -0.9097
vn 0.0480 -0.0230 -0.9986
vn -0.0926 0.7856 -0.6118
vn 0.1563 -0.9680 -0.1966
vn -0.7455 -0.5678 0.3490
vn -0.3035 0.9132 0.2718
vn 0.1465 0.3624 0.9204
vn 0.0536 0.9951 0.0832
vn -0.8276 0.0502 -0.5590
vn -0.0543 0.0229 0.9983
vn 0.0497 -0.5647 0.8238
vn -0.1537 0.8729 0.4630
vn 0.7550 0.2394 0.6104
vn 0.0986 -0.8137 0.5728
vn -0.8912 0.3819 0.2448
vn 0.6833 0.6976 0.2155
vn 0.8748 0.0061 -0.4845
vn 0.5393 0.6563 0.5276
vn 0.7440 -0.6111 0.2703
vn 0.7915 0.2480 0.5585
vn -0.1563 0.9679 0.1966
vn 0.8622 -0.1896 0.4697
vn -0.8214 -0.0030 0.5704
vn -0.6603 0.5275 -0.5345
vn -0.8622 0.1896 -0.4697
vn -0.1564 0.9679 0.1965
vn -0.7915 -0.2480 -0.5585
vn -0.7440 0.6111 -0.2703
vn -0.0228 0.4146 -0.9097
vn 0.0479 -0.0230 -0.9986
vn -0.7456 -0.5677 0.3490
vn -0.3034 0.9133 0.2719
vn 0.2147 0.3996 0.8912
vn -0.8653 0.1889 -0.4643
vn 0.0323 -0.1258 0.9915
vn 0.0495 -0.5647 0.8238
vn 0.8355 -0.2733 0.4766
vn 0.0986 -0.8137 0.5729
vn -0.8567 0.4998 0.1276
vn 0.7229 0.6225 0.3000
s off
f 59/66/54 69/67/54 47/68/54
f 45/69/55 51/70/55 46/71/55
f 43/72/56 49/73/56 44/74/56
f 47/75/57 51/70/57 52/76/57
f 44/74/58 50/77/58 45/69/58
f 48/78/59 71/79/59 49/80/59
f 51/81/60 55/82/60 52/83/60
f 49/80/61 53/84/61 50/85/61
f 43/86/62 70/87/62 48/78/62
f 50/85/63 54/88/63 51/81/63
f 55/82/64 58/89/64 59/66/64
f 72/90/65 84/91/65 80/92/65
f 53/84/66 58/89/66 54/88/66
f 70/93/67 83/94/67 81/95/67
f 58/89/68 64/96/68 59/66/68
f 61/97/69 77/98/69 60/99/69
f 57/100/70 63/101/70 58/89/70
f 62/102/71 76/103/71 78/104/71
f 64/96/72 68/105/72 69/67/72
f 61/106/73 67/107/73 62/108/73
f 43/86/62 60/109/62 56/110/62
f 62/108/74 68/105/74 63/101/74
f 60/109/75 66/111/75 61/106/75
f 69/112/76 46/71/76 47/75/76
f 66/113/77 45/69/77 67/114/77
f 67/114/78 46/71/78 68/115/78
f 65/116/79 44/74/79 66/113/79
f 55/82/80 47/68/80 52/83/80
f 73/117/81 78/104/81 76/103/81
f 73/117/82 77/98/82 74/118/82
f 72/119/83 75/120/83 73/117/83
f 60/99/84 75/120/84 56/121/84
f 61/97/85 78/104/85 74/118/85
f 72/119/86 76/103/86 57/122/86
f 79/123/87 84/91/87 82/124/87
f 79/123/88 83/94/88 80/92/88
f 71/125/89 82/124/89 53/126/89
f 53/126/90 84/91/90 57/127/90
f 72/90/91 83/94/91 56/128/91
f 71/125/92 81/95/92 79/123/92
f 59/66/54 64/96/54 69/67/54
f 45/69/93 50/77/93 51/70/93
f 43/72/56 48/129/56 49/73/56
f 47/75/57 46/71/57 51/70/57
f 44/74/58 49/73/58 50/77/58
f 48/78/94 70/87/94 71/79/94
f 51/81/95 54/88/95 55/82/95
f 49/80/96 71/79/96 53/84/96
f 43/86/97 56/110/97 70/87/97
f 50/85/98 53/84/98 54/88/98
f 55/82/64 54/88/64 58/89/64
f 72/90/99 57/127/99 84/91/99
f 53/84/66 57/100/66 58/89/66
f 70/93/67 56/128/67 83/94/67
f 58/89/68 63/101/68 64/96/68
f 61/97/100 74/118/100 77/98/100
f 57/100/70 62/108/70 63/101/70
f 62/102/71 57/122/71 76/103/71
f 64/96/72 63/101/72 68/105/72
f 61/106/101 66/111/101 67/107/101
f 43/86/102 65/130/102 60/109/102
f 62/108/103 67/107/103 68/105/103
f 60/109/104 65/130/104 66/111/104
f 69/112/76 68/115/76 46/71/76
f 66/113/105 44/74/105 45/69/105
f 67/114/106 45/69/106 46/71/106
f 65/116/79 43/72/79 44/74/79
f 55/82/54 59/66/54 47/68/54
f 73/117/107 74/118/107 78/104/107
f 73/117/108 75/120/108 77/98/108
f 72/119/109 56/121/109 75/120/109
f 60/99/84 77/98/84 75/120/84
f 61/97/110 62/102/110 78/104/110
f 72/119/111 73/117/111 76/103/111
f 79/123/112 80/92/112 84/91/112
f 79/123/88 81/95/88 83/94/88
f 71/125/113 79/123/113 82/124/113
f 53/126/114 82/124/114 84/91/114
f 72/90/115 80/92/115 83/94/115
f 71/125/116 70/93/116 81/95/116
v 0.410115 3.749280 -3.762276
v 0.418069 3.723192 -3.753459
v 0.411330 3.697527 -3.742618
v 0.391704 3.679163 -3.732659
v 0.364450 3.673020 -3.726250
v 0.401391 3.764592 -3.740922
v 0.402957 3.749713 -3.716473
v 0.393881 3.728152 -3.699911
v 0.376593 3.705684 -3.695673
v 0.355726 3.688332 -3.704896
v 0.345786 3.755397 -3.703200
v 0.334941 3.729280 -3.698522
v 0.331678 3.701955 -3.706541
v 0.362020 3.776526 -3.765565
v 0.315141 3.752019 -3.749196
v 0.308402 3.726354 -3.738356
v 0.316355 3.700266 -3.729539
v 0.370745 3.761214 -3.786918
v 0.349878 3.743862 -3.796141
v 0.332590 3.721395 -3.791904
v 0.323513 3.699833 -3.775342
v 0.325080 3.684954 -3.750893
v 0.394792 3.747591 -3.785274
v 0.391529 3.720266 -3.793293
v 0.380685 3.694149 -3.788615
v 0.365164 3.676238 -3.772494
v 0.349127 3.671331 -3.749248
v 0.377343 3.778215 -3.742566
v 0.361306 3.773309 -3.719321
v 0.334766 3.770383 -3.759155
v 0.317682 3.784009 -3.804459
v 0.318915 3.781846 -3.807477
v 0.348009 3.782884 -3.784912
v 0.310042 3.760522 -3.779494
v 0.352328 3.775304 -3.795483
v 0.316741 3.748766 -3.795889
v 0.332900 3.812099 -3.725278
v 0.326618 3.811406 -3.734706
v 0.346072 3.805335 -3.736707
v 0.327790 3.789735 -3.722867
v 0.343193 3.805018 -3.741028
v 0.324903 3.789417 -3.727201
vt 0.274240 0.539347
vt 0.265397 0.539709
vt 0.266768 0.532487
vt 0.231414 0.551290
vt 0.214659 0.541092
vt 0.231357 0.542861
vt 0.231940 0.569242
vt 0.215985 0.562822
vt 0.231472 0.559719
vt 0.230890 0.533338
vt 0.220414 0.530957
vt 0.213134 0.552274
vt 0.289666 0.544440
vt 0.282983 0.540904
vt 0.290637 0.536818
vt 0.279682 0.529141
vt 0.275518 0.536619
vt 0.273707 0.532162
vt 0.280945 0.538772
vt 0.286431 0.530872
vt 0.290637 0.551375
vt 0.284312 0.543753
vt 0.278488 0.537315
vt 0.276318 0.541045
vt 0.804698 0.251197
vt 0.792375 0.255919
vt 0.792638 0.252041
vt 0.786357 0.239035
vt 0.792578 0.249274
vt 0.791489 0.249454
vt 0.271776 0.541127
vt 0.760733 0.199751
vt 0.757502 0.209505
vt 0.750621 0.206121
vt 0.278108 0.542645
vt 0.273009 0.544115
vt 0.772804 0.201934
vt 0.766718 0.213101
vt 0.766203 0.208706
vt 0.264007 0.548518
vt 0.277612 0.547903
vt 0.268747 0.555467
vt 0.275021 0.546378
vt 0.280714 0.548498
vt 0.281954 0.545638
vt 0.276612 0.557409
vt 0.240880 0.530957
vt 0.248168 0.561486
vt 0.249693 0.550306
vt 0.246843 0.539760
vt 0.242415 0.571620
vt 0.762287 0.211045
vt 0.762255 0.210544
vt 0.761023 0.221925
vt 0.757316 0.212491
vt 0.750922 0.216572
vt 0.772804 0.220841
vt 0.791613 0.252007
vt 0.791097 0.255536
vt 0.780068 0.250772
vt 0.780487 0.263708
vt 0.804698 0.264828
vt 0.798786 0.238814
vt 0.221949 0.571626
vt 0.283377 0.553479
vn -0.4761 -0.7951 0.3756
vn 0.6921 -0.4221 0.5855
vn 0.9323 0.3324 0.1426
vn 0.3089 -0.7086 0.6344
vn 0.9074 -0.0627 0.4157
vn 0.4157 0.7885 0.4532
vn -0.2077 -0.2525 0.9450
vn 0.2417 0.5251 0.8160
vn 0.4761 0.7951 -0.3756
vn 0.0264 0.1656 0.9858
vn -0.8283 -0.0644 0.5566
vn -0.9589 -0.0218 -0.2830
vn -0.7733 0.4080 0.4853
vn 0.5489 0.7234 -0.4188
vn -0.9323 -0.3324 -0.1426
vn 0.4133 -0.0131 -0.9105
vn -0.9074 0.0627 -0.4157
vn -0.8657 -0.5005 0.0052
vn -0.4157 -0.7885 -0.4533
vn -0.0264 -0.1656 -0.9858
vn -0.2417 -0.5251 -0.8160
vn 0.2077 0.2525 -0.9450
vn 0.2049 -0.9766 -0.0648
vn 0.7733 -0.4080 -0.4853
vn 0.5581 -0.7675 -0.3154
vn 0.8283 0.0644 -0.5566
vn -0.9380 -0.0580 -0.3417
vn 0.3265 0.8262 -0.4592
vn -0.1901 0.9181 0.3478
vn 0.6581 0.7129 -0.2423
vn -0.0556 -0.3268 -0.9435
vn -0.5610 0.7676 0.3099
vn -0.8154 0.2429 0.5254
vn 0.2657 0.9323 -0.2455
vn 0.1896 0.5609 0.8058
vn -0.8231 -0.1125 0.5567
vn -0.3034 0.4987 -0.8119
vn 0.6853 0.5712 0.4517
vn 0.9323 0.3324 0.1425
vn -0.7116 0.4848 -0.5084
vn 0.3367 -0.0065 -0.9416
vn -0.4157 -0.7885 -0.4532
vn -0.2416 -0.5251 -0.8160
vn 0.5581 -0.7675 -0.3155
vn 0.3265 0.8262 -0.4590
vn -0.1159 0.9157 0.3848
vn -0.0314 -0.1618 -0.9863
vn -0.6170 0.6586 0.4308
vn 0.2657 0.9323 -0.2454
vn -0.0473 0.1177 0.9919
vn -0.1417 0.4859 -0.8625
vn 0.6065 0.5824 0.5413
s off
f 101/131/117 111/132/117 89/133/117
f 87/134/118 93/135/118 88/136/118
f 85/137/119 91/138/119 86/139/119
f 89/140/120 93/135/120 94/141/120
f 86/139/121 92/142/121 87/134/121
f 90/143/122 113/144/122 91/145/122
f 93/146/123 97/147/123 94/148/123
f 91/145/124 95/149/124 92/150/124
f 85/151/125 112/152/125 90/143/125
f 92/150/126 96/153/126 93/146/126
f 97/147/127 100/154/127 101/131/127
f 114/155/128 126/156/128 122/157/128
f 95/149/129 100/154/129 96/153/129
f 112/158/130 125/159/130 123/160/130
f 100/154/131 106/161/131 101/131/131
f 103/162/132 119/163/132 102/164/132
f 99/165/133 105/166/133 100/154/133
f 104/167/134 118/168/134 120/169/134
f 106/161/135 110/170/135 111/132/135
f 103/171/136 109/172/136 104/173/136
f 85/151/125 102/174/125 98/175/125
f 104/173/137 110/170/137 105/166/137
f 102/174/138 108/176/138 103/171/138
f 111/177/139 88/136/139 89/140/139
f 108/178/140 87/134/140 109/179/140
f 109/179/141 88/136/141 110/180/141
f 107/181/142 86/139/142 108/178/142
f 97/147/117 89/133/117 94/148/117
f 115/182/143 120/169/143 118/168/143
f 115/182/144 119/163/144 116/183/144
f 114/184/145 117/185/145 115/182/145
f 102/164/146 117/185/146 98/186/146
f 103/162/147 120/169/147 116/183/147
f 114/184/148 118/168/148 99/187/148
f 121/188/149 126/156/149 124/189/149
f 121/188/150 125/159/150 122/157/150
f 113/190/151 124/189/151 95/191/151
f 95/191/152 126/156/152 99/192/152
f 114/155/153 125/159/153 98/193/153
f 113/190/154 123/160/154 121/188/154
f 101/131/117 106/161/117 111/132/117
f 87/134/118 92/142/118 93/135/118
f 85/137/155 90/194/155 91/138/155
f 89/140/120 88/136/120 93/135/120
f 86/139/121 91/138/121 92/142/121
f 90/143/122 112/152/122 113/144/122
f 93/146/123 96/153/123 97/147/123
f 91/145/124 113/144/124 95/149/124
f 85/151/125 98/175/125 112/152/125
f 92/150/126 95/149/126 96/153/126
f 97/147/127 96/153/127 100/154/127
f 114/155/156 99/192/156 126/156/156
f 95/149/129 99/165/129 100/154/129
f 112/158/130 98/193/130 125/159/130
f 100/154/131 105/166/131 106/161/131
f 103/162/157 116/183/157 119/163/157
f 99/165/133 104/173/133 105/166/133
f 104/167/134 99/187/134 118/168/134
f 106/161/158 105/166/158 110/170/158
f 103/171/136 108/176/136 109/172/136
f 85/151/125 107/195/125 102/174/125
f 104/173/159 109/172/159 110/170/159
f 102/174/138 107/195/138 108/176/138
f 111/177/139 110/180/139 88/136/139
f 108/178/140 86/139/140 87/134/140
f 109/179/160 87/134/160 88/136/160
f 107/181/142 85/137/142 86/139/142
f 97/147/117 101/131/117 89/133/117
f 115/182/143 116/183/143 120/169/143
f 115/182/161 117/185/161 119/163/161
f 114/184/162 98/186/162 117/185/162
f 102/164/146 119/163/146 117/185/146
f 103/162/163 104/167/163 120/169/163
f 114/184/164 115/182/164 118/168/164
f 121/188/149 122/157/149 126/156/149
f 121/188/165 123/160/165 125/159/165
f 113/190/166 121/188/166 124/189/166
f 95/191/152 124/189/152 126/156/152
f 114/155/167 122/157/167 125/159/167
f 113/190/168 112/158/168 123/160/168
