# Blender v2.81 (sub 16) OBJ File: 'garbage.blend'
# www.blender.org
v -2.438019 2.639649 4.231647
v -2.443143 2.614367 4.219150
v -2.439531 2.585947 4.218228
v -2.428153 2.562004 4.229129
v -2.412057 2.548952 4.248932
v -2.411401 2.646735 4.228851
v -2.397039 2.626642 4.214306
v -2.386295 2.600120 4.212635
v -2.382049 2.574278 4.224286
v -2.385439 2.556038 4.246136
v -2.357309 2.616827 4.256759
v -2.356946 2.588746 4.262498
v -2.370946 2.564392 4.268198
v -2.409033 2.656356 4.275772
v -2.381558 2.619360 4.306476
v -2.377947 2.590940 4.305554
v -2.383070 2.565658 4.293056
v -2.435651 2.649269 4.278568
v -2.439040 2.631030 4.300418
v -2.434795 2.605187 4.312069
v -2.424051 2.578666 4.310398
v -2.409689 2.558572 4.295853
v -2.450144 2.640916 4.256506
v -2.464144 2.616562 4.262206
v -2.463781 2.588481 4.267945
v -2.449154 2.564198 4.272185
v -2.424182 2.550219 4.273791
v -2.396908 2.655089 4.250913
v -2.371936 2.641110 4.252519
v -2.392936 2.643304 4.295575
v -2.417435 2.664477 4.334065
v -2.421197 2.663476 4.334460
v -2.416146 2.664530 4.297990
v -2.401131 2.634242 4.326766
v -2.429322 2.661022 4.299375
v -2.421569 2.628801 4.328913
v -2.350636 2.673437 4.281645
v -2.355607 2.673956 4.291836
v -2.368428 2.672737 4.275917
v -2.353603 2.650664 4.283797
v -2.370706 2.672975 4.280588
v -2.355888 2.650903 4.288481
vt 0.274240 0.539347
vt 0.265397 0.539709
vt 0.266768 0.532487
vt 0.231414 0.551290
vt 0.214659 0.541092
vt 0.231357 0.542861
vt 0.231940 0.569242
vt 0.215985 0.562822
vt 0.231472 0.559719
vt 0.230890 0.533338
vt 0.220414 0.530957
vt 0.213134 0.552274
vt 0.289666 0.544440
vt 0.282983 0.540904
vt 0.290637 0.536818
vt 0.279682 0.529141
vt 0.275518 0.536619
vt 0.273707 0.532162
vt 0.280945 0.538772
vt 0.286431 0.530872
vt 0.290637 0.551375
vt 0.284312 0.543753
vt 0.278488 0.537315
vt 0.276318 0.541045
vt 0.804698 0.251197
vt 0.792375 0.255919
vt 0.792638 0.252041
vt 0.786357 0.239035
vt 0.792578 0.249274
vt 0.791489 0.249454
vt 0.271776 0.541127
vt 0.760733 0.199751
vt 0.757502 0.209505
vt 0.750621 0.206121
vt 0.278108 0.542645
vt 0.273009 0.544115
vt 0.772804 0.201934
vt 0.766718 0.213101
vt 0.766203 0.208706
vt 0.264007 0.548518
vt 0.277612 0.547903
vt 0.268747 0.555467
vt 0.275021 0.546378
vt 0.280714 0.548498
vt 0.281954 0.545638
vt 0.276612 0.557409
vt 0.240880 0.530957
vt 0.248168 0.561486
vt 0.249693 0.550306
vt 0.246843 0.539760
vt 0.242415 0.571620
vt 0.762287 0.211045
vt 0.762255 0.210544
vt 0.761023 0.221925
vt 0.757316 0.212491
vt 0.750922 0.216572
vt 0.772804 0.220841
vt 0.791613 0.252007
vt 0.791097 0.255536
vt 0.780068 0.250772
vt 0.780487 0.263708
vt 0.804698 0.264828
vt 0.798786 0.238814
vt 0.221949 0.571626
vt 0.283377 0.553479
vn 0.2707 -0.9456 0.1802
vn 0.0131 -0.4092 -0.9124
vn -0.2145 0.4674 -0.8576
vn 0.1398 -0.7707 -0.6217
vn -0.1093 0.0183 -0.9938
vn 0.4335 0.7108 -0.5539
vn 0.7879 -0.5273 -0.3180
vn 0.7258 0.3320 -0.6025
vn -0.2707 0.9456 -0.1802
vn 0.8482 -0.0955 -0.5210
vn 0.8253 -0.3757 0.4217
vn 0.2144 -0.1432 0.9662
vn 0.8963 0.0999 0.4321
vn -0.3639 0.9042 -0.2236
vn 0.2146 -0.4674 0.8576
vn -0.9441 0.3098 0.1122
vn 0.1093 -0.0183 0.9938
vn 0.2487 -0.6509 0.7173
vn -0.4335 -0.7108 0.5539
vn -0.8482 0.0955 0.5210
vn -0.7258 -0.3320 0.6025
vn -0.7879 0.5273 0.3180
vn -0.4709 -0.8624 -0.1857
vn -0.8963 -0.0999 -0.4321
vn -0.7739 -0.5274 -0.3506
vn -0.8253 0.3757 -0.4217
vn 0.1447 -0.1578 0.9768
vn -0.2580 0.9661 -0.0078
vn 0.6761 0.7364 0.0252
vn -0.2747 0.8706 -0.4082
vn -0.8527 -0.0736 0.5171
vn 0.7708 0.5284 0.3560
vn 0.8947 -0.0750 0.4403
vn -0.0198 0.9980 -0.0605
vn 0.7538 0.3579 -0.5511
vn 0.8070 -0.4200 0.4151
vn -0.3567 0.6202 0.6987
vn 0.2335 0.5615 -0.7939
vn 0.2707 -0.9457 0.1802
vn 0.1399 -0.7707 -0.6216
vn 0.0797 0.4442 0.8924
vn -0.3640 0.9042 -0.2236
vn 0.2145 -0.4674 0.8576
vn -0.9312 0.3085 0.1941
vn 0.2486 -0.6509 0.7173
vn -0.8482 0.0956 0.5210
vn -0.7879 0.5273 0.3179
vn -0.4708 -0.8625 -0.1857
vn 0.1444 -0.1578 0.9769
vn 0.6705 0.7397 -0.0575
vn -0.8449 0.0982 0.5258
vn 0.8603 0.3825 0.3372
vn 0.8722 -0.1574 -0.4631
vn 0.8070 -0.4201 0.4150
vn -0.4786 0.6543 0.5855
vn 0.3477 0.5324 -0.7718
s off
f 17/1/1 27/2/1 5/3/1
f 3/4/2 9/5/2 4/6/2
f 1/7/3 7/8/3 2/9/3
f 5/10/4 9/5/4 10/11/4
f 2/9/5 8/12/5 3/4/5
f 6/13/6 29/14/6 7/15/6
f 9/16/7 13/17/7 10/18/7
f 7/15/8 11/19/8 8/20/8
f 1/21/9 28/22/9 6/13/9
f 8/20/10 12/23/10 9/16/10
f 13/17/11 16/24/11 17/1/11
f 30/25/12 42/26/12 38/27/12
f 11/19/13 16/24/13 12/23/13
f 28/28/14 41/29/14 39/30/14
f 16/24/15 22/31/15 17/1/15
f 19/32/16 35/33/16 18/34/16
f 15/35/17 21/36/17 16/24/17
f 20/37/18 34/38/18 36/39/18
f 22/31/19 26/40/19 27/2/19
f 19/41/20 25/42/20 20/43/20
f 1/21/9 18/44/9 14/45/9
f 20/43/21 26/40/21 21/36/21
f 18/44/22 24/46/22 19/41/22
f 27/47/23 4/6/23 5/10/23
f 24/48/24 3/4/24 25/49/24
f 25/49/25 4/6/25 26/50/25
f 23/51/26 2/9/26 24/48/26
f 13/17/1 5/3/1 10/18/1
f 31/52/27 36/39/27 34/38/27
f 31/52/28 35/33/28 32/53/28
f 30/54/29 33/55/29 31/52/29
f 18/34/30 33/55/30 14/56/30
f 19/32/31 36/39/31 32/53/31
f 30/54/32 34/38/32 15/57/32
f 37/58/33 42/26/33 40/59/33
f 37/58/34 41/29/34 38/27/34
f 29/60/35 40/59/35 11/61/35
f 11/61/36 42/26/36 15/62/36
f 30/25/37 41/29/37 14/63/37
f 29/60/38 39/30/38 37/58/38
f 17/1/39 22/31/39 27/2/39
f 3/4/2 8/12/2 9/5/2
f 1/7/3 6/64/3 7/8/3
f 5/10/40 4/6/40 9/5/40
f 2/9/5 7/8/5 8/12/5
f 6/13/6 28/22/6 29/14/6
f 9/16/7 12/23/7 13/17/7
f 7/15/8 29/14/8 11/19/8
f 1/21/9 14/45/9 28/22/9
f 8/20/10 11/19/10 12/23/10
f 13/17/11 12/23/11 16/24/11
f 30/25/41 15/62/41 42/26/41
f 11/19/13 15/35/13 16/24/13
f 28/28/42 14/63/42 41/29/42
f 16/24/43 21/36/43 22/31/43
f 19/32/44 32/53/44 35/33/44
f 15/35/17 20/43/17 21/36/17
f 20/37/45 15/57/45 34/38/45
f 22/31/19 21/36/19 26/40/19
f 19/41/46 24/46/46 25/42/46
f 1/21/9 23/65/9 18/44/9
f 20/43/21 25/42/21 26/40/21
f 18/44/47 23/65/47 24/46/47
f 27/47/48 26/50/48 4/6/48
f 24/48/24 2/9/24 3/4/24
f 25/49/25 3/4/25 4/6/25
f 23/51/26 1/7/26 2/9/26
f 13/17/1 17/1/1 5/3/1
f 31/52/49 32/53/49 36/39/49
f 31/52/28 33/55/28 35/33/28
f 30/54/50 14/56/50 33/55/50
f 18/34/30 35/33/30 33/55/30
f 19/32/51 20/37/51 36/39/51
f 30/54/52 31/52/52 34/38/52
f 37/58/33 38/27/33 42/26/33
f 37/58/34 39/30/34 41/29/34
f 29/60/53 37/58/53 40/59/53
f 11/61/54 40/59/54 42/26/54
f 30/25/55 38/27/55 41/29/55
f 29/60/56 28/28/56 39/30/56
v 2.933978 3.672908 1.604036
v 2.923377 3.655102 1.623840
v 2.919067 3.628467 1.633514
v 2.922203 3.600139 1.630466
v 2.931945 3.577709 1.615513
v 2.920191 3.670325 1.580165
v 2.899498 3.650628 1.582494
v 2.891494 3.623300 1.585772
v 2.898324 3.595665 1.589120
v 2.918158 3.575125 1.591642
v 2.919282 3.616983 1.538294
v 2.922390 3.590194 1.548003
v 2.932052 3.571967 1.567903
v 2.961766 3.666591 1.556558
v 2.974643 3.615833 1.538558
v 2.970334 3.589197 1.548231
v 2.959733 3.571392 1.568035
v 2.975553 3.669174 1.580429
v 2.995386 3.648635 1.582951
v 3.002217 3.620999 1.586299
v 2.994213 3.593672 1.589577
v 2.973519 3.573975 1.591906
v 2.961658 3.672333 1.604168
v 2.971321 3.654106 1.624068
v 2.974428 3.627316 1.633777
v 2.970147 3.599142 1.630694
v 2.959625 3.577133 1.615645
v 2.934085 3.667166 1.556426
v 2.923563 3.645157 1.541377
v 2.971508 3.644161 1.541605
v 3.018173 3.662618 1.538198
v 3.020122 3.662983 1.541571
v 2.985331 3.671059 1.550574
v 3.002431 3.631319 1.540618
v 2.992155 3.672338 1.562390
v 3.013016 3.633302 1.558946
v 2.942366 3.659353 1.499046
v 2.953714 3.659117 1.499100
v 2.945053 3.666576 1.516089
v 2.944088 3.639423 1.510530
v 2.950254 3.666468 1.516114
v 2.949304 3.639315 1.510554
vt 0.274240 0.539347
vt 0.265397 0.539709
vt 0.266768 0.532487
vt 0.231414 0.551290
vt 0.214659 0.541092
vt 0.231357 0.542861
vt 0.231940 0.569242
vt 0.215985 0.562822
vt 0.231472 0.559719
vt 0.230890 0.533338
vt 0.220414 0.530957
vt 0.213134 0.552274
vt 0.289666 0.544440
vt 0.282983 0.540904
vt 0.290637 0.536818
vt 0.279682 0.529141
vt 0.275518 0.536619
vt 0.273707 0.532162
vt 0.280945 0.538772
vt 0.286431 0.530872
vt 0.290637 0.551375
vt 0.284312 0.543753
vt 0.278488 0.537315
vt 0.276318 0.541045
vt 0.804698 0.251197
vt 0.792375 0.255919
vt 0.792638 0.252041
vt 0.786357 0.239035
vt 0.792578 0.249274
vt 0.791489 0.249454
vt 0.271776 0.541127
vt 0.760733 0.199751
vt 0.757502 0.209505
vt 0.750621 0.206121
vt 0.278108 0.542645
vt 0.273009 0.544115
vt 0.772804 0.201934
vt 0.766718 0.213101
vt 0.766203 0.208706
vt 0.264007 0.548518
vt 0.277612 0.547903
vt 0.268747 0.555467
vt 0.275021 0.546378
vt 0.280714 0.548498
vt 0.281954 0.545638
vt 0.276612 0.557409
vt 0.240880 0.530957
vt 0.248168 0.561486
vt 0.249693 0.550306
vt 0.246843 0.539760
vt 0.242415 0.571620
vt 0.762287 0.211045
vt 0.762255 0.210544
vt 0.761023 0.221925
vt 0.757316 0.212491
vt 0.750922 0.216572
vt 0.772804 0.220841
vt 0.791613 0.252007
vt 0.791097 0.255536
vt 0.780068 0.250772
vt 0.780487 0.263708
vt 0.804698 0.264828
vt 0.798786 0.238814
vt 0.221949 0.571626
vt 0.283377 0.553479
vn -0.0212 -0.9926 0.1197
vn -0.8493 -0.1485 0.5066
vn -0.6415 0.7087 0.2938
vn -0.6692 -0.5909 0.4505
vn -0.8397 0.3002 0.4525
vn -0.6398 0.6182 -0.4567
vn -0.6675 -0.6814 -0.3000
vn -0.8375 0.1836 -0.5146
vn 0.0212 0.9926 -0.1197
vn -0.8471 -0.2652 -0.4605
vn -0.0122 -0.7403 -0.6722
vn 0.7603 -0.4438 -0.4744
vn -0.0026 -0.3410 -0.9401
vn 0.0208 0.9997 -0.0090
vn 0.6415 -0.7087 -0.2938
vn 0.5380 0.5930 0.5991
vn 0.8397 -0.3002 -0.4525
vn 0.4886 -0.8515 -0.1901
vn 0.6398 -0.6182 0.4567
vn 0.8471 0.2652 0.4605
vn 0.8375 -0.1836 0.5146
vn 0.6675 0.6814 0.3000
vn -0.0156 -0.5593 0.8288
vn 0.0026 0.3410 0.9401
vn -0.0070 -0.1077 0.9942
vn 0.0122 0.7403 0.6722
vn 0.7996 -0.4342 -0.4148
vn 0.1712 0.9641 -0.2031
vn -0.2270 0.4110 -0.8829
vn -0.1860 0.9825 0.0011
vn 0.8344 0.1157 0.5389
vn 0.0133 0.1084 -0.9940
vn -0.0062 -0.4997 -0.8662
vn 0.0210 0.9193 -0.3929
vn -0.8022 0.1841 -0.5680
vn -0.0130 -0.7719 -0.6356
vn 0.8239 0.5152 -0.2361
vn -0.7761 0.6152 -0.1384
vn -0.6692 -0.5910 0.4505
vn -0.6398 0.6181 -0.4567
vn 0.7927 0.1513 -0.5905
vn 0.0208 0.9997 -0.0089
vn 0.6054 0.5670 0.5585
vn 0.4887 -0.8515 -0.1901
vn 0.0212 0.9926 -0.1196
vn 0.0122 0.7403 0.6721
vn 0.7995 -0.4343 -0.4149
vn 0.1712 0.9640 -0.2032
vn -0.2983 0.4363 -0.8489
vn 0.8501 0.2652 0.4549
vn -0.0528 -0.0505 -0.9973
vn -0.0063 -0.4997 -0.8662
vn 0.0210 0.9194 -0.3929
vn -0.8100 -0.3437 -0.4751
vn -0.0131 -0.7720 -0.6355
vn 0.7787 0.6179 -0.1086
vn -0.8087 0.5424 -0.2278
s off
f 59/66/57 69/67/57 47/68/57
f 45/69/58 51/70/58 46/71/58
f 43/72/59 49/73/59 44/74/59
f 47/75/60 51/70/60 52/76/60
f 44/74/61 50/77/61 45/69/61
f 48/78/62 71/79/62 49/80/62
f 51/81/63 55/82/63 52/83/63
f 49/80/64 53/84/64 50/85/64
f 43/86/65 70/87/65 48/78/65
f 50/85/66 54/88/66 51/81/66
f 55/82/67 58/89/67 59/66/67
f 72/90/68 84/91/68 80/92/68
f 53/84/69 58/89/69 54/88/69
f 70/93/70 83/94/70 81/95/70
f 58/89/71 64/96/71 59/66/71
f 61/97/72 77/98/72 60/99/72
f 57/100/73 63/101/73 58/89/73
f 62/102/74 76/103/74 78/104/74
f 64/96/75 68/105/75 69/67/75
f 61/106/76 67/107/76 62/108/76
f 43/86/65 60/109/65 56/110/65
f 62/108/77 68/105/77 63/101/77
f 60/109/78 66/111/78 61/106/78
f 69/112/79 46/71/79 47/75/79
f 66/113/80 45/69/80 67/114/80
f 67/114/81 46/71/81 68/115/81
f 65/116/82 44/74/82 66/113/82
f 55/82/57 47/68/57 52/83/57
f 73/117/83 78/104/83 76/103/83
f 73/117/84 77/98/84 74/118/84
f 72/119/85 75/120/85 73/117/85
f 60/99/86 75/120/86 56/121/86
f 61/97/87 78/104/87 74/118/87
f 72/119/88 76/103/88 57/122/88
f 79/123/89 84/91/89 82/124/89
f 79/123/90 83/94/90 80/92/90
f 71/125/91 82/124/91 53/126/91
f 53/126/92 84/91/92 57/127/92
f 72/90/93 83/94/93 56/128/93
f 71/125/94 81/95/94 79/123/94
f 59/66/57 64/96/57 69/67/57
f 45/69/58 50/77/58 51/70/58
f 43/72/59 48/129/59 49/73/59
f 47/75/95 46/71/95 51/70/95
f 44/74/61 49/73/61 50/77/61
f 48/78/96 70/87/96 71/79/96
f 51/81/63 54/88/63 55/82/63
f 49/80/64 71/79/64 53/84/64
f 43/86/65 56/110/65 70/87/65
f 50/85/66 53/84/66 54/88/66
f 55/82/67 54/88/67 58/89/67
f 72/90/97 57/127/97 84/91/97
f 53/84/69 57/100/69 58/89/69
f 70/93/98 56/128/98 83/94/98
f 58/89/71 63/101/71 64/96/71
f 61/97/99 74/118/99 77/98/99
f 57/100/73 62/108/73 63/101/73
f 62/102/100 57/122/100 76/103/100
f 64/96/75 63/101/75 68/105/75
f 61/106/76 66/111/76 67/107/76
f 43/86/101 65/130/101 60/109/101
f 62/108/77 67/107/77 68/105/77
f 60/109/78 65/130/78 66/111/78
f 69/112/79 68/115/79 46/71/79
f 66/113/80 44/74/80 45/69/80
f 67/114/81 45/69/81 46/71/81
f 65/116/102 43/72/102 44/74/102
f 55/82/57 59/66/57 47/68/57
f 73/117/103 74/118/103 78/104/103
f 73/117/104 75/120/104 77/98/104
f 72/119/105 56/121/105 75/120/105
f 60/99/86 77/98/86 75/120/86
f 61/97/106 62/102/106 78/104/106
f 72/119/107 73/117/107 76/103/107
f 79/123/108 80/92/108 84/91/108
f 79/123/109 81/95/109 83/94/109
f 71/125/110 79/123/110 82/124/110
f 53/126/111 82/124/111 84/91/111
f 72/90/112 80/92/112 83/94/112
f 71/125/113 70/93/113 81/95/113
v -0.217542 4.414027 1.300016
v -0.233910 4.391418 1.293494
v -0.237241 4.363050 1.291097
v -0.226643 4.336524 1.293467
v -0.204955 4.318946 1.299970
v -0.196910 4.416768 1.281758
v -0.198174 4.396165 1.261870
v -0.195976 4.368531 1.254581
v -0.190906 4.341270 1.261843
v -0.184323 4.321687 1.281712
v -0.143991 4.375404 1.272373
v -0.145886 4.347222 1.277252
v -0.158330 4.325124 1.290608
v -0.165558 4.420901 1.317808
v -0.133271 4.376797 1.326682
v -0.136602 4.348429 1.324285
v -0.152970 4.325820 1.317762
v -0.186190 4.418160 1.336066
v -0.179606 4.398577 1.355935
v -0.174537 4.371316 1.363198
v -0.172339 4.343682 1.355908
v -0.173603 4.323080 1.336020
v -0.212183 4.414723 1.327170
v -0.224627 4.392625 1.340526
v -0.226521 4.364443 1.345405
v -0.217359 4.337730 1.340500
v -0.199595 4.319643 1.327124
v -0.170917 4.420204 1.290654
v -0.153153 4.402117 1.277279
v -0.143870 4.403324 1.324311
v -0.136261 4.424199 1.369437
v -0.139177 4.423811 1.372017
v -0.156454 4.427795 1.339732
v -0.133747 4.392572 1.354379
v -0.166667 4.426439 1.348770
v -0.149588 4.390468 1.368398
v -0.112927 4.427164 1.287357
v -0.110730 4.427449 1.298490
v -0.130388 4.430081 1.293398
v -0.118493 4.405121 1.291255
v -0.129381 4.430212 1.298499
v -0.117483 4.405252 1.296371
vt 0.274240 0.539347
vt 0.265397 0.539709
vt 0.266768 0.532487
vt 0.231414 0.551290
vt 0.214659 0.541092
vt 0.231357 0.542861
vt 0.231940 0.569242
vt 0.215985 0.562822
vt 0.231472 0.559719
vt 0.230890 0.533338
vt 0.220414 0.530957
vt 0.213134 0.552274
vt 0.289666 0.544440
vt 0.282983 0.540904
vt 0.290637 0.536818
vt 0.279682 0.529141
vt 0.275518 0.536619
vt 0.273707 0.532162
vt 0.280945 0.538772
vt 0.286431 0.530872
vt 0.290637 0.551375
vt 0.284312 0.543753
vt 0.278488 0.537315
vt 0.276318 0.541045
vt 0.804698 0.251197
vt 0.792375 0.255919
vt 0.792638 0.252041
vt 0.786357 0.239035
vt 0.792578 0.249274
vt 0.791489 0.249454
vt 0.271776 0.541127
vt 0.760733 0.199751
vt 0.757502 0.209505
vt 0.750621 0.206121
vt 0.278108 0.542645
vt 0.273009 0.544115
vt 0.772804 0.201934
vt 0.766718 0.213101
vt 0.766203 0.208706
vt 0.264007 0.548518
vt 0.277612 0.547903
vt 0.268747 0.555467
vt 0.275021 0.546378
vt 0.280714 0.548498
vt 0.281954 0.545638
vt 0.276612 0.557409
vt 0.240880 0.530957
vt 0.248168 0.561486
vt 0.249693 0.550306
vt 0.246843 0.539760
vt 0.242415 0.571620
vt 0.762287 0.211045
vt 0.762255 0.210544
vt 0.761023 0.221925
vt 0.757316 0.212491
vt 0.750922 0.216572
vt 0.772804 0.220841
vt 0.791613 0.252007
vt 0.791097 0.255536
vt 0.780068 0.250772
vt 0.780487 0.263708
vt 0.804698 0.264828
vt 0.798786 0.238814
vt 0.221949 0.571626
vt 0.283377 0.553479
vn 0.1312 -0.9914 -0.0004
vn -0.6072 -0.3081 -0.7324
vn -0.5801 0.5838 -0.5680
vn -0.4083 -0.7141 -0.5686
vn -0.6665 0.1401 -0.7322
vn 0.1548 0.6812 -0.7155
vn 0.3267 -0.6168 -0.7162
vn 0.2806 0.2656 -0.9224
vn -0.1312 0.9914 0.0005
vn 0.3399 -0.1826 -0.9226
vn 0.8209 -0.5516 -0.1479
vn 0.7080 -0.2774 0.6495
vn 0.9768 -0.0986 -0.1903
vn -0.2381 0.9710 0.0222
vn 0.5801 -0.5838 0.5680
vn -0.6132 0.4515 0.6482
vn 0.6665 -0.1401 0.7322
vn 0.4881 -0.7548 0.4383
vn -0.1548 -0.6812 0.7155
vn -0.3399 0.1826 0.9226
vn -0.1312 0.9913 0.0005
vn -0.2806 -0.2656 0.9224
vn -0.3267 0.6168 0.7162
vn -0.6490 -0.7464 0.1473
vn -0.9768 0.0986 0.1903
vn -0.9174 -0.3496 0.1901
vn -0.8209 0.5516 0.1479
vn 0.1312 -0.9913 -0.0005
vn 0.6567 -0.2810 0.6999
vn -0.0159 0.9913 0.1309
vn 0.6907 0.6049 -0.3963
vn -0.2833 0.9423 -0.1787
vn -0.3792 0.0180 0.9251
vn 0.9183 0.3505 -0.1838
vn 0.9458 -0.2706 -0.1798
vn 0.1463 0.9878 -0.0542
vn 0.3379 0.2809 -0.8983
vn 0.7939 -0.5913 -0.1416
vn 0.2538 0.5952 0.7624
vn -0.1727 0.5936 -0.7860
vn 0.1312 -0.9914 -0.0005
vn -0.6072 -0.3080 -0.7324
vn 0.3267 -0.6168 -0.7161
vn -0.1312 0.9914 0.0004
vn 0.6752 0.3288 0.6603
vn -0.2381 0.9710 0.0221
vn -0.5552 0.4394 0.7062
vn -0.1313 0.9913 0.0005
vn -0.3267 0.6168 0.7161
vn -0.0159 0.9913 0.1308
vn 0.6383 0.6177 -0.4593
vn -0.2833 0.9422 -0.1787
vn -0.3340 0.1841 0.9244
vn 0.9486 0.1944 -0.2499
vn 0.1463 0.9877 -0.0543
vn 0.3806 -0.2533 -0.8894
vn 0.7940 -0.5913 -0.1415
vn 0.0983 0.6611 0.7438
vn -0.0759 0.5436 -0.8359
s off
f 101/131/114 111/132/114 89/133/114
f 87/134/115 93/135/115 88/136/115
f 85/137/116 91/138/116 86/139/116
f 89/140/117 93/135/117 94/141/117
f 86/139/118 92/142/118 87/134/118
f 90/143/119 113/144/119 91/145/119
f 93/146/120 97/147/120 94/148/120
f 91/145/121 95/149/121 92/150/121
f 85/151/122 112/152/122 90/143/122
f 92/150/123 96/153/123 93/146/123
f 97/147/124 100/154/124 101/131/124
f 114/155/125 126/156/125 122/157/125
f 95/149/126 100/154/126 96/153/126
f 112/158/127 125/159/127 123/160/127
f 100/154/128 106/161/128 101/131/128
f 103/162/129 119/163/129 102/164/129
f 99/165/130 105/166/130 100/154/130
f 104/167/131 118/168/131 120/169/131
f 106/161/132 110/170/132 111/132/132
f 103/171/133 109/172/133 104/173/133
f 85/151/134 102/174/134 98/175/134
f 104/173/135 110/170/135 105/166/135
f 102/174/136 108/176/136 103/171/136
f 111/177/137 88/136/137 89/140/137
f 108/178/138 87/134/138 109/179/138
f 109/179/139 88/136/139 110/180/139
f 107/181/140 86/139/140 108/178/140
f 97/147/141 89/133/141 94/148/141
f 115/182/142 120/169/142 118/168/142
f 115/182/143 119/163/143 116/183/143
f 114/184/144 117/185/144 115/182/144
f 102/164/145 117/185/145 98/186/145
f 103/162/146 120/169/146 116/183/146
f 114/184/147 118/168/147 99/187/147
f 121/188/148 126/156/148 124/189/148
f 121/188/149 125/159/149 122/157/149
f 113/190/150 124/189/150 95/191/150
f 95/191/151 126/156/151 99/192/151
f 114/155/152 125/159/152 98/193/152
f 113/190/153 123/160/153 121/188/153
f 101/131/154 106/161/154 111/132/154
f 87/134/155 92/142/155 93/135/155
f 85/137/116 90/194/116 91/138/116
f 89/140/117 88/136/117 93/135/117
f 86/139/118 91/138/118 92/142/118
f 90/143/119 112/152/119 113/144/119
f 93/146/156 96/153/156 97/147/156
f 91/145/121 113/144/121 95/149/121
f 85/151/157 98/175/157 112/152/157
f 92/150/123 95/149/123 96/153/123
f 97/147/124 96/153/124 100/154/124
f 114/155/158 99/192/158 126/156/158
f 95/149/126 99/165/126 100/154/126
f 112/158/159 98/193/159 125/159/159
f 100/154/128 105/166/128 106/161/128
f 103/162/160 116/183/160 119/163/160
f 99/165/130 104/173/130 105/166/130
f 104/167/131 99/187/131 118/168/131
f 106/161/132 105/166/132 110/170/132
f 103/171/133 108/176/133 109/172/133
f 85/151/161 107/195/161 102/174/161
f 104/173/135 109/172/135 110/170/135
f 102/174/162 107/195/162 108/176/162
f 111/177/137 110/180/137 88/136/137
f 108/178/138 86/139/138 87/134/138
f 109/179/139 87/134/139 88/136/139
f 107/181/140 85/137/140 86/139/140
f 97/147/141 101/131/141 89/133/141
f 115/182/142 116/183/142 120/169/142
f 115/182/163 117/185/163 119/163/163
f 114/184/164 98/186/164 117/185/164
f 102/164/165 119/163/165 117/185/165
f 103/162/166 104/167/166 120/169/166
f 114/184/167 115/182/167 118/168/167
f 121/188/148 122/157/148 126/156/148
f 121/188/168 123/160/168 125/159/168
f 113/190/169 121/188/169 124/189/169
f 95/191/170 124/189/170 126/156/170
f 114/155/171 122/157/171 125/159/171
f 113/190/172 112/158/172 123/160/172
