# Blender v2.81 (sub 16) OBJ File: 'garbage.blend'
# www.blender.org
v -3.072808 2.736489 0.079100
v -3.056540 2.717732 0.064777
v -3.049757 2.690655 0.058263
v -3.054276 2.662514 0.061302
v -3.068886 2.640848 0.073080
v -3.067849 2.734981 0.106297
v -3.047952 2.715119 0.111885
v -3.039840 2.687639 0.112658
v -3.045688 2.659901 0.108409
v -3.063928 2.639340 0.100278
v -3.082021 2.683665 0.148312
v -3.082217 2.656460 0.139287
v -3.085018 2.637353 0.118105
v -3.114988 2.732516 0.114754
v -3.134118 2.682709 0.129572
v -3.127335 2.655632 0.123057
v -3.111067 2.636875 0.108735
v -3.119947 2.734024 0.087557
v -3.138187 2.713463 0.079425
v -3.144035 2.685725 0.075177
v -3.135923 2.658245 0.075950
v -3.116025 2.638383 0.081537
v -3.098856 2.736011 0.069730
v -3.101657 2.716904 0.048548
v -3.101854 2.689699 0.039522
v -3.099393 2.661686 0.045072
v -3.094935 2.640370 0.063710
v -3.088940 2.732994 0.124125
v -3.084481 2.711678 0.142762
v -3.129599 2.710850 0.126533
v -3.174353 2.729620 0.113315
v -3.175054 2.729833 0.109472
v -3.139107 2.737348 0.112303
v -3.159314 2.698184 0.117658
v -3.141562 2.738095 0.098840
v -3.163121 2.699342 0.096776
v -3.116080 2.727920 0.175698
v -3.126759 2.727724 0.171856
v -3.112774 2.734343 0.158445
v -3.114246 2.707478 0.165171
v -3.117668 2.734253 0.156684
v -3.119154 2.707388 0.163405
vt 0.274240 0.539347
vt 0.265397 0.539709
vt 0.266768 0.532487
vt 0.231414 0.551290
vt 0.214659 0.541092
vt 0.231357 0.542861
vt 0.231940 0.569242
vt 0.215985 0.562822
vt 0.231472 0.559719
vt 0.230890 0.533338
vt 0.220414 0.530957
vt 0.213134 0.552274
vt 0.289666 0.544440
vt 0.282983 0.540904
vt 0.290637 0.536818
vt 0.279682 0.529141
vt 0.275518 0.536619
vt 0.273707 0.532162
vt 0.280945 0.538772
vt 0.286431 0.530872
vt 0.290637 0.551375
vt 0.284312 0.543753
vt 0.278488 0.537315
vt 0.276318 0.541045
vt 0.804698 0.251197
vt 0.792375 0.255919
vt 0.792638 0.252041
vt 0.786357 0.239035
vt 0.792578 0.249274
vt 0.791489 0.249454
vt 0.271776 0.541127
vt 0.760733 0.199751
vt 0.757502 0.209505
vt 0.750621 0.206121
vt 0.278108 0.542645
vt 0.273009 0.544115
vt 0.772804 0.201934
vt 0.766718 0.213101
vt 0.766203 0.208706
vt 0.264007 0.548518
vt 0.277612 0.547903
vt 0.268747 0.555467
vt 0.275021 0.546378
vt 0.280714 0.548498
vt 0.281954 0.545638
vt 0.276612 0.557409
vt 0.240880 0.530957
vt 0.248168 0.561486
vt 0.249693 0.550306
vt 0.246843 0.539760
vt 0.242415 0.571620
vt 0.762287 0.211045
vt 0.762255 0.210544
vt 0.761023 0.221925
vt 0.757316 0.212491
vt 0.750922 0.216572
vt 0.772804 0.220841
vt 0.791613 0.252007
vt 0.791097 0.255536
vt 0.780068 0.250772
vt 0.780487 0.263708
vt 0.804698 0.264828
vt 0.798786 0.238814
vt 0.221949 0.571626
vt 0.283377 0.553479
vn 0.0409 -0.9972 -0.0628
vn 0.9668 -0.1753 -0.1860
vn 0.7163 0.6917 -0.0922
vn 0.7698 -0.6140 -0.1744
vn 0.9483 0.2755 -0.1576
vn 0.4620 0.6366 0.6175
vn 0.5155 -0.6691 0.5353
vn 0.6206 0.2045 0.7570
vn -0.0409 0.9972 0.0628
vn 0.6391 -0.2463 0.7286
vn -0.2275 -0.7079 0.6687
vn -0.8835 -0.4181 0.2110
vn -0.3185 -0.2964 0.9004
vn -0.0034 0.9991 -0.0416
vn -0.7163 -0.6917 0.0922
vn -0.2951 0.5662 -0.7696
vn -0.9483 -0.2755 0.1576
vn -0.5404 -0.8398 0.0519
vn -0.4620 -0.6366 -0.6175
vn -0.6391 0.2463 -0.7286
vn -0.6206 -0.2045 -0.7570
vn -0.5155 0.6691 -0.5353
vn 0.2811 -0.5977 -0.7508
vn 0.3185 0.2964 -0.9004
vn 0.3369 -0.1544 -0.9288
vn 0.2275 0.7079 -0.6686
vn -0.9005 -0.4113 0.1413
vn -0.2107 0.9732 0.0925
vn -0.0734 0.4513 0.8894
vn 0.1946 0.9807 0.0189
vn -0.6038 0.0933 -0.7917
vn -0.3428 0.1551 0.9265
vn -0.2934 -0.4583 0.8390
vn -0.1335 0.9369 0.3232
vn 0.5695 0.2076 0.7954
vn -0.2151 -0.7412 0.6358
vn -0.8453 0.5288 -0.0759
vn 0.6968 0.6182 0.3637
vn -0.2275 -0.7079 0.6686
vn -0.9415 0.1818 0.2838
vn -0.3728 0.5424 -0.7529
vn -0.0409 0.9972 0.0627
vn -0.5155 0.6690 -0.5353
vn 0.2275 0.7079 -0.6687
vn -0.2107 0.9732 0.0924
vn 0.0056 0.4747 0.8801
vn -0.6438 0.2467 -0.7244
vn -0.2847 -0.0037 0.9586
vn -0.2934 -0.4584 0.8389
vn 0.5978 -0.3240 0.7333
vn -0.2151 -0.7413 0.6358
vn -0.7582 0.6252 -0.1853
vn 0.6962 0.5495 0.4619
s off
f 17/1/1 27/2/1 5/3/1
f 3/4/2 9/5/2 4/6/2
f 1/7/3 7/8/3 2/9/3
f 5/10/4 9/5/4 10/11/4
f 2/9/5 8/12/5 3/4/5
f 6/13/6 29/14/6 7/15/6
f 9/16/7 13/17/7 10/18/7
f 7/15/8 11/19/8 8/20/8
f 1/21/9 28/22/9 6/13/9
f 8/20/10 12/23/10 9/16/10
f 13/17/11 16/24/11 17/1/11
f 30/25/12 42/26/12 38/27/12
f 11/19/13 16/24/13 12/23/13
f 28/28/14 41/29/14 39/30/14
f 16/24/15 22/31/15 17/1/15
f 19/32/16 35/33/16 18/34/16
f 15/35/17 21/36/17 16/24/17
f 20/37/18 34/38/18 36/39/18
f 22/31/19 26/40/19 27/2/19
f 19/41/20 25/42/20 20/43/20
f 1/21/9 18/44/9 14/45/9
f 20/43/21 26/40/21 21/36/21
f 18/44/22 24/46/22 19/41/22
f 27/47/23 4/6/23 5/10/23
f 24/48/24 3/4/24 25/49/24
f 25/49/25 4/6/25 26/50/25
f 23/51/26 2/9/26 24/48/26
f 13/17/1 5/3/1 10/18/1
f 31/52/27 36/39/27 34/38/27
f 31/52/28 35/33/28 32/53/28
f 30/54/29 33/55/29 31/52/29
f 18/34/30 33/55/30 14/56/30
f 19/32/31 36/39/31 32/53/31
f 30/54/32 34/38/32 15/57/32
f 37/58/33 42/26/33 40/59/33
f 37/58/34 41/29/34 38/27/34
f 29/60/35 40/59/35 11/61/35
f 11/61/36 42/26/36 15/62/36
f 30/25/37 41/29/37 14/63/37
f 29/60/38 39/30/38 37/58/38
f 17/1/1 22/31/1 27/2/1
f 3/4/2 8/12/2 9/5/2
f 1/7/3 6/64/3 7/8/3
f 5/10/4 4/6/4 9/5/4
f 2/9/5 7/8/5 8/12/5
f 6/13/6 28/22/6 29/14/6
f 9/16/7 12/23/7 13/17/7
f 7/15/8 29/14/8 11/19/8
f 1/21/9 14/45/9 28/22/9
f 8/20/10 11/19/10 12/23/10
f 13/17/39 12/23/39 16/24/39
f 30/25/40 15/62/40 42/26/40
f 11/19/13 15/35/13 16/24/13
f 28/28/14 14/63/14 41/29/14
f 16/24/15 21/36/15 22/31/15
f 19/32/41 32/53/41 35/33/41
f 15/35/17 20/43/17 21/36/17
f 20/37/18 15/57/18 34/38/18
f 22/31/19 21/36/19 26/40/19
f 19/41/20 24/46/20 25/42/20
f 1/21/42 23/65/42 18/44/42
f 20/43/21 25/42/21 26/40/21
f 18/44/43 23/65/43 24/46/43
f 27/47/23 26/50/23 4/6/23
f 24/48/24 2/9/24 3/4/24
f 25/49/25 3/4/25 4/6/25
f 23/51/44 1/7/44 2/9/44
f 13/17/1 17/1/1 5/3/1
f 31/52/27 32/53/27 36/39/27
f 31/52/45 33/55/45 35/33/45
f 30/54/46 14/56/46 33/55/46
f 18/34/30 35/33/30 33/55/30
f 19/32/47 20/37/47 36/39/47
f 30/54/48 31/52/48 34/38/48
f 37/58/49 38/27/49 42/26/49
f 37/58/34 39/30/34 41/29/34
f 29/60/50 37/58/50 40/59/50
f 11/61/51 40/59/51 42/26/51
f 30/25/52 38/27/52 41/29/52
f 29/60/53 28/28/53 39/30/53
v -2.419441 3.541415 0.283567
v -2.429293 3.515003 0.278377
v -2.426368 3.486565 0.280454
v -2.411451 3.463721 0.289242
v -2.388538 3.452592 0.302385
v -2.396435 3.546326 0.268968
v -2.389445 3.523509 0.253089
v -2.380355 3.496387 0.251254
v -2.371603 3.472227 0.263954
v -2.365532 3.457503 0.287786
v -2.335599 3.517265 0.276299
v -2.332842 3.490307 0.285643
v -2.343153 3.467942 0.300308
v -2.374685 3.562293 0.308612
v -2.336855 3.528320 0.330544
v -2.333930 3.499882 0.332621
v -2.343781 3.473469 0.327430
v -2.397691 3.557382 0.323212
v -2.391620 3.542657 0.347044
v -2.382867 3.518497 0.359743
v -2.373778 3.491375 0.357908
v -2.366788 3.468558 0.342030
v -2.420069 3.546943 0.310690
v -2.430380 3.524577 0.325354
v -2.427624 3.497620 0.334699
v -2.412539 3.473295 0.336219
v -2.389166 3.458119 0.329508
v -2.374057 3.556765 0.281490
v -2.350684 3.541590 0.274779
v -2.351772 3.551164 0.321756
v -2.357965 3.579068 0.363144
v -2.361217 3.578374 0.365207
v -2.371870 3.573953 0.330227
v -2.346173 3.547129 0.354536
v -2.383258 3.571522 0.337454
v -2.363837 3.543358 0.365746
v -2.319195 3.576276 0.287122
v -2.319453 3.578542 0.298241
v -2.337752 3.575911 0.289438
v -2.320968 3.554269 0.293802
v -2.337870 3.576949 0.294534
v -2.321086 3.555311 0.298913
vt 0.274240 0.539347
vt 0.265397 0.539709
vt 0.266768 0.532487
vt 0.231414 0.551290
vt 0.214659 0.541092
vt 0.231357 0.542861
vt 0.231940 0.569242
vt 0.215985 0.562822
vt 0.231472 0.559719
vt 0.230890 0.533338
vt 0.220414 0.530957
vt 0.213134 0.552274
vt 0.289666 0.544440
vt 0.282983 0.540904
vt 0.290637 0.536818
vt 0.279682 0.529141
vt 0.275518 0.536619
vt 0.273707 0.532162
vt 0.280945 0.538772
vt 0.286431 0.530872
vt 0.290637 0.551375
vt 0.284312 0.543753
vt 0.278488 0.537315
vt 0.276318 0.541045
vt 0.804698 0.251197
vt 0.792375 0.255919
vt 0.792638 0.252041
vt 0.786357 0.239035
vt 0.792578 0.249274
vt 0.791489 0.249454
vt 0.271776 0.541127
vt 0.760733 0.199751
vt 0.757502 0.209505
vt 0.750621 0.206121
vt 0.278108 0.542645
vt 0.273009 0.544115
vt 0.772804 0.201934
vt 0.766718 0.213101
vt 0.766203 0.208706
vt 0.264007 0.548518
vt 0.277612 0.547903
vt 0.268747 0.555467
vt 0.275021 0.546378
vt 0.280714 0.548498
vt 0.281954 0.545638
vt 0.276612 0.557409
vt 0.240880 0.530957
vt 0.248168 0.561486
vt 0.249693 0.550306
vt 0.246843 0.539760
vt 0.242415 0.571620
vt 0.762287 0.211045
vt 0.762255 0.210544
vt 0.761023 0.221925
vt 0.757316 0.212491
vt 0.750922 0.216572
vt 0.772804 0.220841
vt 0.791613 0.252007
vt 0.791097 0.255536
vt 0.780068 0.250772
vt 0.780487 0.263708
vt 0.804698 0.264828
vt 0.798786 0.238814
vt 0.221949 0.571626
vt 0.283377 0.553479
vn 0.3222 -0.9261 0.1962
vn -0.3690 -0.5337 -0.7610
vn -0.5538 0.3546 -0.7534
vn -0.1319 -0.8580 -0.4965
vn -0.5147 -0.1150 -0.8497
vn 0.1616 0.5966 -0.7861
vn 0.5835 -0.6160 -0.5292
vn 0.4073 0.1968 -0.8919
vn -0.3222 0.9261 -0.1962
vn 0.5529 -0.2219 -0.8032
vn 0.9263 -0.3643 0.0957
vn 0.5987 -0.0190 0.8008
vn 0.9947 0.1025 0.0022
vn -0.4251 0.8850 -0.1901
vn 0.5538 -0.3546 0.7534
vn -0.8112 0.3821 0.4427
vn 0.5146 0.1150 0.8497
vn 0.5263 -0.5578 0.6417
vn -0.1616 -0.5966 0.7861
vn -0.5529 0.2219 0.8032
vn -0.4073 -0.1968 0.8919
vn -0.5835 0.6160 0.5292
vn -0.5045 -0.8482 0.1612
vn -0.9947 -0.1025 -0.0022
vn -0.8491 -0.5212 0.0865
vn -0.9263 0.3643 -0.0957
vn 0.5398 -0.0275 0.8414
vn -0.2387 0.9698 -0.0498
vn 0.6240 0.6880 -0.3705
vn -0.4210 0.8201 -0.3876
vn -0.5585 0.0545 0.8277
vn 0.8485 0.5231 -0.0805
vn 0.9969 -0.0690 0.0371
vn -0.0443 0.9787 -0.2005
vn 0.4542 0.2278 -0.8613
vn 0.9071 -0.4079 0.1041
vn -0.0327 0.7339 0.6784
vn -0.1202 0.4279 -0.8958
vn -0.5146 -0.1150 -0.8497
vn 0.4449 0.5595 0.6993
vn -0.4251 0.8850 -0.1902
vn -0.7652 0.3915 0.5111
vn 0.5147 0.1150 0.8496
vn -0.9947 -0.1025 -0.0021
vn -0.8491 -0.5211 0.0866
vn -0.2387 0.9698 -0.0499
vn 0.5843 0.6800 -0.4429
vn -0.5480 0.2250 0.8057
vn 0.9220 0.3706 -0.1119
vn 0.9969 -0.0690 0.0372
vn -0.0443 0.9787 -0.2004
vn 0.5990 -0.2764 -0.7515
vn -0.1908 0.7595 0.6219
vn -0.0072 0.3951 -0.9186
s off
f 59/66/54 69/67/54 47/68/54
f 45/69/55 51/70/55 46/71/55
f 43/72/56 49/73/56 44/74/56
f 47/75/57 51/70/57 52/76/57
f 44/74/58 50/77/58 45/69/58
f 48/78/59 71/79/59 49/80/59
f 51/81/60 55/82/60 52/83/60
f 49/80/61 53/84/61 50/85/61
f 43/86/62 70/87/62 48/78/62
f 50/85/63 54/88/63 51/81/63
f 55/82/64 58/89/64 59/66/64
f 72/90/65 84/91/65 80/92/65
f 53/84/66 58/89/66 54/88/66
f 70/93/67 83/94/67 81/95/67
f 58/89/68 64/96/68 59/66/68
f 61/97/69 77/98/69 60/99/69
f 57/100/70 63/101/70 58/89/70
f 62/102/71 76/103/71 78/104/71
f 64/96/72 68/105/72 69/67/72
f 61/106/73 67/107/73 62/108/73
f 43/86/62 60/109/62 56/110/62
f 62/108/74 68/105/74 63/101/74
f 60/109/75 66/111/75 61/106/75
f 69/112/76 46/71/76 47/75/76
f 66/113/77 45/69/77 67/114/77
f 67/114/78 46/71/78 68/115/78
f 65/116/79 44/74/79 66/113/79
f 55/82/54 47/68/54 52/83/54
f 73/117/80 78/104/80 76/103/80
f 73/117/81 77/98/81 74/118/81
f 72/119/82 75/120/82 73/117/82
f 60/99/83 75/120/83 56/121/83
f 61/97/84 78/104/84 74/118/84
f 72/119/85 76/103/85 57/122/85
f 79/123/86 84/91/86 82/124/86
f 79/123/87 83/94/87 80/92/87
f 71/125/88 82/124/88 53/126/88
f 53/126/89 84/91/89 57/127/89
f 72/90/90 83/94/90 56/128/90
f 71/125/91 81/95/91 79/123/91
f 59/66/54 64/96/54 69/67/54
f 45/69/55 50/77/55 51/70/55
f 43/72/56 48/129/56 49/73/56
f 47/75/57 46/71/57 51/70/57
f 44/74/92 49/73/92 50/77/92
f 48/78/59 70/87/59 71/79/59
f 51/81/60 54/88/60 55/82/60
f 49/80/61 71/79/61 53/84/61
f 43/86/62 56/110/62 70/87/62
f 50/85/63 53/84/63 54/88/63
f 55/82/64 54/88/64 58/89/64
f 72/90/93 57/127/93 84/91/93
f 53/84/66 57/100/66 58/89/66
f 70/93/94 56/128/94 83/94/94
f 58/89/68 63/101/68 64/96/68
f 61/97/95 74/118/95 77/98/95
f 57/100/96 62/108/96 63/101/96
f 62/102/71 57/122/71 76/103/71
f 64/96/72 63/101/72 68/105/72
f 61/106/73 66/111/73 67/107/73
f 43/86/62 65/130/62 60/109/62
f 62/108/74 67/107/74 68/105/74
f 60/109/75 65/130/75 66/111/75
f 69/112/76 68/115/76 46/71/76
f 66/113/97 44/74/97 45/69/97
f 67/114/98 45/69/98 46/71/98
f 65/116/79 43/72/79 44/74/79
f 55/82/54 59/66/54 47/68/54
f 73/117/80 74/118/80 78/104/80
f 73/117/99 75/120/99 77/98/99
f 72/119/100 56/121/100 75/120/100
f 60/99/83 77/98/83 75/120/83
f 61/97/101 62/102/101 78/104/101
f 72/119/102 73/117/102 76/103/102
f 79/123/103 80/92/103 84/91/103
f 79/123/104 81/95/104 83/94/104
f 71/125/105 79/123/105 82/124/105
f 53/126/89 82/124/89 84/91/89
f 72/90/106 80/92/106 83/94/106
f 71/125/107 70/93/107 81/95/107
v -1.057311 4.330381 -1.393224
v -1.053804 4.316149 -1.417857
v -1.051593 4.291384 -1.432119
v -1.051273 4.262722 -1.432190
v -1.052928 4.237844 -1.418051
v -1.035317 4.327003 -1.376750
v -1.015709 4.310298 -1.389321
v -1.007605 4.284628 -1.399169
v -1.013178 4.256872 -1.403655
v -1.030934 4.234466 -1.401576
v -1.014658 4.270085 -1.346207
v -1.019286 4.244277 -1.357788
v -1.034460 4.227194 -1.375095
v -1.064364 4.315838 -1.340262
v -1.065698 4.262298 -1.326194
v -1.063488 4.237533 -1.340457
v -1.059980 4.223301 -1.365089
v -1.086358 4.319216 -1.356737
v -1.104113 4.296811 -1.354658
v -1.109686 4.269054 -1.359144
v -1.101582 4.243384 -1.368992
v -1.081974 4.226679 -1.381563
v -1.082831 4.326488 -1.383218
v -1.098006 4.309405 -1.400525
v -1.102634 4.283597 -1.412106
v -1.095475 4.255979 -1.414859
v -1.078448 4.233951 -1.408045
v -1.038844 4.319732 -1.350268
v -1.021817 4.297703 -1.343455
v -1.066019 4.290960 -1.326123
v -1.109064 4.303195 -1.303158
v -1.112172 4.303673 -1.305486
v -1.084123 4.316782 -1.325438
v -1.093214 4.274449 -1.315636
v -1.095010 4.318455 -1.333593
v -1.110101 4.277042 -1.328285
v -1.024034 4.305032 -1.295617
v -1.034496 4.303436 -1.291515
v -1.033530 4.313617 -1.309255
v -1.028558 4.286348 -1.308364
v -1.038325 4.312885 -1.307375
v -1.033366 4.285614 -1.306479
vt 0.274240 0.539347
vt 0.265397 0.539709
vt 0.266768 0.532487
vt 0.231414 0.551290
vt 0.214659 0.541092
vt 0.231357 0.542861
vt 0.231940 0.569242
vt 0.215985 0.562822
vt 0.231472 0.559719
vt 0.230890 0.533338
vt 0.220414 0.530957
vt 0.213134 0.552274
vt 0.289666 0.544440
vt 0.282983 0.540904
vt 0.290637 0.536818
vt 0.279682 0.529141
vt 0.275518 0.536619
vt 0.273707 0.532162
vt 0.280945 0.538772
vt 0.286431 0.530872
vt 0.290637 0.551375
vt 0.284312 0.543753
vt 0.278488 0.537315
vt 0.276318 0.541045
vt 0.804698 0.251197
vt 0.792375 0.255919
vt 0.792638 0.252041
vt 0.786357 0.239035
vt 0.792578 0.249274
vt 0.791489 0.249454
vt 0.271776 0.541127
vt 0.760733 0.199751
vt 0.757502 0.209505
vt 0.750621 0.206121
vt 0.278108 0.542645
vt 0.273009 0.544115
vt 0.772804 0.201934
vt 0.766718 0.213101
vt 0.766203 0.208706
vt 0.264007 0.548518
vt 0.277612 0.547903
vt 0.268747 0.555467
vt 0.275021 0.546378
vt 0.280714 0.548498
vt 0.281954 0.545638
vt 0.276612 0.557409
vt 0.240880 0.530957
vt 0.248168 0.561486
vt 0.249693 0.550306
vt 0.246843 0.539760
vt 0.242415 0.571620
vt 0.762287 0.211045
vt 0.762255 0.210544
vt 0.761023 0.221925
vt 0.757316 0.212491
vt 0.750922 0.216572
vt 0.772804 0.220841
vt 0.791613 0.252007
vt 0.791097 0.255536
vt 0.780068 0.250772
vt 0.780487 0.263708
vt 0.804698 0.264828
vt 0.798786 0.238814
vt 0.221949 0.571626
vt 0.283377 0.553479
vn 0.0457 -0.9648 -0.2588
vn 0.6004 0.0087 -0.7997
vn 0.4279 0.8076 -0.4057
vn 0.4878 -0.4556 -0.7446
vn 0.5797 0.4449 -0.6827
vn 0.7191 0.6398 0.2714
vn 0.7789 -0.6235 -0.0675
vn 0.9548 0.2286 0.1899
vn -0.0457 0.9648 0.2589
vn 0.9755 -0.2076 0.0729
vn 0.3210 -0.7995 0.5077
vn -0.4877 -0.5793 0.6531
vn 0.3855 -0.4344 0.8141
vn -0.0882 0.9835 0.1580
vn -0.4279 -0.8076 0.4057
vn -0.7671 0.5831 -0.2676
vn -0.5797 -0.4449 0.6827
vn -0.3163 -0.9194 0.2338
vn -0.7191 -0.6398 -0.2714
vn -0.9755 0.2076 -0.0729
vn -0.0457 0.9648 0.2588
vn -0.9548 -0.2286 -0.1899
vn -0.7789 0.6235 0.0675
vn -0.2612 -0.4638 -0.8466
vn -0.3855 0.4344 -0.8141
vn -0.3648 -0.0018 -0.9311
vn -0.3210 0.7995 -0.5077
vn 0.0457 -0.9648 -0.2589
vn -0.5474 -0.5684 0.6142
vn -0.1501 0.9099 0.3868
vn 0.5161 0.3410 0.7857
vn 0.1000 0.9925 0.0700
vn -0.9828 0.0698 -0.1708
vn 0.3589 0.0017 0.9334
vn 0.3721 -0.5829 0.7223
vn 0.0640 0.8640 0.4994
vn 0.9426 0.2192 0.2520
vn 0.3101 -0.8268 0.4693
vn -0.7066 0.3846 0.5940
vn 0.7235 0.6866 -0.0717
vn -0.5164 -0.0079 0.8563
vn -0.0881 0.9835 0.1581
vn -0.4280 -0.8076 0.4057
vn -0.8119 0.5450 -0.2091
vn -0.3163 -0.9194 0.2337
vn -0.1500 0.9098 0.3869
vn 0.5670 0.3781 0.7318
vn -0.9761 0.2067 -0.0666
vn 0.4326 -0.1476 0.8894
vn 0.3722 -0.5829 0.7223
vn 0.0639 0.8640 0.4994
vn 0.9525 -0.2912 0.0888
vn 0.3101 -0.8268 0.4692
vn -0.7210 0.5047 0.4748
vn 0.7929 0.6092 -0.0119
s off
f 101/131/108 111/132/108 89/133/108
f 87/134/109 93/135/109 88/136/109
f 85/137/110 91/138/110 86/139/110
f 89/140/111 93/135/111 94/141/111
f 86/139/112 92/142/112 87/134/112
f 90/143/113 113/144/113 91/145/113
f 93/146/114 97/147/114 94/148/114
f 91/145/115 95/149/115 92/150/115
f 85/151/116 112/152/116 90/143/116
f 92/150/117 96/153/117 93/146/117
f 97/147/118 100/154/118 101/131/118
f 114/155/119 126/156/119 122/157/119
f 95/149/120 100/154/120 96/153/120
f 112/158/121 125/159/121 123/160/121
f 100/154/122 106/161/122 101/131/122
f 103/162/123 119/163/123 102/164/123
f 99/165/124 105/166/124 100/154/124
f 104/167/125 118/168/125 120/169/125
f 106/161/126 110/170/126 111/132/126
f 103/171/127 109/172/127 104/173/127
f 85/151/128 102/174/128 98/175/128
f 104/173/129 110/170/129 105/166/129
f 102/174/130 108/176/130 103/171/130
f 111/177/131 88/136/131 89/140/131
f 108/178/132 87/134/132 109/179/132
f 109/179/133 88/136/133 110/180/133
f 107/181/134 86/139/134 108/178/134
f 97/147/135 89/133/135 94/148/135
f 115/182/136 120/169/136 118/168/136
f 115/182/137 119/163/137 116/183/137
f 114/184/138 117/185/138 115/182/138
f 102/164/139 117/185/139 98/186/139
f 103/162/140 120/169/140 116/183/140
f 114/184/141 118/168/141 99/187/141
f 121/188/142 126/156/142 124/189/142
f 121/188/143 125/159/143 122/157/143
f 113/190/144 124/189/144 95/191/144
f 95/191/145 126/156/145 99/192/145
f 114/155/146 125/159/146 98/193/146
f 113/190/147 123/160/147 121/188/147
f 101/131/135 106/161/135 111/132/135
f 87/134/109 92/142/109 93/135/109
f 85/137/110 90/194/110 91/138/110
f 89/140/111 88/136/111 93/135/111
f 86/139/112 91/138/112 92/142/112
f 90/143/113 112/152/113 113/144/113
f 93/146/114 96/153/114 97/147/114
f 91/145/115 113/144/115 95/149/115
f 85/151/116 98/175/116 112/152/116
f 92/150/117 95/149/117 96/153/117
f 97/147/118 96/153/118 100/154/118
f 114/155/148 99/192/148 126/156/148
f 95/149/120 99/165/120 100/154/120
f 112/158/149 98/193/149 125/159/149
f 100/154/150 105/166/150 106/161/150
f 103/162/151 116/183/151 119/163/151
f 99/165/124 104/173/124 105/166/124
f 104/167/152 99/187/152 118/168/152
f 106/161/126 105/166/126 110/170/126
f 103/171/127 108/176/127 109/172/127
f 85/151/116 107/195/116 102/174/116
f 104/173/129 109/172/129 110/170/129
f 102/174/130 107/195/130 108/176/130
f 111/177/131 110/180/131 88/136/131
f 108/178/132 86/139/132 87/134/132
f 109/179/133 87/134/133 88/136/133
f 107/181/134 85/137/134 86/139/134
f 97/147/135 101/131/135 89/133/135
f 115/182/136 116/183/136 120/169/136
f 115/182/153 117/185/153 119/163/153
f 114/184/154 98/186/154 117/185/154
f 102/164/139 119/163/139 117/185/139
f 103/162/155 104/167/155 120/169/155
f 114/184/156 115/182/156 118/168/156
f 121/188/157 122/157/157 126/156/157
f 121/188/158 123/160/158 125/159/158
f 113/190/159 121/188/159 124/189/159
f 95/191/160 124/189/160 126/156/160
f 114/155/161 122/157/161 125/159/161
f 113/190/162 112/158/162 123/160/162
