# Blender v2.81 (sub 16) OBJ File: 'garbage.blend'
# www.blender.org
v -0.767501 2.984946 3.435217
v -0.782802 2.960832 3.437660
v -0.784017 2.932559 3.442216
v -0.770821 2.907703 3.447663
v -0.746750 2.892925 3.452543
v -0.751675 2.984240 3.412510
v -0.755391 2.959608 3.398330
v -0.752365 2.931145 3.396801
v -0.743410 2.906479 3.408333
v -0.730925 2.892218 3.429835
v -0.698583 2.943900 3.400130
v -0.696833 2.917525 3.411215
v -0.704034 2.898596 3.431499
v -0.713719 2.997701 3.438545
v -0.676453 2.958067 3.448871
v -0.677668 2.929794 3.453427
v -0.692968 2.905679 3.455870
v -0.729545 2.998408 3.461252
v -0.717059 2.984147 3.482754
v -0.708104 2.959481 3.494286
v -0.705079 2.931018 3.492757
v -0.708794 2.906386 3.478577
v -0.756436 2.992030 3.459588
v -0.763636 2.973101 3.479872
v -0.761886 2.946726 3.490957
v -0.751656 2.919972 3.489875
v -0.735685 2.900009 3.476913
v -0.724784 2.990617 3.414174
v -0.708814 2.970654 3.401212
v -0.689648 2.982923 3.443424
v -0.674290 3.013827 3.480017
v -0.676527 3.013926 3.483226
v -0.700712 3.009765 3.455759
v -0.672292 2.979719 3.471896
v -0.708545 3.010115 3.466999
v -0.684443 2.980261 3.489331
v -0.669771 2.998872 3.396076
v -0.665235 3.001776 3.406067
v -0.685685 3.002416 3.405244
v -0.672353 2.978103 3.405773
v -0.683606 3.003747 3.409823
v -0.670268 2.979438 3.410365
vt 0.274240 0.539347
vt 0.265397 0.539709
vt 0.266768 0.532487
vt 0.231414 0.551290
vt 0.214659 0.541092
vt 0.231357 0.542861
vt 0.231940 0.569242
vt 0.215985 0.562822
vt 0.231472 0.559719
vt 0.230890 0.533338
vt 0.220414 0.530957
vt 0.213134 0.552274
vt 0.289666 0.544440
vt 0.282983 0.540904
vt 0.290637 0.536818
vt 0.279682 0.529141
vt 0.275518 0.536619
vt 0.273707 0.532162
vt 0.280945 0.538772
vt 0.286431 0.530872
vt 0.290637 0.551375
vt 0.284312 0.543753
vt 0.278488 0.537315
vt 0.276318 0.541045
vt 0.804698 0.251197
vt 0.792375 0.255919
vt 0.792638 0.252041
vt 0.786357 0.239035
vt 0.792578 0.249274
vt 0.791489 0.249454
vt 0.271776 0.541127
vt 0.760733 0.199751
vt 0.757502 0.209505
vt 0.750621 0.206121
vt 0.278108 0.542645
vt 0.273009 0.544115
vt 0.772804 0.201934
vt 0.766718 0.213101
vt 0.766203 0.208706
vt 0.264007 0.548518
vt 0.277612 0.547903
vt 0.268747 0.555467
vt 0.275021 0.546378
vt 0.280714 0.548498
vt 0.281954 0.545638
vt 0.276612 0.557409
vt 0.240880 0.530957
vt 0.248168 0.561486
vt 0.249693 0.550306
vt 0.246843 0.539760
vt 0.242415 0.571620
vt 0.762287 0.211045
vt 0.762255 0.210544
vt 0.761023 0.221925
vt 0.757316 0.212491
vt 0.750922 0.216572
vt 0.772804 0.220841
vt 0.791613 0.252007
vt 0.791097 0.255536
vt 0.780068 0.250772
vt 0.780487 0.263708
vt 0.804698 0.264828
vt 0.798786 0.238814
vt 0.221949 0.571626
vt 0.283377 0.553479
vn 0.2164 -0.9595 0.1806
vn -0.7221 -0.4903 -0.4880
vn -0.7400 0.4159 -0.5287
vn -0.4567 -0.8403 -0.2921
vn -0.8199 -0.0566 -0.5697
vn -0.0666 0.5053 -0.8604
vn 0.2167 -0.7509 -0.6238
vn 0.0478 0.0586 -0.9971
vn -0.2164 0.9595 -0.1806
vn 0.1456 -0.3751 -0.9155
vn 0.8150 -0.5387 -0.2134
vn 0.8545 -0.0942 0.5109
vn 0.9166 -0.1017 -0.3866
vn -0.3137 0.9405 -0.1308
vn 0.7400 -0.4159 0.5287
vn -0.4952 0.5635 0.6613
vn 0.8199 0.0566 0.5697
vn 0.6376 -0.6154 0.4635
vn 0.0666 -0.5053 0.8604
vn -0.1456 0.3751 0.9155
vn -0.2164 0.9595 -0.1807
vn -0.0478 -0.0586 0.9971
vn -0.2167 0.7509 0.6238
vn -0.5317 -0.7175 0.4500
vn -0.9166 0.1017 0.3866
vn -0.8188 -0.3321 0.4683
vn -0.8150 0.5387 0.2134
vn 0.8159 -0.0883 0.5714
vn -0.0758 0.9936 -0.0837
vn 0.5306 0.5246 -0.6657
vn -0.3988 0.8649 -0.3048
vn -0.1685 0.2141 0.9622
vn 0.8210 0.3344 -0.4628
vn 0.9042 -0.2677 -0.3327
vn 0.0418 0.9542 -0.2963
vn 0.1073 0.0812 -0.9909
vn 0.7937 -0.5769 -0.1927
vn 0.3594 0.7629 0.5374
vn -0.3924 0.3914 -0.8324
vn 0.2164 -0.9595 0.1807
vn 0.7706 0.4966 0.3994
vn -0.3137 0.9405 -0.1310
vn -0.4250 0.5673 0.7054
vn 0.6375 -0.6154 0.4635
vn 0.8160 -0.0883 0.5713
vn 0.4648 0.5207 -0.7161
vn -0.3987 0.8649 -0.3048
vn -0.1397 0.3773 0.9155
vn 0.8500 0.1686 -0.4991
vn 0.9042 -0.2678 -0.3327
vn 0.1987 -0.4348 -0.8783
vn 0.7938 -0.5769 -0.1927
vn 0.1984 0.8167 0.5418
vn -0.3047 0.3351 -0.8916
s off
f 17/1/1 27/2/1 5/3/1
f 3/4/2 9/5/2 4/6/2
f 1/7/3 7/8/3 2/9/3
f 5/10/4 9/5/4 10/11/4
f 2/9/5 8/12/5 3/4/5
f 6/13/6 29/14/6 7/15/6
f 9/16/7 13/17/7 10/18/7
f 7/15/8 11/19/8 8/20/8
f 1/21/9 28/22/9 6/13/9
f 8/20/10 12/23/10 9/16/10
f 13/17/11 16/24/11 17/1/11
f 30/25/12 42/26/12 38/27/12
f 11/19/13 16/24/13 12/23/13
f 28/28/14 41/29/14 39/30/14
f 16/24/15 22/31/15 17/1/15
f 19/32/16 35/33/16 18/34/16
f 15/35/17 21/36/17 16/24/17
f 20/37/18 34/38/18 36/39/18
f 22/31/19 26/40/19 27/2/19
f 19/41/20 25/42/20 20/43/20
f 1/21/21 18/44/21 14/45/21
f 20/43/22 26/40/22 21/36/22
f 18/44/23 24/46/23 19/41/23
f 27/47/24 4/6/24 5/10/24
f 24/48/25 3/4/25 25/49/25
f 25/49/26 4/6/26 26/50/26
f 23/51/27 2/9/27 24/48/27
f 13/17/1 5/3/1 10/18/1
f 31/52/28 36/39/28 34/38/28
f 31/52/29 35/33/29 32/53/29
f 30/54/30 33/55/30 31/52/30
f 18/34/31 33/55/31 14/56/31
f 19/32/32 36/39/32 32/53/32
f 30/54/33 34/38/33 15/57/33
f 37/58/34 42/26/34 40/59/34
f 37/58/35 41/29/35 38/27/35
f 29/60/36 40/59/36 11/61/36
f 11/61/37 42/26/37 15/62/37
f 30/25/38 41/29/38 14/63/38
f 29/60/39 39/30/39 37/58/39
f 17/1/40 22/31/40 27/2/40
f 3/4/2 8/12/2 9/5/2
f 1/7/3 6/64/3 7/8/3
f 5/10/4 4/6/4 9/5/4
f 2/9/5 7/8/5 8/12/5
f 6/13/6 28/22/6 29/14/6
f 9/16/7 12/23/7 13/17/7
f 7/15/8 29/14/8 11/19/8
f 1/21/9 14/45/9 28/22/9
f 8/20/10 11/19/10 12/23/10
f 13/17/11 12/23/11 16/24/11
f 30/25/41 15/62/41 42/26/41
f 11/19/13 15/35/13 16/24/13
f 28/28/42 14/63/42 41/29/42
f 16/24/15 21/36/15 22/31/15
f 19/32/43 32/53/43 35/33/43
f 15/35/17 20/43/17 21/36/17
f 20/37/44 15/57/44 34/38/44
f 22/31/19 21/36/19 26/40/19
f 19/41/20 24/46/20 25/42/20
f 1/21/9 23/65/9 18/44/9
f 20/43/22 25/42/22 26/40/22
f 18/44/23 23/65/23 24/46/23
f 27/47/24 26/50/24 4/6/24
f 24/48/25 2/9/25 3/4/25
f 25/49/26 3/4/26 4/6/26
f 23/51/27 1/7/27 2/9/27
f 13/17/1 17/1/1 5/3/1
f 31/52/45 32/53/45 36/39/45
f 31/52/29 33/55/29 35/33/29
f 30/54/46 14/56/46 33/55/46
f 18/34/47 35/33/47 33/55/47
f 19/32/48 20/37/48 36/39/48
f 30/54/49 31/52/49 34/38/49
f 37/58/50 38/27/50 42/26/50
f 37/58/35 39/30/35 41/29/35
f 29/60/51 37/58/51 40/59/51
f 11/61/52 40/59/52 42/26/52
f 30/25/53 38/27/53 41/29/53
f 29/60/54 28/28/54 39/30/54
v 4.160310 3.124420 -2.613576
v 4.166625 3.109895 -2.589686
v 4.168510 3.085058 -2.575502
v 4.165461 3.056565 -2.574825
v 4.158294 3.032051 -2.587836
v 4.133098 3.123608 -2.618621
v 4.119494 3.108488 -2.598424
v 4.114088 3.083434 -2.585593
v 4.118330 3.055159 -2.583564
v 4.131083 3.031239 -2.592881
v 4.095670 3.069789 -2.636000
v 4.102379 3.043342 -2.627217
v 4.121873 3.024416 -2.618084
v 4.141891 3.110776 -2.663983
v 4.131675 3.057769 -2.676316
v 4.133560 3.032932 -2.662133
v 4.139876 3.018406 -2.638243
v 4.169103 3.111588 -2.658937
v 4.181855 3.087668 -2.668255
v 4.186097 3.059393 -2.666226
v 4.180691 3.034338 -2.653394
v 4.167087 3.019218 -2.633198
v 4.178312 3.118410 -2.633734
v 4.197806 3.099484 -2.624601
v 4.204515 3.073037 -2.615819
v 4.196642 3.046155 -2.609740
v 4.176296 3.026041 -2.607994
v 4.123889 3.116786 -2.643824
v 4.103543 3.096672 -2.642078
v 4.134724 3.086262 -2.676993
v 4.164244 3.095006 -2.716769
v 4.168089 3.095121 -2.716056
v 4.153104 3.110261 -2.686008
v 4.152780 3.067551 -2.698113
v 4.166573 3.110663 -2.683511
v 4.173673 3.068174 -2.694239
v 4.085196 3.105105 -2.686115
v 4.092576 3.102641 -2.694380
v 4.100509 3.112363 -2.678198
v 4.093019 3.085724 -2.676358
v 4.103892 3.111234 -2.681986
v 4.096412 3.084592 -2.680156
vt 0.274240 0.539347
vt 0.265397 0.539709
vt 0.266768 0.532487
vt 0.231414 0.551290
vt 0.214659 0.541092
vt 0.231357 0.542861
vt 0.231940 0.569242
vt 0.215985 0.562822
vt 0.231472 0.559719
vt 0.230890 0.533338
vt 0.220414 0.530957
vt 0.213134 0.552274
vt 0.289666 0.544440
vt 0.282983 0.540904
vt 0.290637 0.536818
vt 0.279682 0.529141
vt 0.275518 0.536619
vt 0.273707 0.532162
vt 0.280945 0.538772
vt 0.286431 0.530872
vt 0.290637 0.551375
vt 0.284312 0.543753
vt 0.278488 0.537315
vt 0.276318 0.541045
vt 0.804698 0.251197
vt 0.792375 0.255919
vt 0.792638 0.252041
vt 0.786357 0.239035
vt 0.792578 0.249274
vt 0.791489 0.249454
vt 0.271776 0.541127
vt 0.760733 0.199751
vt 0.757502 0.209505
vt 0.750621 0.206121
vt 0.278108 0.542645
vt 0.273009 0.544115
vt 0.772804 0.201934
vt 0.766718 0.213101
vt 0.766203 0.208706
vt 0.264007 0.548518
vt 0.277612 0.547903
vt 0.268747 0.555467
vt 0.275021 0.546378
vt 0.280714 0.548498
vt 0.281954 0.545638
vt 0.276612 0.557409
vt 0.240880 0.530957
vt 0.248168 0.561486
vt 0.249693 0.550306
vt 0.246843 0.539760
vt 0.242415 0.571620
vt 0.762287 0.211045
vt 0.762255 0.210544
vt 0.761023 0.221925
vt 0.757316 0.212491
vt 0.750922 0.216572
vt 0.772804 0.220841
vt 0.791613 0.252007
vt 0.791097 0.255536
vt 0.780068 0.250772
vt 0.780487 0.263708
vt 0.804698 0.264828
vt 0.798786 0.238814
vt 0.221949 0.571626
vt 0.283377 0.553479
vn -0.0210 -0.9631 0.2684
vn -0.1834 0.0430 0.9821
vn -0.1248 0.8328 0.5394
vn -0.1524 -0.4282 0.8907
vn -0.1739 0.4784 0.8608
vn -0.6990 0.7124 0.0625
vn -0.7265 -0.5485 0.4139
vn -0.9137 0.3233 0.2463
vn 0.0210 0.9631 -0.2684
vn -0.9232 -0.1121 0.3677
vn -0.5879 -0.7508 -0.3011
vn 0.0917 -0.6042 -0.7915
vn -0.7446 -0.3728 -0.5538
vn 0.1050 0.9748 -0.1969
vn 0.1249 -0.8328 -0.5393
vn 0.8594 0.5000 -0.1073
vn 0.1739 -0.4784 -0.8608
vn 0.0899 -0.9383 -0.3340
vn 0.6989 -0.7124 -0.0625
vn 0.9232 0.1121 -0.3677
vn 0.9137 -0.3233 -0.2463
vn 0.7265 0.5486 -0.4139
vn 0.5603 -0.5101 0.6525
vn 0.7446 0.3728 0.5538
vn 0.7351 -0.0626 0.6751
vn 0.5878 0.7508 0.3011
vn 0.1631 -0.6002 -0.7831
vn 0.0526 0.9021 -0.4284
vn -0.7731 0.4104 -0.4835
vn -0.0233 0.9991 -0.0352
vn 0.9594 -0.0285 -0.2807
vn -0.7308 0.0621 -0.6798
vn -0.7068 -0.5244 -0.4749
vn -0.1925 0.8800 -0.4343
vn -0.9310 0.3146 0.1853
vn -0.5639 -0.7801 -0.2710
vn 0.4071 0.3325 -0.8507
vn -0.5475 0.7497 0.3717
vn -0.1249 0.8328 0.5393
vn -0.6989 0.7125 0.0625
vn -0.7265 -0.5486 0.4139
vn -0.5878 -0.7508 -0.3011
vn 0.0837 -0.0326 -0.9960
vn 0.1050 0.9748 -0.1968
vn 0.1248 -0.8328 -0.5394
vn 0.8700 0.4595 -0.1789
vn 0.6990 -0.7124 -0.0626
vn 0.5603 -0.5102 0.6525
vn 0.7350 -0.0626 0.6751
vn 0.5879 0.7508 0.3011
vn 0.1632 -0.6001 -0.7831
vn 0.0525 0.9021 -0.4284
vn -0.7912 0.4507 -0.4133
vn 0.9209 0.1114 -0.3735
vn -0.7918 -0.0807 -0.6054
vn -0.1926 0.8799 -0.4343
vn -0.9178 -0.1970 0.3447
vn 0.4841 0.4473 -0.7521
vn -0.6432 0.6810 0.3499
s off
f 59/66/55 69/67/55 47/68/55
f 45/69/56 51/70/56 46/71/56
f 43/72/57 49/73/57 44/74/57
f 47/75/58 51/70/58 52/76/58
f 44/74/59 50/77/59 45/69/59
f 48/78/60 71/79/60 49/80/60
f 51/81/61 55/82/61 52/83/61
f 49/80/62 53/84/62 50/85/62
f 43/86/63 70/87/63 48/78/63
f 50/85/64 54/88/64 51/81/64
f 55/82/65 58/89/65 59/66/65
f 72/90/66 84/91/66 80/92/66
f 53/84/67 58/89/67 54/88/67
f 70/93/68 83/94/68 81/95/68
f 58/89/69 64/96/69 59/66/69
f 61/97/70 77/98/70 60/99/70
f 57/100/71 63/101/71 58/89/71
f 62/102/72 76/103/72 78/104/72
f 64/96/73 68/105/73 69/67/73
f 61/106/74 67/107/74 62/108/74
f 43/86/63 60/109/63 56/110/63
f 62/108/75 68/105/75 63/101/75
f 60/109/76 66/111/76 61/106/76
f 69/112/77 46/71/77 47/75/77
f 66/113/78 45/69/78 67/114/78
f 67/114/79 46/71/79 68/115/79
f 65/116/80 44/74/80 66/113/80
f 55/82/55 47/68/55 52/83/55
f 73/117/81 78/104/81 76/103/81
f 73/117/82 77/98/82 74/118/82
f 72/119/83 75/120/83 73/117/83
f 60/99/84 75/120/84 56/121/84
f 61/97/85 78/104/85 74/118/85
f 72/119/86 76/103/86 57/122/86
f 79/123/87 84/91/87 82/124/87
f 79/123/88 83/94/88 80/92/88
f 71/125/89 82/124/89 53/126/89
f 53/126/90 84/91/90 57/127/90
f 72/90/91 83/94/91 56/128/91
f 71/125/92 81/95/92 79/123/92
f 59/66/55 64/96/55 69/67/55
f 45/69/56 50/77/56 51/70/56
f 43/72/93 48/129/93 49/73/93
f 47/75/58 46/71/58 51/70/58
f 44/74/59 49/73/59 50/77/59
f 48/78/94 70/87/94 71/79/94
f 51/81/95 54/88/95 55/82/95
f 49/80/62 71/79/62 53/84/62
f 43/86/63 56/110/63 70/87/63
f 50/85/64 53/84/64 54/88/64
f 55/82/96 54/88/96 58/89/96
f 72/90/97 57/127/97 84/91/97
f 53/84/67 57/100/67 58/89/67
f 70/93/98 56/128/98 83/94/98
f 58/89/99 63/101/99 64/96/99
f 61/97/100 74/118/100 77/98/100
f 57/100/71 62/108/71 63/101/71
f 62/102/72 57/122/72 76/103/72
f 64/96/101 63/101/101 68/105/101
f 61/106/74 66/111/74 67/107/74
f 43/86/63 65/130/63 60/109/63
f 62/108/75 67/107/75 68/105/75
f 60/109/76 65/130/76 66/111/76
f 69/112/102 68/115/102 46/71/102
f 66/113/78 44/74/78 45/69/78
f 67/114/103 45/69/103 46/71/103
f 65/116/104 43/72/104 44/74/104
f 55/82/55 59/66/55 47/68/55
f 73/117/105 74/118/105 78/104/105
f 73/117/106 75/120/106 77/98/106
f 72/119/107 56/121/107 75/120/107
f 60/99/84 77/98/84 75/120/84
f 61/97/108 62/102/108 78/104/108
f 72/119/109 73/117/109 76/103/109
f 79/123/87 80/92/87 84/91/87
f 79/123/110 81/95/110 83/94/110
f 71/125/111 79/123/111 82/124/111
f 53/126/90 82/124/90 84/91/90
f 72/90/112 80/92/112 83/94/112
f 71/125/113 70/93/113 81/95/113
v 0.738064 4.422435 0.044194
v 0.731743 4.404010 0.065221
v 0.728366 4.377084 0.074451
v 0.728839 4.348872 0.069408
v 0.733035 4.326932 0.051446
v 0.718534 4.421974 0.024574
v 0.697915 4.403212 0.031240
v 0.689305 4.376162 0.035212
v 0.695012 4.348073 0.035427
v 0.713505 4.326471 0.031827
v 0.703673 4.371360 -0.018049
v 0.707454 4.343915 -0.010699
v 0.720688 4.324070 0.005196
v 0.752432 4.417634 -0.009068
v 0.757101 4.367482 -0.032072
v 0.753724 4.340556 -0.022843
v 0.747403 4.322131 -0.001816
v 0.771962 4.418095 0.010552
v 0.790455 4.396493 0.006951
v 0.796162 4.368404 0.007166
v 0.787552 4.341354 0.011138
v 0.766933 4.322592 0.017804
v 0.764778 4.420496 0.037182
v 0.778013 4.400651 0.053077
v 0.781794 4.373206 0.060428
v 0.775109 4.345512 0.057264
v 0.759749 4.324993 0.044434
v 0.725718 4.419573 -0.002056
v 0.710358 4.399054 -0.014886
v 0.756628 4.395694 -0.027030
v 0.801963 4.412012 -0.041467
v 0.804723 4.412077 -0.038694
v 0.773937 4.421294 -0.020696
v 0.785417 4.381434 -0.036516
v 0.783604 4.421522 -0.010984
v 0.800413 4.381788 -0.021452
v 0.718649 4.414834 -0.059933
v 0.729600 4.414039 -0.062808
v 0.726023 4.420877 -0.043841
v 0.721974 4.394188 -0.050200
v 0.731043 4.420513 -0.045158
v 0.727008 4.393823 -0.051521
vt 0.274240 0.539347
vt 0.265397 0.539709
vt 0.266768 0.532487
vt 0.231414 0.551290
vt 0.214659 0.541092
vt 0.231357 0.542861
vt 0.231940 0.569242
vt 0.215985 0.562822
vt 0.231472 0.559719
vt 0.230890 0.533338
vt 0.220414 0.530957
vt 0.213134 0.552274
vt 0.289666 0.544440
vt 0.282983 0.540904
vt 0.290637 0.536818
vt 0.279682 0.529141
vt 0.275518 0.536619
vt 0.273707 0.532162
vt 0.280945 0.538772
vt 0.286431 0.530872
vt 0.290637 0.551375
vt 0.284312 0.543753
vt 0.278488 0.537315
vt 0.276318 0.541045
vt 0.804698 0.251197
vt 0.792375 0.255919
vt 0.792638 0.252041
vt 0.786357 0.239035
vt 0.792578 0.249274
vt 0.791489 0.249454
vt 0.271776 0.541127
vt 0.760733 0.199751
vt 0.757502 0.209505
vt 0.750621 0.206121
vt 0.278108 0.542645
vt 0.273009 0.544115
vt 0.772804 0.201934
vt 0.766718 0.213101
vt 0.766203 0.208706
vt 0.264007 0.548518
vt 0.277612 0.547903
vt 0.268747 0.555467
vt 0.275021 0.546378
vt 0.280714 0.548498
vt 0.281954 0.545638
vt 0.276612 0.557409
vt 0.240880 0.530957
vt 0.248168 0.561486
vt 0.249693 0.550306
vt 0.246843 0.539760
vt 0.242415 0.571620
vt 0.762287 0.211045
vt 0.762255 0.210544
vt 0.761023 0.221925
vt 0.757316 0.212491
vt 0.750922 0.216572
vt 0.772804 0.220841
vt 0.791613 0.252007
vt 0.791097 0.255536
vt 0.780068 0.250772
vt 0.780487 0.263708
vt 0.804698 0.264828
vt 0.798786 0.238814
vt 0.221949 0.571626
vt 0.283377 0.553479
vn -0.0524 -0.9958 0.0756
vn -0.7004 -0.1369 0.7005
vn -0.5000 0.7203 0.4808
vn -0.5687 -0.5835 0.5798
vn -0.6767 0.3132 0.6663
vn -0.6946 0.6752 -0.2482
vn -0.7633 -0.6286 -0.1492
vn -0.9275 0.2551 -0.2732
vn 0.0525 0.9958 -0.0756
vn -0.9512 -0.1951 -0.2390
vn -0.2290 -0.6970 -0.6795
vn 0.5855 -0.4511 -0.6736
vn -0.2626 -0.2832 -0.9224
vn 0.0806 0.9962 0.0317
vn 0.5000 -0.7203 -0.4808
vn 0.7086 0.5288 0.4672
vn 0.6767 -0.3132 -0.6663
vn 0.3699 -0.8615 -0.3479
vn 0.6946 -0.6752 0.2482
vn 0.9512 0.1951 0.2390
vn 0.0524 0.9958 -0.0756
vn 0.9275 -0.2551 0.2732
vn 0.7633 0.6286 0.1492
vn 0.1603 -0.6068 0.7786
vn 0.2627 0.2832 0.9224
vn 0.2389 -0.1669 0.9566
vn 0.2289 0.6970 0.6796
vn -0.0525 -0.9958 0.0756
vn 0.6391 -0.4472 -0.6257
vn 0.1743 0.9650 -0.1962
vn -0.4175 0.4741 -0.7752
vn -0.1175 0.9886 0.0937
vn 0.9494 0.0420 0.3111
vn -0.2328 0.1673 -0.9580
vn -0.2574 -0.4457 -0.8574
vn -0.0217 0.9392 -0.3427
vn -0.9069 0.2570 -0.3338
vn -0.2225 -0.7307 -0.6455
vn 0.7677 0.4875 -0.4160
vn -0.7455 0.6598 0.0939
vn -0.2290 -0.6970 -0.6796
vn 0.6247 0.1475 -0.7668
vn -0.2627 -0.2832 -0.9224
vn 0.0806 0.9962 0.0316
vn 0.7618 0.5020 0.4095
vn 0.1603 -0.6068 0.7785
vn 0.2389 -0.1670 0.9566
vn 0.2290 0.6970 0.6796
vn 0.6391 -0.4472 -0.6258
vn 0.1742 0.9650 -0.1962
vn -0.4761 0.5008 -0.7229
vn -0.1176 0.9886 0.0938
vn 0.9527 0.1953 0.2329
vn -0.3074 0.0123 -0.9515
vn -0.0218 0.9392 -0.3426
vn -0.9241 -0.2743 -0.2662
vn -0.2224 -0.7307 -0.6454
vn 0.7629 0.5844 -0.2767
vn -0.8043 0.5941 0.0127
s off
f 101/131/114 111/132/114 89/133/114
f 87/134/115 93/135/115 88/136/115
f 85/137/116 91/138/116 86/139/116
f 89/140/117 93/135/117 94/141/117
f 86/139/118 92/142/118 87/134/118
f 90/143/119 113/144/119 91/145/119
f 93/146/120 97/147/120 94/148/120
f 91/145/121 95/149/121 92/150/121
f 85/151/122 112/152/122 90/143/122
f 92/150/123 96/153/123 93/146/123
f 97/147/124 100/154/124 101/131/124
f 114/155/125 126/156/125 122/157/125
f 95/149/126 100/154/126 96/153/126
f 112/158/127 125/159/127 123/160/127
f 100/154/128 106/161/128 101/131/128
f 103/162/129 119/163/129 102/164/129
f 99/165/130 105/166/130 100/154/130
f 104/167/131 118/168/131 120/169/131
f 106/161/132 110/170/132 111/132/132
f 103/171/133 109/172/133 104/173/133
f 85/151/134 102/174/134 98/175/134
f 104/173/135 110/170/135 105/166/135
f 102/174/136 108/176/136 103/171/136
f 111/177/137 88/136/137 89/140/137
f 108/178/138 87/134/138 109/179/138
f 109/179/139 88/136/139 110/180/139
f 107/181/140 86/139/140 108/178/140
f 97/147/141 89/133/141 94/148/141
f 115/182/142 120/169/142 118/168/142
f 115/182/143 119/163/143 116/183/143
f 114/184/144 117/185/144 115/182/144
f 102/164/145 117/185/145 98/186/145
f 103/162/146 120/169/146 116/183/146
f 114/184/147 118/168/147 99/187/147
f 121/188/148 126/156/148 124/189/148
f 121/188/149 125/159/149 122/157/149
f 113/190/150 124/189/150 95/191/150
f 95/191/151 126/156/151 99/192/151
f 114/155/152 125/159/152 98/193/152
f 113/190/153 123/160/153 121/188/153
f 101/131/141 106/161/141 111/132/141
f 87/134/115 92/142/115 93/135/115
f 85/137/116 90/194/116 91/138/116
f 89/140/117 88/136/117 93/135/117
f 86/139/118 91/138/118 92/142/118
f 90/143/119 112/152/119 113/144/119
f 93/146/120 96/153/120 97/147/120
f 91/145/121 113/144/121 95/149/121
f 85/151/134 98/175/134 112/152/134
f 92/150/123 95/149/123 96/153/123
f 97/147/154 96/153/154 100/154/154
f 114/155/155 99/192/155 126/156/155
f 95/149/156 99/165/156 100/154/156
f 112/158/157 98/193/157 125/159/157
f 100/154/128 105/166/128 106/161/128
f 103/162/158 116/183/158 119/163/158
f 99/165/130 104/173/130 105/166/130
f 104/167/131 99/187/131 118/168/131
f 106/161/132 105/166/132 110/170/132
f 103/171/133 108/176/133 109/172/133
f 85/151/134 107/195/134 102/174/134
f 104/173/135 109/172/135 110/170/135
f 102/174/136 107/195/136 108/176/136
f 111/177/159 110/180/159 88/136/159
f 108/178/138 86/139/138 87/134/138
f 109/179/160 87/134/160 88/136/160
f 107/181/161 85/137/161 86/139/161
f 97/147/114 101/131/114 89/133/114
f 115/182/162 116/183/162 120/169/162
f 115/182/163 117/185/163 119/163/163
f 114/184/164 98/186/164 117/185/164
f 102/164/165 119/163/165 117/185/165
f 103/162/166 104/167/166 120/169/166
f 114/184/167 115/182/167 118/168/167
f 121/188/148 122/157/148 126/156/148
f 121/188/168 123/160/168 125/159/168
f 113/190/169 121/188/169 124/189/169
f 95/191/170 124/189/170 126/156/170
f 114/155/171 122/157/171 125/159/171
f 113/190/172 112/158/172 123/160/172
