# Blender v2.81 (sub 16) OBJ File: 'garbage.blend'
# www.blender.org
v -2.227827 2.955975 -1.498742
v -2.214824 2.930484 -1.497086
v -2.216334 2.901939 -1.494954
v -2.231951 2.877990 -1.492917
v -2.257491 2.865054 -1.491521
v -2.240576 2.962027 -1.474922
v -2.236907 2.940967 -1.455829
v -2.241833 2.914044 -1.447314
v -2.254034 2.888473 -1.451660
v -2.270240 2.871106 -1.467702
v -2.294483 2.931194 -1.447670
v -2.299630 2.903326 -1.451968
v -2.296565 2.879681 -1.467880
v -2.280477 2.973125 -1.499099
v -2.321633 2.936240 -1.495667
v -2.323143 2.907695 -1.493534
v -2.310140 2.882204 -1.491878
v -2.267727 2.967073 -1.522919
v -2.283933 2.949706 -1.538960
v -2.296134 2.924135 -1.543306
v -2.301060 2.897213 -1.534791
v -2.297391 2.876152 -1.515698
v -2.241402 2.958498 -1.522740
v -2.238337 2.934854 -1.538652
v -2.243484 2.906985 -1.542950
v -2.255464 2.882360 -1.534483
v -2.271066 2.867577 -1.515519
v -2.266901 2.970602 -1.475101
v -2.282503 2.955819 -1.456137
v -2.306016 2.960189 -1.497703
v -2.323638 2.983485 -1.538651
v -2.321837 2.982630 -1.542017
v -2.294669 2.982283 -1.517148
v -2.327115 2.952469 -1.522551
v -2.288358 2.979287 -1.528939
v -2.317326 2.947822 -1.540840
v -2.318322 2.988338 -1.453572
v -2.323888 2.989372 -1.463410
v -2.303514 2.988070 -1.464996
v -2.318586 2.965768 -1.458323
v -2.306065 2.988544 -1.469505
v -2.321144 2.966243 -1.462844
vt 0.274240 0.539347
vt 0.265397 0.539709
vt 0.266768 0.532487
vt 0.231414 0.551290
vt 0.214659 0.541092
vt 0.231357 0.542861
vt 0.231940 0.569242
vt 0.215985 0.562822
vt 0.231472 0.559719
vt 0.230890 0.533338
vt 0.220414 0.530957
vt 0.213134 0.552274
vt 0.289666 0.544440
vt 0.282983 0.540904
vt 0.290637 0.536818
vt 0.279682 0.529141
vt 0.275518 0.536619
vt 0.273707 0.532162
vt 0.280945 0.538772
vt 0.286431 0.530872
vt 0.290637 0.551375
vt 0.284312 0.543753
vt 0.278488 0.537315
vt 0.276318 0.541045
vt 0.804698 0.251197
vt 0.792375 0.255919
vt 0.792638 0.252041
vt 0.786357 0.239035
vt 0.792578 0.249274
vt 0.791489 0.249454
vt 0.271776 0.541127
vt 0.760733 0.199751
vt 0.757502 0.209505
vt 0.750621 0.206121
vt 0.278108 0.542645
vt 0.273009 0.544115
vt 0.772804 0.201934
vt 0.766718 0.213101
vt 0.766203 0.208706
vt 0.264007 0.548518
vt 0.277612 0.547903
vt 0.268747 0.555467
vt 0.275021 0.546378
vt 0.280714 0.548498
vt 0.281954 0.545638
vt 0.276612 0.557409
vt 0.240880 0.530957
vt 0.248168 0.561486
vt 0.249693 0.550306
vt 0.246843 0.539760
vt 0.242415 0.571620
vt 0.762287 0.211045
vt 0.762255 0.210544
vt 0.761023 0.221925
vt 0.757316 0.212491
vt 0.750922 0.216572
vt 0.772804 0.220841
vt 0.791613 0.252007
vt 0.791097 0.255536
vt 0.780068 0.250772
vt 0.780487 0.263708
vt 0.804698 0.264828
vt 0.798786 0.238814
vt 0.221949 0.571626
vt 0.283377 0.553479
vn -0.3093 -0.9480 0.0753
vn 0.7406 -0.4397 0.5081
vn 0.8314 0.4456 0.3318
vn 0.4265 -0.7955 0.4304
vn 0.8804 -0.0111 0.4741
vn 0.2155 0.6762 0.7045
vn -0.1895 -0.5650 0.8030
vn 0.0867 0.2860 0.9543
vn 0.3093 0.9480 -0.0753
vn -0.0531 -0.1426 0.9884
vn -0.8184 -0.3900 0.4220
vn -0.9182 -0.1182 -0.3780
vn -0.8636 0.0828 0.4973
vn 0.3977 0.9084 -0.1294
vn -0.8315 -0.4457 -0.3318
vn 0.4459 0.3463 -0.8254
vn -0.8804 0.0112 -0.4741
vn -0.7367 -0.6348 -0.2330
vn -0.2155 -0.6762 -0.7045
vn 0.0531 0.1426 -0.9884
vn -0.0867 -0.2860 -0.9543
vn 0.1895 0.5650 -0.8031
vn 0.4135 -0.8512 -0.3234
vn 0.8636 -0.0828 -0.4972
vn 0.7238 -0.5114 -0.4632
vn 0.8184 0.3900 -0.4220
vn -0.8875 -0.1300 -0.4420
vn 0.1603 0.9737 -0.1618
vn -0.3988 0.7127 0.5771
vn 0.4987 0.8655 0.0470
vn 0.0577 -0.0263 -0.9980
vn -0.7265 0.5127 0.4576
vn -0.8708 -0.0915 0.4830
vn 0.0687 0.9955 0.0658
vn 0.0287 0.3125 0.9495
vn -0.8030 -0.4339 0.4086
vn -0.3680 0.6553 -0.6596
vn 0.5254 0.5260 0.6688
vn 0.8314 0.4457 0.3318
vn -0.1895 -0.5650 0.8031
vn -0.7765 0.4708 -0.4188
vn -0.8314 -0.4457 -0.3318
vn 0.3711 0.3473 -0.8612
vn -0.8804 0.0111 -0.4741
vn 0.8636 -0.0828 -0.4973
vn -0.8876 -0.1300 -0.4420
vn 0.1603 0.9738 -0.1615
vn -0.3275 0.7134 0.6195
vn 0.0474 0.1453 -0.9882
vn -0.7629 0.3632 0.5349
vn -0.1150 -0.2033 0.9723
vn -0.2053 0.6899 -0.6941
vn 0.4422 0.4938 0.7488
s off
f 17/1/1 27/2/1 5/3/1
f 3/4/2 9/5/2 4/6/2
f 1/7/3 7/8/3 2/9/3
f 5/10/4 9/5/4 10/11/4
f 2/9/5 8/12/5 3/4/5
f 6/13/6 29/14/6 7/15/6
f 9/16/7 13/17/7 10/18/7
f 7/15/8 11/19/8 8/20/8
f 1/21/9 28/22/9 6/13/9
f 8/20/10 12/23/10 9/16/10
f 13/17/11 16/24/11 17/1/11
f 30/25/12 42/26/12 38/27/12
f 11/19/13 16/24/13 12/23/13
f 28/28/14 41/29/14 39/30/14
f 16/24/15 22/31/15 17/1/15
f 19/32/16 35/33/16 18/34/16
f 15/35/17 21/36/17 16/24/17
f 20/37/18 34/38/18 36/39/18
f 22/31/19 26/40/19 27/2/19
f 19/41/20 25/42/20 20/43/20
f 1/21/9 18/44/9 14/45/9
f 20/43/21 26/40/21 21/36/21
f 18/44/22 24/46/22 19/41/22
f 27/47/23 4/6/23 5/10/23
f 24/48/24 3/4/24 25/49/24
f 25/49/25 4/6/25 26/50/25
f 23/51/26 2/9/26 24/48/26
f 13/17/1 5/3/1 10/18/1
f 31/52/27 36/39/27 34/38/27
f 31/52/28 35/33/28 32/53/28
f 30/54/29 33/55/29 31/52/29
f 18/34/30 33/55/30 14/56/30
f 19/32/31 36/39/31 32/53/31
f 30/54/32 34/38/32 15/57/32
f 37/58/33 42/26/33 40/59/33
f 37/58/34 41/29/34 38/27/34
f 29/60/35 40/59/35 11/61/35
f 11/61/36 42/26/36 15/62/36
f 30/25/37 41/29/37 14/63/37
f 29/60/38 39/30/38 37/58/38
f 17/1/1 22/31/1 27/2/1
f 3/4/2 8/12/2 9/5/2
f 1/7/39 6/64/39 7/8/39
f 5/10/4 4/6/4 9/5/4
f 2/9/5 7/8/5 8/12/5
f 6/13/6 28/22/6 29/14/6
f 9/16/40 12/23/40 13/17/40
f 7/15/8 29/14/8 11/19/8
f 1/21/9 14/45/9 28/22/9
f 8/20/10 11/19/10 12/23/10
f 13/17/11 12/23/11 16/24/11
f 30/25/41 15/62/41 42/26/41
f 11/19/13 15/35/13 16/24/13
f 28/28/14 14/63/14 41/29/14
f 16/24/42 21/36/42 22/31/42
f 19/32/43 32/53/43 35/33/43
f 15/35/44 20/43/44 21/36/44
f 20/37/18 15/57/18 34/38/18
f 22/31/19 21/36/19 26/40/19
f 19/41/20 24/46/20 25/42/20
f 1/21/9 23/65/9 18/44/9
f 20/43/21 25/42/21 26/40/21
f 18/44/22 23/65/22 24/46/22
f 27/47/23 26/50/23 4/6/23
f 24/48/45 2/9/45 3/4/45
f 25/49/25 3/4/25 4/6/25
f 23/51/26 1/7/26 2/9/26
f 13/17/1 17/1/1 5/3/1
f 31/52/46 32/53/46 36/39/46
f 31/52/47 33/55/47 35/33/47
f 30/54/48 14/56/48 33/55/48
f 18/34/30 35/33/30 33/55/30
f 19/32/49 20/37/49 36/39/49
f 30/54/50 31/52/50 34/38/50
f 37/58/33 38/27/33 42/26/33
f 37/58/34 39/30/34 41/29/34
f 29/60/51 37/58/51 40/59/51
f 11/61/36 40/59/36 42/26/36
f 30/25/52 38/27/52 41/29/52
f 29/60/53 28/28/53 39/30/53
v -3.778361 3.089682 -2.744237
v -3.781148 3.065464 -2.759315
v -3.777051 3.037212 -2.761883
v -3.767168 3.012494 -2.751255
v -3.754146 2.997935 -2.730277
v -3.751729 3.097004 -2.742312
v -3.735021 3.078146 -2.755980
v -3.723788 3.051855 -2.758033
v -3.721040 3.025176 -2.747921
v -3.727514 3.005257 -2.728352
v -3.702192 3.065049 -2.708781
v -3.702338 3.036602 -2.705267
v -3.716716 3.011854 -2.703726
v -3.756764 3.102877 -2.694985
v -3.733859 3.063600 -2.663379
v -3.729762 3.035347 -2.665948
v -3.732550 3.011130 -2.681025
v -3.783396 3.095555 -2.696910
v -3.789870 3.075636 -2.677342
v -3.787122 3.048957 -2.667229
v -3.775890 3.022666 -2.669282
v -3.759181 3.003808 -2.682950
v -3.794194 3.088958 -2.721536
v -3.808573 3.064209 -2.719995
v -3.808719 3.035762 -2.716481
v -3.794593 3.011239 -2.711936
v -3.769980 2.997211 -2.707576
v -3.740931 3.103601 -2.717686
v -3.716318 3.089573 -2.713327
v -3.743742 3.088318 -2.674008
v -3.774176 3.106339 -2.638245
v -3.777940 3.105304 -2.638517
v -3.767334 3.109253 -2.673568
v -3.756531 3.076799 -2.645268
v -3.780516 3.105629 -2.674521
v -3.776979 3.071178 -2.646746
v -3.700213 3.119517 -2.678816
v -3.706704 3.119220 -2.669509
v -3.716896 3.119250 -2.687269
v -3.703167 3.096641 -2.678935
v -3.719871 3.119114 -2.683004
v -3.706150 3.096504 -2.674658
vt 0.274240 0.539347
vt 0.265397 0.539709
vt 0.266768 0.532487
vt 0.231414 0.551290
vt 0.214659 0.541092
vt 0.231357 0.542861
vt 0.231940 0.569242
vt 0.215985 0.562822
vt 0.231472 0.559719
vt 0.230890 0.533338
vt 0.220414 0.530957
vt 0.213134 0.552274
vt 0.289666 0.544440
vt 0.282983 0.540904
vt 0.290637 0.536818
vt 0.279682 0.529141
vt 0.275518 0.536619
vt 0.273707 0.532162
vt 0.280945 0.538772
vt 0.286431 0.530872
vt 0.290637 0.551375
vt 0.284312 0.543753
vt 0.278488 0.537315
vt 0.276318 0.541045
vt 0.804698 0.251197
vt 0.792375 0.255919
vt 0.792638 0.252041
vt 0.786357 0.239035
vt 0.792578 0.249274
vt 0.791489 0.249454
vt 0.271776 0.541127
vt 0.760733 0.199751
vt 0.757502 0.209505
vt 0.750621 0.206121
vt 0.278108 0.542645
vt 0.273009 0.544115
vt 0.772804 0.201934
vt 0.766718 0.213101
vt 0.766203 0.208706
vt 0.264007 0.548518
vt 0.277612 0.547903
vt 0.268747 0.555467
vt 0.275021 0.546378
vt 0.280714 0.548498
vt 0.281954 0.545638
vt 0.276612 0.557409
vt 0.240880 0.530957
vt 0.248168 0.561486
vt 0.249693 0.550306
vt 0.246843 0.539760
vt 0.242415 0.571620
vt 0.762287 0.211045
vt 0.762255 0.210544
vt 0.761023 0.221925
vt 0.757316 0.212491
vt 0.750922 0.216572
vt 0.772804 0.220841
vt 0.791613 0.252007
vt 0.791097 0.255536
vt 0.780068 0.250772
vt 0.780487 0.263708
vt 0.804698 0.264828
vt 0.798786 0.238814
vt 0.221949 0.571626
vt 0.283377 0.553479
vn 0.2525 -0.9566 0.1456
vn 0.1594 -0.3355 -0.9285
vn -0.0859 0.5337 -0.8413
vn 0.2447 -0.7188 -0.6507
vn 0.0452 0.0969 -0.9943
vn 0.5041 0.7531 -0.4228
vn 0.8347 -0.4994 -0.2322
vn 0.8055 0.3797 -0.4549
vn -0.2525 0.9566 -0.1456
vn 0.9197 -0.0528 -0.3891
vn 0.7553 -0.4068 0.5138
vn 0.0645 -0.2191 0.9736
vn 0.8174 0.0665 0.5722
vn -0.3374 0.9185 -0.2061
vn 0.0859 -0.5337 0.8413
vn -0.9543 0.2987 -0.0117
vn -0.0452 -0.0969 0.9943
vn 0.1438 -0.7054 0.6941
vn -0.5041 -0.7531 0.4228
vn -0.9197 0.0528 0.3891
vn -0.8055 -0.3797 0.4549
vn -0.8347 0.4994 0.2322
vn -0.4247 -0.8456 -0.3232
vn -0.8174 -0.0665 -0.5722
vn -0.7032 -0.4990 -0.5064
vn -0.7553 0.4068 -0.5138
vn 0.2525 -0.9566 0.1455
vn -0.0058 -0.2346 0.9721
vn -0.2668 0.9634 0.0278
vn 0.6540 0.7330 0.1872
vn -0.2202 0.8998 -0.3766
vn -0.9213 -0.1155 0.3714
vn 0.6993 0.4995 0.5113
vn 0.8170 -0.1085 0.5663
vn -0.0238 0.9996 0.0153
vn 0.8249 0.4014 -0.3979
vn 0.7389 -0.4505 0.5010
vn -0.4687 0.5623 0.6812
vn 0.3456 0.6229 -0.7018
vn 0.1593 -0.3355 -0.9285
vn 0.0452 0.0970 -0.9943
vn -0.0650 0.3721 0.9259
vn -0.3374 0.9186 -0.2060
vn -0.9541 0.2909 0.0709
vn -0.2525 0.9566 -0.1455
vn -0.7033 -0.4990 -0.5064
vn -0.0057 -0.2346 0.9721
vn -0.2669 0.9633 0.0278
vn 0.6612 0.7428 0.1051
vn -0.9172 0.0551 0.3945
vn 0.7926 0.3557 0.4952
vn 0.8170 -0.1084 0.5664
vn -0.0238 0.9996 0.0154
vn 0.9353 -0.1190 -0.3332
vn 0.7390 -0.4505 0.5010
vn -0.5722 0.6052 0.5535
vn 0.4554 0.5924 -0.6646
s off
f 59/66/54 69/67/54 47/68/54
f 45/69/55 51/70/55 46/71/55
f 43/72/56 49/73/56 44/74/56
f 47/75/57 51/70/57 52/76/57
f 44/74/58 50/77/58 45/69/58
f 48/78/59 71/79/59 49/80/59
f 51/81/60 55/82/60 52/83/60
f 49/80/61 53/84/61 50/85/61
f 43/86/62 70/87/62 48/78/62
f 50/85/63 54/88/63 51/81/63
f 55/82/64 58/89/64 59/66/64
f 72/90/65 84/91/65 80/92/65
f 53/84/66 58/89/66 54/88/66
f 70/93/67 83/94/67 81/95/67
f 58/89/68 64/96/68 59/66/68
f 61/97/69 77/98/69 60/99/69
f 57/100/70 63/101/70 58/89/70
f 62/102/71 76/103/71 78/104/71
f 64/96/72 68/105/72 69/67/72
f 61/106/73 67/107/73 62/108/73
f 43/86/62 60/109/62 56/110/62
f 62/108/74 68/105/74 63/101/74
f 60/109/75 66/111/75 61/106/75
f 69/112/76 46/71/76 47/75/76
f 66/113/77 45/69/77 67/114/77
f 67/114/78 46/71/78 68/115/78
f 65/116/79 44/74/79 66/113/79
f 55/82/80 47/68/80 52/83/80
f 73/117/81 78/104/81 76/103/81
f 73/117/82 77/98/82 74/118/82
f 72/119/83 75/120/83 73/117/83
f 60/99/84 75/120/84 56/121/84
f 61/97/85 78/104/85 74/118/85
f 72/119/86 76/103/86 57/122/86
f 79/123/87 84/91/87 82/124/87
f 79/123/88 83/94/88 80/92/88
f 71/125/89 82/124/89 53/126/89
f 53/126/90 84/91/90 57/127/90
f 72/90/91 83/94/91 56/128/91
f 71/125/92 81/95/92 79/123/92
f 59/66/80 64/96/80 69/67/80
f 45/69/93 50/77/93 51/70/93
f 43/72/56 48/129/56 49/73/56
f 47/75/57 46/71/57 51/70/57
f 44/74/94 49/73/94 50/77/94
f 48/78/59 70/87/59 71/79/59
f 51/81/60 54/88/60 55/82/60
f 49/80/61 71/79/61 53/84/61
f 43/86/62 56/110/62 70/87/62
f 50/85/63 53/84/63 54/88/63
f 55/82/64 54/88/64 58/89/64
f 72/90/95 57/127/95 84/91/95
f 53/84/66 57/100/66 58/89/66
f 70/93/96 56/128/96 83/94/96
f 58/89/68 63/101/68 64/96/68
f 61/97/97 74/118/97 77/98/97
f 57/100/70 62/108/70 63/101/70
f 62/102/71 57/122/71 76/103/71
f 64/96/72 63/101/72 68/105/72
f 61/106/73 66/111/73 67/107/73
f 43/86/98 65/130/98 60/109/98
f 62/108/74 67/107/74 68/105/74
f 60/109/75 65/130/75 66/111/75
f 69/112/76 68/115/76 46/71/76
f 66/113/77 44/74/77 45/69/77
f 67/114/99 45/69/99 46/71/99
f 65/116/79 43/72/79 44/74/79
f 55/82/80 59/66/80 47/68/80
f 73/117/100 74/118/100 78/104/100
f 73/117/101 75/120/101 77/98/101
f 72/119/102 56/121/102 75/120/102
f 60/99/84 77/98/84 75/120/84
f 61/97/103 62/102/103 78/104/103
f 72/119/104 73/117/104 76/103/104
f 79/123/105 80/92/105 84/91/105
f 79/123/106 81/95/106 83/94/106
f 71/125/107 79/123/107 82/124/107
f 53/126/108 82/124/108 84/91/108
f 72/90/109 80/92/109 83/94/109
f 71/125/110 70/93/110 81/95/110
v -0.920711 4.668314 -2.749714
v -0.916125 4.647989 -2.769398
v -0.916040 4.620348 -2.776985
v -0.920481 4.592797 -2.770442
v -0.928256 4.572718 -2.751522
v -0.902175 4.666464 -2.729230
v -0.884020 4.644784 -2.733920
v -0.878969 4.616648 -2.736019
v -0.888376 4.589592 -2.734964
v -0.909720 4.570868 -2.731039
v -0.895855 4.616983 -2.683284
v -0.903000 4.589883 -2.689294
v -0.918163 4.571035 -2.704671
v -0.937598 4.668649 -2.696979
v -0.949813 4.621019 -2.671515
v -0.949729 4.593378 -2.679102
v -0.945142 4.573053 -2.698787
v -0.956133 4.670500 -2.717462
v -0.977478 4.651775 -2.713537
v -0.986885 4.624720 -2.712482
v -0.981834 4.596583 -2.714581
v -0.963678 4.574903 -2.719270
v -0.947690 4.670332 -2.743829
v -0.962854 4.651484 -2.759207
v -0.969998 4.624384 -2.765217
v -0.967210 4.596292 -2.760250
v -0.955235 4.574736 -2.745638
v -0.910619 4.666631 -2.702863
v -0.898644 4.645075 -2.688250
v -0.945373 4.648570 -2.678058
v -0.988626 4.671549 -2.666608
v -0.991245 4.671811 -2.669503
v -0.958843 4.675798 -2.686557
v -0.976152 4.638818 -2.669130
v -0.968018 4.676714 -2.696697
v -0.990384 4.640239 -2.684857
v -0.906444 4.664484 -2.644552
v -0.917504 4.665311 -2.642140
v -0.912328 4.670468 -2.661268
v -0.912136 4.643909 -2.653289
v -0.917397 4.670847 -2.660163
v -0.917220 4.644289 -2.652180
vt 0.274240 0.539347
vt 0.265397 0.539709
vt 0.266768 0.532487
vt 0.231414 0.551290
vt 0.214659 0.541092
vt 0.231357 0.542861
vt 0.231940 0.569242
vt 0.215985 0.562822
vt 0.231472 0.559719
vt 0.230890 0.533338
vt 0.220414 0.530957
vt 0.213134 0.552274
vt 0.289666 0.544440
vt 0.282983 0.540904
vt 0.290637 0.536818
vt 0.279682 0.529141
vt 0.275518 0.536619
vt 0.273707 0.532162
vt 0.280945 0.538772
vt 0.286431 0.530872
vt 0.290637 0.551375
vt 0.284312 0.543753
vt 0.278488 0.537315
vt 0.276318 0.541045
vt 0.804698 0.251197
vt 0.792375 0.255919
vt 0.792638 0.252041
vt 0.786357 0.239035
vt 0.792578 0.249274
vt 0.791489 0.249454
vt 0.271776 0.541127
vt 0.760733 0.199751
vt 0.757502 0.209505
vt 0.750621 0.206121
vt 0.278108 0.542645
vt 0.273009 0.544115
vt 0.772804 0.201934
vt 0.766718 0.213101
vt 0.766203 0.208706
vt 0.264007 0.548518
vt 0.277612 0.547903
vt 0.268747 0.555467
vt 0.275021 0.546378
vt 0.280714 0.548498
vt 0.281954 0.545638
vt 0.276612 0.557409
vt 0.240880 0.530957
vt 0.248168 0.561486
vt 0.249693 0.550306
vt 0.246843 0.539760
vt 0.242415 0.571620
vt 0.762287 0.211045
vt 0.762255 0.210544
vt 0.761023 0.221925
vt 0.757316 0.212491
vt 0.750922 0.216572
vt 0.772804 0.220841
vt 0.791613 0.252007
vt 0.791097 0.255536
vt 0.780068 0.250772
vt 0.780487 0.263708
vt 0.804698 0.264828
vt 0.798786 0.238814
vt 0.221949 0.571626
vt 0.283377 0.553479
vn -0.0787 -0.9967 -0.0189
vn 0.7018 -0.2697 -0.6594
vn 0.6099 0.6180 -0.4961
vn 0.5069 -0.6869 -0.5208
vn 0.7373 0.1809 -0.6509
vn 0.7690 0.5915 0.2425
vn 0.6660 -0.7135 0.2178
vn 0.9423 0.1467 0.3008
vn 0.0786 0.9967 0.0188
vn 0.9068 -0.3039 0.2923
vn 0.1076 -0.6790 0.7262
vn -0.6657 -0.3289 0.6698
vn 0.1872 -0.2595 0.9474
vn 0.0549 0.9945 -0.0895
vn -0.6099 -0.6181 0.4961
vn -0.6132 0.5885 -0.5270
vn -0.7373 -0.1809 0.6509
vn -0.4949 -0.7828 0.3771
vn -0.7689 -0.5915 -0.2425
vn -0.9068 0.3039 -0.2923
vn 0.0787 0.9967 0.0188
vn -0.9423 -0.1467 -0.3008
vn -0.6660 0.7135 -0.2178
vn -0.2106 -0.6260 -0.7509
vn -0.1872 0.2595 -0.9474
vn -0.2228 -0.1911 -0.9559
vn -0.1076 0.6790 -0.7262
vn -0.0787 -0.9967 -0.0188
vn -0.7165 -0.3208 0.6194
vn -0.0505 0.9895 0.1354
vn 0.4476 0.4607 0.7664
vn 0.2524 0.9571 -0.1420
vn -0.9228 0.1478 -0.3558
vn 0.2167 0.1924 0.9571
vn 0.1626 -0.4234 0.8912
vn 0.1344 0.9470 0.2917
vn 0.9199 0.1550 0.3602
vn 0.0979 -0.7136 0.6937
vn -0.7106 0.6083 0.3536
vn 0.8303 0.5491 -0.0957
vn -0.0786 -0.9967 -0.0189
vn 0.6099 0.6181 -0.4961
vn 0.5069 -0.6870 -0.5207
vn 0.0787 0.9967 0.0189
vn -0.6279 0.2742 0.7284
vn -0.6099 -0.6180 0.4961
vn -0.6716 0.5724 -0.4704
vn -0.4949 -0.7829 0.3771
vn -0.7690 -0.5915 -0.2425
vn -0.0506 0.9895 0.1352
vn 0.5112 0.4762 0.7155
vn -0.9084 0.3047 -0.2862
vn 0.2701 0.0288 0.9624
vn 0.1627 -0.4234 0.8912
vn 0.1345 0.9470 0.2916
vn 0.8682 -0.3771 0.3225
vn 0.0980 -0.7137 0.6936
vn -0.6876 0.6952 0.2095
vn 0.8765 0.4812 -0.0083
s off
f 101/131/111 111/132/111 89/133/111
f 87/134/112 93/135/112 88/136/112
f 85/137/113 91/138/113 86/139/113
f 89/140/114 93/135/114 94/141/114
f 86/139/115 92/142/115 87/134/115
f 90/143/116 113/144/116 91/145/116
f 93/146/117 97/147/117 94/148/117
f 91/145/118 95/149/118 92/150/118
f 85/151/119 112/152/119 90/143/119
f 92/150/120 96/153/120 93/146/120
f 97/147/121 100/154/121 101/131/121
f 114/155/122 126/156/122 122/157/122
f 95/149/123 100/154/123 96/153/123
f 112/158/124 125/159/124 123/160/124
f 100/154/125 106/161/125 101/131/125
f 103/162/126 119/163/126 102/164/126
f 99/165/127 105/166/127 100/154/127
f 104/167/128 118/168/128 120/169/128
f 106/161/129 110/170/129 111/132/129
f 103/171/130 109/172/130 104/173/130
f 85/151/131 102/174/131 98/175/131
f 104/173/132 110/170/132 105/166/132
f 102/174/133 108/176/133 103/171/133
f 111/177/134 88/136/134 89/140/134
f 108/178/135 87/134/135 109/179/135
f 109/179/136 88/136/136 110/180/136
f 107/181/137 86/139/137 108/178/137
f 97/147/138 89/133/138 94/148/138
f 115/182/139 120/169/139 118/168/139
f 115/182/140 119/163/140 116/183/140
f 114/184/141 117/185/141 115/182/141
f 102/164/142 117/185/142 98/186/142
f 103/162/143 120/169/143 116/183/143
f 114/184/144 118/168/144 99/187/144
f 121/188/145 126/156/145 124/189/145
f 121/188/146 125/159/146 122/157/146
f 113/190/147 124/189/147 95/191/147
f 95/191/148 126/156/148 99/192/148
f 114/155/149 125/159/149 98/193/149
f 113/190/150 123/160/150 121/188/150
f 101/131/151 106/161/151 111/132/151
f 87/134/112 92/142/112 93/135/112
f 85/137/152 90/194/152 91/138/152
f 89/140/153 88/136/153 93/135/153
f 86/139/115 91/138/115 92/142/115
f 90/143/116 112/152/116 113/144/116
f 93/146/117 96/153/117 97/147/117
f 91/145/118 113/144/118 95/149/118
f 85/151/154 98/175/154 112/152/154
f 92/150/120 95/149/120 96/153/120
f 97/147/121 96/153/121 100/154/121
f 114/155/155 99/192/155 126/156/155
f 95/149/123 99/165/123 100/154/123
f 112/158/124 98/193/124 125/159/124
f 100/154/156 105/166/156 106/161/156
f 103/162/157 116/183/157 119/163/157
f 99/165/127 104/173/127 105/166/127
f 104/167/158 99/187/158 118/168/158
f 106/161/159 105/166/159 110/170/159
f 103/171/130 108/176/130 109/172/130
f 85/151/154 107/195/154 102/174/154
f 104/173/132 109/172/132 110/170/132
f 102/174/133 107/195/133 108/176/133
f 111/177/134 110/180/134 88/136/134
f 108/178/135 86/139/135 87/134/135
f 109/179/136 87/134/136 88/136/136
f 107/181/137 85/137/137 86/139/137
f 97/147/138 101/131/138 89/133/138
f 115/182/139 116/183/139 120/169/139
f 115/182/160 117/185/160 119/163/160
f 114/184/161 98/186/161 117/185/161
f 102/164/142 119/163/142 117/185/142
f 103/162/162 104/167/162 120/169/162
f 114/184/163 115/182/163 118/168/163
f 121/188/164 122/157/164 126/156/164
f 121/188/165 123/160/165 125/159/165
f 113/190/166 121/188/166 124/189/166
f 95/191/167 124/189/167 126/156/167
f 114/155/168 122/157/168 125/159/168
f 113/190/169 112/158/169 123/160/169
