# Blender v2.81 (sub 16) OBJ File: 'garbage.blend'
# www.blender.org
v -0.752909 2.343613 -2.175689
v -0.739718 2.324291 -2.159128
v -0.736915 2.297305 -2.149883
v -0.745249 2.269885 -2.150430
v -0.762488 2.249379 -2.160623
v -0.778960 2.347616 -2.167211
v -0.784840 2.331225 -2.144444
v -0.789017 2.305312 -2.132926
v -0.790370 2.276819 -2.135745
v -0.788539 2.253382 -2.152145
v -0.830585 2.303694 -2.169474
v -0.826370 2.275418 -2.167396
v -0.809323 2.252573 -2.170419
v -0.794477 2.341995 -2.212237
v -0.820051 2.294069 -2.222977
v -0.817247 2.267083 -2.213732
v -0.804056 2.247761 -2.197170
v -0.768426 2.337991 -2.220715
v -0.766595 2.314554 -2.237115
v -0.767949 2.286062 -2.239934
v -0.772125 2.260148 -2.228416
v -0.778005 2.243757 -2.205649
v -0.747642 2.338800 -2.202441
v -0.730596 2.315955 -2.205464
v -0.726381 2.287679 -2.203386
v -0.736126 2.261549 -2.196765
v -0.757221 2.244566 -2.187375
v -0.799744 2.346807 -2.185485
v -0.820839 2.329824 -2.176095
v -0.811717 2.321489 -2.222430
v -0.802196 2.332906 -2.270482
v -0.798514 2.332340 -2.271680
v -0.794786 2.343837 -2.236886
v -0.809508 2.304478 -2.251204
v -0.781891 2.341855 -2.241083
v -0.789506 2.301404 -2.257714
v -0.854831 2.348545 -2.205097
v -0.852672 2.346572 -2.216064
v -0.836451 2.352002 -2.204808
v -0.847723 2.326814 -2.202055
v -0.835461 2.351098 -2.209835
v -0.846730 2.325907 -2.207095
vt 0.274240 0.539347
vt 0.265397 0.539709
vt 0.266768 0.532487
vt 0.231414 0.551290
vt 0.214659 0.541092
vt 0.231357 0.542861
vt 0.231940 0.569242
vt 0.215985 0.562822
vt 0.231472 0.559719
vt 0.230890 0.533338
vt 0.220414 0.530957
vt 0.213134 0.552274
vt 0.289666 0.544440
vt 0.282983 0.540904
vt 0.290637 0.536818
vt 0.279682 0.529141
vt 0.275518 0.536619
vt 0.273707 0.532162
vt 0.280945 0.538772
vt 0.286431 0.530872
vt 0.290637 0.551375
vt 0.284312 0.543753
vt 0.278488 0.537315
vt 0.276318 0.541045
vt 0.804698 0.251197
vt 0.792375 0.255919
vt 0.792638 0.252041
vt 0.786357 0.239035
vt 0.792578 0.249274
vt 0.791489 0.249454
vt 0.271776 0.541127
vt 0.760733 0.199751
vt 0.757502 0.209505
vt 0.750621 0.206121
vt 0.278108 0.542645
vt 0.273009 0.544115
vt 0.772804 0.201934
vt 0.766718 0.213101
vt 0.766203 0.208706
vt 0.264007 0.548518
vt 0.277612 0.547903
vt 0.268747 0.555467
vt 0.275021 0.546378
vt 0.280714 0.548498
vt 0.281954 0.545638
vt 0.276612 0.557409
vt 0.240880 0.530957
vt 0.248168 0.561486
vt 0.249693 0.550306
vt 0.246843 0.539760
vt 0.242415 0.571620
vt 0.762287 0.211045
vt 0.762255 0.210544
vt 0.761023 0.221925
vt 0.757316 0.212491
vt 0.750922 0.216572
vt 0.772804 0.220841
vt 0.791613 0.252007
vt 0.791097 0.255536
vt 0.780068 0.250772
vt 0.780487 0.263708
vt 0.804698 0.264828
vt 0.798786 0.238814
vt 0.221949 0.571626
vt 0.283377 0.553479
vn -0.0999 -0.9825 0.1571
vn 0.2926 -0.1079 0.9501
vn 0.3100 0.7318 0.6069
vn 0.1792 -0.5546 0.8126
vn 0.3378 0.3363 0.8791
vn -0.4283 0.7822 0.4525
vn -0.5591 -0.5042 0.6582
vn -0.6136 0.4012 0.6801
vn 0.0999 0.9825 -0.1571
vn -0.6587 -0.0430 0.7511
vn -0.8037 -0.5929 -0.0516
vn -0.4043 -0.4594 -0.7908
vn -0.9739 -0.1572 -0.1635
vn 0.2074 0.9691 -0.1335
vn -0.3100 -0.7318 -0.6069
vn 0.8024 0.3830 -0.4577
vn -0.3378 -0.3363 -0.8791
vn -0.2699 -0.8663 -0.4203
vn 0.4283 -0.7822 -0.4525
vn 0.6587 0.0430 -0.7511
vn 0.6136 -0.4012 -0.6801
vn 0.5591 0.5042 -0.6582
vn 0.6729 -0.6936 0.2572
vn 0.9739 0.1572 0.1635
vn 0.9288 -0.2870 0.2345
vn 0.8037 0.5929 0.0516
vn -0.3377 -0.4672 -0.8171
vn 0.0423 0.9473 -0.3176
vn -0.8023 0.5967 -0.0172
vn 0.1741 0.9821 0.0712
vn 0.6998 -0.1146 -0.7051
vn -0.9273 0.2867 -0.2406
vn -0.9375 -0.3243 -0.1262
vn -0.1776 0.9619 -0.2080
vn -0.6579 0.4061 0.6342
vn -0.7754 -0.6302 -0.0393
vn 0.0396 0.4179 -0.9076
vn -0.1497 0.7415 0.6541
vn -0.3832 0.1347 -0.9138
vn 0.7707 0.3549 -0.5291
vn 0.5590 0.5042 -0.6582
vn 0.8037 0.5928 0.0516
vn -0.3379 -0.4672 -0.8170
vn 0.0422 0.9473 -0.3175
vn -0.7779 0.6259 0.0565
vn 0.6540 0.0436 -0.7553
vn -0.9768 0.1431 -0.1595
vn -0.9375 -0.3243 -0.1263
vn -0.1776 0.9619 -0.2081
vn -0.6823 -0.1223 0.7208
vn 0.1751 0.5009 -0.8476
vn -0.2571 0.6922 0.6744
s off
f 17/1/1 27/2/1 5/3/1
f 3/4/2 9/5/2 4/6/2
f 1/7/3 7/8/3 2/9/3
f 5/10/4 9/5/4 10/11/4
f 2/9/5 8/12/5 3/4/5
f 6/13/6 29/14/6 7/15/6
f 9/16/7 13/17/7 10/18/7
f 7/15/8 11/19/8 8/20/8
f 1/21/9 28/22/9 6/13/9
f 8/20/10 12/23/10 9/16/10
f 13/17/11 16/24/11 17/1/11
f 30/25/12 42/26/12 38/27/12
f 11/19/13 16/24/13 12/23/13
f 28/28/14 41/29/14 39/30/14
f 16/24/15 22/31/15 17/1/15
f 19/32/16 35/33/16 18/34/16
f 15/35/17 21/36/17 16/24/17
f 20/37/18 34/38/18 36/39/18
f 22/31/19 26/40/19 27/2/19
f 19/41/20 25/42/20 20/43/20
f 1/21/9 18/44/9 14/45/9
f 20/43/21 26/40/21 21/36/21
f 18/44/22 24/46/22 19/41/22
f 27/47/23 4/6/23 5/10/23
f 24/48/24 3/4/24 25/49/24
f 25/49/25 4/6/25 26/50/25
f 23/51/26 2/9/26 24/48/26
f 13/17/1 5/3/1 10/18/1
f 31/52/27 36/39/27 34/38/27
f 31/52/28 35/33/28 32/53/28
f 30/54/29 33/55/29 31/52/29
f 18/34/30 33/55/30 14/56/30
f 19/32/31 36/39/31 32/53/31
f 30/54/32 34/38/32 15/57/32
f 37/58/33 42/26/33 40/59/33
f 37/58/34 41/29/34 38/27/34
f 29/60/35 40/59/35 11/61/35
f 11/61/36 42/26/36 15/62/36
f 30/25/37 41/29/37 14/63/37
f 29/60/38 39/30/38 37/58/38
f 17/1/1 22/31/1 27/2/1
f 3/4/2 8/12/2 9/5/2
f 1/7/3 6/64/3 7/8/3
f 5/10/4 4/6/4 9/5/4
f 2/9/5 7/8/5 8/12/5
f 6/13/6 28/22/6 29/14/6
f 9/16/7 12/23/7 13/17/7
f 7/15/8 29/14/8 11/19/8
f 1/21/9 14/45/9 28/22/9
f 8/20/10 11/19/10 12/23/10
f 13/17/11 12/23/11 16/24/11
f 30/25/39 15/62/39 42/26/39
f 11/19/13 15/35/13 16/24/13
f 28/28/14 14/63/14 41/29/14
f 16/24/15 21/36/15 22/31/15
f 19/32/40 32/53/40 35/33/40
f 15/35/17 20/43/17 21/36/17
f 20/37/18 15/57/18 34/38/18
f 22/31/19 21/36/19 26/40/19
f 19/41/20 24/46/20 25/42/20
f 1/21/9 23/65/9 18/44/9
f 20/43/21 25/42/21 26/40/21
f 18/44/41 23/65/41 24/46/41
f 27/47/23 26/50/23 4/6/23
f 24/48/24 2/9/24 3/4/24
f 25/49/25 3/4/25 4/6/25
f 23/51/42 1/7/42 2/9/42
f 13/17/1 17/1/1 5/3/1
f 31/52/43 32/53/43 36/39/43
f 31/52/44 33/55/44 35/33/44
f 30/54/45 14/56/45 33/55/45
f 18/34/30 35/33/30 33/55/30
f 19/32/46 20/37/46 36/39/46
f 30/54/47 31/52/47 34/38/47
f 37/58/48 38/27/48 42/26/48
f 37/58/49 39/30/49 41/29/49
f 29/60/50 37/58/50 40/59/50
f 11/61/36 40/59/36 42/26/36
f 30/25/51 38/27/51 41/29/51
f 29/60/52 28/28/52 39/30/52
v -3.176159 2.802156 -5.988815
v -3.167920 2.790450 -6.013648
v -3.160757 2.767351 -6.029035
v -3.156590 2.739051 -6.030854
v -3.156535 2.713131 -6.018616
v -3.155988 2.800285 -5.969942
v -3.132983 2.787209 -5.980959
v -3.120415 2.763609 -5.991289
v -3.121653 2.735810 -5.998165
v -3.136364 2.711260 -5.999743
v -3.131594 2.744193 -5.940650
v -3.131334 2.718995 -5.954309
v -3.141953 2.701552 -5.974423
v -3.187337 2.782741 -5.938176
v -3.183115 2.728521 -5.927757
v -3.175952 2.705422 -5.943144
v -3.167713 2.693716 -5.967977
v -3.207509 2.784612 -5.957049
v -3.222219 2.760062 -5.958627
v -3.223457 2.732263 -5.965503
v -3.210889 2.708663 -5.975833
v -3.187884 2.695587 -5.986850
v -3.201919 2.794320 -5.982368
v -3.212538 2.776877 -6.002482
v -3.212278 2.751679 -6.016142
v -3.201208 2.725478 -6.019688
v -3.182295 2.705295 -6.012169
v -3.161577 2.790577 -5.944623
v -3.142664 2.770394 -5.937104
v -3.187282 2.756821 -5.925938
v -3.233965 2.761723 -5.907865
v -3.236815 2.761987 -5.910532
v -3.208641 2.780035 -5.925931
v -3.213055 2.736258 -5.920014
v -3.218626 2.780961 -5.935274
v -3.228542 2.737695 -5.934505
v -3.151419 2.773618 -5.889565
v -3.161979 2.770405 -5.886922
v -3.160321 2.781985 -5.903728
v -3.151875 2.755570 -5.903921
v -3.165161 2.780513 -5.902517
v -3.156729 2.754093 -5.902707
vt 0.274240 0.539347
vt 0.265397 0.539709
vt 0.266768 0.532487
vt 0.231414 0.551290
vt 0.214659 0.541092
vt 0.231357 0.542861
vt 0.231940 0.569242
vt 0.215985 0.562822
vt 0.231472 0.559719
vt 0.230890 0.533338
vt 0.220414 0.530957
vt 0.213134 0.552274
vt 0.289666 0.544440
vt 0.282983 0.540904
vt 0.290637 0.536818
vt 0.279682 0.529141
vt 0.275518 0.536619
vt 0.273707 0.532162
vt 0.280945 0.538772
vt 0.286431 0.530872
vt 0.290637 0.551375
vt 0.284312 0.543753
vt 0.278488 0.537315
vt 0.276318 0.541045
vt 0.804698 0.251197
vt 0.792375 0.255919
vt 0.792638 0.252041
vt 0.786357 0.239035
vt 0.792578 0.249274
vt 0.791489 0.249454
vt 0.271776 0.541127
vt 0.760733 0.199751
vt 0.757502 0.209505
vt 0.750621 0.206121
vt 0.278108 0.542645
vt 0.273009 0.544115
vt 0.772804 0.201934
vt 0.766718 0.213101
vt 0.766203 0.208706
vt 0.264007 0.548518
vt 0.277612 0.547903
vt 0.268747 0.555467
vt 0.275021 0.546378
vt 0.280714 0.548498
vt 0.281954 0.545638
vt 0.276612 0.557409
vt 0.240880 0.530957
vt 0.248168 0.561486
vt 0.249693 0.550306
vt 0.246843 0.539760
vt 0.242415 0.571620
vt 0.762287 0.211045
vt 0.762255 0.210544
vt 0.761023 0.221925
vt 0.757316 0.212491
vt 0.750922 0.216572
vt 0.772804 0.220841
vt 0.791613 0.252007
vt 0.791097 0.255536
vt 0.780068 0.250772
vt 0.780487 0.263708
vt 0.804698 0.264828
vt 0.798786 0.238814
vt 0.221949 0.571626
vt 0.283377 0.553479
vn 0.2046 -0.9282 -0.3107
vn 0.6831 0.1465 -0.7155
vn 0.3602 0.8842 -0.2973
vn 0.6282 -0.3311 -0.7041
vn 0.5905 0.5662 -0.5751
vn 0.5901 0.7017 0.3993
vn 0.8580 -0.5136 -0.0075
vn 0.8868 0.3310 0.3227
vn -0.2046 0.9282 0.3107
vn 0.9793 -0.0886 0.1822
vn 0.3638 -0.7902 0.4932
vn -0.4786 -0.6853 0.5490
vn 0.3425 -0.4450 0.8275
vn -0.2370 0.9493 0.2067
vn -0.3602 -0.8842 0.2973
vn -0.8018 0.5014 -0.3253
vn -0.5906 -0.5662 0.5751
vn -0.2153 -0.9673 0.1342
vn -0.5901 -0.7017 -0.3993
vn -0.9793 0.0887 -0.1822
vn -0.8868 -0.3310 -0.3227
vn -0.8580 0.5136 0.0075
vn -0.0959 -0.4251 -0.9000
vn -0.3424 0.4450 -0.8275
vn -0.2500 0.0254 -0.9679
vn -0.3638 0.7902 -0.4932
vn -0.5342 -0.6790 0.5036
vn -0.3149 0.8507 0.4208
vn 0.3703 0.3405 0.8642
vn -0.0429 0.9887 0.1439
vn -0.9566 -0.0409 -0.2887
vn 0.2439 -0.0264 0.9694
vn 0.3600 -0.5863 0.7257
vn -0.1112 0.8234 0.5564
vn 0.8687 0.3153 0.3820
vn 0.3612 -0.8156 0.4521
vn -0.8163 0.2452 0.5230
vn 0.6283 0.7754 0.0631
vn 0.6831 0.1466 -0.7155
vn 0.3602 0.8842 -0.2974
vn 0.6281 -0.3311 -0.7042
vn 0.5906 0.5662 -0.5750
vn 0.9793 -0.0887 0.1822
vn -0.6072 -0.1397 0.7822
vn -0.8476 0.4535 -0.2754
vn -0.5906 -0.5662 0.5750
vn -0.8867 -0.3310 -0.3227
vn -0.8580 0.5137 0.0075
vn -0.2499 0.0254 -0.9679
vn -0.5343 -0.6789 0.5036
vn -0.3149 0.8507 0.4209
vn 0.4218 0.3878 0.8196
vn -0.9805 0.0872 -0.1761
vn 0.3415 -0.1613 0.9259
vn 0.3599 -0.5864 0.7257
vn -0.1113 0.8234 0.5564
vn 0.9660 -0.1754 0.1898
vn -0.8327 0.3715 0.4107
vn 0.7000 0.7029 0.1262
s off
f 59/66/53 69/67/53 47/68/53
f 45/69/54 51/70/54 46/71/54
f 43/72/55 49/73/55 44/74/55
f 47/75/56 51/70/56 52/76/56
f 44/74/57 50/77/57 45/69/57
f 48/78/58 71/79/58 49/80/58
f 51/81/59 55/82/59 52/83/59
f 49/80/60 53/84/60 50/85/60
f 43/86/61 70/87/61 48/78/61
f 50/85/62 54/88/62 51/81/62
f 55/82/63 58/89/63 59/66/63
f 72/90/64 84/91/64 80/92/64
f 53/84/65 58/89/65 54/88/65
f 70/93/66 83/94/66 81/95/66
f 58/89/67 64/96/67 59/66/67
f 61/97/68 77/98/68 60/99/68
f 57/100/69 63/101/69 58/89/69
f 62/102/70 76/103/70 78/104/70
f 64/96/71 68/105/71 69/67/71
f 61/106/72 67/107/72 62/108/72
f 43/86/61 60/109/61 56/110/61
f 62/108/73 68/105/73 63/101/73
f 60/109/74 66/111/74 61/106/74
f 69/112/75 46/71/75 47/75/75
f 66/113/76 45/69/76 67/114/76
f 67/114/77 46/71/77 68/115/77
f 65/116/78 44/74/78 66/113/78
f 55/82/53 47/68/53 52/83/53
f 73/117/79 78/104/79 76/103/79
f 73/117/80 77/98/80 74/118/80
f 72/119/81 75/120/81 73/117/81
f 60/99/82 75/120/82 56/121/82
f 61/97/83 78/104/83 74/118/83
f 72/119/84 76/103/84 57/122/84
f 79/123/85 84/91/85 82/124/85
f 79/123/86 83/94/86 80/92/86
f 71/125/87 82/124/87 53/126/87
f 53/126/88 84/91/88 57/127/88
f 72/90/89 83/94/89 56/128/89
f 71/125/90 81/95/90 79/123/90
f 59/66/53 64/96/53 69/67/53
f 45/69/91 50/77/91 51/70/91
f 43/72/92 48/129/92 49/73/92
f 47/75/93 46/71/93 51/70/93
f 44/74/94 49/73/94 50/77/94
f 48/78/58 70/87/58 71/79/58
f 51/81/59 54/88/59 55/82/59
f 49/80/60 71/79/60 53/84/60
f 43/86/61 56/110/61 70/87/61
f 50/85/95 53/84/95 54/88/95
f 55/82/63 54/88/63 58/89/63
f 72/90/96 57/127/96 84/91/96
f 53/84/65 57/100/65 58/89/65
f 70/93/66 56/128/66 83/94/66
f 58/89/67 63/101/67 64/96/67
f 61/97/97 74/118/97 77/98/97
f 57/100/98 62/108/98 63/101/98
f 62/102/70 57/122/70 76/103/70
f 64/96/71 63/101/71 68/105/71
f 61/106/72 66/111/72 67/107/72
f 43/86/61 65/130/61 60/109/61
f 62/108/99 67/107/99 68/105/99
f 60/109/100 65/130/100 66/111/100
f 69/112/75 68/115/75 46/71/75
f 66/113/76 44/74/76 45/69/76
f 67/114/101 45/69/101 46/71/101
f 65/116/78 43/72/78 44/74/78
f 55/82/53 59/66/53 47/68/53
f 73/117/102 74/118/102 78/104/102
f 73/117/103 75/120/103 77/98/103
f 72/119/104 56/121/104 75/120/104
f 60/99/82 77/98/82 75/120/82
f 61/97/105 62/102/105 78/104/105
f 72/119/106 73/117/106 76/103/106
f 79/123/107 80/92/107 84/91/107
f 79/123/108 81/95/108 83/94/108
f 71/125/109 79/123/109 82/124/109
f 53/126/88 82/124/88 84/91/88
f 72/90/110 80/92/110 83/94/110
f 71/125/111 70/93/111 81/95/111
v -0.090858 4.134039 -3.704841
v -0.085853 4.105891 -3.702774
v -0.093840 4.079848 -3.693855
v -0.112678 4.062887 -3.680474
v -0.137319 4.059553 -3.666216
v -0.089471 4.146082 -3.679949
v -0.083451 4.126750 -3.659660
v -0.091066 4.103934 -3.644071
v -0.110275 4.083745 -3.637360
v -0.135932 4.071596 -3.641324
v -0.131562 4.137829 -3.627418
v -0.145346 4.113100 -3.622937
v -0.156180 4.088543 -3.632997
v -0.131355 4.167935 -3.688188
v -0.174833 4.147640 -3.660548
v -0.182820 4.121596 -3.651629
v -0.177816 4.093449 -3.649562
v -0.132742 4.155892 -3.713080
v -0.158398 4.143742 -3.717044
v -0.177608 4.123554 -3.710332
v -0.185223 4.100738 -3.694743
v -0.179203 4.081406 -3.674454
v -0.112493 4.138944 -3.721407
v -0.123327 4.114388 -3.731466
v -0.137111 4.089658 -3.726986
v -0.150151 4.071383 -3.709166
v -0.158954 4.064458 -3.682781
v -0.109719 4.163030 -3.671623
v -0.118522 4.156105 -3.645238
v -0.155996 4.164601 -3.673930
v -0.183092 4.188881 -3.708661
v -0.183288 4.187179 -3.712178
v -0.149080 4.179776 -3.700705
v -0.187178 4.162390 -3.685970
v -0.149766 4.173815 -3.713027
v -0.188243 4.153144 -3.705082
v -0.139229 4.198939 -3.636100
v -0.148098 4.200950 -3.642891
v -0.131768 4.192683 -3.652071
v -0.147627 4.177477 -3.635147
v -0.135833 4.193604 -3.655183
v -0.151704 4.178401 -3.638268
vt 0.274240 0.539347
vt 0.265397 0.539709
vt 0.266768 0.532487
vt 0.231414 0.551290
vt 0.214659 0.541092
vt 0.231357 0.542861
vt 0.231940 0.569242
vt 0.215985 0.562822
vt 0.231472 0.559719
vt 0.230890 0.533338
vt 0.220414 0.530957
vt 0.213134 0.552274
vt 0.289666 0.544440
vt 0.282983 0.540904
vt 0.290637 0.536818
vt 0.279682 0.529141
vt 0.275518 0.536619
vt 0.273707 0.532162
vt 0.280945 0.538772
vt 0.286431 0.530872
vt 0.290637 0.551375
vt 0.284312 0.543753
vt 0.278488 0.537315
vt 0.276318 0.541045
vt 0.804698 0.251197
vt 0.792375 0.255919
vt 0.792638 0.252041
vt 0.786357 0.239035
vt 0.792578 0.249274
vt 0.791489 0.249454
vt 0.271776 0.541127
vt 0.760733 0.199751
vt 0.757502 0.209505
vt 0.750621 0.206121
vt 0.278108 0.542645
vt 0.273009 0.544115
vt 0.772804 0.201934
vt 0.766718 0.213101
vt 0.766203 0.208706
vt 0.264007 0.548518
vt 0.277612 0.547903
vt 0.268747 0.555467
vt 0.275021 0.546378
vt 0.280714 0.548498
vt 0.281954 0.545638
vt 0.276612 0.557409
vt 0.240880 0.530957
vt 0.248168 0.561486
vt 0.249693 0.550306
vt 0.246843 0.539760
vt 0.242415 0.571620
vt 0.762287 0.211045
vt 0.762255 0.210544
vt 0.761023 0.221925
vt 0.757316 0.212491
vt 0.750922 0.216572
vt 0.772804 0.220841
vt 0.791613 0.252007
vt 0.791097 0.255536
vt 0.780068 0.250772
vt 0.780487 0.263708
vt 0.804698 0.264828
vt 0.798786 0.238814
vt 0.221949 0.571626
vt 0.283377 0.553479
vn -0.4844 -0.7766 0.4028
vn 0.7413 -0.6195 0.2584
vn 0.9774 0.1639 -0.1338
vn 0.3431 -0.8529 0.3935
vn 0.9603 -0.2684 0.0763
vn 0.6800 0.6209 0.3898
vn 0.0458 -0.3959 0.9171
vn 0.5772 0.3205 0.7511
vn 0.4844 0.7766 -0.4027
vn 0.3582 -0.0306 0.9332
vn -0.6144 -0.0514 0.7873
vn -0.9843 0.1683 0.0533
vn -0.4926 0.4133 0.7658
vn 0.5250 0.7049 -0.4770
vn -0.9774 -0.1639 0.1338
vn 0.1045 0.1022 -0.9893
vn -0.9603 0.2683 -0.0763
vn -0.9030 -0.3648 0.2268
vn -0.6800 -0.6209 -0.3899
vn -0.3582 0.0306 -0.9332
vn -0.5771 -0.3205 -0.7511
vn -0.0458 0.3959 -0.9171
vn -0.0198 -0.9654 -0.2600
vn 0.4926 -0.4133 -0.7658
vn 0.2736 -0.7644 -0.5837
vn 0.6145 0.0514 -0.7873
vn -0.4844 -0.7766 0.4027
vn -0.9899 0.1413 -0.0132
vn 0.3256 0.8439 -0.4264
vn 0.1086 0.8525 0.5112
vn 0.6786 0.6456 -0.3502
vn -0.4039 -0.1300 -0.9055
vn -0.2781 0.7661 0.5795
vn -0.5518 0.2513 0.7952
vn 0.3549 0.9149 -0.1926
vn 0.5326 0.3647 0.7638
vn -0.6190 -0.0989 0.7792
vn -0.4332 0.6820 -0.5892
vn 0.8883 0.3720 0.2692
vn 0.7413 -0.6194 0.2584
vn 0.6800 0.6209 0.3899
vn 0.4844 0.7766 -0.4028
vn -0.7237 0.6684 -0.1716
vn 0.0249 0.1253 -0.9918
vn -0.9603 0.2684 -0.0763
vn 0.4844 0.7767 -0.4027
vn -0.5772 -0.3205 -0.7511
vn 0.6144 0.0514 -0.7873
vn -0.9899 0.1413 -0.0133
vn 0.1886 0.8327 0.5207
vn -0.3623 0.0351 -0.9314
vn -0.3146 0.6450 0.6964
vn -0.5519 0.2513 0.7952
vn 0.3548 0.9149 -0.1926
vn 0.2820 -0.0679 0.9570
vn -0.6190 -0.0989 0.7791
vn -0.3005 0.6563 -0.6921
vn 0.8444 0.3769 0.3807
s off
f 101/131/112 111/132/112 89/133/112
f 87/134/113 93/135/113 88/136/113
f 85/137/114 91/138/114 86/139/114
f 89/140/115 93/135/115 94/141/115
f 86/139/116 92/142/116 87/134/116
f 90/143/117 113/144/117 91/145/117
f 93/146/118 97/147/118 94/148/118
f 91/145/119 95/149/119 92/150/119
f 85/151/120 112/152/120 90/143/120
f 92/150/121 96/153/121 93/146/121
f 97/147/122 100/154/122 101/131/122
f 114/155/123 126/156/123 122/157/123
f 95/149/124 100/154/124 96/153/124
f 112/158/125 125/159/125 123/160/125
f 100/154/126 106/161/126 101/131/126
f 103/162/127 119/163/127 102/164/127
f 99/165/128 105/166/128 100/154/128
f 104/167/129 118/168/129 120/169/129
f 106/161/130 110/170/130 111/132/130
f 103/171/131 109/172/131 104/173/131
f 85/151/120 102/174/120 98/175/120
f 104/173/132 110/170/132 105/166/132
f 102/174/133 108/176/133 103/171/133
f 111/177/134 88/136/134 89/140/134
f 108/178/135 87/134/135 109/179/135
f 109/179/136 88/136/136 110/180/136
f 107/181/137 86/139/137 108/178/137
f 97/147/138 89/133/138 94/148/138
f 115/182/139 120/169/139 118/168/139
f 115/182/140 119/163/140 116/183/140
f 114/184/141 117/185/141 115/182/141
f 102/164/142 117/185/142 98/186/142
f 103/162/143 120/169/143 116/183/143
f 114/184/144 118/168/144 99/187/144
f 121/188/145 126/156/145 124/189/145
f 121/188/146 125/159/146 122/157/146
f 113/190/147 124/189/147 95/191/147
f 95/191/148 126/156/148 99/192/148
f 114/155/149 125/159/149 98/193/149
f 113/190/150 123/160/150 121/188/150
f 101/131/138 106/161/138 111/132/138
f 87/134/151 92/142/151 93/135/151
f 85/137/114 90/194/114 91/138/114
f 89/140/115 88/136/115 93/135/115
f 86/139/116 91/138/116 92/142/116
f 90/143/152 112/152/152 113/144/152
f 93/146/118 96/153/118 97/147/118
f 91/145/119 113/144/119 95/149/119
f 85/151/153 98/175/153 112/152/153
f 92/150/121 95/149/121 96/153/121
f 97/147/122 96/153/122 100/154/122
f 114/155/154 99/192/154 126/156/154
f 95/149/124 99/165/124 100/154/124
f 112/158/125 98/193/125 125/159/125
f 100/154/126 105/166/126 106/161/126
f 103/162/155 116/183/155 119/163/155
f 99/165/156 104/173/156 105/166/156
f 104/167/129 99/187/129 118/168/129
f 106/161/130 105/166/130 110/170/130
f 103/171/131 108/176/131 109/172/131
f 85/151/157 107/195/157 102/174/157
f 104/173/158 109/172/158 110/170/158
f 102/174/133 107/195/133 108/176/133
f 111/177/134 110/180/134 88/136/134
f 108/178/135 86/139/135 87/134/135
f 109/179/136 87/134/136 88/136/136
f 107/181/159 85/137/159 86/139/159
f 97/147/138 101/131/138 89/133/138
f 115/182/160 116/183/160 120/169/160
f 115/182/140 117/185/140 119/163/140
f 114/184/161 98/186/161 117/185/161
f 102/164/142 119/163/142 117/185/142
f 103/162/162 104/167/162 120/169/162
f 114/184/163 115/182/163 118/168/163
f 121/188/164 122/157/164 126/156/164
f 121/188/165 123/160/165 125/159/165
f 113/190/166 121/188/166 124/189/166
f 95/191/167 124/189/167 126/156/167
f 114/155/168 122/157/168 125/159/168
f 113/190/169 112/158/169 123/160/169
