# Blender v2.81 (sub 16) OBJ File: 'garbage.blend'
# www.blender.org
v -3.513514 2.546128 1.532211
v -3.502778 2.533467 1.508844
v -3.494966 2.509695 1.494863
v -3.492172 2.481180 1.494016
v -3.495145 2.455564 1.506529
v -3.496103 2.543597 1.553589
v -3.472621 2.529083 1.545871
v -3.460145 2.504633 1.537619
v -3.462016 2.476797 1.531044
v -3.477734 2.453033 1.527907
v -3.478871 2.486935 1.586633
v -3.478234 2.461470 1.573491
v -3.487098 2.444184 1.552414
v -3.532241 2.528430 1.581225
v -3.532419 2.474299 1.592891
v -3.524608 2.450527 1.578910
v -3.513872 2.437866 1.555543
v -3.549652 2.530961 1.559847
v -3.565370 2.507197 1.556710
v -3.567241 2.479361 1.550135
v -3.554765 2.454911 1.541883
v -3.531282 2.440397 1.534165
v -3.540288 2.539810 1.535340
v -3.549152 2.522524 1.514263
v -3.548515 2.497059 1.501121
v -3.538547 2.470237 1.499436
v -3.521919 2.449246 1.509658
v -3.505466 2.534748 1.578096
v -3.488839 2.513757 1.588319
v -3.535213 2.502814 1.593738
v -3.583506 2.510574 1.605468
v -3.585966 2.510931 1.602447
v -3.555072 2.527122 1.590611
v -3.562637 2.483780 1.596532
v -3.563690 2.528375 1.580029
v -3.576005 2.485723 1.580117
v -3.503509 2.518466 1.634250
v -3.514485 2.515875 1.635532
v -3.510016 2.526985 1.618922
v -3.503094 2.500162 1.620220
v -3.515047 2.525798 1.619510
v -3.508139 2.498971 1.620809
vt 0.274240 0.539347
vt 0.265397 0.539709
vt 0.266768 0.532487
vt 0.231414 0.551290
vt 0.214659 0.541092
vt 0.231357 0.542861
vt 0.231940 0.569242
vt 0.215985 0.562822
vt 0.231472 0.559719
vt 0.230890 0.533338
vt 0.220414 0.530957
vt 0.213134 0.552274
vt 0.289666 0.544440
vt 0.282983 0.540904
vt 0.290637 0.536818
vt 0.279682 0.529141
vt 0.275518 0.536619
vt 0.273707 0.532162
vt 0.280945 0.538772
vt 0.286431 0.530872
vt 0.290637 0.551375
vt 0.284312 0.543753
vt 0.278488 0.537315
vt 0.276318 0.541045
vt 0.804698 0.251197
vt 0.792375 0.255919
vt 0.792638 0.252041
vt 0.786357 0.239035
vt 0.792578 0.249274
vt 0.791489 0.249454
vt 0.271776 0.541127
vt 0.760733 0.199751
vt 0.757502 0.209505
vt 0.750621 0.206121
vt 0.278108 0.542645
vt 0.273009 0.544115
vt 0.772804 0.201934
vt 0.766718 0.213101
vt 0.766203 0.208706
vt 0.264007 0.548518
vt 0.277612 0.547903
vt 0.268747 0.555467
vt 0.275021 0.546378
vt 0.280714 0.548498
vt 0.281954 0.545638
vt 0.276612 0.557409
vt 0.240880 0.530957
vt 0.248168 0.561486
vt 0.249693 0.550306
vt 0.246843 0.539760
vt 0.242415 0.571620
vt 0.762287 0.211045
vt 0.762255 0.210544
vt 0.761023 0.221925
vt 0.757316 0.212491
vt 0.750922 0.216572
vt 0.772804 0.220841
vt 0.791613 0.252007
vt 0.791097 0.255536
vt 0.780068 0.250772
vt 0.780487 0.263708
vt 0.804698 0.264828
vt 0.798786 0.238814
vt 0.221949 0.571626
vt 0.283377 0.553479
vn 0.1915 -0.9443 -0.2678
vn 0.7774 0.0946 -0.6219
vn 0.4443 0.8572 -0.2604
vn 0.6950 -0.3791 -0.6109
vn 0.6908 0.5215 -0.5008
vn 0.5711 0.6779 0.4630
vn 0.8219 -0.5585 0.1124
vn 0.8542 0.2904 0.4312
vn -0.1915 0.9442 0.2678
vn 0.9408 -0.1365 0.3102
vn 0.2522 -0.7975 0.5480
vn -0.5831 -0.6469 0.4914
vn 0.2068 -0.4446 0.8715
vn -0.2089 0.9647 0.1602
vn -0.4443 -0.8572 0.2603
vn -0.7237 0.5360 -0.4347
vn -0.6908 -0.5215 0.5008
vn -0.2842 -0.9514 0.1188
vn -0.5711 -0.6779 -0.4630
vn -0.9408 0.1365 -0.3102
vn -0.1915 0.9443 0.2678
vn -0.8542 -0.2904 -0.4312
vn -0.8219 0.5585 -0.1124
vn -0.0015 -0.4388 -0.8986
vn -0.2068 0.4446 -0.8715
vn -0.1202 0.0177 -0.9926
vn -0.2522 0.7975 -0.5480
vn -0.6320 -0.6386 0.4391
vn -0.3193 0.8751 0.3637
vn 0.2731 0.3390 0.9003
vn -0.0064 0.9924 0.1227
vn -0.9117 0.0037 -0.4109
vn 0.1139 -0.0184 0.9933
vn 0.2295 -0.5888 0.7750
vn -0.1369 0.8400 0.5250
vn 0.8278 0.2770 0.4879
vn 0.2536 -0.8236 0.5073
vn -0.8625 0.2994 0.4079
vn 0.6568 0.7422 0.1337
vn 0.4443 0.8572 -0.2603
vn -0.7106 -0.0903 0.6978
vn -0.2089 0.9647 0.1601
vn -0.7782 0.4918 -0.3906
vn -0.6319 -0.6386 0.4391
vn -0.3193 0.8751 0.3636
vn 0.3325 0.3825 0.8621
vn -0.9429 0.1353 -0.3043
vn 0.2088 -0.1592 0.9649
vn 0.2295 -0.5889 0.7750
vn 0.9219 -0.2223 0.3172
vn -0.8571 0.4239 0.2926
vn 0.7155 0.6674 0.2066
s off
f 17/1/1 27/2/1 5/3/1
f 3/4/2 9/5/2 4/6/2
f 1/7/3 7/8/3 2/9/3
f 5/10/4 9/5/4 10/11/4
f 2/9/5 8/12/5 3/4/5
f 6/13/6 29/14/6 7/15/6
f 9/16/7 13/17/7 10/18/7
f 7/15/8 11/19/8 8/20/8
f 1/21/9 28/22/9 6/13/9
f 8/20/10 12/23/10 9/16/10
f 13/17/11 16/24/11 17/1/11
f 30/25/12 42/26/12 38/27/12
f 11/19/13 16/24/13 12/23/13
f 28/28/14 41/29/14 39/30/14
f 16/24/15 22/31/15 17/1/15
f 19/32/16 35/33/16 18/34/16
f 15/35/17 21/36/17 16/24/17
f 20/37/18 34/38/18 36/39/18
f 22/31/19 26/40/19 27/2/19
f 19/41/20 25/42/20 20/43/20
f 1/21/21 18/44/21 14/45/21
f 20/43/22 26/40/22 21/36/22
f 18/44/23 24/46/23 19/41/23
f 27/47/24 4/6/24 5/10/24
f 24/48/25 3/4/25 25/49/25
f 25/49/26 4/6/26 26/50/26
f 23/51/27 2/9/27 24/48/27
f 13/17/1 5/3/1 10/18/1
f 31/52/28 36/39/28 34/38/28
f 31/52/29 35/33/29 32/53/29
f 30/54/30 33/55/30 31/52/30
f 18/34/31 33/55/31 14/56/31
f 19/32/32 36/39/32 32/53/32
f 30/54/33 34/38/33 15/57/33
f 37/58/34 42/26/34 40/59/34
f 37/58/35 41/29/35 38/27/35
f 29/60/36 40/59/36 11/61/36
f 11/61/37 42/26/37 15/62/37
f 30/25/38 41/29/38 14/63/38
f 29/60/39 39/30/39 37/58/39
f 17/1/1 22/31/1 27/2/1
f 3/4/2 8/12/2 9/5/2
f 1/7/40 6/64/40 7/8/40
f 5/10/4 4/6/4 9/5/4
f 2/9/5 7/8/5 8/12/5
f 6/13/6 28/22/6 29/14/6
f 9/16/7 12/23/7 13/17/7
f 7/15/8 29/14/8 11/19/8
f 1/21/21 14/45/21 28/22/21
f 8/20/10 11/19/10 12/23/10
f 13/17/11 12/23/11 16/24/11
f 30/25/41 15/62/41 42/26/41
f 11/19/13 15/35/13 16/24/13
f 28/28/42 14/63/42 41/29/42
f 16/24/15 21/36/15 22/31/15
f 19/32/43 32/53/43 35/33/43
f 15/35/17 20/43/17 21/36/17
f 20/37/18 15/57/18 34/38/18
f 22/31/19 21/36/19 26/40/19
f 19/41/20 24/46/20 25/42/20
f 1/21/21 23/65/21 18/44/21
f 20/43/22 25/42/22 26/40/22
f 18/44/23 23/65/23 24/46/23
f 27/47/24 26/50/24 4/6/24
f 24/48/25 2/9/25 3/4/25
f 25/49/26 3/4/26 4/6/26
f 23/51/27 1/7/27 2/9/27
f 13/17/1 17/1/1 5/3/1
f 31/52/44 32/53/44 36/39/44
f 31/52/45 33/55/45 35/33/45
f 30/54/46 14/56/46 33/55/46
f 18/34/31 35/33/31 33/55/31
f 19/32/47 20/37/47 36/39/47
f 30/54/48 31/52/48 34/38/48
f 37/58/49 38/27/49 42/26/49
f 37/58/35 39/30/35 41/29/35
f 29/60/50 37/58/50 40/59/50
f 11/61/37 40/59/37 42/26/37
f 30/25/51 38/27/51 41/29/51
f 29/60/52 28/28/52 39/30/52
v -0.903444 3.981947 1.660531
v -0.923038 3.961444 1.664690
v -0.929550 3.934010 1.669847
v -0.921235 3.906997 1.674620
v -0.900322 3.887644 1.677729
v -0.890099 3.978023 1.636592
v -0.899924 3.954647 1.623226
v -0.902860 3.926162 1.621969
v -0.898121 3.900201 1.633156
v -0.886978 3.883719 1.653790
v -0.847527 3.927732 1.620535
v -0.850202 3.901560 1.631914
v -0.859311 3.884504 1.653074
v -0.848111 3.983517 1.659097
v -0.818884 3.937151 1.666980
v -0.825396 3.909717 1.672137
v -0.844989 3.889214 1.676296
v -0.861456 3.987442 1.683036
v -0.850312 3.970960 1.703671
v -0.845574 3.944999 1.714858
v -0.848510 3.916514 1.713600
v -0.858334 3.893138 1.700235
v -0.889122 3.986657 1.683753
v -0.898232 3.969600 1.704912
v -0.900907 3.943429 1.716291
v -0.896430 3.915154 1.714842
v -0.886001 3.892353 1.700952
v -0.862433 3.978808 1.635875
v -0.852004 3.956007 1.621985
v -0.827198 3.964164 1.662207
v -0.802821 3.991335 1.696811
v -0.804707 3.991889 1.700194
v -0.831502 3.992703 1.674936
v -0.808468 3.957525 1.689175
v -0.838108 3.994646 1.686785
v -0.818714 3.960538 1.707555
v -0.808649 3.975705 1.613074
v -0.802778 3.977635 1.622594
v -0.822670 3.982414 1.623480
v -0.814535 3.955901 1.623331
v -0.819979 3.983299 1.627843
v -0.811837 3.956789 1.627707
vt 0.274240 0.539347
vt 0.265397 0.539709
vt 0.266768 0.532487
vt 0.231414 0.551290
vt 0.214659 0.541092
vt 0.231357 0.542861
vt 0.231940 0.569242
vt 0.215985 0.562822
vt 0.231472 0.559719
vt 0.230890 0.533338
vt 0.220414 0.530957
vt 0.213134 0.552274
vt 0.289666 0.544440
vt 0.282983 0.540904
vt 0.290637 0.536818
vt 0.279682 0.529141
vt 0.275518 0.536619
vt 0.273707 0.532162
vt 0.280945 0.538772
vt 0.286431 0.530872
vt 0.290637 0.551375
vt 0.284312 0.543753
vt 0.278488 0.537315
vt 0.276318 0.541045
vt 0.804698 0.251197
vt 0.792375 0.255919
vt 0.792638 0.252041
vt 0.786357 0.239035
vt 0.792578 0.249274
vt 0.791489 0.249454
vt 0.271776 0.541127
vt 0.760733 0.199751
vt 0.757502 0.209505
vt 0.750621 0.206121
vt 0.278108 0.542645
vt 0.273009 0.544115
vt 0.772804 0.201934
vt 0.766718 0.213101
vt 0.766203 0.208706
vt 0.264007 0.548518
vt 0.277612 0.547903
vt 0.268747 0.555467
vt 0.275021 0.546378
vt 0.280714 0.548498
vt 0.281954 0.545638
vt 0.276612 0.557409
vt 0.240880 0.530957
vt 0.248168 0.561486
vt 0.249693 0.550306
vt 0.246843 0.539760
vt 0.242415 0.571620
vt 0.762287 0.211045
vt 0.762255 0.210544
vt 0.761023 0.221925
vt 0.757316 0.212491
vt 0.750922 0.216572
vt 0.772804 0.220841
vt 0.791613 0.252007
vt 0.791097 0.255536
vt 0.780068 0.250772
vt 0.780487 0.263708
vt 0.804698 0.264828
vt 0.798786 0.238814
vt 0.221949 0.571626
vt 0.283377 0.553479
vn 0.0325 -0.9833 0.1793
vn -0.8456 -0.3339 -0.4166
vn -0.6832 0.5571 -0.4722
vn -0.6406 -0.7303 -0.2374
vn -0.8603 0.1107 -0.4977
vn -0.0367 0.5076 -0.8608
vn 0.0059 -0.7798 -0.6260
vn -0.0272 0.0469 -0.9985
vn -0.0325 0.9833 -0.1793
vn -0.0125 -0.3976 -0.9175
vn 0.6678 -0.6932 -0.2713
vn 0.8584 -0.2654 0.4390
vn 0.8404 -0.2860 -0.4603
vn -0.1271 0.9845 -0.1211
vn 0.6832 -0.5571 0.4722
vn -0.3123 0.6529 0.6901
vn 0.8603 -0.1106 0.4977
vn 0.5373 -0.7316 0.4195
vn 0.0367 -0.5076 0.8608
vn 0.0125 0.3976 0.9175
vn -0.0325 0.9832 -0.1794
vn 0.0272 -0.0469 0.9985
vn -0.0059 0.7798 0.6260
vn -0.6252 -0.5942 0.5060
vn -0.8404 0.2860 0.4603
vn -0.8257 -0.1585 0.5414
vn -0.6678 0.6932 0.2713
vn 0.0325 -0.9832 0.1793
vn 0.8272 -0.2516 0.5024
vn 0.1198 0.9882 -0.0952
vn 0.5665 0.4054 -0.7174
vn -0.2403 0.9276 -0.2860
vn -0.0384 0.2446 0.9689
vn 0.8288 0.1604 -0.5361
vn 0.7994 -0.4461 -0.4025
vn 0.2083 0.9256 -0.3161
vn 0.0360 0.0569 -0.9977
vn 0.6411 -0.7262 -0.2481
vn 0.5511 0.6744 0.4913
vn -0.3752 0.4622 -0.8035
vn -0.6832 0.5571 -0.4721
vn -0.8603 0.1106 -0.4977
vn 0.8865 0.3301 0.3242
vn -0.1271 0.9845 -0.1213
vn -0.2393 0.6424 0.7281
vn 0.8603 -0.1107 0.4977
vn 0.5373 -0.7317 0.4195
vn -0.6252 -0.5942 0.5061
vn 0.4972 0.4148 -0.7620
vn 0.0187 0.3986 0.9170
vn 0.8204 -0.0079 -0.5717
vn 0.2083 0.9256 -0.3162
vn 0.0304 -0.4668 -0.8838
vn 0.6411 -0.7262 -0.2482
vn 0.4053 0.7599 0.5083
vn -0.3061 0.3892 -0.8688
s off
f 59/66/53 69/67/53 47/68/53
f 45/69/54 51/70/54 46/71/54
f 43/72/55 49/73/55 44/74/55
f 47/75/56 51/70/56 52/76/56
f 44/74/57 50/77/57 45/69/57
f 48/78/58 71/79/58 49/80/58
f 51/81/59 55/82/59 52/83/59
f 49/80/60 53/84/60 50/85/60
f 43/86/61 70/87/61 48/78/61
f 50/85/62 54/88/62 51/81/62
f 55/82/63 58/89/63 59/66/63
f 72/90/64 84/91/64 80/92/64
f 53/84/65 58/89/65 54/88/65
f 70/93/66 83/94/66 81/95/66
f 58/89/67 64/96/67 59/66/67
f 61/97/68 77/98/68 60/99/68
f 57/100/69 63/101/69 58/89/69
f 62/102/70 76/103/70 78/104/70
f 64/96/71 68/105/71 69/67/71
f 61/106/72 67/107/72 62/108/72
f 43/86/73 60/109/73 56/110/73
f 62/108/74 68/105/74 63/101/74
f 60/109/75 66/111/75 61/106/75
f 69/112/76 46/71/76 47/75/76
f 66/113/77 45/69/77 67/114/77
f 67/114/78 46/71/78 68/115/78
f 65/116/79 44/74/79 66/113/79
f 55/82/80 47/68/80 52/83/80
f 73/117/81 78/104/81 76/103/81
f 73/117/82 77/98/82 74/118/82
f 72/119/83 75/120/83 73/117/83
f 60/99/84 75/120/84 56/121/84
f 61/97/85 78/104/85 74/118/85
f 72/119/86 76/103/86 57/122/86
f 79/123/87 84/91/87 82/124/87
f 79/123/88 83/94/88 80/92/88
f 71/125/89 82/124/89 53/126/89
f 53/126/90 84/91/90 57/127/90
f 72/90/91 83/94/91 56/128/91
f 71/125/92 81/95/92 79/123/92
f 59/66/53 64/96/53 69/67/53
f 45/69/54 50/77/54 51/70/54
f 43/72/93 48/129/93 49/73/93
f 47/75/56 46/71/56 51/70/56
f 44/74/94 49/73/94 50/77/94
f 48/78/58 70/87/58 71/79/58
f 51/81/59 54/88/59 55/82/59
f 49/80/60 71/79/60 53/84/60
f 43/86/61 56/110/61 70/87/61
f 50/85/62 53/84/62 54/88/62
f 55/82/63 54/88/63 58/89/63
f 72/90/95 57/127/95 84/91/95
f 53/84/65 57/100/65 58/89/65
f 70/93/96 56/128/96 83/94/96
f 58/89/67 63/101/67 64/96/67
f 61/97/97 74/118/97 77/98/97
f 57/100/98 62/108/98 63/101/98
f 62/102/99 57/122/99 76/103/99
f 64/96/71 63/101/71 68/105/71
f 61/106/72 66/111/72 67/107/72
f 43/86/61 65/130/61 60/109/61
f 62/108/74 67/107/74 68/105/74
f 60/109/75 65/130/75 66/111/75
f 69/112/100 68/115/100 46/71/100
f 66/113/77 44/74/77 45/69/77
f 67/114/78 45/69/78 46/71/78
f 65/116/79 43/72/79 44/74/79
f 55/82/80 59/66/80 47/68/80
f 73/117/81 74/118/81 78/104/81
f 73/117/82 75/120/82 77/98/82
f 72/119/101 56/121/101 75/120/101
f 60/99/84 77/98/84 75/120/84
f 61/97/102 62/102/102 78/104/102
f 72/119/103 73/117/103 76/103/103
f 79/123/87 80/92/87 84/91/87
f 79/123/104 81/95/104 83/94/104
f 71/125/105 79/123/105 82/124/105
f 53/126/106 82/124/106 84/91/106
f 72/90/107 80/92/107 83/94/107
f 71/125/108 70/93/108 81/95/108
v -1.171760 4.247144 -0.398336
v -1.171666 4.226463 -0.418182
v -1.170299 4.198672 -0.425068
v -1.168025 4.171218 -0.417147
v -1.165453 4.151458 -0.396543
v -1.147033 4.249005 -0.386020
v -1.128838 4.229685 -0.396850
v -1.120845 4.202393 -0.400435
v -1.125197 4.174441 -0.395815
v -1.140727 4.153319 -0.384227
v -1.117461 4.203652 -0.345179
v -1.122266 4.175531 -0.347962
v -1.139035 4.153948 -0.356599
v -1.168376 4.248403 -0.343080
v -1.163530 4.201189 -0.314556
v -1.162163 4.173398 -0.321441
v -1.162069 4.152717 -0.341287
v -1.193103 4.246542 -0.355397
v -1.208632 4.225420 -0.343809
v -1.212984 4.197468 -0.339188
v -1.204991 4.170176 -0.342773
v -1.186796 4.150856 -0.353603
v -1.194795 4.245913 -0.383025
v -1.211563 4.224330 -0.391662
v -1.216368 4.196209 -0.394444
v -1.207922 4.169086 -0.390626
v -1.188488 4.150227 -0.381231
v -1.145341 4.249634 -0.358392
v -1.125907 4.230775 -0.348997
v -1.165805 4.228643 -0.322476
v -1.204880 4.246323 -0.296200
v -1.208375 4.246060 -0.297941
v -1.185240 4.253282 -0.325677
v -1.189532 4.215446 -0.302854
v -1.197479 4.252361 -0.331773
v -1.208517 4.214017 -0.312311
v -1.120180 4.251567 -0.305616
v -1.129624 4.251062 -0.299338
v -1.132494 4.255702 -0.319075
v -1.125578 4.229931 -0.311515
v -1.136822 4.255471 -0.316198
v -1.129919 4.229699 -0.308630
vt 0.274240 0.539347
vt 0.265397 0.539709
vt 0.266768 0.532487
vt 0.231414 0.551290
vt 0.214659 0.541092
vt 0.231357 0.542861
vt 0.231940 0.569242
vt 0.215985 0.562822
vt 0.231472 0.559719
vt 0.230890 0.533338
vt 0.220414 0.530957
vt 0.213134 0.552274
vt 0.289666 0.544440
vt 0.282983 0.540904
vt 0.290637 0.536818
vt 0.279682 0.529141
vt 0.275518 0.536619
vt 0.273707 0.532162
vt 0.280945 0.538772
vt 0.286431 0.530872
vt 0.290637 0.551375
vt 0.284312 0.543753
vt 0.278488 0.537315
vt 0.276318 0.541045
vt 0.804698 0.251197
vt 0.792375 0.255919
vt 0.792638 0.252041
vt 0.786357 0.239035
vt 0.792578 0.249274
vt 0.791489 0.249454
vt 0.271776 0.541127
vt 0.760733 0.199751
vt 0.757502 0.209505
vt 0.750621 0.206121
vt 0.278108 0.542645
vt 0.273009 0.544115
vt 0.772804 0.201934
vt 0.766718 0.213101
vt 0.766203 0.208706
vt 0.264007 0.548518
vt 0.277612 0.547903
vt 0.268747 0.555467
vt 0.275021 0.546378
vt 0.280714 0.548498
vt 0.281954 0.545638
vt 0.276612 0.557409
vt 0.240880 0.530957
vt 0.248168 0.561486
vt 0.249693 0.550306
vt 0.246843 0.539760
vt 0.242415 0.571620
vt 0.762287 0.211045
vt 0.762255 0.210544
vt 0.761023 0.221925
vt 0.757316 0.212491
vt 0.750922 0.216572
vt 0.772804 0.220841
vt 0.791613 0.252007
vt 0.791097 0.255536
vt 0.780068 0.250772
vt 0.780487 0.263708
vt 0.804698 0.264828
vt 0.798786 0.238814
vt 0.221949 0.571626
vt 0.283377 0.553479
vn 0.0658 -0.9977 0.0187
vn 0.4484 -0.2133 -0.8680
vn 0.2934 0.6626 -0.6891
vn 0.3795 -0.6436 -0.6646
vn 0.4187 0.2377 -0.8765
vn 0.7098 0.7019 -0.0595
vn 0.7959 -0.6044 -0.0350
vn 0.9553 0.2883 -0.0651
vn -0.0658 0.9977 -0.0187
vn 0.9850 -0.1627 -0.0566
vn 0.4595 -0.6139 0.6419
vn -0.3243 -0.3735 0.8691
vn 0.5515 -0.1749 0.8156
vn -0.1264 0.9858 -0.1108
vn -0.2934 -0.6626 0.6891
vn -0.8404 0.4691 -0.2713
vn -0.4187 -0.2377 0.8765
vn -0.2063 -0.8175 0.5377
vn -0.7098 -0.7019 0.0595
vn -0.9850 0.1627 0.0566
vn -0.9553 -0.2883 0.0651
vn -0.7959 0.6044 0.0350
vn -0.3734 -0.6924 -0.6174
vn -0.5515 0.1749 -0.8156
vn -0.5218 -0.2761 -0.8072
vn -0.4595 0.6139 -0.6419
vn -0.3905 -0.3753 0.8407
vn -0.1419 0.9804 0.1368
vn 0.6215 0.5612 0.5466
vn 0.0422 0.9719 -0.2315
vn -1.0000 0.0024 0.0045
vn 0.5164 0.2766 0.8105
vn 0.5325 -0.3437 0.7735
vn 0.0912 0.9723 0.2154
vn 0.9548 0.2971 -0.0017
vn 0.4439 -0.6513 0.6155
vn -0.6159 0.5288 0.5840
vn 0.6507 0.6477 -0.3963
vn -0.3561 0.2317 0.9053
vn -0.1264 0.9858 -0.1109
vn -0.8716 0.4489 -0.1971
vn -0.3905 -0.3753 0.8406
vn -0.1420 0.9804 0.1369
vn 0.6594 0.5820 0.4758
vn 0.0422 0.9719 -0.2316
vn -0.9845 0.1637 0.0629
vn 0.5913 0.1221 0.7971
vn 0.5325 -0.3438 0.7734
vn 0.0912 0.9723 0.2153
vn 0.9711 -0.2385 -0.0139
vn 0.4439 -0.6513 0.6154
vn -0.6593 0.6091 0.4408
vn 0.7347 0.5920 -0.3314
s off
f 101/131/109 111/132/109 89/133/109
f 87/134/110 93/135/110 88/136/110
f 85/137/111 91/138/111 86/139/111
f 89/140/112 93/135/112 94/141/112
f 86/139/113 92/142/113 87/134/113
f 90/143/114 113/144/114 91/145/114
f 93/146/115 97/147/115 94/148/115
f 91/145/116 95/149/116 92/150/116
f 85/151/117 112/152/117 90/143/117
f 92/150/118 96/153/118 93/146/118
f 97/147/119 100/154/119 101/131/119
f 114/155/120 126/156/120 122/157/120
f 95/149/121 100/154/121 96/153/121
f 112/158/122 125/159/122 123/160/122
f 100/154/123 106/161/123 101/131/123
f 103/162/124 119/163/124 102/164/124
f 99/165/125 105/166/125 100/154/125
f 104/167/126 118/168/126 120/169/126
f 106/161/127 110/170/127 111/132/127
f 103/171/128 109/172/128 104/173/128
f 85/151/117 102/174/117 98/175/117
f 104/173/129 110/170/129 105/166/129
f 102/174/130 108/176/130 103/171/130
f 111/177/131 88/136/131 89/140/131
f 108/178/132 87/134/132 109/179/132
f 109/179/133 88/136/133 110/180/133
f 107/181/134 86/139/134 108/178/134
f 97/147/109 89/133/109 94/148/109
f 115/182/135 120/169/135 118/168/135
f 115/182/136 119/163/136 116/183/136
f 114/184/137 117/185/137 115/182/137
f 102/164/138 117/185/138 98/186/138
f 103/162/139 120/169/139 116/183/139
f 114/184/140 118/168/140 99/187/140
f 121/188/141 126/156/141 124/189/141
f 121/188/142 125/159/142 122/157/142
f 113/190/143 124/189/143 95/191/143
f 95/191/144 126/156/144 99/192/144
f 114/155/145 125/159/145 98/193/145
f 113/190/146 123/160/146 121/188/146
f 101/131/109 106/161/109 111/132/109
f 87/134/110 92/142/110 93/135/110
f 85/137/111 90/194/111 91/138/111
f 89/140/112 88/136/112 93/135/112
f 86/139/113 91/138/113 92/142/113
f 90/143/114 112/152/114 113/144/114
f 93/146/115 96/153/115 97/147/115
f 91/145/116 113/144/116 95/149/116
f 85/151/117 98/175/117 112/152/117
f 92/150/118 95/149/118 96/153/118
f 97/147/119 96/153/119 100/154/119
f 114/155/147 99/192/147 126/156/147
f 95/149/121 99/165/121 100/154/121
f 112/158/148 98/193/148 125/159/148
f 100/154/123 105/166/123 106/161/123
f 103/162/149 116/183/149 119/163/149
f 99/165/125 104/173/125 105/166/125
f 104/167/126 99/187/126 118/168/126
f 106/161/127 105/166/127 110/170/127
f 103/171/128 108/176/128 109/172/128
f 85/151/117 107/195/117 102/174/117
f 104/173/129 109/172/129 110/170/129
f 102/174/130 107/195/130 108/176/130
f 111/177/131 110/180/131 88/136/131
f 108/178/132 86/139/132 87/134/132
f 109/179/133 87/134/133 88/136/133
f 107/181/134 85/137/134 86/139/134
f 97/147/109 101/131/109 89/133/109
f 115/182/150 116/183/150 120/169/150
f 115/182/151 117/185/151 119/163/151
f 114/184/152 98/186/152 117/185/152
f 102/164/153 119/163/153 117/185/153
f 103/162/154 104/167/154 120/169/154
f 114/184/155 115/182/155 118/168/155
f 121/188/156 122/157/156 126/156/156
f 121/188/157 123/160/157 125/159/157
f 113/190/158 121/188/158 124/189/158
f 95/191/159 124/189/159 126/156/159
f 114/155/160 122/157/160 125/159/160
f 113/190/161 112/158/161 123/160/161
