# Blender v2.81 (sub 16) OBJ File: 'garbage.blend'
# www.blender.org
v -3.421880 2.444328 2.664022
v -3.417959 2.430035 2.639488
v -3.412335 2.405582 2.625631
v -3.406514 2.377521 2.626165
v -3.402056 2.353370 2.640946
v -3.398239 2.445844 2.678353
v -3.377012 2.432662 2.664309
v -3.365053 2.408616 2.654291
v -3.365566 2.380148 2.650985
v -3.378415 2.354887 2.655276
v -3.364318 2.395150 2.707998
v -3.364930 2.368486 2.697496
v -3.378047 2.348154 2.682129
v -3.421145 2.430862 2.717729
v -3.410866 2.378650 2.733044
v -3.405242 2.354197 2.719187
v -3.401321 2.339905 2.694653
v -3.444787 2.429345 2.703399
v -3.457635 2.404084 2.707690
v -3.458148 2.375617 2.704384
v -3.446190 2.351570 2.694366
v -3.424963 2.338388 2.680322
v -3.445154 2.436078 2.676546
v -3.458271 2.415746 2.661179
v -3.458883 2.389082 2.650677
v -3.446826 2.363232 2.647855
v -3.425330 2.345120 2.653469
v -3.397871 2.439112 2.705206
v -3.376375 2.421000 2.710820
v -3.416687 2.406712 2.732510
v -3.459006 2.411489 2.759273
v -3.462347 2.411275 2.757248
v -3.439282 2.428644 2.734379
v -3.439126 2.385786 2.745954
v -3.450985 2.427893 2.727285
v -3.457278 2.384621 2.734951
v -3.375592 2.429702 2.758472
v -3.385133 2.426319 2.763606
v -3.387765 2.435775 2.745635
v -3.377579 2.410000 2.746642
v -3.392138 2.434225 2.747988
v -3.381964 2.408445 2.749002
vt 0.274240 0.539347
vt 0.265397 0.539709
vt 0.266768 0.532487
vt 0.231414 0.551290
vt 0.214659 0.541092
vt 0.231357 0.542861
vt 0.231940 0.569242
vt 0.215985 0.562822
vt 0.231472 0.559719
vt 0.230890 0.533338
vt 0.220414 0.530957
vt 0.213134 0.552274
vt 0.289666 0.544440
vt 0.282983 0.540904
vt 0.290637 0.536818
vt 0.279682 0.529141
vt 0.275518 0.536619
vt 0.273707 0.532162
vt 0.280945 0.538772
vt 0.286431 0.530872
vt 0.290637 0.551375
vt 0.284312 0.543753
vt 0.278488 0.537315
vt 0.276318 0.541045
vt 0.804698 0.251197
vt 0.792375 0.255919
vt 0.792638 0.252041
vt 0.786357 0.239035
vt 0.792578 0.249274
vt 0.791489 0.249454
vt 0.271776 0.541127
vt 0.760733 0.199751
vt 0.757502 0.209505
vt 0.750621 0.206121
vt 0.278108 0.542645
vt 0.273009 0.544115
vt 0.772804 0.201934
vt 0.766718 0.213101
vt 0.766203 0.208706
vt 0.264007 0.548518
vt 0.277612 0.547903
vt 0.268747 0.555467
vt 0.275021 0.546378
vt 0.280714 0.548498
vt 0.281954 0.545638
vt 0.276612 0.557409
vt 0.240880 0.530957
vt 0.248168 0.561486
vt 0.249693 0.550306
vt 0.246843 0.539760
vt 0.242415 0.571620
vt 0.762287 0.211045
vt 0.762255 0.210544
vt 0.761023 0.221925
vt 0.757316 0.212491
vt 0.750922 0.216572
vt 0.772804 0.220841
vt 0.791613 0.252007
vt 0.791097 0.255536
vt 0.780068 0.250772
vt 0.780487 0.263708
vt 0.804698 0.264828
vt 0.798786 0.238814
vt 0.221949 0.571626
vt 0.283377 0.553479
vn 0.2067 -0.9484 -0.2406
vn 0.5120 0.0900 -0.8542
vn 0.2258 0.8570 -0.4632
vn 0.4964 -0.3847 -0.7782
vn 0.4186 0.5187 -0.7455
vn 0.6042 0.7748 0.1860
vn 0.8749 -0.4669 -0.1290
vn 0.9063 0.4128 0.0911
vn -0.2067 0.9484 0.2406
vn 0.9997 -0.0160 -0.0177
vn 0.5138 -0.7031 0.4917
vn -0.3056 -0.6344 0.7101
vn 0.5344 -0.3203 0.7822
vn -0.2609 0.9546 0.1440
vn -0.2258 -0.8570 0.4632
vn -0.8861 0.4159 -0.2046
vn -0.4186 -0.5187 0.7455
vn -0.1109 -0.9525 0.2837
vn -0.6042 -0.7748 -0.1860
vn -0.9997 0.0160 0.0177
vn -0.9063 -0.4127 -0.0911
vn -0.8749 0.4669 0.1290
vn -0.2431 -0.5386 -0.8067
vn -0.5344 0.3203 -0.7822
vn -0.4410 -0.1084 -0.8910
vn -0.5138 0.7031 -0.4917
vn -0.3695 -0.6366 0.6769
vn -0.2863 0.8799 0.3793
vn 0.5103 0.4640 0.7241
vn -0.0869 0.9955 0.0380
vn -0.9893 -0.1246 -0.0760
vn 0.4354 0.1073 0.8938
vn 0.5417 -0.4722 0.6955
vn -0.0582 0.8799 0.4715
vn 0.9018 0.4038 0.1543
vn 0.5049 -0.7335 0.4551
vn -0.7103 0.2674 0.6512
vn 0.5684 0.8077 -0.1568
vn -0.4250 -0.0710 0.9024
vn -0.9172 0.3725 -0.1412
vn -0.9063 -0.4128 -0.0911
vn -0.8748 0.4669 0.1290
vn -0.2432 -0.5386 -0.8067
vn -0.3693 -0.6366 0.6770
vn -0.2864 0.8798 0.3794
vn 0.5480 0.5079 0.6646
vn -0.9996 0.0152 0.0240
vn 0.5321 -0.0269 0.8462
vn 0.5416 -0.4722 0.6955
vn -0.0583 0.8799 0.4716
vn 0.9948 -0.1016 0.0022
vn -0.7583 0.3777 0.5313
vn 0.6564 0.7474 -0.1024
s off
f 17/1/1 27/2/1 5/3/1
f 3/4/2 9/5/2 4/6/2
f 1/7/3 7/8/3 2/9/3
f 5/10/4 9/5/4 10/11/4
f 2/9/5 8/12/5 3/4/5
f 6/13/6 29/14/6 7/15/6
f 9/16/7 13/17/7 10/18/7
f 7/15/8 11/19/8 8/20/8
f 1/21/9 28/22/9 6/13/9
f 8/20/10 12/23/10 9/16/10
f 13/17/11 16/24/11 17/1/11
f 30/25/12 42/26/12 38/27/12
f 11/19/13 16/24/13 12/23/13
f 28/28/14 41/29/14 39/30/14
f 16/24/15 22/31/15 17/1/15
f 19/32/16 35/33/16 18/34/16
f 15/35/17 21/36/17 16/24/17
f 20/37/18 34/38/18 36/39/18
f 22/31/19 26/40/19 27/2/19
f 19/41/20 25/42/20 20/43/20
f 1/21/9 18/44/9 14/45/9
f 20/43/21 26/40/21 21/36/21
f 18/44/22 24/46/22 19/41/22
f 27/47/23 4/6/23 5/10/23
f 24/48/24 3/4/24 25/49/24
f 25/49/25 4/6/25 26/50/25
f 23/51/26 2/9/26 24/48/26
f 13/17/1 5/3/1 10/18/1
f 31/52/27 36/39/27 34/38/27
f 31/52/28 35/33/28 32/53/28
f 30/54/29 33/55/29 31/52/29
f 18/34/30 33/55/30 14/56/30
f 19/32/31 36/39/31 32/53/31
f 30/54/32 34/38/32 15/57/32
f 37/58/33 42/26/33 40/59/33
f 37/58/34 41/29/34 38/27/34
f 29/60/35 40/59/35 11/61/35
f 11/61/36 42/26/36 15/62/36
f 30/25/37 41/29/37 14/63/37
f 29/60/38 39/30/38 37/58/38
f 17/1/1 22/31/1 27/2/1
f 3/4/2 8/12/2 9/5/2
f 1/7/3 6/64/3 7/8/3
f 5/10/4 4/6/4 9/5/4
f 2/9/5 7/8/5 8/12/5
f 6/13/6 28/22/6 29/14/6
f 9/16/7 12/23/7 13/17/7
f 7/15/8 29/14/8 11/19/8
f 1/21/9 14/45/9 28/22/9
f 8/20/10 11/19/10 12/23/10
f 13/17/11 12/23/11 16/24/11
f 30/25/39 15/62/39 42/26/39
f 11/19/13 15/35/13 16/24/13
f 28/28/14 14/63/14 41/29/14
f 16/24/15 21/36/15 22/31/15
f 19/32/40 32/53/40 35/33/40
f 15/35/17 20/43/17 21/36/17
f 20/37/18 15/57/18 34/38/18
f 22/31/19 21/36/19 26/40/19
f 19/41/20 24/46/20 25/42/20
f 1/21/9 23/65/9 18/44/9
f 20/43/41 25/42/41 26/40/41
f 18/44/42 23/65/42 24/46/42
f 27/47/43 26/50/43 4/6/43
f 24/48/24 2/9/24 3/4/24
f 25/49/25 3/4/25 4/6/25
f 23/51/26 1/7/26 2/9/26
f 13/17/1 17/1/1 5/3/1
f 31/52/44 32/53/44 36/39/44
f 31/52/45 33/55/45 35/33/45
f 30/54/46 14/56/46 33/55/46
f 18/34/30 35/33/30 33/55/30
f 19/32/47 20/37/47 36/39/47
f 30/54/48 31/52/48 34/38/48
f 37/58/49 38/27/49 42/26/49
f 37/58/50 39/30/50 41/29/50
f 29/60/51 37/58/51 40/59/51
f 11/61/36 40/59/36 42/26/36
f 30/25/52 38/27/52 41/29/52
f 29/60/53 28/28/53 39/30/53
v 0.533600 3.872416 2.116991
v 0.513696 3.856029 2.129516
v 0.504494 3.830222 2.137937
v 0.508461 3.801909 2.139997
v 0.524533 3.778677 2.135144
v 0.535074 3.867022 2.089875
v 0.516248 3.846687 2.082549
v 0.507441 3.819434 2.083704
v 0.511013 3.792567 2.093030
v 0.526007 3.773283 2.108027
v 0.556586 3.810083 2.059965
v 0.553574 3.784469 2.072471
v 0.550579 3.768608 2.096158
v 0.582746 3.863065 2.093252
v 0.602785 3.811520 2.090459
v 0.593583 3.785713 2.098880
v 0.573679 3.769326 2.111405
v 0.581272 3.868459 2.120368
v 0.596266 3.849175 2.135366
v 0.599838 3.822308 2.144692
v 0.591031 3.795055 2.145847
v 0.572205 3.774720 2.138521
v 0.556700 3.873134 2.132238
v 0.553705 3.857273 2.155925
v 0.550693 3.831658 2.168431
v 0.548470 3.803153 2.166405
v 0.547633 3.779395 2.150391
v 0.559646 3.862347 2.078005
v 0.558809 3.838589 2.061991
v 0.598818 3.839833 2.088399
v 0.639967 3.860036 2.109101
v 0.639759 3.860798 2.112933
v 0.605799 3.868050 2.100651
v 0.625104 3.828397 2.105731
v 0.605070 3.870720 2.114074
v 0.623973 3.832538 2.126551
v 0.597853 3.849700 2.035549
v 0.607323 3.849994 2.041800
v 0.590870 3.858571 2.050463
v 0.592789 3.831007 2.048079
v 0.595210 3.858706 2.053328
v 0.597142 3.831142 2.050952
vt 0.274240 0.539347
vt 0.265397 0.539709
vt 0.266768 0.532487
vt 0.231414 0.551290
vt 0.214659 0.541092
vt 0.231357 0.542861
vt 0.231940 0.569242
vt 0.215985 0.562822
vt 0.231472 0.559719
vt 0.230890 0.533338
vt 0.220414 0.530957
vt 0.213134 0.552274
vt 0.289666 0.544440
vt 0.282983 0.540904
vt 0.290637 0.536818
vt 0.279682 0.529141
vt 0.275518 0.536619
vt 0.273707 0.532162
vt 0.280945 0.538772
vt 0.286431 0.530872
vt 0.290637 0.551375
vt 0.284312 0.543753
vt 0.278488 0.537315
vt 0.276318 0.541045
vt 0.804698 0.251197
vt 0.792375 0.255919
vt 0.792638 0.252041
vt 0.786357 0.239035
vt 0.792578 0.249274
vt 0.791489 0.249454
vt 0.271776 0.541127
vt 0.760733 0.199751
vt 0.757502 0.209505
vt 0.750621 0.206121
vt 0.278108 0.542645
vt 0.273009 0.544115
vt 0.772804 0.201934
vt 0.766718 0.213101
vt 0.766203 0.208706
vt 0.264007 0.548518
vt 0.277612 0.547903
vt 0.268747 0.555467
vt 0.275021 0.546378
vt 0.280714 0.548498
vt 0.281954 0.545638
vt 0.276612 0.557409
vt 0.240880 0.530957
vt 0.248168 0.561486
vt 0.249693 0.550306
vt 0.246843 0.539760
vt 0.242415 0.571620
vt 0.762287 0.211045
vt 0.762255 0.210544
vt 0.761023 0.221925
vt 0.757316 0.212491
vt 0.750922 0.216572
vt 0.772804 0.220841
vt 0.791613 0.252007
vt 0.791097 0.255536
vt 0.780068 0.250772
vt 0.780487 0.263708
vt 0.804698 0.264828
vt 0.798786 0.238814
vt 0.221949 0.571626
vt 0.283377 0.553479
vn -0.0945 -0.9774 0.1893
vn -0.9897 -0.1405 -0.0258
vn -0.6896 0.7022 -0.1771
vn -0.8134 -0.5774 0.0707
vn -0.9470 0.3013 -0.1114
vn -0.2790 0.5435 -0.7917
vn -0.4028 -0.7362 -0.5439
vn -0.4179 0.0968 -0.9033
vn 0.0945 0.9774 -0.1893
vn -0.4607 -0.3451 -0.8178
vn 0.3487 -0.7986 -0.4907
vn 0.8908 -0.4498 0.0645
vn 0.5077 -0.4255 -0.7491
vn 0.0338 0.9946 -0.0981
vn 0.6896 -0.7022 0.1771
vn 0.1298 0.6696 0.7312
vn 0.9470 -0.3013 0.1114
vn 0.5033 -0.8419 0.1948
vn 0.2790 -0.5435 0.7917
vn 0.4607 0.3451 0.8178
vn 0.4179 -0.0968 0.9033
vn 0.4028 0.7362 0.5439
vn -0.4725 -0.4811 0.7384
vn -0.5077 0.4255 0.7491
vn -0.5504 -0.0164 0.8347
vn -0.3487 0.7986 0.4906
vn 0.8913 -0.4330 0.1346
vn 0.2655 0.9482 -0.1742
vn 0.2972 0.3175 -0.9005
vn -0.1451 0.9689 -0.2006
vn 0.4055 0.2030 0.8913
vn 0.5556 0.0174 -0.8312
vn 0.4625 -0.5767 -0.6735
vn 0.2429 0.8794 -0.4094
vn -0.3592 0.0940 -0.9285
vn 0.3276 -0.8267 -0.4574
vn 0.8248 0.5289 0.1998
vn -0.5671 0.5635 -0.6007
vn -0.6896 0.7022 -0.1772
vn -0.8134 -0.5775 0.0707
vn -0.4607 -0.3451 -0.8177
vn 0.3487 -0.7986 -0.4906
vn 0.9883 0.1330 -0.0751
vn 0.0338 0.9946 -0.0980
vn 0.6896 -0.7022 0.1772
vn 0.2082 0.6432 0.7369
vn 0.4607 0.3451 0.8177
vn -0.4725 -0.4811 0.7385
vn -0.3487 0.7986 0.4907
vn 0.2191 0.3425 -0.9136
vn 0.4662 0.3448 0.8147
vn 0.5003 -0.1441 -0.8538
vn 0.4624 -0.5767 -0.6735
vn 0.2428 0.8795 -0.4094
vn -0.4225 -0.4229 -0.8016
vn 0.3277 -0.8267 -0.4574
vn 0.7185 0.6406 0.2708
vn -0.5464 0.4813 -0.6854
s off
f 59/66/54 69/67/54 47/68/54
f 45/69/55 51/70/55 46/71/55
f 43/72/56 49/73/56 44/74/56
f 47/75/57 51/70/57 52/76/57
f 44/74/58 50/77/58 45/69/58
f 48/78/59 71/79/59 49/80/59
f 51/81/60 55/82/60 52/83/60
f 49/80/61 53/84/61 50/85/61
f 43/86/62 70/87/62 48/78/62
f 50/85/63 54/88/63 51/81/63
f 55/82/64 58/89/64 59/66/64
f 72/90/65 84/91/65 80/92/65
f 53/84/66 58/89/66 54/88/66
f 70/93/67 83/94/67 81/95/67
f 58/89/68 64/96/68 59/66/68
f 61/97/69 77/98/69 60/99/69
f 57/100/70 63/101/70 58/89/70
f 62/102/71 76/103/71 78/104/71
f 64/96/72 68/105/72 69/67/72
f 61/106/73 67/107/73 62/108/73
f 43/86/62 60/109/62 56/110/62
f 62/108/74 68/105/74 63/101/74
f 60/109/75 66/111/75 61/106/75
f 69/112/76 46/71/76 47/75/76
f 66/113/77 45/69/77 67/114/77
f 67/114/78 46/71/78 68/115/78
f 65/116/79 44/74/79 66/113/79
f 55/82/54 47/68/54 52/83/54
f 73/117/80 78/104/80 76/103/80
f 73/117/81 77/98/81 74/118/81
f 72/119/82 75/120/82 73/117/82
f 60/99/83 75/120/83 56/121/83
f 61/97/84 78/104/84 74/118/84
f 72/119/85 76/103/85 57/122/85
f 79/123/86 84/91/86 82/124/86
f 79/123/87 83/94/87 80/92/87
f 71/125/88 82/124/88 53/126/88
f 53/126/89 84/91/89 57/127/89
f 72/90/90 83/94/90 56/128/90
f 71/125/91 81/95/91 79/123/91
f 59/66/54 64/96/54 69/67/54
f 45/69/55 50/77/55 51/70/55
f 43/72/92 48/129/92 49/73/92
f 47/75/93 46/71/93 51/70/93
f 44/74/58 49/73/58 50/77/58
f 48/78/59 70/87/59 71/79/59
f 51/81/60 54/88/60 55/82/60
f 49/80/61 71/79/61 53/84/61
f 43/86/62 56/110/62 70/87/62
f 50/85/94 53/84/94 54/88/94
f 55/82/95 54/88/95 58/89/95
f 72/90/96 57/127/96 84/91/96
f 53/84/66 57/100/66 58/89/66
f 70/93/97 56/128/97 83/94/97
f 58/89/98 63/101/98 64/96/98
f 61/97/99 74/118/99 77/98/99
f 57/100/70 62/108/70 63/101/70
f 62/102/71 57/122/71 76/103/71
f 64/96/72 63/101/72 68/105/72
f 61/106/100 66/111/100 67/107/100
f 43/86/62 65/130/62 60/109/62
f 62/108/74 67/107/74 68/105/74
f 60/109/75 65/130/75 66/111/75
f 69/112/101 68/115/101 46/71/101
f 66/113/77 44/74/77 45/69/77
f 67/114/78 45/69/78 46/71/78
f 65/116/102 43/72/102 44/74/102
f 55/82/54 59/66/54 47/68/54
f 73/117/80 74/118/80 78/104/80
f 73/117/81 75/120/81 77/98/81
f 72/119/103 56/121/103 75/120/103
f 60/99/83 77/98/83 75/120/83
f 61/97/104 62/102/104 78/104/104
f 72/119/105 73/117/105 76/103/105
f 79/123/106 80/92/106 84/91/106
f 79/123/107 81/95/107 83/94/107
f 71/125/108 79/123/108 82/124/108
f 53/126/109 82/124/109 84/91/109
f 72/90/110 80/92/110 83/94/110
f 71/125/111 70/93/111 81/95/111
v -1.018624 4.285412 0.349173
v -1.024205 4.263742 0.331260
v -1.024274 4.235656 0.325536
v -1.018812 4.208679 0.333536
v -1.009283 4.190039 0.353116
v -0.991337 4.288239 0.352914
v -0.976943 4.268639 0.337740
v -0.969700 4.241311 0.333020
v -0.971550 4.213576 0.340017
v -0.981996 4.192866 0.356858
v -0.949059 4.245450 0.384235
v -0.953674 4.217161 0.384371
v -0.971675 4.194936 0.382465
v -0.997983 4.289551 0.400388
v -0.982992 4.243935 0.427968
v -0.983060 4.215848 0.422245
v -0.988641 4.194179 0.404332
v -1.025270 4.286724 0.396647
v -1.035716 4.266015 0.413488
v -1.037565 4.238280 0.420485
v -1.030322 4.210951 0.415764
v -1.015928 4.191351 0.400590
v -1.035590 4.284654 0.371039
v -1.053592 4.262430 0.369133
v -1.058206 4.234140 0.369269
v -1.048198 4.207366 0.371410
v -1.026249 4.189281 0.374982
v -0.981017 4.290309 0.378522
v -0.959067 4.272224 0.382094
v -0.988454 4.270912 0.419968
v -1.017717 4.289383 0.456470
v -1.021573 4.288984 0.455942
v -1.008614 4.295087 0.422008
v -1.004364 4.258417 0.446668
v -1.022121 4.293687 0.420156
v -1.025315 4.256246 0.443795
v -0.940529 4.295291 0.420452
v -0.947484 4.294981 0.429416
v -0.956581 4.298562 0.411424
v -0.946881 4.273309 0.417535
v -0.959769 4.298419 0.415532
v -0.950078 4.273167 0.421655
vt 0.274240 0.539347
vt 0.265397 0.539709
vt 0.266768 0.532487
vt 0.231414 0.551290
vt 0.214659 0.541092
vt 0.231357 0.542861
vt 0.231940 0.569242
vt 0.215985 0.562822
vt 0.231472 0.559719
vt 0.230890 0.533338
vt 0.220414 0.530957
vt 0.213134 0.552274
vt 0.289666 0.544440
vt 0.282983 0.540904
vt 0.290637 0.536818
vt 0.279682 0.529141
vt 0.275518 0.536619
vt 0.273707 0.532162
vt 0.280945 0.538772
vt 0.286431 0.530872
vt 0.290637 0.551375
vt 0.284312 0.543753
vt 0.278488 0.537315
vt 0.276318 0.541045
vt 0.804698 0.251197
vt 0.792375 0.255919
vt 0.792638 0.252041
vt 0.786357 0.239035
vt 0.792578 0.249274
vt 0.791489 0.249454
vt 0.271776 0.541127
vt 0.760733 0.199751
vt 0.757502 0.209505
vt 0.750621 0.206121
vt 0.278108 0.542645
vt 0.273009 0.544115
vt 0.772804 0.201934
vt 0.766718 0.213101
vt 0.766203 0.208706
vt 0.264007 0.548518
vt 0.277612 0.547903
vt 0.268747 0.555467
vt 0.275021 0.546378
vt 0.280714 0.548498
vt 0.281954 0.545638
vt 0.276612 0.557409
vt 0.240880 0.530957
vt 0.248168 0.561486
vt 0.249693 0.550306
vt 0.246843 0.539760
vt 0.242415 0.571620
vt 0.762287 0.211045
vt 0.762255 0.210544
vt 0.761023 0.221925
vt 0.757316 0.212491
vt 0.750922 0.216572
vt 0.772804 0.220841
vt 0.791613 0.252007
vt 0.791097 0.255536
vt 0.780068 0.250772
vt 0.780487 0.263708
vt 0.804698 0.264828
vt 0.798786 0.238814
vt 0.221949 0.571626
vt 0.283377 0.553479
vn 0.0974 -0.9944 0.0411
vn 0.1570 -0.2514 -0.9551
vn 0.0410 0.6303 -0.7753
vn 0.1685 -0.6717 -0.7214
vn 0.1130 0.1981 -0.9736
vn 0.6338 0.7075 -0.3126
vn 0.7613 -0.5945 -0.2588
vn 0.8769 0.2976 -0.3775
vn -0.0974 0.9944 -0.0411
vn 0.9209 -0.1520 -0.3589
vn 0.6566 -0.5738 0.4896
vn -0.0219 -0.3328 0.9427
vn 0.7859 -0.1253 0.6055
vn -0.1836 0.9770 -0.1086
vn -0.0410 -0.6303 0.7753
vn -0.8964 0.4431 -0.0112
vn -0.1130 -0.1981 0.9736
vn -0.0018 -0.7916 0.6111
vn -0.6338 -0.7075 0.3126
vn -0.9209 0.1520 0.3589
vn -0.8769 -0.2976 0.3775
vn -0.7613 0.5945 0.2588
vn -0.5291 -0.7282 -0.4357
vn -0.7859 0.1253 -0.6055
vn -0.7419 -0.3242 -0.5869
vn -0.6566 0.5738 -0.4896
vn -0.0936 -0.3369 0.9369
vn -0.1200 0.9841 0.1312
vn 0.7458 0.5970 0.2958
vn -0.0616 0.9592 -0.2759
vn -0.9469 -0.0110 0.3214
vn 0.7378 0.3248 0.5917
vn 0.7595 -0.2963 0.5791
vn 0.1261 0.9832 0.1319
vn 0.8962 0.3096 -0.3177
vn 0.6345 -0.6127 0.4711
vn -0.4149 0.5496 0.7251
vn 0.4728 0.6353 -0.6106
vn 0.0974 -0.9944 0.0412
vn -0.0583 0.2730 0.9603
vn -0.1837 0.9770 -0.1087
vn -0.9019 0.4262 0.0698
vn -0.7419 -0.3243 -0.5869
vn 0.7588 0.6146 0.2158
vn -0.9185 0.1532 0.3646
vn 0.8092 0.1709 0.5622
vn 0.1262 0.9832 0.1320
vn 0.9234 -0.2256 -0.3106
vn -0.5037 0.6219 0.5996
vn 0.5746 0.5841 -0.5733
s off
f 101/131/112 111/132/112 89/133/112
f 87/134/113 93/135/113 88/136/113
f 85/137/114 91/138/114 86/139/114
f 89/140/115 93/135/115 94/141/115
f 86/139/116 92/142/116 87/134/116
f 90/143/117 113/144/117 91/145/117
f 93/146/118 97/147/118 94/148/118
f 91/145/119 95/149/119 92/150/119
f 85/151/120 112/152/120 90/143/120
f 92/150/121 96/153/121 93/146/121
f 97/147/122 100/154/122 101/131/122
f 114/155/123 126/156/123 122/157/123
f 95/149/124 100/154/124 96/153/124
f 112/158/125 125/159/125 123/160/125
f 100/154/126 106/161/126 101/131/126
f 103/162/127 119/163/127 102/164/127
f 99/165/128 105/166/128 100/154/128
f 104/167/129 118/168/129 120/169/129
f 106/161/130 110/170/130 111/132/130
f 103/171/131 109/172/131 104/173/131
f 85/151/120 102/174/120 98/175/120
f 104/173/132 110/170/132 105/166/132
f 102/174/133 108/176/133 103/171/133
f 111/177/134 88/136/134 89/140/134
f 108/178/135 87/134/135 109/179/135
f 109/179/136 88/136/136 110/180/136
f 107/181/137 86/139/137 108/178/137
f 97/147/112 89/133/112 94/148/112
f 115/182/138 120/169/138 118/168/138
f 115/182/139 119/163/139 116/183/139
f 114/184/140 117/185/140 115/182/140
f 102/164/141 117/185/141 98/186/141
f 103/162/142 120/169/142 116/183/142
f 114/184/143 118/168/143 99/187/143
f 121/188/144 126/156/144 124/189/144
f 121/188/145 125/159/145 122/157/145
f 113/190/146 124/189/146 95/191/146
f 95/191/147 126/156/147 99/192/147
f 114/155/148 125/159/148 98/193/148
f 113/190/149 123/160/149 121/188/149
f 101/131/150 106/161/150 111/132/150
f 87/134/113 92/142/113 93/135/113
f 85/137/114 90/194/114 91/138/114
f 89/140/115 88/136/115 93/135/115
f 86/139/116 91/138/116 92/142/116
f 90/143/117 112/152/117 113/144/117
f 93/146/118 96/153/118 97/147/118
f 91/145/119 113/144/119 95/149/119
f 85/151/120 98/175/120 112/152/120
f 92/150/121 95/149/121 96/153/121
f 97/147/122 96/153/122 100/154/122
f 114/155/151 99/192/151 126/156/151
f 95/149/124 99/165/124 100/154/124
f 112/158/152 98/193/152 125/159/152
f 100/154/126 105/166/126 106/161/126
f 103/162/153 116/183/153 119/163/153
f 99/165/128 104/173/128 105/166/128
f 104/167/129 99/187/129 118/168/129
f 106/161/130 105/166/130 110/170/130
f 103/171/131 108/176/131 109/172/131
f 85/151/120 107/195/120 102/174/120
f 104/173/132 109/172/132 110/170/132
f 102/174/133 107/195/133 108/176/133
f 111/177/134 110/180/134 88/136/134
f 108/178/135 86/139/135 87/134/135
f 109/179/154 87/134/154 88/136/154
f 107/181/137 85/137/137 86/139/137
f 97/147/112 101/131/112 89/133/112
f 115/182/138 116/183/138 120/169/138
f 115/182/139 117/185/139 119/163/139
f 114/184/155 98/186/155 117/185/155
f 102/164/141 119/163/141 117/185/141
f 103/162/156 104/167/156 120/169/156
f 114/184/157 115/182/157 118/168/157
f 121/188/144 122/157/144 126/156/144
f 121/188/158 123/160/158 125/159/158
f 113/190/159 121/188/159 124/189/159
f 95/191/147 124/189/147 126/156/147
f 114/155/160 122/157/160 125/159/160
f 113/190/161 112/158/161 123/160/161
