# Blender v2.81 (sub 16) OBJ File: 'garbage.blend'
# www.blender.org
v -3.003805 2.777107 -0.085738
v -2.987308 2.757523 -0.098618
v -2.981033 2.730104 -0.104134
v -2.986662 2.702196 -0.100806
v -3.002687 2.681278 -0.089526
v -3.000601 2.776058 -0.058257
v -2.981758 2.755706 -0.051020
v -2.974625 2.728006 -0.049172
v -2.981113 2.700379 -0.053207
v -2.999483 2.680229 -0.062045
v -3.019051 2.726183 -0.016168
v -3.019587 2.698801 -0.024625
v -3.021696 2.679318 -0.045543
v -3.048231 2.775284 -0.052733
v -3.069885 2.726458 -0.038125
v -3.063610 2.699039 -0.043641
v -3.047113 2.679455 -0.056522
v -3.051435 2.776333 -0.080214
v -3.069805 2.756183 -0.089052
v -3.076292 2.728556 -0.093087
v -3.069159 2.700856 -0.091239
v -3.050317 2.680504 -0.084003
v -3.029222 2.777244 -0.096716
v -3.031331 2.757761 -0.117634
v -3.031866 2.730379 -0.126091
v -3.030685 2.702435 -0.119821
v -3.028104 2.681416 -0.100505
v -3.022814 2.775146 -0.041755
v -3.020232 2.754128 -0.022438
v -3.064255 2.754366 -0.041454
v -3.107454 2.774244 -0.057845
v -3.107907 2.774392 -0.061729
v -3.071977 2.780823 -0.056797
v -3.093764 2.742452 -0.051917
v -3.073563 2.781343 -0.070400
v -3.096224 2.743258 -0.073017
v -3.053264 2.772107 0.008103
v -3.063684 2.772163 0.003602
v -3.048679 2.778029 -0.009037
v -3.051456 2.751384 -0.001865
v -3.053455 2.778055 -0.011100
v -3.056246 2.751410 -0.003934
vt 0.274240 0.539347
vt 0.265397 0.539709
vt 0.266768 0.532487
vt 0.231414 0.551290
vt 0.214659 0.541092
vt 0.231357 0.542861
vt 0.231940 0.569242
vt 0.215985 0.562822
vt 0.231472 0.559719
vt 0.230890 0.533338
vt 0.220414 0.530957
vt 0.213134 0.552274
vt 0.289666 0.544440
vt 0.282983 0.540904
vt 0.290637 0.536818
vt 0.279682 0.529141
vt 0.275518 0.536619
vt 0.273707 0.532162
vt 0.280945 0.538772
vt 0.286431 0.530872
vt 0.290637 0.551375
vt 0.284312 0.543753
vt 0.278488 0.537315
vt 0.276318 0.541045
vt 0.804698 0.251197
vt 0.792375 0.255919
vt 0.792638 0.252041
vt 0.786357 0.239035
vt 0.792578 0.249274
vt 0.791489 0.249454
vt 0.271776 0.541127
vt 0.760733 0.199751
vt 0.757502 0.209505
vt 0.750621 0.206121
vt 0.278108 0.542645
vt 0.273009 0.544115
vt 0.772804 0.201934
vt 0.766718 0.213101
vt 0.766203 0.208706
vt 0.264007 0.548518
vt 0.277612 0.547903
vt 0.268747 0.555467
vt 0.275021 0.546378
vt 0.280714 0.548498
vt 0.281954 0.545638
vt 0.276612 0.557409
vt 0.240880 0.530957
vt 0.248168 0.561486
vt 0.249693 0.550306
vt 0.246843 0.539760
vt 0.242415 0.571620
vt 0.762287 0.211045
vt 0.762255 0.210544
vt 0.761023 0.221925
vt 0.757316 0.212491
vt 0.750922 0.216572
vt 0.772804 0.220841
vt 0.791613 0.252007
vt 0.791097 0.255536
vt 0.780068 0.250772
vt 0.780487 0.263708
vt 0.804698 0.264828
vt 0.798786 0.238814
vt 0.221949 0.571626
vt 0.283377 0.553479
vn 0.0117 -0.9992 -0.0395
vn 0.9701 -0.2101 -0.1211
vn 0.7432 0.6663 -0.0612
vn 0.7584 -0.6419 -0.1129
vn 0.9649 0.2416 -0.1033
vn 0.4435 0.6354 0.6321
vn 0.4588 -0.6728 0.5804
vn 0.5787 0.2018 0.7902
vn -0.0117 0.9992 0.0395
vn 0.5840 -0.2500 0.7723
vn -0.2920 -0.6850 0.6675
vn -0.9083 -0.3850 0.1636
vn -0.3835 -0.2657 0.8845
vn 0.0323 0.9975 -0.0624
vn -0.7432 -0.6663 0.0612
vn -0.2278 0.5577 -0.7982
vn -0.9649 -0.2415 0.1033
vn -0.5701 -0.8208 0.0351
vn -0.4435 -0.6354 -0.6321
vn -0.5840 0.2499 -0.7723
vn -0.5787 -0.2017 -0.7902
vn -0.4588 0.6728 -0.5804
vn 0.3073 -0.6232 -0.7192
vn 0.3835 0.2657 -0.8845
vn 0.3888 -0.1860 -0.9024
vn 0.2920 0.6850 -0.6674
vn -0.9207 -0.3791 0.0929
vn -0.1837 0.9812 0.0588
vn -0.1136 0.4734 0.8735
vn 0.2254 0.9742 0.0109
vn -0.5499 0.0945 -0.8299
vn -0.3945 0.1869 0.8997
vn -0.3600 -0.4297 0.8281
vn -0.1222 0.9477 0.2948
vn 0.5255 0.2074 0.8252
vn -0.2787 -0.7194 0.6362
vn -0.8210 0.5535 -0.1399
vn 0.6929 0.6038 0.3940
vn -0.9508 0.2180 0.2201
vn 0.0323 0.9975 -0.0623
vn -0.3071 0.5367 -0.7859
vn -0.9649 -0.2416 0.1033
vn -0.5840 0.2500 -0.7723
vn 0.2920 0.6850 -0.6675
vn -0.1837 0.9812 0.0589
vn -0.0334 0.4941 0.8688
vn -0.5889 0.2505 -0.7684
vn -0.3437 0.0270 0.9387
vn 0.5399 -0.3261 0.7760
vn -0.7240 0.6446 -0.2454
vn 0.6839 0.5374 0.4934
s off
f 17/1/1 27/2/1 5/3/1
f 3/4/2 9/5/2 4/6/2
f 1/7/3 7/8/3 2/9/3
f 5/10/4 9/5/4 10/11/4
f 2/9/5 8/12/5 3/4/5
f 6/13/6 29/14/6 7/15/6
f 9/16/7 13/17/7 10/18/7
f 7/15/8 11/19/8 8/20/8
f 1/21/9 28/22/9 6/13/9
f 8/20/10 12/23/10 9/16/10
f 13/17/11 16/24/11 17/1/11
f 30/25/12 42/26/12 38/27/12
f 11/19/13 16/24/13 12/23/13
f 28/28/14 41/29/14 39/30/14
f 16/24/15 22/31/15 17/1/15
f 19/32/16 35/33/16 18/34/16
f 15/35/17 21/36/17 16/24/17
f 20/37/18 34/38/18 36/39/18
f 22/31/19 26/40/19 27/2/19
f 19/41/20 25/42/20 20/43/20
f 1/21/9 18/44/9 14/45/9
f 20/43/21 26/40/21 21/36/21
f 18/44/22 24/46/22 19/41/22
f 27/47/23 4/6/23 5/10/23
f 24/48/24 3/4/24 25/49/24
f 25/49/25 4/6/25 26/50/25
f 23/51/26 2/9/26 24/48/26
f 13/17/1 5/3/1 10/18/1
f 31/52/27 36/39/27 34/38/27
f 31/52/28 35/33/28 32/53/28
f 30/54/29 33/55/29 31/52/29
f 18/34/30 33/55/30 14/56/30
f 19/32/31 36/39/31 32/53/31
f 30/54/32 34/38/32 15/57/32
f 37/58/33 42/26/33 40/59/33
f 37/58/34 41/29/34 38/27/34
f 29/60/35 40/59/35 11/61/35
f 11/61/36 42/26/36 15/62/36
f 30/25/37 41/29/37 14/63/37
f 29/60/38 39/30/38 37/58/38
f 17/1/1 22/31/1 27/2/1
f 3/4/2 8/12/2 9/5/2
f 1/7/3 6/64/3 7/8/3
f 5/10/4 4/6/4 9/5/4
f 2/9/5 7/8/5 8/12/5
f 6/13/6 28/22/6 29/14/6
f 9/16/7 12/23/7 13/17/7
f 7/15/8 29/14/8 11/19/8
f 1/21/9 14/45/9 28/22/9
f 8/20/10 11/19/10 12/23/10
f 13/17/11 12/23/11 16/24/11
f 30/25/39 15/62/39 42/26/39
f 11/19/13 15/35/13 16/24/13
f 28/28/40 14/63/40 41/29/40
f 16/24/15 21/36/15 22/31/15
f 19/32/41 32/53/41 35/33/41
f 15/35/42 20/43/42 21/36/42
f 20/37/18 15/57/18 34/38/18
f 22/31/19 21/36/19 26/40/19
f 19/41/43 24/46/43 25/42/43
f 1/21/9 23/65/9 18/44/9
f 20/43/21 25/42/21 26/40/21
f 18/44/22 23/65/22 24/46/22
f 27/47/23 26/50/23 4/6/23
f 24/48/24 2/9/24 3/4/24
f 25/49/25 3/4/25 4/6/25
f 23/51/44 1/7/44 2/9/44
f 13/17/1 17/1/1 5/3/1
f 31/52/27 32/53/27 36/39/27
f 31/52/45 33/55/45 35/33/45
f 30/54/46 14/56/46 33/55/46
f 18/34/30 35/33/30 33/55/30
f 19/32/47 20/37/47 36/39/47
f 30/54/48 31/52/48 34/38/48
f 37/58/33 38/27/33 42/26/33
f 37/58/34 39/30/34 41/29/34
f 29/60/49 37/58/49 40/59/49
f 11/61/36 40/59/36 42/26/36
f 30/25/50 38/27/50 41/29/50
f 29/60/51 28/28/51 39/30/51
v -2.581736 3.496301 0.055418
v -2.591021 3.469907 0.049193
v -2.587919 3.441462 0.050871
v -2.573259 3.418586 0.060002
v -2.550970 3.407409 0.074141
v -2.558032 3.501715 0.042174
v -2.549965 3.479285 0.026255
v -2.540511 3.452291 0.024384
v -2.532203 3.427964 0.037065
v -2.527266 3.412824 0.060897
v -2.497379 3.473078 0.052201
v -2.494849 3.445966 0.061154
v -2.505700 3.423218 0.074806
v -2.538603 3.517088 0.083234
v -2.501654 3.483036 0.106504
v -2.498552 3.454590 0.108182
v -2.507837 3.428197 0.101957
v -2.562307 3.511673 0.096477
v -2.557370 3.496533 0.120310
v -2.549062 3.472207 0.132990
v -2.539608 3.445212 0.131120
v -2.531541 3.422782 0.115200
v -2.583873 3.501280 0.082569
v -2.594724 3.478531 0.096221
v -2.592194 3.451420 0.105174
v -2.576961 3.427210 0.107030
v -2.553107 3.412389 0.101292
v -2.536466 3.512109 0.056083
v -2.512612 3.497288 0.050345
v -2.516314 3.505912 0.097372
v -2.525004 3.532926 0.138902
v -2.528354 3.532161 0.140773
v -2.537072 3.528340 0.105191
v -2.512438 3.501275 0.130321
v -2.548805 3.525660 0.111747
v -2.530638 3.497118 0.140490
v -2.482189 3.532011 0.065035
v -2.483066 3.534052 0.076166
v -2.500839 3.531428 0.066343
v -2.484090 3.509860 0.071181
v -2.501241 3.532363 0.071444
v -2.484493 3.510798 0.076297
vt 0.274240 0.539347
vt 0.265397 0.539709
vt 0.266768 0.532487
vt 0.231414 0.551290
vt 0.214659 0.541092
vt 0.231357 0.542861
vt 0.231940 0.569242
vt 0.215985 0.562822
vt 0.231472 0.559719
vt 0.230890 0.533338
vt 0.220414 0.530957
vt 0.213134 0.552274
vt 0.289666 0.544440
vt 0.282983 0.540904
vt 0.290637 0.536818
vt 0.279682 0.529141
vt 0.275518 0.536619
vt 0.273707 0.532162
vt 0.280945 0.538772
vt 0.286431 0.530872
vt 0.290637 0.551375
vt 0.284312 0.543753
vt 0.278488 0.537315
vt 0.276318 0.541045
vt 0.804698 0.251197
vt 0.792375 0.255919
vt 0.792638 0.252041
vt 0.786357 0.239035
vt 0.792578 0.249274
vt 0.791489 0.249454
vt 0.271776 0.541127
vt 0.760733 0.199751
vt 0.757502 0.209505
vt 0.750621 0.206121
vt 0.278108 0.542645
vt 0.273009 0.544115
vt 0.772804 0.201934
vt 0.766718 0.213101
vt 0.766203 0.208706
vt 0.264007 0.548518
vt 0.277612 0.547903
vt 0.268747 0.555467
vt 0.275021 0.546378
vt 0.280714 0.548498
vt 0.281954 0.545638
vt 0.276612 0.557409
vt 0.240880 0.530957
vt 0.248168 0.561486
vt 0.249693 0.550306
vt 0.246843 0.539760
vt 0.242415 0.571620
vt 0.762287 0.211045
vt 0.762255 0.210544
vt 0.761023 0.221925
vt 0.757316 0.212491
vt 0.750922 0.216572
vt 0.772804 0.220841
vt 0.791613 0.252007
vt 0.791097 0.255536
vt 0.780068 0.250772
vt 0.780487 0.263708
vt 0.804698 0.264828
vt 0.798786 0.238814
vt 0.221949 0.571626
vt 0.283377 0.553479
vn 0.3208 -0.9268 0.1952
vn -0.3221 -0.5218 -0.7899
vn -0.5163 0.3644 -0.7750
vn -0.0963 -0.8491 -0.5194
vn -0.4672 -0.1028 -0.8782
vn 0.1973 0.6136 -0.7645
vn 0.6173 -0.5999 -0.5090
vn 0.4524 0.2183 -0.8647
vn -0.3208 0.9268 -0.1952
vn 0.5974 -0.2007 -0.7764
vn 0.9236 -0.3576 0.1383
vn 0.5551 -0.0294 0.8313
vn 0.9921 0.1116 0.0576
vn -0.4234 0.8846 -0.1955
vn 0.5163 -0.3644 0.7750
vn -0.8377 0.3656 0.4058
vn 0.4672 0.1028 0.8782
vn 0.4969 -0.5656 0.6581
vn -0.1973 -0.6136 0.7646
vn -0.5974 0.2007 0.7764
vn -0.4524 -0.2183 0.8647
vn -0.6173 0.5999 0.5090
vn -0.5036 -0.8559 0.1173
vn -0.9921 -0.1116 -0.0576
vn -0.8471 -0.5306 0.0306
vn -0.9236 0.3576 -0.1383
vn 0.4942 -0.0392 0.8685
vn -0.2456 0.9684 -0.0437
vn 0.6358 0.7010 -0.3230
vn -0.4081 0.8237 -0.3936
vn -0.6026 0.0328 0.7974
vn 0.8461 0.5324 -0.0246
vn 0.9942 -0.0605 0.0894
vn -0.0436 0.9820 -0.1836
vn 0.4973 0.2492 -0.8310
vn 0.9044 -0.4015 0.1448
vn -0.0766 0.7199 0.6899
vn -0.0765 0.4446 -0.8925
vn -0.5162 0.3644 -0.7750
vn 0.1973 0.6136 -0.7646
vn 0.4524 0.2184 -0.8647
vn 0.4010 0.5496 0.7329
vn -0.4234 0.8846 -0.1956
vn -0.7955 0.3741 0.4767
vn -0.1973 -0.6136 0.7645
vn -0.6173 0.5999 0.5089
vn -0.9236 0.3575 -0.1383
vn -0.2457 0.9684 -0.0438
vn 0.6002 0.6941 -0.3975
vn -0.4081 0.8237 -0.3937
vn -0.5927 0.2038 0.7792
vn 0.9228 0.3813 -0.0549
vn 0.6412 -0.2557 -0.7235
vn 0.9043 -0.4015 0.1449
vn -0.2317 0.7451 0.6254
vn 0.0379 0.4133 -0.9098
s off
f 59/66/52 69/67/52 47/68/52
f 45/69/53 51/70/53 46/71/53
f 43/72/54 49/73/54 44/74/54
f 47/75/55 51/70/55 52/76/55
f 44/74/56 50/77/56 45/69/56
f 48/78/57 71/79/57 49/80/57
f 51/81/58 55/82/58 52/83/58
f 49/80/59 53/84/59 50/85/59
f 43/86/60 70/87/60 48/78/60
f 50/85/61 54/88/61 51/81/61
f 55/82/62 58/89/62 59/66/62
f 72/90/63 84/91/63 80/92/63
f 53/84/64 58/89/64 54/88/64
f 70/93/65 83/94/65 81/95/65
f 58/89/66 64/96/66 59/66/66
f 61/97/67 77/98/67 60/99/67
f 57/100/68 63/101/68 58/89/68
f 62/102/69 76/103/69 78/104/69
f 64/96/70 68/105/70 69/67/70
f 61/106/71 67/107/71 62/108/71
f 43/86/60 60/109/60 56/110/60
f 62/108/72 68/105/72 63/101/72
f 60/109/73 66/111/73 61/106/73
f 69/112/74 46/71/74 47/75/74
f 66/113/75 45/69/75 67/114/75
f 67/114/76 46/71/76 68/115/76
f 65/116/77 44/74/77 66/113/77
f 55/82/52 47/68/52 52/83/52
f 73/117/78 78/104/78 76/103/78
f 73/117/79 77/98/79 74/118/79
f 72/119/80 75/120/80 73/117/80
f 60/99/81 75/120/81 56/121/81
f 61/97/82 78/104/82 74/118/82
f 72/119/83 76/103/83 57/122/83
f 79/123/84 84/91/84 82/124/84
f 79/123/85 83/94/85 80/92/85
f 71/125/86 82/124/86 53/126/86
f 53/126/87 84/91/87 57/127/87
f 72/90/88 83/94/88 56/128/88
f 71/125/89 81/95/89 79/123/89
f 59/66/52 64/96/52 69/67/52
f 45/69/53 50/77/53 51/70/53
f 43/72/90 48/129/90 49/73/90
f 47/75/55 46/71/55 51/70/55
f 44/74/56 49/73/56 50/77/56
f 48/78/91 70/87/91 71/79/91
f 51/81/58 54/88/58 55/82/58
f 49/80/92 71/79/92 53/84/92
f 43/86/60 56/110/60 70/87/60
f 50/85/61 53/84/61 54/88/61
f 55/82/62 54/88/62 58/89/62
f 72/90/93 57/127/93 84/91/93
f 53/84/64 57/100/64 58/89/64
f 70/93/94 56/128/94 83/94/94
f 58/89/66 63/101/66 64/96/66
f 61/97/95 74/118/95 77/98/95
f 57/100/68 62/108/68 63/101/68
f 62/102/69 57/122/69 76/103/69
f 64/96/96 63/101/96 68/105/96
f 61/106/71 66/111/71 67/107/71
f 43/86/60 65/130/60 60/109/60
f 62/108/72 67/107/72 68/105/72
f 60/109/97 65/130/97 66/111/97
f 69/112/74 68/115/74 46/71/74
f 66/113/75 44/74/75 45/69/75
f 67/114/76 45/69/76 46/71/76
f 65/116/98 43/72/98 44/74/98
f 55/82/52 59/66/52 47/68/52
f 73/117/78 74/118/78 78/104/78
f 73/117/99 75/120/99 77/98/99
f 72/119/100 56/121/100 75/120/100
f 60/99/101 77/98/101 75/120/101
f 61/97/102 62/102/102 78/104/102
f 72/119/103 73/117/103 76/103/103
f 79/123/84 80/92/84 84/91/84
f 79/123/85 81/95/85 83/94/85
f 71/125/104 79/123/104 82/124/104
f 53/126/105 82/124/105 84/91/105
f 72/90/106 80/92/106 83/94/106
f 71/125/107 70/93/107 81/95/107
v -1.047365 4.369047 -1.511483
v -1.045392 4.356404 -1.537133
v -1.043835 4.332597 -1.553019
v -1.043113 4.304004 -1.554886
v -1.043419 4.278286 -1.542234
v -1.024224 4.365081 -1.496809
v -1.005310 4.349536 -1.511716
v -0.997553 4.324666 -1.523671
v -1.003032 4.297135 -1.529470
v -1.020278 4.274320 -1.527560
v -1.000666 4.306804 -1.471349
v -1.005728 4.281666 -1.484158
v -1.021834 4.265389 -1.501399
v -1.050478 4.351184 -1.459162
v -1.050062 4.296873 -1.448377
v -1.048505 4.273066 -1.464263
v -1.046532 4.260423 -1.489913
v -1.073619 4.355150 -1.473836
v -1.090865 4.332335 -1.471926
v -1.096344 4.304804 -1.477725
v -1.088587 4.279934 -1.489680
v -1.069673 4.264389 -1.504587
v -1.072063 4.364081 -1.499997
v -1.088169 4.347804 -1.517238
v -1.093230 4.322666 -1.530046
v -1.085890 4.295403 -1.534992
v -1.068116 4.273320 -1.530748
v -1.025781 4.356150 -1.470649
v -1.008006 4.334067 -1.466405
v -1.050784 4.325466 -1.446510
v -1.092282 4.335486 -1.419910
v -1.095552 4.336046 -1.421984
v -1.069161 4.350861 -1.442978
v -1.076939 4.307849 -1.435210
v -1.080616 4.352823 -1.450242
v -1.094707 4.310894 -1.446477
v -1.006967 4.338433 -1.418167
v -1.017092 4.336398 -1.413458
v -1.017518 4.347654 -1.430558
v -1.012108 4.320478 -1.431703
v -1.022158 4.346721 -1.428399
v -1.016762 4.319542 -1.429538
vt 0.274240 0.539347
vt 0.265397 0.539709
vt 0.266768 0.532487
vt 0.231414 0.551290
vt 0.214659 0.541092
vt 0.231357 0.542861
vt 0.231940 0.569242
vt 0.215985 0.562822
vt 0.231472 0.559719
vt 0.230890 0.533338
vt 0.220414 0.530957
vt 0.213134 0.552274
vt 0.289666 0.544440
vt 0.282983 0.540904
vt 0.290637 0.536818
vt 0.279682 0.529141
vt 0.275518 0.536619
vt 0.273707 0.532162
vt 0.280945 0.538772
vt 0.286431 0.530872
vt 0.290637 0.551375
vt 0.284312 0.543753
vt 0.278488 0.537315
vt 0.276318 0.541045
vt 0.804698 0.251197
vt 0.792375 0.255919
vt 0.792638 0.252041
vt 0.786357 0.239035
vt 0.792578 0.249274
vt 0.791489 0.249454
vt 0.271776 0.541127
vt 0.760733 0.199751
vt 0.757502 0.209505
vt 0.750621 0.206121
vt 0.278108 0.542645
vt 0.273009 0.544115
vt 0.772804 0.201934
vt 0.766718 0.213101
vt 0.766203 0.208706
vt 0.264007 0.548518
vt 0.277612 0.547903
vt 0.268747 0.555467
vt 0.275021 0.546378
vt 0.280714 0.548498
vt 0.281954 0.545638
vt 0.276612 0.557409
vt 0.240880 0.530957
vt 0.248168 0.561486
vt 0.249693 0.550306
vt 0.246843 0.539760
vt 0.242415 0.571620
vt 0.762287 0.211045
vt 0.762255 0.210544
vt 0.761023 0.221925
vt 0.757316 0.212491
vt 0.750922 0.216572
vt 0.772804 0.220841
vt 0.791613 0.252007
vt 0.791097 0.255536
vt 0.780068 0.250772
vt 0.780487 0.263708
vt 0.804698 0.264828
vt 0.798786 0.238814
vt 0.221949 0.571626
vt 0.283377 0.553479
vn 0.0412 -0.9463 -0.3206
vn 0.5426 0.0684 -0.8372
vn 0.3869 0.8386 -0.3835
vn 0.4408 -0.4005 -0.8033
vn 0.5240 0.4962 -0.6923
vn 0.7272 0.6353 0.2601
vn 0.7810 -0.6038 -0.1596
vn 0.9624 0.2342 0.1372
vn -0.0412 0.9463 0.3206
vn 0.9811 -0.1936 -0.0077
vn 0.3672 -0.8228 0.4338
vn -0.4325 -0.6268 0.6481
vn 0.4477 -0.4759 0.7570
vn -0.0907 0.9703 0.2243
vn -0.3869 -0.8386 0.3836
vn -0.7922 0.5840 -0.1773
vn -0.5240 -0.4962 0.6923
vn -0.2860 -0.9376 0.1977
vn -0.7272 -0.6353 -0.2602
vn -0.9811 0.1936 0.0077
vn -0.9625 -0.2342 -0.1372
vn -0.7810 0.6037 0.1596
vn -0.3133 -0.4162 -0.8536
vn -0.4478 0.4759 -0.7570
vn -0.4292 0.0481 -0.9020
vn -0.3672 0.8228 -0.4338
vn -0.4948 -0.6147 0.6142
vn -0.1355 0.8817 0.4519
vn 0.5651 0.3021 0.7677
vn 0.0905 0.9881 0.1242
vn -0.9933 0.0619 -0.0978
vn 0.4234 -0.0484 0.9046
vn 0.4301 -0.6187 0.6574
vn 0.0866 0.8332 0.5462
vn 0.9547 0.2209 0.1993
vn 0.3540 -0.8479 0.3946
vn -0.6686 0.3346 0.6641
vn 0.7069 0.7029 -0.0789
vn 0.3869 0.8386 -0.3836
vn 0.4408 -0.4004 -0.8033
vn 0.7271 0.6353 0.2601
vn 0.7810 -0.6037 -0.1597
vn -0.4550 -0.0695 0.8878
vn 0.4478 -0.4759 0.7570
vn -0.0908 0.9703 0.2243
vn -0.3869 -0.8386 0.3835
vn -0.8323 0.5416 -0.1184
vn -0.7272 -0.6353 -0.2601
vn -0.9624 -0.2342 -0.1372
vn -0.7810 0.6037 0.1597
vn -0.4477 0.4759 -0.7570
vn -0.4291 0.0481 -0.9020
vn 0.6115 0.3434 0.7128
vn 0.0905 0.9881 0.1243
vn -0.9812 0.1923 0.0139
vn 0.4960 -0.1933 0.8465
vn 0.0866 0.8331 0.5463
vn 0.9605 -0.2784 0.0045
vn 0.3540 -0.8479 0.3947
vn -0.6930 0.4615 0.5539
vn 0.7814 0.6234 -0.0289
s off
f 101/131/108 111/132/108 89/133/108
f 87/134/109 93/135/109 88/136/109
f 85/137/110 91/138/110 86/139/110
f 89/140/111 93/135/111 94/141/111
f 86/139/112 92/142/112 87/134/112
f 90/143/113 113/144/113 91/145/113
f 93/146/114 97/147/114 94/148/114
f 91/145/115 95/149/115 92/150/115
f 85/151/116 112/152/116 90/143/116
f 92/150/117 96/153/117 93/146/117
f 97/147/118 100/154/118 101/131/118
f 114/155/119 126/156/119 122/157/119
f 95/149/120 100/154/120 96/153/120
f 112/158/121 125/159/121 123/160/121
f 100/154/122 106/161/122 101/131/122
f 103/162/123 119/163/123 102/164/123
f 99/165/124 105/166/124 100/154/124
f 104/167/125 118/168/125 120/169/125
f 106/161/126 110/170/126 111/132/126
f 103/171/127 109/172/127 104/173/127
f 85/151/116 102/174/116 98/175/116
f 104/173/128 110/170/128 105/166/128
f 102/174/129 108/176/129 103/171/129
f 111/177/130 88/136/130 89/140/130
f 108/178/131 87/134/131 109/179/131
f 109/179/132 88/136/132 110/180/132
f 107/181/133 86/139/133 108/178/133
f 97/147/108 89/133/108 94/148/108
f 115/182/134 120/169/134 118/168/134
f 115/182/135 119/163/135 116/183/135
f 114/184/136 117/185/136 115/182/136
f 102/164/137 117/185/137 98/186/137
f 103/162/138 120/169/138 116/183/138
f 114/184/139 118/168/139 99/187/139
f 121/188/140 126/156/140 124/189/140
f 121/188/141 125/159/141 122/157/141
f 113/190/142 124/189/142 95/191/142
f 95/191/143 126/156/143 99/192/143
f 114/155/144 125/159/144 98/193/144
f 113/190/145 123/160/145 121/188/145
f 101/131/108 106/161/108 111/132/108
f 87/134/109 92/142/109 93/135/109
f 85/137/146 90/194/146 91/138/146
f 89/140/147 88/136/147 93/135/147
f 86/139/112 91/138/112 92/142/112
f 90/143/148 112/152/148 113/144/148
f 93/146/149 96/153/149 97/147/149
f 91/145/115 113/144/115 95/149/115
f 85/151/116 98/175/116 112/152/116
f 92/150/117 95/149/117 96/153/117
f 97/147/118 96/153/118 100/154/118
f 114/155/150 99/192/150 126/156/150
f 95/149/151 99/165/151 100/154/151
f 112/158/152 98/193/152 125/159/152
f 100/154/153 105/166/153 106/161/153
f 103/162/154 116/183/154 119/163/154
f 99/165/124 104/173/124 105/166/124
f 104/167/125 99/187/125 118/168/125
f 106/161/155 105/166/155 110/170/155
f 103/171/127 108/176/127 109/172/127
f 85/151/116 107/195/116 102/174/116
f 104/173/156 109/172/156 110/170/156
f 102/174/157 107/195/157 108/176/157
f 111/177/130 110/180/130 88/136/130
f 108/178/158 86/139/158 87/134/158
f 109/179/159 87/134/159 88/136/159
f 107/181/133 85/137/133 86/139/133
f 97/147/108 101/131/108 89/133/108
f 115/182/134 116/183/134 120/169/134
f 115/182/135 117/185/135 119/163/135
f 114/184/160 98/186/160 117/185/160
f 102/164/161 119/163/161 117/185/161
f 103/162/162 104/167/162 120/169/162
f 114/184/163 115/182/163 118/168/163
f 121/188/140 122/157/140 126/156/140
f 121/188/164 123/160/164 125/159/164
f 113/190/165 121/188/165 124/189/165
f 95/191/166 124/189/166 126/156/166
f 114/155/167 122/157/167 125/159/167
f 113/190/168 112/158/168 123/160/168
