# Blender v2.81 (sub 16) OBJ File: 'garbage.blend'
# www.blender.org
v 0.895254 2.229660 -0.235887
v 0.891169 2.211519 -0.214074
v 0.889463 2.184713 -0.204067
v 0.890592 2.156425 -0.208549
v 0.894255 2.134234 -0.226318
v 0.874365 2.228064 -0.253989
v 0.854989 2.208754 -0.245428
v 0.847686 2.181520 -0.240272
v 0.854412 2.153660 -0.239903
v 0.873366 2.132638 -0.244421
v 0.858269 2.175988 -0.294342
v 0.863578 2.148868 -0.286730
v 0.878658 2.129871 -0.271456
v 0.905837 2.224128 -0.289958
v 0.910629 2.173648 -0.312209
v 0.908923 2.146842 -0.302202
v 0.904838 2.128701 -0.280389
v 0.926725 2.225724 -0.271855
v 0.945679 2.204702 -0.276373
v 0.952406 2.176841 -0.276004
v 0.945103 2.149608 -0.270848
v 0.925727 2.130298 -0.262287
v 0.921434 2.228491 -0.244820
v 0.936514 2.209493 -0.229546
v 0.941823 2.182374 -0.221933
v 0.935937 2.154399 -0.224022
v 0.920435 2.133064 -0.235251
v 0.879657 2.225297 -0.281024
v 0.864154 2.203963 -0.292254
v 0.909500 2.201937 -0.307727
v 0.953028 2.219484 -0.325820
v 0.955979 2.219710 -0.323262
v 0.926283 2.228264 -0.303222
v 0.938015 2.188472 -0.319027
v 0.936622 2.229054 -0.294262
v 0.954053 2.189698 -0.305129
v 0.868535 2.218973 -0.338107
v 0.879268 2.218494 -0.341770
v 0.876846 2.225641 -0.322734
v 0.873317 2.198687 -0.328225
v 0.881765 2.225421 -0.324413
v 0.878250 2.198467 -0.329909
vt 0.274240 0.539347
vt 0.265397 0.539709
vt 0.266768 0.532487
vt 0.231414 0.551290
vt 0.214659 0.541092
vt 0.231357 0.542861
vt 0.231940 0.569242
vt 0.215985 0.562822
vt 0.231472 0.559719
vt 0.230890 0.533338
vt 0.220414 0.530957
vt 0.213134 0.552274
vt 0.289666 0.544440
vt 0.282983 0.540904
vt 0.290637 0.536818
vt 0.279682 0.529141
vt 0.275518 0.536619
vt 0.273707 0.532162
vt 0.280945 0.538772
vt 0.286431 0.530872
vt 0.290637 0.551375
vt 0.284312 0.543753
vt 0.278488 0.537315
vt 0.276318 0.541045
vt 0.804698 0.251197
vt 0.792375 0.255919
vt 0.792638 0.252041
vt 0.786357 0.239035
vt 0.792578 0.249274
vt 0.791489 0.249454
vt 0.271776 0.541127
vt 0.760733 0.199751
vt 0.757502 0.209505
vt 0.750621 0.206121
vt 0.278108 0.542645
vt 0.273009 0.544115
vt 0.772804 0.201934
vt 0.766718 0.213101
vt 0.766203 0.208706
vt 0.264007 0.548518
vt 0.277612 0.547903
vt 0.268747 0.555467
vt 0.275021 0.546378
vt 0.280714 0.548498
vt 0.281954 0.545638
vt 0.276612 0.557409
vt 0.240880 0.530957
vt 0.248168 0.561486
vt 0.249693 0.550306
vt 0.246843 0.539760
vt 0.242415 0.571620
vt 0.762287 0.211045
vt 0.762255 0.210544
vt 0.761023 0.221925
vt 0.757316 0.212491
vt 0.750922 0.216572
vt 0.772804 0.220841
vt 0.791613 0.252007
vt 0.791097 0.255536
vt 0.780068 0.250772
vt 0.780487 0.263708
vt 0.804698 0.264828
vt 0.798786 0.238814
vt 0.221949 0.571626
vt 0.283377 0.553479
vn -0.0104 -0.9950 0.0998
vn -0.6416 -0.1450 0.7532
vn -0.4893 0.7134 0.5017
vn -0.5029 -0.5893 0.6323
vn -0.6369 0.3049 0.7081
vn -0.7351 0.6446 -0.2098
vn -0.7488 -0.6581 -0.0792
vn -0.9538 0.2162 -0.2088
vn 0.0104 0.9950 -0.0998
vn -0.9585 -0.2336 -0.1637
vn -0.2527 -0.7201 -0.6462
vn 0.5505 -0.4460 -0.7058
vn -0.3192 -0.3135 -0.8943
vn 0.0464 0.9989 0.0051
vn 0.4893 -0.7134 -0.5017
vn 0.7212 0.5638 0.4024
vn 0.6369 -0.3049 -0.7081
vn 0.3745 -0.8559 -0.3566
vn 0.7351 -0.6446 0.2099
vn 0.9585 0.2336 0.1637
vn 0.9538 -0.2162 0.2088
vn 0.7488 0.6581 0.0792
vn 0.2390 -0.5826 0.7768
vn 0.3192 0.3135 0.8943
vn 0.3145 -0.1363 0.9394
vn 0.2527 0.7201 0.6462
vn 0.6074 -0.4390 -0.6621
vn 0.1241 0.9656 -0.2284
vn -0.4903 0.4412 -0.7517
vn -0.1463 0.9858 0.0819
vn 0.9676 0.0822 0.2389
vn -0.3084 0.1368 -0.9414
vn -0.3032 -0.4741 -0.8266
vn -0.0811 0.9297 -0.3594
vn -0.9378 0.2175 -0.2708
vn -0.2425 -0.7528 -0.6120
vn 0.7167 0.5041 -0.4818
vn -0.7602 0.6354 0.1354
vn -0.7351 0.6446 -0.2099
vn 0.5609 0.1514 -0.8139
vn 0.7710 0.5376 0.3414
vn 0.6073 -0.4390 -0.6621
vn 0.1241 0.9657 -0.2283
vn -0.5458 0.4670 -0.6957
vn 0.9595 0.2337 0.1575
vn -0.3767 -0.0205 -0.9261
vn -0.9305 -0.3125 -0.1912
vn -0.2424 -0.7528 -0.6120
vn 0.7187 0.6040 -0.3445
vn -0.8223 0.5659 0.0601
s off
f 17/1/1 27/2/1 5/3/1
f 3/4/2 9/5/2 4/6/2
f 1/7/3 7/8/3 2/9/3
f 5/10/4 9/5/4 10/11/4
f 2/9/5 8/12/5 3/4/5
f 6/13/6 29/14/6 7/15/6
f 9/16/7 13/17/7 10/18/7
f 7/15/8 11/19/8 8/20/8
f 1/21/9 28/22/9 6/13/9
f 8/20/10 12/23/10 9/16/10
f 13/17/11 16/24/11 17/1/11
f 30/25/12 42/26/12 38/27/12
f 11/19/13 16/24/13 12/23/13
f 28/28/14 41/29/14 39/30/14
f 16/24/15 22/31/15 17/1/15
f 19/32/16 35/33/16 18/34/16
f 15/35/17 21/36/17 16/24/17
f 20/37/18 34/38/18 36/39/18
f 22/31/19 26/40/19 27/2/19
f 19/41/20 25/42/20 20/43/20
f 1/21/9 18/44/9 14/45/9
f 20/43/21 26/40/21 21/36/21
f 18/44/22 24/46/22 19/41/22
f 27/47/23 4/6/23 5/10/23
f 24/48/24 3/4/24 25/49/24
f 25/49/25 4/6/25 26/50/25
f 23/51/26 2/9/26 24/48/26
f 13/17/1 5/3/1 10/18/1
f 31/52/27 36/39/27 34/38/27
f 31/52/28 35/33/28 32/53/28
f 30/54/29 33/55/29 31/52/29
f 18/34/30 33/55/30 14/56/30
f 19/32/31 36/39/31 32/53/31
f 30/54/32 34/38/32 15/57/32
f 37/58/33 42/26/33 40/59/33
f 37/58/34 41/29/34 38/27/34
f 29/60/35 40/59/35 11/61/35
f 11/61/36 42/26/36 15/62/36
f 30/25/37 41/29/37 14/63/37
f 29/60/38 39/30/38 37/58/38
f 17/1/1 22/31/1 27/2/1
f 3/4/2 8/12/2 9/5/2
f 1/7/3 6/64/3 7/8/3
f 5/10/4 4/6/4 9/5/4
f 2/9/5 7/8/5 8/12/5
f 6/13/39 28/22/39 29/14/39
f 9/16/7 12/23/7 13/17/7
f 7/15/8 29/14/8 11/19/8
f 1/21/9 14/45/9 28/22/9
f 8/20/10 11/19/10 12/23/10
f 13/17/11 12/23/11 16/24/11
f 30/25/40 15/62/40 42/26/40
f 11/19/13 15/35/13 16/24/13
f 28/28/14 14/63/14 41/29/14
f 16/24/15 21/36/15 22/31/15
f 19/32/41 32/53/41 35/33/41
f 15/35/17 20/43/17 21/36/17
f 20/37/18 15/57/18 34/38/18
f 22/31/19 21/36/19 26/40/19
f 19/41/20 24/46/20 25/42/20
f 1/21/9 23/65/9 18/44/9
f 20/43/21 25/42/21 26/40/21
f 18/44/22 23/65/22 24/46/22
f 27/47/23 26/50/23 4/6/23
f 24/48/24 2/9/24 3/4/24
f 25/49/25 3/4/25 4/6/25
f 23/51/26 1/7/26 2/9/26
f 13/17/1 17/1/1 5/3/1
f 31/52/42 32/53/42 36/39/42
f 31/52/43 33/55/43 35/33/43
f 30/54/44 14/56/44 33/55/44
f 18/34/30 35/33/30 33/55/30
f 19/32/45 20/37/45 36/39/45
f 30/54/46 31/52/46 34/38/46
f 37/58/33 38/27/33 42/26/33
f 37/58/34 39/30/34 41/29/34
f 29/60/47 37/58/47 40/59/47
f 11/61/48 40/59/48 42/26/48
f 30/25/49 38/27/49 41/29/49
f 29/60/50 28/28/50 39/30/50
v 0.641809 2.877007 -7.608952
v 0.657040 2.852958 -7.612305
v 0.658560 2.824335 -7.612306
v 0.645962 2.798807 -7.608953
v 0.622622 2.783215 -7.603145
v 0.634239 2.880193 -7.582511
v 0.643929 2.858475 -7.566509
v 0.643421 2.830705 -7.559424
v 0.632851 2.804324 -7.563156
v 0.615052 2.786401 -7.576704
v 0.590732 2.842259 -7.546909
v 0.587221 2.814330 -7.552318
v 0.588708 2.792177 -7.570446
v 0.589120 2.888561 -7.596436
v 0.553182 2.847441 -7.587276
v 0.554702 2.818818 -7.587276
v 0.569933 2.794769 -7.590630
v 0.596690 2.885375 -7.622877
v 0.578891 2.867451 -7.636425
v 0.568322 2.841070 -7.640157
v 0.567814 2.813301 -7.633072
v 0.577503 2.791583 -7.617070
v 0.623034 2.879598 -7.629135
v 0.624521 2.857446 -7.647264
v 0.621011 2.829517 -7.652672
v 0.613444 2.803295 -7.643911
v 0.603848 2.785806 -7.623328
v 0.607895 2.885969 -7.576253
v 0.598299 2.868481 -7.555670
v 0.565780 2.872969 -7.590628
v 0.537455 2.896818 -7.624670
v 0.538524 2.896368 -7.628407
v 0.570496 2.897301 -7.610142
v 0.540412 2.864662 -7.610868
v 0.574243 2.895724 -7.623230
v 0.546224 2.862216 -7.631169
v 0.561250 2.896861 -7.542670
v 0.553553 2.897923 -7.550944
v 0.573087 2.898856 -7.557015
v 0.561913 2.874729 -7.549132
v 0.569560 2.899343 -7.560807
v 0.558375 2.875217 -7.552936
vt 0.274240 0.539347
vt 0.265397 0.539709
vt 0.266768 0.532487
vt 0.231414 0.551290
vt 0.214659 0.541092
vt 0.231357 0.542861
vt 0.231940 0.569242
vt 0.215985 0.562822
vt 0.231472 0.559719
vt 0.230890 0.533338
vt 0.220414 0.530957
vt 0.213134 0.552274
vt 0.289666 0.544440
vt 0.282983 0.540904
vt 0.290637 0.536818
vt 0.279682 0.529141
vt 0.275518 0.536619
vt 0.273707 0.532162
vt 0.280945 0.538772
vt 0.286431 0.530872
vt 0.290637 0.551375
vt 0.284312 0.543753
vt 0.278488 0.537315
vt 0.276318 0.541045
vt 0.804698 0.251197
vt 0.792375 0.255919
vt 0.792638 0.252041
vt 0.786357 0.239035
vt 0.792578 0.249274
vt 0.791489 0.249454
vt 0.271776 0.541127
vt 0.760733 0.199751
vt 0.757502 0.209505
vt 0.750621 0.206121
vt 0.278108 0.542645
vt 0.273009 0.544115
vt 0.772804 0.201934
vt 0.766718 0.213101
vt 0.766203 0.208706
vt 0.264007 0.548518
vt 0.277612 0.547903
vt 0.268747 0.555467
vt 0.275021 0.546378
vt 0.280714 0.548498
vt 0.281954 0.545638
vt 0.276612 0.557409
vt 0.240880 0.530957
vt 0.248168 0.561486
vt 0.249693 0.550306
vt 0.246843 0.539760
vt 0.242415 0.571620
vt 0.762287 0.211045
vt 0.762255 0.210544
vt 0.761023 0.221925
vt 0.757316 0.212491
vt 0.750922 0.216572
vt 0.772804 0.220841
vt 0.791613 0.252007
vt 0.791097 0.255536
vt 0.780068 0.250772
vt 0.780487 0.263708
vt 0.804698 0.264828
vt 0.798786 0.238814
vt 0.221949 0.571626
vt 0.283377 0.553479
vn -0.2001 -0.9779 0.0605
vn 0.8713 -0.3910 0.2966
vn 0.8422 0.5083 0.1799
vn 0.5803 -0.7721 0.2591
vn 0.9617 0.0511 0.2692
vn 0.3076 0.6496 0.6953
vn 0.0457 -0.6308 0.7746
vn 0.2728 0.2331 0.9334
vn 0.2001 0.9779 -0.0605
vn 0.1824 -0.2090 0.9608
vn -0.6656 -0.4989 0.5551
vn -0.9656 -0.1894 -0.1784
vn -0.7341 -0.0390 0.6779
vn 0.2771 0.9512 -0.1357
vn -0.8422 -0.5083 -0.1799
vn 0.2174 0.4419 -0.8703
vn -0.9617 -0.0511 -0.2692
vn -0.7115 -0.6923 -0.1203
vn -0.3076 -0.6495 -0.6953
vn -0.1824 0.2090 -0.9608
vn -0.2728 -0.2331 -0.9334
vn -0.0457 0.6308 -0.7746
vn 0.4036 -0.7815 -0.4758
vn 0.7341 0.0390 -0.6779
vn 0.6437 -0.4031 -0.6505
vn 0.6656 0.4989 -0.5551
vn -0.2000 -0.9779 0.0605
vn -0.9491 -0.1939 -0.2484
vn 0.0339 0.9934 -0.1100
vn -0.3204 0.6297 0.7077
vn 0.4185 0.9081 0.0104
vn -0.1654 0.0424 -0.9853
vn -0.6476 0.4044 0.6458
vn -0.7290 -0.2119 0.6509
vn -0.0060 0.9911 0.1329
vn 0.2131 0.2537 0.9435
vn -0.6497 -0.5400 0.5350
vn -0.5625 0.6534 -0.5066
vn 0.6136 0.5350 0.5807
vn 0.8713 -0.3910 0.2965
vn -0.8889 0.4125 -0.1992
vn 0.2772 0.9512 -0.1357
vn 0.1367 0.4373 -0.8889
vn -0.7115 -0.6924 -0.1203
vn -0.3076 -0.6496 -0.6953
vn 0.2000 0.9779 -0.0605
vn -0.0456 0.6308 -0.7746
vn -0.2001 -0.9779 0.0606
vn -0.2418 0.6352 0.7336
vn 0.4185 0.9082 0.0104
vn -0.1882 0.2111 -0.9592
vn -0.6525 0.2474 0.7163
vn -0.0061 0.9911 0.1328
vn 0.1241 -0.2747 0.9535
vn -0.6497 -0.5401 0.5350
vn -0.4155 0.7069 -0.5725
vn 0.5536 0.4893 0.6739
s off
f 59/66/51 69/67/51 47/68/51
f 45/69/52 51/70/52 46/71/52
f 43/72/53 49/73/53 44/74/53
f 47/75/54 51/70/54 52/76/54
f 44/74/55 50/77/55 45/69/55
f 48/78/56 71/79/56 49/80/56
f 51/81/57 55/82/57 52/83/57
f 49/80/58 53/84/58 50/85/58
f 43/86/59 70/87/59 48/78/59
f 50/85/60 54/88/60 51/81/60
f 55/82/61 58/89/61 59/66/61
f 72/90/62 84/91/62 80/92/62
f 53/84/63 58/89/63 54/88/63
f 70/93/64 83/94/64 81/95/64
f 58/89/65 64/96/65 59/66/65
f 61/97/66 77/98/66 60/99/66
f 57/100/67 63/101/67 58/89/67
f 62/102/68 76/103/68 78/104/68
f 64/96/69 68/105/69 69/67/69
f 61/106/70 67/107/70 62/108/70
f 43/86/59 60/109/59 56/110/59
f 62/108/71 68/105/71 63/101/71
f 60/109/72 66/111/72 61/106/72
f 69/112/73 46/71/73 47/75/73
f 66/113/74 45/69/74 67/114/74
f 67/114/75 46/71/75 68/115/75
f 65/116/76 44/74/76 66/113/76
f 55/82/77 47/68/77 52/83/77
f 73/117/78 78/104/78 76/103/78
f 73/117/79 77/98/79 74/118/79
f 72/119/80 75/120/80 73/117/80
f 60/99/81 75/120/81 56/121/81
f 61/97/82 78/104/82 74/118/82
f 72/119/83 76/103/83 57/122/83
f 79/123/84 84/91/84 82/124/84
f 79/123/85 83/94/85 80/92/85
f 71/125/86 82/124/86 53/126/86
f 53/126/87 84/91/87 57/127/87
f 72/90/88 83/94/88 56/128/88
f 71/125/89 81/95/89 79/123/89
f 59/66/51 64/96/51 69/67/51
f 45/69/90 50/77/90 51/70/90
f 43/72/53 48/129/53 49/73/53
f 47/75/54 46/71/54 51/70/54
f 44/74/55 49/73/55 50/77/55
f 48/78/56 70/87/56 71/79/56
f 51/81/57 54/88/57 55/82/57
f 49/80/58 71/79/58 53/84/58
f 43/86/59 56/110/59 70/87/59
f 50/85/60 53/84/60 54/88/60
f 55/82/61 54/88/61 58/89/61
f 72/90/91 57/127/91 84/91/91
f 53/84/63 57/100/63 58/89/63
f 70/93/92 56/128/92 83/94/92
f 58/89/65 63/101/65 64/96/65
f 61/97/93 74/118/93 77/98/93
f 57/100/67 62/108/67 63/101/67
f 62/102/94 57/122/94 76/103/94
f 64/96/95 63/101/95 68/105/95
f 61/106/70 66/111/70 67/107/70
f 43/86/96 65/130/96 60/109/96
f 62/108/71 67/107/71 68/105/71
f 60/109/97 65/130/97 66/111/97
f 69/112/73 68/115/73 46/71/73
f 66/113/74 44/74/74 45/69/74
f 67/114/75 45/69/75 46/71/75
f 65/116/76 43/72/76 44/74/76
f 55/82/98 59/66/98 47/68/98
f 73/117/78 74/118/78 78/104/78
f 73/117/79 75/120/79 77/98/79
f 72/119/99 56/121/99 75/120/99
f 60/99/100 77/98/100 75/120/100
f 61/97/101 62/102/101 78/104/101
f 72/119/102 73/117/102 76/103/102
f 79/123/84 80/92/84 84/91/84
f 79/123/103 81/95/103 83/94/103
f 71/125/104 79/123/104 82/124/104
f 53/126/105 82/124/105 84/91/105
f 72/90/106 80/92/106 83/94/106
f 71/125/107 70/93/107 81/95/107
v 1.207541 3.829570 -2.800379
v 1.200118 3.819616 -2.774544
v 1.193163 3.797683 -2.757452
v 1.188539 3.769647 -2.753681
v 1.187486 3.743021 -2.764243
v 1.186574 3.826958 -2.818270
v 1.163802 3.815093 -2.805534
v 1.151228 3.792459 -2.793236
v 1.152223 3.765124 -2.784671
v 1.166519 3.740409 -2.782135
v 1.159931 3.769685 -2.842953
v 1.159759 3.745400 -2.827728
v 1.170870 3.729022 -2.806993
v 1.216244 3.806796 -2.850096
v 1.210567 3.752134 -2.856887
v 1.203612 3.730200 -2.839795
v 1.196188 3.720247 -2.813960
v 1.237211 3.809407 -2.832204
v 1.251507 3.784693 -2.829668
v 1.252501 3.757357 -2.821103
v 1.239928 3.734724 -2.808805
v 1.217156 3.722858 -2.796068
v 1.232860 3.820795 -2.807345
v 1.243971 3.804416 -2.786611
v 1.243799 3.780132 -2.771386
v 1.232392 3.754447 -2.765748
v 1.212805 3.734246 -2.771209
v 1.190925 3.815571 -2.843129
v 1.171338 3.795369 -2.848591
v 1.215191 3.780169 -2.860658
v 1.261169 3.782928 -2.880865
v 1.264132 3.783298 -2.878336
v 1.236967 3.802873 -2.862990
v 1.240302 3.758728 -2.866299
v 1.247345 3.804165 -2.854134
v 1.256401 3.760733 -2.852562
v 1.178176 3.795430 -2.896552
v 1.188556 3.791832 -2.899408
v 1.187814 3.804471 -2.883315
v 1.178885 3.778308 -2.881112
v 1.192571 3.802823 -2.884624
v 1.183656 3.776654 -2.882425
vt 0.274240 0.539347
vt 0.265397 0.539709
vt 0.266768 0.532487
vt 0.231414 0.551290
vt 0.214659 0.541092
vt 0.231357 0.542861
vt 0.231940 0.569242
vt 0.215985 0.562822
vt 0.231472 0.559719
vt 0.230890 0.533338
vt 0.220414 0.530957
vt 0.213134 0.552274
vt 0.289666 0.544440
vt 0.282983 0.540904
vt 0.290637 0.536818
vt 0.279682 0.529141
vt 0.275518 0.536619
vt 0.273707 0.532162
vt 0.280945 0.538772
vt 0.286431 0.530872
vt 0.290637 0.551375
vt 0.284312 0.543753
vt 0.278488 0.537315
vt 0.276318 0.541045
vt 0.804698 0.251197
vt 0.792375 0.255919
vt 0.792638 0.252041
vt 0.786357 0.239035
vt 0.792578 0.249274
vt 0.791489 0.249454
vt 0.271776 0.541127
vt 0.760733 0.199751
vt 0.757502 0.209505
vt 0.750621 0.206121
vt 0.278108 0.542645
vt 0.273009 0.544115
vt 0.772804 0.201934
vt 0.766718 0.213101
vt 0.766203 0.208706
vt 0.264007 0.548518
vt 0.277612 0.547903
vt 0.268747 0.555467
vt 0.275021 0.546378
vt 0.280714 0.548498
vt 0.281954 0.545638
vt 0.276612 0.557409
vt 0.240880 0.530957
vt 0.248168 0.561486
vt 0.249693 0.550306
vt 0.246843 0.539760
vt 0.242415 0.571620
vt 0.762287 0.211045
vt 0.762255 0.210544
vt 0.761023 0.221925
vt 0.757316 0.212491
vt 0.750922 0.216572
vt 0.772804 0.220841
vt 0.791613 0.252007
vt 0.791097 0.255536
vt 0.780068 0.250772
vt 0.780487 0.263708
vt 0.804698 0.264828
vt 0.798786 0.238814
vt 0.221949 0.571626
vt 0.283377 0.553479
vn -0.2091 -0.9024 0.3768
vn -0.6500 0.2056 0.7316
vn -0.3308 0.9086 0.2550
vn -0.6046 -0.2729 0.7483
vn -0.5554 0.6136 0.5613
vn -0.5927 0.6879 -0.4189
vn -0.8665 -0.4936 0.0744
vn -0.8929 0.3292 -0.3071
vn 0.2091 0.9024 -0.3768
vn -0.9875 -0.0788 -0.1368
vn -0.3988 -0.8114 -0.4272
vn 0.4424 -0.7283 -0.5233
vn -0.3848 -0.4883 -0.7832
vn 0.2462 0.9292 -0.2757
vn 0.3308 -0.9086 -0.2550
vn 0.8239 0.5033 0.2605
vn 0.5554 -0.6136 -0.5613
vn 0.1912 -0.9782 -0.0813
vn 0.5927 -0.6879 0.4189
vn 0.9875 0.0788 0.1368
vn 0.8929 -0.3292 0.3071
vn 0.8665 0.4936 -0.0744
vn 0.1251 -0.3701 0.9205
vn 0.3848 0.4883 0.7832
vn 0.2903 0.0804 0.9536
vn 0.3988 0.8114 0.4272
vn 0.4999 -0.7204 -0.4807
vn 0.3132 0.8158 -0.4861
vn -0.3993 0.2938 -0.8685
vn 0.0556 0.9766 -0.2077
vn 0.9667 -0.0434 0.2520
vn -0.2843 -0.0816 -0.9553
vn -0.4008 -0.6227 -0.6721
vn 0.1037 0.7845 -0.6114
vn -0.8777 0.3095 -0.3660
vn -0.3950 -0.8342 -0.3847
vn 0.7984 0.1944 -0.5698
vn -0.6156 0.7833 -0.0868
vn -0.6499 0.2056 0.7317
vn 0.5716 -0.2012 -0.7955
vn 0.8668 0.4515 0.2119
vn 0.1250 -0.3701 0.9205
vn 0.3988 0.8114 0.4273
vn 0.5000 -0.7204 -0.4807
vn -0.4480 0.3449 -0.8249
vn 0.9884 0.0769 0.1308
vn -0.3826 -0.2114 -0.8994
vn -0.4008 -0.6226 -0.6721
vn 0.1037 0.7846 -0.6113
vn -0.9762 -0.1661 -0.1394
vn -0.3950 -0.8342 -0.3848
vn 0.8218 0.3271 -0.4664
vn -0.6912 0.7086 -0.1422
s off
f 101/131/108 111/132/108 89/133/108
f 87/134/109 93/135/109 88/136/109
f 85/137/110 91/138/110 86/139/110
f 89/140/111 93/135/111 94/141/111
f 86/139/112 92/142/112 87/134/112
f 90/143/113 113/144/113 91/145/113
f 93/146/114 97/147/114 94/148/114
f 91/145/115 95/149/115 92/150/115
f 85/151/116 112/152/116 90/143/116
f 92/150/117 96/153/117 93/146/117
f 97/147/118 100/154/118 101/131/118
f 114/155/119 126/156/119 122/157/119
f 95/149/120 100/154/120 96/153/120
f 112/158/121 125/159/121 123/160/121
f 100/154/122 106/161/122 101/131/122
f 103/162/123 119/163/123 102/164/123
f 99/165/124 105/166/124 100/154/124
f 104/167/125 118/168/125 120/169/125
f 106/161/126 110/170/126 111/132/126
f 103/171/127 109/172/127 104/173/127
f 85/151/116 102/174/116 98/175/116
f 104/173/128 110/170/128 105/166/128
f 102/174/129 108/176/129 103/171/129
f 111/177/130 88/136/130 89/140/130
f 108/178/131 87/134/131 109/179/131
f 109/179/132 88/136/132 110/180/132
f 107/181/133 86/139/133 108/178/133
f 97/147/108 89/133/108 94/148/108
f 115/182/134 120/169/134 118/168/134
f 115/182/135 119/163/135 116/183/135
f 114/184/136 117/185/136 115/182/136
f 102/164/137 117/185/137 98/186/137
f 103/162/138 120/169/138 116/183/138
f 114/184/139 118/168/139 99/187/139
f 121/188/140 126/156/140 124/189/140
f 121/188/141 125/159/141 122/157/141
f 113/190/142 124/189/142 95/191/142
f 95/191/143 126/156/143 99/192/143
f 114/155/144 125/159/144 98/193/144
f 113/190/145 123/160/145 121/188/145
f 101/131/108 106/161/108 111/132/108
f 87/134/146 92/142/146 93/135/146
f 85/137/110 90/194/110 91/138/110
f 89/140/111 88/136/111 93/135/111
f 86/139/112 91/138/112 92/142/112
f 90/143/113 112/152/113 113/144/113
f 93/146/114 96/153/114 97/147/114
f 91/145/115 113/144/115 95/149/115
f 85/151/116 98/175/116 112/152/116
f 92/150/117 95/149/117 96/153/117
f 97/147/118 96/153/118 100/154/118
f 114/155/147 99/192/147 126/156/147
f 95/149/120 99/165/120 100/154/120
f 112/158/121 98/193/121 125/159/121
f 100/154/122 105/166/122 106/161/122
f 103/162/148 116/183/148 119/163/148
f 99/165/124 104/173/124 105/166/124
f 104/167/125 99/187/125 118/168/125
f 106/161/126 105/166/126 110/170/126
f 103/171/127 108/176/127 109/172/127
f 85/151/116 107/195/116 102/174/116
f 104/173/128 109/172/128 110/170/128
f 102/174/129 107/195/129 108/176/129
f 111/177/149 110/180/149 88/136/149
f 108/178/131 86/139/131 87/134/131
f 109/179/132 87/134/132 88/136/132
f 107/181/150 85/137/150 86/139/150
f 97/147/108 101/131/108 89/133/108
f 115/182/151 116/183/151 120/169/151
f 115/182/135 117/185/135 119/163/135
f 114/184/152 98/186/152 117/185/152
f 102/164/137 119/163/137 117/185/137
f 103/162/153 104/167/153 120/169/153
f 114/184/154 115/182/154 118/168/154
f 121/188/155 122/157/155 126/156/155
f 121/188/156 123/160/156 125/159/156
f 113/190/157 121/188/157 124/189/157
f 95/191/158 124/189/158 126/156/158
f 114/155/159 122/157/159 125/159/159
f 113/190/160 112/158/160 123/160/160
