# Blender v2.81 (sub 16) OBJ File: 'garbage.blend'
# www.blender.org
v -0.467440 2.193048 -2.132351
v -0.455529 2.175072 -2.113467
v -0.452619 2.148629 -2.102795
v -0.459490 2.120804 -2.103194
v -0.474300 2.099052 -2.114557
v -0.494514 2.195970 -2.127350
v -0.502423 2.180134 -2.104805
v -0.506767 2.154474 -2.092793
v -0.506384 2.125866 -2.094532
v -0.501374 2.101975 -2.109556
v -0.543270 2.149317 -2.134111
v -0.537996 2.121399 -2.130315
v -0.519626 2.099396 -2.130215
v -0.503943 2.187890 -2.173670
v -0.525624 2.138313 -2.185432
v -0.522714 2.111870 -2.174760
v -0.510803 2.093894 -2.155876
v -0.476868 2.184967 -2.178671
v -0.471859 2.161076 -2.193695
v -0.471476 2.132468 -2.195434
v -0.475820 2.106808 -2.183422
v -0.483729 2.090972 -2.160877
v -0.458617 2.187546 -2.158012
v -0.440247 2.165543 -2.157912
v -0.434973 2.137625 -2.154116
v -0.444208 2.111275 -2.147639
v -0.465477 2.093551 -2.140217
v -0.512766 2.193391 -2.148010
v -0.534035 2.175667 -2.140588
v -0.518753 2.166138 -2.185033
v -0.503810 2.176279 -2.231978
v -0.499984 2.175866 -2.232685
v -0.501230 2.188810 -2.198223
v -0.512119 2.148227 -2.212553
v -0.487828 2.187363 -2.200699
v -0.491332 2.145983 -2.216393
v -0.564959 2.191484 -2.174360
v -0.561342 2.189229 -2.184880
v -0.546950 2.195920 -2.171943
v -0.557255 2.170286 -2.169529
v -0.545292 2.194887 -2.176764
v -0.555592 2.169250 -2.174365
vt 0.274240 0.539347
vt 0.265397 0.539709
vt 0.266768 0.532487
vt 0.231414 0.551290
vt 0.214659 0.541092
vt 0.231357 0.542861
vt 0.231940 0.569242
vt 0.215985 0.562822
vt 0.231472 0.559719
vt 0.230890 0.533338
vt 0.220414 0.530957
vt 0.213134 0.552274
vt 0.289666 0.544440
vt 0.282983 0.540904
vt 0.290637 0.536818
vt 0.279682 0.529141
vt 0.275518 0.536619
vt 0.273707 0.532162
vt 0.280945 0.538772
vt 0.286431 0.530872
vt 0.290637 0.551375
vt 0.284312 0.543753
vt 0.278488 0.537315
vt 0.276318 0.541045
vt 0.804698 0.251197
vt 0.792375 0.255919
vt 0.792638 0.252041
vt 0.786357 0.239035
vt 0.792578 0.249274
vt 0.791489 0.249454
vt 0.271776 0.541127
vt 0.760733 0.199751
vt 0.757502 0.209505
vt 0.750621 0.206121
vt 0.278108 0.542645
vt 0.273009 0.544115
vt 0.772804 0.201934
vt 0.766718 0.213101
vt 0.766203 0.208706
vt 0.264007 0.548518
vt 0.277612 0.547903
vt 0.268747 0.555467
vt 0.275021 0.546378
vt 0.280714 0.548498
vt 0.281954 0.545638
vt 0.276612 0.557409
vt 0.240880 0.530957
vt 0.248168 0.561486
vt 0.249693 0.550306
vt 0.246843 0.539760
vt 0.242415 0.571620
vt 0.762287 0.211045
vt 0.762255 0.210544
vt 0.761023 0.221925
vt 0.757316 0.212491
vt 0.750922 0.216572
vt 0.772804 0.220841
vt 0.791613 0.252007
vt 0.791097 0.255536
vt 0.780068 0.250772
vt 0.780487 0.263708
vt 0.804698 0.264828
vt 0.798786 0.238814
vt 0.221949 0.571626
vt 0.283377 0.553479
vn -0.0715 -0.9800 0.1855
vn 0.1753 -0.0574 0.9828
vn 0.1955 0.7690 0.6087
vn 0.1018 -0.5142 0.8516
vn 0.2077 0.3857 0.8990
vn -0.5190 0.7744 0.3619
vn -0.6127 -0.5088 0.6048
vn -0.7130 0.3927 0.5809
vn 0.0715 0.9800 -0.1855
vn -0.7454 -0.0504 0.6648
vn -0.7613 -0.6362 -0.1254
vn -0.2788 -0.5089 -0.8144
vn -0.9369 -0.2146 -0.2761
vn 0.1758 0.9732 -0.1483
vn -0.1955 -0.7690 -0.6087
vn 0.8343 0.4081 -0.3707
vn -0.2077 -0.3857 -0.8990
vn -0.1728 -0.8942 -0.4129
vn 0.5190 -0.7744 -0.3619
vn 0.7454 0.0504 -0.6648
vn 0.7130 -0.3927 -0.5809
vn 0.6127 0.5088 -0.6048
vn 0.6677 -0.6470 0.3683
vn 0.9369 0.2145 0.2761
vn 0.9045 -0.2285 0.3600
vn 0.7613 0.6362 0.1254
vn -0.0715 -0.9800 0.1856
vn -0.2092 -0.5141 -0.8319
vn 0.0363 0.9360 -0.3502
vn -0.8215 0.5522 -0.1422
vn 0.1163 0.9919 0.0500
vn 0.7877 -0.1030 -0.6073
vn -0.9023 0.2280 -0.3659
vn -0.8974 -0.3780 -0.2275
vn -0.1961 0.9428 -0.2695
vn -0.7514 0.3935 0.5297
vn -0.7331 -0.6715 -0.1081
vn 0.1336 0.3859 -0.9128
vn -0.2664 0.7559 0.5980
vn 0.1754 -0.0574 0.9828
vn 0.1954 0.7690 0.6087
vn -0.2710 0.0807 -0.9592
vn -0.9369 -0.2145 -0.2761
vn 0.1758 0.9732 -0.1482
vn 0.8134 0.3757 -0.4442
vn 0.7453 0.0504 -0.6648
vn -0.8080 0.5853 -0.0673
vn 0.1163 0.9920 0.0500
vn 0.7411 0.0506 -0.6695
vn -0.9546 0.0851 -0.2855
vn -0.1960 0.9428 -0.2695
vn -0.7611 -0.1319 0.6351
vn 0.2562 0.4782 -0.8401
vn -0.3730 0.7018 0.6069
s off
f 17/1/1 27/2/1 5/3/1
f 3/4/2 9/5/2 4/6/2
f 1/7/3 7/8/3 2/9/3
f 5/10/4 9/5/4 10/11/4
f 2/9/5 8/12/5 3/4/5
f 6/13/6 29/14/6 7/15/6
f 9/16/7 13/17/7 10/18/7
f 7/15/8 11/19/8 8/20/8
f 1/21/9 28/22/9 6/13/9
f 8/20/10 12/23/10 9/16/10
f 13/17/11 16/24/11 17/1/11
f 30/25/12 42/26/12 38/27/12
f 11/19/13 16/24/13 12/23/13
f 28/28/14 41/29/14 39/30/14
f 16/24/15 22/31/15 17/1/15
f 19/32/16 35/33/16 18/34/16
f 15/35/17 21/36/17 16/24/17
f 20/37/18 34/38/18 36/39/18
f 22/31/19 26/40/19 27/2/19
f 19/41/20 25/42/20 20/43/20
f 1/21/9 18/44/9 14/45/9
f 20/43/21 26/40/21 21/36/21
f 18/44/22 24/46/22 19/41/22
f 27/47/23 4/6/23 5/10/23
f 24/48/24 3/4/24 25/49/24
f 25/49/25 4/6/25 26/50/25
f 23/51/26 2/9/26 24/48/26
f 13/17/27 5/3/27 10/18/27
f 31/52/28 36/39/28 34/38/28
f 31/52/29 35/33/29 32/53/29
f 30/54/30 33/55/30 31/52/30
f 18/34/31 33/55/31 14/56/31
f 19/32/32 36/39/32 32/53/32
f 30/54/33 34/38/33 15/57/33
f 37/58/34 42/26/34 40/59/34
f 37/58/35 41/29/35 38/27/35
f 29/60/36 40/59/36 11/61/36
f 11/61/37 42/26/37 15/62/37
f 30/25/38 41/29/38 14/63/38
f 29/60/39 39/30/39 37/58/39
f 17/1/1 22/31/1 27/2/1
f 3/4/40 8/12/40 9/5/40
f 1/7/41 6/64/41 7/8/41
f 5/10/4 4/6/4 9/5/4
f 2/9/5 7/8/5 8/12/5
f 6/13/6 28/22/6 29/14/6
f 9/16/7 12/23/7 13/17/7
f 7/15/8 29/14/8 11/19/8
f 1/21/9 14/45/9 28/22/9
f 8/20/10 11/19/10 12/23/10
f 13/17/11 12/23/11 16/24/11
f 30/25/42 15/62/42 42/26/42
f 11/19/43 15/35/43 16/24/43
f 28/28/44 14/63/44 41/29/44
f 16/24/15 21/36/15 22/31/15
f 19/32/45 32/53/45 35/33/45
f 15/35/17 20/43/17 21/36/17
f 20/37/18 15/57/18 34/38/18
f 22/31/19 21/36/19 26/40/19
f 19/41/46 24/46/46 25/42/46
f 1/21/9 23/65/9 18/44/9
f 20/43/21 25/42/21 26/40/21
f 18/44/22 23/65/22 24/46/22
f 27/47/23 26/50/23 4/6/23
f 24/48/24 2/9/24 3/4/24
f 25/49/25 3/4/25 4/6/25
f 23/51/26 1/7/26 2/9/26
f 13/17/1 17/1/1 5/3/1
f 31/52/28 32/53/28 36/39/28
f 31/52/29 33/55/29 35/33/29
f 30/54/47 14/56/47 33/55/47
f 18/34/48 35/33/48 33/55/48
f 19/32/49 20/37/49 36/39/49
f 30/54/50 31/52/50 34/38/50
f 37/58/34 38/27/34 42/26/34
f 37/58/51 39/30/51 41/29/51
f 29/60/52 37/58/52 40/59/52
f 11/61/37 40/59/37 42/26/37
f 30/25/53 38/27/53 41/29/53
f 29/60/54 28/28/54 39/30/54
v -2.863123 2.790474 -6.443426
v -2.852494 2.777870 -6.466873
v -2.844704 2.754135 -6.480929
v -2.841841 2.725630 -6.481828
v -2.844671 2.699990 -6.469329
v -2.845577 2.787963 -6.422155
v -2.822104 2.773521 -6.430032
v -2.809613 2.749113 -6.438389
v -2.811451 2.721280 -6.444988
v -2.827125 2.697479 -6.448060
v -2.827998 2.731306 -6.389286
v -2.827373 2.705859 -6.402463
v -2.836318 2.688576 -6.423508
v -2.881508 2.772667 -6.394322
v -2.881475 2.718522 -6.382722
v -2.873685 2.694787 -6.396779
v -2.863056 2.682184 -6.420226
v -2.899054 2.775178 -6.415592
v -2.914728 2.751377 -6.418664
v -2.916566 2.723544 -6.425262
v -2.904075 2.699136 -6.433619
v -2.880602 2.684695 -6.441496
v -2.889861 2.784081 -6.440144
v -2.898806 2.766798 -6.461188
v -2.898181 2.741351 -6.474365
v -2.888153 2.714558 -6.476144
v -2.871409 2.693598 -6.466047
v -2.854770 2.779059 -6.397604
v -2.838026 2.758100 -6.387507
v -2.884338 2.747028 -6.381823
v -2.932580 2.754646 -6.369794
v -2.935059 2.755001 -6.372800
v -2.904279 2.771287 -6.384801
v -2.911695 2.727918 -6.378889
v -2.912965 2.772531 -6.395329
v -2.925166 2.729846 -6.395219
v -2.852432 2.762714 -6.341483
v -2.863394 2.760093 -6.340138
v -2.859054 2.771235 -6.356761
v -2.852053 2.744428 -6.355538
v -2.864078 2.770034 -6.356144
v -2.857092 2.743223 -6.354919
vt 0.274240 0.539347
vt 0.265397 0.539709
vt 0.266768 0.532487
vt 0.231414 0.551290
vt 0.214659 0.541092
vt 0.231357 0.542861
vt 0.231940 0.569242
vt 0.215985 0.562822
vt 0.231472 0.559719
vt 0.230890 0.533338
vt 0.220414 0.530957
vt 0.213134 0.552274
vt 0.289666 0.544440
vt 0.282983 0.540904
vt 0.290637 0.536818
vt 0.279682 0.529141
vt 0.275518 0.536619
vt 0.273707 0.532162
vt 0.280945 0.538772
vt 0.286431 0.530872
vt 0.290637 0.551375
vt 0.284312 0.543753
vt 0.278488 0.537315
vt 0.276318 0.541045
vt 0.804698 0.251197
vt 0.792375 0.255919
vt 0.792638 0.252041
vt 0.786357 0.239035
vt 0.792578 0.249274
vt 0.791489 0.249454
vt 0.271776 0.541127
vt 0.760733 0.199751
vt 0.757502 0.209505
vt 0.750621 0.206121
vt 0.278108 0.542645
vt 0.273009 0.544115
vt 0.772804 0.201934
vt 0.766718 0.213101
vt 0.766203 0.208706
vt 0.264007 0.548518
vt 0.277612 0.547903
vt 0.268747 0.555467
vt 0.275021 0.546378
vt 0.280714 0.548498
vt 0.281954 0.545638
vt 0.276612 0.557409
vt 0.240880 0.530957
vt 0.248168 0.561486
vt 0.249693 0.550306
vt 0.246843 0.539760
vt 0.242415 0.571620
vt 0.762287 0.211045
vt 0.762255 0.210544
vt 0.761023 0.221925
vt 0.757316 0.212491
vt 0.750922 0.216572
vt 0.772804 0.220841
vt 0.791613 0.252007
vt 0.791097 0.255536
vt 0.780068 0.250772
vt 0.780487 0.263708
vt 0.804698 0.264828
vt 0.798786 0.238814
vt 0.221949 0.571626
vt 0.283377 0.553479
vn 0.1924 -0.9434 -0.2701
vn 0.7734 0.0974 -0.6264
vn 0.4404 0.8587 -0.2619
vn 0.6923 -0.3765 -0.6156
vn 0.6864 0.5240 -0.5043
vn 0.5721 0.6788 0.4604
vn 0.8240 -0.5564 0.1068
vn 0.8560 0.2921 0.4265
vn -0.1924 0.9434 0.2701
vn 0.9430 -0.1344 0.3043
vn 0.2576 -0.7975 0.5455
vn -0.5785 -0.6490 0.4941
vn 0.2132 -0.4451 0.8697
vn -0.2105 0.9640 0.1626
vn -0.4404 -0.8587 0.2619
vn -0.7276 0.5347 -0.4297
vn -0.6864 -0.5240 0.5043
vn -0.2809 -0.9523 0.1193
vn -0.5721 -0.6788 -0.4604
vn -0.9430 0.1344 -0.3043
vn -0.8561 -0.2921 -0.4264
vn -0.8240 0.5564 -0.1067
vn -0.0057 -0.4377 -0.8991
vn -0.2132 0.4451 -0.8697
vn -0.1262 0.0186 -0.9918
vn -0.2576 0.7975 -0.5455
vn -0.6276 -0.6408 0.4421
vn -0.3195 0.8738 0.3666
vn 0.2777 0.3386 0.8990
vn -0.0083 0.9923 0.1240
vn -0.9141 0.0018 -0.4054
vn 0.1199 -0.0192 0.9926
vn 0.2358 -0.5891 0.7729
vn -0.1359 0.8390 0.5269
vn 0.8300 0.2786 0.4833
vn 0.2588 -0.8236 0.5047
vn -0.8609 0.2966 0.4135
vn 0.6556 0.7437 0.1306
vn 0.7734 0.0975 -0.6264
vn 0.8240 -0.5564 0.1067
vn 0.8561 0.2921 0.4264
vn -0.7061 -0.0931 0.7020
vn 0.2131 -0.4451 0.8697
vn -0.7818 0.4902 -0.3853
vn -0.2810 -0.9523 0.1193
vn -0.3194 0.8738 0.3667
vn 0.3366 0.3824 0.8605
vn -0.9451 0.1332 -0.2985
vn 0.2150 -0.1598 0.9634
vn 0.2357 -0.5892 0.7728
vn -0.1359 0.8390 0.5270
vn 0.9244 -0.2202 0.3114
vn -0.8565 0.4213 0.2983
vn 0.7149 0.6690 0.2032
s off
f 59/66/55 69/67/55 47/68/55
f 45/69/56 51/70/56 46/71/56
f 43/72/57 49/73/57 44/74/57
f 47/75/58 51/70/58 52/76/58
f 44/74/59 50/77/59 45/69/59
f 48/78/60 71/79/60 49/80/60
f 51/81/61 55/82/61 52/83/61
f 49/80/62 53/84/62 50/85/62
f 43/86/63 70/87/63 48/78/63
f 50/85/64 54/88/64 51/81/64
f 55/82/65 58/89/65 59/66/65
f 72/90/66 84/91/66 80/92/66
f 53/84/67 58/89/67 54/88/67
f 70/93/68 83/94/68 81/95/68
f 58/89/69 64/96/69 59/66/69
f 61/97/70 77/98/70 60/99/70
f 57/100/71 63/101/71 58/89/71
f 62/102/72 76/103/72 78/104/72
f 64/96/73 68/105/73 69/67/73
f 61/106/74 67/107/74 62/108/74
f 43/86/63 60/109/63 56/110/63
f 62/108/75 68/105/75 63/101/75
f 60/109/76 66/111/76 61/106/76
f 69/112/77 46/71/77 47/75/77
f 66/113/78 45/69/78 67/114/78
f 67/114/79 46/71/79 68/115/79
f 65/116/80 44/74/80 66/113/80
f 55/82/55 47/68/55 52/83/55
f 73/117/81 78/104/81 76/103/81
f 73/117/82 77/98/82 74/118/82
f 72/119/83 75/120/83 73/117/83
f 60/99/84 75/120/84 56/121/84
f 61/97/85 78/104/85 74/118/85
f 72/119/86 76/103/86 57/122/86
f 79/123/87 84/91/87 82/124/87
f 79/123/88 83/94/88 80/92/88
f 71/125/89 82/124/89 53/126/89
f 53/126/90 84/91/90 57/127/90
f 72/90/91 83/94/91 56/128/91
f 71/125/92 81/95/92 79/123/92
f 59/66/55 64/96/55 69/67/55
f 45/69/93 50/77/93 51/70/93
f 43/72/57 48/129/57 49/73/57
f 47/75/58 46/71/58 51/70/58
f 44/74/59 49/73/59 50/77/59
f 48/78/60 70/87/60 71/79/60
f 51/81/94 54/88/94 55/82/94
f 49/80/95 71/79/95 53/84/95
f 43/86/63 56/110/63 70/87/63
f 50/85/64 53/84/64 54/88/64
f 55/82/65 54/88/65 58/89/65
f 72/90/96 57/127/96 84/91/96
f 53/84/97 57/100/97 58/89/97
f 70/93/68 56/128/68 83/94/68
f 58/89/69 63/101/69 64/96/69
f 61/97/98 74/118/98 77/98/98
f 57/100/71 62/108/71 63/101/71
f 62/102/99 57/122/99 76/103/99
f 64/96/73 63/101/73 68/105/73
f 61/106/74 66/111/74 67/107/74
f 43/86/63 65/130/63 60/109/63
f 62/108/75 67/107/75 68/105/75
f 60/109/76 65/130/76 66/111/76
f 69/112/77 68/115/77 46/71/77
f 66/113/78 44/74/78 45/69/78
f 67/114/79 45/69/79 46/71/79
f 65/116/80 43/72/80 44/74/80
f 55/82/55 59/66/55 47/68/55
f 73/117/81 74/118/81 78/104/81
f 73/117/100 75/120/100 77/98/100
f 72/119/101 56/121/101 75/120/101
f 60/99/84 77/98/84 75/120/84
f 61/97/102 62/102/102 78/104/102
f 72/119/103 73/117/103 76/103/103
f 79/123/104 80/92/104 84/91/104
f 79/123/105 81/95/105 83/94/105
f 71/125/106 79/123/106 82/124/106
f 53/126/90 82/124/90 84/91/90
f 72/90/107 80/92/107 83/94/107
f 71/125/108 70/93/108 81/95/108
v 0.103199 3.970634 -3.756854
v 0.107618 3.942822 -3.751505
v 0.098254 3.917700 -3.741367
v 0.077617 3.901998 -3.729155
v 0.051235 3.899924 -3.718141
v 0.101295 3.984961 -3.733239
v 0.104321 3.967638 -3.710603
v 0.094448 3.946355 -3.694137
v 0.074320 3.926814 -3.688253
v 0.049332 3.914251 -3.694526
v 0.052372 3.981513 -3.686398
v 0.037882 3.957261 -3.681551
v 0.028294 3.931830 -3.690657
v 0.061123 4.005791 -3.749115
v 0.014104 3.988015 -3.725889
v 0.004741 3.962892 -3.715750
v 0.009160 3.935081 -3.710402
v 0.063027 3.991463 -3.772729
v 0.038038 3.978900 -3.779003
v 0.017911 3.959359 -3.773118
v 0.008037 3.938076 -3.756652
v 0.011063 3.920753 -3.734017
v 0.084064 3.973885 -3.776599
v 0.074477 3.948453 -3.785705
v 0.059986 3.924202 -3.780858
v 0.044476 3.907629 -3.763355
v 0.032101 3.903175 -3.737886
v 0.080258 4.002540 -3.729369
v 0.067883 3.998086 -3.703901
v 0.034742 4.003716 -3.738101
v 0.012846 4.024535 -3.778315
v 0.013115 4.022510 -3.781652
v 0.045376 4.016342 -3.764982
v 0.005470 4.000272 -3.754021
v 0.046318 4.009250 -3.776671
v 0.006931 3.989271 -3.772152
v 0.046517 4.041511 -3.701710
v 0.038673 4.042844 -3.709805
v 0.056024 4.033813 -3.715860
v 0.037872 4.020202 -3.699912
v 0.052429 4.034424 -3.719570
v 0.034266 4.020814 -3.703632
vt 0.274240 0.539347
vt 0.265397 0.539709
vt 0.266768 0.532487
vt 0.231414 0.551290
vt 0.214659 0.541092
vt 0.231357 0.542861
vt 0.231940 0.569242
vt 0.215985 0.562822
vt 0.231472 0.559719
vt 0.230890 0.533338
vt 0.220414 0.530957
vt 0.213134 0.552274
vt 0.289666 0.544440
vt 0.282983 0.540904
vt 0.290637 0.536818
vt 0.279682 0.529141
vt 0.275518 0.536619
vt 0.273707 0.532162
vt 0.280945 0.538772
vt 0.286431 0.530872
vt 0.290637 0.551375
vt 0.284312 0.543753
vt 0.278488 0.537315
vt 0.276318 0.541045
vt 0.804698 0.251197
vt 0.792375 0.255919
vt 0.792638 0.252041
vt 0.786357 0.239035
vt 0.792578 0.249274
vt 0.791489 0.249454
vt 0.271776 0.541127
vt 0.760733 0.199751
vt 0.757502 0.209505
vt 0.750621 0.206121
vt 0.278108 0.542645
vt 0.273009 0.544115
vt 0.772804 0.201934
vt 0.766718 0.213101
vt 0.766203 0.208706
vt 0.264007 0.548518
vt 0.277612 0.547903
vt 0.268747 0.555467
vt 0.275021 0.546378
vt 0.280714 0.548498
vt 0.281954 0.545638
vt 0.276612 0.557409
vt 0.240880 0.530957
vt 0.248168 0.561486
vt 0.249693 0.550306
vt 0.246843 0.539760
vt 0.242415 0.571620
vt 0.762287 0.211045
vt 0.762255 0.210544
vt 0.761023 0.221925
vt 0.757316 0.212491
vt 0.750922 0.216572
vt 0.772804 0.220841
vt 0.791613 0.252007
vt 0.791097 0.255536
vt 0.780068 0.250772
vt 0.780487 0.263708
vt 0.804698 0.264828
vt 0.798786 0.238814
vt 0.221949 0.571626
vt 0.283377 0.553479
vn -0.5418 -0.7373 0.4036
vn 0.6935 -0.5898 0.4137
vn 0.9879 0.1543 -0.0140
vn 0.2786 -0.8110 0.5145
vn 0.9385 -0.2565 0.2312
vn 0.6263 0.6572 0.4193
vn -0.0831 -0.3080 0.9477
vn 0.4725 0.3916 0.7895
vn 0.5418 0.7373 -0.4036
vn 0.2275 0.0583 0.9720
vn -0.7163 0.0203 0.6975
vn -0.9808 0.1689 -0.0973
vn -0.5885 0.4815 0.6495
vn 0.5914 0.6590 -0.4646
vn -0.9879 -0.1543 0.0140
vn 0.2390 0.0094 -0.9710
vn -0.9385 0.2565 -0.2312
vn -0.9288 -0.3453 0.1346
vn -0.6263 -0.6572 -0.4193
vn -0.2275 -0.0583 -0.9720
vn 0.5418 0.7372 -0.4036
vn -0.4725 -0.3916 -0.7896
vn 0.0830 0.3080 -0.9477
vn 0.0069 -0.9856 -0.1690
vn 0.5885 -0.4815 -0.6495
vn 0.3435 -0.8148 -0.4671
vn 0.7163 -0.0203 -0.6975
vn -0.9775 0.1358 -0.1612
vn 0.3883 0.8014 -0.4549
vn 0.0458 0.8971 0.4394
vn 0.7258 0.6125 -0.3131
vn -0.2781 -0.2158 -0.9360
vn -0.3474 0.8160 0.4621
vn -0.6526 0.3227 0.6856
vn 0.3861 0.8941 -0.2269
vn 0.4270 0.4366 0.7918
vn -0.7201 -0.0278 0.6933
vn -0.3428 0.6222 -0.7038
vn 0.8468 0.3989 0.3519
vn 0.6263 0.6572 0.4192
vn 0.4725 0.3917 0.7895
vn -0.6875 0.6467 -0.3303
vn 0.1608 0.0319 -0.9865
vn -0.4725 -0.3916 -0.7895
vn 0.0831 0.3080 -0.9477
vn -0.5418 -0.7372 0.4036
vn 0.1236 0.8785 0.4615
vn -0.2318 -0.0537 -0.9713
vn -0.4006 0.7063 0.5837
vn -0.6526 0.3226 0.6856
vn 0.1485 0.0232 0.9886
vn -0.7201 -0.0277 0.6933
vn -0.1976 0.5874 -0.7848
vn 0.7882 0.4140 0.4554
s off
f 101/131/109 111/132/109 89/133/109
f 87/134/110 93/135/110 88/136/110
f 85/137/111 91/138/111 86/139/111
f 89/140/112 93/135/112 94/141/112
f 86/139/113 92/142/113 87/134/113
f 90/143/114 113/144/114 91/145/114
f 93/146/115 97/147/115 94/148/115
f 91/145/116 95/149/116 92/150/116
f 85/151/117 112/152/117 90/143/117
f 92/150/118 96/153/118 93/146/118
f 97/147/119 100/154/119 101/131/119
f 114/155/120 126/156/120 122/157/120
f 95/149/121 100/154/121 96/153/121
f 112/158/122 125/159/122 123/160/122
f 100/154/123 106/161/123 101/131/123
f 103/162/124 119/163/124 102/164/124
f 99/165/125 105/166/125 100/154/125
f 104/167/126 118/168/126 120/169/126
f 106/161/127 110/170/127 111/132/127
f 103/171/128 109/172/128 104/173/128
f 85/151/129 102/174/129 98/175/129
f 104/173/130 110/170/130 105/166/130
f 102/174/131 108/176/131 103/171/131
f 111/177/132 88/136/132 89/140/132
f 108/178/133 87/134/133 109/179/133
f 109/179/134 88/136/134 110/180/134
f 107/181/135 86/139/135 108/178/135
f 97/147/109 89/133/109 94/148/109
f 115/182/136 120/169/136 118/168/136
f 115/182/137 119/163/137 116/183/137
f 114/184/138 117/185/138 115/182/138
f 102/164/139 117/185/139 98/186/139
f 103/162/140 120/169/140 116/183/140
f 114/184/141 118/168/141 99/187/141
f 121/188/142 126/156/142 124/189/142
f 121/188/143 125/159/143 122/157/143
f 113/190/144 124/189/144 95/191/144
f 95/191/145 126/156/145 99/192/145
f 114/155/146 125/159/146 98/193/146
f 113/190/147 123/160/147 121/188/147
f 101/131/109 106/161/109 111/132/109
f 87/134/110 92/142/110 93/135/110
f 85/137/111 90/194/111 91/138/111
f 89/140/112 88/136/112 93/135/112
f 86/139/113 91/138/113 92/142/113
f 90/143/148 112/152/148 113/144/148
f 93/146/115 96/153/115 97/147/115
f 91/145/149 113/144/149 95/149/149
f 85/151/117 98/175/117 112/152/117
f 92/150/118 95/149/118 96/153/118
f 97/147/119 96/153/119 100/154/119
f 114/155/150 99/192/150 126/156/150
f 95/149/121 99/165/121 100/154/121
f 112/158/122 98/193/122 125/159/122
f 100/154/123 105/166/123 106/161/123
f 103/162/151 116/183/151 119/163/151
f 99/165/125 104/173/125 105/166/125
f 104/167/126 99/187/126 118/168/126
f 106/161/127 105/166/127 110/170/127
f 103/171/128 108/176/128 109/172/128
f 85/151/117 107/195/117 102/174/117
f 104/173/152 109/172/152 110/170/152
f 102/174/153 107/195/153 108/176/153
f 111/177/132 110/180/132 88/136/132
f 108/178/133 86/139/133 87/134/133
f 109/179/134 87/134/134 88/136/134
f 107/181/135 85/137/135 86/139/135
f 97/147/154 101/131/154 89/133/154
f 115/182/136 116/183/136 120/169/136
f 115/182/137 117/185/137 119/163/137
f 114/184/155 98/186/155 117/185/155
f 102/164/139 119/163/139 117/185/139
f 103/162/156 104/167/156 120/169/156
f 114/184/157 115/182/157 118/168/157
f 121/188/158 122/157/158 126/156/158
f 121/188/143 123/160/143 125/159/143
f 113/190/159 121/188/159 124/189/159
f 95/191/160 124/189/160 126/156/160
f 114/155/161 122/157/161 125/159/161
f 113/190/162 112/158/162 123/160/162
