# Blender v2.81 (sub 16) OBJ File: 'garbage.blend'
# www.blender.org
v -0.609156 2.267827 -2.160830
v -0.596558 2.249180 -2.143077
v -0.593673 2.222459 -2.133113
v -0.601271 2.194825 -2.133608
v -0.617318 2.173683 -2.144428
v -0.635781 2.271311 -2.154083
v -0.642674 2.255214 -2.131390
v -0.646923 2.229427 -2.119618
v -0.647387 2.200860 -2.121921
v -0.643943 2.177167 -2.137681
v -0.686052 2.226019 -2.158651
v -0.681274 2.197909 -2.155724
v -0.663508 2.175463 -2.157197
v -0.648285 2.264420 -2.199863
v -0.671930 2.215644 -2.211179
v -0.669044 2.188923 -2.201215
v -0.656447 2.170275 -2.183461
v -0.621659 2.260936 -2.206611
v -0.618216 2.237243 -2.222371
v -0.618680 2.208676 -2.224674
v -0.622928 2.182889 -2.212902
v -0.629822 2.166791 -2.190209
v -0.602095 2.262639 -2.187094
v -0.584329 2.240194 -2.188568
v -0.579551 2.212083 -2.185641
v -0.589042 2.185840 -2.179098
v -0.610258 2.168495 -2.170692
v -0.655345 2.269608 -2.173599
v -0.676561 2.252263 -2.165194
v -0.664332 2.243277 -2.210684
v -0.652088 2.254012 -2.258274
v -0.648326 2.253520 -2.259228
v -0.647085 2.265778 -2.224517
v -0.659892 2.225779 -2.238902
v -0.633906 2.264053 -2.227857
v -0.639449 2.223104 -2.244083
v -0.709112 2.269527 -2.196648
v -0.706218 2.267400 -2.207416
v -0.690879 2.273468 -2.195284
v -0.701672 2.248051 -2.192715
v -0.689552 2.272493 -2.200218
v -0.700341 2.247074 -2.197664
vt 0.274240 0.539347
vt 0.265397 0.539709
vt 0.266768 0.532487
vt 0.231414 0.551290
vt 0.214659 0.541092
vt 0.231357 0.542861
vt 0.231940 0.569242
vt 0.215985 0.562822
vt 0.231472 0.559719
vt 0.230890 0.533338
vt 0.220414 0.530957
vt 0.213134 0.552274
vt 0.289666 0.544440
vt 0.282983 0.540904
vt 0.290637 0.536818
vt 0.279682 0.529141
vt 0.275518 0.536619
vt 0.273707 0.532162
vt 0.280945 0.538772
vt 0.286431 0.530872
vt 0.290637 0.551375
vt 0.284312 0.543753
vt 0.278488 0.537315
vt 0.276318 0.541045
vt 0.804698 0.251197
vt 0.792375 0.255919
vt 0.792638 0.252041
vt 0.786357 0.239035
vt 0.792578 0.249274
vt 0.791489 0.249454
vt 0.271776 0.541127
vt 0.760733 0.199751
vt 0.757502 0.209505
vt 0.750621 0.206121
vt 0.278108 0.542645
vt 0.273009 0.544115
vt 0.772804 0.201934
vt 0.766718 0.213101
vt 0.766203 0.208706
vt 0.264007 0.548518
vt 0.277612 0.547903
vt 0.268747 0.555467
vt 0.275021 0.546378
vt 0.280714 0.548498
vt 0.281954 0.545638
vt 0.276612 0.557409
vt 0.240880 0.530957
vt 0.248168 0.561486
vt 0.249693 0.550306
vt 0.246843 0.539760
vt 0.242415 0.571620
vt 0.762287 0.211045
vt 0.762255 0.210544
vt 0.761023 0.221925
vt 0.757316 0.212491
vt 0.750922 0.216572
vt 0.772804 0.220841
vt 0.791613 0.252007
vt 0.791097 0.255536
vt 0.780068 0.250772
vt 0.780487 0.263708
vt 0.804698 0.264828
vt 0.798786 0.238814
vt 0.221949 0.571626
vt 0.283377 0.553479
vn -0.0851 -0.9816 0.1710
vn 0.2348 -0.0819 0.9686
vn 0.2528 0.7512 0.6097
vn 0.1414 -0.5340 0.8336
vn 0.2732 0.3619 0.8913
vn -0.4753 0.7793 0.4084
vn -0.5867 -0.5059 0.6323
vn -0.6650 0.3980 0.6319
vn 0.0851 0.9816 -0.1710
vn -0.7035 -0.0457 0.7092
vn -0.7838 -0.6145 -0.0893
vn -0.3421 -0.4850 -0.8048
vn -0.9575 -0.1857 -0.2207
vn 0.1913 0.9714 -0.1404
vn -0.2528 -0.7512 -0.6097
vn 0.8198 0.3950 -0.4146
vn -0.2732 -0.3619 -0.8913
vn -0.2213 -0.8810 -0.4182
vn 0.4753 -0.7793 -0.4084
vn 0.7035 0.0457 -0.7092
vn 0.6650 -0.3980 -0.6319
vn 0.5867 0.5059 -0.6323
vn 0.6724 -0.6707 0.3132
vn 0.9575 0.1857 0.2207
vn 0.9190 -0.2580 0.2980
vn 0.7838 0.6145 0.0893
vn -0.2738 -0.4916 -0.8267
vn 0.0386 0.9418 -0.3340
vn -0.8142 0.5751 -0.0798
vn 0.1448 0.9876 0.0614
vn 0.7454 -0.1098 -0.6575
vn -0.9171 0.2576 -0.3041
vn -0.9193 -0.3511 -0.1778
vn -0.1880 0.9527 -0.2387
vn -0.7065 0.4009 0.5832
vn -0.7555 -0.6509 -0.0745
vn 0.0863 0.4012 -0.9119
vn -0.2090 0.7498 0.6278
vn -0.3281 0.1070 -0.9386
vn 0.1913 0.9714 -0.1405
vn 0.7935 0.3647 -0.4872
vn -0.7952 0.6063 -0.0053
vn 0.6990 0.0462 -0.7136
vn -0.9680 0.1144 -0.2232
vn -0.1881 0.9527 -0.2388
vn -0.7231 -0.1262 0.6791
vn 0.2156 0.4889 -0.8453
vn -0.3162 0.6981 0.6424
s off
f 17/1/1 27/2/1 5/3/1
f 3/4/2 9/5/2 4/6/2
f 1/7/3 7/8/3 2/9/3
f 5/10/4 9/5/4 10/11/4
f 2/9/5 8/12/5 3/4/5
f 6/13/6 29/14/6 7/15/6
f 9/16/7 13/17/7 10/18/7
f 7/15/8 11/19/8 8/20/8
f 1/21/9 28/22/9 6/13/9
f 8/20/10 12/23/10 9/16/10
f 13/17/11 16/24/11 17/1/11
f 30/25/12 42/26/12 38/27/12
f 11/19/13 16/24/13 12/23/13
f 28/28/14 41/29/14 39/30/14
f 16/24/15 22/31/15 17/1/15
f 19/32/16 35/33/16 18/34/16
f 15/35/17 21/36/17 16/24/17
f 20/37/18 34/38/18 36/39/18
f 22/31/19 26/40/19 27/2/19
f 19/41/20 25/42/20 20/43/20
f 1/21/9 18/44/9 14/45/9
f 20/43/21 26/40/21 21/36/21
f 18/44/22 24/46/22 19/41/22
f 27/47/23 4/6/23 5/10/23
f 24/48/24 3/4/24 25/49/24
f 25/49/25 4/6/25 26/50/25
f 23/51/26 2/9/26 24/48/26
f 13/17/1 5/3/1 10/18/1
f 31/52/27 36/39/27 34/38/27
f 31/52/28 35/33/28 32/53/28
f 30/54/29 33/55/29 31/52/29
f 18/34/30 33/55/30 14/56/30
f 19/32/31 36/39/31 32/53/31
f 30/54/32 34/38/32 15/57/32
f 37/58/33 42/26/33 40/59/33
f 37/58/34 41/29/34 38/27/34
f 29/60/35 40/59/35 11/61/35
f 11/61/36 42/26/36 15/62/36
f 30/25/37 41/29/37 14/63/37
f 29/60/38 39/30/38 37/58/38
f 17/1/1 22/31/1 27/2/1
f 3/4/2 8/12/2 9/5/2
f 1/7/3 6/64/3 7/8/3
f 5/10/4 4/6/4 9/5/4
f 2/9/5 7/8/5 8/12/5
f 6/13/6 28/22/6 29/14/6
f 9/16/7 12/23/7 13/17/7
f 7/15/8 29/14/8 11/19/8
f 1/21/9 14/45/9 28/22/9
f 8/20/10 11/19/10 12/23/10
f 13/17/11 12/23/11 16/24/11
f 30/25/39 15/62/39 42/26/39
f 11/19/13 15/35/13 16/24/13
f 28/28/40 14/63/40 41/29/40
f 16/24/15 21/36/15 22/31/15
f 19/32/41 32/53/41 35/33/41
f 15/35/17 20/43/17 21/36/17
f 20/37/18 15/57/18 34/38/18
f 22/31/19 21/36/19 26/40/19
f 19/41/20 24/46/20 25/42/20
f 1/21/9 23/65/9 18/44/9
f 20/43/21 25/42/21 26/40/21
f 18/44/22 23/65/22 24/46/22
f 27/47/23 26/50/23 4/6/23
f 24/48/24 2/9/24 3/4/24
f 25/49/25 3/4/25 4/6/25
f 23/51/26 1/7/26 2/9/26
f 13/17/1 17/1/1 5/3/1
f 31/52/27 32/53/27 36/39/27
f 31/52/28 33/55/28 35/33/28
f 30/54/42 14/56/42 33/55/42
f 18/34/30 35/33/30 33/55/30
f 19/32/43 20/37/43 36/39/43
f 30/54/44 31/52/44 34/38/44
f 37/58/33 38/27/33 42/26/33
f 37/58/45 39/30/45 41/29/45
f 29/60/46 37/58/46 40/59/46
f 11/61/36 40/59/36 42/26/36
f 30/25/47 38/27/47 41/29/47
f 29/60/48 28/28/48 39/30/48
v -3.027771 2.798821 -6.222728
v -3.018279 2.786734 -6.246923
v -3.010756 2.763354 -6.261700
v -3.007217 2.734944 -6.263098
v -3.008611 2.709117 -6.250743
v -3.008894 2.796567 -6.202600
v -2.985583 2.782830 -6.212061
v -2.973002 2.758845 -6.221444
v -2.974521 2.731040 -6.228235
v -2.989734 2.706863 -6.230615
v -2.987871 2.740077 -6.171515
v -2.987399 2.714785 -6.184996
v -2.997169 2.697479 -6.205651
v -3.042641 2.780052 -6.172799
v -3.040496 2.725816 -6.161842
v -3.032973 2.702435 -6.176619
v -3.023481 2.690348 -6.200814
v -3.061518 2.782306 -6.192927
v -3.076731 2.758130 -6.195307
v -3.078250 2.730324 -6.202098
v -3.065669 2.706339 -6.211481
v -3.042358 2.692602 -6.220942
v -3.054083 2.791691 -6.217891
v -3.063853 2.774384 -6.238546
v -3.063380 2.749093 -6.252027
v -3.052791 2.722593 -6.254721
v -3.034923 2.701987 -6.245906
v -3.016329 2.787183 -6.177636
v -2.998461 2.766576 -6.168821
v -3.044034 2.754225 -6.160444
v -3.091627 2.760444 -6.145403
v -3.094295 2.760763 -6.148248
v -3.064741 2.777976 -6.161921
v -3.070656 2.734370 -6.156062
v -3.074085 2.779092 -6.171884
v -3.085150 2.736100 -6.171516
v -3.010128 2.770355 -6.121953
v -3.020915 2.767431 -6.119970
v -3.017894 2.778847 -6.136699
v -3.010140 2.752224 -6.136213
v -3.022837 2.777507 -6.135790
v -3.015099 2.750880 -6.135302
vt 0.274240 0.539347
vt 0.265397 0.539709
vt 0.266768 0.532487
vt 0.231414 0.551290
vt 0.214659 0.541092
vt 0.231357 0.542861
vt 0.231940 0.569242
vt 0.215985 0.562822
vt 0.231472 0.559719
vt 0.230890 0.533338
vt 0.220414 0.530957
vt 0.213134 0.552274
vt 0.289666 0.544440
vt 0.282983 0.540904
vt 0.290637 0.536818
vt 0.279682 0.529141
vt 0.275518 0.536619
vt 0.273707 0.532162
vt 0.280945 0.538772
vt 0.286431 0.530872
vt 0.290637 0.551375
vt 0.284312 0.543753
vt 0.278488 0.537315
vt 0.276318 0.541045
vt 0.804698 0.251197
vt 0.792375 0.255919
vt 0.792638 0.252041
vt 0.786357 0.239035
vt 0.792578 0.249274
vt 0.791489 0.249454
vt 0.271776 0.541127
vt 0.760733 0.199751
vt 0.757502 0.209505
vt 0.750621 0.206121
vt 0.278108 0.542645
vt 0.273009 0.544115
vt 0.772804 0.201934
vt 0.766718 0.213101
vt 0.766203 0.208706
vt 0.264007 0.548518
vt 0.277612 0.547903
vt 0.268747 0.555467
vt 0.275021 0.546378
vt 0.280714 0.548498
vt 0.281954 0.545638
vt 0.276612 0.557409
vt 0.240880 0.530957
vt 0.248168 0.561486
vt 0.249693 0.550306
vt 0.246843 0.539760
vt 0.242415 0.571620
vt 0.762287 0.211045
vt 0.762255 0.210544
vt 0.761023 0.221925
vt 0.757316 0.212491
vt 0.750922 0.216572
vt 0.772804 0.220841
vt 0.791613 0.252007
vt 0.791097 0.255536
vt 0.780068 0.250772
vt 0.780487 0.263708
vt 0.804698 0.264828
vt 0.798786 0.238814
vt 0.221949 0.571626
vt 0.283377 0.553479
vn 0.1998 -0.9353 -0.2921
vn 0.7307 0.1240 -0.6714
vn 0.4012 0.8726 -0.2785
vn 0.6627 -0.3520 -0.6610
vn 0.6404 0.5469 -0.5393
vn 0.5815 0.6892 0.4323
vn 0.8431 -0.5354 0.0498
vn 0.8728 0.3105 0.3766
vn -0.1998 0.9353 0.2921
vn 0.9631 -0.1123 0.2446
vn 0.3111 -0.7958 0.5196
vn -0.5301 -0.6690 0.5211
vn 0.2776 -0.4478 0.8499
vn -0.2250 0.9564 0.1862
vn -0.4012 -0.8726 0.2785
vn -0.7662 0.5194 -0.3783
vn -0.6403 -0.5469 0.5393
vn -0.2484 -0.9605 0.1254
vn -0.5816 -0.6891 -0.4322
vn -0.9631 0.1124 -0.2446
vn -0.8728 -0.3105 -0.3766
vn -0.8431 0.5354 -0.0498
vn -0.0495 -0.4288 -0.9020
vn -0.2776 0.4478 -0.8499
vn -0.1873 0.0250 -0.9820
vn -0.3111 0.7958 -0.5196
vn -0.5825 -0.6616 0.4722
vn -0.3188 0.8614 0.3954
vn 0.3235 0.3370 0.8842
vn -0.0263 0.9904 0.1356
vn -0.9371 -0.0185 -0.3487
vn 0.1811 -0.0258 0.9831
vn 0.2978 -0.5903 0.7503
vn -0.1249 0.8299 0.5437
vn 0.8506 0.2957 0.4348
vn 0.3105 -0.8213 0.4785
vn -0.8412 0.2696 0.4687
vn 0.6429 0.7595 0.0988
vn 0.6403 0.5469 -0.5393
vn 0.5816 0.6892 0.4323
vn 0.8728 0.3104 0.3766
vn 0.9631 -0.1124 0.2446
vn -0.6590 -0.1186 0.7427
vn -0.8164 0.4731 -0.3312
vn -0.5815 -0.6892 -0.4323
vn -0.9631 0.1123 -0.2446
vn -0.1997 0.9353 0.2921
vn -0.0496 -0.4288 -0.9020
vn -0.3112 0.7958 -0.5196
vn 0.3788 0.3827 0.8426
vn -0.9647 0.1110 -0.2386
vn 0.2778 -0.1635 0.9466
vn 0.2979 -0.5903 0.7502
vn -0.1250 0.8299 0.5437
vn 0.9472 -0.1987 0.2518
vn -0.8471 0.3955 0.3549
vn 0.7085 0.6857 0.1667
s off
f 59/66/49 69/67/49 47/68/49
f 45/69/50 51/70/50 46/71/50
f 43/72/51 49/73/51 44/74/51
f 47/75/52 51/70/52 52/76/52
f 44/74/53 50/77/53 45/69/53
f 48/78/54 71/79/54 49/80/54
f 51/81/55 55/82/55 52/83/55
f 49/80/56 53/84/56 50/85/56
f 43/86/57 70/87/57 48/78/57
f 50/85/58 54/88/58 51/81/58
f 55/82/59 58/89/59 59/66/59
f 72/90/60 84/91/60 80/92/60
f 53/84/61 58/89/61 54/88/61
f 70/93/62 83/94/62 81/95/62
f 58/89/63 64/96/63 59/66/63
f 61/97/64 77/98/64 60/99/64
f 57/100/65 63/101/65 58/89/65
f 62/102/66 76/103/66 78/104/66
f 64/96/67 68/105/67 69/67/67
f 61/106/68 67/107/68 62/108/68
f 43/86/57 60/109/57 56/110/57
f 62/108/69 68/105/69 63/101/69
f 60/109/70 66/111/70 61/106/70
f 69/112/71 46/71/71 47/75/71
f 66/113/72 45/69/72 67/114/72
f 67/114/73 46/71/73 68/115/73
f 65/116/74 44/74/74 66/113/74
f 55/82/49 47/68/49 52/83/49
f 73/117/75 78/104/75 76/103/75
f 73/117/76 77/98/76 74/118/76
f 72/119/77 75/120/77 73/117/77
f 60/99/78 75/120/78 56/121/78
f 61/97/79 78/104/79 74/118/79
f 72/119/80 76/103/80 57/122/80
f 79/123/81 84/91/81 82/124/81
f 79/123/82 83/94/82 80/92/82
f 71/125/83 82/124/83 53/126/83
f 53/126/84 84/91/84 57/127/84
f 72/90/85 83/94/85 56/128/85
f 71/125/86 81/95/86 79/123/86
f 59/66/49 64/96/49 69/67/49
f 45/69/50 50/77/50 51/70/50
f 43/72/51 48/129/51 49/73/51
f 47/75/52 46/71/52 51/70/52
f 44/74/87 49/73/87 50/77/87
f 48/78/88 70/87/88 71/79/88
f 51/81/55 54/88/55 55/82/55
f 49/80/89 71/79/89 53/84/89
f 43/86/57 56/110/57 70/87/57
f 50/85/90 53/84/90 54/88/90
f 55/82/59 54/88/59 58/89/59
f 72/90/91 57/127/91 84/91/91
f 53/84/61 57/100/61 58/89/61
f 70/93/62 56/128/62 83/94/62
f 58/89/63 63/101/63 64/96/63
f 61/97/92 74/118/92 77/98/92
f 57/100/65 62/108/65 63/101/65
f 62/102/66 57/122/66 76/103/66
f 64/96/93 63/101/93 68/105/93
f 61/106/94 66/111/94 67/107/94
f 43/86/95 65/130/95 60/109/95
f 62/108/69 67/107/69 68/105/69
f 60/109/70 65/130/70 66/111/70
f 69/112/96 68/115/96 46/71/96
f 66/113/72 44/74/72 45/69/72
f 67/114/73 45/69/73 46/71/73
f 65/116/97 43/72/97 44/74/97
f 55/82/49 59/66/49 47/68/49
f 73/117/75 74/118/75 78/104/75
f 73/117/76 75/120/76 77/98/76
f 72/119/98 56/121/98 75/120/98
f 60/99/78 77/98/78 75/120/78
f 61/97/99 62/102/99 78/104/99
f 72/119/100 73/117/100 76/103/100
f 79/123/101 80/92/101 84/91/101
f 79/123/102 81/95/102 83/94/102
f 71/125/103 79/123/103 82/124/103
f 53/126/84 82/124/84 84/91/84
f 72/90/104 80/92/104 83/94/104
f 71/125/105 70/93/105 81/95/105
v 0.005443 4.052815 -3.736117
v 0.010081 4.024781 -3.732356
v 0.001312 3.999238 -3.722749
v -0.018515 3.983032 -3.709871
v -0.044088 3.980505 -3.697172
v 0.005238 4.066052 -3.711800
v 0.009726 4.047708 -3.690238
v 0.000902 4.025712 -3.674115
v -0.018870 4.005959 -3.667753
v -0.044293 3.993742 -3.672855
v -0.040367 4.060555 -3.661906
v -0.054610 4.036135 -3.657180
v -0.064927 4.011163 -3.666751
v -0.035826 4.087659 -3.723907
v -0.081226 4.068925 -3.698331
v -0.089995 4.043383 -3.688724
v -0.085357 4.015348 -3.684963
v -0.035621 4.074422 -3.748224
v -0.061044 4.062204 -3.753327
v -0.080816 4.042452 -3.746964
v -0.089640 4.020456 -3.730842
v -0.085152 4.002111 -3.709280
v -0.014987 4.057001 -3.754329
v -0.025304 4.032029 -3.763900
v -0.039547 4.007608 -3.759173
v -0.053900 3.990281 -3.741416
v -0.064517 3.984690 -3.715384
v -0.015397 4.083474 -3.705695
v -0.026014 4.077883 -3.679664
v -0.061399 4.085132 -3.711209
v -0.085902 4.107805 -3.748831
v -0.085873 4.105935 -3.752267
v -0.052575 4.098953 -3.738156
v -0.091712 4.082471 -3.725215
v -0.052473 4.092401 -3.750193
v -0.091555 4.072309 -3.743886
v -0.046963 4.121202 -3.674034
v -0.055338 4.122917 -3.681501
v -0.038489 4.114141 -3.689141
v -0.055570 4.099848 -3.672616
v -0.042327 4.114927 -3.692563
v -0.059419 4.100637 -3.676048
vt 0.274240 0.539347
vt 0.265397 0.539709
vt 0.266768 0.532487
vt 0.231414 0.551290
vt 0.214659 0.541092
vt 0.231357 0.542861
vt 0.231940 0.569242
vt 0.215985 0.562822
vt 0.231472 0.559719
vt 0.230890 0.533338
vt 0.220414 0.530957
vt 0.213134 0.552274
vt 0.289666 0.544440
vt 0.282983 0.540904
vt 0.290637 0.536818
vt 0.279682 0.529141
vt 0.275518 0.536619
vt 0.273707 0.532162
vt 0.280945 0.538772
vt 0.286431 0.530872
vt 0.290637 0.551375
vt 0.284312 0.543753
vt 0.278488 0.537315
vt 0.276318 0.541045
vt 0.804698 0.251197
vt 0.792375 0.255919
vt 0.792638 0.252041
vt 0.786357 0.239035
vt 0.792578 0.249274
vt 0.791489 0.249454
vt 0.271776 0.541127
vt 0.760733 0.199751
vt 0.757502 0.209505
vt 0.750621 0.206121
vt 0.278108 0.542645
vt 0.273009 0.544115
vt 0.772804 0.201934
vt 0.766718 0.213101
vt 0.766203 0.208706
vt 0.264007 0.548518
vt 0.277612 0.547903
vt 0.268747 0.555467
vt 0.275021 0.546378
vt 0.280714 0.548498
vt 0.281954 0.545638
vt 0.276612 0.557409
vt 0.240880 0.530957
vt 0.248168 0.561486
vt 0.249693 0.550306
vt 0.246843 0.539760
vt 0.242415 0.571620
vt 0.762287 0.211045
vt 0.762255 0.210544
vt 0.761023 0.221925
vt 0.757316 0.212491
vt 0.750922 0.216572
vt 0.772804 0.220841
vt 0.791613 0.252007
vt 0.791097 0.255536
vt 0.780068 0.250772
vt 0.780487 0.263708
vt 0.804698 0.264828
vt 0.798786 0.238814
vt 0.221949 0.571626
vt 0.283377 0.553479
vn -0.5164 -0.7539 0.4061
vn 0.7174 -0.6093 0.3377
vn 0.9854 0.1530 -0.0750
vn 0.3092 -0.8342 0.4567
vn 0.9509 -0.2685 0.1542
vn 0.6569 0.6363 0.4046
vn -0.0193 -0.3509 0.9362
vn 0.5276 0.3543 0.7721
vn 0.5164 0.7539 -0.4061
vn 0.2941 0.0135 0.9557
vn -0.6666 -0.0103 0.7454
vn -0.9843 0.1750 -0.0218
vn -0.5400 0.4524 0.7097
vn 0.5614 0.6785 -0.4738
vn -0.9854 -0.1530 0.0750
vn 0.1718 0.0533 -0.9837
vn -0.9509 0.2685 -0.1542
vn -0.9190 -0.3494 0.1824
vn -0.6569 -0.6363 -0.4046
vn -0.2941 -0.0135 -0.9557
vn -0.5275 -0.3543 -0.7721
vn 0.0193 0.3509 -0.9362
vn -0.0096 -0.9768 -0.2137
vn 0.5400 -0.4524 -0.7097
vn 0.3066 -0.7932 -0.5262
vn 0.6666 0.0103 -0.7454
vn -0.5164 -0.7539 0.4060
vn -0.9856 0.1448 -0.0871
vn 0.3601 0.8207 -0.4435
vn 0.0803 0.8760 0.4756
vn 0.7056 0.6248 -0.3342
vn -0.3428 -0.1723 -0.9235
vn -0.3107 0.7946 0.5216
vn -0.6024 0.2922 0.7428
vn 0.3740 0.9028 -0.2121
vn 0.4826 0.3992 0.7796
vn -0.6709 -0.0581 0.7392
vn -0.3872 0.6543 -0.6495
vn 0.8709 0.3808 0.3105
vn 0.5275 0.3543 0.7721
vn 0.5164 0.7539 -0.4060
vn 0.2941 0.0134 0.9557
vn -0.7054 0.6624 -0.2524
vn -0.5400 0.4523 0.7097
vn 0.0928 0.0767 -0.9927
vn -0.9191 -0.3494 0.1824
vn -0.2941 -0.0134 -0.9557
vn 0.5164 0.7540 -0.4060
vn -0.5276 -0.3543 -0.7721
vn 0.0192 0.3509 -0.9362
vn 0.5401 -0.4523 -0.7097
vn 0.3601 0.8206 -0.4438
vn 0.1594 0.8563 0.4913
vn -0.2983 -0.0089 -0.9544
vn -0.3560 0.6796 0.6414
vn -0.6024 0.2921 0.7428
vn 0.3741 0.9028 -0.2121
vn 0.2162 -0.0223 0.9761
vn -0.6709 -0.0581 0.7393
vn -0.2481 0.6230 -0.7418
vn 0.8197 0.3914 0.4183
s off
f 101/131/106 111/132/106 89/133/106
f 87/134/107 93/135/107 88/136/107
f 85/137/108 91/138/108 86/139/108
f 89/140/109 93/135/109 94/141/109
f 86/139/110 92/142/110 87/134/110
f 90/143/111 113/144/111 91/145/111
f 93/146/112 97/147/112 94/148/112
f 91/145/113 95/149/113 92/150/113
f 85/151/114 112/152/114 90/143/114
f 92/150/115 96/153/115 93/146/115
f 97/147/116 100/154/116 101/131/116
f 114/155/117 126/156/117 122/157/117
f 95/149/118 100/154/118 96/153/118
f 112/158/119 125/159/119 123/160/119
f 100/154/120 106/161/120 101/131/120
f 103/162/121 119/163/121 102/164/121
f 99/165/122 105/166/122 100/154/122
f 104/167/123 118/168/123 120/169/123
f 106/161/124 110/170/124 111/132/124
f 103/171/125 109/172/125 104/173/125
f 85/151/114 102/174/114 98/175/114
f 104/173/126 110/170/126 105/166/126
f 102/174/127 108/176/127 103/171/127
f 111/177/128 88/136/128 89/140/128
f 108/178/129 87/134/129 109/179/129
f 109/179/130 88/136/130 110/180/130
f 107/181/131 86/139/131 108/178/131
f 97/147/132 89/133/132 94/148/132
f 115/182/133 120/169/133 118/168/133
f 115/182/134 119/163/134 116/183/134
f 114/184/135 117/185/135 115/182/135
f 102/164/136 117/185/136 98/186/136
f 103/162/137 120/169/137 116/183/137
f 114/184/138 118/168/138 99/187/138
f 121/188/139 126/156/139 124/189/139
f 121/188/140 125/159/140 122/157/140
f 113/190/141 124/189/141 95/191/141
f 95/191/142 126/156/142 99/192/142
f 114/155/143 125/159/143 98/193/143
f 113/190/144 123/160/144 121/188/144
f 101/131/106 106/161/106 111/132/106
f 87/134/107 92/142/107 93/135/107
f 85/137/108 90/194/108 91/138/108
f 89/140/109 88/136/109 93/135/109
f 86/139/110 91/138/110 92/142/110
f 90/143/111 112/152/111 113/144/111
f 93/146/112 96/153/112 97/147/112
f 91/145/145 113/144/145 95/149/145
f 85/151/146 98/175/146 112/152/146
f 92/150/147 95/149/147 96/153/147
f 97/147/116 96/153/116 100/154/116
f 114/155/148 99/192/148 126/156/148
f 95/149/149 99/165/149 100/154/149
f 112/158/119 98/193/119 125/159/119
f 100/154/120 105/166/120 106/161/120
f 103/162/150 116/183/150 119/163/150
f 99/165/122 104/173/122 105/166/122
f 104/167/151 99/187/151 118/168/151
f 106/161/124 105/166/124 110/170/124
f 103/171/152 108/176/152 109/172/152
f 85/151/153 107/195/153 102/174/153
f 104/173/154 109/172/154 110/170/154
f 102/174/155 107/195/155 108/176/155
f 111/177/128 110/180/128 88/136/128
f 108/178/156 86/139/156 87/134/156
f 109/179/130 87/134/130 88/136/130
f 107/181/131 85/137/131 86/139/131
f 97/147/106 101/131/106 89/133/106
f 115/182/133 116/183/133 120/169/133
f 115/182/157 117/185/157 119/163/157
f 114/184/158 98/186/158 117/185/158
f 102/164/136 119/163/136 117/185/136
f 103/162/159 104/167/159 120/169/159
f 114/184/160 115/182/160 118/168/160
f 121/188/161 122/157/161 126/156/161
f 121/188/162 123/160/162 125/159/162
f 113/190/163 121/188/163 124/189/163
f 95/191/164 124/189/164 126/156/164
f 114/155/165 122/157/165 125/159/165
f 113/190/166 112/158/166 123/160/166
