# Blender v2.81 (sub 16) OBJ File: 'garbage.blend'
# www.blender.org
v -3.497153 2.471523 2.293202
v -3.491462 2.459760 2.267691
v -3.485183 2.436733 2.251819
v -3.479999 2.408612 2.249839
v -3.477299 2.382931 2.262282
v -3.474784 2.470847 2.309503
v -3.452716 2.458590 2.295924
v -3.440444 2.435381 2.284420
v -3.441254 2.407441 2.278073
v -3.454930 2.382256 2.278583
v -3.444531 2.416370 2.336267
v -3.444793 2.390977 2.322973
v -3.456973 2.372750 2.304507
v -3.501240 2.452512 2.345049
v -3.493357 2.398710 2.355513
v -3.487078 2.375683 2.339641
v -3.481386 2.363920 2.314129
v -3.523610 2.453188 2.328749
v -3.537286 2.428002 2.329259
v -3.538096 2.400062 2.322912
v -3.525823 2.376854 2.311407
v -3.503756 2.364596 2.297829
v -3.521566 2.462694 2.302825
v -3.533746 2.444467 2.284358
v -3.534009 2.419074 2.271065
v -3.522284 2.393318 2.266506
v -3.501712 2.374102 2.271905
v -3.476827 2.461342 2.335427
v -3.456256 2.442125 2.340825
v -3.498541 2.426832 2.357492
v -3.542867 2.430022 2.381050
v -3.546028 2.430117 2.378747
v -3.520763 2.449098 2.359824
v -3.522458 2.405280 2.366747
v -3.531836 2.449433 2.351756
v -3.539633 2.405799 2.354232
v -3.459332 2.445780 2.389035
v -3.469340 2.442160 2.392980
v -3.470249 2.453512 2.375962
v -3.460710 2.427487 2.375054
v -3.474836 2.451853 2.377770
v -3.465310 2.425823 2.376867
vt 0.274240 0.539347
vt 0.265397 0.539709
vt 0.266768 0.532487
vt 0.231414 0.551290
vt 0.214659 0.541092
vt 0.231357 0.542861
vt 0.231940 0.569242
vt 0.215985 0.562822
vt 0.231472 0.559719
vt 0.230890 0.533338
vt 0.220414 0.530957
vt 0.213134 0.552274
vt 0.289666 0.544440
vt 0.282983 0.540904
vt 0.290637 0.536818
vt 0.279682 0.529141
vt 0.275518 0.536619
vt 0.273707 0.532162
vt 0.280945 0.538772
vt 0.286431 0.530872
vt 0.290637 0.551375
vt 0.284312 0.543753
vt 0.278488 0.537315
vt 0.276318 0.541045
vt 0.804698 0.251197
vt 0.792375 0.255919
vt 0.792638 0.252041
vt 0.786357 0.239035
vt 0.792578 0.249274
vt 0.791489 0.249454
vt 0.271776 0.541127
vt 0.760733 0.199751
vt 0.757502 0.209505
vt 0.750621 0.206121
vt 0.278108 0.542645
vt 0.273009 0.544115
vt 0.772804 0.201934
vt 0.766718 0.213101
vt 0.766203 0.208706
vt 0.264007 0.548518
vt 0.277612 0.547903
vt 0.268747 0.555467
vt 0.275021 0.546378
vt 0.280714 0.548498
vt 0.281954 0.545638
vt 0.276612 0.557409
vt 0.240880 0.530957
vt 0.248168 0.561486
vt 0.249693 0.550306
vt 0.246843 0.539760
vt 0.242415 0.571620
vt 0.762287 0.211045
vt 0.762255 0.210544
vt 0.761023 0.221925
vt 0.757316 0.212491
vt 0.750922 0.216572
vt 0.772804 0.220841
vt 0.791613 0.252007
vt 0.791097 0.255536
vt 0.780068 0.250772
vt 0.780487 0.263708
vt 0.804698 0.264828
vt 0.798786 0.238814
vt 0.221949 0.571626
vt 0.283377 0.553479
vn 0.2070 -0.9237 -0.3224
vn 0.5842 0.1637 -0.7949
vn 0.2815 0.8937 -0.3493
vn 0.5526 -0.3157 -0.7714
vn 0.4906 0.5813 -0.6492
vn 0.6019 0.7332 0.3163
vn 0.8730 -0.4762 -0.1058
vn 0.9035 0.3744 0.2085
vn -0.2070 0.9237 0.3224
vn 0.9971 -0.0432 0.0628
vn 0.4559 -0.7652 0.4545
vn -0.3774 -0.6958 0.6111
vn 0.4597 -0.4156 0.7848
vn -0.2527 0.9415 0.2229
vn -0.2815 -0.8937 0.3493
vn -0.8570 0.4606 -0.2312
vn -0.4906 -0.5813 0.6492
vn -0.1538 -0.9732 0.1707
vn -0.6019 -0.7332 -0.3163
vn -0.9971 0.0431 -0.0628
vn -0.9035 -0.3744 -0.2085
vn -0.8730 0.4762 0.1058
vn -0.1849 -0.4442 -0.8766
vn -0.4597 0.4156 -0.7848
vn -0.3661 -0.0020 -0.9306
vn -0.4559 0.7652 -0.4545
vn -0.4383 -0.6927 0.5728
vn -0.2996 0.8434 0.4461
vn 0.4565 0.3709 0.8087
vn -0.0696 0.9882 0.1364
vn -0.9816 -0.0871 -0.1697
vn 0.3603 0.0007 0.9328
vn 0.4712 -0.5577 0.6834
vn -0.0800 0.8273 0.5561
vn 0.8935 0.3590 0.2698
vn 0.4495 -0.7914 0.4143
vn -0.7572 0.2186 0.6155
vn 0.5958 0.8028 -0.0228
vn 0.5842 0.1636 -0.7949
vn 0.4906 0.5812 -0.6492
vn -0.5013 -0.1524 0.8518
vn -0.8942 0.4117 -0.1756
vn -0.4906 -0.5812 0.6492
vn -0.9971 0.0432 -0.0628
vn -0.8730 0.4761 0.1058
vn -0.4382 -0.6927 0.5728
vn 0.5000 0.4196 0.7576
vn -0.9975 0.0418 -0.0566
vn 0.4579 -0.1306 0.8793
vn 0.4711 -0.5578 0.6833
vn 0.9888 -0.1303 0.0730
vn -0.7927 0.3422 0.5045
vn 0.6778 0.7345 0.0319
s off
f 17/1/1 27/2/1 5/3/1
f 3/4/2 9/5/2 4/6/2
f 1/7/3 7/8/3 2/9/3
f 5/10/4 9/5/4 10/11/4
f 2/9/5 8/12/5 3/4/5
f 6/13/6 29/14/6 7/15/6
f 9/16/7 13/17/7 10/18/7
f 7/15/8 11/19/8 8/20/8
f 1/21/9 28/22/9 6/13/9
f 8/20/10 12/23/10 9/16/10
f 13/17/11 16/24/11 17/1/11
f 30/25/12 42/26/12 38/27/12
f 11/19/13 16/24/13 12/23/13
f 28/28/14 41/29/14 39/30/14
f 16/24/15 22/31/15 17/1/15
f 19/32/16 35/33/16 18/34/16
f 15/35/17 21/36/17 16/24/17
f 20/37/18 34/38/18 36/39/18
f 22/31/19 26/40/19 27/2/19
f 19/41/20 25/42/20 20/43/20
f 1/21/9 18/44/9 14/45/9
f 20/43/21 26/40/21 21/36/21
f 18/44/22 24/46/22 19/41/22
f 27/47/23 4/6/23 5/10/23
f 24/48/24 3/4/24 25/49/24
f 25/49/25 4/6/25 26/50/25
f 23/51/26 2/9/26 24/48/26
f 13/17/1 5/3/1 10/18/1
f 31/52/27 36/39/27 34/38/27
f 31/52/28 35/33/28 32/53/28
f 30/54/29 33/55/29 31/52/29
f 18/34/30 33/55/30 14/56/30
f 19/32/31 36/39/31 32/53/31
f 30/54/32 34/38/32 15/57/32
f 37/58/33 42/26/33 40/59/33
f 37/58/34 41/29/34 38/27/34
f 29/60/35 40/59/35 11/61/35
f 11/61/36 42/26/36 15/62/36
f 30/25/37 41/29/37 14/63/37
f 29/60/38 39/30/38 37/58/38
f 17/1/1 22/31/1 27/2/1
f 3/4/39 8/12/39 9/5/39
f 1/7/3 6/64/3 7/8/3
f 5/10/4 4/6/4 9/5/4
f 2/9/40 7/8/40 8/12/40
f 6/13/6 28/22/6 29/14/6
f 9/16/7 12/23/7 13/17/7
f 7/15/8 29/14/8 11/19/8
f 1/21/9 14/45/9 28/22/9
f 8/20/10 11/19/10 12/23/10
f 13/17/11 12/23/11 16/24/11
f 30/25/41 15/62/41 42/26/41
f 11/19/13 15/35/13 16/24/13
f 28/28/14 14/63/14 41/29/14
f 16/24/15 21/36/15 22/31/15
f 19/32/42 32/53/42 35/33/42
f 15/35/43 20/43/43 21/36/43
f 20/37/18 15/57/18 34/38/18
f 22/31/19 21/36/19 26/40/19
f 19/41/44 24/46/44 25/42/44
f 1/21/9 23/65/9 18/44/9
f 20/43/21 25/42/21 26/40/21
f 18/44/45 23/65/45 24/46/45
f 27/47/23 26/50/23 4/6/23
f 24/48/24 2/9/24 3/4/24
f 25/49/25 3/4/25 4/6/25
f 23/51/26 1/7/26 2/9/26
f 13/17/1 17/1/1 5/3/1
f 31/52/46 32/53/46 36/39/46
f 31/52/28 33/55/28 35/33/28
f 30/54/47 14/56/47 33/55/47
f 18/34/30 35/33/30 33/55/30
f 19/32/48 20/37/48 36/39/48
f 30/54/49 31/52/49 34/38/49
f 37/58/50 38/27/50 42/26/50
f 37/58/34 39/30/34 41/29/34
f 29/60/51 37/58/51 40/59/51
f 11/61/36 40/59/36 42/26/36
f 30/25/52 38/27/52 41/29/52
f 29/60/53 28/28/53 39/30/53
v 0.049231 3.927279 2.034525
v 0.028169 3.910638 2.044576
v 0.018443 3.884755 2.052133
v 0.022661 3.856567 2.055170
v 0.039691 3.833626 2.052874
v 0.054396 3.921544 2.007936
v 0.037114 3.900703 1.998522
v 0.028772 3.873284 1.998954
v 0.031605 3.846632 2.009116
v 0.044855 3.827890 2.026285
v 0.080807 3.864678 1.982087
v 0.076669 3.839180 1.994509
v 0.070873 3.823587 2.017851
v 0.101267 3.918674 2.017658
v 0.122514 3.867544 2.018399
v 0.112789 3.841661 2.025956
v 0.091726 3.825020 2.036007
v 0.096103 3.924409 2.044247
v 0.109352 3.905667 2.061416
v 0.112186 3.879015 2.071578
v 0.103844 3.851596 2.072010
v 0.086562 3.830755 2.062597
v 0.070085 3.928712 2.052681
v 0.064288 3.913120 2.076023
v 0.060150 3.887621 2.088445
v 0.058780 3.859049 2.086617
v 0.060544 3.835058 2.071030
v 0.080413 3.917241 1.999502
v 0.082178 3.893251 1.983915
v 0.118297 3.895733 2.015362
v 0.155928 3.917112 2.040989
v 0.155199 3.917923 2.044747
v 0.123032 3.924262 2.027959
v 0.142272 3.885113 2.036208
v 0.120476 3.927101 2.041121
v 0.138307 3.889517 2.056624
v 0.124157 3.904843 1.962693
v 0.132706 3.905430 1.970136
v 0.115084 3.913765 1.976401
v 0.117847 3.886219 1.974751
v 0.119002 3.914034 1.979813
v 0.121776 3.886489 1.978172
vt 0.274240 0.539347
vt 0.265397 0.539709
vt 0.266768 0.532487
vt 0.231414 0.551290
vt 0.214659 0.541092
vt 0.231357 0.542861
vt 0.231940 0.569242
vt 0.215985 0.562822
vt 0.231472 0.559719
vt 0.230890 0.533338
vt 0.220414 0.530957
vt 0.213134 0.552274
vt 0.289666 0.544440
vt 0.282983 0.540904
vt 0.290637 0.536818
vt 0.279682 0.529141
vt 0.275518 0.536619
vt 0.273707 0.532162
vt 0.280945 0.538772
vt 0.286431 0.530872
vt 0.290637 0.551375
vt 0.284312 0.543753
vt 0.278488 0.537315
vt 0.276318 0.541045
vt 0.804698 0.251197
vt 0.792375 0.255919
vt 0.792638 0.252041
vt 0.786357 0.239035
vt 0.792578 0.249274
vt 0.791489 0.249454
vt 0.271776 0.541127
vt 0.760733 0.199751
vt 0.757502 0.209505
vt 0.750621 0.206121
vt 0.278108 0.542645
vt 0.273009 0.544115
vt 0.772804 0.201934
vt 0.766718 0.213101
vt 0.766203 0.208706
vt 0.264007 0.548518
vt 0.277612 0.547903
vt 0.268747 0.555467
vt 0.275021 0.546378
vt 0.280714 0.548498
vt 0.281954 0.545638
vt 0.276612 0.557409
vt 0.240880 0.530957
vt 0.248168 0.561486
vt 0.249693 0.550306
vt 0.246843 0.539760
vt 0.242415 0.571620
vt 0.762287 0.211045
vt 0.762255 0.210544
vt 0.761023 0.221925
vt 0.757316 0.212491
vt 0.750922 0.216572
vt 0.772804 0.220841
vt 0.791613 0.252007
vt 0.791097 0.255536
vt 0.780068 0.250772
vt 0.780487 0.263708
vt 0.804698 0.264828
vt 0.798786 0.238814
vt 0.221949 0.571626
vt 0.283377 0.553479
vn -0.0995 -0.9765 0.1913
vn -0.9746 -0.1624 -0.1542
vn -0.6737 0.6845 -0.2785
vn -0.8040 -0.5940 -0.0280
vn -0.9296 0.2790 -0.2407
vn -0.1822 0.5263 -0.8306
vn -0.3124 -0.7523 -0.5801
vn -0.2962 0.0751 -0.9522
vn 0.0995 0.9765 -0.1913
vn -0.3412 -0.3663 -0.8657
vn 0.4264 -0.7975 -0.4268
vn 0.8831 -0.4293 0.1893
vn 0.6109 -0.4246 -0.6682
vn 0.0268 0.9936 -0.1093
vn 0.6737 -0.6845 0.2785
vn 0.0184 0.6824 0.7308
vn 0.9296 -0.2790 0.2407
vn 0.4895 -0.8279 0.2737
vn 0.1822 -0.5263 0.8306
vn 0.3412 0.3663 0.8657
vn 0.2962 -0.0751 0.9522
vn 0.3124 0.7523 0.5801
vn -0.5566 -0.4810 0.6773
vn -0.6109 0.4246 0.6682
vn -0.6559 -0.0168 0.7547
vn -0.4264 0.7975 0.4268
vn 0.8739 -0.4116 0.2585
vn 0.2675 0.9513 -0.1533
vn 0.4077 0.3114 -0.8584
vn -0.1363 0.9626 -0.2342
vn 0.2795 0.2241 0.9336
vn 0.6606 0.0180 -0.7506
vn 0.5590 -0.5758 -0.5967
vn 0.2776 0.8788 -0.3882
vn -0.2346 0.0733 -0.9693
vn 0.4017 -0.8256 -0.3962
vn 0.7804 0.5495 0.2984
vn -0.4935 0.5426 -0.6798
vn -0.3124 -0.7522 -0.5801
vn 0.9867 0.1535 0.0542
vn 0.0268 0.9937 -0.1092
vn 0.0958 0.6577 0.7471
vn 0.1822 -0.5262 0.8306
vn 0.3124 0.7522 0.5801
vn -0.5567 -0.4810 0.6773
vn -0.4264 0.7975 0.4269
vn 0.2675 0.9513 -0.1532
vn 0.3316 0.3345 -0.8821
vn -0.1363 0.9626 -0.2341
vn 0.3471 0.3661 0.8634
vn 0.6119 -0.1450 -0.7775
vn 0.5590 -0.5757 -0.5967
vn -0.3040 -0.4430 -0.8434
vn 0.6634 0.6598 0.3528
vn -0.4600 0.4597 -0.7596
s off
f 59/66/54 69/67/54 47/68/54
f 45/69/55 51/70/55 46/71/55
f 43/72/56 49/73/56 44/74/56
f 47/75/57 51/70/57 52/76/57
f 44/74/58 50/77/58 45/69/58
f 48/78/59 71/79/59 49/80/59
f 51/81/60 55/82/60 52/83/60
f 49/80/61 53/84/61 50/85/61
f 43/86/62 70/87/62 48/78/62
f 50/85/63 54/88/63 51/81/63
f 55/82/64 58/89/64 59/66/64
f 72/90/65 84/91/65 80/92/65
f 53/84/66 58/89/66 54/88/66
f 70/93/67 83/94/67 81/95/67
f 58/89/68 64/96/68 59/66/68
f 61/97/69 77/98/69 60/99/69
f 57/100/70 63/101/70 58/89/70
f 62/102/71 76/103/71 78/104/71
f 64/96/72 68/105/72 69/67/72
f 61/106/73 67/107/73 62/108/73
f 43/86/62 60/109/62 56/110/62
f 62/108/74 68/105/74 63/101/74
f 60/109/75 66/111/75 61/106/75
f 69/112/76 46/71/76 47/75/76
f 66/113/77 45/69/77 67/114/77
f 67/114/78 46/71/78 68/115/78
f 65/116/79 44/74/79 66/113/79
f 55/82/54 47/68/54 52/83/54
f 73/117/80 78/104/80 76/103/80
f 73/117/81 77/98/81 74/118/81
f 72/119/82 75/120/82 73/117/82
f 60/99/83 75/120/83 56/121/83
f 61/97/84 78/104/84 74/118/84
f 72/119/85 76/103/85 57/122/85
f 79/123/86 84/91/86 82/124/86
f 79/123/87 83/94/87 80/92/87
f 71/125/88 82/124/88 53/126/88
f 53/126/89 84/91/89 57/127/89
f 72/90/90 83/94/90 56/128/90
f 71/125/91 81/95/91 79/123/91
f 59/66/54 64/96/54 69/67/54
f 45/69/55 50/77/55 51/70/55
f 43/72/56 48/129/56 49/73/56
f 47/75/57 46/71/57 51/70/57
f 44/74/58 49/73/58 50/77/58
f 48/78/59 70/87/59 71/79/59
f 51/81/92 54/88/92 55/82/92
f 49/80/61 71/79/61 53/84/61
f 43/86/62 56/110/62 70/87/62
f 50/85/63 53/84/63 54/88/63
f 55/82/64 54/88/64 58/89/64
f 72/90/93 57/127/93 84/91/93
f 53/84/66 57/100/66 58/89/66
f 70/93/94 56/128/94 83/94/94
f 58/89/68 63/101/68 64/96/68
f 61/97/95 74/118/95 77/98/95
f 57/100/70 62/108/70 63/101/70
f 62/102/71 57/122/71 76/103/71
f 64/96/96 63/101/96 68/105/96
f 61/106/73 66/111/73 67/107/73
f 43/86/62 65/130/62 60/109/62
f 62/108/74 67/107/74 68/105/74
f 60/109/97 65/130/97 66/111/97
f 69/112/98 68/115/98 46/71/98
f 66/113/77 44/74/77 45/69/77
f 67/114/78 45/69/78 46/71/78
f 65/116/99 43/72/99 44/74/99
f 55/82/54 59/66/54 47/68/54
f 73/117/80 74/118/80 78/104/80
f 73/117/100 75/120/100 77/98/100
f 72/119/101 56/121/101 75/120/101
f 60/99/102 77/98/102 75/120/102
f 61/97/103 62/102/103 78/104/103
f 72/119/104 73/117/104 76/103/104
f 79/123/105 80/92/105 84/91/105
f 79/123/87 81/95/87 83/94/87
f 71/125/106 79/123/106 82/124/106
f 53/126/89 82/124/89 84/91/89
f 72/90/107 80/92/107 83/94/107
f 71/125/108 70/93/108 81/95/108
v -1.095803 4.268447 0.105856
v -1.099425 4.247036 0.087146
v -1.098979 4.219025 0.081086
v -1.094586 4.191916 0.089299
v -1.087423 4.172976 0.109586
v -1.069102 4.271058 0.112697
v -1.053177 4.251559 0.098994
v -1.045577 4.224247 0.094766
v -1.048339 4.196439 0.101147
v -1.060722 4.175587 0.116426
v -1.030845 4.227621 0.148037
v -1.035580 4.199361 0.147281
v -1.053356 4.177274 0.143062
v -1.081071 4.271821 0.159128
v -1.069515 4.225773 0.187628
v -1.069070 4.197761 0.181568
v -1.072691 4.176351 0.162857
v -1.107773 4.269210 0.152287
v -1.120156 4.248359 0.167567
v -1.122918 4.220551 0.173948
v -1.115318 4.193239 0.169720
v -1.099393 4.173739 0.156017
v -1.115139 4.267523 0.125652
v -1.132914 4.245437 0.121432
v -1.137650 4.217177 0.120676
v -1.128076 4.190317 0.123586
v -1.106759 4.172052 0.129381
v -1.061736 4.272745 0.139332
v -1.040419 4.254481 0.145128
v -1.073908 4.252881 0.179415
v -1.107026 4.271079 0.212611
v -1.110799 4.270710 0.211644
v -1.094055 4.277153 0.179477
v -1.092798 4.240155 0.203978
v -1.107272 4.275861 0.176091
v -1.113299 4.238150 0.198726
v -1.026230 4.276954 0.185633
v -1.034157 4.276575 0.193749
v -1.041142 4.280436 0.174892
v -1.032316 4.255050 0.181730
v -1.044775 4.280262 0.178611
v -1.035959 4.254876 0.185460
vt 0.274240 0.539347
vt 0.265397 0.539709
vt 0.266768 0.532487
vt 0.231414 0.551290
vt 0.214659 0.541092
vt 0.231357 0.542861
vt 0.231940 0.569242
vt 0.215985 0.562822
vt 0.231472 0.559719
vt 0.230890 0.533338
vt 0.220414 0.530957
vt 0.213134 0.552274
vt 0.289666 0.544440
vt 0.282983 0.540904
vt 0.290637 0.536818
vt 0.279682 0.529141
vt 0.275518 0.536619
vt 0.273707 0.532162
vt 0.280945 0.538772
vt 0.286431 0.530872
vt 0.290637 0.551375
vt 0.284312 0.543753
vt 0.278488 0.537315
vt 0.276318 0.541045
vt 0.804698 0.251197
vt 0.792375 0.255919
vt 0.792638 0.252041
vt 0.786357 0.239035
vt 0.792578 0.249274
vt 0.791489 0.249454
vt 0.271776 0.541127
vt 0.760733 0.199751
vt 0.757502 0.209505
vt 0.750621 0.206121
vt 0.278108 0.542645
vt 0.273009 0.544115
vt 0.772804 0.201934
vt 0.766718 0.213101
vt 0.766203 0.208706
vt 0.264007 0.548518
vt 0.277612 0.547903
vt 0.268747 0.555467
vt 0.275021 0.546378
vt 0.280714 0.548498
vt 0.281954 0.545638
vt 0.276612 0.557409
vt 0.240880 0.530957
vt 0.248168 0.561486
vt 0.249693 0.550306
vt 0.246843 0.539760
vt 0.242415 0.571620
vt 0.762287 0.211045
vt 0.762255 0.210544
vt 0.761023 0.221925
vt 0.757316 0.212491
vt 0.750922 0.216572
vt 0.772804 0.220841
vt 0.791613 0.252007
vt 0.791097 0.255536
vt 0.780068 0.250772
vt 0.780487 0.263708
vt 0.804698 0.264828
vt 0.798786 0.238814
vt 0.221949 0.571626
vt 0.283377 0.553479
vn 0.0874 -0.9954 0.0389
vn 0.2629 -0.2405 -0.9344
vn 0.1315 0.6396 -0.7574
vn 0.2459 -0.6637 -0.7064
vn 0.2234 0.2095 -0.9519
vn 0.6685 0.7074 -0.2297
vn 0.7829 -0.5959 -0.1788
vn 0.9154 0.2968 -0.2720
vn -0.0874 0.9954 -0.0389
vn 0.9549 -0.1532 -0.2544
vn 0.5942 -0.5839 0.5531
vn -0.1300 -0.3444 0.9298
vn 0.7118 -0.1377 0.6888
vn -0.1655 0.9794 -0.1160
vn -0.1315 -0.6396 0.7573
vn -0.8873 0.4487 -0.1067
vn -0.2234 -0.2095 0.9519
vn -0.0747 -0.7991 0.5965
vn -0.6685 -0.7074 0.2296
vn -0.9549 0.1532 0.2544
vn -0.9154 -0.2968 0.2719
vn -0.7829 0.5959 0.1788
vn -0.4798 -0.7194 -0.5022
vn -0.7118 0.1377 -0.6888
vn -0.6722 -0.3123 -0.6712
vn -0.5942 0.5839 -0.5532
vn 0.0874 -0.9954 0.0388
vn -0.2006 -0.3479 0.9158
vn -0.1294 0.9831 0.1296
vn 0.7103 0.5886 0.3860
vn -0.0254 0.9629 -0.2685
vn -0.9772 -0.0091 0.2121
vn 0.6676 0.3129 0.6755
vn 0.6877 -0.3082 0.6573
vn 0.1151 0.9807 0.1582
vn 0.9279 0.3080 -0.2102
vn 0.5742 -0.6224 0.5318
vn -0.4917 0.5431 0.6807
vn 0.5419 0.6399 -0.5448
vn 0.9154 0.2968 -0.2719
vn 0.5942 -0.5839 0.5532
vn -0.1652 0.2614 0.9510
vn -0.1315 -0.6396 0.7574
vn -0.9020 0.4309 -0.0271
vn -0.0747 -0.7991 0.5966
vn -0.6685 -0.7074 0.2297
vn -0.9154 -0.2968 0.2720
vn -0.6723 -0.3123 -0.6712
vn -0.5942 0.5839 -0.5531
vn -0.2006 -0.3480 0.9158
vn -0.1293 0.9831 0.1296
vn 0.7324 0.6071 0.3082
vn -0.9531 0.1544 0.2603
vn 0.7411 0.1589 0.6523
vn 0.1151 0.9807 0.1583
vn 0.9515 -0.2275 -0.2071
vn 0.5742 -0.6225 0.5318
vn -0.5653 0.6175 0.5469
vn 0.6386 0.5876 -0.4969
s off
f 101/131/109 111/132/109 89/133/109
f 87/134/110 93/135/110 88/136/110
f 85/137/111 91/138/111 86/139/111
f 89/140/112 93/135/112 94/141/112
f 86/139/113 92/142/113 87/134/113
f 90/143/114 113/144/114 91/145/114
f 93/146/115 97/147/115 94/148/115
f 91/145/116 95/149/116 92/150/116
f 85/151/117 112/152/117 90/143/117
f 92/150/118 96/153/118 93/146/118
f 97/147/119 100/154/119 101/131/119
f 114/155/120 126/156/120 122/157/120
f 95/149/121 100/154/121 96/153/121
f 112/158/122 125/159/122 123/160/122
f 100/154/123 106/161/123 101/131/123
f 103/162/124 119/163/124 102/164/124
f 99/165/125 105/166/125 100/154/125
f 104/167/126 118/168/126 120/169/126
f 106/161/127 110/170/127 111/132/127
f 103/171/128 109/172/128 104/173/128
f 85/151/117 102/174/117 98/175/117
f 104/173/129 110/170/129 105/166/129
f 102/174/130 108/176/130 103/171/130
f 111/177/131 88/136/131 89/140/131
f 108/178/132 87/134/132 109/179/132
f 109/179/133 88/136/133 110/180/133
f 107/181/134 86/139/134 108/178/134
f 97/147/135 89/133/135 94/148/135
f 115/182/136 120/169/136 118/168/136
f 115/182/137 119/163/137 116/183/137
f 114/184/138 117/185/138 115/182/138
f 102/164/139 117/185/139 98/186/139
f 103/162/140 120/169/140 116/183/140
f 114/184/141 118/168/141 99/187/141
f 121/188/142 126/156/142 124/189/142
f 121/188/143 125/159/143 122/157/143
f 113/190/144 124/189/144 95/191/144
f 95/191/145 126/156/145 99/192/145
f 114/155/146 125/159/146 98/193/146
f 113/190/147 123/160/147 121/188/147
f 101/131/109 106/161/109 111/132/109
f 87/134/110 92/142/110 93/135/110
f 85/137/111 90/194/111 91/138/111
f 89/140/112 88/136/112 93/135/112
f 86/139/113 91/138/113 92/142/113
f 90/143/114 112/152/114 113/144/114
f 93/146/115 96/153/115 97/147/115
f 91/145/148 113/144/148 95/149/148
f 85/151/117 98/175/117 112/152/117
f 92/150/118 95/149/118 96/153/118
f 97/147/149 96/153/149 100/154/149
f 114/155/150 99/192/150 126/156/150
f 95/149/121 99/165/121 100/154/121
f 112/158/122 98/193/122 125/159/122
f 100/154/151 105/166/151 106/161/151
f 103/162/152 116/183/152 119/163/152
f 99/165/125 104/173/125 105/166/125
f 104/167/153 99/187/153 118/168/153
f 106/161/154 105/166/154 110/170/154
f 103/171/128 108/176/128 109/172/128
f 85/151/117 107/195/117 102/174/117
f 104/173/155 109/172/155 110/170/155
f 102/174/130 107/195/130 108/176/130
f 111/177/131 110/180/131 88/136/131
f 108/178/132 86/139/132 87/134/132
f 109/179/156 87/134/156 88/136/156
f 107/181/157 85/137/157 86/139/157
f 97/147/109 101/131/109 89/133/109
f 115/182/158 116/183/158 120/169/158
f 115/182/159 117/185/159 119/163/159
f 114/184/160 98/186/160 117/185/160
f 102/164/139 119/163/139 117/185/139
f 103/162/161 104/167/161 120/169/161
f 114/184/162 115/182/162 118/168/162
f 121/188/142 122/157/142 126/156/142
f 121/188/163 123/160/163 125/159/163
f 113/190/164 121/188/164 124/189/164
f 95/191/165 124/189/165 126/156/165
f 114/155/166 122/157/166 125/159/166
f 113/190/167 112/158/167 123/160/167
