# Blender v2.81 (sub 16) OBJ File: 'garbage.blend'
# www.blender.org
v 0.849739 2.009074 -1.171800
v 0.850379 1.995211 -1.146720
v 0.850290 1.970667 -1.131914
v 0.849496 1.942021 -1.131349
v 0.848208 1.916946 -1.145176
v 0.825133 2.005929 -1.184097
v 0.807761 1.989763 -1.168019
v 0.801079 1.964378 -1.156508
v 0.806877 1.936573 -1.152648
v 0.823602 1.913801 -1.157473
v 0.798445 1.949062 -1.209657
v 0.804596 1.923310 -1.198676
v 0.822285 1.906143 -1.184047
v 0.847105 1.993758 -1.224948
v 0.845022 1.940037 -1.238210
v 0.844933 1.915493 -1.223404
v 0.845574 1.901630 -1.198324
v 0.871710 1.996903 -1.212651
v 0.888436 1.974131 -1.217476
v 0.894234 1.946327 -1.213616
v 0.887552 1.920941 -1.202105
v 0.870180 1.904775 -1.186027
v 0.873027 2.004561 -1.186077
v 0.890717 1.987394 -1.171448
v 0.896868 1.961642 -1.160467
v 0.889833 1.934204 -1.156077
v 0.871497 1.912433 -1.159453
v 0.823816 1.998271 -1.210671
v 0.805480 1.976500 -1.214047
v 0.845817 1.968684 -1.238775
v 0.884349 1.979797 -1.269136
v 0.887826 1.980241 -1.267398
v 0.863958 1.994137 -1.243028
v 0.870453 1.951518 -1.253627
v 0.876138 1.995693 -1.236941
v 0.889346 1.953933 -1.244185
v 0.799364 1.983207 -1.261636
v 0.808912 1.981357 -1.267489
v 0.811260 1.991768 -1.250013
v 0.805741 1.964593 -1.249598
v 0.815635 1.990920 -1.252696
v 0.810129 1.963742 -1.252288
vt 0.274240 0.539347
vt 0.265397 0.539709
vt 0.266768 0.532487
vt 0.231414 0.551290
vt 0.214659 0.541092
vt 0.231357 0.542861
vt 0.231940 0.569242
vt 0.215985 0.562822
vt 0.231472 0.559719
vt 0.230890 0.533338
vt 0.220414 0.530957
vt 0.213134 0.552274
vt 0.289666 0.544440
vt 0.282983 0.540904
vt 0.290637 0.536818
vt 0.279682 0.529141
vt 0.275518 0.536619
vt 0.273707 0.532162
vt 0.280945 0.538772
vt 0.286431 0.530872
vt 0.290637 0.551375
vt 0.284312 0.543753
vt 0.278488 0.537315
vt 0.276318 0.541045
vt 0.804698 0.251197
vt 0.792375 0.255919
vt 0.792638 0.252041
vt 0.786357 0.239035
vt 0.792578 0.249274
vt 0.791489 0.249454
vt 0.271776 0.541127
vt 0.760733 0.199751
vt 0.757502 0.209505
vt 0.750621 0.206121
vt 0.278108 0.542645
vt 0.273009 0.544115
vt 0.772804 0.201934
vt 0.766718 0.213101
vt 0.766203 0.208706
vt 0.264007 0.548518
vt 0.277612 0.547903
vt 0.268747 0.555467
vt 0.275021 0.546378
vt 0.280714 0.548498
vt 0.281954 0.545638
vt 0.276612 0.557409
vt 0.240880 0.530957
vt 0.248168 0.561486
vt 0.249693 0.550306
vt 0.246843 0.539760
vt 0.242415 0.571620
vt 0.762287 0.211045
vt 0.762255 0.210544
vt 0.761023 0.221925
vt 0.757316 0.212491
vt 0.750922 0.216572
vt 0.772804 0.220841
vt 0.791613 0.252007
vt 0.791097 0.255536
vt 0.780068 0.250772
vt 0.780487 0.263708
vt 0.804698 0.264828
vt 0.798786 0.238814
vt 0.221949 0.571626
vt 0.283377 0.553479
vn -0.0160 -0.9606 0.2776
vn -0.4499 0.0301 0.8926
vn -0.3359 0.8207 0.4622
vn -0.3568 -0.4370 0.8257
vn -0.4427 0.4644 0.7671
vn -0.7445 0.6504 -0.1505
vn -0.7654 -0.6073 0.2129
vn -0.9693 0.2449 -0.0225
vn 0.0160 0.9606 -0.2776
vn -0.9765 -0.1893 0.1030
vn -0.4191 -0.7991 -0.4310
vn 0.3551 -0.5966 -0.7197
vn -0.5302 -0.4366 -0.7269
vn 0.0758 0.9796 -0.1861
vn 0.3359 -0.8207 -0.4622
vn 0.8121 0.5711 0.1196
vn 0.4427 -0.4643 -0.7671
vn 0.2544 -0.9282 -0.2716
vn 0.7445 -0.6504 0.1505
vn 0.9765 0.1893 -0.1030
vn 0.9693 -0.2449 0.0225
vn 0.7654 0.6073 -0.2129
vn 0.3982 -0.4585 0.7945
vn 0.5302 0.4366 0.7269
vn 0.5230 0.0023 0.8523
vn 0.4191 0.7991 0.4310
vn 0.4208 -0.5864 -0.6921
vn 0.0952 0.9020 -0.4211
vn -0.6405 0.3416 -0.6878
vn -0.0937 0.9934 -0.0666
vn 0.9986 0.0526 -0.0058
vn -0.5176 -0.0025 -0.8556
vn -0.5035 -0.5841 -0.6366
vn -0.1361 0.8590 -0.4935
vn -0.9683 0.2346 -0.0857
vn -0.4021 -0.8262 -0.3947
vn 0.5975 0.3635 -0.7148
vn -0.6877 0.7014 0.1872
vn 0.3574 -0.0283 -0.9335
vn 0.0757 0.9796 -0.1861
vn 0.8453 0.5315 0.0547
vn 0.4427 -0.4644 -0.7671
vn 0.9765 0.1894 -0.1030
vn 0.0159 0.9606 -0.2776
vn 0.3982 -0.4586 0.7945
vn 0.5230 0.0023 0.8524
vn -0.6805 0.3803 -0.6264
vn 0.9760 0.1884 -0.1092
vn -0.5849 -0.1498 -0.7972
vn -0.5035 -0.5842 -0.6366
vn -0.1361 0.8591 -0.4935
vn -0.9581 -0.2735 0.0846
vn 0.6347 0.4847 -0.6018
vn -0.7679 0.6247 0.1418
s off
f 17/1/1 27/2/1 5/3/1
f 3/4/2 9/5/2 4/6/2
f 1/7/3 7/8/3 2/9/3
f 5/10/4 9/5/4 10/11/4
f 2/9/5 8/12/5 3/4/5
f 6/13/6 29/14/6 7/15/6
f 9/16/7 13/17/7 10/18/7
f 7/15/8 11/19/8 8/20/8
f 1/21/9 28/22/9 6/13/9
f 8/20/10 12/23/10 9/16/10
f 13/17/11 16/24/11 17/1/11
f 30/25/12 42/26/12 38/27/12
f 11/19/13 16/24/13 12/23/13
f 28/28/14 41/29/14 39/30/14
f 16/24/15 22/31/15 17/1/15
f 19/32/16 35/33/16 18/34/16
f 15/35/17 21/36/17 16/24/17
f 20/37/18 34/38/18 36/39/18
f 22/31/19 26/40/19 27/2/19
f 19/41/20 25/42/20 20/43/20
f 1/21/9 18/44/9 14/45/9
f 20/43/21 26/40/21 21/36/21
f 18/44/22 24/46/22 19/41/22
f 27/47/23 4/6/23 5/10/23
f 24/48/24 3/4/24 25/49/24
f 25/49/25 4/6/25 26/50/25
f 23/51/26 2/9/26 24/48/26
f 13/17/1 5/3/1 10/18/1
f 31/52/27 36/39/27 34/38/27
f 31/52/28 35/33/28 32/53/28
f 30/54/29 33/55/29 31/52/29
f 18/34/30 33/55/30 14/56/30
f 19/32/31 36/39/31 32/53/31
f 30/54/32 34/38/32 15/57/32
f 37/58/33 42/26/33 40/59/33
f 37/58/34 41/29/34 38/27/34
f 29/60/35 40/59/35 11/61/35
f 11/61/36 42/26/36 15/62/36
f 30/25/37 41/29/37 14/63/37
f 29/60/38 39/30/38 37/58/38
f 17/1/1 22/31/1 27/2/1
f 3/4/2 8/12/2 9/5/2
f 1/7/3 6/64/3 7/8/3
f 5/10/4 4/6/4 9/5/4
f 2/9/5 7/8/5 8/12/5
f 6/13/6 28/22/6 29/14/6
f 9/16/7 12/23/7 13/17/7
f 7/15/8 29/14/8 11/19/8
f 1/21/9 14/45/9 28/22/9
f 8/20/10 11/19/10 12/23/10
f 13/17/11 12/23/11 16/24/11
f 30/25/39 15/62/39 42/26/39
f 11/19/13 15/35/13 16/24/13
f 28/28/40 14/63/40 41/29/40
f 16/24/15 21/36/15 22/31/15
f 19/32/41 32/53/41 35/33/41
f 15/35/42 20/43/42 21/36/42
f 20/37/18 15/57/18 34/38/18
f 22/31/19 21/36/19 26/40/19
f 19/41/43 24/46/43 25/42/43
f 1/21/44 23/65/44 18/44/44
f 20/43/21 25/42/21 26/40/21
f 18/44/22 23/65/22 24/46/22
f 27/47/45 26/50/45 4/6/45
f 24/48/24 2/9/24 3/4/24
f 25/49/46 3/4/46 4/6/46
f 23/51/26 1/7/26 2/9/26
f 13/17/1 17/1/1 5/3/1
f 31/52/27 32/53/27 36/39/27
f 31/52/28 33/55/28 35/33/28
f 30/54/47 14/56/47 33/55/47
f 18/34/30 35/33/30 33/55/30
f 19/32/48 20/37/48 36/39/48
f 30/54/49 31/52/49 34/38/49
f 37/58/50 38/27/50 42/26/50
f 37/58/51 39/30/51 41/29/51
f 29/60/52 37/58/52 40/59/52
f 11/61/36 40/59/36 42/26/36
f 30/25/53 38/27/53 41/29/53
f 29/60/54 28/28/54 39/30/54
v -0.436646 2.836113 -7.758094
v -0.420043 2.815806 -7.769650
v -0.414288 2.788112 -7.774287
v -0.420925 2.760451 -7.770763
v -0.438174 2.740235 -7.760022
v -0.435024 2.835532 -7.730461
v -0.417232 2.814799 -7.721788
v -0.411043 2.786949 -7.719021
v -0.418114 2.759443 -7.722901
v -0.436551 2.739653 -7.732389
v -0.457287 2.787073 -7.688562
v -0.458163 2.759551 -7.696523
v -0.459673 2.739715 -7.717160
v -0.482890 2.836238 -7.727635
v -0.506776 2.788361 -7.713370
v -0.501022 2.760666 -7.718008
v -0.484418 2.740359 -7.729564
v -0.484513 2.836819 -7.755269
v -0.502950 2.817029 -7.764756
v -0.510021 2.789524 -7.768636
v -0.503832 2.761673 -7.765870
v -0.486041 2.740941 -7.757197
v -0.461391 2.836757 -7.770498
v -0.462901 2.816921 -7.791134
v -0.463777 2.789399 -7.799095
v -0.463784 2.761566 -7.792247
v -0.462919 2.740878 -7.772426
v -0.458146 2.835594 -7.715231
v -0.457281 2.814907 -7.695410
v -0.500139 2.816022 -7.716894
v -0.541738 2.836794 -7.736079
v -0.541967 2.836876 -7.739984
v -0.506195 2.842373 -7.733142
v -0.529356 2.804750 -7.728790
v -0.506998 2.842661 -7.746821
v -0.530601 2.805196 -7.750007
v -0.491425 2.834444 -7.667134
v -0.501569 2.834707 -7.672219
v -0.485710 2.839882 -7.684094
v -0.489679 2.813479 -7.676594
v -0.490359 2.840003 -7.686424
v -0.494341 2.813601 -7.678932
vt 0.274240 0.539347
vt 0.265397 0.539709
vt 0.266768 0.532487
vt 0.231414 0.551290
vt 0.214659 0.541092
vt 0.231357 0.542861
vt 0.231940 0.569242
vt 0.215985 0.562822
vt 0.231472 0.559719
vt 0.230890 0.533338
vt 0.220414 0.530957
vt 0.213134 0.552274
vt 0.289666 0.544440
vt 0.282983 0.540904
vt 0.290637 0.536818
vt 0.279682 0.529141
vt 0.275518 0.536619
vt 0.273707 0.532162
vt 0.280945 0.538772
vt 0.286431 0.530872
vt 0.290637 0.551375
vt 0.284312 0.543753
vt 0.278488 0.537315
vt 0.276318 0.541045
vt 0.804698 0.251197
vt 0.792375 0.255919
vt 0.792638 0.252041
vt 0.786357 0.239035
vt 0.792578 0.249274
vt 0.791489 0.249454
vt 0.271776 0.541127
vt 0.760733 0.199751
vt 0.757502 0.209505
vt 0.750621 0.206121
vt 0.278108 0.542645
vt 0.273009 0.544115
vt 0.772804 0.201934
vt 0.766718 0.213101
vt 0.766203 0.208706
vt 0.264007 0.548518
vt 0.277612 0.547903
vt 0.268747 0.555467
vt 0.275021 0.546378
vt 0.280714 0.548498
vt 0.281954 0.545638
vt 0.276612 0.557409
vt 0.240880 0.530957
vt 0.248168 0.561486
vt 0.249693 0.550306
vt 0.246843 0.539760
vt 0.242415 0.571620
vt 0.762287 0.211045
vt 0.762255 0.210544
vt 0.761023 0.221925
vt 0.757316 0.212491
vt 0.750922 0.216572
vt 0.772804 0.220841
vt 0.791613 0.252007
vt 0.791097 0.255536
vt 0.780068 0.250772
vt 0.780487 0.263708
vt 0.804698 0.264828
vt 0.798786 0.238814
vt 0.221949 0.571626
vt 0.283377 0.553479
vn -0.0159 -0.9997 -0.0201
vn 0.9687 -0.2403 -0.0619
vn 0.7650 0.6433 -0.0314
vn 0.7441 -0.6655 -0.0577
vn 0.9759 0.2116 -0.0528
vn 0.4261 0.6351 0.6443
vn 0.4052 -0.6738 0.6180
vn 0.5392 0.2011 0.8178
vn 0.0159 0.9997 0.0201
vn 0.5320 -0.2509 0.8087
vn -0.3493 -0.6626 0.6625
vn -0.9272 -0.3553 0.1189
vn -0.4403 -0.2365 0.8661
vn 0.0655 0.9947 -0.0790
vn -0.7650 -0.6433 0.0314
vn -0.1659 0.5477 -0.8201
vn -0.9759 -0.2116 0.0528
vn -0.5954 -0.8033 0.0181
vn -0.4260 -0.6351 -0.6443
vn -0.5320 0.2509 -0.8087
vn -0.5392 -0.2011 -0.8178
vn -0.4052 0.6738 -0.6180
vn 0.3285 -0.6463 -0.6888
vn 0.4403 0.2365 -0.8661
vn 0.4331 -0.2154 -0.8752
vn 0.3493 0.6626 -0.6625
vn -0.9353 -0.3506 0.0475
vn -0.1575 0.9871 0.0300
vn -0.1483 0.4941 0.8566
vn 0.2534 0.9674 0.0055
vn -0.4994 0.0934 -0.8613
vn -0.4386 0.2164 0.8722
vn -0.4186 -0.4023 0.8142
vn -0.1103 0.9566 0.2696
vn 0.4843 0.2089 0.8496
vn -0.3353 -0.6981 0.6327
vn -0.7950 0.5739 -0.1965
vn 0.6874 0.5916 0.4213
vn 0.7441 -0.6656 -0.0577
vn 0.9759 0.2116 -0.0529
vn 0.4052 -0.6738 0.6179
vn -0.9547 0.2497 0.1617
vn -0.2463 0.5292 -0.8119
vn -0.9759 -0.2116 0.0529
vn -0.5954 -0.8032 0.0180
vn -0.4261 -0.6351 -0.6443
vn 0.3285 -0.6462 -0.6888
vn -0.9353 -0.3506 0.0476
vn -0.1574 0.9871 0.0300
vn -0.0674 0.5124 0.8561
vn -0.5371 0.2517 -0.8051
vn -0.3950 0.0560 0.9170
vn -0.4185 -0.4023 0.8142
vn -0.1102 0.9566 0.2696
vn 0.4855 -0.3257 0.8113
vn -0.3354 -0.6981 0.6326
vn -0.6896 0.6600 -0.2981
vn 0.6709 0.5275 0.5212
s off
f 59/66/55 69/67/55 47/68/55
f 45/69/56 51/70/56 46/71/56
f 43/72/57 49/73/57 44/74/57
f 47/75/58 51/70/58 52/76/58
f 44/74/59 50/77/59 45/69/59
f 48/78/60 71/79/60 49/80/60
f 51/81/61 55/82/61 52/83/61
f 49/80/62 53/84/62 50/85/62
f 43/86/63 70/87/63 48/78/63
f 50/85/64 54/88/64 51/81/64
f 55/82/65 58/89/65 59/66/65
f 72/90/66 84/91/66 80/92/66
f 53/84/67 58/89/67 54/88/67
f 70/93/68 83/94/68 81/95/68
f 58/89/69 64/96/69 59/66/69
f 61/97/70 77/98/70 60/99/70
f 57/100/71 63/101/71 58/89/71
f 62/102/72 76/103/72 78/104/72
f 64/96/73 68/105/73 69/67/73
f 61/106/74 67/107/74 62/108/74
f 43/86/63 60/109/63 56/110/63
f 62/108/75 68/105/75 63/101/75
f 60/109/76 66/111/76 61/106/76
f 69/112/77 46/71/77 47/75/77
f 66/113/78 45/69/78 67/114/78
f 67/114/79 46/71/79 68/115/79
f 65/116/80 44/74/80 66/113/80
f 55/82/55 47/68/55 52/83/55
f 73/117/81 78/104/81 76/103/81
f 73/117/82 77/98/82 74/118/82
f 72/119/83 75/120/83 73/117/83
f 60/99/84 75/120/84 56/121/84
f 61/97/85 78/104/85 74/118/85
f 72/119/86 76/103/86 57/122/86
f 79/123/87 84/91/87 82/124/87
f 79/123/88 83/94/88 80/92/88
f 71/125/89 82/124/89 53/126/89
f 53/126/90 84/91/90 57/127/90
f 72/90/91 83/94/91 56/128/91
f 71/125/92 81/95/92 79/123/92
f 59/66/55 64/96/55 69/67/55
f 45/69/56 50/77/56 51/70/56
f 43/72/57 48/129/57 49/73/57
f 47/75/93 46/71/93 51/70/93
f 44/74/94 49/73/94 50/77/94
f 48/78/60 70/87/60 71/79/60
f 51/81/95 54/88/95 55/82/95
f 49/80/62 71/79/62 53/84/62
f 43/86/63 56/110/63 70/87/63
f 50/85/64 53/84/64 54/88/64
f 55/82/65 54/88/65 58/89/65
f 72/90/96 57/127/96 84/91/96
f 53/84/67 57/100/67 58/89/67
f 70/93/68 56/128/68 83/94/68
f 58/89/69 63/101/69 64/96/69
f 61/97/97 74/118/97 77/98/97
f 57/100/98 62/108/98 63/101/98
f 62/102/99 57/122/99 76/103/99
f 64/96/100 63/101/100 68/105/100
f 61/106/74 66/111/74 67/107/74
f 43/86/63 65/130/63 60/109/63
f 62/108/75 67/107/75 68/105/75
f 60/109/76 65/130/76 66/111/76
f 69/112/101 68/115/101 46/71/101
f 66/113/78 44/74/78 45/69/78
f 67/114/79 45/69/79 46/71/79
f 65/116/80 43/72/80 44/74/80
f 55/82/55 59/66/55 47/68/55
f 73/117/102 74/118/102 78/104/102
f 73/117/103 75/120/103 77/98/103
f 72/119/104 56/121/104 75/120/104
f 60/99/84 77/98/84 75/120/84
f 61/97/105 62/102/105 78/104/105
f 72/119/106 73/117/106 76/103/106
f 79/123/107 80/92/107 84/91/107
f 79/123/108 81/95/108 83/94/108
f 71/125/109 79/123/109 82/124/109
f 53/126/110 82/124/110 84/91/110
f 72/90/111 80/92/111 83/94/111
f 71/125/112 70/93/112 81/95/112
v 1.158431 3.660628 -3.384484
v 1.165740 3.644536 -3.361918
v 1.163607 3.620064 -3.347147
v 1.152603 3.593769 -3.344130
v 1.135678 3.572697 -3.353674
v 1.131795 3.668038 -3.383007
v 1.119605 3.657370 -3.359359
v 1.110335 3.634884 -3.344193
v 1.106469 3.606604 -3.341571
v 1.109042 3.580107 -3.352197
v 1.077230 3.628081 -3.388057
v 1.077799 3.600712 -3.379558
v 1.092490 3.576705 -3.374129
v 1.125326 3.653824 -3.428348
v 1.097397 3.606457 -3.434875
v 1.095264 3.581985 -3.420105
v 1.102573 3.565894 -3.397538
v 1.151962 3.646415 -3.429826
v 1.154536 3.619918 -3.440451
v 1.150669 3.591637 -3.437830
v 1.141399 3.569151 -3.422663
v 1.129209 3.558484 -3.399015
v 1.168514 3.649816 -3.407894
v 1.183205 3.625810 -3.402464
v 1.183774 3.598441 -3.393966
v 1.170069 3.575043 -3.384676
v 1.145762 3.561885 -3.377084
v 1.115243 3.664636 -3.404939
v 1.090936 3.651479 -3.397346
v 1.108401 3.632752 -3.437893
v 1.128774 3.632873 -3.483881
v 1.132538 3.631826 -3.484089
v 1.130286 3.650309 -3.452309
v 1.114586 3.609817 -3.461512
v 1.143471 3.646641 -3.453040
v 1.135037 3.604127 -3.462646
v 1.065884 3.665634 -3.436322
v 1.070018 3.661201 -3.445919
v 1.084080 3.667881 -3.432617
v 1.069787 3.644663 -3.427546
v 1.085974 3.665850 -3.437016
v 1.071687 3.642626 -3.431957
vt 0.274240 0.539347
vt 0.265397 0.539709
vt 0.266768 0.532487
vt 0.231414 0.551290
vt 0.214659 0.541092
vt 0.231357 0.542861
vt 0.231940 0.569242
vt 0.215985 0.562822
vt 0.231472 0.559719
vt 0.230890 0.533338
vt 0.220414 0.530957
vt 0.213134 0.552274
vt 0.289666 0.544440
vt 0.282983 0.540904
vt 0.290637 0.536818
vt 0.279682 0.529141
vt 0.275518 0.536619
vt 0.273707 0.532162
vt 0.280945 0.538772
vt 0.286431 0.530872
vt 0.290637 0.551375
vt 0.284312 0.543753
vt 0.278488 0.537315
vt 0.276318 0.541045
vt 0.804698 0.251197
vt 0.792375 0.255919
vt 0.792638 0.252041
vt 0.786357 0.239035
vt 0.792578 0.249274
vt 0.791489 0.249454
vt 0.271776 0.541127
vt 0.760733 0.199751
vt 0.757502 0.209505
vt 0.750621 0.206121
vt 0.278108 0.542645
vt 0.273009 0.544115
vt 0.772804 0.201934
vt 0.766718 0.213101
vt 0.766203 0.208706
vt 0.264007 0.548518
vt 0.277612 0.547903
vt 0.268747 0.555467
vt 0.275021 0.546378
vt 0.280714 0.548498
vt 0.281954 0.545638
vt 0.276612 0.557409
vt 0.240880 0.530957
vt 0.248168 0.561486
vt 0.249693 0.550306
vt 0.246843 0.539760
vt 0.242415 0.571620
vt 0.762287 0.211045
vt 0.762255 0.210544
vt 0.761023 0.221925
vt 0.757316 0.212491
vt 0.750922 0.216572
vt 0.772804 0.220841
vt 0.791613 0.252007
vt 0.791097 0.255536
vt 0.780068 0.250772
vt 0.780487 0.263708
vt 0.804698 0.264828
vt 0.798786 0.238814
vt 0.221949 0.571626
vt 0.283377 0.553479
vn -0.2372 -0.9168 0.3213
vn 0.0778 0.0815 0.9936
vn 0.2573 0.8242 0.5044
vn -0.0533 -0.3761 0.9250
vn 0.1850 0.4960 0.8484
vn -0.4235 0.8874 0.1820
vn -0.7341 -0.3130 0.6026
vn -0.6923 0.5774 0.4329
vn 0.2372 0.9168 -0.3212
vn -0.7995 0.1629 0.5781
vn -0.8361 -0.5370 -0.1121
vn -0.2814 -0.5926 -0.7548
vn -0.9309 -0.1258 -0.3429
vn 0.3355 0.9019 -0.2720
vn -0.2573 -0.8242 -0.5044
vn 0.9163 0.2225 -0.3330
vn -0.1850 -0.4960 -0.8484
vn -0.2714 -0.9175 -0.2908
vn 0.4235 -0.8874 -0.1820
vn 0.7995 -0.1629 -0.5781
vn 0.6923 -0.5774 -0.4329
vn 0.7341 0.3130 -0.6026
vn 0.5255 -0.6634 0.5327
vn 0.9309 0.1258 0.3429
vn 0.8237 -0.2887 0.4881
vn 0.8361 0.5370 0.1121
vn -0.2372 -0.9168 0.3212
vn -0.2121 -0.6101 -0.7634
vn 0.2103 0.8515 -0.4803
vn -0.7112 0.6292 -0.3134
vn 0.2625 0.9610 -0.0866
vn 0.8126 -0.3091 -0.4940
vn -0.8210 0.2869 -0.4936
vn -0.9215 -0.2829 -0.2662
vn -0.0245 0.9035 -0.4279
vn -0.7254 0.5751 0.3782
vn -0.8153 -0.5725 -0.0867
vn 0.2707 0.2083 -0.9399
vn -0.1984 0.8734 0.4448
vn 0.1850 0.4959 0.8484
vn 0.2372 0.9168 -0.3213
vn -0.1704 -0.0417 -0.9845
vn 0.8971 0.1818 -0.4026
vn 0.2102 0.8515 -0.4803
vn -0.6994 0.6720 -0.2434
vn 0.2626 0.9610 -0.0867
vn 0.7958 -0.1629 -0.5833
vn -0.9015 0.1677 -0.3989
vn -0.9215 -0.2829 -0.2663
vn -0.0245 0.9035 -0.4278
vn -0.8249 0.0806 0.5595
vn -0.8152 -0.5726 -0.0867
vn 0.3992 0.2935 -0.8686
vn -0.3124 0.8367 0.4498
s off
f 101/131/113 111/132/113 89/133/113
f 87/134/114 93/135/114 88/136/114
f 85/137/115 91/138/115 86/139/115
f 89/140/116 93/135/116 94/141/116
f 86/139/117 92/142/117 87/134/117
f 90/143/118 113/144/118 91/145/118
f 93/146/119 97/147/119 94/148/119
f 91/145/120 95/149/120 92/150/120
f 85/151/121 112/152/121 90/143/121
f 92/150/122 96/153/122 93/146/122
f 97/147/123 100/154/123 101/131/123
f 114/155/124 126/156/124 122/157/124
f 95/149/125 100/154/125 96/153/125
f 112/158/126 125/159/126 123/160/126
f 100/154/127 106/161/127 101/131/127
f 103/162/128 119/163/128 102/164/128
f 99/165/129 105/166/129 100/154/129
f 104/167/130 118/168/130 120/169/130
f 106/161/131 110/170/131 111/132/131
f 103/171/132 109/172/132 104/173/132
f 85/151/121 102/174/121 98/175/121
f 104/173/133 110/170/133 105/166/133
f 102/174/134 108/176/134 103/171/134
f 111/177/135 88/136/135 89/140/135
f 108/178/136 87/134/136 109/179/136
f 109/179/137 88/136/137 110/180/137
f 107/181/138 86/139/138 108/178/138
f 97/147/139 89/133/139 94/148/139
f 115/182/140 120/169/140 118/168/140
f 115/182/141 119/163/141 116/183/141
f 114/184/142 117/185/142 115/182/142
f 102/164/143 117/185/143 98/186/143
f 103/162/144 120/169/144 116/183/144
f 114/184/145 118/168/145 99/187/145
f 121/188/146 126/156/146 124/189/146
f 121/188/147 125/159/147 122/157/147
f 113/190/148 124/189/148 95/191/148
f 95/191/149 126/156/149 99/192/149
f 114/155/150 125/159/150 98/193/150
f 113/190/151 123/160/151 121/188/151
f 101/131/139 106/161/139 111/132/139
f 87/134/114 92/142/114 93/135/114
f 85/137/115 90/194/115 91/138/115
f 89/140/116 88/136/116 93/135/116
f 86/139/152 91/138/152 92/142/152
f 90/143/118 112/152/118 113/144/118
f 93/146/119 96/153/119 97/147/119
f 91/145/120 113/144/120 95/149/120
f 85/151/153 98/175/153 112/152/153
f 92/150/122 95/149/122 96/153/122
f 97/147/123 96/153/123 100/154/123
f 114/155/154 99/192/154 126/156/154
f 95/149/125 99/165/125 100/154/125
f 112/158/126 98/193/126 125/159/126
f 100/154/127 105/166/127 106/161/127
f 103/162/155 116/183/155 119/163/155
f 99/165/129 104/173/129 105/166/129
f 104/167/130 99/187/130 118/168/130
f 106/161/131 105/166/131 110/170/131
f 103/171/132 108/176/132 109/172/132
f 85/151/121 107/195/121 102/174/121
f 104/173/133 109/172/133 110/170/133
f 102/174/134 107/195/134 108/176/134
f 111/177/135 110/180/135 88/136/135
f 108/178/136 86/139/136 87/134/136
f 109/179/137 87/134/137 88/136/137
f 107/181/138 85/137/138 86/139/138
f 97/147/139 101/131/139 89/133/139
f 115/182/140 116/183/140 120/169/140
f 115/182/156 117/185/156 119/163/156
f 114/184/157 98/186/157 117/185/157
f 102/164/158 119/163/158 117/185/158
f 103/162/159 104/167/159 120/169/159
f 114/184/160 115/182/160 118/168/160
f 121/188/161 122/157/161 126/156/161
f 121/188/162 123/160/162 125/159/162
f 113/190/163 121/188/163 124/189/163
f 95/191/164 124/189/164 126/156/164
f 114/155/165 122/157/165 125/159/165
f 113/190/166 112/158/166 123/160/166
