# Blender v2.81 (sub 16) OBJ File: 'garbage.blend'
# www.blender.org
v -1.959270 2.748697 4.363772
v -1.966426 2.722739 4.353947
v -1.963168 2.694264 4.354387
v -1.950370 2.670904 4.364975
v -1.931461 2.658917 4.382874
v -1.933372 2.755153 4.356411
v -1.921569 2.733920 4.341198
v -1.911372 2.707175 4.339666
v -1.905514 2.682085 4.352226
v -1.905563 2.665372 4.375514
v -1.875767 2.726261 4.377537
v -1.874679 2.698614 4.385024
v -1.887761 2.674915 4.394449
v -1.923665 2.767783 4.401643
v -1.891958 2.732436 4.430130
v -1.888700 2.703962 4.430571
v -1.895856 2.678003 4.420745
v -1.949563 2.761328 4.409004
v -1.949612 2.744615 4.432291
v -1.943754 2.719525 4.444851
v -1.933557 2.692780 4.443319
v -1.921754 2.671547 4.428106
v -1.967365 2.751785 4.390068
v -1.980447 2.728086 4.399493
v -1.979359 2.700439 4.406980
v -1.964392 2.676251 4.410522
v -1.939557 2.662004 4.409170
v -1.915569 2.764696 4.375347
v -1.890734 2.750449 4.373995
v -1.904755 2.755796 4.419542
v -1.922833 2.779838 4.459856
v -1.926493 2.778926 4.460896
v -1.927181 2.777508 4.424096
v -1.908043 2.748929 4.452164
v -1.940001 2.774313 4.427740
v -1.927927 2.743973 4.457815
v -1.864967 2.784263 4.397227
v -1.868286 2.785529 4.408008
v -1.883439 2.783479 4.394389
v -1.867696 2.761731 4.401339
v -1.884960 2.784059 4.399329
v -1.869221 2.762313 4.406294
vt 0.274240 0.539347
vt 0.265397 0.539709
vt 0.266768 0.532487
vt 0.231414 0.551290
vt 0.214659 0.541092
vt 0.231357 0.542861
vt 0.231940 0.569242
vt 0.215985 0.562822
vt 0.231472 0.559719
vt 0.230890 0.533338
vt 0.220414 0.530957
vt 0.213134 0.552274
vt 0.289666 0.544440
vt 0.282983 0.540904
vt 0.290637 0.536818
vt 0.279682 0.529141
vt 0.275518 0.536619
vt 0.273707 0.532162
vt 0.280945 0.538772
vt 0.286431 0.530872
vt 0.290637 0.551375
vt 0.284312 0.543753
vt 0.278488 0.537315
vt 0.276318 0.541045
vt 0.804698 0.251197
vt 0.792375 0.255919
vt 0.792638 0.252041
vt 0.786357 0.239035
vt 0.792578 0.249274
vt 0.791489 0.249454
vt 0.271776 0.541127
vt 0.760733 0.199751
vt 0.757502 0.209505
vt 0.750621 0.206121
vt 0.278108 0.542645
vt 0.273009 0.544115
vt 0.772804 0.201934
vt 0.766718 0.213101
vt 0.766203 0.208706
vt 0.264007 0.548518
vt 0.277612 0.547903
vt 0.268747 0.555467
vt 0.275021 0.546378
vt 0.280714 0.548498
vt 0.281954 0.545638
vt 0.276612 0.557409
vt 0.240880 0.530957
vt 0.248168 0.561486
vt 0.249693 0.550306
vt 0.246843 0.539760
vt 0.242415 0.571620
vt 0.762287 0.211045
vt 0.762255 0.210544
vt 0.761023 0.221925
vt 0.757316 0.212491
vt 0.750922 0.216572
vt 0.772804 0.220841
vt 0.791613 0.252007
vt 0.791097 0.255536
vt 0.780068 0.250772
vt 0.780487 0.263708
vt 0.804698 0.264828
vt 0.798786 0.238814
vt 0.221949 0.571626
vt 0.283377 0.553479
vn 0.2900 -0.9361 0.1992
vn -0.1316 -0.4682 -0.8738
vn -0.3428 0.4137 -0.8434
vn 0.0368 -0.8119 -0.5826
vn -0.2627 -0.0450 -0.9638
vn 0.3460 0.6659 -0.6609
vn 0.7257 -0.5597 -0.4002
vn 0.6250 0.2800 -0.7287
vn -0.2899 0.9361 -0.1992
vn 0.7560 -0.1432 -0.6387
vn 0.8787 -0.3606 0.3128
vn 0.3615 -0.0831 0.9287
vn 0.9532 0.1134 0.2802
vn -0.3891 0.8934 -0.2247
vn 0.3428 -0.4137 0.8434
vn -0.9133 0.3318 0.2362
vn 0.2627 0.0450 0.9638
vn 0.3536 -0.6065 0.7121
vn -0.3460 -0.6659 0.6609
vn -0.7560 0.1432 0.6387
vn -0.6250 -0.2800 0.7287
vn -0.7257 0.5597 0.4001
vn -0.4990 -0.8650 -0.0521
vn -0.9532 -0.1134 -0.2801
vn -0.8222 -0.5366 -0.1901
vn -0.8787 0.3606 -0.3128
vn 0.2899 -0.9361 0.1991
vn 0.2942 -0.0959 0.9509
vn -0.2505 0.9676 -0.0326
vn 0.6760 0.7254 -0.1295
vn -0.3298 0.8463 -0.4182
vn -0.7621 -0.0257 0.6469
vn 0.8199 0.5380 0.1959
vn 0.9520 -0.0605 0.3002
vn -0.0231 0.9921 -0.1236
vn 0.6608 0.3087 -0.6841
vn 0.8594 -0.4050 0.3121
vn -0.2398 0.6703 0.7023
vn 0.1102 0.5044 -0.8564
vn 0.2899 -0.9361 0.1992
vn -0.2900 0.9361 -0.1992
vn 0.7561 -0.1432 -0.6387
vn 0.2204 0.5003 0.8373
vn 0.9532 0.1134 0.2801
vn -0.8878 0.3356 0.3150
vn -0.7561 0.1432 0.6386
vn -0.7256 0.5597 0.4002
vn -0.4991 -0.8650 -0.0521
vn -0.9532 -0.1134 -0.2802
vn 0.2939 -0.0959 0.9510
vn -0.2504 0.9676 -0.0326
vn 0.6576 0.7234 -0.2103
vn -0.7521 0.1461 0.6427
vn 0.9045 0.3897 0.1732
vn -0.0231 0.9920 -0.1237
vn 0.7884 -0.2015 -0.5812
vn -0.3778 0.6989 0.6073
vn 0.2263 0.4751 -0.8504
s off
f 17/1/1 27/2/1 5/3/1
f 3/4/2 9/5/2 4/6/2
f 1/7/3 7/8/3 2/9/3
f 5/10/4 9/5/4 10/11/4
f 2/9/5 8/12/5 3/4/5
f 6/13/6 29/14/6 7/15/6
f 9/16/7 13/17/7 10/18/7
f 7/15/8 11/19/8 8/20/8
f 1/21/9 28/22/9 6/13/9
f 8/20/10 12/23/10 9/16/10
f 13/17/11 16/24/11 17/1/11
f 30/25/12 42/26/12 38/27/12
f 11/19/13 16/24/13 12/23/13
f 28/28/14 41/29/14 39/30/14
f 16/24/15 22/31/15 17/1/15
f 19/32/16 35/33/16 18/34/16
f 15/35/17 21/36/17 16/24/17
f 20/37/18 34/38/18 36/39/18
f 22/31/19 26/40/19 27/2/19
f 19/41/20 25/42/20 20/43/20
f 1/21/9 18/44/9 14/45/9
f 20/43/21 26/40/21 21/36/21
f 18/44/22 24/46/22 19/41/22
f 27/47/23 4/6/23 5/10/23
f 24/48/24 3/4/24 25/49/24
f 25/49/25 4/6/25 26/50/25
f 23/51/26 2/9/26 24/48/26
f 13/17/27 5/3/27 10/18/27
f 31/52/28 36/39/28 34/38/28
f 31/52/29 35/33/29 32/53/29
f 30/54/30 33/55/30 31/52/30
f 18/34/31 33/55/31 14/56/31
f 19/32/32 36/39/32 32/53/32
f 30/54/33 34/38/33 15/57/33
f 37/58/34 42/26/34 40/59/34
f 37/58/35 41/29/35 38/27/35
f 29/60/36 40/59/36 11/61/36
f 11/61/37 42/26/37 15/62/37
f 30/25/38 41/29/38 14/63/38
f 29/60/39 39/30/39 37/58/39
f 17/1/40 22/31/40 27/2/40
f 3/4/2 8/12/2 9/5/2
f 1/7/3 6/64/3 7/8/3
f 5/10/4 4/6/4 9/5/4
f 2/9/5 7/8/5 8/12/5
f 6/13/6 28/22/6 29/14/6
f 9/16/7 12/23/7 13/17/7
f 7/15/8 29/14/8 11/19/8
f 1/21/41 14/45/41 28/22/41
f 8/20/42 11/19/42 12/23/42
f 13/17/11 12/23/11 16/24/11
f 30/25/43 15/62/43 42/26/43
f 11/19/44 15/35/44 16/24/44
f 28/28/14 14/63/14 41/29/14
f 16/24/15 21/36/15 22/31/15
f 19/32/45 32/53/45 35/33/45
f 15/35/17 20/43/17 21/36/17
f 20/37/18 15/57/18 34/38/18
f 22/31/19 21/36/19 26/40/19
f 19/41/46 24/46/46 25/42/46
f 1/21/9 23/65/9 18/44/9
f 20/43/21 25/42/21 26/40/21
f 18/44/47 23/65/47 24/46/47
f 27/47/48 26/50/48 4/6/48
f 24/48/49 2/9/49 3/4/49
f 25/49/25 3/4/25 4/6/25
f 23/51/26 1/7/26 2/9/26
f 13/17/40 17/1/40 5/3/40
f 31/52/50 32/53/50 36/39/50
f 31/52/51 33/55/51 35/33/51
f 30/54/52 14/56/52 33/55/52
f 18/34/31 35/33/31 33/55/31
f 19/32/53 20/37/53 36/39/53
f 30/54/54 31/52/54 34/38/54
f 37/58/34 38/27/34 42/26/34
f 37/58/55 39/30/55 41/29/55
f 29/60/56 37/58/56 40/59/56
f 11/61/37 40/59/37 42/26/37
f 30/25/57 38/27/57 41/29/57
f 29/60/58 28/28/58 39/30/58
v 3.575309 3.646180 0.985454
v 3.568448 3.627979 1.006508
v 3.565716 3.601149 1.016219
v 3.567845 3.572880 1.011985
v 3.574264 3.550746 0.994941
v 3.557191 3.644306 0.964602
v 3.537067 3.624732 0.970391
v 3.529481 3.597400 0.974515
v 3.536464 3.569633 0.975868
v 3.556146 3.548872 0.974090
v 3.547621 3.592028 0.922473
v 3.552175 3.564981 0.930799
v 3.565217 3.546185 0.948069
v 3.593450 3.640808 0.933413
v 3.601998 3.590405 0.912136
v 3.599266 3.563575 0.921847
v 3.592405 3.545374 0.942900
v 3.611567 3.642683 0.954265
v 3.631249 3.621921 0.952486
v 3.638233 3.594154 0.953840
v 3.630646 3.566822 0.957963
v 3.610522 3.547248 0.963752
v 3.602497 3.645369 0.980285
v 3.615539 3.626573 0.997555
v 3.620092 3.599526 1.005881
v 3.614936 3.571474 1.003032
v 3.601452 3.549934 0.989773
v 3.566262 3.641620 0.938582
v 3.552778 3.620080 0.925322
v 3.599869 3.618674 0.916369
v 3.645265 3.636816 0.904535
v 3.647825 3.637081 0.907482
v 3.615497 3.645225 0.923142
v 3.629867 3.605601 0.909204
v 3.624465 3.646153 0.933464
v 3.643778 3.607040 0.925214
v 3.563347 3.635162 0.880513
v 3.574493 3.634829 0.878394
v 3.569328 3.641937 0.896889
v 3.566968 3.614940 0.891001
v 3.574436 3.641785 0.895918
v 3.572091 3.614787 0.890027
vt 0.274240 0.539347
vt 0.265397 0.539709
vt 0.266768 0.532487
vt 0.231414 0.551290
vt 0.214659 0.541092
vt 0.231357 0.542861
vt 0.231940 0.569242
vt 0.215985 0.562822
vt 0.231472 0.559719
vt 0.230890 0.533338
vt 0.220414 0.530957
vt 0.213134 0.552274
vt 0.289666 0.544440
vt 0.282983 0.540904
vt 0.290637 0.536818
vt 0.279682 0.529141
vt 0.275518 0.536619
vt 0.273707 0.532162
vt 0.280945 0.538772
vt 0.286431 0.530872
vt 0.290637 0.551375
vt 0.284312 0.543753
vt 0.278488 0.537315
vt 0.276318 0.541045
vt 0.804698 0.251197
vt 0.792375 0.255919
vt 0.792638 0.252041
vt 0.786357 0.239035
vt 0.792578 0.249274
vt 0.791489 0.249454
vt 0.271776 0.541127
vt 0.760733 0.199751
vt 0.757502 0.209505
vt 0.750621 0.206121
vt 0.278108 0.542645
vt 0.273009 0.544115
vt 0.772804 0.201934
vt 0.766718 0.213101
vt 0.766203 0.208706
vt 0.264007 0.548518
vt 0.277612 0.547903
vt 0.268747 0.555467
vt 0.275021 0.546378
vt 0.280714 0.548498
vt 0.281954 0.545638
vt 0.276612 0.557409
vt 0.240880 0.530957
vt 0.248168 0.561486
vt 0.249693 0.550306
vt 0.246843 0.539760
vt 0.242415 0.571620
vt 0.762287 0.211045
vt 0.762255 0.210544
vt 0.761023 0.221925
vt 0.757316 0.212491
vt 0.750922 0.216572
vt 0.772804 0.220841
vt 0.791613 0.252007
vt 0.791097 0.255536
vt 0.780068 0.250772
vt 0.780487 0.263708
vt 0.804698 0.264828
vt 0.798786 0.238814
vt 0.221949 0.571626
vt 0.283377 0.553479
vn -0.0109 -0.9950 0.0989
vn -0.7390 -0.1539 0.6559
vn -0.5644 0.7065 0.4269
vn -0.5787 -0.5963 0.5564
vn -0.7341 0.2960 0.6112
vn -0.7070 0.6347 -0.3120
vn -0.7213 -0.6682 -0.1825
vn -0.9178 0.2033 -0.3409
vn 0.0109 0.9950 -0.0989
vn -0.9228 -0.2465 -0.2962
vn -0.1497 -0.7233 -0.6741
vn 0.6500 -0.4383 -0.6208
vn -0.1862 -0.3176 -0.9298
vn 0.0317 0.9994 0.0100
vn 0.5644 -0.7065 -0.4269
vn 0.6500 0.5734 0.4987
vn 0.7341 -0.2960 -0.6112
vn 0.4323 -0.8506 -0.2992
vn 0.7070 -0.6347 0.3120
vn 0.9228 0.2465 0.2962
vn 0.9178 -0.2033 0.3409
vn 0.7213 0.6682 0.1825
vn 0.1355 -0.5795 0.8036
vn 0.1862 0.3176 0.9298
vn 0.1813 -0.1323 0.9745
vn 0.1497 0.7233 0.6741
vn 0.7001 -0.4305 -0.5696
vn 0.1418 0.9673 -0.2102
vn -0.3859 0.4347 -0.8137
vn -0.1696 0.9837 0.0589
vn 0.9233 0.0953 0.3722
vn -0.1751 0.1329 -0.9755
vn -0.1778 -0.4780 -0.8602
vn -0.0424 0.9286 -0.3687
vn -0.8933 0.2048 -0.4000
vn -0.1440 -0.7558 -0.6387
vn 0.7704 0.5139 -0.3773
vn -0.7802 0.6250 0.0263
vn -0.7070 0.6346 -0.3120
vn -0.7213 -0.6682 -0.1824
vn 0.6675 0.1592 -0.7274
vn 0.0317 0.9994 0.0099
vn 0.7081 0.5479 0.4454
vn 0.7070 -0.6346 0.3120
vn 0.7213 0.6681 0.1825
vn 0.1498 0.7233 0.6741
vn 0.7002 -0.4305 -0.5696
vn 0.1419 0.9673 -0.2102
vn -0.4490 0.4598 -0.7662
vn 0.9246 0.2467 0.2902
vn -0.2427 -0.0253 -0.9698
vn -0.0423 0.9286 -0.3687
vn -0.8902 -0.3250 -0.3194
vn -0.1440 -0.7558 -0.6388
vn 0.7517 0.6138 -0.2412
vn -0.8301 0.5547 -0.0568
s off
f 59/66/59 69/67/59 47/68/59
f 45/69/60 51/70/60 46/71/60
f 43/72/61 49/73/61 44/74/61
f 47/75/62 51/70/62 52/76/62
f 44/74/63 50/77/63 45/69/63
f 48/78/64 71/79/64 49/80/64
f 51/81/65 55/82/65 52/83/65
f 49/80/66 53/84/66 50/85/66
f 43/86/67 70/87/67 48/78/67
f 50/85/68 54/88/68 51/81/68
f 55/82/69 58/89/69 59/66/69
f 72/90/70 84/91/70 80/92/70
f 53/84/71 58/89/71 54/88/71
f 70/93/72 83/94/72 81/95/72
f 58/89/73 64/96/73 59/66/73
f 61/97/74 77/98/74 60/99/74
f 57/100/75 63/101/75 58/89/75
f 62/102/76 76/103/76 78/104/76
f 64/96/77 68/105/77 69/67/77
f 61/106/78 67/107/78 62/108/78
f 43/86/67 60/109/67 56/110/67
f 62/108/79 68/105/79 63/101/79
f 60/109/80 66/111/80 61/106/80
f 69/112/81 46/71/81 47/75/81
f 66/113/82 45/69/82 67/114/82
f 67/114/83 46/71/83 68/115/83
f 65/116/84 44/74/84 66/113/84
f 55/82/59 47/68/59 52/83/59
f 73/117/85 78/104/85 76/103/85
f 73/117/86 77/98/86 74/118/86
f 72/119/87 75/120/87 73/117/87
f 60/99/88 75/120/88 56/121/88
f 61/97/89 78/104/89 74/118/89
f 72/119/90 76/103/90 57/122/90
f 79/123/91 84/91/91 82/124/91
f 79/123/92 83/94/92 80/92/92
f 71/125/93 82/124/93 53/126/93
f 53/126/94 84/91/94 57/127/94
f 72/90/95 83/94/95 56/128/95
f 71/125/96 81/95/96 79/123/96
f 59/66/59 64/96/59 69/67/59
f 45/69/60 50/77/60 51/70/60
f 43/72/61 48/129/61 49/73/61
f 47/75/62 46/71/62 51/70/62
f 44/74/63 49/73/63 50/77/63
f 48/78/97 70/87/97 71/79/97
f 51/81/98 54/88/98 55/82/98
f 49/80/66 71/79/66 53/84/66
f 43/86/67 56/110/67 70/87/67
f 50/85/68 53/84/68 54/88/68
f 55/82/69 54/88/69 58/89/69
f 72/90/99 57/127/99 84/91/99
f 53/84/71 57/100/71 58/89/71
f 70/93/100 56/128/100 83/94/100
f 58/89/73 63/101/73 64/96/73
f 61/97/101 74/118/101 77/98/101
f 57/100/75 62/108/75 63/101/75
f 62/102/76 57/122/76 76/103/76
f 64/96/102 63/101/102 68/105/102
f 61/106/78 66/111/78 67/107/78
f 43/86/67 65/130/67 60/109/67
f 62/108/79 67/107/79 68/105/79
f 60/109/103 65/130/103 66/111/103
f 69/112/81 68/115/81 46/71/81
f 66/113/82 44/74/82 45/69/82
f 67/114/83 45/69/83 46/71/83
f 65/116/104 43/72/104 44/74/104
f 55/82/59 59/66/59 47/68/59
f 73/117/105 74/118/105 78/104/105
f 73/117/106 75/120/106 77/98/106
f 72/119/107 56/121/107 75/120/107
f 60/99/88 77/98/88 75/120/88
f 61/97/108 62/102/108 78/104/108
f 72/119/109 73/117/109 76/103/109
f 79/123/91 80/92/91 84/91/91
f 79/123/110 81/95/110 83/94/110
f 71/125/111 79/123/111 82/124/111
f 53/126/112 82/124/112 84/91/112
f 72/90/113 80/92/113 83/94/113
f 71/125/114 70/93/114 81/95/114
v 0.147930 4.457915 1.298282
v 0.132414 4.436093 1.308511
v 0.128334 4.407907 1.311752
v 0.136785 4.380909 1.307136
v 0.155502 4.362334 1.295900
v 0.146920 4.458525 1.270621
v 0.130664 4.437149 1.260600
v 0.126314 4.409126 1.256428
v 0.135035 4.381965 1.259224
v 0.154492 4.362943 1.268238
v 0.173077 4.413561 1.227106
v 0.175534 4.385806 1.233831
v 0.177873 4.365161 1.253577
v 0.194693 4.462350 1.268960
v 0.221861 4.416778 1.253108
v 0.217781 4.388591 1.256348
v 0.202265 4.366769 1.266577
v 0.195704 4.461741 1.296622
v 0.215160 4.442719 1.305636
v 0.223881 4.415558 1.308431
v 0.219531 4.387536 1.304260
v 0.203275 4.366159 1.294239
v 0.172322 4.459523 1.311283
v 0.174661 4.438878 1.331029
v 0.177118 4.411123 1.337753
v 0.179033 4.383694 1.329654
v 0.179893 4.363942 1.308900
v 0.170302 4.460742 1.255960
v 0.171162 4.440990 1.235206
v 0.213410 4.443775 1.257724
v 0.253200 4.466187 1.278807
v 0.253343 4.466101 1.282716
v 0.217443 4.469666 1.275288
v 0.243030 4.433807 1.269784
v 0.217943 4.469364 1.288981
v 0.243806 4.433339 1.291022
v 0.204575 4.463921 1.208658
v 0.214575 4.464580 1.213988
v 0.198177 4.468194 1.225708
v 0.203968 4.442470 1.217115
v 0.202760 4.468496 1.228150
v 0.208564 4.442772 1.219565
vt 0.274240 0.539347
vt 0.265397 0.539709
vt 0.266768 0.532487
vt 0.231414 0.551290
vt 0.214659 0.541092
vt 0.231357 0.542861
vt 0.231940 0.569242
vt 0.215985 0.562822
vt 0.231472 0.559719
vt 0.230890 0.533338
vt 0.220414 0.530957
vt 0.213134 0.552274
vt 0.289666 0.544440
vt 0.282983 0.540904
vt 0.290637 0.536818
vt 0.279682 0.529141
vt 0.275518 0.536619
vt 0.273707 0.532162
vt 0.280945 0.538772
vt 0.286431 0.530872
vt 0.290637 0.551375
vt 0.284312 0.543753
vt 0.278488 0.537315
vt 0.276318 0.541045
vt 0.804698 0.251197
vt 0.792375 0.255919
vt 0.792638 0.252041
vt 0.786357 0.239035
vt 0.792578 0.249274
vt 0.791489 0.249454
vt 0.271776 0.541127
vt 0.760733 0.199751
vt 0.757502 0.209505
vt 0.750621 0.206121
vt 0.278108 0.542645
vt 0.273009 0.544115
vt 0.772804 0.201934
vt 0.766718 0.213101
vt 0.766203 0.208706
vt 0.264007 0.548518
vt 0.277612 0.547903
vt 0.268747 0.555467
vt 0.275021 0.546378
vt 0.280714 0.548498
vt 0.281954 0.545638
vt 0.276612 0.557409
vt 0.240880 0.530957
vt 0.248168 0.561486
vt 0.249693 0.550306
vt 0.246843 0.539760
vt 0.242415 0.571620
vt 0.762287 0.211045
vt 0.762255 0.210544
vt 0.761023 0.221925
vt 0.757316 0.212491
vt 0.750922 0.216572
vt 0.772804 0.220841
vt 0.791613 0.252007
vt 0.791097 0.255536
vt 0.780068 0.250772
vt 0.780487 0.263708
vt 0.804698 0.264828
vt 0.798786 0.238814
vt 0.221949 0.571626
vt 0.283377 0.553479
vn 0.0790 -0.9966 -0.0248
vn -0.9526 -0.3030 0.0281
vn -0.8047 0.5921 0.0424
vn -0.7014 -0.7127 0.0099
vn -0.9883 0.1476 0.0393
vn -0.4521 0.6367 -0.6247
vn -0.3487 -0.6681 -0.6573
vn -0.5338 0.2050 -0.8204
vn -0.0789 0.9966 0.0248
vn -0.4982 -0.2456 -0.8316
vn 0.4043 -0.6079 -0.6834
vn 0.9501 -0.2908 -0.1130
vn 0.4723 -0.1678 -0.8653
vn -0.1301 0.9839 0.1225
vn 0.8047 -0.5921 -0.0424
vn 0.1137 0.5181 0.8478
vn 0.9883 -0.1476 -0.0393
vn 0.6454 -0.7628 -0.0404
vn 0.4521 -0.6367 0.6247
vn 0.4981 0.2456 0.8316
vn -0.0790 0.9966 0.0248
vn 0.5338 -0.2050 0.8204
vn 0.3487 0.6681 0.6572
vn -0.3010 -0.6970 0.6509
vn -0.4723 0.1678 0.8653
vn -0.4366 -0.2827 0.8541
vn -0.4043 0.6078 0.6834
vn 0.9565 -0.2889 -0.0413
vn 0.0950 0.9953 0.0185
vn 0.1344 0.5419 -0.8296
vn -0.3141 0.9488 0.0324
vn 0.4745 0.0840 0.8762
vn 0.4420 0.2838 -0.8509
vn 0.4601 -0.3369 -0.8215
vn 0.0549 0.9732 -0.2233
vn -0.4788 0.2177 -0.8505
vn 0.3920 -0.6454 -0.6556
vn 0.7527 0.6126 0.2410
vn -0.7147 0.5665 -0.4102
vn 0.0789 -0.9966 -0.0248
vn -0.8048 0.5921 0.0425
vn -0.3487 -0.6681 -0.6572
vn -0.4981 -0.2455 -0.8316
vn 0.4043 -0.6078 -0.6834
vn 0.9401 0.3161 -0.1277
vn -0.1301 0.9839 0.1224
vn 0.1953 0.5051 0.8407
vn -0.4043 0.6079 0.6834
vn 0.9565 -0.2889 -0.0414
vn 0.0950 0.9953 0.0184
vn 0.0524 0.5550 -0.8302
vn 0.5033 0.2468 0.8281
vn 0.4095 0.1233 -0.9039
vn -0.4470 -0.3171 -0.8365
vn 0.3919 -0.6454 -0.6556
vn 0.6400 0.6872 0.3439
vn -0.6921 0.5083 -0.5125
s off
f 101/131/115 111/132/115 89/133/115
f 87/134/116 93/135/116 88/136/116
f 85/137/117 91/138/117 86/139/117
f 89/140/118 93/135/118 94/141/118
f 86/139/119 92/142/119 87/134/119
f 90/143/120 113/144/120 91/145/120
f 93/146/121 97/147/121 94/148/121
f 91/145/122 95/149/122 92/150/122
f 85/151/123 112/152/123 90/143/123
f 92/150/124 96/153/124 93/146/124
f 97/147/125 100/154/125 101/131/125
f 114/155/126 126/156/126 122/157/126
f 95/149/127 100/154/127 96/153/127
f 112/158/128 125/159/128 123/160/128
f 100/154/129 106/161/129 101/131/129
f 103/162/130 119/163/130 102/164/130
f 99/165/131 105/166/131 100/154/131
f 104/167/132 118/168/132 120/169/132
f 106/161/133 110/170/133 111/132/133
f 103/171/134 109/172/134 104/173/134
f 85/151/135 102/174/135 98/175/135
f 104/173/136 110/170/136 105/166/136
f 102/174/137 108/176/137 103/171/137
f 111/177/138 88/136/138 89/140/138
f 108/178/139 87/134/139 109/179/139
f 109/179/140 88/136/140 110/180/140
f 107/181/141 86/139/141 108/178/141
f 97/147/115 89/133/115 94/148/115
f 115/182/142 120/169/142 118/168/142
f 115/182/143 119/163/143 116/183/143
f 114/184/144 117/185/144 115/182/144
f 102/164/145 117/185/145 98/186/145
f 103/162/146 120/169/146 116/183/146
f 114/184/147 118/168/147 99/187/147
f 121/188/148 126/156/148 124/189/148
f 121/188/149 125/159/149 122/157/149
f 113/190/150 124/189/150 95/191/150
f 95/191/151 126/156/151 99/192/151
f 114/155/152 125/159/152 98/193/152
f 113/190/153 123/160/153 121/188/153
f 101/131/154 106/161/154 111/132/154
f 87/134/116 92/142/116 93/135/116
f 85/137/155 90/194/155 91/138/155
f 89/140/118 88/136/118 93/135/118
f 86/139/119 91/138/119 92/142/119
f 90/143/120 112/152/120 113/144/120
f 93/146/156 96/153/156 97/147/156
f 91/145/122 113/144/122 95/149/122
f 85/151/135 98/175/135 112/152/135
f 92/150/157 95/149/157 96/153/157
f 97/147/158 96/153/158 100/154/158
f 114/155/159 99/192/159 126/156/159
f 95/149/127 99/165/127 100/154/127
f 112/158/160 98/193/160 125/159/160
f 100/154/129 105/166/129 106/161/129
f 103/162/161 116/183/161 119/163/161
f 99/165/131 104/173/131 105/166/131
f 104/167/132 99/187/132 118/168/132
f 106/161/133 105/166/133 110/170/133
f 103/171/134 108/176/134 109/172/134
f 85/151/135 107/195/135 102/174/135
f 104/173/136 109/172/136 110/170/136
f 102/174/137 107/195/137 108/176/137
f 111/177/138 110/180/138 88/136/138
f 108/178/139 86/139/139 87/134/139
f 109/179/140 87/134/140 88/136/140
f 107/181/162 85/137/162 86/139/162
f 97/147/115 101/131/115 89/133/115
f 115/182/163 116/183/163 120/169/163
f 115/182/164 117/185/164 119/163/164
f 114/184/165 98/186/165 117/185/165
f 102/164/145 119/163/145 117/185/145
f 103/162/166 104/167/166 120/169/166
f 114/184/167 115/182/167 118/168/167
f 121/188/148 122/157/148 126/156/148
f 121/188/149 123/160/149 125/159/149
f 113/190/168 121/188/168 124/189/168
f 95/191/169 124/189/169 126/156/169
f 114/155/170 122/157/170 125/159/170
f 113/190/171 112/158/171 123/160/171
