# Blender v2.81 (sub 16) OBJ File: 'garbage.blend'
# www.blender.org
v 0.421158 2.685454 1.558798
v 0.405212 2.668607 1.575635
v 0.398206 2.642480 1.585117
v 0.402018 2.614074 1.584702
v 0.415625 2.591000 1.574502
v 0.414897 2.681388 1.532136
v 0.394368 2.661565 1.529456
v 0.385685 2.634348 1.531794
v 0.391174 2.607032 1.538523
v 0.409364 2.586934 1.547840
v 0.426055 2.625843 1.494860
v 0.426135 2.599666 1.506537
v 0.429549 2.582682 1.529373
v 0.461528 2.676949 1.521863
v 0.478947 2.625469 1.511248
v 0.471941 2.599342 1.520730
v 0.455995 2.582495 1.537567
v 0.467789 2.681015 1.548525
v 0.485979 2.660918 1.557842
v 0.491468 2.633601 1.564571
v 0.482785 2.606385 1.566909
v 0.462256 2.586561 1.564229
v 0.447604 2.685267 1.566992
v 0.451018 2.668283 1.589828
v 0.451098 2.642107 1.601505
v 0.447823 2.613750 1.598895
v 0.442071 2.590814 1.582696
v 0.435082 2.677135 1.513669
v 0.429330 2.654199 1.497470
v 0.475135 2.653875 1.511663
v 0.520826 2.672759 1.520922
v 0.521711 2.673334 1.524690
v 0.485827 2.681409 1.522737
v 0.504977 2.641425 1.520416
v 0.488926 2.683422 1.535934
v 0.509784 2.644547 1.540887
v 0.459661 2.666331 1.461695
v 0.470503 2.666254 1.465055
v 0.457298 2.674505 1.478352
v 0.457919 2.647080 1.474282
v 0.462267 2.674470 1.479892
v 0.462902 2.647044 1.475826
vt 0.274240 0.539347
vt 0.265397 0.539709
vt 0.266768 0.532487
vt 0.231414 0.551290
vt 0.214659 0.541092
vt 0.231357 0.542861
vt 0.231940 0.569242
vt 0.215985 0.562822
vt 0.231472 0.559719
vt 0.230890 0.533338
vt 0.220414 0.530957
vt 0.213134 0.552274
vt 0.289666 0.544440
vt 0.282983 0.540904
vt 0.290637 0.536818
vt 0.279682 0.529141
vt 0.275518 0.536619
vt 0.273707 0.532162
vt 0.280945 0.538772
vt 0.286431 0.530872
vt 0.290637 0.551375
vt 0.284312 0.543753
vt 0.278488 0.537315
vt 0.276318 0.541045
vt 0.804698 0.251197
vt 0.792375 0.255919
vt 0.792638 0.252041
vt 0.786357 0.239035
vt 0.792578 0.249274
vt 0.791489 0.249454
vt 0.271776 0.541127
vt 0.760733 0.199751
vt 0.757502 0.209505
vt 0.750621 0.206121
vt 0.278108 0.542645
vt 0.273009 0.544115
vt 0.772804 0.201934
vt 0.766718 0.213101
vt 0.766203 0.208706
vt 0.264007 0.548518
vt 0.277612 0.547903
vt 0.268747 0.555467
vt 0.275021 0.546378
vt 0.280714 0.548498
vt 0.281954 0.545638
vt 0.276612 0.557409
vt 0.240880 0.530957
vt 0.248168 0.561486
vt 0.249693 0.550306
vt 0.246843 0.539760
vt 0.242415 0.571620
vt 0.762287 0.211045
vt 0.762255 0.210544
vt 0.761023 0.221925
vt 0.757316 0.212491
vt 0.750922 0.216572
vt 0.772804 0.220841
vt 0.791613 0.252007
vt 0.791097 0.255536
vt 0.780068 0.250772
vt 0.780487 0.263708
vt 0.804698 0.264828
vt 0.798786 0.238814
vt 0.221949 0.571626
vt 0.283377 0.553479
vn -0.0577 -0.9848 0.1637
vn -0.9603 -0.1324 0.2457
vn -0.6973 0.7147 0.0548
vn -0.7728 -0.5747 0.2691
vn -0.9342 0.3128 0.1717
vn -0.4778 0.5836 -0.6566
vn -0.5533 -0.7059 -0.4423
vn -0.6513 0.1438 -0.7450
vn 0.0577 0.9848 -0.1637
vn -0.6774 -0.3014 -0.6710
vn 0.1817 -0.7758 -0.6042
vn 0.8642 -0.4584 -0.2076
vn 0.2698 -0.3916 -0.8797
vn 0.0252 0.9980 -0.0585
vn 0.6973 -0.7147 -0.0547
vn 0.3422 0.6321 0.6953
vn 0.9342 -0.3128 -0.1717
vn 0.5205 -0.8538 0.0080
vn 0.4778 -0.5836 0.6566
vn 0.6774 0.3014 0.6710
vn 0.6513 -0.1438 0.7450
vn 0.5533 0.7059 0.4423
vn -0.2573 -0.5136 0.8186
vn -0.2698 0.3916 0.8797
vn -0.2959 -0.0536 0.9537
vn -0.1817 0.7758 0.6042
vn -0.0577 -0.9848 0.1638
vn 0.8845 -0.4451 -0.1398
vn 0.2254 0.9539 -0.1983
vn 0.0404 0.3593 -0.9323
vn -0.1757 0.9785 -0.1080
vn 0.6421 0.1563 0.7506
vn 0.3019 0.0544 -0.9518
vn 0.2444 -0.5460 -0.8013
vn 0.1367 0.8968 -0.4207
vn -0.6020 0.1419 -0.7858
vn 0.1702 -0.8054 -0.5677
vn 0.8583 0.5129 -0.0152
vn -0.7007 0.5961 -0.3920
vn -0.6973 0.7147 0.0547
vn 0.9305 0.1299 -0.3424
vn 0.4185 0.6048 0.6776
vn 0.2254 0.9538 -0.1984
vn -0.0376 0.3854 -0.9220
vn -0.1757 0.9785 -0.1079
vn 0.6819 0.3012 0.6665
vn 0.2392 -0.1054 -0.9652
vn -0.6379 -0.3801 -0.6698
vn 0.1702 -0.8055 -0.5677
vn 0.7783 0.6217 0.0878
vn -0.7061 0.5180 -0.4828
s off
f 17/1/1 27/2/1 5/3/1
f 3/4/2 9/5/2 4/6/2
f 1/7/3 7/8/3 2/9/3
f 5/10/4 9/5/4 10/11/4
f 2/9/5 8/12/5 3/4/5
f 6/13/6 29/14/6 7/15/6
f 9/16/7 13/17/7 10/18/7
f 7/15/8 11/19/8 8/20/8
f 1/21/9 28/22/9 6/13/9
f 8/20/10 12/23/10 9/16/10
f 13/17/11 16/24/11 17/1/11
f 30/25/12 42/26/12 38/27/12
f 11/19/13 16/24/13 12/23/13
f 28/28/14 41/29/14 39/30/14
f 16/24/15 22/31/15 17/1/15
f 19/32/16 35/33/16 18/34/16
f 15/35/17 21/36/17 16/24/17
f 20/37/18 34/38/18 36/39/18
f 22/31/19 26/40/19 27/2/19
f 19/41/20 25/42/20 20/43/20
f 1/21/9 18/44/9 14/45/9
f 20/43/21 26/40/21 21/36/21
f 18/44/22 24/46/22 19/41/22
f 27/47/23 4/6/23 5/10/23
f 24/48/24 3/4/24 25/49/24
f 25/49/25 4/6/25 26/50/25
f 23/51/26 2/9/26 24/48/26
f 13/17/27 5/3/27 10/18/27
f 31/52/28 36/39/28 34/38/28
f 31/52/29 35/33/29 32/53/29
f 30/54/30 33/55/30 31/52/30
f 18/34/31 33/55/31 14/56/31
f 19/32/32 36/39/32 32/53/32
f 30/54/33 34/38/33 15/57/33
f 37/58/34 42/26/34 40/59/34
f 37/58/35 41/29/35 38/27/35
f 29/60/36 40/59/36 11/61/36
f 11/61/37 42/26/37 15/62/37
f 30/25/38 41/29/38 14/63/38
f 29/60/39 39/30/39 37/58/39
f 17/1/1 22/31/1 27/2/1
f 3/4/2 8/12/2 9/5/2
f 1/7/40 6/64/40 7/8/40
f 5/10/4 4/6/4 9/5/4
f 2/9/5 7/8/5 8/12/5
f 6/13/6 28/22/6 29/14/6
f 9/16/7 12/23/7 13/17/7
f 7/15/8 29/14/8 11/19/8
f 1/21/9 14/45/9 28/22/9
f 8/20/10 11/19/10 12/23/10
f 13/17/11 12/23/11 16/24/11
f 30/25/41 15/62/41 42/26/41
f 11/19/13 15/35/13 16/24/13
f 28/28/14 14/63/14 41/29/14
f 16/24/15 21/36/15 22/31/15
f 19/32/42 32/53/42 35/33/42
f 15/35/17 20/43/17 21/36/17
f 20/37/18 15/57/18 34/38/18
f 22/31/19 21/36/19 26/40/19
f 19/41/20 24/46/20 25/42/20
f 1/21/9 23/65/9 18/44/9
f 20/43/21 25/42/21 26/40/21
f 18/44/22 23/65/22 24/46/22
f 27/47/23 26/50/23 4/6/23
f 24/48/24 2/9/24 3/4/24
f 25/49/25 3/4/25 4/6/25
f 23/51/26 1/7/26 2/9/26
f 13/17/1 17/1/1 5/3/1
f 31/52/28 32/53/28 36/39/28
f 31/52/43 33/55/43 35/33/43
f 30/54/44 14/56/44 33/55/44
f 18/34/45 35/33/45 33/55/45
f 19/32/46 20/37/46 36/39/46
f 30/54/47 31/52/47 34/38/47
f 37/58/34 38/27/34 42/26/34
f 37/58/35 39/30/35 41/29/35
f 29/60/48 37/58/48 40/59/48
f 11/61/49 40/59/49 42/26/49
f 30/25/50 38/27/50 41/29/50
f 29/60/51 28/28/51 39/30/51
v 2.616253 2.694727 -6.228273
v 2.630943 2.672151 -6.218468
v 2.632492 2.644089 -6.212833
v 2.620486 2.618062 -6.212878
v 2.598141 2.601041 -6.218591
v 2.594971 2.700569 -6.211555
v 2.594081 2.682270 -6.189511
v 2.589927 2.655774 -6.179396
v 2.583624 2.628181 -6.183921
v 2.576859 2.606884 -6.201873
v 2.539339 2.663363 -6.200595
v 2.539813 2.634753 -6.202281
v 2.551565 2.610678 -6.212473
v 2.565665 2.702316 -6.249473
v 2.531314 2.659268 -6.255231
v 2.532863 2.631207 -6.249597
v 2.547553 2.608631 -6.239791
v 2.586947 2.696474 -6.266191
v 2.580182 2.675177 -6.284143
v 2.573879 2.647584 -6.288668
v 2.569725 2.621088 -6.278553
v 2.568835 2.602788 -6.256509
v 2.612241 2.692679 -6.255591
v 2.623993 2.668605 -6.265784
v 2.624467 2.639994 -6.267468
v 2.613536 2.614515 -6.260194
v 2.594129 2.598994 -6.245909
v 2.569677 2.704364 -6.222155
v 2.550270 2.688843 -6.207870
v 2.543320 2.685296 -6.255187
v 2.539100 2.701392 -6.302653
v 2.542107 2.700567 -6.305016
v 2.558033 2.707200 -6.272472
v 2.534028 2.671815 -6.284411
v 2.568567 2.704308 -6.280748
v 2.550368 2.667330 -6.297247
v 2.512101 2.714703 -6.222752
v 2.510457 2.713863 -6.233951
v 2.529970 2.716003 -6.228126
v 2.516548 2.692100 -6.223931
v 2.529216 2.715618 -6.233259
v 2.515792 2.691714 -6.229078
vt 0.274240 0.539347
vt 0.265397 0.539709
vt 0.266768 0.532487
vt 0.231414 0.551290
vt 0.214659 0.541092
vt 0.231357 0.542861
vt 0.231940 0.569242
vt 0.215985 0.562822
vt 0.231472 0.559719
vt 0.230890 0.533338
vt 0.220414 0.530957
vt 0.213134 0.552274
vt 0.289666 0.544440
vt 0.282983 0.540904
vt 0.290637 0.536818
vt 0.279682 0.529141
vt 0.275518 0.536619
vt 0.273707 0.532162
vt 0.280945 0.538772
vt 0.286431 0.530872
vt 0.290637 0.551375
vt 0.284312 0.543753
vt 0.278488 0.537315
vt 0.276318 0.541045
vt 0.804698 0.251197
vt 0.792375 0.255919
vt 0.792638 0.252041
vt 0.786357 0.239035
vt 0.792578 0.249274
vt 0.791489 0.249454
vt 0.271776 0.541127
vt 0.760733 0.199751
vt 0.757502 0.209505
vt 0.750621 0.206121
vt 0.278108 0.542645
vt 0.273009 0.544115
vt 0.772804 0.201934
vt 0.766718 0.213101
vt 0.766203 0.208706
vt 0.264007 0.548518
vt 0.277612 0.547903
vt 0.268747 0.555467
vt 0.275021 0.546378
vt 0.280714 0.548498
vt 0.281954 0.545638
vt 0.276612 0.557409
vt 0.240880 0.530957
vt 0.248168 0.561486
vt 0.249693 0.550306
vt 0.246843 0.539760
vt 0.242415 0.571620
vt 0.762287 0.211045
vt 0.762255 0.210544
vt 0.761023 0.221925
vt 0.757316 0.212491
vt 0.750922 0.216572
vt 0.772804 0.220841
vt 0.791613 0.252007
vt 0.791097 0.255536
vt 0.780068 0.250772
vt 0.780487 0.263708
vt 0.804698 0.264828
vt 0.798786 0.238814
vt 0.221949 0.571626
vt 0.283377 0.553479
vn -0.1888 -0.9768 0.1010
vn 0.5526 -0.2563 0.7931
vn 0.5856 0.6119 0.5316
vn 0.3383 -0.6670 0.6638
vn 0.6380 0.1853 0.7474
vn -0.1486 0.7638 0.6281
vn -0.3959 -0.5151 0.7602
vn -0.3081 0.3811 0.8717
vn 0.1888 0.9768 -0.1010
vn -0.3935 -0.0605 0.9173
vn -0.8578 -0.4876 0.1625
vn -0.6913 -0.3101 -0.6527
vn -0.9888 -0.0250 0.1471
vn 0.2953 0.9485 -0.1145
vn -0.5856 -0.6119 -0.5316
vn 0.6687 0.3435 -0.6595
vn -0.6380 -0.1853 -0.7474
vn -0.5099 -0.7720 -0.3794
vn 0.1486 -0.7638 -0.6281
vn 0.3935 0.0605 -0.9173
vn 0.3081 -0.3811 -0.8717
vn 0.3959 0.5151 -0.7602
vn 0.6106 -0.7914 -0.0304
vn 0.9888 0.0251 -0.1471
vn 0.9034 -0.4165 -0.1015
vn 0.8578 0.4875 -0.1625
vn -0.6379 -0.3220 -0.6995
vn 0.0799 0.9684 -0.2364
vn -0.6722 0.6809 0.2907
vn 0.3291 0.9400 0.0904
vn 0.4232 -0.1051 -0.8999
vn -0.9040 0.4168 0.0952
vn -0.9674 -0.1986 0.1570
vn -0.0907 0.9940 -0.0612
vn -0.3633 0.3965 0.8431
vn -0.8330 -0.5291 0.1620
vn -0.1820 0.5192 -0.8350
vn 0.1695 0.6675 0.7251
vn -0.1888 -0.9768 0.1009
vn 0.5526 -0.2563 0.7930
vn 0.3384 -0.6670 0.6638
vn -0.1486 0.7639 0.6280
vn -0.3958 -0.5151 0.7603
vn 0.1889 0.9768 -0.1009
vn -0.3935 -0.0606 0.9173
vn -0.8578 -0.4875 0.1625
vn -0.6226 0.2885 -0.7274
vn 0.6129 0.3281 -0.7188
vn -0.5100 -0.7720 -0.3794
vn 0.1888 0.9768 -0.1009
vn 0.9888 0.0250 -0.1471
vn 0.9034 -0.4166 -0.1015
vn 0.8578 0.4876 -0.1625
vn -0.6379 -0.3221 -0.6995
vn 0.0800 0.9683 -0.2366
vn -0.6222 0.6979 0.3547
vn 0.3290 0.9400 0.0904
vn 0.3879 0.0622 -0.9196
vn -0.9464 0.2708 0.1760
vn -0.9675 -0.1985 0.1570
vn -0.4366 -0.1323 0.8899
vn -0.8330 -0.5290 0.1619
vn -0.0240 0.5785 -0.8154
vn 0.0677 0.6285 0.7749
s off
f 59/66/52 69/67/52 47/68/52
f 45/69/53 51/70/53 46/71/53
f 43/72/54 49/73/54 44/74/54
f 47/75/55 51/70/55 52/76/55
f 44/74/56 50/77/56 45/69/56
f 48/78/57 71/79/57 49/80/57
f 51/81/58 55/82/58 52/83/58
f 49/80/59 53/84/59 50/85/59
f 43/86/60 70/87/60 48/78/60
f 50/85/61 54/88/61 51/81/61
f 55/82/62 58/89/62 59/66/62
f 72/90/63 84/91/63 80/92/63
f 53/84/64 58/89/64 54/88/64
f 70/93/65 83/94/65 81/95/65
f 58/89/66 64/96/66 59/66/66
f 61/97/67 77/98/67 60/99/67
f 57/100/68 63/101/68 58/89/68
f 62/102/69 76/103/69 78/104/69
f 64/96/70 68/105/70 69/67/70
f 61/106/71 67/107/71 62/108/71
f 43/86/60 60/109/60 56/110/60
f 62/108/72 68/105/72 63/101/72
f 60/109/73 66/111/73 61/106/73
f 69/112/74 46/71/74 47/75/74
f 66/113/75 45/69/75 67/114/75
f 67/114/76 46/71/76 68/115/76
f 65/116/77 44/74/77 66/113/77
f 55/82/52 47/68/52 52/83/52
f 73/117/78 78/104/78 76/103/78
f 73/117/79 77/98/79 74/118/79
f 72/119/80 75/120/80 73/117/80
f 60/99/81 75/120/81 56/121/81
f 61/97/82 78/104/82 74/118/82
f 72/119/83 76/103/83 57/122/83
f 79/123/84 84/91/84 82/124/84
f 79/123/85 83/94/85 80/92/85
f 71/125/86 82/124/86 53/126/86
f 53/126/87 84/91/87 57/127/87
f 72/90/88 83/94/88 56/128/88
f 71/125/89 81/95/89 79/123/89
f 59/66/90 64/96/90 69/67/90
f 45/69/91 50/77/91 51/70/91
f 43/72/54 48/129/54 49/73/54
f 47/75/92 46/71/92 51/70/92
f 44/74/56 49/73/56 50/77/56
f 48/78/93 70/87/93 71/79/93
f 51/81/94 54/88/94 55/82/94
f 49/80/59 71/79/59 53/84/59
f 43/86/95 56/110/95 70/87/95
f 50/85/96 53/84/96 54/88/96
f 55/82/97 54/88/97 58/89/97
f 72/90/98 57/127/98 84/91/98
f 53/84/64 57/100/64 58/89/64
f 70/93/65 56/128/65 83/94/65
f 58/89/66 63/101/66 64/96/66
f 61/97/99 74/118/99 77/98/99
f 57/100/68 62/108/68 63/101/68
f 62/102/100 57/122/100 76/103/100
f 64/96/70 63/101/70 68/105/70
f 61/106/71 66/111/71 67/107/71
f 43/86/101 65/130/101 60/109/101
f 62/108/72 67/107/72 68/105/72
f 60/109/73 65/130/73 66/111/73
f 69/112/74 68/115/74 46/71/74
f 66/113/102 44/74/102 45/69/102
f 67/114/103 45/69/103 46/71/103
f 65/116/104 43/72/104 44/74/104
f 55/82/52 59/66/52 47/68/52
f 73/117/105 74/118/105 78/104/105
f 73/117/106 75/120/106 77/98/106
f 72/119/107 56/121/107 75/120/107
f 60/99/108 77/98/108 75/120/108
f 61/97/109 62/102/109 78/104/109
f 72/119/110 73/117/110 76/103/110
f 79/123/111 80/92/111 84/91/111
f 79/123/85 81/95/85 83/94/85
f 71/125/112 79/123/112 82/124/112
f 53/126/113 82/124/113 84/91/113
f 72/90/114 80/92/114 83/94/114
f 71/125/115 70/93/115 81/95/115
v 1.086187 4.199533 -1.574200
v 1.080793 4.183636 -1.550966
v 1.076485 4.158006 -1.538878
v 1.074417 4.129509 -1.541174
v 1.075143 4.105782 -1.557239
v 1.064736 4.198895 -1.591693
v 1.043639 4.182532 -1.581265
v 1.033583 4.156731 -1.573864
v 1.037263 4.128405 -1.571473
v 1.053692 4.105145 -1.574733
v 1.041944 4.146033 -1.627548
v 1.044504 4.119141 -1.617964
v 1.057873 4.099796 -1.601574
v 1.094548 4.188836 -1.627883
v 1.093207 4.136612 -1.646245
v 1.088899 4.110981 -1.634156
v 1.083504 4.095085 -1.610923
v 1.115999 4.189473 -1.610390
v 1.132429 4.166213 -1.613649
v 1.136109 4.137887 -1.611258
v 1.126053 4.112086 -1.603857
v 1.104955 4.095723 -1.593430
v 1.111819 4.194822 -1.583548
v 1.125188 4.175477 -1.567158
v 1.127748 4.148584 -1.557575
v 1.118812 4.121350 -1.557366
v 1.100775 4.101071 -1.566588
v 1.068917 4.193546 -1.618535
v 1.050880 4.173268 -1.627756
v 1.095275 4.165108 -1.643948
v 1.139907 4.176352 -1.664234
v 1.142938 4.176442 -1.661762
v 1.114931 4.189690 -1.641844
v 1.121829 4.147777 -1.654751
v 1.125549 4.190006 -1.633185
v 1.138299 4.148267 -1.641320
v 1.055537 4.184229 -1.674716
v 1.066045 4.182298 -1.678548
v 1.064960 4.191073 -1.660079
v 1.058378 4.164337 -1.663390
v 1.069776 4.190188 -1.661836
v 1.063207 4.163449 -1.665151
vt 0.274240 0.539347
vt 0.265397 0.539709
vt 0.266768 0.532487
vt 0.231414 0.551290
vt 0.214659 0.541092
vt 0.231357 0.542861
vt 0.231940 0.569242
vt 0.215985 0.562822
vt 0.231472 0.559719
vt 0.230890 0.533338
vt 0.220414 0.530957
vt 0.213134 0.552274
vt 0.289666 0.544440
vt 0.282983 0.540904
vt 0.290637 0.536818
vt 0.279682 0.529141
vt 0.275518 0.536619
vt 0.273707 0.532162
vt 0.280945 0.538772
vt 0.286431 0.530872
vt 0.290637 0.551375
vt 0.284312 0.543753
vt 0.278488 0.537315
vt 0.276318 0.541045
vt 0.804698 0.251197
vt 0.792375 0.255919
vt 0.792638 0.252041
vt 0.786357 0.239035
vt 0.792578 0.249274
vt 0.791489 0.249454
vt 0.271776 0.541127
vt 0.760733 0.199751
vt 0.757502 0.209505
vt 0.750621 0.206121
vt 0.278108 0.542645
vt 0.273009 0.544115
vt 0.772804 0.201934
vt 0.766718 0.213101
vt 0.766203 0.208706
vt 0.264007 0.548518
vt 0.277612 0.547903
vt 0.268747 0.555467
vt 0.275021 0.546378
vt 0.280714 0.548498
vt 0.281954 0.545638
vt 0.276612 0.557409
vt 0.240880 0.530957
vt 0.248168 0.561486
vt 0.249693 0.550306
vt 0.246843 0.539760
vt 0.242415 0.571620
vt 0.762287 0.211045
vt 0.762255 0.210544
vt 0.761023 0.221925
vt 0.757316 0.212491
vt 0.750922 0.216572
vt 0.772804 0.220841
vt 0.791613 0.252007
vt 0.791097 0.255536
vt 0.780068 0.250772
vt 0.780487 0.263708
vt 0.804698 0.264828
vt 0.798786 0.238814
vt 0.221949 0.571626
vt 0.283377 0.553479
vn -0.1151 -0.9775 0.1769
vn -0.6316 -0.0166 0.7751
vn -0.3946 0.7985 0.4547
vn -0.5453 -0.4814 0.6862
vn -0.5796 0.4253 0.6952
vn -0.6668 0.7041 -0.2442
vn -0.8176 -0.5757 -0.0126
vn -0.9304 0.3037 -0.2054
vn 0.1152 0.9775 -0.1769
vn -0.9824 -0.1382 -0.1255
vn -0.3476 -0.7343 -0.5831
vn 0.4784 -0.5554 -0.6801
vn -0.3768 -0.3425 -0.8606
vn 0.1543 0.9853 -0.0733
vn 0.3946 -0.7985 -0.4547
vn 0.7893 0.5095 0.3426
vn 0.5796 -0.4253 -0.6952
vn 0.2692 -0.9162 -0.2967
vn 0.6668 -0.7041 0.2442
vn 0.9824 0.1382 0.1255
vn 0.1152 0.9775 -0.1768
vn 0.9304 -0.3037 0.2054
vn 0.8175 0.5757 0.0126
vn 0.1969 -0.5455 0.8146
vn 0.3768 0.3426 0.8606
vn 0.3248 -0.0994 0.9406
vn 0.3476 0.7343 0.5831
vn -0.1152 -0.9775 0.1768
vn 0.5370 -0.5516 -0.6383
vn 0.2212 0.9263 -0.3049
vn -0.4611 0.4349 -0.7734
vn -0.0363 0.9993 0.0081
vn 0.9773 -0.0072 0.2119
vn -0.3188 0.0991 -0.9426
vn -0.3764 -0.4984 -0.7810
vn 0.0097 0.9034 -0.4287
vn -0.9161 0.2985 -0.2676
vn -0.3400 -0.7652 -0.5467
vn 0.7529 0.3846 -0.5340
vn -0.6827 0.7236 0.1012
vn -0.1152 -0.9775 0.1769
vn -0.5453 -0.4813 0.6862
vn -0.5795 0.4253 0.6952
vn 0.1151 0.9775 -0.1769
vn 0.5503 0.0273 -0.8345
vn -0.3769 -0.3426 -0.8606
vn 0.8342 0.4735 0.2829
vn 0.5795 -0.4253 -0.6952
vn 0.2692 -0.9162 -0.2968
vn 0.1151 0.9775 -0.1768
vn 0.8176 0.5757 0.0126
vn 0.1969 -0.5456 0.8146
vn 0.3769 0.3426 0.8606
vn -0.1151 -0.9775 0.1768
vn 0.5369 -0.5515 -0.6384
vn 0.2212 0.9263 -0.3050
vn -0.5119 0.4708 -0.7185
vn 0.9833 0.1378 0.1192
vn -0.4032 -0.0482 -0.9138
vn -0.3764 -0.4984 -0.7809
vn -0.9640 -0.2215 -0.1473
vn -0.3401 -0.7652 -0.5467
vn 0.7696 0.4937 -0.4049
vn -0.7542 0.6559 0.0328
s off
f 101/131/116 111/132/116 89/133/116
f 87/134/117 93/135/117 88/136/117
f 85/137/118 91/138/118 86/139/118
f 89/140/119 93/135/119 94/141/119
f 86/139/120 92/142/120 87/134/120
f 90/143/121 113/144/121 91/145/121
f 93/146/122 97/147/122 94/148/122
f 91/145/123 95/149/123 92/150/123
f 85/151/124 112/152/124 90/143/124
f 92/150/125 96/153/125 93/146/125
f 97/147/126 100/154/126 101/131/126
f 114/155/127 126/156/127 122/157/127
f 95/149/128 100/154/128 96/153/128
f 112/158/129 125/159/129 123/160/129
f 100/154/130 106/161/130 101/131/130
f 103/162/131 119/163/131 102/164/131
f 99/165/132 105/166/132 100/154/132
f 104/167/133 118/168/133 120/169/133
f 106/161/134 110/170/134 111/132/134
f 103/171/135 109/172/135 104/173/135
f 85/151/136 102/174/136 98/175/136
f 104/173/137 110/170/137 105/166/137
f 102/174/138 108/176/138 103/171/138
f 111/177/139 88/136/139 89/140/139
f 108/178/140 87/134/140 109/179/140
f 109/179/141 88/136/141 110/180/141
f 107/181/142 86/139/142 108/178/142
f 97/147/143 89/133/143 94/148/143
f 115/182/144 120/169/144 118/168/144
f 115/182/145 119/163/145 116/183/145
f 114/184/146 117/185/146 115/182/146
f 102/164/147 117/185/147 98/186/147
f 103/162/148 120/169/148 116/183/148
f 114/184/149 118/168/149 99/187/149
f 121/188/150 126/156/150 124/189/150
f 121/188/151 125/159/151 122/157/151
f 113/190/152 124/189/152 95/191/152
f 95/191/153 126/156/153 99/192/153
f 114/155/154 125/159/154 98/193/154
f 113/190/155 123/160/155 121/188/155
f 101/131/156 106/161/156 111/132/156
f 87/134/117 92/142/117 93/135/117
f 85/137/118 90/194/118 91/138/118
f 89/140/157 88/136/157 93/135/157
f 86/139/158 91/138/158 92/142/158
f 90/143/121 112/152/121 113/144/121
f 93/146/122 96/153/122 97/147/122
f 91/145/123 113/144/123 95/149/123
f 85/151/159 98/175/159 112/152/159
f 92/150/125 95/149/125 96/153/125
f 97/147/126 96/153/126 100/154/126
f 114/155/160 99/192/160 126/156/160
f 95/149/161 99/165/161 100/154/161
f 112/158/129 98/193/129 125/159/129
f 100/154/130 105/166/130 106/161/130
f 103/162/162 116/183/162 119/163/162
f 99/165/163 104/173/163 105/166/163
f 104/167/164 99/187/164 118/168/164
f 106/161/134 105/166/134 110/170/134
f 103/171/135 108/176/135 109/172/135
f 85/151/165 107/195/165 102/174/165
f 104/173/137 109/172/137 110/170/137
f 102/174/166 107/195/166 108/176/166
f 111/177/167 110/180/167 88/136/167
f 108/178/168 86/139/168 87/134/168
f 109/179/141 87/134/141 88/136/141
f 107/181/142 85/137/142 86/139/142
f 97/147/169 101/131/169 89/133/169
f 115/182/170 116/183/170 120/169/170
f 115/182/171 117/185/171 119/163/171
f 114/184/172 98/186/172 117/185/172
f 102/164/147 119/163/147 117/185/147
f 103/162/173 104/167/173 120/169/173
f 114/184/174 115/182/174 118/168/174
f 121/188/175 122/157/175 126/156/175
f 121/188/151 123/160/151 125/159/151
f 113/190/176 121/188/176 124/189/176
f 95/191/177 124/189/177 126/156/177
f 114/155/178 122/157/178 125/159/178
f 113/190/179 112/158/179 123/160/179
