# Blender v2.81 (sub 16) OBJ File: 'garbage.blend'
# www.blender.org
v 0.767447 2.448992 0.496035
v 0.757892 2.431043 0.516238
v 0.754047 2.404336 0.525912
v 0.756943 2.376028 0.522465
v 0.765803 2.353704 0.506821
v 0.752379 2.446636 0.472927
v 0.731794 2.426962 0.476214
v 0.723912 2.399625 0.479696
v 0.730845 2.371948 0.482441
v 0.750736 2.351348 0.483713
v 0.749067 2.393648 0.430729
v 0.752630 2.366772 0.440034
v 0.763313 2.348360 0.459230
v 0.792602 2.443015 0.447069
v 0.804358 2.392383 0.427978
v 0.800513 2.365677 0.437652
v 0.790959 2.347728 0.457854
v 0.807670 2.445371 0.470176
v 0.827560 2.424772 0.471449
v 0.834494 2.397095 0.474194
v 0.826612 2.369757 0.477676
v 0.806026 2.350084 0.480962
v 0.795092 2.448359 0.494660
v 0.805775 2.429947 0.513855
v 0.809338 2.403071 0.523161
v 0.804826 2.374933 0.520082
v 0.793449 2.353072 0.505445
v 0.764957 2.443648 0.448444
v 0.753579 2.421787 0.433807
v 0.801462 2.420691 0.431425
v 0.847920 2.439082 0.425642
v 0.850049 2.439415 0.428907
v 0.815818 2.447486 0.439851
v 0.832255 2.407796 0.428654
v 0.823277 2.448652 0.451289
v 0.843824 2.409604 0.446397
v 0.770092 2.436298 0.390636
v 0.781426 2.436039 0.390072
v 0.773718 2.443373 0.407567
v 0.772386 2.416270 0.401845
v 0.778912 2.443254 0.407309
v 0.777595 2.416150 0.401586
vt 0.274240 0.539347
vt 0.265397 0.539709
vt 0.266768 0.532487
vt 0.231414 0.551290
vt 0.214659 0.541092
vt 0.231357 0.542861
vt 0.231940 0.569242
vt 0.215985 0.562822
vt 0.231472 0.559719
vt 0.230890 0.533338
vt 0.220414 0.530957
vt 0.213134 0.552274
vt 0.289666 0.544440
vt 0.282983 0.540904
vt 0.290637 0.536818
vt 0.279682 0.529141
vt 0.275518 0.536619
vt 0.273707 0.532162
vt 0.280945 0.538772
vt 0.286431 0.530872
vt 0.290637 0.551375
vt 0.284312 0.543753
vt 0.278488 0.537315
vt 0.276318 0.541045
vt 0.804698 0.251197
vt 0.792375 0.255919
vt 0.792638 0.252041
vt 0.786357 0.239035
vt 0.792578 0.249274
vt 0.791489 0.249454
vt 0.271776 0.541127
vt 0.760733 0.199751
vt 0.757502 0.209505
vt 0.750621 0.206121
vt 0.278108 0.542645
vt 0.273009 0.544115
vt 0.772804 0.201934
vt 0.766718 0.213101
vt 0.766203 0.208706
vt 0.264007 0.548518
vt 0.277612 0.547903
vt 0.268747 0.555467
vt 0.275021 0.546378
vt 0.280714 0.548498
vt 0.281954 0.545638
vt 0.276612 0.557409
vt 0.240880 0.530957
vt 0.248168 0.561486
vt 0.249693 0.550306
vt 0.246843 0.539760
vt 0.242415 0.571620
vt 0.762287 0.211045
vt 0.762255 0.210544
vt 0.761023 0.221925
vt 0.757316 0.212491
vt 0.750922 0.216572
vt 0.772804 0.220841
vt 0.791613 0.252007
vt 0.791097 0.255536
vt 0.780068 0.250772
vt 0.780487 0.263708
vt 0.804698 0.264828
vt 0.798786 0.238814
vt 0.221949 0.571626
vt 0.283377 0.553479
vn -0.0171 -0.9935 0.1125
vn -0.8209 -0.1510 0.5507
vn -0.6228 0.7075 0.3340
vn -0.6453 -0.5933 0.4812
vn -0.8132 0.2981 0.4999
vn -0.6621 0.6232 -0.4162
vn -0.6845 -0.6776 -0.2690
vn -0.8638 0.1896 -0.4669
vn 0.0171 0.9935 -0.1125
vn -0.8715 -0.2596 -0.4160
vn -0.0505 -0.7346 -0.6766
vn 0.7323 -0.4413 -0.5186
vn -0.0545 -0.3331 -0.9413
vn 0.0228 0.9997 -0.0018
vn 0.6228 -0.7075 -0.3340
vn 0.5711 0.5869 0.5739
vn 0.8132 -0.2981 -0.4998
vn 0.4755 -0.8509 -0.2233
vn 0.6621 -0.6232 0.4162
vn 0.8715 0.2596 0.4160
vn 0.8638 -0.1896 0.4669
vn 0.6845 0.6776 0.2690
vn 0.0280 -0.5662 0.8238
vn 0.0545 0.3331 0.9413
vn 0.0467 -0.1160 0.9921
vn 0.0505 0.7346 0.6766
vn -0.0171 -0.9935 0.1124
vn 0.7748 -0.4324 -0.4612
vn 0.1623 0.9654 -0.2042
vn -0.2736 0.4189 -0.8659
vn -0.1833 0.9829 0.0193
vn 0.8627 0.1095 0.4937
vn -0.0404 0.1167 -0.9923
vn -0.0545 -0.4924 -0.8687
vn 0.0019 0.9225 -0.3859
vn -0.8314 0.1904 -0.5221
vn -0.0494 -0.7666 -0.6402
vn 0.8112 0.5155 -0.2762
vn -0.7809 0.6180 -0.0910
vn 0.0171 0.9935 -0.1124
vn 0.7599 0.1546 -0.6314
vn 0.6362 0.5611 0.5295
vn 0.8132 -0.2981 -0.4999
vn -0.3429 0.4440 -0.8278
vn 0.8742 0.2597 0.4103
vn -0.1070 -0.0421 -0.9934
vn 0.0019 0.9226 -0.3859
vn -0.8355 -0.3381 -0.4332
vn 0.7732 0.6172 -0.1456
vn -0.8185 0.5459 -0.1791
s off
f 17/1/1 27/2/1 5/3/1
f 3/4/2 9/5/2 4/6/2
f 1/7/3 7/8/3 2/9/3
f 5/10/4 9/5/4 10/11/4
f 2/9/5 8/12/5 3/4/5
f 6/13/6 29/14/6 7/15/6
f 9/16/7 13/17/7 10/18/7
f 7/15/8 11/19/8 8/20/8
f 1/21/9 28/22/9 6/13/9
f 8/20/10 12/23/10 9/16/10
f 13/17/11 16/24/11 17/1/11
f 30/25/12 42/26/12 38/27/12
f 11/19/13 16/24/13 12/23/13
f 28/28/14 41/29/14 39/30/14
f 16/24/15 22/31/15 17/1/15
f 19/32/16 35/33/16 18/34/16
f 15/35/17 21/36/17 16/24/17
f 20/37/18 34/38/18 36/39/18
f 22/31/19 26/40/19 27/2/19
f 19/41/20 25/42/20 20/43/20
f 1/21/9 18/44/9 14/45/9
f 20/43/21 26/40/21 21/36/21
f 18/44/22 24/46/22 19/41/22
f 27/47/23 4/6/23 5/10/23
f 24/48/24 3/4/24 25/49/24
f 25/49/25 4/6/25 26/50/25
f 23/51/26 2/9/26 24/48/26
f 13/17/27 5/3/27 10/18/27
f 31/52/28 36/39/28 34/38/28
f 31/52/29 35/33/29 32/53/29
f 30/54/30 33/55/30 31/52/30
f 18/34/31 33/55/31 14/56/31
f 19/32/32 36/39/32 32/53/32
f 30/54/33 34/38/33 15/57/33
f 37/58/34 42/26/34 40/59/34
f 37/58/35 41/29/35 38/27/35
f 29/60/36 40/59/36 11/61/36
f 11/61/37 42/26/37 15/62/37
f 30/25/38 41/29/38 14/63/38
f 29/60/39 39/30/39 37/58/39
f 17/1/1 22/31/1 27/2/1
f 3/4/2 8/12/2 9/5/2
f 1/7/3 6/64/3 7/8/3
f 5/10/4 4/6/4 9/5/4
f 2/9/5 7/8/5 8/12/5
f 6/13/6 28/22/6 29/14/6
f 9/16/7 12/23/7 13/17/7
f 7/15/8 29/14/8 11/19/8
f 1/21/40 14/45/40 28/22/40
f 8/20/10 11/19/10 12/23/10
f 13/17/11 12/23/11 16/24/11
f 30/25/41 15/62/41 42/26/41
f 11/19/13 15/35/13 16/24/13
f 28/28/14 14/63/14 41/29/14
f 16/24/15 21/36/15 22/31/15
f 19/32/42 32/53/42 35/33/42
f 15/35/43 20/43/43 21/36/43
f 20/37/18 15/57/18 34/38/18
f 22/31/19 21/36/19 26/40/19
f 19/41/20 24/46/20 25/42/20
f 1/21/9 23/65/9 18/44/9
f 20/43/21 25/42/21 26/40/21
f 18/44/22 23/65/22 24/46/22
f 27/47/23 26/50/23 4/6/23
f 24/48/24 2/9/24 3/4/24
f 25/49/25 3/4/25 4/6/25
f 23/51/26 1/7/26 2/9/26
f 13/17/1 17/1/1 5/3/1
f 31/52/28 32/53/28 36/39/28
f 31/52/29 33/55/29 35/33/29
f 30/54/44 14/56/44 33/55/44
f 18/34/31 35/33/31 33/55/31
f 19/32/45 20/37/45 36/39/45
f 30/54/46 31/52/46 34/38/46
f 37/58/34 38/27/34 42/26/34
f 37/58/47 39/30/47 41/29/47
f 29/60/48 37/58/48 40/59/48
f 11/61/37 40/59/37 42/26/37
f 30/25/49 38/27/49 41/29/49
f 29/60/50 28/28/50 39/30/50
v 1.460047 2.820623 -7.208510
v 1.473041 2.795124 -7.206909
v 1.471522 2.766578 -7.204797
v 1.455897 2.742636 -7.202741
v 1.430354 2.729711 -7.201292
v 1.447362 2.826661 -7.184653
v 1.451068 2.805582 -7.165586
v 1.446150 2.778655 -7.157082
v 1.433925 2.753094 -7.161419
v 1.417669 2.735749 -7.177434
v 1.393509 2.795832 -7.157290
v 1.388336 2.767971 -7.161599
v 1.391348 2.744338 -7.177538
v 1.407406 2.837801 -7.208718
v 1.366238 2.800934 -7.205212
v 1.364720 2.772388 -7.203101
v 1.377713 2.746889 -7.201499
v 1.420092 2.831763 -7.232575
v 1.403835 2.814418 -7.248590
v 1.391610 2.788857 -7.252927
v 1.386692 2.761930 -7.244423
v 1.390399 2.740851 -7.225357
v 1.446412 2.823174 -7.232471
v 1.449424 2.799541 -7.248411
v 1.444252 2.771680 -7.252719
v 1.432281 2.747053 -7.244243
v 1.416719 2.732262 -7.225253
v 1.421041 2.835250 -7.184757
v 1.405479 2.820458 -7.165766
v 1.381863 2.824876 -7.207268
v 1.364148 2.848217 -7.248151
v 1.365941 2.847363 -7.251522
v 1.393172 2.846982 -7.226723
v 1.360697 2.817189 -7.232069
v 1.399451 2.843993 -7.238533
v 1.370437 2.812553 -7.250387
v 1.369684 2.852994 -7.163081
v 1.364094 2.854039 -7.172904
v 1.384463 2.852728 -7.174543
v 1.369397 2.830428 -7.167851
v 1.381901 2.853208 -7.179045
v 1.366827 2.830908 -7.172366
vt 0.274240 0.539347
vt 0.265397 0.539709
vt 0.266768 0.532487
vt 0.231414 0.551290
vt 0.214659 0.541092
vt 0.231357 0.542861
vt 0.231940 0.569242
vt 0.215985 0.562822
vt 0.231472 0.559719
vt 0.230890 0.533338
vt 0.220414 0.530957
vt 0.213134 0.552274
vt 0.289666 0.544440
vt 0.282983 0.540904
vt 0.290637 0.536818
vt 0.279682 0.529141
vt 0.275518 0.536619
vt 0.273707 0.532162
vt 0.280945 0.538772
vt 0.286431 0.530872
vt 0.290637 0.551375
vt 0.284312 0.543753
vt 0.278488 0.537315
vt 0.276318 0.541045
vt 0.804698 0.251197
vt 0.792375 0.255919
vt 0.792638 0.252041
vt 0.786357 0.239035
vt 0.792578 0.249274
vt 0.791489 0.249454
vt 0.271776 0.541127
vt 0.760733 0.199751
vt 0.757502 0.209505
vt 0.750621 0.206121
vt 0.278108 0.542645
vt 0.273009 0.544115
vt 0.772804 0.201934
vt 0.766718 0.213101
vt 0.766203 0.208706
vt 0.264007 0.548518
vt 0.277612 0.547903
vt 0.268747 0.555467
vt 0.275021 0.546378
vt 0.280714 0.548498
vt 0.281954 0.545638
vt 0.276612 0.557409
vt 0.240880 0.530957
vt 0.248168 0.561486
vt 0.249693 0.550306
vt 0.246843 0.539760
vt 0.242415 0.571620
vt 0.762287 0.211045
vt 0.762255 0.210544
vt 0.761023 0.221925
vt 0.757316 0.212491
vt 0.750922 0.216572
vt 0.772804 0.220841
vt 0.791613 0.252007
vt 0.791097 0.255536
vt 0.780068 0.250772
vt 0.780487 0.263708
vt 0.804698 0.264828
vt 0.798786 0.238814
vt 0.221949 0.571626
vt 0.283377 0.553479
vn -0.3096 -0.9479 0.0753
vn 0.7416 -0.4405 0.5059
vn 0.8325 0.4449 0.3301
vn 0.4272 -0.7961 0.4286
vn 0.8816 -0.0120 0.4718
vn 0.2176 0.6755 0.7045
vn -0.1877 -0.5656 0.8031
vn 0.0893 0.2851 0.9543
vn 0.3096 0.9479 -0.0753
vn -0.0507 -0.1434 0.9884
vn -0.8175 -0.3900 0.4237
vn -0.9193 -0.1174 -0.3757
vn -0.8623 0.0828 0.4995
vn 0.3978 0.9083 -0.1298
vn -0.8325 -0.4449 -0.3300
vn 0.4440 0.3468 -0.8262
vn -0.8816 0.0120 -0.4718
vn -0.7376 -0.6342 -0.2317
vn -0.2176 -0.6755 -0.7045
vn 0.0507 0.1434 -0.9884
vn -0.0892 -0.2851 -0.9543
vn 0.1878 0.5656 -0.8031
vn 0.4122 -0.8511 -0.3251
vn 0.8623 -0.0828 -0.4995
vn 0.7224 -0.5114 -0.4655
vn 0.8176 0.3900 -0.4237
vn -0.8887 -0.1291 -0.4399
vn 0.1604 0.9738 -0.1611
vn -0.3970 0.7124 0.5787
vn 0.4993 0.8652 0.0465
vn 0.0551 -0.0254 -0.9982
vn -0.7250 0.5126 0.4599
vn -0.8696 -0.0915 0.4852
vn 0.0694 0.9954 0.0664
vn 0.0313 0.3117 0.9497
vn -0.8022 -0.4338 0.4103
vn -0.3693 0.6561 -0.6581
vn 0.5274 0.5252 0.6679
vn 0.7416 -0.4405 0.5058
vn 0.4271 -0.7961 0.4286
vn 0.2177 0.6755 0.7045
vn -0.8176 -0.3900 0.4237
vn -0.7774 0.4715 -0.4164
vn 0.3978 0.9083 -0.1297
vn -0.8325 -0.4449 -0.3301
vn 0.3690 0.3478 -0.8619
vn -0.2177 -0.6755 -0.7045
vn -0.0893 -0.2851 -0.9543
vn 0.1876 0.5656 -0.8031
vn -0.3256 0.7130 0.6210
vn 0.0450 0.1462 -0.9882
vn -0.7613 0.3631 0.5372
vn 0.0694 0.9954 0.0665
vn -0.1126 -0.2041 0.9725
vn -0.8021 -0.4338 0.4104
vn -0.2067 0.6907 -0.6930
vn 0.4444 0.4929 0.7481
s off
f 59/66/51 69/67/51 47/68/51
f 45/69/52 51/70/52 46/71/52
f 43/72/53 49/73/53 44/74/53
f 47/75/54 51/70/54 52/76/54
f 44/74/55 50/77/55 45/69/55
f 48/78/56 71/79/56 49/80/56
f 51/81/57 55/82/57 52/83/57
f 49/80/58 53/84/58 50/85/58
f 43/86/59 70/87/59 48/78/59
f 50/85/60 54/88/60 51/81/60
f 55/82/61 58/89/61 59/66/61
f 72/90/62 84/91/62 80/92/62
f 53/84/63 58/89/63 54/88/63
f 70/93/64 83/94/64 81/95/64
f 58/89/65 64/96/65 59/66/65
f 61/97/66 77/98/66 60/99/66
f 57/100/67 63/101/67 58/89/67
f 62/102/68 76/103/68 78/104/68
f 64/96/69 68/105/69 69/67/69
f 61/106/70 67/107/70 62/108/70
f 43/86/59 60/109/59 56/110/59
f 62/108/71 68/105/71 63/101/71
f 60/109/72 66/111/72 61/106/72
f 69/112/73 46/71/73 47/75/73
f 66/113/74 45/69/74 67/114/74
f 67/114/75 46/71/75 68/115/75
f 65/116/76 44/74/76 66/113/76
f 55/82/51 47/68/51 52/83/51
f 73/117/77 78/104/77 76/103/77
f 73/117/78 77/98/78 74/118/78
f 72/119/79 75/120/79 73/117/79
f 60/99/80 75/120/80 56/121/80
f 61/97/81 78/104/81 74/118/81
f 72/119/82 76/103/82 57/122/82
f 79/123/83 84/91/83 82/124/83
f 79/123/84 83/94/84 80/92/84
f 71/125/85 82/124/85 53/126/85
f 53/126/86 84/91/86 57/127/86
f 72/90/87 83/94/87 56/128/87
f 71/125/88 81/95/88 79/123/88
f 59/66/51 64/96/51 69/67/51
f 45/69/89 50/77/89 51/70/89
f 43/72/53 48/129/53 49/73/53
f 47/75/90 46/71/90 51/70/90
f 44/74/55 49/73/55 50/77/55
f 48/78/91 70/87/91 71/79/91
f 51/81/57 54/88/57 55/82/57
f 49/80/58 71/79/58 53/84/58
f 43/86/59 56/110/59 70/87/59
f 50/85/60 53/84/60 54/88/60
f 55/82/92 54/88/92 58/89/92
f 72/90/93 57/127/93 84/91/93
f 53/84/63 57/100/63 58/89/63
f 70/93/94 56/128/94 83/94/94
f 58/89/95 63/101/95 64/96/95
f 61/97/96 74/118/96 77/98/96
f 57/100/67 62/108/67 63/101/67
f 62/102/68 57/122/68 76/103/68
f 64/96/97 63/101/97 68/105/97
f 61/106/70 66/111/70 67/107/70
f 43/86/59 65/130/59 60/109/59
f 62/108/98 67/107/98 68/105/98
f 60/109/99 65/130/99 66/111/99
f 69/112/73 68/115/73 46/71/73
f 66/113/74 44/74/74 45/69/74
f 67/114/75 45/69/75 46/71/75
f 65/116/76 43/72/76 44/74/76
f 55/82/51 59/66/51 47/68/51
f 73/117/77 74/118/77 78/104/77
f 73/117/78 75/120/78 77/98/78
f 72/119/100 56/121/100 75/120/100
f 60/99/80 77/98/80 75/120/80
f 61/97/101 62/102/101 78/104/101
f 72/119/102 73/117/102 76/103/102
f 79/123/83 80/92/83 84/91/83
f 79/123/103 81/95/103 83/94/103
f 71/125/104 79/123/104 82/124/104
f 53/126/105 82/124/105 84/91/105
f 72/90/106 80/92/106 83/94/106
f 71/125/107 70/93/107 81/95/107
v 1.179325 4.019982 -2.321314
v 1.174762 4.006779 -2.296284
v 1.169929 3.982760 -2.281407
v 1.166120 3.954360 -2.280669
v 1.164357 3.929189 -2.294267
v 1.156655 4.018993 -2.337178
v 1.135497 4.005067 -2.323762
v 1.124589 3.980783 -2.313136
v 1.126855 3.952648 -2.308146
v 1.141688 3.928201 -2.310132
v 1.128414 3.964433 -2.365902
v 1.130168 3.938489 -2.353844
v 1.143600 3.920026 -2.336515
v 1.183150 4.003633 -2.374080
v 1.177578 3.950062 -2.386940
v 1.172745 3.926043 -2.372063
v 1.168182 3.912840 -2.347034
v 1.205819 4.004621 -2.358216
v 1.220652 3.980174 -2.360201
v 1.222918 3.952039 -2.355212
v 1.212010 3.927755 -2.344585
v 1.190852 3.913829 -2.331169
v 1.203907 4.012796 -2.331833
v 1.217339 3.994333 -2.314503
v 1.219093 3.968389 -2.302445
v 1.208698 3.941914 -2.298888
v 1.188939 3.922004 -2.304786
v 1.158568 4.010818 -2.363561
v 1.138809 3.990908 -2.369459
v 1.181387 3.978461 -2.387679
v 1.224979 3.984877 -2.411938
v 1.228183 3.985017 -2.409696
v 1.202478 4.001855 -2.389388
v 1.206081 3.958541 -2.398427
v 1.213699 4.002345 -2.381536
v 1.223486 3.959300 -2.386247
v 1.140637 3.996955 -2.417491
v 1.150715 3.994009 -2.421804
v 1.151466 4.004583 -2.404285
v 1.143186 3.978116 -2.404429
v 1.156085 4.003233 -2.406261
v 1.147818 3.976762 -2.406411
vt 0.274240 0.539347
vt 0.265397 0.539709
vt 0.266768 0.532487
vt 0.231414 0.551290
vt 0.214659 0.541092
vt 0.231357 0.542861
vt 0.231940 0.569242
vt 0.215985 0.562822
vt 0.231472 0.559719
vt 0.230890 0.533338
vt 0.220414 0.530957
vt 0.213134 0.552274
vt 0.289666 0.544440
vt 0.282983 0.540904
vt 0.290637 0.536818
vt 0.279682 0.529141
vt 0.275518 0.536619
vt 0.273707 0.532162
vt 0.280945 0.538772
vt 0.286431 0.530872
vt 0.290637 0.551375
vt 0.284312 0.543753
vt 0.278488 0.537315
vt 0.276318 0.541045
vt 0.804698 0.251197
vt 0.792375 0.255919
vt 0.792638 0.252041
vt 0.786357 0.239035
vt 0.792578 0.249274
vt 0.791489 0.249454
vt 0.271776 0.541127
vt 0.760733 0.199751
vt 0.757502 0.209505
vt 0.750621 0.206121
vt 0.278108 0.542645
vt 0.273009 0.544115
vt 0.772804 0.201934
vt 0.766718 0.213101
vt 0.766203 0.208706
vt 0.264007 0.548518
vt 0.277612 0.547903
vt 0.268747 0.555467
vt 0.275021 0.546378
vt 0.280714 0.548498
vt 0.281954 0.545638
vt 0.276612 0.557409
vt 0.240880 0.530957
vt 0.248168 0.561486
vt 0.249693 0.550306
vt 0.246843 0.539760
vt 0.242415 0.571620
vt 0.762287 0.211045
vt 0.762255 0.210544
vt 0.761023 0.221925
vt 0.757316 0.212491
vt 0.750922 0.216572
vt 0.772804 0.220841
vt 0.791613 0.252007
vt 0.791097 0.255536
vt 0.780068 0.250772
vt 0.780487 0.263708
vt 0.804698 0.264828
vt 0.798786 0.238814
vt 0.221949 0.571626
vt 0.283377 0.553479
vn -0.1561 -0.9466 0.2820
vn -0.5735 0.0980 0.8133
vn -0.3155 0.8618 0.3971
vn -0.5198 -0.3776 0.7663
vn -0.5029 0.5260 0.6859
vn -0.6427 0.7174 -0.2689
vn -0.8470 -0.5220 0.1004
vn -0.9246 0.3399 -0.1723
vn 0.1561 0.9466 -0.2820
vn -0.9951 -0.0881 -0.0448
vn -0.4294 -0.7642 -0.4813
vn 0.3961 -0.6475 -0.6510
vn -0.4569 -0.4001 -0.7944
vn 0.2030 0.9620 -0.1827
vn 0.3155 -0.8619 -0.3971
vn 0.8392 0.4900 0.2358
vn 0.5029 -0.5260 -0.6859
vn 0.1956 -0.9557 -0.2200
vn 0.6427 -0.7174 0.2689
vn 0.9951 0.0881 0.0448
vn 0.9245 -0.3399 0.1723
vn 0.8470 0.5220 -0.1003
vn 0.2250 -0.4753 0.8506
vn 0.4569 0.4001 0.7944
vn 0.3864 -0.0278 0.9219
vn 0.4294 0.7642 0.4813
vn 0.4576 -0.6433 -0.6138
vn 0.2495 0.8768 -0.4111
vn -0.4913 0.3859 -0.7808
vn 0.0199 0.9957 -0.0905
vn 0.9882 -0.0476 0.1457
vn -0.3806 0.0270 -0.9244
vn -0.4595 -0.5472 -0.6996
vn 0.0286 0.8552 -0.5175
vn -0.9152 0.3278 -0.2345
vn -0.4209 -0.7918 -0.4426
vn 0.7322 0.2833 -0.6193
vn -0.6323 0.7712 0.0730
vn -0.5734 0.0980 0.8134
vn -0.3155 0.8619 0.3970
vn -0.9245 0.3399 -0.1723
vn 0.1560 0.9466 -0.2820
vn -0.4294 -0.7642 -0.4814
vn 0.4888 -0.0881 -0.8679
vn 0.2030 0.9620 -0.1826
vn 0.3155 -0.8618 -0.3971
vn 0.8775 0.4456 0.1771
vn 0.9246 -0.3399 0.1723
vn 0.8470 0.5220 -0.1004
vn 0.4294 0.7642 0.4814
vn 0.2495 0.8767 -0.4112
vn -0.5359 0.4300 -0.7265
vn 0.9955 0.0870 0.0386
vn -0.4707 -0.1112 -0.8752
vn -0.4594 -0.5473 -0.6996
vn 0.0285 0.8553 -0.5174
vn -0.9829 -0.1741 -0.0593
vn -0.4209 -0.7918 -0.4425
vn 0.7643 0.4031 -0.5033
vn -0.7122 0.7018 0.0167
s off
f 101/131/108 111/132/108 89/133/108
f 87/134/109 93/135/109 88/136/109
f 85/137/110 91/138/110 86/139/110
f 89/140/111 93/135/111 94/141/111
f 86/139/112 92/142/112 87/134/112
f 90/143/113 113/144/113 91/145/113
f 93/146/114 97/147/114 94/148/114
f 91/145/115 95/149/115 92/150/115
f 85/151/116 112/152/116 90/143/116
f 92/150/117 96/153/117 93/146/117
f 97/147/118 100/154/118 101/131/118
f 114/155/119 126/156/119 122/157/119
f 95/149/120 100/154/120 96/153/120
f 112/158/121 125/159/121 123/160/121
f 100/154/122 106/161/122 101/131/122
f 103/162/123 119/163/123 102/164/123
f 99/165/124 105/166/124 100/154/124
f 104/167/125 118/168/125 120/169/125
f 106/161/126 110/170/126 111/132/126
f 103/171/127 109/172/127 104/173/127
f 85/151/116 102/174/116 98/175/116
f 104/173/128 110/170/128 105/166/128
f 102/174/129 108/176/129 103/171/129
f 111/177/130 88/136/130 89/140/130
f 108/178/131 87/134/131 109/179/131
f 109/179/132 88/136/132 110/180/132
f 107/181/133 86/139/133 108/178/133
f 97/147/108 89/133/108 94/148/108
f 115/182/134 120/169/134 118/168/134
f 115/182/135 119/163/135 116/183/135
f 114/184/136 117/185/136 115/182/136
f 102/164/137 117/185/137 98/186/137
f 103/162/138 120/169/138 116/183/138
f 114/184/139 118/168/139 99/187/139
f 121/188/140 126/156/140 124/189/140
f 121/188/141 125/159/141 122/157/141
f 113/190/142 124/189/142 95/191/142
f 95/191/143 126/156/143 99/192/143
f 114/155/144 125/159/144 98/193/144
f 113/190/145 123/160/145 121/188/145
f 101/131/108 106/161/108 111/132/108
f 87/134/146 92/142/146 93/135/146
f 85/137/147 90/194/147 91/138/147
f 89/140/111 88/136/111 93/135/111
f 86/139/112 91/138/112 92/142/112
f 90/143/113 112/152/113 113/144/113
f 93/146/114 96/153/114 97/147/114
f 91/145/148 113/144/148 95/149/148
f 85/151/149 98/175/149 112/152/149
f 92/150/117 95/149/117 96/153/117
f 97/147/150 96/153/150 100/154/150
f 114/155/151 99/192/151 126/156/151
f 95/149/120 99/165/120 100/154/120
f 112/158/152 98/193/152 125/159/152
f 100/154/153 105/166/153 106/161/153
f 103/162/154 116/183/154 119/163/154
f 99/165/124 104/173/124 105/166/124
f 104/167/125 99/187/125 118/168/125
f 106/161/126 105/166/126 110/170/126
f 103/171/127 108/176/127 109/172/127
f 85/151/116 107/195/116 102/174/116
f 104/173/155 109/172/155 110/170/155
f 102/174/156 107/195/156 108/176/156
f 111/177/130 110/180/130 88/136/130
f 108/178/131 86/139/131 87/134/131
f 109/179/132 87/134/132 88/136/132
f 107/181/157 85/137/157 86/139/157
f 97/147/108 101/131/108 89/133/108
f 115/182/134 116/183/134 120/169/134
f 115/182/158 117/185/158 119/163/158
f 114/184/159 98/186/159 117/185/159
f 102/164/137 119/163/137 117/185/137
f 103/162/160 104/167/160 120/169/160
f 114/184/161 115/182/161 118/168/161
f 121/188/162 122/157/162 126/156/162
f 121/188/163 123/160/163 125/159/163
f 113/190/164 121/188/164 124/189/164
f 95/191/165 124/189/165 126/156/165
f 114/155/166 122/157/166 125/159/166
f 113/190/167 112/158/167 123/160/167
