# Blender v2.81 (sub 16) OBJ File: 'garbage.blend'
# www.blender.org
v -3.518013 2.489187 2.104097
v -3.510979 2.477626 2.078829
v -3.504214 2.454667 2.063057
v -3.499531 2.426463 2.061008
v -3.498183 2.400571 2.073230
v -3.496737 2.487795 2.121760
v -3.474129 2.475214 2.109423
v -3.461664 2.451883 2.098384
v -3.462681 2.424052 2.091602
v -3.476908 2.399179 2.090893
v -3.469432 2.432306 2.149596
v -3.469408 2.407098 2.135952
v -3.480792 2.389390 2.116499
v -3.525780 2.469610 2.155309
v -3.519750 2.415514 2.165481
v -3.512985 2.392555 2.149709
v -3.505951 2.380994 2.124441
v -3.547055 2.471002 2.137646
v -3.561283 2.446129 2.136937
v -3.562300 2.418298 2.130154
v -3.549835 2.394967 2.119116
v -3.527227 2.382386 2.106778
v -3.543172 2.480791 2.112040
v -3.554556 2.463083 2.092586
v -3.554532 2.437875 2.078943
v -3.543108 2.411921 2.074765
v -3.523343 2.392175 2.081172
v -3.500621 2.478006 2.147366
v -3.480856 2.458261 2.153774
v -3.524433 2.443718 2.167531
v -3.570079 2.447610 2.188299
v -3.573085 2.447807 2.185802
v -3.546267 2.466451 2.168777
v -3.549352 2.422597 2.174957
v -3.556798 2.467140 2.160034
v -3.565687 2.423666 2.161395
v -3.486890 2.461366 2.201742
v -3.497205 2.457924 2.204998
v -3.496789 2.469510 2.188120
v -3.487782 2.443289 2.187443
v -3.501516 2.467933 2.189612
v -3.492523 2.441707 2.188939
vt 0.274240 0.539347
vt 0.265397 0.539709
vt 0.266768 0.532487
vt 0.231414 0.551290
vt 0.214659 0.541092
vt 0.231357 0.542861
vt 0.231940 0.569242
vt 0.215985 0.562822
vt 0.231472 0.559719
vt 0.230890 0.533338
vt 0.220414 0.530957
vt 0.213134 0.552274
vt 0.289666 0.544440
vt 0.282983 0.540904
vt 0.290637 0.536818
vt 0.279682 0.529141
vt 0.275518 0.536619
vt 0.273707 0.532162
vt 0.280945 0.538772
vt 0.286431 0.530872
vt 0.290637 0.551375
vt 0.284312 0.543753
vt 0.278488 0.537315
vt 0.276318 0.541045
vt 0.804698 0.251197
vt 0.792375 0.255919
vt 0.792638 0.252041
vt 0.786357 0.239035
vt 0.792578 0.249274
vt 0.791489 0.249454
vt 0.271776 0.541127
vt 0.760733 0.199751
vt 0.757502 0.209505
vt 0.750621 0.206121
vt 0.278108 0.542645
vt 0.273009 0.544115
vt 0.772804 0.201934
vt 0.766718 0.213101
vt 0.766203 0.208706
vt 0.264007 0.548518
vt 0.277612 0.547903
vt 0.268747 0.555467
vt 0.275021 0.546378
vt 0.280714 0.548498
vt 0.281954 0.545638
vt 0.276612 0.557409
vt 0.240880 0.530957
vt 0.248168 0.561486
vt 0.249693 0.550306
vt 0.246843 0.539760
vt 0.242415 0.571620
vt 0.762287 0.211045
vt 0.762255 0.210544
vt 0.761023 0.221925
vt 0.757316 0.212491
vt 0.750922 0.216572
vt 0.772804 0.220841
vt 0.791613 0.252007
vt 0.791097 0.255536
vt 0.780068 0.250772
vt 0.780487 0.263708
vt 0.804698 0.264828
vt 0.798786 0.238814
vt 0.221949 0.571626
vt 0.283377 0.553479
vn 0.2068 -0.9239 -0.3218
vn 0.6367 0.1605 -0.7542
vn 0.3225 0.8915 -0.3181
vn 0.5932 -0.3182 -0.7395
vn 0.5432 0.5782 -0.6087
vn 0.5966 0.7153 0.3639
vn 0.8673 -0.4945 -0.0575
vn 0.8965 0.3511 0.2702
vn -0.2068 0.9239 0.3218
vn 0.9900 -0.0666 0.1247
vn 0.4095 -0.7811 0.4714
vn -0.4304 -0.6948 0.5762
vn 0.4000 -0.4360 0.8062
vn -0.2456 0.9441 0.2199
vn -0.3225 -0.8915 0.3181
vn -0.8304 0.4829 -0.2780
vn -0.5432 -0.5782 0.6087
vn -0.1855 -0.9716 0.1468
vn -0.5966 -0.7153 -0.3639
vn -0.9900 0.0666 -0.1247
vn -0.2067 0.9239 0.3218
vn -0.8965 -0.3511 -0.2702
vn -0.8673 0.4945 0.0575
vn -0.1388 -0.4286 -0.8928
vn -0.4000 0.4360 -0.8062
vn -0.3065 0.0183 -0.9517
vn -0.4095 0.7811 -0.4714
vn 0.2067 -0.9239 -0.3218
vn -0.4886 -0.6898 0.5342
vn -0.3087 0.8442 0.4382
vn 0.4125 0.3501 0.8410
vn -0.0564 0.9877 0.1458
vn -0.9706 -0.0626 -0.2323
vn 0.3006 -0.0194 0.9536
vn 0.4146 -0.5771 0.7036
vn -0.0969 0.8217 0.5617
vn 0.8823 0.3352 0.3305
vn 0.4051 -0.8066 0.4305
vn -0.7896 0.2278 0.5697
vn 0.6135 0.7893 0.0261
vn 0.2067 -0.9240 -0.3218
vn 0.3225 0.8915 -0.3182
vn -0.5573 -0.1518 0.8163
vn -0.2457 0.9441 0.2199
vn -0.8722 0.4341 -0.2256
vn -0.8673 0.4944 0.0575
vn -0.4887 -0.6898 0.5342
vn -0.3086 0.8442 0.4383
vn 0.4602 0.3984 0.7934
vn -0.0565 0.9877 0.1458
vn -0.9908 0.0651 -0.1186
vn 0.3985 -0.1522 0.9044
vn 0.4147 -0.5770 0.7036
vn -0.0969 0.8217 0.5616
vn 0.9791 -0.1536 0.1331
vn -0.8154 0.3536 0.4585
vn 0.6903 0.7185 0.0849
s off
f 17/1/1 27/2/1 5/3/1
f 3/4/2 9/5/2 4/6/2
f 1/7/3 7/8/3 2/9/3
f 5/10/4 9/5/4 10/11/4
f 2/9/5 8/12/5 3/4/5
f 6/13/6 29/14/6 7/15/6
f 9/16/7 13/17/7 10/18/7
f 7/15/8 11/19/8 8/20/8
f 1/21/9 28/22/9 6/13/9
f 8/20/10 12/23/10 9/16/10
f 13/17/11 16/24/11 17/1/11
f 30/25/12 42/26/12 38/27/12
f 11/19/13 16/24/13 12/23/13
f 28/28/14 41/29/14 39/30/14
f 16/24/15 22/31/15 17/1/15
f 19/32/16 35/33/16 18/34/16
f 15/35/17 21/36/17 16/24/17
f 20/37/18 34/38/18 36/39/18
f 22/31/19 26/40/19 27/2/19
f 19/41/20 25/42/20 20/43/20
f 1/21/21 18/44/21 14/45/21
f 20/43/22 26/40/22 21/36/22
f 18/44/23 24/46/23 19/41/23
f 27/47/24 4/6/24 5/10/24
f 24/48/25 3/4/25 25/49/25
f 25/49/26 4/6/26 26/50/26
f 23/51/27 2/9/27 24/48/27
f 13/17/28 5/3/28 10/18/28
f 31/52/29 36/39/29 34/38/29
f 31/52/30 35/33/30 32/53/30
f 30/54/31 33/55/31 31/52/31
f 18/34/32 33/55/32 14/56/32
f 19/32/33 36/39/33 32/53/33
f 30/54/34 34/38/34 15/57/34
f 37/58/35 42/26/35 40/59/35
f 37/58/36 41/29/36 38/27/36
f 29/60/37 40/59/37 11/61/37
f 11/61/38 42/26/38 15/62/38
f 30/25/39 41/29/39 14/63/39
f 29/60/40 39/30/40 37/58/40
f 17/1/41 22/31/41 27/2/41
f 3/4/2 8/12/2 9/5/2
f 1/7/42 6/64/42 7/8/42
f 5/10/4 4/6/4 9/5/4
f 2/9/5 7/8/5 8/12/5
f 6/13/6 28/22/6 29/14/6
f 9/16/7 12/23/7 13/17/7
f 7/15/8 29/14/8 11/19/8
f 1/21/21 14/45/21 28/22/21
f 8/20/10 11/19/10 12/23/10
f 13/17/11 12/23/11 16/24/11
f 30/25/43 15/62/43 42/26/43
f 11/19/13 15/35/13 16/24/13
f 28/28/44 14/63/44 41/29/44
f 16/24/15 21/36/15 22/31/15
f 19/32/45 32/53/45 35/33/45
f 15/35/17 20/43/17 21/36/17
f 20/37/18 15/57/18 34/38/18
f 22/31/19 21/36/19 26/40/19
f 19/41/20 24/46/20 25/42/20
f 1/21/21 23/65/21 18/44/21
f 20/43/22 25/42/22 26/40/22
f 18/44/46 23/65/46 24/46/46
f 27/47/24 26/50/24 4/6/24
f 24/48/25 2/9/25 3/4/25
f 25/49/26 3/4/26 4/6/26
f 23/51/27 1/7/27 2/9/27
f 13/17/28 17/1/28 5/3/28
f 31/52/47 32/53/47 36/39/47
f 31/52/48 33/55/48 35/33/48
f 30/54/49 14/56/49 33/55/49
f 18/34/50 35/33/50 33/55/50
f 19/32/51 20/37/51 36/39/51
f 30/54/52 31/52/52 34/38/52
f 37/58/53 38/27/53 42/26/53
f 37/58/54 39/30/54 41/29/54
f 29/60/55 37/58/55 40/59/55
f 11/61/38 40/59/38 42/26/38
f 30/25/56 38/27/56 41/29/56
f 29/60/57 28/28/57 39/30/57
v -0.191737 3.952080 1.967074
v -0.213150 3.935054 1.975628
v -0.222884 3.909012 1.982604
v -0.218332 3.880933 1.986133
v -0.200713 3.858341 1.985268
v -0.184477 3.946321 1.940984
v -0.200576 3.925079 1.930439
v -0.208365 3.897494 1.930424
v -0.205758 3.870958 1.940943
v -0.193453 3.852582 1.959178
v -0.155046 3.889891 1.917557
v -0.159582 3.864374 1.929800
v -0.166794 3.848780 1.952744
v -0.138418 3.944478 1.954207
v -0.116247 3.893806 1.956870
v -0.125981 3.867765 1.963846
v -0.147394 3.850738 1.972401
v -0.145678 3.950237 1.980297
v -0.133373 3.931860 1.998532
v -0.130766 3.905324 2.009051
v -0.138555 3.877739 2.009036
v -0.154654 3.856497 1.998491
v -0.172337 3.954038 1.986731
v -0.179549 3.938444 2.009675
v -0.184085 3.912927 2.021918
v -0.184731 3.884323 2.020179
v -0.181313 3.860298 2.004924
v -0.157818 3.942520 1.934550
v -0.154400 3.918495 1.919296
v -0.120799 3.921885 1.953342
v -0.085640 3.944172 1.981575
v -0.086666 3.944986 1.985262
v -0.117605 3.950570 1.966073
v -0.098243 3.911872 1.975994
v -0.121199 3.953420 1.978987
v -0.103817 3.916294 1.996026
v -0.111193 3.930854 1.901201
v -0.103240 3.931656 1.909260
v -0.121449 3.939653 1.914134
v -0.118008 3.912163 1.912874
v -0.117804 3.940021 1.917827
v -0.114353 3.912532 1.916578
vt 0.274240 0.539347
vt 0.265397 0.539709
vt 0.266768 0.532487
vt 0.231414 0.551290
vt 0.214659 0.541092
vt 0.231357 0.542861
vt 0.231940 0.569242
vt 0.215985 0.562822
vt 0.231472 0.559719
vt 0.230890 0.533338
vt 0.220414 0.530957
vt 0.213134 0.552274
vt 0.289666 0.544440
vt 0.282983 0.540904
vt 0.290637 0.536818
vt 0.279682 0.529141
vt 0.275518 0.536619
vt 0.273707 0.532162
vt 0.280945 0.538772
vt 0.286431 0.530872
vt 0.290637 0.551375
vt 0.284312 0.543753
vt 0.278488 0.537315
vt 0.276318 0.541045
vt 0.804698 0.251197
vt 0.792375 0.255919
vt 0.792638 0.252041
vt 0.786357 0.239035
vt 0.792578 0.249274
vt 0.791489 0.249454
vt 0.271776 0.541127
vt 0.760733 0.199751
vt 0.757502 0.209505
vt 0.750621 0.206121
vt 0.278108 0.542645
vt 0.273009 0.544115
vt 0.772804 0.201934
vt 0.766718 0.213101
vt 0.766203 0.208706
vt 0.264007 0.548518
vt 0.277612 0.547903
vt 0.268747 0.555467
vt 0.275021 0.546378
vt 0.280714 0.548498
vt 0.281954 0.545638
vt 0.276612 0.557409
vt 0.240880 0.530957
vt 0.248168 0.561486
vt 0.249693 0.550306
vt 0.246843 0.539760
vt 0.242415 0.571620
vt 0.762287 0.211045
vt 0.762255 0.210544
vt 0.761023 0.221925
vt 0.757316 0.212491
vt 0.750922 0.216572
vt 0.772804 0.220841
vt 0.791613 0.252007
vt 0.791097 0.255536
vt 0.780068 0.250772
vt 0.780487 0.263708
vt 0.804698 0.264828
vt 0.798786 0.238814
vt 0.221949 0.571626
vt 0.283377 0.553479
vn -0.0936 -0.9774 0.1897
vn -0.9568 -0.1835 -0.2257
vn -0.6648 0.6689 -0.3326
vn -0.7873 -0.6108 -0.0842
vn -0.9145 0.2584 -0.3115
vn -0.1301 0.5182 -0.8453
vn -0.2526 -0.7615 -0.5969
vn -0.2254 0.0642 -0.9721
vn 0.0936 0.9774 -0.1897
vn -0.2677 -0.3777 -0.8864
vn 0.4734 -0.7905 -0.3885
vn 0.8750 -0.4099 0.2577
vn 0.6678 -0.4151 -0.6178
vn 0.0147 0.9934 -0.1134
vn 0.6648 -0.6689 0.3326
vn -0.0504 0.6863 0.7256
vn 0.9144 -0.2584 0.3115
vn 0.4844 -0.8162 0.3149
vn 0.1301 -0.5182 0.8453
vn 0.2678 0.3777 0.8864
vn 0.2254 -0.0642 0.9721
vn 0.2526 0.7615 0.5969
vn -0.5959 -0.4891 0.6369
vn -0.6678 0.4151 0.6178
vn -0.7102 -0.0267 0.7035
vn -0.4734 0.7905 0.3885
vn 0.8603 -0.3920 0.3259
vn 0.2587 0.9559 -0.1391
vn 0.4645 0.3155 -0.8275
vn -0.1380 0.9584 -0.2499
vn 0.2041 0.2346 0.9504
vn 0.7145 0.0280 -0.6991
vn 0.6138 -0.5669 -0.5494
vn 0.2879 0.8824 -0.3720
vn -0.1627 0.0635 -0.9846
vn 0.4470 -0.8190 -0.3596
vn 0.7445 0.5671 0.3524
vn -0.4521 0.5288 -0.7183
vn -0.7873 -0.6108 -0.0843
vn -0.9144 0.2584 -0.3115
vn -0.2255 0.0642 -0.9721
vn -0.2678 -0.3777 -0.8864
vn 0.9765 0.1743 0.1269
vn 0.0261 0.6633 0.7479
vn 0.2587 0.9559 -0.1390
vn 0.3899 0.3369 -0.8570
vn 0.2738 0.3776 0.8846
vn 0.6713 -0.1360 -0.7286
vn 0.2879 0.8824 -0.3721
vn -0.2308 -0.4535 -0.8609
vn 0.4470 -0.8190 -0.3597
vn 0.6215 0.6753 0.3972
vn -0.4111 0.4462 -0.7949
s off
f 59/66/58 69/67/58 47/68/58
f 45/69/59 51/70/59 46/71/59
f 43/72/60 49/73/60 44/74/60
f 47/75/61 51/70/61 52/76/61
f 44/74/62 50/77/62 45/69/62
f 48/78/63 71/79/63 49/80/63
f 51/81/64 55/82/64 52/83/64
f 49/80/65 53/84/65 50/85/65
f 43/86/66 70/87/66 48/78/66
f 50/85/67 54/88/67 51/81/67
f 55/82/68 58/89/68 59/66/68
f 72/90/69 84/91/69 80/92/69
f 53/84/70 58/89/70 54/88/70
f 70/93/71 83/94/71 81/95/71
f 58/89/72 64/96/72 59/66/72
f 61/97/73 77/98/73 60/99/73
f 57/100/74 63/101/74 58/89/74
f 62/102/75 76/103/75 78/104/75
f 64/96/76 68/105/76 69/67/76
f 61/106/77 67/107/77 62/108/77
f 43/86/66 60/109/66 56/110/66
f 62/108/78 68/105/78 63/101/78
f 60/109/79 66/111/79 61/106/79
f 69/112/80 46/71/80 47/75/80
f 66/113/81 45/69/81 67/114/81
f 67/114/82 46/71/82 68/115/82
f 65/116/83 44/74/83 66/113/83
f 55/82/58 47/68/58 52/83/58
f 73/117/84 78/104/84 76/103/84
f 73/117/85 77/98/85 74/118/85
f 72/119/86 75/120/86 73/117/86
f 60/99/87 75/120/87 56/121/87
f 61/97/88 78/104/88 74/118/88
f 72/119/89 76/103/89 57/122/89
f 79/123/90 84/91/90 82/124/90
f 79/123/91 83/94/91 80/92/91
f 71/125/92 82/124/92 53/126/92
f 53/126/93 84/91/93 57/127/93
f 72/90/94 83/94/94 56/128/94
f 71/125/95 81/95/95 79/123/95
f 59/66/58 64/96/58 69/67/58
f 45/69/59 50/77/59 51/70/59
f 43/72/60 48/129/60 49/73/60
f 47/75/96 46/71/96 51/70/96
f 44/74/97 49/73/97 50/77/97
f 48/78/63 70/87/63 71/79/63
f 51/81/64 54/88/64 55/82/64
f 49/80/98 71/79/98 53/84/98
f 43/86/66 56/110/66 70/87/66
f 50/85/99 53/84/99 54/88/99
f 55/82/68 54/88/68 58/89/68
f 72/90/100 57/127/100 84/91/100
f 53/84/70 57/100/70 58/89/70
f 70/93/71 56/128/71 83/94/71
f 58/89/72 63/101/72 64/96/72
f 61/97/101 74/118/101 77/98/101
f 57/100/74 62/108/74 63/101/74
f 62/102/75 57/122/75 76/103/75
f 64/96/76 63/101/76 68/105/76
f 61/106/77 66/111/77 67/107/77
f 43/86/66 65/130/66 60/109/66
f 62/108/78 67/107/78 68/105/78
f 60/109/79 65/130/79 66/111/79
f 69/112/80 68/115/80 46/71/80
f 66/113/81 44/74/81 45/69/81
f 67/114/82 45/69/82 46/71/82
f 65/116/83 43/72/83 44/74/83
f 55/82/58 59/66/58 47/68/58
f 73/117/84 74/118/84 78/104/84
f 73/117/102 75/120/102 77/98/102
f 72/119/103 56/121/103 75/120/103
f 60/99/87 77/98/87 75/120/87
f 61/97/104 62/102/104 78/104/104
f 72/119/105 73/117/105 76/103/105
f 79/123/90 80/92/90 84/91/90
f 79/123/106 81/95/106 83/94/106
f 71/125/107 79/123/107 82/124/107
f 53/126/108 82/124/108 84/91/108
f 72/90/109 80/92/109 83/94/109
f 71/125/110 70/93/110 81/95/110
v -1.124313 4.261392 -0.018609
v -1.126983 4.240132 -0.037648
v -1.126294 4.212163 -0.043885
v -1.122430 4.184981 -0.035650
v -1.116428 4.165869 -0.015149
v -1.098012 4.263864 -0.010319
v -1.081428 4.244412 -0.023289
v -1.073692 4.217106 -0.027305
v -1.076876 4.189262 -0.021291
v -1.090128 4.168341 -0.006859
v -1.061846 4.220040 0.026708
v -1.066618 4.191803 0.025485
v -1.084205 4.169808 0.020148
v -1.112468 4.264327 0.035403
v -1.102603 4.218032 0.064140
v -1.101913 4.190064 0.057902
v -1.104583 4.168804 0.038864
v -1.138768 4.261855 0.027113
v -1.152020 4.240934 0.041545
v -1.155204 4.213090 0.047559
v -1.147468 4.185784 0.043543
v -1.130884 4.166332 0.030574
v -1.144691 4.260388 0.000107
v -1.162278 4.238393 -0.005231
v -1.167050 4.210155 -0.006453
v -1.157726 4.183242 -0.003233
v -1.136806 4.164865 0.003567
v -1.092090 4.265331 0.016687
v -1.071170 4.246953 0.023487
v -1.106466 4.245214 0.055904
v -1.141273 4.263279 0.087401
v -1.144990 4.262930 0.086230
v -1.126515 4.269553 0.055061
v -1.126691 4.232372 0.079317
v -1.139533 4.268330 0.050958
v -1.146885 4.230474 0.072952
v -1.059122 4.269081 0.064866
v -1.067477 4.268670 0.072539
v -1.073422 4.272692 0.053362
v -1.065053 4.247227 0.060477
v -1.077251 4.272503 0.056879
v -1.068893 4.247038 0.064003
vt 0.274240 0.539347
vt 0.265397 0.539709
vt 0.266768 0.532487
vt 0.231414 0.551290
vt 0.214659 0.541092
vt 0.231357 0.542861
vt 0.231940 0.569242
vt 0.215985 0.562822
vt 0.231472 0.559719
vt 0.230890 0.533338
vt 0.220414 0.530957
vt 0.213134 0.552274
vt 0.289666 0.544440
vt 0.282983 0.540904
vt 0.290637 0.536818
vt 0.279682 0.529141
vt 0.275518 0.536619
vt 0.273707 0.532162
vt 0.280945 0.538772
vt 0.286431 0.530872
vt 0.290637 0.551375
vt 0.284312 0.543753
vt 0.278488 0.537315
vt 0.276318 0.541045
vt 0.804698 0.251197
vt 0.792375 0.255919
vt 0.792638 0.252041
vt 0.786357 0.239035
vt 0.792578 0.249274
vt 0.791489 0.249454
vt 0.271776 0.541127
vt 0.760733 0.199751
vt 0.757502 0.209505
vt 0.750621 0.206121
vt 0.278108 0.542645
vt 0.273009 0.544115
vt 0.772804 0.201934
vt 0.766718 0.213101
vt 0.766203 0.208706
vt 0.264007 0.548518
vt 0.277612 0.547903
vt 0.268747 0.555467
vt 0.275021 0.546378
vt 0.280714 0.548498
vt 0.281954 0.545638
vt 0.276612 0.557409
vt 0.240880 0.530957
vt 0.248168 0.561486
vt 0.249693 0.550306
vt 0.246843 0.539760
vt 0.242415 0.571620
vt 0.762287 0.211045
vt 0.762255 0.210544
vt 0.761023 0.221925
vt 0.757316 0.212491
vt 0.750922 0.216572
vt 0.772804 0.220841
vt 0.791613 0.252007
vt 0.791097 0.255536
vt 0.780068 0.250772
vt 0.780487 0.263708
vt 0.804698 0.264828
vt 0.798786 0.238814
vt 0.221949 0.571626
vt 0.283377 0.553479
vn 0.0822 -0.9960 0.0361
vn 0.3122 -0.2345 -0.9206
vn 0.1740 0.6447 -0.7444
vn 0.2817 -0.6593 -0.6971
vn 0.2751 0.2157 -0.9369
vn 0.6820 0.7068 -0.1880
vn 0.7896 -0.5972 -0.1407
vn 0.9296 0.2957 -0.2200
vn -0.0822 0.9960 -0.0361
vn 0.9668 -0.1545 -0.2036
vn 0.5618 -0.5899 0.5800
vn -0.1810 -0.3507 0.9188
vn 0.6731 -0.1451 0.7251
vn -0.1562 0.9807 -0.1174
vn -0.1740 -0.6447 0.7443
vn -0.8789 0.4525 -0.1511
vn -0.2750 -0.2157 0.9369
vn -0.1091 -0.8032 0.5857
vn -0.6820 -0.7068 0.1880
vn -0.9668 0.1545 0.2036
vn -0.9296 -0.2957 0.2199
vn -0.7896 0.5972 0.1407
vn -0.4541 -0.7141 -0.5328
vn -0.6731 0.1451 -0.7251
vn -0.6360 -0.3051 -0.7088
vn -0.5618 0.5899 -0.5800
vn -0.2508 -0.3540 0.9010
vn -0.1332 0.9826 0.1298
vn 0.6902 0.5834 0.4282
vn -0.0080 0.9650 -0.2623
vn -0.9873 -0.0074 0.1590
vn 0.6311 0.3057 0.7129
vn 0.6503 -0.3153 0.6912
vn 0.1093 0.9791 0.1715
vn 0.9388 0.3064 -0.1575
vn 0.5428 -0.6283 0.5573
vn -0.5261 0.5397 0.6572
vn 0.5724 0.6420 -0.5100
vn 0.2750 0.2157 -0.9369
vn 0.9296 0.2957 -0.2199
vn -0.2156 0.2550 0.9426
vn 0.6732 -0.1451 0.7251
vn -0.1561 0.9807 -0.1174
vn -0.1740 -0.6447 0.7444
vn -0.8979 0.4341 -0.0724
vn -0.2751 -0.2157 0.9369
vn -0.1091 -0.8032 0.5856
vn -0.7896 0.5972 0.1408
vn -0.1332 0.9825 0.1298
vn 0.7165 0.6024 0.3518
vn -0.0080 0.9649 -0.2623
vn -0.9653 0.1557 0.2097
vn 0.7053 0.1517 0.6925
vn 0.6503 -0.3153 0.6911
vn 0.1093 0.9791 0.1716
vn 0.9606 -0.2291 -0.1572
vn 0.5429 -0.6282 0.5574
vn -0.5922 0.6154 0.5203
vn 0.6662 0.5891 -0.4573
s off
f 101/131/111 111/132/111 89/133/111
f 87/134/112 93/135/112 88/136/112
f 85/137/113 91/138/113 86/139/113
f 89/140/114 93/135/114 94/141/114
f 86/139/115 92/142/115 87/134/115
f 90/143/116 113/144/116 91/145/116
f 93/146/117 97/147/117 94/148/117
f 91/145/118 95/149/118 92/150/118
f 85/151/119 112/152/119 90/143/119
f 92/150/120 96/153/120 93/146/120
f 97/147/121 100/154/121 101/131/121
f 114/155/122 126/156/122 122/157/122
f 95/149/123 100/154/123 96/153/123
f 112/158/124 125/159/124 123/160/124
f 100/154/125 106/161/125 101/131/125
f 103/162/126 119/163/126 102/164/126
f 99/165/127 105/166/127 100/154/127
f 104/167/128 118/168/128 120/169/128
f 106/161/129 110/170/129 111/132/129
f 103/171/130 109/172/130 104/173/130
f 85/151/119 102/174/119 98/175/119
f 104/173/131 110/170/131 105/166/131
f 102/174/132 108/176/132 103/171/132
f 111/177/133 88/136/133 89/140/133
f 108/178/134 87/134/134 109/179/134
f 109/179/135 88/136/135 110/180/135
f 107/181/136 86/139/136 108/178/136
f 97/147/111 89/133/111 94/148/111
f 115/182/137 120/169/137 118/168/137
f 115/182/138 119/163/138 116/183/138
f 114/184/139 117/185/139 115/182/139
f 102/164/140 117/185/140 98/186/140
f 103/162/141 120/169/141 116/183/141
f 114/184/142 118/168/142 99/187/142
f 121/188/143 126/156/143 124/189/143
f 121/188/144 125/159/144 122/157/144
f 113/190/145 124/189/145 95/191/145
f 95/191/146 126/156/146 99/192/146
f 114/155/147 125/159/147 98/193/147
f 113/190/148 123/160/148 121/188/148
f 101/131/111 106/161/111 111/132/111
f 87/134/112 92/142/112 93/135/112
f 85/137/113 90/194/113 91/138/113
f 89/140/114 88/136/114 93/135/114
f 86/139/149 91/138/149 92/142/149
f 90/143/116 112/152/116 113/144/116
f 93/146/117 96/153/117 97/147/117
f 91/145/150 113/144/150 95/149/150
f 85/151/119 98/175/119 112/152/119
f 92/150/120 95/149/120 96/153/120
f 97/147/121 96/153/121 100/154/121
f 114/155/151 99/192/151 126/156/151
f 95/149/152 99/165/152 100/154/152
f 112/158/153 98/193/153 125/159/153
f 100/154/154 105/166/154 106/161/154
f 103/162/155 116/183/155 119/163/155
f 99/165/156 104/173/156 105/166/156
f 104/167/157 99/187/157 118/168/157
f 106/161/129 105/166/129 110/170/129
f 103/171/130 108/176/130 109/172/130
f 85/151/119 107/195/119 102/174/119
f 104/173/131 109/172/131 110/170/131
f 102/174/158 107/195/158 108/176/158
f 111/177/133 110/180/133 88/136/133
f 108/178/134 86/139/134 87/134/134
f 109/179/135 87/134/135 88/136/135
f 107/181/136 85/137/136 86/139/136
f 97/147/111 101/131/111 89/133/111
f 115/182/137 116/183/137 120/169/137
f 115/182/159 117/185/159 119/163/159
f 114/184/160 98/186/160 117/185/160
f 102/164/161 119/163/161 117/185/161
f 103/162/162 104/167/162 120/169/162
f 114/184/163 115/182/163 118/168/163
f 121/188/164 122/157/164 126/156/164
f 121/188/165 123/160/165 125/159/165
f 113/190/166 121/188/166 124/189/166
f 95/191/167 124/189/167 126/156/167
f 114/155/168 122/157/168 125/159/168
f 113/190/169 112/158/169 123/160/169
