# Blender v2.81 (sub 16) OBJ File: 'garbage.blend'
# www.blender.org
v -3.526711 2.526783 1.722984
v -3.517101 2.514650 1.698859
v -3.509547 2.491236 1.684151
v -3.506074 2.462816 1.682800
v -3.507612 2.437004 1.695169
v -3.507966 2.524498 1.743232
v -3.484633 2.510692 1.733928
v -3.472056 2.486666 1.724645
v -3.473605 2.458858 1.717869
v -3.488866 2.434720 1.715416
v -3.487285 2.467982 1.774497
v -3.486795 2.442677 1.761042
v -3.496481 2.425377 1.740342
v -3.541941 2.508099 1.772836
v -3.540006 2.453867 1.783854
v -3.532452 2.430453 1.769146
v -3.522841 2.418320 1.745021
v -3.560687 2.510384 1.752589
v -3.575948 2.486245 1.750136
v -3.577497 2.458437 1.743360
v -3.564920 2.434411 1.734077
v -3.541587 2.420605 1.724774
v -3.553072 2.519726 1.727663
v -3.562758 2.502426 1.706963
v -3.562268 2.477122 1.693508
v -3.551731 2.450592 1.690904
v -3.533972 2.429947 1.699848
v -3.515581 2.515156 1.768157
v -3.497822 2.494511 1.777101
v -3.543479 2.482287 1.785205
v -3.591148 2.488644 1.799943
v -3.593797 2.488966 1.797082
v -3.564114 2.506091 1.783578
v -3.570179 2.462505 1.789439
v -3.573393 2.507222 1.773556
v -3.584572 2.464259 1.773893
v -3.509771 2.498363 1.823892
v -3.520578 2.495469 1.825810
v -3.517423 2.506862 1.809091
v -3.509742 2.480219 1.809649
v -3.522375 2.505536 1.809970
v -3.514709 2.478890 1.810531
vt 0.274240 0.539347
vt 0.265397 0.539709
vt 0.266768 0.532487
vt 0.231414 0.551290
vt 0.214659 0.541092
vt 0.231357 0.542861
vt 0.231940 0.569242
vt 0.215985 0.562822
vt 0.231472 0.559719
vt 0.230890 0.533338
vt 0.220414 0.530957
vt 0.213134 0.552274
vt 0.289666 0.544440
vt 0.282983 0.540904
vt 0.290637 0.536818
vt 0.279682 0.529141
vt 0.275518 0.536619
vt 0.273707 0.532162
vt 0.280945 0.538772
vt 0.286431 0.530872
vt 0.290637 0.551375
vt 0.284312 0.543753
vt 0.278488 0.537315
vt 0.276318 0.541045
vt 0.804698 0.251197
vt 0.792375 0.255919
vt 0.792638 0.252041
vt 0.786357 0.239035
vt 0.792578 0.249274
vt 0.791489 0.249454
vt 0.271776 0.541127
vt 0.760733 0.199751
vt 0.757502 0.209505
vt 0.750621 0.206121
vt 0.278108 0.542645
vt 0.273009 0.544115
vt 0.772804 0.201934
vt 0.766718 0.213101
vt 0.766203 0.208706
vt 0.264007 0.548518
vt 0.277612 0.547903
vt 0.268747 0.555467
vt 0.275021 0.546378
vt 0.280714 0.548498
vt 0.281954 0.545638
vt 0.276612 0.557409
vt 0.240880 0.530957
vt 0.248168 0.561486
vt 0.249693 0.550306
vt 0.246843 0.539760
vt 0.242415 0.571620
vt 0.762287 0.211045
vt 0.762255 0.210544
vt 0.761023 0.221925
vt 0.757316 0.212491
vt 0.750922 0.216572
vt 0.772804 0.220841
vt 0.791613 0.252007
vt 0.791097 0.255536
vt 0.780068 0.250772
vt 0.780487 0.263708
vt 0.804698 0.264828
vt 0.798786 0.238814
vt 0.221949 0.571626
vt 0.283377 0.553479
vn 0.1991 -0.9361 -0.2900
vn 0.7352 0.1215 -0.6669
vn 0.4052 0.8713 -0.2768
vn 0.6659 -0.3543 -0.6565
vn 0.6451 0.5447 -0.5358
vn 0.5806 0.6880 0.4353
vn 0.8414 -0.5376 0.0555
vn 0.8712 0.3085 0.3818
vn -0.1991 0.9361 0.2900
vn 0.9613 -0.1146 0.2507
vn 0.3058 -0.7961 0.5222
vn -0.5351 -0.6671 0.5183
vn 0.2711 -0.4478 0.8520
vn -0.2236 0.9572 0.1839
vn -0.4052 -0.8713 0.2768
vn -0.7625 0.5210 -0.3835
vn -0.6451 -0.5447 0.5358
vn -0.2517 -0.9597 0.1247
vn -0.5807 -0.6880 -0.4353
vn -0.9613 0.1146 -0.2507
vn -0.1992 0.9361 0.2900
vn -0.8712 -0.3085 -0.3818
vn -0.8414 0.5376 -0.0556
vn -0.0451 -0.4295 -0.9019
vn -0.2711 0.4478 -0.8520
vn -0.1811 0.0246 -0.9832
vn -0.3058 0.7961 -0.5222
vn -0.5872 -0.6596 0.4692
vn -0.3190 0.8626 0.3926
vn 0.3188 0.3369 0.8859
vn -0.0246 0.9906 0.1345
vn -0.9349 -0.0163 -0.3545
vn 0.1749 -0.0254 0.9843
vn 0.2917 -0.5904 0.7526
vn -0.1261 0.8307 0.5422
vn 0.8486 0.2939 0.4398
vn 0.3054 -0.8217 0.4812
vn -0.8434 0.2722 0.4632
vn 0.6443 0.7579 0.1022
vn 0.5807 0.6880 0.4353
vn 0.8414 -0.5376 0.0556
vn 0.9613 -0.1147 0.2507
vn -0.6640 -0.1163 0.7387
vn 0.2711 -0.4478 0.8521
vn -0.8131 0.4749 -0.3367
vn -0.5806 -0.6880 -0.4353
vn -0.9613 0.1147 -0.2507
vn -0.2711 0.4478 -0.8521
vn -0.5871 -0.6597 0.4692
vn -0.3190 0.8626 0.3927
vn 0.3746 0.3824 0.8447
vn -0.0245 0.9906 0.1345
vn -0.9629 0.1133 -0.2447
vn 0.2715 -0.1634 0.9485
vn 0.2916 -0.5904 0.7526
vn -0.1262 0.8307 0.5422
vn 0.9451 -0.2009 0.2579
vn -0.8483 0.3981 0.3492
vn 0.7093 0.6840 0.1705
s off
f 17/1/1 27/2/1 5/3/1
f 3/4/2 9/5/2 4/6/2
f 1/7/3 7/8/3 2/9/3
f 5/10/4 9/5/4 10/11/4
f 2/9/5 8/12/5 3/4/5
f 6/13/6 29/14/6 7/15/6
f 9/16/7 13/17/7 10/18/7
f 7/15/8 11/19/8 8/20/8
f 1/21/9 28/22/9 6/13/9
f 8/20/10 12/23/10 9/16/10
f 13/17/11 16/24/11 17/1/11
f 30/25/12 42/26/12 38/27/12
f 11/19/13 16/24/13 12/23/13
f 28/28/14 41/29/14 39/30/14
f 16/24/15 22/31/15 17/1/15
f 19/32/16 35/33/16 18/34/16
f 15/35/17 21/36/17 16/24/17
f 20/37/18 34/38/18 36/39/18
f 22/31/19 26/40/19 27/2/19
f 19/41/20 25/42/20 20/43/20
f 1/21/21 18/44/21 14/45/21
f 20/43/22 26/40/22 21/36/22
f 18/44/23 24/46/23 19/41/23
f 27/47/24 4/6/24 5/10/24
f 24/48/25 3/4/25 25/49/25
f 25/49/26 4/6/26 26/50/26
f 23/51/27 2/9/27 24/48/27
f 13/17/1 5/3/1 10/18/1
f 31/52/28 36/39/28 34/38/28
f 31/52/29 35/33/29 32/53/29
f 30/54/30 33/55/30 31/52/30
f 18/34/31 33/55/31 14/56/31
f 19/32/32 36/39/32 32/53/32
f 30/54/33 34/38/33 15/57/33
f 37/58/34 42/26/34 40/59/34
f 37/58/35 41/29/35 38/27/35
f 29/60/36 40/59/36 11/61/36
f 11/61/37 42/26/37 15/62/37
f 30/25/38 41/29/38 14/63/38
f 29/60/39 39/30/39 37/58/39
f 17/1/1 22/31/1 27/2/1
f 3/4/2 8/12/2 9/5/2
f 1/7/3 6/64/3 7/8/3
f 5/10/4 4/6/4 9/5/4
f 2/9/5 7/8/5 8/12/5
f 6/13/40 28/22/40 29/14/40
f 9/16/41 12/23/41 13/17/41
f 7/15/8 29/14/8 11/19/8
f 1/21/9 14/45/9 28/22/9
f 8/20/42 11/19/42 12/23/42
f 13/17/11 12/23/11 16/24/11
f 30/25/43 15/62/43 42/26/43
f 11/19/44 15/35/44 16/24/44
f 28/28/14 14/63/14 41/29/14
f 16/24/15 21/36/15 22/31/15
f 19/32/45 32/53/45 35/33/45
f 15/35/17 20/43/17 21/36/17
f 20/37/18 15/57/18 34/38/18
f 22/31/46 21/36/46 26/40/46
f 19/41/47 24/46/47 25/42/47
f 1/21/9 23/65/9 18/44/9
f 20/43/22 25/42/22 26/40/22
f 18/44/23 23/65/23 24/46/23
f 27/47/24 26/50/24 4/6/24
f 24/48/48 2/9/48 3/4/48
f 25/49/26 3/4/26 4/6/26
f 23/51/27 1/7/27 2/9/27
f 13/17/1 17/1/1 5/3/1
f 31/52/49 32/53/49 36/39/49
f 31/52/50 33/55/50 35/33/50
f 30/54/51 14/56/51 33/55/51
f 18/34/52 35/33/52 33/55/52
f 19/32/53 20/37/53 36/39/53
f 30/54/54 31/52/54 34/38/54
f 37/58/55 38/27/55 42/26/55
f 37/58/56 39/30/56 41/29/56
f 29/60/57 37/58/57 40/59/57
f 11/61/37 40/59/37 42/26/37
f 30/25/58 38/27/58 41/29/58
f 29/60/59 28/28/59 39/30/59
v -0.669745 3.983918 1.778461
v -0.690665 3.965063 1.783799
v -0.699067 3.938247 1.789446
v -0.692702 3.910654 1.793887
v -0.673274 3.889679 1.795935
v -0.658108 3.978917 1.753841
v -0.670508 3.956402 1.741157
v -0.675793 3.928246 1.740206
v -0.672546 3.901993 1.751245
v -0.661637 3.884678 1.771315
v -0.620678 3.925348 1.735711
v -0.624815 3.899483 1.747352
v -0.634080 3.883229 1.769067
v -0.614631 3.981020 1.773965
v -0.588838 3.932452 1.780454
v -0.597240 3.905636 1.786101
v -0.618160 3.886781 1.791439
v -0.626268 3.986021 1.798585
v -0.615359 3.968706 1.818655
v -0.612112 3.942453 1.829694
v -0.617397 3.914297 1.828743
v -0.629797 3.891782 1.816059
v -0.653825 3.987470 1.800833
v -0.663090 3.971215 1.822548
v -0.667227 3.945351 1.834189
v -0.665128 3.916806 1.832637
v -0.657354 3.893231 1.818306
v -0.630551 3.977468 1.751593
v -0.622777 3.953892 1.737263
v -0.595203 3.960045 1.776012
v -0.566836 3.985181 1.809080
v -0.568481 3.985887 1.812559
v -0.596484 3.988846 1.788816
v -0.575601 3.951932 1.801937
v -0.602244 3.991321 1.801002
v -0.584536 3.955772 1.820840
v -0.578539 3.970026 1.725872
v -0.572013 3.971482 1.735044
v -0.591375 3.977849 1.737003
v -0.585422 3.950767 1.736538
v -0.588384 3.978516 1.741206
v -0.582422 3.951436 1.740754
vt 0.274240 0.539347
vt 0.265397 0.539709
vt 0.266768 0.532487
vt 0.231414 0.551290
vt 0.214659 0.541092
vt 0.231357 0.542861
vt 0.231940 0.569242
vt 0.215985 0.562822
vt 0.231472 0.559719
vt 0.230890 0.533338
vt 0.220414 0.530957
vt 0.213134 0.552274
vt 0.289666 0.544440
vt 0.282983 0.540904
vt 0.290637 0.536818
vt 0.279682 0.529141
vt 0.275518 0.536619
vt 0.273707 0.532162
vt 0.280945 0.538772
vt 0.286431 0.530872
vt 0.290637 0.551375
vt 0.284312 0.543753
vt 0.278488 0.537315
vt 0.276318 0.541045
vt 0.804698 0.251197
vt 0.792375 0.255919
vt 0.792638 0.252041
vt 0.786357 0.239035
vt 0.792578 0.249274
vt 0.791489 0.249454
vt 0.271776 0.541127
vt 0.760733 0.199751
vt 0.757502 0.209505
vt 0.750621 0.206121
vt 0.278108 0.542645
vt 0.273009 0.544115
vt 0.772804 0.201934
vt 0.766718 0.213101
vt 0.766203 0.208706
vt 0.264007 0.548518
vt 0.277612 0.547903
vt 0.268747 0.555467
vt 0.275021 0.546378
vt 0.280714 0.548498
vt 0.281954 0.545638
vt 0.276612 0.557409
vt 0.240880 0.530957
vt 0.248168 0.561486
vt 0.249693 0.550306
vt 0.246843 0.539760
vt 0.242415 0.571620
vt 0.762287 0.211045
vt 0.762255 0.210544
vt 0.761023 0.221925
vt 0.757316 0.212491
vt 0.750922 0.216572
vt 0.772804 0.220841
vt 0.791613 0.252007
vt 0.791097 0.255536
vt 0.780068 0.250772
vt 0.780487 0.263708
vt 0.804698 0.264828
vt 0.798786 0.238814
vt 0.221949 0.571626
vt 0.283377 0.553479
vn -0.0368 -0.9826 0.1822
vn -0.8915 -0.2648 -0.3676
vn -0.6613 0.6101 -0.4365
vn -0.7094 -0.6764 -0.1979
vn -0.8748 0.1794 -0.4500
vn -0.0434 0.5084 -0.8600
vn -0.0916 -0.7781 -0.6215
vn -0.0787 0.0484 -0.9957
vn 0.0368 0.9826 -0.1822
vn -0.0953 -0.3958 -0.9134
vn 0.5937 -0.7449 -0.3043
vn 0.8573 -0.3335 0.3922
vn 0.7879 -0.3531 -0.5046
vn -0.0540 0.9914 -0.1189
vn 0.6613 -0.6101 0.4365
vn -0.2199 0.6763 0.7030
vn 0.8748 -0.1794 0.4500
vn 0.4991 -0.7724 0.3928
vn 0.0434 -0.5084 0.8600
vn 0.0953 0.3958 0.9134
vn 0.0787 -0.0484 0.9957
vn 0.0916 0.7781 0.6215
vn -0.6419 -0.5416 0.5428
vn -0.7879 0.3531 0.5046
vn -0.8045 -0.0911 0.5869
vn -0.5937 0.7449 0.3043
vn 0.8309 -0.3172 0.4572
vn 0.1935 0.9753 -0.1067
vn 0.5566 0.3580 -0.7497
vn -0.1804 0.9438 -0.2769
vn 0.0352 0.2475 0.9683
vn 0.8080 0.0927 -0.5819
vn 0.7373 -0.5093 -0.4438
vn 0.2642 0.9056 -0.3317
vn -0.0149 0.0532 -0.9985
vn 0.5658 -0.7757 -0.2795
vn 0.6300 0.6281 0.4568
vn -0.3807 0.4905 -0.7839
vn -0.8749 0.1794 -0.4500
vn 0.5938 -0.7449 -0.3042
vn 0.9268 0.2578 0.2730
vn 0.7878 -0.3531 -0.5046
vn -0.0540 0.9914 -0.1190
vn -0.1461 0.6600 0.7370
vn -0.7878 0.3531 0.5046
vn -0.8045 -0.0911 0.5870
vn 0.4860 0.3730 -0.7904
vn -0.1803 0.9438 -0.2770
vn 0.1016 0.3962 0.9125
vn 0.7841 -0.0743 -0.6161
vn 0.2642 0.9056 -0.3318
vn -0.0563 -0.4683 -0.8818
vn 0.4927 0.7250 0.4813
vn -0.3215 0.4122 -0.8525
s off
f 59/66/60 69/67/60 47/68/60
f 45/69/61 51/70/61 46/71/61
f 43/72/62 49/73/62 44/74/62
f 47/75/63 51/70/63 52/76/63
f 44/74/64 50/77/64 45/69/64
f 48/78/65 71/79/65 49/80/65
f 51/81/66 55/82/66 52/83/66
f 49/80/67 53/84/67 50/85/67
f 43/86/68 70/87/68 48/78/68
f 50/85/69 54/88/69 51/81/69
f 55/82/70 58/89/70 59/66/70
f 72/90/71 84/91/71 80/92/71
f 53/84/72 58/89/72 54/88/72
f 70/93/73 83/94/73 81/95/73
f 58/89/74 64/96/74 59/66/74
f 61/97/75 77/98/75 60/99/75
f 57/100/76 63/101/76 58/89/76
f 62/102/77 76/103/77 78/104/77
f 64/96/78 68/105/78 69/67/78
f 61/106/79 67/107/79 62/108/79
f 43/86/68 60/109/68 56/110/68
f 62/108/80 68/105/80 63/101/80
f 60/109/81 66/111/81 61/106/81
f 69/112/82 46/71/82 47/75/82
f 66/113/83 45/69/83 67/114/83
f 67/114/84 46/71/84 68/115/84
f 65/116/85 44/74/85 66/113/85
f 55/82/60 47/68/60 52/83/60
f 73/117/86 78/104/86 76/103/86
f 73/117/87 77/98/87 74/118/87
f 72/119/88 75/120/88 73/117/88
f 60/99/89 75/120/89 56/121/89
f 61/97/90 78/104/90 74/118/90
f 72/119/91 76/103/91 57/122/91
f 79/123/92 84/91/92 82/124/92
f 79/123/93 83/94/93 80/92/93
f 71/125/94 82/124/94 53/126/94
f 53/126/95 84/91/95 57/127/95
f 72/90/96 83/94/96 56/128/96
f 71/125/97 81/95/97 79/123/97
f 59/66/60 64/96/60 69/67/60
f 45/69/61 50/77/61 51/70/61
f 43/72/62 48/129/62 49/73/62
f 47/75/63 46/71/63 51/70/63
f 44/74/98 49/73/98 50/77/98
f 48/78/65 70/87/65 71/79/65
f 51/81/66 54/88/66 55/82/66
f 49/80/67 71/79/67 53/84/67
f 43/86/68 56/110/68 70/87/68
f 50/85/69 53/84/69 54/88/69
f 55/82/99 54/88/99 58/89/99
f 72/90/100 57/127/100 84/91/100
f 53/84/101 57/100/101 58/89/101
f 70/93/102 56/128/102 83/94/102
f 58/89/74 63/101/74 64/96/74
f 61/97/103 74/118/103 77/98/103
f 57/100/76 62/108/76 63/101/76
f 62/102/77 57/122/77 76/103/77
f 64/96/78 63/101/78 68/105/78
f 61/106/79 66/111/79 67/107/79
f 43/86/68 65/130/68 60/109/68
f 62/108/80 67/107/80 68/105/80
f 60/109/81 65/130/81 66/111/81
f 69/112/82 68/115/82 46/71/82
f 66/113/104 44/74/104 45/69/104
f 67/114/105 45/69/105 46/71/105
f 65/116/85 43/72/85 44/74/85
f 55/82/60 59/66/60 47/68/60
f 73/117/86 74/118/86 78/104/86
f 73/117/87 75/120/87 77/98/87
f 72/119/106 56/121/106 75/120/106
f 60/99/107 77/98/107 75/120/107
f 61/97/108 62/102/108 78/104/108
f 72/119/109 73/117/109 76/103/109
f 79/123/92 80/92/92 84/91/92
f 79/123/110 81/95/110 83/94/110
f 71/125/111 79/123/111 82/124/111
f 53/126/95 82/124/95 84/91/95
f 72/90/112 80/92/112 83/94/112
f 71/125/113 70/93/113 81/95/113
v -1.162954 4.250432 -0.270992
v -1.163770 4.229525 -0.290584
v -1.162621 4.201664 -0.297219
v -1.159815 4.174313 -0.289117
v -1.156105 4.154800 -0.268451
v -1.137643 4.252537 -0.259971
v -1.119929 4.233172 -0.271496
v -1.111998 4.205875 -0.275178
v -1.115974 4.177959 -0.270029
v -1.130793 4.156906 -0.257430
v -1.105815 4.207779 -0.220183
v -1.110620 4.179609 -0.222402
v -1.127702 4.157858 -0.229933
v -1.156772 4.252336 -0.215997
v -1.150256 4.205472 -0.187229
v -1.149107 4.177610 -0.193864
v -1.149922 4.156704 -0.213456
v -1.182083 4.250230 -0.227018
v -1.196902 4.229177 -0.214419
v -1.200879 4.201261 -0.209270
v -1.192948 4.173964 -0.212952
v -1.175234 4.154599 -0.224476
v -1.185175 4.249278 -0.254515
v -1.202257 4.227527 -0.262046
v -1.207062 4.199357 -0.264265
v -1.198302 4.172314 -0.260578
v -1.178325 4.153646 -0.251974
v -1.134551 4.253489 -0.232474
v -1.114575 4.234822 -0.223870
v -1.153061 4.232823 -0.195331
v -1.190836 4.250638 -0.167300
v -1.194413 4.250340 -0.168857
v -1.172752 4.257342 -0.197814
v -1.175697 4.219751 -0.174380
v -1.185281 4.256300 -0.203269
v -1.195131 4.218135 -0.182842
v -1.106750 4.256131 -0.181071
v -1.115859 4.255659 -0.174316
v -1.119751 4.260060 -0.193932
v -1.112337 4.234407 -0.186446
v -1.123926 4.259844 -0.190836
v -1.116524 4.234190 -0.183341
vt 0.274240 0.539347
vt 0.265397 0.539709
vt 0.266768 0.532487
vt 0.231414 0.551290
vt 0.214659 0.541092
vt 0.231357 0.542861
vt 0.231940 0.569242
vt 0.215985 0.562822
vt 0.231472 0.559719
vt 0.230890 0.533338
vt 0.220414 0.530957
vt 0.213134 0.552274
vt 0.289666 0.544440
vt 0.282983 0.540904
vt 0.290637 0.536818
vt 0.279682 0.529141
vt 0.275518 0.536619
vt 0.273707 0.532162
vt 0.280945 0.538772
vt 0.286431 0.530872
vt 0.290637 0.551375
vt 0.284312 0.543753
vt 0.278488 0.537315
vt 0.276318 0.541045
vt 0.804698 0.251197
vt 0.792375 0.255919
vt 0.792638 0.252041
vt 0.786357 0.239035
vt 0.792578 0.249274
vt 0.791489 0.249454
vt 0.271776 0.541127
vt 0.760733 0.199751
vt 0.757502 0.209505
vt 0.750621 0.206121
vt 0.278108 0.542645
vt 0.273009 0.544115
vt 0.772804 0.201934
vt 0.766718 0.213101
vt 0.766203 0.208706
vt 0.264007 0.548518
vt 0.277612 0.547903
vt 0.268747 0.555467
vt 0.275021 0.546378
vt 0.280714 0.548498
vt 0.281954 0.545638
vt 0.276612 0.557409
vt 0.240880 0.530957
vt 0.248168 0.561486
vt 0.249693 0.550306
vt 0.246843 0.539760
vt 0.242415 0.571620
vt 0.762287 0.211045
vt 0.762255 0.210544
vt 0.761023 0.221925
vt 0.757316 0.212491
vt 0.750922 0.216572
vt 0.772804 0.220841
vt 0.791613 0.252007
vt 0.791097 0.255536
vt 0.780068 0.250772
vt 0.780487 0.263708
vt 0.804698 0.264828
vt 0.798786 0.238814
vt 0.221949 0.571626
vt 0.283377 0.553479
vn 0.0714 -0.9971 0.0265
vn 0.4047 -0.2213 -0.8873
vn 0.2548 0.6559 -0.7105
vn 0.3483 -0.6496 -0.6758
vn 0.3724 0.2295 -0.8992
vn 0.7025 0.7041 -0.1034
vn 0.7960 -0.6014 -0.0687
vn 0.9494 0.2916 -0.1168
vn -0.0714 0.9971 -0.0265
vn 0.9817 -0.1592 -0.1048
vn 0.4945 -0.6046 0.6245
vn -0.2779 -0.3649 0.8886
vn 0.5931 -0.1633 0.7884
vn -0.1365 0.9839 -0.1153
vn -0.2548 -0.6559 0.7105
vn -0.8554 0.4624 -0.2334
vn -0.3724 -0.2295 0.8992
vn -0.1748 -0.8122 0.5566
vn -0.7025 -0.7041 0.1034
vn -0.9817 0.1592 0.1048
vn -0.9494 -0.2916 0.1168
vn -0.7960 0.6014 0.0687
vn -0.4010 -0.7010 -0.5898
vn -0.5931 0.1633 -0.7884
vn -0.5608 -0.2875 -0.7764
vn -0.4945 0.6046 -0.6245
vn -0.3454 -0.3673 0.8636
vn -0.1395 0.9813 0.1329
vn 0.6458 0.5700 0.5080
vn 0.0257 0.9694 -0.2443
vn -0.9985 -0.0018 0.0554
vn 0.5556 0.2880 0.7800
vn 0.5728 -0.3327 0.7492
vn 0.0973 0.9751 0.1995
vn 0.9521 0.3011 -0.0536
vn 0.4778 -0.6423 0.5993
vn -0.5880 0.5328 0.6086
vn 0.6266 0.6459 -0.4361
vn 0.4945 -0.6045 0.6245
vn -0.3107 0.2405 0.9196
vn -0.1366 0.9839 -0.1153
vn -0.8826 0.4429 -0.1575
vn -0.7025 -0.7041 0.1033
vn -0.7960 0.6014 0.0686
vn -0.4945 0.6045 -0.6245
vn 0.6800 0.5902 0.4351
vn -0.9808 0.1602 0.1110
vn 0.6305 0.1337 0.7646
vn 0.0974 0.9751 0.1995
vn 0.9702 -0.2345 -0.0606
vn -0.6390 0.6113 0.4669
vn 0.7140 0.5913 -0.3750
s off
f 101/131/114 111/132/114 89/133/114
f 87/134/115 93/135/115 88/136/115
f 85/137/116 91/138/116 86/139/116
f 89/140/117 93/135/117 94/141/117
f 86/139/118 92/142/118 87/134/118
f 90/143/119 113/144/119 91/145/119
f 93/146/120 97/147/120 94/148/120
f 91/145/121 95/149/121 92/150/121
f 85/151/122 112/152/122 90/143/122
f 92/150/123 96/153/123 93/146/123
f 97/147/124 100/154/124 101/131/124
f 114/155/125 126/156/125 122/157/125
f 95/149/126 100/154/126 96/153/126
f 112/158/127 125/159/127 123/160/127
f 100/154/128 106/161/128 101/131/128
f 103/162/129 119/163/129 102/164/129
f 99/165/130 105/166/130 100/154/130
f 104/167/131 118/168/131 120/169/131
f 106/161/132 110/170/132 111/132/132
f 103/171/133 109/172/133 104/173/133
f 85/151/122 102/174/122 98/175/122
f 104/173/134 110/170/134 105/166/134
f 102/174/135 108/176/135 103/171/135
f 111/177/136 88/136/136 89/140/136
f 108/178/137 87/134/137 109/179/137
f 109/179/138 88/136/138 110/180/138
f 107/181/139 86/139/139 108/178/139
f 97/147/114 89/133/114 94/148/114
f 115/182/140 120/169/140 118/168/140
f 115/182/141 119/163/141 116/183/141
f 114/184/142 117/185/142 115/182/142
f 102/164/143 117/185/143 98/186/143
f 103/162/144 120/169/144 116/183/144
f 114/184/145 118/168/145 99/187/145
f 121/188/146 126/156/146 124/189/146
f 121/188/147 125/159/147 122/157/147
f 113/190/148 124/189/148 95/191/148
f 95/191/149 126/156/149 99/192/149
f 114/155/150 125/159/150 98/193/150
f 113/190/151 123/160/151 121/188/151
f 101/131/114 106/161/114 111/132/114
f 87/134/115 92/142/115 93/135/115
f 85/137/116 90/194/116 91/138/116
f 89/140/117 88/136/117 93/135/117
f 86/139/118 91/138/118 92/142/118
f 90/143/119 112/152/119 113/144/119
f 93/146/120 96/153/120 97/147/120
f 91/145/121 113/144/121 95/149/121
f 85/151/122 98/175/122 112/152/122
f 92/150/123 95/149/123 96/153/123
f 97/147/152 96/153/152 100/154/152
f 114/155/153 99/192/153 126/156/153
f 95/149/126 99/165/126 100/154/126
f 112/158/154 98/193/154 125/159/154
f 100/154/128 105/166/128 106/161/128
f 103/162/155 116/183/155 119/163/155
f 99/165/130 104/173/130 105/166/130
f 104/167/131 99/187/131 118/168/131
f 106/161/156 105/166/156 110/170/156
f 103/171/133 108/176/133 109/172/133
f 85/151/122 107/195/122 102/174/122
f 104/173/134 109/172/134 110/170/134
f 102/174/157 107/195/157 108/176/157
f 111/177/136 110/180/136 88/136/136
f 108/178/137 86/139/137 87/134/137
f 109/179/138 87/134/138 88/136/138
f 107/181/158 85/137/158 86/139/158
f 97/147/114 101/131/114 89/133/114
f 115/182/140 116/183/140 120/169/140
f 115/182/141 117/185/141 119/163/141
f 114/184/159 98/186/159 117/185/159
f 102/164/143 119/163/143 117/185/143
f 103/162/160 104/167/160 120/169/160
f 114/184/161 115/182/161 118/168/161
f 121/188/146 122/157/146 126/156/146
f 121/188/162 123/160/162 125/159/162
f 113/190/163 121/188/163 124/189/163
f 95/191/149 124/189/149 126/156/149
f 114/155/164 122/157/164 125/159/164
f 113/190/165 112/158/165 123/160/165
