# Blender v2.81 (sub 16) OBJ File: 'garbage.blend'
# www.blender.org
v -1.694888 2.810153 4.272523
v -1.702993 2.783926 4.264274
v -1.699603 2.755477 4.265139
v -1.685626 2.732429 4.274887
v -1.664807 2.720957 4.290904
v -1.669989 2.816416 4.262162
v -1.659866 2.794773 4.246328
v -1.649804 2.768002 4.244417
v -1.642498 2.743276 4.256940
v -1.639907 2.727220 4.280543
v -1.610293 2.788158 4.277566
v -1.608281 2.760731 4.285648
v -1.620152 2.737298 4.297118
v -1.655378 2.830310 4.305673
v -1.620581 2.795790 4.331438
v -1.617191 2.767341 4.332303
v -1.625296 2.741114 4.324053
v -1.680277 2.824048 4.316034
v -1.677686 2.807992 4.339636
v -1.670380 2.783265 4.352160
v -1.660318 2.756494 4.350249
v -1.650195 2.734851 4.334414
v -1.700033 2.813969 4.299459
v -1.711903 2.790536 4.310928
v -1.709891 2.763109 4.319011
v -1.694536 2.739038 4.321541
v -1.669951 2.724773 4.317840
v -1.650233 2.826494 4.278737
v -1.625649 2.812229 4.275036
v -1.634559 2.818838 4.321690
v -1.648148 2.843986 4.363078
v -1.651666 2.843101 4.364542
v -1.656421 2.840656 4.328099
v -1.634187 2.812882 4.354653
v -1.668746 2.837556 4.333228
v -1.653305 2.808074 4.362608
v -1.597591 2.846693 4.294324
v -1.599700 2.848258 4.305367
v -1.616261 2.845819 4.293573
v -1.599765 2.824283 4.299335
v -1.617227 2.846536 4.298634
v -1.600735 2.825002 4.304411
vt 0.274240 0.539347
vt 0.265397 0.539709
vt 0.266768 0.532487
vt 0.231414 0.551290
vt 0.214659 0.541092
vt 0.231357 0.542861
vt 0.231940 0.569242
vt 0.215985 0.562822
vt 0.231472 0.559719
vt 0.230890 0.533338
vt 0.220414 0.530957
vt 0.213134 0.552274
vt 0.289666 0.544440
vt 0.282983 0.540904
vt 0.290637 0.536818
vt 0.279682 0.529141
vt 0.275518 0.536619
vt 0.273707 0.532162
vt 0.280945 0.538772
vt 0.286431 0.530872
vt 0.290637 0.551375
vt 0.284312 0.543753
vt 0.278488 0.537315
vt 0.276318 0.541045
vt 0.804698 0.251197
vt 0.792375 0.255919
vt 0.792638 0.252041
vt 0.786357 0.239035
vt 0.792578 0.249274
vt 0.791489 0.249454
vt 0.271776 0.541127
vt 0.760733 0.199751
vt 0.757502 0.209505
vt 0.750621 0.206121
vt 0.278108 0.542645
vt 0.273009 0.544115
vt 0.772804 0.201934
vt 0.766718 0.213101
vt 0.766203 0.208706
vt 0.264007 0.548518
vt 0.277612 0.547903
vt 0.268747 0.555467
vt 0.275021 0.546378
vt 0.280714 0.548498
vt 0.281954 0.545638
vt 0.276612 0.557409
vt 0.240880 0.530957
vt 0.248168 0.561486
vt 0.249693 0.550306
vt 0.246843 0.539760
vt 0.242415 0.571620
vt 0.762287 0.211045
vt 0.762255 0.210544
vt 0.761023 0.221925
vt 0.757316 0.212491
vt 0.750922 0.216572
vt 0.772804 0.220841
vt 0.791613 0.252007
vt 0.791097 0.255536
vt 0.780068 0.250772
vt 0.780487 0.263708
vt 0.804698 0.264828
vt 0.798786 0.238814
vt 0.221949 0.571626
vt 0.283377 0.553479
vn 0.3136 -0.9300 0.1917
vn -0.2259 -0.4925 -0.8405
vn -0.4357 0.3898 -0.8113
vn -0.0250 -0.8278 -0.5604
vn -0.3677 -0.0720 -0.9272
vn 0.2683 0.6474 -0.7134
vn 0.6789 -0.5702 -0.4625
vn 0.5394 0.2599 -0.8009
vn -0.3136 0.9300 -0.1916
vn 0.6812 -0.1605 -0.7143
vn 0.9092 -0.3513 0.2234
vn 0.4624 -0.0570 0.8848
vn 0.9780 0.1217 0.1695
vn -0.4149 0.8866 -0.2047
vn 0.4357 -0.3898 0.8113
vn -0.8827 0.3377 0.3267
vn 0.3677 0.0720 0.9272
vn 0.4325 -0.5862 0.6851
vn -0.2682 -0.6474 0.7134
vn -0.6812 0.1605 0.7143
vn -0.5394 -0.2599 0.8009
vn -0.6789 0.5703 0.4625
vn -0.4986 -0.8664 0.0275
vn -0.9780 -0.1217 -0.1695
vn -0.8362 -0.5421 -0.0829
vn -0.9092 0.3512 -0.2234
vn 0.3136 -0.9300 0.1916
vn 0.3980 -0.0691 0.9148
vn -0.2560 0.9662 -0.0315
vn 0.6549 0.7219 -0.2236
vn -0.3772 0.8341 -0.4024
vn -0.6857 -0.0081 0.7278
vn 0.8346 0.5437 0.0888
vn 0.9796 -0.0515 0.1944
vn -0.0403 0.9882 -0.1477
vn 0.5798 0.2899 -0.7614
vn 0.8902 -0.3956 0.2260
vn -0.1630 0.6895 0.7057
vn 0.0128 0.4804 -0.8770
vn 0.2682 0.6474 -0.7134
vn 0.6789 -0.5703 -0.4625
vn -0.3136 0.9300 -0.1917
vn 0.9092 -0.3512 0.2234
vn 0.3100 0.5236 0.7936
vn -0.4149 0.8865 -0.2048
vn 0.4356 -0.3898 0.8113
vn -0.8487 0.3438 0.4020
vn -0.2683 -0.6474 0.7134
vn -0.8362 -0.5422 -0.0829
vn -0.2561 0.9662 -0.0314
vn 0.6276 0.7176 -0.3019
vn -0.6768 0.1636 0.7177
vn 0.9167 0.3949 0.0610
vn 0.9796 -0.0516 0.1944
vn 0.7200 -0.2172 -0.6591
vn 0.8901 -0.3957 0.2260
vn -0.3107 0.7154 0.6259
vn 0.1289 0.4513 -0.8830
s off
f 17/1/1 27/2/1 5/3/1
f 3/4/2 9/5/2 4/6/2
f 1/7/3 7/8/3 2/9/3
f 5/10/4 9/5/4 10/11/4
f 2/9/5 8/12/5 3/4/5
f 6/13/6 29/14/6 7/15/6
f 9/16/7 13/17/7 10/18/7
f 7/15/8 11/19/8 8/20/8
f 1/21/9 28/22/9 6/13/9
f 8/20/10 12/23/10 9/16/10
f 13/17/11 16/24/11 17/1/11
f 30/25/12 42/26/12 38/27/12
f 11/19/13 16/24/13 12/23/13
f 28/28/14 41/29/14 39/30/14
f 16/24/15 22/31/15 17/1/15
f 19/32/16 35/33/16 18/34/16
f 15/35/17 21/36/17 16/24/17
f 20/37/18 34/38/18 36/39/18
f 22/31/19 26/40/19 27/2/19
f 19/41/20 25/42/20 20/43/20
f 1/21/9 18/44/9 14/45/9
f 20/43/21 26/40/21 21/36/21
f 18/44/22 24/46/22 19/41/22
f 27/47/23 4/6/23 5/10/23
f 24/48/24 3/4/24 25/49/24
f 25/49/25 4/6/25 26/50/25
f 23/51/26 2/9/26 24/48/26
f 13/17/27 5/3/27 10/18/27
f 31/52/28 36/39/28 34/38/28
f 31/52/29 35/33/29 32/53/29
f 30/54/30 33/55/30 31/52/30
f 18/34/31 33/55/31 14/56/31
f 19/32/32 36/39/32 32/53/32
f 30/54/33 34/38/33 15/57/33
f 37/58/34 42/26/34 40/59/34
f 37/58/35 41/29/35 38/27/35
f 29/60/36 40/59/36 11/61/36
f 11/61/37 42/26/37 15/62/37
f 30/25/38 41/29/38 14/63/38
f 29/60/39 39/30/39 37/58/39
f 17/1/27 22/31/27 27/2/27
f 3/4/2 8/12/2 9/5/2
f 1/7/3 6/64/3 7/8/3
f 5/10/4 4/6/4 9/5/4
f 2/9/5 7/8/5 8/12/5
f 6/13/40 28/22/40 29/14/40
f 9/16/41 12/23/41 13/17/41
f 7/15/8 29/14/8 11/19/8
f 1/21/42 14/45/42 28/22/42
f 8/20/10 11/19/10 12/23/10
f 13/17/43 12/23/43 16/24/43
f 30/25/44 15/62/44 42/26/44
f 11/19/13 15/35/13 16/24/13
f 28/28/45 14/63/45 41/29/45
f 16/24/46 21/36/46 22/31/46
f 19/32/47 32/53/47 35/33/47
f 15/35/17 20/43/17 21/36/17
f 20/37/18 15/57/18 34/38/18
f 22/31/48 21/36/48 26/40/48
f 19/41/20 24/46/20 25/42/20
f 1/21/9 23/65/9 18/44/9
f 20/43/21 25/42/21 26/40/21
f 18/44/22 23/65/22 24/46/22
f 27/47/23 26/50/23 4/6/23
f 24/48/24 2/9/24 3/4/24
f 25/49/49 3/4/49 4/6/49
f 23/51/26 1/7/26 2/9/26
f 13/17/1 17/1/1 5/3/1
f 31/52/28 32/53/28 36/39/28
f 31/52/50 33/55/50 35/33/50
f 30/54/51 14/56/51 33/55/51
f 18/34/31 35/33/31 33/55/31
f 19/32/52 20/37/52 36/39/52
f 30/54/53 31/52/53 34/38/53
f 37/58/54 38/27/54 42/26/54
f 37/58/35 39/30/35 41/29/35
f 29/60/55 37/58/55 40/59/55
f 11/61/56 40/59/56 42/26/56
f 30/25/57 38/27/57 41/29/57
f 29/60/58 28/28/58 39/30/58
v 3.864538 3.616338 0.379661
v 3.860603 3.598216 0.401517
v 3.858949 3.571419 0.411556
v 3.860020 3.543126 0.407086
v 3.863528 3.520919 0.389305
v 3.843511 3.614747 0.361719
v 3.824183 3.595461 0.370441
v 3.816896 3.568237 0.375672
v 3.823600 3.540370 0.376010
v 3.842501 3.519328 0.371363
v 3.827063 3.562656 0.321527
v 3.832405 3.535538 0.329118
v 3.847584 3.516538 0.344291
v 3.874705 3.610757 0.325515
v 3.879283 3.560258 0.303265
v 3.877630 3.533460 0.313303
v 3.873695 3.515338 0.335160
v 3.895732 3.612348 0.343457
v 3.914632 3.591306 0.338811
v 3.921337 3.563439 0.339148
v 3.914049 3.536216 0.344379
v 3.894722 3.516929 0.353101
v 3.890648 3.615138 0.370530
v 3.905828 3.596138 0.385702
v 3.911170 3.569020 0.393294
v 3.905244 3.541049 0.391270
v 3.889638 3.519720 0.380174
v 3.848595 3.611957 0.334646
v 3.832989 3.590628 0.323550
v 3.878213 3.588550 0.307735
v 3.921618 3.606046 0.289298
v 3.924589 3.606271 0.291833
v 3.895053 3.614865 0.312092
v 3.906630 3.575052 0.296227
v 3.905461 3.615653 0.320974
v 3.922774 3.576273 0.310003
v 3.837033 3.605602 0.277654
v 3.847738 3.605110 0.273911
v 3.845467 3.612273 0.292958
v 3.841872 3.585318 0.287514
v 3.850373 3.612048 0.291243
v 3.846792 3.585092 0.285793
vt 0.274240 0.539347
vt 0.265397 0.539709
vt 0.266768 0.532487
vt 0.231414 0.551290
vt 0.214659 0.541092
vt 0.231357 0.542861
vt 0.231940 0.569242
vt 0.215985 0.562822
vt 0.231472 0.559719
vt 0.230890 0.533338
vt 0.220414 0.530957
vt 0.213134 0.552274
vt 0.289666 0.544440
vt 0.282983 0.540904
vt 0.290637 0.536818
vt 0.279682 0.529141
vt 0.275518 0.536619
vt 0.273707 0.532162
vt 0.280945 0.538772
vt 0.286431 0.530872
vt 0.290637 0.551375
vt 0.284312 0.543753
vt 0.278488 0.537315
vt 0.276318 0.541045
vt 0.804698 0.251197
vt 0.792375 0.255919
vt 0.792638 0.252041
vt 0.786357 0.239035
vt 0.792578 0.249274
vt 0.791489 0.249454
vt 0.271776 0.541127
vt 0.760733 0.199751
vt 0.757502 0.209505
vt 0.750621 0.206121
vt 0.278108 0.542645
vt 0.273009 0.544115
vt 0.772804 0.201934
vt 0.766718 0.213101
vt 0.766203 0.208706
vt 0.264007 0.548518
vt 0.277612 0.547903
vt 0.268747 0.555467
vt 0.275021 0.546378
vt 0.280714 0.548498
vt 0.281954 0.545638
vt 0.276612 0.557409
vt 0.240880 0.530957
vt 0.248168 0.561486
vt 0.249693 0.550306
vt 0.246843 0.539760
vt 0.242415 0.571620
vt 0.762287 0.211045
vt 0.762255 0.210544
vt 0.761023 0.221925
vt 0.757316 0.212491
vt 0.750922 0.216572
vt 0.772804 0.220841
vt 0.791613 0.252007
vt 0.791097 0.255536
vt 0.780068 0.250772
vt 0.780487 0.263708
vt 0.804698 0.264828
vt 0.798786 0.238814
vt 0.221949 0.571626
vt 0.283377 0.553479
vn -0.0105 -0.9949 0.1006
vn -0.6360 -0.1438 0.7581
vn -0.4848 0.7142 0.5049
vn -0.4986 -0.5884 0.6365
vn -0.6313 0.3059 0.7127
vn -0.7362 0.6451 -0.2047
vn -0.7499 -0.6575 -0.0731
vn -0.9551 0.2169 -0.2017
vn 0.0105 0.9949 -0.1006
vn -0.9599 -0.2328 -0.1562
vn -0.2582 -0.7203 -0.6438
vn 0.5447 -0.4469 -0.7096
vn -0.3262 -0.3139 -0.8917
vn 0.0473 0.9989 0.0040
vn 0.4848 -0.7142 -0.5049
vn 0.7248 0.5635 0.3965
vn 0.6313 -0.3059 -0.7127
vn 0.3710 -0.8565 -0.3589
vn 0.7361 -0.6451 0.2047
vn 0.9599 0.2329 0.1562
vn 0.9551 -0.2169 0.2017
vn 0.7499 0.6575 0.0731
vn 0.2444 -0.5822 0.7754
vn 0.3262 0.3139 0.8917
vn 0.3215 -0.1359 0.9371
vn 0.2582 0.7204 0.6438
vn 0.6019 -0.4400 -0.6664
vn 0.1232 0.9654 -0.2300
vn -0.4956 0.4411 -0.7482
vn -0.1448 0.9860 0.0823
vn 0.9694 0.0816 0.2314
vn -0.3155 0.1364 -0.9391
vn -0.3099 -0.4744 -0.8239
vn -0.0830 0.9295 -0.3594
vn -0.9396 0.2182 -0.2638
vn -0.2478 -0.7530 -0.6096
vn 0.7135 0.5031 -0.4876
vn -0.7586 0.6362 0.1407
vn -0.6360 -0.1439 0.7581
vn -0.4848 0.7142 0.5048
vn -0.7361 0.6451 -0.2047
vn -0.9551 0.2170 -0.2017
vn -0.2582 -0.7204 -0.6437
vn 0.5549 0.1503 -0.8183
vn 0.0473 0.9989 0.0041
vn 0.7741 0.5371 0.3352
vn 0.3710 -0.8565 -0.3588
vn 0.9599 0.2328 0.1562
vn 0.0105 0.9949 -0.1005
vn 0.6019 -0.4401 -0.6664
vn -0.5507 0.4670 -0.6919
vn 0.9608 0.2330 0.1500
vn -0.3837 -0.0208 -0.9232
vn -0.0830 0.9295 -0.3593
vn -0.9322 -0.3118 -0.1839
vn 0.7166 0.6031 -0.3504
vn -0.8213 0.5667 0.0659
s off
f 59/66/59 69/67/59 47/68/59
f 45/69/60 51/70/60 46/71/60
f 43/72/61 49/73/61 44/74/61
f 47/75/62 51/70/62 52/76/62
f 44/74/63 50/77/63 45/69/63
f 48/78/64 71/79/64 49/80/64
f 51/81/65 55/82/65 52/83/65
f 49/80/66 53/84/66 50/85/66
f 43/86/67 70/87/67 48/78/67
f 50/85/68 54/88/68 51/81/68
f 55/82/69 58/89/69 59/66/69
f 72/90/70 84/91/70 80/92/70
f 53/84/71 58/89/71 54/88/71
f 70/93/72 83/94/72 81/95/72
f 58/89/73 64/96/73 59/66/73
f 61/97/74 77/98/74 60/99/74
f 57/100/75 63/101/75 58/89/75
f 62/102/76 76/103/76 78/104/76
f 64/96/77 68/105/77 69/67/77
f 61/106/78 67/107/78 62/108/78
f 43/86/67 60/109/67 56/110/67
f 62/108/79 68/105/79 63/101/79
f 60/109/80 66/111/80 61/106/80
f 69/112/81 46/71/81 47/75/81
f 66/113/82 45/69/82 67/114/82
f 67/114/83 46/71/83 68/115/83
f 65/116/84 44/74/84 66/113/84
f 55/82/59 47/68/59 52/83/59
f 73/117/85 78/104/85 76/103/85
f 73/117/86 77/98/86 74/118/86
f 72/119/87 75/120/87 73/117/87
f 60/99/88 75/120/88 56/121/88
f 61/97/89 78/104/89 74/118/89
f 72/119/90 76/103/90 57/122/90
f 79/123/91 84/91/91 82/124/91
f 79/123/92 83/94/92 80/92/92
f 71/125/93 82/124/93 53/126/93
f 53/126/94 84/91/94 57/127/94
f 72/90/95 83/94/95 56/128/95
f 71/125/96 81/95/96 79/123/96
f 59/66/59 64/96/59 69/67/59
f 45/69/97 50/77/97 51/70/97
f 43/72/98 48/129/98 49/73/98
f 47/75/62 46/71/62 51/70/62
f 44/74/63 49/73/63 50/77/63
f 48/78/99 70/87/99 71/79/99
f 51/81/65 54/88/65 55/82/65
f 49/80/100 71/79/100 53/84/100
f 43/86/67 56/110/67 70/87/67
f 50/85/68 53/84/68 54/88/68
f 55/82/101 54/88/101 58/89/101
f 72/90/102 57/127/102 84/91/102
f 53/84/71 57/100/71 58/89/71
f 70/93/103 56/128/103 83/94/103
f 58/89/73 63/101/73 64/96/73
f 61/97/104 74/118/104 77/98/104
f 57/100/75 62/108/75 63/101/75
f 62/102/105 57/122/105 76/103/105
f 64/96/77 63/101/77 68/105/77
f 61/106/106 66/111/106 67/107/106
f 43/86/107 65/130/107 60/109/107
f 62/108/79 67/107/79 68/105/79
f 60/109/80 65/130/80 66/111/80
f 69/112/81 68/115/81 46/71/81
f 66/113/82 44/74/82 45/69/82
f 67/114/83 45/69/83 46/71/83
f 65/116/84 43/72/84 44/74/84
f 55/82/59 59/66/59 47/68/59
f 73/117/108 74/118/108 78/104/108
f 73/117/86 75/120/86 77/98/86
f 72/119/109 56/121/109 75/120/109
f 60/99/88 77/98/88 75/120/88
f 61/97/110 62/102/110 78/104/110
f 72/119/111 73/117/111 76/103/111
f 79/123/91 80/92/91 84/91/91
f 79/123/112 81/95/112 83/94/112
f 71/125/113 79/123/113 82/124/113
f 53/126/94 82/124/94 84/91/94
f 72/90/114 80/92/114 83/94/114
f 71/125/115 70/93/115 81/95/115
v 0.330584 4.472075 1.122424
v 0.320236 4.451433 1.139407
v 0.317048 4.423618 1.145555
v 0.321876 4.396083 1.139219
v 0.333425 4.376207 1.122098
v 0.317897 4.471782 1.097817
v 0.298261 4.450926 1.096787
v 0.291674 4.423034 1.096340
v 0.299901 4.395577 1.096598
v 0.320738 4.375915 1.097491
v 0.321587 4.424078 1.049753
v 0.325807 4.396482 1.056253
v 0.335695 4.376437 1.074197
v 0.360497 4.473119 1.075837
v 0.376874 4.425708 1.052380
v 0.373687 4.397893 1.058528
v 0.363338 4.377252 1.075511
v 0.373185 4.473412 1.100444
v 0.394022 4.453749 1.101337
v 0.402249 4.426292 1.101595
v 0.395662 4.398400 1.101148
v 0.376026 4.377544 1.100118
v 0.358228 4.472889 1.123738
v 0.368116 4.452844 1.141683
v 0.372336 4.425248 1.148182
v 0.369756 4.397495 1.141494
v 0.361069 4.377022 1.123412
v 0.332854 4.472304 1.074523
v 0.324166 4.451831 1.056441
v 0.372047 4.453243 1.058716
v 0.417706 4.474319 1.059702
v 0.419499 4.474360 1.063179
v 0.383990 4.479484 1.071515
v 0.403654 4.442205 1.057570
v 0.390270 4.479629 1.083695
v 0.413395 4.442430 1.076463
v 0.343771 4.472110 1.017052
v 0.355104 4.472444 1.017591
v 0.345389 4.477286 1.034953
v 0.346157 4.451021 1.026085
v 0.350583 4.477439 1.035200
v 0.351366 4.451174 1.026333
vt 0.274240 0.539347
vt 0.265397 0.539709
vt 0.266768 0.532487
vt 0.231414 0.551290
vt 0.214659 0.541092
vt 0.231357 0.542861
vt 0.231940 0.569242
vt 0.215985 0.562822
vt 0.231472 0.559719
vt 0.230890 0.533338
vt 0.220414 0.530957
vt 0.213134 0.552274
vt 0.289666 0.544440
vt 0.282983 0.540904
vt 0.290637 0.536818
vt 0.279682 0.529141
vt 0.275518 0.536619
vt 0.273707 0.532162
vt 0.280945 0.538772
vt 0.286431 0.530872
vt 0.290637 0.551375
vt 0.284312 0.543753
vt 0.278488 0.537315
vt 0.276318 0.541045
vt 0.804698 0.251197
vt 0.792375 0.255919
vt 0.792638 0.252041
vt 0.786357 0.239035
vt 0.792578 0.249274
vt 0.791489 0.249454
vt 0.271776 0.541127
vt 0.760733 0.199751
vt 0.757502 0.209505
vt 0.750621 0.206121
vt 0.278108 0.542645
vt 0.273009 0.544115
vt 0.772804 0.201934
vt 0.766718 0.213101
vt 0.766203 0.208706
vt 0.264007 0.548518
vt 0.277612 0.547903
vt 0.268747 0.555467
vt 0.275021 0.546378
vt 0.280714 0.548498
vt 0.281954 0.545638
vt 0.276612 0.557409
vt 0.240880 0.530957
vt 0.248168 0.561486
vt 0.249693 0.550306
vt 0.246843 0.539760
vt 0.242415 0.571620
vt 0.762287 0.211045
vt 0.762255 0.210544
vt 0.761023 0.221925
vt 0.757316 0.212491
vt 0.750922 0.216572
vt 0.772804 0.220841
vt 0.791613 0.252007
vt 0.791097 0.255536
vt 0.780068 0.250772
vt 0.780487 0.263708
vt 0.804698 0.264828
vt 0.798786 0.238814
vt 0.221949 0.571626
vt 0.283377 0.553479
vn 0.0296 -0.9996 -0.0034
vn -0.8586 -0.2531 0.4457
vn -0.6909 0.6333 0.3487
vn -0.6521 -0.6754 0.3443
vn -0.8720 0.1988 0.4472
vn -0.6551 0.6369 -0.4064
vn -0.6164 -0.6718 -0.4108
vn -0.8259 0.2035 -0.5258
vn -0.0296 0.9996 0.0034
vn -0.8125 -0.2484 -0.5273
vn 0.0552 -0.6507 -0.7573
vn 0.8016 -0.3423 -0.4901
vn 0.0528 -0.2213 -0.9738
vn -0.0347 0.9929 0.1141
vn 0.6909 -0.6333 -0.3487
vn 0.4804 0.5405 0.6907
vn 0.8720 -0.1988 -0.4473
vn 0.5424 -0.7955 -0.2702
vn 0.6551 -0.6369 0.4064
vn 0.8125 0.2484 0.5273
vn 0.8259 -0.2035 0.5258
vn 0.6164 0.6718 0.4108
vn -0.0164 -0.6580 0.7529
vn -0.0528 0.2213 0.9738
vn -0.0394 -0.2306 0.9722
vn -0.0552 0.6507 0.7573
vn 0.8380 -0.3383 -0.4281
vn 0.1249 0.9892 -0.0760
vn -0.2153 0.5055 -0.8355
vn -0.2405 0.9641 0.1125
vn 0.8052 0.0900 0.5862
vn 0.0456 0.2316 -0.9717
vn 0.0551 -0.3879 -0.9201
vn -0.0152 0.9609 -0.2765
vn -0.7886 0.2123 -0.5770
vn 0.0547 -0.6867 -0.7249
vn 0.8024 0.5816 -0.1339
vn -0.8033 0.5876 -0.0973
vn -0.6521 -0.6754 0.3442
vn -0.8720 0.1988 0.4473
vn 0.8053 0.2634 -0.5311
vn -0.0347 0.9929 0.1140
vn 0.5508 0.5232 0.6503
vn 0.8720 -0.1988 -0.4472
vn 0.8260 -0.2035 0.5257
vn 0.6163 0.6718 0.4108
vn -0.0164 -0.6580 0.7528
vn 0.1249 0.9892 -0.0762
vn -0.2892 0.5228 -0.8019
vn 0.8157 0.2493 0.5219
vn -0.0113 0.0712 -0.9974
vn 0.0552 -0.3879 -0.9201
vn -0.0152 0.9609 -0.2764
vn -0.7706 -0.3226 -0.5496
vn 0.7466 0.6652 0.0030
vn -0.8283 0.5248 -0.1963
s off
f 101/131/116 111/132/116 89/133/116
f 87/134/117 93/135/117 88/136/117
f 85/137/118 91/138/118 86/139/118
f 89/140/119 93/135/119 94/141/119
f 86/139/120 92/142/120 87/134/120
f 90/143/121 113/144/121 91/145/121
f 93/146/122 97/147/122 94/148/122
f 91/145/123 95/149/123 92/150/123
f 85/151/124 112/152/124 90/143/124
f 92/150/125 96/153/125 93/146/125
f 97/147/126 100/154/126 101/131/126
f 114/155/127 126/156/127 122/157/127
f 95/149/128 100/154/128 96/153/128
f 112/158/129 125/159/129 123/160/129
f 100/154/130 106/161/130 101/131/130
f 103/162/131 119/163/131 102/164/131
f 99/165/132 105/166/132 100/154/132
f 104/167/133 118/168/133 120/169/133
f 106/161/134 110/170/134 111/132/134
f 103/171/135 109/172/135 104/173/135
f 85/151/124 102/174/124 98/175/124
f 104/173/136 110/170/136 105/166/136
f 102/174/137 108/176/137 103/171/137
f 111/177/138 88/136/138 89/140/138
f 108/178/139 87/134/139 109/179/139
f 109/179/140 88/136/140 110/180/140
f 107/181/141 86/139/141 108/178/141
f 97/147/116 89/133/116 94/148/116
f 115/182/142 120/169/142 118/168/142
f 115/182/143 119/163/143 116/183/143
f 114/184/144 117/185/144 115/182/144
f 102/164/145 117/185/145 98/186/145
f 103/162/146 120/169/146 116/183/146
f 114/184/147 118/168/147 99/187/147
f 121/188/148 126/156/148 124/189/148
f 121/188/149 125/159/149 122/157/149
f 113/190/150 124/189/150 95/191/150
f 95/191/151 126/156/151 99/192/151
f 114/155/152 125/159/152 98/193/152
f 113/190/153 123/160/153 121/188/153
f 101/131/116 106/161/116 111/132/116
f 87/134/117 92/142/117 93/135/117
f 85/137/118 90/194/118 91/138/118
f 89/140/154 88/136/154 93/135/154
f 86/139/155 91/138/155 92/142/155
f 90/143/121 112/152/121 113/144/121
f 93/146/122 96/153/122 97/147/122
f 91/145/123 113/144/123 95/149/123
f 85/151/124 98/175/124 112/152/124
f 92/150/125 95/149/125 96/153/125
f 97/147/126 96/153/126 100/154/126
f 114/155/156 99/192/156 126/156/156
f 95/149/128 99/165/128 100/154/128
f 112/158/157 98/193/157 125/159/157
f 100/154/130 105/166/130 106/161/130
f 103/162/158 116/183/158 119/163/158
f 99/165/159 104/173/159 105/166/159
f 104/167/133 99/187/133 118/168/133
f 106/161/134 105/166/134 110/170/134
f 103/171/135 108/176/135 109/172/135
f 85/151/124 107/195/124 102/174/124
f 104/173/160 109/172/160 110/170/160
f 102/174/161 107/195/161 108/176/161
f 111/177/162 110/180/162 88/136/162
f 108/178/139 86/139/139 87/134/139
f 109/179/140 87/134/140 88/136/140
f 107/181/141 85/137/141 86/139/141
f 97/147/116 101/131/116 89/133/116
f 115/182/142 116/183/142 120/169/142
f 115/182/163 117/185/163 119/163/163
f 114/184/164 98/186/164 117/185/164
f 102/164/145 119/163/145 117/185/145
f 103/162/165 104/167/165 120/169/165
f 114/184/166 115/182/166 118/168/166
f 121/188/167 122/157/167 126/156/167
f 121/188/168 123/160/168 125/159/168
f 113/190/169 121/188/169 124/189/169
f 95/191/151 124/189/151 126/156/151
f 114/155/170 122/157/170 125/159/170
f 113/190/171 112/158/171 123/160/171
