# Blender v2.81 (sub 16) OBJ File: 'garbage.blend'
# www.blender.org
v 0.555288 2.612247 1.214183
v 0.541354 2.595016 1.232363
v 0.535423 2.568676 1.241991
v 0.539085 2.540288 1.240486
v 0.551359 2.517456 1.228253
v 0.545972 2.608797 1.188340
v 0.525218 2.589041 1.187601
v 0.516792 2.561777 1.190304
v 0.522950 2.534313 1.195724
v 0.542043 2.514006 1.202409
v 0.552592 2.554127 1.148758
v 0.553954 2.527688 1.159745
v 0.559943 2.510181 1.181636
v 0.591088 2.604597 1.172638
v 0.607024 2.553376 1.158899
v 0.601094 2.527037 1.168527
v 0.587160 2.509806 1.186707
v 0.600404 2.608047 1.198481
v 0.619497 2.587740 1.205166
v 0.625656 2.560276 1.210586
v 0.617229 2.533012 1.213289
v 0.596475 2.513255 1.212550
v 0.582504 2.611872 1.219254
v 0.588493 2.594365 1.241146
v 0.589855 2.567926 1.252132
v 0.586225 2.539638 1.249269
v 0.578575 2.517080 1.233323
v 0.563872 2.604972 1.167567
v 0.556222 2.582415 1.151622
v 0.603362 2.581765 1.160404
v 0.649867 2.600431 1.164741
v 0.651183 2.600919 1.168393
v 0.615336 2.609036 1.170794
v 0.633983 2.569117 1.165355
v 0.619948 2.610744 1.183586
v 0.641136 2.571765 1.185198
v 0.582241 2.595370 1.112863
v 0.593398 2.595216 1.114942
v 0.581843 2.603158 1.129864
v 0.581916 2.575834 1.125122
v 0.586957 2.603088 1.130817
v 0.587044 2.575763 1.126077
vt 0.274240 0.539347
vt 0.265397 0.539709
vt 0.266768 0.532487
vt 0.231414 0.551290
vt 0.214659 0.541092
vt 0.231357 0.542861
vt 0.231940 0.569242
vt 0.215985 0.562822
vt 0.231472 0.559719
vt 0.230890 0.533338
vt 0.220414 0.530957
vt 0.213134 0.552274
vt 0.289666 0.544440
vt 0.282983 0.540904
vt 0.290637 0.536818
vt 0.279682 0.529141
vt 0.275518 0.536619
vt 0.273707 0.532162
vt 0.280945 0.538772
vt 0.286431 0.530872
vt 0.290637 0.551375
vt 0.284312 0.543753
vt 0.278488 0.537315
vt 0.276318 0.541045
vt 0.804698 0.251197
vt 0.792375 0.255919
vt 0.792638 0.252041
vt 0.786357 0.239035
vt 0.792578 0.249274
vt 0.791489 0.249454
vt 0.271776 0.541127
vt 0.760733 0.199751
vt 0.757502 0.209505
vt 0.750621 0.206121
vt 0.278108 0.542645
vt 0.273009 0.544115
vt 0.772804 0.201934
vt 0.766718 0.213101
vt 0.766203 0.208706
vt 0.264007 0.548518
vt 0.277612 0.547903
vt 0.268747 0.555467
vt 0.275021 0.546378
vt 0.280714 0.548498
vt 0.281954 0.545638
vt 0.276612 0.557409
vt 0.240880 0.530957
vt 0.248168 0.561486
vt 0.249693 0.550306
vt 0.246843 0.539760
vt 0.242415 0.571620
vt 0.762287 0.211045
vt 0.762255 0.210544
vt 0.761023 0.221925
vt 0.757316 0.212491
vt 0.750922 0.216572
vt 0.772804 0.220841
vt 0.791613 0.252007
vt 0.791097 0.255536
vt 0.780068 0.250772
vt 0.780487 0.263708
vt 0.804698 0.264828
vt 0.798786 0.238814
vt 0.221949 0.571626
vt 0.283377 0.553479
vn -0.0410 -0.9883 0.1467
vn -0.9257 -0.1381 0.3521
vn -0.6844 0.7132 0.1515
vn -0.7380 -0.5808 0.3435
vn -0.9072 0.3087 0.2858
vn -0.5490 0.5986 -0.5833
vn -0.6027 -0.6955 -0.3913
vn -0.7328 0.1610 -0.6611
vn 0.0410 0.9883 -0.1467
vn -0.7513 -0.2859 -0.5948
vn 0.1085 -0.7617 -0.6388
vn 0.8331 -0.4535 -0.3167
vn 0.1651 -0.3712 -0.9138
vn 0.0208 0.9991 -0.0382
vn 0.6844 -0.7132 -0.1515
vn 0.4220 0.6158 0.6653
vn 0.9072 -0.3087 -0.2858
vn 0.5157 -0.8537 -0.0719
vn 0.5491 -0.5985 0.5833
vn 0.7513 0.2859 0.5948
vn 0.7328 -0.1610 0.6611
vn 0.6027 0.6955 0.3913
vn -0.1621 -0.5323 0.8309
vn -0.1651 0.3712 0.9138
vn -0.1836 -0.0756 0.9801
vn -0.1085 0.7617 0.6388
vn 0.8612 -0.4417 -0.2515
vn 0.2035 0.9582 -0.2012
vn -0.0668 0.3807 -0.9223
vn -0.1844 0.9807 -0.0644
vn 0.7250 0.1389 0.6745
vn 0.1898 0.0764 -0.9788
vn 0.1486 -0.5274 -0.8365
vn 0.0895 0.9063 -0.4131
vn -0.6886 0.1600 -0.7073
vn 0.1012 -0.7921 -0.6019
vn 0.8522 0.5131 -0.1027
vn -0.7398 0.6050 -0.2944
vn -0.7380 -0.5808 0.3436
vn -0.5491 0.5986 -0.5833
vn 0.8850 0.1377 -0.4448
vn 0.0209 0.9991 -0.0381
vn 0.4957 0.5890 0.6382
vn 0.5490 -0.5986 0.5833
vn 0.8612 -0.4418 -0.2515
vn -0.1430 0.4066 -0.9023
vn 0.7553 0.2858 0.5898
vn 0.1255 -0.0831 -0.9886
vn 0.0894 0.9063 -0.4131
vn -0.7122 -0.3646 -0.5999
vn 0.7849 0.6195 0.0113
vn -0.7559 0.5290 -0.3857
s off
f 17/1/1 27/2/1 5/3/1
f 3/4/2 9/5/2 4/6/2
f 1/7/3 7/8/3 2/9/3
f 5/10/4 9/5/4 10/11/4
f 2/9/5 8/12/5 3/4/5
f 6/13/6 29/14/6 7/15/6
f 9/16/7 13/17/7 10/18/7
f 7/15/8 11/19/8 8/20/8
f 1/21/9 28/22/9 6/13/9
f 8/20/10 12/23/10 9/16/10
f 13/17/11 16/24/11 17/1/11
f 30/25/12 42/26/12 38/27/12
f 11/19/13 16/24/13 12/23/13
f 28/28/14 41/29/14 39/30/14
f 16/24/15 22/31/15 17/1/15
f 19/32/16 35/33/16 18/34/16
f 15/35/17 21/36/17 16/24/17
f 20/37/18 34/38/18 36/39/18
f 22/31/19 26/40/19 27/2/19
f 19/41/20 25/42/20 20/43/20
f 1/21/9 18/44/9 14/45/9
f 20/43/21 26/40/21 21/36/21
f 18/44/22 24/46/22 19/41/22
f 27/47/23 4/6/23 5/10/23
f 24/48/24 3/4/24 25/49/24
f 25/49/25 4/6/25 26/50/25
f 23/51/26 2/9/26 24/48/26
f 13/17/1 5/3/1 10/18/1
f 31/52/27 36/39/27 34/38/27
f 31/52/28 35/33/28 32/53/28
f 30/54/29 33/55/29 31/52/29
f 18/34/30 33/55/30 14/56/30
f 19/32/31 36/39/31 32/53/31
f 30/54/32 34/38/32 15/57/32
f 37/58/33 42/26/33 40/59/33
f 37/58/34 41/29/34 38/27/34
f 29/60/35 40/59/35 11/61/35
f 11/61/36 42/26/36 15/62/36
f 30/25/37 41/29/37 14/63/37
f 29/60/38 39/30/38 37/58/38
f 17/1/1 22/31/1 27/2/1
f 3/4/2 8/12/2 9/5/2
f 1/7/3 6/64/3 7/8/3
f 5/10/39 4/6/39 9/5/39
f 2/9/5 7/8/5 8/12/5
f 6/13/40 28/22/40 29/14/40
f 9/16/7 12/23/7 13/17/7
f 7/15/8 29/14/8 11/19/8
f 1/21/9 14/45/9 28/22/9
f 8/20/10 11/19/10 12/23/10
f 13/17/11 12/23/11 16/24/11
f 30/25/41 15/62/41 42/26/41
f 11/19/13 15/35/13 16/24/13
f 28/28/42 14/63/42 41/29/42
f 16/24/15 21/36/15 22/31/15
f 19/32/43 32/53/43 35/33/43
f 15/35/17 20/43/17 21/36/17
f 20/37/18 15/57/18 34/38/18
f 22/31/44 21/36/44 26/40/44
f 19/41/20 24/46/20 25/42/20
f 1/21/9 23/65/9 18/44/9
f 20/43/21 25/42/21 26/40/21
f 18/44/22 23/65/22 24/46/22
f 27/47/23 26/50/23 4/6/23
f 24/48/24 2/9/24 3/4/24
f 25/49/25 3/4/25 4/6/25
f 23/51/26 1/7/26 2/9/26
f 13/17/1 17/1/1 5/3/1
f 31/52/45 32/53/45 36/39/45
f 31/52/28 33/55/28 35/33/28
f 30/54/46 14/56/46 33/55/46
f 18/34/30 35/33/30 33/55/30
f 19/32/47 20/37/47 36/39/47
f 30/54/48 31/52/48 34/38/48
f 37/58/33 38/27/33 42/26/33
f 37/58/49 39/30/49 41/29/49
f 29/60/50 37/58/50 40/59/50
f 11/61/36 40/59/36 42/26/36
f 30/25/51 38/27/51 41/29/51
f 29/60/52 28/28/52 39/30/52
v 2.244743 2.715493 -6.618299
v 2.259223 2.691663 -6.611663
v 2.259790 2.663309 -6.607496
v 2.246291 2.638030 -6.606915
v 2.222344 2.622598 -6.610075
v 2.226433 2.721663 -6.598469
v 2.227509 2.702351 -6.577316
v 2.223170 2.675651 -6.567835
v 2.214577 2.648718 -6.572567
v 2.204034 2.628769 -6.590245
v 2.170677 2.687123 -6.581218
v 2.169117 2.658653 -6.584157
v 2.177787 2.634505 -6.596936
v 2.192249 2.726965 -6.631682
v 2.154803 2.686254 -6.634261
v 2.155370 2.657901 -6.630094
v 2.169851 2.634071 -6.623457
v 2.210559 2.720795 -6.651512
v 2.200016 2.700846 -6.669189
v 2.191423 2.673913 -6.673921
v 2.187084 2.647213 -6.664440
v 2.188160 2.627900 -6.643287
v 2.236806 2.715059 -6.644821
v 2.245476 2.690910 -6.657599
v 2.243917 2.662441 -6.660538
v 2.232544 2.637278 -6.652851
v 2.214407 2.622164 -6.636596
v 2.200186 2.727400 -6.605160
v 2.182049 2.712286 -6.588906
v 2.168302 2.711534 -6.634842
v 2.158460 2.730222 -6.680491
v 2.161048 2.729350 -6.683293
v 2.181778 2.733427 -6.653122
v 2.154164 2.700090 -6.662973
v 2.190841 2.730372 -6.662938
v 2.168223 2.695353 -6.678198
v 2.143861 2.740962 -6.597054
v 2.140607 2.740784 -6.607927
v 2.160842 2.741531 -6.604877
v 2.146673 2.718235 -6.599810
v 2.159350 2.741449 -6.609860
v 2.145178 2.718153 -6.604807
vt 0.274240 0.539347
vt 0.265397 0.539709
vt 0.266768 0.532487
vt 0.231414 0.551290
vt 0.214659 0.541092
vt 0.231357 0.542861
vt 0.231940 0.569242
vt 0.215985 0.562822
vt 0.231472 0.559719
vt 0.230890 0.533338
vt 0.220414 0.530957
vt 0.213134 0.552274
vt 0.289666 0.544440
vt 0.282983 0.540904
vt 0.290637 0.536818
vt 0.279682 0.529141
vt 0.275518 0.536619
vt 0.273707 0.532162
vt 0.280945 0.538772
vt 0.286431 0.530872
vt 0.290637 0.551375
vt 0.284312 0.543753
vt 0.278488 0.537315
vt 0.276318 0.541045
vt 0.804698 0.251197
vt 0.792375 0.255919
vt 0.792638 0.252041
vt 0.786357 0.239035
vt 0.792578 0.249274
vt 0.791489 0.249454
vt 0.271776 0.541127
vt 0.760733 0.199751
vt 0.757502 0.209505
vt 0.750621 0.206121
vt 0.278108 0.542645
vt 0.273009 0.544115
vt 0.772804 0.201934
vt 0.766718 0.213101
vt 0.766203 0.208706
vt 0.264007 0.548518
vt 0.277612 0.547903
vt 0.268747 0.555467
vt 0.275021 0.546378
vt 0.280714 0.548498
vt 0.281954 0.545638
vt 0.276612 0.557409
vt 0.240880 0.530957
vt 0.248168 0.561486
vt 0.249693 0.550306
vt 0.246843 0.539760
vt 0.242415 0.571620
vt 0.762287 0.211045
vt 0.762255 0.210544
vt 0.761023 0.221925
vt 0.757316 0.212491
vt 0.750922 0.216572
vt 0.772804 0.220841
vt 0.791613 0.252007
vt 0.791097 0.255536
vt 0.780068 0.250772
vt 0.780487 0.263708
vt 0.804698 0.264828
vt 0.798786 0.238814
vt 0.221949 0.571626
vt 0.283377 0.553479
vn -0.2335 -0.9686 0.0858
vn 0.6416 -0.3266 0.6940
vn 0.6917 0.5505 0.4674
vn 0.3859 -0.7177 0.5797
vn 0.7472 0.1112 0.6553
vn -0.0107 0.7382 0.6745
vn -0.3164 -0.5300 0.7868
vn -0.1579 0.3531 0.9222
vn 0.2335 0.9686 -0.0858
vn -0.2635 -0.0848 0.9609
vn -0.8552 -0.4464 0.2633
vn -0.7943 -0.2375 -0.5592
vn -0.9579 0.0229 0.2863
vn 0.3350 0.9351 -0.1156
vn -0.6917 -0.5505 -0.4674
vn 0.5894 0.3384 -0.7335
vn -0.7471 -0.1112 -0.6553
vn -0.6056 -0.7221 -0.3345
vn 0.0106 -0.7382 -0.6745
vn 0.2635 0.0848 -0.9609
vn 0.1579 -0.3531 -0.9222
vn 0.3164 0.5300 -0.7868
vn 0.5495 -0.8218 -0.1510
vn 0.9579 -0.0229 -0.2863
vn 0.8523 -0.4608 -0.2475
vn 0.8553 0.4464 -0.2632
vn -0.7489 -0.2500 -0.6137
vn 0.1064 0.9731 -0.2046
vn -0.5806 0.7019 0.4125
vn 0.3967 0.9143 0.0818
vn 0.2850 -0.0830 -0.9549
vn -0.8537 0.4614 0.2413
vn -0.9463 -0.1517 0.2856
vn -0.0360 0.9993 -0.0056
vn -0.2154 0.3731 0.9024
vn -0.8334 -0.4891 0.2574
vn -0.2648 0.5702 -0.7777
vn 0.3113 0.6194 0.7207
vn -0.2335 -0.9686 0.0857
vn 0.6918 0.5505 0.4674
vn 0.7472 0.1113 0.6553
vn -0.0106 0.7382 0.6745
vn -0.3164 -0.5299 0.7868
vn 0.2335 0.9686 -0.0857
vn -0.8553 -0.4464 0.2632
vn -0.6995 0.3593 -0.6177
vn 0.5249 0.3293 -0.7849
vn -0.7472 -0.1112 -0.6552
vn 0.8552 0.4464 -0.2633
vn -0.7490 -0.2500 -0.6136
vn 0.1064 0.9731 -0.2045
vn -0.5212 0.7127 0.4694
vn 0.2577 0.0869 -0.9623
vn -0.8934 0.3141 0.3212
vn -0.9462 -0.1517 0.2857
vn -0.3144 -0.1525 0.9370
vn -0.8333 -0.4892 0.2574
vn -0.1022 0.6194 -0.7784
vn 0.2153 0.5837 0.7829
s off
f 59/66/53 69/67/53 47/68/53
f 45/69/54 51/70/54 46/71/54
f 43/72/55 49/73/55 44/74/55
f 47/75/56 51/70/56 52/76/56
f 44/74/57 50/77/57 45/69/57
f 48/78/58 71/79/58 49/80/58
f 51/81/59 55/82/59 52/83/59
f 49/80/60 53/84/60 50/85/60
f 43/86/61 70/87/61 48/78/61
f 50/85/62 54/88/62 51/81/62
f 55/82/63 58/89/63 59/66/63
f 72/90/64 84/91/64 80/92/64
f 53/84/65 58/89/65 54/88/65
f 70/93/66 83/94/66 81/95/66
f 58/89/67 64/96/67 59/66/67
f 61/97/68 77/98/68 60/99/68
f 57/100/69 63/101/69 58/89/69
f 62/102/70 76/103/70 78/104/70
f 64/96/71 68/105/71 69/67/71
f 61/106/72 67/107/72 62/108/72
f 43/86/61 60/109/61 56/110/61
f 62/108/73 68/105/73 63/101/73
f 60/109/74 66/111/74 61/106/74
f 69/112/75 46/71/75 47/75/75
f 66/113/76 45/69/76 67/114/76
f 67/114/77 46/71/77 68/115/77
f 65/116/78 44/74/78 66/113/78
f 55/82/53 47/68/53 52/83/53
f 73/117/79 78/104/79 76/103/79
f 73/117/80 77/98/80 74/118/80
f 72/119/81 75/120/81 73/117/81
f 60/99/82 75/120/82 56/121/82
f 61/97/83 78/104/83 74/118/83
f 72/119/84 76/103/84 57/122/84
f 79/123/85 84/91/85 82/124/85
f 79/123/86 83/94/86 80/92/86
f 71/125/87 82/124/87 53/126/87
f 53/126/88 84/91/88 57/127/88
f 72/90/89 83/94/89 56/128/89
f 71/125/90 81/95/90 79/123/90
f 59/66/91 64/96/91 69/67/91
f 45/69/54 50/77/54 51/70/54
f 43/72/92 48/129/92 49/73/92
f 47/75/56 46/71/56 51/70/56
f 44/74/93 49/73/93 50/77/93
f 48/78/94 70/87/94 71/79/94
f 51/81/95 54/88/95 55/82/95
f 49/80/60 71/79/60 53/84/60
f 43/86/96 56/110/96 70/87/96
f 50/85/62 53/84/62 54/88/62
f 55/82/97 54/88/97 58/89/97
f 72/90/98 57/127/98 84/91/98
f 53/84/65 57/100/65 58/89/65
f 70/93/66 56/128/66 83/94/66
f 58/89/67 63/101/67 64/96/67
f 61/97/99 74/118/99 77/98/99
f 57/100/100 62/108/100 63/101/100
f 62/102/70 57/122/70 76/103/70
f 64/96/71 63/101/71 68/105/71
f 61/106/72 66/111/72 67/107/72
f 43/86/61 65/130/61 60/109/61
f 62/108/73 67/107/73 68/105/73
f 60/109/74 65/130/74 66/111/74
f 69/112/75 68/115/75 46/71/75
f 66/113/76 44/74/76 45/69/76
f 67/114/77 45/69/77 46/71/77
f 65/116/101 43/72/101 44/74/101
f 55/82/91 59/66/91 47/68/91
f 73/117/102 74/118/102 78/104/102
f 73/117/103 75/120/103 77/98/103
f 72/119/104 56/121/104 75/120/104
f 60/99/82 77/98/82 75/120/82
f 61/97/105 62/102/105 78/104/105
f 72/119/106 73/117/106 76/103/106
f 79/123/107 80/92/107 84/91/107
f 79/123/86 81/95/86 83/94/86
f 71/125/108 79/123/108 82/124/108
f 53/126/109 82/124/109 84/91/109
f 72/90/110 80/92/110 83/94/110
f 71/125/111 70/93/111 81/95/111
v 1.123428 4.147439 -1.823749
v 1.118229 4.132164 -1.800060
v 1.113763 4.106885 -1.787305
v 1.111226 4.078379 -1.788903
v 1.111299 4.054283 -1.804426
v 1.101648 4.146733 -1.840829
v 1.080506 4.130939 -1.829642
v 1.070204 4.105472 -1.821464
v 1.073503 4.077155 -1.818486
v 1.089519 4.053576 -1.821506
v 1.077404 4.093423 -1.875029
v 1.079738 4.066720 -1.864875
v 1.093119 4.047551 -1.848288
v 1.130628 4.135391 -1.877315
v 1.128164 4.082788 -1.894436
v 1.123698 4.057510 -1.881681
v 1.118499 4.042234 -1.857992
v 1.152408 4.136098 -1.860235
v 1.168424 4.112519 -1.863255
v 1.171723 4.084202 -1.860277
v 1.161421 4.058734 -1.852099
v 1.140279 4.042941 -1.840912
v 1.148808 4.142122 -1.833453
v 1.162188 4.122953 -1.816866
v 1.164523 4.096251 -1.806712
v 1.155185 4.069169 -1.805710
v 1.136678 4.048965 -1.814129
v 1.105248 4.140708 -1.867611
v 1.086741 4.120504 -1.876031
v 1.130700 4.111294 -1.892838
v 1.175111 4.121383 -1.914189
v 1.178189 4.121482 -1.911776
v 1.150758 4.135612 -1.891661
v 1.156786 4.093314 -1.903719
v 1.161539 4.135962 -1.883207
v 1.173509 4.093857 -1.890605
v 1.090688 4.130317 -1.923308
v 1.101092 4.128137 -1.927287
v 1.100483 4.137348 -1.909009
v 1.093440 4.110647 -1.911579
v 1.105251 4.136349 -1.910832
v 1.098223 4.109645 -1.913407
vt 0.274240 0.539347
vt 0.265397 0.539709
vt 0.266768 0.532487
vt 0.231414 0.551290
vt 0.214659 0.541092
vt 0.231357 0.542861
vt 0.231940 0.569242
vt 0.215985 0.562822
vt 0.231472 0.559719
vt 0.230890 0.533338
vt 0.220414 0.530957
vt 0.213134 0.552274
vt 0.289666 0.544440
vt 0.282983 0.540904
vt 0.290637 0.536818
vt 0.279682 0.529141
vt 0.275518 0.536619
vt 0.273707 0.532162
vt 0.280945 0.538772
vt 0.286431 0.530872
vt 0.290637 0.551375
vt 0.284312 0.543753
vt 0.278488 0.537315
vt 0.276318 0.541045
vt 0.804698 0.251197
vt 0.792375 0.255919
vt 0.792638 0.252041
vt 0.786357 0.239035
vt 0.792578 0.249274
vt 0.791489 0.249454
vt 0.271776 0.541127
vt 0.760733 0.199751
vt 0.757502 0.209505
vt 0.750621 0.206121
vt 0.278108 0.542645
vt 0.273009 0.544115
vt 0.772804 0.201934
vt 0.766718 0.213101
vt 0.766203 0.208706
vt 0.264007 0.548518
vt 0.277612 0.547903
vt 0.268747 0.555467
vt 0.275021 0.546378
vt 0.280714 0.548498
vt 0.281954 0.545638
vt 0.276612 0.557409
vt 0.240880 0.530957
vt 0.248168 0.561486
vt 0.249693 0.550306
vt 0.246843 0.539760
vt 0.242415 0.571620
vt 0.762287 0.211045
vt 0.762255 0.210544
vt 0.761023 0.221925
vt 0.757316 0.212491
vt 0.750922 0.216572
vt 0.772804 0.220841
vt 0.791613 0.252007
vt 0.791097 0.255536
vt 0.780068 0.250772
vt 0.780487 0.263708
vt 0.804698 0.264828
vt 0.798786 0.238814
vt 0.221949 0.571626
vt 0.283377 0.553479
vn -0.1265 -0.9713 0.2015
vn -0.6173 0.0108 0.7867
vn -0.3740 0.8146 0.4432
vn -0.5396 -0.4571 0.7070
vn -0.5601 0.4499 0.6956
vn -0.6606 0.7085 -0.2482
vn -0.8262 -0.5632 0.0156
vn -0.9294 0.3132 -0.1954
vn 0.1265 0.9713 -0.2015
vn -0.9865 -0.1259 -0.1043
vn -0.3694 -0.7420 -0.5595
vn 0.4573 -0.5781 -0.6757
vn -0.3979 -0.3563 -0.8454
vn 0.1677 0.9809 -0.0989
vn 0.3740 -0.8147 -0.4432
vn 0.8031 0.5050 0.3162
vn 0.5601 -0.4499 -0.6956
vn 0.2499 -0.9268 -0.2803
vn 0.6606 -0.7085 0.2482
vn 0.9865 0.1259 0.1043
vn 0.9294 -0.3132 0.1954
vn 0.8262 0.5632 -0.0156
vn 0.2038 -0.5298 0.8233
vn 0.3979 0.3563 0.8454
vn 0.3407 -0.0828 0.9365
vn 0.3694 0.7419 0.5595
vn 0.5167 -0.5742 -0.6351
vn 0.2294 0.9156 -0.3304
vn -0.4689 0.4242 -0.7747
vn -0.0212 0.9997 -0.0143
vn 0.9808 -0.0174 0.1942
vn -0.3347 0.0824 -0.9387
vn -0.3983 -0.5103 -0.7622
vn 0.0153 0.8931 -0.4496
vn -0.9164 0.3064 -0.2577
vn -0.3616 -0.7722 -0.5225
vn 0.7485 0.3607 -0.5564
vn -0.6698 0.7362 0.0969
vn -0.6606 0.7085 -0.2481
vn -0.3694 -0.7419 -0.5595
vn 0.5351 -0.0002 -0.8448
vn 0.3740 -0.8146 -0.4432
vn 0.8463 0.4669 0.2566
vn 0.3694 0.7420 0.5595
vn 0.5166 -0.5742 -0.6351
vn 0.2293 0.9156 -0.3304
vn -0.5180 0.4621 -0.7198
vn -0.0212 0.9997 -0.0144
vn 0.9873 0.1253 0.0980
vn -0.4208 -0.0628 -0.9050
vn 0.0152 0.8931 -0.4495
vn -0.9697 -0.2100 -0.1245
vn -0.3615 -0.7721 -0.5226
vn 0.7693 0.4724 -0.4302
vn -0.7435 0.6680 0.0314
s off
f 101/131/112 111/132/112 89/133/112
f 87/134/113 93/135/113 88/136/113
f 85/137/114 91/138/114 86/139/114
f 89/140/115 93/135/115 94/141/115
f 86/139/116 92/142/116 87/134/116
f 90/143/117 113/144/117 91/145/117
f 93/146/118 97/147/118 94/148/118
f 91/145/119 95/149/119 92/150/119
f 85/151/120 112/152/120 90/143/120
f 92/150/121 96/153/121 93/146/121
f 97/147/122 100/154/122 101/131/122
f 114/155/123 126/156/123 122/157/123
f 95/149/124 100/154/124 96/153/124
f 112/158/125 125/159/125 123/160/125
f 100/154/126 106/161/126 101/131/126
f 103/162/127 119/163/127 102/164/127
f 99/165/128 105/166/128 100/154/128
f 104/167/129 118/168/129 120/169/129
f 106/161/130 110/170/130 111/132/130
f 103/171/131 109/172/131 104/173/131
f 85/151/120 102/174/120 98/175/120
f 104/173/132 110/170/132 105/166/132
f 102/174/133 108/176/133 103/171/133
f 111/177/134 88/136/134 89/140/134
f 108/178/135 87/134/135 109/179/135
f 109/179/136 88/136/136 110/180/136
f 107/181/137 86/139/137 108/178/137
f 97/147/112 89/133/112 94/148/112
f 115/182/138 120/169/138 118/168/138
f 115/182/139 119/163/139 116/183/139
f 114/184/140 117/185/140 115/182/140
f 102/164/141 117/185/141 98/186/141
f 103/162/142 120/169/142 116/183/142
f 114/184/143 118/168/143 99/187/143
f 121/188/144 126/156/144 124/189/144
f 121/188/145 125/159/145 122/157/145
f 113/190/146 124/189/146 95/191/146
f 95/191/147 126/156/147 99/192/147
f 114/155/148 125/159/148 98/193/148
f 113/190/149 123/160/149 121/188/149
f 101/131/112 106/161/112 111/132/112
f 87/134/113 92/142/113 93/135/113
f 85/137/114 90/194/114 91/138/114
f 89/140/115 88/136/115 93/135/115
f 86/139/116 91/138/116 92/142/116
f 90/143/150 112/152/150 113/144/150
f 93/146/118 96/153/118 97/147/118
f 91/145/119 113/144/119 95/149/119
f 85/151/120 98/175/120 112/152/120
f 92/150/121 95/149/121 96/153/121
f 97/147/151 96/153/151 100/154/151
f 114/155/152 99/192/152 126/156/152
f 95/149/124 99/165/124 100/154/124
f 112/158/125 98/193/125 125/159/125
f 100/154/153 105/166/153 106/161/153
f 103/162/154 116/183/154 119/163/154
f 99/165/128 104/173/128 105/166/128
f 104/167/129 99/187/129 118/168/129
f 106/161/130 105/166/130 110/170/130
f 103/171/131 108/176/131 109/172/131
f 85/151/120 107/195/120 102/174/120
f 104/173/132 109/172/132 110/170/132
f 102/174/133 107/195/133 108/176/133
f 111/177/134 110/180/134 88/136/134
f 108/178/135 86/139/135 87/134/135
f 109/179/136 87/134/136 88/136/136
f 107/181/155 85/137/155 86/139/155
f 97/147/112 101/131/112 89/133/112
f 115/182/156 116/183/156 120/169/156
f 115/182/157 117/185/157 119/163/157
f 114/184/158 98/186/158 117/185/158
f 102/164/159 119/163/159 117/185/159
f 103/162/160 104/167/160 120/169/160
f 114/184/161 115/182/161 118/168/161
f 121/188/144 122/157/144 126/156/144
f 121/188/162 123/160/162 125/159/162
f 113/190/163 121/188/163 124/189/163
f 95/191/164 124/189/164 126/156/164
f 114/155/165 122/157/165 125/159/165
f 113/190/166 112/158/166 123/160/166
