# Blender v2.81 (sub 16) OBJ File: 'garbage.blend'
# www.blender.org
v -2.002257 2.896363 -1.726999
v -1.988508 2.871472 -1.723397
v -1.989131 2.842961 -1.720511
v -2.003958 2.818470 -1.719112
v -2.029017 2.804562 -1.719577
v -2.017309 2.902562 -1.704603
v -2.014580 2.882207 -1.684607
v -2.019236 2.855357 -1.675719
v -2.030030 2.829206 -1.680322
v -2.044070 2.810760 -1.697181
v -2.072248 2.870361 -1.681273
v -2.075939 2.842200 -1.685132
v -2.070575 2.818262 -1.699958
v -2.055269 2.911367 -1.732553
v -2.095155 2.872968 -1.731619
v -2.095778 2.844457 -1.728732
v -2.082029 2.819566 -1.725131
v -2.040217 2.905169 -1.754949
v -2.054256 2.886723 -1.771808
v -2.065051 2.860572 -1.776411
v -2.069707 2.833722 -1.767523
v -2.066977 2.813367 -1.747527
v -2.013711 2.897667 -1.752172
v -2.008347 2.873729 -1.766998
v -2.012038 2.845568 -1.770856
v -2.023797 2.820728 -1.762713
v -2.040471 2.805865 -1.744750
v -2.043815 2.910064 -1.707380
v -2.060489 2.895201 -1.689417
v -2.080328 2.897459 -1.733018
v -2.095069 2.918875 -1.776076
v -2.092942 2.917999 -1.779241
v -2.068120 2.919440 -1.752067
v -2.098809 2.888207 -1.759380
v -2.060669 2.916372 -1.763152
v -2.087252 2.883448 -1.776576
v -2.097589 2.926314 -1.691055
v -2.102284 2.926848 -1.701375
v -2.081816 2.926322 -1.701110
v -2.096579 2.903627 -1.695099
v -2.083968 2.926567 -1.705839
v -2.098737 2.903873 -1.699842
vt 0.274240 0.539347
vt 0.265397 0.539709
vt 0.266768 0.532487
vt 0.231414 0.551290
vt 0.214659 0.541092
vt 0.231357 0.542861
vt 0.231940 0.569242
vt 0.215985 0.562822
vt 0.231472 0.559719
vt 0.230890 0.533338
vt 0.220414 0.530957
vt 0.213134 0.552274
vt 0.289666 0.544440
vt 0.282983 0.540904
vt 0.290637 0.536818
vt 0.279682 0.529141
vt 0.275518 0.536619
vt 0.273707 0.532162
vt 0.280945 0.538772
vt 0.286431 0.530872
vt 0.290637 0.551375
vt 0.284312 0.543753
vt 0.278488 0.537315
vt 0.276318 0.541045
vt 0.804698 0.251197
vt 0.792375 0.255919
vt 0.792638 0.252041
vt 0.786357 0.239035
vt 0.792578 0.249274
vt 0.791489 0.249454
vt 0.271776 0.541127
vt 0.760733 0.199751
vt 0.757502 0.209505
vt 0.750621 0.206121
vt 0.278108 0.542645
vt 0.273009 0.544115
vt 0.772804 0.201934
vt 0.766718 0.213101
vt 0.766203 0.208706
vt 0.264007 0.548518
vt 0.277612 0.547903
vt 0.268747 0.555467
vt 0.275021 0.546378
vt 0.280714 0.548498
vt 0.281954 0.545638
vt 0.276612 0.557409
vt 0.240880 0.530957
vt 0.248168 0.561486
vt 0.249693 0.550306
vt 0.246843 0.539760
vt 0.242415 0.571620
vt 0.762287 0.211045
vt 0.762255 0.210544
vt 0.761023 0.221925
vt 0.757316 0.212491
vt 0.750922 0.216572
vt 0.772804 0.220841
vt 0.791613 0.252007
vt 0.791097 0.255536
vt 0.780068 0.250772
vt 0.780487 0.263708
vt 0.804698 0.264828
vt 0.798786 0.238814
vt 0.221949 0.571626
vt 0.283377 0.553479
vn -0.2790 -0.9572 0.0774
vn 0.7080 -0.3952 0.5853
vn 0.7810 0.4878 0.3899
vn 0.4157 -0.7654 0.4912
vn 0.8342 0.0375 0.5503
vn 0.1259 0.7038 0.6992
vn -0.2394 -0.5495 0.8005
vn -0.0100 0.3158 0.9488
vn 0.2790 0.9572 -0.0774
vn -0.1362 -0.1169 0.9838
vn -0.8378 -0.4106 0.3599
vn -0.8756 -0.1655 -0.4539
vn -0.9072 0.0619 0.4160
vn 0.3733 0.9196 -0.1222
vn -0.7810 -0.4878 -0.3899
vn 0.5048 0.3407 -0.7932
vn -0.8341 -0.0375 -0.5503
vn -0.6885 -0.6702 -0.2773
vn -0.1259 -0.7038 -0.6992
vn 0.1362 0.1169 -0.9838
vn 0.0100 -0.3158 -0.9488
vn 0.2394 0.5495 -0.8005
vn 0.4724 -0.8426 -0.2586
vn 0.9072 -0.0619 -0.4160
vn 0.7811 -0.4946 -0.3810
vn 0.8378 0.4107 -0.3599
vn -0.8388 -0.1778 -0.5146
vn 0.1375 0.9745 -0.1773
vn -0.4754 0.7120 0.5168
vn 0.4596 0.8858 0.0637
vn 0.1479 -0.0518 -0.9876
vn -0.7833 0.4956 0.3752
vn -0.9066 -0.1128 0.4066
vn 0.0251 0.9989 0.0403
vn -0.0683 0.3399 0.9380
vn -0.8195 -0.4542 0.3494
vn -0.3317 0.6213 -0.7099
vn 0.4432 0.5652 0.6958
vn 0.7080 -0.3952 0.5852
vn 0.8341 0.0375 0.5503
vn -0.8378 -0.4107 0.3599
vn -0.7530 0.4273 -0.5004
vn 0.4335 0.3377 -0.8355
vn -0.6885 -0.6702 -0.2772
vn 0.2394 0.5494 -0.8005
vn 0.7811 -0.4947 -0.3810
vn 0.8378 0.4106 -0.3599
vn -0.8388 -0.1778 -0.5145
vn -0.4083 0.7167 0.5654
vn 0.4596 0.8858 0.0638
vn 0.1304 0.1194 -0.9842
vn -0.8208 0.3471 0.4536
vn -0.9066 -0.1129 0.4067
vn 0.0251 0.9989 0.0402
vn -0.1940 -0.1805 0.9643
vn -0.1680 0.6615 -0.7309
vn 0.3545 0.5319 0.7691
s off
f 17/1/1 27/2/1 5/3/1
f 3/4/2 9/5/2 4/6/2
f 1/7/3 7/8/3 2/9/3
f 5/10/4 9/5/4 10/11/4
f 2/9/5 8/12/5 3/4/5
f 6/13/6 29/14/6 7/15/6
f 9/16/7 13/17/7 10/18/7
f 7/15/8 11/19/8 8/20/8
f 1/21/9 28/22/9 6/13/9
f 8/20/10 12/23/10 9/16/10
f 13/17/11 16/24/11 17/1/11
f 30/25/12 42/26/12 38/27/12
f 11/19/13 16/24/13 12/23/13
f 28/28/14 41/29/14 39/30/14
f 16/24/15 22/31/15 17/1/15
f 19/32/16 35/33/16 18/34/16
f 15/35/17 21/36/17 16/24/17
f 20/37/18 34/38/18 36/39/18
f 22/31/19 26/40/19 27/2/19
f 19/41/20 25/42/20 20/43/20
f 1/21/9 18/44/9 14/45/9
f 20/43/21 26/40/21 21/36/21
f 18/44/22 24/46/22 19/41/22
f 27/47/23 4/6/23 5/10/23
f 24/48/24 3/4/24 25/49/24
f 25/49/25 4/6/25 26/50/25
f 23/51/26 2/9/26 24/48/26
f 13/17/1 5/3/1 10/18/1
f 31/52/27 36/39/27 34/38/27
f 31/52/28 35/33/28 32/53/28
f 30/54/29 33/55/29 31/52/29
f 18/34/30 33/55/30 14/56/30
f 19/32/31 36/39/31 32/53/31
f 30/54/32 34/38/32 15/57/32
f 37/58/33 42/26/33 40/59/33
f 37/58/34 41/29/34 38/27/34
f 29/60/35 40/59/35 11/61/35
f 11/61/36 42/26/36 15/62/36
f 30/25/37 41/29/37 14/63/37
f 29/60/38 39/30/38 37/58/38
f 17/1/1 22/31/1 27/2/1
f 3/4/39 8/12/39 9/5/39
f 1/7/3 6/64/3 7/8/3
f 5/10/4 4/6/4 9/5/4
f 2/9/40 7/8/40 8/12/40
f 6/13/6 28/22/6 29/14/6
f 9/16/7 12/23/7 13/17/7
f 7/15/8 29/14/8 11/19/8
f 1/21/9 14/45/9 28/22/9
f 8/20/10 11/19/10 12/23/10
f 13/17/41 12/23/41 16/24/41
f 30/25/42 15/62/42 42/26/42
f 11/19/13 15/35/13 16/24/13
f 28/28/14 14/63/14 41/29/14
f 16/24/15 21/36/15 22/31/15
f 19/32/43 32/53/43 35/33/43
f 15/35/17 20/43/17 21/36/17
f 20/37/44 15/57/44 34/38/44
f 22/31/19 21/36/19 26/40/19
f 19/41/20 24/46/20 25/42/20
f 1/21/9 23/65/9 18/44/9
f 20/43/21 25/42/21 26/40/21
f 18/44/45 23/65/45 24/46/45
f 27/47/23 26/50/23 4/6/23
f 24/48/24 2/9/24 3/4/24
f 25/49/46 3/4/46 4/6/46
f 23/51/47 1/7/47 2/9/47
f 13/17/1 17/1/1 5/3/1
f 31/52/48 32/53/48 36/39/48
f 31/52/28 33/55/28 35/33/28
f 30/54/49 14/56/49 33/55/49
f 18/34/50 35/33/50 33/55/50
f 19/32/51 20/37/51 36/39/51
f 30/54/52 31/52/52 34/38/52
f 37/58/53 38/27/53 42/26/53
f 37/58/54 39/30/54 41/29/54
f 29/60/55 37/58/55 40/59/55
f 11/61/36 40/59/36 42/26/36
f 30/25/56 38/27/56 41/29/56
f 29/60/57 28/28/57 39/30/57
v -3.829893 2.980793 -3.384922
v -3.830688 2.957808 -3.402030
v -3.826170 2.929814 -3.406220
v -3.817551 2.904313 -3.396371
v -3.807139 2.888137 -3.375121
v -3.803736 2.987823 -3.379182
v -3.785383 2.969985 -3.392087
v -3.773856 2.943876 -3.394740
v -3.772246 2.916491 -3.386429
v -3.780982 2.895168 -3.369381
v -3.758549 2.953177 -3.342343
v -3.758989 2.924546 -3.341052
v -3.773329 2.899819 -3.343183
v -3.814586 2.990094 -3.332526
v -3.795555 2.948417 -3.301427
v -3.791037 2.920424 -3.305617
v -3.791832 2.897439 -3.322725
v -3.840743 2.983063 -3.338266
v -3.849479 2.961741 -3.321218
v -3.847869 2.934356 -3.312907
v -3.836342 2.908247 -3.315560
v -3.817989 2.890408 -3.328465
v -3.848396 2.978413 -3.364464
v -3.862736 2.953686 -3.366595
v -3.863176 2.925054 -3.365304
v -3.849599 2.900191 -3.360937
v -3.825642 2.885757 -3.354663
v -3.796083 2.992474 -3.352984
v -3.772126 2.978040 -3.346710
v -3.804174 2.973918 -3.311276
v -3.838864 2.989302 -3.278261
v -3.842561 2.988308 -3.279073
v -3.827741 2.994869 -3.312149
v -3.820347 2.960302 -3.285291
v -3.840688 2.991389 -3.314990
v -3.840430 2.954904 -3.289698
v -3.760535 3.005192 -3.308299
v -3.768120 3.004217 -3.299912
v -3.776050 3.005647 -3.318736
v -3.763341 2.982406 -3.310524
v -3.779526 3.005200 -3.314893
v -3.766828 2.981957 -3.306669
vt 0.274240 0.539347
vt 0.265397 0.539709
vt 0.266768 0.532487
vt 0.231414 0.551290
vt 0.214659 0.541092
vt 0.231357 0.542861
vt 0.231940 0.569242
vt 0.215985 0.562822
vt 0.231472 0.559719
vt 0.230890 0.533338
vt 0.220414 0.530957
vt 0.213134 0.552274
vt 0.289666 0.544440
vt 0.282983 0.540904
vt 0.290637 0.536818
vt 0.279682 0.529141
vt 0.275518 0.536619
vt 0.273707 0.532162
vt 0.280945 0.538772
vt 0.286431 0.530872
vt 0.290637 0.551375
vt 0.284312 0.543753
vt 0.278488 0.537315
vt 0.276318 0.541045
vt 0.804698 0.251197
vt 0.792375 0.255919
vt 0.792638 0.252041
vt 0.786357 0.239035
vt 0.792578 0.249274
vt 0.791489 0.249454
vt 0.271776 0.541127
vt 0.760733 0.199751
vt 0.757502 0.209505
vt 0.750621 0.206121
vt 0.278108 0.542645
vt 0.273009 0.544115
vt 0.772804 0.201934
vt 0.766718 0.213101
vt 0.766203 0.208706
vt 0.264007 0.548518
vt 0.277612 0.547903
vt 0.268747 0.555467
vt 0.275021 0.546378
vt 0.280714 0.548498
vt 0.281954 0.545638
vt 0.276612 0.557409
vt 0.240880 0.530957
vt 0.248168 0.561486
vt 0.249693 0.550306
vt 0.246843 0.539760
vt 0.242415 0.571620
vt 0.762287 0.211045
vt 0.762255 0.210544
vt 0.761023 0.221925
vt 0.757316 0.212491
vt 0.750922 0.216572
vt 0.772804 0.220841
vt 0.791613 0.252007
vt 0.791097 0.255536
vt 0.780068 0.250772
vt 0.780487 0.263708
vt 0.804698 0.264828
vt 0.798786 0.238814
vt 0.221949 0.571626
vt 0.283377 0.553479
vn 0.2372 -0.9661 0.1022
vn 0.2740 -0.2645 -0.9246
vn 0.0157 0.5966 -0.8024
vn 0.3263 -0.6682 -0.6686
vn 0.1668 0.1722 -0.9708
vn 0.5487 0.7808 -0.2989
vn 0.8593 -0.4841 -0.1651
vn 0.8536 0.4095 -0.3221
vn -0.2372 0.9661 -0.1022
vn 0.9608 -0.0272 -0.2759
vn 0.6883 -0.4483 0.5704
vn -0.0547 -0.2929 0.9546
vn 0.7404 0.0189 0.6719
vn -0.3139 0.9331 -0.1753
vn -0.0157 -0.5966 0.8023
vn -0.9470 0.3031 -0.1062
vn -0.1668 -0.1723 0.9708
vn 0.0606 -0.7569 0.6507
vn -0.5487 -0.7808 0.2989
vn -0.9608 0.0272 0.2759
vn -0.8536 -0.4095 0.3221
vn -0.8593 0.4841 0.1651
vn -0.3777 -0.8166 -0.4366
vn -0.7404 -0.0189 -0.6719
vn -0.6332 -0.4557 -0.6257
vn -0.6883 0.4483 -0.5704
vn -0.1242 -0.3080 0.9433
vn -0.2729 0.9596 0.0681
vn 0.6224 0.7136 0.3215
vn -0.1765 0.9269 -0.3311
vn -0.9594 -0.1392 0.2453
vn 0.6286 0.4558 0.6301
vn 0.7417 -0.1551 0.6526
vn -0.0303 0.9956 0.0884
vn 0.8657 0.4268 -0.2616
vn 0.6738 -0.4908 0.5523
vn -0.5517 0.5109 0.6592
vn 0.4263 0.6730 -0.6044
vn 0.1667 0.1722 -0.9708
vn -0.1803 0.3008 0.9365
vn -0.0157 -0.5966 0.8024
vn -0.9570 0.2890 -0.0251
vn -0.1668 -0.1722 0.9708
vn 0.0607 -0.7569 0.6507
vn -0.3776 -0.8166 -0.4366
vn -0.1243 -0.3079 0.9433
vn 0.6396 0.7296 0.2420
vn -0.9591 0.0291 0.2817
vn 0.7239 0.3132 0.6147
vn 0.7416 -0.1551 0.6527
vn 0.9698 -0.0976 -0.2236
vn -0.6388 0.5639 0.5234
vn 0.5308 0.6392 -0.5564
s off
f 59/66/58 69/67/58 47/68/58
f 45/69/59 51/70/59 46/71/59
f 43/72/60 49/73/60 44/74/60
f 47/75/61 51/70/61 52/76/61
f 44/74/62 50/77/62 45/69/62
f 48/78/63 71/79/63 49/80/63
f 51/81/64 55/82/64 52/83/64
f 49/80/65 53/84/65 50/85/65
f 43/86/66 70/87/66 48/78/66
f 50/85/67 54/88/67 51/81/67
f 55/82/68 58/89/68 59/66/68
f 72/90/69 84/91/69 80/92/69
f 53/84/70 58/89/70 54/88/70
f 70/93/71 83/94/71 81/95/71
f 58/89/72 64/96/72 59/66/72
f 61/97/73 77/98/73 60/99/73
f 57/100/74 63/101/74 58/89/74
f 62/102/75 76/103/75 78/104/75
f 64/96/76 68/105/76 69/67/76
f 61/106/77 67/107/77 62/108/77
f 43/86/66 60/109/66 56/110/66
f 62/108/78 68/105/78 63/101/78
f 60/109/79 66/111/79 61/106/79
f 69/112/80 46/71/80 47/75/80
f 66/113/81 45/69/81 67/114/81
f 67/114/82 46/71/82 68/115/82
f 65/116/83 44/74/83 66/113/83
f 55/82/58 47/68/58 52/83/58
f 73/117/84 78/104/84 76/103/84
f 73/117/85 77/98/85 74/118/85
f 72/119/86 75/120/86 73/117/86
f 60/99/87 75/120/87 56/121/87
f 61/97/88 78/104/88 74/118/88
f 72/119/89 76/103/89 57/122/89
f 79/123/90 84/91/90 82/124/90
f 79/123/91 83/94/91 80/92/91
f 71/125/92 82/124/92 53/126/92
f 53/126/93 84/91/93 57/127/93
f 72/90/94 83/94/94 56/128/94
f 71/125/95 81/95/95 79/123/95
f 59/66/58 64/96/58 69/67/58
f 45/69/59 50/77/59 51/70/59
f 43/72/60 48/129/60 49/73/60
f 47/75/61 46/71/61 51/70/61
f 44/74/96 49/73/96 50/77/96
f 48/78/63 70/87/63 71/79/63
f 51/81/64 54/88/64 55/82/64
f 49/80/65 71/79/65 53/84/65
f 43/86/66 56/110/66 70/87/66
f 50/85/67 53/84/67 54/88/67
f 55/82/68 54/88/68 58/89/68
f 72/90/97 57/127/97 84/91/97
f 53/84/70 57/100/70 58/89/70
f 70/93/71 56/128/71 83/94/71
f 58/89/98 63/101/98 64/96/98
f 61/97/99 74/118/99 77/98/99
f 57/100/100 62/108/100 63/101/100
f 62/102/101 57/122/101 76/103/101
f 64/96/76 63/101/76 68/105/76
f 61/106/77 66/111/77 67/107/77
f 43/86/66 65/130/66 60/109/66
f 62/108/78 67/107/78 68/105/78
f 60/109/79 65/130/79 66/111/79
f 69/112/102 68/115/102 46/71/102
f 66/113/81 44/74/81 45/69/81
f 67/114/82 45/69/82 46/71/82
f 65/116/83 43/72/83 44/74/83
f 55/82/58 59/66/58 47/68/58
f 73/117/103 74/118/103 78/104/103
f 73/117/85 75/120/85 77/98/85
f 72/119/104 56/121/104 75/120/104
f 60/99/87 77/98/87 75/120/87
f 61/97/105 62/102/105 78/104/105
f 72/119/106 73/117/106 76/103/106
f 79/123/107 80/92/107 84/91/107
f 79/123/91 81/95/91 83/94/91
f 71/125/108 79/123/108 82/124/108
f 53/126/93 82/124/93 84/91/93
f 72/90/109 80/92/109 83/94/109
f 71/125/110 70/93/110 81/95/110
v -0.821660 4.644155 -2.990659
v -0.815857 4.621171 -3.006774
v -0.816489 4.592780 -3.010662
v -0.823387 4.566587 -3.001282
v -0.834702 4.549613 -2.981147
v -0.806017 4.644296 -2.967815
v -0.788763 4.621415 -2.967207
v -0.785203 4.593061 -2.964974
v -0.796292 4.566831 -2.961715
v -0.819059 4.549754 -2.958303
v -0.808587 4.601269 -2.915456
v -0.816543 4.573939 -2.918831
v -0.830750 4.553857 -2.933543
v -0.845044 4.652363 -2.941140
v -0.863256 4.609196 -2.911625
v -0.863888 4.580804 -2.915513
v -0.858085 4.557821 -2.931628
v -0.860687 4.652222 -2.963984
v -0.883453 4.635145 -2.960572
v -0.894542 4.608915 -2.957313
v -0.890982 4.580561 -2.955080
v -0.873728 4.557680 -2.954472
v -0.848995 4.648118 -2.988744
v -0.863202 4.628036 -3.003456
v -0.871158 4.600707 -3.006831
v -0.870732 4.573452 -2.997964
v -0.862036 4.553576 -2.979231
v -0.817709 4.648399 -2.943056
v -0.809013 4.628523 -2.924323
v -0.856359 4.635388 -2.921005
v -0.899239 4.661559 -2.918493
v -0.901450 4.661539 -2.921721
v -0.866965 4.661772 -2.934660
v -0.888556 4.628279 -2.915092
v -0.874708 4.661702 -2.945968
v -0.900566 4.628170 -2.932632
v -0.821098 4.653993 -2.884923
v -0.832304 4.655617 -2.884138
v -0.824441 4.657907 -2.902906
v -0.826874 4.632690 -2.891622
v -0.829577 4.658651 -2.902546
v -0.832025 4.633437 -2.891261
vt 0.274240 0.539347
vt 0.265397 0.539709
vt 0.266768 0.532487
vt 0.231414 0.551290
vt 0.214659 0.541092
vt 0.231357 0.542861
vt 0.231940 0.569242
vt 0.215985 0.562822
vt 0.231472 0.559719
vt 0.230890 0.533338
vt 0.220414 0.530957
vt 0.213134 0.552274
vt 0.289666 0.544440
vt 0.282983 0.540904
vt 0.290637 0.536818
vt 0.279682 0.529141
vt 0.275518 0.536619
vt 0.273707 0.532162
vt 0.280945 0.538772
vt 0.286431 0.530872
vt 0.290637 0.551375
vt 0.284312 0.543753
vt 0.278488 0.537315
vt 0.276318 0.541045
vt 0.804698 0.251197
vt 0.792375 0.255919
vt 0.792638 0.252041
vt 0.786357 0.239035
vt 0.792578 0.249274
vt 0.791489 0.249454
vt 0.271776 0.541127
vt 0.760733 0.199751
vt 0.757502 0.209505
vt 0.750621 0.206121
vt 0.278108 0.542645
vt 0.273009 0.544115
vt 0.772804 0.201934
vt 0.766718 0.213101
vt 0.766203 0.208706
vt 0.264007 0.548518
vt 0.277612 0.547903
vt 0.268747 0.555467
vt 0.275021 0.546378
vt 0.280714 0.548498
vt 0.281954 0.545638
vt 0.276612 0.557409
vt 0.240880 0.530957
vt 0.248168 0.561486
vt 0.249693 0.550306
vt 0.246843 0.539760
vt 0.242415 0.571620
vt 0.762287 0.211045
vt 0.762255 0.210544
vt 0.761023 0.221925
vt 0.757316 0.212491
vt 0.750922 0.216572
vt 0.772804 0.220841
vt 0.791613 0.252007
vt 0.791097 0.255536
vt 0.780068 0.250772
vt 0.780487 0.263708
vt 0.804698 0.264828
vt 0.798786 0.238814
vt 0.221949 0.571626
vt 0.283377 0.553479
vn -0.1360 -0.9857 0.0992
vn 0.7620 -0.3867 -0.5194
vn 0.7042 0.5181 -0.4854
vn 0.5262 -0.7725 -0.3555
vn 0.8235 0.0589 -0.5643
vn 0.7665 0.5851 0.2650
vn 0.5884 -0.7056 0.3948
vn 0.9037 0.1452 0.4027
vn 0.1360 0.9857 -0.0992
vn 0.8423 -0.3005 0.4475
vn -0.0268 -0.5784 0.8153
vn -0.7640 -0.2060 0.6115
vn 0.0495 -0.1366 0.9894
vn 0.1260 0.9699 -0.2085
vn -0.7042 -0.5181 0.4854
vn -0.5045 0.5376 -0.6756
vn -0.8235 -0.0589 0.5643
vn -0.5853 -0.7024 0.4051
vn -0.7665 -0.5851 -0.2650
vn -0.8423 0.3005 -0.4475
vn -0.9037 -0.1452 -0.4027
vn -0.5885 0.7056 -0.3948
vn -0.1513 -0.7122 -0.6854
vn -0.0495 0.1366 -0.9894
vn -0.1110 -0.3090 -0.9445
vn 0.0267 0.5784 -0.8153
vn -0.8074 -0.2026 0.5541
vn -0.0071 1.0000 -0.0013
vn 0.3740 0.5404 0.7537
vn 0.3260 0.9172 -0.2289
vn -0.8596 0.1381 -0.4920
vn 0.1049 0.3107 0.9447
vn 0.0225 -0.3054 0.9520
vn 0.1536 0.9711 0.1828
vn 0.8745 0.1624 0.4570
vn -0.0343 -0.6166 0.7865
vn -0.7114 0.6808 0.1742
vn 0.8675 0.4946 -0.0537
vn 0.5262 -0.7725 -0.3556
vn 0.5885 -0.7056 0.3948
vn 0.8423 -0.3005 0.4476
vn -0.0267 -0.5784 0.8153
vn -0.6973 0.3973 0.5966
vn -0.5706 0.5319 -0.6257
vn -0.1110 -0.3090 -0.9446
vn 0.0268 0.5784 -0.8153
vn -0.8074 -0.2026 0.5542
vn -0.0072 1.0000 -0.0011
vn 0.4443 0.5462 0.7101
vn 0.3260 0.9172 -0.2288
vn -0.8446 0.3022 -0.4419
vn 0.1471 0.1472 0.9781
vn 0.0224 -0.3054 0.9520
vn 0.7958 -0.3672 0.4815
vn -0.0343 -0.6166 0.7866
vn -0.6651 0.7463 0.0245
vn 0.8981 0.4373 0.0470
s off
f 101/131/111 111/132/111 89/133/111
f 87/134/112 93/135/112 88/136/112
f 85/137/113 91/138/113 86/139/113
f 89/140/114 93/135/114 94/141/114
f 86/139/115 92/142/115 87/134/115
f 90/143/116 113/144/116 91/145/116
f 93/146/117 97/147/117 94/148/117
f 91/145/118 95/149/118 92/150/118
f 85/151/119 112/152/119 90/143/119
f 92/150/120 96/153/120 93/146/120
f 97/147/121 100/154/121 101/131/121
f 114/155/122 126/156/122 122/157/122
f 95/149/123 100/154/123 96/153/123
f 112/158/124 125/159/124 123/160/124
f 100/154/125 106/161/125 101/131/125
f 103/162/126 119/163/126 102/164/126
f 99/165/127 105/166/127 100/154/127
f 104/167/128 118/168/128 120/169/128
f 106/161/129 110/170/129 111/132/129
f 103/171/130 109/172/130 104/173/130
f 85/151/119 102/174/119 98/175/119
f 104/173/131 110/170/131 105/166/131
f 102/174/132 108/176/132 103/171/132
f 111/177/133 88/136/133 89/140/133
f 108/178/134 87/134/134 109/179/134
f 109/179/135 88/136/135 110/180/135
f 107/181/136 86/139/136 108/178/136
f 97/147/111 89/133/111 94/148/111
f 115/182/137 120/169/137 118/168/137
f 115/182/138 119/163/138 116/183/138
f 114/184/139 117/185/139 115/182/139
f 102/164/140 117/185/140 98/186/140
f 103/162/141 120/169/141 116/183/141
f 114/184/142 118/168/142 99/187/142
f 121/188/143 126/156/143 124/189/143
f 121/188/144 125/159/144 122/157/144
f 113/190/145 124/189/145 95/191/145
f 95/191/146 126/156/146 99/192/146
f 114/155/147 125/159/147 98/193/147
f 113/190/148 123/160/148 121/188/148
f 101/131/111 106/161/111 111/132/111
f 87/134/112 92/142/112 93/135/112
f 85/137/113 90/194/113 91/138/113
f 89/140/149 88/136/149 93/135/149
f 86/139/115 91/138/115 92/142/115
f 90/143/116 112/152/116 113/144/116
f 93/146/150 96/153/150 97/147/150
f 91/145/118 113/144/118 95/149/118
f 85/151/119 98/175/119 112/152/119
f 92/150/151 95/149/151 96/153/151
f 97/147/152 96/153/152 100/154/152
f 114/155/153 99/192/153 126/156/153
f 95/149/123 99/165/123 100/154/123
f 112/158/124 98/193/124 125/159/124
f 100/154/125 105/166/125 106/161/125
f 103/162/154 116/183/154 119/163/154
f 99/165/127 104/173/127 105/166/127
f 104/167/128 99/187/128 118/168/128
f 106/161/129 105/166/129 110/170/129
f 103/171/130 108/176/130 109/172/130
f 85/151/119 107/195/119 102/174/119
f 104/173/131 109/172/131 110/170/131
f 102/174/132 107/195/132 108/176/132
f 111/177/133 110/180/133 88/136/133
f 108/178/134 86/139/134 87/134/134
f 109/179/155 87/134/155 88/136/155
f 107/181/156 85/137/156 86/139/156
f 97/147/111 101/131/111 89/133/111
f 115/182/157 116/183/157 120/169/157
f 115/182/158 117/185/158 119/163/158
f 114/184/159 98/186/159 117/185/159
f 102/164/160 119/163/160 117/185/160
f 103/162/161 104/167/161 120/169/161
f 114/184/162 115/182/162 118/168/162
f 121/188/163 122/157/163 126/156/163
f 121/188/144 123/160/144 125/159/144
f 113/190/164 121/188/164 124/189/164
f 95/191/165 124/189/165 126/156/165
f 114/155/166 122/157/166 125/159/166
f 113/190/167 112/158/167 123/160/167
