# Blender v2.81 (sub 16) OBJ File: 'garbage.blend'
# www.blender.org
v -3.294495 2.647941 0.600283
v -3.279614 2.631741 0.581906
v -3.271786 2.605888 0.572317
v -3.273109 2.577310 0.574084
v -3.283228 2.553663 0.586734
v -3.284371 2.645464 0.625933
v -3.262078 2.627452 0.626334
v -3.251537 2.600935 0.623617
v -3.255573 2.573020 0.618511
v -3.273104 2.551187 0.612384
v -3.285690 2.590763 0.666001
v -3.285150 2.564211 0.655216
v -3.290180 2.546100 0.633576
v -3.328648 2.637768 0.642667
v -3.340091 2.585543 0.657084
v -3.332263 2.559690 0.647494
v -3.317381 2.543490 0.629118
v -3.338772 2.640244 0.617016
v -3.356304 2.618411 0.610890
v -3.360339 2.590496 0.605784
v -3.349799 2.563979 0.603067
v -3.327505 2.545967 0.603468
v -3.321696 2.645331 0.595825
v -3.326726 2.627220 0.574184
v -3.326187 2.600668 0.563400
v -3.320222 2.572789 0.566362
v -3.310429 2.551053 0.582276
v -3.301447 2.640378 0.647125
v -3.291655 2.618642 0.663039
v -3.338768 2.614121 0.655317
v -3.386712 2.628941 0.651902
v -3.388143 2.629291 0.648277
v -3.353130 2.640253 0.645023
v -3.368368 2.599005 0.651132
v -3.358141 2.641478 0.632327
v -3.376141 2.600907 0.631438
v -3.317785 2.629772 0.702286
v -3.328936 2.628702 0.700459
v -3.318388 2.637428 0.685231
v -3.316149 2.610227 0.690148
v -3.323499 2.636938 0.684393
v -3.321275 2.609735 0.689308
vt 0.274240 0.539347
vt 0.265397 0.539709
vt 0.266768 0.532487
vt 0.231414 0.551290
vt 0.214659 0.541092
vt 0.231357 0.542861
vt 0.231940 0.569242
vt 0.215985 0.562822
vt 0.231472 0.559719
vt 0.230890 0.533338
vt 0.220414 0.530957
vt 0.213134 0.552274
vt 0.289666 0.544440
vt 0.282983 0.540904
vt 0.290637 0.536818
vt 0.279682 0.529141
vt 0.275518 0.536619
vt 0.273707 0.532162
vt 0.280945 0.538772
vt 0.286431 0.530872
vt 0.290637 0.551375
vt 0.284312 0.543753
vt 0.278488 0.537315
vt 0.276318 0.541045
vt 0.804698 0.251197
vt 0.792375 0.255919
vt 0.792638 0.252041
vt 0.786357 0.239035
vt 0.792578 0.249274
vt 0.791489 0.249454
vt 0.271776 0.541127
vt 0.760733 0.199751
vt 0.757502 0.209505
vt 0.750621 0.206121
vt 0.278108 0.542645
vt 0.273009 0.544115
vt 0.772804 0.201934
vt 0.766718 0.213101
vt 0.766203 0.208706
vt 0.264007 0.548518
vt 0.277612 0.547903
vt 0.268747 0.555467
vt 0.275021 0.546378
vt 0.280714 0.548498
vt 0.281954 0.545638
vt 0.276612 0.557409
vt 0.240880 0.530957
vt 0.248168 0.561486
vt 0.249693 0.550306
vt 0.246843 0.539760
vt 0.242415 0.571620
vt 0.762287 0.211045
vt 0.762255 0.210544
vt 0.761023 0.221925
vt 0.757316 0.212491
vt 0.750922 0.216572
vt 0.772804 0.220841
vt 0.791613 0.252007
vt 0.791097 0.255536
vt 0.780068 0.250772
vt 0.780487 0.263708
vt 0.804698 0.264828
vt 0.798786 0.238814
vt 0.221949 0.571626
vt 0.283377 0.553479
vn 0.1175 -0.9830 -0.1413
vn 0.9260 -0.0659 -0.3718
vn 0.6211 0.7648 -0.1713
vn 0.7749 -0.5222 -0.3562
vn 0.8728 0.3785 -0.3080
vn 0.5115 0.6456 0.5671
vn 0.6653 -0.6414 0.3821
vn 0.7316 0.2249 0.6435
vn -0.1175 0.9830 0.1413
vn 0.7847 -0.2195 0.5797
vn -0.0327 -0.7627 0.6459
vn -0.7866 -0.5166 0.3382
vn -0.1147 -0.3758 0.9196
vn -0.1007 0.9944 0.0322
vn -0.6211 -0.7648 0.1713
vn -0.4848 0.5744 -0.6596
vn -0.8728 -0.3785 0.3080
vn -0.4434 -0.8919 0.0889
vn -0.5115 -0.6456 -0.5671
vn -0.7847 0.2195 -0.5797
vn -0.7316 -0.2249 -0.6435
vn -0.6653 0.6414 -0.3821
vn 0.1865 -0.5243 -0.8309
vn 0.1147 0.3758 -0.9196
vn 0.1678 -0.0686 -0.9834
vn 0.0327 0.7627 -0.6459
vn -0.8170 -0.5077 0.2734
vn -0.2758 0.9403 0.1997
vn 0.0559 0.3924 0.9181
vn 0.1060 0.9929 0.0540
vn -0.7484 0.0745 -0.6590
vn -0.1740 0.0688 0.9823
vn -0.0872 -0.5308 0.8430
vn -0.1534 0.8995 0.4092
vn 0.6886 0.2207 0.6907
vn -0.0238 -0.7928 0.6090
vn -0.8884 0.4436 0.1185
vn 0.6948 0.6650 0.2740
vn 0.9260 -0.0658 -0.3718
vn 0.6210 0.7648 -0.1713
vn 0.7749 -0.5222 -0.3563
vn -0.8833 0.0695 0.4636
vn -0.6210 -0.7648 0.1713
vn -0.5555 0.5419 -0.6307
vn -0.8729 -0.3785 0.3080
vn -0.4433 -0.8919 0.0889
vn -0.1175 0.9830 0.1412
vn -0.8170 -0.5076 0.2735
vn -0.2758 0.9403 0.1996
vn 0.1293 0.4241 0.8963
vn -0.7886 0.2191 -0.5746
vn -0.0969 -0.0848 0.9917
vn -0.1533 0.8995 0.4092
vn 0.7522 -0.3011 0.5862
vn -0.0238 -0.7928 0.6091
vn -0.8324 0.5541 0.0023
vn 0.7189 0.5914 0.3654
s off
f 17/1/1 27/2/1 5/3/1
f 3/4/2 9/5/2 4/6/2
f 1/7/3 7/8/3 2/9/3
f 5/10/4 9/5/4 10/11/4
f 2/9/5 8/12/5 3/4/5
f 6/13/6 29/14/6 7/15/6
f 9/16/7 13/17/7 10/18/7
f 7/15/8 11/19/8 8/20/8
f 1/21/9 28/22/9 6/13/9
f 8/20/10 12/23/10 9/16/10
f 13/17/11 16/24/11 17/1/11
f 30/25/12 42/26/12 38/27/12
f 11/19/13 16/24/13 12/23/13
f 28/28/14 41/29/14 39/30/14
f 16/24/15 22/31/15 17/1/15
f 19/32/16 35/33/16 18/34/16
f 15/35/17 21/36/17 16/24/17
f 20/37/18 34/38/18 36/39/18
f 22/31/19 26/40/19 27/2/19
f 19/41/20 25/42/20 20/43/20
f 1/21/9 18/44/9 14/45/9
f 20/43/21 26/40/21 21/36/21
f 18/44/22 24/46/22 19/41/22
f 27/47/23 4/6/23 5/10/23
f 24/48/24 3/4/24 25/49/24
f 25/49/25 4/6/25 26/50/25
f 23/51/26 2/9/26 24/48/26
f 13/17/1 5/3/1 10/18/1
f 31/52/27 36/39/27 34/38/27
f 31/52/28 35/33/28 32/53/28
f 30/54/29 33/55/29 31/52/29
f 18/34/30 33/55/30 14/56/30
f 19/32/31 36/39/31 32/53/31
f 30/54/32 34/38/32 15/57/32
f 37/58/33 42/26/33 40/59/33
f 37/58/34 41/29/34 38/27/34
f 29/60/35 40/59/35 11/61/35
f 11/61/36 42/26/36 15/62/36
f 30/25/37 41/29/37 14/63/37
f 29/60/38 39/30/38 37/58/38
f 17/1/1 22/31/1 27/2/1
f 3/4/39 8/12/39 9/5/39
f 1/7/40 6/64/40 7/8/40
f 5/10/41 4/6/41 9/5/41
f 2/9/5 7/8/5 8/12/5
f 6/13/6 28/22/6 29/14/6
f 9/16/7 12/23/7 13/17/7
f 7/15/8 29/14/8 11/19/8
f 1/21/9 14/45/9 28/22/9
f 8/20/10 11/19/10 12/23/10
f 13/17/11 12/23/11 16/24/11
f 30/25/42 15/62/42 42/26/42
f 11/19/13 15/35/13 16/24/13
f 28/28/14 14/63/14 41/29/14
f 16/24/43 21/36/43 22/31/43
f 19/32/44 32/53/44 35/33/44
f 15/35/45 20/43/45 21/36/45
f 20/37/46 15/57/46 34/38/46
f 22/31/19 21/36/19 26/40/19
f 19/41/20 24/46/20 25/42/20
f 1/21/47 23/65/47 18/44/47
f 20/43/21 25/42/21 26/40/21
f 18/44/22 23/65/22 24/46/22
f 27/47/23 26/50/23 4/6/23
f 24/48/24 2/9/24 3/4/24
f 25/49/25 3/4/25 4/6/25
f 23/51/26 1/7/26 2/9/26
f 13/17/1 17/1/1 5/3/1
f 31/52/48 32/53/48 36/39/48
f 31/52/49 33/55/49 35/33/49
f 30/54/50 14/56/50 33/55/50
f 18/34/30 35/33/30 33/55/30
f 19/32/51 20/37/51 36/39/51
f 30/54/52 31/52/52 34/38/52
f 37/58/33 38/27/33 42/26/33
f 37/58/53 39/30/53 41/29/53
f 29/60/54 37/58/54 40/59/54
f 11/61/55 40/59/55 42/26/55
f 30/25/56 38/27/56 41/29/56
f 29/60/57 28/28/57 39/30/57
v -1.928091 3.724288 0.904464
v -1.939885 3.698212 0.902863
v -1.937878 3.669813 0.906188
v -1.922606 3.646700 0.913548
v -1.898164 3.635066 0.922971
v -1.908001 3.727118 0.885623
v -1.905089 3.703115 0.870230
v -1.897698 3.675474 0.868507
v -1.887810 3.651603 0.880916
v -1.878074 3.637896 0.904131
v -1.848198 3.695202 0.883567
v -1.844941 3.668687 0.893958
v -1.853324 3.647760 0.911661
v -1.878591 3.744015 0.919523
v -1.838877 3.709268 0.936307
v -1.836869 3.680869 0.939632
v -1.848663 3.654794 0.938031
v -1.898680 3.741185 0.938363
v -1.888944 3.727479 0.961579
v -1.879056 3.703607 0.973987
v -1.871666 3.675967 0.972264
v -1.868753 3.651963 0.956871
v -1.923431 3.731321 0.930834
v -1.931813 3.710394 0.948537
v -1.928557 3.683880 0.958928
v -1.914534 3.658882 0.959222
v -1.893503 3.642099 0.949341
v -1.883251 3.736982 0.893153
v -1.862220 3.720199 0.883272
v -1.854148 3.732381 0.928946
v -1.851320 3.762812 0.968896
v -1.854159 3.762412 0.971558
v -1.871304 3.756672 0.939468
v -1.842744 3.729849 0.960342
v -1.881248 3.755270 0.948794
v -1.858169 3.727676 0.974808
v -1.827495 3.753726 0.887409
v -1.825584 3.756610 0.898220
v -1.845297 3.754510 0.893094
v -1.828961 3.732250 0.895696
v -1.844421 3.755831 0.898049
v -1.828083 3.733576 0.900665
vt 0.274240 0.539347
vt 0.265397 0.539709
vt 0.266768 0.532487
vt 0.231414 0.551290
vt 0.214659 0.541092
vt 0.231357 0.542861
vt 0.231940 0.569242
vt 0.215985 0.562822
vt 0.231472 0.559719
vt 0.230890 0.533338
vt 0.220414 0.530957
vt 0.213134 0.552274
vt 0.289666 0.544440
vt 0.282983 0.540904
vt 0.290637 0.536818
vt 0.279682 0.529141
vt 0.275518 0.536619
vt 0.273707 0.532162
vt 0.280945 0.538772
vt 0.286431 0.530872
vt 0.290637 0.551375
vt 0.284312 0.543753
vt 0.278488 0.537315
vt 0.276318 0.541045
vt 0.804698 0.251197
vt 0.792375 0.255919
vt 0.792638 0.252041
vt 0.786357 0.239035
vt 0.792578 0.249274
vt 0.791489 0.249454
vt 0.271776 0.541127
vt 0.760733 0.199751
vt 0.757502 0.209505
vt 0.750621 0.206121
vt 0.278108 0.542645
vt 0.273009 0.544115
vt 0.772804 0.201934
vt 0.766718 0.213101
vt 0.766203 0.208706
vt 0.264007 0.548518
vt 0.277612 0.547903
vt 0.268747 0.555467
vt 0.275021 0.546378
vt 0.280714 0.548498
vt 0.281954 0.545638
vt 0.276612 0.557409
vt 0.240880 0.530957
vt 0.248168 0.561486
vt 0.249693 0.550306
vt 0.246843 0.539760
vt 0.242415 0.571620
vt 0.762287 0.211045
vt 0.762255 0.210544
vt 0.761023 0.221925
vt 0.757316 0.212491
vt 0.750922 0.216572
vt 0.772804 0.220841
vt 0.791613 0.252007
vt 0.791097 0.255536
vt 0.780068 0.250772
vt 0.780487 0.263708
vt 0.804698 0.264828
vt 0.798786 0.238814
vt 0.221949 0.571626
vt 0.283377 0.553479
vn 0.3120 -0.9303 0.1930
vn -0.5269 -0.5535 -0.6450
vn -0.6679 0.3427 -0.6607
vn -0.2593 -0.8754 -0.4081
vn -0.6680 -0.1329 -0.7322
vn 0.0389 0.5428 -0.8390
vn 0.4475 -0.6753 -0.5863
vn 0.2429 0.1249 -0.9620
vn -0.3120 0.9303 -0.1930
vn 0.3839 -0.2957 -0.8747
vn 0.9111 -0.4089 -0.0520
vn 0.7355 -0.0079 0.6775
vn 0.9814 0.0476 -0.1861
vn -0.4137 0.8952 -0.1657
vn 0.6679 -0.3427 0.6607
vn -0.6974 0.4498 0.5580
vn 0.6679 0.1330 0.7322
vn 0.6113 -0.5499 0.5692
vn -0.0389 -0.5427 0.8390
vn -0.3839 0.2957 0.8747
vn -0.2429 -0.1249 0.9620
vn -0.4475 0.6753 0.5863
vn -0.5026 -0.8091 0.3046
vn -0.9814 -0.0476 0.1861
vn -0.8403 -0.4681 0.2734
vn -0.9111 0.4089 0.0520
vn 0.6848 -0.0109 0.7286
vn -0.2009 0.9773 -0.0676
vn 0.5740 0.6313 -0.5215
vn -0.4492 0.8195 -0.3559
vn -0.3923 0.1305 0.9106
vn 0.8409 0.4704 -0.2675
vn 0.9825 -0.1216 -0.1412
vn -0.0377 0.9672 -0.2513
vn 0.2960 0.1549 -0.9426
vn 0.8918 -0.4508 -0.0374
vn 0.1260 0.7707 0.6246
vn -0.2655 0.3841 -0.8843
vn 0.3120 -0.9303 0.1929
vn -0.6679 0.3426 -0.6607
vn -0.2593 -0.8754 -0.4080
vn -0.6680 -0.1330 -0.7322
vn 0.4475 -0.6752 -0.5863
vn 0.3840 -0.2957 -0.8747
vn 0.5911 0.5717 0.5689
vn 0.6679 -0.3426 0.6607
vn -0.6391 0.4604 0.6161
vn 0.6680 0.1330 0.7322
vn -0.0389 -0.5428 0.8390
vn -0.4475 0.6752 0.5863
vn -0.5025 -0.8091 0.3046
vn 0.6849 -0.0109 0.7286
vn -0.2010 0.9773 -0.0675
vn 0.5213 0.6215 -0.5848
vn -0.3785 0.2986 0.8761
vn 0.9006 0.3126 -0.3019
vn 0.4364 -0.3497 -0.8290
vn 0.8918 -0.4508 -0.0373
vn -0.0385 0.8018 0.5964
vn -0.1603 0.3439 -0.9252
s off
f 59/66/58 69/67/58 47/68/58
f 45/69/59 51/70/59 46/71/59
f 43/72/60 49/73/60 44/74/60
f 47/75/61 51/70/61 52/76/61
f 44/74/62 50/77/62 45/69/62
f 48/78/63 71/79/63 49/80/63
f 51/81/64 55/82/64 52/83/64
f 49/80/65 53/84/65 50/85/65
f 43/86/66 70/87/66 48/78/66
f 50/85/67 54/88/67 51/81/67
f 55/82/68 58/89/68 59/66/68
f 72/90/69 84/91/69 80/92/69
f 53/84/70 58/89/70 54/88/70
f 70/93/71 83/94/71 81/95/71
f 58/89/72 64/96/72 59/66/72
f 61/97/73 77/98/73 60/99/73
f 57/100/74 63/101/74 58/89/74
f 62/102/75 76/103/75 78/104/75
f 64/96/76 68/105/76 69/67/76
f 61/106/77 67/107/77 62/108/77
f 43/86/66 60/109/66 56/110/66
f 62/108/78 68/105/78 63/101/78
f 60/109/79 66/111/79 61/106/79
f 69/112/80 46/71/80 47/75/80
f 66/113/81 45/69/81 67/114/81
f 67/114/82 46/71/82 68/115/82
f 65/116/83 44/74/83 66/113/83
f 55/82/58 47/68/58 52/83/58
f 73/117/84 78/104/84 76/103/84
f 73/117/85 77/98/85 74/118/85
f 72/119/86 75/120/86 73/117/86
f 60/99/87 75/120/87 56/121/87
f 61/97/88 78/104/88 74/118/88
f 72/119/89 76/103/89 57/122/89
f 79/123/90 84/91/90 82/124/90
f 79/123/91 83/94/91 80/92/91
f 71/125/92 82/124/92 53/126/92
f 53/126/93 84/91/93 57/127/93
f 72/90/94 83/94/94 56/128/94
f 71/125/95 81/95/95 79/123/95
f 59/66/96 64/96/96 69/67/96
f 45/69/59 50/77/59 51/70/59
f 43/72/97 48/129/97 49/73/97
f 47/75/98 46/71/98 51/70/98
f 44/74/99 49/73/99 50/77/99
f 48/78/63 70/87/63 71/79/63
f 51/81/100 54/88/100 55/82/100
f 49/80/65 71/79/65 53/84/65
f 43/86/66 56/110/66 70/87/66
f 50/85/101 53/84/101 54/88/101
f 55/82/68 54/88/68 58/89/68
f 72/90/102 57/127/102 84/91/102
f 53/84/70 57/100/70 58/89/70
f 70/93/71 56/128/71 83/94/71
f 58/89/103 63/101/103 64/96/103
f 61/97/104 74/118/104 77/98/104
f 57/100/105 62/108/105 63/101/105
f 62/102/75 57/122/75 76/103/75
f 64/96/106 63/101/106 68/105/106
f 61/106/77 66/111/77 67/107/77
f 43/86/66 65/130/66 60/109/66
f 62/108/78 67/107/78 68/105/78
f 60/109/107 65/130/107 66/111/107
f 69/112/108 68/115/108 46/71/108
f 66/113/81 44/74/81 45/69/81
f 67/114/82 45/69/82 46/71/82
f 65/116/83 43/72/83 44/74/83
f 55/82/58 59/66/58 47/68/58
f 73/117/109 74/118/109 78/104/109
f 73/117/110 75/120/110 77/98/110
f 72/119/111 56/121/111 75/120/111
f 60/99/87 77/98/87 75/120/87
f 61/97/112 62/102/112 78/104/112
f 72/119/113 73/117/113 76/103/113
f 79/123/90 80/92/90 84/91/90
f 79/123/91 81/95/91 83/94/91
f 71/125/114 79/123/114 82/124/114
f 53/126/115 82/124/115 84/91/115
f 72/90/116 80/92/116 83/94/116
f 71/125/117 70/93/117 81/95/117
v -1.124703 4.263208 -1.030467
v -1.120391 4.244794 -1.052007
v -1.117946 4.217872 -1.061535
v -1.118024 4.189654 -1.056499
v -1.120603 4.167702 -1.038249
v -1.103449 4.262675 -1.012731
v -1.083579 4.243872 -1.021286
v -1.075440 4.216806 -1.026062
v -1.081212 4.188731 -1.025779
v -1.099350 4.167170 -1.020513
v -1.084853 4.211973 -0.971709
v -1.089364 4.184546 -0.978707
v -1.104056 4.164753 -0.993336
v -1.134115 4.258376 -0.976114
v -1.136772 4.208206 -0.952828
v -1.134327 4.181283 -0.962357
v -1.130015 4.162869 -0.983896
v -1.155368 4.258908 -0.993850
v -1.173506 4.237347 -0.988584
v -1.179278 4.209272 -0.988301
v -1.171139 4.182206 -0.993077
v -1.151269 4.163403 -1.001632
v -1.150662 4.261325 -1.021027
v -1.165354 4.241532 -1.035656
v -1.169865 4.214105 -1.042655
v -1.162987 4.186391 -1.040148
v -1.146562 4.165819 -1.028809
v -1.108156 4.260259 -0.985554
v -1.091731 4.239686 -0.974215
v -1.136694 4.236424 -0.957864
v -1.180466 4.252833 -0.939296
v -1.183469 4.252908 -0.941802
v -1.154449 4.262073 -0.962551
v -1.164523 4.222221 -0.945781
v -1.164969 4.262336 -0.971330
v -1.180841 4.222631 -0.959399
v -1.095798 4.255431 -0.928579
v -1.106441 4.254659 -0.924709
v -1.104608 4.261512 -0.943918
v -1.100058 4.234806 -0.937986
v -1.109486 4.261158 -0.942144
v -1.104950 4.234450 -0.936207
vt 0.274240 0.539347
vt 0.265397 0.539709
vt 0.266768 0.532487
vt 0.231414 0.551290
vt 0.214659 0.541092
vt 0.231357 0.542861
vt 0.231940 0.569242
vt 0.215985 0.562822
vt 0.231472 0.559719
vt 0.230890 0.533338
vt 0.220414 0.530957
vt 0.213134 0.552274
vt 0.289666 0.544440
vt 0.282983 0.540904
vt 0.290637 0.536818
vt 0.279682 0.529141
vt 0.275518 0.536619
vt 0.273707 0.532162
vt 0.280945 0.538772
vt 0.286431 0.530872
vt 0.290637 0.551375
vt 0.284312 0.543753
vt 0.278488 0.537315
vt 0.276318 0.541045
vt 0.804698 0.251197
vt 0.792375 0.255919
vt 0.792638 0.252041
vt 0.786357 0.239035
vt 0.792578 0.249274
vt 0.791489 0.249454
vt 0.271776 0.541127
vt 0.760733 0.199751
vt 0.757502 0.209505
vt 0.750621 0.206121
vt 0.278108 0.542645
vt 0.273009 0.544115
vt 0.772804 0.201934
vt 0.766718 0.213101
vt 0.766203 0.208706
vt 0.264007 0.548518
vt 0.277612 0.547903
vt 0.268747 0.555467
vt 0.275021 0.546378
vt 0.280714 0.548498
vt 0.281954 0.545638
vt 0.276612 0.557409
vt 0.240880 0.530957
vt 0.248168 0.561486
vt 0.249693 0.550306
vt 0.246843 0.539760
vt 0.242415 0.571620
vt 0.762287 0.211045
vt 0.762255 0.210544
vt 0.761023 0.221925
vt 0.757316 0.212491
vt 0.750922 0.216572
vt 0.772804 0.220841
vt 0.791613 0.252007
vt 0.791097 0.255536
vt 0.780068 0.250772
vt 0.780487 0.263708
vt 0.804698 0.264828
vt 0.798786 0.238814
vt 0.221949 0.571626
vt 0.283377 0.553479
vn 0.0427 -0.9958 -0.0811
vn 0.6326 -0.1377 -0.7621
vn 0.4554 0.7197 -0.5241
vn 0.5114 -0.5841 -0.6303
vn 0.6133 0.3124 -0.7255
vn 0.7162 0.6732 0.1839
vn 0.7722 -0.6306 0.0777
vn 0.9494 0.2525 0.1869
vn -0.0427 0.9958 0.0811
vn 0.9687 -0.1976 0.1502
vn 0.2888 -0.6984 0.6549
vn -0.5221 -0.4506 0.7242
vn 0.3458 -0.2850 0.8940
vn -0.0808 0.9965 -0.0231
vn -0.4554 -0.7197 0.5241
vn -0.7473 0.5311 -0.3994
vn -0.6133 -0.3124 0.7255
vn -0.3384 -0.8610 0.3797
vn -0.7162 -0.6732 -0.1839
vn -0.9687 0.1977 -0.1502
vn -0.0428 0.9958 0.0811
vn -0.9494 -0.2525 -0.1869
vn -0.7722 0.6306 -0.0777
vn -0.2329 -0.6054 -0.7611
vn -0.3458 0.2850 -0.8940
vn -0.3264 -0.1652 -0.9307
vn -0.2888 0.6984 -0.6549
vn 0.0428 -0.9958 -0.0812
vn -0.5799 -0.4464 0.6815
vn -0.1531 0.9652 0.2121
vn 0.4883 0.4721 0.7339
vn 0.1109 0.9885 -0.1032
vn -0.9740 0.0447 -0.2223
vn 0.3205 0.1656 0.9327
vn 0.3342 -0.4474 0.8296
vn 0.0556 0.9387 0.3402
vn 0.9345 0.2545 0.2491
vn 0.2791 -0.7320 0.6215
vn -0.7248 0.4888 0.4855
vn 0.7354 0.6581 -0.1615
vn 0.6326 -0.1378 -0.7621
vn 0.9687 -0.1977 0.1502
vn -0.5510 0.1481 0.8212
vn -0.0807 0.9965 -0.0231
vn -0.7950 0.5043 -0.3371
vn -0.6132 -0.3124 0.7255
vn -0.3384 -0.8610 0.3796
vn -0.2328 -0.6054 -0.7611
vn -0.3265 -0.1652 -0.9307
vn -0.5798 -0.4464 0.6815
vn -0.1530 0.9652 0.2123
vn 0.5419 0.4987 0.6765
vn -0.9696 0.1979 -0.1439
vn 0.3938 0.0104 0.9191
vn 0.3341 -0.4473 0.8296
vn 0.0555 0.9387 0.3403
vn 0.9440 -0.2769 0.1796
vn 0.2792 -0.7319 0.6216
vn -0.7327 0.5859 0.3463
vn 0.8012 0.5922 -0.0861
s off
f 101/131/118 111/132/118 89/133/118
f 87/134/119 93/135/119 88/136/119
f 85/137/120 91/138/120 86/139/120
f 89/140/121 93/135/121 94/141/121
f 86/139/122 92/142/122 87/134/122
f 90/143/123 113/144/123 91/145/123
f 93/146/124 97/147/124 94/148/124
f 91/145/125 95/149/125 92/150/125
f 85/151/126 112/152/126 90/143/126
f 92/150/127 96/153/127 93/146/127
f 97/147/128 100/154/128 101/131/128
f 114/155/129 126/156/129 122/157/129
f 95/149/130 100/154/130 96/153/130
f 112/158/131 125/159/131 123/160/131
f 100/154/132 106/161/132 101/131/132
f 103/162/133 119/163/133 102/164/133
f 99/165/134 105/166/134 100/154/134
f 104/167/135 118/168/135 120/169/135
f 106/161/136 110/170/136 111/132/136
f 103/171/137 109/172/137 104/173/137
f 85/151/138 102/174/138 98/175/138
f 104/173/139 110/170/139 105/166/139
f 102/174/140 108/176/140 103/171/140
f 111/177/141 88/136/141 89/140/141
f 108/178/142 87/134/142 109/179/142
f 109/179/143 88/136/143 110/180/143
f 107/181/144 86/139/144 108/178/144
f 97/147/145 89/133/145 94/148/145
f 115/182/146 120/169/146 118/168/146
f 115/182/147 119/163/147 116/183/147
f 114/184/148 117/185/148 115/182/148
f 102/164/149 117/185/149 98/186/149
f 103/162/150 120/169/150 116/183/150
f 114/184/151 118/168/151 99/187/151
f 121/188/152 126/156/152 124/189/152
f 121/188/153 125/159/153 122/157/153
f 113/190/154 124/189/154 95/191/154
f 95/191/155 126/156/155 99/192/155
f 114/155/156 125/159/156 98/193/156
f 113/190/157 123/160/157 121/188/157
f 101/131/118 106/161/118 111/132/118
f 87/134/158 92/142/158 93/135/158
f 85/137/120 90/194/120 91/138/120
f 89/140/121 88/136/121 93/135/121
f 86/139/122 91/138/122 92/142/122
f 90/143/123 112/152/123 113/144/123
f 93/146/124 96/153/124 97/147/124
f 91/145/125 113/144/125 95/149/125
f 85/151/126 98/175/126 112/152/126
f 92/150/159 95/149/159 96/153/159
f 97/147/128 96/153/128 100/154/128
f 114/155/160 99/192/160 126/156/160
f 95/149/130 99/165/130 100/154/130
f 112/158/161 98/193/161 125/159/161
f 100/154/132 105/166/132 106/161/132
f 103/162/162 116/183/162 119/163/162
f 99/165/163 104/173/163 105/166/163
f 104/167/164 99/187/164 118/168/164
f 106/161/136 105/166/136 110/170/136
f 103/171/137 108/176/137 109/172/137
f 85/151/126 107/195/126 102/174/126
f 104/173/139 109/172/139 110/170/139
f 102/174/140 107/195/140 108/176/140
f 111/177/165 110/180/165 88/136/165
f 108/178/142 86/139/142 87/134/142
f 109/179/166 87/134/166 88/136/166
f 107/181/144 85/137/144 86/139/144
f 97/147/118 101/131/118 89/133/118
f 115/182/167 116/183/167 120/169/167
f 115/182/168 117/185/168 119/163/168
f 114/184/169 98/186/169 117/185/169
f 102/164/149 119/163/149 117/185/149
f 103/162/170 104/167/170 120/169/170
f 114/184/171 115/182/171 118/168/171
f 121/188/172 122/157/172 126/156/172
f 121/188/173 123/160/173 125/159/173
f 113/190/174 121/188/174 124/189/174
f 95/191/175 124/189/175 126/156/175
f 114/155/176 122/157/176 125/159/176
f 113/190/177 112/158/177 123/160/177
