# Blender v2.81 (sub 16) OBJ File: 'garbage.blend'
# www.blender.org
v 0.021881 2.850847 2.365560
v 0.001911 2.834457 2.377975
v -0.007326 2.808650 2.386361
v -0.003353 2.780342 2.388469
v 0.012765 2.757117 2.383735
v 0.023526 2.845431 2.338457
v 0.004759 2.825077 2.331033
v -0.004036 2.797819 2.332157
v -0.000504 2.770962 2.341527
v 0.014410 2.751701 2.356633
v 0.045261 2.788482 2.308730
v 0.042189 2.762875 2.321239
v 0.039058 2.747032 2.344920
v 0.071179 2.841509 2.342133
v 0.091269 2.789975 2.339507
v 0.082033 2.764169 2.347893
v 0.062063 2.747779 2.360309
v 0.069534 2.846925 2.369235
v 0.084448 2.827664 2.384341
v 0.087980 2.800806 2.393712
v 0.079185 2.773549 2.394835
v 0.060418 2.753195 2.387411
v 0.044886 2.851593 2.380948
v 0.041755 2.835750 2.404630
v 0.038683 2.810144 2.417139
v 0.036492 2.781635 2.415123
v 0.035769 2.757864 2.399124
v 0.048175 2.840762 2.326744
v 0.047452 2.816990 2.310745
v 0.087296 2.818284 2.337399
v 0.128303 2.838532 2.358338
v 0.128071 2.839297 2.362168
v 0.094183 2.846516 2.349670
v 0.113483 2.806880 2.354903
v 0.093369 2.849196 2.363086
v 0.112220 2.811038 2.375712
v 0.086651 2.828105 2.284536
v 0.096082 2.828411 2.290845
v 0.079571 2.836984 2.299399
v 0.081523 2.809420 2.297050
v 0.083893 2.837124 2.302290
v 0.085858 2.809560 2.299949
vt 0.274240 0.539347
vt 0.265397 0.539709
vt 0.266768 0.532487
vt 0.231414 0.551290
vt 0.214659 0.541092
vt 0.231357 0.542861
vt 0.231940 0.569242
vt 0.215985 0.562822
vt 0.231472 0.559719
vt 0.230890 0.533338
vt 0.220414 0.530957
vt 0.213134 0.552274
vt 0.289666 0.544440
vt 0.282983 0.540904
vt 0.290637 0.536818
vt 0.279682 0.529141
vt 0.275518 0.536619
vt 0.273707 0.532162
vt 0.280945 0.538772
vt 0.286431 0.530872
vt 0.290637 0.551375
vt 0.284312 0.543753
vt 0.278488 0.537315
vt 0.276318 0.541045
vt 0.804698 0.251197
vt 0.792375 0.255919
vt 0.792638 0.252041
vt 0.786357 0.239035
vt 0.792578 0.249274
vt 0.791489 0.249454
vt 0.271776 0.541127
vt 0.760733 0.199751
vt 0.757502 0.209505
vt 0.750621 0.206121
vt 0.278108 0.542645
vt 0.273009 0.544115
vt 0.772804 0.201934
vt 0.766718 0.213101
vt 0.766203 0.208706
vt 0.264007 0.548518
vt 0.277612 0.547903
vt 0.268747 0.555467
vt 0.275021 0.546378
vt 0.280714 0.548498
vt 0.281954 0.545638
vt 0.276612 0.557409
vt 0.240880 0.530957
vt 0.248168 0.561486
vt 0.249693 0.550306
vt 0.246843 0.539760
vt 0.242415 0.571620
vt 0.762287 0.211045
vt 0.762255 0.210544
vt 0.761023 0.221925
vt 0.757316 0.212491
vt 0.750922 0.216572
vt 0.772804 0.220841
vt 0.791613 0.252007
vt 0.791097 0.255536
vt 0.780068 0.250772
vt 0.780487 0.263708
vt 0.804698 0.264828
vt 0.798786 0.238814
vt 0.221949 0.571626
vt 0.283377 0.553479
vn -0.0950 -0.9773 0.1895
vn -0.9895 -0.1412 -0.0318
vn -0.6889 0.7016 -0.1820
vn -0.8134 -0.5779 0.0661
vn -0.9465 0.3006 -0.1175
vn -0.2745 0.5426 -0.7939
vn -0.3989 -0.7369 -0.5457
vn -0.4124 0.0957 -0.9060
vn 0.0951 0.9773 -0.1895
vn -0.4554 -0.3461 -0.8203
vn 0.3522 -0.7987 -0.4878
vn 0.8907 -0.4491 0.0704
vn 0.5126 -0.4258 -0.7456
vn 0.0337 0.9946 -0.0986
vn 0.6889 -0.7016 0.1820
vn 0.1248 0.6703 0.7315
vn 0.9465 -0.3006 0.1175
vn 0.5026 -0.8414 0.1986
vn 0.2745 -0.5426 0.7939
vn 0.4554 0.3461 0.8203
vn 0.4124 -0.0957 0.9060
vn 0.3989 0.7369 0.5457
vn -0.4767 -0.4808 0.7359
vn -0.5126 0.4258 0.7456
vn -0.5556 -0.0161 0.8313
vn -0.3522 0.7987 0.4878
vn 0.8907 -0.4323 0.1404
vn 0.2659 0.9483 -0.1735
vn 0.3025 0.3169 -0.8989
vn -0.1445 0.9686 -0.2023
vn 0.3998 0.2040 0.8936
vn 0.5608 0.0171 -0.8278
vn 0.4670 -0.5769 -0.6701
vn 0.2448 0.8793 -0.4086
vn -0.3535 0.0930 -0.9308
vn 0.3310 -0.8269 -0.4547
vn 0.8232 0.5296 0.2044
vn -0.5638 0.5626 -0.6047
vn -0.0951 -0.9773 0.1895
vn 0.0950 0.9773 -0.1895
vn 0.9886 0.1336 -0.0691
vn 0.0337 0.9945 -0.0987
vn 0.2032 0.6439 0.7376
vn 0.8907 -0.4323 0.1405
vn 0.2659 0.9483 -0.1734
vn 0.2246 0.3418 -0.9125
vn 0.4609 0.3458 0.8173
vn 0.5056 -0.1445 -0.8506
vn -0.4173 -0.4238 -0.8039
vn 0.3309 -0.8269 -0.4547
vn 0.7164 0.6413 0.2747
vn -0.5425 0.4803 -0.6892
s off
f 17/1/1 27/2/1 5/3/1
f 3/4/2 9/5/2 4/6/2
f 1/7/3 7/8/3 2/9/3
f 5/10/4 9/5/4 10/11/4
f 2/9/5 8/12/5 3/4/5
f 6/13/6 29/14/6 7/15/6
f 9/16/7 13/17/7 10/18/7
f 7/15/8 11/19/8 8/20/8
f 1/21/9 28/22/9 6/13/9
f 8/20/10 12/23/10 9/16/10
f 13/17/11 16/24/11 17/1/11
f 30/25/12 42/26/12 38/27/12
f 11/19/13 16/24/13 12/23/13
f 28/28/14 41/29/14 39/30/14
f 16/24/15 22/31/15 17/1/15
f 19/32/16 35/33/16 18/34/16
f 15/35/17 21/36/17 16/24/17
f 20/37/18 34/38/18 36/39/18
f 22/31/19 26/40/19 27/2/19
f 19/41/20 25/42/20 20/43/20
f 1/21/9 18/44/9 14/45/9
f 20/43/21 26/40/21 21/36/21
f 18/44/22 24/46/22 19/41/22
f 27/47/23 4/6/23 5/10/23
f 24/48/24 3/4/24 25/49/24
f 25/49/25 4/6/25 26/50/25
f 23/51/26 2/9/26 24/48/26
f 13/17/1 5/3/1 10/18/1
f 31/52/27 36/39/27 34/38/27
f 31/52/28 35/33/28 32/53/28
f 30/54/29 33/55/29 31/52/29
f 18/34/30 33/55/30 14/56/30
f 19/32/31 36/39/31 32/53/31
f 30/54/32 34/38/32 15/57/32
f 37/58/33 42/26/33 40/59/33
f 37/58/34 41/29/34 38/27/34
f 29/60/35 40/59/35 11/61/35
f 11/61/36 42/26/36 15/62/36
f 30/25/37 41/29/37 14/63/37
f 29/60/38 39/30/38 37/58/38
f 17/1/39 22/31/39 27/2/39
f 3/4/2 8/12/2 9/5/2
f 1/7/3 6/64/3 7/8/3
f 5/10/4 4/6/4 9/5/4
f 2/9/5 7/8/5 8/12/5
f 6/13/6 28/22/6 29/14/6
f 9/16/7 12/23/7 13/17/7
f 7/15/8 29/14/8 11/19/8
f 1/21/40 14/45/40 28/22/40
f 8/20/10 11/19/10 12/23/10
f 13/17/11 12/23/11 16/24/11
f 30/25/41 15/62/41 42/26/41
f 11/19/13 15/35/13 16/24/13
f 28/28/42 14/63/42 41/29/42
f 16/24/15 21/36/15 22/31/15
f 19/32/43 32/53/43 35/33/43
f 15/35/17 20/43/17 21/36/17
f 20/37/18 15/57/18 34/38/18
f 22/31/19 21/36/19 26/40/19
f 19/41/20 24/46/20 25/42/20
f 1/21/40 23/65/40 18/44/40
f 20/43/21 25/42/21 26/40/21
f 18/44/22 23/65/22 24/46/22
f 27/47/23 26/50/23 4/6/23
f 24/48/24 2/9/24 3/4/24
f 25/49/25 3/4/25 4/6/25
f 23/51/26 1/7/26 2/9/26
f 13/17/39 17/1/39 5/3/39
f 31/52/44 32/53/44 36/39/44
f 31/52/45 33/55/45 35/33/45
f 30/54/46 14/56/46 33/55/46
f 18/34/30 35/33/30 33/55/30
f 19/32/47 20/37/47 36/39/47
f 30/54/48 31/52/48 34/38/48
f 37/58/33 38/27/33 42/26/33
f 37/58/34 39/30/34 41/29/34
f 29/60/49 37/58/49 40/59/49
f 11/61/50 40/59/50 42/26/50
f 30/25/51 38/27/51 41/29/51
f 29/60/52 28/28/52 39/30/52
v 3.424329 2.746226 -5.021870
v 3.437574 2.726837 -5.005430
v 3.440366 2.699825 -4.996255
v 3.431959 2.672428 -4.996805
v 3.414604 2.651986 -5.006931
v 3.398342 2.750278 -5.013221
v 3.392562 2.733856 -4.990449
v 3.388392 2.707931 -4.978958
v 3.386948 2.679447 -4.981825
v 3.388617 2.656039 -4.998283
v 3.346592 2.706492 -5.015248
v 3.350748 2.678201 -5.013253
v 3.367717 2.655319 -5.016428
v 3.382529 2.744787 -5.058160
v 3.356767 2.696948 -5.068836
v 3.359560 2.669936 -5.059661
v 3.372804 2.650547 -5.043221
v 3.408517 2.740734 -5.066808
v 3.410186 2.717325 -5.083266
v 3.408742 2.688842 -5.086133
v 3.404571 2.662916 -5.074642
v 3.398792 2.646495 -5.051870
v 3.429416 2.741453 -5.048663
v 3.446385 2.718572 -5.051838
v 3.450541 2.690281 -5.049843
v 3.440771 2.664162 -5.043213
v 3.419692 2.647214 -5.033725
v 3.377442 2.749559 -5.031366
v 3.356363 2.732610 -5.021878
v 3.365175 2.724345 -5.068286
v 3.374424 2.735835 -5.116374
v 3.378097 2.735262 -5.117596
v 3.382071 2.746679 -5.082803
v 3.367160 2.707386 -5.097107
v 3.394935 2.744673 -5.087084
v 3.387113 2.704275 -5.103747
v 3.322239 2.751476 -5.050629
v 3.324324 2.749520 -5.061614
v 3.340629 2.754886 -5.050449
v 3.329310 2.729720 -5.047675
v 3.341585 2.753989 -5.055483
v 3.330269 2.728821 -5.052724
vt 0.274240 0.539347
vt 0.265397 0.539709
vt 0.266768 0.532487
vt 0.231414 0.551290
vt 0.214659 0.541092
vt 0.231357 0.542861
vt 0.231940 0.569242
vt 0.215985 0.562822
vt 0.231472 0.559719
vt 0.230890 0.533338
vt 0.220414 0.530957
vt 0.213134 0.552274
vt 0.289666 0.544440
vt 0.282983 0.540904
vt 0.290637 0.536818
vt 0.279682 0.529141
vt 0.275518 0.536619
vt 0.273707 0.532162
vt 0.280945 0.538772
vt 0.286431 0.530872
vt 0.290637 0.551375
vt 0.284312 0.543753
vt 0.278488 0.537315
vt 0.276318 0.541045
vt 0.804698 0.251197
vt 0.792375 0.255919
vt 0.792638 0.252041
vt 0.786357 0.239035
vt 0.792578 0.249274
vt 0.791489 0.249454
vt 0.271776 0.541127
vt 0.760733 0.199751
vt 0.757502 0.209505
vt 0.750621 0.206121
vt 0.278108 0.542645
vt 0.273009 0.544115
vt 0.772804 0.201934
vt 0.766718 0.213101
vt 0.766203 0.208706
vt 0.264007 0.548518
vt 0.277612 0.547903
vt 0.268747 0.555467
vt 0.275021 0.546378
vt 0.280714 0.548498
vt 0.281954 0.545638
vt 0.276612 0.557409
vt 0.240880 0.530957
vt 0.248168 0.561486
vt 0.249693 0.550306
vt 0.246843 0.539760
vt 0.242415 0.571620
vt 0.762287 0.211045
vt 0.762255 0.210544
vt 0.761023 0.221925
vt 0.757316 0.212491
vt 0.750922 0.216572
vt 0.772804 0.220841
vt 0.791613 0.252007
vt 0.791097 0.255536
vt 0.780068 0.250772
vt 0.780487 0.263708
vt 0.804698 0.264828
vt 0.798786 0.238814
vt 0.221949 0.571626
vt 0.283377 0.553479
vn -0.1014 -0.9826 0.1558
vn 0.2983 -0.1106 0.9481
vn 0.3156 0.7298 0.6064
vn 0.1828 -0.5567 0.8104
vn 0.3441 0.3337 0.8776
vn -0.4235 0.7824 0.4567
vn -0.5562 -0.5042 0.6607
vn -0.6083 0.4014 0.6848
vn 0.1014 0.9826 -0.1557
vn -0.6541 -0.0429 0.7552
vn -0.8055 -0.5907 -0.0477
vn -0.4104 -0.4568 -0.7892
vn -0.9753 -0.1544 -0.1577
vn 0.2091 0.9688 -0.1329
vn -0.3157 -0.7298 -0.6064
vn 0.8004 0.3819 -0.4620
vn -0.3441 -0.3337 -0.8776
vn -0.2747 -0.8648 -0.4203
vn 0.4235 -0.7824 -0.4567
vn 0.6542 0.0428 -0.7551
vn 0.1014 0.9826 -0.1558
vn 0.6083 -0.4014 -0.6847
vn 0.5562 0.5041 -0.6607
vn 0.6727 -0.6958 0.2517
vn 0.9753 0.1544 0.1577
vn 0.9295 -0.2898 0.2281
vn 0.8055 0.5907 0.0477
vn -0.3440 -0.4647 -0.8159
vn 0.0427 0.9478 -0.3159
vn -0.8009 0.5987 -0.0110
vn 0.1771 0.9816 0.0721
vn 0.6950 -0.1150 -0.7097
vn -0.9281 0.2895 -0.2343
vn -0.9391 -0.3216 -0.1210
vn -0.1765 0.9627 -0.2050
vn -0.6529 0.4065 0.6391
vn -0.7773 -0.6282 -0.0357
vn 0.0350 0.4196 -0.9070
vn -0.1437 0.7405 0.6565
vn -0.1014 -0.9826 0.1557
vn 0.2983 -0.1106 0.9480
vn 0.3157 0.7298 0.6064
vn 0.1829 -0.5567 0.8103
vn 0.3441 0.3336 0.8776
vn -0.4234 0.7824 0.4567
vn -0.5562 -0.5041 0.6607
vn -0.6083 0.4014 0.6847
vn -0.6542 -0.0428 0.7552
vn -0.3886 0.1375 -0.9111
vn -0.3156 -0.7298 -0.6064
vn 0.7683 0.3540 -0.5332
vn 0.4235 -0.7823 -0.4567
vn 0.6541 0.0428 -0.7552
vn 0.5562 0.5042 -0.6606
vn -0.7759 0.6277 0.0626
vn 0.6493 0.0435 -0.7592
vn -0.9774 0.1459 -0.1532
vn -0.9391 -0.3217 -0.1210
vn -0.1765 0.9627 -0.2049
vn -0.6781 -0.1220 0.7248
vn 0.1710 0.5022 -0.8477
vn -0.2511 0.6915 0.6774
s off
f 59/66/53 69/67/53 47/68/53
f 45/69/54 51/70/54 46/71/54
f 43/72/55 49/73/55 44/74/55
f 47/75/56 51/70/56 52/76/56
f 44/74/57 50/77/57 45/69/57
f 48/78/58 71/79/58 49/80/58
f 51/81/59 55/82/59 52/83/59
f 49/80/60 53/84/60 50/85/60
f 43/86/61 70/87/61 48/78/61
f 50/85/62 54/88/62 51/81/62
f 55/82/63 58/89/63 59/66/63
f 72/90/64 84/91/64 80/92/64
f 53/84/65 58/89/65 54/88/65
f 70/93/66 83/94/66 81/95/66
f 58/89/67 64/96/67 59/66/67
f 61/97/68 77/98/68 60/99/68
f 57/100/69 63/101/69 58/89/69
f 62/102/70 76/103/70 78/104/70
f 64/96/71 68/105/71 69/67/71
f 61/106/72 67/107/72 62/108/72
f 43/86/73 60/109/73 56/110/73
f 62/108/74 68/105/74 63/101/74
f 60/109/75 66/111/75 61/106/75
f 69/112/76 46/71/76 47/75/76
f 66/113/77 45/69/77 67/114/77
f 67/114/78 46/71/78 68/115/78
f 65/116/79 44/74/79 66/113/79
f 55/82/53 47/68/53 52/83/53
f 73/117/80 78/104/80 76/103/80
f 73/117/81 77/98/81 74/118/81
f 72/119/82 75/120/82 73/117/82
f 60/99/83 75/120/83 56/121/83
f 61/97/84 78/104/84 74/118/84
f 72/119/85 76/103/85 57/122/85
f 79/123/86 84/91/86 82/124/86
f 79/123/87 83/94/87 80/92/87
f 71/125/88 82/124/88 53/126/88
f 53/126/89 84/91/89 57/127/89
f 72/90/90 83/94/90 56/128/90
f 71/125/91 81/95/91 79/123/91
f 59/66/92 64/96/92 69/67/92
f 45/69/93 50/77/93 51/70/93
f 43/72/94 48/129/94 49/73/94
f 47/75/95 46/71/95 51/70/95
f 44/74/96 49/73/96 50/77/96
f 48/78/97 70/87/97 71/79/97
f 51/81/98 54/88/98 55/82/98
f 49/80/99 71/79/99 53/84/99
f 43/86/73 56/110/73 70/87/73
f 50/85/100 53/84/100 54/88/100
f 55/82/63 54/88/63 58/89/63
f 72/90/101 57/127/101 84/91/101
f 53/84/65 57/100/65 58/89/65
f 70/93/66 56/128/66 83/94/66
f 58/89/102 63/101/102 64/96/102
f 61/97/103 74/118/103 77/98/103
f 57/100/69 62/108/69 63/101/69
f 62/102/70 57/122/70 76/103/70
f 64/96/104 63/101/104 68/105/104
f 61/106/105 66/111/105 67/107/105
f 43/86/73 65/130/73 60/109/73
f 62/108/74 67/107/74 68/105/74
f 60/109/106 65/130/106 66/111/106
f 69/112/76 68/115/76 46/71/76
f 66/113/77 44/74/77 45/69/77
f 67/114/78 45/69/78 46/71/78
f 65/116/79 43/72/79 44/74/79
f 55/82/53 59/66/53 47/68/53
f 73/117/80 74/118/80 78/104/80
f 73/117/81 75/120/81 77/98/81
f 72/119/107 56/121/107 75/120/107
f 60/99/83 77/98/83 75/120/83
f 61/97/108 62/102/108 78/104/108
f 72/119/109 73/117/109 76/103/109
f 79/123/110 80/92/110 84/91/110
f 79/123/111 81/95/111 83/94/111
f 71/125/112 79/123/112 82/124/112
f 53/126/89 82/124/89 84/91/89
f 72/90/113 80/92/113 83/94/113
f 71/125/114 70/93/114 81/95/114
v 0.972564 4.306008 -0.950038
v 0.966798 4.288936 -0.927748
v 0.962853 4.262673 -0.916962
v 0.961788 4.234258 -0.920572
v 0.963887 4.211303 -0.937609
v 0.951828 4.305501 -0.968378
v 0.930883 4.288057 -0.959513
v 0.921382 4.261659 -0.953641
v 0.925873 4.233379 -0.952337
v 0.943151 4.210796 -0.955949
v 0.932126 4.253624 -1.007365
v 0.935177 4.226421 -0.998863
v 0.948523 4.206779 -0.982811
v 0.983308 4.297972 -1.003762
v 0.984341 4.246603 -1.024410
v 0.980397 4.220340 -1.013624
v 0.974631 4.203268 -0.991333
v 1.004044 4.298480 -0.985423
v 1.021322 4.275896 -0.989035
v 1.025813 4.247616 -0.987731
v 1.016312 4.221218 -0.981859
v 0.995366 4.203774 -0.972994
v 0.998672 4.302497 -0.958561
v 1.012017 4.282855 -0.942509
v 1.015069 4.255651 -0.934007
v 1.007008 4.228177 -0.935333
v 0.989994 4.207792 -0.946132
v 0.957200 4.301483 -0.995240
v 0.940187 4.281098 -1.006039
v 0.985407 4.275018 -1.020800
v 1.030398 4.288502 -1.038797
v 1.033329 4.288573 -1.036206
v 1.004171 4.300066 -1.016855
v 1.012895 4.258998 -1.031285
v 1.014435 4.300316 -1.007777
v 1.028816 4.259387 -1.017203
v 0.946281 4.294278 -1.052258
v 0.956984 4.292839 -1.055752
v 0.954914 4.300745 -1.036977
v 0.949323 4.273996 -1.041701
v 0.959820 4.300086 -1.038578
v 0.954242 4.273335 -1.043307
vt 0.274240 0.539347
vt 0.265397 0.539709
vt 0.266768 0.532487
vt 0.231414 0.551290
vt 0.214659 0.541092
vt 0.231357 0.542861
vt 0.231940 0.569242
vt 0.215985 0.562822
vt 0.231472 0.559719
vt 0.230890 0.533338
vt 0.220414 0.530957
vt 0.213134 0.552274
vt 0.289666 0.544440
vt 0.282983 0.540904
vt 0.290637 0.536818
vt 0.279682 0.529141
vt 0.275518 0.536619
vt 0.273707 0.532162
vt 0.280945 0.538772
vt 0.286431 0.530872
vt 0.290637 0.551375
vt 0.284312 0.543753
vt 0.278488 0.537315
vt 0.276318 0.541045
vt 0.804698 0.251197
vt 0.792375 0.255919
vt 0.792638 0.252041
vt 0.786357 0.239035
vt 0.792578 0.249274
vt 0.791489 0.249454
vt 0.271776 0.541127
vt 0.760733 0.199751
vt 0.757502 0.209505
vt 0.750621 0.206121
vt 0.278108 0.542645
vt 0.273009 0.544115
vt 0.772804 0.201934
vt 0.766718 0.213101
vt 0.766203 0.208706
vt 0.264007 0.548518
vt 0.277612 0.547903
vt 0.268747 0.555467
vt 0.275021 0.546378
vt 0.280714 0.548498
vt 0.281954 0.545638
vt 0.276612 0.557409
vt 0.240880 0.530957
vt 0.248168 0.561486
vt 0.249693 0.550306
vt 0.246843 0.539760
vt 0.242415 0.571620
vt 0.762287 0.211045
vt 0.762255 0.210544
vt 0.761023 0.221925
vt 0.757316 0.212491
vt 0.750922 0.216572
vt 0.772804 0.220841
vt 0.791613 0.252007
vt 0.791097 0.255536
vt 0.780068 0.250772
vt 0.780487 0.263708
vt 0.804698 0.264828
vt 0.798786 0.238814
vt 0.221949 0.571626
vt 0.283377 0.553479
vn -0.0905 -0.9874 0.1296
vn -0.6599 -0.0703 0.7481
vn -0.4370 0.7651 0.4729
vn -0.5554 -0.5277 0.6426
vn -0.6190 0.3761 0.6895
vn -0.6792 0.6938 -0.2396
vn -0.7976 -0.5991 -0.0699
vn -0.9311 0.2842 -0.2287
vn 0.0905 0.9874 -0.1296
vn -0.9720 -0.1622 -0.1701
vn -0.3014 -0.7177 -0.6277
vn 0.5216 -0.5098 -0.6841
vn -0.3325 -0.3151 -0.8889
vn 0.1254 0.9918 -0.0244
vn 0.4370 -0.7651 -0.4729
vn 0.7589 0.5174 0.3953
vn 0.6190 -0.3761 -0.6895
vn 0.3096 -0.8935 -0.3253
vn 0.6792 -0.6938 0.2396
vn 0.9720 0.1622 0.1701
vn 0.9311 -0.2842 0.2287
vn 0.7976 0.5991 0.0699
vn 0.1829 -0.5751 0.7974
vn 0.3325 0.3151 0.8889
vn 0.2916 -0.1313 0.9475
vn 0.3014 0.7178 0.6277
vn 0.5783 -0.5060 -0.6399
vn 0.2029 0.9452 -0.2557
vn -0.4449 0.4548 -0.7715
vn -0.0686 0.9964 0.0500
vn 0.9682 0.0130 0.2499
vn -0.2856 0.1313 -0.9493
vn -0.3302 -0.4743 -0.8161
vn -0.0029 0.9215 -0.3884
vn -0.9143 0.2823 -0.2904
vn -0.2942 -0.7500 -0.5924
vn 0.7601 0.4307 -0.4866
vn -0.7089 0.6974 0.1054
vn -0.4370 0.7651 0.4730
vn -0.5555 -0.5278 0.6426
vn -0.3014 -0.7178 -0.6277
vn 0.5807 0.0811 -0.8101
vn 0.8072 0.4854 0.3359
vn 0.1830 -0.5751 0.7974
vn 0.3014 0.7177 0.6277
vn 0.2029 0.9453 -0.2555
vn -0.4989 0.4867 -0.7171
vn 0.9731 0.1621 0.1639
vn -0.3663 -0.0196 -0.9303
vn -0.9500 -0.2439 -0.1948
vn 0.7683 0.5344 -0.3523
vn -0.7755 0.6306 0.0313
s off
f 101/131/115 111/132/115 89/133/115
f 87/134/116 93/135/116 88/136/116
f 85/137/117 91/138/117 86/139/117
f 89/140/118 93/135/118 94/141/118
f 86/139/119 92/142/119 87/134/119
f 90/143/120 113/144/120 91/145/120
f 93/146/121 97/147/121 94/148/121
f 91/145/122 95/149/122 92/150/122
f 85/151/123 112/152/123 90/143/123
f 92/150/124 96/153/124 93/146/124
f 97/147/125 100/154/125 101/131/125
f 114/155/126 126/156/126 122/157/126
f 95/149/127 100/154/127 96/153/127
f 112/158/128 125/159/128 123/160/128
f 100/154/129 106/161/129 101/131/129
f 103/162/130 119/163/130 102/164/130
f 99/165/131 105/166/131 100/154/131
f 104/167/132 118/168/132 120/169/132
f 106/161/133 110/170/133 111/132/133
f 103/171/134 109/172/134 104/173/134
f 85/151/123 102/174/123 98/175/123
f 104/173/135 110/170/135 105/166/135
f 102/174/136 108/176/136 103/171/136
f 111/177/137 88/136/137 89/140/137
f 108/178/138 87/134/138 109/179/138
f 109/179/139 88/136/139 110/180/139
f 107/181/140 86/139/140 108/178/140
f 97/147/115 89/133/115 94/148/115
f 115/182/141 120/169/141 118/168/141
f 115/182/142 119/163/142 116/183/142
f 114/184/143 117/185/143 115/182/143
f 102/164/144 117/185/144 98/186/144
f 103/162/145 120/169/145 116/183/145
f 114/184/146 118/168/146 99/187/146
f 121/188/147 126/156/147 124/189/147
f 121/188/148 125/159/148 122/157/148
f 113/190/149 124/189/149 95/191/149
f 95/191/150 126/156/150 99/192/150
f 114/155/151 125/159/151 98/193/151
f 113/190/152 123/160/152 121/188/152
f 101/131/115 106/161/115 111/132/115
f 87/134/116 92/142/116 93/135/116
f 85/137/153 90/194/153 91/138/153
f 89/140/154 88/136/154 93/135/154
f 86/139/119 91/138/119 92/142/119
f 90/143/120 112/152/120 113/144/120
f 93/146/121 96/153/121 97/147/121
f 91/145/122 113/144/122 95/149/122
f 85/151/123 98/175/123 112/152/123
f 92/150/124 95/149/124 96/153/124
f 97/147/155 96/153/155 100/154/155
f 114/155/156 99/192/156 126/156/156
f 95/149/127 99/165/127 100/154/127
f 112/158/128 98/193/128 125/159/128
f 100/154/129 105/166/129 106/161/129
f 103/162/157 116/183/157 119/163/157
f 99/165/131 104/173/131 105/166/131
f 104/167/132 99/187/132 118/168/132
f 106/161/133 105/166/133 110/170/133
f 103/171/134 108/176/134 109/172/134
f 85/151/123 107/195/123 102/174/123
f 104/173/135 109/172/135 110/170/135
f 102/174/136 107/195/136 108/176/136
f 111/177/158 110/180/158 88/136/158
f 108/178/138 86/139/138 87/134/138
f 109/179/139 87/134/139 88/136/139
f 107/181/159 85/137/159 86/139/159
f 97/147/115 101/131/115 89/133/115
f 115/182/141 116/183/141 120/169/141
f 115/182/160 117/185/160 119/163/160
f 114/184/161 98/186/161 117/185/161
f 102/164/144 119/163/144 117/185/144
f 103/162/162 104/167/162 120/169/162
f 114/184/163 115/182/163 118/168/163
f 121/188/147 122/157/147 126/156/147
f 121/188/148 123/160/148 125/159/148
f 113/190/164 121/188/164 124/189/164
f 95/191/150 124/189/150 126/156/150
f 114/155/165 122/157/165 125/159/165
f 113/190/166 112/158/166 123/160/166
