# Blender v2.81 (sub 16) OBJ File: 'garbage.blend'
# www.blender.org
v 0.164762 1.386596 0.067883
v 0.156864 1.371163 0.090710
v 0.149690 1.345983 0.102374
v 0.145162 1.317801 0.099751
v 0.144493 1.294169 0.083544
v 0.144188 1.387977 0.049406
v 0.121229 1.373556 0.058708
v 0.108542 1.348746 0.065422
v 0.109527 1.320194 0.067749
v 0.123919 1.295551 0.065067
v 0.118417 1.337545 0.012099
v 0.118079 1.310493 0.021571
v 0.128856 1.289950 0.038406
v 0.174637 1.375395 0.014560
v 0.169440 1.323581 -0.004270
v 0.162265 1.298401 0.007394
v 0.154367 1.282968 0.030221
v 0.195211 1.374013 0.033037
v 0.209603 1.349370 0.030354
v 0.210587 1.320818 0.032682
v 0.197900 1.296008 0.039396
v 0.174941 1.281587 0.048697
v 0.190273 1.379614 0.059698
v 0.201051 1.359071 0.076533
v 0.200712 1.332019 0.086004
v 0.189348 1.305708 0.085575
v 0.170004 1.287187 0.075359
v 0.149126 1.382377 0.022745
v 0.129781 1.363856 0.012529
v 0.173968 1.351763 -0.001648
v 0.220339 1.358987 -0.019744
v 0.223247 1.358792 -0.017133
v 0.195648 1.374450 0.001570
v 0.199323 1.332135 -0.011345
v 0.205832 1.373766 0.010716
v 0.215120 1.331074 0.002841
v 0.137615 1.374534 -0.034072
v 0.148074 1.371671 -0.037427
v 0.146920 1.380436 -0.018957
v 0.138108 1.354421 -0.022789
v 0.151713 1.379125 -0.020495
v 0.142915 1.353106 -0.024331
vt 0.274240 0.539347
vt 0.265397 0.539709
vt 0.266768 0.532487
vt 0.231414 0.551290
vt 0.214659 0.541092
vt 0.231357 0.542861
vt 0.231940 0.569242
vt 0.215985 0.562822
vt 0.231472 0.559719
vt 0.230890 0.533338
vt 0.220414 0.530957
vt 0.213134 0.552274
vt 0.289666 0.544440
vt 0.282983 0.540904
vt 0.290637 0.536818
vt 0.279682 0.529141
vt 0.275518 0.536619
vt 0.273707 0.532162
vt 0.280945 0.538772
vt 0.286431 0.530872
vt 0.290637 0.551375
vt 0.284312 0.543753
vt 0.278488 0.537315
vt 0.276318 0.541045
vt 0.804698 0.251197
vt 0.792375 0.255919
vt 0.792638 0.252041
vt 0.786357 0.239035
vt 0.792578 0.249274
vt 0.791489 0.249454
vt 0.271776 0.541127
vt 0.760733 0.199751
vt 0.757502 0.209505
vt 0.750621 0.206121
vt 0.278108 0.542645
vt 0.273009 0.544115
vt 0.772804 0.201934
vt 0.766718 0.213101
vt 0.766203 0.208706
vt 0.264007 0.548518
vt 0.277612 0.547903
vt 0.268747 0.555467
vt 0.275021 0.546378
vt 0.280714 0.548498
vt 0.281954 0.545638
vt 0.276612 0.557409
vt 0.240880 0.530957
vt 0.248168 0.561486
vt 0.249693 0.550306
vt 0.246843 0.539760
vt 0.242415 0.571620
vt 0.762287 0.211045
vt 0.762255 0.210544
vt 0.761023 0.221925
vt 0.757316 0.212491
vt 0.750922 0.216572
vt 0.772804 0.220841
vt 0.791613 0.252007
vt 0.791097 0.255536
vt 0.780068 0.250772
vt 0.780487 0.263708
vt 0.804698 0.264828
vt 0.798786 0.238814
vt 0.221949 0.571626
vt 0.283377 0.553479
vn -0.2113 -0.9637 0.1633
vn -0.6663 0.0377 0.7447
vn -0.3416 0.8292 0.4424
vn -0.6183 -0.4325 0.6562
vn -0.5707 0.4734 0.6709
vn -0.5881 0.7627 -0.2691
vn -0.8648 -0.4990 -0.0553
vn -0.8884 0.3877 -0.2460
vn 0.2114 0.9637 -0.1633
vn -0.9839 -0.0480 -0.1721
vn -0.3848 -0.6974 -0.6046
vn 0.4577 -0.5939 -0.6617
vn -0.3654 -0.3035 -0.8800
vn 0.2462 0.9675 -0.0580
vn 0.3416 -0.8292 -0.4424
vn 0.8152 0.4344 0.3831
vn 0.5707 -0.4734 -0.6709
vn 0.1989 -0.9357 -0.2914
vn 0.5881 -0.7627 0.2691
vn 0.9839 0.0480 0.1721
vn 0.2113 0.9637 -0.1633
vn 0.8884 -0.3877 0.2460
vn 0.8648 0.4990 0.0553
vn 0.1081 -0.5644 0.8184
vn 0.3654 0.3035 0.8800
vn 0.2698 -0.1321 0.9538
vn 0.3848 0.6974 0.6046
vn 0.5143 -0.5955 -0.6172
vn 0.3183 0.9036 -0.2868
vn -0.3829 0.4780 -0.7905
vn 0.0539 0.9984 0.0146
vn 0.9615 -0.0967 0.2571
vn -0.2638 0.1313 -0.9556
vn -0.3828 -0.4591 -0.8017
vn 0.1116 0.9005 -0.4204
vn -0.8717 0.3815 -0.3074
vn -0.3818 -0.7290 -0.5681
vn 0.8089 0.3168 -0.4953
vn -0.6185 0.7822 0.0753
vn -0.2114 -0.9637 0.1633
vn 0.5892 -0.0195 -0.8078
vn 0.8594 0.3946 0.3252
vn -0.4328 0.5182 -0.7377
vn 0.9850 0.0475 0.1659
vn -0.3625 -0.0078 -0.9320
vn 0.1116 0.9005 -0.4203
vn -0.9721 -0.1325 -0.1938
vn 0.8293 0.4234 -0.3646
vn -0.6924 0.7215 0.0031
s off
f 17/1/1 27/2/1 5/3/1
f 3/4/2 9/5/2 4/6/2
f 1/7/3 7/8/3 2/9/3
f 5/10/4 9/5/4 10/11/4
f 2/9/5 8/12/5 3/4/5
f 6/13/6 29/14/6 7/15/6
f 9/16/7 13/17/7 10/18/7
f 7/15/8 11/19/8 8/20/8
f 1/21/9 28/22/9 6/13/9
f 8/20/10 12/23/10 9/16/10
f 13/17/11 16/24/11 17/1/11
f 30/25/12 42/26/12 38/27/12
f 11/19/13 16/24/13 12/23/13
f 28/28/14 41/29/14 39/30/14
f 16/24/15 22/31/15 17/1/15
f 19/32/16 35/33/16 18/34/16
f 15/35/17 21/36/17 16/24/17
f 20/37/18 34/38/18 36/39/18
f 22/31/19 26/40/19 27/2/19
f 19/41/20 25/42/20 20/43/20
f 1/21/21 18/44/21 14/45/21
f 20/43/22 26/40/22 21/36/22
f 18/44/23 24/46/23 19/41/23
f 27/47/24 4/6/24 5/10/24
f 24/48/25 3/4/25 25/49/25
f 25/49/26 4/6/26 26/50/26
f 23/51/27 2/9/27 24/48/27
f 13/17/1 5/3/1 10/18/1
f 31/52/28 36/39/28 34/38/28
f 31/52/29 35/33/29 32/53/29
f 30/54/30 33/55/30 31/52/30
f 18/34/31 33/55/31 14/56/31
f 19/32/32 36/39/32 32/53/32
f 30/54/33 34/38/33 15/57/33
f 37/58/34 42/26/34 40/59/34
f 37/58/35 41/29/35 38/27/35
f 29/60/36 40/59/36 11/61/36
f 11/61/37 42/26/37 15/62/37
f 30/25/38 41/29/38 14/63/38
f 29/60/39 39/30/39 37/58/39
f 17/1/40 22/31/40 27/2/40
f 3/4/2 8/12/2 9/5/2
f 1/7/3 6/64/3 7/8/3
f 5/10/4 4/6/4 9/5/4
f 2/9/5 7/8/5 8/12/5
f 6/13/6 28/22/6 29/14/6
f 9/16/7 12/23/7 13/17/7
f 7/15/8 29/14/8 11/19/8
f 1/21/21 14/45/21 28/22/21
f 8/20/10 11/19/10 12/23/10
f 13/17/11 12/23/11 16/24/11
f 30/25/41 15/62/41 42/26/41
f 11/19/13 15/35/13 16/24/13
f 28/28/14 14/63/14 41/29/14
f 16/24/15 21/36/15 22/31/15
f 19/32/42 32/53/42 35/33/42
f 15/35/17 20/43/17 21/36/17
f 20/37/18 15/57/18 34/38/18
f 22/31/19 21/36/19 26/40/19
f 19/41/20 24/46/20 25/42/20
f 1/21/9 23/65/9 18/44/9
f 20/43/22 25/42/22 26/40/22
f 18/44/23 23/65/23 24/46/23
f 27/47/24 26/50/24 4/6/24
f 24/48/25 2/9/25 3/4/25
f 25/49/26 3/4/26 4/6/26
f 23/51/27 1/7/27 2/9/27
f 13/17/40 17/1/40 5/3/40
f 31/52/28 32/53/28 36/39/28
f 31/52/29 33/55/29 35/33/29
f 30/54/43 14/56/43 33/55/43
f 18/34/31 35/33/31 33/55/31
f 19/32/44 20/37/44 36/39/44
f 30/54/45 31/52/45 34/38/45
f 37/58/34 38/27/34 42/26/34
f 37/58/46 39/30/46 41/29/46
f 29/60/47 37/58/47 40/59/47
f 11/61/37 40/59/37 42/26/37
f 30/25/48 38/27/48 41/29/48
f 29/60/49 28/28/49 39/30/49
v -0.759972 1.068668 0.214738
v -0.764802 1.044075 0.200831
v -0.762546 1.015538 0.199349
v -0.753808 0.990706 0.210690
v -0.740930 0.976232 0.231815
v -0.732888 1.074373 0.215419
v -0.717891 1.053956 0.202009
v -0.708377 1.026948 0.200710
v -0.706897 1.000587 0.211869
v -0.713846 0.981937 0.232495
v -0.684188 1.040772 0.248565
v -0.685948 1.012559 0.253312
v -0.701751 0.988849 0.256423
v -0.735783 1.082492 0.262593
v -0.714168 1.043185 0.295058
v -0.711911 1.014649 0.293577
v -0.716741 0.990055 0.279669
v -0.762867 1.076787 0.261912
v -0.769816 1.058136 0.282539
v -0.768336 1.031775 0.293698
v -0.758823 1.004768 0.292398
v -0.743825 0.984350 0.278989
v -0.774962 1.069875 0.237985
v -0.790765 1.046165 0.241096
v -0.792525 1.017952 0.245843
v -0.779771 0.992796 0.250955
v -0.755920 0.977438 0.255062
v -0.720793 1.081285 0.239346
v -0.696942 1.065927 0.243453
v -0.722905 1.068017 0.283717
v -0.750819 1.089373 0.319700
v -0.754646 1.088567 0.319604
v -0.745134 1.090396 0.284067
v -0.735294 1.058518 0.313356
v -0.758541 1.087572 0.283731
v -0.756090 1.054138 0.312833
v -0.677752 1.096193 0.276053
v -0.683898 1.096688 0.285583
v -0.694725 1.096628 0.268204
v -0.682107 1.073563 0.277028
v -0.697541 1.096855 0.272571
v -0.684932 1.073790 0.281409
vt 0.274240 0.539347
vt 0.265397 0.539709
vt 0.266768 0.532487
vt 0.231414 0.551290
vt 0.214659 0.541092
vt 0.231357 0.542861
vt 0.231940 0.569242
vt 0.215985 0.562822
vt 0.231472 0.559719
vt 0.230890 0.533338
vt 0.220414 0.530957
vt 0.213134 0.552274
vt 0.289666 0.544440
vt 0.282983 0.540904
vt 0.290637 0.536818
vt 0.279682 0.529141
vt 0.275518 0.536619
vt 0.273707 0.532162
vt 0.280945 0.538772
vt 0.286431 0.530872
vt 0.290637 0.551375
vt 0.284312 0.543753
vt 0.278488 0.537315
vt 0.276318 0.541045
vt 0.804698 0.251197
vt 0.792375 0.255919
vt 0.792638 0.252041
vt 0.786357 0.239035
vt 0.792578 0.249274
vt 0.791489 0.249454
vt 0.271776 0.541127
vt 0.760733 0.199751
vt 0.757502 0.209505
vt 0.750621 0.206121
vt 0.278108 0.542645
vt 0.273009 0.544115
vt 0.772804 0.201934
vt 0.766718 0.213101
vt 0.766203 0.208706
vt 0.264007 0.548518
vt 0.277612 0.547903
vt 0.268747 0.555467
vt 0.275021 0.546378
vt 0.280714 0.548498
vt 0.281954 0.545638
vt 0.276612 0.557409
vt 0.240880 0.530957
vt 0.248168 0.561486
vt 0.249693 0.550306
vt 0.246843 0.539760
vt 0.242415 0.571620
vt 0.762287 0.211045
vt 0.762255 0.210544
vt 0.761023 0.221925
vt 0.757316 0.212491
vt 0.750922 0.216572
vt 0.772804 0.220841
vt 0.791613 0.252007
vt 0.791097 0.255536
vt 0.780068 0.250772
vt 0.780487 0.263708
vt 0.804698 0.264828
vt 0.798786 0.238814
vt 0.221949 0.571626
vt 0.283377 0.553479
vn 0.1985 -0.9638 0.1780
vn 0.1037 -0.3828 -0.9180
vn -0.0843 0.5030 -0.8602
vn 0.1756 -0.7589 -0.6271
vn 0.0139 0.0529 -0.9985
vn 0.5332 0.7019 -0.4723
vn 0.7932 -0.5600 -0.2392
vn 0.8098 0.3092 -0.4986
vn -0.1985 0.9638 -0.1780
vn 0.8995 -0.1265 -0.4182
vn 0.7476 -0.4321 0.5045
vn 0.0873 -0.1825 0.9793
vn 0.8407 0.0384 0.5401
vn -0.2878 0.9287 -0.2338
vn 0.0843 -0.5030 0.8602
vn -0.9339 0.3574 0.0085
vn -0.0139 -0.0529 0.9985
vn 0.1260 -0.6839 0.7186
vn -0.5332 -0.7019 0.4723
vn -0.8995 0.1265 0.4181
vn -0.8098 -0.3092 0.4986
vn -0.7932 0.5600 0.2392
vn -0.4876 -0.8298 -0.2713
vn -0.8407 -0.0384 -0.5401
vn -0.7510 -0.4741 -0.4596
vn -0.7476 0.4321 -0.5045
vn 0.0161 -0.1936 0.9810
vn -0.2060 0.9785 -0.0048
vn 0.7043 0.6975 0.1324
vn -0.1784 0.8957 -0.4074
vn -0.9121 -0.0419 0.4078
vn 0.7472 0.4751 0.4646
vn 0.8294 -0.1362 0.5419
vn 0.0382 0.9989 -0.0272
vn 0.8326 0.3320 -0.4434
vn 0.7281 -0.4751 0.4941
vn -0.4076 0.6182 0.6721
vn 0.3567 0.5706 -0.7397
vn 0.1985 -0.9638 0.1781
vn 0.5332 0.7018 -0.4723
vn 0.8995 -0.1265 -0.4181
vn -0.0075 0.4132 0.9106
vn -0.9312 0.3530 0.0913
vn -0.8995 0.1265 0.4182
vn -0.1985 0.9638 -0.1781
vn 0.7090 0.7035 0.0498
vn -0.8968 0.1288 0.4233
vn 0.8309 0.3252 0.4516
vn 0.8294 -0.1362 0.5418
vn 0.9132 -0.1912 -0.3600
vn -0.5129 0.6622 0.5463
vn 0.4657 0.5348 -0.7051
s off
f 59/66/50 69/67/50 47/68/50
f 45/69/51 51/70/51 46/71/51
f 43/72/52 49/73/52 44/74/52
f 47/75/53 51/70/53 52/76/53
f 44/74/54 50/77/54 45/69/54
f 48/78/55 71/79/55 49/80/55
f 51/81/56 55/82/56 52/83/56
f 49/80/57 53/84/57 50/85/57
f 43/86/58 70/87/58 48/78/58
f 50/85/59 54/88/59 51/81/59
f 55/82/60 58/89/60 59/66/60
f 72/90/61 84/91/61 80/92/61
f 53/84/62 58/89/62 54/88/62
f 70/93/63 83/94/63 81/95/63
f 58/89/64 64/96/64 59/66/64
f 61/97/65 77/98/65 60/99/65
f 57/100/66 63/101/66 58/89/66
f 62/102/67 76/103/67 78/104/67
f 64/96/68 68/105/68 69/67/68
f 61/106/69 67/107/69 62/108/69
f 43/86/58 60/109/58 56/110/58
f 62/108/70 68/105/70 63/101/70
f 60/109/71 66/111/71 61/106/71
f 69/112/72 46/71/72 47/75/72
f 66/113/73 45/69/73 67/114/73
f 67/114/74 46/71/74 68/115/74
f 65/116/75 44/74/75 66/113/75
f 55/82/50 47/68/50 52/83/50
f 73/117/76 78/104/76 76/103/76
f 73/117/77 77/98/77 74/118/77
f 72/119/78 75/120/78 73/117/78
f 60/99/79 75/120/79 56/121/79
f 61/97/80 78/104/80 74/118/80
f 72/119/81 76/103/81 57/122/81
f 79/123/82 84/91/82 82/124/82
f 79/123/83 83/94/83 80/92/83
f 71/125/84 82/124/84 53/126/84
f 53/126/85 84/91/85 57/127/85
f 72/90/86 83/94/86 56/128/86
f 71/125/87 81/95/87 79/123/87
f 59/66/88 64/96/88 69/67/88
f 45/69/51 50/77/51 51/70/51
f 43/72/52 48/129/52 49/73/52
f 47/75/53 46/71/53 51/70/53
f 44/74/54 49/73/54 50/77/54
f 48/78/89 70/87/89 71/79/89
f 51/81/56 54/88/56 55/82/56
f 49/80/57 71/79/57 53/84/57
f 43/86/58 56/110/58 70/87/58
f 50/85/90 53/84/90 54/88/90
f 55/82/60 54/88/60 58/89/60
f 72/90/91 57/127/91 84/91/91
f 53/84/62 57/100/62 58/89/62
f 70/93/63 56/128/63 83/94/63
f 58/89/64 63/101/64 64/96/64
f 61/97/92 74/118/92 77/98/92
f 57/100/66 62/108/66 63/101/66
f 62/102/67 57/122/67 76/103/67
f 64/96/68 63/101/68 68/105/68
f 61/106/93 66/111/93 67/107/93
f 43/86/94 65/130/94 60/109/94
f 62/108/70 67/107/70 68/105/70
f 60/109/71 65/130/71 66/111/71
f 69/112/72 68/115/72 46/71/72
f 66/113/73 44/74/73 45/69/73
f 67/114/74 45/69/74 46/71/74
f 65/116/75 43/72/75 44/74/75
f 55/82/50 59/66/50 47/68/50
f 73/117/76 74/118/76 78/104/76
f 73/117/77 75/120/77 77/98/77
f 72/119/95 56/121/95 75/120/95
f 60/99/79 77/98/79 75/120/79
f 61/97/96 62/102/96 78/104/96
f 72/119/97 73/117/97 76/103/97
f 79/123/98 80/92/98 84/91/98
f 79/123/83 81/95/83 83/94/83
f 71/125/99 79/123/99 82/124/99
f 53/126/85 82/124/85 84/91/85
f 72/90/100 80/92/100 83/94/100
f 71/125/101 70/93/101 81/95/101
