# Blender v2.81 (sub 16) OBJ File: 'garbage.blend'
# www.blender.org
v -0.442731 1.447856 0.025299
v -0.440019 1.429879 0.003139
v -0.440169 1.403202 -0.007347
v -0.443141 1.374975 -0.003350
v -0.448137 1.352760 0.014061
v -0.421862 1.444555 0.043192
v -0.403873 1.424161 0.034130
v -0.398431 1.396601 0.028438
v -0.406994 1.369258 0.027641
v -0.427268 1.349459 0.031953
v -0.408960 1.390811 0.082492
v -0.416113 1.364244 0.074454
v -0.432532 1.346564 0.058981
v -0.453260 1.442066 0.079353
v -0.461227 1.391624 0.100761
v -0.461377 1.364947 0.090275
v -0.458666 1.346970 0.068115
v -0.474129 1.445367 0.061460
v -0.494402 1.425568 0.065772
v -0.502965 1.398225 0.064976
v -0.497524 1.370665 0.059284
v -0.479535 1.350271 0.050222
v -0.468864 1.448262 0.034433
v -0.485284 1.430582 0.018960
v -0.492436 1.404015 0.010921
v -0.488405 1.375679 0.012472
v -0.474270 1.353166 0.023195
v -0.427126 1.441660 0.070219
v -0.412992 1.419147 0.080942
v -0.458256 1.419851 0.096764
v -0.500389 1.439915 0.115531
v -0.503338 1.440381 0.113003
v -0.473288 1.447308 0.092862
v -0.487519 1.408103 0.108071
v -0.483618 1.448942 0.084005
v -0.503542 1.410637 0.094333
v -0.416029 1.433589 0.127086
v -0.426742 1.433756 0.130831
v -0.423992 1.441068 0.111903
v -0.422219 1.413845 0.116893
v -0.428902 1.441144 0.113619
v -0.427143 1.413922 0.118614
vt 0.274240 0.539347
vt 0.265397 0.539709
vt 0.266768 0.532487
vt 0.231414 0.551290
vt 0.214659 0.541092
vt 0.231357 0.542861
vt 0.231940 0.569242
vt 0.215985 0.562822
vt 0.231472 0.559719
vt 0.230890 0.533338
vt 0.220414 0.530957
vt 0.213134 0.552274
vt 0.289666 0.544440
vt 0.282983 0.540904
vt 0.290637 0.536818
vt 0.279682 0.529141
vt 0.275518 0.536619
vt 0.273707 0.532162
vt 0.280945 0.538772
vt 0.286431 0.530872
vt 0.290637 0.551375
vt 0.284312 0.543753
vt 0.278488 0.537315
vt 0.276318 0.541045
vt 0.804698 0.251197
vt 0.792375 0.255919
vt 0.792638 0.252041
vt 0.786357 0.239035
vt 0.792578 0.249274
vt 0.791489 0.249454
vt 0.271776 0.541127
vt 0.760733 0.199751
vt 0.757502 0.209505
vt 0.750621 0.206121
vt 0.278108 0.542645
vt 0.273009 0.544115
vt 0.772804 0.201934
vt 0.766718 0.213101
vt 0.766203 0.208706
vt 0.264007 0.548518
vt 0.277612 0.547903
vt 0.268747 0.555467
vt 0.275021 0.546378
vt 0.280714 0.548498
vt 0.281954 0.545638
vt 0.276612 0.557409
vt 0.240880 0.530957
vt 0.248168 0.561486
vt 0.249693 0.550306
vt 0.246843 0.539760
vt 0.242415 0.571620
vt 0.762287 0.211045
vt 0.762255 0.210544
vt 0.761023 0.221925
vt 0.757316 0.212491
vt 0.750922 0.216572
vt 0.772804 0.220841
vt 0.791613 0.252007
vt 0.791097 0.255536
vt 0.780068 0.250772
vt 0.780487 0.263708
vt 0.804698 0.264828
vt 0.798786 0.238814
vt 0.221949 0.571626
vt 0.283377 0.553479
vn -0.0564 -0.9915 -0.1172
vn 0.6251 -0.1736 -0.7610
vn 0.5318 0.6883 -0.4933
vn 0.4580 -0.6099 -0.6467
vn 0.6505 0.2747 -0.7081
vn 0.7778 0.5907 0.2148
vn 0.7040 -0.7075 0.0613
vn 0.9675 0.1488 0.2044
vn 0.0564 0.9915 0.1172
vn 0.9420 -0.2994 0.1514
vn 0.2091 -0.7468 0.6314
vn -0.5736 -0.4211 0.7025
vn 0.3042 -0.3500 0.8860
vn 0.0200 0.9997 0.0127
vn -0.5318 -0.6883 0.4933
vn -0.6852 0.6175 -0.3863
vn -0.6505 -0.2747 0.7081
vn -0.4278 -0.8355 0.3448
vn -0.7778 -0.5907 -0.2148
vn -0.9420 0.2994 -0.1514
vn -0.9675 -0.1488 -0.2044
vn -0.7040 0.7075 -0.0613
vn -0.2829 -0.5514 -0.7848
vn -0.3042 0.3500 -0.8860
vn -0.3297 -0.0983 -0.9390
vn -0.2091 0.7468 -0.6314
vn -0.6303 -0.4097 0.6595
vn -0.0580 0.9675 0.2462
vn 0.5240 0.3942 0.7550
vn 0.2108 0.9753 -0.0659
vn -0.9617 0.1504 -0.2291
vn 0.3238 0.0992 0.9409
vn 0.2772 -0.5079 0.8156
vn 0.1452 0.9156 0.3748
vn 0.9521 0.1500 0.2665
vn 0.1965 -0.7781 0.5967
vn -0.6781 0.5417 0.4966
vn 0.7997 0.5860 -0.1308
vn 0.6250 -0.1736 -0.7610
vn 0.7040 -0.7075 0.0614
vn -0.5436 0.1735 0.8212
vn -0.7361 0.5935 -0.3254
vn -0.7040 0.7075 -0.0614
vn 0.5807 0.4173 0.6991
vn -0.9430 0.2995 -0.1452
vn 0.3813 -0.0620 0.9224
vn 0.1452 0.9157 0.3748
vn 0.9091 -0.3768 0.1778
vn -0.6745 0.6440 0.3611
vn 0.8576 0.5112 -0.0572
s off
f 17/1/1 27/2/1 5/3/1
f 3/4/2 9/5/2 4/6/2
f 1/7/3 7/8/3 2/9/3
f 5/10/4 9/5/4 10/11/4
f 2/9/5 8/12/5 3/4/5
f 6/13/6 29/14/6 7/15/6
f 9/16/7 13/17/7 10/18/7
f 7/15/8 11/19/8 8/20/8
f 1/21/9 28/22/9 6/13/9
f 8/20/10 12/23/10 9/16/10
f 13/17/11 16/24/11 17/1/11
f 30/25/12 42/26/12 38/27/12
f 11/19/13 16/24/13 12/23/13
f 28/28/14 41/29/14 39/30/14
f 16/24/15 22/31/15 17/1/15
f 19/32/16 35/33/16 18/34/16
f 15/35/17 21/36/17 16/24/17
f 20/37/18 34/38/18 36/39/18
f 22/31/19 26/40/19 27/2/19
f 19/41/20 25/42/20 20/43/20
f 1/21/9 18/44/9 14/45/9
f 20/43/21 26/40/21 21/36/21
f 18/44/22 24/46/22 19/41/22
f 27/47/23 4/6/23 5/10/23
f 24/48/24 3/4/24 25/49/24
f 25/49/25 4/6/25 26/50/25
f 23/51/26 2/9/26 24/48/26
f 13/17/1 5/3/1 10/18/1
f 31/52/27 36/39/27 34/38/27
f 31/52/28 35/33/28 32/53/28
f 30/54/29 33/55/29 31/52/29
f 18/34/30 33/55/30 14/56/30
f 19/32/31 36/39/31 32/53/31
f 30/54/32 34/38/32 15/57/32
f 37/58/33 42/26/33 40/59/33
f 37/58/34 41/29/34 38/27/34
f 29/60/35 40/59/35 11/61/35
f 11/61/36 42/26/36 15/62/36
f 30/25/37 41/29/37 14/63/37
f 29/60/38 39/30/38 37/58/38
f 17/1/1 22/31/1 27/2/1
f 3/4/39 8/12/39 9/5/39
f 1/7/3 6/64/3 7/8/3
f 5/10/4 4/6/4 9/5/4
f 2/9/5 7/8/5 8/12/5
f 6/13/6 28/22/6 29/14/6
f 9/16/40 12/23/40 13/17/40
f 7/15/8 29/14/8 11/19/8
f 1/21/9 14/45/9 28/22/9
f 8/20/10 11/19/10 12/23/10
f 13/17/11 12/23/11 16/24/11
f 30/25/41 15/62/41 42/26/41
f 11/19/13 15/35/13 16/24/13
f 28/28/14 14/63/14 41/29/14
f 16/24/15 21/36/15 22/31/15
f 19/32/42 32/53/42 35/33/42
f 15/35/17 20/43/17 21/36/17
f 20/37/18 15/57/18 34/38/18
f 22/31/19 21/36/19 26/40/19
f 19/41/20 24/46/20 25/42/20
f 1/21/9 23/65/9 18/44/9
f 20/43/21 25/42/21 26/40/21
f 18/44/43 23/65/43 24/46/43
f 27/47/23 26/50/23 4/6/23
f 24/48/24 2/9/24 3/4/24
f 25/49/25 3/4/25 4/6/25
f 23/51/26 1/7/26 2/9/26
f 13/17/1 17/1/1 5/3/1
f 31/52/27 32/53/27 36/39/27
f 31/52/28 33/55/28 35/33/28
f 30/54/44 14/56/44 33/55/44
f 18/34/30 35/33/30 33/55/30
f 19/32/45 20/37/45 36/39/45
f 30/54/46 31/52/46 34/38/46
f 37/58/33 38/27/33 42/26/33
f 37/58/47 39/30/47 41/29/47
f 29/60/48 37/58/48 40/59/48
f 11/61/36 40/59/36 42/26/36
f 30/25/49 38/27/49 41/29/49
f 29/60/50 28/28/50 39/30/50
v 0.830567 0.881420 -1.470874
v 0.841464 0.860401 -1.454717
v 0.840549 0.833370 -1.445227
v 0.828066 0.807569 -1.444947
v 0.807360 0.789912 -1.453951
v 0.805924 0.889468 -1.461150
v 0.798782 0.874340 -1.437875
v 0.791264 0.849465 -1.425779
v 0.785384 0.821508 -1.428105
v 0.782717 0.797959 -1.444228
v 0.748093 0.854057 -1.460151
v 0.747997 0.825485 -1.457872
v 0.761132 0.800255 -1.461414
v 0.787396 0.886012 -1.505246
v 0.754207 0.842554 -1.513971
v 0.753291 0.815523 -1.504481
v 0.764189 0.794504 -1.488324
v 0.812038 0.877965 -1.514970
v 0.809372 0.854416 -1.531093
v 0.803492 0.826459 -1.533418
v 0.795973 0.801584 -1.521323
v 0.788831 0.786456 -1.498047
v 0.833624 0.875669 -1.497784
v 0.846759 0.850439 -1.501326
v 0.846663 0.821867 -1.499046
v 0.833360 0.797607 -1.491556
v 0.810417 0.784160 -1.480861
v 0.784339 0.891764 -1.478336
v 0.761395 0.878317 -1.467642
v 0.766690 0.868355 -1.514251
v 0.775337 0.877834 -1.562886
v 0.778819 0.876697 -1.564260
v 0.786088 0.887713 -1.529873
v 0.764741 0.851013 -1.542845
v 0.798286 0.883729 -1.534686
v 0.783662 0.844834 -1.550311
v 0.729233 0.901880 -1.495162
v 0.730486 0.899522 -1.506194
v 0.747916 0.902451 -1.495854
v 0.733051 0.879331 -1.492162
v 0.748490 0.901370 -1.500910
v 0.733627 0.878247 -1.497233
vt 0.274240 0.539347
vt 0.265397 0.539709
vt 0.266768 0.532487
vt 0.231414 0.551290
vt 0.214659 0.541092
vt 0.231357 0.542861
vt 0.231940 0.569242
vt 0.215985 0.562822
vt 0.231472 0.559719
vt 0.230890 0.533338
vt 0.220414 0.530957
vt 0.213134 0.552274
vt 0.289666 0.544440
vt 0.282983 0.540904
vt 0.290637 0.536818
vt 0.279682 0.529141
vt 0.275518 0.536619
vt 0.273707 0.532162
vt 0.280945 0.538772
vt 0.286431 0.530872
vt 0.290637 0.551375
vt 0.284312 0.543753
vt 0.278488 0.537315
vt 0.276318 0.541045
vt 0.804698 0.251197
vt 0.792375 0.255919
vt 0.792638 0.252041
vt 0.786357 0.239035
vt 0.792578 0.249274
vt 0.791489 0.249454
vt 0.271776 0.541127
vt 0.760733 0.199751
vt 0.757502 0.209505
vt 0.750621 0.206121
vt 0.278108 0.542645
vt 0.273009 0.544115
vt 0.772804 0.201934
vt 0.766718 0.213101
vt 0.766203 0.208706
vt 0.264007 0.548518
vt 0.277612 0.547903
vt 0.268747 0.555467
vt 0.275021 0.546378
vt 0.280714 0.548498
vt 0.281954 0.545638
vt 0.276612 0.557409
vt 0.240880 0.530957
vt 0.248168 0.561486
vt 0.249693 0.550306
vt 0.246843 0.539760
vt 0.242415 0.571620
vt 0.762287 0.211045
vt 0.762255 0.210544
vt 0.761023 0.221925
vt 0.757316 0.212491
vt 0.750922 0.216572
vt 0.772804 0.220841
vt 0.791613 0.252007
vt 0.791097 0.255536
vt 0.780068 0.250772
vt 0.780487 0.263708
vt 0.804698 0.264828
vt 0.798786 0.238814
vt 0.221949 0.571626
vt 0.283377 0.553479
vn -0.2420 -0.9541 0.1764
vn 0.3217 -0.1455 0.9356
vn 0.4505 0.6791 0.5796
vn 0.1337 -0.5701 0.8106
vn 0.4311 0.2859 0.8558
vn -0.2782 0.8421 0.4620
vn -0.5950 -0.4071 0.6930
vn -0.5080 0.4960 0.7043
vn 0.2420 0.9541 -0.1764
vn -0.6174 0.0646 0.7840
vn -0.8871 -0.4616 -0.0021
vn -0.5111 -0.3966 -0.7625
vn -0.9937 -0.0056 -0.1117
vn 0.3473 0.9243 -0.1581
vn -0.4505 -0.6791 -0.5796
vn 0.8268 0.2510 -0.5033
vn -0.4311 -0.2859 -0.8558
vn -0.4220 -0.8169 -0.3933
vn 0.2782 -0.8421 -0.4619
vn 0.6174 -0.0646 -0.7840
vn 0.5080 -0.4960 -0.7043
vn 0.5950 0.4071 -0.6930
vn 0.5703 -0.7877 0.2331
vn 0.9937 0.0056 0.1117
vn 0.8843 -0.4258 0.1915
vn 0.8871 0.4616 0.0021
vn -0.4480 -0.4148 -0.7920
vn 0.1713 0.9272 -0.3332
vn -0.7004 0.7136 0.0146
vn 0.3271 0.9438 0.0478
vn 0.6359 -0.2264 -0.7378
vn -0.8832 0.4252 -0.1977
vn -0.9816 -0.1760 -0.0739
vn -0.0377 0.9763 -0.2130
vn -0.5533 0.5074 0.6606
vn -0.8644 -0.5027 0.0093
vn 0.0562 0.4005 -0.9146
vn 0.0009 0.7601 0.6498
vn -0.4050 0.1862 -0.8951
vn 0.7876 0.2277 -0.5726
vn 0.2782 -0.8421 -0.4620
vn -0.6679 0.7392 0.0865
vn 0.6125 -0.0633 -0.7879
vn -0.9500 0.2915 -0.1121
vn -0.6544 -0.0102 0.7561
vn 0.2058 0.4620 -0.8627
vn -0.1116 0.7282 0.6762
s off
f 59/66/51 69/67/51 47/68/51
f 45/69/52 51/70/52 46/71/52
f 43/72/53 49/73/53 44/74/53
f 47/75/54 51/70/54 52/76/54
f 44/74/55 50/77/55 45/69/55
f 48/78/56 71/79/56 49/80/56
f 51/81/57 55/82/57 52/83/57
f 49/80/58 53/84/58 50/85/58
f 43/86/59 70/87/59 48/78/59
f 50/85/60 54/88/60 51/81/60
f 55/82/61 58/89/61 59/66/61
f 72/90/62 84/91/62 80/92/62
f 53/84/63 58/89/63 54/88/63
f 70/93/64 83/94/64 81/95/64
f 58/89/65 64/96/65 59/66/65
f 61/97/66 77/98/66 60/99/66
f 57/100/67 63/101/67 58/89/67
f 62/102/68 76/103/68 78/104/68
f 64/96/69 68/105/69 69/67/69
f 61/106/70 67/107/70 62/108/70
f 43/86/59 60/109/59 56/110/59
f 62/108/71 68/105/71 63/101/71
f 60/109/72 66/111/72 61/106/72
f 69/112/73 46/71/73 47/75/73
f 66/113/74 45/69/74 67/114/74
f 67/114/75 46/71/75 68/115/75
f 65/116/76 44/74/76 66/113/76
f 55/82/51 47/68/51 52/83/51
f 73/117/77 78/104/77 76/103/77
f 73/117/78 77/98/78 74/118/78
f 72/119/79 75/120/79 73/117/79
f 60/99/80 75/120/80 56/121/80
f 61/97/81 78/104/81 74/118/81
f 72/119/82 76/103/82 57/122/82
f 79/123/83 84/91/83 82/124/83
f 79/123/84 83/94/84 80/92/84
f 71/125/85 82/124/85 53/126/85
f 53/126/86 84/91/86 57/127/86
f 72/90/87 83/94/87 56/128/87
f 71/125/88 81/95/88 79/123/88
f 59/66/51 64/96/51 69/67/51
f 45/69/52 50/77/52 51/70/52
f 43/72/53 48/129/53 49/73/53
f 47/75/54 46/71/54 51/70/54
f 44/74/55 49/73/55 50/77/55
f 48/78/56 70/87/56 71/79/56
f 51/81/57 54/88/57 55/82/57
f 49/80/58 71/79/58 53/84/58
f 43/86/59 56/110/59 70/87/59
f 50/85/60 53/84/60 54/88/60
f 55/82/61 54/88/61 58/89/61
f 72/90/89 57/127/89 84/91/89
f 53/84/63 57/100/63 58/89/63
f 70/93/64 56/128/64 83/94/64
f 58/89/65 63/101/65 64/96/65
f 61/97/90 74/118/90 77/98/90
f 57/100/67 62/108/67 63/101/67
f 62/102/68 57/122/68 76/103/68
f 64/96/91 63/101/91 68/105/91
f 61/106/70 66/111/70 67/107/70
f 43/86/59 65/130/59 60/109/59
f 62/108/71 67/107/71 68/105/71
f 60/109/72 65/130/72 66/111/72
f 69/112/73 68/115/73 46/71/73
f 66/113/74 44/74/74 45/69/74
f 67/114/75 45/69/75 46/71/75
f 65/116/76 43/72/76 44/74/76
f 55/82/51 59/66/51 47/68/51
f 73/117/77 74/118/77 78/104/77
f 73/117/78 75/120/78 77/98/78
f 72/119/92 56/121/92 75/120/92
f 60/99/80 77/98/80 75/120/80
f 61/97/93 62/102/93 78/104/93
f 72/119/94 73/117/94 76/103/94
f 79/123/83 80/92/83 84/91/83
f 79/123/84 81/95/84 83/94/84
f 71/125/95 79/123/95 82/124/95
f 53/126/86 82/124/86 84/91/86
f 72/90/96 80/92/96 83/94/96
f 71/125/97 70/93/97 81/95/97
