# Blender v2.81 (sub 16) OBJ File: 'garbage.blend'
# www.blender.org
v 0.010421 1.462191 0.604659
v 0.000102 1.443515 0.623799
v -0.005916 1.416544 0.631413
v -0.006020 1.388506 0.625461
v -0.000183 1.366912 0.607537
v -0.005892 1.463332 0.582318
v -0.028153 1.445491 0.585102
v -0.038542 1.418826 0.586730
v -0.034275 1.390481 0.586764
v -0.016496 1.368053 0.585196
v -0.016473 1.414840 0.536101
v -0.015163 1.387030 0.542918
v -0.005461 1.366060 0.559881
v 0.032490 1.458205 0.554030
v 0.038223 1.408573 0.530155
v 0.032205 1.381603 0.537768
v 0.021886 1.362927 0.556908
v 0.048803 1.457065 0.576372
v 0.066583 1.434636 0.574804
v 0.070849 1.406292 0.574838
v 0.060460 1.379627 0.576465
v 0.038200 1.361786 0.579250
v 0.037769 1.459057 0.601686
v 0.047470 1.438088 0.618650
v 0.048780 1.410277 0.625467
v 0.041348 1.383078 0.620311
v 0.027165 1.363779 0.604564
v 0.005142 1.461339 0.557003
v -0.009041 1.442039 0.541256
v 0.038327 1.436612 0.536107
v 0.086056 1.450942 0.529279
v 0.088361 1.450781 0.532436
v 0.055665 1.461070 0.545918
v 0.067516 1.421143 0.530547
v 0.063740 1.460505 0.556977
v 0.080041 1.420268 0.547701
v 0.006756 1.458677 0.498587
v 0.017968 1.457392 0.497368
v 0.011872 1.463849 0.515819
v 0.007576 1.437608 0.507940
v 0.017010 1.463261 0.515260
v 0.012729 1.437018 0.507380
vt 0.274240 0.539347
vt 0.265397 0.539709
vt 0.266768 0.532487
vt 0.231414 0.551290
vt 0.214659 0.541092
vt 0.231357 0.542861
vt 0.231940 0.569242
vt 0.215985 0.562822
vt 0.231472 0.559719
vt 0.230890 0.533338
vt 0.220414 0.530957
vt 0.213134 0.552274
vt 0.289666 0.544440
vt 0.282983 0.540904
vt 0.290637 0.536818
vt 0.279682 0.529141
vt 0.275518 0.536619
vt 0.273707 0.532162
vt 0.280945 0.538772
vt 0.286431 0.530872
vt 0.290637 0.551375
vt 0.284312 0.543753
vt 0.278488 0.537315
vt 0.276318 0.541045
vt 0.804698 0.251197
vt 0.792375 0.255919
vt 0.792638 0.252041
vt 0.786357 0.239035
vt 0.792578 0.249274
vt 0.791489 0.249454
vt 0.271776 0.541127
vt 0.760733 0.199751
vt 0.757502 0.209505
vt 0.750621 0.206121
vt 0.278108 0.542645
vt 0.273009 0.544115
vt 0.772804 0.201934
vt 0.766718 0.213101
vt 0.766203 0.208706
vt 0.264007 0.548518
vt 0.277612 0.547903
vt 0.268747 0.555467
vt 0.275021 0.546378
vt 0.280714 0.548498
vt 0.281954 0.545638
vt 0.276612 0.557409
vt 0.240880 0.530957
vt 0.248168 0.561486
vt 0.249693 0.550306
vt 0.246843 0.539760
vt 0.242415 0.571620
vt 0.762287 0.211045
vt 0.762255 0.210544
vt 0.761023 0.221925
vt 0.757316 0.212491
vt 0.750922 0.216572
vt 0.772804 0.220841
vt 0.791613 0.252007
vt 0.791097 0.255536
vt 0.780068 0.250772
vt 0.780487 0.263708
vt 0.804698 0.264828
vt 0.798786 0.238814
vt 0.221949 0.571626
vt 0.283377 0.553479
vn -0.1106 -0.9934 0.0300
vn -0.8047 -0.1204 0.5814
vn -0.5327 0.7312 0.4263
vn -0.6774 -0.5695 0.4655
vn -0.7547 0.3287 0.5678
vn -0.6159 0.7177 -0.3250
vn -0.7606 -0.5830 -0.2857
vn -0.8619 0.3114 -0.4002
vn 0.1106 0.9934 -0.0300
vn -0.9119 -0.1377 -0.3867
vn -0.1556 -0.6638 -0.7316
vn 0.6592 -0.4613 -0.5939
vn -0.1322 -0.2419 -0.9613
vn 0.1221 0.9893 0.0802
vn 0.5327 -0.7312 -0.4263
vn 0.6534 0.4769 0.5879
vn 0.7547 -0.3287 -0.5678
vn 0.3773 -0.8691 -0.3198
vn 0.6159 -0.7177 0.3250
vn 0.9119 0.1377 0.3867
vn 0.8619 -0.3114 0.4002
vn 0.7606 0.5830 0.2857
vn 0.0108 -0.6369 0.7709
vn 0.1322 0.2419 0.9613
vn 0.0822 -0.2072 0.9748
vn 0.1556 0.6638 0.7316
vn 0.7051 -0.4616 -0.5384
vn 0.2477 0.9598 -0.1318
vn -0.2715 0.5179 -0.8112
vn -0.0834 0.9903 0.1114
vn 0.8919 -0.0171 0.4519
vn -0.0759 0.2073 -0.9753
vn -0.1446 -0.4062 -0.9023
vn 0.0753 0.9487 -0.3071
vn -0.8323 0.3140 -0.4569
vn -0.1560 -0.6988 -0.6981
vn 0.8443 0.4585 -0.2774
vn -0.7190 0.6950 0.0048
vn -0.5327 0.7311 0.4263
vn -0.6774 -0.5695 0.4656
vn 0.7405 0.1369 -0.6579
vn 0.1221 0.9893 0.0803
vn 0.7135 0.4490 0.5379
vn 0.3772 -0.8691 -0.3198
vn 0.2477 0.9598 -0.1319
vn -0.3361 0.5461 -0.7674
vn 0.9143 0.1381 0.3808
vn -0.1579 0.0563 -0.9858
vn -0.8847 -0.2175 -0.4123
vn -0.1560 -0.6988 -0.6982
vn 0.8230 0.5513 -0.1368
vn -0.7677 0.6349 -0.0867
s off
f 17/1/1 27/2/1 5/3/1
f 3/4/2 9/5/2 4/6/2
f 1/7/3 7/8/3 2/9/3
f 5/10/4 9/5/4 10/11/4
f 2/9/5 8/12/5 3/4/5
f 6/13/6 29/14/6 7/15/6
f 9/16/7 13/17/7 10/18/7
f 7/15/8 11/19/8 8/20/8
f 1/21/9 28/22/9 6/13/9
f 8/20/10 12/23/10 9/16/10
f 13/17/11 16/24/11 17/1/11
f 30/25/12 42/26/12 38/27/12
f 11/19/13 16/24/13 12/23/13
f 28/28/14 41/29/14 39/30/14
f 16/24/15 22/31/15 17/1/15
f 19/32/16 35/33/16 18/34/16
f 15/35/17 21/36/17 16/24/17
f 20/37/18 34/38/18 36/39/18
f 22/31/19 26/40/19 27/2/19
f 19/41/20 25/42/20 20/43/20
f 1/21/9 18/44/9 14/45/9
f 20/43/21 26/40/21 21/36/21
f 18/44/22 24/46/22 19/41/22
f 27/47/23 4/6/23 5/10/23
f 24/48/24 3/4/24 25/49/24
f 25/49/25 4/6/25 26/50/25
f 23/51/26 2/9/26 24/48/26
f 13/17/1 5/3/1 10/18/1
f 31/52/27 36/39/27 34/38/27
f 31/52/28 35/33/28 32/53/28
f 30/54/29 33/55/29 31/52/29
f 18/34/30 33/55/30 14/56/30
f 19/32/31 36/39/31 32/53/31
f 30/54/32 34/38/32 15/57/32
f 37/58/33 42/26/33 40/59/33
f 37/58/34 41/29/34 38/27/34
f 29/60/35 40/59/35 11/61/35
f 11/61/36 42/26/36 15/62/36
f 30/25/37 41/29/37 14/63/37
f 29/60/38 39/30/38 37/58/38
f 17/1/1 22/31/1 27/2/1
f 3/4/2 8/12/2 9/5/2
f 1/7/39 6/64/39 7/8/39
f 5/10/40 4/6/40 9/5/40
f 2/9/5 7/8/5 8/12/5
f 6/13/6 28/22/6 29/14/6
f 9/16/7 12/23/7 13/17/7
f 7/15/8 29/14/8 11/19/8
f 1/21/9 14/45/9 28/22/9
f 8/20/10 11/19/10 12/23/10
f 13/17/11 12/23/11 16/24/11
f 30/25/41 15/62/41 42/26/41
f 11/19/13 15/35/13 16/24/13
f 28/28/42 14/63/42 41/29/42
f 16/24/15 21/36/15 22/31/15
f 19/32/43 32/53/43 35/33/43
f 15/35/17 20/43/17 21/36/17
f 20/37/44 15/57/44 34/38/44
f 22/31/19 21/36/19 26/40/19
f 19/41/20 24/46/20 25/42/20
f 1/21/9 23/65/9 18/44/9
f 20/43/21 25/42/21 26/40/21
f 18/44/22 23/65/22 24/46/22
f 27/47/23 26/50/23 4/6/23
f 24/48/24 2/9/24 3/4/24
f 25/49/25 3/4/25 4/6/25
f 23/51/26 1/7/26 2/9/26
f 13/17/1 17/1/1 5/3/1
f 31/52/27 32/53/27 36/39/27
f 31/52/45 33/55/45 35/33/45
f 30/54/46 14/56/46 33/55/46
f 18/34/30 35/33/30 33/55/30
f 19/32/47 20/37/47 36/39/47
f 30/54/48 31/52/48 34/38/48
f 37/58/33 38/27/33 42/26/33
f 37/58/34 39/30/34 41/29/34
f 29/60/49 37/58/49 40/59/49
f 11/61/50 40/59/50 42/26/50
f 30/25/51 38/27/51 41/29/51
f 29/60/52 28/28/52 39/30/52
v -0.848258 1.391896 -0.505828
v -0.836729 1.378465 -0.528373
v -0.830399 1.354186 -0.542232
v -0.830961 1.325565 -0.543690
v -0.838267 1.300271 -0.532357
v -0.833604 1.386851 -0.482885
v -0.811349 1.369727 -0.488634
v -0.801092 1.344096 -0.496345
v -0.805581 1.316827 -0.503951
v -0.823614 1.295226 -0.509413
v -0.826820 1.327891 -0.450066
v -0.827862 1.302793 -0.463872
v -0.836477 1.287124 -0.486274
v -0.873985 1.375692 -0.459549
v -0.881853 1.321777 -0.449674
v -0.875522 1.297498 -0.463532
v -0.863994 1.284066 -0.486078
v -0.888638 1.380737 -0.482492
v -0.906671 1.359136 -0.487954
v -0.911160 1.331867 -0.495560
v -0.900903 1.306236 -0.503271
v -0.878647 1.289112 -0.509021
v -0.875774 1.388839 -0.505632
v -0.884390 1.373170 -0.528033
v -0.885432 1.348072 -0.541839
v -0.878622 1.320270 -0.543350
v -0.865784 1.297214 -0.532160
v -0.846468 1.378749 -0.459745
v -0.833630 1.355693 -0.448556
v -0.881291 1.350398 -0.448216
v -0.929268 1.363776 -0.441206
v -0.931339 1.364489 -0.444448
v -0.897664 1.377005 -0.452573
v -0.910934 1.334808 -0.448820
v -0.904917 1.379503 -0.463930
v -0.922185 1.338681 -0.466436
v -0.852350 1.361285 -0.404224
v -0.863631 1.360032 -0.404143
v -0.856155 1.370826 -0.419856
v -0.852663 1.343338 -0.418709
v -0.861325 1.370252 -0.419819
v -0.857848 1.342762 -0.418672
vt 0.274240 0.539347
vt 0.265397 0.539709
vt 0.266768 0.532487
vt 0.231414 0.551290
vt 0.214659 0.541092
vt 0.231357 0.542861
vt 0.231940 0.569242
vt 0.215985 0.562822
vt 0.231472 0.559719
vt 0.230890 0.533338
vt 0.220414 0.530957
vt 0.213134 0.552274
vt 0.289666 0.544440
vt 0.282983 0.540904
vt 0.290637 0.536818
vt 0.279682 0.529141
vt 0.275518 0.536619
vt 0.273707 0.532162
vt 0.280945 0.538772
vt 0.286431 0.530872
vt 0.290637 0.551375
vt 0.284312 0.543753
vt 0.278488 0.537315
vt 0.276318 0.541045
vt 0.804698 0.251197
vt 0.792375 0.255919
vt 0.792638 0.252041
vt 0.786357 0.239035
vt 0.792578 0.249274
vt 0.791489 0.249454
vt 0.271776 0.541127
vt 0.760733 0.199751
vt 0.757502 0.209505
vt 0.750621 0.206121
vt 0.278108 0.542645
vt 0.273009 0.544115
vt 0.772804 0.201934
vt 0.766718 0.213101
vt 0.766203 0.208706
vt 0.264007 0.548518
vt 0.277612 0.547903
vt 0.268747 0.555467
vt 0.275021 0.546378
vt 0.280714 0.548498
vt 0.281954 0.545638
vt 0.276612 0.557409
vt 0.240880 0.530957
vt 0.248168 0.561486
vt 0.249693 0.550306
vt 0.246843 0.539760
vt 0.242415 0.571620
vt 0.762287 0.211045
vt 0.762255 0.210544
vt 0.761023 0.221925
vt 0.757316 0.212491
vt 0.750922 0.216572
vt 0.772804 0.220841
vt 0.791613 0.252007
vt 0.791097 0.255536
vt 0.780068 0.250772
vt 0.780487 0.263708
vt 0.804698 0.264828
vt 0.798786 0.238814
vt 0.221949 0.571626
vt 0.283377 0.553479
vn 0.1042 -0.9553 -0.2766
vn 0.8438 0.0107 -0.5365
vn 0.5683 0.8013 -0.1868
vn 0.7047 -0.4495 -0.5489
vn 0.7967 0.4426 -0.4115
vn 0.5965 0.5941 0.5396
vn 0.7329 -0.6567 0.1775
vn 0.8331 0.1756 0.5246
vn -0.1042 0.9553 0.2766
vn 0.8802 -0.2563 0.3995
vn 0.0964 -0.8327 0.5453
vn -0.7045 -0.5800 0.4091
vn 0.0599 -0.4830 0.8736
vn -0.1076 0.9798 0.1685
vn -0.5683 -0.8013 0.1868
vn -0.6050 0.6286 -0.4888
vn -0.7967 -0.4426 0.4115
vn -0.4067 -0.9116 0.0593
vn -0.5965 -0.5941 -0.5396
vn -0.8802 0.2563 -0.3995
vn -0.8331 -0.1756 -0.5246
vn -0.7329 0.6567 -0.1775
vn 0.0400 -0.4182 -0.9075
vn -0.0599 0.4830 -0.8736
vn -0.0128 0.0511 -0.9986
vn -0.0964 0.8327 -0.5453
vn -0.7462 -0.5649 0.3524
vn -0.2486 0.9005 0.3568
vn 0.2161 0.2859 0.9336
vn 0.0995 0.9833 0.1527
vn -0.8567 0.1229 -0.5009
vn 0.0065 -0.0510 0.9987
vn 0.0752 -0.6271 0.7753
vn -0.0896 0.8403 0.5347
vn 0.7994 0.1644 0.5779
vn 0.0989 -0.8579 0.5042
vn -0.8584 0.3947 0.3276
vn 0.7232 0.6537 0.2229
vn -0.7853 -0.0161 0.6190
vn -0.1077 0.9798 0.1685
vn -0.6687 0.5905 -0.4518
vn 0.2839 0.3226 0.9030
vn 0.0995 0.9833 0.1526
vn -0.8830 0.2552 -0.3940
vn 0.0863 -0.2018 0.9756
vn -0.0895 0.8403 0.5347
vn 0.8505 -0.3392 0.4019
vn -0.8261 0.5198 0.2174
vn 0.7646 0.5709 0.2991
s off
f 59/66/53 69/67/53 47/68/53
f 45/69/54 51/70/54 46/71/54
f 43/72/55 49/73/55 44/74/55
f 47/75/56 51/70/56 52/76/56
f 44/74/57 50/77/57 45/69/57
f 48/78/58 71/79/58 49/80/58
f 51/81/59 55/82/59 52/83/59
f 49/80/60 53/84/60 50/85/60
f 43/86/61 70/87/61 48/78/61
f 50/85/62 54/88/62 51/81/62
f 55/82/63 58/89/63 59/66/63
f 72/90/64 84/91/64 80/92/64
f 53/84/65 58/89/65 54/88/65
f 70/93/66 83/94/66 81/95/66
f 58/89/67 64/96/67 59/66/67
f 61/97/68 77/98/68 60/99/68
f 57/100/69 63/101/69 58/89/69
f 62/102/70 76/103/70 78/104/70
f 64/96/71 68/105/71 69/67/71
f 61/106/72 67/107/72 62/108/72
f 43/86/61 60/109/61 56/110/61
f 62/108/73 68/105/73 63/101/73
f 60/109/74 66/111/74 61/106/74
f 69/112/75 46/71/75 47/75/75
f 66/113/76 45/69/76 67/114/76
f 67/114/77 46/71/77 68/115/77
f 65/116/78 44/74/78 66/113/78
f 55/82/53 47/68/53 52/83/53
f 73/117/79 78/104/79 76/103/79
f 73/117/80 77/98/80 74/118/80
f 72/119/81 75/120/81 73/117/81
f 60/99/82 75/120/82 56/121/82
f 61/97/83 78/104/83 74/118/83
f 72/119/84 76/103/84 57/122/84
f 79/123/85 84/91/85 82/124/85
f 79/123/86 83/94/86 80/92/86
f 71/125/87 82/124/87 53/126/87
f 53/126/88 84/91/88 57/127/88
f 72/90/89 83/94/89 56/128/89
f 71/125/90 81/95/90 79/123/90
f 59/66/53 64/96/53 69/67/53
f 45/69/54 50/77/54 51/70/54
f 43/72/55 48/129/55 49/73/55
f 47/75/56 46/71/56 51/70/56
f 44/74/57 49/73/57 50/77/57
f 48/78/58 70/87/58 71/79/58
f 51/81/59 54/88/59 55/82/59
f 49/80/60 71/79/60 53/84/60
f 43/86/61 56/110/61 70/87/61
f 50/85/62 53/84/62 54/88/62
f 55/82/63 54/88/63 58/89/63
f 72/90/91 57/127/91 84/91/91
f 53/84/65 57/100/65 58/89/65
f 70/93/92 56/128/92 83/94/92
f 58/89/67 63/101/67 64/96/67
f 61/97/93 74/118/93 77/98/93
f 57/100/69 62/108/69 63/101/69
f 62/102/70 57/122/70 76/103/70
f 64/96/71 63/101/71 68/105/71
f 61/106/72 66/111/72 67/107/72
f 43/86/61 65/130/61 60/109/61
f 62/108/73 67/107/73 68/105/73
f 60/109/74 65/130/74 66/111/74
f 69/112/75 68/115/75 46/71/75
f 66/113/76 44/74/76 45/69/76
f 67/114/77 45/69/77 46/71/77
f 65/116/78 43/72/78 44/74/78
f 55/82/53 59/66/53 47/68/53
f 73/117/79 74/118/79 78/104/79
f 73/117/80 75/120/80 77/98/80
f 72/119/94 56/121/94 75/120/94
f 60/99/95 77/98/95 75/120/95
f 61/97/96 62/102/96 78/104/96
f 72/119/97 73/117/97 76/103/97
f 79/123/85 80/92/85 84/91/85
f 79/123/98 81/95/98 83/94/98
f 71/125/99 79/123/99 82/124/99
f 53/126/88 82/124/88 84/91/88
f 72/90/100 80/92/100 83/94/100
f 71/125/101 70/93/101 81/95/101
