# Blender v2.81 (sub 16) OBJ File: 'garbage.blend'
# www.blender.org
v -0.421352 1.489262 -0.099676
v -0.420955 1.478939 -0.126413
v -0.421793 1.456669 -0.144440
v -0.423641 1.428419 -0.148925
v -0.426005 1.401759 -0.138667
v -0.398402 1.481957 -0.086021
v -0.381204 1.466287 -0.102761
v -0.375892 1.442059 -0.117129
v -0.383890 1.415766 -0.125273
v -0.403055 1.394454 -0.125012
v -0.379664 1.419741 -0.066592
v -0.387156 1.396438 -0.081507
v -0.404941 1.383294 -0.099744
v -0.425125 1.466944 -0.049140
v -0.429337 1.412033 -0.043367
v -0.430175 1.389763 -0.061394
v -0.429777 1.379441 -0.088131
v -0.448075 1.474249 -0.062795
v -0.467240 1.452936 -0.062534
v -0.475238 1.426643 -0.070678
v -0.469926 1.402416 -0.085046
v -0.452728 1.386746 -0.101786
v -0.446189 1.485408 -0.088063
v -0.463973 1.472264 -0.106300
v -0.471466 1.448961 -0.121215
v -0.466659 1.421744 -0.128811
v -0.450842 1.397905 -0.127055
v -0.400288 1.470798 -0.060752
v -0.384470 1.446958 -0.058996
v -0.427489 1.440283 -0.038882
v -0.467465 1.451342 -0.010429
v -0.470708 1.452374 -0.012358
v -0.443478 1.466735 -0.032581
v -0.454902 1.424024 -0.028572
v -0.454838 1.470351 -0.039340
v -0.472523 1.429632 -0.039057
v -0.382207 1.446708 -0.010603
v -0.392390 1.445128 -0.005842
v -0.392113 1.457922 -0.021828
v -0.389155 1.430604 -0.025585
v -0.396780 1.457198 -0.019646
v -0.393835 1.429878 -0.023396
vt 0.274240 0.539347
vt 0.265397 0.539709
vt 0.266768 0.532487
vt 0.231414 0.551290
vt 0.214659 0.541092
vt 0.231357 0.542861
vt 0.231940 0.569242
vt 0.215985 0.562822
vt 0.231472 0.559719
vt 0.230890 0.533338
vt 0.220414 0.530957
vt 0.213134 0.552274
vt 0.289666 0.544440
vt 0.282983 0.540904
vt 0.290637 0.536818
vt 0.279682 0.529141
vt 0.275518 0.536619
vt 0.273707 0.532162
vt 0.280945 0.538772
vt 0.286431 0.530872
vt 0.290637 0.551375
vt 0.284312 0.543753
vt 0.278488 0.537315
vt 0.276318 0.541045
vt 0.804698 0.251197
vt 0.792375 0.255919
vt 0.792638 0.252041
vt 0.786357 0.239035
vt 0.792578 0.249274
vt 0.791489 0.249454
vt 0.271776 0.541127
vt 0.760733 0.199751
vt 0.757502 0.209505
vt 0.750621 0.206121
vt 0.278108 0.542645
vt 0.273009 0.544115
vt 0.772804 0.201934
vt 0.766718 0.213101
vt 0.766203 0.208706
vt 0.264007 0.548518
vt 0.277612 0.547903
vt 0.268747 0.555467
vt 0.275021 0.546378
vt 0.280714 0.548498
vt 0.281954 0.545638
vt 0.276612 0.557409
vt 0.240880 0.530957
vt 0.248168 0.561486
vt 0.249693 0.550306
vt 0.246843 0.539760
vt 0.242415 0.571620
vt 0.762287 0.211045
vt 0.762255 0.210544
vt 0.761023 0.221925
vt 0.757316 0.212491
vt 0.750922 0.216572
vt 0.772804 0.220841
vt 0.791613 0.252007
vt 0.791097 0.255536
vt 0.780068 0.250772
vt 0.780487 0.263708
vt 0.804698 0.264828
vt 0.798786 0.238814
vt 0.221949 0.571626
vt 0.283377 0.553479
vn -0.0485 -0.9123 -0.4065
vn 0.5319 0.0987 -0.8411
vn 0.4530 0.8339 -0.3152
vn 0.3895 -0.3606 -0.8475
vn 0.5538 0.5112 -0.6573
vn 0.7850 0.5429 0.2983
vn 0.7215 -0.6517 -0.2339
vn 0.9817 0.1361 0.1334
vn 0.0485 0.9123 0.4065
vn 0.9597 -0.2763 -0.0504
vn 0.3003 -0.8883 0.3474
vn -0.4750 -0.6446 0.5991
vn 0.4169 -0.5813 0.6988
vn -0.0004 0.9494 0.3141
vn -0.4530 -0.8339 0.3152
vn -0.7403 0.6644 -0.1030
vn -0.5538 -0.5112 0.6573
vn -0.3646 -0.9236 0.1186
vn -0.7850 -0.5429 -0.2983
vn -0.9597 0.2763 0.0504
vn -0.9817 -0.1361 -0.1334
vn -0.7215 0.6517 0.2339
vn -0.3638 -0.3062 -0.8797
vn -0.4169 0.5813 -0.6988
vn -0.4389 0.1688 -0.8826
vn -0.3003 0.8883 -0.3474
vn -0.5366 -0.6240 0.5680
vn -0.0489 0.8442 0.5337
vn 0.6029 0.1792 0.7774
vn 0.1799 0.9607 0.2115
vn -0.9854 0.1566 -0.0664
vn 0.4332 -0.1689 0.8853
vn 0.3850 -0.7122 0.5870
vn 0.1696 0.7680 0.6176
vn 0.9739 0.1178 0.1942
vn 0.2843 -0.9085 0.3065
vn -0.6246 0.3281 0.7087
vn 0.7650 0.6433 -0.0324
vn -0.4438 -0.1121 0.8891
vn -0.7829 0.6204 -0.0472
vn -0.4388 0.1688 -0.8826
vn 0.6519 0.2213 0.7253
vn -0.9599 0.2745 0.0565
vn 0.4915 -0.3136 0.8124
vn 0.9319 -0.3598 -0.0454
vn 0.2843 -0.9085 0.3064
vn -0.6396 0.4663 0.6111
vn 0.8330 0.5533 0.0081
s off
f 17/1/1 27/2/1 5/3/1
f 3/4/2 9/5/2 4/6/2
f 1/7/3 7/8/3 2/9/3
f 5/10/4 9/5/4 10/11/4
f 2/9/5 8/12/5 3/4/5
f 6/13/6 29/14/6 7/15/6
f 9/16/7 13/17/7 10/18/7
f 7/15/8 11/19/8 8/20/8
f 1/21/9 28/22/9 6/13/9
f 8/20/10 12/23/10 9/16/10
f 13/17/11 16/24/11 17/1/11
f 30/25/12 42/26/12 38/27/12
f 11/19/13 16/24/13 12/23/13
f 28/28/14 41/29/14 39/30/14
f 16/24/15 22/31/15 17/1/15
f 19/32/16 35/33/16 18/34/16
f 15/35/17 21/36/17 16/24/17
f 20/37/18 34/38/18 36/39/18
f 22/31/19 26/40/19 27/2/19
f 19/41/20 25/42/20 20/43/20
f 1/21/9 18/44/9 14/45/9
f 20/43/21 26/40/21 21/36/21
f 18/44/22 24/46/22 19/41/22
f 27/47/23 4/6/23 5/10/23
f 24/48/24 3/4/24 25/49/24
f 25/49/25 4/6/25 26/50/25
f 23/51/26 2/9/26 24/48/26
f 13/17/1 5/3/1 10/18/1
f 31/52/27 36/39/27 34/38/27
f 31/52/28 35/33/28 32/53/28
f 30/54/29 33/55/29 31/52/29
f 18/34/30 33/55/30 14/56/30
f 19/32/31 36/39/31 32/53/31
f 30/54/32 34/38/32 15/57/32
f 37/58/33 42/26/33 40/59/33
f 37/58/34 41/29/34 38/27/34
f 29/60/35 40/59/35 11/61/35
f 11/61/36 42/26/36 15/62/36
f 30/25/37 41/29/37 14/63/37
f 29/60/38 39/30/38 37/58/38
f 17/1/1 22/31/1 27/2/1
f 3/4/2 8/12/2 9/5/2
f 1/7/3 6/64/3 7/8/3
f 5/10/4 4/6/4 9/5/4
f 2/9/5 7/8/5 8/12/5
f 6/13/6 28/22/6 29/14/6
f 9/16/7 12/23/7 13/17/7
f 7/15/8 29/14/8 11/19/8
f 1/21/9 14/45/9 28/22/9
f 8/20/10 11/19/10 12/23/10
f 13/17/11 12/23/11 16/24/11
f 30/25/39 15/62/39 42/26/39
f 11/19/13 15/35/13 16/24/13
f 28/28/14 14/63/14 41/29/14
f 16/24/15 21/36/15 22/31/15
f 19/32/40 32/53/40 35/33/40
f 15/35/17 20/43/17 21/36/17
f 20/37/18 15/57/18 34/38/18
f 22/31/19 21/36/19 26/40/19
f 19/41/20 24/46/20 25/42/20
f 1/21/9 23/65/9 18/44/9
f 20/43/21 25/42/21 26/40/21
f 18/44/22 23/65/22 24/46/22
f 27/47/23 26/50/23 4/6/23
f 24/48/24 2/9/24 3/4/24
f 25/49/41 3/4/41 4/6/41
f 23/51/26 1/7/26 2/9/26
f 13/17/1 17/1/1 5/3/1
f 31/52/27 32/53/27 36/39/27
f 31/52/28 33/55/28 35/33/28
f 30/54/42 14/56/42 33/55/42
f 18/34/30 35/33/30 33/55/30
f 19/32/43 20/37/43 36/39/43
f 30/54/44 31/52/44 34/38/44
f 37/58/33 38/27/33 42/26/33
f 37/58/34 39/30/34 41/29/34
f 29/60/45 37/58/45 40/59/45
f 11/61/46 40/59/46 42/26/46
f 30/25/47 38/27/47 41/29/47
f 29/60/48 28/28/48 39/30/48
v 1.106019 0.925192 -1.347642
v 1.114770 0.907760 -1.326640
v 1.114437 0.882057 -1.313956
v 1.105108 0.854971 -1.312991
v 1.089283 0.833760 -1.324003
v 1.079022 0.930789 -1.345108
v 1.068011 0.917454 -1.322249
v 1.060444 0.893251 -1.308887
v 1.058348 0.864665 -1.308601
v 1.062286 0.839357 -1.321468
v 1.026872 0.888088 -1.352620
v 1.029275 0.860195 -1.346475
v 1.045501 0.836776 -1.343335
v 1.072448 0.920030 -1.391376
v 1.047294 0.871733 -1.401423
v 1.046961 0.846030 -1.388739
v 1.055712 0.828598 -1.367736
v 1.099444 0.914433 -1.393910
v 1.103382 0.889125 -1.406778
v 1.101287 0.860539 -1.406492
v 1.093720 0.836336 -1.393130
v 1.082708 0.823001 -1.370271
v 1.116230 0.917014 -1.372044
v 1.132456 0.893595 -1.368904
v 1.134858 0.865701 -1.362759
v 1.122794 0.840807 -1.355256
v 1.099494 0.825582 -1.348405
v 1.062237 0.928208 -1.366974
v 1.038937 0.912983 -1.360123
v 1.056623 0.898819 -1.402387
v 1.075956 0.904033 -1.448528
v 1.079772 0.903242 -1.448887
v 1.077093 0.918838 -1.415626
v 1.063670 0.878358 -1.427958
v 1.090457 0.916067 -1.416880
v 1.084398 0.874061 -1.429905
v 1.012243 0.928758 -1.397347
v 1.016429 0.925405 -1.407351
v 1.030346 0.931812 -1.393764
v 1.017593 0.907411 -1.390439
v 1.032264 0.930275 -1.398349
v 1.019517 0.905870 -1.395037
vt 0.274240 0.539347
vt 0.265397 0.539709
vt 0.266768 0.532487
vt 0.231414 0.551290
vt 0.214659 0.541092
vt 0.231357 0.542861
vt 0.231940 0.569242
vt 0.215985 0.562822
vt 0.231472 0.559719
vt 0.230890 0.533338
vt 0.220414 0.530957
vt 0.213134 0.552274
vt 0.289666 0.544440
vt 0.282983 0.540904
vt 0.290637 0.536818
vt 0.279682 0.529141
vt 0.275518 0.536619
vt 0.273707 0.532162
vt 0.280945 0.538772
vt 0.286431 0.530872
vt 0.290637 0.551375
vt 0.284312 0.543753
vt 0.278488 0.537315
vt 0.276318 0.541045
vt 0.804698 0.251197
vt 0.792375 0.255919
vt 0.792638 0.252041
vt 0.786357 0.239035
vt 0.792578 0.249274
vt 0.791489 0.249454
vt 0.271776 0.541127
vt 0.760733 0.199751
vt 0.757502 0.209505
vt 0.750621 0.206121
vt 0.278108 0.542645
vt 0.273009 0.544115
vt 0.772804 0.201934
vt 0.766718 0.213101
vt 0.766203 0.208706
vt 0.264007 0.548518
vt 0.277612 0.547903
vt 0.268747 0.555467
vt 0.275021 0.546378
vt 0.280714 0.548498
vt 0.281954 0.545638
vt 0.276612 0.557409
vt 0.240880 0.530957
vt 0.248168 0.561486
vt 0.249693 0.550306
vt 0.246843 0.539760
vt 0.242415 0.571620
vt 0.762287 0.211045
vt 0.762255 0.210544
vt 0.761023 0.221925
vt 0.757316 0.212491
vt 0.750922 0.216572
vt 0.772804 0.220841
vt 0.791613 0.252007
vt 0.791097 0.255536
vt 0.780068 0.250772
vt 0.780487 0.263708
vt 0.804698 0.264828
vt 0.798786 0.238814
vt 0.221949 0.571626
vt 0.283377 0.553479
vn -0.1745 -0.9533 0.2465
vn 0.0941 0.0031 0.9956
vn 0.2179 0.7937 0.5680
vn -0.0106 -0.4545 0.8907
vn 0.1730 0.4340 0.8841
vn -0.4723 0.8412 0.2632
vn -0.7008 -0.4069 0.5860
vn -0.7164 0.4953 0.4914
vn 0.1745 0.9533 -0.2465
vn -0.7952 0.0643 0.6029
vn -0.8044 -0.5766 -0.1434
vn -0.2613 -0.5439 -0.7974
vn -0.9288 -0.1542 -0.3370
vn 0.2745 0.9405 -0.2003
vn -0.2179 -0.7937 -0.5680
vn 0.8938 0.3058 -0.3280
vn -0.1730 -0.4340 -0.8841
vn -0.2217 -0.9051 -0.3628
vn 0.4723 -0.8412 -0.2632
vn 0.7952 -0.0643 -0.6029
vn 0.7164 -0.4953 -0.4914
vn 0.7007 0.4070 -0.5860
vn 0.5759 -0.6716 0.4661
vn 0.9288 0.1542 0.3370
vn 0.8499 -0.2768 0.4484
vn 0.8044 0.5765 0.1434
vn -0.1913 -0.5563 -0.8086
vn 0.1481 0.9000 -0.4101
vn -0.7545 0.6079 -0.2474
vn 0.2021 0.9793 -0.0094
vn 0.8190 -0.2160 -0.5316
vn -0.8473 0.2756 -0.4541
vn -0.9082 -0.3163 -0.2741
vn -0.0882 0.9328 -0.3495
vn -0.7505 0.4955 0.4373
vn -0.7809 -0.6127 -0.1214
vn 0.2373 0.3023 -0.9232
vn -0.2411 0.8193 0.5201
vn -0.7007 -0.4070 0.5860
vn -0.8044 -0.5765 -0.1434
vn -0.1887 0.0300 -0.9816
vn 0.8756 0.2699 -0.4005
vn 0.8044 0.5766 0.1434
vn -0.7438 0.6453 -0.1742
vn 0.7914 -0.0641 -0.6079
vn -0.9184 0.1442 -0.3685
vn -0.8160 -0.0175 0.5778
vn 0.3619 0.3890 -0.8472
vn -0.3526 0.7753 0.5240
s off
f 59/66/49 69/67/49 47/68/49
f 45/69/50 51/70/50 46/71/50
f 43/72/51 49/73/51 44/74/51
f 47/75/52 51/70/52 52/76/52
f 44/74/53 50/77/53 45/69/53
f 48/78/54 71/79/54 49/80/54
f 51/81/55 55/82/55 52/83/55
f 49/80/56 53/84/56 50/85/56
f 43/86/57 70/87/57 48/78/57
f 50/85/58 54/88/58 51/81/58
f 55/82/59 58/89/59 59/66/59
f 72/90/60 84/91/60 80/92/60
f 53/84/61 58/89/61 54/88/61
f 70/93/62 83/94/62 81/95/62
f 58/89/63 64/96/63 59/66/63
f 61/97/64 77/98/64 60/99/64
f 57/100/65 63/101/65 58/89/65
f 62/102/66 76/103/66 78/104/66
f 64/96/67 68/105/67 69/67/67
f 61/106/68 67/107/68 62/108/68
f 43/86/57 60/109/57 56/110/57
f 62/108/69 68/105/69 63/101/69
f 60/109/70 66/111/70 61/106/70
f 69/112/71 46/71/71 47/75/71
f 66/113/72 45/69/72 67/114/72
f 67/114/73 46/71/73 68/115/73
f 65/116/74 44/74/74 66/113/74
f 55/82/49 47/68/49 52/83/49
f 73/117/75 78/104/75 76/103/75
f 73/117/76 77/98/76 74/118/76
f 72/119/77 75/120/77 73/117/77
f 60/99/78 75/120/78 56/121/78
f 61/97/79 78/104/79 74/118/79
f 72/119/80 76/103/80 57/122/80
f 79/123/81 84/91/81 82/124/81
f 79/123/82 83/94/82 80/92/82
f 71/125/83 82/124/83 53/126/83
f 53/126/84 84/91/84 57/127/84
f 72/90/85 83/94/85 56/128/85
f 71/125/86 81/95/86 79/123/86
f 59/66/49 64/96/49 69/67/49
f 45/69/50 50/77/50 51/70/50
f 43/72/51 48/129/51 49/73/51
f 47/75/52 46/71/52 51/70/52
f 44/74/53 49/73/53 50/77/53
f 48/78/54 70/87/54 71/79/54
f 51/81/87 54/88/87 55/82/87
f 49/80/56 71/79/56 53/84/56
f 43/86/57 56/110/57 70/87/57
f 50/85/58 53/84/58 54/88/58
f 55/82/88 54/88/88 58/89/88
f 72/90/89 57/127/89 84/91/89
f 53/84/61 57/100/61 58/89/61
f 70/93/62 56/128/62 83/94/62
f 58/89/63 63/101/63 64/96/63
f 61/97/90 74/118/90 77/98/90
f 57/100/65 62/108/65 63/101/65
f 62/102/66 57/122/66 76/103/66
f 64/96/67 63/101/67 68/105/67
f 61/106/68 66/111/68 67/107/68
f 43/86/57 65/130/57 60/109/57
f 62/108/69 67/107/69 68/105/69
f 60/109/70 65/130/70 66/111/70
f 69/112/71 68/115/71 46/71/71
f 66/113/72 44/74/72 45/69/72
f 67/114/73 45/69/73 46/71/73
f 65/116/91 43/72/91 44/74/91
f 55/82/49 59/66/49 47/68/49
f 73/117/75 74/118/75 78/104/75
f 73/117/76 75/120/76 77/98/76
f 72/119/92 56/121/92 75/120/92
f 60/99/78 77/98/78 75/120/78
f 61/97/93 62/102/93 78/104/93
f 72/119/94 73/117/94 76/103/94
f 79/123/81 80/92/81 84/91/81
f 79/123/82 81/95/82 83/94/82
f 71/125/95 79/123/95 82/124/95
f 53/126/84 82/124/84 84/91/84
f 72/90/96 80/92/96 83/94/96
f 71/125/97 70/93/97 81/95/97
