# Blender v2.81 (sub 16) OBJ File: 'garbage.blend'
# www.blender.org
v 0.115972 1.424937 0.284970
v 0.107622 1.408213 0.306700
v 0.100915 1.382283 0.316909
v 0.097648 1.354095 0.312864
v 0.098698 1.331202 0.295647
v 0.096261 1.426361 0.265579
v 0.073482 1.410679 0.273113
v 0.061494 1.385130 0.278126
v 0.063509 1.356561 0.279277
v 0.078987 1.332626 0.276256
v 0.074334 1.376704 0.224925
v 0.074629 1.349263 0.233203
v 0.085407 1.328413 0.249655
v 0.128812 1.416511 0.231769
v 0.126595 1.365430 0.210507
v 0.119888 1.339500 0.220716
v 0.111538 1.322776 0.242446
v 0.148523 1.415087 0.251160
v 0.164001 1.391152 0.248139
v 0.166017 1.362583 0.249289
v 0.154028 1.337034 0.254303
v 0.131249 1.321352 0.261837
v 0.142103 1.419301 0.277761
v 0.152881 1.398450 0.294213
v 0.153176 1.371009 0.302491
v 0.142908 1.344331 0.300377
v 0.124829 1.325565 0.288438
v 0.102682 1.422148 0.238978
v 0.084602 1.403382 0.227039
v 0.129862 1.393618 0.214552
v 0.176715 1.403397 0.199088
v 0.179500 1.403196 0.201828
v 0.150438 1.416945 0.219801
v 0.156415 1.375419 0.205285
v 0.160194 1.416240 0.229400
v 0.171548 1.374326 0.220174
v 0.094209 1.416419 0.181380
v 0.104922 1.414108 0.178424
v 0.102541 1.421990 0.197173
v 0.094970 1.395856 0.191803
v 0.107451 1.420931 0.195818
v 0.099894 1.394794 0.190444
vt 0.274240 0.539347
vt 0.265397 0.539709
vt 0.266768 0.532487
vt 0.231414 0.551290
vt 0.214659 0.541092
vt 0.231357 0.542861
vt 0.231940 0.569242
vt 0.215985 0.562822
vt 0.231472 0.559719
vt 0.230890 0.533338
vt 0.220414 0.530957
vt 0.213134 0.552274
vt 0.289666 0.544440
vt 0.282983 0.540904
vt 0.290637 0.536818
vt 0.279682 0.529141
vt 0.275518 0.536619
vt 0.273707 0.532162
vt 0.280945 0.538772
vt 0.286431 0.530872
vt 0.290637 0.551375
vt 0.284312 0.543753
vt 0.278488 0.537315
vt 0.276318 0.541045
vt 0.804698 0.251197
vt 0.792375 0.255919
vt 0.792638 0.252041
vt 0.786357 0.239035
vt 0.792578 0.249274
vt 0.791489 0.249454
vt 0.271776 0.541127
vt 0.760733 0.199751
vt 0.757502 0.209505
vt 0.750621 0.206121
vt 0.278108 0.542645
vt 0.273009 0.544115
vt 0.772804 0.201934
vt 0.766718 0.213101
vt 0.766203 0.208706
vt 0.264007 0.548518
vt 0.277612 0.547903
vt 0.268747 0.555467
vt 0.275021 0.546378
vt 0.280714 0.548498
vt 0.281954 0.545638
vt 0.276612 0.557409
vt 0.240880 0.530957
vt 0.248168 0.561486
vt 0.249693 0.550306
vt 0.246843 0.539760
vt 0.242415 0.571620
vt 0.762287 0.211045
vt 0.762255 0.210544
vt 0.761023 0.221925
vt 0.757316 0.212491
vt 0.750922 0.216572
vt 0.772804 0.220841
vt 0.791613 0.252007
vt 0.791097 0.255536
vt 0.780068 0.250772
vt 0.780487 0.263708
vt 0.804698 0.264828
vt 0.798786 0.238814
vt 0.221949 0.571626
vt 0.283377 0.553479
vn -0.1801 -0.9773 0.1113
vn -0.7019 -0.0208 0.7119
vn -0.3952 0.7951 0.4601
vn -0.6310 -0.4845 0.6058
vn -0.6205 0.4210 0.6616
vn -0.6047 0.7511 -0.2649
vn -0.8405 -0.5285 -0.1192
vn -0.8905 0.3643 -0.2726
vn 0.1801 0.9773 -0.1113
vn -0.9719 -0.0775 -0.2223
vn -0.3274 -0.6838 -0.6521
vn 0.5120 -0.5460 -0.6631
vn -0.3107 -0.2776 -0.9091
vn 0.2097 0.9778 -0.0044
vn 0.3952 -0.7951 -0.4601
vn 0.7780 0.4475 0.4410
vn 0.6205 -0.4210 -0.6616
vn 0.2498 -0.9135 -0.3210
vn 0.6047 -0.7511 0.2649
vn 0.9719 0.0775 0.2223
vn 0.8905 -0.3643 0.2726
vn 0.8405 0.5285 0.1192
vn 0.0916 -0.5958 0.7979
vn 0.3107 0.2776 0.9091
vn 0.2293 -0.1643 0.9594
vn 0.3274 0.6838 0.6521
vn 0.5665 -0.5474 -0.6160
vn 0.2951 0.9269 -0.2319
vn -0.3638 0.4980 -0.7872
vn 0.0132 0.9981 0.0599
vn 0.9513 -0.0715 0.2998
vn -0.2231 0.1638 -0.9609
vn -0.3256 -0.4370 -0.8384
vn 0.0953 0.9219 -0.3755
vn -0.8707 0.3615 -0.3334
vn -0.3248 -0.7169 -0.6169
vn 0.8182 0.3690 -0.4408
vn -0.6522 0.7540 0.0781
vn 0.6273 0.0389 -0.7778
vn 0.8264 0.4120 0.3837
vn -0.4176 0.5338 -0.7353
vn 0.0131 0.9981 0.0599
vn 0.9733 0.0774 0.2161
vn -0.3171 0.0201 -0.9482
vn -0.9556 -0.1605 -0.2469
vn -0.3249 -0.7169 -0.6169
vn 0.8281 0.4704 -0.3049
vn -0.7201 0.6939 -0.0002
s off
f 17/1/1 27/2/1 5/3/1
f 3/4/2 9/5/2 4/6/2
f 1/7/3 7/8/3 2/9/3
f 5/10/4 9/5/4 10/11/4
f 2/9/5 8/12/5 3/4/5
f 6/13/6 29/14/6 7/15/6
f 9/16/7 13/17/7 10/18/7
f 7/15/8 11/19/8 8/20/8
f 1/21/9 28/22/9 6/13/9
f 8/20/10 12/23/10 9/16/10
f 13/17/11 16/24/11 17/1/11
f 30/25/12 42/26/12 38/27/12
f 11/19/13 16/24/13 12/23/13
f 28/28/14 41/29/14 39/30/14
f 16/24/15 22/31/15 17/1/15
f 19/32/16 35/33/16 18/34/16
f 15/35/17 21/36/17 16/24/17
f 20/37/18 34/38/18 36/39/18
f 22/31/19 26/40/19 27/2/19
f 19/41/20 25/42/20 20/43/20
f 1/21/9 18/44/9 14/45/9
f 20/43/21 26/40/21 21/36/21
f 18/44/22 24/46/22 19/41/22
f 27/47/23 4/6/23 5/10/23
f 24/48/24 3/4/24 25/49/24
f 25/49/25 4/6/25 26/50/25
f 23/51/26 2/9/26 24/48/26
f 13/17/1 5/3/1 10/18/1
f 31/52/27 36/39/27 34/38/27
f 31/52/28 35/33/28 32/53/28
f 30/54/29 33/55/29 31/52/29
f 18/34/30 33/55/30 14/56/30
f 19/32/31 36/39/31 32/53/31
f 30/54/32 34/38/32 15/57/32
f 37/58/33 42/26/33 40/59/33
f 37/58/34 41/29/34 38/27/34
f 29/60/35 40/59/35 11/61/35
f 11/61/36 42/26/36 15/62/36
f 30/25/37 41/29/37 14/63/37
f 29/60/38 39/30/38 37/58/38
f 17/1/1 22/31/1 27/2/1
f 3/4/2 8/12/2 9/5/2
f 1/7/3 6/64/3 7/8/3
f 5/10/4 4/6/4 9/5/4
f 2/9/5 7/8/5 8/12/5
f 6/13/6 28/22/6 29/14/6
f 9/16/7 12/23/7 13/17/7
f 7/15/8 29/14/8 11/19/8
f 1/21/9 14/45/9 28/22/9
f 8/20/10 11/19/10 12/23/10
f 13/17/11 12/23/11 16/24/11
f 30/25/39 15/62/39 42/26/39
f 11/19/13 15/35/13 16/24/13
f 28/28/14 14/63/14 41/29/14
f 16/24/15 21/36/15 22/31/15
f 19/32/40 32/53/40 35/33/40
f 15/35/17 20/43/17 21/36/17
f 20/37/18 15/57/18 34/38/18
f 22/31/19 21/36/19 26/40/19
f 19/41/20 24/46/20 25/42/20
f 1/21/9 23/65/9 18/44/9
f 20/43/21 25/42/21 26/40/21
f 18/44/22 23/65/22 24/46/22
f 27/47/23 26/50/23 4/6/23
f 24/48/24 2/9/24 3/4/24
f 25/49/25 3/4/25 4/6/25
f 23/51/26 1/7/26 2/9/26
f 13/17/1 17/1/1 5/3/1
f 31/52/27 32/53/27 36/39/27
f 31/52/28 33/55/28 35/33/28
f 30/54/41 14/56/41 33/55/41
f 18/34/42 35/33/42 33/55/42
f 19/32/43 20/37/43 36/39/43
f 30/54/44 31/52/44 34/38/44
f 37/58/33 38/27/33 42/26/33
f 37/58/34 39/30/34 41/29/34
f 29/60/45 37/58/45 40/59/45
f 11/61/46 40/59/46 42/26/46
f 30/25/47 38/27/47 41/29/47
f 29/60/48 28/28/48 39/30/48
v -0.927165 1.059320 -0.084091
v -0.924991 1.042395 -0.107122
v -0.921293 1.016365 -0.118538
v -0.917063 0.988203 -0.115280
v -0.913434 0.965456 -0.098221
v -0.902953 1.060854 -0.070749
v -0.883055 1.045052 -0.084014
v -0.872870 1.019432 -0.091855
v -0.875127 0.990859 -0.092172
v -0.889222 0.966989 -0.084880
v -0.870882 1.011479 -0.037091
v -0.873405 0.983971 -0.044745
v -0.888228 0.963013 -0.057498
v -0.925177 1.051367 -0.029327
v -0.917318 1.000458 -0.009011
v -0.913620 0.974427 -0.020427
v -0.911446 0.957503 -0.043457
v -0.949389 1.049834 -0.042669
v -0.963484 1.025964 -0.035377
v -0.965741 0.997391 -0.035694
v -0.955556 0.971771 -0.043535
v -0.935658 0.955969 -0.056799
v -0.950383 1.053810 -0.070051
v -0.965206 1.032852 -0.082803
v -0.967729 1.005344 -0.090457
v -0.957278 0.978659 -0.090961
v -0.936652 0.959946 -0.084181
v -0.901959 1.056877 -0.043368
v -0.881333 1.038164 -0.036587
v -0.921548 1.028620 -0.012269
v -0.962489 1.038646 0.015178
v -0.965910 1.038429 0.013292
v -0.942772 1.051955 -0.011973
v -0.944620 1.010566 0.003976
v -0.954756 1.051196 -0.018577
v -0.963210 1.009388 -0.006268
v -0.878262 1.051603 0.009856
v -0.887781 1.049344 0.015613
v -0.890545 1.057064 -0.003150
v -0.881812 1.030957 0.000203
v -0.894907 1.056029 -0.000512
v -0.886187 1.029918 0.002849
vt 0.274240 0.539347
vt 0.265397 0.539709
vt 0.266768 0.532487
vt 0.231414 0.551290
vt 0.214659 0.541092
vt 0.231357 0.542861
vt 0.231940 0.569242
vt 0.215985 0.562822
vt 0.231472 0.559719
vt 0.230890 0.533338
vt 0.220414 0.530957
vt 0.213134 0.552274
vt 0.289666 0.544440
vt 0.282983 0.540904
vt 0.290637 0.536818
vt 0.279682 0.529141
vt 0.275518 0.536619
vt 0.273707 0.532162
vt 0.280945 0.538772
vt 0.286431 0.530872
vt 0.290637 0.551375
vt 0.284312 0.543753
vt 0.278488 0.537315
vt 0.276318 0.541045
vt 0.804698 0.251197
vt 0.792375 0.255919
vt 0.792638 0.252041
vt 0.786357 0.239035
vt 0.792578 0.249274
vt 0.791489 0.249454
vt 0.271776 0.541127
vt 0.760733 0.199751
vt 0.757502 0.209505
vt 0.750621 0.206121
vt 0.278108 0.542645
vt 0.273009 0.544115
vt 0.772804 0.201934
vt 0.766718 0.213101
vt 0.766203 0.208706
vt 0.264007 0.548518
vt 0.277612 0.547903
vt 0.268747 0.555467
vt 0.275021 0.546378
vt 0.280714 0.548498
vt 0.281954 0.545638
vt 0.276612 0.557409
vt 0.240880 0.530957
vt 0.248168 0.561486
vt 0.249693 0.550306
vt 0.246843 0.539760
vt 0.242415 0.571620
vt 0.762287 0.211045
vt 0.762255 0.210544
vt 0.761023 0.221925
vt 0.757316 0.212491
vt 0.750922 0.216572
vt 0.772804 0.220841
vt 0.791613 0.252007
vt 0.791097 0.255536
vt 0.780068 0.250772
vt 0.780487 0.263708
vt 0.804698 0.264828
vt 0.798786 0.238814
vt 0.221949 0.571626
vt 0.283377 0.553479
vn 0.1432 -0.9787 -0.1473
vn 0.4838 -0.0285 -0.8747
vn 0.2566 0.7902 -0.5565
vn 0.4440 -0.4911 -0.7494
vn 0.4191 0.4139 -0.8081
vn 0.6539 0.7517 0.0854
vn 0.8414 -0.5297 -0.1075
vn 0.9311 0.3643 0.0191
vn -0.1432 0.9787 0.1473
vn 0.9958 -0.0781 -0.0475
vn 0.4911 -0.6792 0.5455
vn -0.3142 -0.5392 0.7814
vn 0.5444 -0.2708 0.7939
vn -0.2005 0.9783 0.0524
vn -0.2566 -0.7902 0.5565
vn -0.8680 0.4458 -0.2186
vn -0.4191 -0.4139 0.8081
vn -0.1541 -0.9102 0.3844
vn -0.6539 -0.7517 -0.0854
vn -0.9958 0.0781 0.0475
vn -0.9311 -0.3643 -0.0191
vn -0.8414 0.5297 0.1075
vn -0.3036 -0.6022 -0.7384
vn -0.5444 0.2708 -0.7939
vn -0.4796 -0.1716 -0.8605
vn -0.4911 0.6792 -0.5455
vn -0.3794 -0.5409 0.7507
vn -0.2214 0.9295 0.2949
vn 0.5628 0.5036 0.6555
vn -0.0286 0.9976 -0.0628
vn -0.9969 -0.0716 -0.0314
vn 0.4742 0.1711 0.8637
vn 0.5396 -0.4309 0.7233
vn 0.0098 0.9252 0.3792
vn 0.9284 0.3621 0.0830
vn 0.4791 -0.7126 0.5126
vn -0.6689 0.3748 0.6420
vn 0.6071 0.7517 -0.2577
vn 0.4441 -0.4912 -0.7494
vn -0.3941 0.0470 0.9179
vn -0.8992 0.4110 -0.1501
vn -0.5444 0.2709 -0.7939
vn 0.6006 0.5388 0.5907
vn -0.9955 0.0781 0.0538
vn 0.5612 0.0271 0.8272
vn 0.9868 -0.1609 -0.0187
vn 0.4791 -0.7126 0.5125
vn -0.7150 0.4750 0.5129
vn 0.6936 0.6920 -0.2001
s off
f 59/66/49 69/67/49 47/68/49
f 45/69/50 51/70/50 46/71/50
f 43/72/51 49/73/51 44/74/51
f 47/75/52 51/70/52 52/76/52
f 44/74/53 50/77/53 45/69/53
f 48/78/54 71/79/54 49/80/54
f 51/81/55 55/82/55 52/83/55
f 49/80/56 53/84/56 50/85/56
f 43/86/57 70/87/57 48/78/57
f 50/85/58 54/88/58 51/81/58
f 55/82/59 58/89/59 59/66/59
f 72/90/60 84/91/60 80/92/60
f 53/84/61 58/89/61 54/88/61
f 70/93/62 83/94/62 81/95/62
f 58/89/63 64/96/63 59/66/63
f 61/97/64 77/98/64 60/99/64
f 57/100/65 63/101/65 58/89/65
f 62/102/66 76/103/66 78/104/66
f 64/96/67 68/105/67 69/67/67
f 61/106/68 67/107/68 62/108/68
f 43/86/57 60/109/57 56/110/57
f 62/108/69 68/105/69 63/101/69
f 60/109/70 66/111/70 61/106/70
f 69/112/71 46/71/71 47/75/71
f 66/113/72 45/69/72 67/114/72
f 67/114/73 46/71/73 68/115/73
f 65/116/74 44/74/74 66/113/74
f 55/82/49 47/68/49 52/83/49
f 73/117/75 78/104/75 76/103/75
f 73/117/76 77/98/76 74/118/76
f 72/119/77 75/120/77 73/117/77
f 60/99/78 75/120/78 56/121/78
f 61/97/79 78/104/79 74/118/79
f 72/119/80 76/103/80 57/122/80
f 79/123/81 84/91/81 82/124/81
f 79/123/82 83/94/82 80/92/82
f 71/125/83 82/124/83 53/126/83
f 53/126/84 84/91/84 57/127/84
f 72/90/85 83/94/85 56/128/85
f 71/125/86 81/95/86 79/123/86
f 59/66/49 64/96/49 69/67/49
f 45/69/50 50/77/50 51/70/50
f 43/72/51 48/129/51 49/73/51
f 47/75/87 46/71/87 51/70/87
f 44/74/53 49/73/53 50/77/53
f 48/78/54 70/87/54 71/79/54
f 51/81/55 54/88/55 55/82/55
f 49/80/56 71/79/56 53/84/56
f 43/86/57 56/110/57 70/87/57
f 50/85/58 53/84/58 54/88/58
f 55/82/59 54/88/59 58/89/59
f 72/90/88 57/127/88 84/91/88
f 53/84/61 57/100/61 58/89/61
f 70/93/62 56/128/62 83/94/62
f 58/89/63 63/101/63 64/96/63
f 61/97/89 74/118/89 77/98/89
f 57/100/65 62/108/65 63/101/65
f 62/102/66 57/122/66 76/103/66
f 64/96/67 63/101/67 68/105/67
f 61/106/68 66/111/68 67/107/68
f 43/86/57 65/130/57 60/109/57
f 62/108/69 67/107/69 68/105/69
f 60/109/70 65/130/70 66/111/70
f 69/112/71 68/115/71 46/71/71
f 66/113/90 44/74/90 45/69/90
f 67/114/73 45/69/73 46/71/73
f 65/116/74 43/72/74 44/74/74
f 55/82/49 59/66/49 47/68/49
f 73/117/75 74/118/75 78/104/75
f 73/117/76 75/120/76 77/98/76
f 72/119/91 56/121/91 75/120/91
f 60/99/78 77/98/78 75/120/78
f 61/97/92 62/102/92 78/104/92
f 72/119/93 73/117/93 76/103/93
f 79/123/81 80/92/81 84/91/81
f 79/123/82 81/95/82 83/94/82
f 71/125/94 79/123/94 82/124/94
f 53/126/95 82/124/95 84/91/95
f 72/90/96 80/92/96 83/94/96
f 71/125/97 70/93/97 81/95/97
