# Blender v2.81 (sub 16) OBJ File: 'garbage.blend'
# www.blender.org
v 0.221217 1.261861 -0.369224
v 0.215318 1.253056 -0.342591
v 0.207206 1.232337 -0.324522
v 0.199054 1.205256 -0.319856
v 0.193047 1.179069 -0.329845
v 0.198260 1.262314 -0.384694
v 0.175556 1.253840 -0.369387
v 0.161292 1.233243 -0.355462
v 0.159291 1.206040 -0.346652
v 0.170090 1.179522 -0.345315
v 0.161143 1.209500 -0.405488
v 0.159163 1.185478 -0.389975
v 0.170015 1.167651 -0.370328
v 0.221068 1.238118 -0.419249
v 0.206909 1.184851 -0.424572
v 0.198796 1.164132 -0.406502
v 0.192898 1.155326 -0.379870
v 0.244025 1.237665 -0.403778
v 0.254823 1.211147 -0.402442
v 0.252823 1.183945 -0.393631
v 0.238559 1.163347 -0.379707
v 0.215855 1.154873 -0.364400
v 0.244100 1.249537 -0.378766
v 0.254952 1.231709 -0.359119
v 0.252972 1.207688 -0.343606
v 0.238688 1.183909 -0.336384
v 0.215929 1.166745 -0.339387
v 0.198186 1.250443 -0.409706
v 0.175427 1.233279 -0.412710
v 0.215061 1.211932 -0.429237
v 0.258468 1.208058 -0.454353
v 0.261712 1.207994 -0.452167
v 0.239477 1.231263 -0.434255
v 0.236070 1.187102 -0.437252
v 0.250841 1.231039 -0.426598
v 0.253697 1.186754 -0.425374
v 0.176909 1.232400 -0.461125
v 0.186290 1.227347 -0.465037
v 0.189134 1.239946 -0.449148
v 0.176843 1.215339 -0.445602
v 0.193433 1.237630 -0.450941
v 0.181155 1.213017 -0.447400
vt 0.274240 0.539347
vt 0.265397 0.539709
vt 0.266768 0.532487
vt 0.231414 0.551290
vt 0.214659 0.541092
vt 0.231357 0.542861
vt 0.231940 0.569242
vt 0.215985 0.562822
vt 0.231472 0.559719
vt 0.230890 0.533338
vt 0.220414 0.530957
vt 0.213134 0.552274
vt 0.289666 0.544440
vt 0.282983 0.540904
vt 0.290637 0.536818
vt 0.279682 0.529141
vt 0.275518 0.536619
vt 0.273707 0.532162
vt 0.280945 0.538772
vt 0.286431 0.530872
vt 0.290637 0.551375
vt 0.284312 0.543753
vt 0.278488 0.537315
vt 0.276318 0.541045
vt 0.804698 0.251197
vt 0.792375 0.255919
vt 0.792638 0.252041
vt 0.786357 0.239035
vt 0.792578 0.249274
vt 0.791489 0.249454
vt 0.271776 0.541127
vt 0.760733 0.199751
vt 0.757502 0.209505
vt 0.750621 0.206121
vt 0.278108 0.542645
vt 0.273009 0.544115
vt 0.772804 0.201934
vt 0.766718 0.213101
vt 0.766203 0.208706
vt 0.264007 0.548518
vt 0.277612 0.547903
vt 0.268747 0.555467
vt 0.275021 0.546378
vt 0.280714 0.548498
vt 0.281954 0.545638
vt 0.276612 0.557409
vt 0.240880 0.530957
vt 0.248168 0.561486
vt 0.249693 0.550306
vt 0.246843 0.539760
vt 0.242415 0.571620
vt 0.762287 0.211045
vt 0.762255 0.210544
vt 0.761023 0.221925
vt 0.757316 0.212491
vt 0.750922 0.216572
vt 0.772804 0.220841
vt 0.791613 0.252007
vt 0.791097 0.255536
vt 0.780068 0.250772
vt 0.780487 0.263708
vt 0.804698 0.264828
vt 0.798786 0.238814
vt 0.221949 0.571626
vt 0.283377 0.553479
vn -0.2937 -0.8632 0.4106
vn -0.5297 0.2964 0.7947
vn -0.1672 0.9465 0.2759
vn -0.5518 -0.1837 0.8135
vn -0.3969 0.6866 0.6091
vn -0.5303 0.7665 -0.3622
vn -0.9149 -0.3637 0.1753
vn -0.8648 0.4547 -0.2132
vn 0.2937 0.8632 -0.4106
vn -0.9975 0.0644 -0.0276
vn -0.5553 -0.7451 -0.3694
vn 0.2735 -0.7840 -0.5573
vn -0.5342 -0.4271 -0.7295
vn 0.3451 0.8843 -0.3146
vn 0.1673 -0.9465 -0.2759
vn 0.9110 0.3791 0.1620
vn 0.3969 -0.6866 -0.6091
vn 0.0390 -0.9954 -0.0870
vn 0.5303 -0.7665 0.3622
vn 0.9975 -0.0644 0.0276
vn 0.8648 -0.4547 0.2132
vn 0.9149 0.3637 -0.1753
vn 0.1708 -0.3851 0.9069
vn 0.5342 0.4271 0.7295
vn 0.4014 0.0368 0.9151
vn 0.5553 0.7451 0.3694
vn 0.3359 -0.7844 -0.5214
vn 0.3717 0.7627 -0.5293
vn -0.4458 0.3491 -0.8243
vn 0.1719 0.9586 -0.2270
vn 0.9723 -0.1824 0.1463
vn -0.3959 -0.0389 -0.9175
vn -0.5570 -0.5578 -0.6153
vn 0.1474 0.7620 -0.6306
vn -0.8590 0.4330 -0.2732
vn -0.5502 -0.7683 -0.3272
vn 0.7508 0.0779 -0.6559
vn -0.5028 0.8639 -0.0311
vn 0.4462 -0.2807 -0.8498
vn 0.3451 0.8843 -0.3145
vn 0.1672 -0.9465 -0.2759
vn 0.9404 0.3217 0.1099
vn 0.5553 0.7451 0.3693
vn 0.3717 0.7626 -0.5293
vn -0.4815 0.4066 -0.7764
vn 0.9976 -0.0664 0.0216
vn -0.5051 -0.1533 -0.8493
vn 0.1475 0.7620 -0.6306
vn -0.9993 -0.0236 -0.0302
vn 0.8042 0.2058 -0.5576
vn -0.5939 0.8009 -0.0769
s off
f 17/1/1 27/2/1 5/3/1
f 3/4/2 9/5/2 4/6/2
f 1/7/3 7/8/3 2/9/3
f 5/10/4 9/5/4 10/11/4
f 2/9/5 8/12/5 3/4/5
f 6/13/6 29/14/6 7/15/6
f 9/16/7 13/17/7 10/18/7
f 7/15/8 11/19/8 8/20/8
f 1/21/9 28/22/9 6/13/9
f 8/20/10 12/23/10 9/16/10
f 13/17/11 16/24/11 17/1/11
f 30/25/12 42/26/12 38/27/12
f 11/19/13 16/24/13 12/23/13
f 28/28/14 41/29/14 39/30/14
f 16/24/15 22/31/15 17/1/15
f 19/32/16 35/33/16 18/34/16
f 15/35/17 21/36/17 16/24/17
f 20/37/18 34/38/18 36/39/18
f 22/31/19 26/40/19 27/2/19
f 19/41/20 25/42/20 20/43/20
f 1/21/9 18/44/9 14/45/9
f 20/43/21 26/40/21 21/36/21
f 18/44/22 24/46/22 19/41/22
f 27/47/23 4/6/23 5/10/23
f 24/48/24 3/4/24 25/49/24
f 25/49/25 4/6/25 26/50/25
f 23/51/26 2/9/26 24/48/26
f 13/17/1 5/3/1 10/18/1
f 31/52/27 36/39/27 34/38/27
f 31/52/28 35/33/28 32/53/28
f 30/54/29 33/55/29 31/52/29
f 18/34/30 33/55/30 14/56/30
f 19/32/31 36/39/31 32/53/31
f 30/54/32 34/38/32 15/57/32
f 37/58/33 42/26/33 40/59/33
f 37/58/34 41/29/34 38/27/34
f 29/60/35 40/59/35 11/61/35
f 11/61/36 42/26/36 15/62/36
f 30/25/37 41/29/37 14/63/37
f 29/60/38 39/30/38 37/58/38
f 17/1/1 22/31/1 27/2/1
f 3/4/2 8/12/2 9/5/2
f 1/7/3 6/64/3 7/8/3
f 5/10/4 4/6/4 9/5/4
f 2/9/5 7/8/5 8/12/5
f 6/13/6 28/22/6 29/14/6
f 9/16/7 12/23/7 13/17/7
f 7/15/8 29/14/8 11/19/8
f 1/21/9 14/45/9 28/22/9
f 8/20/10 11/19/10 12/23/10
f 13/17/11 12/23/11 16/24/11
f 30/25/39 15/62/39 42/26/39
f 11/19/13 15/35/13 16/24/13
f 28/28/40 14/63/40 41/29/40
f 16/24/41 21/36/41 22/31/41
f 19/32/42 32/53/42 35/33/42
f 15/35/17 20/43/17 21/36/17
f 20/37/18 15/57/18 34/38/18
f 22/31/19 21/36/19 26/40/19
f 19/41/20 24/46/20 25/42/20
f 1/21/9 23/65/9 18/44/9
f 20/43/21 25/42/21 26/40/21
f 18/44/22 23/65/22 24/46/22
f 27/47/23 26/50/23 4/6/23
f 24/48/24 2/9/24 3/4/24
f 25/49/25 3/4/25 4/6/25
f 23/51/43 1/7/43 2/9/43
f 13/17/1 17/1/1 5/3/1
f 31/52/27 32/53/27 36/39/27
f 31/52/44 33/55/44 35/33/44
f 30/54/45 14/56/45 33/55/45
f 18/34/30 35/33/30 33/55/30
f 19/32/46 20/37/46 36/39/46
f 30/54/47 31/52/47 34/38/47
f 37/58/33 38/27/33 42/26/33
f 37/58/48 39/30/48 41/29/48
f 29/60/49 37/58/49 40/59/49
f 11/61/36 40/59/36 42/26/36
f 30/25/50 38/27/50 41/29/50
f 29/60/51 28/28/51 39/30/51
v 0.021497 1.299690 0.506512
v 0.009514 1.273803 0.503703
v 0.010689 1.245387 0.507270
v 0.024706 1.222055 0.516255
v 0.047810 1.210059 0.528251
v 0.043525 1.302132 0.489918
v 0.047668 1.278033 0.474962
v 0.054746 1.250271 0.474082
v 0.062861 1.226285 0.487514
v 0.069839 1.212501 0.511657
v 0.102675 1.269247 0.494306
v 0.104368 1.242718 0.505027
v 0.093803 1.221989 0.521769
v 0.069426 1.318666 0.526735
v 0.106547 1.283338 0.547716
v 0.107722 1.254922 0.551282
v 0.095739 1.229035 0.548474
v 0.047397 1.316224 0.543329
v 0.054376 1.302440 0.567472
v 0.062490 1.278454 0.580904
v 0.069568 1.250691 0.580023
v 0.073711 1.226592 0.565068
v 0.023433 1.306736 0.533217
v 0.012868 1.286006 0.549958
v 0.014561 1.259478 0.560680
v 0.028060 1.234258 0.562510
v 0.049747 1.217105 0.554956
v 0.067490 1.311620 0.500030
v 0.089176 1.294467 0.492476
v 0.092530 1.306670 0.538731
v 0.091580 1.337185 0.578705
v 0.088467 1.336840 0.581050
v 0.074750 1.331270 0.547323
v 0.100476 1.304059 0.571169
v 0.063846 1.330061 0.555537
v 0.083563 1.302184 0.583909
v 0.123808 1.327442 0.500240
v 0.124602 1.330331 0.511189
v 0.105516 1.328532 0.503992
v 0.121113 1.306021 0.508358
v 0.105880 1.329856 0.509010
v 0.121478 1.307348 0.513390
vt 0.274240 0.539347
vt 0.265397 0.539709
vt 0.266768 0.532487
vt 0.231414 0.551290
vt 0.214659 0.541092
vt 0.231357 0.542861
vt 0.231940 0.569242
vt 0.215985 0.562822
vt 0.231472 0.559719
vt 0.230890 0.533338
vt 0.220414 0.530957
vt 0.213134 0.552274
vt 0.289666 0.544440
vt 0.282983 0.540904
vt 0.290637 0.536818
vt 0.279682 0.529141
vt 0.275518 0.536619
vt 0.273707 0.532162
vt 0.280945 0.538772
vt 0.286431 0.530872
vt 0.290637 0.551375
vt 0.284312 0.543753
vt 0.278488 0.537315
vt 0.276318 0.541045
vt 0.804698 0.251197
vt 0.792375 0.255919
vt 0.792638 0.252041
vt 0.786357 0.239035
vt 0.792578 0.249274
vt 0.791489 0.249454
vt 0.271776 0.541127
vt 0.760733 0.199751
vt 0.757502 0.209505
vt 0.750621 0.206121
vt 0.278108 0.542645
vt 0.273009 0.544115
vt 0.772804 0.201934
vt 0.766718 0.213101
vt 0.766203 0.208706
vt 0.264007 0.548518
vt 0.277612 0.547903
vt 0.268747 0.555467
vt 0.275021 0.546378
vt 0.280714 0.548498
vt 0.281954 0.545638
vt 0.276612 0.557409
vt 0.240880 0.530957
vt 0.248168 0.561486
vt 0.249693 0.550306
vt 0.246843 0.539760
vt 0.242415 0.571620
vt 0.762287 0.211045
vt 0.762255 0.210544
vt 0.761023 0.221925
vt 0.757316 0.212491
vt 0.750922 0.216572
vt 0.772804 0.220841
vt 0.791613 0.252007
vt 0.791097 0.255536
vt 0.780068 0.250772
vt 0.780487 0.263708
vt 0.804698 0.264828
vt 0.798786 0.238814
vt 0.221949 0.571626
vt 0.283377 0.553479
vn 0.2744 -0.9345 0.2267
vn -0.4641 -0.5471 -0.6966
vn -0.5879 0.3512 -0.7287
vn -0.2287 -0.8724 -0.4320
vn -0.5881 -0.1246 -0.7991
vn 0.1371 0.5392 -0.8309
vn 0.4963 -0.6844 -0.5342
vn 0.3461 0.1177 -0.9308
vn -0.2744 0.9345 -0.2267
vn 0.4701 -0.3048 -0.8283
vn 0.9046 -0.4237 0.0462
vn 0.6588 -0.0175 0.7521
vn 0.9963 0.0311 -0.0804
vn -0.3789 0.9012 -0.2103
vn 0.5879 -0.3512 0.7287
vn -0.7454 0.4629 0.4797
vn 0.5881 0.1246 0.7991
vn 0.5380 -0.5578 0.6321
vn -0.1371 -0.5392 0.8309
vn -0.4702 0.3048 0.8283
vn -0.3461 -0.1177 0.9308
vn -0.4963 0.6844 0.5341
vn -0.5454 -0.7999 0.2506
vn -0.9963 -0.0311 0.0804
vn -0.8722 -0.4536 0.1829
vn -0.9046 0.4237 -0.0462
vn 0.6029 -0.0195 0.7975
vn -0.1765 0.9802 -0.0901
vn 0.6366 0.6202 -0.4583
vn -0.3952 0.8254 -0.4031
vn -0.4849 0.1399 0.8633
vn 0.8723 0.4559 -0.1770
vn 0.9898 -0.1379 -0.0354
vn 0.0052 0.9668 -0.2554
vn 0.3973 0.1469 -0.9058
vn 0.8832 -0.4653 0.0587
vn 0.0713 0.7707 0.6332
vn -0.1633 0.3854 -0.9082
vn 0.4963 -0.6844 -0.5341
vn 0.4702 -0.3048 -0.8283
vn 0.5364 0.5640 0.6278
vn -0.6935 0.4727 0.5437
vn -0.4701 0.3048 0.8283
vn -0.4963 0.6844 0.5342
vn 0.6030 -0.0195 0.7975
vn 0.5908 0.6110 -0.5269
vn -0.4648 0.3076 0.8302
vn 0.9327 0.2970 -0.2046
vn 0.5165 -0.3595 -0.7772
vn -0.0888 0.8043 0.5876
vn -0.0550 0.3433 -0.9376
s off
f 59/66/52 69/67/52 47/68/52
f 45/69/53 51/70/53 46/71/53
f 43/72/54 49/73/54 44/74/54
f 47/75/55 51/70/55 52/76/55
f 44/74/56 50/77/56 45/69/56
f 48/78/57 71/79/57 49/80/57
f 51/81/58 55/82/58 52/83/58
f 49/80/59 53/84/59 50/85/59
f 43/86/60 70/87/60 48/78/60
f 50/85/61 54/88/61 51/81/61
f 55/82/62 58/89/62 59/66/62
f 72/90/63 84/91/63 80/92/63
f 53/84/64 58/89/64 54/88/64
f 70/93/65 83/94/65 81/95/65
f 58/89/66 64/96/66 59/66/66
f 61/97/67 77/98/67 60/99/67
f 57/100/68 63/101/68 58/89/68
f 62/102/69 76/103/69 78/104/69
f 64/96/70 68/105/70 69/67/70
f 61/106/71 67/107/71 62/108/71
f 43/86/60 60/109/60 56/110/60
f 62/108/72 68/105/72 63/101/72
f 60/109/73 66/111/73 61/106/73
f 69/112/74 46/71/74 47/75/74
f 66/113/75 45/69/75 67/114/75
f 67/114/76 46/71/76 68/115/76
f 65/116/77 44/74/77 66/113/77
f 55/82/52 47/68/52 52/83/52
f 73/117/78 78/104/78 76/103/78
f 73/117/79 77/98/79 74/118/79
f 72/119/80 75/120/80 73/117/80
f 60/99/81 75/120/81 56/121/81
f 61/97/82 78/104/82 74/118/82
f 72/119/83 76/103/83 57/122/83
f 79/123/84 84/91/84 82/124/84
f 79/123/85 83/94/85 80/92/85
f 71/125/86 82/124/86 53/126/86
f 53/126/87 84/91/87 57/127/87
f 72/90/88 83/94/88 56/128/88
f 71/125/89 81/95/89 79/123/89
f 59/66/52 64/96/52 69/67/52
f 45/69/53 50/77/53 51/70/53
f 43/72/54 48/129/54 49/73/54
f 47/75/55 46/71/55 51/70/55
f 44/74/56 49/73/56 50/77/56
f 48/78/57 70/87/57 71/79/57
f 51/81/90 54/88/90 55/82/90
f 49/80/59 71/79/59 53/84/59
f 43/86/60 56/110/60 70/87/60
f 50/85/91 53/84/91 54/88/91
f 55/82/62 54/88/62 58/89/62
f 72/90/92 57/127/92 84/91/92
f 53/84/64 57/100/64 58/89/64
f 70/93/65 56/128/65 83/94/65
f 58/89/66 63/101/66 64/96/66
f 61/97/93 74/118/93 77/98/93
f 57/100/68 62/108/68 63/101/68
f 62/102/69 57/122/69 76/103/69
f 64/96/70 63/101/70 68/105/70
f 61/106/94 66/111/94 67/107/94
f 43/86/60 65/130/60 60/109/60
f 62/108/72 67/107/72 68/105/72
f 60/109/95 65/130/95 66/111/95
f 69/112/74 68/115/74 46/71/74
f 66/113/75 44/74/75 45/69/75
f 67/114/76 45/69/76 46/71/76
f 65/116/77 43/72/77 44/74/77
f 55/82/52 59/66/52 47/68/52
f 73/117/96 74/118/96 78/104/96
f 73/117/79 75/120/79 77/98/79
f 72/119/97 56/121/97 75/120/97
f 60/99/81 77/98/81 75/120/81
f 61/97/98 62/102/98 78/104/98
f 72/119/99 73/117/99 76/103/99
f 79/123/84 80/92/84 84/91/84
f 79/123/85 81/95/85 83/94/85
f 71/125/100 79/123/100 82/124/100
f 53/126/87 82/124/87 84/91/87
f 72/90/101 80/92/101 83/94/101
f 71/125/102 70/93/102 81/95/102
