# Blender v2.81 (sub 16) OBJ File: 'garbage.blend'
# www.blender.org
v -0.315083 1.456646 0.610720
v -0.328754 1.435482 0.597052
v -0.333094 1.407488 0.592680
v -0.326939 1.380165 0.598776
v -0.311940 1.360834 0.613706
v -0.288359 1.457298 0.603509
v -0.282467 1.436612 0.584563
v -0.279647 1.408792 0.578259
v -0.280653 1.381294 0.586287
v -0.285216 1.361485 0.606495
v -0.240482 1.411295 0.617325
v -0.246735 1.383461 0.620119
v -0.265634 1.362737 0.626028
v -0.275918 1.459148 0.649786
v -0.254764 1.412493 0.670811
v -0.259104 1.384499 0.666440
v -0.272775 1.363336 0.652772
v -0.302642 1.458496 0.656996
v -0.307205 1.438687 0.677205
v -0.308212 1.411189 0.685232
v -0.305391 1.383370 0.678929
v -0.299499 1.362684 0.659982
v -0.322224 1.457245 0.637463
v -0.341123 1.436520 0.643373
v -0.347376 1.408687 0.646167
v -0.339308 1.381203 0.645097
v -0.319081 1.361433 0.640449
v -0.268777 1.458549 0.623042
v -0.248550 1.438779 0.618395
v -0.260919 1.439816 0.664716
v -0.272262 1.460565 0.709109
v -0.276039 1.460473 0.710128
v -0.276877 1.465517 0.673652
v -0.266070 1.428633 0.695870
v -0.290105 1.465194 0.677221
v -0.286588 1.428133 0.701406
v -0.214931 1.460312 0.645838
v -0.217858 1.460557 0.656801
v -0.232944 1.464844 0.643635
v -0.223505 1.438903 0.646295
v -0.234286 1.464957 0.648660
v -0.224850 1.439016 0.651334
vt 0.274240 0.539347
vt 0.265397 0.539709
vt 0.266768 0.532487
vt 0.231414 0.551290
vt 0.214659 0.541092
vt 0.231357 0.542861
vt 0.231940 0.569242
vt 0.215985 0.562822
vt 0.231472 0.559719
vt 0.230890 0.533338
vt 0.220414 0.530957
vt 0.213134 0.552274
vt 0.289666 0.544440
vt 0.282983 0.540904
vt 0.290637 0.536818
vt 0.279682 0.529141
vt 0.275518 0.536619
vt 0.273707 0.532162
vt 0.280945 0.538772
vt 0.286431 0.530872
vt 0.290637 0.551375
vt 0.284312 0.543753
vt 0.278488 0.537315
vt 0.276318 0.541045
vt 0.804698 0.251197
vt 0.792375 0.255919
vt 0.792638 0.252041
vt 0.786357 0.239035
vt 0.792578 0.249274
vt 0.791489 0.249454
vt 0.271776 0.541127
vt 0.760733 0.199751
vt 0.757502 0.209505
vt 0.750621 0.206121
vt 0.278108 0.542645
vt 0.273009 0.544115
vt 0.772804 0.201934
vt 0.766718 0.213101
vt 0.766203 0.208706
vt 0.264007 0.548518
vt 0.277612 0.547903
vt 0.268747 0.555467
vt 0.275021 0.546378
vt 0.280714 0.548498
vt 0.281954 0.545638
vt 0.276612 0.557409
vt 0.240880 0.530957
vt 0.248168 0.561486
vt 0.249693 0.550306
vt 0.246843 0.539760
vt 0.242415 0.571620
vt 0.762287 0.211045
vt 0.762255 0.210544
vt 0.761023 0.221925
vt 0.757316 0.212491
vt 0.750922 0.216572
vt 0.772804 0.220841
vt 0.791613 0.252007
vt 0.791097 0.255536
vt 0.780068 0.250772
vt 0.780487 0.263708
vt 0.804698 0.264828
vt 0.798786 0.238814
vt 0.221949 0.571626
vt 0.283377 0.553479
vn 0.0328 -0.9990 0.0311
vn -0.2453 -0.2634 -0.9330
vn -0.2176 0.6248 -0.7498
vn -0.1747 -0.6832 -0.7091
vn -0.2601 0.1882 -0.9471
vn 0.5124 0.6548 -0.5556
vn 0.5553 -0.6532 -0.5148
vn 0.6805 0.2269 -0.6967
vn -0.0328 0.9990 -0.0311
vn 0.6953 -0.2247 -0.6827
vn 0.7514 -0.6240 0.2146
vn 0.3219 -0.3297 0.8875
vn 0.9480 -0.1872 0.2573
vn -0.1395 0.9884 -0.0594
vn 0.2176 -0.6248 0.7498
vn -0.7953 0.5129 0.3231
vn 0.2601 -0.1882 0.9470
vn 0.1780 -0.7888 0.5884
vn -0.5124 -0.6548 0.5556
vn -0.6953 0.2247 0.6827
vn -0.6805 -0.2269 0.6967
vn -0.5553 0.6532 0.5148
vn -0.7085 -0.6840 -0.1739
vn -0.9480 0.1872 -0.2573
vn -0.9332 -0.2645 -0.2433
vn -0.7514 0.6240 -0.2146
vn 0.2535 -0.3281 0.9100
vn 0.0127 0.9905 0.1367
vn 0.8435 0.5359 -0.0349
vn -0.0937 0.9610 -0.2602
vn -0.7456 0.0643 0.6633
vn 0.9314 0.2654 0.2493
vn 0.9010 -0.3555 0.2486
vn 0.2390 0.9701 0.0421
vn 0.7224 0.2373 -0.6495
vn 0.7211 -0.6610 0.2074
vn -0.0591 0.5810 0.8117
vn 0.2434 0.5955 -0.7655
vn -0.2601 0.1882 -0.9470
vn 0.3396 0.2770 0.8988
vn -0.7701 0.4966 0.4004
vn 0.2601 -0.1882 0.9471
vn -0.5553 0.6531 0.5148
vn 0.8257 0.5524 -0.1143
vn -0.6907 0.2258 0.6869
vn 0.9742 0.1063 0.1992
vn 0.7109 -0.2983 -0.6368
vn -0.1841 0.6601 0.7282
vn 0.3477 0.5365 -0.7690
s off
f 17/1/1 27/2/1 5/3/1
f 3/4/2 9/5/2 4/6/2
f 1/7/3 7/8/3 2/9/3
f 5/10/4 9/5/4 10/11/4
f 2/9/5 8/12/5 3/4/5
f 6/13/6 29/14/6 7/15/6
f 9/16/7 13/17/7 10/18/7
f 7/15/8 11/19/8 8/20/8
f 1/21/9 28/22/9 6/13/9
f 8/20/10 12/23/10 9/16/10
f 13/17/11 16/24/11 17/1/11
f 30/25/12 42/26/12 38/27/12
f 11/19/13 16/24/13 12/23/13
f 28/28/14 41/29/14 39/30/14
f 16/24/15 22/31/15 17/1/15
f 19/32/16 35/33/16 18/34/16
f 15/35/17 21/36/17 16/24/17
f 20/37/18 34/38/18 36/39/18
f 22/31/19 26/40/19 27/2/19
f 19/41/20 25/42/20 20/43/20
f 1/21/9 18/44/9 14/45/9
f 20/43/21 26/40/21 21/36/21
f 18/44/22 24/46/22 19/41/22
f 27/47/23 4/6/23 5/10/23
f 24/48/24 3/4/24 25/49/24
f 25/49/25 4/6/25 26/50/25
f 23/51/26 2/9/26 24/48/26
f 13/17/1 5/3/1 10/18/1
f 31/52/27 36/39/27 34/38/27
f 31/52/28 35/33/28 32/53/28
f 30/54/29 33/55/29 31/52/29
f 18/34/30 33/55/30 14/56/30
f 19/32/31 36/39/31 32/53/31
f 30/54/32 34/38/32 15/57/32
f 37/58/33 42/26/33 40/59/33
f 37/58/34 41/29/34 38/27/34
f 29/60/35 40/59/35 11/61/35
f 11/61/36 42/26/36 15/62/36
f 30/25/37 41/29/37 14/63/37
f 29/60/38 39/30/38 37/58/38
f 17/1/1 22/31/1 27/2/1
f 3/4/2 8/12/2 9/5/2
f 1/7/3 6/64/3 7/8/3
f 5/10/4 4/6/4 9/5/4
f 2/9/39 7/8/39 8/12/39
f 6/13/6 28/22/6 29/14/6
f 9/16/7 12/23/7 13/17/7
f 7/15/8 29/14/8 11/19/8
f 1/21/9 14/45/9 28/22/9
f 8/20/10 11/19/10 12/23/10
f 13/17/11 12/23/11 16/24/11
f 30/25/40 15/62/40 42/26/40
f 11/19/13 15/35/13 16/24/13
f 28/28/14 14/63/14 41/29/14
f 16/24/15 21/36/15 22/31/15
f 19/32/41 32/53/41 35/33/41
f 15/35/42 20/43/42 21/36/42
f 20/37/18 15/57/18 34/38/18
f 22/31/19 21/36/19 26/40/19
f 19/41/20 24/46/20 25/42/20
f 1/21/9 23/65/9 18/44/9
f 20/43/21 25/42/21 26/40/21
f 18/44/43 23/65/43 24/46/43
f 27/47/23 26/50/23 4/6/23
f 24/48/24 2/9/24 3/4/24
f 25/49/25 3/4/25 4/6/25
f 23/51/26 1/7/26 2/9/26
f 13/17/1 17/1/1 5/3/1
f 31/52/27 32/53/27 36/39/27
f 31/52/28 33/55/28 35/33/28
f 30/54/44 14/56/44 33/55/44
f 18/34/30 35/33/30 33/55/30
f 19/32/45 20/37/45 36/39/45
f 30/54/46 31/52/46 34/38/46
f 37/58/33 38/27/33 42/26/33
f 37/58/34 39/30/34 41/29/34
f 29/60/47 37/58/47 40/59/47
f 11/61/36 40/59/36 42/26/36
f 30/25/48 38/27/48 41/29/48
f 29/60/49 28/28/49 39/30/49
v -0.397411 1.411698 -1.115202
v -0.384318 1.387117 -1.121979
v -0.384582 1.358506 -1.123705
v -0.398133 1.333533 -1.119919
v -0.421339 1.318889 -1.111634
v -0.400967 1.413668 -1.087815
v -0.390478 1.390528 -1.074543
v -0.391695 1.362446 -1.068932
v -0.404293 1.336945 -1.072484
v -0.424895 1.320859 -1.084247
v -0.441280 1.376021 -1.048357
v -0.447234 1.348701 -1.054665
v -0.449687 1.327646 -1.073960
v -0.446995 1.425273 -1.094627
v -0.483752 1.385656 -1.082555
v -0.484016 1.357046 -1.084282
v -0.470923 1.332464 -1.091059
v -0.443439 1.423303 -1.122014
v -0.464042 1.407217 -1.133777
v -0.476639 1.381717 -1.137329
v -0.477856 1.353634 -1.131717
v -0.467367 1.330494 -1.118446
v -0.418647 1.416516 -1.132301
v -0.421100 1.395461 -1.151596
v -0.427054 1.368142 -1.157904
v -0.434915 1.341878 -1.149536
v -0.442575 1.323707 -1.128733
v -0.425759 1.420455 -1.077528
v -0.433419 1.402284 -1.056725
v -0.470201 1.410629 -1.086342
v -0.501516 1.437991 -1.114639
v -0.501013 1.437712 -1.118509
v -0.466790 1.435817 -1.105023
v -0.498632 1.404941 -1.103120
v -0.465030 1.434842 -1.118580
v -0.495902 1.403429 -1.124147
v -0.466443 1.431764 -1.037041
v -0.475149 1.433739 -1.044051
v -0.456646 1.433992 -1.052818
v -0.468065 1.410062 -1.044688
v -0.460636 1.434897 -1.056031
v -0.472066 1.410970 -1.047909
vt 0.274240 0.539347
vt 0.265397 0.539709
vt 0.266768 0.532487
vt 0.231414 0.551290
vt 0.214659 0.541092
vt 0.231357 0.542861
vt 0.231940 0.569242
vt 0.215985 0.562822
vt 0.231472 0.559719
vt 0.230890 0.533338
vt 0.220414 0.530957
vt 0.213134 0.552274
vt 0.289666 0.544440
vt 0.282983 0.540904
vt 0.290637 0.536818
vt 0.279682 0.529141
vt 0.275518 0.536619
vt 0.273707 0.532162
vt 0.280945 0.538772
vt 0.286431 0.530872
vt 0.290637 0.551375
vt 0.284312 0.543753
vt 0.278488 0.537315
vt 0.276318 0.541045
vt 0.804698 0.251197
vt 0.792375 0.255919
vt 0.792638 0.252041
vt 0.786357 0.239035
vt 0.792578 0.249274
vt 0.791489 0.249454
vt 0.271776 0.541127
vt 0.760733 0.199751
vt 0.757502 0.209505
vt 0.750621 0.206121
vt 0.278108 0.542645
vt 0.273009 0.544115
vt 0.772804 0.201934
vt 0.766718 0.213101
vt 0.766203 0.208706
vt 0.264007 0.548518
vt 0.277612 0.547903
vt 0.268747 0.555467
vt 0.275021 0.546378
vt 0.280714 0.548498
vt 0.281954 0.545638
vt 0.276612 0.557409
vt 0.240880 0.530957
vt 0.248168 0.561486
vt 0.249693 0.550306
vt 0.246843 0.539760
vt 0.242415 0.571620
vt 0.762287 0.211045
vt 0.762255 0.210544
vt 0.761023 0.221925
vt 0.757316 0.212491
vt 0.750922 0.216572
vt 0.772804 0.220841
vt 0.791613 0.252007
vt 0.791097 0.255536
vt 0.780068 0.250772
vt 0.780487 0.263708
vt 0.804698 0.264828
vt 0.798786 0.238814
vt 0.221949 0.571626
vt 0.283377 0.553479
vn -0.2495 -0.9677 0.0372
vn 0.8786 -0.4545 0.1468
vn 0.8889 0.4505 0.0830
vn 0.5622 -0.8164 0.1317
vn 0.9914 -0.0170 0.1300
vn 0.4420 0.5886 0.6769
vn 0.1154 -0.6784 0.7256
vn 0.4155 0.1609 0.8952
vn 0.2495 0.9677 -0.0372
vn 0.3027 -0.2766 0.9121
vn -0.6102 -0.4954 0.6182
vn -0.9909 -0.1262 -0.0470
vn -0.6322 -0.0408 0.7737
vn 0.3134 0.9415 -0.1240
vn -0.8889 -0.4505 -0.0830
vn 0.1194 0.4818 -0.8681
vn -0.9914 0.0170 -0.1300
vn -0.7627 -0.6446 -0.0527
vn -0.4420 -0.5886 -0.6769
vn -0.3027 0.2766 -0.9121
vn -0.4155 -0.1609 -0.8952
vn -0.1154 0.6784 -0.7256
vn 0.2835 -0.7715 -0.5695
vn 0.6322 0.0408 -0.7737
vn 0.5195 -0.3966 -0.7569
vn 0.6102 0.4954 -0.6182
vn -0.9847 -0.1273 -0.1187
vn 0.0793 0.9950 -0.0613
vn -0.1780 0.6016 0.7787
vn 0.4711 0.8821 -0.0023
vn -0.2996 0.1112 -0.9476
vn -0.5240 0.3984 0.7528
vn -0.6416 -0.2118 0.7372
vn 0.0739 0.9801 0.1843
vn 0.3592 0.1840 0.9149
vn -0.5999 -0.5360 0.5940
vn -0.5869 0.7122 -0.3850
vn 0.7212 0.4650 0.5135
vn -0.8809 0.4709 -0.0469
vn -0.6322 -0.0409 0.7737
vn 0.0368 0.4827 -0.8750
vn 0.6322 0.0409 -0.7737
vn -0.0963 0.6013 0.7932
vn -0.3081 0.2789 -0.9096
vn -0.5285 0.2379 0.8149
vn 0.2401 -0.3385 0.9098
vn -0.4476 0.7617 -0.4686
vn 0.6722 0.4170 0.6118
s off
f 59/66/50 69/67/50 47/68/50
f 45/69/51 51/70/51 46/71/51
f 43/72/52 49/73/52 44/74/52
f 47/75/53 51/70/53 52/76/53
f 44/74/54 50/77/54 45/69/54
f 48/78/55 71/79/55 49/80/55
f 51/81/56 55/82/56 52/83/56
f 49/80/57 53/84/57 50/85/57
f 43/86/58 70/87/58 48/78/58
f 50/85/59 54/88/59 51/81/59
f 55/82/60 58/89/60 59/66/60
f 72/90/61 84/91/61 80/92/61
f 53/84/62 58/89/62 54/88/62
f 70/93/63 83/94/63 81/95/63
f 58/89/64 64/96/64 59/66/64
f 61/97/65 77/98/65 60/99/65
f 57/100/66 63/101/66 58/89/66
f 62/102/67 76/103/67 78/104/67
f 64/96/68 68/105/68 69/67/68
f 61/106/69 67/107/69 62/108/69
f 43/86/58 60/109/58 56/110/58
f 62/108/70 68/105/70 63/101/70
f 60/109/71 66/111/71 61/106/71
f 69/112/72 46/71/72 47/75/72
f 66/113/73 45/69/73 67/114/73
f 67/114/74 46/71/74 68/115/74
f 65/116/75 44/74/75 66/113/75
f 55/82/50 47/68/50 52/83/50
f 73/117/76 78/104/76 76/103/76
f 73/117/77 77/98/77 74/118/77
f 72/119/78 75/120/78 73/117/78
f 60/99/79 75/120/79 56/121/79
f 61/97/80 78/104/80 74/118/80
f 72/119/81 76/103/81 57/122/81
f 79/123/82 84/91/82 82/124/82
f 79/123/83 83/94/83 80/92/83
f 71/125/84 82/124/84 53/126/84
f 53/126/85 84/91/85 57/127/85
f 72/90/86 83/94/86 56/128/86
f 71/125/87 81/95/87 79/123/87
f 59/66/50 64/96/50 69/67/50
f 45/69/51 50/77/51 51/70/51
f 43/72/52 48/129/52 49/73/52
f 47/75/53 46/71/53 51/70/53
f 44/74/54 49/73/54 50/77/54
f 48/78/55 70/87/55 71/79/55
f 51/81/56 54/88/56 55/82/56
f 49/80/57 71/79/57 53/84/57
f 43/86/58 56/110/58 70/87/58
f 50/85/59 53/84/59 54/88/59
f 55/82/60 54/88/60 58/89/60
f 72/90/88 57/127/88 84/91/88
f 53/84/89 57/100/89 58/89/89
f 70/93/63 56/128/63 83/94/63
f 58/89/64 63/101/64 64/96/64
f 61/97/90 74/118/90 77/98/90
f 57/100/66 62/108/66 63/101/66
f 62/102/67 57/122/67 76/103/67
f 64/96/68 63/101/68 68/105/68
f 61/106/69 66/111/69 67/107/69
f 43/86/58 65/130/58 60/109/58
f 62/108/70 67/107/70 68/105/70
f 60/109/71 65/130/71 66/111/71
f 69/112/72 68/115/72 46/71/72
f 66/113/91 44/74/91 45/69/91
f 67/114/74 45/69/74 46/71/74
f 65/116/75 43/72/75 44/74/75
f 55/82/50 59/66/50 47/68/50
f 73/117/76 74/118/76 78/104/76
f 73/117/77 75/120/77 77/98/77
f 72/119/92 56/121/92 75/120/92
f 60/99/79 77/98/79 75/120/79
f 61/97/93 62/102/93 78/104/93
f 72/119/94 73/117/94 76/103/94
f 79/123/82 80/92/82 84/91/82
f 79/123/83 81/95/83 83/94/83
f 71/125/95 79/123/95 82/124/95
f 53/126/85 82/124/85 84/91/85
f 72/90/96 80/92/96 83/94/96
f 71/125/97 70/93/97 81/95/97
