# Blender v2.81 (sub 16) OBJ File: 'garbage.blend'
# www.blender.org
v 0.179250 1.150298 -0.661097
v 0.188493 1.132091 -0.640981
v 0.184810 1.108256 -0.625491
v 0.169188 1.085181 -0.618777
v 0.145811 1.069049 -0.622638
v 0.156588 1.163689 -0.652512
v 0.149242 1.155283 -0.626111
v 0.139487 1.135037 -0.608321
v 0.129936 1.108374 -0.603907
v 0.123150 1.082439 -0.614052
v 0.094928 1.137872 -0.641073
v 0.091347 1.110829 -0.632271
v 0.100870 1.083857 -0.630428
v 0.134691 1.153134 -0.693849
v 0.095692 1.113926 -0.690996
v 0.092009 1.090092 -0.675505
v 0.101252 1.071884 -0.655390
v 0.157353 1.139743 -0.702434
v 0.150566 1.113809 -0.712580
v 0.141016 1.087146 -0.708166
v 0.131260 1.066899 -0.690375
v 0.123914 1.058494 -0.663975
v 0.179632 1.138326 -0.686058
v 0.189155 1.111353 -0.684216
v 0.185575 1.084311 -0.675414
v 0.169850 1.064444 -0.662011
v 0.146194 1.057076 -0.647599
v 0.134309 1.165106 -0.668888
v 0.110653 1.157739 -0.654475
v 0.111315 1.137001 -0.697710
v 0.117630 1.134097 -0.747526
v 0.120833 1.132204 -0.748739
v 0.131868 1.149471 -0.718133
v 0.105146 1.114175 -0.721439
v 0.143086 1.142843 -0.722383
v 0.122546 1.103894 -0.728031
v 0.079891 1.178856 -0.685376
v 0.080048 1.173947 -0.695609
v 0.098398 1.176628 -0.686927
v 0.081003 1.157234 -0.677418
v 0.098469 1.174378 -0.691617
v 0.081075 1.154978 -0.682121
vt 0.274240 0.539347
vt 0.265397 0.539709
vt 0.266768 0.532487
vt 0.231414 0.551290
vt 0.214659 0.541092
vt 0.231357 0.542861
vt 0.231940 0.569242
vt 0.215985 0.562822
vt 0.231472 0.559719
vt 0.230890 0.533338
vt 0.220414 0.530957
vt 0.213134 0.552274
vt 0.289666 0.544440
vt 0.282983 0.540904
vt 0.290637 0.536818
vt 0.279682 0.529141
vt 0.275518 0.536619
vt 0.273707 0.532162
vt 0.280945 0.538772
vt 0.286431 0.530872
vt 0.290637 0.551375
vt 0.284312 0.543753
vt 0.278488 0.537315
vt 0.276318 0.541045
vt 0.804698 0.251197
vt 0.792375 0.255919
vt 0.792638 0.252041
vt 0.786357 0.239035
vt 0.792578 0.249274
vt 0.791489 0.249454
vt 0.271776 0.541127
vt 0.760733 0.199751
vt 0.757502 0.209505
vt 0.750621 0.206121
vt 0.278108 0.542645
vt 0.273009 0.544115
vt 0.772804 0.201934
vt 0.766718 0.213101
vt 0.766203 0.208706
vt 0.264007 0.548518
vt 0.277612 0.547903
vt 0.268747 0.555467
vt 0.275021 0.546378
vt 0.280714 0.548498
vt 0.281954 0.545638
vt 0.276612 0.557409
vt 0.240880 0.530957
vt 0.248168 0.561486
vt 0.249693 0.550306
vt 0.246843 0.539760
vt 0.242415 0.571620
vt 0.762287 0.211045
vt 0.762255 0.210544
vt 0.761023 0.221925
vt 0.757316 0.212491
vt 0.750922 0.216572
vt 0.772804 0.220841
vt 0.791613 0.252007
vt 0.791097 0.255536
vt 0.780068 0.250772
vt 0.780487 0.263708
vt 0.804698 0.264828
vt 0.798786 0.238814
vt 0.221949 0.571626
vt 0.283377 0.553479
vn -0.3486 -0.8471 0.4010
vn 0.3660 0.0229 0.9303
vn 0.5734 0.7210 0.3891
vn 0.1169 -0.3882 0.9141
vn 0.5236 0.4059 0.7490
vn -0.1350 0.9544 0.2663
vn -0.5915 -0.1548 0.7913
vn -0.3893 0.7067 0.5908
vn 0.3486 0.8471 -0.4010
vn -0.5469 0.3237 0.7721
vn -0.9367 -0.3212 0.1397
vn -0.6103 -0.4807 -0.6296
vn -0.9917 0.1093 -0.0676
vn 0.4503 0.8077 -0.3805
vn -0.5734 -0.7210 -0.3891
vn 0.8143 0.0139 -0.5802
vn -0.5236 -0.4059 -0.7491
vn -0.5496 -0.8164 -0.1773
vn 0.1350 -0.9544 -0.2663
vn 0.5469 -0.3237 -0.7721
vn 0.3893 -0.7067 -0.5908
vn 0.5915 0.1548 -0.7913
vn 0.4802 -0.7880 0.3853
vn 0.9917 -0.1093 0.0676
vn 0.8341 -0.4923 0.2489
vn 0.9367 0.3212 -0.1397
vn -0.5523 -0.5137 -0.6566
vn 0.2642 0.7961 -0.5444
vn -0.6008 0.7900 -0.1222
vn 0.4474 0.8752 -0.1840
vn 0.5479 -0.4721 -0.6907
vn -0.8335 0.4902 -0.2548
vn -0.9988 -0.0484 0.0079
vn 0.0722 0.8997 -0.4305
vn -0.4358 0.7143 0.5475
vn -0.9186 -0.3615 0.1593
vn 0.0419 0.1748 -0.9837
vn 0.1439 0.8779 0.4567
vn 0.5236 0.4059 0.7491
vn -0.4404 0.0371 -0.8970
vn 0.7676 -0.0185 -0.6406
vn -0.5603 0.8261 -0.0595
vn 0.5420 -0.3226 -0.7760
vn -0.9105 0.3897 -0.1382
vn -0.5951 0.2505 0.7636
vn 0.2014 0.2246 -0.9534
vn 0.0305 0.8688 0.4942
s off
f 17/1/1 27/2/1 5/3/1
f 3/4/2 9/5/2 4/6/2
f 1/7/3 7/8/3 2/9/3
f 5/10/4 9/5/4 10/11/4
f 2/9/5 8/12/5 3/4/5
f 6/13/6 29/14/6 7/15/6
f 9/16/7 13/17/7 10/18/7
f 7/15/8 11/19/8 8/20/8
f 1/21/9 28/22/9 6/13/9
f 8/20/10 12/23/10 9/16/10
f 13/17/11 16/24/11 17/1/11
f 30/25/12 42/26/12 38/27/12
f 11/19/13 16/24/13 12/23/13
f 28/28/14 41/29/14 39/30/14
f 16/24/15 22/31/15 17/1/15
f 19/32/16 35/33/16 18/34/16
f 15/35/17 21/36/17 16/24/17
f 20/37/18 34/38/18 36/39/18
f 22/31/19 26/40/19 27/2/19
f 19/41/20 25/42/20 20/43/20
f 1/21/9 18/44/9 14/45/9
f 20/43/21 26/40/21 21/36/21
f 18/44/22 24/46/22 19/41/22
f 27/47/23 4/6/23 5/10/23
f 24/48/24 3/4/24 25/49/24
f 25/49/25 4/6/25 26/50/25
f 23/51/26 2/9/26 24/48/26
f 13/17/1 5/3/1 10/18/1
f 31/52/27 36/39/27 34/38/27
f 31/52/28 35/33/28 32/53/28
f 30/54/29 33/55/29 31/52/29
f 18/34/30 33/55/30 14/56/30
f 19/32/31 36/39/31 32/53/31
f 30/54/32 34/38/32 15/57/32
f 37/58/33 42/26/33 40/59/33
f 37/58/34 41/29/34 38/27/34
f 29/60/35 40/59/35 11/61/35
f 11/61/36 42/26/36 15/62/36
f 30/25/37 41/29/37 14/63/37
f 29/60/38 39/30/38 37/58/38
f 17/1/1 22/31/1 27/2/1
f 3/4/2 8/12/2 9/5/2
f 1/7/3 6/64/3 7/8/3
f 5/10/4 4/6/4 9/5/4
f 2/9/39 7/8/39 8/12/39
f 6/13/6 28/22/6 29/14/6
f 9/16/7 12/23/7 13/17/7
f 7/15/8 29/14/8 11/19/8
f 1/21/9 14/45/9 28/22/9
f 8/20/10 11/19/10 12/23/10
f 13/17/11 12/23/11 16/24/11
f 30/25/40 15/62/40 42/26/40
f 11/19/13 15/35/13 16/24/13
f 28/28/14 14/63/14 41/29/14
f 16/24/15 21/36/15 22/31/15
f 19/32/41 32/53/41 35/33/41
f 15/35/17 20/43/17 21/36/17
f 20/37/18 15/57/18 34/38/18
f 22/31/19 21/36/19 26/40/19
f 19/41/20 24/46/20 25/42/20
f 1/21/9 23/65/9 18/44/9
f 20/43/21 25/42/21 26/40/21
f 18/44/22 23/65/22 24/46/22
f 27/47/23 26/50/23 4/6/23
f 24/48/24 2/9/24 3/4/24
f 25/49/25 3/4/25 4/6/25
f 23/51/26 1/7/26 2/9/26
f 13/17/1 17/1/1 5/3/1
f 31/52/27 32/53/27 36/39/27
f 31/52/28 33/55/28 35/33/28
f 30/54/42 14/56/42 33/55/42
f 18/34/30 35/33/30 33/55/30
f 19/32/43 20/37/43 36/39/43
f 30/54/44 31/52/44 34/38/44
f 37/58/33 38/27/33 42/26/33
f 37/58/34 39/30/34 41/29/34
f 29/60/45 37/58/45 40/59/45
f 11/61/36 40/59/36 42/26/36
f 30/25/46 38/27/46 41/29/46
f 29/60/47 28/28/47 39/30/47
v 0.770502 1.311852 0.314378
v 0.746887 1.297620 0.322214
v 0.733959 1.273108 0.329535
v 0.735180 1.244883 0.334379
v 0.750224 1.220509 0.335448
v 0.778574 1.304211 0.289020
v 0.760869 1.284385 0.278293
v 0.750103 1.257825 0.278819
v 0.749162 1.231648 0.290458
v 0.758297 1.212867 0.310091
v 0.802913 1.243970 0.269576
v 0.794896 1.219649 0.282453
v 0.784702 1.205940 0.305469
v 0.823311 1.297997 0.305134
v 0.839577 1.245397 0.311048
v 0.826649 1.220885 0.318369
v 0.803034 1.206653 0.326205
v 0.815239 1.305638 0.330492
v 0.824374 1.286857 0.350124
v 0.823433 1.260680 0.361763
v 0.812667 1.234120 0.362289
v 0.794962 1.214294 0.351562
v 0.788834 1.312566 0.335114
v 0.778640 1.298856 0.358130
v 0.770623 1.274535 0.371007
v 0.766933 1.246119 0.370295
v 0.768557 1.221222 0.356184
v 0.804979 1.297283 0.284398
v 0.806603 1.272386 0.270288
v 0.838356 1.273622 0.306204
v 0.874070 1.293204 0.335716
v 0.872929 1.294284 0.339300
v 0.843950 1.302324 0.318034
v 0.858329 1.262237 0.330568
v 0.839954 1.306106 0.330586
v 0.852131 1.268104 0.350037
v 0.851879 1.279217 0.254462
v 0.859395 1.279510 0.262963
v 0.841926 1.289626 0.266398
v 0.842386 1.261897 0.266376
v 0.845371 1.289760 0.270294
v 0.845840 1.262032 0.270283
vt 0.274240 0.539347
vt 0.265397 0.539709
vt 0.266768 0.532487
vt 0.231414 0.551290
vt 0.214659 0.541092
vt 0.231357 0.542861
vt 0.231940 0.569242
vt 0.215985 0.562822
vt 0.231472 0.559719
vt 0.230890 0.533338
vt 0.220414 0.530957
vt 0.213134 0.552274
vt 0.289666 0.544440
vt 0.282983 0.540904
vt 0.290637 0.536818
vt 0.279682 0.529141
vt 0.275518 0.536619
vt 0.273707 0.532162
vt 0.280945 0.538772
vt 0.286431 0.530872
vt 0.290637 0.551375
vt 0.284312 0.543753
vt 0.278488 0.537315
vt 0.276318 0.541045
vt 0.804698 0.251197
vt 0.792375 0.255919
vt 0.792638 0.252041
vt 0.786357 0.239035
vt 0.792578 0.249274
vt 0.791489 0.249454
vt 0.271776 0.541127
vt 0.760733 0.199751
vt 0.757502 0.209505
vt 0.750621 0.206121
vt 0.278108 0.542645
vt 0.273009 0.544115
vt 0.772804 0.201934
vt 0.766718 0.213101
vt 0.766203 0.208706
vt 0.264007 0.548518
vt 0.277612 0.547903
vt 0.268747 0.555467
vt 0.275021 0.546378
vt 0.280714 0.548498
vt 0.281954 0.545638
vt 0.276612 0.557409
vt 0.240880 0.530957
vt 0.248168 0.561486
vt 0.249693 0.550306
vt 0.246843 0.539760
vt 0.242415 0.571620
vt 0.762287 0.211045
vt 0.762255 0.210544
vt 0.761023 0.221925
vt 0.757316 0.212491
vt 0.750922 0.216572
vt 0.772804 0.220841
vt 0.791613 0.252007
vt 0.791097 0.255536
vt 0.780068 0.250772
vt 0.780487 0.263708
vt 0.804698 0.264828
vt 0.798786 0.238814
vt 0.221949 0.571626
vt 0.283377 0.553479
vn -0.2114 -0.9524 0.2197
vn -0.9565 -0.0891 -0.2777
vn -0.5668 0.7214 -0.3978
vn -0.8436 -0.5255 -0.1102
vn -0.8610 0.3415 -0.3770
vn -0.0233 0.4918 -0.8704
vn -0.3001 -0.7552 -0.5828
vn -0.1606 0.0456 -0.9860
vn 0.2114 0.9524 -0.2197
vn -0.2562 -0.3850 -0.8866
vn 0.4051 -0.8531 -0.3287
vn 0.8082 -0.4901 0.3265
vn 0.6525 -0.5112 -0.5593
vn 0.1305 0.9802 -0.1491
vn 0.5668 -0.7214 0.3978
vn -0.0163 0.7187 0.6951
vn 0.8610 -0.3415 0.3770
vn 0.3727 -0.8491 0.3745
vn 0.0233 -0.4918 0.8704
vn 0.2562 0.3850 0.8866
vn 0.1606 -0.0456 0.9860
vn 0.3001 0.7552 0.5828
vn -0.6819 -0.3938 0.6164
vn -0.6525 0.5112 0.5593
vn -0.7481 0.0807 0.6586
vn -0.4051 0.8531 0.3288
vn 0.7917 -0.4678 0.3930
vn 0.3700 0.9155 -0.1581
vn 0.5433 0.2272 -0.8082
vn -0.0170 0.9558 -0.2935
vn 0.1736 0.2525 0.9519
vn 0.7523 -0.0797 -0.6540
vn 0.5783 -0.6532 -0.4888
vn 0.4043 0.8292 -0.3860
vn -0.0977 0.0376 -0.9945
vn 0.3741 -0.8773 -0.3005
vn 0.7809 0.4985 0.3766
vn -0.3490 0.5425 -0.7641
vn 0.4051 -0.8531 -0.3288
vn 0.9808 0.0735 0.1807
vn 0.0558 0.6886 0.7230
vn -0.4051 0.8531 0.3287
vn 0.4734 0.2552 -0.8431
vn -0.0170 0.9558 -0.2934
vn 0.2623 0.3841 0.8852
vn 0.6931 -0.2392 -0.6800
vn -0.2294 -0.4631 -0.8561
vn 0.6681 0.6211 0.4097
vn -0.3129 0.4528 -0.8349
s off
f 59/66/48 69/67/48 47/68/48
f 45/69/49 51/70/49 46/71/49
f 43/72/50 49/73/50 44/74/50
f 47/75/51 51/70/51 52/76/51
f 44/74/52 50/77/52 45/69/52
f 48/78/53 71/79/53 49/80/53
f 51/81/54 55/82/54 52/83/54
f 49/80/55 53/84/55 50/85/55
f 43/86/56 70/87/56 48/78/56
f 50/85/57 54/88/57 51/81/57
f 55/82/58 58/89/58 59/66/58
f 72/90/59 84/91/59 80/92/59
f 53/84/60 58/89/60 54/88/60
f 70/93/61 83/94/61 81/95/61
f 58/89/62 64/96/62 59/66/62
f 61/97/63 77/98/63 60/99/63
f 57/100/64 63/101/64 58/89/64
f 62/102/65 76/103/65 78/104/65
f 64/96/66 68/105/66 69/67/66
f 61/106/67 67/107/67 62/108/67
f 43/86/56 60/109/56 56/110/56
f 62/108/68 68/105/68 63/101/68
f 60/109/69 66/111/69 61/106/69
f 69/112/70 46/71/70 47/75/70
f 66/113/71 45/69/71 67/114/71
f 67/114/72 46/71/72 68/115/72
f 65/116/73 44/74/73 66/113/73
f 55/82/48 47/68/48 52/83/48
f 73/117/74 78/104/74 76/103/74
f 73/117/75 77/98/75 74/118/75
f 72/119/76 75/120/76 73/117/76
f 60/99/77 75/120/77 56/121/77
f 61/97/78 78/104/78 74/118/78
f 72/119/79 76/103/79 57/122/79
f 79/123/80 84/91/80 82/124/80
f 79/123/81 83/94/81 80/92/81
f 71/125/82 82/124/82 53/126/82
f 53/126/83 84/91/83 57/127/83
f 72/90/84 83/94/84 56/128/84
f 71/125/85 81/95/85 79/123/85
f 59/66/48 64/96/48 69/67/48
f 45/69/49 50/77/49 51/70/49
f 43/72/50 48/129/50 49/73/50
f 47/75/51 46/71/51 51/70/51
f 44/74/52 49/73/52 50/77/52
f 48/78/53 70/87/53 71/79/53
f 51/81/54 54/88/54 55/82/54
f 49/80/55 71/79/55 53/84/55
f 43/86/56 56/110/56 70/87/56
f 50/85/57 53/84/57 54/88/57
f 55/82/86 54/88/86 58/89/86
f 72/90/87 57/127/87 84/91/87
f 53/84/60 57/100/60 58/89/60
f 70/93/61 56/128/61 83/94/61
f 58/89/62 63/101/62 64/96/62
f 61/97/88 74/118/88 77/98/88
f 57/100/64 62/108/64 63/101/64
f 62/102/65 57/122/65 76/103/65
f 64/96/66 63/101/66 68/105/66
f 61/106/67 66/111/67 67/107/67
f 43/86/56 65/130/56 60/109/56
f 62/108/68 67/107/68 68/105/68
f 60/109/69 65/130/69 66/111/69
f 69/112/70 68/115/70 46/71/70
f 66/113/71 44/74/71 45/69/71
f 67/114/72 45/69/72 46/71/72
f 65/116/89 43/72/89 44/74/89
f 55/82/48 59/66/48 47/68/48
f 73/117/74 74/118/74 78/104/74
f 73/117/75 75/120/75 77/98/75
f 72/119/90 56/121/90 75/120/90
f 60/99/91 77/98/91 75/120/91
f 61/97/92 62/102/92 78/104/92
f 72/119/93 73/117/93 76/103/93
f 79/123/80 80/92/80 84/91/80
f 79/123/81 81/95/81 83/94/81
f 71/125/94 79/123/94 82/124/94
f 53/126/83 82/124/83 84/91/83
f 72/90/95 80/92/95 83/94/95
f 71/125/96 70/93/96 81/95/96
