# Blender v2.81 (sub 16) OBJ File: 'garbage.blend'
# www.blender.org
v -0.122071 1.340850 -0.727208
v -0.122048 1.312426 -0.723505
v -0.134337 1.288749 -0.713017
v -0.155643 1.276164 -0.698552
v -0.180260 1.278041 -0.683988
v -0.118202 1.353867 -0.703080
v -0.115346 1.334973 -0.681715
v -0.126597 1.314785 -0.664762
v -0.148941 1.298711 -0.656763
v -0.176390 1.291059 -0.659861
v -0.160255 1.356176 -0.649925
v -0.178089 1.334557 -0.643913
v -0.193219 1.311754 -0.652442
v -0.155729 1.382241 -0.712371
v -0.201652 1.371533 -0.683342
v -0.213940 1.347856 -0.672854
v -0.213917 1.319433 -0.669151
v -0.159598 1.369224 -0.736498
v -0.187047 1.361572 -0.739596
v -0.209391 1.345498 -0.731597
v -0.220642 1.325309 -0.714643
v -0.217787 1.306415 -0.693278
v -0.142770 1.348528 -0.743917
v -0.157899 1.325725 -0.752446
v -0.175733 1.304106 -0.746434
v -0.191494 1.289463 -0.727493
v -0.200958 1.285719 -0.700697
v -0.135030 1.374563 -0.695662
v -0.144494 1.370820 -0.668866
v -0.180345 1.384119 -0.697806
v -0.203308 1.410757 -0.733766
v -0.203855 1.408917 -0.737176
v -0.171298 1.396280 -0.725470
v -0.211617 1.386744 -0.709525
v -0.173213 1.389836 -0.737413
v -0.214588 1.376749 -0.728050
v -0.157222 1.417081 -0.662167
v -0.165708 1.420229 -0.669017
v -0.151227 1.408705 -0.677780
v -0.169238 1.397523 -0.659900
v -0.155116 1.410147 -0.680919
v -0.173138 1.398970 -0.663048
vt 0.274240 0.539347
vt 0.265397 0.539709
vt 0.266768 0.532487
vt 0.231414 0.551290
vt 0.214659 0.541092
vt 0.231357 0.542861
vt 0.231940 0.569242
vt 0.215985 0.562822
vt 0.231472 0.559719
vt 0.230890 0.533338
vt 0.220414 0.530957
vt 0.213134 0.552274
vt 0.289666 0.544440
vt 0.282983 0.540904
vt 0.290637 0.536818
vt 0.279682 0.529141
vt 0.275518 0.536619
vt 0.273707 0.532162
vt 0.280945 0.538772
vt 0.286431 0.530872
vt 0.290637 0.551375
vt 0.284312 0.543753
vt 0.278488 0.537315
vt 0.276318 0.541045
vt 0.804698 0.251197
vt 0.792375 0.255919
vt 0.792638 0.252041
vt 0.786357 0.239035
vt 0.792578 0.249274
vt 0.791489 0.249454
vt 0.271776 0.541127
vt 0.760733 0.199751
vt 0.757502 0.209505
vt 0.750621 0.206121
vt 0.278108 0.542645
vt 0.273009 0.544115
vt 0.772804 0.201934
vt 0.766718 0.213101
vt 0.766203 0.208706
vt 0.264007 0.548518
vt 0.277612 0.547903
vt 0.268747 0.555467
vt 0.275021 0.546378
vt 0.280714 0.548498
vt 0.281954 0.545638
vt 0.276612 0.557409
vt 0.240880 0.530957
vt 0.248168 0.561486
vt 0.249693 0.550306
vt 0.246843 0.539760
vt 0.242415 0.571620
vt 0.762287 0.211045
vt 0.762255 0.210544
vt 0.761023 0.221925
vt 0.757316 0.212491
vt 0.750922 0.216572
vt 0.772804 0.220841
vt 0.791613 0.252007
vt 0.791097 0.255536
vt 0.780068 0.250772
vt 0.780487 0.263708
vt 0.804698 0.264828
vt 0.798786 0.238814
vt 0.221949 0.571626
vt 0.283377 0.553479
vn -0.6067 -0.6549 0.4506
vn 0.6252 -0.7244 0.2906
vn 0.9887 -0.0186 -0.1486
vn 0.1944 -0.8760 0.4415
vn 0.8994 -0.4283 0.0869
vn 0.7844 0.5129 0.3487
vn -0.0099 -0.3446 0.9387
vn 0.6362 0.2565 0.7277
vn 0.6067 0.6549 -0.4506
vn 0.3619 -0.0396 0.9314
vn -0.6015 0.1027 0.7923
vn -0.9386 0.3417 0.0486
vn -0.4004 0.5368 0.7427
vn 0.6329 0.5730 -0.5207
vn -0.9887 0.0186 0.1486
vn 0.1052 0.0253 -0.9941
vn -0.8994 0.4283 -0.0868
vn -0.9493 -0.1866 0.2529
vn -0.7844 -0.5129 -0.3487
vn -0.3619 0.0396 -0.9314
vn -0.6362 -0.2565 -0.7276
vn 0.0099 0.3445 -0.9387
vn -0.1929 -0.9601 -0.2022
vn 0.4004 -0.5368 -0.7427
vn 0.1261 -0.8329 -0.5389
vn 0.6015 -0.1027 -0.7923
vn -0.9498 0.3123 -0.0162
vn 0.4618 0.7475 -0.4774
vn 0.2645 0.8480 0.4593
vn 0.7757 0.4950 -0.3915
vn -0.4346 -0.1086 -0.8940
vn -0.1303 0.8350 0.5347
vn -0.4866 0.3896 0.7819
vn 0.5067 0.8256 -0.2484
vn 0.6003 0.3084 0.7379
vn -0.6144 0.0564 0.7870
vn -0.3161 0.7127 -0.6262
vn 0.9439 0.2247 0.2419
vn 0.1944 -0.8760 0.4414
vn 0.8994 -0.4283 0.0868
vn -0.0099 -0.3445 0.9387
vn 0.6362 0.2565 0.7276
vn -0.5979 0.7744 -0.2069
vn 0.0308 0.0620 -0.9976
vn -0.1929 -0.9601 -0.2023
vn 0.4618 0.7476 -0.4774
vn 0.3399 0.8149 0.4694
vn -0.3651 0.0448 -0.9299
vn -0.1856 0.7292 0.6587
vn -0.4867 0.3896 0.7819
vn 0.2808 -0.0614 0.9578
vn -0.1917 0.6581 -0.7281
vn 0.9033 0.2436 0.3531
s off
f 17/1/1 27/2/1 5/3/1
f 3/4/2 9/5/2 4/6/2
f 1/7/3 7/8/3 2/9/3
f 5/10/4 9/5/4 10/11/4
f 2/9/5 8/12/5 3/4/5
f 6/13/6 29/14/6 7/15/6
f 9/16/7 13/17/7 10/18/7
f 7/15/8 11/19/8 8/20/8
f 1/21/9 28/22/9 6/13/9
f 8/20/10 12/23/10 9/16/10
f 13/17/11 16/24/11 17/1/11
f 30/25/12 42/26/12 38/27/12
f 11/19/13 16/24/13 12/23/13
f 28/28/14 41/29/14 39/30/14
f 16/24/15 22/31/15 17/1/15
f 19/32/16 35/33/16 18/34/16
f 15/35/17 21/36/17 16/24/17
f 20/37/18 34/38/18 36/39/18
f 22/31/19 26/40/19 27/2/19
f 19/41/20 25/42/20 20/43/20
f 1/21/9 18/44/9 14/45/9
f 20/43/21 26/40/21 21/36/21
f 18/44/22 24/46/22 19/41/22
f 27/47/23 4/6/23 5/10/23
f 24/48/24 3/4/24 25/49/24
f 25/49/25 4/6/25 26/50/25
f 23/51/26 2/9/26 24/48/26
f 13/17/1 5/3/1 10/18/1
f 31/52/27 36/39/27 34/38/27
f 31/52/28 35/33/28 32/53/28
f 30/54/29 33/55/29 31/52/29
f 18/34/30 33/55/30 14/56/30
f 19/32/31 36/39/31 32/53/31
f 30/54/32 34/38/32 15/57/32
f 37/58/33 42/26/33 40/59/33
f 37/58/34 41/29/34 38/27/34
f 29/60/35 40/59/35 11/61/35
f 11/61/36 42/26/36 15/62/36
f 30/25/37 41/29/37 14/63/37
f 29/60/38 39/30/38 37/58/38
f 17/1/1 22/31/1 27/2/1
f 3/4/2 8/12/2 9/5/2
f 1/7/3 6/64/3 7/8/3
f 5/10/39 4/6/39 9/5/39
f 2/9/40 7/8/40 8/12/40
f 6/13/6 28/22/6 29/14/6
f 9/16/41 12/23/41 13/17/41
f 7/15/42 29/14/42 11/19/42
f 1/21/9 14/45/9 28/22/9
f 8/20/10 11/19/10 12/23/10
f 13/17/11 12/23/11 16/24/11
f 30/25/43 15/62/43 42/26/43
f 11/19/13 15/35/13 16/24/13
f 28/28/14 14/63/14 41/29/14
f 16/24/15 21/36/15 22/31/15
f 19/32/44 32/53/44 35/33/44
f 15/35/17 20/43/17 21/36/17
f 20/37/18 15/57/18 34/38/18
f 22/31/19 21/36/19 26/40/19
f 19/41/20 24/46/20 25/42/20
f 1/21/9 23/65/9 18/44/9
f 20/43/21 25/42/21 26/40/21
f 18/44/22 23/65/22 24/46/22
f 27/47/45 26/50/45 4/6/45
f 24/48/24 2/9/24 3/4/24
f 25/49/25 3/4/25 4/6/25
f 23/51/26 1/7/26 2/9/26
f 13/17/1 17/1/1 5/3/1
f 31/52/27 32/53/27 36/39/27
f 31/52/46 33/55/46 35/33/46
f 30/54/47 14/56/47 33/55/47
f 18/34/30 35/33/30 33/55/30
f 19/32/48 20/37/48 36/39/48
f 30/54/49 31/52/49 34/38/49
f 37/58/50 38/27/50 42/26/50
f 37/58/34 39/30/34 41/29/34
f 29/60/51 37/58/51 40/59/51
f 11/61/36 40/59/36 42/26/36
f 30/25/52 38/27/52 41/29/52
f 29/60/53 28/28/53 39/30/53
v 1.288044 1.243201 -0.201623
v 1.272102 1.228333 -0.183011
v 1.262960 1.203206 -0.172684
v 1.263067 1.174552 -0.173411
v 1.272395 1.150049 -0.184995
v 1.278338 1.240234 -0.227382
v 1.255291 1.223193 -0.227627
v 1.243548 1.197271 -0.224203
v 1.246256 1.169412 -0.218027
v 1.262689 1.147081 -0.210754
v 1.278067 1.184109 -0.265452
v 1.276151 1.158013 -0.253750
v 1.279949 1.140500 -0.231379
v 1.322563 1.230039 -0.242871
v 1.331998 1.176882 -0.255181
v 1.322856 1.151754 -0.244855
v 1.306914 1.136887 -0.226243
v 1.332269 1.233007 -0.217112
v 1.348702 1.210676 -0.209838
v 1.351410 1.182817 -0.203662
v 1.339667 1.156894 -0.200238
v 1.316620 1.139854 -0.200484
v 1.315010 1.239588 -0.196487
v 1.318808 1.222075 -0.174116
v 1.316891 1.195979 -0.162414
v 1.309773 1.168293 -0.164516
v 1.299361 1.146435 -0.179859
v 1.295598 1.233653 -0.248006
v 1.285186 1.211795 -0.263350
v 1.331891 1.205536 -0.254455
v 1.380360 1.218395 -0.250530
v 1.381731 1.218814 -0.246890
v 1.347173 1.231382 -0.244784
v 1.360712 1.189323 -0.249099
v 1.351977 1.232851 -0.232033
v 1.368164 1.191602 -0.229321
v 1.312560 1.220361 -0.302392
v 1.323615 1.218879 -0.300286
v 1.313155 1.228597 -0.285609
v 1.309828 1.201357 -0.289608
v 1.318222 1.227918 -0.284644
v 1.314909 1.200676 -0.288640
vt 0.274240 0.539347
vt 0.265397 0.539709
vt 0.266768 0.532487
vt 0.231414 0.551290
vt 0.214659 0.541092
vt 0.231357 0.542861
vt 0.231940 0.569242
vt 0.215985 0.562822
vt 0.231472 0.559719
vt 0.230890 0.533338
vt 0.220414 0.530957
vt 0.213134 0.552274
vt 0.289666 0.544440
vt 0.282983 0.540904
vt 0.290637 0.536818
vt 0.279682 0.529141
vt 0.275518 0.536619
vt 0.273707 0.532162
vt 0.280945 0.538772
vt 0.286431 0.530872
vt 0.290637 0.551375
vt 0.284312 0.543753
vt 0.278488 0.537315
vt 0.276318 0.541045
vt 0.804698 0.251197
vt 0.792375 0.255919
vt 0.792638 0.252041
vt 0.786357 0.239035
vt 0.792578 0.249274
vt 0.791489 0.249454
vt 0.271776 0.541127
vt 0.760733 0.199751
vt 0.757502 0.209505
vt 0.750621 0.206121
vt 0.278108 0.542645
vt 0.273009 0.544115
vt 0.772804 0.201934
vt 0.766718 0.213101
vt 0.766203 0.208706
vt 0.264007 0.548518
vt 0.277612 0.547903
vt 0.268747 0.555467
vt 0.275021 0.546378
vt 0.280714 0.548498
vt 0.281954 0.545638
vt 0.276612 0.557409
vt 0.240880 0.530957
vt 0.248168 0.561486
vt 0.249693 0.550306
vt 0.246843 0.539760
vt 0.242415 0.571620
vt 0.762287 0.211045
vt 0.762255 0.210544
vt 0.761023 0.221925
vt 0.757316 0.212491
vt 0.750922 0.216572
vt 0.772804 0.220841
vt 0.791613 0.252007
vt 0.791097 0.255536
vt 0.780068 0.250772
vt 0.780487 0.263708
vt 0.804698 0.264828
vt 0.798786 0.238814
vt 0.221949 0.571626
vt 0.283377 0.553479
vn -0.1632 -0.9712 0.1734
vn -0.9352 -0.0125 0.3538
vn -0.5903 0.7965 0.1307
vn -0.8040 -0.4751 0.3577
vn -0.8615 0.4266 0.2754
vn -0.4712 0.6460 -0.6005
vn -0.6849 -0.6256 -0.3735
vn -0.7080 0.2327 -0.6668
vn 0.1632 0.9712 -0.1734
vn -0.7818 -0.2064 -0.5884
vn 0.0123 -0.7864 -0.6177
vn 0.7699 -0.5618 -0.3026
vn 0.1166 -0.4135 -0.9030
vn 0.1447 0.9873 -0.0652
vn 0.5903 -0.7965 -0.1307
vn 0.4961 0.5765 0.6492
vn 0.8615 -0.4266 -0.2754
vn 0.4056 -0.9128 -0.0477
vn 0.4712 -0.6460 0.6005
vn 0.7818 0.2064 0.5884
vn 0.7080 -0.2327 0.6668
vn 0.6849 0.6256 0.3735
vn -0.2259 -0.4853 0.8447
vn -0.1166 0.4135 0.9030
vn -0.1903 -0.0256 0.9814
vn -0.0123 0.7863 0.6177
vn 0.7993 -0.5519 -0.2376
vn 0.3206 0.9197 -0.2267
vn -0.0202 0.3608 -0.9324
vn -0.0613 0.9939 -0.0914
vn 0.7376 0.0661 0.6720
vn 0.1965 0.0256 -0.9802
vn 0.0808 -0.5643 -0.8216
vn 0.2008 0.8766 -0.4373
vn -0.6643 0.2249 -0.7128
vn 0.0013 -0.8146 -0.5800
vn 0.9091 0.4004 -0.1148
vn -0.6594 0.6839 -0.3123
vn -0.8039 -0.4751 0.3577
vn -0.6849 -0.6257 -0.3735
vn 0.0123 -0.7863 -0.6177
vn 0.8947 0.0147 -0.4465
vn 0.5658 0.5400 0.6230
vn -0.0926 0.3965 -0.9133
vn 0.7857 0.2057 0.5834
vn 0.1130 -0.1248 -0.9857
vn 0.2007 0.8766 -0.4373
vn -0.7527 -0.2895 -0.5913
vn 0.0013 -0.8147 -0.5799
vn 0.8557 0.5174 -0.0039
vn -0.6848 0.6081 -0.4015
s off
f 59/66/54 69/67/54 47/68/54
f 45/69/55 51/70/55 46/71/55
f 43/72/56 49/73/56 44/74/56
f 47/75/57 51/70/57 52/76/57
f 44/74/58 50/77/58 45/69/58
f 48/78/59 71/79/59 49/80/59
f 51/81/60 55/82/60 52/83/60
f 49/80/61 53/84/61 50/85/61
f 43/86/62 70/87/62 48/78/62
f 50/85/63 54/88/63 51/81/63
f 55/82/64 58/89/64 59/66/64
f 72/90/65 84/91/65 80/92/65
f 53/84/66 58/89/66 54/88/66
f 70/93/67 83/94/67 81/95/67
f 58/89/68 64/96/68 59/66/68
f 61/97/69 77/98/69 60/99/69
f 57/100/70 63/101/70 58/89/70
f 62/102/71 76/103/71 78/104/71
f 64/96/72 68/105/72 69/67/72
f 61/106/73 67/107/73 62/108/73
f 43/86/62 60/109/62 56/110/62
f 62/108/74 68/105/74 63/101/74
f 60/109/75 66/111/75 61/106/75
f 69/112/76 46/71/76 47/75/76
f 66/113/77 45/69/77 67/114/77
f 67/114/78 46/71/78 68/115/78
f 65/116/79 44/74/79 66/113/79
f 55/82/54 47/68/54 52/83/54
f 73/117/80 78/104/80 76/103/80
f 73/117/81 77/98/81 74/118/81
f 72/119/82 75/120/82 73/117/82
f 60/99/83 75/120/83 56/121/83
f 61/97/84 78/104/84 74/118/84
f 72/119/85 76/103/85 57/122/85
f 79/123/86 84/91/86 82/124/86
f 79/123/87 83/94/87 80/92/87
f 71/125/88 82/124/88 53/126/88
f 53/126/89 84/91/89 57/127/89
f 72/90/90 83/94/90 56/128/90
f 71/125/91 81/95/91 79/123/91
f 59/66/54 64/96/54 69/67/54
f 45/69/55 50/77/55 51/70/55
f 43/72/56 48/129/56 49/73/56
f 47/75/92 46/71/92 51/70/92
f 44/74/58 49/73/58 50/77/58
f 48/78/59 70/87/59 71/79/59
f 51/81/93 54/88/93 55/82/93
f 49/80/61 71/79/61 53/84/61
f 43/86/62 56/110/62 70/87/62
f 50/85/63 53/84/63 54/88/63
f 55/82/94 54/88/94 58/89/94
f 72/90/95 57/127/95 84/91/95
f 53/84/66 57/100/66 58/89/66
f 70/93/67 56/128/67 83/94/67
f 58/89/68 63/101/68 64/96/68
f 61/97/96 74/118/96 77/98/96
f 57/100/70 62/108/70 63/101/70
f 62/102/71 57/122/71 76/103/71
f 64/96/72 63/101/72 68/105/72
f 61/106/73 66/111/73 67/107/73
f 43/86/62 65/130/62 60/109/62
f 62/108/74 67/107/74 68/105/74
f 60/109/75 65/130/75 66/111/75
f 69/112/76 68/115/76 46/71/76
f 66/113/77 44/74/77 45/69/77
f 67/114/78 45/69/78 46/71/78
f 65/116/79 43/72/79 44/74/79
f 55/82/54 59/66/54 47/68/54
f 73/117/80 74/118/80 78/104/80
f 73/117/81 75/120/81 77/98/81
f 72/119/97 56/121/97 75/120/97
f 60/99/83 77/98/83 75/120/83
f 61/97/98 62/102/98 78/104/98
f 72/119/99 73/117/99 76/103/99
f 79/123/86 80/92/86 84/91/86
f 79/123/100 81/95/100 83/94/100
f 71/125/101 79/123/101 82/124/101
f 53/126/102 82/124/102 84/91/102
f 72/90/103 80/92/103 83/94/103
f 71/125/104 70/93/104 81/95/104
