# Blender v2.81 (sub 16) OBJ File: 'garbage.blend'
# www.blender.org
v 0.133521 1.413321 0.212771
v 0.125324 1.396989 0.234855
v 0.118458 1.371282 0.245514
v 0.114763 1.343089 0.241894
v 0.115230 1.319964 0.224965
v 0.113508 1.414750 0.193694
v 0.090659 1.399465 0.201811
v 0.078430 1.374141 0.207359
v 0.080098 1.345565 0.208851
v 0.095216 1.321393 0.205887
v 0.090266 1.364862 0.154066
v 0.090348 1.337529 0.162698
v 0.101134 1.316754 0.179241
v 0.145357 1.404041 0.159479
v 0.142129 1.352723 0.138930
v 0.135263 1.327016 0.149590
v 0.127066 1.310684 0.171673
v 0.165371 1.402611 0.178557
v 0.180489 1.378440 0.175594
v 0.182157 1.349864 0.177086
v 0.169928 1.324540 0.182633
v 0.147079 1.309255 0.190750
v 0.159453 1.407251 0.205203
v 0.170239 1.386476 0.221746
v 0.170321 1.359143 0.230378
v 0.159678 1.332576 0.228786
v 0.141162 1.313894 0.217397
v 0.119425 1.410110 0.167048
v 0.100909 1.391428 0.155658
v 0.145824 1.380916 0.142550
v 0.192531 1.389883 0.126181
v 0.195360 1.389681 0.128877
v 0.166782 1.404038 0.147149
v 0.171982 1.362254 0.133082
v 0.176689 1.403331 0.156592
v 0.187348 1.361156 0.147730
v 0.109914 1.403748 0.109678
v 0.120545 1.401260 0.106576
v 0.118580 1.409414 0.125256
v 0.110586 1.383314 0.120357
v 0.123453 1.408273 0.123834
v 0.115472 1.382170 0.118931
vt 0.274240 0.539347
vt 0.265397 0.539709
vt 0.266768 0.532487
vt 0.231414 0.551290
vt 0.214659 0.541092
vt 0.231357 0.542861
vt 0.231940 0.569242
vt 0.215985 0.562822
vt 0.231472 0.559719
vt 0.230890 0.533338
vt 0.220414 0.530957
vt 0.213134 0.552274
vt 0.289666 0.544440
vt 0.282983 0.540904
vt 0.290637 0.536818
vt 0.279682 0.529141
vt 0.275518 0.536619
vt 0.273707 0.532162
vt 0.280945 0.538772
vt 0.286431 0.530872
vt 0.290637 0.551375
vt 0.284312 0.543753
vt 0.278488 0.537315
vt 0.276318 0.541045
vt 0.804698 0.251197
vt 0.792375 0.255919
vt 0.792638 0.252041
vt 0.786357 0.239035
vt 0.792578 0.249274
vt 0.791489 0.249454
vt 0.271776 0.541127
vt 0.760733 0.199751
vt 0.757502 0.209505
vt 0.750621 0.206121
vt 0.278108 0.542645
vt 0.273009 0.544115
vt 0.772804 0.201934
vt 0.766718 0.213101
vt 0.766203 0.208706
vt 0.264007 0.548518
vt 0.277612 0.547903
vt 0.268747 0.555467
vt 0.275021 0.546378
vt 0.280714 0.548498
vt 0.281954 0.545638
vt 0.276612 0.557409
vt 0.240880 0.530957
vt 0.248168 0.561486
vt 0.249693 0.550306
vt 0.246843 0.539760
vt 0.242415 0.571620
vt 0.762287 0.211045
vt 0.762255 0.210544
vt 0.761023 0.221925
vt 0.757316 0.212491
vt 0.750922 0.216572
vt 0.772804 0.220841
vt 0.791613 0.252007
vt 0.791097 0.255536
vt 0.780068 0.250772
vt 0.780487 0.263708
vt 0.804698 0.264828
vt 0.798786 0.238814
vt 0.221949 0.571626
vt 0.283377 0.553479
vn -0.1907 -0.9734 0.1271
vn -0.6901 -0.0025 0.7237
vn -0.3772 0.8060 0.4561
vn -0.6269 -0.4684 0.6226
vn -0.6039 0.4376 0.6663
vn -0.5994 0.7554 -0.2647
vn -0.8491 -0.5190 -0.0982
vn -0.8902 0.3724 -0.2625
vn 0.1907 0.9734 -0.1271
vn -0.9764 -0.0677 -0.2051
vn -0.3471 -0.6878 -0.6375
vn 0.4938 -0.5611 -0.6643
vn -0.3294 -0.2852 -0.9001
vn 0.2221 0.9748 -0.0207
vn 0.3772 -0.8060 -0.4561
vn 0.7910 0.4430 0.4221
vn 0.6039 -0.4376 -0.6663
vn 0.2327 -0.9208 -0.3131
vn 0.5994 -0.7554 0.2647
vn 0.9764 0.0677 0.2051
vn 0.8902 -0.3724 0.2625
vn 0.8491 0.5190 0.0982
vn 0.0973 -0.5866 0.8040
vn 0.3294 0.2852 0.9001
vn 0.2432 -0.1548 0.9575
vn 0.3471 0.6878 0.6375
vn 0.5490 -0.5627 -0.6181
vn 0.3030 0.9199 -0.2489
vn -0.3705 0.4925 -0.7875
vn 0.0269 0.9986 0.0466
vn 0.9552 -0.0800 0.2848
vn -0.2371 0.1542 -0.9592
vn -0.3452 -0.4436 -0.8271
vn 0.1008 0.9157 -0.3891
vn -0.8715 0.3685 -0.3236
vn -0.3443 -0.7205 -0.6019
vn 0.8154 0.3526 -0.4592
vn -0.6411 0.7634 0.0790
vn -0.6038 0.4376 0.6663
vn 0.6145 0.0207 -0.7886
vn 0.8380 0.4062 0.3645
vn 0.8902 -0.3723 0.2625
vn -0.4230 0.5297 -0.7352
vn 0.9777 0.0675 0.1989
vn -0.3327 0.0120 -0.9429
vn -0.9616 -0.1512 -0.2289
vn -0.3443 -0.7205 -0.6020
vn 0.8288 0.4556 -0.3248
vn -0.7111 0.7031 0.0026
s off
f 17/1/1 27/2/1 5/3/1
f 3/4/2 9/5/2 4/6/2
f 1/7/3 7/8/3 2/9/3
f 5/10/4 9/5/4 10/11/4
f 2/9/5 8/12/5 3/4/5
f 6/13/6 29/14/6 7/15/6
f 9/16/7 13/17/7 10/18/7
f 7/15/8 11/19/8 8/20/8
f 1/21/9 28/22/9 6/13/9
f 8/20/10 12/23/10 9/16/10
f 13/17/11 16/24/11 17/1/11
f 30/25/12 42/26/12 38/27/12
f 11/19/13 16/24/13 12/23/13
f 28/28/14 41/29/14 39/30/14
f 16/24/15 22/31/15 17/1/15
f 19/32/16 35/33/16 18/34/16
f 15/35/17 21/36/17 16/24/17
f 20/37/18 34/38/18 36/39/18
f 22/31/19 26/40/19 27/2/19
f 19/41/20 25/42/20 20/43/20
f 1/21/9 18/44/9 14/45/9
f 20/43/21 26/40/21 21/36/21
f 18/44/22 24/46/22 19/41/22
f 27/47/23 4/6/23 5/10/23
f 24/48/24 3/4/24 25/49/24
f 25/49/25 4/6/25 26/50/25
f 23/51/26 2/9/26 24/48/26
f 13/17/1 5/3/1 10/18/1
f 31/52/27 36/39/27 34/38/27
f 31/52/28 35/33/28 32/53/28
f 30/54/29 33/55/29 31/52/29
f 18/34/30 33/55/30 14/56/30
f 19/32/31 36/39/31 32/53/31
f 30/54/32 34/38/32 15/57/32
f 37/58/33 42/26/33 40/59/33
f 37/58/34 41/29/34 38/27/34
f 29/60/35 40/59/35 11/61/35
f 11/61/36 42/26/36 15/62/36
f 30/25/37 41/29/37 14/63/37
f 29/60/38 39/30/38 37/58/38
f 17/1/1 22/31/1 27/2/1
f 3/4/2 8/12/2 9/5/2
f 1/7/3 6/64/3 7/8/3
f 5/10/4 4/6/4 9/5/4
f 2/9/39 7/8/39 8/12/39
f 6/13/6 28/22/6 29/14/6
f 9/16/7 12/23/7 13/17/7
f 7/15/8 29/14/8 11/19/8
f 1/21/9 14/45/9 28/22/9
f 8/20/10 11/19/10 12/23/10
f 13/17/11 12/23/11 16/24/11
f 30/25/40 15/62/40 42/26/40
f 11/19/13 15/35/13 16/24/13
f 28/28/14 14/63/14 41/29/14
f 16/24/15 21/36/15 22/31/15
f 19/32/41 32/53/41 35/33/41
f 15/35/17 20/43/17 21/36/17
f 20/37/18 15/57/18 34/38/18
f 22/31/19 21/36/19 26/40/19
f 19/41/20 24/46/20 25/42/20
f 1/21/9 23/65/9 18/44/9
f 20/43/42 25/42/42 26/40/42
f 18/44/22 23/65/22 24/46/22
f 27/47/23 26/50/23 4/6/23
f 24/48/24 2/9/24 3/4/24
f 25/49/25 3/4/25 4/6/25
f 23/51/26 1/7/26 2/9/26
f 13/17/1 17/1/1 5/3/1
f 31/52/27 32/53/27 36/39/27
f 31/52/28 33/55/28 35/33/28
f 30/54/43 14/56/43 33/55/43
f 18/34/30 35/33/30 33/55/30
f 19/32/44 20/37/44 36/39/44
f 30/54/45 31/52/45 34/38/45
f 37/58/33 38/27/33 42/26/33
f 37/58/34 39/30/34 41/29/34
f 29/60/46 37/58/46 40/59/46
f 11/61/47 40/59/47 42/26/47
f 30/25/48 38/27/48 41/29/48
f 29/60/49 28/28/49 39/30/49
v -0.896948 1.036557 0.018771
v -0.897283 1.015230 -0.000377
v -0.894205 0.987424 -0.006620
v -0.888538 0.960591 0.001714
v -0.881802 0.941919 0.022392
v -0.871229 1.041026 0.027996
v -0.852736 1.022971 0.015602
v -0.842766 0.996363 0.011831
v -0.843991 0.968332 0.017693
v -0.856083 0.946389 0.031618
v -0.833107 0.999991 0.066235
v -0.835626 0.971474 0.064808
v -0.851253 0.948203 0.058820
v -0.887288 1.040185 0.073175
v -0.874885 0.994680 0.102187
v -0.871807 0.966874 0.095944
v -0.872142 0.945547 0.076796
v -0.913008 1.035715 0.063949
v -0.925099 1.013772 0.077874
v -0.926324 0.985741 0.083736
v -0.916354 0.959133 0.079965
v -0.897861 0.941078 0.067571
v -0.917837 1.033901 0.036747
v -0.933464 1.010630 0.030759
v -0.935983 0.982113 0.029332
v -0.924720 0.955991 0.032850
v -0.902691 0.939264 0.040369
v -0.866399 1.042840 0.055198
v -0.844371 1.026112 0.062717
v -0.880552 1.021513 0.093853
v -0.917751 1.036700 0.124111
v -0.921385 1.036068 0.122808
v -0.902387 1.044228 0.092326
v -0.900537 1.007048 0.116514
v -0.915118 1.042016 0.087759
v -0.920284 1.003617 0.109431
v -0.835551 1.048942 0.104527
v -0.844115 1.047853 0.111897
v -0.849671 1.051480 0.092525
v -0.839609 1.026712 0.099902
v -0.853596 1.050981 0.095902
v -0.843545 1.026211 0.103289
vt 0.274240 0.539347
vt 0.265397 0.539709
vt 0.266768 0.532487
vt 0.231414 0.551290
vt 0.214659 0.541092
vt 0.231357 0.542861
vt 0.231940 0.569242
vt 0.215985 0.562822
vt 0.231472 0.559719
vt 0.230890 0.533338
vt 0.220414 0.530957
vt 0.213134 0.552274
vt 0.289666 0.544440
vt 0.282983 0.540904
vt 0.290637 0.536818
vt 0.279682 0.529141
vt 0.275518 0.536619
vt 0.273707 0.532162
vt 0.280945 0.538772
vt 0.286431 0.530872
vt 0.290637 0.551375
vt 0.284312 0.543753
vt 0.278488 0.537315
vt 0.276318 0.541045
vt 0.804698 0.251197
vt 0.792375 0.255919
vt 0.792638 0.252041
vt 0.786357 0.239035
vt 0.792578 0.249274
vt 0.791489 0.249454
vt 0.271776 0.541127
vt 0.760733 0.199751
vt 0.757502 0.209505
vt 0.750621 0.206121
vt 0.278108 0.542645
vt 0.273009 0.544115
vt 0.772804 0.201934
vt 0.766718 0.213101
vt 0.766203 0.208706
vt 0.264007 0.548518
vt 0.277612 0.547903
vt 0.268747 0.555467
vt 0.275021 0.546378
vt 0.280714 0.548498
vt 0.281954 0.545638
vt 0.276612 0.557409
vt 0.240880 0.530957
vt 0.248168 0.561486
vt 0.249693 0.550306
vt 0.246843 0.539760
vt 0.242415 0.571620
vt 0.762287 0.211045
vt 0.762255 0.210544
vt 0.761023 0.221925
vt 0.757316 0.212491
vt 0.750922 0.216572
vt 0.772804 0.220841
vt 0.791613 0.252007
vt 0.791097 0.255536
vt 0.780068 0.250772
vt 0.780487 0.263708
vt 0.804698 0.264828
vt 0.798786 0.238814
vt 0.221949 0.571626
vt 0.283377 0.553479
vn 0.1579 -0.9867 0.0378
vn 0.3619 -0.2060 -0.9092
vn 0.1498 0.6592 -0.7369
vn 0.3565 -0.6327 -0.6874
vn 0.2905 0.2401 -0.9262
vn 0.6313 0.7583 -0.1627
vn 0.8381 -0.5337 -0.1132
vn 0.9111 0.3678 -0.1863
vn -0.1579 0.9867 -0.0378
vn 0.9825 -0.0783 -0.1692
vn 0.5849 -0.5469 0.5989
vn -0.1857 -0.3674 0.9113
vn 0.6562 -0.0954 0.7485
vn -0.2275 0.9661 -0.1217
vn -0.1498 -0.6592 0.7369
vn -0.9054 0.3836 -0.1817
vn -0.2905 -0.2401 0.9262
vn -0.0672 -0.8116 0.5804
vn -0.6313 -0.7583 0.1627
vn -0.9825 0.0783 0.1692
vn -0.9111 -0.3678 0.1863
vn -0.8381 0.5337 0.1132
vn -0.3782 -0.7450 -0.5495
vn -0.6562 0.0954 -0.7485
vn -0.5848 -0.3507 -0.7314
vn -0.5849 0.5469 -0.5989
vn -0.2543 -0.3759 0.8911
vn -0.2136 0.9687 0.1262
vn 0.6272 0.6334 0.4532
vn -0.0736 0.9625 -0.2612
vn -0.9887 -0.0845 0.1237
vn 0.5799 0.3508 0.7353
vn 0.6479 -0.2667 0.7135
vn 0.0268 0.9839 0.1765
vn 0.9172 0.3789 -0.1236
vn 0.5699 -0.5865 0.5756
vn -0.5894 0.4947 0.6387
vn 0.5386 0.6865 -0.4885
vn -0.2680 0.2337 0.9347
vn -0.9258 0.3635 -0.1039
vn 0.6547 0.6547 0.3779
vn -0.9813 0.0796 0.1753
vn 0.6664 0.2031 0.7174
vn 0.9805 -0.1534 -0.1231
vn 0.5698 -0.5865 0.5756
vn -0.6562 0.5655 0.4996
vn 0.6342 0.6408 -0.4326
s off
f 59/66/50 69/67/50 47/68/50
f 45/69/51 51/70/51 46/71/51
f 43/72/52 49/73/52 44/74/52
f 47/75/53 51/70/53 52/76/53
f 44/74/54 50/77/54 45/69/54
f 48/78/55 71/79/55 49/80/55
f 51/81/56 55/82/56 52/83/56
f 49/80/57 53/84/57 50/85/57
f 43/86/58 70/87/58 48/78/58
f 50/85/59 54/88/59 51/81/59
f 55/82/60 58/89/60 59/66/60
f 72/90/61 84/91/61 80/92/61
f 53/84/62 58/89/62 54/88/62
f 70/93/63 83/94/63 81/95/63
f 58/89/64 64/96/64 59/66/64
f 61/97/65 77/98/65 60/99/65
f 57/100/66 63/101/66 58/89/66
f 62/102/67 76/103/67 78/104/67
f 64/96/68 68/105/68 69/67/68
f 61/106/69 67/107/69 62/108/69
f 43/86/58 60/109/58 56/110/58
f 62/108/70 68/105/70 63/101/70
f 60/109/71 66/111/71 61/106/71
f 69/112/72 46/71/72 47/75/72
f 66/113/73 45/69/73 67/114/73
f 67/114/74 46/71/74 68/115/74
f 65/116/75 44/74/75 66/113/75
f 55/82/50 47/68/50 52/83/50
f 73/117/76 78/104/76 76/103/76
f 73/117/77 77/98/77 74/118/77
f 72/119/78 75/120/78 73/117/78
f 60/99/79 75/120/79 56/121/79
f 61/97/80 78/104/80 74/118/80
f 72/119/81 76/103/81 57/122/81
f 79/123/82 84/91/82 82/124/82
f 79/123/83 83/94/83 80/92/83
f 71/125/84 82/124/84 53/126/84
f 53/126/85 84/91/85 57/127/85
f 72/90/86 83/94/86 56/128/86
f 71/125/87 81/95/87 79/123/87
f 59/66/50 64/96/50 69/67/50
f 45/69/51 50/77/51 51/70/51
f 43/72/52 48/129/52 49/73/52
f 47/75/53 46/71/53 51/70/53
f 44/74/54 49/73/54 50/77/54
f 48/78/55 70/87/55 71/79/55
f 51/81/56 54/88/56 55/82/56
f 49/80/57 71/79/57 53/84/57
f 43/86/58 56/110/58 70/87/58
f 50/85/59 53/84/59 54/88/59
f 55/82/60 54/88/60 58/89/60
f 72/90/88 57/127/88 84/91/88
f 53/84/62 57/100/62 58/89/62
f 70/93/63 56/128/63 83/94/63
f 58/89/64 63/101/64 64/96/64
f 61/97/89 74/118/89 77/98/89
f 57/100/66 62/108/66 63/101/66
f 62/102/67 57/122/67 76/103/67
f 64/96/68 63/101/68 68/105/68
f 61/106/69 66/111/69 67/107/69
f 43/86/58 65/130/58 60/109/58
f 62/108/70 67/107/70 68/105/70
f 60/109/71 65/130/71 66/111/71
f 69/112/72 68/115/72 46/71/72
f 66/113/73 44/74/73 45/69/73
f 67/114/74 45/69/74 46/71/74
f 65/116/75 43/72/75 44/74/75
f 55/82/50 59/66/50 47/68/50
f 73/117/76 74/118/76 78/104/76
f 73/117/77 75/120/77 77/98/77
f 72/119/90 56/121/90 75/120/90
f 60/99/79 77/98/79 75/120/79
f 61/97/91 62/102/91 78/104/91
f 72/119/92 73/117/92 76/103/92
f 79/123/82 80/92/82 84/91/82
f 79/123/83 81/95/83 83/94/83
f 71/125/93 79/123/93 82/124/93
f 53/126/94 82/124/94 84/91/94
f 72/90/95 80/92/95 83/94/95
f 71/125/96 70/93/96 81/95/96
