# Blender v2.81 (sub 16) OBJ File: 'garbage.blend'
# www.blender.org
v 0.096943 1.435435 0.356957
v 0.088411 1.418331 0.378317
v 0.081867 1.392187 0.388080
v 0.079065 1.364011 0.383629
v 0.080754 1.341350 0.366158
v 0.077586 1.436835 0.337211
v 0.054884 1.420755 0.344115
v 0.043154 1.394987 0.348587
v 0.045537 1.366435 0.349428
v 0.061397 1.342750 0.346412
v 0.057115 1.387397 0.295543
v 0.057628 1.359862 0.303490
v 0.068377 1.338955 0.319889
v 0.110904 1.427845 0.303912
v 0.109790 1.377007 0.281991
v 0.103246 1.350864 0.291753
v 0.094715 1.333760 0.313113
v 0.130261 1.426445 0.323659
v 0.146120 1.402760 0.320643
v 0.148504 1.374208 0.321483
v 0.136773 1.348440 0.325955
v 0.114072 1.332360 0.332860
v 0.123280 1.430240 0.350181
v 0.134029 1.409333 0.366581
v 0.134542 1.381798 0.374528
v 0.124682 1.355013 0.371893
v 0.107091 1.336155 0.359382
v 0.084566 1.433040 0.310688
v 0.066975 1.414182 0.298178
v 0.112593 1.405184 0.286441
v 0.159593 1.415784 0.271997
v 0.162328 1.415586 0.274787
v 0.132745 1.428718 0.292367
v 0.139564 1.387460 0.277463
v 0.142326 1.428026 0.302141
v 0.154426 1.386386 0.292624
v 0.077268 1.427914 0.252873
v 0.088065 1.425785 0.250095
v 0.085221 1.433400 0.268889
v 0.078112 1.407236 0.263057
v 0.090170 1.432424 0.267616
v 0.083075 1.406257 0.261780
vt 0.274240 0.539347
vt 0.265397 0.539709
vt 0.266768 0.532487
vt 0.231414 0.551290
vt 0.214659 0.541092
vt 0.231357 0.542861
vt 0.231940 0.569242
vt 0.215985 0.562822
vt 0.231472 0.559719
vt 0.230890 0.533338
vt 0.220414 0.530957
vt 0.213134 0.552274
vt 0.289666 0.544440
vt 0.282983 0.540904
vt 0.290637 0.536818
vt 0.279682 0.529141
vt 0.275518 0.536619
vt 0.273707 0.532162
vt 0.280945 0.538772
vt 0.286431 0.530872
vt 0.290637 0.551375
vt 0.284312 0.543753
vt 0.278488 0.537315
vt 0.276318 0.541045
vt 0.804698 0.251197
vt 0.792375 0.255919
vt 0.792638 0.252041
vt 0.786357 0.239035
vt 0.792578 0.249274
vt 0.791489 0.249454
vt 0.271776 0.541127
vt 0.760733 0.199751
vt 0.757502 0.209505
vt 0.750621 0.206121
vt 0.278108 0.542645
vt 0.273009 0.544115
vt 0.772804 0.201934
vt 0.766718 0.213101
vt 0.766203 0.208706
vt 0.264007 0.548518
vt 0.277612 0.547903
vt 0.268747 0.555467
vt 0.275021 0.546378
vt 0.280714 0.548498
vt 0.281954 0.545638
vt 0.276612 0.557409
vt 0.240880 0.530957
vt 0.248168 0.561486
vt 0.249693 0.550306
vt 0.246843 0.539760
vt 0.242415 0.571620
vt 0.762287 0.211045
vt 0.762255 0.210544
vt 0.761023 0.221925
vt 0.757316 0.212491
vt 0.750922 0.216572
vt 0.772804 0.220841
vt 0.791613 0.252007
vt 0.791097 0.255536
vt 0.780068 0.250772
vt 0.780487 0.263708
vt 0.804698 0.264828
vt 0.798786 0.238814
vt 0.221949 0.571626
vt 0.283377 0.553479
vn -0.1688 -0.9810 0.0959
vn -0.7150 -0.0391 0.6981
vn -0.4147 0.7839 0.4621
vn -0.6357 -0.5005 0.5877
vn -0.6386 0.4043 0.6547
vn -0.6098 0.7461 -0.2673
vn -0.8308 -0.5383 -0.1417
vn -0.8900 0.3557 -0.2852
vn 0.1688 0.9810 -0.0959
vn -0.9664 -0.0878 -0.2418
vn -0.3056 -0.6799 -0.6665
vn 0.5319 -0.5308 -0.6598
vn -0.2896 -0.2704 -0.9182
vn 0.1964 0.9805 0.0115
vn 0.4147 -0.7839 -0.4621
vn 0.7633 0.4524 0.4612
vn 0.6386 -0.4043 -0.6547
vn 0.2683 -0.9060 -0.3273
vn 0.6098 -0.7461 0.2673
vn 0.9664 0.0878 0.2418
vn 0.8900 -0.3557 0.2852
vn 0.8308 0.5383 0.1416
vn 0.0846 -0.6044 0.7922
vn 0.2896 0.2704 0.9182
vn 0.2132 -0.1731 0.9615
vn 0.3056 0.6800 0.6665
vn 0.5855 -0.5321 -0.6117
vn 0.2868 0.9336 -0.2149
vn -0.3555 0.5028 -0.7879
vn -0.0017 0.9974 0.0723
vn 0.9464 -0.0625 0.3170
vn -0.2071 0.1727 -0.9630
vn -0.3036 -0.4309 -0.8498
vn 0.0898 0.9277 -0.3623
vn -0.8691 0.3539 -0.3456
vn -0.3032 -0.7134 -0.6317
vn 0.8213 0.3855 -0.4206
vn -0.6638 0.7442 0.0748
vn -0.8308 -0.5382 -0.1416
vn -0.3056 -0.6800 -0.6665
vn 0.6413 0.0571 -0.7652
vn 0.1963 0.9805 0.0115
vn 0.8133 0.4183 0.4045
vn 0.8308 0.5382 0.1416
vn 0.3056 0.6799 0.6665
vn 0.2867 0.9336 -0.2149
vn -0.4109 0.5373 -0.7366
vn 0.9679 0.0877 0.2356
vn -0.2993 0.0276 -0.9537
vn -0.9485 -0.1703 -0.2671
vn 0.8272 0.4852 -0.2832
vn -0.7294 0.6841 -0.0055
s off
f 17/1/1 27/2/1 5/3/1
f 3/4/2 9/5/2 4/6/2
f 1/7/3 7/8/3 2/9/3
f 5/10/4 9/5/4 10/11/4
f 2/9/5 8/12/5 3/4/5
f 6/13/6 29/14/6 7/15/6
f 9/16/7 13/17/7 10/18/7
f 7/15/8 11/19/8 8/20/8
f 1/21/9 28/22/9 6/13/9
f 8/20/10 12/23/10 9/16/10
f 13/17/11 16/24/11 17/1/11
f 30/25/12 42/26/12 38/27/12
f 11/19/13 16/24/13 12/23/13
f 28/28/14 41/29/14 39/30/14
f 16/24/15 22/31/15 17/1/15
f 19/32/16 35/33/16 18/34/16
f 15/35/17 21/36/17 16/24/17
f 20/37/18 34/38/18 36/39/18
f 22/31/19 26/40/19 27/2/19
f 19/41/20 25/42/20 20/43/20
f 1/21/9 18/44/9 14/45/9
f 20/43/21 26/40/21 21/36/21
f 18/44/22 24/46/22 19/41/22
f 27/47/23 4/6/23 5/10/23
f 24/48/24 3/4/24 25/49/24
f 25/49/25 4/6/25 26/50/25
f 23/51/26 2/9/26 24/48/26
f 13/17/1 5/3/1 10/18/1
f 31/52/27 36/39/27 34/38/27
f 31/52/28 35/33/28 32/53/28
f 30/54/29 33/55/29 31/52/29
f 18/34/30 33/55/30 14/56/30
f 19/32/31 36/39/31 32/53/31
f 30/54/32 34/38/32 15/57/32
f 37/58/33 42/26/33 40/59/33
f 37/58/34 41/29/34 38/27/34
f 29/60/35 40/59/35 11/61/35
f 11/61/36 42/26/36 15/62/36
f 30/25/37 41/29/37 14/63/37
f 29/60/38 39/30/38 37/58/38
f 17/1/1 22/31/1 27/2/1
f 3/4/2 8/12/2 9/5/2
f 1/7/3 6/64/3 7/8/3
f 5/10/4 4/6/4 9/5/4
f 2/9/5 7/8/5 8/12/5
f 6/13/6 28/22/6 29/14/6
f 9/16/39 12/23/39 13/17/39
f 7/15/8 29/14/8 11/19/8
f 1/21/9 14/45/9 28/22/9
f 8/20/10 11/19/10 12/23/10
f 13/17/40 12/23/40 16/24/40
f 30/25/41 15/62/41 42/26/41
f 11/19/13 15/35/13 16/24/13
f 28/28/42 14/63/42 41/29/42
f 16/24/15 21/36/15 22/31/15
f 19/32/43 32/53/43 35/33/43
f 15/35/17 20/43/17 21/36/17
f 20/37/18 15/57/18 34/38/18
f 22/31/19 21/36/19 26/40/19
f 19/41/20 24/46/20 25/42/20
f 1/21/9 23/65/9 18/44/9
f 20/43/21 25/42/21 26/40/21
f 18/44/44 23/65/44 24/46/44
f 27/47/23 26/50/23 4/6/23
f 24/48/24 2/9/24 3/4/24
f 25/49/25 3/4/25 4/6/25
f 23/51/45 1/7/45 2/9/45
f 13/17/1 17/1/1 5/3/1
f 31/52/27 32/53/27 36/39/27
f 31/52/46 33/55/46 35/33/46
f 30/54/47 14/56/47 33/55/47
f 18/34/30 35/33/30 33/55/30
f 19/32/48 20/37/48 36/39/48
f 30/54/49 31/52/49 34/38/49
f 37/58/33 38/27/33 42/26/33
f 37/58/34 39/30/34 41/29/34
f 29/60/50 37/58/50 40/59/50
f 11/61/36 40/59/36 42/26/36
f 30/25/51 38/27/51 41/29/51
f 29/60/52 28/28/52 39/30/52
v -0.943285 1.121337 -0.179652
v -0.939684 1.109716 -0.205606
v -0.935446 1.086671 -0.222115
v -0.931707 1.058375 -0.224755
v -0.929468 1.032411 -0.212819
v -0.920036 1.119388 -0.164743
v -0.899416 1.106342 -0.179783
v -0.888949 1.082774 -0.192297
v -0.891439 1.055000 -0.198932
v -0.906219 1.030463 -0.197911
v -0.890809 1.063180 -0.140539
v -0.893050 1.038032 -0.154109
v -0.907149 1.020666 -0.172032
v -0.945145 1.101743 -0.127894
v -0.939167 1.047483 -0.118599
v -0.934929 1.024438 -0.135108
v -0.931328 1.012817 -0.161061
v -0.968394 1.103691 -0.142803
v -0.983174 1.079154 -0.141781
v -0.985664 1.051380 -0.148416
v -0.975197 1.027812 -0.160930
v -0.954577 1.014766 -0.175970
v -0.967463 1.113488 -0.168682
v -0.981563 1.096122 -0.186605
v -0.983804 1.070974 -0.200174
v -0.973586 1.044781 -0.205754
v -0.953647 1.024563 -0.201849
v -0.920966 1.109591 -0.138864
v -0.901027 1.089373 -0.134960
v -0.942906 1.075779 -0.115958
v -0.985547 1.080636 -0.089726
v -0.988832 1.080911 -0.091832
v -0.963887 1.099002 -0.112009
v -0.967206 1.055206 -0.105544
v -0.975395 1.099966 -0.119389
v -0.985056 1.056702 -0.116991
v -0.901039 1.092429 -0.086610
v -0.910952 1.089211 -0.082112
v -0.912347 1.100851 -0.098901
v -0.904104 1.074433 -0.100710
v -0.916890 1.099376 -0.096840
v -0.908660 1.072954 -0.098643
vt 0.274240 0.539347
vt 0.265397 0.539709
vt 0.266768 0.532487
vt 0.231414 0.551290
vt 0.214659 0.541092
vt 0.231357 0.542861
vt 0.231940 0.569242
vt 0.215985 0.562822
vt 0.231472 0.559719
vt 0.230890 0.533338
vt 0.220414 0.530957
vt 0.213134 0.552274
vt 0.289666 0.544440
vt 0.282983 0.540904
vt 0.290637 0.536818
vt 0.279682 0.529141
vt 0.275518 0.536619
vt 0.273707 0.532162
vt 0.280945 0.538772
vt 0.286431 0.530872
vt 0.290637 0.551375
vt 0.284312 0.543753
vt 0.278488 0.537315
vt 0.276318 0.541045
vt 0.804698 0.251197
vt 0.792375 0.255919
vt 0.792638 0.252041
vt 0.786357 0.239035
vt 0.792578 0.249274
vt 0.791489 0.249454
vt 0.271776 0.541127
vt 0.760733 0.199751
vt 0.757502 0.209505
vt 0.750621 0.206121
vt 0.278108 0.542645
vt 0.273009 0.544115
vt 0.772804 0.201934
vt 0.766718 0.213101
vt 0.766203 0.208706
vt 0.264007 0.548518
vt 0.277612 0.547903
vt 0.268747 0.555467
vt 0.275021 0.546378
vt 0.280714 0.548498
vt 0.281954 0.545638
vt 0.276612 0.557409
vt 0.240880 0.530957
vt 0.248168 0.561486
vt 0.249693 0.550306
vt 0.246843 0.539760
vt 0.242415 0.571620
vt 0.762287 0.211045
vt 0.762255 0.210544
vt 0.761023 0.221925
vt 0.757316 0.212491
vt 0.750922 0.216572
vt 0.772804 0.220841
vt 0.791613 0.252007
vt 0.791097 0.255536
vt 0.780068 0.250772
vt 0.780487 0.263708
vt 0.804698 0.264828
vt 0.798786 0.238814
vt 0.221949 0.571626
vt 0.283377 0.553479
vn 0.1441 -0.9272 -0.3458
vn 0.5426 0.1488 -0.8267
vn 0.3015 0.8851 -0.3545
vn 0.4901 -0.3288 -0.8073
vn 0.4775 0.5680 -0.6704
vn 0.6533 0.7000 0.2885
vn 0.8419 -0.5140 -0.1643
vn 0.9308 0.3294 0.1582
vn -0.1441 0.9272 0.3458
vn 0.9960 -0.0897 0.0018
vn 0.4461 -0.7921 0.4166
vn -0.3722 -0.6870 0.6241
vn 0.4859 -0.4482 0.7504
vn -0.1947 0.9486 0.2495
vn -0.3015 -0.8851 0.3545
vn -0.8468 0.5029 -0.1732
vn -0.4775 -0.5680 0.6704
vn -0.1885 -0.9677 0.1675
vn -0.6533 -0.7000 -0.2885
vn -0.9960 0.0897 -0.0018
vn -0.9308 -0.3294 -0.1582
vn -0.8419 0.5140 0.1643
vn -0.2575 -0.4218 -0.8693
vn -0.4859 0.4482 -0.7504
vn -0.4208 0.0290 -0.9067
vn -0.4461 0.7921 -0.4166
vn -0.4351 -0.6805 0.5895
vn -0.2327 0.8493 0.4738
vn 0.5209 0.3372 0.7842
vn -0.0151 0.9882 0.1527
vn -0.9930 -0.0394 -0.1111
vn 0.4151 -0.0300 0.9093
vn 0.4846 -0.5891 0.6466
vn -0.0079 0.8215 0.5702
vn 0.9238 0.3136 0.2198
vn 0.4361 -0.8173 0.3765
vn -0.7081 0.2436 0.6628
vn 0.6302 0.7749 -0.0488
vn -0.4560 -0.1422 0.8786
vn -0.8830 0.4549 -0.1160
vn -0.4351 -0.6805 0.5896
vn 0.5634 0.3847 0.7312
vn -0.9961 0.0883 0.0043
vn 0.5031 -0.1648 0.8483
vn 0.9842 -0.1765 0.0114
vn -0.7443 0.3704 0.5557
vn 0.7120 0.7022 0.0000
s off
f 59/66/53 69/67/53 47/68/53
f 45/69/54 51/70/54 46/71/54
f 43/72/55 49/73/55 44/74/55
f 47/75/56 51/70/56 52/76/56
f 44/74/57 50/77/57 45/69/57
f 48/78/58 71/79/58 49/80/58
f 51/81/59 55/82/59 52/83/59
f 49/80/60 53/84/60 50/85/60
f 43/86/61 70/87/61 48/78/61
f 50/85/62 54/88/62 51/81/62
f 55/82/63 58/89/63 59/66/63
f 72/90/64 84/91/64 80/92/64
f 53/84/65 58/89/65 54/88/65
f 70/93/66 83/94/66 81/95/66
f 58/89/67 64/96/67 59/66/67
f 61/97/68 77/98/68 60/99/68
f 57/100/69 63/101/69 58/89/69
f 62/102/70 76/103/70 78/104/70
f 64/96/71 68/105/71 69/67/71
f 61/106/72 67/107/72 62/108/72
f 43/86/61 60/109/61 56/110/61
f 62/108/73 68/105/73 63/101/73
f 60/109/74 66/111/74 61/106/74
f 69/112/75 46/71/75 47/75/75
f 66/113/76 45/69/76 67/114/76
f 67/114/77 46/71/77 68/115/77
f 65/116/78 44/74/78 66/113/78
f 55/82/53 47/68/53 52/83/53
f 73/117/79 78/104/79 76/103/79
f 73/117/80 77/98/80 74/118/80
f 72/119/81 75/120/81 73/117/81
f 60/99/82 75/120/82 56/121/82
f 61/97/83 78/104/83 74/118/83
f 72/119/84 76/103/84 57/122/84
f 79/123/85 84/91/85 82/124/85
f 79/123/86 83/94/86 80/92/86
f 71/125/87 82/124/87 53/126/87
f 53/126/88 84/91/88 57/127/88
f 72/90/89 83/94/89 56/128/89
f 71/125/90 81/95/90 79/123/90
f 59/66/53 64/96/53 69/67/53
f 45/69/54 50/77/54 51/70/54
f 43/72/55 48/129/55 49/73/55
f 47/75/56 46/71/56 51/70/56
f 44/74/57 49/73/57 50/77/57
f 48/78/58 70/87/58 71/79/58
f 51/81/59 54/88/59 55/82/59
f 49/80/60 71/79/60 53/84/60
f 43/86/61 56/110/61 70/87/61
f 50/85/62 53/84/62 54/88/62
f 55/82/63 54/88/63 58/89/63
f 72/90/91 57/127/91 84/91/91
f 53/84/65 57/100/65 58/89/65
f 70/93/66 56/128/66 83/94/66
f 58/89/67 63/101/67 64/96/67
f 61/97/92 74/118/92 77/98/92
f 57/100/69 62/108/69 63/101/69
f 62/102/70 57/122/70 76/103/70
f 64/96/71 63/101/71 68/105/71
f 61/106/72 66/111/72 67/107/72
f 43/86/61 65/130/61 60/109/61
f 62/108/73 67/107/73 68/105/73
f 60/109/74 65/130/74 66/111/74
f 69/112/75 68/115/75 46/71/75
f 66/113/76 44/74/76 45/69/76
f 67/114/77 45/69/77 46/71/77
f 65/116/78 43/72/78 44/74/78
f 55/82/53 59/66/53 47/68/53
f 73/117/93 74/118/93 78/104/93
f 73/117/80 75/120/80 77/98/80
f 72/119/94 56/121/94 75/120/94
f 60/99/82 77/98/82 75/120/82
f 61/97/95 62/102/95 78/104/95
f 72/119/96 73/117/96 76/103/96
f 79/123/85 80/92/85 84/91/85
f 79/123/86 81/95/86 83/94/86
f 71/125/97 79/123/97 82/124/97
f 53/126/88 82/124/88 84/91/88
f 72/90/98 80/92/98 83/94/98
f 71/125/99 70/93/99 81/95/99
