# Blender v2.81 (sub 16) OBJ File: 'garbage.blend'
# www.blender.org
v -0.199746 1.463237 0.704405
v -0.218358 1.442255 0.698492
v -0.224403 1.414322 0.696306
v -0.216261 1.386921 0.698432
v -0.196114 1.367396 0.704300
v -0.179547 1.464023 0.685486
v -0.183372 1.443617 0.665724
v -0.184004 1.415894 0.658468
v -0.181274 1.388283 0.665663
v -0.175914 1.368182 0.685382
v -0.131058 1.417884 0.674562
v -0.135422 1.390006 0.679601
v -0.149441 1.369177 0.693429
v -0.146801 1.465226 0.720499
v -0.118511 1.418300 0.728494
v -0.124556 1.390367 0.726308
v -0.143168 1.369385 0.720395
v -0.167000 1.464440 0.739418
v -0.161640 1.444339 0.759137
v -0.158910 1.416728 0.766332
v -0.159543 1.389005 0.759076
v -0.163368 1.368599 0.739314
v -0.193473 1.463445 0.731371
v -0.207493 1.442616 0.745199
v -0.211856 1.414739 0.750238
v -0.205395 1.387282 0.745138
v -0.189841 1.367604 0.731266
v -0.153074 1.465018 0.693533
v -0.137519 1.445340 0.679662
v -0.126653 1.445701 0.726368
v -0.115676 1.465799 0.771151
v -0.118531 1.465688 0.773825
v -0.136391 1.471252 0.742096
v -0.116617 1.434067 0.756136
v -0.146389 1.470863 0.751460
v -0.132126 1.433464 0.770662
v -0.094823 1.466518 0.688357
v -0.092252 1.466603 0.699412
v -0.111731 1.471060 0.694942
v -0.102297 1.445095 0.692510
v -0.110552 1.471100 0.700009
v -0.101115 1.445134 0.697591
vt 0.274240 0.539347
vt 0.265397 0.539709
vt 0.266768 0.532487
vt 0.231414 0.551290
vt 0.214659 0.541092
vt 0.231357 0.542861
vt 0.231940 0.569242
vt 0.215985 0.562822
vt 0.231472 0.559719
vt 0.230890 0.533338
vt 0.220414 0.530957
vt 0.213134 0.552274
vt 0.289666 0.544440
vt 0.282983 0.540904
vt 0.290637 0.536818
vt 0.279682 0.529141
vt 0.275518 0.536619
vt 0.273707 0.532162
vt 0.280945 0.538772
vt 0.286431 0.530872
vt 0.290637 0.551375
vt 0.284312 0.543753
vt 0.278488 0.537315
vt 0.276318 0.541045
vt 0.804698 0.251197
vt 0.792375 0.255919
vt 0.792638 0.252041
vt 0.786357 0.239035
vt 0.792578 0.249274
vt 0.791489 0.249454
vt 0.271776 0.541127
vt 0.760733 0.199751
vt 0.757502 0.209505
vt 0.750621 0.206121
vt 0.278108 0.542645
vt 0.273009 0.544115
vt 0.772804 0.201934
vt 0.766718 0.213101
vt 0.766203 0.208706
vt 0.264007 0.548518
vt 0.277612 0.547903
vt 0.268747 0.555467
vt 0.275021 0.546378
vt 0.280714 0.548498
vt 0.281954 0.545638
vt 0.276612 0.557409
vt 0.240880 0.530957
vt 0.248168 0.561486
vt 0.249693 0.550306
vt 0.246843 0.539760
vt 0.242415 0.571620
vt 0.762287 0.211045
vt 0.762255 0.210544
vt 0.761023 0.221925
vt 0.757316 0.212491
vt 0.750922 0.216572
vt 0.772804 0.220841
vt 0.791613 0.252007
vt 0.791097 0.255536
vt 0.780068 0.250772
vt 0.780487 0.263708
vt 0.804698 0.264828
vt 0.798786 0.238814
vt 0.221949 0.571626
vt 0.283377 0.553479
vn 0.0379 -0.9993 -0.0011
vn -0.6566 -0.2503 -0.7115
vn -0.5410 0.6352 -0.5512
vn -0.4914 -0.6731 -0.5526
vn -0.6737 0.2014 -0.7110
vn 0.1947 0.6633 -0.7226
vn 0.2443 -0.6451 -0.7240
vn 0.2743 0.2376 -0.9318
vn -0.0379 0.9993 0.0011
vn 0.2914 -0.2141 -0.9323
vn 0.7605 -0.6261 -0.1721
vn 0.6995 -0.3420 0.6275
vn 0.9566 -0.1897 -0.2211
vn -0.1454 0.9890 0.0262
vn 0.5410 -0.6352 0.5512
vn -0.5471 0.5073 0.6658
vn 0.6737 -0.2014 0.7110
vn 0.4292 -0.7969 0.4252
vn -0.1947 -0.6633 0.7226
vn -0.2914 0.2141 0.9323
vn -0.2743 -0.2376 0.9318
vn -0.2443 0.6451 0.7240
vn -0.7109 -0.6823 0.1707
vn -0.9566 0.1897 0.2211
vn -0.9395 -0.2621 0.2206
vn -0.7605 0.6261 0.1721
vn 0.6497 -0.3408 0.6795
vn 0.0811 0.9885 0.1277
vn 0.7311 0.5374 -0.4204
vn -0.1995 0.9645 -0.1729
vn -0.3459 0.0540 0.9367
vn 0.9407 0.2629 -0.2144
vn 0.9100 -0.3580 -0.2089
vn 0.2362 0.9697 -0.0624
vn 0.3336 0.2474 -0.9097
vn 0.7302 -0.6631 -0.1647
vn 0.3327 0.5693 0.7518
vn -0.1416 0.6067 -0.7822
vn 0.7239 0.2645 0.6372
vn -0.4886 0.4899 0.7220
vn 0.4292 -0.7969 0.4251
vn 0.6782 0.5550 -0.4818
vn -0.1995 0.9645 -0.1730
vn -0.2854 0.2152 0.9339
vn 0.9541 0.1046 -0.2808
vn 0.2362 0.9697 -0.0625
vn 0.3264 -0.2884 -0.9002
vn 0.7302 -0.6631 -0.1648
vn 0.1836 0.6494 0.7379
vn -0.0516 0.5478 -0.8350
s off
f 17/1/1 27/2/1 5/3/1
f 3/4/2 9/5/2 4/6/2
f 1/7/3 7/8/3 2/9/3
f 5/10/4 9/5/4 10/11/4
f 2/9/5 8/12/5 3/4/5
f 6/13/6 29/14/6 7/15/6
f 9/16/7 13/17/7 10/18/7
f 7/15/8 11/19/8 8/20/8
f 1/21/9 28/22/9 6/13/9
f 8/20/10 12/23/10 9/16/10
f 13/17/11 16/24/11 17/1/11
f 30/25/12 42/26/12 38/27/12
f 11/19/13 16/24/13 12/23/13
f 28/28/14 41/29/14 39/30/14
f 16/24/15 22/31/15 17/1/15
f 19/32/16 35/33/16 18/34/16
f 15/35/17 21/36/17 16/24/17
f 20/37/18 34/38/18 36/39/18
f 22/31/19 26/40/19 27/2/19
f 19/41/20 25/42/20 20/43/20
f 1/21/9 18/44/9 14/45/9
f 20/43/21 26/40/21 21/36/21
f 18/44/22 24/46/22 19/41/22
f 27/47/23 4/6/23 5/10/23
f 24/48/24 3/4/24 25/49/24
f 25/49/25 4/6/25 26/50/25
f 23/51/26 2/9/26 24/48/26
f 13/17/1 5/3/1 10/18/1
f 31/52/27 36/39/27 34/38/27
f 31/52/28 35/33/28 32/53/28
f 30/54/29 33/55/29 31/52/29
f 18/34/30 33/55/30 14/56/30
f 19/32/31 36/39/31 32/53/31
f 30/54/32 34/38/32 15/57/32
f 37/58/33 42/26/33 40/59/33
f 37/58/34 41/29/34 38/27/34
f 29/60/35 40/59/35 11/61/35
f 11/61/36 42/26/36 15/62/36
f 30/25/37 41/29/37 14/63/37
f 29/60/38 39/30/38 37/58/38
f 17/1/1 22/31/1 27/2/1
f 3/4/2 8/12/2 9/5/2
f 1/7/3 6/64/3 7/8/3
f 5/10/4 4/6/4 9/5/4
f 2/9/5 7/8/5 8/12/5
f 6/13/6 28/22/6 29/14/6
f 9/16/7 12/23/7 13/17/7
f 7/15/8 29/14/8 11/19/8
f 1/21/9 14/45/9 28/22/9
f 8/20/10 11/19/10 12/23/10
f 13/17/11 12/23/11 16/24/11
f 30/25/39 15/62/39 42/26/39
f 11/19/13 15/35/13 16/24/13
f 28/28/14 14/63/14 41/29/14
f 16/24/15 21/36/15 22/31/15
f 19/32/40 32/53/40 35/33/40
f 15/35/17 20/43/17 21/36/17
f 20/37/41 15/57/41 34/38/41
f 22/31/19 21/36/19 26/40/19
f 19/41/20 24/46/20 25/42/20
f 1/21/9 23/65/9 18/44/9
f 20/43/21 25/42/21 26/40/21
f 18/44/22 23/65/22 24/46/22
f 27/47/23 26/50/23 4/6/23
f 24/48/24 2/9/24 3/4/24
f 25/49/25 3/4/25 4/6/25
f 23/51/26 1/7/26 2/9/26
f 13/17/1 17/1/1 5/3/1
f 31/52/27 32/53/27 36/39/27
f 31/52/28 33/55/28 35/33/28
f 30/54/42 14/56/42 33/55/42
f 18/34/43 35/33/43 33/55/43
f 19/32/44 20/37/44 36/39/44
f 30/54/45 31/52/45 34/38/45
f 37/58/33 38/27/33 42/26/33
f 37/58/46 39/30/46 41/29/46
f 29/60/47 37/58/47 40/59/47
f 11/61/48 40/59/48 42/26/48
f 30/25/49 38/27/49 41/29/49
f 29/60/50 28/28/50 39/30/50
v -0.601354 1.478050 -0.855356
v -0.586973 1.457107 -0.868630
v -0.583535 1.429288 -0.874617
v -0.591962 1.402045 -0.871713
v -0.609995 1.382679 -0.860697
v -0.598189 1.476226 -0.827912
v -0.581491 1.453949 -0.821094
v -0.577205 1.425640 -0.819727
v -0.586480 1.398886 -0.824178
v -0.606830 1.380856 -0.833252
v -0.621484 1.427794 -0.786547
v -0.624827 1.400752 -0.795442
v -0.628970 1.381932 -0.816662
v -0.645633 1.480204 -0.822176
v -0.672094 1.433595 -0.808256
v -0.668656 1.405776 -0.814243
v -0.654275 1.384833 -0.827516
v -0.648798 1.482028 -0.849621
v -0.669149 1.463997 -0.858695
v -0.678424 1.437243 -0.863145
v -0.674138 1.408934 -0.861779
v -0.657440 1.386657 -0.854961
v -0.626659 1.480951 -0.866211
v -0.630802 1.462131 -0.887431
v -0.634144 1.435089 -0.896326
v -0.635791 1.407069 -0.890514
v -0.635300 1.385580 -0.871552
v -0.620329 1.477303 -0.811321
v -0.619838 1.455814 -0.792359
v -0.663667 1.460838 -0.811159
v -0.704671 1.485271 -0.827023
v -0.705119 1.485528 -0.830901
v -0.668706 1.488194 -0.826037
v -0.694265 1.452159 -0.821674
v -0.670272 1.489096 -0.839622
v -0.696696 1.453559 -0.842746
v -0.650776 1.476548 -0.761376
v -0.661150 1.477737 -0.765826
v -0.645666 1.482257 -0.778439
v -0.651115 1.455917 -0.771685
v -0.650420 1.482802 -0.780479
v -0.655884 1.456463 -0.773731
vt 0.274240 0.539347
vt 0.265397 0.539709
vt 0.266768 0.532487
vt 0.231414 0.551290
vt 0.214659 0.541092
vt 0.231357 0.542861
vt 0.231940 0.569242
vt 0.215985 0.562822
vt 0.231472 0.559719
vt 0.230890 0.533338
vt 0.220414 0.530957
vt 0.213134 0.552274
vt 0.289666 0.544440
vt 0.282983 0.540904
vt 0.290637 0.536818
vt 0.279682 0.529141
vt 0.275518 0.536619
vt 0.273707 0.532162
vt 0.280945 0.538772
vt 0.286431 0.530872
vt 0.290637 0.551375
vt 0.284312 0.543753
vt 0.278488 0.537315
vt 0.276318 0.541045
vt 0.804698 0.251197
vt 0.792375 0.255919
vt 0.792638 0.252041
vt 0.786357 0.239035
vt 0.792578 0.249274
vt 0.791489 0.249454
vt 0.271776 0.541127
vt 0.760733 0.199751
vt 0.757502 0.209505
vt 0.750621 0.206121
vt 0.278108 0.542645
vt 0.273009 0.544115
vt 0.772804 0.201934
vt 0.766718 0.213101
vt 0.766203 0.208706
vt 0.264007 0.548518
vt 0.277612 0.547903
vt 0.268747 0.555467
vt 0.275021 0.546378
vt 0.280714 0.548498
vt 0.281954 0.545638
vt 0.276612 0.557409
vt 0.240880 0.530957
vt 0.248168 0.561486
vt 0.249693 0.550306
vt 0.246843 0.539760
vt 0.242415 0.571620
vt 0.762287 0.211045
vt 0.762255 0.210544
vt 0.761023 0.221925
vt 0.757316 0.212491
vt 0.750922 0.216572
vt 0.772804 0.220841
vt 0.791613 0.252007
vt 0.791097 0.255536
vt 0.780068 0.250772
vt 0.780487 0.263708
vt 0.804698 0.264828
vt 0.798786 0.238814
vt 0.221949 0.571626
vt 0.283377 0.553479
vn -0.0901 -0.9944 -0.0557
vn 0.9434 -0.3056 -0.1291
vn 0.8069 0.5883 -0.0540
vn 0.6889 -0.7137 -0.1269
vn 0.9841 0.1440 -0.1039
vn 0.5078 0.5765 0.6402
vn 0.3898 -0.7254 0.5673
vn 0.5987 0.1288 0.7906
vn 0.0901 0.9944 0.0557
vn 0.5579 -0.3207 0.7654
vn -0.3581 -0.6627 0.6577
vn -0.9422 -0.2933 0.1617
vn -0.4058 -0.2399 0.8819
vn 0.1334 0.9900 -0.0463
vn -0.8069 -0.5883 0.0540
vn -0.1723 0.5911 -0.7880
vn -0.9841 -0.1440 0.1039
vn -0.6505 -0.7591 0.0246
vn -0.5078 -0.5765 -0.6402
vn -0.5579 0.3207 -0.7654
vn -0.5987 -0.1288 -0.7906
vn -0.3898 0.7254 -0.5673
vn 0.2401 -0.6392 -0.7306
vn 0.4058 0.2399 -0.8819
vn 0.3651 -0.2096 -0.9071
vn 0.3581 0.6627 -0.6577
vn -0.9541 -0.2851 0.0911
vn -0.0828 0.9937 0.0755
vn -0.0622 0.4680 0.8816
vn 0.3233 0.9460 0.0256
vn -0.5400 0.1636 -0.8256
vn -0.3707 0.2111 0.9045
vn -0.3993 -0.4045 0.8227
vn -0.0243 0.9502 0.3106
vn 0.5464 0.1392 0.8259
vn -0.3484 -0.6978 0.6258
vn -0.7609 0.6363 -0.1270
vn 0.7519 0.5237 0.4004
vn -0.9230 0.3098 0.2282
vn 0.1334 0.9900 -0.0464
vn -0.2533 0.5781 -0.7757
vn -0.0828 0.9937 0.0756
vn 0.0197 0.4805 0.8768
vn -0.5628 0.3218 -0.7614
vn -0.3363 0.0463 0.9406
vn -0.3993 -0.4046 0.8227
vn 0.5064 -0.3921 0.7680
vn -0.6555 0.7188 -0.2316
vn 0.7366 0.4569 0.4987
s off
f 59/66/51 69/67/51 47/68/51
f 45/69/52 51/70/52 46/71/52
f 43/72/53 49/73/53 44/74/53
f 47/75/54 51/70/54 52/76/54
f 44/74/55 50/77/55 45/69/55
f 48/78/56 71/79/56 49/80/56
f 51/81/57 55/82/57 52/83/57
f 49/80/58 53/84/58 50/85/58
f 43/86/59 70/87/59 48/78/59
f 50/85/60 54/88/60 51/81/60
f 55/82/61 58/89/61 59/66/61
f 72/90/62 84/91/62 80/92/62
f 53/84/63 58/89/63 54/88/63
f 70/93/64 83/94/64 81/95/64
f 58/89/65 64/96/65 59/66/65
f 61/97/66 77/98/66 60/99/66
f 57/100/67 63/101/67 58/89/67
f 62/102/68 76/103/68 78/104/68
f 64/96/69 68/105/69 69/67/69
f 61/106/70 67/107/70 62/108/70
f 43/86/59 60/109/59 56/110/59
f 62/108/71 68/105/71 63/101/71
f 60/109/72 66/111/72 61/106/72
f 69/112/73 46/71/73 47/75/73
f 66/113/74 45/69/74 67/114/74
f 67/114/75 46/71/75 68/115/75
f 65/116/76 44/74/76 66/113/76
f 55/82/51 47/68/51 52/83/51
f 73/117/77 78/104/77 76/103/77
f 73/117/78 77/98/78 74/118/78
f 72/119/79 75/120/79 73/117/79
f 60/99/80 75/120/80 56/121/80
f 61/97/81 78/104/81 74/118/81
f 72/119/82 76/103/82 57/122/82
f 79/123/83 84/91/83 82/124/83
f 79/123/84 83/94/84 80/92/84
f 71/125/85 82/124/85 53/126/85
f 53/126/86 84/91/86 57/127/86
f 72/90/87 83/94/87 56/128/87
f 71/125/88 81/95/88 79/123/88
f 59/66/51 64/96/51 69/67/51
f 45/69/52 50/77/52 51/70/52
f 43/72/53 48/129/53 49/73/53
f 47/75/54 46/71/54 51/70/54
f 44/74/55 49/73/55 50/77/55
f 48/78/56 70/87/56 71/79/56
f 51/81/57 54/88/57 55/82/57
f 49/80/58 71/79/58 53/84/58
f 43/86/59 56/110/59 70/87/59
f 50/85/60 53/84/60 54/88/60
f 55/82/61 54/88/61 58/89/61
f 72/90/89 57/127/89 84/91/89
f 53/84/63 57/100/63 58/89/63
f 70/93/90 56/128/90 83/94/90
f 58/89/65 63/101/65 64/96/65
f 61/97/91 74/118/91 77/98/91
f 57/100/67 62/108/67 63/101/67
f 62/102/68 57/122/68 76/103/68
f 64/96/69 63/101/69 68/105/69
f 61/106/70 66/111/70 67/107/70
f 43/86/59 65/130/59 60/109/59
f 62/108/71 67/107/71 68/105/71
f 60/109/72 65/130/72 66/111/72
f 69/112/73 68/115/73 46/71/73
f 66/113/74 44/74/74 45/69/74
f 67/114/75 45/69/75 46/71/75
f 65/116/76 43/72/76 44/74/76
f 55/82/51 59/66/51 47/68/51
f 73/117/77 74/118/77 78/104/77
f 73/117/92 75/120/92 77/98/92
f 72/119/93 56/121/93 75/120/93
f 60/99/80 77/98/80 75/120/80
f 61/97/94 62/102/94 78/104/94
f 72/119/95 73/117/95 76/103/95
f 79/123/96 80/92/96 84/91/96
f 79/123/84 81/95/84 83/94/84
f 71/125/97 79/123/97 82/124/97
f 53/126/86 82/124/86 84/91/86
f 72/90/98 80/92/98 83/94/98
f 71/125/99 70/93/99 81/95/99
