# Blender v2.81 (sub 16) OBJ File: 'garbage.blend'
# www.blender.org
v 0.217079 1.290220 -0.295650
v 0.210540 1.278957 -0.270116
v 0.202595 1.256483 -0.254198
v 0.195374 1.228819 -0.252162
v 0.190810 1.203378 -0.264553
v 0.194723 1.291144 -0.311956
v 0.171818 1.280557 -0.298359
v 0.157882 1.258330 -0.286811
v 0.156651 1.230418 -0.280405
v 0.168453 1.204301 -0.280859
v 0.160580 1.238963 -0.338617
v 0.158988 1.213646 -0.325271
v 0.169802 1.194618 -0.306762
v 0.219777 1.270853 -0.347456
v 0.207992 1.217748 -0.357811
v 0.200047 1.195273 -0.341893
v 0.193508 1.184010 -0.316359
v 0.242134 1.269929 -0.331150
v 0.253936 1.243812 -0.331603
v 0.252704 1.215901 -0.325198
v 0.238769 1.193674 -0.313649
v 0.215864 1.183087 -0.300053
v 0.240785 1.279613 -0.305247
v 0.251599 1.260585 -0.286738
v 0.250006 1.235268 -0.273392
v 0.236433 1.210446 -0.268784
v 0.214515 1.192770 -0.274149
v 0.196072 1.281460 -0.337859
v 0.174154 1.263784 -0.343225
v 0.215213 1.245412 -0.359847
v 0.259658 1.245311 -0.383397
v 0.262818 1.245180 -0.381093
v 0.239001 1.265993 -0.362218
v 0.237496 1.222153 -0.369049
v 0.250068 1.265536 -0.354146
v 0.254661 1.221444 -0.356529
v 0.177496 1.267105 -0.391441
v 0.187215 1.262756 -0.395376
v 0.188946 1.274046 -0.378381
v 0.177534 1.248788 -0.377421
v 0.193400 1.272053 -0.380184
v 0.182001 1.246790 -0.379230
vt 0.274240 0.539347
vt 0.265397 0.539709
vt 0.266768 0.532487
vt 0.231414 0.551290
vt 0.214659 0.541092
vt 0.231357 0.542861
vt 0.231940 0.569242
vt 0.215985 0.562822
vt 0.231472 0.559719
vt 0.230890 0.533338
vt 0.220414 0.530957
vt 0.213134 0.552274
vt 0.289666 0.544440
vt 0.282983 0.540904
vt 0.290637 0.536818
vt 0.279682 0.529141
vt 0.275518 0.536619
vt 0.273707 0.532162
vt 0.280945 0.538772
vt 0.286431 0.530872
vt 0.290637 0.551375
vt 0.284312 0.543753
vt 0.278488 0.537315
vt 0.276318 0.541045
vt 0.804698 0.251197
vt 0.792375 0.255919
vt 0.792638 0.252041
vt 0.786357 0.239035
vt 0.792578 0.249274
vt 0.791489 0.249454
vt 0.271776 0.541127
vt 0.760733 0.199751
vt 0.757502 0.209505
vt 0.750621 0.206121
vt 0.278108 0.542645
vt 0.273009 0.544115
vt 0.772804 0.201934
vt 0.766718 0.213101
vt 0.766203 0.208706
vt 0.264007 0.548518
vt 0.277612 0.547903
vt 0.268747 0.555467
vt 0.275021 0.546378
vt 0.280714 0.548498
vt 0.281954 0.545638
vt 0.276612 0.557409
vt 0.240880 0.530957
vt 0.248168 0.561486
vt 0.249693 0.550306
vt 0.246843 0.539760
vt 0.242415 0.571620
vt 0.762287 0.211045
vt 0.762255 0.210544
vt 0.761023 0.221925
vt 0.757316 0.212491
vt 0.750922 0.216572
vt 0.772804 0.220841
vt 0.791613 0.252007
vt 0.791097 0.255536
vt 0.780068 0.250772
vt 0.780487 0.263708
vt 0.804698 0.264828
vt 0.798786 0.238814
vt 0.221949 0.571626
vt 0.283377 0.553479
vn -0.2739 -0.9055 0.3242
vn -0.5709 0.2075 0.7944
vn -0.2156 0.9126 0.3473
vn -0.5743 -0.2729 0.7719
vn -0.4470 0.6168 0.6478
vn -0.5468 0.7745 -0.3180
vn -0.9054 -0.4110 0.1065
vn -0.8737 0.4389 -0.2096
vn 0.2739 0.9055 -0.3242
vn -0.9976 0.0296 -0.0630
vn -0.5105 -0.7308 -0.4531
vn 0.3257 -0.7228 -0.6095
vn -0.4886 -0.3826 -0.7841
vn 0.3207 0.9201 -0.2247
vn 0.2156 -0.9126 -0.3473
vn 0.8882 0.3974 0.2305
vn 0.4470 -0.6168 -0.6478
vn 0.0824 -0.9822 -0.1686
vn 0.5468 -0.7745 0.3180
vn 0.9976 -0.0296 0.0630
vn 0.8737 -0.4389 0.2096
vn 0.9054 0.4110 -0.1065
vn 0.1518 -0.4547 0.8776
vn 0.4886 0.3826 0.7841
vn 0.3648 -0.0267 0.9307
vn 0.5105 0.7308 0.4531
vn 0.3867 -0.7240 -0.5712
vn 0.3603 0.8184 -0.4477
vn -0.4281 0.4015 -0.8096
vn 0.1415 0.9802 -0.1385
vn 0.9726 -0.1581 0.1702
vn -0.3591 0.0251 -0.9330
vn -0.5104 -0.5233 -0.6823
vn 0.1403 0.8181 -0.5578
vn -0.8649 0.4227 -0.2708
vn -0.5060 -0.7573 -0.4128
vn 0.7713 0.1615 -0.6157
vn -0.5357 0.8441 0.0210
vn -0.5708 0.2075 0.7944
vn -0.5742 -0.2729 0.7719
vn 0.4889 -0.1903 -0.8513
vn 0.9219 0.3458 0.1750
vn -0.4679 0.4534 -0.7586
vn 0.9979 -0.0310 0.0568
vn -0.4661 -0.0987 -0.8792
vn -0.5104 -0.5234 -0.6823
vn 0.1402 0.8180 -0.5578
vn -0.9956 -0.0579 -0.0730
vn 0.8157 0.2824 -0.5049
vn -0.6224 0.7820 -0.0336
s off
f 17/1/1 27/2/1 5/3/1
f 3/4/2 9/5/2 4/6/2
f 1/7/3 7/8/3 2/9/3
f 5/10/4 9/5/4 10/11/4
f 2/9/5 8/12/5 3/4/5
f 6/13/6 29/14/6 7/15/6
f 9/16/7 13/17/7 10/18/7
f 7/15/8 11/19/8 8/20/8
f 1/21/9 28/22/9 6/13/9
f 8/20/10 12/23/10 9/16/10
f 13/17/11 16/24/11 17/1/11
f 30/25/12 42/26/12 38/27/12
f 11/19/13 16/24/13 12/23/13
f 28/28/14 41/29/14 39/30/14
f 16/24/15 22/31/15 17/1/15
f 19/32/16 35/33/16 18/34/16
f 15/35/17 21/36/17 16/24/17
f 20/37/18 34/38/18 36/39/18
f 22/31/19 26/40/19 27/2/19
f 19/41/20 25/42/20 20/43/20
f 1/21/9 18/44/9 14/45/9
f 20/43/21 26/40/21 21/36/21
f 18/44/22 24/46/22 19/41/22
f 27/47/23 4/6/23 5/10/23
f 24/48/24 3/4/24 25/49/24
f 25/49/25 4/6/25 26/50/25
f 23/51/26 2/9/26 24/48/26
f 13/17/1 5/3/1 10/18/1
f 31/52/27 36/39/27 34/38/27
f 31/52/28 35/33/28 32/53/28
f 30/54/29 33/55/29 31/52/29
f 18/34/30 33/55/30 14/56/30
f 19/32/31 36/39/31 32/53/31
f 30/54/32 34/38/32 15/57/32
f 37/58/33 42/26/33 40/59/33
f 37/58/34 41/29/34 38/27/34
f 29/60/35 40/59/35 11/61/35
f 11/61/36 42/26/36 15/62/36
f 30/25/37 41/29/37 14/63/37
f 29/60/38 39/30/38 37/58/38
f 17/1/1 22/31/1 27/2/1
f 3/4/39 8/12/39 9/5/39
f 1/7/3 6/64/3 7/8/3
f 5/10/40 4/6/40 9/5/40
f 2/9/5 7/8/5 8/12/5
f 6/13/6 28/22/6 29/14/6
f 9/16/7 12/23/7 13/17/7
f 7/15/8 29/14/8 11/19/8
f 1/21/9 14/45/9 28/22/9
f 8/20/10 11/19/10 12/23/10
f 13/17/11 12/23/11 16/24/11
f 30/25/41 15/62/41 42/26/41
f 11/19/13 15/35/13 16/24/13
f 28/28/14 14/63/14 41/29/14
f 16/24/15 21/36/15 22/31/15
f 19/32/42 32/53/42 35/33/42
f 15/35/17 20/43/17 21/36/17
f 20/37/18 15/57/18 34/38/18
f 22/31/19 21/36/19 26/40/19
f 19/41/20 24/46/20 25/42/20
f 1/21/9 23/65/9 18/44/9
f 20/43/21 25/42/21 26/40/21
f 18/44/22 23/65/22 24/46/22
f 27/47/23 26/50/23 4/6/23
f 24/48/24 2/9/24 3/4/24
f 25/49/25 3/4/25 4/6/25
f 23/51/26 1/7/26 2/9/26
f 13/17/1 17/1/1 5/3/1
f 31/52/27 32/53/27 36/39/27
f 31/52/28 33/55/28 35/33/28
f 30/54/43 14/56/43 33/55/43
f 18/34/30 35/33/30 33/55/30
f 19/32/44 20/37/44 36/39/44
f 30/54/45 31/52/45 34/38/45
f 37/58/46 38/27/46 42/26/46
f 37/58/47 39/30/47 41/29/47
f 29/60/48 37/58/48 40/59/48
f 11/61/36 40/59/36 42/26/36
f 30/25/49 38/27/49 41/29/49
f 29/60/50 28/28/50 39/30/50
v -0.133596 1.263294 0.494436
v -0.144469 1.237224 0.489558
v -0.142874 1.208742 0.492354
v -0.129240 1.185479 0.502076
v -0.107220 1.173667 0.516118
v -0.109999 1.266842 0.480396
v -0.103596 1.243370 0.465240
v -0.095679 1.215839 0.464275
v -0.088368 1.191624 0.477758
v -0.083622 1.177215 0.502078
v -0.050746 1.235315 0.490120
v -0.049455 1.208491 0.500141
v -0.061155 1.186953 0.515000
v -0.088663 1.282769 0.520281
v -0.053008 1.247694 0.544044
v -0.051414 1.219212 0.546841
v -0.062287 1.193143 0.541963
v -0.112261 1.279221 0.534321
v -0.107515 1.264812 0.558641
v -0.100204 1.240597 0.572124
v -0.092286 1.213066 0.571159
v -0.085884 1.189594 0.556003
v -0.134727 1.269483 0.521398
v -0.146428 1.247945 0.536258
v -0.145137 1.221122 0.546279
v -0.131200 1.196199 0.548776
v -0.108351 1.179857 0.543080
v -0.087532 1.276580 0.493319
v -0.064683 1.260237 0.487623
v -0.066643 1.270958 0.534323
v -0.072728 1.300078 0.574881
v -0.076063 1.299577 0.576865
v -0.085931 1.294803 0.541701
v -0.062138 1.267457 0.567332
v -0.097612 1.293046 0.548651
v -0.080257 1.264732 0.578112
v -0.032032 1.293787 0.500084
v -0.032495 1.296324 0.511138
v -0.050643 1.294293 0.501875
v -0.034969 1.272044 0.507202
v -0.050856 1.295456 0.506941
v -0.035182 1.273210 0.512282
vt 0.274240 0.539347
vt 0.265397 0.539709
vt 0.266768 0.532487
vt 0.231414 0.551290
vt 0.214659 0.541092
vt 0.231357 0.542861
vt 0.231940 0.569242
vt 0.215985 0.562822
vt 0.231472 0.559719
vt 0.230890 0.533338
vt 0.220414 0.530957
vt 0.213134 0.552274
vt 0.289666 0.544440
vt 0.282983 0.540904
vt 0.290637 0.536818
vt 0.279682 0.529141
vt 0.275518 0.536619
vt 0.273707 0.532162
vt 0.280945 0.538772
vt 0.286431 0.530872
vt 0.290637 0.551375
vt 0.284312 0.543753
vt 0.278488 0.537315
vt 0.276318 0.541045
vt 0.804698 0.251197
vt 0.792375 0.255919
vt 0.792638 0.252041
vt 0.786357 0.239035
vt 0.792578 0.249274
vt 0.791489 0.249454
vt 0.271776 0.541127
vt 0.760733 0.199751
vt 0.757502 0.209505
vt 0.750621 0.206121
vt 0.278108 0.542645
vt 0.273009 0.544115
vt 0.772804 0.201934
vt 0.766718 0.213101
vt 0.766203 0.208706
vt 0.264007 0.548518
vt 0.277612 0.547903
vt 0.268747 0.555467
vt 0.275021 0.546378
vt 0.280714 0.548498
vt 0.281954 0.545638
vt 0.276612 0.557409
vt 0.240880 0.530957
vt 0.248168 0.561486
vt 0.249693 0.550306
vt 0.246843 0.539760
vt 0.242415 0.571620
vt 0.762287 0.211045
vt 0.762255 0.210544
vt 0.761023 0.221925
vt 0.757316 0.212491
vt 0.750922 0.216572
vt 0.772804 0.220841
vt 0.791613 0.252007
vt 0.791097 0.255536
vt 0.780068 0.250772
vt 0.780487 0.263708
vt 0.804698 0.264828
vt 0.798786 0.238814
vt 0.221949 0.571626
vt 0.283377 0.553479
vn 0.2750 -0.9345 0.2261
vn -0.3712 -0.5348 -0.7591
vn -0.5164 0.3607 -0.7767
vn -0.1563 -0.8628 -0.4807
vn -0.4956 -0.1123 -0.8613
vn 0.2098 0.5701 -0.7943
vn 0.5699 -0.6534 -0.4983
vn 0.4402 0.1576 -0.8840
vn -0.2750 0.9345 -0.2261
vn 0.5645 -0.2649 -0.7818
vn 0.9062 -0.4023 0.1304
vn 0.5748 -0.0263 0.8178
vn 0.9979 0.0586 0.0284
vn -0.3797 0.8980 -0.2221
vn 0.5164 -0.3607 0.7767
vn -0.8053 0.4277 0.4106
vn 0.4956 0.1123 0.8613
vn 0.4829 -0.5651 0.6689
vn -0.2098 -0.5701 0.7943
vn -0.5645 0.2649 0.7818
vn -0.4401 -0.1576 0.8840
vn -0.5698 0.6534 0.4983
vn -0.5461 -0.8212 0.1656
vn -0.9979 -0.0586 -0.0284
vn -0.8735 -0.4811 0.0738
vn -0.9062 0.4023 -0.1304
vn 0.5145 -0.0313 0.8569
vn -0.1937 0.9779 -0.0784
vn 0.6641 0.6510 -0.3678
vn -0.3731 0.8284 -0.4178
vn -0.5782 0.0986 0.8099
vn 0.8729 0.4832 -0.0679
vn 0.9914 -0.1119 0.0673
vn 0.0050 0.9747 -0.2235
vn 0.4875 0.1872 -0.8528
vn 0.8847 -0.4448 0.1392
vn -0.0187 0.7505 0.6606
vn -0.0762 0.4115 -0.9082
vn 0.5698 -0.6534 -0.4983
vn 0.4499 0.5558 0.6990
vn -0.7608 0.4367 0.4800
vn -0.4402 -0.1576 0.8840
vn -0.5699 0.6534 0.4983
vn 0.6261 0.6430 -0.4411
vn -0.5595 0.2678 0.7844
vn 0.9404 0.3269 -0.0936
vn 0.0050 0.9747 -0.2236
vn 0.6067 -0.3201 -0.7277
vn -0.1739 0.7816 0.5990
vn 0.0358 0.3732 -0.9271
s off
f 59/66/51 69/67/51 47/68/51
f 45/69/52 51/70/52 46/71/52
f 43/72/53 49/73/53 44/74/53
f 47/75/54 51/70/54 52/76/54
f 44/74/55 50/77/55 45/69/55
f 48/78/56 71/79/56 49/80/56
f 51/81/57 55/82/57 52/83/57
f 49/80/58 53/84/58 50/85/58
f 43/86/59 70/87/59 48/78/59
f 50/85/60 54/88/60 51/81/60
f 55/82/61 58/89/61 59/66/61
f 72/90/62 84/91/62 80/92/62
f 53/84/63 58/89/63 54/88/63
f 70/93/64 83/94/64 81/95/64
f 58/89/65 64/96/65 59/66/65
f 61/97/66 77/98/66 60/99/66
f 57/100/67 63/101/67 58/89/67
f 62/102/68 76/103/68 78/104/68
f 64/96/69 68/105/69 69/67/69
f 61/106/70 67/107/70 62/108/70
f 43/86/59 60/109/59 56/110/59
f 62/108/71 68/105/71 63/101/71
f 60/109/72 66/111/72 61/106/72
f 69/112/73 46/71/73 47/75/73
f 66/113/74 45/69/74 67/114/74
f 67/114/75 46/71/75 68/115/75
f 65/116/76 44/74/76 66/113/76
f 55/82/51 47/68/51 52/83/51
f 73/117/77 78/104/77 76/103/77
f 73/117/78 77/98/78 74/118/78
f 72/119/79 75/120/79 73/117/79
f 60/99/80 75/120/80 56/121/80
f 61/97/81 78/104/81 74/118/81
f 72/119/82 76/103/82 57/122/82
f 79/123/83 84/91/83 82/124/83
f 79/123/84 83/94/84 80/92/84
f 71/125/85 82/124/85 53/126/85
f 53/126/86 84/91/86 57/127/86
f 72/90/87 83/94/87 56/128/87
f 71/125/88 81/95/88 79/123/88
f 59/66/51 64/96/51 69/67/51
f 45/69/52 50/77/52 51/70/52
f 43/72/53 48/129/53 49/73/53
f 47/75/54 46/71/54 51/70/54
f 44/74/55 49/73/55 50/77/55
f 48/78/56 70/87/56 71/79/56
f 51/81/89 54/88/89 55/82/89
f 49/80/58 71/79/58 53/84/58
f 43/86/59 56/110/59 70/87/59
f 50/85/60 53/84/60 54/88/60
f 55/82/61 54/88/61 58/89/61
f 72/90/90 57/127/90 84/91/90
f 53/84/63 57/100/63 58/89/63
f 70/93/64 56/128/64 83/94/64
f 58/89/65 63/101/65 64/96/65
f 61/97/91 74/118/91 77/98/91
f 57/100/67 62/108/67 63/101/67
f 62/102/68 57/122/68 76/103/68
f 64/96/69 63/101/69 68/105/69
f 61/106/70 66/111/70 67/107/70
f 43/86/59 65/130/59 60/109/59
f 62/108/92 67/107/92 68/105/92
f 60/109/93 65/130/93 66/111/93
f 69/112/73 68/115/73 46/71/73
f 66/113/74 44/74/74 45/69/74
f 67/114/75 45/69/75 46/71/75
f 65/116/76 43/72/76 44/74/76
f 55/82/51 59/66/51 47/68/51
f 73/117/77 74/118/77 78/104/77
f 73/117/78 75/120/78 77/98/78
f 72/119/94 56/121/94 75/120/94
f 60/99/80 77/98/80 75/120/80
f 61/97/95 62/102/95 78/104/95
f 72/119/96 73/117/96 76/103/96
f 79/123/83 80/92/83 84/91/83
f 79/123/97 81/95/97 83/94/97
f 71/125/98 79/123/98 82/124/98
f 53/126/86 82/124/86 84/91/86
f 72/90/99 80/92/99 83/94/99
f 71/125/100 70/93/100 81/95/100
