# Blender v2.81 (sub 16) OBJ File: 'garbage.blend'
# www.blender.org
v -0.146011 1.370236 -0.717584
v -0.145544 1.341664 -0.715345
v -0.157100 1.317343 -0.705520
v -0.177581 1.303788 -0.690741
v -0.201499 1.304633 -0.674968
v -0.141132 1.382060 -0.693029
v -0.137093 1.362144 -0.672814
v -0.147341 1.340990 -0.656410
v -0.169129 1.324268 -0.648210
v -0.196620 1.316458 -0.650413
v -0.180652 1.381175 -0.637922
v -0.197978 1.359069 -0.632199
v -0.213276 1.336550 -0.641169
v -0.179323 1.410421 -0.699096
v -0.223722 1.397712 -0.668545
v -0.235277 1.373391 -0.658719
v -0.234811 1.344818 -0.656480
v -0.184202 1.398597 -0.723651
v -0.211693 1.390787 -0.725854
v -0.233481 1.374064 -0.717655
v -0.243729 1.352911 -0.701250
v -0.239690 1.332994 -0.681036
v -0.167546 1.378505 -0.732895
v -0.182844 1.355986 -0.741865
v -0.200170 1.333879 -0.736142
v -0.214880 1.318110 -0.717261
v -0.223034 1.312902 -0.690279
v -0.157787 1.402153 -0.683785
v -0.165941 1.396945 -0.656804
v -0.203241 1.411266 -0.683324
v -0.228125 1.439417 -0.716764
v -0.228815 1.437746 -0.720234
v -0.195624 1.424920 -0.710721
v -0.235055 1.414110 -0.693423
v -0.198039 1.419067 -0.722876
v -0.238801 1.405032 -0.712276
v -0.178777 1.442654 -0.647162
v -0.187606 1.446044 -0.653439
v -0.173446 1.435150 -0.663445
v -0.190486 1.422865 -0.645340
v -0.177492 1.436704 -0.666322
v -0.194544 1.424423 -0.648225
vt 0.274240 0.539347
vt 0.265397 0.539709
vt 0.266768 0.532487
vt 0.231414 0.551290
vt 0.214659 0.541092
vt 0.231357 0.542861
vt 0.231940 0.569242
vt 0.215985 0.562822
vt 0.231472 0.559719
vt 0.230890 0.533338
vt 0.220414 0.530957
vt 0.213134 0.552274
vt 0.289666 0.544440
vt 0.282983 0.540904
vt 0.290637 0.536818
vt 0.279682 0.529141
vt 0.275518 0.536619
vt 0.273707 0.532162
vt 0.280945 0.538772
vt 0.286431 0.530872
vt 0.290637 0.551375
vt 0.284312 0.543753
vt 0.278488 0.537315
vt 0.276318 0.541045
vt 0.804698 0.251197
vt 0.792375 0.255919
vt 0.792638 0.252041
vt 0.786357 0.239035
vt 0.792578 0.249274
vt 0.791489 0.249454
vt 0.271776 0.541127
vt 0.760733 0.199751
vt 0.757502 0.209505
vt 0.750621 0.206121
vt 0.278108 0.542645
vt 0.273009 0.544115
vt 0.772804 0.201934
vt 0.766718 0.213101
vt 0.766203 0.208706
vt 0.264007 0.548518
vt 0.277612 0.547903
vt 0.268747 0.555467
vt 0.275021 0.546378
vt 0.280714 0.548498
vt 0.281954 0.545638
vt 0.276612 0.557409
vt 0.240880 0.530957
vt 0.248168 0.561486
vt 0.249693 0.550306
vt 0.246843 0.539760
vt 0.242415 0.571620
vt 0.762287 0.211045
vt 0.762255 0.210544
vt 0.761023 0.221925
vt 0.757316 0.212491
vt 0.750922 0.216572
vt 0.772804 0.220841
vt 0.791613 0.252007
vt 0.791097 0.255536
vt 0.780068 0.250772
vt 0.780487 0.263708
vt 0.804698 0.264828
vt 0.798786 0.238814
vt 0.221949 0.571626
vt 0.283377 0.553479
vn -0.5785 -0.6840 0.4443
vn 0.6450 -0.7307 0.2237
vn 0.9808 0.0007 -0.1952
vn 0.2233 -0.8948 0.3865
vn 0.9065 -0.4215 0.0228
vn 0.7951 0.5038 0.3375
vn 0.0376 -0.3917 0.9193
vn 0.6673 0.2268 0.7094
vn 0.5785 0.6840 -0.4443
vn 0.4058 -0.0824 0.9102
vn -0.5644 0.0553 0.8237
vn -0.9384 0.3276 0.1097
vn -0.3700 0.4937 0.7870
vn 0.6022 0.6061 -0.5197
vn -0.9808 -0.0007 0.1952
vn 0.0579 0.0769 -0.9954
vn -0.9065 0.4215 -0.0228
vn -0.9345 -0.2104 0.2870
vn -0.7951 -0.5038 -0.3376
vn -0.4058 0.0824 -0.9102
vn -0.6673 -0.2268 -0.7094
vn -0.0376 0.3917 -0.9193
vn -0.1931 -0.9509 -0.2419
vn 0.3700 -0.4937 -0.7870
vn 0.1084 -0.8029 -0.5861
vn 0.5644 -0.0553 -0.8237
vn -0.9525 0.3015 0.0441
vn 0.4317 0.7762 -0.4596
vn 0.2778 0.8267 0.4892
vn 0.7517 0.5233 -0.4014
vn -0.4753 -0.0683 -0.8772
vn -0.1128 0.8052 0.5821
vn -0.4529 0.3437 0.8226
vn 0.4866 0.8430 -0.2292
vn 0.6315 0.2778 0.7240
vn -0.5771 0.0092 0.8166
vn -0.3521 0.7397 -0.5735
vn 0.9521 0.2233 0.2088
vn -0.6143 0.7767 -0.1389
vn -0.0168 0.1128 -0.9935
vn -0.7951 -0.5038 -0.3375
vn 0.4317 0.7762 -0.4595
vn 0.3539 0.7941 0.4941
vn -0.4090 0.0875 -0.9083
vn -0.1613 0.6926 0.7031
vn 0.3262 -0.1065 0.9393
vn -0.2320 0.6919 -0.6837
vn 0.9166 0.2361 0.3226
s off
f 17/1/1 27/2/1 5/3/1
f 3/4/2 9/5/2 4/6/2
f 1/7/3 7/8/3 2/9/3
f 5/10/4 9/5/4 10/11/4
f 2/9/5 8/12/5 3/4/5
f 6/13/6 29/14/6 7/15/6
f 9/16/7 13/17/7 10/18/7
f 7/15/8 11/19/8 8/20/8
f 1/21/9 28/22/9 6/13/9
f 8/20/10 12/23/10 9/16/10
f 13/17/11 16/24/11 17/1/11
f 30/25/12 42/26/12 38/27/12
f 11/19/13 16/24/13 12/23/13
f 28/28/14 41/29/14 39/30/14
f 16/24/15 22/31/15 17/1/15
f 19/32/16 35/33/16 18/34/16
f 15/35/17 21/36/17 16/24/17
f 20/37/18 34/38/18 36/39/18
f 22/31/19 26/40/19 27/2/19
f 19/41/20 25/42/20 20/43/20
f 1/21/9 18/44/9 14/45/9
f 20/43/21 26/40/21 21/36/21
f 18/44/22 24/46/22 19/41/22
f 27/47/23 4/6/23 5/10/23
f 24/48/24 3/4/24 25/49/24
f 25/49/25 4/6/25 26/50/25
f 23/51/26 2/9/26 24/48/26
f 13/17/1 5/3/1 10/18/1
f 31/52/27 36/39/27 34/38/27
f 31/52/28 35/33/28 32/53/28
f 30/54/29 33/55/29 31/52/29
f 18/34/30 33/55/30 14/56/30
f 19/32/31 36/39/31 32/53/31
f 30/54/32 34/38/32 15/57/32
f 37/58/33 42/26/33 40/59/33
f 37/58/34 41/29/34 38/27/34
f 29/60/35 40/59/35 11/61/35
f 11/61/36 42/26/36 15/62/36
f 30/25/37 41/29/37 14/63/37
f 29/60/38 39/30/38 37/58/38
f 17/1/1 22/31/1 27/2/1
f 3/4/2 8/12/2 9/5/2
f 1/7/3 6/64/3 7/8/3
f 5/10/4 4/6/4 9/5/4
f 2/9/5 7/8/5 8/12/5
f 6/13/6 28/22/6 29/14/6
f 9/16/7 12/23/7 13/17/7
f 7/15/8 29/14/8 11/19/8
f 1/21/9 14/45/9 28/22/9
f 8/20/10 11/19/10 12/23/10
f 13/17/11 12/23/11 16/24/11
f 30/25/39 15/62/39 42/26/39
f 11/19/13 15/35/13 16/24/13
f 28/28/14 14/63/14 41/29/14
f 16/24/15 21/36/15 22/31/15
f 19/32/40 32/53/40 35/33/40
f 15/35/17 20/43/17 21/36/17
f 20/37/18 15/57/18 34/38/18
f 22/31/41 21/36/41 26/40/41
f 19/41/20 24/46/20 25/42/20
f 1/21/9 23/65/9 18/44/9
f 20/43/21 25/42/21 26/40/21
f 18/44/22 23/65/22 24/46/22
f 27/47/23 26/50/23 4/6/23
f 24/48/24 2/9/24 3/4/24
f 25/49/25 3/4/25 4/6/25
f 23/51/26 1/7/26 2/9/26
f 13/17/1 17/1/1 5/3/1
f 31/52/27 32/53/27 36/39/27
f 31/52/42 33/55/42 35/33/42
f 30/54/43 14/56/43 33/55/43
f 18/34/30 35/33/30 33/55/30
f 19/32/44 20/37/44 36/39/44
f 30/54/45 31/52/45 34/38/45
f 37/58/33 38/27/33 42/26/33
f 37/58/34 39/30/34 41/29/34
f 29/60/46 37/58/46 40/59/46
f 11/61/36 40/59/36 42/26/36
f 30/25/47 38/27/47 41/29/47
f 29/60/48 28/28/48 39/30/48
v 1.322382 1.248960 -0.259368
v 1.307484 1.233728 -0.240194
v 1.298899 1.208402 -0.229875
v 1.298927 1.179768 -0.231175
v 1.307562 1.155498 -0.243745
v 1.311250 1.246507 -0.284600
v 1.288203 1.229480 -0.283897
v 1.276635 1.203497 -0.280338
v 1.279646 1.175520 -0.274877
v 1.296430 1.153046 -0.268977
v 1.308782 1.191151 -0.323702
v 1.307486 1.164828 -0.312431
v 1.312503 1.146873 -0.290659
v 1.354529 1.236613 -0.302732
v 1.363192 1.183710 -0.316602
v 1.354607 1.158384 -0.306283
v 1.339708 1.143152 -0.287109
v 1.365661 1.239066 -0.277500
v 1.382444 1.216591 -0.271600
v 1.385456 1.188614 -0.266139
v 1.373888 1.162631 -0.262581
v 1.350840 1.145604 -0.261878
v 1.349587 1.245239 -0.255818
v 1.354605 1.227283 -0.234046
v 1.353309 1.200961 -0.222775
v 1.346048 1.173324 -0.225026
v 1.334767 1.151778 -0.240196
v 1.327324 1.240334 -0.306281
v 1.316043 1.218788 -0.321451
v 1.363163 1.212344 -0.315303
v 1.411793 1.225112 -0.313834
v 1.413366 1.225459 -0.310268
v 1.378995 1.237989 -0.305988
v 1.392216 1.196021 -0.311886
v 1.384505 1.239203 -0.293499
v 1.400763 1.197904 -0.292514
v 1.341208 1.228123 -0.361782
v 1.352361 1.226598 -0.360327
v 1.342749 1.236024 -0.344898
v 1.339168 1.208869 -0.349245
v 1.347861 1.235325 -0.344231
v 1.344294 1.208168 -0.348577
vt 0.274240 0.539347
vt 0.265397 0.539709
vt 0.266768 0.532487
vt 0.231414 0.551290
vt 0.214659 0.541092
vt 0.231357 0.542861
vt 0.231940 0.569242
vt 0.215985 0.562822
vt 0.231472 0.559719
vt 0.230890 0.533338
vt 0.220414 0.530957
vt 0.213134 0.552274
vt 0.289666 0.544440
vt 0.282983 0.540904
vt 0.290637 0.536818
vt 0.279682 0.529141
vt 0.275518 0.536619
vt 0.273707 0.532162
vt 0.280945 0.538772
vt 0.286431 0.530872
vt 0.290637 0.551375
vt 0.284312 0.543753
vt 0.278488 0.537315
vt 0.276318 0.541045
vt 0.804698 0.251197
vt 0.792375 0.255919
vt 0.792638 0.252041
vt 0.786357 0.239035
vt 0.792578 0.249274
vt 0.791489 0.249454
vt 0.271776 0.541127
vt 0.760733 0.199751
vt 0.757502 0.209505
vt 0.750621 0.206121
vt 0.278108 0.542645
vt 0.273009 0.544115
vt 0.772804 0.201934
vt 0.766718 0.213101
vt 0.766203 0.208706
vt 0.264007 0.548518
vt 0.277612 0.547903
vt 0.268747 0.555467
vt 0.275021 0.546378
vt 0.280714 0.548498
vt 0.281954 0.545638
vt 0.276612 0.557409
vt 0.240880 0.530957
vt 0.248168 0.561486
vt 0.249693 0.550306
vt 0.246843 0.539760
vt 0.242415 0.571620
vt 0.762287 0.211045
vt 0.762255 0.210544
vt 0.761023 0.221925
vt 0.757316 0.212491
vt 0.750922 0.216572
vt 0.772804 0.220841
vt 0.791613 0.252007
vt 0.791097 0.255536
vt 0.780068 0.250772
vt 0.780487 0.263708
vt 0.804698 0.264828
vt 0.798786 0.238814
vt 0.221949 0.571626
vt 0.283377 0.553479
vn -0.1545 -0.9745 0.1629
vn -0.9140 -0.0193 0.4051
vn -0.5810 0.7939 0.1792
vn -0.7834 -0.4820 0.3925
vn -0.8442 0.4212 0.3315
vn -0.5032 0.6579 -0.5603
vn -0.7055 -0.6179 -0.3471
vn -0.7438 0.2460 -0.6215
vn 0.1545 0.9745 -0.1629
vn -0.8137 -0.1945 -0.5478
vn -0.0233 -0.7739 -0.6329
vn 0.7511 -0.5559 -0.3562
vn 0.0654 -0.3955 -0.9161
vn 0.1422 0.9884 -0.0535
vn 0.5811 -0.7939 -0.1792
vn 0.5323 0.5634 0.6318
vn 0.8442 -0.4212 -0.3315
vn 0.4011 -0.9118 -0.0883
vn 0.5032 -0.6579 0.5603
vn 0.8137 0.1945 0.5478
vn 0.7438 -0.2460 0.6215
vn 0.7055 0.6179 0.3471
vn -0.1791 -0.5020 0.8461
vn -0.0654 0.3955 0.9161
vn -0.1353 -0.0451 0.9898
vn 0.0233 0.7739 0.6329
vn 0.7841 -0.5472 -0.2928
vn 0.3087 0.9239 -0.2260
vn -0.0717 0.3793 -0.9225
vn -0.0650 0.9956 -0.0681
vn 0.7740 0.0526 0.6310
vn 0.1416 0.0450 -0.9889
vn 0.0341 -0.5479 -0.8359
vn 0.1772 0.8851 -0.4303
vn -0.7027 0.2392 -0.6700
vn -0.0322 -0.8029 -0.5952
vn 0.9018 0.4024 -0.1574
vn -0.6749 0.6901 -0.2613
vn -0.5811 0.7939 0.1792
vn -0.8442 0.4213 0.3315
vn -0.7055 -0.6179 -0.3470
vn 0.8684 0.0233 -0.4954
vn 0.5810 -0.7939 -0.1792
vn 0.6004 0.5274 0.6011
vn 0.4011 -0.9118 -0.0884
vn 0.7055 0.6180 0.3471
vn 0.7841 -0.5473 -0.2928
vn -0.1429 0.4146 -0.8987
vn 0.8173 0.1939 0.5426
vn 0.0576 -0.1052 -0.9928
vn 0.1772 0.8851 -0.4304
vn -0.7849 -0.2775 -0.5540
vn 0.8549 0.5172 -0.0414
vn -0.7054 0.6161 -0.3505
s off
f 59/66/49 69/67/49 47/68/49
f 45/69/50 51/70/50 46/71/50
f 43/72/51 49/73/51 44/74/51
f 47/75/52 51/70/52 52/76/52
f 44/74/53 50/77/53 45/69/53
f 48/78/54 71/79/54 49/80/54
f 51/81/55 55/82/55 52/83/55
f 49/80/56 53/84/56 50/85/56
f 43/86/57 70/87/57 48/78/57
f 50/85/58 54/88/58 51/81/58
f 55/82/59 58/89/59 59/66/59
f 72/90/60 84/91/60 80/92/60
f 53/84/61 58/89/61 54/88/61
f 70/93/62 83/94/62 81/95/62
f 58/89/63 64/96/63 59/66/63
f 61/97/64 77/98/64 60/99/64
f 57/100/65 63/101/65 58/89/65
f 62/102/66 76/103/66 78/104/66
f 64/96/67 68/105/67 69/67/67
f 61/106/68 67/107/68 62/108/68
f 43/86/57 60/109/57 56/110/57
f 62/108/69 68/105/69 63/101/69
f 60/109/70 66/111/70 61/106/70
f 69/112/71 46/71/71 47/75/71
f 66/113/72 45/69/72 67/114/72
f 67/114/73 46/71/73 68/115/73
f 65/116/74 44/74/74 66/113/74
f 55/82/49 47/68/49 52/83/49
f 73/117/75 78/104/75 76/103/75
f 73/117/76 77/98/76 74/118/76
f 72/119/77 75/120/77 73/117/77
f 60/99/78 75/120/78 56/121/78
f 61/97/79 78/104/79 74/118/79
f 72/119/80 76/103/80 57/122/80
f 79/123/81 84/91/81 82/124/81
f 79/123/82 83/94/82 80/92/82
f 71/125/83 82/124/83 53/126/83
f 53/126/84 84/91/84 57/127/84
f 72/90/85 83/94/85 56/128/85
f 71/125/86 81/95/86 79/123/86
f 59/66/49 64/96/49 69/67/49
f 45/69/50 50/77/50 51/70/50
f 43/72/87 48/129/87 49/73/87
f 47/75/52 46/71/52 51/70/52
f 44/74/88 49/73/88 50/77/88
f 48/78/54 70/87/54 71/79/54
f 51/81/89 54/88/89 55/82/89
f 49/80/56 71/79/56 53/84/56
f 43/86/57 56/110/57 70/87/57
f 50/85/58 53/84/58 54/88/58
f 55/82/59 54/88/59 58/89/59
f 72/90/90 57/127/90 84/91/90
f 53/84/61 57/100/61 58/89/61
f 70/93/62 56/128/62 83/94/62
f 58/89/91 63/101/91 64/96/91
f 61/97/92 74/118/92 77/98/92
f 57/100/65 62/108/65 63/101/65
f 62/102/93 57/122/93 76/103/93
f 64/96/67 63/101/67 68/105/67
f 61/106/68 66/111/68 67/107/68
f 43/86/57 65/130/57 60/109/57
f 62/108/69 67/107/69 68/105/69
f 60/109/94 65/130/94 66/111/94
f 69/112/71 68/115/71 46/71/71
f 66/113/72 44/74/72 45/69/72
f 67/114/73 45/69/73 46/71/73
f 65/116/74 43/72/74 44/74/74
f 55/82/49 59/66/49 47/68/49
f 73/117/95 74/118/95 78/104/95
f 73/117/76 75/120/76 77/98/76
f 72/119/96 56/121/96 75/120/96
f 60/99/78 77/98/78 75/120/78
f 61/97/97 62/102/97 78/104/97
f 72/119/98 73/117/98 76/103/98
f 79/123/81 80/92/81 84/91/81
f 79/123/99 81/95/99 83/94/99
f 71/125/100 79/123/100 82/124/100
f 53/126/84 82/124/84 84/91/84
f 72/90/101 80/92/101 83/94/101
f 71/125/102 70/93/102 81/95/102
