# Blender v2.81 (sub 16) OBJ File: 'garbage.blend'
# www.blender.org
v 0.171678 1.378978 0.031586
v 0.163864 1.363810 0.054618
v 0.156613 1.338788 0.066573
v 0.151868 1.310616 0.064246
v 0.150900 1.286842 0.048263
v 0.150961 1.380334 0.013269
v 0.127981 1.366160 0.022892
v 0.115179 1.341501 0.029938
v 0.115985 1.312966 0.032520
v 0.130183 1.288199 0.029945
v 0.124531 1.329745 -0.023359
v 0.124084 1.302784 -0.013637
v 0.134859 1.282321 0.003297
v 0.181030 1.367221 -0.021711
v 0.175317 1.315275 -0.040021
v 0.168066 1.290253 -0.028067
v 0.160252 1.275086 -0.005035
v 0.201747 1.365865 -0.003394
v 0.215946 1.341098 -0.005969
v 0.216752 1.312562 -0.003387
v 0.203949 1.287904 0.003660
v 0.180969 1.273729 0.013283
v 0.197071 1.371743 0.023255
v 0.207846 1.351279 0.040188
v 0.207400 1.324318 0.049910
v 0.195850 1.298085 0.049816
v 0.176293 1.279607 0.039931
v 0.155637 1.374456 -0.013380
v 0.136080 1.355979 -0.023265
v 0.180062 1.343448 -0.037695
v 0.226330 1.350182 -0.056240
v 0.229258 1.349990 -0.053652
v 0.201925 1.366011 -0.034866
v 0.205199 1.323555 -0.047422
v 0.212179 1.365339 -0.025799
v 0.221106 1.322513 -0.033358
v 0.143599 1.366175 -0.070025
v 0.154009 1.363209 -0.073441
v 0.153070 1.372151 -0.055043
v 0.144047 1.346164 -0.058562
v 0.157841 1.370791 -0.056609
v 0.148831 1.344801 -0.060132
vt 0.274240 0.539347
vt 0.265397 0.539709
vt 0.266768 0.532487
vt 0.231414 0.551290
vt 0.214659 0.541092
vt 0.231357 0.542861
vt 0.231940 0.569242
vt 0.215985 0.562822
vt 0.231472 0.559719
vt 0.230890 0.533338
vt 0.220414 0.530957
vt 0.213134 0.552274
vt 0.289666 0.544440
vt 0.282983 0.540904
vt 0.290637 0.536818
vt 0.279682 0.529141
vt 0.275518 0.536619
vt 0.273707 0.532162
vt 0.280945 0.538772
vt 0.286431 0.530872
vt 0.290637 0.551375
vt 0.284312 0.543753
vt 0.278488 0.537315
vt 0.276318 0.541045
vt 0.804698 0.251197
vt 0.792375 0.255919
vt 0.792638 0.252041
vt 0.786357 0.239035
vt 0.792578 0.249274
vt 0.791489 0.249454
vt 0.271776 0.541127
vt 0.760733 0.199751
vt 0.757502 0.209505
vt 0.750621 0.206121
vt 0.278108 0.542645
vt 0.273009 0.544115
vt 0.772804 0.201934
vt 0.766718 0.213101
vt 0.766203 0.208706
vt 0.264007 0.548518
vt 0.277612 0.547903
vt 0.268747 0.555467
vt 0.275021 0.546378
vt 0.280714 0.548498
vt 0.281954 0.545638
vt 0.276612 0.557409
vt 0.240880 0.530957
vt 0.248168 0.561486
vt 0.249693 0.550306
vt 0.246843 0.539760
vt 0.242415 0.571620
vt 0.762287 0.211045
vt 0.762255 0.210544
vt 0.761023 0.221925
vt 0.757316 0.212491
vt 0.750922 0.216572
vt 0.772804 0.220841
vt 0.791613 0.252007
vt 0.791097 0.255536
vt 0.780068 0.250772
vt 0.780487 0.263708
vt 0.804698 0.264828
vt 0.798786 0.238814
vt 0.221949 0.571626
vt 0.283377 0.553479
vn -0.2166 -0.9606 0.1739
vn -0.6598 0.0492 0.7499
vn -0.3322 0.8356 0.4376
vn -0.6158 -0.4222 0.6652
vn -0.5618 0.4835 0.6712
vn -0.5850 0.7643 -0.2712
vn -0.8687 -0.4935 -0.0436
vn -0.8877 0.3917 -0.2421
vn 0.2167 0.9606 -0.1739
vn -0.9856 -0.0426 -0.1635
vn -0.3947 -0.7002 -0.5950
vn 0.4480 -0.6031 -0.6600
vn -0.3748 -0.3090 -0.8741
vn 0.2524 0.9652 -0.0690
vn 0.3322 -0.8356 -0.4376
vn 0.8214 0.4322 0.3723
vn 0.5618 -0.4835 -0.6712
vn 0.1899 -0.9397 -0.2844
vn 0.5850 -0.7643 0.2712
vn 0.9856 0.0426 0.1635
vn 0.2166 0.9606 -0.1739
vn 0.8877 -0.3917 0.2422
vn 0.8687 0.4935 0.0436
vn 0.1110 -0.5576 0.8226
vn 0.3748 0.3090 0.8741
vn 0.2769 -0.1253 0.9527
vn 0.3947 0.7002 0.5950
vn 0.5050 -0.6047 -0.6159
vn 0.3221 0.8987 -0.2977
vn -0.3862 0.4735 -0.7916
vn 0.0610 0.9981 0.0050
vn 0.9630 -0.1011 0.2500
vn -0.2709 0.1244 -0.9545
vn -0.3927 -0.4637 -0.7942
vn 0.1143 0.8958 -0.4295
vn -0.8716 0.3848 -0.3037
vn -0.3916 -0.7315 -0.5582
vn 0.8069 0.3066 -0.5048
vn -0.6124 0.7872 0.0732
vn -0.8877 0.3917 -0.2422
vn 0.5823 -0.0310 -0.8124
vn 0.2524 0.9652 -0.0689
vn 0.8648 0.3916 0.3144
vn -0.4353 0.5144 -0.7388
vn 0.9867 0.0421 0.1573
vn -0.3703 -0.0138 -0.9288
vn -0.9745 -0.1275 -0.1845
vn 0.8292 0.4142 -0.3754
vn -0.6873 0.7263 0.0022
s off
f 17/1/1 27/2/1 5/3/1
f 3/4/2 9/5/2 4/6/2
f 1/7/3 7/8/3 2/9/3
f 5/10/4 9/5/4 10/11/4
f 2/9/5 8/12/5 3/4/5
f 6/13/6 29/14/6 7/15/6
f 9/16/7 13/17/7 10/18/7
f 7/15/8 11/19/8 8/20/8
f 1/21/9 28/22/9 6/13/9
f 8/20/10 12/23/10 9/16/10
f 13/17/11 16/24/11 17/1/11
f 30/25/12 42/26/12 38/27/12
f 11/19/13 16/24/13 12/23/13
f 28/28/14 41/29/14 39/30/14
f 16/24/15 22/31/15 17/1/15
f 19/32/16 35/33/16 18/34/16
f 15/35/17 21/36/17 16/24/17
f 20/37/18 34/38/18 36/39/18
f 22/31/19 26/40/19 27/2/19
f 19/41/20 25/42/20 20/43/20
f 1/21/21 18/44/21 14/45/21
f 20/43/22 26/40/22 21/36/22
f 18/44/23 24/46/23 19/41/23
f 27/47/24 4/6/24 5/10/24
f 24/48/25 3/4/25 25/49/25
f 25/49/26 4/6/26 26/50/26
f 23/51/27 2/9/27 24/48/27
f 13/17/1 5/3/1 10/18/1
f 31/52/28 36/39/28 34/38/28
f 31/52/29 35/33/29 32/53/29
f 30/54/30 33/55/30 31/52/30
f 18/34/31 33/55/31 14/56/31
f 19/32/32 36/39/32 32/53/32
f 30/54/33 34/38/33 15/57/33
f 37/58/34 42/26/34 40/59/34
f 37/58/35 41/29/35 38/27/35
f 29/60/36 40/59/36 11/61/36
f 11/61/37 42/26/37 15/62/37
f 30/25/38 41/29/38 14/63/38
f 29/60/39 39/30/39 37/58/39
f 17/1/1 22/31/1 27/2/1
f 3/4/2 8/12/2 9/5/2
f 1/7/3 6/64/3 7/8/3
f 5/10/4 4/6/4 9/5/4
f 2/9/5 7/8/5 8/12/5
f 6/13/6 28/22/6 29/14/6
f 9/16/7 12/23/7 13/17/7
f 7/15/40 29/14/40 11/19/40
f 1/21/21 14/45/21 28/22/21
f 8/20/10 11/19/10 12/23/10
f 13/17/11 12/23/11 16/24/11
f 30/25/41 15/62/41 42/26/41
f 11/19/13 15/35/13 16/24/13
f 28/28/42 14/63/42 41/29/42
f 16/24/15 21/36/15 22/31/15
f 19/32/43 32/53/43 35/33/43
f 15/35/17 20/43/17 21/36/17
f 20/37/18 15/57/18 34/38/18
f 22/31/19 21/36/19 26/40/19
f 19/41/20 24/46/20 25/42/20
f 1/21/21 23/65/21 18/44/21
f 20/43/22 25/42/22 26/40/22
f 18/44/23 23/65/23 24/46/23
f 27/47/24 26/50/24 4/6/24
f 24/48/25 2/9/25 3/4/25
f 25/49/26 3/4/26 4/6/26
f 23/51/27 1/7/27 2/9/27
f 13/17/1 17/1/1 5/3/1
f 31/52/28 32/53/28 36/39/28
f 31/52/29 33/55/29 35/33/29
f 30/54/44 14/56/44 33/55/44
f 18/34/31 35/33/31 33/55/31
f 19/32/45 20/37/45 36/39/45
f 30/54/46 31/52/46 34/38/46
f 37/58/34 38/27/34 42/26/34
f 37/58/35 39/30/35 41/29/35
f 29/60/47 37/58/47 40/59/47
f 11/61/37 40/59/37 42/26/37
f 30/25/48 38/27/48 41/29/48
f 29/60/49 28/28/49 39/30/49
v -0.712526 1.084343 0.257454
v -0.718191 1.059389 0.244539
v -0.716080 1.030814 0.243731
v -0.706759 1.006277 0.255247
v -0.692726 0.992350 0.276001
v -0.685436 1.089968 0.256430
v -0.671269 1.069131 0.242766
v -0.661899 1.042063 0.241684
v -0.659837 1.016019 0.253474
v -0.665635 0.997975 0.274978
v -0.634992 1.057128 0.287676
v -0.636535 1.029065 0.293305
v -0.652182 1.005507 0.297974
v -0.685619 1.099407 0.303447
v -0.662265 1.060943 0.335717
v -0.660154 1.032369 0.334909
v -0.665818 1.007414 0.321994
v -0.712709 1.093783 0.304471
v -0.718508 1.075739 0.325974
v -0.716446 1.049694 0.337764
v -0.707076 1.022627 0.336682
v -0.692909 1.001790 0.323018
v -0.726163 1.086251 0.281474
v -0.741810 1.062693 0.286143
v -0.743353 1.034630 0.291772
v -0.730378 1.009581 0.296851
v -0.706362 0.994258 0.300021
v -0.671983 1.097500 0.279427
v -0.647967 1.082177 0.282597
v -0.671586 1.085481 0.324201
v -0.697359 1.107931 0.361103
v -0.701187 1.107136 0.361247
v -0.693714 1.107940 0.325189
v -0.682283 1.076855 0.354751
v -0.707124 1.105156 0.325696
v -0.703083 1.072537 0.355537
v -0.626888 1.113270 0.313190
v -0.632479 1.114052 0.323037
v -0.644280 1.113547 0.306311
v -0.631225 1.090691 0.315046
v -0.646842 1.113906 0.310824
v -0.633795 1.091051 0.319572
vt 0.274240 0.539347
vt 0.265397 0.539709
vt 0.266768 0.532487
vt 0.231414 0.551290
vt 0.214659 0.541092
vt 0.231357 0.542861
vt 0.231940 0.569242
vt 0.215985 0.562822
vt 0.231472 0.559719
vt 0.230890 0.533338
vt 0.220414 0.530957
vt 0.213134 0.552274
vt 0.289666 0.544440
vt 0.282983 0.540904
vt 0.290637 0.536818
vt 0.279682 0.529141
vt 0.275518 0.536619
vt 0.273707 0.532162
vt 0.280945 0.538772
vt 0.286431 0.530872
vt 0.290637 0.551375
vt 0.284312 0.543753
vt 0.278488 0.537315
vt 0.276318 0.541045
vt 0.804698 0.251197
vt 0.792375 0.255919
vt 0.792638 0.252041
vt 0.786357 0.239035
vt 0.792578 0.249274
vt 0.791489 0.249454
vt 0.271776 0.541127
vt 0.760733 0.199751
vt 0.757502 0.209505
vt 0.750621 0.206121
vt 0.278108 0.542645
vt 0.273009 0.544115
vt 0.772804 0.201934
vt 0.766718 0.213101
vt 0.766203 0.208706
vt 0.264007 0.548518
vt 0.277612 0.547903
vt 0.268747 0.555467
vt 0.275021 0.546378
vt 0.280714 0.548498
vt 0.281954 0.545638
vt 0.276612 0.557409
vt 0.240880 0.530957
vt 0.248168 0.561486
vt 0.249693 0.550306
vt 0.246843 0.539760
vt 0.242415 0.571620
vt 0.762287 0.211045
vt 0.762255 0.210544
vt 0.761023 0.221925
vt 0.757316 0.212491
vt 0.750922 0.216572
vt 0.772804 0.220841
vt 0.791613 0.252007
vt 0.791097 0.255536
vt 0.780068 0.250772
vt 0.780487 0.263708
vt 0.804698 0.264828
vt 0.798786 0.238814
vt 0.221949 0.571626
vt 0.283377 0.553479
vn 0.2064 -0.9592 0.1934
vn 0.0504 -0.4086 -0.9113
vn -0.1323 0.4791 -0.8677
vn 0.1380 -0.7767 -0.6145
vn -0.0429 0.0251 -0.9988
vn 0.5068 0.6865 -0.5214
vn 0.7771 -0.5693 -0.2682
vn 0.7806 0.2923 -0.5524
vn -0.2065 0.9592 -0.1934
vn 0.8740 -0.1413 -0.4650
vn 0.7743 -0.4205 0.4730
vn 0.1426 -0.1554 0.9775
vn 0.8702 0.0504 0.4900
vn -0.2988 0.9229 -0.2429
vn 0.1323 -0.4791 0.8677
vn -0.9312 0.3608 0.0517
vn 0.0430 -0.0251 0.9988
vn 0.1654 -0.6641 0.7291
vn -0.5068 -0.6865 0.5214
vn -0.8740 0.1413 0.4650
vn -0.7806 -0.2923 0.5524
vn -0.7771 0.5693 0.2682
vn -0.5039 -0.8353 -0.2198
vn -0.8702 -0.0504 -0.4900
vn -0.7769 -0.4841 -0.4026
vn -0.7743 0.4205 -0.4730
vn 0.0717 -0.1662 0.9835
vn -0.2040 0.9788 -0.0204
vn 0.7121 0.6984 0.0725
vn -0.1996 0.8846 -0.4215
vn -0.8875 -0.0273 0.4601
vn 0.7735 0.4852 0.4078
vn 0.8586 -0.1241 0.4973
vn 0.0386 0.9976 -0.0573
vn 0.8066 0.3166 -0.4992
vn 0.7541 -0.4638 0.4650
vn -0.3673 0.6382 0.6766
vn 0.3151 0.5485 -0.7745
vn 0.2065 -0.9592 0.1934
vn -0.2064 0.9592 -0.1934
vn 0.0453 0.4385 0.8976
vn -0.9237 0.3587 0.1343
vn 0.0429 -0.0251 0.9988
vn 0.7121 0.7020 -0.0104
vn -0.8709 0.1438 0.4700
vn 0.8559 0.3347 0.3942
vn 0.8907 -0.2045 -0.4059
vn -0.4795 0.6790 0.5558
vn 0.4258 0.5133 -0.7451
s off
f 59/66/50 69/67/50 47/68/50
f 45/69/51 51/70/51 46/71/51
f 43/72/52 49/73/52 44/74/52
f 47/75/53 51/70/53 52/76/53
f 44/74/54 50/77/54 45/69/54
f 48/78/55 71/79/55 49/80/55
f 51/81/56 55/82/56 52/83/56
f 49/80/57 53/84/57 50/85/57
f 43/86/58 70/87/58 48/78/58
f 50/85/59 54/88/59 51/81/59
f 55/82/60 58/89/60 59/66/60
f 72/90/61 84/91/61 80/92/61
f 53/84/62 58/89/62 54/88/62
f 70/93/63 83/94/63 81/95/63
f 58/89/64 64/96/64 59/66/64
f 61/97/65 77/98/65 60/99/65
f 57/100/66 63/101/66 58/89/66
f 62/102/67 76/103/67 78/104/67
f 64/96/68 68/105/68 69/67/68
f 61/106/69 67/107/69 62/108/69
f 43/86/58 60/109/58 56/110/58
f 62/108/70 68/105/70 63/101/70
f 60/109/71 66/111/71 61/106/71
f 69/112/72 46/71/72 47/75/72
f 66/113/73 45/69/73 67/114/73
f 67/114/74 46/71/74 68/115/74
f 65/116/75 44/74/75 66/113/75
f 55/82/50 47/68/50 52/83/50
f 73/117/76 78/104/76 76/103/76
f 73/117/77 77/98/77 74/118/77
f 72/119/78 75/120/78 73/117/78
f 60/99/79 75/120/79 56/121/79
f 61/97/80 78/104/80 74/118/80
f 72/119/81 76/103/81 57/122/81
f 79/123/82 84/91/82 82/124/82
f 79/123/83 83/94/83 80/92/83
f 71/125/84 82/124/84 53/126/84
f 53/126/85 84/91/85 57/127/85
f 72/90/86 83/94/86 56/128/86
f 71/125/87 81/95/87 79/123/87
f 59/66/88 64/96/88 69/67/88
f 45/69/51 50/77/51 51/70/51
f 43/72/52 48/129/52 49/73/52
f 47/75/53 46/71/53 51/70/53
f 44/74/54 49/73/54 50/77/54
f 48/78/55 70/87/55 71/79/55
f 51/81/56 54/88/56 55/82/56
f 49/80/57 71/79/57 53/84/57
f 43/86/89 56/110/89 70/87/89
f 50/85/59 53/84/59 54/88/59
f 55/82/60 54/88/60 58/89/60
f 72/90/90 57/127/90 84/91/90
f 53/84/62 57/100/62 58/89/62
f 70/93/63 56/128/63 83/94/63
f 58/89/64 63/101/64 64/96/64
f 61/97/91 74/118/91 77/98/91
f 57/100/92 62/108/92 63/101/92
f 62/102/67 57/122/67 76/103/67
f 64/96/68 63/101/68 68/105/68
f 61/106/69 66/111/69 67/107/69
f 43/86/58 65/130/58 60/109/58
f 62/108/70 67/107/70 68/105/70
f 60/109/71 65/130/71 66/111/71
f 69/112/72 68/115/72 46/71/72
f 66/113/73 44/74/73 45/69/73
f 67/114/74 45/69/74 46/71/74
f 65/116/75 43/72/75 44/74/75
f 55/82/88 59/66/88 47/68/88
f 73/117/76 74/118/76 78/104/76
f 73/117/77 75/120/77 77/98/77
f 72/119/93 56/121/93 75/120/93
f 60/99/79 77/98/79 75/120/79
f 61/97/94 62/102/94 78/104/94
f 72/119/95 73/117/95 76/103/95
f 79/123/82 80/92/82 84/91/82
f 79/123/83 81/95/83 83/94/83
f 71/125/96 79/123/96 82/124/96
f 53/126/85 82/124/85 84/91/85
f 72/90/97 80/92/97 83/94/97
f 71/125/98 70/93/98 81/95/98
