# Blender v2.81 (sub 16) OBJ File: 'garbage.blend'
# www.blender.org
v -0.088467 1.466581 0.717517
v -0.105801 1.446414 0.728216
v -0.112599 1.418777 0.731612
v -0.107040 1.391073 0.726795
v -0.090614 1.370726 0.715057
v -0.090198 1.467328 0.689894
v -0.108800 1.447709 0.680372
v -0.116062 1.420272 0.676367
v -0.110039 1.392368 0.678952
v -0.092345 1.371474 0.687435
v -0.069945 1.420025 0.645718
v -0.070100 1.392154 0.652409
v -0.069286 1.371351 0.672110
v -0.042349 1.466334 0.686868
v -0.020364 1.418284 0.670313
v -0.027162 1.390646 0.673710
v -0.044496 1.370480 0.684408
v -0.040618 1.465587 0.714490
v -0.022923 1.444693 0.722973
v -0.016901 1.416789 0.725559
v -0.024163 1.389351 0.721553
v -0.042764 1.369732 0.712031
v -0.063676 1.465710 0.729815
v -0.062862 1.444906 0.749516
v -0.063018 1.417035 0.756208
v -0.064102 1.389565 0.748096
v -0.065823 1.369855 0.727355
v -0.067140 1.467205 0.674570
v -0.068861 1.447496 0.653829
v -0.025923 1.445988 0.675130
v 0.016503 1.464255 0.695037
v 0.016748 1.464150 0.698941
v -0.018809 1.471316 0.692534
v 0.002877 1.433075 0.686355
v -0.017952 1.470946 0.706207
v 0.004207 1.432501 0.707563
v -0.034082 1.466990 0.626307
v -0.023919 1.466632 0.631348
v -0.039530 1.471860 0.643525
v -0.036602 1.445696 0.634808
v -0.034872 1.471696 0.645835
v -0.031930 1.445532 0.637125
vt 0.274240 0.539347
vt 0.265397 0.539709
vt 0.266768 0.532487
vt 0.231414 0.551290
vt 0.214659 0.541092
vt 0.231357 0.542861
vt 0.231940 0.569242
vt 0.215985 0.562822
vt 0.231472 0.559719
vt 0.230890 0.533338
vt 0.220414 0.530957
vt 0.213134 0.552274
vt 0.289666 0.544440
vt 0.282983 0.540904
vt 0.290637 0.536818
vt 0.279682 0.529141
vt 0.275518 0.536619
vt 0.273707 0.532162
vt 0.280945 0.538772
vt 0.286431 0.530872
vt 0.290637 0.551375
vt 0.284312 0.543753
vt 0.278488 0.537315
vt 0.276318 0.541045
vt 0.804698 0.251197
vt 0.792375 0.255919
vt 0.792638 0.252041
vt 0.786357 0.239035
vt 0.792578 0.249274
vt 0.791489 0.249454
vt 0.271776 0.541127
vt 0.760733 0.199751
vt 0.757502 0.209505
vt 0.750621 0.206121
vt 0.278108 0.542645
vt 0.273009 0.544115
vt 0.772804 0.201934
vt 0.766718 0.213101
vt 0.766203 0.208706
vt 0.264007 0.548518
vt 0.277612 0.547903
vt 0.268747 0.555467
vt 0.275021 0.546378
vt 0.280714 0.548498
vt 0.281954 0.545638
vt 0.276612 0.557409
vt 0.240880 0.530957
vt 0.248168 0.561486
vt 0.249693 0.550306
vt 0.246843 0.539760
vt 0.242415 0.571620
vt 0.762287 0.211045
vt 0.762255 0.210544
vt 0.761023 0.221925
vt 0.757316 0.212491
vt 0.750922 0.216572
vt 0.772804 0.220841
vt 0.791613 0.252007
vt 0.791097 0.255536
vt 0.780068 0.250772
vt 0.780487 0.263708
vt 0.804698 0.264828
vt 0.798786 0.238814
vt 0.221949 0.571626
vt 0.283377 0.553479
vn -0.0224 -0.9994 -0.0256
vn -0.9770 -0.2057 0.0557
vn -0.7396 0.6699 0.0645
vn -0.7689 -0.6386 0.0309
vn -0.9669 0.2461 0.0673
vn -0.4034 0.6798 -0.6125
vn -0.4327 -0.6288 -0.6461
vn -0.5337 0.2588 -0.8051
vn 0.0224 0.9994 0.0256
vn -0.5438 -0.1930 -0.8167
vn 0.3215 -0.6444 -0.6938
vn 0.9124 -0.3846 -0.1396
vn 0.4282 -0.2132 -0.8782
vn -0.0270 0.9918 0.1247
vn 0.7396 -0.6699 -0.0645
vn 0.1893 0.5028 0.8434
vn 0.9669 -0.2461 -0.0673
vn 0.5640 -0.8237 -0.0577
vn 0.4034 -0.6798 0.6125
vn 0.5438 0.1930 0.8167
vn 0.5337 -0.2588 0.8051
vn 0.4327 0.6288 0.6461
vn -0.3508 -0.6641 0.6602
vn -0.4282 0.2132 0.8782
vn -0.4383 -0.2386 0.8666
vn -0.3215 0.6444 0.6938
vn 0.9210 -0.3835 -0.0681
vn 0.1951 0.9807 0.0143
vn 0.1645 0.5268 -0.8339
vn -0.2161 0.9756 0.0399
vn 0.5053 0.0347 0.8622
vn 0.4438 0.2392 -0.8636
vn 0.4003 -0.3802 -0.8338
vn 0.1460 0.9631 -0.2262
vn -0.4786 0.2660 -0.8368
vn 0.3063 -0.6806 -0.6655
vn 0.8171 0.5335 0.2186
vn -0.6655 0.6361 -0.3905
vn 0.0224 0.9994 0.0257
vn 0.9631 0.2202 -0.1549
vn 0.2690 0.4817 0.8340
vn -0.0224 -0.9994 -0.0257
vn 0.0843 0.5481 -0.8321
vn -0.2161 0.9756 0.0400
vn 0.5489 0.1938 0.8131
vn 0.3939 0.0828 -0.9154
vn 0.1461 0.9631 -0.2262
vn -0.5002 -0.2694 -0.8229
vn 0.7153 0.6188 0.3245
vn -0.6518 0.5760 -0.4933
s off
f 17/1/1 27/2/1 5/3/1
f 3/4/2 9/5/2 4/6/2
f 1/7/3 7/8/3 2/9/3
f 5/10/4 9/5/4 10/11/4
f 2/9/5 8/12/5 3/4/5
f 6/13/6 29/14/6 7/15/6
f 9/16/7 13/17/7 10/18/7
f 7/15/8 11/19/8 8/20/8
f 1/21/9 28/22/9 6/13/9
f 8/20/10 12/23/10 9/16/10
f 13/17/11 16/24/11 17/1/11
f 30/25/12 42/26/12 38/27/12
f 11/19/13 16/24/13 12/23/13
f 28/28/14 41/29/14 39/30/14
f 16/24/15 22/31/15 17/1/15
f 19/32/16 35/33/16 18/34/16
f 15/35/17 21/36/17 16/24/17
f 20/37/18 34/38/18 36/39/18
f 22/31/19 26/40/19 27/2/19
f 19/41/20 25/42/20 20/43/20
f 1/21/9 18/44/9 14/45/9
f 20/43/21 26/40/21 21/36/21
f 18/44/22 24/46/22 19/41/22
f 27/47/23 4/6/23 5/10/23
f 24/48/24 3/4/24 25/49/24
f 25/49/25 4/6/25 26/50/25
f 23/51/26 2/9/26 24/48/26
f 13/17/1 5/3/1 10/18/1
f 31/52/27 36/39/27 34/38/27
f 31/52/28 35/33/28 32/53/28
f 30/54/29 33/55/29 31/52/29
f 18/34/30 33/55/30 14/56/30
f 19/32/31 36/39/31 32/53/31
f 30/54/32 34/38/32 15/57/32
f 37/58/33 42/26/33 40/59/33
f 37/58/34 41/29/34 38/27/34
f 29/60/35 40/59/35 11/61/35
f 11/61/36 42/26/36 15/62/36
f 30/25/37 41/29/37 14/63/37
f 29/60/38 39/30/38 37/58/38
f 17/1/1 22/31/1 27/2/1
f 3/4/2 8/12/2 9/5/2
f 1/7/3 6/64/3 7/8/3
f 5/10/4 4/6/4 9/5/4
f 2/9/5 7/8/5 8/12/5
f 6/13/6 28/22/6 29/14/6
f 9/16/7 12/23/7 13/17/7
f 7/15/8 29/14/8 11/19/8
f 1/21/39 14/45/39 28/22/39
f 8/20/10 11/19/10 12/23/10
f 13/17/11 12/23/11 16/24/11
f 30/25/40 15/62/40 42/26/40
f 11/19/13 15/35/13 16/24/13
f 28/28/14 14/63/14 41/29/14
f 16/24/15 21/36/15 22/31/15
f 19/32/41 32/53/41 35/33/41
f 15/35/17 20/43/17 21/36/17
f 20/37/18 15/57/18 34/38/18
f 22/31/19 21/36/19 26/40/19
f 19/41/20 24/46/20 25/42/20
f 1/21/39 23/65/39 18/44/39
f 20/43/21 25/42/21 26/40/21
f 18/44/22 23/65/22 24/46/22
f 27/47/23 26/50/23 4/6/23
f 24/48/24 2/9/24 3/4/24
f 25/49/25 3/4/25 4/6/25
f 23/51/26 1/7/26 2/9/26
f 13/17/42 17/1/42 5/3/42
f 31/52/27 32/53/27 36/39/27
f 31/52/28 33/55/28 35/33/28
f 30/54/43 14/56/43 33/55/43
f 18/34/44 35/33/44 33/55/44
f 19/32/45 20/37/45 36/39/45
f 30/54/46 31/52/46 34/38/46
f 37/58/33 38/27/33 42/26/33
f 37/58/47 39/30/47 41/29/47
f 29/60/48 37/58/48 40/59/48
f 11/61/36 40/59/36 42/26/36
f 30/25/49 38/27/49 41/29/49
f 29/60/50 28/28/50 39/30/50
v -0.710126 1.473294 -0.680884
v -0.696225 1.455660 -0.698699
v -0.690885 1.429165 -0.708246
v -0.695536 1.400911 -0.706967
v -0.708933 1.378466 -0.695203
v -0.701725 1.469458 -0.654783
v -0.681674 1.449016 -0.653491
v -0.674082 1.421494 -0.656044
v -0.680985 1.394267 -0.661758
v -0.700532 1.374631 -0.669102
v -0.711371 1.414924 -0.615638
v -0.713278 1.388577 -0.626766
v -0.719176 1.371346 -0.648899
v -0.747415 1.466724 -0.640478
v -0.765463 1.416025 -0.627435
v -0.760122 1.389530 -0.636982
v -0.746222 1.371896 -0.654797
v -0.755816 1.470559 -0.666579
v -0.775363 1.450923 -0.673923
v -0.782265 1.423696 -0.679637
v -0.774674 1.396174 -0.682190
v -0.754623 1.375732 -0.680898
v -0.737171 1.473845 -0.686782
v -0.743070 1.456613 -0.708916
v -0.744976 1.430266 -0.720043
v -0.742381 1.401864 -0.717183
v -0.735978 1.379017 -0.701101
v -0.720369 1.466173 -0.634580
v -0.713967 1.443326 -0.618499
v -0.760811 1.444279 -0.628715
v -0.806514 1.464504 -0.634392
v -0.807701 1.465046 -0.638080
v -0.771546 1.471966 -0.639356
v -0.791672 1.432677 -0.634646
v -0.775705 1.473865 -0.652276
v -0.798122 1.435622 -0.654687
v -0.740711 1.457030 -0.580499
v -0.751799 1.457255 -0.582917
v -0.739534 1.464850 -0.597449
v -0.740663 1.437530 -0.592820
v -0.744616 1.464954 -0.598558
v -0.745759 1.437634 -0.593931
vt 0.274240 0.539347
vt 0.265397 0.539709
vt 0.266768 0.532487
vt 0.231414 0.551290
vt 0.214659 0.541092
vt 0.231357 0.542861
vt 0.231940 0.569242
vt 0.215985 0.562822
vt 0.231472 0.559719
vt 0.230890 0.533338
vt 0.220414 0.530957
vt 0.213134 0.552274
vt 0.289666 0.544440
vt 0.282983 0.540904
vt 0.290637 0.536818
vt 0.279682 0.529141
vt 0.275518 0.536619
vt 0.273707 0.532162
vt 0.280945 0.538772
vt 0.286431 0.530872
vt 0.290637 0.551375
vt 0.284312 0.543753
vt 0.278488 0.537315
vt 0.276318 0.541045
vt 0.804698 0.251197
vt 0.792375 0.255919
vt 0.792638 0.252041
vt 0.786357 0.239035
vt 0.792578 0.249274
vt 0.791489 0.249454
vt 0.271776 0.541127
vt 0.760733 0.199751
vt 0.757502 0.209505
vt 0.750621 0.206121
vt 0.278108 0.542645
vt 0.273009 0.544115
vt 0.772804 0.201934
vt 0.766718 0.213101
vt 0.766203 0.208706
vt 0.264007 0.548518
vt 0.277612 0.547903
vt 0.268747 0.555467
vt 0.275021 0.546378
vt 0.280714 0.548498
vt 0.281954 0.545638
vt 0.276612 0.557409
vt 0.240880 0.530957
vt 0.248168 0.561486
vt 0.249693 0.550306
vt 0.246843 0.539760
vt 0.242415 0.571620
vt 0.762287 0.211045
vt 0.762255 0.210544
vt 0.761023 0.221925
vt 0.757316 0.212491
vt 0.750922 0.216572
vt 0.772804 0.220841
vt 0.791613 0.252007
vt 0.791097 0.255536
vt 0.780068 0.250772
vt 0.780487 0.263708
vt 0.804698 0.264828
vt 0.798786 0.238814
vt 0.221949 0.571626
vt 0.283377 0.553479
vn 0.0124 -0.9887 -0.1493
vn 0.9309 -0.1680 -0.3243
vn 0.7121 0.6904 -0.1277
vn 0.7284 -0.6042 -0.3232
vn 0.9253 0.2790 -0.2568
vn 0.5506 0.5781 0.6022
vn 0.5669 -0.7164 0.4067
vn 0.7172 0.1344 0.6838
vn -0.0124 0.9887 0.1493
vn 0.7228 -0.3126 0.6163
vn -0.1533 -0.7595 0.6322
vn -0.8571 -0.4263 0.2894
vn -0.2053 -0.3681 0.9068
vn 0.0113 0.9991 0.0414
vn -0.7121 -0.6904 0.1277
vn -0.3807 0.6316 -0.6754
vn -0.9253 -0.2790 0.2568
vn -0.5458 -0.8362 0.0528
vn -0.5506 -0.5781 -0.6022
vn -0.7229 0.3126 -0.6163
vn -0.7172 -0.1344 -0.6838
vn -0.5669 0.7164 -0.4067
vn 0.1696 -0.5350 -0.8276
vn 0.2053 0.3681 -0.9068
vn 0.2109 -0.0788 -0.9743
vn 0.1533 0.7595 -0.6322
vn -0.8827 -0.4134 0.2234
vn -0.1775 0.9638 0.1988
vn 0.0512 0.3755 0.9254
vn 0.2150 0.9738 0.0739
vn -0.6990 0.1651 -0.6958
vn -0.2170 0.0798 0.9729
vn -0.1916 -0.5246 0.8295
vn -0.0718 0.9076 0.4137
vn 0.6716 0.1347 0.7286
vn -0.1459 -0.7901 0.5954
vn -0.8373 0.5410 0.0787
vn 0.7502 0.5790 0.3192
vn 0.9309 -0.1679 -0.3243
vn 0.5506 0.5781 0.6021
vn 0.7229 -0.3126 0.6163
vn -0.8931 0.1660 0.4182
vn -0.7121 -0.6904 0.1278
vn -0.4560 0.6072 -0.6507
vn 0.1289 0.3989 0.9079
vn -0.7269 0.3126 -0.6114
vn -0.1584 -0.0817 0.9840
vn -0.0717 0.9076 0.4137
vn 0.6809 -0.3900 0.6199
vn -0.7631 0.6455 -0.0327
vn 0.7610 0.5023 0.4107
s off
f 59/66/51 69/67/51 47/68/51
f 45/69/52 51/70/52 46/71/52
f 43/72/53 49/73/53 44/74/53
f 47/75/54 51/70/54 52/76/54
f 44/74/55 50/77/55 45/69/55
f 48/78/56 71/79/56 49/80/56
f 51/81/57 55/82/57 52/83/57
f 49/80/58 53/84/58 50/85/58
f 43/86/59 70/87/59 48/78/59
f 50/85/60 54/88/60 51/81/60
f 55/82/61 58/89/61 59/66/61
f 72/90/62 84/91/62 80/92/62
f 53/84/63 58/89/63 54/88/63
f 70/93/64 83/94/64 81/95/64
f 58/89/65 64/96/65 59/66/65
f 61/97/66 77/98/66 60/99/66
f 57/100/67 63/101/67 58/89/67
f 62/102/68 76/103/68 78/104/68
f 64/96/69 68/105/69 69/67/69
f 61/106/70 67/107/70 62/108/70
f 43/86/59 60/109/59 56/110/59
f 62/108/71 68/105/71 63/101/71
f 60/109/72 66/111/72 61/106/72
f 69/112/73 46/71/73 47/75/73
f 66/113/74 45/69/74 67/114/74
f 67/114/75 46/71/75 68/115/75
f 65/116/76 44/74/76 66/113/76
f 55/82/51 47/68/51 52/83/51
f 73/117/77 78/104/77 76/103/77
f 73/117/78 77/98/78 74/118/78
f 72/119/79 75/120/79 73/117/79
f 60/99/80 75/120/80 56/121/80
f 61/97/81 78/104/81 74/118/81
f 72/119/82 76/103/82 57/122/82
f 79/123/83 84/91/83 82/124/83
f 79/123/84 83/94/84 80/92/84
f 71/125/85 82/124/85 53/126/85
f 53/126/86 84/91/86 57/127/86
f 72/90/87 83/94/87 56/128/87
f 71/125/88 81/95/88 79/123/88
f 59/66/51 64/96/51 69/67/51
f 45/69/89 50/77/89 51/70/89
f 43/72/53 48/129/53 49/73/53
f 47/75/54 46/71/54 51/70/54
f 44/74/55 49/73/55 50/77/55
f 48/78/90 70/87/90 71/79/90
f 51/81/57 54/88/57 55/82/57
f 49/80/58 71/79/58 53/84/58
f 43/86/59 56/110/59 70/87/59
f 50/85/91 53/84/91 54/88/91
f 55/82/61 54/88/61 58/89/61
f 72/90/92 57/127/92 84/91/92
f 53/84/63 57/100/63 58/89/63
f 70/93/64 56/128/64 83/94/64
f 58/89/93 63/101/93 64/96/93
f 61/97/94 74/118/94 77/98/94
f 57/100/67 62/108/67 63/101/67
f 62/102/68 57/122/68 76/103/68
f 64/96/69 63/101/69 68/105/69
f 61/106/70 66/111/70 67/107/70
f 43/86/59 65/130/59 60/109/59
f 62/108/71 67/107/71 68/105/71
f 60/109/72 65/130/72 66/111/72
f 69/112/73 68/115/73 46/71/73
f 66/113/74 44/74/74 45/69/74
f 67/114/75 45/69/75 46/71/75
f 65/116/76 43/72/76 44/74/76
f 55/82/51 59/66/51 47/68/51
f 73/117/77 74/118/77 78/104/77
f 73/117/78 75/120/78 77/98/78
f 72/119/95 56/121/95 75/120/95
f 60/99/80 77/98/80 75/120/80
f 61/97/96 62/102/96 78/104/96
f 72/119/97 73/117/97 76/103/97
f 79/123/83 80/92/83 84/91/83
f 79/123/98 81/95/98 83/94/98
f 71/125/99 79/123/99 82/124/99
f 53/126/86 82/124/86 84/91/86
f 72/90/100 80/92/100 83/94/100
f 71/125/101 70/93/101 81/95/101
