# Blender v2.81 (sub 16) OBJ File: 'garbage.blend'
# www.blender.org
v -0.379776 1.451568 0.520203
v -0.390501 1.430403 0.504121
v -0.394022 1.402409 0.499067
v -0.389396 1.375087 0.506395
v -0.377863 1.355758 0.524141
v -0.352141 1.452053 0.518582
v -0.342635 1.431243 0.501313
v -0.338752 1.403380 0.495824
v -0.341531 1.375927 0.503587
v -0.350228 1.356243 0.522520
v -0.308346 1.405886 0.542035
v -0.315199 1.378098 0.543607
v -0.335025 1.357496 0.545626
v -0.349370 1.454075 0.566414
v -0.333211 1.407423 0.591489
v -0.336732 1.379429 0.586435
v -0.347457 1.358264 0.570353
v -0.377005 1.453589 0.568035
v -0.385702 1.433905 0.586969
v -0.388481 1.406453 0.594731
v -0.384598 1.378589 0.589243
v -0.375092 1.357779 0.571974
v -0.392208 1.452336 0.544930
v -0.412034 1.431734 0.546949
v -0.418887 1.403946 0.548520
v -0.410930 1.376418 0.549223
v -0.390295 1.356526 0.548868
v -0.336938 1.453306 0.541687
v -0.316303 1.433414 0.541333
v -0.337837 1.434745 0.584161
v -0.357859 1.455772 0.625233
v -0.361764 1.455703 0.625462
v -0.355131 1.460568 0.589560
v -0.349287 1.423744 0.613657
v -0.368810 1.460328 0.590362
v -0.370505 1.423371 0.614902
v -0.288850 1.454920 0.574961
v -0.293947 1.455235 0.585098
v -0.306011 1.459530 0.569120
v -0.297462 1.433557 0.573747
v -0.308347 1.459674 0.573766
v -0.299805 1.433701 0.578406
vt 0.274240 0.539347
vt 0.265397 0.539709
vt 0.266768 0.532487
vt 0.231414 0.551290
vt 0.214659 0.541092
vt 0.231357 0.542861
vt 0.231940 0.569242
vt 0.215985 0.562822
vt 0.231472 0.559719
vt 0.230890 0.533338
vt 0.220414 0.530957
vt 0.213134 0.552274
vt 0.289666 0.544440
vt 0.282983 0.540904
vt 0.290637 0.536818
vt 0.279682 0.529141
vt 0.275518 0.536619
vt 0.273707 0.532162
vt 0.280945 0.538772
vt 0.286431 0.530872
vt 0.290637 0.551375
vt 0.284312 0.543753
vt 0.278488 0.537315
vt 0.276318 0.541045
vt 0.804698 0.251197
vt 0.792375 0.255919
vt 0.792638 0.252041
vt 0.786357 0.239035
vt 0.792578 0.249274
vt 0.791489 0.249454
vt 0.271776 0.541127
vt 0.760733 0.199751
vt 0.757502 0.209505
vt 0.750621 0.206121
vt 0.278108 0.542645
vt 0.273009 0.544115
vt 0.772804 0.201934
vt 0.766718 0.213101
vt 0.766203 0.208706
vt 0.264007 0.548518
vt 0.277612 0.547903
vt 0.268747 0.555467
vt 0.275021 0.546378
vt 0.280714 0.548498
vt 0.281954 0.545638
vt 0.276612 0.557409
vt 0.240880 0.530957
vt 0.248168 0.561486
vt 0.249693 0.550306
vt 0.246843 0.539760
vt 0.242415 0.571620
vt 0.762287 0.211045
vt 0.762255 0.210544
vt 0.761023 0.221925
vt 0.757316 0.212491
vt 0.750922 0.216572
vt 0.772804 0.220841
vt 0.791613 0.252007
vt 0.791097 0.255536
vt 0.780068 0.250772
vt 0.780487 0.263708
vt 0.804698 0.264828
vt 0.798786 0.238814
vt 0.221949 0.571626
vt 0.283377 0.553479
vn 0.0199 -0.9990 0.0411
vn -0.0518 -0.2669 -0.9623
vn -0.0567 0.6221 -0.7809
vn -0.0306 -0.6858 -0.7271
vn -0.0608 0.1847 -0.9809
vn 0.6185 0.6495 -0.4422
vn 0.6447 -0.6584 -0.3884
vn 0.8094 0.2201 -0.5445
vn -0.0199 0.9990 -0.0411
vn 0.8184 -0.2316 -0.5259
vn 0.6883 -0.6266 0.3655
vn 0.1326 -0.3268 0.9357
vn 0.8747 -0.1905 0.4457
vn -0.1188 0.9888 -0.0904
vn 0.0567 -0.6221 0.7809
vn -0.8415 0.5184 0.1524
vn 0.0608 -0.1847 0.9809
vn 0.0499 -0.7867 0.6154
vn -0.6185 -0.6495 0.4422
vn -0.8184 0.2316 0.5259
vn -0.8094 -0.2201 0.5445
vn -0.6447 0.6584 0.3885
vn -0.6622 -0.6814 -0.3118
vn -0.8747 0.1905 -0.4457
vn -0.8657 -0.2611 -0.4271
vn -0.6883 0.6266 -0.3655
vn 0.0611 -0.3248 0.9438
vn -0.0096 0.9911 0.1325
vn 0.8361 0.5316 0.1354
vn -0.0331 0.9601 -0.2776
vn -0.8646 0.0713 0.4973
vn 0.8626 0.2621 0.4326
vn 0.8295 -0.3587 0.4282
vn 0.2310 0.9691 0.0861
vn 0.8408 0.2305 -0.4898
vn 0.6600 -0.6635 0.3524
vn -0.2198 0.5854 0.7804
vn 0.3977 0.5905 -0.7023
vn 0.1511 0.2799 0.9481
vn -0.8326 0.5023 0.2333
vn -0.6446 0.6584 0.3884
vn 0.0610 -0.3248 0.9438
vn 0.8349 0.5478 0.0541
vn -0.8148 0.2326 0.5310
vn 0.9138 0.1025 0.3930
vn 0.2310 0.9691 0.0860
vn 0.8239 -0.3050 -0.4776
vn -0.3247 0.6647 0.6729
vn 0.5000 0.5309 -0.6842
s off
f 17/1/1 27/2/1 5/3/1
f 3/4/2 9/5/2 4/6/2
f 1/7/3 7/8/3 2/9/3
f 5/10/4 9/5/4 10/11/4
f 2/9/5 8/12/5 3/4/5
f 6/13/6 29/14/6 7/15/6
f 9/16/7 13/17/7 10/18/7
f 7/15/8 11/19/8 8/20/8
f 1/21/9 28/22/9 6/13/9
f 8/20/10 12/23/10 9/16/10
f 13/17/11 16/24/11 17/1/11
f 30/25/12 42/26/12 38/27/12
f 11/19/13 16/24/13 12/23/13
f 28/28/14 41/29/14 39/30/14
f 16/24/15 22/31/15 17/1/15
f 19/32/16 35/33/16 18/34/16
f 15/35/17 21/36/17 16/24/17
f 20/37/18 34/38/18 36/39/18
f 22/31/19 26/40/19 27/2/19
f 19/41/20 25/42/20 20/43/20
f 1/21/9 18/44/9 14/45/9
f 20/43/21 26/40/21 21/36/21
f 18/44/22 24/46/22 19/41/22
f 27/47/23 4/6/23 5/10/23
f 24/48/24 3/4/24 25/49/24
f 25/49/25 4/6/25 26/50/25
f 23/51/26 2/9/26 24/48/26
f 13/17/1 5/3/1 10/18/1
f 31/52/27 36/39/27 34/38/27
f 31/52/28 35/33/28 32/53/28
f 30/54/29 33/55/29 31/52/29
f 18/34/30 33/55/30 14/56/30
f 19/32/31 36/39/31 32/53/31
f 30/54/32 34/38/32 15/57/32
f 37/58/33 42/26/33 40/59/33
f 37/58/34 41/29/34 38/27/34
f 29/60/35 40/59/35 11/61/35
f 11/61/36 42/26/36 15/62/36
f 30/25/37 41/29/37 14/63/37
f 29/60/38 39/30/38 37/58/38
f 17/1/1 22/31/1 27/2/1
f 3/4/2 8/12/2 9/5/2
f 1/7/3 6/64/3 7/8/3
f 5/10/4 4/6/4 9/5/4
f 2/9/5 7/8/5 8/12/5
f 6/13/6 28/22/6 29/14/6
f 9/16/7 12/23/7 13/17/7
f 7/15/8 29/14/8 11/19/8
f 1/21/9 14/45/9 28/22/9
f 8/20/10 11/19/10 12/23/10
f 13/17/11 12/23/11 16/24/11
f 30/25/39 15/62/39 42/26/39
f 11/19/13 15/35/13 16/24/13
f 28/28/14 14/63/14 41/29/14
f 16/24/15 21/36/15 22/31/15
f 19/32/40 32/53/40 35/33/40
f 15/35/17 20/43/17 21/36/17
f 20/37/18 15/57/18 34/38/18
f 22/31/19 21/36/19 26/40/19
f 19/41/20 24/46/20 25/42/20
f 1/21/9 23/65/9 18/44/9
f 20/43/21 25/42/21 26/40/21
f 18/44/41 23/65/41 24/46/41
f 27/47/23 26/50/23 4/6/23
f 24/48/24 2/9/24 3/4/24
f 25/49/25 3/4/25 4/6/25
f 23/51/26 1/7/26 2/9/26
f 13/17/1 17/1/1 5/3/1
f 31/52/42 32/53/42 36/39/42
f 31/52/28 33/55/28 35/33/28
f 30/54/43 14/56/43 33/55/43
f 18/34/30 35/33/30 33/55/30
f 19/32/44 20/37/44 36/39/44
f 30/54/45 31/52/45 34/38/45
f 37/58/33 38/27/33 42/26/33
f 37/58/46 39/30/46 41/29/46
f 29/60/47 37/58/47 40/59/47
f 11/61/36 40/59/36 42/26/36
f 30/25/48 38/27/48 41/29/48
f 29/60/49 28/28/49 39/30/49
v -0.209231 1.311467 -1.271803
v -0.198640 1.284882 -1.273447
v -0.202542 1.256502 -1.272462
v -0.219889 1.233932 -1.269112
v -0.246035 1.223218 -1.264295
v -0.217526 1.317121 -1.246000
v -0.213007 1.294676 -1.228755
v -0.219130 1.267811 -1.220856
v -0.234255 1.243725 -1.224420
v -0.254329 1.228872 -1.238492
v -0.269313 1.289490 -1.212030
v -0.277715 1.262500 -1.216776
v -0.279421 1.239712 -1.234079
v -0.259414 1.333146 -1.262976
v -0.302908 1.299861 -1.254809
v -0.306809 1.271482 -1.253825
v -0.296218 1.244897 -1.255469
v -0.251120 1.327492 -1.288779
v -0.271194 1.312639 -1.302851
v -0.286319 1.288553 -1.306415
v -0.292443 1.261688 -1.298517
v -0.287924 1.239243 -1.281272
v -0.226028 1.316652 -1.293193
v -0.227734 1.293864 -1.310495
v -0.236136 1.266873 -1.315242
v -0.248983 1.242913 -1.306160
v -0.262832 1.228403 -1.285685
v -0.242617 1.327961 -1.241586
v -0.256467 1.313451 -1.221111
v -0.285560 1.322432 -1.258159
v -0.306946 1.349677 -1.294633
v -0.305774 1.348878 -1.298279
v -0.275266 1.344613 -1.278086
v -0.310872 1.318145 -1.279679
v -0.271160 1.341815 -1.290859
v -0.304503 1.313804 -1.299491
v -0.288171 1.348756 -1.211345
v -0.295057 1.350882 -1.220114
v -0.275390 1.347904 -1.224975
v -0.291331 1.326634 -1.217062
v -0.278546 1.348878 -1.228994
v -0.294496 1.327612 -1.221092
vt 0.274240 0.539347
vt 0.265397 0.539709
vt 0.266768 0.532487
vt 0.231414 0.551290
vt 0.214659 0.541092
vt 0.231357 0.542861
vt 0.231940 0.569242
vt 0.215985 0.562822
vt 0.231472 0.559719
vt 0.230890 0.533338
vt 0.220414 0.530957
vt 0.213134 0.552274
vt 0.289666 0.544440
vt 0.282983 0.540904
vt 0.290637 0.536818
vt 0.279682 0.529141
vt 0.275518 0.536619
vt 0.273707 0.532162
vt 0.280945 0.538772
vt 0.286431 0.530872
vt 0.290637 0.551375
vt 0.284312 0.543753
vt 0.278488 0.537315
vt 0.276318 0.541045
vt 0.804698 0.251197
vt 0.792375 0.255919
vt 0.792638 0.252041
vt 0.786357 0.239035
vt 0.792578 0.249274
vt 0.791489 0.249454
vt 0.271776 0.541127
vt 0.760733 0.199751
vt 0.757502 0.209505
vt 0.750621 0.206121
vt 0.278108 0.542645
vt 0.273009 0.544115
vt 0.772804 0.201934
vt 0.766718 0.213101
vt 0.766203 0.208706
vt 0.264007 0.548518
vt 0.277612 0.547903
vt 0.268747 0.555467
vt 0.275021 0.546378
vt 0.280714 0.548498
vt 0.281954 0.545638
vt 0.276612 0.557409
vt 0.240880 0.530957
vt 0.248168 0.561486
vt 0.249693 0.550306
vt 0.246843 0.539760
vt 0.242415 0.571620
vt 0.762287 0.211045
vt 0.762255 0.210544
vt 0.761023 0.221925
vt 0.757316 0.212491
vt 0.750922 0.216572
vt 0.772804 0.220841
vt 0.791613 0.252007
vt 0.791097 0.255536
vt 0.780068 0.250772
vt 0.780487 0.263708
vt 0.804698 0.264828
vt 0.798786 0.238814
vt 0.221949 0.571626
vt 0.283377 0.553479
vn -0.3837 -0.9201 0.0783
vn 0.7641 -0.5335 0.3625
vn 0.9115 0.3497 0.2164
vn 0.4091 -0.8550 0.3189
vn 0.9376 -0.1175 0.3272
vn 0.3852 0.6098 0.6927
vn -0.1172 -0.5950 0.7952
vn 0.2595 0.2175 0.9409
vn 0.3837 0.9201 -0.0783
vn 0.0860 -0.1985 0.9763
vn -0.7775 -0.3424 0.5276
vn -0.9725 -0.0137 -0.2325
vn -0.7649 0.1271 0.6315
vn 0.4585 0.8764 -0.1476
vn -0.9115 -0.3497 -0.2164
vn 0.3449 0.3565 -0.8683
vn -0.9376 0.1175 -0.3272
vn -0.8213 -0.5522 -0.1430
vn -0.3852 -0.6098 -0.6927
vn -0.0860 0.1985 -0.9763
vn -0.2595 -0.2175 -0.9409
vn 0.1172 0.5950 -0.7952
vn 0.2751 -0.8624 -0.4250
vn 0.7649 -0.1271 -0.6315
vn 0.5914 -0.5430 -0.5961
vn 0.7775 0.3424 -0.5276
vn -0.9533 -0.0241 -0.3011
vn 0.2265 0.9641 -0.1385
vn -0.2349 0.7077 0.6663
vn 0.5809 0.8140 0.0084
vn -0.0993 0.0308 -0.9946
vn -0.5948 0.5449 0.5910
vn -0.7909 -0.0447 0.6103
vn 0.1734 0.9796 0.1013
vn 0.2042 0.2493 0.9467
vn -0.7686 -0.3865 0.5098
vn -0.4003 0.7247 -0.5609
vn 0.6701 0.4355 0.6011
vn 0.7642 -0.5335 0.3625
vn 0.9115 0.3498 0.2164
vn 0.3852 0.6097 0.6927
vn -0.7828 0.5620 -0.2672
vn 0.2659 0.3662 -0.8917
vn -0.3852 -0.6097 -0.6927
vn 0.2751 -0.8624 -0.4251
vn 0.7775 0.3424 -0.5275
vn 0.2264 0.9641 -0.1385
vn -0.1582 0.6995 0.6969
vn 0.5809 0.8140 0.0083
vn -0.0913 0.2017 -0.9752
vn -0.6331 0.3946 0.6660
vn 0.1734 0.9796 0.1014
vn 0.0169 -0.2524 0.9675
vn -0.2423 0.7470 -0.6191
vn 0.5975 0.4058 0.6917
s off
f 59/66/50 69/67/50 47/68/50
f 45/69/51 51/70/51 46/71/51
f 43/72/52 49/73/52 44/74/52
f 47/75/53 51/70/53 52/76/53
f 44/74/54 50/77/54 45/69/54
f 48/78/55 71/79/55 49/80/55
f 51/81/56 55/82/56 52/83/56
f 49/80/57 53/84/57 50/85/57
f 43/86/58 70/87/58 48/78/58
f 50/85/59 54/88/59 51/81/59
f 55/82/60 58/89/60 59/66/60
f 72/90/61 84/91/61 80/92/61
f 53/84/62 58/89/62 54/88/62
f 70/93/63 83/94/63 81/95/63
f 58/89/64 64/96/64 59/66/64
f 61/97/65 77/98/65 60/99/65
f 57/100/66 63/101/66 58/89/66
f 62/102/67 76/103/67 78/104/67
f 64/96/68 68/105/68 69/67/68
f 61/106/69 67/107/69 62/108/69
f 43/86/58 60/109/58 56/110/58
f 62/108/70 68/105/70 63/101/70
f 60/109/71 66/111/71 61/106/71
f 69/112/72 46/71/72 47/75/72
f 66/113/73 45/69/73 67/114/73
f 67/114/74 46/71/74 68/115/74
f 65/116/75 44/74/75 66/113/75
f 55/82/50 47/68/50 52/83/50
f 73/117/76 78/104/76 76/103/76
f 73/117/77 77/98/77 74/118/77
f 72/119/78 75/120/78 73/117/78
f 60/99/79 75/120/79 56/121/79
f 61/97/80 78/104/80 74/118/80
f 72/119/81 76/103/81 57/122/81
f 79/123/82 84/91/82 82/124/82
f 79/123/83 83/94/83 80/92/83
f 71/125/84 82/124/84 53/126/84
f 53/126/85 84/91/85 57/127/85
f 72/90/86 83/94/86 56/128/86
f 71/125/87 81/95/87 79/123/87
f 59/66/50 64/96/50 69/67/50
f 45/69/88 50/77/88 51/70/88
f 43/72/89 48/129/89 49/73/89
f 47/75/53 46/71/53 51/70/53
f 44/74/54 49/73/54 50/77/54
f 48/78/90 70/87/90 71/79/90
f 51/81/56 54/88/56 55/82/56
f 49/80/57 71/79/57 53/84/57
f 43/86/58 56/110/58 70/87/58
f 50/85/59 53/84/59 54/88/59
f 55/82/60 54/88/60 58/89/60
f 72/90/91 57/127/91 84/91/91
f 53/84/62 57/100/62 58/89/62
f 70/93/63 56/128/63 83/94/63
f 58/89/64 63/101/64 64/96/64
f 61/97/92 74/118/92 77/98/92
f 57/100/66 62/108/66 63/101/66
f 62/102/67 57/122/67 76/103/67
f 64/96/93 63/101/93 68/105/93
f 61/106/69 66/111/69 67/107/69
f 43/86/58 65/130/58 60/109/58
f 62/108/70 67/107/70 68/105/70
f 60/109/71 65/130/71 66/111/71
f 69/112/94 68/115/94 46/71/94
f 66/113/73 44/74/73 45/69/73
f 67/114/74 45/69/74 46/71/74
f 65/116/95 43/72/95 44/74/95
f 55/82/50 59/66/50 47/68/50
f 73/117/76 74/118/76 78/104/76
f 73/117/96 75/120/96 77/98/96
f 72/119/97 56/121/97 75/120/97
f 60/99/98 77/98/98 75/120/98
f 61/97/99 62/102/99 78/104/99
f 72/119/100 73/117/100 76/103/100
f 79/123/82 80/92/82 84/91/82
f 79/123/101 81/95/101 83/94/101
f 71/125/102 79/123/102 82/124/102
f 53/126/85 82/124/85 84/91/85
f 72/90/103 80/92/103 83/94/103
f 71/125/104 70/93/104 81/95/104
