# Blender v2.81 (sub 16) OBJ File: 'garbage.blend'
# www.blender.org
v -0.434773 1.453926 -0.007412
v -0.431645 1.437350 -0.030586
v -0.431582 1.411372 -0.042700
v -0.434601 1.382952 -0.040506
v -0.439893 1.359706 -0.024593
v -0.414228 1.449521 0.010619
v -0.396061 1.429721 0.000643
v -0.390493 1.402563 -0.006639
v -0.399017 1.375324 -0.009277
v -0.419348 1.355302 -0.006563
v -0.401994 1.393451 0.046755
v -0.408977 1.367432 0.036964
v -0.425099 1.350746 0.020134
v -0.446274 1.444814 0.045983
v -0.454584 1.393148 0.064089
v -0.454522 1.367170 0.051975
v -0.451394 1.350594 0.028801
v -0.466818 1.449218 0.027952
v -0.487149 1.429196 0.030666
v -0.495673 1.401957 0.028028
v -0.490106 1.374799 0.020746
v -0.471938 1.354999 0.010771
v -0.461068 1.453774 0.001255
v -0.477189 1.437088 -0.015575
v -0.484172 1.411069 -0.025366
v -0.480145 1.382690 -0.025495
v -0.466188 1.359555 -0.015927
v -0.419979 1.444965 0.037316
v -0.406021 1.421830 0.046884
v -0.451566 1.421568 0.061895
v -0.494049 1.440446 0.081098
v -0.496952 1.441068 0.078550
v -0.466548 1.449217 0.059424
v -0.481018 1.409152 0.071924
v -0.476717 1.451397 0.050499
v -0.496792 1.412534 0.058080
v -0.409906 1.433397 0.093768
v -0.420686 1.433335 0.097321
v -0.417599 1.441801 0.078934
v -0.415893 1.414322 0.082266
v -0.422540 1.441772 0.080562
v -0.420848 1.414293 0.083899
vt 0.274240 0.539347
vt 0.265397 0.539709
vt 0.266768 0.532487
vt 0.231414 0.551290
vt 0.214659 0.541092
vt 0.231357 0.542861
vt 0.231940 0.569242
vt 0.215985 0.562822
vt 0.231472 0.559719
vt 0.230890 0.533338
vt 0.220414 0.530957
vt 0.213134 0.552274
vt 0.289666 0.544440
vt 0.282983 0.540904
vt 0.290637 0.536818
vt 0.279682 0.529141
vt 0.275518 0.536619
vt 0.273707 0.532162
vt 0.280945 0.538772
vt 0.286431 0.530872
vt 0.290637 0.551375
vt 0.284312 0.543753
vt 0.278488 0.537315
vt 0.276318 0.541045
vt 0.804698 0.251197
vt 0.792375 0.255919
vt 0.792638 0.252041
vt 0.786357 0.239035
vt 0.792578 0.249274
vt 0.791489 0.249454
vt 0.271776 0.541127
vt 0.760733 0.199751
vt 0.757502 0.209505
vt 0.750621 0.206121
vt 0.278108 0.542645
vt 0.273009 0.544115
vt 0.772804 0.201934
vt 0.766718 0.213101
vt 0.766203 0.208706
vt 0.264007 0.548518
vt 0.277612 0.547903
vt 0.268747 0.555467
vt 0.275021 0.546378
vt 0.280714 0.548498
vt 0.281954 0.545638
vt 0.276612 0.557409
vt 0.240880 0.530957
vt 0.248168 0.561486
vt 0.249693 0.550306
vt 0.246843 0.539760
vt 0.242415 0.571620
vt 0.762287 0.211045
vt 0.762255 0.210544
vt 0.761023 0.221925
vt 0.757316 0.212491
vt 0.750922 0.216572
vt 0.772804 0.220841
vt 0.791613 0.252007
vt 0.791097 0.255536
vt 0.780068 0.250772
vt 0.780487 0.263708
vt 0.804698 0.264828
vt 0.798786 0.238814
vt 0.221949 0.571626
vt 0.283377 0.553479
vn -0.0534 -0.9824 -0.1792
vn 0.6389 -0.1264 -0.7588
vn 0.5401 0.7173 -0.4402
vn 0.4702 -0.5689 -0.6747
vn 0.6630 0.3177 -0.6779
vn 0.7733 0.5761 0.2649
vn 0.7034 -0.7102 0.0303
vn 0.9635 0.1357 0.2307
vn 0.0534 0.9824 0.1791
vn 0.9394 -0.3085 0.1497
vn 0.1982 -0.7844 0.5878
vn -0.5859 -0.4635 0.6647
vn 0.2884 -0.4041 0.8681
vn 0.0189 0.9970 0.0747
vn -0.5401 -0.7173 0.4402
vn -0.6786 0.6403 -0.3598
vn -0.6630 -0.3177 0.6779
vn -0.4333 -0.8551 0.2848
vn -0.7733 -0.5761 -0.2649
vn -0.9394 0.3084 -0.1497
vn -0.9635 -0.1357 -0.2307
vn -0.7034 0.7102 -0.0303
vn -0.2682 -0.5019 -0.8223
vn -0.2884 0.4041 -0.8681
vn -0.3126 -0.0400 -0.9490
vn -0.1983 0.7844 -0.5878
vn -0.6417 -0.4494 0.6214
vn -0.0633 0.9505 0.3043
vn 0.5099 0.3467 0.7873
vn 0.2111 0.9775 -0.0018
vn -0.9575 0.1645 -0.2368
vn 0.3066 0.0408 0.9510
vn 0.2628 -0.5574 0.7876
vn 0.1376 0.8907 0.4332
vn 0.9470 0.1330 0.2925
vn 0.1863 -0.8134 0.5510
vn -0.6875 0.5102 0.5167
vn 0.8014 0.5928 -0.0798
vn -0.0534 -0.9824 -0.1791
vn 0.9394 -0.3084 0.1497
vn 0.1983 -0.7844 0.5878
vn -0.5586 0.1227 0.8203
vn -0.7306 0.6126 -0.3015
vn -0.7034 0.7101 -0.0303
vn -0.2681 -0.5019 -0.8223
vn -0.6418 -0.4494 0.6214
vn 0.5676 0.3732 0.7339
vn -0.9404 0.3082 -0.1435
vn 0.3646 -0.1189 0.9235
vn 0.1377 0.8907 0.4332
vn 0.9060 -0.3873 0.1706
vn -0.6815 0.6206 0.3878
vn 0.8580 0.5135 -0.0100
s off
f 17/1/1 27/2/1 5/3/1
f 3/4/2 9/5/2 4/6/2
f 1/7/3 7/8/3 2/9/3
f 5/10/4 9/5/4 10/11/4
f 2/9/5 8/12/5 3/4/5
f 6/13/6 29/14/6 7/15/6
f 9/16/7 13/17/7 10/18/7
f 7/15/8 11/19/8 8/20/8
f 1/21/9 28/22/9 6/13/9
f 8/20/10 12/23/10 9/16/10
f 13/17/11 16/24/11 17/1/11
f 30/25/12 42/26/12 38/27/12
f 11/19/13 16/24/13 12/23/13
f 28/28/14 41/29/14 39/30/14
f 16/24/15 22/31/15 17/1/15
f 19/32/16 35/33/16 18/34/16
f 15/35/17 21/36/17 16/24/17
f 20/37/18 34/38/18 36/39/18
f 22/31/19 26/40/19 27/2/19
f 19/41/20 25/42/20 20/43/20
f 1/21/9 18/44/9 14/45/9
f 20/43/21 26/40/21 21/36/21
f 18/44/22 24/46/22 19/41/22
f 27/47/23 4/6/23 5/10/23
f 24/48/24 3/4/24 25/49/24
f 25/49/25 4/6/25 26/50/25
f 23/51/26 2/9/26 24/48/26
f 13/17/1 5/3/1 10/18/1
f 31/52/27 36/39/27 34/38/27
f 31/52/28 35/33/28 32/53/28
f 30/54/29 33/55/29 31/52/29
f 18/34/30 33/55/30 14/56/30
f 19/32/31 36/39/31 32/53/31
f 30/54/32 34/38/32 15/57/32
f 37/58/33 42/26/33 40/59/33
f 37/58/34 41/29/34 38/27/34
f 29/60/35 40/59/35 11/61/35
f 11/61/36 42/26/36 15/62/36
f 30/25/37 41/29/37 14/63/37
f 29/60/38 39/30/38 37/58/38
f 17/1/39 22/31/39 27/2/39
f 3/4/2 8/12/2 9/5/2
f 1/7/3 6/64/3 7/8/3
f 5/10/4 4/6/4 9/5/4
f 2/9/5 7/8/5 8/12/5
f 6/13/6 28/22/6 29/14/6
f 9/16/7 12/23/7 13/17/7
f 7/15/8 29/14/8 11/19/8
f 1/21/9 14/45/9 28/22/9
f 8/20/40 11/19/40 12/23/40
f 13/17/41 12/23/41 16/24/41
f 30/25/42 15/62/42 42/26/42
f 11/19/13 15/35/13 16/24/13
f 28/28/14 14/63/14 41/29/14
f 16/24/15 21/36/15 22/31/15
f 19/32/43 32/53/43 35/33/43
f 15/35/17 20/43/17 21/36/17
f 20/37/18 15/57/18 34/38/18
f 22/31/19 21/36/19 26/40/19
f 19/41/20 24/46/20 25/42/20
f 1/21/9 23/65/9 18/44/9
f 20/43/21 25/42/21 26/40/21
f 18/44/44 23/65/44 24/46/44
f 27/47/45 26/50/45 4/6/45
f 24/48/24 2/9/24 3/4/24
f 25/49/25 3/4/25 4/6/25
f 23/51/26 1/7/26 2/9/26
f 13/17/39 17/1/39 5/3/39
f 31/52/46 32/53/46 36/39/46
f 31/52/28 33/55/28 35/33/28
f 30/54/47 14/56/47 33/55/47
f 18/34/30 35/33/30 33/55/30
f 19/32/48 20/37/48 36/39/48
f 30/54/49 31/52/49 34/38/49
f 37/58/33 38/27/33 42/26/33
f 37/58/50 39/30/50 41/29/50
f 29/60/51 37/58/51 40/59/51
f 11/61/36 40/59/36 42/26/36
f 30/25/52 38/27/52 41/29/52
f 29/60/53 28/28/53 39/30/53
v 0.906918 0.881625 -1.447060
v 0.917444 0.861475 -1.429603
v 0.916772 0.834733 -1.419308
v 0.905083 0.808564 -1.418933
v 0.885508 0.789980 -1.428581
v 0.881497 0.889170 -1.439096
v 0.873414 0.874543 -1.415809
v 0.865931 0.849822 -1.403380
v 0.861053 0.821631 -1.405140
v 0.860087 0.797525 -1.420617
v 0.824811 0.851962 -1.440405
v 0.825442 0.823485 -1.437205
v 0.839527 0.798595 -1.439129
v 0.865799 0.883766 -1.484086
v 0.834534 0.839013 -1.493359
v 0.833862 0.812271 -1.483064
v 0.844389 0.792120 -1.465606
v 0.891219 0.876221 -1.492050
v 0.890254 0.852114 -1.507527
v 0.885376 0.823924 -1.509286
v 0.877893 0.799203 -1.496857
v 0.869809 0.784576 -1.473570
v 0.911779 0.875151 -1.473537
v 0.925864 0.850261 -1.475462
v 0.926495 0.821784 -1.472261
v 0.913503 0.797349 -1.464792
v 0.890369 0.783506 -1.455057
v 0.860937 0.890240 -1.457609
v 0.837803 0.876396 -1.447874
v 0.846224 0.865182 -1.493733
v 0.857522 0.873435 -1.542047
v 0.861114 0.872369 -1.543172
v 0.865941 0.884665 -1.508789
v 0.846544 0.846915 -1.521811
v 0.878524 0.880931 -1.512731
v 0.866063 0.841123 -1.527926
v 0.806676 0.898054 -1.478024
v 0.808668 0.895399 -1.488879
v 0.825340 0.899204 -1.477615
v 0.810986 0.875742 -1.474067
v 0.826254 0.897988 -1.482590
v 0.811902 0.874522 -1.479056
vt 0.274240 0.539347
vt 0.265397 0.539709
vt 0.266768 0.532487
vt 0.231414 0.551290
vt 0.214659 0.541092
vt 0.231357 0.542861
vt 0.231940 0.569242
vt 0.215985 0.562822
vt 0.231472 0.559719
vt 0.230890 0.533338
vt 0.220414 0.530957
vt 0.213134 0.552274
vt 0.289666 0.544440
vt 0.282983 0.540904
vt 0.290637 0.536818
vt 0.279682 0.529141
vt 0.275518 0.536619
vt 0.273707 0.532162
vt 0.280945 0.538772
vt 0.286431 0.530872
vt 0.290637 0.551375
vt 0.284312 0.543753
vt 0.278488 0.537315
vt 0.276318 0.541045
vt 0.804698 0.251197
vt 0.792375 0.255919
vt 0.792638 0.252041
vt 0.786357 0.239035
vt 0.792578 0.249274
vt 0.791489 0.249454
vt 0.271776 0.541127
vt 0.760733 0.199751
vt 0.757502 0.209505
vt 0.750621 0.206121
vt 0.278108 0.542645
vt 0.273009 0.544115
vt 0.772804 0.201934
vt 0.766718 0.213101
vt 0.766203 0.208706
vt 0.264007 0.548518
vt 0.277612 0.547903
vt 0.268747 0.555467
vt 0.275021 0.546378
vt 0.280714 0.548498
vt 0.281954 0.545638
vt 0.276612 0.557409
vt 0.240880 0.530957
vt 0.248168 0.561486
vt 0.249693 0.550306
vt 0.246843 0.539760
vt 0.242415 0.571620
vt 0.762287 0.211045
vt 0.762255 0.210544
vt 0.761023 0.221925
vt 0.757316 0.212491
vt 0.750922 0.216572
vt 0.772804 0.220841
vt 0.791613 0.252007
vt 0.791097 0.255536
vt 0.780068 0.250772
vt 0.780487 0.263708
vt 0.804698 0.264828
vt 0.798786 0.238814
vt 0.221949 0.571626
vt 0.283377 0.553479
vn -0.2232 -0.9555 0.1927
vn 0.2684 -0.1062 0.9574
vn 0.3936 0.7107 0.5830
vn 0.1013 -0.5404 0.8353
vn 0.3693 0.3258 0.8703
vn -0.3312 0.8465 0.4168
vn -0.6235 -0.4046 0.6690
vn -0.5647 0.5008 0.6560
vn 0.2232 0.9555 -0.1927
vn -0.6656 0.0688 0.7431
vn -0.8709 -0.4898 -0.0402
vn -0.4515 -0.4362 -0.7784
vn -0.9845 -0.0410 -0.1707
vn 0.3281 0.9298 -0.1671
vn -0.3936 -0.7107 -0.5830
vn 0.8479 0.2619 -0.4609
vn -0.3693 -0.3258 -0.8703
vn -0.3723 -0.8418 -0.3909
vn 0.3312 -0.8465 -0.4168
vn 0.6656 -0.0688 -0.7431
vn 0.5647 -0.5008 -0.6560
vn 0.6235 0.4046 -0.6690
vn 0.5787 -0.7613 0.2924
vn 0.9845 0.0410 0.1707
vn 0.8835 -0.3910 0.2578
vn 0.8709 0.4897 0.0401
vn -0.3862 -0.4532 -0.8034
vn 0.1631 0.9215 -0.3525
vn -0.7213 0.6908 -0.0507
vn 0.2948 0.9549 0.0365
vn 0.6862 -0.2283 -0.6907
vn -0.8821 0.3902 -0.2640
vn -0.9695 -0.2098 -0.1267
vn -0.0542 0.9676 -0.2466
vn -0.6076 0.5094 0.6094
vn -0.8477 -0.5298 -0.0261
vn 0.0996 0.3738 -0.9221
vn -0.0617 0.7794 0.6235
vn -0.8709 -0.4897 -0.0401
vn -0.3553 0.1455 -0.9234
vn 0.8137 0.2352 -0.5315
vn 0.8709 0.4898 0.0402
vn 0.1631 0.9215 -0.3524
vn -0.6941 0.7196 0.0222
vn 0.6610 -0.0677 -0.7473
vn -0.9498 0.2572 -0.1782
vn -0.6986 -0.0081 0.7155
vn 0.2438 0.4417 -0.8634
vn -0.1745 0.7447 0.6442
s off
f 59/66/54 69/67/54 47/68/54
f 45/69/55 51/70/55 46/71/55
f 43/72/56 49/73/56 44/74/56
f 47/75/57 51/70/57 52/76/57
f 44/74/58 50/77/58 45/69/58
f 48/78/59 71/79/59 49/80/59
f 51/81/60 55/82/60 52/83/60
f 49/80/61 53/84/61 50/85/61
f 43/86/62 70/87/62 48/78/62
f 50/85/63 54/88/63 51/81/63
f 55/82/64 58/89/64 59/66/64
f 72/90/65 84/91/65 80/92/65
f 53/84/66 58/89/66 54/88/66
f 70/93/67 83/94/67 81/95/67
f 58/89/68 64/96/68 59/66/68
f 61/97/69 77/98/69 60/99/69
f 57/100/70 63/101/70 58/89/70
f 62/102/71 76/103/71 78/104/71
f 64/96/72 68/105/72 69/67/72
f 61/106/73 67/107/73 62/108/73
f 43/86/62 60/109/62 56/110/62
f 62/108/74 68/105/74 63/101/74
f 60/109/75 66/111/75 61/106/75
f 69/112/76 46/71/76 47/75/76
f 66/113/77 45/69/77 67/114/77
f 67/114/78 46/71/78 68/115/78
f 65/116/79 44/74/79 66/113/79
f 55/82/54 47/68/54 52/83/54
f 73/117/80 78/104/80 76/103/80
f 73/117/81 77/98/81 74/118/81
f 72/119/82 75/120/82 73/117/82
f 60/99/83 75/120/83 56/121/83
f 61/97/84 78/104/84 74/118/84
f 72/119/85 76/103/85 57/122/85
f 79/123/86 84/91/86 82/124/86
f 79/123/87 83/94/87 80/92/87
f 71/125/88 82/124/88 53/126/88
f 53/126/89 84/91/89 57/127/89
f 72/90/90 83/94/90 56/128/90
f 71/125/91 81/95/91 79/123/91
f 59/66/54 64/96/54 69/67/54
f 45/69/55 50/77/55 51/70/55
f 43/72/56 48/129/56 49/73/56
f 47/75/57 46/71/57 51/70/57
f 44/74/58 49/73/58 50/77/58
f 48/78/59 70/87/59 71/79/59
f 51/81/60 54/88/60 55/82/60
f 49/80/61 71/79/61 53/84/61
f 43/86/62 56/110/62 70/87/62
f 50/85/63 53/84/63 54/88/63
f 55/82/92 54/88/92 58/89/92
f 72/90/93 57/127/93 84/91/93
f 53/84/66 57/100/66 58/89/66
f 70/93/67 56/128/67 83/94/67
f 58/89/68 63/101/68 64/96/68
f 61/97/94 74/118/94 77/98/94
f 57/100/70 62/108/70 63/101/70
f 62/102/71 57/122/71 76/103/71
f 64/96/72 63/101/72 68/105/72
f 61/106/73 66/111/73 67/107/73
f 43/86/62 65/130/62 60/109/62
f 62/108/74 67/107/74 68/105/74
f 60/109/75 65/130/75 66/111/75
f 69/112/76 68/115/76 46/71/76
f 66/113/77 44/74/77 45/69/77
f 67/114/78 45/69/78 46/71/78
f 65/116/95 43/72/95 44/74/95
f 55/82/54 59/66/54 47/68/54
f 73/117/80 74/118/80 78/104/80
f 73/117/96 75/120/96 77/98/96
f 72/119/97 56/121/97 75/120/97
f 60/99/83 77/98/83 75/120/83
f 61/97/98 62/102/98 78/104/98
f 72/119/99 73/117/99 76/103/99
f 79/123/86 80/92/86 84/91/86
f 79/123/87 81/95/87 83/94/87
f 71/125/100 79/123/100 82/124/100
f 53/126/89 82/124/89 84/91/89
f 72/90/101 80/92/101 83/94/101
f 71/125/102 70/93/102 81/95/102
