# Blender v2.81 (sub 16) OBJ File: 'garbage.blend'
# www.blender.org
v -0.420342 1.505165 -0.131736
v -0.420917 1.495673 -0.158776
v -0.422301 1.473961 -0.177439
v -0.424123 1.445848 -0.182723
v -0.425893 1.418866 -0.173214
v -0.396823 1.497635 -0.119217
v -0.380181 1.482630 -0.137092
v -0.375264 1.458901 -0.152401
v -0.383387 1.432805 -0.161040
v -0.402375 1.411336 -0.160695
v -0.376896 1.435009 -0.102473
v -0.384800 1.412115 -0.117801
v -0.403191 1.399390 -0.135731
v -0.421974 1.481273 -0.081808
v -0.425566 1.426178 -0.077583
v -0.426950 1.404466 -0.096246
v -0.427526 1.394974 -0.123286
v -0.445493 1.488803 -0.094327
v -0.464480 1.467333 -0.093982
v -0.472604 1.441238 -0.102621
v -0.467686 1.417508 -0.117930
v -0.451044 1.402504 -0.135805
v -0.444676 1.500749 -0.119291
v -0.463067 1.488024 -0.137221
v -0.470971 1.465129 -0.152549
v -0.466272 1.438199 -0.161168
v -0.450228 1.414450 -0.160769
v -0.397639 1.485689 -0.094253
v -0.381595 1.461939 -0.093854
v -0.423745 1.454291 -0.072299
v -0.462654 1.464136 -0.041982
v -0.465978 1.465200 -0.043751
v -0.439663 1.480402 -0.064562
v -0.450617 1.437494 -0.061440
v -0.451304 1.484130 -0.070759
v -0.468675 1.443276 -0.071052
v -0.377438 1.460221 -0.045617
v -0.387415 1.458410 -0.040515
v -0.387855 1.471691 -0.056094
v -0.384852 1.444528 -0.060809
v -0.392428 1.470861 -0.053756
v -0.389437 1.443695 -0.058464
vt 0.274240 0.539347
vt 0.265397 0.539709
vt 0.266768 0.532487
vt 0.231414 0.551290
vt 0.214659 0.541092
vt 0.231357 0.542861
vt 0.231940 0.569242
vt 0.215985 0.562822
vt 0.231472 0.559719
vt 0.230890 0.533338
vt 0.220414 0.530957
vt 0.213134 0.552274
vt 0.289666 0.544440
vt 0.282983 0.540904
vt 0.290637 0.536818
vt 0.279682 0.529141
vt 0.275518 0.536619
vt 0.273707 0.532162
vt 0.280945 0.538772
vt 0.286431 0.530872
vt 0.290637 0.551375
vt 0.284312 0.543753
vt 0.278488 0.537315
vt 0.276318 0.541045
vt 0.804698 0.251197
vt 0.792375 0.255919
vt 0.792638 0.252041
vt 0.786357 0.239035
vt 0.792578 0.249274
vt 0.791489 0.249454
vt 0.271776 0.541127
vt 0.760733 0.199751
vt 0.757502 0.209505
vt 0.750621 0.206121
vt 0.278108 0.542645
vt 0.273009 0.544115
vt 0.772804 0.201934
vt 0.766718 0.213101
vt 0.766203 0.208706
vt 0.264007 0.548518
vt 0.277612 0.547903
vt 0.268747 0.555467
vt 0.275021 0.546378
vt 0.280714 0.548498
vt 0.281954 0.545638
vt 0.276612 0.557409
vt 0.240880 0.530957
vt 0.248168 0.561486
vt 0.249693 0.550306
vt 0.246843 0.539760
vt 0.242415 0.571620
vt 0.762287 0.211045
vt 0.762255 0.210544
vt 0.761023 0.221925
vt 0.757316 0.212491
vt 0.750922 0.216572
vt 0.772804 0.220841
vt 0.791613 0.252007
vt 0.791097 0.255536
vt 0.780068 0.250772
vt 0.780487 0.263708
vt 0.804698 0.264828
vt 0.798786 0.238814
vt 0.221949 0.571626
vt 0.283377 0.553479
vn -0.0579 -0.8998 -0.4325
vn 0.4978 0.1290 -0.8576
vn 0.4344 0.8470 -0.3066
vn 0.3586 -0.3311 -0.8728
vn 0.5240 0.5357 -0.6621
vn 0.7922 0.5400 0.2843
vn 0.7164 -0.6381 -0.2820
vn 0.9851 0.1401 0.0993
vn 0.0579 0.8998 0.4325
vn 0.9590 -0.2667 -0.0962
vn 0.3200 -0.8961 0.3077
vn -0.4466 -0.6666 0.5968
vn 0.4481 -0.5990 0.6636
vn 0.0051 0.9392 0.3432
vn -0.4344 -0.8470 0.3066
vn -0.7484 0.6611 -0.0535
vn -0.5240 -0.5357 0.6621
vn -0.3530 -0.9298 0.1040
vn -0.7922 -0.5400 -0.2843
vn -0.9590 0.2667 0.0962
vn -0.9851 -0.1401 -0.0993
vn -0.7164 0.6381 0.2819
vn -0.3958 -0.2820 -0.8740
vn -0.4481 0.5990 -0.6636
vn -0.4742 0.1922 -0.8592
vn -0.3200 0.8961 -0.3077
vn -0.5095 -0.6456 0.5688
vn -0.0340 0.8270 0.5612
vn 0.6316 0.1603 0.7586
vn 0.1812 0.9552 0.2341
vn -0.9884 0.1503 -0.0231
vn 0.4687 -0.1924 0.8622
vn 0.4127 -0.7267 0.5492
vn 0.1882 0.7500 0.6341
vn 0.9799 0.1199 0.1597
vn 0.3025 -0.9150 0.2668
vn -0.5987 0.3009 0.7423
vn 0.7585 0.6503 -0.0422
vn 0.7164 -0.6381 -0.2819
vn -0.4078 -0.1431 0.9018
vn -0.7885 0.6150 0.0026
vn -0.5240 -0.5358 0.6621
vn -0.4742 0.1922 -0.8591
vn -0.0339 0.8270 0.5612
vn 0.6782 0.2043 0.7059
vn -0.9589 0.2646 0.1023
vn 0.5252 -0.3343 0.7826
vn 0.9320 -0.3504 -0.0928
vn 0.3025 -0.9151 0.2668
vn -0.6185 0.4419 0.6497
vn 0.8287 0.5597 -0.0072
s off
f 17/1/1 27/2/1 5/3/1
f 3/4/2 9/5/2 4/6/2
f 1/7/3 7/8/3 2/9/3
f 5/10/4 9/5/4 10/11/4
f 2/9/5 8/12/5 3/4/5
f 6/13/6 29/14/6 7/15/6
f 9/16/7 13/17/7 10/18/7
f 7/15/8 11/19/8 8/20/8
f 1/21/9 28/22/9 6/13/9
f 8/20/10 12/23/10 9/16/10
f 13/17/11 16/24/11 17/1/11
f 30/25/12 42/26/12 38/27/12
f 11/19/13 16/24/13 12/23/13
f 28/28/14 41/29/14 39/30/14
f 16/24/15 22/31/15 17/1/15
f 19/32/16 35/33/16 18/34/16
f 15/35/17 21/36/17 16/24/17
f 20/37/18 34/38/18 36/39/18
f 22/31/19 26/40/19 27/2/19
f 19/41/20 25/42/20 20/43/20
f 1/21/9 18/44/9 14/45/9
f 20/43/21 26/40/21 21/36/21
f 18/44/22 24/46/22 19/41/22
f 27/47/23 4/6/23 5/10/23
f 24/48/24 3/4/24 25/49/24
f 25/49/25 4/6/25 26/50/25
f 23/51/26 2/9/26 24/48/26
f 13/17/1 5/3/1 10/18/1
f 31/52/27 36/39/27 34/38/27
f 31/52/28 35/33/28 32/53/28
f 30/54/29 33/55/29 31/52/29
f 18/34/30 33/55/30 14/56/30
f 19/32/31 36/39/31 32/53/31
f 30/54/32 34/38/32 15/57/32
f 37/58/33 42/26/33 40/59/33
f 37/58/34 41/29/34 38/27/34
f 29/60/35 40/59/35 11/61/35
f 11/61/36 42/26/36 15/62/36
f 30/25/37 41/29/37 14/63/37
f 29/60/38 39/30/38 37/58/38
f 17/1/1 22/31/1 27/2/1
f 3/4/2 8/12/2 9/5/2
f 1/7/3 6/64/3 7/8/3
f 5/10/4 4/6/4 9/5/4
f 2/9/5 7/8/5 8/12/5
f 6/13/6 28/22/6 29/14/6
f 9/16/39 12/23/39 13/17/39
f 7/15/8 29/14/8 11/19/8
f 1/21/9 14/45/9 28/22/9
f 8/20/10 11/19/10 12/23/10
f 13/17/11 12/23/11 16/24/11
f 30/25/40 15/62/40 42/26/40
f 11/19/13 15/35/13 16/24/13
f 28/28/14 14/63/14 41/29/14
f 16/24/15 21/36/15 22/31/15
f 19/32/41 32/53/41 35/33/41
f 15/35/42 20/43/42 21/36/42
f 20/37/18 15/57/18 34/38/18
f 22/31/19 21/36/19 26/40/19
f 19/41/20 24/46/20 25/42/20
f 1/21/9 23/65/9 18/44/9
f 20/43/21 25/42/21 26/40/21
f 18/44/22 23/65/22 24/46/22
f 27/47/23 26/50/23 4/6/23
f 24/48/24 2/9/24 3/4/24
f 25/49/43 3/4/43 4/6/43
f 23/51/26 1/7/26 2/9/26
f 13/17/1 17/1/1 5/3/1
f 31/52/27 32/53/27 36/39/27
f 31/52/44 33/55/44 35/33/44
f 30/54/45 14/56/45 33/55/45
f 18/34/30 35/33/30 33/55/30
f 19/32/46 20/37/46 36/39/46
f 30/54/47 31/52/47 34/38/47
f 37/58/33 38/27/33 42/26/33
f 37/58/34 39/30/34 41/29/34
f 29/60/48 37/58/48 40/59/48
f 11/61/49 40/59/49 42/26/49
f 30/25/50 38/27/50 41/29/50
f 29/60/51 28/28/51 39/30/51
v 1.159185 0.952589 -1.306640
v 1.167158 0.936028 -1.284646
v 1.166795 0.910697 -1.271237
v 1.158191 0.883383 -1.270007
v 1.143653 0.861404 -1.281285
v 1.131938 0.957446 -1.305862
v 1.119966 0.944441 -1.283299
v 1.112302 0.920411 -1.269681
v 1.110999 0.891796 -1.268660
v 1.116407 0.866262 -1.280508
v 1.081551 0.913011 -1.315133
v 1.084368 0.885387 -1.308022
v 1.101031 0.862561 -1.303234
v 1.128434 0.945189 -1.352092
v 1.105292 0.895896 -1.362140
v 1.104929 0.870565 -1.348732
v 1.112902 0.854004 -1.326737
v 1.155680 0.940332 -1.352870
v 1.161088 0.914798 -1.364717
v 1.159785 0.886182 -1.363696
v 1.152121 0.862152 -1.350079
v 1.140149 0.849147 -1.327515
v 1.171056 0.944032 -1.330144
v 1.187719 0.921207 -1.325355
v 1.190536 0.893582 -1.318244
v 1.178752 0.868561 -1.310716
v 1.155524 0.852847 -1.304789
v 1.116563 0.953746 -1.328588
v 1.093335 0.938032 -1.322661
v 1.113896 0.923210 -1.363370
v 1.135786 0.927691 -1.408434
v 1.139636 0.927004 -1.408544
v 1.134546 0.943449 -1.375981
v 1.123025 0.902253 -1.387857
v 1.148032 0.941045 -1.376366
v 1.143945 0.898524 -1.388454
v 1.068469 0.951941 -1.361843
v 1.073336 0.948433 -1.371479
v 1.086233 0.955634 -1.357299
v 1.073997 0.930967 -1.353995
v 1.088464 0.954027 -1.361715
v 1.076234 0.929355 -1.358424
vt 0.274240 0.539347
vt 0.265397 0.539709
vt 0.266768 0.532487
vt 0.231414 0.551290
vt 0.214659 0.541092
vt 0.231357 0.542861
vt 0.231940 0.569242
vt 0.215985 0.562822
vt 0.231472 0.559719
vt 0.230890 0.533338
vt 0.220414 0.530957
vt 0.213134 0.552274
vt 0.289666 0.544440
vt 0.282983 0.540904
vt 0.290637 0.536818
vt 0.279682 0.529141
vt 0.275518 0.536619
vt 0.273707 0.532162
vt 0.280945 0.538772
vt 0.286431 0.530872
vt 0.290637 0.551375
vt 0.284312 0.543753
vt 0.278488 0.537315
vt 0.276318 0.541045
vt 0.804698 0.251197
vt 0.792375 0.255919
vt 0.792638 0.252041
vt 0.786357 0.239035
vt 0.792578 0.249274
vt 0.791489 0.249454
vt 0.271776 0.541127
vt 0.760733 0.199751
vt 0.757502 0.209505
vt 0.750621 0.206121
vt 0.278108 0.542645
vt 0.273009 0.544115
vt 0.772804 0.201934
vt 0.766718 0.213101
vt 0.766203 0.208706
vt 0.264007 0.548518
vt 0.277612 0.547903
vt 0.268747 0.555467
vt 0.275021 0.546378
vt 0.280714 0.548498
vt 0.281954 0.545638
vt 0.276612 0.557409
vt 0.240880 0.530957
vt 0.248168 0.561486
vt 0.249693 0.550306
vt 0.246843 0.539760
vt 0.242415 0.571620
vt 0.762287 0.211045
vt 0.762255 0.210544
vt 0.761023 0.221925
vt 0.757316 0.212491
vt 0.750922 0.216572
vt 0.772804 0.220841
vt 0.791613 0.252007
vt 0.791097 0.255536
vt 0.780068 0.250772
vt 0.780487 0.263708
vt 0.804698 0.264828
vt 0.798786 0.238814
vt 0.221949 0.571626
vt 0.283377 0.553479
vn -0.1619 -0.9507 0.2644
vn 0.0346 0.0341 0.9988
vn 0.1613 0.8156 0.5557
vn -0.0508 -0.4292 0.9018
vn 0.1078 0.4639 0.8793
vn -0.5106 0.8339 0.2097
vn -0.7226 -0.4109 0.5558
vn -0.7580 0.4874 0.4335
vn 0.1619 0.9507 -0.2644
vn -0.8312 0.0576 0.5530
vn -0.7779 -0.6042 -0.1729
vn -0.1980 -0.5739 -0.7947
vn -0.9024 -0.1914 -0.3861
vn 0.2594 0.9422 -0.2120
vn -0.1613 -0.8156 -0.5557
vn 0.9028 0.3230 -0.2840
vn -0.1078 -0.4639 -0.8793
vn -0.1742 -0.9212 -0.3478
vn 0.5106 -0.8339 -0.2097
vn 0.8312 -0.0576 -0.5530
vn 0.7580 -0.4874 -0.4335
vn 0.7226 0.4109 -0.5558
vn 0.5658 -0.6406 0.5190
vn 0.9024 0.1914 0.3861
vn 0.8292 -0.2384 0.5056
vn 0.7779 0.6042 0.1729
vn -0.1271 -0.5845 -0.8014
vn 0.1468 0.8920 -0.4275
vn -0.7553 0.5778 -0.3094
vn 0.1747 0.9843 -0.0270
vn 0.8549 -0.2064 -0.4759
vn -0.8262 0.2372 -0.5110
vn -0.8810 -0.3509 -0.3172
vn -0.0935 0.9194 -0.3820
vn -0.7888 0.4851 0.3774
vn -0.7547 -0.6390 -0.1485
vn 0.2832 0.2829 -0.9164
vn -0.2946 0.8262 0.4802
vn -0.1308 -0.0035 -0.9914
vn 0.8900 0.2845 -0.3564
vn -0.7500 0.6176 -0.2369
vn 0.8277 -0.0576 -0.5582
vn -0.8985 0.1062 -0.4259
vn -0.8481 -0.0255 0.5292
vn 0.4006 0.3755 -0.8358
vn -0.4048 0.7790 0.4789
s off
f 59/66/52 69/67/52 47/68/52
f 45/69/53 51/70/53 46/71/53
f 43/72/54 49/73/54 44/74/54
f 47/75/55 51/70/55 52/76/55
f 44/74/56 50/77/56 45/69/56
f 48/78/57 71/79/57 49/80/57
f 51/81/58 55/82/58 52/83/58
f 49/80/59 53/84/59 50/85/59
f 43/86/60 70/87/60 48/78/60
f 50/85/61 54/88/61 51/81/61
f 55/82/62 58/89/62 59/66/62
f 72/90/63 84/91/63 80/92/63
f 53/84/64 58/89/64 54/88/64
f 70/93/65 83/94/65 81/95/65
f 58/89/66 64/96/66 59/66/66
f 61/97/67 77/98/67 60/99/67
f 57/100/68 63/101/68 58/89/68
f 62/102/69 76/103/69 78/104/69
f 64/96/70 68/105/70 69/67/70
f 61/106/71 67/107/71 62/108/71
f 43/86/60 60/109/60 56/110/60
f 62/108/72 68/105/72 63/101/72
f 60/109/73 66/111/73 61/106/73
f 69/112/74 46/71/74 47/75/74
f 66/113/75 45/69/75 67/114/75
f 67/114/76 46/71/76 68/115/76
f 65/116/77 44/74/77 66/113/77
f 55/82/52 47/68/52 52/83/52
f 73/117/78 78/104/78 76/103/78
f 73/117/79 77/98/79 74/118/79
f 72/119/80 75/120/80 73/117/80
f 60/99/81 75/120/81 56/121/81
f 61/97/82 78/104/82 74/118/82
f 72/119/83 76/103/83 57/122/83
f 79/123/84 84/91/84 82/124/84
f 79/123/85 83/94/85 80/92/85
f 71/125/86 82/124/86 53/126/86
f 53/126/87 84/91/87 57/127/87
f 72/90/88 83/94/88 56/128/88
f 71/125/89 81/95/89 79/123/89
f 59/66/52 64/96/52 69/67/52
f 45/69/53 50/77/53 51/70/53
f 43/72/54 48/129/54 49/73/54
f 47/75/55 46/71/55 51/70/55
f 44/74/56 49/73/56 50/77/56
f 48/78/57 70/87/57 71/79/57
f 51/81/58 54/88/58 55/82/58
f 49/80/59 71/79/59 53/84/59
f 43/86/60 56/110/60 70/87/60
f 50/85/61 53/84/61 54/88/61
f 55/82/62 54/88/62 58/89/62
f 72/90/90 57/127/90 84/91/90
f 53/84/64 57/100/64 58/89/64
f 70/93/65 56/128/65 83/94/65
f 58/89/66 63/101/66 64/96/66
f 61/97/91 74/118/91 77/98/91
f 57/100/68 62/108/68 63/101/68
f 62/102/69 57/122/69 76/103/69
f 64/96/70 63/101/70 68/105/70
f 61/106/71 66/111/71 67/107/71
f 43/86/60 65/130/60 60/109/60
f 62/108/72 67/107/72 68/105/72
f 60/109/73 65/130/73 66/111/73
f 69/112/74 68/115/74 46/71/74
f 66/113/75 44/74/75 45/69/75
f 67/114/76 45/69/76 46/71/76
f 65/116/77 43/72/77 44/74/77
f 55/82/52 59/66/52 47/68/52
f 73/117/78 74/118/78 78/104/78
f 73/117/79 75/120/79 77/98/79
f 72/119/92 56/121/92 75/120/92
f 60/99/81 77/98/81 75/120/81
f 61/97/93 62/102/93 78/104/93
f 72/119/94 73/117/94 76/103/94
f 79/123/84 80/92/84 84/91/84
f 79/123/85 81/95/85 83/94/85
f 71/125/95 79/123/95 82/124/95
f 53/126/87 82/124/87 84/91/87
f 72/90/96 80/92/96 83/94/96
f 71/125/97 70/93/97 81/95/97
