# Blender v2.81 (sub 16) OBJ File: 'garbage.blend'
# www.blender.org
v -0.438129 1.445120 0.384359
v -0.444927 1.424034 0.366172
v -0.447502 1.396068 0.360434
v -0.445164 1.368717 0.368683
v -0.438540 1.349309 0.388709
v -0.410921 1.445236 0.389482
v -0.397800 1.424235 0.375045
v -0.393085 1.396301 0.370681
v -0.398037 1.368918 0.377557
v -0.411331 1.349425 0.393833
v -0.374750 1.398592 0.422881
v -0.382159 1.370903 0.422764
v -0.402164 1.350571 0.419933
v -0.419794 1.447411 0.436559
v -0.410832 1.400652 0.464834
v -0.413407 1.372687 0.459096
v -0.420205 1.351601 0.440909
v -0.447003 1.447295 0.431435
v -0.460297 1.427802 0.447711
v -0.465249 1.400420 0.454587
v -0.460534 1.372486 0.450222
v -0.447413 1.351485 0.435786
v -0.456170 1.446149 0.405335
v -0.476175 1.425817 0.402504
v -0.483584 1.398128 0.402387
v -0.476412 1.370501 0.405016
v -0.456581 1.350339 0.409686
v -0.401753 1.446381 0.415582
v -0.381922 1.426219 0.420252
v -0.413170 1.428003 0.456585
v -0.442258 1.449454 0.491567
v -0.446103 1.449437 0.490843
v -0.430902 1.454072 0.457614
v -0.431575 1.417270 0.482435
v -0.444370 1.454015 0.455078
v -0.452466 1.417181 0.478501
v -0.363143 1.447497 0.459516
v -0.370539 1.447919 0.468115
v -0.378312 1.452308 0.449687
v -0.371496 1.426244 0.456266
v -0.381702 1.452502 0.453628
v -0.374895 1.426438 0.460219
vt 0.274240 0.539347
vt 0.265397 0.539709
vt 0.266768 0.532487
vt 0.231414 0.551290
vt 0.214659 0.541092
vt 0.231357 0.542861
vt 0.231940 0.569242
vt 0.215985 0.562822
vt 0.231472 0.559719
vt 0.230890 0.533338
vt 0.220414 0.530957
vt 0.213134 0.552274
vt 0.289666 0.544440
vt 0.282983 0.540904
vt 0.290637 0.536818
vt 0.279682 0.529141
vt 0.275518 0.536619
vt 0.273707 0.532162
vt 0.280945 0.538772
vt 0.286431 0.530872
vt 0.290637 0.551375
vt 0.284312 0.543753
vt 0.278488 0.537315
vt 0.276318 0.541045
vt 0.804698 0.251197
vt 0.792375 0.255919
vt 0.792638 0.252041
vt 0.786357 0.239035
vt 0.792578 0.249274
vt 0.791489 0.249454
vt 0.271776 0.541127
vt 0.760733 0.199751
vt 0.757502 0.209505
vt 0.750621 0.206121
vt 0.278108 0.542645
vt 0.273009 0.544115
vt 0.772804 0.201934
vt 0.766718 0.213101
vt 0.766203 0.208706
vt 0.264007 0.548518
vt 0.277612 0.547903
vt 0.268747 0.555467
vt 0.275021 0.546378
vt 0.280714 0.548498
vt 0.281954 0.545638
vt 0.276612 0.557409
vt 0.240880 0.530957
vt 0.248168 0.561486
vt 0.249693 0.550306
vt 0.246843 0.539760
vt 0.242415 0.571620
vt 0.762287 0.211045
vt 0.762255 0.210544
vt 0.761023 0.221925
vt 0.757316 0.212491
vt 0.750922 0.216572
vt 0.772804 0.220841
vt 0.791613 0.252007
vt 0.791097 0.255536
vt 0.780068 0.250772
vt 0.780487 0.263708
vt 0.804698 0.264828
vt 0.798786 0.238814
vt 0.221949 0.571626
vt 0.283377 0.553479
vn -0.0043 -0.9990 0.0454
vn 0.1793 -0.2700 -0.9460
vn 0.1427 0.6197 -0.7718
vn 0.1371 -0.6883 -0.7124
vn 0.1812 0.1816 -0.9665
vn 0.7161 0.6396 -0.2796
vn 0.7105 -0.6684 -0.2202
vn 0.9201 0.2072 -0.3323
vn 0.0043 0.9990 -0.0454
vn 0.9182 -0.2444 -0.3118
vn 0.5706 -0.6341 0.5219
vn -0.1025 -0.3248 0.9402
vn 0.7379 -0.2002 0.6445
vn -0.0798 0.9899 -0.1172
vn -0.1427 -0.6197 0.7718
vn -0.8461 0.5300 -0.0564
vn -0.1812 -0.1816 0.9665
vn -0.1115 -0.7848 0.6097
vn -0.7161 -0.6396 0.2796
vn -0.9182 0.2444 0.3118
vn -0.9201 -0.2072 0.3323
vn -0.7105 0.6684 0.2202
vn -0.5762 -0.6739 -0.4625
vn -0.7379 0.2002 -0.6445
vn -0.7399 -0.2514 -0.6240
vn -0.5706 0.6341 -0.5219
vn -0.1739 -0.3218 0.9307
vn -0.0279 0.9917 0.1256
vn 0.7856 0.5211 0.3336
vn 0.0483 0.9594 -0.2780
vn -0.9583 0.0846 0.2729
vn 0.7356 0.2525 0.6286
vn 0.6960 -0.3678 0.6167
vn 0.2166 0.9664 0.1388
vn 0.9375 0.2175 -0.2716
vn 0.5458 -0.6707 0.5023
vn -0.3943 0.5913 0.7035
vn 0.5640 0.5824 -0.5854
vn -0.0793 0.2816 0.9562
vn -0.8574 0.5141 0.0243
vn -0.1115 -0.7848 0.6096
vn 0.8043 0.5370 0.2544
vn -0.9159 0.2454 0.3176
vn 0.7927 0.0921 0.6026
vn 0.9109 -0.3177 -0.2635
vn -0.4689 0.6715 0.5737
vn 0.6581 0.5216 -0.5430
s off
f 17/1/1 27/2/1 5/3/1
f 3/4/2 9/5/2 4/6/2
f 1/7/3 7/8/3 2/9/3
f 5/10/4 9/5/4 10/11/4
f 2/9/5 8/12/5 3/4/5
f 6/13/6 29/14/6 7/15/6
f 9/16/7 13/17/7 10/18/7
f 7/15/8 11/19/8 8/20/8
f 1/21/9 28/22/9 6/13/9
f 8/20/10 12/23/10 9/16/10
f 13/17/11 16/24/11 17/1/11
f 30/25/12 42/26/12 38/27/12
f 11/19/13 16/24/13 12/23/13
f 28/28/14 41/29/14 39/30/14
f 16/24/15 22/31/15 17/1/15
f 19/32/16 35/33/16 18/34/16
f 15/35/17 21/36/17 16/24/17
f 20/37/18 34/38/18 36/39/18
f 22/31/19 26/40/19 27/2/19
f 19/41/20 25/42/20 20/43/20
f 1/21/9 18/44/9 14/45/9
f 20/43/21 26/40/21 21/36/21
f 18/44/22 24/46/22 19/41/22
f 27/47/23 4/6/23 5/10/23
f 24/48/24 3/4/24 25/49/24
f 25/49/25 4/6/25 26/50/25
f 23/51/26 2/9/26 24/48/26
f 13/17/1 5/3/1 10/18/1
f 31/52/27 36/39/27 34/38/27
f 31/52/28 35/33/28 32/53/28
f 30/54/29 33/55/29 31/52/29
f 18/34/30 33/55/30 14/56/30
f 19/32/31 36/39/31 32/53/31
f 30/54/32 34/38/32 15/57/32
f 37/58/33 42/26/33 40/59/33
f 37/58/34 41/29/34 38/27/34
f 29/60/35 40/59/35 11/61/35
f 11/61/36 42/26/36 15/62/36
f 30/25/37 41/29/37 14/63/37
f 29/60/38 39/30/38 37/58/38
f 17/1/1 22/31/1 27/2/1
f 3/4/2 8/12/2 9/5/2
f 1/7/3 6/64/3 7/8/3
f 5/10/4 4/6/4 9/5/4
f 2/9/5 7/8/5 8/12/5
f 6/13/6 28/22/6 29/14/6
f 9/16/7 12/23/7 13/17/7
f 7/15/8 29/14/8 11/19/8
f 1/21/9 14/45/9 28/22/9
f 8/20/10 11/19/10 12/23/10
f 13/17/11 12/23/11 16/24/11
f 30/25/39 15/62/39 42/26/39
f 11/19/13 15/35/13 16/24/13
f 28/28/14 14/63/14 41/29/14
f 16/24/15 21/36/15 22/31/15
f 19/32/40 32/53/40 35/33/40
f 15/35/17 20/43/17 21/36/17
f 20/37/41 15/57/41 34/38/41
f 22/31/19 21/36/19 26/40/19
f 19/41/20 24/46/20 25/42/20
f 1/21/9 23/65/9 18/44/9
f 20/43/21 25/42/21 26/40/21
f 18/44/22 23/65/22 24/46/22
f 27/47/23 26/50/23 4/6/23
f 24/48/24 2/9/24 3/4/24
f 25/49/25 3/4/25 4/6/25
f 23/51/26 1/7/26 2/9/26
f 13/17/1 17/1/1 5/3/1
f 31/52/27 32/53/27 36/39/27
f 31/52/28 33/55/28 35/33/28
f 30/54/42 14/56/42 33/55/42
f 18/34/30 35/33/30 33/55/30
f 19/32/43 20/37/43 36/39/43
f 30/54/44 31/52/44 34/38/44
f 37/58/33 38/27/33 42/26/33
f 37/58/34 39/30/34 41/29/34
f 29/60/45 37/58/45 40/59/45
f 11/61/36 40/59/36 42/26/36
f 30/25/46 38/27/46 41/29/46
f 29/60/47 28/28/47 39/30/47
v 0.058095 1.135187 -1.418327
v 0.066690 1.107932 -1.416108
v 0.060465 1.080075 -1.413489
v 0.041089 1.059081 -1.411170
v 0.013752 1.050574 -1.409775
v 0.046384 1.143710 -1.394731
v 0.046405 1.122694 -1.375239
v 0.037042 1.097121 -1.366297
v 0.020804 1.073843 -1.370301
v 0.002041 1.059097 -1.386179
v -0.012041 1.122731 -1.367422
v -0.021703 1.096022 -1.371275
v -0.022501 1.071902 -1.386742
v 0.009012 1.160796 -1.419451
v -0.037701 1.131295 -1.415738
v -0.043925 1.103438 -1.413119
v -0.035331 1.076184 -1.410900
v 0.020724 1.152273 -1.443047
v 0.001961 1.137527 -1.458925
v -0.014277 1.114249 -1.462930
v -0.023640 1.088676 -1.453988
v -0.023619 1.067661 -1.434496
v 0.045265 1.139469 -1.442485
v 0.044468 1.115348 -1.457951
v 0.034805 1.088639 -1.461805
v 0.018867 1.066497 -1.453014
v 0.000922 1.054856 -1.433933
v 0.021842 1.156515 -1.395293
v 0.003898 1.144873 -1.376213
v -0.018324 1.152289 -1.418056
v -0.031608 1.177406 -1.459561
v -0.029953 1.176202 -1.462895
v -0.003363 1.171835 -1.437784
v -0.040264 1.147700 -1.442951
v 0.002434 1.167616 -1.449464
v -0.031271 1.141156 -1.461068
v -0.026060 1.182909 -1.374536
v -0.031320 1.184664 -1.384440
v -0.011434 1.179983 -1.385822
v -0.030027 1.160608 -1.378892
v -0.013844 1.180787 -1.390361
v -0.032445 1.161415 -1.383444
vt 0.274240 0.539347
vt 0.265397 0.539709
vt 0.266768 0.532487
vt 0.231414 0.551290
vt 0.214659 0.541092
vt 0.231357 0.542861
vt 0.231940 0.569242
vt 0.215985 0.562822
vt 0.231472 0.559719
vt 0.230890 0.533338
vt 0.220414 0.530957
vt 0.213134 0.552274
vt 0.289666 0.544440
vt 0.282983 0.540904
vt 0.290637 0.536818
vt 0.279682 0.529141
vt 0.275518 0.536619
vt 0.273707 0.532162
vt 0.280945 0.538772
vt 0.286431 0.530872
vt 0.290637 0.551375
vt 0.284312 0.543753
vt 0.278488 0.537315
vt 0.276318 0.541045
vt 0.804698 0.251197
vt 0.792375 0.255919
vt 0.792638 0.252041
vt 0.786357 0.239035
vt 0.792578 0.249274
vt 0.791489 0.249454
vt 0.271776 0.541127
vt 0.760733 0.199751
vt 0.757502 0.209505
vt 0.750621 0.206121
vt 0.278108 0.542645
vt 0.273009 0.544115
vt 0.772804 0.201934
vt 0.766718 0.213101
vt 0.766203 0.208706
vt 0.264007 0.548518
vt 0.277612 0.547903
vt 0.268747 0.555467
vt 0.275021 0.546378
vt 0.280714 0.548498
vt 0.281954 0.545638
vt 0.276612 0.557409
vt 0.240880 0.530957
vt 0.248168 0.561486
vt 0.249693 0.550306
vt 0.246843 0.539760
vt 0.242415 0.571620
vt 0.762287 0.211045
vt 0.762255 0.210544
vt 0.761023 0.221925
vt 0.757316 0.212491
vt 0.750922 0.216572
vt 0.772804 0.220841
vt 0.791613 0.252007
vt 0.791097 0.255536
vt 0.780068 0.250772
vt 0.780487 0.263708
vt 0.804698 0.264828
vt 0.798786 0.238814
vt 0.221949 0.571626
vt 0.283377 0.553479
vn -0.4623 -0.8822 0.0892
vn 0.6546 -0.5465 0.5223
vn 0.8918 0.3082 0.3313
vn 0.2864 -0.8469 0.4481
vn 0.8636 -0.1477 0.4820
vn 0.3203 0.6444 0.6944
vn -0.2850 -0.5107 0.8111
vn 0.1272 0.2856 0.9499
vn 0.4623 0.8822 -0.0892
vn -0.0818 -0.1133 0.9902
vn -0.8741 -0.2414 0.4215
vn -0.9229 0.0282 -0.3840
vn -0.8409 0.2338 0.4880
vn 0.5432 0.8275 -0.1419
vn -0.8918 -0.3082 -0.3313
vn 0.5019 0.2523 -0.8273
vn -0.8636 0.1477 -0.4820
vn -0.8302 -0.5085 -0.2284
vn -0.3203 -0.6444 -0.6944
vn 0.0818 0.1133 -0.9902
vn -0.1272 -0.2856 -0.9499
vn 0.2851 0.5107 -0.8111
vn 0.2688 -0.9137 -0.3047
vn 0.8409 -0.2338 -0.4880
vn 0.6319 -0.6326 -0.4477
vn 0.8741 0.2413 -0.4215
vn -0.8942 0.0103 -0.4475
vn 0.3202 0.9306 -0.1772
vn -0.2787 0.7795 0.5609
vn 0.6348 0.7719 0.0363
vn 0.0583 -0.0542 -0.9968
vn -0.6343 0.6342 0.4421
vn -0.8768 0.0628 0.4768
vn 0.2321 0.9715 0.0489
vn 0.0744 0.3212 0.9441
vn -0.8661 -0.2874 0.4090
vn -0.2506 0.6947 -0.6743
vn 0.6013 0.4443 0.6641
vn -0.2851 -0.5107 0.8111
vn -0.8741 -0.2413 0.4215
vn -0.6855 0.5847 -0.4338
vn 0.5432 0.8275 -0.1418
vn 0.4285 0.2649 -0.8638
vn 0.2850 0.5107 -0.8111
vn 0.8741 0.2414 -0.4215
vn -0.2086 0.7692 0.6040
vn 0.0766 0.1169 -0.9902
vn -0.6954 0.4943 0.5217
vn -0.1527 -0.1632 0.9747
vn -0.8661 -0.2874 0.4091
vn -0.0843 0.7012 -0.7079
vn 0.5134 0.4278 0.7439
s off
f 59/66/48 69/67/48 47/68/48
f 45/69/49 51/70/49 46/71/49
f 43/72/50 49/73/50 44/74/50
f 47/75/51 51/70/51 52/76/51
f 44/74/52 50/77/52 45/69/52
f 48/78/53 71/79/53 49/80/53
f 51/81/54 55/82/54 52/83/54
f 49/80/55 53/84/55 50/85/55
f 43/86/56 70/87/56 48/78/56
f 50/85/57 54/88/57 51/81/57
f 55/82/58 58/89/58 59/66/58
f 72/90/59 84/91/59 80/92/59
f 53/84/60 58/89/60 54/88/60
f 70/93/61 83/94/61 81/95/61
f 58/89/62 64/96/62 59/66/62
f 61/97/63 77/98/63 60/99/63
f 57/100/64 63/101/64 58/89/64
f 62/102/65 76/103/65 78/104/65
f 64/96/66 68/105/66 69/67/66
f 61/106/67 67/107/67 62/108/67
f 43/86/56 60/109/56 56/110/56
f 62/108/68 68/105/68 63/101/68
f 60/109/69 66/111/69 61/106/69
f 69/112/70 46/71/70 47/75/70
f 66/113/71 45/69/71 67/114/71
f 67/114/72 46/71/72 68/115/72
f 65/116/73 44/74/73 66/113/73
f 55/82/48 47/68/48 52/83/48
f 73/117/74 78/104/74 76/103/74
f 73/117/75 77/98/75 74/118/75
f 72/119/76 75/120/76 73/117/76
f 60/99/77 75/120/77 56/121/77
f 61/97/78 78/104/78 74/118/78
f 72/119/79 76/103/79 57/122/79
f 79/123/80 84/91/80 82/124/80
f 79/123/81 83/94/81 80/92/81
f 71/125/82 82/124/82 53/126/82
f 53/126/83 84/91/83 57/127/83
f 72/90/84 83/94/84 56/128/84
f 71/125/85 81/95/85 79/123/85
f 59/66/48 64/96/48 69/67/48
f 45/69/49 50/77/49 51/70/49
f 43/72/50 48/129/50 49/73/50
f 47/75/51 46/71/51 51/70/51
f 44/74/52 49/73/52 50/77/52
f 48/78/53 70/87/53 71/79/53
f 51/81/86 54/88/86 55/82/86
f 49/80/55 71/79/55 53/84/55
f 43/86/56 56/110/56 70/87/56
f 50/85/57 53/84/57 54/88/57
f 55/82/87 54/88/87 58/89/87
f 72/90/88 57/127/88 84/91/88
f 53/84/60 57/100/60 58/89/60
f 70/93/89 56/128/89 83/94/89
f 58/89/62 63/101/62 64/96/62
f 61/97/90 74/118/90 77/98/90
f 57/100/64 62/108/64 63/101/64
f 62/102/65 57/122/65 76/103/65
f 64/96/66 63/101/66 68/105/66
f 61/106/67 66/111/67 67/107/67
f 43/86/56 65/130/56 60/109/56
f 62/108/68 67/107/68 68/105/68
f 60/109/91 65/130/91 66/111/91
f 69/112/70 68/115/70 46/71/70
f 66/113/71 44/74/71 45/69/71
f 67/114/72 45/69/72 46/71/72
f 65/116/92 43/72/92 44/74/92
f 55/82/48 59/66/48 47/68/48
f 73/117/74 74/118/74 78/104/74
f 73/117/75 75/120/75 77/98/75
f 72/119/93 56/121/93 75/120/93
f 60/99/77 77/98/77 75/120/77
f 61/97/94 62/102/94 78/104/94
f 72/119/95 73/117/95 76/103/95
f 79/123/80 80/92/80 84/91/80
f 79/123/81 81/95/81 83/94/81
f 71/125/96 79/123/96 82/124/96
f 53/126/97 82/124/97 84/91/97
f 72/90/98 80/92/98 83/94/98
f 71/125/99 70/93/99 81/95/99
