# Blender v2.81 (sub 16) OBJ File: 'garbage.blend'
# www.blender.org
v 0.184553 1.362671 -0.041048
v 0.176923 1.348080 -0.017585
v 0.169520 1.323410 -0.005008
v 0.164328 1.295271 -0.006687
v 0.162738 1.271202 -0.022171
v 0.163541 1.363971 -0.059031
v 0.140530 1.350332 -0.048732
v 0.127497 1.326010 -0.040974
v 0.127935 1.297522 -0.037834
v 0.141727 1.272502 -0.040154
v 0.135748 1.313063 -0.094177
v 0.135080 1.286309 -0.083909
v 0.145852 1.266028 -0.066756
v 0.192803 1.349723 -0.094251
v 0.186021 1.297515 -0.111414
v 0.178618 1.272845 -0.098837
v 0.170989 1.258254 -0.075374
v 0.213815 1.348423 -0.076268
v 0.227606 1.323403 -0.078588
v 0.228044 1.294915 -0.075448
v 0.215012 1.270593 -0.067689
v 0.192000 1.256954 -0.057391
v 0.209689 1.354897 -0.049666
v 0.220461 1.334616 -0.032513
v 0.219794 1.307863 -0.022245
v 0.207866 1.281806 -0.021614
v 0.187875 1.263428 -0.030790
v 0.167666 1.357497 -0.085632
v 0.147675 1.339119 -0.094807
v 0.191213 1.325655 -0.109735
v 0.237243 1.331334 -0.129202
v 0.240212 1.331150 -0.126661
v 0.213445 1.347943 -0.107734
v 0.215886 1.305203 -0.119490
v 0.223846 1.347299 -0.098833
v 0.232019 1.304205 -0.105682
v 0.154524 1.348274 -0.141885
v 0.164829 1.345087 -0.145418
v 0.164340 1.354405 -0.127191
v 0.154882 1.328490 -0.130032
v 0.169063 1.352944 -0.128810
v 0.159618 1.327025 -0.131656
vt 0.274240 0.539347
vt 0.265397 0.539709
vt 0.266768 0.532487
vt 0.231414 0.551290
vt 0.214659 0.541092
vt 0.231357 0.542861
vt 0.231940 0.569242
vt 0.215985 0.562822
vt 0.231472 0.559719
vt 0.230890 0.533338
vt 0.220414 0.530957
vt 0.213134 0.552274
vt 0.289666 0.544440
vt 0.282983 0.540904
vt 0.290637 0.536818
vt 0.279682 0.529141
vt 0.275518 0.536619
vt 0.273707 0.532162
vt 0.280945 0.538772
vt 0.286431 0.530872
vt 0.290637 0.551375
vt 0.284312 0.543753
vt 0.278488 0.537315
vt 0.276318 0.541045
vt 0.804698 0.251197
vt 0.792375 0.255919
vt 0.792638 0.252041
vt 0.786357 0.239035
vt 0.792578 0.249274
vt 0.791489 0.249454
vt 0.271776 0.541127
vt 0.760733 0.199751
vt 0.757502 0.209505
vt 0.750621 0.206121
vt 0.278108 0.542645
vt 0.273009 0.544115
vt 0.772804 0.201934
vt 0.766718 0.213101
vt 0.766203 0.208706
vt 0.264007 0.548518
vt 0.277612 0.547903
vt 0.268747 0.555467
vt 0.275021 0.546378
vt 0.280714 0.548498
vt 0.281954 0.545638
vt 0.276612 0.557409
vt 0.240880 0.530957
vt 0.248168 0.561486
vt 0.249693 0.550306
vt 0.246843 0.539760
vt 0.242415 0.571620
vt 0.762287 0.211045
vt 0.762255 0.210544
vt 0.761023 0.221925
vt 0.757316 0.212491
vt 0.750922 0.216572
vt 0.772804 0.220841
vt 0.791613 0.252007
vt 0.791097 0.255536
vt 0.780068 0.250772
vt 0.780487 0.263708
vt 0.804698 0.264828
vt 0.798786 0.238814
vt 0.221949 0.571626
vt 0.283377 0.553479
vn -0.2275 -0.9537 0.1968
vn -0.6458 0.0738 0.7599
vn -0.3124 0.8489 0.4263
vn -0.6102 -0.3998 0.6840
vn -0.5430 0.5050 0.6709
vn -0.5785 0.7674 -0.2765
vn -0.8764 -0.4813 -0.0188
vn -0.8860 0.3999 -0.2347
vn 0.2274 0.9537 -0.1968
vn -0.9888 -0.0313 -0.1457
vn -0.4151 -0.7059 -0.5739
vn 0.4277 -0.6226 -0.6553
vn -0.3944 -0.3207 -0.8612
vn 0.2650 0.9598 -0.0926
vn 0.3124 -0.8489 -0.4263
vn 0.8339 0.4272 0.3494
vn 0.5430 -0.5050 -0.6709
vn 0.1713 -0.9479 -0.2687
vn 0.5785 -0.7674 0.2765
vn 0.9888 0.0313 0.1457
vn 0.2275 0.9537 -0.1968
vn 0.8860 -0.3999 0.2347
vn 0.8764 0.4813 0.0188
vn 0.1173 -0.5428 0.8316
vn 0.3944 0.3207 0.8612
vn 0.2916 -0.1105 0.9501
vn 0.4151 0.7059 0.5739
vn 0.4853 -0.6242 -0.6122
vn 0.3298 0.8877 -0.3212
vn -0.3931 0.4634 -0.7942
vn 0.0755 0.9970 -0.0161
vn 0.9656 -0.1103 0.2354
vn -0.2856 0.1095 -0.9521
vn -0.4131 -0.4735 -0.7779
vn 0.1197 0.8853 -0.4493
vn -0.8711 0.3916 -0.2964
vn -0.4118 -0.7365 -0.5366
vn 0.8024 0.2845 -0.5247
vn -0.5996 0.7974 0.0679
vn -0.8763 -0.4813 -0.0188
vn -0.4151 -0.7059 -0.5740
vn 0.5675 -0.0557 -0.8215
vn 0.2651 0.9598 -0.0926
vn 0.8757 0.3849 0.2916
vn 0.8763 0.4813 0.0188
vn -0.4407 0.5061 -0.7414
vn 0.9897 0.0306 0.1395
vn -0.3866 -0.0267 -0.9219
vn -0.9793 -0.1167 -0.1652
vn 0.8284 0.3944 -0.3977
vn -0.6766 0.7363 -0.0006
s off
f 17/1/1 27/2/1 5/3/1
f 3/4/2 9/5/2 4/6/2
f 1/7/3 7/8/3 2/9/3
f 5/10/4 9/5/4 10/11/4
f 2/9/5 8/12/5 3/4/5
f 6/13/6 29/14/6 7/15/6
f 9/16/7 13/17/7 10/18/7
f 7/15/8 11/19/8 8/20/8
f 1/21/9 28/22/9 6/13/9
f 8/20/10 12/23/10 9/16/10
f 13/17/11 16/24/11 17/1/11
f 30/25/12 42/26/12 38/27/12
f 11/19/13 16/24/13 12/23/13
f 28/28/14 41/29/14 39/30/14
f 16/24/15 22/31/15 17/1/15
f 19/32/16 35/33/16 18/34/16
f 15/35/17 21/36/17 16/24/17
f 20/37/18 34/38/18 36/39/18
f 22/31/19 26/40/19 27/2/19
f 19/41/20 25/42/20 20/43/20
f 1/21/21 18/44/21 14/45/21
f 20/43/22 26/40/22 21/36/22
f 18/44/23 24/46/23 19/41/23
f 27/47/24 4/6/24 5/10/24
f 24/48/25 3/4/25 25/49/25
f 25/49/26 4/6/26 26/50/26
f 23/51/27 2/9/27 24/48/27
f 13/17/1 5/3/1 10/18/1
f 31/52/28 36/39/28 34/38/28
f 31/52/29 35/33/29 32/53/29
f 30/54/30 33/55/30 31/52/30
f 18/34/31 33/55/31 14/56/31
f 19/32/32 36/39/32 32/53/32
f 30/54/33 34/38/33 15/57/33
f 37/58/34 42/26/34 40/59/34
f 37/58/35 41/29/35 38/27/35
f 29/60/36 40/59/36 11/61/36
f 11/61/37 42/26/37 15/62/37
f 30/25/38 41/29/38 14/63/38
f 29/60/39 39/30/39 37/58/39
f 17/1/1 22/31/1 27/2/1
f 3/4/2 8/12/2 9/5/2
f 1/7/3 6/64/3 7/8/3
f 5/10/4 4/6/4 9/5/4
f 2/9/5 7/8/5 8/12/5
f 6/13/6 28/22/6 29/14/6
f 9/16/40 12/23/40 13/17/40
f 7/15/8 29/14/8 11/19/8
f 1/21/21 14/45/21 28/22/21
f 8/20/10 11/19/10 12/23/10
f 13/17/41 12/23/41 16/24/41
f 30/25/42 15/62/42 42/26/42
f 11/19/13 15/35/13 16/24/13
f 28/28/43 14/63/43 41/29/43
f 16/24/15 21/36/15 22/31/15
f 19/32/44 32/53/44 35/33/44
f 15/35/17 20/43/17 21/36/17
f 20/37/18 15/57/18 34/38/18
f 22/31/19 21/36/19 26/40/19
f 19/41/20 24/46/20 25/42/20
f 1/21/21 23/65/21 18/44/21
f 20/43/22 25/42/22 26/40/22
f 18/44/45 23/65/45 24/46/45
f 27/47/24 26/50/24 4/6/24
f 24/48/25 2/9/25 3/4/25
f 25/49/26 3/4/26 4/6/26
f 23/51/27 1/7/27 2/9/27
f 13/17/1 17/1/1 5/3/1
f 31/52/28 32/53/28 36/39/28
f 31/52/29 33/55/29 35/33/29
f 30/54/46 14/56/46 33/55/46
f 18/34/31 35/33/31 33/55/31
f 19/32/47 20/37/47 36/39/47
f 30/54/48 31/52/48 34/38/48
f 37/58/34 38/27/34 42/26/34
f 37/58/35 39/30/35 41/29/35
f 29/60/49 37/58/49 40/59/49
f 11/61/37 40/59/37 42/26/37
f 30/25/50 38/27/50 41/29/50
f 29/60/51 28/28/51 39/30/51
v -0.605959 1.120079 0.334261
v -0.613107 1.094609 0.323227
v -0.611252 1.066007 0.323564
v -0.600892 1.041939 0.335182
v -0.584802 1.028853 0.354968
v -0.579102 1.125363 0.330095
v -0.566589 1.103759 0.316013
v -0.557538 1.076573 0.315234
v -0.554374 1.051089 0.327968
v -0.557945 1.034136 0.350803
v -0.525794 1.093491 0.357334
v -0.526883 1.065741 0.364427
v -0.542073 1.042595 0.371852
v -0.574215 1.136997 0.376360
v -0.547765 1.099843 0.407764
v -0.545910 1.071241 0.408101
v -0.553058 1.045771 0.397067
v -0.601072 1.131714 0.380525
v -0.604643 1.114761 0.403360
v -0.601479 1.089277 0.416094
v -0.592428 1.062091 0.415316
v -0.579915 1.040487 0.401233
v -0.616944 1.123255 0.359476
v -0.632134 1.100109 0.366901
v -0.633223 1.072359 0.373994
v -0.619919 1.047439 0.378856
v -0.595787 1.032028 0.380183
v -0.563230 1.133821 0.351145
v -0.539098 1.118411 0.352472
v -0.558125 1.123911 0.396146
v -0.579689 1.148338 0.434464
v -0.583485 1.147591 0.435053
v -0.579897 1.146626 0.398408
v -0.565550 1.116841 0.428037
v -0.593191 1.144010 0.400470
v -0.586170 1.112785 0.431235
v -0.514704 1.150678 0.379132
v -0.519208 1.151980 0.389469
v -0.532729 1.150817 0.374135
v -0.518943 1.128259 0.382514
v -0.534793 1.151414 0.378873
v -0.521013 1.128857 0.387265
vt 0.274240 0.539347
vt 0.265397 0.539709
vt 0.266768 0.532487
vt 0.231414 0.551290
vt 0.214659 0.541092
vt 0.231357 0.542861
vt 0.231940 0.569242
vt 0.215985 0.562822
vt 0.231472 0.559719
vt 0.230890 0.533338
vt 0.220414 0.530957
vt 0.213134 0.552274
vt 0.289666 0.544440
vt 0.282983 0.540904
vt 0.290637 0.536818
vt 0.279682 0.529141
vt 0.275518 0.536619
vt 0.273707 0.532162
vt 0.280945 0.538772
vt 0.286431 0.530872
vt 0.290637 0.551375
vt 0.284312 0.543753
vt 0.278488 0.537315
vt 0.276318 0.541045
vt 0.804698 0.251197
vt 0.792375 0.255919
vt 0.792638 0.252041
vt 0.786357 0.239035
vt 0.792578 0.249274
vt 0.791489 0.249454
vt 0.271776 0.541127
vt 0.760733 0.199751
vt 0.757502 0.209505
vt 0.750621 0.206121
vt 0.278108 0.542645
vt 0.273009 0.544115
vt 0.772804 0.201934
vt 0.766718 0.213101
vt 0.766203 0.208706
vt 0.264007 0.548518
vt 0.277612 0.547903
vt 0.268747 0.555467
vt 0.275021 0.546378
vt 0.280714 0.548498
vt 0.281954 0.545638
vt 0.276612 0.557409
vt 0.240880 0.530957
vt 0.248168 0.561486
vt 0.249693 0.550306
vt 0.246843 0.539760
vt 0.242415 0.571620
vt 0.762287 0.211045
vt 0.762255 0.210544
vt 0.761023 0.221925
vt 0.757316 0.212491
vt 0.750922 0.216572
vt 0.772804 0.220841
vt 0.791613 0.252007
vt 0.791097 0.255536
vt 0.780068 0.250772
vt 0.780487 0.263708
vt 0.804698 0.264828
vt 0.798786 0.238814
vt 0.221949 0.571626
vt 0.283377 0.553479
vn 0.2206 -0.9512 0.2159
vn -0.0494 -0.4513 -0.8910
vn -0.2214 0.4393 -0.8706
vn 0.0674 -0.8061 -0.5879
vn -0.1491 -0.0213 -0.9886
vn 0.4521 0.6559 -0.6045
vn 0.7409 -0.5895 -0.3218
vn 0.7188 0.2578 -0.6456
vn -0.2206 0.9512 -0.2159
vn 0.8186 -0.1722 -0.5480
vn 0.8180 -0.4061 0.4075
vn 0.2453 -0.1110 0.9631
vn 0.9178 0.0641 0.3918
vn -0.3179 0.9136 -0.2536
vn 0.2214 -0.4393 0.8706
vn -0.9184 0.3727 0.1331
vn 0.1491 0.0213 0.9886
vn 0.2386 -0.6309 0.7383
vn -0.4521 -0.6559 0.6045
vn -0.8186 0.1722 0.5480
vn -0.7188 -0.2578 0.6456
vn -0.7409 0.5895 0.3218
vn -0.5291 -0.8393 -0.1248
vn -0.9178 -0.0641 -0.3918
vn -0.8181 -0.4941 -0.2942
vn -0.8180 0.4061 -0.4075
vn 0.1753 -0.1207 0.9771
vn -0.1996 0.9788 -0.0453
vn 0.7196 0.6934 -0.0371
vn -0.2385 0.8659 -0.4396
vn -0.8334 0.0037 0.5526
vn 0.8152 0.4956 0.2997
vn 0.9061 -0.1097 0.4086
vn 0.0378 0.9934 -0.1087
vn 0.7505 0.2842 -0.5967
vn 0.7968 -0.4494 0.4038
vn -0.2895 0.6730 0.6806
vn 0.2337 0.5082 -0.8289
vn 0.1433 0.4796 0.8657
vn -0.9021 0.3744 0.2144
vn -0.8181 -0.4942 -0.2942
vn 0.7108 0.6932 -0.1195
vn -0.8150 0.1749 0.5525
vn 0.8949 0.3437 0.2845
vn 0.8412 -0.2327 -0.4881
vn 0.7968 -0.4495 0.4038
vn -0.4137 0.7094 0.5706
vn 0.3467 0.4732 -0.8098
s off
f 59/66/52 69/67/52 47/68/52
f 45/69/53 51/70/53 46/71/53
f 43/72/54 49/73/54 44/74/54
f 47/75/55 51/70/55 52/76/55
f 44/74/56 50/77/56 45/69/56
f 48/78/57 71/79/57 49/80/57
f 51/81/58 55/82/58 52/83/58
f 49/80/59 53/84/59 50/85/59
f 43/86/60 70/87/60 48/78/60
f 50/85/61 54/88/61 51/81/61
f 55/82/62 58/89/62 59/66/62
f 72/90/63 84/91/63 80/92/63
f 53/84/64 58/89/64 54/88/64
f 70/93/65 83/94/65 81/95/65
f 58/89/66 64/96/66 59/66/66
f 61/97/67 77/98/67 60/99/67
f 57/100/68 63/101/68 58/89/68
f 62/102/69 76/103/69 78/104/69
f 64/96/70 68/105/70 69/67/70
f 61/106/71 67/107/71 62/108/71
f 43/86/60 60/109/60 56/110/60
f 62/108/72 68/105/72 63/101/72
f 60/109/73 66/111/73 61/106/73
f 69/112/74 46/71/74 47/75/74
f 66/113/75 45/69/75 67/114/75
f 67/114/76 46/71/76 68/115/76
f 65/116/77 44/74/77 66/113/77
f 55/82/52 47/68/52 52/83/52
f 73/117/78 78/104/78 76/103/78
f 73/117/79 77/98/79 74/118/79
f 72/119/80 75/120/80 73/117/80
f 60/99/81 75/120/81 56/121/81
f 61/97/82 78/104/82 74/118/82
f 72/119/83 76/103/83 57/122/83
f 79/123/84 84/91/84 82/124/84
f 79/123/85 83/94/85 80/92/85
f 71/125/86 82/124/86 53/126/86
f 53/126/87 84/91/87 57/127/87
f 72/90/88 83/94/88 56/128/88
f 71/125/89 81/95/89 79/123/89
f 59/66/52 64/96/52 69/67/52
f 45/69/53 50/77/53 51/70/53
f 43/72/54 48/129/54 49/73/54
f 47/75/55 46/71/55 51/70/55
f 44/74/56 49/73/56 50/77/56
f 48/78/57 70/87/57 71/79/57
f 51/81/58 54/88/58 55/82/58
f 49/80/59 71/79/59 53/84/59
f 43/86/60 56/110/60 70/87/60
f 50/85/61 53/84/61 54/88/61
f 55/82/62 54/88/62 58/89/62
f 72/90/90 57/127/90 84/91/90
f 53/84/64 57/100/64 58/89/64
f 70/93/65 56/128/65 83/94/65
f 58/89/66 63/101/66 64/96/66
f 61/97/91 74/118/91 77/98/91
f 57/100/68 62/108/68 63/101/68
f 62/102/69 57/122/69 76/103/69
f 64/96/70 63/101/70 68/105/70
f 61/106/71 66/111/71 67/107/71
f 43/86/60 65/130/60 60/109/60
f 62/108/72 67/107/72 68/105/72
f 60/109/73 65/130/73 66/111/73
f 69/112/74 68/115/74 46/71/74
f 66/113/75 44/74/75 45/69/75
f 67/114/92 45/69/92 46/71/92
f 65/116/77 43/72/77 44/74/77
f 55/82/52 59/66/52 47/68/52
f 73/117/78 74/118/78 78/104/78
f 73/117/79 75/120/79 77/98/79
f 72/119/93 56/121/93 75/120/93
f 60/99/81 77/98/81 75/120/81
f 61/97/94 62/102/94 78/104/94
f 72/119/95 73/117/95 76/103/95
f 79/123/84 80/92/84 84/91/84
f 79/123/85 81/95/85 83/94/85
f 71/125/96 79/123/96 82/124/96
f 53/126/97 82/124/97 84/91/97
f 72/90/98 80/92/98 83/94/98
f 71/125/99 70/93/99 81/95/99
