# Blender v2.81 (sub 16) OBJ File: 'garbage.blend'
# www.blender.org
v -0.232084 1.461656 0.685241
v -0.249344 1.440584 0.676318
v -0.254845 1.412620 0.673256
v -0.247113 1.385258 0.676877
v -0.228218 1.365829 0.686210
v -0.208937 1.462436 0.670069
v -0.209253 1.441935 0.650039
v -0.208552 1.414181 0.642912
v -0.207022 1.386609 0.650598
v -0.205071 1.366609 0.671038
v -0.159163 1.416425 0.667851
v -0.164249 1.388553 0.672196
v -0.180377 1.367731 0.683507
v -0.182695 1.463900 0.710180
v -0.156067 1.417109 0.723134
v -0.161568 1.389145 0.720072
v -0.178829 1.368073 0.711149
v -0.205841 1.463120 0.725352
v -0.203891 1.443120 0.745791
v -0.202360 1.415548 0.753478
v -0.201659 1.387794 0.746351
v -0.201976 1.367293 0.726321
v -0.230536 1.461998 0.712882
v -0.246663 1.441176 0.724194
v -0.251749 1.413304 0.728539
v -0.244431 1.385850 0.724753
v -0.226670 1.366171 0.713851
v -0.184243 1.463559 0.682538
v -0.166481 1.443879 0.671636
v -0.163800 1.444471 0.719513
v -0.160734 1.464794 0.765421
v -0.164005 1.464683 0.767565
v -0.176166 1.470053 0.733214
v -0.158993 1.432997 0.750615
v -0.187623 1.469667 0.740725
v -0.176765 1.432398 0.762265
v -0.125973 1.465245 0.687436
v -0.125339 1.465385 0.698768
v -0.143773 1.469754 0.690998
v -0.133989 1.443813 0.690344
v -0.143482 1.469819 0.696192
v -0.133697 1.443877 0.695552
vt 0.274240 0.539347
vt 0.265397 0.539709
vt 0.266768 0.532487
vt 0.231414 0.551290
vt 0.214659 0.541092
vt 0.231357 0.542861
vt 0.231940 0.569242
vt 0.215985 0.562822
vt 0.231472 0.559719
vt 0.230890 0.533338
vt 0.220414 0.530957
vt 0.213134 0.552274
vt 0.289666 0.544440
vt 0.282983 0.540904
vt 0.290637 0.536818
vt 0.279682 0.529141
vt 0.275518 0.536619
vt 0.273707 0.532162
vt 0.280945 0.538772
vt 0.286431 0.530872
vt 0.290637 0.551375
vt 0.284312 0.543753
vt 0.278488 0.537315
vt 0.276318 0.541045
vt 0.804698 0.251197
vt 0.792375 0.255919
vt 0.792638 0.252041
vt 0.786357 0.239035
vt 0.792578 0.249274
vt 0.791489 0.249454
vt 0.271776 0.541127
vt 0.760733 0.199751
vt 0.757502 0.209505
vt 0.750621 0.206121
vt 0.278108 0.542645
vt 0.273009 0.544115
vt 0.772804 0.201934
vt 0.766718 0.213101
vt 0.766203 0.208706
vt 0.264007 0.548518
vt 0.277612 0.547903
vt 0.268747 0.555467
vt 0.275021 0.546378
vt 0.280714 0.548498
vt 0.281954 0.545638
vt 0.276612 0.557409
vt 0.240880 0.530957
vt 0.248168 0.561486
vt 0.249693 0.550306
vt 0.246843 0.539760
vt 0.242415 0.571620
vt 0.762287 0.211045
vt 0.762255 0.210544
vt 0.761023 0.221925
vt 0.757316 0.212491
vt 0.750922 0.216572
vt 0.772804 0.220841
vt 0.791613 0.252007
vt 0.791097 0.255536
vt 0.780068 0.250772
vt 0.780487 0.263708
vt 0.804698 0.264828
vt 0.798786 0.238814
vt 0.221949 0.571626
vt 0.283377 0.553479
vn 0.0403 -0.9991 0.0101
vn -0.5240 -0.2556 -0.8125
vn -0.4401 0.6310 -0.6389
vn -0.3873 -0.6772 -0.6257
vn -0.5422 0.1961 -0.8171
vn 0.3141 0.6610 -0.6815
vn 0.3668 -0.6472 -0.6683
vn 0.4296 0.2348 -0.8720
vn -0.0403 0.9991 -0.0101
vn 0.4478 -0.2169 -0.8674
vn 0.7805 -0.6241 -0.0360
vn 0.5823 -0.3369 0.7399
vn 0.9809 -0.1872 -0.0526
vn -0.1506 0.9886 -0.0038
vn 0.4400 -0.6310 0.6389
vn -0.6548 0.5081 0.5596
vn 0.5422 -0.1961 0.8171
vn 0.3520 -0.7936 0.4963
vn -0.3141 -0.6610 0.6815
vn -0.4478 0.2169 0.8674
vn -0.4296 -0.2348 0.8720
vn -0.3669 0.6472 0.6683
vn -0.7277 -0.6841 0.0492
vn -0.9809 0.1872 0.0526
vn -0.9627 -0.2645 0.0572
vn -0.7805 0.6241 0.0360
vn 0.5243 -0.3357 0.7826
vn 0.0552 0.9893 0.1351
vn 0.7909 0.5382 -0.2911
vn -0.1696 0.9631 -0.2092
vn -0.5018 0.0566 0.8631
vn 0.9628 0.2654 -0.0509
vn 0.9334 -0.3556 -0.0479
vn 0.2407 0.9703 -0.0255
vn 0.4841 0.2449 -0.8400
vn 0.7495 -0.6612 -0.0338
vn 0.1971 0.5736 0.7951
vn -0.0069 0.6030 -0.7977
vn 0.3669 -0.6472 -0.6683
vn 0.6029 0.2698 0.7508
vn 0.4401 -0.6310 0.6389
vn -0.6067 0.4911 0.6251
vn -0.3668 0.6472 0.6683
vn 0.7493 0.5554 -0.3607
vn -0.4422 0.2180 0.8700
vn 0.9878 0.1068 -0.1133
vn 0.4769 -0.2909 -0.8294
vn 0.7495 -0.6611 -0.0338
vn 0.0523 0.6531 0.7555
vn 0.0910 0.5442 -0.8340
s off
f 17/1/1 27/2/1 5/3/1
f 3/4/2 9/5/2 4/6/2
f 1/7/3 7/8/3 2/9/3
f 5/10/4 9/5/4 10/11/4
f 2/9/5 8/12/5 3/4/5
f 6/13/6 29/14/6 7/15/6
f 9/16/7 13/17/7 10/18/7
f 7/15/8 11/19/8 8/20/8
f 1/21/9 28/22/9 6/13/9
f 8/20/10 12/23/10 9/16/10
f 13/17/11 16/24/11 17/1/11
f 30/25/12 42/26/12 38/27/12
f 11/19/13 16/24/13 12/23/13
f 28/28/14 41/29/14 39/30/14
f 16/24/15 22/31/15 17/1/15
f 19/32/16 35/33/16 18/34/16
f 15/35/17 21/36/17 16/24/17
f 20/37/18 34/38/18 36/39/18
f 22/31/19 26/40/19 27/2/19
f 19/41/20 25/42/20 20/43/20
f 1/21/9 18/44/9 14/45/9
f 20/43/21 26/40/21 21/36/21
f 18/44/22 24/46/22 19/41/22
f 27/47/23 4/6/23 5/10/23
f 24/48/24 3/4/24 25/49/24
f 25/49/25 4/6/25 26/50/25
f 23/51/26 2/9/26 24/48/26
f 13/17/1 5/3/1 10/18/1
f 31/52/27 36/39/27 34/38/27
f 31/52/28 35/33/28 32/53/28
f 30/54/29 33/55/29 31/52/29
f 18/34/30 33/55/30 14/56/30
f 19/32/31 36/39/31 32/53/31
f 30/54/32 34/38/32 15/57/32
f 37/58/33 42/26/33 40/59/33
f 37/58/34 41/29/34 38/27/34
f 29/60/35 40/59/35 11/61/35
f 11/61/36 42/26/36 15/62/36
f 30/25/37 41/29/37 14/63/37
f 29/60/38 39/30/38 37/58/38
f 17/1/1 22/31/1 27/2/1
f 3/4/2 8/12/2 9/5/2
f 1/7/3 6/64/3 7/8/3
f 5/10/4 4/6/4 9/5/4
f 2/9/5 7/8/5 8/12/5
f 6/13/6 28/22/6 29/14/6
f 9/16/39 12/23/39 13/17/39
f 7/15/8 29/14/8 11/19/8
f 1/21/9 14/45/9 28/22/9
f 8/20/10 11/19/10 12/23/10
f 13/17/11 12/23/11 16/24/11
f 30/25/40 15/62/40 42/26/40
f 11/19/13 15/35/13 16/24/13
f 28/28/14 14/63/14 41/29/14
f 16/24/41 21/36/41 22/31/41
f 19/32/42 32/53/42 35/33/42
f 15/35/17 20/43/17 21/36/17
f 20/37/18 15/57/18 34/38/18
f 22/31/19 21/36/19 26/40/19
f 19/41/20 24/46/20 25/42/20
f 1/21/9 23/65/9 18/44/9
f 20/43/21 25/42/21 26/40/21
f 18/44/43 23/65/43 24/46/43
f 27/47/23 26/50/23 4/6/23
f 24/48/24 2/9/24 3/4/24
f 25/49/25 3/4/25 4/6/25
f 23/51/26 1/7/26 2/9/26
f 13/17/1 17/1/1 5/3/1
f 31/52/27 32/53/27 36/39/27
f 31/52/28 33/55/28 35/33/28
f 30/54/44 14/56/44 33/55/44
f 18/34/30 35/33/30 33/55/30
f 19/32/45 20/37/45 36/39/45
f 30/54/46 31/52/46 34/38/46
f 37/58/33 38/27/33 42/26/33
f 37/58/34 39/30/34 41/29/34
f 29/60/47 37/58/47 40/59/47
f 11/61/48 40/59/48 42/26/48
f 30/25/49 38/27/49 41/29/49
f 29/60/50 28/28/50 39/30/50
v -0.557393 1.469244 -0.922719
v -0.543128 1.447307 -0.934417
v -0.540492 1.419183 -0.939287
v -0.550191 1.392409 -0.936021
v -0.569626 1.374158 -0.925497
v -0.555933 1.468249 -0.895088
v -0.540599 1.445584 -0.886560
v -0.537572 1.417193 -0.884026
v -0.547662 1.390685 -0.888164
v -0.568166 1.373163 -0.897866
v -0.583608 1.422229 -0.853668
v -0.587530 1.395046 -0.861874
v -0.591184 1.375681 -0.882688
v -0.603430 1.474280 -0.892362
v -0.632564 1.429254 -0.878572
v -0.629928 1.401131 -0.883441
v -0.615662 1.379194 -0.895140
v -0.604890 1.475275 -0.919992
v -0.625394 1.457752 -0.929694
v -0.635484 1.431244 -0.933833
v -0.632456 1.402854 -0.931298
v -0.617122 1.380189 -0.922770
v -0.581871 1.472757 -0.935171
v -0.585525 1.453391 -0.955985
v -0.589448 1.426209 -0.964190
v -0.592588 1.398493 -0.957588
v -0.594104 1.377671 -0.937949
v -0.578951 1.470767 -0.879910
v -0.580468 1.449944 -0.860270
v -0.622865 1.456029 -0.881837
v -0.661819 1.481486 -0.900928
v -0.662025 1.481627 -0.904833
v -0.625885 1.483029 -0.897865
v -0.653121 1.448197 -0.893896
v -0.626607 1.483522 -0.911542
v -0.654242 1.448961 -0.915111
v -0.612302 1.472936 -0.831898
v -0.622338 1.474376 -0.837002
v -0.605962 1.477845 -0.848796
v -0.612882 1.451989 -0.841539
v -0.610561 1.478505 -0.851136
v -0.617494 1.452651 -0.843885
vt 0.274240 0.539347
vt 0.265397 0.539709
vt 0.266768 0.532487
vt 0.231414 0.551290
vt 0.214659 0.541092
vt 0.231357 0.542861
vt 0.231940 0.569242
vt 0.215985 0.562822
vt 0.231472 0.559719
vt 0.230890 0.533338
vt 0.220414 0.530957
vt 0.213134 0.552274
vt 0.289666 0.544440
vt 0.282983 0.540904
vt 0.290637 0.536818
vt 0.279682 0.529141
vt 0.275518 0.536619
vt 0.273707 0.532162
vt 0.280945 0.538772
vt 0.286431 0.530872
vt 0.290637 0.551375
vt 0.284312 0.543753
vt 0.278488 0.537315
vt 0.276318 0.541045
vt 0.804698 0.251197
vt 0.792375 0.255919
vt 0.792638 0.252041
vt 0.786357 0.239035
vt 0.792578 0.249274
vt 0.791489 0.249454
vt 0.271776 0.541127
vt 0.760733 0.199751
vt 0.757502 0.209505
vt 0.750621 0.206121
vt 0.278108 0.542645
vt 0.273009 0.544115
vt 0.772804 0.201934
vt 0.766718 0.213101
vt 0.766203 0.208706
vt 0.264007 0.548518
vt 0.277612 0.547903
vt 0.268747 0.555467
vt 0.275021 0.546378
vt 0.280714 0.548498
vt 0.281954 0.545638
vt 0.276612 0.557409
vt 0.240880 0.530957
vt 0.248168 0.561486
vt 0.249693 0.550306
vt 0.246843 0.539760
vt 0.242415 0.571620
vt 0.762287 0.211045
vt 0.762255 0.210544
vt 0.761023 0.221925
vt 0.757316 0.212491
vt 0.750922 0.216572
vt 0.772804 0.220841
vt 0.791613 0.252007
vt 0.791097 0.255536
vt 0.780068 0.250772
vt 0.780487 0.263708
vt 0.804698 0.264828
vt 0.798786 0.238814
vt 0.221949 0.571626
vt 0.283377 0.553479
vn -0.1275 -0.9914 -0.0290
vn 0.9360 -0.3466 -0.0619
vn 0.8322 0.5540 -0.0240
vn 0.6652 -0.7441 -0.0620
vn 0.9936 0.1016 -0.0488
vn 0.4924 0.5780 0.6508
vn 0.3254 -0.7201 0.6129
vn 0.5557 0.1325 0.8207
vn 0.1275 0.9914 0.0290
vn 0.4981 -0.3157 0.8076
vn -0.4233 -0.6250 0.6559
vn -0.9614 -0.2504 0.1138
vn -0.4667 -0.1932 0.8630
vn 0.1766 0.9818 -0.0701
vn -0.8322 -0.5540 0.0240
vn -0.1010 0.5697 -0.8156
vn -0.9936 -0.1016 0.0488
vn -0.6815 -0.7318 0.0097
vn -0.4924 -0.5780 -0.6508
vn -0.4981 0.3157 -0.8076
vn -0.5557 -0.1325 -0.8207
vn -0.3254 0.7201 -0.6129
vn 0.2563 -0.6730 -0.6938
vn 0.4667 0.1932 -0.8630
vn 0.4091 -0.2550 -0.8761
vn 0.4233 0.6250 -0.6558
vn -0.9688 -0.2442 0.0424
vn -0.0461 0.9982 0.0384
vn -0.0949 0.5003 0.8606
vn 0.3599 0.9329 0.0146
vn -0.4831 0.1560 -0.8616
vn -0.4144 0.2566 0.8731
vn -0.4635 -0.3599 0.8097
vn -0.0035 0.9606 0.2778
vn 0.5019 0.1462 0.8525
vn -0.4133 -0.6616 0.6258
vn -0.7252 0.6609 -0.1932
vn 0.7479 0.5074 0.4280
vn 0.6652 -0.7441 -0.0619
vn -0.4233 -0.6250 0.6558
vn -0.9213 0.3535 0.1619
vn 0.1765 0.9818 -0.0701
vn -0.1830 0.5604 -0.8078
vn 0.4233 0.6250 -0.6559
vn -0.0124 0.5094 0.8604
vn -0.5031 0.3170 -0.8040
vn -0.3891 0.0919 0.9166
vn 0.4435 -0.3848 0.8095
vn -0.4132 -0.6616 0.6258
vn -0.6105 0.7355 -0.2938
vn 0.7240 0.4447 0.5273
s off
f 59/66/51 69/67/51 47/68/51
f 45/69/52 51/70/52 46/71/52
f 43/72/53 49/73/53 44/74/53
f 47/75/54 51/70/54 52/76/54
f 44/74/55 50/77/55 45/69/55
f 48/78/56 71/79/56 49/80/56
f 51/81/57 55/82/57 52/83/57
f 49/80/58 53/84/58 50/85/58
f 43/86/59 70/87/59 48/78/59
f 50/85/60 54/88/60 51/81/60
f 55/82/61 58/89/61 59/66/61
f 72/90/62 84/91/62 80/92/62
f 53/84/63 58/89/63 54/88/63
f 70/93/64 83/94/64 81/95/64
f 58/89/65 64/96/65 59/66/65
f 61/97/66 77/98/66 60/99/66
f 57/100/67 63/101/67 58/89/67
f 62/102/68 76/103/68 78/104/68
f 64/96/69 68/105/69 69/67/69
f 61/106/70 67/107/70 62/108/70
f 43/86/59 60/109/59 56/110/59
f 62/108/71 68/105/71 63/101/71
f 60/109/72 66/111/72 61/106/72
f 69/112/73 46/71/73 47/75/73
f 66/113/74 45/69/74 67/114/74
f 67/114/75 46/71/75 68/115/75
f 65/116/76 44/74/76 66/113/76
f 55/82/51 47/68/51 52/83/51
f 73/117/77 78/104/77 76/103/77
f 73/117/78 77/98/78 74/118/78
f 72/119/79 75/120/79 73/117/79
f 60/99/80 75/120/80 56/121/80
f 61/97/81 78/104/81 74/118/81
f 72/119/82 76/103/82 57/122/82
f 79/123/83 84/91/83 82/124/83
f 79/123/84 83/94/84 80/92/84
f 71/125/85 82/124/85 53/126/85
f 53/126/86 84/91/86 57/127/86
f 72/90/87 83/94/87 56/128/87
f 71/125/88 81/95/88 79/123/88
f 59/66/51 64/96/51 69/67/51
f 45/69/52 50/77/52 51/70/52
f 43/72/53 48/129/53 49/73/53
f 47/75/89 46/71/89 51/70/89
f 44/74/55 49/73/55 50/77/55
f 48/78/56 70/87/56 71/79/56
f 51/81/57 54/88/57 55/82/57
f 49/80/58 71/79/58 53/84/58
f 43/86/59 56/110/59 70/87/59
f 50/85/60 53/84/60 54/88/60
f 55/82/90 54/88/90 58/89/90
f 72/90/91 57/127/91 84/91/91
f 53/84/63 57/100/63 58/89/63
f 70/93/92 56/128/92 83/94/92
f 58/89/65 63/101/65 64/96/65
f 61/97/93 74/118/93 77/98/93
f 57/100/67 62/108/67 63/101/67
f 62/102/68 57/122/68 76/103/68
f 64/96/69 63/101/69 68/105/69
f 61/106/70 66/111/70 67/107/70
f 43/86/59 65/130/59 60/109/59
f 62/108/71 67/107/71 68/105/71
f 60/109/72 65/130/72 66/111/72
f 69/112/73 68/115/73 46/71/73
f 66/113/74 44/74/74 45/69/74
f 67/114/75 45/69/75 46/71/75
f 65/116/94 43/72/94 44/74/94
f 55/82/51 59/66/51 47/68/51
f 73/117/77 74/118/77 78/104/77
f 73/117/78 75/120/78 77/98/78
f 72/119/95 56/121/95 75/120/95
f 60/99/80 77/98/80 75/120/80
f 61/97/96 62/102/96 78/104/96
f 72/119/97 73/117/97 76/103/97
f 79/123/83 80/92/83 84/91/83
f 79/123/84 81/95/84 83/94/84
f 71/125/98 79/123/98 82/124/98
f 53/126/99 82/124/99 84/91/99
f 72/90/100 80/92/100 83/94/100
f 71/125/101 70/93/101 81/95/101
