# Blender v2.81 (sub 16) OBJ File: 'garbage.blend'
# www.blender.org
v 0.125001 1.419339 0.248904
v 0.116730 1.402806 0.270810
v 0.109944 1.376985 0.281241
v 0.106460 1.348794 0.277403
v 0.107212 1.325787 0.260323
v 0.105133 1.420769 0.229674
v 0.082318 1.405284 0.237503
v 0.070208 1.379846 0.242781
v 0.072048 1.351272 0.244095
v 0.087344 1.327218 0.241093
v 0.082534 1.371002 0.189526
v 0.082722 1.343613 0.197975
v 0.093507 1.322796 0.214465
v 0.137326 1.410495 0.195649
v 0.134595 1.359297 0.174731
v 0.127808 1.333475 0.185162
v 0.119538 1.316943 0.207068
v 0.157194 1.409064 0.214879
v 0.172490 1.385010 0.211877
v 0.174330 1.356435 0.213191
v 0.162220 1.330997 0.218469
v 0.139405 1.315512 0.226298
v 0.151031 1.413486 0.241506
v 0.161816 1.392669 0.257997
v 0.162005 1.365279 0.266446
v 0.151546 1.338657 0.264590
v 0.133242 1.319934 0.252925
v 0.111296 1.416347 0.203047
v 0.092993 1.397625 0.191382
v 0.138079 1.387488 0.178569
v 0.184859 1.396862 0.162641
v 0.187666 1.396660 0.165359
v 0.158850 1.410712 0.183493
v 0.164432 1.369057 0.169190
v 0.168684 1.410003 0.193012
v 0.179686 1.367958 0.183955
v 0.102290 1.410312 0.145561
v 0.112961 1.407912 0.142528
v 0.110793 1.415927 0.161246
v 0.103007 1.389811 0.156107
v 0.115684 1.414828 0.159856
v 0.107912 1.388708 0.154713
vt 0.274240 0.539347
vt 0.265397 0.539709
vt 0.266768 0.532487
vt 0.231414 0.551290
vt 0.214659 0.541092
vt 0.231357 0.542861
vt 0.231940 0.569242
vt 0.215985 0.562822
vt 0.231472 0.559719
vt 0.230890 0.533338
vt 0.220414 0.530957
vt 0.213134 0.552274
vt 0.289666 0.544440
vt 0.282983 0.540904
vt 0.290637 0.536818
vt 0.279682 0.529141
vt 0.275518 0.536619
vt 0.273707 0.532162
vt 0.280945 0.538772
vt 0.286431 0.530872
vt 0.290637 0.551375
vt 0.284312 0.543753
vt 0.278488 0.537315
vt 0.276318 0.541045
vt 0.804698 0.251197
vt 0.792375 0.255919
vt 0.792638 0.252041
vt 0.786357 0.239035
vt 0.792578 0.249274
vt 0.791489 0.249454
vt 0.271776 0.541127
vt 0.760733 0.199751
vt 0.757502 0.209505
vt 0.750621 0.206121
vt 0.278108 0.542645
vt 0.273009 0.544115
vt 0.772804 0.201934
vt 0.766718 0.213101
vt 0.766203 0.208706
vt 0.264007 0.548518
vt 0.277612 0.547903
vt 0.268747 0.555467
vt 0.275021 0.546378
vt 0.280714 0.548498
vt 0.281954 0.545638
vt 0.276612 0.557409
vt 0.240880 0.530957
vt 0.248168 0.561486
vt 0.249693 0.550306
vt 0.246843 0.539760
vt 0.242415 0.571620
vt 0.762287 0.211045
vt 0.762255 0.210544
vt 0.761023 0.221925
vt 0.757316 0.212491
vt 0.750922 0.216572
vt 0.772804 0.220841
vt 0.791613 0.252007
vt 0.791097 0.255536
vt 0.780068 0.250772
vt 0.780487 0.263708
vt 0.804698 0.264828
vt 0.798786 0.238814
vt 0.221949 0.571626
vt 0.283377 0.553479
vn -0.1855 -0.9754 0.1191
vn -0.6959 -0.0118 0.7181
vn -0.3860 0.8005 0.4584
vn -0.6289 -0.4766 0.6143
vn -0.6120 0.4292 0.6643
vn -0.6021 0.7534 -0.2645
vn -0.8449 -0.5237 -0.1086
vn -0.8904 0.3684 -0.2673
vn 0.1855 0.9754 -0.1191
vn -0.9743 -0.0725 -0.2134
vn -0.3375 -0.6857 -0.6449
vn 0.5027 -0.5535 -0.6640
vn -0.3203 -0.2812 -0.9046
vn 0.2160 0.9763 -0.0124
vn 0.3860 -0.8005 -0.4584
vn 0.7847 0.4451 0.4314
vn 0.6120 -0.4292 -0.6642
vn 0.2411 -0.9172 -0.3173
vn 0.6021 -0.7534 0.2645
vn 0.9743 0.0725 0.2134
vn 0.8904 -0.3684 0.2673
vn 0.8449 0.5237 0.1086
vn 0.0946 -0.5914 0.8008
vn 0.3203 0.2812 0.9046
vn 0.2365 -0.1597 0.9584
vn 0.3375 0.6857 0.6449
vn 0.5576 -0.5550 -0.6173
vn 0.2991 0.9235 -0.2403
vn -0.3673 0.4954 -0.7872
vn 0.0201 0.9984 0.0535
vn 0.9534 -0.0759 0.2920
vn -0.2303 0.1592 -0.9600
vn -0.3356 -0.4402 -0.8328
vn 0.0980 0.9189 -0.3821
vn -0.8712 0.3651 -0.3282
vn -0.3348 -0.7186 -0.6095
vn 0.8168 0.3609 -0.4502
vn -0.6466 0.7588 0.0789
vn -0.6120 0.4292 0.6642
vn 0.6208 0.0300 -0.7834
vn -0.3203 -0.2813 -0.9046
vn 0.8324 0.4090 0.3740
vn -0.4205 0.5319 -0.7350
vn 0.9756 0.0723 0.2073
vn -0.3252 0.0162 -0.9455
vn -0.3357 -0.4402 -0.8328
vn -0.9588 -0.1558 -0.2377
vn -0.3348 -0.7186 -0.6096
vn 0.8285 0.4630 -0.3150
vn -0.7156 0.6986 0.0016
s off
f 17/1/1 27/2/1 5/3/1
f 3/4/2 9/5/2 4/6/2
f 1/7/3 7/8/3 2/9/3
f 5/10/4 9/5/4 10/11/4
f 2/9/5 8/12/5 3/4/5
f 6/13/6 29/14/6 7/15/6
f 9/16/7 13/17/7 10/18/7
f 7/15/8 11/19/8 8/20/8
f 1/21/9 28/22/9 6/13/9
f 8/20/10 12/23/10 9/16/10
f 13/17/11 16/24/11 17/1/11
f 30/25/12 42/26/12 38/27/12
f 11/19/13 16/24/13 12/23/13
f 28/28/14 41/29/14 39/30/14
f 16/24/15 22/31/15 17/1/15
f 19/32/16 35/33/16 18/34/16
f 15/35/17 21/36/17 16/24/17
f 20/37/18 34/38/18 36/39/18
f 22/31/19 26/40/19 27/2/19
f 19/41/20 25/42/20 20/43/20
f 1/21/9 18/44/9 14/45/9
f 20/43/21 26/40/21 21/36/21
f 18/44/22 24/46/22 19/41/22
f 27/47/23 4/6/23 5/10/23
f 24/48/24 3/4/24 25/49/24
f 25/49/25 4/6/25 26/50/25
f 23/51/26 2/9/26 24/48/26
f 13/17/1 5/3/1 10/18/1
f 31/52/27 36/39/27 34/38/27
f 31/52/28 35/33/28 32/53/28
f 30/54/29 33/55/29 31/52/29
f 18/34/30 33/55/30 14/56/30
f 19/32/31 36/39/31 32/53/31
f 30/54/32 34/38/32 15/57/32
f 37/58/33 42/26/33 40/59/33
f 37/58/34 41/29/34 38/27/34
f 29/60/35 40/59/35 11/61/35
f 11/61/36 42/26/36 15/62/36
f 30/25/37 41/29/37 14/63/37
f 29/60/38 39/30/38 37/58/38
f 17/1/1 22/31/1 27/2/1
f 3/4/2 8/12/2 9/5/2
f 1/7/3 6/64/3 7/8/3
f 5/10/4 4/6/4 9/5/4
f 2/9/39 7/8/39 8/12/39
f 6/13/6 28/22/6 29/14/6
f 9/16/7 12/23/7 13/17/7
f 7/15/8 29/14/8 11/19/8
f 1/21/9 14/45/9 28/22/9
f 8/20/10 11/19/10 12/23/10
f 13/17/11 12/23/11 16/24/11
f 30/25/40 15/62/40 42/26/40
f 11/19/41 15/35/41 16/24/41
f 28/28/14 14/63/14 41/29/14
f 16/24/15 21/36/15 22/31/15
f 19/32/42 32/53/42 35/33/42
f 15/35/17 20/43/17 21/36/17
f 20/37/18 15/57/18 34/38/18
f 22/31/19 21/36/19 26/40/19
f 19/41/20 24/46/20 25/42/20
f 1/21/9 23/65/9 18/44/9
f 20/43/21 25/42/21 26/40/21
f 18/44/22 23/65/22 24/46/22
f 27/47/23 26/50/23 4/6/23
f 24/48/24 2/9/24 3/4/24
f 25/49/25 3/4/25 4/6/25
f 23/51/26 1/7/26 2/9/26
f 13/17/1 17/1/1 5/3/1
f 31/52/27 32/53/27 36/39/27
f 31/52/28 33/55/28 35/33/28
f 30/54/43 14/56/43 33/55/43
f 18/34/30 35/33/30 33/55/30
f 19/32/44 20/37/44 36/39/44
f 30/54/45 31/52/45 34/38/45
f 37/58/46 38/27/46 42/26/46
f 37/58/34 39/30/34 41/29/34
f 29/60/47 37/58/47 40/59/47
f 11/61/48 40/59/48 42/26/48
f 30/25/49 38/27/49 41/29/49
f 29/60/50 28/28/50 39/30/50
v -0.914864 1.043091 -0.033380
v -0.913827 1.023616 -0.054386
v -0.910440 0.996461 -0.062916
v -0.905609 0.968904 -0.056684
v -0.900629 0.948327 -0.037361
v -0.889920 1.046352 -0.021815
v -0.870624 1.029264 -0.034355
v -0.860552 1.002984 -0.039786
v -0.862405 0.974552 -0.036653
v -0.875685 0.951588 -0.025796
v -0.855166 1.001479 0.015304
v -0.857740 0.973249 0.011056
v -0.872992 0.950835 0.001749
v -0.909477 1.041586 0.021711
v -0.899666 0.993451 0.047266
v -0.896279 0.966297 0.038736
v -0.895242 0.946822 0.017730
v -0.934421 1.038325 0.010146
v -0.947701 1.015361 0.021003
v -0.949553 0.986929 0.024136
v -0.939482 0.960648 0.018705
v -0.920186 0.943561 0.006165
v -0.937114 1.039077 -0.017399
v -0.952366 1.016664 -0.026706
v -0.954940 0.988434 -0.030954
v -0.944147 0.961952 -0.029005
v -0.922879 0.944313 -0.021380
v -0.887227 1.045600 0.005730
v -0.865959 1.027961 0.013355
v -0.904497 1.021009 0.041034
v -0.943860 1.033852 0.069592
v -0.947385 1.033391 0.067958
v -0.926005 1.044058 0.039926
v -0.926286 1.004795 0.060643
v -0.938352 1.042443 0.034201
v -0.945437 1.002291 0.051764
v -0.860304 1.046741 0.057653
v -0.869426 1.045095 0.064205
v -0.873424 1.050556 0.044879
v -0.864123 1.025084 0.050692
v -0.877604 1.049802 0.047882
v -0.868315 1.024328 0.053703
vt 0.274240 0.539347
vt 0.265397 0.539709
vt 0.266768 0.532487
vt 0.231414 0.551290
vt 0.214659 0.541092
vt 0.231357 0.542861
vt 0.231940 0.569242
vt 0.215985 0.562822
vt 0.231472 0.559719
vt 0.230890 0.533338
vt 0.220414 0.530957
vt 0.213134 0.552274
vt 0.289666 0.544440
vt 0.282983 0.540904
vt 0.290637 0.536818
vt 0.279682 0.529141
vt 0.275518 0.536619
vt 0.273707 0.532162
vt 0.280945 0.538772
vt 0.286431 0.530872
vt 0.290637 0.551375
vt 0.284312 0.543753
vt 0.278488 0.537315
vt 0.276318 0.541045
vt 0.804698 0.251197
vt 0.792375 0.255919
vt 0.792638 0.252041
vt 0.786357 0.239035
vt 0.792578 0.249274
vt 0.791489 0.249454
vt 0.271776 0.541127
vt 0.760733 0.199751
vt 0.757502 0.209505
vt 0.750621 0.206121
vt 0.278108 0.542645
vt 0.273009 0.544115
vt 0.772804 0.201934
vt 0.766718 0.213101
vt 0.766203 0.208706
vt 0.264007 0.548518
vt 0.277612 0.547903
vt 0.268747 0.555467
vt 0.275021 0.546378
vt 0.280714 0.548498
vt 0.281954 0.545638
vt 0.276612 0.557409
vt 0.240880 0.530957
vt 0.248168 0.561486
vt 0.249693 0.550306
vt 0.246843 0.539760
vt 0.242415 0.571620
vt 0.762287 0.211045
vt 0.762255 0.210544
vt 0.761023 0.221925
vt 0.757316 0.212491
vt 0.750922 0.216572
vt 0.772804 0.220841
vt 0.791613 0.252007
vt 0.791097 0.255536
vt 0.780068 0.250772
vt 0.780487 0.263708
vt 0.804698 0.264828
vt 0.798786 0.238814
vt 0.221949 0.571626
vt 0.283377 0.553479
vn 0.1484 -0.9881 -0.0415
vn 0.4308 -0.1265 -0.8935
vn 0.2111 0.7220 -0.6589
vn 0.4054 -0.5717 -0.7133
vn 0.3637 0.3202 -0.8748
vn 0.6468 0.7615 -0.0424
vn 0.8411 -0.5322 -0.0968
vn 0.9251 0.3711 -0.0803
vn -0.1484 0.9881 0.0415
vn 0.9922 -0.0756 -0.0991
vn 0.5328 -0.6073 0.5893
vn -0.2589 -0.4469 0.8563
vn 0.5949 -0.1724 0.7851
vn -0.2113 0.9762 -0.0491
vn -0.2111 -0.7220 0.6589
vn -0.8860 0.4107 -0.2151
vn -0.3637 -0.3202 0.8748
vn -0.1174 -0.8604 0.4959
vn -0.6468 -0.7615 0.0424
vn -0.9922 0.0756 0.0991
vn -0.9251 -0.3711 0.0803
vn -0.8411 0.5322 0.0968
vn -0.3385 -0.6864 -0.6437
vn -0.5949 0.1724 -0.7851
vn -0.5278 -0.2743 -0.8038
vn -0.5328 0.6073 -0.5893
vn -0.3257 -0.4526 0.8301
vn -0.2169 0.9559 0.1983
vn 0.5936 0.5807 0.5571
vn -0.0469 0.9833 -0.1760
vn -0.9959 -0.0823 0.0383
vn 0.5226 0.2742 0.8073
vn 0.5883 -0.3396 0.7338
vn 0.0189 0.9632 0.2683
vn 0.9263 0.3763 -0.0166
vn 0.5194 -0.6444 0.5613
vn -0.6346 0.4419 0.6341
vn 0.5794 0.7212 -0.3797
vn -0.3390 0.1506 0.9287
vn -0.9125 0.3838 -0.1413
vn -0.2169 0.9558 0.1983
vn 0.6270 0.6085 0.4864
vn -0.0470 0.9833 -0.1760
vn -0.9915 0.0762 0.1053
vn 0.6094 0.1276 0.7826
vn 0.9861 -0.1545 -0.0604
vn -0.6899 0.5261 0.4973
vn 0.6701 0.6692 -0.3210
s off
f 59/66/51 69/67/51 47/68/51
f 45/69/52 51/70/52 46/71/52
f 43/72/53 49/73/53 44/74/53
f 47/75/54 51/70/54 52/76/54
f 44/74/55 50/77/55 45/69/55
f 48/78/56 71/79/56 49/80/56
f 51/81/57 55/82/57 52/83/57
f 49/80/58 53/84/58 50/85/58
f 43/86/59 70/87/59 48/78/59
f 50/85/60 54/88/60 51/81/60
f 55/82/61 58/89/61 59/66/61
f 72/90/62 84/91/62 80/92/62
f 53/84/63 58/89/63 54/88/63
f 70/93/64 83/94/64 81/95/64
f 58/89/65 64/96/65 59/66/65
f 61/97/66 77/98/66 60/99/66
f 57/100/67 63/101/67 58/89/67
f 62/102/68 76/103/68 78/104/68
f 64/96/69 68/105/69 69/67/69
f 61/106/70 67/107/70 62/108/70
f 43/86/59 60/109/59 56/110/59
f 62/108/71 68/105/71 63/101/71
f 60/109/72 66/111/72 61/106/72
f 69/112/73 46/71/73 47/75/73
f 66/113/74 45/69/74 67/114/74
f 67/114/75 46/71/75 68/115/75
f 65/116/76 44/74/76 66/113/76
f 55/82/51 47/68/51 52/83/51
f 73/117/77 78/104/77 76/103/77
f 73/117/78 77/98/78 74/118/78
f 72/119/79 75/120/79 73/117/79
f 60/99/80 75/120/80 56/121/80
f 61/97/81 78/104/81 74/118/81
f 72/119/82 76/103/82 57/122/82
f 79/123/83 84/91/83 82/124/83
f 79/123/84 83/94/84 80/92/84
f 71/125/85 82/124/85 53/126/85
f 53/126/86 84/91/86 57/127/86
f 72/90/87 83/94/87 56/128/87
f 71/125/88 81/95/88 79/123/88
f 59/66/51 64/96/51 69/67/51
f 45/69/52 50/77/52 51/70/52
f 43/72/53 48/129/53 49/73/53
f 47/75/54 46/71/54 51/70/54
f 44/74/55 49/73/55 50/77/55
f 48/78/56 70/87/56 71/79/56
f 51/81/57 54/88/57 55/82/57
f 49/80/58 71/79/58 53/84/58
f 43/86/59 56/110/59 70/87/59
f 50/85/60 53/84/60 54/88/60
f 55/82/61 54/88/61 58/89/61
f 72/90/89 57/127/89 84/91/89
f 53/84/63 57/100/63 58/89/63
f 70/93/64 56/128/64 83/94/64
f 58/89/65 63/101/65 64/96/65
f 61/97/90 74/118/90 77/98/90
f 57/100/67 62/108/67 63/101/67
f 62/102/68 57/122/68 76/103/68
f 64/96/69 63/101/69 68/105/69
f 61/106/70 66/111/70 67/107/70
f 43/86/59 65/130/59 60/109/59
f 62/108/71 67/107/71 68/105/71
f 60/109/72 65/130/72 66/111/72
f 69/112/73 68/115/73 46/71/73
f 66/113/74 44/74/74 45/69/74
f 67/114/75 45/69/75 46/71/75
f 65/116/76 43/72/76 44/74/76
f 55/82/51 59/66/51 47/68/51
f 73/117/77 74/118/77 78/104/77
f 73/117/91 75/120/91 77/98/91
f 72/119/92 56/121/92 75/120/92
f 60/99/93 77/98/93 75/120/93
f 61/97/94 62/102/94 78/104/94
f 72/119/95 73/117/95 76/103/95
f 79/123/83 80/92/83 84/91/83
f 79/123/84 81/95/84 83/94/84
f 71/125/96 79/123/96 82/124/96
f 53/126/86 82/124/86 84/91/86
f 72/90/97 80/92/97 83/94/97
f 71/125/98 70/93/98 81/95/98
