# Blender v2.81 (sub 16) OBJ File: 'garbage.blend'
# www.blender.org
v 0.086807 1.440269 0.392853
v 0.078167 1.422973 0.414014
v 0.071706 1.396724 0.423546
v 0.069157 1.368556 0.418895
v 0.071201 1.346015 0.401307
v 0.067658 1.441650 0.372904
v 0.044999 1.425366 0.379461
v 0.033408 1.399487 0.383648
v 0.035989 1.370948 0.384342
v 0.052052 1.347397 0.381358
v 0.048003 1.392323 0.330715
v 0.048629 1.364744 0.338501
v 0.059349 1.343814 0.354891
v 0.101402 1.433104 0.339920
v 0.100897 1.382395 0.317680
v 0.094437 1.356146 0.327212
v 0.085796 1.338850 0.348374
v 0.120552 1.431723 0.359869
v 0.136614 1.408171 0.356884
v 0.139196 1.379632 0.357578
v 0.127604 1.353753 0.361765
v 0.104946 1.337469 0.368323
v 0.113254 1.435305 0.386335
v 0.123974 1.414376 0.402725
v 0.124600 1.386797 0.410511
v 0.114964 1.359958 0.407606
v 0.097648 1.341051 0.394789
v 0.074955 1.438068 0.346437
v 0.057639 1.419161 0.333620
v 0.103447 1.410563 0.322331
v 0.150524 1.421589 0.308468
v 0.153230 1.421394 0.311288
v 0.123361 1.434205 0.328620
v 0.130642 1.393089 0.313543
v 0.132840 1.433521 0.338495
v 0.145345 1.392028 0.328860
v 0.068327 1.433244 0.288515
v 0.079169 1.431209 0.285843
v 0.076065 1.438689 0.304651
v 0.069210 1.412510 0.298583
v 0.081034 1.437756 0.303426
v 0.074193 1.411575 0.297355
vt 0.274240 0.539347
vt 0.265397 0.539709
vt 0.266768 0.532487
vt 0.231414 0.551290
vt 0.214659 0.541092
vt 0.231357 0.542861
vt 0.231940 0.569242
vt 0.215985 0.562822
vt 0.231472 0.559719
vt 0.230890 0.533338
vt 0.220414 0.530957
vt 0.213134 0.552274
vt 0.289666 0.544440
vt 0.282983 0.540904
vt 0.290637 0.536818
vt 0.279682 0.529141
vt 0.275518 0.536619
vt 0.273707 0.532162
vt 0.280945 0.538772
vt 0.286431 0.530872
vt 0.290637 0.551375
vt 0.284312 0.543753
vt 0.278488 0.537315
vt 0.276318 0.541045
vt 0.804698 0.251197
vt 0.792375 0.255919
vt 0.792638 0.252041
vt 0.786357 0.239035
vt 0.792578 0.249274
vt 0.791489 0.249454
vt 0.271776 0.541127
vt 0.760733 0.199751
vt 0.757502 0.209505
vt 0.750621 0.206121
vt 0.278108 0.542645
vt 0.273009 0.544115
vt 0.772804 0.201934
vt 0.766718 0.213101
vt 0.766203 0.208706
vt 0.264007 0.548518
vt 0.277612 0.547903
vt 0.268747 0.555467
vt 0.275021 0.546378
vt 0.280714 0.548498
vt 0.281954 0.545638
vt 0.276612 0.557409
vt 0.240880 0.530957
vt 0.248168 0.561486
vt 0.249693 0.550306
vt 0.246843 0.539760
vt 0.242415 0.571620
vt 0.762287 0.211045
vt 0.762255 0.210544
vt 0.761023 0.221925
vt 0.757316 0.212491
vt 0.750922 0.216572
vt 0.772804 0.220841
vt 0.791613 0.252007
vt 0.791097 0.255536
vt 0.780068 0.250772
vt 0.780487 0.263708
vt 0.804698 0.264828
vt 0.798786 0.238814
vt 0.221949 0.571626
vt 0.283377 0.553479
vn -0.1627 -0.9827 0.0881
vn -0.7222 -0.0485 0.6899
vn -0.4254 0.7781 0.4622
vn -0.6384 -0.5086 0.5776
vn -0.6487 0.3957 0.6501
vn -0.6122 0.7434 -0.2694
vn -0.8253 -0.5433 -0.1540
vn -0.8894 0.3510 -0.2928
vn 0.1627 0.9827 -0.0882
vn -0.9630 -0.0933 -0.2529
vn -0.2933 -0.6780 -0.6739
vn 0.5430 -0.5229 -0.6571
vn -0.2775 -0.2668 -0.9229
vn 0.1891 0.9818 0.0196
vn 0.4254 -0.7781 -0.4622
vn 0.7549 0.4550 0.4723
vn 0.6487 -0.3957 -0.6501
vn 0.2785 -0.9021 -0.3298
vn 0.6122 -0.7434 0.2694
vn 0.9630 0.0933 0.2529
vn 0.1627 0.9827 -0.0881
vn 0.8894 -0.3510 0.2928
vn 0.8253 0.5433 0.1540
vn 0.0803 -0.6086 0.7894
vn 0.2775 0.2668 0.9229
vn 0.2040 -0.1774 0.9628
vn 0.2933 0.6780 0.6740
vn -0.1627 -0.9827 0.0882
vn 0.5960 -0.5241 -0.6084
vn 0.2823 0.9369 -0.2061
vn -0.3505 0.5051 -0.7887
vn -0.0097 0.9969 0.0783
vn 0.9433 -0.0576 0.3270
vn -0.1978 0.1771 -0.9641
vn -0.2912 -0.4279 -0.8557
vn 0.0870 0.9305 -0.3557
vn -0.8678 0.3498 -0.3530
vn -0.2911 -0.7117 -0.6393
vn 0.8231 0.3939 -0.4092
vn -0.6700 0.7389 0.0720
vn -0.6385 -0.5086 0.5776
vn -0.2933 -0.6780 -0.6740
vn 0.6492 0.0663 -0.7577
vn 0.8058 0.4217 0.4159
vn -0.4067 0.5388 -0.7378
vn 0.9646 0.0933 0.2468
vn -0.2891 0.0313 -0.9568
vn -0.9443 -0.1754 -0.2785
vn 0.8267 0.4929 -0.2712
vn -0.7342 0.6788 -0.0094
s off
f 17/1/1 27/2/1 5/3/1
f 3/4/2 9/5/2 4/6/2
f 1/7/3 7/8/3 2/9/3
f 5/10/4 9/5/4 10/11/4
f 2/9/5 8/12/5 3/4/5
f 6/13/6 29/14/6 7/15/6
f 9/16/7 13/17/7 10/18/7
f 7/15/8 11/19/8 8/20/8
f 1/21/9 28/22/9 6/13/9
f 8/20/10 12/23/10 9/16/10
f 13/17/11 16/24/11 17/1/11
f 30/25/12 42/26/12 38/27/12
f 11/19/13 16/24/13 12/23/13
f 28/28/14 41/29/14 39/30/14
f 16/24/15 22/31/15 17/1/15
f 19/32/16 35/33/16 18/34/16
f 15/35/17 21/36/17 16/24/17
f 20/37/18 34/38/18 36/39/18
f 22/31/19 26/40/19 27/2/19
f 19/41/20 25/42/20 20/43/20
f 1/21/21 18/44/21 14/45/21
f 20/43/22 26/40/22 21/36/22
f 18/44/23 24/46/23 19/41/23
f 27/47/24 4/6/24 5/10/24
f 24/48/25 3/4/25 25/49/25
f 25/49/26 4/6/26 26/50/26
f 23/51/27 2/9/27 24/48/27
f 13/17/28 5/3/28 10/18/28
f 31/52/29 36/39/29 34/38/29
f 31/52/30 35/33/30 32/53/30
f 30/54/31 33/55/31 31/52/31
f 18/34/32 33/55/32 14/56/32
f 19/32/33 36/39/33 32/53/33
f 30/54/34 34/38/34 15/57/34
f 37/58/35 42/26/35 40/59/35
f 37/58/36 41/29/36 38/27/36
f 29/60/37 40/59/37 11/61/37
f 11/61/38 42/26/38 15/62/38
f 30/25/39 41/29/39 14/63/39
f 29/60/40 39/30/40 37/58/40
f 17/1/28 22/31/28 27/2/28
f 3/4/2 8/12/2 9/5/2
f 1/7/3 6/64/3 7/8/3
f 5/10/41 4/6/41 9/5/41
f 2/9/5 7/8/5 8/12/5
f 6/13/6 28/22/6 29/14/6
f 9/16/7 12/23/7 13/17/7
f 7/15/8 29/14/8 11/19/8
f 1/21/21 14/45/21 28/22/21
f 8/20/10 11/19/10 12/23/10
f 13/17/42 12/23/42 16/24/42
f 30/25/43 15/62/43 42/26/43
f 11/19/13 15/35/13 16/24/13
f 28/28/14 14/63/14 41/29/14
f 16/24/15 21/36/15 22/31/15
f 19/32/44 32/53/44 35/33/44
f 15/35/17 20/43/17 21/36/17
f 20/37/18 15/57/18 34/38/18
f 22/31/19 21/36/19 26/40/19
f 19/41/20 24/46/20 25/42/20
f 1/21/9 23/65/9 18/44/9
f 20/43/22 25/42/22 26/40/22
f 18/44/23 23/65/23 24/46/23
f 27/47/24 26/50/24 4/6/24
f 24/48/25 2/9/25 3/4/25
f 25/49/26 3/4/26 4/6/26
f 23/51/27 1/7/27 2/9/27
f 13/17/1 17/1/1 5/3/1
f 31/52/29 32/53/29 36/39/29
f 31/52/30 33/55/30 35/33/30
f 30/54/45 14/56/45 33/55/45
f 18/34/32 35/33/32 33/55/32
f 19/32/46 20/37/46 36/39/46
f 30/54/47 31/52/47 34/38/47
f 37/58/35 38/27/35 42/26/35
f 37/58/36 39/30/36 41/29/36
f 29/60/48 37/58/48 40/59/48
f 11/61/38 40/59/38 42/26/38
f 30/25/49 38/27/49 41/29/49
f 29/60/50 28/28/50 39/30/50
v -0.946153 1.162201 -0.226871
v -0.941451 1.151809 -0.253167
v -0.936763 1.129531 -0.270583
v -0.933347 1.101336 -0.274452
v -0.932116 1.074779 -0.263738
v -0.923708 1.159095 -0.210960
v -0.902576 1.146429 -0.225609
v -0.891874 1.123319 -0.238761
v -0.894472 1.095956 -0.246894
v -0.909672 1.071673 -0.247827
v -0.896617 1.101237 -0.188203
v -0.898579 1.076832 -0.203109
v -0.912043 1.060632 -0.222548
v -0.950896 1.140118 -0.176313
v -0.946249 1.085366 -0.169467
v -0.941562 1.063088 -0.186883
v -0.936859 1.052697 -0.213179
v -0.973341 1.143224 -0.192224
v -0.988541 1.118941 -0.193156
v -0.991138 1.091578 -0.201289
v -0.980437 1.068468 -0.214442
v -0.959304 1.055803 -0.229090
v -0.970969 1.154266 -0.217503
v -0.984433 1.138065 -0.236941
v -0.986395 1.113661 -0.251847
v -0.976329 1.087592 -0.258226
v -0.956932 1.066844 -0.254369
v -0.926080 1.148054 -0.185681
v -0.906683 1.127305 -0.181824
v -0.949666 1.113561 -0.165598
v -0.993476 1.117900 -0.141271
v -0.996648 1.118338 -0.143519
v -0.970446 1.136941 -0.161521
v -0.974776 1.092949 -0.157428
v -0.981555 1.138479 -0.169396
v -0.992009 1.095334 -0.169644
v -0.909052 1.127975 -0.133440
v -0.919225 1.124722 -0.129600
v -0.919599 1.137198 -0.145832
v -0.911696 1.110755 -0.148558
v -0.924261 1.135707 -0.144072
v -0.916372 1.109260 -0.146792
vt 0.274240 0.539347
vt 0.265397 0.539709
vt 0.266768 0.532487
vt 0.231414 0.551290
vt 0.214659 0.541092
vt 0.231357 0.542861
vt 0.231940 0.569242
vt 0.215985 0.562822
vt 0.231472 0.559719
vt 0.230890 0.533338
vt 0.220414 0.530957
vt 0.213134 0.552274
vt 0.289666 0.544440
vt 0.282983 0.540904
vt 0.290637 0.536818
vt 0.279682 0.529141
vt 0.275518 0.536619
vt 0.273707 0.532162
vt 0.280945 0.538772
vt 0.286431 0.530872
vt 0.290637 0.551375
vt 0.284312 0.543753
vt 0.278488 0.537315
vt 0.276318 0.541045
vt 0.804698 0.251197
vt 0.792375 0.255919
vt 0.792638 0.252041
vt 0.786357 0.239035
vt 0.792578 0.249274
vt 0.791489 0.249454
vt 0.271776 0.541127
vt 0.760733 0.199751
vt 0.757502 0.209505
vt 0.750621 0.206121
vt 0.278108 0.542645
vt 0.273009 0.544115
vt 0.772804 0.201934
vt 0.766718 0.213101
vt 0.766203 0.208706
vt 0.264007 0.548518
vt 0.277612 0.547903
vt 0.268747 0.555467
vt 0.275021 0.546378
vt 0.280714 0.548498
vt 0.281954 0.545638
vt 0.276612 0.557409
vt 0.240880 0.530957
vt 0.248168 0.561486
vt 0.249693 0.550306
vt 0.246843 0.539760
vt 0.242415 0.571620
vt 0.762287 0.211045
vt 0.762255 0.210544
vt 0.761023 0.221925
vt 0.757316 0.212491
vt 0.750922 0.216572
vt 0.772804 0.220841
vt 0.791613 0.252007
vt 0.791097 0.255536
vt 0.780068 0.250772
vt 0.780487 0.263708
vt 0.804698 0.264828
vt 0.798786 0.238814
vt 0.221949 0.571626
vt 0.283377 0.553479
vn 0.1464 -0.9115 -0.3844
vn 0.5853 0.1794 -0.7907
vn 0.3328 0.8958 -0.2945
vn 0.5244 -0.2976 -0.7978
vn 0.5192 0.5915 -0.6169
vn 0.6492 0.6728 0.3548
vn 0.8408 -0.5206 -0.1485
vn 0.9269 0.3041 0.2198
vn -0.1464 0.9115 0.3844
vn 0.9931 -0.1079 0.0460
vn 0.4122 -0.8197 0.3976
vn -0.4136 -0.7100 0.5699
vn 0.4408 -0.4934 0.7498
vn -0.1918 0.9386 0.2869
vn -0.3328 -0.8958 0.2945
vn -0.8291 0.5262 -0.1890
vn -0.5192 -0.5915 0.6169
vn -0.2120 -0.9711 0.1094
vn -0.6492 -0.6728 -0.3548
vn -0.9931 0.1079 -0.0460
vn -0.9269 -0.3041 -0.2198
vn -0.8408 0.5206 0.1485
vn -0.2206 -0.3737 -0.9009
vn -0.4408 0.4934 -0.7498
vn -0.3747 0.0813 -0.9236
vn -0.4122 0.8197 -0.3976
vn -0.4746 -0.7007 0.5327
vn -0.2425 0.8290 0.5039
vn 0.4865 0.2886 0.8247
vn -0.0070 0.9795 0.2011
vn -0.9868 -0.0157 -0.1614
vn 0.3688 -0.0824 0.9258
vn 0.4424 -0.6291 0.6392
vn -0.0233 0.7924 0.6096
vn 0.9166 0.2854 0.2801
vn 0.4038 -0.8427 0.3559
vn -0.7362 0.2236 0.6388
vn 0.6441 0.7647 0.0209
vn -0.5013 -0.1770 0.8470
vn -0.8688 0.4761 -0.1361
vn -0.2425 0.8291 0.5039
vn 0.5324 0.3378 0.7762
vn -0.9935 0.1062 -0.0399
vn 0.4576 -0.2156 0.8626
vn -0.0233 0.7924 0.6095
vn 0.9795 -0.1949 0.0506
vn -0.7651 0.3561 0.5365
vn 0.7222 0.6882 0.0700
s off
f 59/66/51 69/67/51 47/68/51
f 45/69/52 51/70/52 46/71/52
f 43/72/53 49/73/53 44/74/53
f 47/75/54 51/70/54 52/76/54
f 44/74/55 50/77/55 45/69/55
f 48/78/56 71/79/56 49/80/56
f 51/81/57 55/82/57 52/83/57
f 49/80/58 53/84/58 50/85/58
f 43/86/59 70/87/59 48/78/59
f 50/85/60 54/88/60 51/81/60
f 55/82/61 58/89/61 59/66/61
f 72/90/62 84/91/62 80/92/62
f 53/84/63 58/89/63 54/88/63
f 70/93/64 83/94/64 81/95/64
f 58/89/65 64/96/65 59/66/65
f 61/97/66 77/98/66 60/99/66
f 57/100/67 63/101/67 58/89/67
f 62/102/68 76/103/68 78/104/68
f 64/96/69 68/105/69 69/67/69
f 61/106/70 67/107/70 62/108/70
f 43/86/59 60/109/59 56/110/59
f 62/108/71 68/105/71 63/101/71
f 60/109/72 66/111/72 61/106/72
f 69/112/73 46/71/73 47/75/73
f 66/113/74 45/69/74 67/114/74
f 67/114/75 46/71/75 68/115/75
f 65/116/76 44/74/76 66/113/76
f 55/82/51 47/68/51 52/83/51
f 73/117/77 78/104/77 76/103/77
f 73/117/78 77/98/78 74/118/78
f 72/119/79 75/120/79 73/117/79
f 60/99/80 75/120/80 56/121/80
f 61/97/81 78/104/81 74/118/81
f 72/119/82 76/103/82 57/122/82
f 79/123/83 84/91/83 82/124/83
f 79/123/84 83/94/84 80/92/84
f 71/125/85 82/124/85 53/126/85
f 53/126/86 84/91/86 57/127/86
f 72/90/87 83/94/87 56/128/87
f 71/125/88 81/95/88 79/123/88
f 59/66/51 64/96/51 69/67/51
f 45/69/52 50/77/52 51/70/52
f 43/72/53 48/129/53 49/73/53
f 47/75/54 46/71/54 51/70/54
f 44/74/55 49/73/55 50/77/55
f 48/78/56 70/87/56 71/79/56
f 51/81/57 54/88/57 55/82/57
f 49/80/58 71/79/58 53/84/58
f 43/86/59 56/110/59 70/87/59
f 50/85/60 53/84/60 54/88/60
f 55/82/61 54/88/61 58/89/61
f 72/90/89 57/127/89 84/91/89
f 53/84/63 57/100/63 58/89/63
f 70/93/64 56/128/64 83/94/64
f 58/89/65 63/101/65 64/96/65
f 61/97/90 74/118/90 77/98/90
f 57/100/67 62/108/67 63/101/67
f 62/102/68 57/122/68 76/103/68
f 64/96/69 63/101/69 68/105/69
f 61/106/70 66/111/70 67/107/70
f 43/86/59 65/130/59 60/109/59
f 62/108/71 67/107/71 68/105/71
f 60/109/72 65/130/72 66/111/72
f 69/112/73 68/115/73 46/71/73
f 66/113/74 44/74/74 45/69/74
f 67/114/75 45/69/75 46/71/75
f 65/116/76 43/72/76 44/74/76
f 55/82/51 59/66/51 47/68/51
f 73/117/77 74/118/77 78/104/77
f 73/117/91 75/120/91 77/98/91
f 72/119/92 56/121/92 75/120/92
f 60/99/80 77/98/80 75/120/80
f 61/97/93 62/102/93 78/104/93
f 72/119/94 73/117/94 76/103/94
f 79/123/83 80/92/83 84/91/83
f 79/123/95 81/95/95 83/94/95
f 71/125/96 79/123/96 82/124/96
f 53/126/86 82/124/86 84/91/86
f 72/90/97 80/92/97 83/94/97
f 71/125/98 70/93/98 81/95/98
