# Blender v2.81 (sub 16) OBJ File: 'garbage.blend'
# www.blender.org
v 0.149755 1.400561 0.140400
v 0.141703 1.384653 0.162844
v 0.134682 1.359192 0.173981
v 0.130572 1.331001 0.170828
v 0.130476 1.307632 0.154230
v 0.129461 1.401977 0.121621
v 0.106552 1.387105 0.130316
v 0.094092 1.362024 0.136422
v 0.095420 1.333453 0.138301
v 0.110181 1.309048 0.135450
v 0.104960 1.351832 0.083090
v 0.104832 1.324627 0.092114
v 0.115615 1.303952 0.108785
v 0.160623 1.390369 0.087069
v 0.156417 1.338809 0.067318
v 0.149396 1.313348 0.078455
v 0.141343 1.297440 0.100898
v 0.180918 1.388953 0.105848
v 0.195679 1.364548 0.102998
v 0.197007 1.335977 0.104877
v 0.184547 1.310896 0.110982
v 0.161638 1.296024 0.119678
v 0.175484 1.394049 0.132514
v 0.186267 1.373375 0.149184
v 0.186139 1.346169 0.158209
v 0.175136 1.319722 0.157169
v 0.156204 1.301120 0.146344
v 0.134895 1.396881 0.094955
v 0.115963 1.378279 0.084130
v 0.160527 1.367000 0.070470
v 0.207079 1.375128 0.053242
v 0.209947 1.374928 0.055895
v 0.181848 1.389913 0.074404
v 0.186292 1.347868 0.060864
v 0.191894 1.389212 0.083700
v 0.201874 1.346781 0.075283
v 0.124392 1.389824 0.037840
v 0.134940 1.387154 0.034607
v 0.133376 1.395598 0.053196
v 0.124974 1.369537 0.048801
v 0.138210 1.394375 0.051714
v 0.129822 1.368310 0.047315
vt 0.274240 0.539347
vt 0.265397 0.539709
vt 0.266768 0.532487
vt 0.231414 0.551290
vt 0.214659 0.541092
vt 0.231357 0.542861
vt 0.231940 0.569242
vt 0.215985 0.562822
vt 0.231472 0.559719
vt 0.230890 0.533338
vt 0.220414 0.530957
vt 0.213134 0.552274
vt 0.289666 0.544440
vt 0.282983 0.540904
vt 0.290637 0.536818
vt 0.279682 0.529141
vt 0.275518 0.536619
vt 0.273707 0.532162
vt 0.280945 0.538772
vt 0.286431 0.530872
vt 0.290637 0.551375
vt 0.284312 0.543753
vt 0.278488 0.537315
vt 0.276318 0.541045
vt 0.804698 0.251197
vt 0.792375 0.255919
vt 0.792638 0.252041
vt 0.786357 0.239035
vt 0.792578 0.249274
vt 0.791489 0.249454
vt 0.271776 0.541127
vt 0.760733 0.199751
vt 0.757502 0.209505
vt 0.750621 0.206121
vt 0.278108 0.542645
vt 0.273009 0.544115
vt 0.772804 0.201934
vt 0.766718 0.213101
vt 0.766203 0.208706
vt 0.264007 0.548518
vt 0.277612 0.547903
vt 0.268747 0.555467
vt 0.275021 0.546378
vt 0.280714 0.548498
vt 0.281954 0.545638
vt 0.276612 0.557409
vt 0.240880 0.530957
vt 0.248168 0.561486
vt 0.249693 0.550306
vt 0.246843 0.539760
vt 0.242415 0.571620
vt 0.762287 0.211045
vt 0.762255 0.210544
vt 0.761023 0.221925
vt 0.757316 0.212491
vt 0.750922 0.216572
vt 0.772804 0.220841
vt 0.791613 0.252007
vt 0.791097 0.255536
vt 0.780068 0.250772
vt 0.780487 0.263708
vt 0.804698 0.264828
vt 0.798786 0.238814
vt 0.221949 0.571626
vt 0.283377 0.553479
vn -0.2010 -0.9689 0.1442
vn -0.6784 0.0168 0.7345
vn -0.3596 0.8173 0.4502
vn -0.6228 -0.4513 0.6391
vn -0.5876 0.4548 0.6693
vn -0.5939 0.7593 -0.2661
vn -0.8571 -0.5093 -0.0773
vn -0.8894 0.3800 -0.2539
vn 0.2010 0.9689 -0.1442
vn -0.9803 -0.0580 -0.1887
vn -0.3659 -0.6923 -0.6220
vn 0.4760 -0.5769 -0.6638
vn -0.3473 -0.2938 -0.8905
vn 0.2341 0.9715 -0.0384
vn 0.3596 -0.8173 -0.4502
vn 0.8032 0.4387 0.4031
vn 0.5876 -0.4548 -0.6693
vn 0.2159 -0.9281 -0.3033
vn 0.5939 -0.7593 0.2661
vn 0.9803 0.0580 0.1887
vn 0.8894 -0.3800 0.2539
vn 0.8571 0.5093 0.0773
vn 0.1027 -0.5763 0.8108
vn 0.3473 0.2938 0.8905
vn 0.2564 -0.1443 0.9557
vn 0.3659 0.6923 0.6220
vn 0.5319 -0.5785 -0.6184
vn 0.3107 0.9123 -0.2669
vn -0.3767 0.4859 -0.7886
vn 0.0404 0.9987 0.0317
vn 0.9585 -0.0883 0.2709
vn -0.2504 0.1436 -0.9574
vn -0.3639 -0.4508 -0.8151
vn 0.1062 0.9086 -0.4038
vn -0.8718 0.3751 -0.3152
vn -0.3630 -0.7245 -0.5860
vn 0.8124 0.3354 -0.4770
vn -0.6300 0.7727 0.0780
vn -0.6785 0.0168 0.7345
vn -0.3596 0.8173 0.4503
vn -0.6228 -0.4513 0.6390
vn 0.6021 0.0015 -0.7984
vn 0.2341 0.9715 -0.0383
vn 0.8487 0.4005 0.3453
vn 0.3107 0.9123 -0.2670
vn -0.4279 0.5245 -0.7360
vn 0.9815 0.0576 0.1825
vn -0.3475 0.0028 -0.9377
vn 0.1062 0.9086 -0.4039
vn -0.9670 -0.1420 -0.2115
vn 0.8293 0.4401 -0.3443
vn -0.7019 0.7122 0.0037
s off
f 17/1/1 27/2/1 5/3/1
f 3/4/2 9/5/2 4/6/2
f 1/7/3 7/8/3 2/9/3
f 5/10/4 9/5/4 10/11/4
f 2/9/5 8/12/5 3/4/5
f 6/13/6 29/14/6 7/15/6
f 9/16/7 13/17/7 10/18/7
f 7/15/8 11/19/8 8/20/8
f 1/21/9 28/22/9 6/13/9
f 8/20/10 12/23/10 9/16/10
f 13/17/11 16/24/11 17/1/11
f 30/25/12 42/26/12 38/27/12
f 11/19/13 16/24/13 12/23/13
f 28/28/14 41/29/14 39/30/14
f 16/24/15 22/31/15 17/1/15
f 19/32/16 35/33/16 18/34/16
f 15/35/17 21/36/17 16/24/17
f 20/37/18 34/38/18 36/39/18
f 22/31/19 26/40/19 27/2/19
f 19/41/20 25/42/20 20/43/20
f 1/21/9 18/44/9 14/45/9
f 20/43/21 26/40/21 21/36/21
f 18/44/22 24/46/22 19/41/22
f 27/47/23 4/6/23 5/10/23
f 24/48/24 3/4/24 25/49/24
f 25/49/25 4/6/25 26/50/25
f 23/51/26 2/9/26 24/48/26
f 13/17/1 5/3/1 10/18/1
f 31/52/27 36/39/27 34/38/27
f 31/52/28 35/33/28 32/53/28
f 30/54/29 33/55/29 31/52/29
f 18/34/30 33/55/30 14/56/30
f 19/32/31 36/39/31 32/53/31
f 30/54/32 34/38/32 15/57/32
f 37/58/33 42/26/33 40/59/33
f 37/58/34 41/29/34 38/27/34
f 29/60/35 40/59/35 11/61/35
f 11/61/36 42/26/36 15/62/36
f 30/25/37 41/29/37 14/63/37
f 29/60/38 39/30/38 37/58/38
f 17/1/1 22/31/1 27/2/1
f 3/4/39 8/12/39 9/5/39
f 1/7/40 6/64/40 7/8/40
f 5/10/41 4/6/41 9/5/41
f 2/9/5 7/8/5 8/12/5
f 6/13/6 28/22/6 29/14/6
f 9/16/7 12/23/7 13/17/7
f 7/15/8 29/14/8 11/19/8
f 1/21/9 14/45/9 28/22/9
f 8/20/10 11/19/10 12/23/10
f 13/17/11 12/23/11 16/24/11
f 30/25/42 15/62/42 42/26/42
f 11/19/13 15/35/13 16/24/13
f 28/28/43 14/63/43 41/29/43
f 16/24/15 21/36/15 22/31/15
f 19/32/44 32/53/44 35/33/44
f 15/35/17 20/43/17 21/36/17
f 20/37/18 15/57/18 34/38/18
f 22/31/19 21/36/19 26/40/19
f 19/41/20 24/46/20 25/42/20
f 1/21/9 23/65/9 18/44/9
f 20/43/21 25/42/21 26/40/21
f 18/44/22 23/65/22 24/46/22
f 27/47/23 26/50/23 4/6/23
f 24/48/24 2/9/24 3/4/24
f 25/49/25 3/4/25 4/6/25
f 23/51/26 1/7/26 2/9/26
f 13/17/1 17/1/1 5/3/1
f 31/52/27 32/53/27 36/39/27
f 31/52/45 33/55/45 35/33/45
f 30/54/46 14/56/46 33/55/46
f 18/34/30 35/33/30 33/55/30
f 19/32/47 20/37/47 36/39/47
f 30/54/48 31/52/48 34/38/48
f 37/58/33 38/27/33 42/26/33
f 37/58/49 39/30/49 41/29/49
f 29/60/50 37/58/50 40/59/50
f 11/61/36 40/59/36 42/26/36
f 30/25/51 38/27/51 41/29/51
f 29/60/52 28/28/52 39/30/52
v -0.840832 1.044113 0.121198
v -0.843690 1.020613 0.105037
v -0.841087 0.992253 0.101787
v -0.833720 0.966633 0.112319
v -0.823562 0.950617 0.133812
v -0.814093 1.049667 0.125754
v -0.797378 1.030232 0.112929
v -0.787610 1.003361 0.110900
v -0.787407 0.976252 0.120211
v -0.796823 0.956171 0.138368
v -0.769829 1.013584 0.162335
v -0.772009 0.985106 0.164755
v -0.787933 0.961283 0.164085
v -0.823051 1.054336 0.172633
v -0.805526 1.012700 0.204658
v -0.802923 0.984341 0.201408
v -0.805782 0.960841 0.185247
v -0.849790 1.048783 0.168077
v -0.859206 1.028701 0.186233
v -0.859004 1.001593 0.195545
v -0.849236 0.974722 0.193516
v -0.832520 0.955287 0.180690
v -0.858680 1.043671 0.142359
v -0.874605 1.019848 0.141689
v -0.876784 0.991370 0.144110
v -0.864634 0.965868 0.148972
v -0.841411 0.950176 0.154973
v -0.805203 1.054778 0.151472
v -0.781979 1.039086 0.157473
v -0.812894 1.038321 0.194125
v -0.845314 1.057087 0.227692
v -0.849092 1.056303 0.227048
v -0.835122 1.060686 0.193250
v -0.828915 1.026727 0.221164
v -0.848358 1.057936 0.190995
v -0.849445 1.022463 0.217665
v -0.767306 1.066835 0.194374
v -0.774623 1.066654 0.203050
v -0.783137 1.067895 0.184468
v -0.771610 1.044208 0.193137
v -0.786490 1.067812 0.188444
v -0.774973 1.044124 0.197125
vt 0.274240 0.539347
vt 0.265397 0.539709
vt 0.266768 0.532487
vt 0.231414 0.551290
vt 0.214659 0.541092
vt 0.231357 0.542861
vt 0.231940 0.569242
vt 0.215985 0.562822
vt 0.231472 0.559719
vt 0.230890 0.533338
vt 0.220414 0.530957
vt 0.213134 0.552274
vt 0.289666 0.544440
vt 0.282983 0.540904
vt 0.290637 0.536818
vt 0.279682 0.529141
vt 0.275518 0.536619
vt 0.273707 0.532162
vt 0.280945 0.538772
vt 0.286431 0.530872
vt 0.290637 0.551375
vt 0.284312 0.543753
vt 0.278488 0.537315
vt 0.276318 0.541045
vt 0.804698 0.251197
vt 0.792375 0.255919
vt 0.792638 0.252041
vt 0.786357 0.239035
vt 0.792578 0.249274
vt 0.791489 0.249454
vt 0.271776 0.541127
vt 0.760733 0.199751
vt 0.757502 0.209505
vt 0.750621 0.206121
vt 0.278108 0.542645
vt 0.273009 0.544115
vt 0.772804 0.201934
vt 0.766718 0.213101
vt 0.766203 0.208706
vt 0.264007 0.548518
vt 0.277612 0.547903
vt 0.268747 0.555467
vt 0.275021 0.546378
vt 0.280714 0.548498
vt 0.281954 0.545638
vt 0.276612 0.557409
vt 0.240880 0.530957
vt 0.248168 0.561486
vt 0.249693 0.550306
vt 0.246843 0.539760
vt 0.242415 0.571620
vt 0.762287 0.211045
vt 0.762255 0.210544
vt 0.761023 0.221925
vt 0.757316 0.212491
vt 0.750922 0.216572
vt 0.772804 0.220841
vt 0.791613 0.252007
vt 0.791097 0.255536
vt 0.780068 0.250772
vt 0.780487 0.263708
vt 0.804698 0.264828
vt 0.798786 0.238814
vt 0.221949 0.571626
vt 0.283377 0.553479
vn 0.1801 -0.9748 0.1315
vn 0.2227 -0.3152 -0.9225
vn 0.0233 0.5646 -0.8251
vn 0.2591 -0.7118 -0.6529
vn 0.1413 0.1255 -0.9820
vn 0.5850 0.7327 -0.3478
vn 0.8207 -0.5437 -0.1757
vn 0.8650 0.3421 -0.3670
vn -0.1801 0.9748 -0.1315
vn 0.9464 -0.0986 -0.3076
vn 0.6795 -0.4701 0.5633
vn -0.0376 -0.2536 0.9666
vn 0.7644 -0.0037 0.6447
vn -0.2612 0.9442 -0.2006
vn -0.0233 -0.5646 0.8251
vn -0.9295 0.3588 -0.0852
vn -0.1413 -0.1255 0.9820
vn 0.0372 -0.7348 0.6772
vn -0.5850 -0.7327 0.3478
vn -0.9464 0.0986 0.3076
vn -0.8650 -0.3421 0.3670
vn -0.8207 0.5437 0.1757
vn -0.4438 -0.8063 -0.3911
vn -0.7644 0.0037 -0.6447
vn -0.6830 -0.4370 -0.5852
vn -0.6795 0.4700 -0.5633
vn -0.1083 -0.2646 0.9583
vn -0.2097 0.9769 0.0400
vn 0.6772 0.6837 0.2718
vn -0.1303 0.9235 -0.3607
vn -0.9565 -0.0686 0.2834
vn 0.6787 0.4376 0.5898
vn 0.7540 -0.1780 0.6323
vn 0.0352 0.9981 0.0506
vn 0.8804 0.3608 -0.3078
vn 0.6618 -0.5122 0.5475
vn -0.4940 0.5689 0.6575
vn 0.4450 0.6218 -0.6445
vn 0.5850 0.7327 -0.3479
vn -0.1265 0.3458 0.9297
vn -0.9373 0.3484 -0.0033
vn -0.6795 0.4701 -0.5633
vn 0.6924 0.6957 0.1912
vn -0.1304 0.9235 -0.3607
vn -0.9443 0.1005 0.3132
vn 0.7642 0.2888 0.5767
vn 0.0352 0.9981 0.0505
vn 0.9529 -0.1674 -0.2530
vn -0.5826 0.6223 0.5227
vn 0.5488 0.5832 -0.5989
s off
f 59/66/53 69/67/53 47/68/53
f 45/69/54 51/70/54 46/71/54
f 43/72/55 49/73/55 44/74/55
f 47/75/56 51/70/56 52/76/56
f 44/74/57 50/77/57 45/69/57
f 48/78/58 71/79/58 49/80/58
f 51/81/59 55/82/59 52/83/59
f 49/80/60 53/84/60 50/85/60
f 43/86/61 70/87/61 48/78/61
f 50/85/62 54/88/62 51/81/62
f 55/82/63 58/89/63 59/66/63
f 72/90/64 84/91/64 80/92/64
f 53/84/65 58/89/65 54/88/65
f 70/93/66 83/94/66 81/95/66
f 58/89/67 64/96/67 59/66/67
f 61/97/68 77/98/68 60/99/68
f 57/100/69 63/101/69 58/89/69
f 62/102/70 76/103/70 78/104/70
f 64/96/71 68/105/71 69/67/71
f 61/106/72 67/107/72 62/108/72
f 43/86/61 60/109/61 56/110/61
f 62/108/73 68/105/73 63/101/73
f 60/109/74 66/111/74 61/106/74
f 69/112/75 46/71/75 47/75/75
f 66/113/76 45/69/76 67/114/76
f 67/114/77 46/71/77 68/115/77
f 65/116/78 44/74/78 66/113/78
f 55/82/53 47/68/53 52/83/53
f 73/117/79 78/104/79 76/103/79
f 73/117/80 77/98/80 74/118/80
f 72/119/81 75/120/81 73/117/81
f 60/99/82 75/120/82 56/121/82
f 61/97/83 78/104/83 74/118/83
f 72/119/84 76/103/84 57/122/84
f 79/123/85 84/91/85 82/124/85
f 79/123/86 83/94/86 80/92/86
f 71/125/87 82/124/87 53/126/87
f 53/126/88 84/91/88 57/127/88
f 72/90/89 83/94/89 56/128/89
f 71/125/90 81/95/90 79/123/90
f 59/66/53 64/96/53 69/67/53
f 45/69/54 50/77/54 51/70/54
f 43/72/55 48/129/55 49/73/55
f 47/75/56 46/71/56 51/70/56
f 44/74/57 49/73/57 50/77/57
f 48/78/91 70/87/91 71/79/91
f 51/81/59 54/88/59 55/82/59
f 49/80/60 71/79/60 53/84/60
f 43/86/61 56/110/61 70/87/61
f 50/85/62 53/84/62 54/88/62
f 55/82/63 54/88/63 58/89/63
f 72/90/92 57/127/92 84/91/92
f 53/84/65 57/100/65 58/89/65
f 70/93/66 56/128/66 83/94/66
f 58/89/67 63/101/67 64/96/67
f 61/97/93 74/118/93 77/98/93
f 57/100/69 62/108/69 63/101/69
f 62/102/70 57/122/70 76/103/70
f 64/96/71 63/101/71 68/105/71
f 61/106/72 66/111/72 67/107/72
f 43/86/61 65/130/61 60/109/61
f 62/108/73 67/107/73 68/105/73
f 60/109/74 65/130/74 66/111/74
f 69/112/75 68/115/75 46/71/75
f 66/113/76 44/74/76 45/69/76
f 67/114/77 45/69/77 46/71/77
f 65/116/94 43/72/94 44/74/94
f 55/82/53 59/66/53 47/68/53
f 73/117/79 74/118/79 78/104/79
f 73/117/80 75/120/80 77/98/80
f 72/119/95 56/121/95 75/120/95
f 60/99/96 77/98/96 75/120/96
f 61/97/97 62/102/97 78/104/97
f 72/119/98 73/117/98 76/103/98
f 79/123/85 80/92/85 84/91/85
f 79/123/99 81/95/99 83/94/99
f 71/125/100 79/123/100 82/124/100
f 53/126/88 82/124/88 84/91/88
f 72/90/101 80/92/101 83/94/101
f 71/125/102 70/93/102 81/95/102
