# Blender v2.81 (sub 16) OBJ File: 'garbage.blend'
# www.blender.org
v 0.221532 1.244856 -0.405718
v 0.215514 1.237912 -0.378567
v 0.207097 1.218552 -0.359178
v 0.198537 1.191964 -0.352745
v 0.192127 1.165271 -0.360993
v 0.198577 1.244640 -0.421195
v 0.175754 1.237537 -0.405375
v 0.161186 1.218119 -0.390134
v 0.158777 1.191589 -0.379554
v 0.169171 1.165055 -0.376471
v 0.160651 1.191143 -0.438489
v 0.158313 1.168226 -0.421431
v 0.168904 1.151567 -0.400649
v 0.220997 1.217880 -0.454073
v 0.206027 1.164599 -0.455888
v 0.197610 1.145239 -0.436499
v 0.191591 1.138295 -0.409349
v 0.243952 1.218096 -0.438595
v 0.254347 1.191562 -0.435512
v 0.251937 1.165032 -0.424933
v 0.237370 1.145614 -0.409691
v 0.214547 1.138511 -0.393871
v 0.244220 1.231585 -0.414417
v 0.254810 1.214925 -0.393635
v 0.252472 1.192008 -0.376577
v 0.237833 1.168976 -0.367814
v 0.214814 1.151999 -0.369693
v 0.198309 1.231152 -0.445373
v 0.175290 1.214175 -0.447252
v 0.214587 1.191188 -0.462321
v 0.257917 1.185011 -0.487106
v 0.261161 1.185042 -0.484919
v 0.239292 1.209774 -0.468587
v 0.235212 1.165568 -0.468674
v 0.250655 1.209881 -0.460926
v 0.252838 1.165734 -0.456790
v 0.176734 1.210092 -0.495505
v 0.186035 1.204651 -0.499071
v 0.189079 1.218222 -0.484043
v 0.176418 1.194092 -0.478893
v 0.193342 1.215729 -0.485678
v 0.180693 1.191591 -0.480532
vt 0.274240 0.539347
vt 0.265397 0.539709
vt 0.266768 0.532487
vt 0.231414 0.551290
vt 0.214659 0.541092
vt 0.231357 0.542861
vt 0.231940 0.569242
vt 0.215985 0.562822
vt 0.231472 0.559719
vt 0.230890 0.533338
vt 0.220414 0.530957
vt 0.213134 0.552274
vt 0.289666 0.544440
vt 0.282983 0.540904
vt 0.290637 0.536818
vt 0.279682 0.529141
vt 0.275518 0.536619
vt 0.273707 0.532162
vt 0.280945 0.538772
vt 0.286431 0.530872
vt 0.290637 0.551375
vt 0.284312 0.543753
vt 0.278488 0.537315
vt 0.276318 0.541045
vt 0.804698 0.251197
vt 0.792375 0.255919
vt 0.792638 0.252041
vt 0.786357 0.239035
vt 0.792578 0.249274
vt 0.791489 0.249454
vt 0.271776 0.541127
vt 0.760733 0.199751
vt 0.757502 0.209505
vt 0.750621 0.206121
vt 0.278108 0.542645
vt 0.273009 0.544115
vt 0.772804 0.201934
vt 0.766718 0.213101
vt 0.766203 0.208706
vt 0.264007 0.548518
vt 0.277612 0.547903
vt 0.268747 0.555467
vt 0.275021 0.546378
vt 0.280714 0.548498
vt 0.281954 0.545638
vt 0.276612 0.557409
vt 0.240880 0.530957
vt 0.248168 0.561486
vt 0.249693 0.550306
vt 0.246843 0.539760
vt 0.242415 0.571620
vt 0.762287 0.211045
vt 0.762255 0.210544
vt 0.761023 0.221925
vt 0.757316 0.212491
vt 0.750922 0.216572
vt 0.772804 0.220841
vt 0.791613 0.252007
vt 0.791097 0.255536
vt 0.780068 0.250772
vt 0.780487 0.263708
vt 0.804698 0.264828
vt 0.798786 0.238814
vt 0.221949 0.571626
vt 0.283377 0.553479
vn -0.3066 -0.8298 0.4663
vn -0.5247 0.3560 0.7733
vn -0.1527 0.9650 0.2130
vn -0.5541 -0.1214 0.8235
vn -0.3861 0.7311 0.5624
vn -0.5188 0.7490 -0.4121
vn -0.9202 -0.3374 0.1984
vn -0.8579 0.4528 -0.2431
vn 0.3066 0.8298 -0.4663
vn -0.9965 0.0776 -0.0323
vn -0.5668 -0.7593 -0.3198
vn 0.2612 -0.8230 -0.5045
vn -0.5410 -0.4660 -0.7001
vn 0.3584 0.8563 -0.3719
vn 0.1527 -0.9650 -0.2130
vn 0.9168 0.3751 0.1372
vn 0.3861 -0.7311 -0.5624
vn 0.0238 -0.9995 -0.0214
vn 0.5188 -0.7490 0.4121
vn 0.9965 -0.0776 0.0323
vn 0.8579 -0.4528 0.2431
vn 0.9202 0.3374 -0.1984
vn 0.1654 -0.3272 0.9304
vn 0.5410 0.4660 0.7001
vn 0.4024 0.0908 0.9109
vn 0.5668 0.7593 0.3198
vn 0.3236 -0.8220 -0.4685
vn 0.3830 0.7205 -0.5781
vn -0.4408 0.3008 -0.8457
vn 0.1863 0.9389 -0.2895
vn 0.9695 -0.1872 0.1584
vn -0.3969 -0.0931 -0.9131
vn -0.5657 -0.5885 -0.5776
vn 0.1587 0.7165 -0.6793
vn -0.8525 0.4271 -0.3015
vn -0.5620 -0.7797 -0.2762
vn 0.7516 0.0232 -0.6592
vn -0.4896 0.8675 -0.0881
vn -0.1527 0.9651 0.2130
vn 0.4415 -0.3427 -0.8292
vn 0.3583 0.8563 -0.3719
vn 0.1527 -0.9651 -0.2130
vn 0.9453 0.3139 0.0889
vn 0.0238 -0.9995 -0.0213
vn 0.3237 -0.8220 -0.4685
vn 0.3830 0.7204 -0.5781
vn -0.4757 0.3620 -0.8017
vn 0.9964 -0.0800 0.0264
vn -0.5078 -0.2011 -0.8377
vn 0.1587 0.7165 -0.6792
vn -0.9995 -0.0104 -0.0290
vn 0.8069 0.1564 -0.5696
vn -0.5817 0.8030 -0.1297
s off
f 17/1/1 27/2/1 5/3/1
f 3/4/2 9/5/2 4/6/2
f 1/7/3 7/8/3 2/9/3
f 5/10/4 9/5/4 10/11/4
f 2/9/5 8/12/5 3/4/5
f 6/13/6 29/14/6 7/15/6
f 9/16/7 13/17/7 10/18/7
f 7/15/8 11/19/8 8/20/8
f 1/21/9 28/22/9 6/13/9
f 8/20/10 12/23/10 9/16/10
f 13/17/11 16/24/11 17/1/11
f 30/25/12 42/26/12 38/27/12
f 11/19/13 16/24/13 12/23/13
f 28/28/14 41/29/14 39/30/14
f 16/24/15 22/31/15 17/1/15
f 19/32/16 35/33/16 18/34/16
f 15/35/17 21/36/17 16/24/17
f 20/37/18 34/38/18 36/39/18
f 22/31/19 26/40/19 27/2/19
f 19/41/20 25/42/20 20/43/20
f 1/21/9 18/44/9 14/45/9
f 20/43/21 26/40/21 21/36/21
f 18/44/22 24/46/22 19/41/22
f 27/47/23 4/6/23 5/10/23
f 24/48/24 3/4/24 25/49/24
f 25/49/25 4/6/25 26/50/25
f 23/51/26 2/9/26 24/48/26
f 13/17/1 5/3/1 10/18/1
f 31/52/27 36/39/27 34/38/27
f 31/52/28 35/33/28 32/53/28
f 30/54/29 33/55/29 31/52/29
f 18/34/30 33/55/30 14/56/30
f 19/32/31 36/39/31 32/53/31
f 30/54/32 34/38/32 15/57/32
f 37/58/33 42/26/33 40/59/33
f 37/58/34 41/29/34 38/27/34
f 29/60/35 40/59/35 11/61/35
f 11/61/36 42/26/36 15/62/36
f 30/25/37 41/29/37 14/63/37
f 29/60/38 39/30/38 37/58/38
f 17/1/1 22/31/1 27/2/1
f 3/4/2 8/12/2 9/5/2
f 1/7/39 6/64/39 7/8/39
f 5/10/4 4/6/4 9/5/4
f 2/9/5 7/8/5 8/12/5
f 6/13/6 28/22/6 29/14/6
f 9/16/7 12/23/7 13/17/7
f 7/15/8 29/14/8 11/19/8
f 1/21/9 14/45/9 28/22/9
f 8/20/10 11/19/10 12/23/10
f 13/17/11 12/23/11 16/24/11
f 30/25/40 15/62/40 42/26/40
f 11/19/13 15/35/13 16/24/13
f 28/28/41 14/63/41 41/29/41
f 16/24/42 21/36/42 22/31/42
f 19/32/43 32/53/43 35/33/43
f 15/35/17 20/43/17 21/36/17
f 20/37/44 15/57/44 34/38/44
f 22/31/19 21/36/19 26/40/19
f 19/41/20 24/46/20 25/42/20
f 1/21/9 23/65/9 18/44/9
f 20/43/21 25/42/21 26/40/21
f 18/44/22 23/65/22 24/46/22
f 27/47/23 26/50/23 4/6/23
f 24/48/24 2/9/24 3/4/24
f 25/49/25 3/4/25 4/6/25
f 23/51/26 1/7/26 2/9/26
f 13/17/1 17/1/1 5/3/1
f 31/52/45 32/53/45 36/39/45
f 31/52/46 33/55/46 35/33/46
f 30/54/47 14/56/47 33/55/47
f 18/34/30 35/33/30 33/55/30
f 19/32/48 20/37/48 36/39/48
f 30/54/49 31/52/49 34/38/49
f 37/58/33 38/27/33 42/26/33
f 37/58/50 39/30/50 41/29/50
f 29/60/51 37/58/51 40/59/51
f 11/61/36 40/59/36 42/26/36
f 30/25/52 38/27/52 41/29/52
f 29/60/53 28/28/53 39/30/53
v 0.101756 1.314399 0.506445
v 0.089126 1.288722 0.504786
v 0.089961 1.260345 0.508743
v 0.104038 1.236872 0.517257
v 0.127585 1.224594 0.528045
v 0.122790 1.316138 0.488525
v 0.125557 1.291734 0.473748
v 0.132028 1.263823 0.472903
v 0.140469 1.239885 0.486218
v 0.148618 1.226333 0.510125
v 0.181446 1.282126 0.489907
v 0.183267 1.255735 0.500944
v 0.173327 1.235484 0.518627
v 0.151174 1.332702 0.523449
v 0.188797 1.296950 0.542750
v 0.189633 1.268573 0.546708
v 0.177003 1.242896 0.545049
v 0.130141 1.330963 0.541369
v 0.138290 1.317410 0.565275
v 0.146730 1.293472 0.578591
v 0.153202 1.265561 0.577746
v 0.155969 1.241157 0.562969
v 0.105432 1.321811 0.532867
v 0.095492 1.301560 0.550550
v 0.097312 1.275169 0.561587
v 0.110404 1.249711 0.563021
v 0.131260 1.232006 0.554467
v 0.147499 1.325290 0.497027
v 0.168354 1.307585 0.488473
v 0.174721 1.320423 0.534237
v 0.176770 1.351558 0.573688
v 0.173797 1.351313 0.576220
v 0.157971 1.345508 0.543471
v 0.184552 1.318147 0.566180
v 0.147560 1.344647 0.552341
v 0.168402 1.316811 0.579939
v 0.204025 1.339962 0.493606
v 0.205531 1.343001 0.504439
v 0.186016 1.341482 0.498428
v 0.201407 1.318727 0.502223
v 0.186706 1.342875 0.503392
v 0.202100 1.320124 0.507202
vt 0.274240 0.539347
vt 0.265397 0.539709
vt 0.266768 0.532487
vt 0.231414 0.551290
vt 0.214659 0.541092
vt 0.231357 0.542861
vt 0.231940 0.569242
vt 0.215985 0.562822
vt 0.231472 0.559719
vt 0.230890 0.533338
vt 0.220414 0.530957
vt 0.213134 0.552274
vt 0.289666 0.544440
vt 0.282983 0.540904
vt 0.290637 0.536818
vt 0.279682 0.529141
vt 0.275518 0.536619
vt 0.273707 0.532162
vt 0.280945 0.538772
vt 0.286431 0.530872
vt 0.290637 0.551375
vt 0.284312 0.543753
vt 0.278488 0.537315
vt 0.276318 0.541045
vt 0.804698 0.251197
vt 0.792375 0.255919
vt 0.792638 0.252041
vt 0.786357 0.239035
vt 0.792578 0.249274
vt 0.791489 0.249454
vt 0.271776 0.541127
vt 0.760733 0.199751
vt 0.757502 0.209505
vt 0.750621 0.206121
vt 0.278108 0.542645
vt 0.273009 0.544115
vt 0.772804 0.201934
vt 0.766718 0.213101
vt 0.766203 0.208706
vt 0.264007 0.548518
vt 0.277612 0.547903
vt 0.268747 0.555467
vt 0.275021 0.546378
vt 0.280714 0.548498
vt 0.281954 0.545638
vt 0.276612 0.557409
vt 0.240880 0.530957
vt 0.248168 0.561486
vt 0.249693 0.550306
vt 0.246843 0.539760
vt 0.242415 0.571620
vt 0.762287 0.211045
vt 0.762255 0.210544
vt 0.761023 0.221925
vt 0.757316 0.212491
vt 0.750922 0.216572
vt 0.772804 0.220841
vt 0.791613 0.252007
vt 0.791097 0.255536
vt 0.780068 0.250772
vt 0.780487 0.263708
vt 0.804698 0.264828
vt 0.798786 0.238814
vt 0.221949 0.571626
vt 0.283377 0.553479
vn 0.2693 -0.9364 0.2252
vn -0.5157 -0.5481 -0.6585
vn -0.6237 0.3519 -0.6979
vn -0.2711 -0.8741 -0.4031
vn -0.6375 -0.1248 -0.7603
vn 0.0973 0.5236 -0.8464
vn 0.4499 -0.7024 -0.5515
vn 0.2917 0.0964 -0.9516
vn -0.2693 0.9364 -0.2252
vn 0.4135 -0.3269 -0.8498
vn 0.8974 -0.4413 -0.0010
vn 0.7024 -0.0194 0.7115
vn 0.9900 0.0096 -0.1404
vn -0.3733 0.9054 -0.2021
vn 0.6237 -0.3519 0.6979
vn -0.7061 0.4852 0.5157
vn 0.6375 0.1248 0.7603
vn 0.5641 -0.5589 0.6079
vn -0.0973 -0.5236 0.8464
vn -0.4135 0.3269 0.8498
vn -0.2917 -0.0964 0.9516
vn -0.4499 0.7024 0.5515
vn -0.5448 -0.7847 0.2959
vn -0.9900 -0.0096 0.1404
vn -0.8683 -0.4329 0.2422
vn -0.8973 0.4413 0.0010
vn 0.6493 -0.0196 0.7602
vn -0.1626 0.9821 -0.0955
vn 0.6198 0.6000 -0.5058
vn -0.4026 0.8271 -0.3923
vn -0.4293 0.1629 0.8883
vn 0.8687 0.4353 -0.2364
vn 0.9830 -0.1586 -0.0923
vn 0.0086 0.9625 -0.2712
vn 0.3449 0.1250 -0.9303
vn 0.8759 -0.4822 0.0134
vn 0.1242 0.7786 0.6150
vn -0.2101 0.3747 -0.9030
vn 0.8973 -0.4413 -0.0010
vn 0.5840 0.5625 0.5852
vn -0.6503 0.4950 0.5763
vn 0.5641 -0.5589 0.6078
vn -0.8974 0.4413 0.0010
vn 0.6493 -0.0196 0.7603
vn 0.5698 0.5907 -0.5713
vn -0.4026 0.8270 -0.3923
vn -0.4080 0.3297 0.8514
vn 0.9243 0.2748 -0.2649
vn 0.0086 0.9625 -0.2713
vn 0.4618 -0.3818 -0.8006
vn -0.0376 0.8148 0.5785
vn -0.1046 0.3300 -0.9382
s off
f 59/66/54 69/67/54 47/68/54
f 45/69/55 51/70/55 46/71/55
f 43/72/56 49/73/56 44/74/56
f 47/75/57 51/70/57 52/76/57
f 44/74/58 50/77/58 45/69/58
f 48/78/59 71/79/59 49/80/59
f 51/81/60 55/82/60 52/83/60
f 49/80/61 53/84/61 50/85/61
f 43/86/62 70/87/62 48/78/62
f 50/85/63 54/88/63 51/81/63
f 55/82/64 58/89/64 59/66/64
f 72/90/65 84/91/65 80/92/65
f 53/84/66 58/89/66 54/88/66
f 70/93/67 83/94/67 81/95/67
f 58/89/68 64/96/68 59/66/68
f 61/97/69 77/98/69 60/99/69
f 57/100/70 63/101/70 58/89/70
f 62/102/71 76/103/71 78/104/71
f 64/96/72 68/105/72 69/67/72
f 61/106/73 67/107/73 62/108/73
f 43/86/62 60/109/62 56/110/62
f 62/108/74 68/105/74 63/101/74
f 60/109/75 66/111/75 61/106/75
f 69/112/76 46/71/76 47/75/76
f 66/113/77 45/69/77 67/114/77
f 67/114/78 46/71/78 68/115/78
f 65/116/79 44/74/79 66/113/79
f 55/82/54 47/68/54 52/83/54
f 73/117/80 78/104/80 76/103/80
f 73/117/81 77/98/81 74/118/81
f 72/119/82 75/120/82 73/117/82
f 60/99/83 75/120/83 56/121/83
f 61/97/84 78/104/84 74/118/84
f 72/119/85 76/103/85 57/122/85
f 79/123/86 84/91/86 82/124/86
f 79/123/87 83/94/87 80/92/87
f 71/125/88 82/124/88 53/126/88
f 53/126/89 84/91/89 57/127/89
f 72/90/90 83/94/90 56/128/90
f 71/125/91 81/95/91 79/123/91
f 59/66/54 64/96/54 69/67/54
f 45/69/55 50/77/55 51/70/55
f 43/72/56 48/129/56 49/73/56
f 47/75/57 46/71/57 51/70/57
f 44/74/58 49/73/58 50/77/58
f 48/78/59 70/87/59 71/79/59
f 51/81/60 54/88/60 55/82/60
f 49/80/61 71/79/61 53/84/61
f 43/86/62 56/110/62 70/87/62
f 50/85/63 53/84/63 54/88/63
f 55/82/92 54/88/92 58/89/92
f 72/90/93 57/127/93 84/91/93
f 53/84/66 57/100/66 58/89/66
f 70/93/67 56/128/67 83/94/67
f 58/89/68 63/101/68 64/96/68
f 61/97/94 74/118/94 77/98/94
f 57/100/70 62/108/70 63/101/70
f 62/102/95 57/122/95 76/103/95
f 64/96/72 63/101/72 68/105/72
f 61/106/73 66/111/73 67/107/73
f 43/86/62 65/130/62 60/109/62
f 62/108/74 67/107/74 68/105/74
f 60/109/75 65/130/75 66/111/75
f 69/112/76 68/115/76 46/71/76
f 66/113/77 44/74/77 45/69/77
f 67/114/78 45/69/78 46/71/78
f 65/116/96 43/72/96 44/74/96
f 55/82/54 59/66/54 47/68/54
f 73/117/97 74/118/97 78/104/97
f 73/117/81 75/120/81 77/98/81
f 72/119/98 56/121/98 75/120/98
f 60/99/99 77/98/99 75/120/99
f 61/97/100 62/102/100 78/104/100
f 72/119/101 73/117/101 76/103/101
f 79/123/86 80/92/86 84/91/86
f 79/123/102 81/95/102 83/94/102
f 71/125/103 79/123/103 82/124/103
f 53/126/89 82/124/89 84/91/89
f 72/90/104 80/92/104 83/94/104
f 71/125/105 70/93/105 81/95/105
