# Blender v2.81 (sub 16) OBJ File: 'garbage.blend'
# www.blender.org
v -0.344886 1.570108 -0.505553
v -0.341946 1.547016 -0.522277
v -0.345685 1.518947 -0.526723
v -0.355100 1.493422 -0.517698
v -0.367669 1.477282 -0.497620
v -0.328773 1.568070 -0.483130
v -0.314039 1.543485 -0.483439
v -0.313460 1.514870 -0.481876
v -0.327193 1.489892 -0.478860
v -0.351557 1.475243 -0.475197
v -0.334645 1.524366 -0.431604
v -0.345539 1.498115 -0.435323
v -0.362149 1.479991 -0.450061
v -0.366071 1.579604 -0.455281
v -0.388055 1.537938 -0.426178
v -0.391793 1.509869 -0.430624
v -0.388854 1.486777 -0.447348
v -0.382183 1.581642 -0.477704
v -0.406547 1.566993 -0.474041
v -0.420280 1.542015 -0.471025
v -0.419701 1.513400 -0.469462
v -0.404966 1.488816 -0.469771
v -0.371591 1.576894 -0.502840
v -0.388201 1.558770 -0.517578
v -0.399095 1.532519 -0.521297
v -0.401354 1.505177 -0.512999
v -0.394374 1.484068 -0.494907
v -0.339366 1.572817 -0.457994
v -0.332385 1.551709 -0.439903
v -0.378640 1.563463 -0.435204
v -0.418424 1.593956 -0.431035
v -0.420700 1.594244 -0.434204
v -0.386707 1.591126 -0.448037
v -0.411259 1.559663 -0.428592
v -0.394682 1.592135 -0.459137
v -0.423630 1.561229 -0.445809
v -0.340746 1.577402 -0.399691
v -0.351694 1.580184 -0.398579
v -0.344085 1.582059 -0.417496
v -0.348913 1.556989 -0.406666
v -0.349102 1.583334 -0.416986
v -0.353945 1.558267 -0.406155
vt 0.274240 0.539347
vt 0.265397 0.539709
vt 0.266768 0.532487
vt 0.231414 0.551290
vt 0.214659 0.541092
vt 0.231357 0.542861
vt 0.231940 0.569242
vt 0.215985 0.562822
vt 0.231472 0.559719
vt 0.230890 0.533338
vt 0.220414 0.530957
vt 0.213134 0.552274
vt 0.289666 0.544440
vt 0.282983 0.540904
vt 0.290637 0.536818
vt 0.279682 0.529141
vt 0.275518 0.536619
vt 0.273707 0.532162
vt 0.280945 0.538772
vt 0.286431 0.530872
vt 0.290637 0.551375
vt 0.284312 0.543753
vt 0.278488 0.537315
vt 0.276318 0.541045
vt 0.804698 0.251197
vt 0.792375 0.255919
vt 0.792638 0.252041
vt 0.786357 0.239035
vt 0.792578 0.249274
vt 0.791489 0.249454
vt 0.271776 0.541127
vt 0.760733 0.199751
vt 0.757502 0.209505
vt 0.750621 0.206121
vt 0.278108 0.542645
vt 0.273009 0.544115
vt 0.772804 0.201934
vt 0.766718 0.213101
vt 0.766203 0.208706
vt 0.264007 0.548518
vt 0.277612 0.547903
vt 0.268747 0.555467
vt 0.275021 0.546378
vt 0.280714 0.548498
vt 0.281954 0.545638
vt 0.276612 0.557409
vt 0.240880 0.530957
vt 0.248168 0.561486
vt 0.249693 0.550306
vt 0.246843 0.539760
vt 0.242415 0.571620
vt 0.762287 0.211045
vt 0.762255 0.210544
vt 0.761023 0.221925
vt 0.757316 0.212491
vt 0.750922 0.216572
vt 0.772804 0.220841
vt 0.791613 0.252007
vt 0.791097 0.255536
vt 0.780068 0.250772
vt 0.780487 0.263708
vt 0.804698 0.264828
vt 0.798786 0.238814
vt 0.221949 0.571626
vt 0.283377 0.553479
vn -0.2375 -0.9678 0.0827
vn 0.7039 -0.4531 -0.5470
vn 0.7434 0.4518 -0.4931
vn 0.4324 -0.8154 -0.3849
vn 0.8113 -0.0155 -0.5844
vn 0.8305 0.4945 0.2565
vn 0.5194 -0.7727 0.3648
vn 0.9234 0.0395 0.3817
vn 0.2375 0.9678 -0.0827
vn 0.8161 -0.3980 0.4191
vn -0.0685 -0.5909 0.8038
vn -0.7667 -0.1380 0.6270
vn 0.0584 -0.1637 0.9848
vn 0.2233 0.9556 -0.1920
vn -0.7434 -0.4518 0.4931
vn -0.4606 0.6033 -0.6510
vn -0.8113 0.0155 0.5844
vn -0.6467 -0.6457 0.4060
vn -0.8305 -0.4945 -0.2565
vn -0.8161 0.3980 -0.4191
vn -0.9234 -0.0395 -0.3817
vn -0.5194 0.7727 -0.3648
vn -0.2425 -0.6763 -0.6955
vn -0.0584 0.1637 -0.9848
vn -0.1658 -0.2738 -0.9474
vn 0.0685 0.5909 -0.8038
vn -0.2376 -0.9678 0.0827
vn -0.8108 -0.1287 0.5709
vn 0.0991 0.9949 0.0193
vn 0.4473 0.4804 0.7544
vn 0.4161 0.8826 -0.2187
vn -0.8516 0.2395 -0.4664
vn 0.1599 0.2761 0.9477
vn 0.0126 -0.3279 0.9446
vn 0.2603 0.9449 0.1984
vn 0.8975 0.0585 0.4370
vn -0.0807 -0.6274 0.7745
vn -0.6307 0.7481 0.2066
vn 0.9136 0.4012 -0.0664
vn 0.4324 -0.8154 -0.3848
vn 0.8305 0.4945 0.2566
vn 0.9235 0.0395 0.3817
vn -0.6367 0.4550 0.6226
vn 0.2233 0.9556 -0.1921
vn -0.5256 0.6035 -0.5996
vn -0.9235 -0.0395 -0.3817
vn 0.5168 0.4797 0.7091
vn -0.8181 0.3998 -0.4134
vn 0.1853 0.1083 0.9767
vn 0.2603 0.9449 0.1983
vn 0.7636 -0.4602 0.4528
vn -0.0808 -0.6274 0.7745
vn -0.5813 0.8117 0.0571
vn 0.9404 0.3386 0.0323
s off
f 17/1/1 27/2/1 5/3/1
f 3/4/2 9/5/2 4/6/2
f 1/7/3 7/8/3 2/9/3
f 5/10/4 9/5/4 10/11/4
f 2/9/5 8/12/5 3/4/5
f 6/13/6 29/14/6 7/15/6
f 9/16/7 13/17/7 10/18/7
f 7/15/8 11/19/8 8/20/8
f 1/21/9 28/22/9 6/13/9
f 8/20/10 12/23/10 9/16/10
f 13/17/11 16/24/11 17/1/11
f 30/25/12 42/26/12 38/27/12
f 11/19/13 16/24/13 12/23/13
f 28/28/14 41/29/14 39/30/14
f 16/24/15 22/31/15 17/1/15
f 19/32/16 35/33/16 18/34/16
f 15/35/17 21/36/17 16/24/17
f 20/37/18 34/38/18 36/39/18
f 22/31/19 26/40/19 27/2/19
f 19/41/20 25/42/20 20/43/20
f 1/21/9 18/44/9 14/45/9
f 20/43/21 26/40/21 21/36/21
f 18/44/22 24/46/22 19/41/22
f 27/47/23 4/6/23 5/10/23
f 24/48/24 3/4/24 25/49/24
f 25/49/25 4/6/25 26/50/25
f 23/51/26 2/9/26 24/48/26
f 13/17/27 5/3/27 10/18/27
f 31/52/28 36/39/28 34/38/28
f 31/52/29 35/33/29 32/53/29
f 30/54/30 33/55/30 31/52/30
f 18/34/31 33/55/31 14/56/31
f 19/32/32 36/39/32 32/53/32
f 30/54/33 34/38/33 15/57/33
f 37/58/34 42/26/34 40/59/34
f 37/58/35 41/29/35 38/27/35
f 29/60/36 40/59/36 11/61/36
f 11/61/37 42/26/37 15/62/37
f 30/25/38 41/29/38 14/63/38
f 29/60/39 39/30/39 37/58/39
f 17/1/27 22/31/27 27/2/27
f 3/4/2 8/12/2 9/5/2
f 1/7/3 6/64/3 7/8/3
f 5/10/40 4/6/40 9/5/40
f 2/9/5 7/8/5 8/12/5
f 6/13/41 28/22/41 29/14/41
f 9/16/7 12/23/7 13/17/7
f 7/15/42 29/14/42 11/19/42
f 1/21/9 14/45/9 28/22/9
f 8/20/10 11/19/10 12/23/10
f 13/17/11 12/23/11 16/24/11
f 30/25/43 15/62/43 42/26/43
f 11/19/13 15/35/13 16/24/13
f 28/28/44 14/63/44 41/29/44
f 16/24/15 21/36/15 22/31/15
f 19/32/45 32/53/45 35/33/45
f 15/35/17 20/43/17 21/36/17
f 20/37/18 15/57/18 34/38/18
f 22/31/19 21/36/19 26/40/19
f 19/41/20 24/46/20 25/42/20
f 1/21/9 23/65/9 18/44/9
f 20/43/46 25/42/46 26/40/46
f 18/44/22 23/65/22 24/46/22
f 27/47/23 26/50/23 4/6/23
f 24/48/24 2/9/24 3/4/24
f 25/49/25 3/4/25 4/6/25
f 23/51/26 1/7/26 2/9/26
f 13/17/1 17/1/1 5/3/1
f 31/52/28 32/53/28 36/39/28
f 31/52/29 33/55/29 35/33/29
f 30/54/47 14/56/47 33/55/47
f 18/34/31 35/33/31 33/55/31
f 19/32/48 20/37/48 36/39/48
f 30/54/49 31/52/49 34/38/49
f 37/58/34 38/27/34 42/26/34
f 37/58/50 39/30/50 41/29/50
f 29/60/51 37/58/51 40/59/51
f 11/61/52 40/59/52 42/26/52
f 30/25/53 38/27/53 41/29/53
f 29/60/54 28/28/54 39/30/54
v 1.428850 1.276242 -0.804979
v 1.425671 1.260692 -0.781110
v 1.421864 1.235315 -0.768339
v 1.418448 1.206909 -0.770088
v 1.416339 1.183087 -0.785888
v 1.405452 1.276351 -0.819779
v 1.385144 1.260882 -0.806745
v 1.375066 1.235534 -0.797939
v 1.377920 1.207099 -0.795723
v 1.392940 1.183197 -0.800689
v 1.376528 1.224233 -0.852128
v 1.379186 1.197312 -0.842651
v 1.393671 1.177546 -0.827783
v 1.430312 1.264941 -0.859167
v 1.424787 1.212713 -0.876716
v 1.420979 1.187335 -0.863945
v 1.417800 1.171786 -0.840077
v 1.453711 1.264831 -0.844367
v 1.468731 1.240928 -0.849333
v 1.471585 1.212493 -0.847116
v 1.461507 1.187145 -0.838311
v 1.441199 1.171676 -0.825277
v 1.452980 1.270481 -0.817273
v 1.467465 1.250715 -0.802404
v 1.470123 1.223794 -0.792927
v 1.460242 1.196932 -0.791382
v 1.440469 1.177327 -0.798182
v 1.406182 1.270701 -0.846873
v 1.386409 1.251095 -0.853673
v 1.428203 1.241118 -0.874967
v 1.470484 1.250498 -0.900547
v 1.473790 1.250482 -0.898456
v 1.448895 1.264922 -0.875469
v 1.452591 1.222704 -0.888689
v 1.460477 1.264868 -0.868143
v 1.470556 1.222620 -0.877326
v 1.385829 1.261616 -0.900960
v 1.395721 1.259255 -0.906000
v 1.397190 1.268164 -0.887622
v 1.389242 1.241689 -0.889856
v 1.401724 1.267082 -0.889932
v 1.393789 1.240603 -0.892173
vt 0.274240 0.539347
vt 0.265397 0.539709
vt 0.266768 0.532487
vt 0.231414 0.551290
vt 0.214659 0.541092
vt 0.231357 0.542861
vt 0.231940 0.569242
vt 0.215985 0.562822
vt 0.231472 0.559719
vt 0.230890 0.533338
vt 0.220414 0.530957
vt 0.213134 0.552274
vt 0.289666 0.544440
vt 0.282983 0.540904
vt 0.290637 0.536818
vt 0.279682 0.529141
vt 0.275518 0.536619
vt 0.273707 0.532162
vt 0.280945 0.538772
vt 0.286431 0.530872
vt 0.290637 0.551375
vt 0.284312 0.543753
vt 0.278488 0.537315
vt 0.276318 0.541045
vt 0.804698 0.251197
vt 0.792375 0.255919
vt 0.792638 0.252041
vt 0.786357 0.239035
vt 0.792578 0.249274
vt 0.791489 0.249454
vt 0.271776 0.541127
vt 0.760733 0.199751
vt 0.757502 0.209505
vt 0.750621 0.206121
vt 0.278108 0.542645
vt 0.273009 0.544115
vt 0.772804 0.201934
vt 0.766718 0.213101
vt 0.766203 0.208706
vt 0.264007 0.548518
vt 0.277612 0.547903
vt 0.268747 0.555467
vt 0.275021 0.546378
vt 0.280714 0.548498
vt 0.281954 0.545638
vt 0.276612 0.557409
vt 0.240880 0.530957
vt 0.248168 0.561486
vt 0.249693 0.550306
vt 0.246843 0.539760
vt 0.242415 0.571620
vt 0.762287 0.211045
vt 0.762255 0.210544
vt 0.761023 0.221925
vt 0.757316 0.212491
vt 0.750922 0.216572
vt 0.772804 0.220841
vt 0.791613 0.252007
vt 0.791097 0.255536
vt 0.780068 0.250772
vt 0.780487 0.263708
vt 0.804698 0.264828
vt 0.798786 0.238814
vt 0.221949 0.571626
vt 0.283377 0.553479
vn -0.1305 -0.9713 0.1990
vn -0.5345 0.0122 0.8451
vn -0.3065 0.8157 0.4906
vn -0.4773 -0.4560 0.7512
vn -0.4755 0.4513 0.7551
vn -0.6638 0.7284 -0.1698
vn -0.8346 -0.5433 0.0908
vn -0.9360 0.3388 -0.0959
vn 0.1304 0.9713 -0.1990
vn -0.9949 -0.1003 -0.0059
vn -0.4427 -0.7232 -0.5301
vn 0.3720 -0.5774 -0.7268
vn -0.4899 -0.3321 -0.8060
vn 0.1820 0.9781 -0.1011
vn 0.3065 -0.8157 -0.4906
vn 0.8435 0.4800 0.2408
vn 0.4755 -0.4513 -0.7551
vn 0.1966 -0.9276 -0.3176
vn 0.6638 -0.7284 0.1698
vn 0.9949 0.1003 0.0059
vn 0.1305 0.9713 -0.1990
vn 0.9360 -0.3388 0.0959
vn 0.8346 0.5433 -0.0908
vn 0.2719 -0.5485 0.7907
vn 0.4899 0.3321 0.8060
vn 0.4310 -0.1070 0.8960
vn 0.4427 0.7232 0.5301
vn 0.4352 -0.5755 -0.6923
vn 0.2184 0.9153 -0.3384
vn -0.5334 0.4485 -0.7172
vn 0.0031 1.0000 0.0025
vn 0.9946 -0.0443 0.0938
vn -0.4253 0.1065 -0.8988
vn -0.4860 -0.4874 -0.7254
vn -0.0072 0.9000 -0.4358
vn -0.9295 0.3327 -0.1593
vn -0.4320 -0.7542 -0.4945
vn 0.6977 0.3520 -0.6239
vn -0.6376 0.7503 0.1748
vn -0.1304 -0.9713 0.1990
vn 0.4472 0.0013 -0.8945
vn 0.1820 0.9781 -0.1010
vn 0.8795 0.4419 0.1765
vn 0.4352 -0.5756 -0.6923
vn 0.2184 0.9153 -0.3385
vn -0.5758 0.4867 -0.6569
vn 0.9950 0.0998 -0.0004
vn -0.5112 -0.0372 -0.8586
vn -0.9824 -0.1844 -0.0290
vn 0.7339 0.4610 -0.4988
vn -0.7192 0.6851 0.1161
s off
f 59/66/55 69/67/55 47/68/55
f 45/69/56 51/70/56 46/71/56
f 43/72/57 49/73/57 44/74/57
f 47/75/58 51/70/58 52/76/58
f 44/74/59 50/77/59 45/69/59
f 48/78/60 71/79/60 49/80/60
f 51/81/61 55/82/61 52/83/61
f 49/80/62 53/84/62 50/85/62
f 43/86/63 70/87/63 48/78/63
f 50/85/64 54/88/64 51/81/64
f 55/82/65 58/89/65 59/66/65
f 72/90/66 84/91/66 80/92/66
f 53/84/67 58/89/67 54/88/67
f 70/93/68 83/94/68 81/95/68
f 58/89/69 64/96/69 59/66/69
f 61/97/70 77/98/70 60/99/70
f 57/100/71 63/101/71 58/89/71
f 62/102/72 76/103/72 78/104/72
f 64/96/73 68/105/73 69/67/73
f 61/106/74 67/107/74 62/108/74
f 43/86/75 60/109/75 56/110/75
f 62/108/76 68/105/76 63/101/76
f 60/109/77 66/111/77 61/106/77
f 69/112/78 46/71/78 47/75/78
f 66/113/79 45/69/79 67/114/79
f 67/114/80 46/71/80 68/115/80
f 65/116/81 44/74/81 66/113/81
f 55/82/55 47/68/55 52/83/55
f 73/117/82 78/104/82 76/103/82
f 73/117/83 77/98/83 74/118/83
f 72/119/84 75/120/84 73/117/84
f 60/99/85 75/120/85 56/121/85
f 61/97/86 78/104/86 74/118/86
f 72/119/87 76/103/87 57/122/87
f 79/123/88 84/91/88 82/124/88
f 79/123/89 83/94/89 80/92/89
f 71/125/90 82/124/90 53/126/90
f 53/126/91 84/91/91 57/127/91
f 72/90/92 83/94/92 56/128/92
f 71/125/93 81/95/93 79/123/93
f 59/66/94 64/96/94 69/67/94
f 45/69/56 50/77/56 51/70/56
f 43/72/57 48/129/57 49/73/57
f 47/75/58 46/71/58 51/70/58
f 44/74/59 49/73/59 50/77/59
f 48/78/60 70/87/60 71/79/60
f 51/81/61 54/88/61 55/82/61
f 49/80/62 71/79/62 53/84/62
f 43/86/75 56/110/75 70/87/75
f 50/85/64 53/84/64 54/88/64
f 55/82/65 54/88/65 58/89/65
f 72/90/95 57/127/95 84/91/95
f 53/84/67 57/100/67 58/89/67
f 70/93/96 56/128/96 83/94/96
f 58/89/69 63/101/69 64/96/69
f 61/97/97 74/118/97 77/98/97
f 57/100/71 62/108/71 63/101/71
f 62/102/72 57/122/72 76/103/72
f 64/96/73 63/101/73 68/105/73
f 61/106/74 66/111/74 67/107/74
f 43/86/63 65/130/63 60/109/63
f 62/108/76 67/107/76 68/105/76
f 60/109/77 65/130/77 66/111/77
f 69/112/78 68/115/78 46/71/78
f 66/113/79 44/74/79 45/69/79
f 67/114/80 45/69/80 46/71/80
f 65/116/81 43/72/81 44/74/81
f 55/82/94 59/66/94 47/68/94
f 73/117/98 74/118/98 78/104/98
f 73/117/99 75/120/99 77/98/99
f 72/119/100 56/121/100 75/120/100
f 60/99/85 77/98/85 75/120/85
f 61/97/101 62/102/101 78/104/101
f 72/119/102 73/117/102 76/103/102
f 79/123/88 80/92/88 84/91/88
f 79/123/89 81/95/89 83/94/89
f 71/125/103 79/123/103 82/124/103
f 53/126/91 82/124/91 84/91/91
f 72/90/104 80/92/104 83/94/104
f 71/125/105 70/93/105 81/95/105
