# Blender v2.81 (sub 16) OBJ File: 'garbage.blend'
# www.blender.org
v -0.417588 1.536476 -0.200924
v -0.418463 1.526058 -0.227613
v -0.420356 1.503739 -0.245499
v -0.422760 1.475501 -0.249789
v -0.425031 1.448909 -0.239334
v -0.394174 1.528917 -0.188228
v -0.377908 1.512965 -0.205622
v -0.373528 1.488621 -0.220106
v -0.382206 1.462408 -0.227799
v -0.401617 1.441350 -0.226638
v -0.375435 1.466527 -0.169367
v -0.383857 1.443274 -0.183857
v -0.402571 1.430302 -0.201269
v -0.419495 1.514382 -0.150185
v -0.424170 1.459551 -0.144020
v -0.426063 1.437233 -0.161906
v -0.426938 1.426815 -0.188595
v -0.442909 1.521941 -0.162881
v -0.462321 1.500883 -0.161721
v -0.470998 1.474670 -0.169413
v -0.466618 1.450326 -0.183897
v -0.450352 1.434374 -0.201292
v -0.441956 1.532988 -0.188251
v -0.460669 1.520017 -0.205662
v -0.469092 1.496764 -0.220152
v -0.464966 1.469460 -0.227838
v -0.449399 1.445421 -0.226661
v -0.395127 1.517869 -0.162858
v -0.379560 1.493831 -0.161681
v -0.421766 1.487790 -0.139730
v -0.460348 1.499469 -0.109647
v -0.463656 1.500537 -0.111441
v -0.437128 1.514470 -0.132860
v -0.448924 1.471927 -0.128199
v -0.448718 1.518212 -0.139144
v -0.466902 1.477731 -0.137947
v -0.375243 1.493716 -0.113428
v -0.385232 1.492286 -0.108232
v -0.385471 1.505020 -0.124265
v -0.383030 1.477654 -0.128036
v -0.390049 1.504365 -0.121884
v -0.387621 1.476996 -0.125648
vt 0.274240 0.539347
vt 0.265397 0.539709
vt 0.266768 0.532487
vt 0.231414 0.551290
vt 0.214659 0.541092
vt 0.231357 0.542861
vt 0.231940 0.569242
vt 0.215985 0.562822
vt 0.231472 0.559719
vt 0.230890 0.533338
vt 0.220414 0.530957
vt 0.213134 0.552274
vt 0.289666 0.544440
vt 0.282983 0.540904
vt 0.290637 0.536818
vt 0.279682 0.529141
vt 0.275518 0.536619
vt 0.273707 0.532162
vt 0.280945 0.538772
vt 0.286431 0.530872
vt 0.290637 0.551375
vt 0.284312 0.543753
vt 0.278488 0.537315
vt 0.276318 0.541045
vt 0.804698 0.251197
vt 0.792375 0.255919
vt 0.792638 0.252041
vt 0.786357 0.239035
vt 0.792578 0.249274
vt 0.791489 0.249454
vt 0.271776 0.541127
vt 0.760733 0.199751
vt 0.757502 0.209505
vt 0.750621 0.206121
vt 0.278108 0.542645
vt 0.273009 0.544115
vt 0.772804 0.201934
vt 0.766718 0.213101
vt 0.766203 0.208706
vt 0.264007 0.548518
vt 0.277612 0.547903
vt 0.268747 0.555467
vt 0.275021 0.546378
vt 0.280714 0.548498
vt 0.281954 0.545638
vt 0.276612 0.557409
vt 0.240880 0.530957
vt 0.248168 0.561486
vt 0.249693 0.550306
vt 0.246843 0.539760
vt 0.242415 0.571620
vt 0.762287 0.211045
vt 0.762255 0.210544
vt 0.761023 0.221925
vt 0.757316 0.212491
vt 0.750922 0.216572
vt 0.772804 0.220841
vt 0.791613 0.252007
vt 0.791097 0.255536
vt 0.780068 0.250772
vt 0.780487 0.263708
vt 0.804698 0.264828
vt 0.798786 0.238814
vt 0.221949 0.571626
vt 0.283377 0.553479
vn -0.0776 -0.9130 -0.4005
vn 0.4968 0.0889 -0.8633
vn 0.4499 0.8268 -0.3375
vn 0.3483 -0.3686 -0.8619
vn 0.5319 0.5016 -0.6822
vn 0.8040 0.5335 0.2625
vn 0.7024 -0.6619 -0.2618
vn 0.9881 0.1237 0.0910
vn 0.0776 0.9130 0.4005
vn 0.9531 -0.2891 -0.0901
vn 0.3033 -0.8910 0.3379
vn -0.4574 -0.6363 0.6213
vn 0.4387 -0.5843 0.6827
vn 0.0253 0.9504 0.3101
vn -0.4499 -0.8268 0.3375
vn -0.7353 0.6737 -0.0741
vn -0.5319 -0.5016 0.6822
vn -0.3711 -0.9183 0.1377
vn -0.8040 -0.5335 -0.2625
vn -0.9531 0.2891 0.0901
vn -0.9881 -0.1237 -0.0910
vn -0.7024 0.6619 0.2618
vn -0.4049 -0.3044 -0.8622
vn -0.4387 0.5843 -0.6827
vn -0.4738 0.1716 -0.8638
vn -0.3033 0.8910 -0.3379
vn -0.5200 -0.6150 0.5928
vn -0.0151 0.8466 0.5320
vn 0.6377 0.1740 0.7504
vn 0.2012 0.9589 0.1999
vn -0.9853 0.1693 -0.0250
vn 0.4682 -0.1716 0.8668
vn 0.4003 -0.7152 0.5729
vn 0.2057 0.7678 0.6068
vn 0.9827 0.1056 0.1521
vn 0.2852 -0.9111 0.2977
vn -0.5896 0.3386 0.7333
vn 0.7712 0.6330 -0.0675
vn -0.4069 -0.1032 0.9076
vn 0.0252 0.9504 0.3101
vn -0.7761 0.6304 -0.0163
vn 0.6850 0.2152 0.6960
vn -0.9530 0.2873 0.0961
vn 0.5216 -0.3172 0.7921
vn 0.9244 -0.3721 -0.0836
vn -0.6069 0.4767 0.6359
vn 0.8397 0.5423 -0.0295
s off
f 17/1/1 27/2/1 5/3/1
f 3/4/2 9/5/2 4/6/2
f 1/7/3 7/8/3 2/9/3
f 5/10/4 9/5/4 10/11/4
f 2/9/5 8/12/5 3/4/5
f 6/13/6 29/14/6 7/15/6
f 9/16/7 13/17/7 10/18/7
f 7/15/8 11/19/8 8/20/8
f 1/21/9 28/22/9 6/13/9
f 8/20/10 12/23/10 9/16/10
f 13/17/11 16/24/11 17/1/11
f 30/25/12 42/26/12 38/27/12
f 11/19/13 16/24/13 12/23/13
f 28/28/14 41/29/14 39/30/14
f 16/24/15 22/31/15 17/1/15
f 19/32/16 35/33/16 18/34/16
f 15/35/17 21/36/17 16/24/17
f 20/37/18 34/38/18 36/39/18
f 22/31/19 26/40/19 27/2/19
f 19/41/20 25/42/20 20/43/20
f 1/21/9 18/44/9 14/45/9
f 20/43/21 26/40/21 21/36/21
f 18/44/22 24/46/22 19/41/22
f 27/47/23 4/6/23 5/10/23
f 24/48/24 3/4/24 25/49/24
f 25/49/25 4/6/25 26/50/25
f 23/51/26 2/9/26 24/48/26
f 13/17/1 5/3/1 10/18/1
f 31/52/27 36/39/27 34/38/27
f 31/52/28 35/33/28 32/53/28
f 30/54/29 33/55/29 31/52/29
f 18/34/30 33/55/30 14/56/30
f 19/32/31 36/39/31 32/53/31
f 30/54/32 34/38/32 15/57/32
f 37/58/33 42/26/33 40/59/33
f 37/58/34 41/29/34 38/27/34
f 29/60/35 40/59/35 11/61/35
f 11/61/36 42/26/36 15/62/36
f 30/25/37 41/29/37 14/63/37
f 29/60/38 39/30/38 37/58/38
f 17/1/1 22/31/1 27/2/1
f 3/4/2 8/12/2 9/5/2
f 1/7/3 6/64/3 7/8/3
f 5/10/4 4/6/4 9/5/4
f 2/9/5 7/8/5 8/12/5
f 6/13/6 28/22/6 29/14/6
f 9/16/7 12/23/7 13/17/7
f 7/15/8 29/14/8 11/19/8
f 1/21/9 14/45/9 28/22/9
f 8/20/10 11/19/10 12/23/10
f 13/17/11 12/23/11 16/24/11
f 30/25/39 15/62/39 42/26/39
f 11/19/13 15/35/13 16/24/13
f 28/28/40 14/63/40 41/29/40
f 16/24/15 21/36/15 22/31/15
f 19/32/41 32/53/41 35/33/41
f 15/35/17 20/43/17 21/36/17
f 20/37/18 15/57/18 34/38/18
f 22/31/19 21/36/19 26/40/19
f 19/41/20 24/46/20 25/42/20
f 1/21/9 23/65/9 18/44/9
f 20/43/21 25/42/21 26/40/21
f 18/44/22 23/65/22 24/46/22
f 27/47/23 26/50/23 4/6/23
f 24/48/24 2/9/24 3/4/24
f 25/49/25 3/4/25 4/6/25
f 23/51/26 1/7/26 2/9/26
f 13/17/1 17/1/1 5/3/1
f 31/52/27 32/53/27 36/39/27
f 31/52/28 33/55/28 35/33/28
f 30/54/42 14/56/42 33/55/42
f 18/34/30 35/33/30 33/55/30
f 19/32/43 20/37/43 36/39/43
f 30/54/44 31/52/44 34/38/44
f 37/58/33 38/27/33 42/26/33
f 37/58/34 39/30/34 41/29/34
f 29/60/45 37/58/45 40/59/45
f 11/61/36 40/59/36 42/26/36
f 30/25/46 38/27/46 41/29/46
f 29/60/47 28/28/47 39/30/47
v 1.249303 1.017923 -1.217412
v 1.255439 1.003029 -1.193704
v 1.254803 0.978450 -1.178969
v 1.247566 0.950775 -1.177156
v 1.235666 0.927418 -1.188751
v 1.221942 1.021191 -1.220113
v 1.208049 1.008687 -1.198382
v 1.200082 0.984985 -1.184371
v 1.200176 0.956434 -1.181834
v 1.208306 0.930685 -1.191451
v 1.175445 0.973425 -1.232595
v 1.178840 0.946423 -1.223598
v 1.195987 0.924905 -1.215564
v 1.224666 1.006364 -1.265637
v 1.205529 0.955331 -1.275419
v 1.204893 0.930753 -1.260684
v 1.211029 0.915858 -1.236975
v 1.252026 1.003096 -1.262936
v 1.260156 0.977347 -1.272554
v 1.260250 0.948796 -1.270017
v 1.252283 0.925094 -1.256006
v 1.238389 0.912591 -1.234275
v 1.264345 1.008876 -1.238824
v 1.281492 0.987359 -1.230790
v 1.284887 0.960356 -1.221792
v 1.273619 0.935105 -1.214242
v 1.250708 0.918371 -1.210162
v 1.209624 1.015411 -1.244225
v 1.186713 0.998676 -1.240146
v 1.212766 0.983006 -1.277231
v 1.239642 0.986431 -1.319610
v 1.243509 0.985969 -1.319228
v 1.233685 1.003752 -1.288504
v 1.225862 0.961384 -1.299212
v 1.247229 1.002134 -1.287167
v 1.246869 0.958876 -1.297139
v 1.166034 1.009034 -1.282715
v 1.172201 1.005325 -1.291493
v 1.182905 1.014005 -1.276348
v 1.171677 0.988860 -1.273059
v 1.185731 1.012305 -1.280371
v 1.174512 0.987156 -1.277093
vt 0.274240 0.539347
vt 0.265397 0.539709
vt 0.266768 0.532487
vt 0.231414 0.551290
vt 0.214659 0.541092
vt 0.231357 0.542861
vt 0.231940 0.569242
vt 0.215985 0.562822
vt 0.231472 0.559719
vt 0.230890 0.533338
vt 0.220414 0.530957
vt 0.213134 0.552274
vt 0.289666 0.544440
vt 0.282983 0.540904
vt 0.290637 0.536818
vt 0.279682 0.529141
vt 0.275518 0.536619
vt 0.273707 0.532162
vt 0.280945 0.538772
vt 0.286431 0.530872
vt 0.290637 0.551375
vt 0.284312 0.543753
vt 0.278488 0.537315
vt 0.276318 0.541045
vt 0.804698 0.251197
vt 0.792375 0.255919
vt 0.792638 0.252041
vt 0.786357 0.239035
vt 0.792578 0.249274
vt 0.791489 0.249454
vt 0.271776 0.541127
vt 0.760733 0.199751
vt 0.757502 0.209505
vt 0.750621 0.206121
vt 0.278108 0.542645
vt 0.273009 0.544115
vt 0.772804 0.201934
vt 0.766718 0.213101
vt 0.766203 0.208706
vt 0.264007 0.548518
vt 0.277612 0.547903
vt 0.268747 0.555467
vt 0.275021 0.546378
vt 0.280714 0.548498
vt 0.281954 0.545638
vt 0.276612 0.557409
vt 0.240880 0.530957
vt 0.248168 0.561486
vt 0.249693 0.550306
vt 0.246843 0.539760
vt 0.242415 0.571620
vt 0.762287 0.211045
vt 0.762255 0.210544
vt 0.761023 0.221925
vt 0.757316 0.212491
vt 0.750922 0.216572
vt 0.772804 0.220841
vt 0.791613 0.252007
vt 0.791097 0.255536
vt 0.780068 0.250772
vt 0.780487 0.263708
vt 0.804698 0.264828
vt 0.798786 0.238814
vt 0.221949 0.571626
vt 0.283377 0.553479
vn -0.1422 -0.9437 0.2988
vn -0.0875 0.0879 0.9923
vn 0.0502 0.8515 0.5220
vn -0.1360 -0.3840 0.9132
vn -0.0232 0.5145 0.8572
vn -0.5753 0.8119 0.0993
vn -0.7615 -0.4237 0.4906
vn -0.8292 0.4634 0.3125
vn 0.1422 0.9437 -0.2988
vn -0.8935 0.0368 0.4476
vn -0.7186 -0.6574 -0.2270
vn -0.0706 -0.6251 -0.7774
vn -0.8381 -0.2643 -0.4771
vn 0.2329 0.9437 -0.2350
vn -0.0502 -0.8515 -0.5220
vn 0.9121 0.3608 -0.1949
vn 0.0232 -0.5145 -0.8572
vn -0.0823 -0.9468 -0.3112
vn 0.5753 -0.8119 -0.0993
vn 0.8935 -0.0368 -0.4476
vn 0.8292 -0.4634 -0.3125
vn 0.7615 0.4237 -0.4906
vn 0.5324 -0.5781 0.6183
vn 0.8381 0.2644 0.4771
vn 0.7739 -0.1623 0.6122
vn 0.7186 0.6574 0.2270
vn 0.0011 -0.6318 -0.7751
vn 0.1499 0.8757 -0.4590
vn -0.7420 0.5152 -0.4290
vn 0.1245 0.9901 -0.0640
vn 0.9156 -0.1797 -0.3598
vn -0.7702 0.1610 -0.6172
vn -0.8168 -0.4185 -0.3970
vn -0.0952 0.8912 -0.4435
vn -0.8529 0.4564 0.2535
vn -0.6967 -0.6895 -0.1981
vn 0.3759 0.2513 -0.8919
vn -0.3933 0.8311 0.3933
vn -0.7185 -0.6574 -0.2270
vn -0.0104 -0.0627 -0.9980
vn -0.8381 -0.2644 -0.4771
vn 0.2330 0.9436 -0.2351
vn 0.9101 0.3179 -0.2659
vn 0.5324 -0.5782 0.6183
vn 0.1499 0.8757 -0.4589
vn -0.7476 0.5589 -0.3587
vn 0.1246 0.9901 -0.0640
vn 0.8906 -0.0373 -0.4533
vn -0.8452 0.0305 -0.5336
vn -0.0953 0.8912 -0.4435
vn -0.9030 -0.0483 0.4269
vn 0.4777 0.3547 -0.8037
vn -0.4999 0.7774 0.3818
s off
f 59/66/48 69/67/48 47/68/48
f 45/69/49 51/70/49 46/71/49
f 43/72/50 49/73/50 44/74/50
f 47/75/51 51/70/51 52/76/51
f 44/74/52 50/77/52 45/69/52
f 48/78/53 71/79/53 49/80/53
f 51/81/54 55/82/54 52/83/54
f 49/80/55 53/84/55 50/85/55
f 43/86/56 70/87/56 48/78/56
f 50/85/57 54/88/57 51/81/57
f 55/82/58 58/89/58 59/66/58
f 72/90/59 84/91/59 80/92/59
f 53/84/60 58/89/60 54/88/60
f 70/93/61 83/94/61 81/95/61
f 58/89/62 64/96/62 59/66/62
f 61/97/63 77/98/63 60/99/63
f 57/100/64 63/101/64 58/89/64
f 62/102/65 76/103/65 78/104/65
f 64/96/66 68/105/66 69/67/66
f 61/106/67 67/107/67 62/108/67
f 43/86/56 60/109/56 56/110/56
f 62/108/68 68/105/68 63/101/68
f 60/109/69 66/111/69 61/106/69
f 69/112/70 46/71/70 47/75/70
f 66/113/71 45/69/71 67/114/71
f 67/114/72 46/71/72 68/115/72
f 65/116/73 44/74/73 66/113/73
f 55/82/48 47/68/48 52/83/48
f 73/117/74 78/104/74 76/103/74
f 73/117/75 77/98/75 74/118/75
f 72/119/76 75/120/76 73/117/76
f 60/99/77 75/120/77 56/121/77
f 61/97/78 78/104/78 74/118/78
f 72/119/79 76/103/79 57/122/79
f 79/123/80 84/91/80 82/124/80
f 79/123/81 83/94/81 80/92/81
f 71/125/82 82/124/82 53/126/82
f 53/126/83 84/91/83 57/127/83
f 72/90/84 83/94/84 56/128/84
f 71/125/85 81/95/85 79/123/85
f 59/66/48 64/96/48 69/67/48
f 45/69/49 50/77/49 51/70/49
f 43/72/50 48/129/50 49/73/50
f 47/75/51 46/71/51 51/70/51
f 44/74/52 49/73/52 50/77/52
f 48/78/53 70/87/53 71/79/53
f 51/81/54 54/88/54 55/82/54
f 49/80/55 71/79/55 53/84/55
f 43/86/56 56/110/56 70/87/56
f 50/85/57 53/84/57 54/88/57
f 55/82/86 54/88/86 58/89/86
f 72/90/87 57/127/87 84/91/87
f 53/84/88 57/100/88 58/89/88
f 70/93/89 56/128/89 83/94/89
f 58/89/62 63/101/62 64/96/62
f 61/97/90 74/118/90 77/98/90
f 57/100/64 62/108/64 63/101/64
f 62/102/65 57/122/65 76/103/65
f 64/96/66 63/101/66 68/105/66
f 61/106/67 66/111/67 67/107/67
f 43/86/56 65/130/56 60/109/56
f 62/108/68 67/107/68 68/105/68
f 60/109/69 65/130/69 66/111/69
f 69/112/91 68/115/91 46/71/91
f 66/113/71 44/74/71 45/69/71
f 67/114/72 45/69/72 46/71/72
f 65/116/73 43/72/73 44/74/73
f 55/82/48 59/66/48 47/68/48
f 73/117/74 74/118/74 78/104/74
f 73/117/92 75/120/92 77/98/92
f 72/119/93 56/121/93 75/120/93
f 60/99/94 77/98/94 75/120/94
f 61/97/95 62/102/95 78/104/95
f 72/119/96 73/117/96 76/103/96
f 79/123/80 80/92/80 84/91/80
f 79/123/97 81/95/97 83/94/97
f 71/125/98 79/123/98 82/124/98
f 53/126/83 82/124/83 84/91/83
f 72/90/99 80/92/99 83/94/99
f 71/125/100 70/93/100 81/95/100
