# Blender v2.81 (sub 16) OBJ File: 'garbage.blend'
# www.blender.org
v -0.404587 1.571330 -0.313435
v -0.404141 1.556839 -0.338163
v -0.406262 1.532096 -0.352476
v -0.410382 1.503730 -0.352541
v -0.415397 1.479342 -0.338340
v -0.382847 1.564515 -0.297703
v -0.366487 1.545036 -0.310913
v -0.362783 1.518467 -0.321011
v -0.372728 1.491928 -0.325291
v -0.393658 1.472528 -0.322607
v -0.370243 1.504947 -0.267834
v -0.379189 1.480219 -0.279239
v -0.397388 1.465768 -0.296019
v -0.412047 1.557809 -0.260258
v -0.421183 1.505056 -0.246122
v -0.423304 1.480313 -0.260436
v -0.422858 1.465822 -0.285163
v -0.433787 1.564624 -0.275991
v -0.454717 1.545224 -0.273307
v -0.464662 1.518684 -0.277588
v -0.460958 1.492115 -0.287686
v -0.444598 1.472636 -0.300896
v -0.430057 1.571384 -0.302580
v -0.448256 1.556933 -0.319360
v -0.457202 1.532205 -0.330765
v -0.454497 1.503824 -0.333738
v -0.440867 1.479397 -0.327484
v -0.386577 1.557755 -0.271114
v -0.372948 1.533328 -0.264860
v -0.417063 1.533421 -0.246057
v -0.456912 1.552061 -0.221674
v -0.459984 1.553024 -0.223897
v -0.430921 1.561730 -0.244783
v -0.446123 1.521267 -0.234658
v -0.441682 1.565103 -0.252571
v -0.462814 1.526499 -0.246737
v -0.372419 1.540691 -0.216980
v -0.382861 1.540714 -0.212529
v -0.380919 1.550704 -0.230297
v -0.380199 1.522990 -0.229558
v -0.385705 1.550714 -0.228258
v -0.384998 1.523001 -0.227512
vt 0.274240 0.539347
vt 0.265397 0.539709
vt 0.266768 0.532487
vt 0.231414 0.551290
vt 0.214659 0.541092
vt 0.231357 0.542861
vt 0.231940 0.569242
vt 0.215985 0.562822
vt 0.231472 0.559719
vt 0.230890 0.533338
vt 0.220414 0.530957
vt 0.213134 0.552274
vt 0.289666 0.544440
vt 0.282983 0.540904
vt 0.290637 0.536818
vt 0.279682 0.529141
vt 0.275518 0.536619
vt 0.273707 0.532162
vt 0.280945 0.538772
vt 0.286431 0.530872
vt 0.290637 0.551375
vt 0.284312 0.543753
vt 0.278488 0.537315
vt 0.276318 0.541045
vt 0.804698 0.251197
vt 0.792375 0.255919
vt 0.792638 0.252041
vt 0.786357 0.239035
vt 0.792578 0.249274
vt 0.791489 0.249454
vt 0.271776 0.541127
vt 0.760733 0.199751
vt 0.757502 0.209505
vt 0.750621 0.206121
vt 0.278108 0.542645
vt 0.273009 0.544115
vt 0.772804 0.201934
vt 0.766718 0.213101
vt 0.766203 0.208706
vt 0.264007 0.548518
vt 0.277612 0.547903
vt 0.268747 0.555467
vt 0.275021 0.546378
vt 0.280714 0.548498
vt 0.281954 0.545638
vt 0.276612 0.557409
vt 0.240880 0.530957
vt 0.248168 0.561486
vt 0.249693 0.550306
vt 0.246843 0.539760
vt 0.242415 0.571620
vt 0.762287 0.211045
vt 0.762255 0.210544
vt 0.761023 0.221925
vt 0.757316 0.212491
vt 0.750922 0.216572
vt 0.772804 0.220841
vt 0.791613 0.252007
vt 0.791097 0.255536
vt 0.780068 0.250772
vt 0.780487 0.263708
vt 0.804698 0.264828
vt 0.798786 0.238814
vt 0.221949 0.571626
vt 0.283377 0.553479
vn -0.1127 -0.9591 -0.2597
vn 0.5677 -0.0806 -0.8193
vn 0.5341 0.7336 -0.4203
vn 0.3865 -0.5222 -0.7602
vn 0.6186 0.3530 -0.7019
vn 0.8180 0.5196 0.2469
vn 0.6704 -0.7361 -0.0931
vn 0.9844 0.0773 0.1578
vn 0.1127 0.9591 0.2597
vn 0.9335 -0.3563 0.0404
vn 0.2101 -0.8419 0.4971
vn -0.5496 -0.4999 0.6694
vn 0.3403 -0.4925 0.8010
vn 0.0704 0.9846 0.1603
vn -0.5341 -0.7336 0.4203
vn -0.6761 0.6959 -0.2422
vn -0.6186 -0.3530 0.7019
vn -0.4468 -0.8605 0.2447
vn -0.8180 -0.5196 -0.2469
vn -0.9335 0.3563 -0.0404
vn -0.9844 -0.0773 -0.1578
vn -0.6704 0.7361 0.0931
vn -0.3577 -0.4139 -0.8371
vn -0.3403 0.4925 -0.8010
vn -0.3913 0.0589 -0.9184
vn -0.2101 0.8419 -0.4971
vn -0.6081 -0.4797 0.6325
vn 0.0054 0.9203 0.3911
vn 0.5884 0.2535 0.7678
vn 0.2546 0.9648 0.0661
vn -0.9653 0.2218 -0.1379
vn 0.3855 -0.0581 0.9209
vn 0.3012 -0.6368 0.7098
vn 0.2134 0.8414 0.4964
vn 0.9730 0.0696 0.2202
vn 0.1938 -0.8670 0.4591
vn -0.6185 0.4865 0.6170
vn 0.8183 0.5667 -0.0962
vn -0.4828 0.0681 0.8731
vn 0.0704 0.9845 0.1603
vn -0.7243 0.6650 -0.1822
vn 0.6426 0.2826 0.7122
vn -0.9340 0.3555 -0.0341
vn 0.4337 -0.2168 0.8746
vn 0.3012 -0.6367 0.7098
vn 0.8984 -0.4354 0.0571
vn -0.6181 0.6080 0.4983
vn 0.8768 0.4793 -0.0387
s off
f 17/1/1 27/2/1 5/3/1
f 3/4/2 9/5/2 4/6/2
f 1/7/3 7/8/3 2/9/3
f 5/10/4 9/5/4 10/11/4
f 2/9/5 8/12/5 3/4/5
f 6/13/6 29/14/6 7/15/6
f 9/16/7 13/17/7 10/18/7
f 7/15/8 11/19/8 8/20/8
f 1/21/9 28/22/9 6/13/9
f 8/20/10 12/23/10 9/16/10
f 13/17/11 16/24/11 17/1/11
f 30/25/12 42/26/12 38/27/12
f 11/19/13 16/24/13 12/23/13
f 28/28/14 41/29/14 39/30/14
f 16/24/15 22/31/15 17/1/15
f 19/32/16 35/33/16 18/34/16
f 15/35/17 21/36/17 16/24/17
f 20/37/18 34/38/18 36/39/18
f 22/31/19 26/40/19 27/2/19
f 19/41/20 25/42/20 20/43/20
f 1/21/9 18/44/9 14/45/9
f 20/43/21 26/40/21 21/36/21
f 18/44/22 24/46/22 19/41/22
f 27/47/23 4/6/23 5/10/23
f 24/48/24 3/4/24 25/49/24
f 25/49/25 4/6/25 26/50/25
f 23/51/26 2/9/26 24/48/26
f 13/17/1 5/3/1 10/18/1
f 31/52/27 36/39/27 34/38/27
f 31/52/28 35/33/28 32/53/28
f 30/54/29 33/55/29 31/52/29
f 18/34/30 33/55/30 14/56/30
f 19/32/31 36/39/31 32/53/31
f 30/54/32 34/38/32 15/57/32
f 37/58/33 42/26/33 40/59/33
f 37/58/34 41/29/34 38/27/34
f 29/60/35 40/59/35 11/61/35
f 11/61/36 42/26/36 15/62/36
f 30/25/37 41/29/37 14/63/37
f 29/60/38 39/30/38 37/58/38
f 17/1/1 22/31/1 27/2/1
f 3/4/2 8/12/2 9/5/2
f 1/7/3 6/64/3 7/8/3
f 5/10/4 4/6/4 9/5/4
f 2/9/5 7/8/5 8/12/5
f 6/13/6 28/22/6 29/14/6
f 9/16/7 12/23/7 13/17/7
f 7/15/8 29/14/8 11/19/8
f 1/21/9 14/45/9 28/22/9
f 8/20/10 11/19/10 12/23/10
f 13/17/11 12/23/11 16/24/11
f 30/25/39 15/62/39 42/26/39
f 11/19/13 15/35/13 16/24/13
f 28/28/40 14/63/40 41/29/40
f 16/24/15 21/36/15 22/31/15
f 19/32/41 32/53/41 35/33/41
f 15/35/17 20/43/17 21/36/17
f 20/37/18 15/57/18 34/38/18
f 22/31/19 21/36/19 26/40/19
f 19/41/20 24/46/20 25/42/20
f 1/21/9 23/65/9 18/44/9
f 20/43/21 25/42/21 26/40/21
f 18/44/22 23/65/22 24/46/22
f 27/47/23 26/50/23 4/6/23
f 24/48/24 2/9/24 3/4/24
f 25/49/25 3/4/25 4/6/25
f 23/51/26 1/7/26 2/9/26
f 13/17/1 17/1/1 5/3/1
f 31/52/27 32/53/27 36/39/27
f 31/52/28 33/55/28 35/33/28
f 30/54/42 14/56/42 33/55/42
f 18/34/30 35/33/30 33/55/30
f 19/32/43 20/37/43 36/39/43
f 30/54/44 31/52/44 34/38/44
f 37/58/45 38/27/45 42/26/45
f 37/58/34 39/30/34 41/29/34
f 29/60/46 37/58/46 40/59/46
f 11/61/36 40/59/36 42/26/36
f 30/25/47 38/27/47 41/29/47
f 29/60/48 28/28/48 39/30/48
v 1.349236 1.128657 -1.073716
v 1.351729 1.115930 -1.048154
v 1.350084 1.092394 -1.031876
v 1.344740 1.064356 -1.029244
v 1.337131 1.039329 -1.040963
v 1.322762 1.129281 -1.081799
v 1.305876 1.117010 -1.062155
v 1.297137 1.093641 -1.048044
v 1.298887 1.065436 -1.043246
v 1.310657 1.039953 -1.049047
v 1.283336 1.076839 -1.098970
v 1.286935 1.050885 -1.087349
v 1.303757 1.031552 -1.074510
v 1.335434 1.111855 -1.124642
v 1.322481 1.058790 -1.133729
v 1.320835 1.035254 -1.117451
v 1.323329 1.022527 -1.091889
v 1.361907 1.111232 -1.116558
v 1.373677 1.085748 -1.122359
v 1.375427 1.057543 -1.117561
v 1.366688 1.034174 -1.103450
v 1.349802 1.021904 -1.083806
v 1.368808 1.119633 -1.091095
v 1.385630 1.100299 -1.078256
v 1.389229 1.074345 -1.066635
v 1.378641 1.048725 -1.059346
v 1.356703 1.030305 -1.058343
v 1.315862 1.120880 -1.107262
v 1.293924 1.102459 -1.106259
v 1.327824 1.086828 -1.136361
v 1.362123 1.089908 -1.173023
v 1.365864 1.089820 -1.171880
v 1.348917 1.108594 -1.145103
v 1.346553 1.065095 -1.153653
v 1.362021 1.108285 -1.141102
v 1.366879 1.064616 -1.147447
v 1.281235 1.108159 -1.152665
v 1.289259 1.104460 -1.159790
v 1.296114 1.115021 -1.143641
v 1.286389 1.089236 -1.140524
v 1.299791 1.113325 -1.146907
v 1.290077 1.087536 -1.143799
vt 0.274240 0.539347
vt 0.265397 0.539709
vt 0.266768 0.532487
vt 0.231414 0.551290
vt 0.214659 0.541092
vt 0.231357 0.542861
vt 0.231940 0.569242
vt 0.215985 0.562822
vt 0.231472 0.559719
vt 0.230890 0.533338
vt 0.220414 0.530957
vt 0.213134 0.552274
vt 0.289666 0.544440
vt 0.282983 0.540904
vt 0.290637 0.536818
vt 0.279682 0.529141
vt 0.275518 0.536619
vt 0.273707 0.532162
vt 0.280945 0.538772
vt 0.286431 0.530872
vt 0.290637 0.551375
vt 0.284312 0.543753
vt 0.278488 0.537315
vt 0.276318 0.541045
vt 0.804698 0.251197
vt 0.792375 0.255919
vt 0.792638 0.252041
vt 0.786357 0.239035
vt 0.792578 0.249274
vt 0.791489 0.249454
vt 0.271776 0.541127
vt 0.760733 0.199751
vt 0.757502 0.209505
vt 0.750621 0.206121
vt 0.278108 0.542645
vt 0.273009 0.544115
vt 0.772804 0.201934
vt 0.766718 0.213101
vt 0.766203 0.208706
vt 0.264007 0.548518
vt 0.277612 0.547903
vt 0.268747 0.555467
vt 0.275021 0.546378
vt 0.280714 0.548498
vt 0.281954 0.545638
vt 0.276612 0.557409
vt 0.240880 0.530957
vt 0.248168 0.561486
vt 0.249693 0.550306
vt 0.246843 0.539760
vt 0.242415 0.571620
vt 0.762287 0.211045
vt 0.762255 0.210544
vt 0.761023 0.221925
vt 0.757316 0.212491
vt 0.750922 0.216572
vt 0.772804 0.220841
vt 0.791613 0.252007
vt 0.791097 0.255536
vt 0.780068 0.250772
vt 0.780487 0.263708
vt 0.804698 0.264828
vt 0.798786 0.238814
vt 0.221949 0.571626
vt 0.283377 0.553479
vn -0.1262 -0.9314 0.3415
vn -0.2859 0.1434 0.9475
vn -0.1171 0.8844 0.4518
vn -0.2824 -0.3350 0.8989
vn -0.2289 0.5645 0.7931
vn -0.6432 0.7618 -0.0770
vn -0.8085 -0.4576 0.3701
vn -0.9068 0.4065 0.1116
vn 0.1262 0.9314 -0.3415
vn -0.9639 -0.0146 0.2660
vn -0.6087 -0.7323 -0.3052
vn 0.1299 -0.6777 -0.7238
vn -0.7065 -0.3685 -0.6042
vn 0.2025 0.9436 -0.2619
vn 0.1171 -0.8844 -0.4518
vn 0.9027 0.4277 -0.0472
vn 0.2289 -0.5645 -0.7931
vn 0.0517 -0.9684 -0.2440
vn 0.6432 -0.7618 0.0770
vn 0.9639 0.0146 -0.2660
vn 0.9068 -0.4065 -0.1116
vn 0.8085 0.4576 -0.3701
vn 0.4435 -0.4871 0.7524
vn 0.7065 0.3685 0.6042
vn 0.6494 -0.0525 0.7586
vn 0.6087 0.7323 0.3052
vn 0.2001 -0.6778 -0.7075
vn 0.1701 0.8543 -0.4912
vn -0.6807 0.4179 -0.6017
vn 0.0596 0.9911 -0.1187
vn 0.9791 -0.1198 -0.1643
vn -0.6447 0.0513 -0.7627
vn -0.6897 -0.5147 -0.5094
vn -0.0738 0.8487 -0.5237
vn -0.9179 0.3936 0.0500
vn -0.5906 -0.7604 -0.2703
vn 0.5228 0.2259 -0.8220
vn -0.5241 0.8161 0.2435
vn 0.1895 -0.1275 -0.9736
vn 0.9179 0.3803 -0.1135
vn 0.9639 0.0145 -0.2660
vn 0.2001 -0.6778 -0.7074
vn 0.1701 0.8542 -0.4912
vn -0.7031 0.4655 -0.5375
vn 0.9622 0.0134 -0.2720
vn -0.7246 -0.0797 -0.6846
vn -0.6896 -0.5147 -0.5094
vn -0.0738 0.8487 -0.5238
vn -0.9627 -0.1013 0.2508
vn 0.5973 0.3435 -0.7247
vn -0.6220 0.7525 0.2164
s off
f 59/66/49 69/67/49 47/68/49
f 45/69/50 51/70/50 46/71/50
f 43/72/51 49/73/51 44/74/51
f 47/75/52 51/70/52 52/76/52
f 44/74/53 50/77/53 45/69/53
f 48/78/54 71/79/54 49/80/54
f 51/81/55 55/82/55 52/83/55
f 49/80/56 53/84/56 50/85/56
f 43/86/57 70/87/57 48/78/57
f 50/85/58 54/88/58 51/81/58
f 55/82/59 58/89/59 59/66/59
f 72/90/60 84/91/60 80/92/60
f 53/84/61 58/89/61 54/88/61
f 70/93/62 83/94/62 81/95/62
f 58/89/63 64/96/63 59/66/63
f 61/97/64 77/98/64 60/99/64
f 57/100/65 63/101/65 58/89/65
f 62/102/66 76/103/66 78/104/66
f 64/96/67 68/105/67 69/67/67
f 61/106/68 67/107/68 62/108/68
f 43/86/57 60/109/57 56/110/57
f 62/108/69 68/105/69 63/101/69
f 60/109/70 66/111/70 61/106/70
f 69/112/71 46/71/71 47/75/71
f 66/113/72 45/69/72 67/114/72
f 67/114/73 46/71/73 68/115/73
f 65/116/74 44/74/74 66/113/74
f 55/82/49 47/68/49 52/83/49
f 73/117/75 78/104/75 76/103/75
f 73/117/76 77/98/76 74/118/76
f 72/119/77 75/120/77 73/117/77
f 60/99/78 75/120/78 56/121/78
f 61/97/79 78/104/79 74/118/79
f 72/119/80 76/103/80 57/122/80
f 79/123/81 84/91/81 82/124/81
f 79/123/82 83/94/82 80/92/82
f 71/125/83 82/124/83 53/126/83
f 53/126/84 84/91/84 57/127/84
f 72/90/85 83/94/85 56/128/85
f 71/125/86 81/95/86 79/123/86
f 59/66/49 64/96/49 69/67/49
f 45/69/50 50/77/50 51/70/50
f 43/72/51 48/129/51 49/73/51
f 47/75/52 46/71/52 51/70/52
f 44/74/53 49/73/53 50/77/53
f 48/78/54 70/87/54 71/79/54
f 51/81/55 54/88/55 55/82/55
f 49/80/56 71/79/56 53/84/56
f 43/86/57 56/110/57 70/87/57
f 50/85/58 53/84/58 54/88/58
f 55/82/59 54/88/59 58/89/59
f 72/90/87 57/127/87 84/91/87
f 53/84/61 57/100/61 58/89/61
f 70/93/62 56/128/62 83/94/62
f 58/89/63 63/101/63 64/96/63
f 61/97/88 74/118/88 77/98/88
f 57/100/65 62/108/65 63/101/65
f 62/102/66 57/122/66 76/103/66
f 64/96/67 63/101/67 68/105/67
f 61/106/89 66/111/89 67/107/89
f 43/86/57 65/130/57 60/109/57
f 62/108/69 67/107/69 68/105/69
f 60/109/70 65/130/70 66/111/70
f 69/112/71 68/115/71 46/71/71
f 66/113/72 44/74/72 45/69/72
f 67/114/73 45/69/73 46/71/73
f 65/116/74 43/72/74 44/74/74
f 55/82/49 59/66/49 47/68/49
f 73/117/90 74/118/90 78/104/90
f 73/117/91 75/120/91 77/98/91
f 72/119/92 56/121/92 75/120/92
f 60/99/78 77/98/78 75/120/78
f 61/97/93 62/102/93 78/104/93
f 72/119/94 73/117/94 76/103/94
f 79/123/95 80/92/95 84/91/95
f 79/123/96 81/95/96 83/94/96
f 71/125/97 79/123/97 82/124/97
f 53/126/84 82/124/84 84/91/84
f 72/90/98 80/92/98 83/94/98
f 71/125/99 70/93/99 81/95/99
