# Blender v2.81 (sub 16) OBJ File: 'garbage.blend'
# www.blender.org
v -0.461233 1.440261 0.129951
v -0.461140 1.420251 0.109429
v -0.462057 1.392683 0.101634
v -0.463737 1.364943 0.108656
v -0.465731 1.344466 0.128614
v -0.438026 1.438961 0.144995
v -0.420945 1.418000 0.135486
v -0.415643 1.390083 0.131722
v -0.423542 1.362692 0.134713
v -0.442524 1.343166 0.143658
v -0.418494 1.389445 0.187019
v -0.426011 1.362139 0.182602
v -0.443950 1.342847 0.171306
v -0.464083 1.439623 0.185248
v -0.467758 1.391406 0.212227
v -0.468674 1.363838 0.204433
v -0.468582 1.343828 0.183910
v -0.487290 1.440923 0.170204
v -0.506272 1.421397 0.179148
v -0.514171 1.394006 0.182139
v -0.508870 1.366089 0.178376
v -0.491788 1.345127 0.168866
v -0.485865 1.441242 0.142555
v -0.503804 1.421949 0.131260
v -0.511321 1.394644 0.126843
v -0.506401 1.366642 0.130488
v -0.490363 1.345447 0.141218
v -0.439451 1.438642 0.172644
v -0.423413 1.417447 0.183374
v -0.466077 1.419145 0.205205
v -0.505724 1.440434 0.227675
v -0.509004 1.440618 0.225549
v -0.482190 1.445913 0.200857
v -0.493202 1.408204 0.221536
v -0.493678 1.446557 0.193410
v -0.511020 1.409202 0.209985
v -0.420443 1.436264 0.227917
v -0.430542 1.436666 0.233085
v -0.430604 1.442138 0.213353
v -0.427475 1.415551 0.220598
v -0.435232 1.442322 0.215721
v -0.432117 1.415736 0.222973
vt 0.274240 0.539347
vt 0.265397 0.539709
vt 0.266768 0.532487
vt 0.231414 0.551290
vt 0.214659 0.541092
vt 0.231357 0.542861
vt 0.231940 0.569242
vt 0.215985 0.562822
vt 0.231472 0.559719
vt 0.230890 0.533338
vt 0.220414 0.530957
vt 0.213134 0.552274
vt 0.289666 0.544440
vt 0.282983 0.540904
vt 0.290637 0.536818
vt 0.279682 0.529141
vt 0.275518 0.536619
vt 0.273707 0.532162
vt 0.280945 0.538772
vt 0.286431 0.530872
vt 0.290637 0.551375
vt 0.284312 0.543753
vt 0.278488 0.537315
vt 0.276318 0.541045
vt 0.804698 0.251197
vt 0.792375 0.255919
vt 0.792638 0.252041
vt 0.786357 0.239035
vt 0.792578 0.249274
vt 0.791489 0.249454
vt 0.271776 0.541127
vt 0.760733 0.199751
vt 0.757502 0.209505
vt 0.750621 0.206121
vt 0.278108 0.542645
vt 0.273009 0.544115
vt 0.772804 0.201934
vt 0.766718 0.213101
vt 0.766203 0.208706
vt 0.264007 0.548518
vt 0.277612 0.547903
vt 0.268747 0.555467
vt 0.275021 0.546378
vt 0.280714 0.548498
vt 0.281954 0.545638
vt 0.276612 0.557409
vt 0.240880 0.530957
vt 0.248168 0.561486
vt 0.249693 0.550306
vt 0.246843 0.539760
vt 0.242415 0.571620
vt 0.762287 0.211045
vt 0.762255 0.210544
vt 0.761023 0.221925
vt 0.757316 0.212491
vt 0.750922 0.216572
vt 0.772804 0.220841
vt 0.791613 0.252007
vt 0.791097 0.255536
vt 0.780068 0.250772
vt 0.780487 0.263708
vt 0.804698 0.264828
vt 0.798786 0.238814
vt 0.221949 0.571626
vt 0.283377 0.553479
vn -0.0469 -0.9988 -0.0139
vn 0.5187 -0.2392 -0.8208
vn 0.4415 0.6434 -0.6254
vn 0.3800 -0.6643 -0.6436
vn 0.5399 0.2123 -0.8145
vn 0.7848 0.6179 0.0476
vn 0.7234 -0.6898 0.0293
vn 0.9824 0.1795 0.0527
vn 0.0469 0.9988 0.0139
vn 0.9612 -0.2721 0.0464
vn 0.3126 -0.6794 0.6638
vn -0.4608 -0.3577 0.8122
vn 0.4318 -0.2587 0.8641
vn -0.0037 0.9964 -0.0848
vn -0.4415 -0.6434 0.6254
vn -0.7471 0.5689 -0.3438
vn -0.5399 -0.2123 0.8145
vn -0.3551 -0.8031 0.4785
vn -0.7848 -0.6179 -0.0476
vn -0.9612 0.2721 -0.0464
vn -0.9824 -0.1794 -0.0527
vn -0.7234 0.6898 -0.0293
vn -0.3740 -0.6283 -0.6821
vn -0.4318 0.2587 -0.8641
vn -0.4531 -0.1929 -0.8704
vn -0.3126 0.6794 -0.6638
vn -0.0469 -0.9988 -0.0140
vn -0.5231 -0.3511 0.7766
vn -0.0480 0.9861 0.1593
vn 0.6127 0.4718 0.6340
vn 0.1751 0.9667 -0.1865
vn -0.9876 0.1160 -0.1062
vn 0.4474 0.1939 0.8731
vn 0.3994 -0.4230 0.8134
vn 0.1722 0.9494 0.2627
vn 0.9756 0.1865 0.1160
vn 0.2962 -0.7140 0.6344
vn -0.6169 0.5793 0.5328
vn 0.7591 0.5800 -0.2956
vn 0.9824 0.1794 0.0527
vn 0.9611 -0.2721 0.0464
vn -0.4298 0.2460 0.8688
vn -0.0037 0.9964 -0.0847
vn -0.7886 0.5503 -0.2744
vn 0.0469 0.9988 0.0140
vn -0.9824 -0.1795 -0.0527
vn -0.3741 -0.6284 -0.6821
vn -0.4530 -0.1929 -0.8704
vn 0.6606 0.4900 0.5688
vn -0.9612 0.2728 -0.0401
vn 0.5059 0.0324 0.8620
vn 0.9341 -0.3469 0.0843
vn -0.6345 0.6679 0.3890
vn 0.8284 0.5134 -0.2241
s off
f 17/1/1 27/2/1 5/3/1
f 3/4/2 9/5/2 4/6/2
f 1/7/3 7/8/3 2/9/3
f 5/10/4 9/5/4 10/11/4
f 2/9/5 8/12/5 3/4/5
f 6/13/6 29/14/6 7/15/6
f 9/16/7 13/17/7 10/18/7
f 7/15/8 11/19/8 8/20/8
f 1/21/9 28/22/9 6/13/9
f 8/20/10 12/23/10 9/16/10
f 13/17/11 16/24/11 17/1/11
f 30/25/12 42/26/12 38/27/12
f 11/19/13 16/24/13 12/23/13
f 28/28/14 41/29/14 39/30/14
f 16/24/15 22/31/15 17/1/15
f 19/32/16 35/33/16 18/34/16
f 15/35/17 21/36/17 16/24/17
f 20/37/18 34/38/18 36/39/18
f 22/31/19 26/40/19 27/2/19
f 19/41/20 25/42/20 20/43/20
f 1/21/9 18/44/9 14/45/9
f 20/43/21 26/40/21 21/36/21
f 18/44/22 24/46/22 19/41/22
f 27/47/23 4/6/23 5/10/23
f 24/48/24 3/4/24 25/49/24
f 25/49/25 4/6/25 26/50/25
f 23/51/26 2/9/26 24/48/26
f 13/17/27 5/3/27 10/18/27
f 31/52/28 36/39/28 34/38/28
f 31/52/29 35/33/29 32/53/29
f 30/54/30 33/55/30 31/52/30
f 18/34/31 33/55/31 14/56/31
f 19/32/32 36/39/32 32/53/32
f 30/54/33 34/38/33 15/57/33
f 37/58/34 42/26/34 40/59/34
f 37/58/35 41/29/35 38/27/35
f 29/60/36 40/59/36 11/61/36
f 11/61/37 42/26/37 15/62/37
f 30/25/38 41/29/38 14/63/38
f 29/60/39 39/30/39 37/58/39
f 17/1/1 22/31/1 27/2/1
f 3/4/2 8/12/2 9/5/2
f 1/7/3 6/64/3 7/8/3
f 5/10/4 4/6/4 9/5/4
f 2/9/5 7/8/5 8/12/5
f 6/13/6 28/22/6 29/14/6
f 9/16/7 12/23/7 13/17/7
f 7/15/40 29/14/40 11/19/40
f 1/21/9 14/45/9 28/22/9
f 8/20/41 11/19/41 12/23/41
f 13/17/11 12/23/11 16/24/11
f 30/25/42 15/62/42 42/26/42
f 11/19/13 15/35/13 16/24/13
f 28/28/43 14/63/43 41/29/43
f 16/24/15 21/36/15 22/31/15
f 19/32/44 32/53/44 35/33/44
f 15/35/17 20/43/17 21/36/17
f 20/37/18 15/57/18 34/38/18
f 22/31/19 21/36/19 26/40/19
f 19/41/20 24/46/20 25/42/20
f 1/21/45 23/65/45 18/44/45
f 20/43/46 25/42/46 26/40/46
f 18/44/22 23/65/22 24/46/22
f 27/47/47 26/50/47 4/6/47
f 24/48/24 2/9/24 3/4/24
f 25/49/48 3/4/48 4/6/48
f 23/51/26 1/7/26 2/9/26
f 13/17/1 17/1/1 5/3/1
f 31/52/28 32/53/28 36/39/28
f 31/52/29 33/55/29 35/33/29
f 30/54/49 14/56/49 33/55/49
f 18/34/31 35/33/31 33/55/31
f 19/32/50 20/37/50 36/39/50
f 30/54/51 31/52/51 34/38/51
f 37/58/34 38/27/34 42/26/34
f 37/58/35 39/30/35 41/29/35
f 29/60/52 37/58/52 40/59/52
f 11/61/37 40/59/37 42/26/37
f 30/25/53 38/27/53 41/29/53
f 29/60/54 28/28/54 39/30/54
v 0.592996 0.912580 -1.514006
v 0.604349 0.889206 -1.501907
v 0.602381 0.861527 -1.494727
v 0.587622 0.836958 -1.494390
v 0.564024 0.822083 -1.500986
v 0.571309 0.921630 -1.499366
v 0.566785 0.904880 -1.476550
v 0.559007 0.879625 -1.465447
v 0.550058 0.852631 -1.469032
v 0.542337 0.831132 -1.486346
v 0.511265 0.891235 -1.490984
v 0.508713 0.862686 -1.491148
v 0.518466 0.836937 -1.499115
v 0.545254 0.924190 -1.539544
v 0.506897 0.884746 -1.545803
v 0.504930 0.857066 -1.538623
v 0.516282 0.833692 -1.526524
v 0.566942 0.915141 -1.554185
v 0.559220 0.893641 -1.571498
v 0.550272 0.866648 -1.575084
v 0.542493 0.841392 -1.563981
v 0.537970 0.824643 -1.541164
v 0.590813 0.909336 -1.541416
v 0.600566 0.883587 -1.549382
v 0.598014 0.855038 -1.549546
v 0.583839 0.831338 -1.541864
v 0.561840 0.818838 -1.528395
v 0.547438 0.927435 -1.512135
v 0.525440 0.914935 -1.498666
v 0.521657 0.909315 -1.546140
v 0.522751 0.922895 -1.594559
v 0.525816 0.921616 -1.596628
v 0.539926 0.928467 -1.563301
v 0.513123 0.895166 -1.575280
v 0.550661 0.923988 -1.570548
v 0.529775 0.888218 -1.586521
v 0.491552 0.943746 -1.517864
v 0.490657 0.942416 -1.529101
v 0.509803 0.942826 -1.521853
v 0.493560 0.920770 -1.517517
v 0.509393 0.942217 -1.527003
v 0.493149 0.920159 -1.522681
vt 0.274240 0.539347
vt 0.265397 0.539709
vt 0.266768 0.532487
vt 0.231414 0.551290
vt 0.214659 0.541092
vt 0.231357 0.542861
vt 0.231940 0.569242
vt 0.215985 0.562822
vt 0.231472 0.559719
vt 0.230890 0.533338
vt 0.220414 0.530957
vt 0.213134 0.552274
vt 0.289666 0.544440
vt 0.282983 0.540904
vt 0.290637 0.536818
vt 0.279682 0.529141
vt 0.275518 0.536619
vt 0.273707 0.532162
vt 0.280945 0.538772
vt 0.286431 0.530872
vt 0.290637 0.551375
vt 0.284312 0.543753
vt 0.278488 0.537315
vt 0.276318 0.541045
vt 0.804698 0.251197
vt 0.792375 0.255919
vt 0.792638 0.252041
vt 0.786357 0.239035
vt 0.792578 0.249274
vt 0.791489 0.249454
vt 0.271776 0.541127
vt 0.760733 0.199751
vt 0.757502 0.209505
vt 0.750621 0.206121
vt 0.278108 0.542645
vt 0.273009 0.544115
vt 0.772804 0.201934
vt 0.766718 0.213101
vt 0.766203 0.208706
vt 0.264007 0.548518
vt 0.277612 0.547903
vt 0.268747 0.555467
vt 0.275021 0.546378
vt 0.280714 0.548498
vt 0.281954 0.545638
vt 0.276612 0.557409
vt 0.240880 0.530957
vt 0.248168 0.561486
vt 0.249693 0.550306
vt 0.246843 0.539760
vt 0.242415 0.571620
vt 0.762287 0.211045
vt 0.762255 0.210544
vt 0.761023 0.221925
vt 0.757316 0.212491
vt 0.750922 0.216572
vt 0.772804 0.220841
vt 0.791613 0.252007
vt 0.791097 0.255536
vt 0.780068 0.250772
vt 0.780487 0.263708
vt 0.804698 0.264828
vt 0.798786 0.238814
vt 0.221949 0.571626
vt 0.283377 0.553479
vn -0.3021 -0.9436 0.1358
vn 0.4610 -0.2653 0.8468
vn 0.6085 0.5773 0.5445
vn 0.2130 -0.6581 0.7222
vn 0.5975 0.1613 0.7855
vn -0.1097 0.8115 0.5740
vn -0.5052 -0.4239 0.7517
vn -0.3279 0.4630 0.8235
vn 0.3021 0.9436 -0.1358
vn -0.4645 0.0364 0.8848
vn -0.9159 -0.3836 0.1184
vn -0.6711 -0.2738 -0.6890
vn -0.9937 0.0885 0.0687
vn 0.4055 0.9034 -0.1393
vn -0.6085 -0.5773 -0.5445
vn 0.7493 0.2308 -0.6207
vn -0.5975 -0.1613 -0.7855
vn -0.5623 -0.7351 -0.3786
vn 0.1097 -0.8115 -0.5740
vn 0.4645 -0.0364 -0.8848
vn 0.3279 -0.4630 -0.8235
vn 0.5052 0.4239 -0.7517
vn 0.5204 -0.8519 0.0594
vn 0.9937 -0.0884 -0.0687
vn 0.8571 -0.5150 -0.0073
vn 0.9159 0.3836 -0.1184
vn -0.6160 -0.2941 -0.7307
vn 0.2033 0.9385 -0.2790
vn -0.6129 0.7643 0.2005
vn 0.4229 0.9036 0.0678
vn 0.4744 -0.2030 -0.8566
vn -0.8572 0.5150 0.0010
vn -0.9923 -0.0854 0.0892
vn 0.0239 0.9926 -0.1194
vn -0.3787 0.4825 0.7898
vn -0.8958 -0.4274 0.1220
vn -0.0616 0.4846 -0.8726
vn 0.1879 0.6880 0.7009
vn -0.5317 0.3086 -0.7887
vn -0.9937 0.0884 0.0687
vn 0.4054 0.9035 -0.1392
vn 0.6967 0.2179 -0.6835
vn 0.9937 -0.0885 -0.0687
vn -0.6160 -0.2942 -0.7308
vn -0.5662 0.7797 0.2674
vn 0.4229 0.9037 0.0678
vn 0.4592 -0.0343 -0.8877
vn -0.9213 0.3794 0.0856
vn -0.9924 -0.0854 0.0892
vn -0.5130 -0.0319 0.8578
vn 0.1001 0.5279 -0.8434
vn 0.0790 0.6631 0.7444
s off
f 59/66/55 69/67/55 47/68/55
f 45/69/56 51/70/56 46/71/56
f 43/72/57 49/73/57 44/74/57
f 47/75/58 51/70/58 52/76/58
f 44/74/59 50/77/59 45/69/59
f 48/78/60 71/79/60 49/80/60
f 51/81/61 55/82/61 52/83/61
f 49/80/62 53/84/62 50/85/62
f 43/86/63 70/87/63 48/78/63
f 50/85/64 54/88/64 51/81/64
f 55/82/65 58/89/65 59/66/65
f 72/90/66 84/91/66 80/92/66
f 53/84/67 58/89/67 54/88/67
f 70/93/68 83/94/68 81/95/68
f 58/89/69 64/96/69 59/66/69
f 61/97/70 77/98/70 60/99/70
f 57/100/71 63/101/71 58/89/71
f 62/102/72 76/103/72 78/104/72
f 64/96/73 68/105/73 69/67/73
f 61/106/74 67/107/74 62/108/74
f 43/86/63 60/109/63 56/110/63
f 62/108/75 68/105/75 63/101/75
f 60/109/76 66/111/76 61/106/76
f 69/112/77 46/71/77 47/75/77
f 66/113/78 45/69/78 67/114/78
f 67/114/79 46/71/79 68/115/79
f 65/116/80 44/74/80 66/113/80
f 55/82/55 47/68/55 52/83/55
f 73/117/81 78/104/81 76/103/81
f 73/117/82 77/98/82 74/118/82
f 72/119/83 75/120/83 73/117/83
f 60/99/84 75/120/84 56/121/84
f 61/97/85 78/104/85 74/118/85
f 72/119/86 76/103/86 57/122/86
f 79/123/87 84/91/87 82/124/87
f 79/123/88 83/94/88 80/92/88
f 71/125/89 82/124/89 53/126/89
f 53/126/90 84/91/90 57/127/90
f 72/90/91 83/94/91 56/128/91
f 71/125/92 81/95/92 79/123/92
f 59/66/55 64/96/55 69/67/55
f 45/69/56 50/77/56 51/70/56
f 43/72/57 48/129/57 49/73/57
f 47/75/58 46/71/58 51/70/58
f 44/74/59 49/73/59 50/77/59
f 48/78/60 70/87/60 71/79/60
f 51/81/61 54/88/61 55/82/61
f 49/80/62 71/79/62 53/84/62
f 43/86/63 56/110/63 70/87/63
f 50/85/64 53/84/64 54/88/64
f 55/82/65 54/88/65 58/89/65
f 72/90/93 57/127/93 84/91/93
f 53/84/94 57/100/94 58/89/94
f 70/93/95 56/128/95 83/94/95
f 58/89/69 63/101/69 64/96/69
f 61/97/96 74/118/96 77/98/96
f 57/100/71 62/108/71 63/101/71
f 62/102/72 57/122/72 76/103/72
f 64/96/73 63/101/73 68/105/73
f 61/106/74 66/111/74 67/107/74
f 43/86/63 65/130/63 60/109/63
f 62/108/75 67/107/75 68/105/75
f 60/109/76 65/130/76 66/111/76
f 69/112/77 68/115/77 46/71/77
f 66/113/97 44/74/97 45/69/97
f 67/114/79 45/69/79 46/71/79
f 65/116/80 43/72/80 44/74/80
f 55/82/55 59/66/55 47/68/55
f 73/117/98 74/118/98 78/104/98
f 73/117/82 75/120/82 77/98/82
f 72/119/99 56/121/99 75/120/99
f 60/99/100 77/98/100 75/120/100
f 61/97/101 62/102/101 78/104/101
f 72/119/102 73/117/102 76/103/102
f 79/123/103 80/92/103 84/91/103
f 79/123/88 81/95/88 83/94/88
f 71/125/104 79/123/104 82/124/104
f 53/126/90 82/124/90 84/91/90
f 72/90/105 80/92/105 83/94/105
f 71/125/106 70/93/106 81/95/106
