# Blender v2.81 (sub 16) OBJ File: 'Boat2.0.blend'
# www.blender.org
v 0.000000 0.000000 0.000000
v 1.000000 0.000000 0.000000
v 0.000000 0.000000 -1.000000
v 1.000000 0.000000 -1.000000
v 0.000000 -0.200000 0.000000
v 1.000000 -0.200000 0.000000
v 0.000000 -0.200000 -1.000000
v 1.000000 -0.200000 -1.000000
vt 1.000000 0.000000
vt 0.000000 1.000000
vt 0.000000 0.000000
vt 0.000000 1.000000
vt 1.000000 0.000000
vt 0.000000 0.000000
vt 1.000000 1.000000
vt 1.000000 1.000000
vn 0.0000 1.0000 0.0000
vn 0.0000 -1.0000 0.0000
s off
f 2/1/1 3/2/1 1/3/1
f 7/4/2 6/5/2 5/6/2
f 2/1/1 4/7/1 3/2/1
f 7/4/2 8/8/2 6/5/2
