# Blender v2.81 (sub 16) OBJ File: 'Boat2.0.blend'
# www.blender.org
v 0.000000 -0.560000 -1.000000
v 0.000000 -0.560000 -0.500000
v 1.000000 -0.500000 -0.500000
v 1.000000 -0.500000 -1.000000
v 0.000000 -0.800000 -1.000000
v 1.000000 -0.750000 -1.000000
v 1.000000 -0.750000 -0.500000
v 0.000000 -0.800000 -0.500000
v 0.000000 -0.800000 -0.900000
v 1.000000 -0.750000 -0.900000
v 1.000000 -0.750000 -0.600000
v 0.000000 -0.800000 -0.600000
v 0.100000 -0.500000 -1.000000
v 1.000000 -1.000000 -0.900000
v 1.000000 -1.000000 -0.600000
v 0.100000 -0.500000 -0.500000
v 0.000000 -0.560000 -0.900000
v 0.000000 -0.560000 -0.600000
v 1.000000 -0.500000 -0.600000
v 1.000000 -0.500000 -0.900000
v 0.100000 -1.000000 -0.900000
v 0.100000 -1.000000 -0.600000
v 0.100000 -0.750000 -1.000000
v 0.100000 -0.750000 -0.500000
v 0.100000 -0.750000 -0.900000
v 0.100000 -0.750000 -0.600000
v 0.100000 -0.500000 -0.600000
v 0.100000 -0.500000 -0.900000
vt 0.301555 0.265729
vt 0.375233 0.340807
vt 0.349806 0.394101
vt 0.411782 0.940083
vt 0.352970 0.410774
vt 0.411782 0.410774
vt 0.794061 0.940083
vt 0.647030 0.410774
vt 0.794061 0.410774
vt 0.852873 0.410774
vt 0.261824 0.216171
vt 0.356963 0.221308
vt 0.999903 0.940083
vt 0.999903 0.410774
vt 0.588218 0.410774
vt 0.422307 0.343707
vt 0.579067 0.345423
vt 0.590185 0.214028
vt 0.626456 0.339827
vt 0.647030 0.940083
vt 0.588218 0.940083
vt 0.147127 0.410774
vt 0.000097 0.940083
vt 0.000097 0.410774
vt 0.412798 0.215066
vt 0.589799 0.147920
vt 0.412411 0.148957
vt 0.588934 0.000097
vt 0.647954 0.398681
vt 0.147127 0.940083
vt 0.205940 0.410774
vt 0.205939 0.940083
vt 0.695079 0.176917
vt 0.705187 0.270734
vt 0.652953 0.223636
vt 0.352970 0.940083
vt 0.852873 0.940083
vt 0.317232 0.171750
vt 0.411547 0.001134
vt 0.747313 0.224015
vn 0.0000 0.0000 -1.0000
vn 0.0000 1.0000 0.0000
vn 0.0000 0.0000 1.0000
vn 0.0000 -1.0000 0.0000
vn 0.4472 -0.8944 0.0000
vn -0.5145 0.8575 0.0000
vn -1.0000 0.0000 0.0000
s off
f 23/1/1 1/2/1 13/3/1
f 20/4/2 13/5/2 28/6/2
f 7/7/3 16/8/3 24/9/3
f 26/10/4 7/7/4 24/9/4
f 25/11/5 5/12/5 23/1/5
f 15/13/3 26/10/3 22/14/3
f 27/15/6 17/16/6 18/17/6
f 12/18/7 2/19/7 18/17/7
f 3/20/2 27/15/2 16/8/2
f 19/21/2 28/6/2 27/15/2
f 5/12/7 17/16/7 1/2/7
f 25/22/1 14/23/1 21/24/1
f 9/25/7 18/17/7 17/16/7
f 9/25/5 26/26/5 12/18/5
f 25/27/7 22/28/7 26/26/7
f 16/29/6 18/17/6 2/19/6
f 10/30/4 23/31/4 6/32/4
f 12/33/5 24/34/5 8/35/5
f 24/34/3 2/19/3 8/35/3
f 28/6/6 1/2/6 17/16/6
f 23/31/1 4/36/1 6/32/1
f 23/1/1 5/12/1 1/2/1
f 20/4/2 4/36/2 13/5/2
f 7/7/3 3/20/3 16/8/3
f 26/10/4 11/37/4 7/7/4
f 25/11/5 9/38/5 5/12/5
f 15/13/3 11/37/3 26/10/3
f 27/15/6 28/6/6 17/16/6
f 12/18/7 8/35/7 2/19/7
f 3/20/2 19/21/2 27/15/2
f 19/21/2 20/4/2 28/6/2
f 5/12/7 9/25/7 17/16/7
f 25/22/1 10/30/1 14/23/1
f 9/25/7 12/18/7 18/17/7
f 9/25/5 25/27/5 26/26/5
f 25/27/7 21/39/7 22/28/7
f 16/29/6 27/15/6 18/17/6
f 10/30/4 25/22/4 23/31/4
f 12/33/5 26/40/5 24/34/5
f 24/34/3 16/29/3 2/19/3
f 28/6/6 13/3/6 1/2/6
f 23/31/1 13/5/1 4/36/1
