# Blender v2.81 (sub 16) OBJ File: 'Boat2.0.blend'
# www.blender.org
v 0.000000 -0.500000 -1.000000
v 0.000000 -0.500000 -0.500000
v 1.000000 -0.500000 -0.500000
v 1.000000 -0.500000 -1.000000
v 0.000000 -0.750000 -1.000000
v 1.000000 -0.750000 -1.000000
v 1.000000 -0.750000 -0.500000
v 0.000000 -0.750000 -0.500000
v 0.000000 -0.750000 -0.900000
v 1.000000 -0.750000 -0.900000
v 1.000000 -0.750000 -0.600000
v 0.000000 -0.750000 -0.600000
v 0.000000 -1.000000 -0.900000
v 1.000000 -1.000000 -0.900000
v 1.000000 -1.000000 -0.600000
v 0.000000 -1.000000 -0.600000
vt 0.000077 0.794072
vt 0.588222 0.647036
vt 0.588222 0.794072
vt 0.588222 0.352964
vt 0.000077 0.647036
vt 0.000077 0.352964
vt 0.588222 0.205928
vt 0.000077 0.205928
vt 0.000077 0.147113
vt 0.588222 0.852887
vt 0.000077 0.000077
vt 0.588222 0.147113
vt 0.588222 0.999923
vt 0.000077 0.852887
vt 0.588222 0.000077
vt 0.000077 0.999923
vn 0.0000 0.0000 -1.0000
vn 0.0000 1.0000 0.0000
vn 0.0000 0.0000 1.0000
vn 0.0000 -1.0000 0.0000
s off
f 5/1/1 4/2/1 6/3/1
f 3/4/2 1/5/2 2/6/2
f 7/7/3 2/6/3 8/8/3
f 12/9/4 7/7/4 8/8/4
f 10/10/4 5/1/4 6/3/4
f 16/11/3 11/12/3 12/9/3
f 14/13/1 9/14/1 10/10/1
f 5/1/1 1/5/1 4/2/1
f 3/4/2 4/2/2 1/5/2
f 7/7/3 3/4/3 2/6/3
f 12/9/4 11/12/4 7/7/4
f 10/10/4 9/14/4 5/1/4
f 16/11/3 15/15/3 11/12/3
f 14/13/1 13/16/1 9/14/1
