# Blender v2.81 (sub 16) OBJ File: 'Boat2.0 - Joined.blend'
# www.blender.org
v 1.000000 -1.000000 -1.000000
v 1.000000 -1.000000 -3.000000
v 0.580880 -1.000000 -4.000000
v 1.000000 -1.000000 -4.000000
v 0.580880 -1.000000 -1.327374
v 0.580880 -1.000000 -3.000000
v 0.580880 -1.000000 -1.000000
v 0.580880 1.319226 -4.000000
v 1.000000 1.319226 -3.000000
v 1.000000 1.319226 -1.000000
v 0.580880 1.319226 -0.444889
v 1.000000 1.319226 -0.444889
v 0.580880 3.000000 1.000000
v 1.000000 3.000000 0.000000
v 0.580880 3.000000 -1.000000
v 0.580880 3.000000 0.000000
v 1.000000 3.000000 -1.000000
v 0.580880 2.000000 -3.000000
v 0.580880 3.000000 -3.000000
v 0.580880 3.000000 -1.327374
v 0.580880 2.000000 -4.000000
v 0.580880 3.000000 -4.000000
v 1.000000 3.000000 -3.000000
v 1.000000 3.000000 -4.000000
v 3.000000 -1.000000 -3.000000
v 4.000000 2.000000 -3.000000
v 8.000000 3.000000 -3.000000
v 8.000000 3.000000 -4.000000
v 8.000000 -1.000000 -4.000000
v 7.000000 2.000000 -3.000000
v 7.000000 -1.000000 -3.000000
v 1.000000 2.000000 -1.327374
v 3.000000 2.000000 -1.327374
v 1.000000 3.000000 -1.327374
v 3.000000 2.000000 0.000000
v 3.000000 2.000000 -1.000000
v 8.000000 3.000000 0.000000
v 8.000000 3.000000 -1.000000
v 4.000000 2.000000 -1.327374
v 4.000000 2.000000 0.000000
v 4.000000 2.000000 -1.000000
v 7.000000 2.000000 -1.000000
v 7.000000 2.000000 0.000000
v 7.000000 2.000000 -1.327374
v 8.000000 2.000000 0.000000
v 12.112163 2.000000 -0.379532
v 12.112163 3.000000 -0.379532
v 8.000000 2.000000 -1.000000
v 11.704885 2.000000 -1.000000
v 8.000000 2.000000 -1.327374
v 11.495653 2.000000 -1.327374
v 8.000000 3.000000 -1.327374
v 11.704885 3.000000 -1.000000
v 11.495653 -1.000000 -1.327374
v 11.495653 1.319226 -1.327374
v 8.000000 2.000000 -3.000000
v 10.414259 2.000000 -3.000000
v 11.495653 3.000000 -1.327374
v 10.414259 3.000000 -3.000000
v 9.281272 -1.000000 -3.462644
v 8.000000 1.319226 -4.000000
v 9.281272 3.000000 -3.462644
v 0.580880 2.000000 0.000000
v 1.000000 2.000000 0.000000
v 0.580880 1.319226 -1.000000
v 1.000000 2.000000 -1.000000
v 0.580880 1.319226 -3.000000
v 1.000000 1.319226 -4.000000
v 1.000000 2.000000 -3.000000
v 1.000000 2.000000 -4.000000
v 3.000000 1.319226 -3.000000
v 3.000000 2.000000 -3.000000
v 4.000000 1.319226 -3.000000
v 7.000000 1.319226 -3.000000
v 8.000000 2.000000 -4.000000
v 8.000000 1.319226 0.000000
v 12.112163 1.319226 -0.379532
v 8.000000 1.319226 -1.000000
v 11.704885 1.319226 -1.000000
v 8.000000 1.319226 -1.327374
v 8.000000 1.319226 -3.000000
v 9.281272 2.000000 -3.462644
v 10.414259 1.319226 -3.000000
v 9.281272 1.319226 -3.462644
v 1.000000 1.319226 -1.327374
v 0.580880 1.319226 -1.327374
v 0.580880 2.000000 -1.327374
v 0.580880 2.000000 -1.000000
v 0.580880 -1.000000 2.445406
v 1.000000 -1.000000 2.445406
v 1.000000 -1.000000 6.000517
v 1.000000 1.319226 6.000517
v 1.000000 -1.000000 4.000517
v 1.000000 1.319226 3.000517
v 0.580880 -1.000000 5.000517
v 1.000000 -1.000000 3.000517
v 0.580880 1.319226 2.445406
v 1.000000 1.319226 2.445406
v 0.580880 2.000000 1.000517
v 1.000000 2.000000 1.000517
v 1.000000 2.000000 2.000517
v 0.580880 3.000000 2.000517
v 1.000000 3.000000 5.000517
v 0.580880 2.000000 6.000517
v 0.580880 3.000000 6.000517
v 0.580880 3.000000 5.000517
v 1.000000 3.000000 6.000517
v 1.000000 2.000000 5.000517
v 4.000000 2.000000 5.000517
v 8.000000 -1.000000 6.000517
v 8.000000 1.319226 6.000517
v 8.000000 2.000000 6.000517
v 8.000000 3.000000 6.000517
v 1.000000 3.000000 2.000517
v 1.000000 3.000000 1.000517
v 8.000000 3.000000 1.000517
v 3.000000 2.000000 1.000517
v 3.000000 2.000000 2.000517
v 8.000000 3.000000 5.000517
v 4.000000 2.000000 1.000517
v 4.000000 2.000000 2.000517
v 3.000000 2.000000 3.000517
v 3.000000 2.000000 4.000517
v 4.000000 2.000000 4.000517
v 8.000000 3.000000 2.000517
v 4.000000 2.000000 3.000517
v 7.000000 2.000000 2.000517
v 7.000000 2.000000 3.000517
v 7.000000 2.000000 1.000517
v 8.000000 2.000000 3.000517
v 8.000000 -1.000000 1.000517
v 12.746277 -1.000000 1.000517
v 12.746277 1.319226 1.000517
v 12.746277 3.000000 1.000517
v 10.414259 -1.000000 5.000517
v 12.112163 3.000000 2.379532
v 10.414259 3.000000 5.000517
v 9.281272 1.319226 5.462644
v 9.281272 3.000000 5.462644
v 9.281272 2.000000 5.462644
v 0.580880 2.000000 2.000517
v 1.000000 2.000000 3.000517
v 1.000000 1.319226 5.000517
v 0.580880 1.319226 6.000517
v 1.000000 2.000000 6.000517
v 3.000000 2.000000 5.000517
v 3.000000 1.319226 5.000517
v 4.000000 1.319226 5.000517
v 8.000000 1.319226 1.000517
v 8.000000 1.319226 2.000517
v 8.000000 2.000000 1.000517
v 12.746277 2.000000 1.000517
v 12.112163 1.319226 2.379532
v 10.414259 1.319226 5.000517
v 8.000000 2.000000 2.000517
v 12.112163 2.000000 2.379532
v 10.414259 2.000000 5.000517
v 0.580880 1.319226 5.000517
v 0.580880 2.000000 5.000517
v 1.000000 1.319226 4.000517
v 1.000000 2.000000 4.000517
v 3.000000 1.319226 -1.000000
v 3.000000 1.319226 -1.327374
v 1.000000 -1.000000 -0.444889
v 1.000000 -1.000000 -1.327374
v 0.580880 -1.000000 -0.444889
v 4.000000 -1.000000 -3.000000
v 8.000000 -1.000000 -3.000000
v 8.000000 -1.000000 0.000000
v 12.112163 -1.000000 -0.379532
v 8.000000 -1.000000 -1.000000
v 11.704885 -1.000000 -1.000000
v 8.000000 -1.000000 -1.327374
v 10.414259 -1.000000 -3.000000
v 0.580880 -1.000000 6.000517
v 1.000000 -1.000000 5.000517
v 3.000000 -1.000000 5.000517
v 4.000000 -1.000000 5.000517
v 8.000000 -1.000000 2.000517
v 12.112163 -1.000000 2.379532
v 8.000000 -1.000000 3.000517
v 9.281272 -1.000000 5.462644
v 3.000000 -1.000000 -1.000000
v 3.000000 -1.000000 -1.327374
v 4.000000 1.319226 4.000517
v 7.000000 -1.000000 3.000517
v 8.000000 1.319226 3.000517
v 4.000000 1.319226 3.000517
v 7.000000 1.319226 3.000517
v 4.000000 -1.000000 3.000517
v 4.000000 -1.000000 4.000517
v 11.428528 1.319226 3.431196
v 0.580880 -1.000000 3.722961
v 1.000000 3.000000 3.500517
v 11.428528 3.000000 3.431196
v 8.000000 3.000000 3.500517
v 0.580880 3.000000 3.500517
v 0.580880 2.000000 3.500517
v 11.428528 2.000000 3.431196
v 0.580880 1.319226 3.722961
v 11.428528 -1.000000 3.431196
vt -4.210220 3.788796
vt -4.026236 2.485384
vt -4.026236 3.788796
vt 13.414112 -0.265336
vt 13.270101 0.531563
vt 13.270101 -0.265336
vt 2.457269 -1.087298
vt 1.712074 -1.408610
vt 2.457269 -1.408610
vt -1.962209 2.485384
vt -2.902230 3.788796
vt -2.902230 2.485384
vt 2.457269 -0.549864
vt 1.712074 -1.087298
vt 2.457269 -0.444675
vt 1.712074 -0.549864
vt -5.334227 2.485385
vt -5.646200 3.788796
vt -5.646200 2.485385
vt 2.457269 -0.266311
vt 1.712074 -0.444675
vt 1.712074 -0.131643
vt 2.457269 -0.131643
vt 1.172021 0.197949
vt 1.037353 -0.123363
vt 1.172021 -0.123363
vt 1.493333 -0.123363
vt 1.628001 0.198115
vt 1.493333 0.198115
vt 1.172021 -0.444674
vt 1.493333 -0.444675
vt 1.037353 -0.444674
vt 1.172021 -0.549864
vt 1.493333 -0.549864
vt 1.037353 -0.549864
vt 1.172021 -1.087299
vt 1.493333 -1.087298
vt 13.414111 0.765480
vt 13.270101 1.109085
vt 13.270101 0.765480
vt 1.037353 -1.087299
vt 1.172021 -1.408610
vt 1.493333 -1.408610
vt 10.864863 0.531564
vt 10.864863 -0.265335
vt -0.838204 2.485384
vt -1.962209 3.788796
vt 10.864863 1.109084
vt 10.864863 0.765480
vt -1.211830 -1.087299
vt 1.037353 -1.408610
vt 1.409807 2.485384
vt -0.276201 3.788796
vt -0.276201 2.485384
vt -0.838204 3.788796
vt 1.971810 2.485384
vt 1.409807 3.788795
vt -1.211830 0.198115
vt 1.037353 0.198115
vt -1.250432 0.212697
vt -0.188883 0.743744
vt -1.250432 0.743744
vt -1.211830 -0.123362
vt -0.188883 -0.318079
vt -1.250432 -0.318079
vt -1.211830 -0.444675
vt -1.211830 -0.549864
vt -0.188884 -1.379629
vt -1.250432 -0.491841
vt -1.250432 -1.379629
vt 0.341892 0.212697
vt -0.188883 0.212697
vt 0.341890 -0.318079
vt 0.341891 -0.491841
vt -0.188883 -0.491841
vt 0.341892 -1.379629
vt 1.934213 0.212697
vt 0.341892 0.743744
vt 1.934213 -0.318079
vt 1.934213 -0.491841
vt 1.934213 -1.379629
vt 2.464988 0.212697
vt 1.934215 0.743744
vt 2.464988 -0.318079
vt 2.464988 -0.491841
vt 2.464988 -1.379629
vt 8.894061 -0.265334
vt 8.372208 0.531563
vt 8.372207 -0.265334
vt 4.220111 2.485384
vt 3.657818 3.788796
vt 3.657815 2.485384
vt -2.533116 -0.245311
vt 8.894060 0.765480
vt 8.372209 1.109085
vt 8.372208 0.765481
vt 9.149082 -0.265334
vt 8.894060 0.531563
vt 3.095815 3.788795
vt 3.095815 2.485385
vt -2.402253 -0.444675
vt 9.149082 0.765480
vt 8.894061 1.109085
vt 9.282581 -0.265334
vt 9.149083 0.531563
vt 2.911830 3.788795
vt 2.911830 2.485384
vt -2.335024 -0.549864
vt 9.282581 0.765480
vt 9.149082 1.109084
vt 9.966957 -0.265334
vt 9.282581 0.531563
vt 1.971810 3.788795
vt -1.987559 -1.087298
vt 9.966958 0.765480
vt 9.282581 1.109084
vt 9.966958 1.109084
vt 10.387465 0.765480
vt 10.387464 1.109084
vt -1.623518 -1.235951
vt -1.211830 -1.408610
vt 1.712074 -0.266311
vt 13.414111 0.531563
vt -1.962209 4.171392
vt -0.276201 4.171392
vt -0.838204 4.171392
vt 1.409807 4.171392
vt 4.220112 3.788796
vt 3.657815 4.171393
vt 3.095813 4.171393
vt 2.911829 4.171393
vt 9.966957 0.531563
vt 1.971809 4.171393
vt 10.387464 0.531563
vt -5.334226 4.171392
vt -5.896229 4.171393
vt 1.567004 -0.010632
vt 1.785744 -0.153580
vt -2.902230 4.171392
vt -5.334226 3.788796
vt 3.474498 0.531561
vt 3.330487 -0.265335
vt 3.474499 -0.265335
vt 1.712074 1.804675
vt 2.457270 1.483363
vt 2.457270 1.804675
vt -1.515510 3.790693
vt -2.076264 2.490174
vt -1.515510 2.490174
vt -0.954754 3.790691
vt -0.954754 2.490174
vt -0.643471 3.790692
vt -0.643471 2.490173
vt 1.712074 1.072869
vt 2.457269 0.662375
vt 2.457269 1.072869
vt 1.712074 0.527707
vt 2.457269 0.527706
vt 1.172021 0.519427
vt 1.493333 0.519427
vt 1.628001 0.519427
vt 1.172021 1.483363
vt 1.037353 1.001395
vt 1.172021 1.001395
vt 1.493333 1.001395
vt 3.474498 1.109083
vt 3.330487 0.765478
vt 3.474498 0.765478
vt 1.172021 1.804675
vt 1.037353 1.483363
vt 1.493334 1.483363
vt 1.493334 1.804675
vt 5.879729 0.531563
vt 5.879729 -0.265334
vt -2.076264 3.790692
vt -3.197775 2.490174
vt 5.879729 1.109084
vt 5.879729 0.765481
vt 1.037353 1.804675
vt -1.211830 1.483363
vt -3.197775 3.790693
vt -3.758529 2.490174
vt 1.037353 0.519427
vt -0.188883 1.274519
vt -1.250432 1.274519
vt -1.211830 1.001395
vt -0.188883 1.805294
vt -1.250432 1.805294
vt -0.188883 2.336067
vt -1.250432 2.336068
vt -1.250432 2.866842
vt -0.188883 2.866841
vt 0.341892 1.274519
vt 0.341892 1.805294
vt 0.341892 2.336067
vt 0.341892 2.866841
vt 1.934215 1.274519
vt 1.934215 1.805294
vt 2.464990 1.274519
vt 2.464990 1.805294
vt 7.850677 -0.265334
vt 4.782115 3.788795
vt 4.782113 2.485384
vt -2.533116 0.641209
vt -2.736864 0.198115
vt 7.850677 0.765481
vt 7.419682 0.531563
vt 6.777637 -0.265334
vt 7.419682 -0.265334
vt 5.344115 3.788795
vt 5.344115 2.485384
vt -1.987560 1.483362
vt -2.313457 0.979121
vt 7.419682 1.109085
vt 6.777637 0.765481
vt 7.419682 0.765481
vt 6.357200 0.765480
vt 6.777637 1.109084
vt 6.357200 1.109084
vt -1.623518 1.631849
vt -1.211830 1.804675
vt 1.712074 0.662375
vt 3.330487 0.531561
vt 1.712074 1.483362
vt -2.076264 4.172440
vt -3.197775 4.172440
vt -3.758529 3.790692
vt 7.850677 0.531563
vt 4.782113 4.171393
vt 6.777637 0.531564
vt 5.344117 4.171393
vt 6.357200 0.531563
vt -0.954754 4.172440
vt 1.567004 0.406696
vt 1.785744 0.549644
vt -1.515510 4.172440
vt -4.210220 4.171392
vt -4.026236 4.171392
vt 6.357200 -0.265333
vt 10.387463 -0.265334
vt -4.880040 4.172440
vt -4.319284 3.790692
vt -4.319285 4.172440
vt -7.123062 3.790692
vt -6.562306 4.172439
vt -7.123062 4.172439
vt -6.562306 3.790692
vt -3.758529 4.172440
vt -4.880040 3.790692
vt -4.319285 2.490174
vt -6.562306 2.490174
vt 7.850677 1.109085
vt -1.211830 0.519427
vt -4.210221 2.485385
vt 1.628001 -0.123363
vt 13.414113 1.109085
vt 2.464990 0.743744
vt 4.220111 4.171393
vt 3.330487 1.109083
vt -0.393998 4.172440
vt -4.880040 2.490174
vn 1.0000 0.0000 0.0000
vn 0.0000 0.0000 -1.0000
vn -1.0000 0.0000 0.0000
vn 0.0000 0.0000 1.0000
vn 0.0000 1.0000 0.0000
vn 0.0000 -1.0000 0.0000
vn 0.9087 0.0000 -0.4175
vn 0.8360 0.0000 -0.5487
vn 0.8426 0.0000 -0.5385
vn 0.8398 0.0000 -0.5429
vn 0.3780 0.0000 -0.9258
vn 0.3868 0.0000 -0.9222
vn 0.0000 -0.5470 0.8371
vn 0.9085 0.0000 0.4178
vn 0.8399 0.0000 0.5428
vn 0.3777 0.0000 0.9259
vn 0.3871 0.0000 0.9220
vn 0.0000 -0.5470 -0.8371
vn 0.8384 0.0000 0.5450
s off
f 162/1/1 184/2/1 163/3/1
f 3/4/2 68/5/2 4/6/2
f 6/7/3 8/8/3 3/9/3
f 2/10/1 85/11/1 165/12/1
f 5/13/3 67/14/3 6/7/3
f 7/15/3 86/16/3 5/13/3
f 1/17/1 12/18/1 164/19/1
f 166/20/3 65/21/3 7/15/3
f 12/22/4 166/20/4 164/23/4
f 13/24/5 14/25/5 16/26/5
f 63/27/3 13/24/3 16/26/3
f 63/27/6 100/28/6 99/29/6
f 14/25/5 15/30/5 16/26/5
f 63/27/3 15/30/3 88/31/3
f 17/32/5 20/33/5 15/30/5
f 88/31/3 20/33/3 87/34/3
f 34/35/5 19/36/5 20/33/5
f 87/34/3 19/36/3 18/37/3
f 21/38/2 24/39/2 70/40/2
f 23/41/5 22/42/5 19/36/5
f 18/37/3 22/42/3 21/43/3
f 4/6/2 61/44/2 29/45/2
f 25/46/4 9/47/4 2/10/4
f 70/40/2 28/48/2 75/49/2
f 27/50/5 24/51/5 23/41/5
f 31/52/4 73/53/4 167/54/4
f 167/54/4 71/55/4 25/46/4
f 168/56/4 74/57/4 31/52/4
f 116/58/5 14/25/5 115/59/5
f 64/60/6 117/61/6 100/62/6
f 37/63/5 17/32/5 14/25/5
f 36/64/6 64/60/6 66/65/6
f 38/66/5 34/35/5 17/32/5
f 163/3/2 165/12/2 85/11/2
f 52/67/5 23/41/5 34/35/5
f 72/68/6 32/69/6 69/70/6
f 40/71/6 117/61/6 35/72/6
f 41/73/6 35/72/6 36/64/6
f 39/74/6 36/64/6 33/75/6
f 26/76/6 33/75/6 72/68/6
f 43/77/6 120/78/6 40/71/6
f 42/79/6 40/71/6 41/73/6
f 44/80/6 41/73/6 39/74/6
f 30/81/6 39/74/6 26/76/6
f 45/82/6 129/83/6 43/77/6
f 48/84/6 43/77/6 42/79/6
f 50/85/6 42/79/6 44/80/6
f 56/86/6 44/80/6 30/81/6
f 170/87/7 133/88/7 132/89/7
f 131/90/3 76/91/3 169/92/3
f 116/58/5 47/93/5 37/63/5
f 46/94/7 134/95/7 152/96/7
f 172/97/8 77/98/8 170/87/8
f 169/92/3 78/99/3 171/100/3
f 37/63/5 53/101/5 38/66/5
f 49/102/8 47/103/8 46/94/8
f 54/104/9 79/105/9 172/97/9
f 171/100/3 80/106/3 173/107/3
f 38/66/5 58/108/5 52/67/5
f 51/109/9 53/110/9 49/102/9
f 174/111/10 55/112/10 54/104/10
f 173/107/3 81/113/3 168/56/3
f 52/67/5 59/114/5 27/50/5
f 57/115/10 58/116/10 51/109/10
f 59/117/11 82/118/11 62/119/11
f 62/119/12 75/49/12 28/48/12
f 27/50/5 62/120/5 28/121/5
f 11/122/3 88/31/3 65/21/3
f 65/21/3 87/34/3 86/16/3
f 86/16/3 18/37/3 67/14/3
f 8/123/2 70/40/2 68/5/2
f 67/14/3 21/43/3 8/8/3
f 68/5/2 75/49/2 61/44/2
f 71/55/4 69/124/4 9/47/4
f 74/57/4 26/125/4 73/53/4
f 73/53/4 72/126/4 71/55/4
f 81/113/4 30/127/4 74/57/4
f 77/98/7 152/96/7 133/88/7
f 149/128/3 45/129/3 76/91/3
f 79/105/8 46/94/8 77/98/8
f 76/91/3 48/130/3 78/99/3
f 55/112/9 49/102/9 79/105/9
f 78/99/3 50/131/3 80/106/3
f 83/132/10 51/109/10 55/112/10
f 80/106/3 56/133/3 81/113/3
f 57/115/11 84/134/11 82/118/11
f 82/118/12 61/44/12 75/49/12
f 12/18/1 66/135/1 64/136/1
f 64/137/13 11/122/13 12/138/13
f 9/47/1 32/139/1 85/11/1
f 1/17/4 162/1/4 10/140/4
f 92/141/4 175/142/4 91/143/4
f 144/144/3 95/145/3 175/146/3
f 160/147/1 176/148/1 93/149/1
f 94/150/1 93/149/1 96/151/1
f 98/152/1 96/151/1 90/153/1
f 200/154/3 89/155/3 193/156/3
f 89/155/2 98/157/2 90/158/2
f 102/159/5 115/59/5 13/24/5
f 102/159/3 99/29/3 141/160/3
f 99/29/6 101/161/6 141/160/6
f 106/162/5 194/163/5 197/164/5
f 197/164/3 141/160/3 198/165/3
f 107/166/4 104/167/4 145/168/4
f 105/169/5 103/170/5 106/162/5
f 105/169/3 159/171/3 104/172/3
f 111/173/4 91/143/4 110/174/4
f 143/175/2 177/176/2 176/148/2
f 113/177/4 145/168/4 112/178/4
f 107/179/5 119/180/5 103/170/5
f 147/181/2 178/182/2 177/176/2
f 114/183/5 116/58/5 115/59/5
f 100/62/6 118/184/6 101/185/6
f 103/170/5 196/186/5 194/163/5
f 101/185/6 122/187/6 142/188/6
f 142/188/6 123/189/6 161/190/6
f 108/191/6 123/189/6 146/192/6
f 117/61/6 121/193/6 118/184/6
f 118/184/6 126/194/6 122/187/6
f 122/187/6 124/195/6 123/189/6
f 123/189/6 109/196/6 146/192/6
f 120/78/6 127/197/6 121/193/6
f 121/193/6 128/198/6 126/194/6
f 129/83/6 155/199/6 127/197/6
f 127/197/6 130/200/6 128/198/6
f 133/88/14 180/201/14 132/89/14
f 150/202/3 131/90/3 179/203/3
f 116/58/5 136/204/5 134/205/5
f 134/95/14 156/206/14 152/96/14
f 192/207/15 135/208/15 201/209/15
f 187/210/3 179/203/3 181/211/3
f 196/186/5 137/212/5 195/213/5
f 195/214/15 157/215/15 199/216/15
f 140/217/16 137/218/16 139/219/16
f 112/178/17 139/219/17 113/177/17
f 139/220/5 119/180/5 113/221/5
f 198/165/3 97/222/3 200/154/3
f 92/141/4 104/167/4 144/223/4
f 104/172/3 158/224/3 144/144/3
f 112/178/4 92/141/4 111/173/4
f 108/225/2 147/181/2 143/175/2
f 146/226/2 148/227/2 147/181/2
f 152/96/14 153/228/14 133/88/14
f 155/229/3 149/128/3 150/202/3
f 199/216/15 154/230/15 192/207/15
f 130/231/3 150/202/3 187/210/3
f 138/232/16 157/215/16 140/217/16
f 111/173/17 140/217/17 112/178/17
f 98/152/1 142/233/1 94/150/1
f 97/222/18 101/234/18 98/235/18
f 161/236/1 143/175/1 160/147/1
f 142/233/1 160/147/1 94/150/1
f 36/237/1 163/3/1 33/238/1
f 10/140/4 36/237/4 66/135/4
f 85/11/2 33/238/2 163/3/2
f 110/174/17 138/232/17 111/173/17
f 182/239/16 154/230/16 138/232/16
f 84/134/12 29/45/12 61/44/12
f 83/132/11 60/240/11 84/134/11
f 126/241/3 185/242/3 124/243/3
f 187/244/2 128/245/2 130/246/2
f 189/247/2 126/241/2 128/245/2
f 185/242/3 109/248/3 124/243/3
f 188/249/3 191/250/3 185/242/3
f 186/251/2 188/249/2 189/247/2
f 185/242/3 178/182/3 148/227/3
f 156/206/19 192/207/19 153/228/19
f 159/171/3 200/154/3 158/224/3
f 136/252/19 199/216/19 156/206/19
f 125/253/5 195/213/5 136/204/5
f 153/228/19 201/209/19 180/201/19
f 194/163/5 125/253/5 114/183/5
f 106/162/3 198/165/3 159/171/3
f 197/164/5 114/183/5 102/159/5
f 158/224/3 193/156/3 95/145/3
f 162/1/1 183/254/1 184/2/1
f 3/4/2 8/123/2 68/5/2
f 6/7/3 67/14/3 8/8/3
f 2/10/1 9/47/1 85/11/1
f 5/13/3 86/16/3 67/14/3
f 7/15/3 65/21/3 86/16/3
f 1/17/1 10/140/1 12/18/1
f 166/20/3 11/122/3 65/21/3
f 12/22/4 11/122/4 166/20/4
f 13/24/5 115/59/5 14/25/5
f 63/27/3 99/29/3 13/24/3
f 63/27/6 64/255/6 100/28/6
f 14/25/5 17/32/5 15/30/5
f 63/27/3 16/26/3 15/30/3
f 17/32/5 34/35/5 20/33/5
f 88/31/3 15/30/3 20/33/3
f 34/35/5 23/41/5 19/36/5
f 87/34/3 20/33/3 19/36/3
f 21/38/2 22/256/2 24/39/2
f 23/41/5 24/51/5 22/42/5
f 18/37/3 19/36/3 22/42/3
f 4/6/2 68/5/2 61/44/2
f 25/46/4 71/55/4 9/47/4
f 70/40/2 24/39/2 28/48/2
f 27/50/5 28/121/5 24/51/5
f 31/52/4 74/57/4 73/53/4
f 167/54/4 73/53/4 71/55/4
f 168/56/4 81/113/4 74/57/4
f 116/58/5 37/63/5 14/25/5
f 64/60/6 35/72/6 117/61/6
f 37/63/5 38/66/5 17/32/5
f 36/64/6 35/72/6 64/60/6
f 38/66/5 52/67/5 34/35/5
f 163/3/2 184/2/2 165/12/2
f 52/67/5 27/50/5 23/41/5
f 72/68/6 33/75/6 32/69/6
f 40/71/6 120/78/6 117/61/6
f 41/73/6 40/71/6 35/72/6
f 39/74/6 41/73/6 36/64/6
f 26/76/6 39/74/6 33/75/6
f 43/77/6 129/83/6 120/78/6
f 42/79/6 43/77/6 40/71/6
f 44/80/6 42/79/6 41/73/6
f 30/81/6 44/80/6 39/74/6
f 45/82/6 151/257/6 129/83/6
f 48/84/6 45/82/6 43/77/6
f 50/85/6 48/84/6 42/79/6
f 56/86/6 50/85/6 44/80/6
f 170/87/7 77/98/7 133/88/7
f 131/90/3 149/128/3 76/91/3
f 116/58/5 134/205/5 47/93/5
f 46/94/7 47/103/7 134/95/7
f 172/97/8 79/105/8 77/98/8
f 169/92/3 76/91/3 78/99/3
f 37/63/5 47/93/5 53/101/5
f 49/102/8 53/110/8 47/103/8
f 54/104/9 55/112/9 79/105/9
f 171/100/3 78/99/3 80/106/3
f 38/66/5 53/101/5 58/108/5
f 51/109/9 58/116/9 53/110/9
f 174/111/10 83/132/10 55/112/10
f 173/107/3 80/106/3 81/113/3
f 52/67/5 58/108/5 59/114/5
f 57/115/10 59/117/10 58/116/10
f 59/117/11 57/115/11 82/118/11
f 62/119/12 82/118/12 75/49/12
f 27/50/5 59/114/5 62/120/5
f 11/122/3 63/27/3 88/31/3
f 65/21/3 88/31/3 87/34/3
f 86/16/3 87/34/3 18/37/3
f 8/123/2 21/38/2 70/40/2
f 67/14/3 18/37/3 21/43/3
f 68/5/2 70/40/2 75/49/2
f 71/55/4 72/126/4 69/124/4
f 74/57/4 30/127/4 26/125/4
f 73/53/4 26/125/4 72/126/4
f 81/113/4 56/133/4 30/127/4
f 77/98/7 46/94/7 152/96/7
f 149/128/3 151/258/3 45/129/3
f 79/105/8 49/102/8 46/94/8
f 76/91/3 45/129/3 48/130/3
f 55/112/9 51/109/9 49/102/9
f 78/99/3 48/130/3 50/131/3
f 83/132/10 57/115/10 51/109/10
f 80/106/3 50/131/3 56/133/3
f 57/115/11 83/132/11 84/134/11
f 82/118/12 84/134/12 61/44/12
f 12/18/1 10/140/1 66/135/1
f 64/137/13 63/27/13 11/122/13
f 9/47/1 69/124/1 32/139/1
f 1/17/4 183/254/4 162/1/4
f 92/141/4 144/223/4 175/142/4
f 144/144/3 158/224/3 95/145/3
f 160/147/1 143/175/1 176/148/1
f 94/150/1 160/147/1 93/149/1
f 98/152/1 94/150/1 96/151/1
f 200/154/3 97/222/3 89/155/3
f 89/155/2 97/222/2 98/157/2
f 102/159/5 114/183/5 115/59/5
f 102/159/3 13/24/3 99/29/3
f 99/29/6 100/28/6 101/161/6
f 106/162/5 103/170/5 194/163/5
f 197/164/3 102/159/3 141/160/3
f 107/166/4 105/259/4 104/167/4
f 105/169/5 107/179/5 103/170/5
f 105/169/3 106/162/3 159/171/3
f 111/173/4 92/141/4 91/143/4
f 143/175/2 147/181/2 177/176/2
f 113/177/4 107/166/4 145/168/4
f 107/179/5 113/221/5 119/180/5
f 147/181/2 148/227/2 178/182/2
f 114/183/5 125/253/5 116/58/5
f 100/62/6 117/61/6 118/184/6
f 103/170/5 119/180/5 196/186/5
f 101/185/6 118/184/6 122/187/6
f 142/188/6 122/187/6 123/189/6
f 108/191/6 161/190/6 123/189/6
f 117/61/6 120/78/6 121/193/6
f 118/184/6 121/193/6 126/194/6
f 122/187/6 126/194/6 124/195/6
f 123/189/6 124/195/6 109/196/6
f 120/78/6 129/83/6 127/197/6
f 121/193/6 127/197/6 128/198/6
f 129/83/6 151/257/6 155/199/6
f 127/197/6 155/199/6 130/200/6
f 133/88/14 153/228/14 180/201/14
f 150/202/3 149/128/3 131/90/3
f 116/58/5 125/253/5 136/204/5
f 134/95/14 136/252/14 156/206/14
f 192/207/15 154/230/15 135/208/15
f 187/210/3 150/202/3 179/203/3
f 196/186/5 119/180/5 137/212/5
f 195/214/15 137/218/15 157/215/15
f 140/217/16 157/215/16 137/218/16
f 112/178/17 140/217/17 139/219/17
f 139/220/5 137/212/5 119/180/5
f 198/165/3 141/160/3 97/222/3
f 92/141/4 145/168/4 104/167/4
f 104/172/3 159/171/3 158/224/3
f 112/178/4 145/168/4 92/141/4
f 108/225/2 146/226/2 147/181/2
f 146/226/2 109/248/2 148/227/2
f 152/96/14 156/206/14 153/228/14
f 155/229/3 151/258/3 149/128/3
f 199/216/15 157/215/15 154/230/15
f 130/231/3 155/229/3 150/202/3
f 138/232/16 154/230/16 157/215/16
f 111/173/17 138/232/17 140/217/17
f 98/152/1 101/260/1 142/233/1
f 97/222/18 141/160/18 101/234/18
f 161/236/1 108/225/1 143/175/1
f 142/233/1 161/236/1 160/147/1
f 36/237/1 162/1/1 163/3/1
f 10/140/4 162/1/4 36/237/4
f 85/11/2 32/139/2 33/238/2
f 110/174/17 182/239/17 138/232/17
f 182/239/16 135/208/16 154/230/16
f 84/134/12 60/240/12 29/45/12
f 83/132/11 174/111/11 60/240/11
f 126/241/3 188/249/3 185/242/3
f 187/244/2 189/247/2 128/245/2
f 189/247/2 188/249/2 126/241/2
f 185/242/3 148/227/3 109/248/3
f 188/249/3 190/261/3 191/250/3
f 186/251/2 190/261/2 188/249/2
f 185/242/3 191/250/3 178/182/3
f 156/206/19 199/216/19 192/207/19
f 159/171/3 198/165/3 200/154/3
f 136/252/19 195/214/19 199/216/19
f 125/253/5 196/186/5 195/213/5
f 153/228/19 192/207/19 201/209/19
f 194/163/5 196/186/5 125/253/5
f 106/162/3 197/164/3 198/165/3
f 197/164/5 194/163/5 114/183/5
f 158/224/3 200/154/3 193/156/3
