# Blender v2.81 (sub 16) OBJ File: 'Cork.blend'
# www.blender.org
v -0.000000 -0.146085 -0.256946
v 0.000000 0.713540 -0.376559
v 0.222522 -0.146085 -0.128473
v 0.326110 0.713540 -0.188279
v 0.222522 -0.146085 0.128473
v 0.326110 0.713540 0.188280
v -0.000000 -0.146085 0.256946
v -0.000000 0.713540 0.376559
v -0.222522 -0.146085 0.128473
v -0.326110 0.713540 0.188279
v -0.222522 -0.146085 -0.128473
v -0.326110 0.713540 -0.188279
v -0.000000 -0.033003 -0.353004
v -0.000000 0.438103 -0.472608
v 0.409291 0.438103 -0.236304
v 0.305710 -0.033003 -0.176502
v 0.409291 0.438103 0.236304
v 0.305710 -0.033003 0.176502
v -0.000000 0.438103 0.472608
v -0.000000 -0.033003 0.353004
v -0.409291 0.438103 0.236304
v -0.305710 -0.033003 0.176502
v -0.409291 0.438103 -0.236304
v -0.305710 -0.033003 -0.176502
v 0.381647 0.636593 -0.220344
v -0.000000 0.636593 -0.440689
v 0.381647 0.636593 0.220344
v -0.000000 0.636593 0.440689
v -0.381647 0.636593 0.220344
v -0.381647 0.636593 -0.220344
vt 0.402878 0.495557
vt 0.313759 0.643665
vt 0.325023 0.490777
vt 0.370578 0.643017
vt 0.347517 0.787465
vt 0.549723 0.912309
vt 0.450816 0.999924
vt 0.554766 0.085335
vt 0.350949 0.207200
vt 0.453122 0.000076
vt 0.415995 0.350875
vt 0.576091 0.143124
vt 0.447732 0.499985
vt 0.405990 0.232971
vt 0.327097 0.345082
vt 0.386090 0.350949
vt 0.096566 0.677575
vt 0.010419 0.904204
vt 0.000076 0.568131
vt 0.180429 0.314899
vt 0.007559 0.383750
vt 0.129807 0.289520
vt 0.062773 0.483246
vt 0.195498 0.185973
vt 0.137413 0.193377
vt 0.071340 0.079306
vt 0.140492 0.016312
vt 0.171503 0.793305
vt 0.112506 0.779215
vt 0.091290 0.990544
vt 0.154339 0.657092
vt 0.400062 0.641535
vt 0.439906 0.742967
vt 0.411643 0.762009
vt 0.432904 0.247614
vt 0.576091 0.860297
vn 0.4952 0.1379 -0.8577
vn 0.9904 0.1379 0.0000
vn 0.4952 0.1379 0.8577
vn -0.4952 0.1379 0.8577
vn 0.0000 1.0000 0.0000
vn -0.9904 0.1379 0.0000
vn -0.4952 0.1379 -0.8577
vn 0.0000 -1.0000 -0.0000
vn -0.4028 -0.5926 -0.6976
vn -0.4883 -0.2147 -0.8458
vn -0.8055 -0.5926 0.0000
vn -0.9767 -0.2147 0.0000
vn -0.4028 -0.5926 0.6976
vn -0.4883 -0.2147 0.8458
vn 0.4028 -0.5926 0.6976
vn 0.4883 -0.2147 0.8458
vn 0.8055 -0.5926 0.0000
vn 0.9767 -0.2147 0.0000
vn 0.4028 -0.5926 -0.6976
vn 0.4883 -0.2147 -0.8458
vn 0.4054 0.5852 -0.7022
vn 0.8109 0.5852 0.0000
vn 0.4054 0.5852 0.7022
vn -0.4054 0.5852 0.7022
vn -0.8109 0.5852 0.0000
vn -0.4054 0.5852 -0.7022
s off
f 26/1/1 15/2/1 14/3/1
f 25/4/2 17/5/2 15/2/2
f 17/5/3 28/6/3 19/7/3
f 28/8/4 21/9/4 19/10/4
f 12/11/5 8/12/5 2/13/5
f 29/14/6 23/15/6 21/9/6
f 30/16/7 14/3/7 23/15/7
f 3/17/8 7/18/8 1/19/8
f 24/20/9 1/21/9 11/22/9
f 24/20/10 14/3/10 13/23/10
f 22/24/11 11/22/11 9/25/11
f 21/9/12 24/20/12 22/24/12
f 7/26/13 22/24/13 9/25/13
f 19/10/14 22/24/14 20/27/14
f 18/28/15 7/18/15 5/29/15
f 17/5/16 20/30/16 18/28/16
f 16/31/17 5/29/17 3/17/17
f 16/31/18 17/5/18 18/28/18
f 13/23/19 3/17/19 1/19/19
f 14/3/20 16/31/20 13/23/20
f 4/32/21 26/1/21 2/13/21
f 6/33/22 25/4/22 4/32/22
f 6/33/23 28/6/23 27/34/23
f 10/35/24 28/8/24 8/12/24
f 12/11/25 29/14/25 10/35/25
f 2/13/26 30/16/26 12/11/26
f 1/21/8 9/25/8 11/22/8
f 2/13/5 6/33/5 4/32/5
f 26/1/1 25/4/1 15/2/1
f 25/4/2 27/34/2 17/5/2
f 17/5/3 27/34/3 28/6/3
f 28/8/4 29/14/4 21/9/4
f 12/11/5 10/35/5 8/12/5
f 29/14/6 30/16/6 23/15/6
f 30/16/7 26/1/7 14/3/7
f 3/17/8 5/29/8 7/18/8
f 24/20/9 13/23/9 1/21/9
f 24/20/10 23/15/10 14/3/10
f 22/24/11 24/20/11 11/22/11
f 21/9/12 23/15/12 24/20/12
f 7/26/13 20/27/13 22/24/13
f 19/10/14 21/9/14 22/24/14
f 18/28/15 20/30/15 7/18/15
f 17/5/16 19/7/16 20/30/16
f 16/31/17 18/28/17 5/29/17
f 16/31/18 15/2/18 17/5/18
f 13/23/19 16/31/19 3/17/19
f 14/3/20 15/2/20 16/31/20
f 4/32/21 25/4/21 26/1/21
f 6/33/22 27/34/22 25/4/22
f 6/33/23 8/36/23 28/6/23
f 10/35/24 29/14/24 28/8/24
f 12/11/25 30/16/25 29/14/25
f 2/13/26 26/1/26 30/16/26
f 1/21/8 7/26/8 9/25/8
f 2/13/5 8/36/5 6/33/5
