# Blender v2.80 (sub 75) OBJ File: ''
# www.blender.org
v -0.500000 -0.500000 0.500000
v -0.500000 0.500000 0.500000
v -0.500000 -0.500000 -0.500000
v -0.500000 0.500000 -0.500000
v 0.500000 -0.500000 0.500000
v 0.500000 0.500000 0.500000
v 0.500000 -0.500000 -0.500000
v 0.500000 0.500000 -0.500000

vt 0.999401 0.999401
vt 0.000599 0.000599
vt 0.999401 0.000599
vt 0.000599 0.000599
vt 0.999401 0.999400
vt 0.000599 0.999400
vt 0.000599 0.999401
vt 0.999401 0.000599
vt 0.000599 0.999400
vt 0.999401 0.999401
vt 0.999401 0.000599
vt 0.000599 0.999401
vt 0.000599 0.999401
vt 0.999401 0.000599
vt 0.999401 0.999401
vt 0.999401 0.000599
vt 0.000599 0.000599
vt 0.000599 0.000599

vn -1.0000 0.0000 0.0000
vn 0.0000 0.0000 -1.0000
vn 1.0000 0.0000 0.0000
vn 0.0000 0.0000 1.0000
vn 0.0000 -1.0000 0.0000
vn 0.0000 1.0000 0.0000

f 2/1/1 3/2/1 1/3/1
f 4/4/2 7/5/2 3/6/2
f 8/7/3 5/8/3 7/5/3
f 6/9/4 1/3/4 5/10/4
f 7/11/5 1/12/5 3/2/5
f 4/13/6 6/14/6 8/15/6
f 2/1/1 4/13/1 3/2/1
f 4/4/2 8/16/2 7/5/2
f 8/7/3 6/17/3 5/8/3
f 6/9/4 2/18/4 1/3/4
f 7/11/5 5/10/5 1/12/5
f 4/13/6 2/18/6 6/14/6
