# Blender v2.81 (sub 16) OBJ File: 'Boat2.0 - Joined.blend'
# www.blender.org
v 14.000000 -1.000000 -9.018162
v 14.000000 -1.000000 -8.718163
v 4.970000 -1.000000 -9.018162
v 4.970000 -1.000000 -8.718163
v 4.970000 -0.260918 -9.018162
v 4.970000 -0.260918 -8.718163
v 0.000000 -1.000000 -9.018162
v 1.000000 -1.000000 -9.018162
v 0.000000 -1.000000 -8.718163
v 1.000000 -0.260918 -9.018162
v 2.000000 -0.260918 -9.018162
v 2.000000 -0.260918 -8.718163
v 1.000000 -0.260918 -8.718163
v 2.000000 -1.000000 -9.018162
v 2.000000 -1.000000 -8.718163
v 1.000000 -1.000000 -8.718163
v 3.000000 -1.000000 -9.018162
v 3.000000 -0.260918 -9.018162
v 4.000000 -0.260918 -8.718163
v 3.000000 -0.260918 -8.718163
v 4.000000 -1.000000 -9.018162
v 4.000000 -1.000000 -8.718163
v 3.000000 -1.000000 -8.718163
v 4.000000 -0.260918 -9.018162
v 15.000000 -0.260918 -8.718163
v 14.000000 -0.260918 -8.718163
v 15.000000 -0.260918 -9.018162
v 15.000000 -1.000000 -9.018162
v 15.000000 -1.000000 -8.718163
v 16.000000 -0.260918 -9.018162
v 17.000000 -0.260918 -9.018162
v 16.000000 -0.260918 -8.718163
v 16.000000 -1.000000 -9.018162
v 17.000000 -1.000000 -9.018162
v 17.000000 -1.000000 -8.718163
v 16.000000 -1.000000 -8.718163
v 18.000000 -0.260918 -9.018162
v 18.000000 -0.260918 -8.718163
v 17.000000 -0.260918 -8.718163
v 18.000000 -1.000000 -9.018162
v 18.000000 -1.000000 -8.718163
v -1.000000 -1.000000 -8.518163
v -1.000000 -1.000000 -8.718162
v -1.000000 -0.210918 -8.718162
v -7.000000 0.083393 -5.118162
v 0.000000 -0.260918 -9.018162
v 0.000000 -0.260918 -8.718163
v -2.000000 -1.000000 -8.418161
v -2.000000 -1.000000 -8.218162
v -7.000000 -1.000000 -5.118162
v -6.700000 -1.000000 -5.118162
v -3.000000 -1.000000 -8.018162
v -3.000000 -1.000000 -7.918162
v -4.000000 -1.000000 -7.618161
v -4.000000 -1.000000 -7.518162
v -5.000000 -1.000000 -7.018161
v -5.000000 0.135843 -7.018161
v -5.000000 -1.000000 -6.918162
v -6.000000 -1.000000 -6.018161
v -3.000000 0.059565 -8.018162
v -2.000000 -0.014674 -8.418161
v -6.000000 0.135843 -6.018161
v -6.000000 -1.000000 -5.918162
v 22.608234 2.727586 -9.018162
v 22.608234 2.727586 -8.718163
v 22.608234 -1.000000 -9.018162
v 22.608234 -1.000000 -8.718163
v 21.548132 2.727586 -9.018162
v 21.548132 -1.000000 -8.718163
v 21.548132 2.727586 -8.718163
v 21.548132 -1.000000 -9.018162
v -4.000000 0.135843 -7.618162
v -1.000000 -0.169269 -8.518163
v -6.700000 0.083393 -5.118162
v -3.000000 0.059565 -7.918162
v -5.000000 0.135843 -6.918162
v -6.000000 0.135843 -5.918162
v -2.000000 -0.016713 -8.218162
v -4.000000 0.135843 -7.518162
v 10.000000 -1.000000 -9.018162
v 10.000000 -1.000000 -8.718163
v 9.100000 -1.000000 -9.018162
v 9.100000 -1.000000 -8.718163
v 9.100000 -0.260918 -9.018162
v 9.100000 -0.260918 -8.718163
v 10.000000 -0.260918 -9.018162
v 13.000000 -1.000000 -9.018162
v 13.000000 -0.260918 -9.018162
v 14.000000 -0.260918 -9.018162
v 12.000000 -1.000000 -9.018162
v 12.000000 -1.000000 -8.718163
v 13.000000 -0.260918 -8.718163
v 13.000000 -1.000000 -8.718163
v 11.000000 -1.000000 -9.018162
v 11.000000 -1.000000 -8.718163
v 11.000000 -0.260918 -9.018162
v 12.000000 -0.260918 -8.718163
v 12.000000 -0.260918 -9.018162
v 11.000000 -0.260918 -8.718163
v 10.000000 -0.260918 -8.718163
v 14.000000 -1.000000 1.018162
v 14.000000 -1.000000 0.718163
v 4.970000 -1.000000 1.018162
v 4.970000 -1.000000 0.718163
v 4.970000 -0.260918 1.018162
v 4.970000 -0.260918 0.718163
v 0.000000 -1.000000 1.018162
v 1.000000 -1.000000 1.018162
v 0.000000 -1.000000 0.718163
v 1.000000 -0.260918 1.018162
v 2.000000 -0.260918 1.018162
v 2.000000 -0.260918 0.718163
v 1.000000 -0.260918 0.718163
v 2.000000 -1.000000 1.018162
v 2.000000 -1.000000 0.718163
v 1.000000 -1.000000 0.718163
v 3.000000 -1.000000 1.018162
v 3.000000 -0.260918 1.018162
v 4.000000 -0.260918 0.718163
v 3.000000 -0.260918 0.718163
v 4.000000 -1.000000 1.018162
v 4.000000 -1.000000 0.718163
v 3.000000 -1.000000 0.718163
v 4.000000 -0.260918 1.018162
v 15.000000 -0.260918 0.718163
v 14.000000 -0.260918 0.718163
v 15.000000 -0.260918 1.018162
v 15.000000 -1.000000 1.018162
v 15.000000 -1.000000 0.718163
v 16.000000 -0.260918 1.018162
v 17.000000 -0.260918 1.018162
v 16.000000 -0.260918 0.718163
v 16.000000 -1.000000 1.018162
v 17.000000 -1.000000 1.018162
v 17.000000 -1.000000 0.718163
v 16.000000 -1.000000 0.718163
v 18.000000 -0.260918 1.018162
v 18.000000 -0.260918 0.718163
v 17.000000 -0.260918 0.718163
v 18.000000 -1.000000 1.018162
v 18.000000 -1.000000 0.718163
v -1.000000 -1.000000 0.518163
v -1.000000 -1.000000 0.718162
v -1.000000 -0.210918 0.718162
v -7.000000 0.083393 -2.881838
v 0.000000 -0.260918 1.018162
v 0.000000 -0.260918 0.718163
v -2.000000 -1.000000 0.418161
v -2.000000 -1.000000 0.218162
v -7.000000 -1.000000 -4.000000
v -6.700000 -1.000000 -4.000000
v -7.000000 -1.000000 -2.881838
v -6.700000 -1.000000 -2.881838
v -7.000000 0.083393 -4.000000
v -3.000000 -1.000000 0.018162
v -3.000000 -1.000000 -0.081838
v -4.000000 -1.000000 -0.381839
v -4.000000 -1.000000 -0.481838
v -5.000000 -1.000000 -0.981839
v -5.000000 0.135843 -0.981839
v -5.000000 -1.000000 -1.081838
v -6.000000 -1.000000 -1.981839
v -3.000000 0.059565 0.018162
v -2.000000 -0.014674 0.418161
v -6.000000 0.135843 -1.981839
v -6.000000 -1.000000 -2.081838
v 22.608234 2.727586 1.018162
v 22.608234 2.727586 0.718163
v 22.608234 -1.000000 1.018162
v 22.608234 -1.000000 0.718163
v 21.548132 2.727586 1.018162
v 21.548132 -1.000000 0.718163
v 21.548132 2.727586 0.718163
v 21.548132 -1.000000 1.018162
v -4.000000 0.135843 -0.381838
v -1.000000 -0.169269 0.518163
v -6.700000 0.083393 -2.881838
v -6.700000 0.083393 -4.000000
v -3.000000 0.059565 -0.081838
v -5.000000 0.135843 -1.081838
v -6.000000 0.135843 -2.081838
v -2.000000 -0.016713 0.218162
v -4.000000 0.135843 -0.481838
v 10.000000 -1.000000 1.018162
v 10.000000 -1.000000 0.718163
v 9.100000 -1.000000 1.018162
v 9.100000 -1.000000 0.718163
v 9.100000 -0.260918 1.018162
v 9.100000 -0.260918 0.718163
v 10.000000 -0.260918 1.018162
v 13.000000 -1.000000 1.018162
v 13.000000 -0.260918 1.018162
v 14.000000 -0.260918 1.018162
v 12.000000 -1.000000 1.018162
v 12.000000 -1.000000 0.718163
v 13.000000 -0.260918 0.718163
v 13.000000 -1.000000 0.718163
v 11.000000 -1.000000 1.018162
v 11.000000 -1.000000 0.718163
v 11.000000 -0.260918 1.018162
v 12.000000 -0.260918 0.718163
v 12.000000 -0.260918 1.018162
v 11.000000 -0.260918 0.718163
v 10.000000 -0.260918 0.718163
vt 3.660952 -1.194729
vt 3.284935 -1.194728
vt 3.284935 -0.908225
vt -2.950523 -1.466519
vt -2.950523 -1.350225
vt -2.664019 -1.350225
vt 3.416572 -0.620025
vt 3.792589 -0.620025
vt 3.792589 -0.906528
vt 0.571401 -1.194727
vt 0.183754 -1.194727
vt 0.183754 -0.908224
vt 0.315392 -0.620025
vt 0.703040 -0.620025
vt 0.703040 -0.906528
vt 0.959049 -1.194727
vt 0.571401 -0.908224
vt 1.090687 -0.620025
vt 1.090687 -0.906528
vt 1.346696 -1.194727
vt 0.959049 -0.908224
vt 1.478335 -0.620025
vt 1.478334 -0.906528
vt 1.734343 -1.194728
vt 1.346696 -0.908224
vt 1.865981 -0.620025
vt 1.865981 -0.906528
vt -0.307393 1.268660
vt 0.080255 1.268661
vt 0.080255 0.982157
vt -2.889838 -0.178023
vt -2.502190 -0.178023
vt -2.502190 -0.464526
vt -0.695040 1.268660
vt -0.307393 0.982157
vt -2.114542 -0.178023
vt -2.114542 -0.464526
vt -1.082688 1.268660
vt -0.695041 0.982157
vt -1.726895 -0.178023
vt -1.726895 -0.464526
vt -1.470336 1.268660
vt -1.082689 0.982157
vt -1.339248 -0.178023
vt -1.339248 -0.464526
vt -0.089324 -0.906528
vt -0.089323 -0.600642
vt -0.211570 -1.230254
vt -0.616286 -1.289392
vt -0.616286 -0.908224
vt -2.850873 -0.908223
vt -2.850873 -1.328198
vt -3.238721 -1.328198
vt -3.238720 -0.906528
vt -3.238721 -0.486554
vt -2.850873 -0.486553
vt -1.021002 -1.318961
vt -1.021002 -0.908223
vt -1.329058 -0.906528
vt -1.781129 -0.906528
vt -1.781129 -0.466221
vt -1.438511 -1.348530
vt -1.438511 -0.908223
vt -2.329346 -0.466221
vt -1.890581 -1.348530
vt -2.438798 -1.348530
vt -2.438798 -0.908223
vt -0.911549 -0.906528
vt -0.911549 -0.495790
vt -0.494040 -0.524569
vt -2.329345 -0.906528
vt -2.845760 2.427146
vt -2.845760 0.982157
vt -3.238721 0.982157
vt 0.036177 -0.464526
vt 0.036177 0.980463
vt 0.429137 0.980463
vt -1.470336 0.982157
vt -1.329058 -0.466221
vt -0.494040 -0.906528
vt -0.211570 -0.908224
vt 0.429138 1.268661
vt 0.429138 0.982157
vt 0.080255 0.982157
vt -2.952218 -1.466519
vt -3.238721 -1.466519
vt -3.238720 -1.350225
vt -2.889838 -0.464526
vt -3.238721 -0.464526
vt -3.238721 -0.178023
vt -0.307393 1.268660
vt 0.080255 1.268661
vt 0.080255 0.982157
vt -2.889838 -0.178023
vt -2.502190 -0.178023
vt -2.502190 -0.464526
vt -0.307393 1.268660
vt 0.080255 1.268661
vt 0.080255 0.982157
vt -2.889838 -0.178023
vt -2.502190 -0.178023
vt -2.502190 -0.464526
vt -0.307393 1.268660
vt 0.080255 1.268661
vt 0.080255 0.982157
vt -2.889838 -0.178023
vt -2.502190 -0.178023
vt -2.502190 -0.464526
vt -0.307393 1.268660
vt 0.080255 1.268661
vt -2.889838 -0.178023
vt -2.502190 -0.178023
vt -2.502190 -0.464526
vt 3.284935 -0.908225
vt 3.284935 -1.194728
vt 3.660952 -1.194729
vt -2.664019 -1.350225
vt -2.950523 -1.350225
vt -2.950523 -1.466519
vt 3.792589 -0.906528
vt 3.792589 -0.620025
vt 3.416572 -0.620025
vt 0.183754 -0.908224
vt 0.183754 -1.194727
vt 0.571401 -1.194727
vt 0.703040 -0.906528
vt 0.703040 -0.620025
vt 0.315392 -0.620025
vt 0.571401 -0.908224
vt 0.959049 -1.194727
vt 1.090687 -0.906528
vt 1.090687 -0.620025
vt 0.959049 -0.908224
vt 1.346696 -1.194727
vt 1.478334 -0.906528
vt 1.478335 -0.620025
vt 1.346696 -0.908224
vt 1.734343 -1.194728
vt 1.865981 -0.906528
vt 1.865981 -0.620025
vt 0.080255 0.982157
vt 0.080255 1.268661
vt -0.307393 1.268660
vt -2.502190 -0.464526
vt -2.502190 -0.178023
vt -2.889838 -0.178023
vt -0.307393 0.982157
vt -0.695040 1.268660
vt -2.114542 -0.464526
vt -2.114542 -0.178023
vt -0.695041 0.982157
vt -1.082688 1.268660
vt -1.726895 -0.464526
vt -1.726895 -0.178023
vt -1.082689 0.982157
vt -1.470336 1.268660
vt -1.339248 -0.464526
vt -1.339248 -0.178023
vt -0.089323 -0.600642
vt -0.089324 -0.906528
vt -0.616286 -0.908224
vt -0.616286 -1.289392
vt -0.211570 -1.230254
vt -2.850873 -1.328198
vt -2.850873 -0.908223
vt -2.850873 -0.486553
vt -1.021002 -0.908223
vt -1.021002 -1.318961
vt -1.781129 -0.466221
vt -1.781129 -0.906528
vt -1.329058 -0.906528
vt -1.438511 -0.908223
vt -1.438511 -1.348530
vt -2.329346 -0.466221
vt -2.438798 -0.908223
vt -2.438798 -1.348530
vt -1.890581 -1.348530
vt -0.911549 -0.906528
vt -0.494040 -0.906528
vt -0.494040 -0.524569
vt -2.329345 -0.906528
vt -3.238721 0.982157
vt -2.845760 0.982157
vt -2.845760 2.427146
vt 0.429137 0.980463
vt 0.036177 0.980463
vt 0.036177 -0.464526
vt -1.470336 0.982157
vt -0.911549 -0.495790
vt -1.890582 -0.908223
vt -0.211570 -0.908224
vt 0.080255 0.982157
vt 0.429138 0.982157
vt 0.429138 1.268661
vt -3.238720 -1.350225
vt -3.238721 -1.466519
vt -2.952218 -1.466519
vt -3.238721 -0.178023
vt -3.238721 -0.464526
vt -2.889838 -0.464526
vt 0.080255 0.982157
vt 0.080255 1.268661
vt -0.307393 1.268660
vt -2.502190 -0.464526
vt -2.502190 -0.178023
vt -2.889838 -0.178023
vt 0.080255 0.982157
vt 0.080255 1.268661
vt -0.307393 1.268660
vt -2.502190 -0.464526
vt -2.502190 -0.178023
vt -2.889838 -0.178023
vt 0.080255 0.982157
vt 0.080255 1.268661
vt -0.307393 1.268660
vt -2.502190 -0.464526
vt -2.502190 -0.178023
vt -2.889838 -0.178023
vt 0.080255 1.268661
vt -0.307393 1.268660
vt -2.502190 -0.464526
vt -2.502190 -0.178023
vt -2.889838 -0.178023
vt 3.660953 -0.908225
vt -2.664019 -1.466519
vt 3.416570 -0.906528
vt 0.315392 -0.906528
vt 1.734344 -0.908224
vt -2.889838 -0.464526
vt -3.238721 -0.908223
vt -2.850872 -0.906528
vt -1.890582 -0.908223
vt -3.238720 2.427146
vt 0.429137 -0.464527
vt -2.952217 -1.350225
vt -0.307393 0.982157
vt -2.889838 -0.464526
vt -0.307393 0.982157
vt -2.889838 -0.464526
vt -0.307393 0.982157
vt -2.889838 -0.464526
vt -0.307393 0.982157
vt 3.660953 -0.908225
vt -2.664019 -1.466519
vt 3.416570 -0.906528
vt 0.315392 -0.906528
vt 1.734344 -0.908224
vt -2.889838 -0.464526
vt -2.850872 -0.906528
vt -1.329058 -0.466221
vt -3.238720 2.427146
vt 0.429137 -0.464527
vt -2.952217 -1.350225
vt -0.307393 0.982157
vt -2.889838 -0.464526
vt -0.307393 0.982157
vt -2.889838 -0.464526
vt -0.307393 0.982157
vt -2.889838 -0.464526
vt -0.307393 0.982157
vn 0.0000 0.0000 1.0000
vn 1.0000 0.0000 0.0000
vn 0.0000 0.0000 -1.0000
vn -0.2873 0.0000 -0.9578
vn 0.2873 0.0000 0.9578
vn -1.0000 0.0000 0.0000
vn -0.5145 0.0000 -0.8575
vn 0.3714 0.0000 0.9285
vn -0.7071 0.0000 -0.7071
vn 0.7071 0.0000 0.7071
vn -0.3714 0.0000 -0.9285
vn 0.7526 0.0000 0.6585
vn -0.6690 0.0000 -0.7433
vn 0.5145 0.0000 0.8575
vn 0.1961 0.0000 0.9806
vn -0.2873 0.0000 0.9578
vn 0.2873 0.0000 -0.9578
vn -0.5145 0.0000 0.8575
vn 0.3714 0.0000 -0.9285
vn -0.7071 0.0000 0.7071
vn 0.7071 0.0000 -0.7071
vn -0.3714 0.0000 0.9285
vn 0.7526 0.0000 -0.6585
vn -0.6690 0.0000 0.7433
vn 0.5145 0.0000 -0.8575
vn 0.1961 0.0000 -0.9806
s off
f 6/1/1 19/2/1 22/3/1
f 5/4/2 6/5/2 4/6/2
f 24/7/3 5/8/3 3/9/3
f 13/10/1 47/11/1 9/12/1
f 46/13/3 10/14/3 8/15/3
f 12/16/1 13/10/1 16/17/1
f 10/14/3 11/18/3 14/19/3
f 20/20/1 12/16/1 15/21/1
f 11/18/3 18/22/3 17/23/3
f 19/24/1 20/20/1 23/25/1
f 18/22/3 24/26/3 21/27/3
f 25/28/1 26/29/1 2/30/1
f 89/31/3 27/32/3 28/33/3
f 32/34/1 25/28/1 29/35/1
f 27/32/3 30/36/3 33/37/3
f 39/38/1 32/34/1 36/39/1
f 30/36/3 31/40/3 34/41/3
f 38/42/1 39/38/1 35/43/1
f 31/40/3 37/44/3 40/45/3
f 43/46/4 44/47/4 46/13/4
f 73/48/5 78/49/5 49/50/5
f 51/51/2 74/52/2 178/53/2
f 150/54/6 154/55/6 45/56/6
f 78/49/5 75/57/5 53/58/5
f 54/59/7 56/60/7 57/61/7
f 75/57/8 79/62/8 55/63/8
f 62/64/9 57/61/9 56/60/9
f 76/65/10 77/66/10 63/67/10
f 52/68/11 60/69/11 61/70/11
f 74/52/12 51/51/12 63/67/12
f 45/56/13 62/64/13 59/71/13
f 70/72/1 69/73/1 67/74/1
f 71/75/3 68/76/3 64/77/3
f 37/44/3 68/76/3 71/75/3
f 38/42/1 41/78/1 69/73/1
f 54/59/11 72/79/11 60/69/11
f 48/80/4 61/70/4 44/47/4
f 55/63/14 79/62/14 76/65/14
f 42/81/15 9/12/15 47/11/15
f 85/82/1 83/83/1 81/84/1
f 83/85/6 85/86/6 84/87/6
f 80/88/3 82/89/3 84/90/3
f 26/91/1 92/92/1 93/93/1
f 88/94/3 89/95/3 1/96/3
f 92/97/1 97/98/1 91/99/1
f 98/100/3 88/101/3 87/102/3
f 97/103/1 99/104/1 95/105/1
f 96/106/3 98/107/3 90/108/3
f 99/109/1 100/110/1 81/84/1
f 86/111/3 96/112/3 94/113/3
f 122/114/3 119/115/3 106/116/3
f 104/117/2 106/118/2 105/119/2
f 103/120/1 105/121/1 124/122/1
f 109/123/3 147/124/3 113/125/3
f 108/126/1 110/127/1 146/128/1
f 116/129/3 113/125/3 112/130/3
f 114/131/1 111/132/1 110/127/1
f 115/133/3 112/130/3 120/134/3
f 117/135/1 118/136/1 111/132/1
f 123/137/3 120/134/3 119/138/3
f 121/139/1 124/140/1 118/136/1
f 102/141/3 126/142/3 125/143/3
f 128/144/1 127/145/1 193/146/1
f 129/147/3 125/143/3 132/148/3
f 133/149/1 130/150/1 127/145/1
f 136/151/3 132/148/3 139/152/3
f 134/153/1 131/154/1 130/150/1
f 135/155/3 139/152/3 138/156/3
f 140/157/1 137/158/1 131/154/1
f 146/128/16 144/159/16 143/160/16
f 149/161/17 182/162/17 176/163/17
f 178/53/2 177/164/2 153/165/2
f 145/166/6 154/55/6 150/54/6
f 156/167/17 179/168/17 182/162/17
f 160/169/18 159/170/18 157/171/18
f 158/172/19 183/173/19 179/168/19
f 159/170/20 160/169/20 165/174/20
f 166/175/21 181/176/21 180/177/21
f 155/178/22 148/179/22 164/180/22
f 177/164/23 181/176/23 166/175/23
f 162/181/24 165/174/24 145/166/24
f 170/182/3 172/183/3 173/184/3
f 167/185/1 171/186/1 174/187/1
f 137/158/1 140/157/1 174/187/1
f 172/183/3 141/188/3 138/156/3
f 157/171/22 155/178/22 163/189/22
f 148/179/16 143/160/16 144/159/16
f 183/173/25 158/172/25 161/190/25
f 147/124/26 109/123/26 142/191/26
f 185/192/3 187/193/3 189/194/3
f 188/195/6 189/196/6 187/197/6
f 188/198/1 186/199/1 184/200/1
f 197/201/3 196/202/3 126/203/3
f 101/204/1 193/205/1 192/206/1
f 195/207/3 201/208/3 196/209/3
f 191/210/1 192/211/1 202/212/1
f 199/213/3 203/214/3 201/215/3
f 194/216/1 202/217/1 200/218/1
f 185/192/3 204/219/3 203/220/3
f 198/221/1 200/222/1 190/223/1
f 6/1/1 22/3/1 4/224/1
f 5/4/2 4/6/2 3/225/2
f 24/7/3 3/9/3 21/226/3
f 13/10/1 9/12/1 16/17/1
f 46/13/3 8/15/3 7/227/3
f 12/16/1 16/17/1 15/21/1
f 10/14/3 14/19/3 8/15/3
f 20/20/1 15/21/1 23/25/1
f 11/18/3 17/23/3 14/19/3
f 19/24/1 23/25/1 22/228/1
f 18/22/3 21/27/3 17/23/3
f 25/28/1 2/30/1 29/35/1
f 89/31/3 28/33/3 1/229/3
f 32/34/1 29/35/1 36/39/1
f 27/32/3 33/37/3 28/33/3
f 39/38/1 36/39/1 35/43/1
f 30/36/3 34/41/3 33/37/3
f 38/42/1 35/43/1 41/78/1
f 31/40/3 40/45/3 34/41/3
f 43/46/4 46/13/4 7/227/4
f 73/48/5 49/50/5 42/81/5
f 51/51/2 178/53/2 151/230/2
f 150/54/6 45/56/6 50/231/6
f 78/49/5 53/58/5 49/50/5
f 54/59/7 57/61/7 72/79/7
f 75/57/8 55/63/8 53/58/8
f 62/64/9 56/60/9 59/71/9
f 76/65/10 63/67/10 58/232/10
f 52/68/11 61/70/11 48/80/11
f 74/52/12 63/67/12 77/66/12
f 45/56/13 59/71/13 50/231/13
f 70/72/1 67/74/1 65/233/1
f 71/75/3 64/77/3 66/234/3
f 37/44/3 71/75/3 40/45/3
f 38/42/1 69/73/1 70/72/1
f 54/59/11 60/69/11 52/68/11
f 48/80/4 44/47/4 43/46/4
f 55/63/14 76/65/14 58/232/14
f 42/81/15 47/11/15 73/48/15
f 85/82/1 81/84/1 100/110/1
f 83/85/6 84/87/6 82/235/6
f 80/88/3 84/90/3 86/111/3
f 26/91/1 93/93/1 2/236/1
f 88/94/3 1/96/3 87/237/3
f 92/97/1 91/99/1 93/238/1
f 98/100/3 87/102/3 90/239/3
f 97/103/1 95/105/1 91/240/1
f 96/106/3 90/108/3 94/241/3
f 99/109/1 81/84/1 95/242/1
f 86/111/3 94/113/3 80/88/3
f 122/114/3 106/116/3 104/243/3
f 104/117/2 105/119/2 103/244/2
f 103/120/1 124/122/1 121/245/1
f 109/123/3 113/125/3 116/129/3
f 108/126/1 146/128/1 107/246/1
f 116/129/3 112/130/3 115/133/3
f 114/131/1 110/127/1 108/126/1
f 115/133/3 120/134/3 123/137/3
f 117/135/1 111/132/1 114/131/1
f 123/137/3 119/138/3 122/247/3
f 121/139/1 118/136/1 117/135/1
f 102/141/3 125/143/3 129/147/3
f 128/144/1 193/146/1 101/248/1
f 129/147/3 132/148/3 136/151/3
f 133/149/1 127/145/1 128/144/1
f 136/151/3 139/152/3 135/155/3
f 134/153/1 130/150/1 133/149/1
f 135/155/3 138/156/3 141/188/3
f 140/157/1 131/154/1 134/153/1
f 146/128/16 143/160/16 107/246/16
f 149/161/17 176/163/17 142/191/17
f 178/53/2 153/165/2 151/230/2
f 145/166/6 150/54/6 152/249/6
f 156/167/17 182/162/17 149/161/17
f 160/169/18 157/171/18 175/250/18
f 158/172/19 179/168/19 156/167/19
f 159/170/20 165/174/20 162/181/20
f 166/175/21 180/177/21 161/190/21
f 155/178/22 164/180/22 163/189/22
f 177/164/23 166/175/23 153/165/23
f 162/181/24 145/166/24 152/249/24
f 170/182/3 173/184/3 168/251/3
f 167/185/1 174/187/1 169/252/1
f 137/158/1 174/187/1 171/186/1
f 172/183/3 138/156/3 173/184/3
f 157/171/22 163/189/22 175/250/22
f 148/179/16 144/159/16 164/180/16
f 183/173/25 161/190/25 180/177/25
f 147/124/26 142/191/26 176/163/26
f 185/192/3 189/194/3 204/219/3
f 188/195/6 187/197/6 186/253/6
f 188/198/1 184/200/1 190/223/1
f 197/201/3 126/203/3 102/254/3
f 101/204/1 192/206/1 191/255/1
f 195/207/3 196/209/3 197/256/3
f 191/210/1 202/212/1 194/257/1
f 199/213/3 201/215/3 195/258/3
f 194/216/1 200/218/1 198/259/1
f 185/192/3 203/220/3 199/260/3
f 198/221/1 190/223/1 184/200/1
