# Blender v2.81 (sub 16) OBJ File: 'Boat2.0 - Joined.blend'
# www.blender.org
v 14.000000 -1.000000 -8.900517
v 14.000000 -1.000000 -8.600517
v 13.100000 -1.000000 -8.900517
v 13.100000 -1.000000 -8.600517
v 13.100000 -0.260918 -8.900517
v 13.100000 -0.260918 -8.600517
v 8.970000 -1.000000 -8.900517
v 8.970000 -1.000000 -8.600517
v 8.970000 -0.260918 -8.900517
v 8.970000 -0.260918 -8.600517
v 0.000000 -1.000000 -8.900517
v 1.000000 -1.000000 -8.900517
v 0.000000 -1.000000 -8.600517
v 1.000000 -0.260918 -8.900517
v 2.000000 -0.260918 -8.900517
v 2.000000 -0.260918 -8.600517
v 1.000000 -0.260918 -8.600517
v 2.000000 -1.000000 -8.900517
v 2.000000 -1.000000 -8.600517
v 1.000000 -1.000000 -8.600517
v 3.000000 -1.000000 -8.900517
v 3.000000 -0.260918 -8.900517
v 4.000000 -0.260918 -8.900517
v 4.000000 -0.260918 -8.600517
v 3.000000 -0.260918 -8.600517
v 4.000000 -1.000000 -8.900517
v 4.000000 -1.000000 -8.600517
v 3.000000 -1.000000 -8.600517
v 5.000000 -0.260918 -8.900517
v 5.000000 -1.000000 -8.900517
v 5.000000 -0.260918 -8.600517
v 6.000000 -1.000000 -8.600517
v 5.000000 -1.000000 -8.600517
v 6.000000 -0.260918 -8.900517
v 7.000000 -0.260918 -8.900517
v 7.000000 -0.260918 -8.600517
v 6.000000 -0.260918 -8.600517
v 6.000000 -1.000000 -8.900517
v 7.000000 -1.000000 -8.900517
v 8.000000 -1.000000 -8.900517
v 7.000000 -1.000000 -8.600517
v 8.000000 -0.260918 -8.900517
v 8.000000 -0.260918 -8.600517
v 14.000000 -0.260918 -8.900517
v 15.000000 -0.260918 -8.600517
v 14.000000 -0.260918 -8.600517
v 15.000000 -0.260918 -8.900517
v 15.000000 -1.000000 -8.900517
v 15.000000 -1.000000 -8.600517
v 16.000000 -0.260918 -8.900517
v 17.000000 -0.260918 -8.900517
v 16.000000 -0.260918 -8.600517
v 16.000000 -1.000000 -8.900517
v 17.000000 -1.000000 -8.900517
v 17.000000 -1.000000 -8.600517
v 16.000000 -1.000000 -8.600517
v 18.000000 -0.260918 -8.900517
v 18.000000 -0.260918 -8.600517
v 17.000000 -0.260918 -8.600517
v 18.000000 -1.000000 -8.900517
v 18.000000 -1.000000 -8.600517
v -1.000000 -1.000000 -8.400517
v -1.000000 -1.000000 -8.600516
v -1.000000 -0.210918 -8.600516
v -7.000000 0.083393 -5.000517
v 0.000000 -0.260918 -8.900517
v 0.000000 -0.260918 -8.600517
v -2.000000 -1.000000 -8.300516
v -2.000000 -1.000000 -8.100516
v -7.000000 -1.000000 -5.000517
v -6.700000 -1.000000 -5.000517
v -3.000000 -1.000000 -7.900517
v -3.000000 -1.000000 -7.800517
v -4.000000 -1.000000 -7.500516
v -4.000000 -1.000000 -7.400517
v -5.000000 -1.000000 -6.900517
v -5.000000 0.135843 -6.900517
v -5.000000 -1.000000 -6.800517
v -6.000000 -1.000000 -5.900517
v -3.000000 0.059565 -7.900517
v -2.000000 -0.014674 -8.300516
v -6.000000 0.135843 -5.900517
v -6.000000 -1.000000 -5.800517
v 22.561836 2.727586 -8.900517
v 22.561836 2.727586 -8.600517
v 22.561836 -1.000000 -8.900517
v 22.561836 -1.000000 -8.600517
v 21.548132 2.727586 -8.900517
v 21.548132 -1.000000 -8.600517
v 21.548132 2.727586 -8.600517
v 21.548132 -1.000000 -8.900517
v -4.000000 0.135843 -7.500517
v -1.000000 -0.169269 -8.400517
v -6.700000 0.083393 -5.000517
v -3.000000 0.059565 -7.800517
v -5.000000 0.135843 -6.800517
v -6.000000 0.135843 -5.800517
v -2.000000 -0.016713 -8.100516
v -4.000000 0.135843 -7.400517
v 8.000001 -1.000000 -8.600517
v 14.000000 -1.000000 0.900517
v 14.000000 -1.000000 0.600517
v 13.100000 -1.000000 0.900517
v 13.100000 -1.000000 0.600517
v 13.100000 -0.260918 0.900517
v 13.100000 -0.260918 0.600517
v 8.970000 -1.000000 0.900517
v 8.970000 -1.000000 0.600517
v 8.970000 -0.260918 0.900517
v 8.970000 -0.260918 0.600517
v 0.000000 -1.000000 0.900517
v 1.000000 -1.000000 0.900517
v 0.000000 -1.000000 0.600517
v 1.000000 -0.260918 0.900517
v 2.000000 -0.260918 0.900517
v 2.000000 -0.260918 0.600517
v 1.000000 -0.260918 0.600517
v 2.000000 -1.000000 0.900517
v 2.000000 -1.000000 0.600517
v 1.000000 -1.000000 0.600517
v 3.000000 -1.000000 0.900517
v 3.000000 -0.260918 0.900517
v 4.000000 -0.260918 0.900517
v 4.000000 -0.260918 0.600517
v 3.000000 -0.260918 0.600517
v 4.000000 -1.000000 0.900517
v 4.000000 -1.000000 0.600517
v 3.000000 -1.000000 0.600517
v 5.000000 -0.260918 0.900517
v 5.000000 -1.000000 0.900517
v 5.000000 -0.260918 0.600517
v 6.000000 -1.000000 0.600517
v 5.000000 -1.000000 0.600517
v 6.000000 -0.260918 0.900517
v 7.000000 -0.260918 0.900517
v 7.000000 -0.260918 0.600517
v 6.000000 -0.260918 0.600517
v 6.000000 -1.000000 0.900517
v 7.000000 -1.000000 0.900517
v 8.000000 -1.000000 0.900517
v 7.000000 -1.000000 0.600517
v 8.000000 -0.260918 0.900517
v 8.000000 -0.260918 0.600517
v 14.000000 -0.260918 0.900517
v 15.000000 -0.260918 0.600517
v 14.000000 -0.260918 0.600517
v 15.000000 -0.260918 0.900517
v 15.000000 -1.000000 0.900517
v 15.000000 -1.000000 0.600517
v 16.000000 -0.260918 0.900517
v 17.000000 -0.260918 0.900517
v 16.000000 -0.260918 0.600517
v 16.000000 -1.000000 0.900517
v 17.000000 -1.000000 0.900517
v 17.000000 -1.000000 0.600517
v 16.000000 -1.000000 0.600517
v 18.000000 -0.260918 0.900517
v 18.000000 -0.260918 0.600517
v 17.000000 -0.260918 0.600517
v 18.000000 -1.000000 0.900517
v 18.000000 -1.000000 0.600517
v -1.000000 -1.000000 0.400517
v -1.000000 -1.000000 0.600516
v -1.000000 -0.210918 0.600516
v -7.000000 0.083393 -2.999483
v 0.000000 -0.260918 0.900517
v 0.000000 -0.260918 0.600517
v -2.000000 -1.000000 0.300516
v -2.000000 -1.000000 0.100516
v -7.000000 -1.000000 -4.000000
v -6.700000 -1.000000 -4.000000
v -7.000000 -1.000000 -2.999483
v -6.700000 -1.000000 -2.999483
v -7.000000 0.083393 -4.000000
v -3.000000 -1.000000 -0.099483
v -3.000000 -1.000000 -0.199483
v -4.000000 -1.000000 -0.499484
v -4.000000 -1.000000 -0.599483
v -5.000000 -1.000000 -1.099483
v -5.000000 0.135843 -1.099483
v -5.000000 -1.000000 -1.199483
v -6.000000 -1.000000 -2.099483
v -3.000000 0.059565 -0.099483
v -2.000000 -0.014674 0.300516
v -6.000000 0.135843 -2.099483
v -6.000000 -1.000000 -2.199483
v 22.561836 2.727586 0.900517
v 22.561836 2.727586 0.600517
v 22.561836 -1.000000 0.900517
v 22.561836 -1.000000 0.600517
v 21.548132 2.727586 0.900517
v 21.548132 -1.000000 0.600517
v 21.548132 2.727586 0.600517
v 21.548132 -1.000000 0.900517
v -4.000000 0.135843 -0.499483
v -1.000000 -0.169269 0.400517
v -6.700000 0.083393 -2.999483
v -6.700000 0.083393 -4.000000
v -3.000000 0.059565 -0.199483
v -5.000000 0.135843 -1.199483
v -6.000000 0.135843 -2.199483
v -2.000000 -0.016713 0.100516
v -4.000000 0.135843 -0.599483
v 8.000001 -1.000000 0.600517
vt 0.429138 1.268661
vt 0.429138 0.982157
vt 0.080255 0.982157
vt -2.952218 -1.466519
vt -3.238721 -1.466519
vt -3.238720 -1.350225
vt -2.889838 -0.464526
vt -3.238721 -0.464526
vt -3.238721 -0.178023
vt 3.660952 -1.194729
vt 3.284935 -1.194728
vt 3.284935 -0.908225
vt -2.950523 -1.466519
vt -2.950523 -1.350225
vt -2.664019 -1.350225
vt 3.416572 -0.620025
vt 3.792589 -0.620025
vt 3.792589 -0.906528
vt 0.571401 -1.194727
vt 0.183754 -1.194727
vt 0.183754 -0.908224
vt 0.315392 -0.620025
vt 0.703040 -0.620025
vt 0.703040 -0.906528
vt 0.959049 -1.194727
vt 0.571401 -0.908224
vt 1.090687 -0.620025
vt 1.090687 -0.906528
vt 1.346696 -1.194727
vt 0.959049 -0.908224
vt 1.478335 -0.620025
vt 1.478334 -0.906528
vt 1.734343 -1.194728
vt 1.346696 -0.908224
vt 1.865981 -0.620025
vt 1.865981 -0.906528
vt 2.121991 -1.194728
vt 1.734344 -0.908224
vt 2.253629 -0.620025
vt 2.253629 -0.906528
vt 2.509639 -1.194728
vt 2.121992 -0.908225
vt 2.641277 -0.620025
vt 2.641276 -0.906528
vt 2.897286 -1.194728
vt 2.509639 -0.908225
vt 3.028924 -0.620025
vt 3.028923 -0.906528
vt 2.897286 -0.908225
vt 3.416570 -0.906528
vt -0.307393 1.268660
vt 0.080255 1.268661
vt -2.889838 -0.178023
vt -2.502190 -0.178023
vt -2.502190 -0.464526
vt -0.695040 1.268660
vt -0.307393 0.982157
vt -2.114542 -0.178023
vt -2.114542 -0.464526
vt -1.082688 1.268660
vt -0.695041 0.982157
vt -1.726895 -0.178023
vt -1.726895 -0.464526
vt -1.470336 1.268660
vt -1.082689 0.982157
vt -1.339248 -0.178023
vt -1.339248 -0.464526
vt -0.089324 -0.906528
vt -0.089323 -0.600642
vt -0.211570 -1.230254
vt -0.616286 -1.289392
vt -0.616286 -0.908224
vt -2.850873 -0.908223
vt -2.850873 -1.328198
vt -3.238721 -1.328198
vt -3.238720 -0.906528
vt -3.238721 -0.486554
vt -2.850873 -0.486553
vt -1.021002 -1.318961
vt -1.021002 -0.908223
vt -1.329058 -0.906528
vt -1.781129 -0.906528
vt -1.781129 -0.466221
vt -1.438511 -1.348530
vt -1.438511 -0.908223
vt -2.329346 -0.466221
vt -1.890581 -1.348530
vt -2.438798 -1.348530
vt -2.438798 -0.908223
vt -0.911549 -0.906528
vt -0.911549 -0.495790
vt -0.494040 -0.524569
vt -2.329345 -0.906528
vt -2.845760 2.427146
vt -2.845760 0.982157
vt -3.238721 0.982157
vt 0.036177 -0.464526
vt 0.036177 0.980463
vt 0.429137 0.980463
vt -1.470336 0.982157
vt -1.329058 -0.466221
vt -0.494040 -0.906528
vt -0.211570 -0.908224
vt 0.080255 0.982157
vt 0.429138 0.982157
vt 0.429138 1.268661
vt -3.238720 -1.350225
vt -3.238721 -1.466519
vt -2.952218 -1.466519
vt -3.238721 -0.178023
vt -3.238721 -0.464526
vt -2.889838 -0.464526
vt 3.284935 -0.908225
vt 3.284935 -1.194728
vt 3.660952 -1.194729
vt -2.664019 -1.350225
vt -2.950523 -1.350225
vt -2.950523 -1.466519
vt 3.792589 -0.906528
vt 3.792589 -0.620025
vt 3.416572 -0.620025
vt 0.183754 -0.908224
vt 0.183754 -1.194727
vt 0.571401 -1.194727
vt 0.703040 -0.906528
vt 0.703040 -0.620025
vt 0.315392 -0.620025
vt 0.571401 -0.908224
vt 0.959049 -1.194727
vt 1.090687 -0.906528
vt 1.090687 -0.620025
vt 0.959049 -0.908224
vt 1.346696 -1.194727
vt 1.478334 -0.906528
vt 1.478335 -0.620025
vt 1.346696 -0.908224
vt 1.734343 -1.194728
vt 1.865981 -0.906528
vt 1.865981 -0.620025
vt 1.734344 -0.908224
vt 2.121991 -1.194728
vt 2.253629 -0.906528
vt 2.253629 -0.620025
vt 2.121992 -0.908225
vt 2.509639 -1.194728
vt 2.641276 -0.906528
vt 2.641277 -0.620025
vt 2.509639 -0.908225
vt 2.897286 -1.194728
vt 3.028923 -0.906528
vt 3.028924 -0.620025
vt 2.897286 -0.908225
vt 3.416570 -0.906528
vt 0.080255 1.268661
vt -0.307393 1.268660
vt -2.502190 -0.464526
vt -2.502190 -0.178023
vt -2.889838 -0.178023
vt -0.307393 0.982157
vt -0.695040 1.268660
vt -2.114542 -0.464526
vt -2.114542 -0.178023
vt -0.695041 0.982157
vt -1.082688 1.268660
vt -1.726895 -0.464526
vt -1.726895 -0.178023
vt -1.082689 0.982157
vt -1.470336 1.268660
vt -1.339248 -0.464526
vt -1.339248 -0.178023
vt -0.089323 -0.600642
vt -0.089324 -0.906528
vt -0.616286 -0.908224
vt -0.616286 -1.289392
vt -0.211570 -1.230254
vt -2.850873 -1.328198
vt -2.850873 -0.908223
vt -2.850873 -0.486553
vt -1.021002 -0.908223
vt -1.021002 -1.318961
vt -1.781129 -0.466221
vt -1.781129 -0.906528
vt -1.329058 -0.906528
vt -1.438511 -0.908223
vt -1.438511 -1.348530
vt -2.329346 -0.466221
vt -2.438798 -0.908223
vt -2.438798 -1.348530
vt -1.890581 -1.348530
vt -0.911549 -0.906528
vt -0.494040 -0.906528
vt -0.494040 -0.524569
vt -2.329345 -0.906528
vt -3.238721 0.982157
vt -2.845760 0.982157
vt -2.845760 2.427146
vt 0.429137 0.980463
vt 0.036177 0.980463
vt 0.036177 -0.464526
vt -1.470336 0.982157
vt -0.911549 -0.495790
vt -1.890582 -0.908223
vt -0.211570 -0.908224
vt -2.952217 -1.350225
vt 3.660953 -0.908225
vt -2.664019 -1.466519
vt 0.315392 -0.906528
vt -3.238721 -0.908223
vt -2.850872 -0.906528
vt -1.890582 -0.908223
vt -3.238720 2.427146
vt 0.429137 -0.464527
vt -2.952217 -1.350225
vt 3.660953 -0.908225
vt -2.664019 -1.466519
vt 0.315392 -0.906528
vt -2.850872 -0.906528
vt -1.329058 -0.466221
vt -3.238720 2.427146
vt 0.429137 -0.464527
vn 0.0000 0.0000 1.0000
vn -1.0000 0.0000 0.0000
vn 0.0000 0.0000 -1.0000
vn 1.0000 0.0000 0.0000
vn -0.2873 0.0000 -0.9578
vn 0.2873 0.0000 0.9578
vn -0.5145 0.0000 -0.8575
vn 0.3714 0.0000 0.9285
vn -0.7071 0.0000 -0.7071
vn 0.7071 0.0000 0.7071
vn -0.3714 0.0000 -0.9285
vn 0.7526 0.0000 0.6585
vn -0.6690 0.0000 -0.7433
vn 0.6442 -0.7648 0.0000
vn -0.6442 0.7648 0.0000
vn 0.5145 0.0000 0.8575
vn 0.1961 0.0000 0.9806
vn -0.2873 0.0000 0.9578
vn 0.2873 0.0000 -0.9578
vn -0.5145 0.0000 0.8575
vn 0.3714 0.0000 -0.9285
vn -0.7071 0.0000 0.7071
vn 0.7071 0.0000 -0.7071
vn -0.3714 0.0000 0.9285
vn 0.7526 0.0000 -0.6585
vn -0.6690 0.0000 0.7433
vn 0.5145 0.0000 -0.8575
vn 0.1961 0.0000 -0.9806
s off
f 6/1/1 4/2/1 2/3/1
f 4/4/2 6/5/2 5/6/2
f 1/7/3 3/8/3 5/9/3
f 10/10/1 43/11/1 100/12/1
f 9/13/4 10/14/4 8/15/4
f 42/16/3 9/17/3 7/18/3
f 17/19/1 67/20/1 13/21/1
f 66/22/3 14/23/3 12/24/3
f 16/25/1 17/19/1 20/26/1
f 14/23/3 15/27/3 18/28/3
f 25/29/1 16/25/1 19/30/1
f 15/27/3 22/31/3 21/32/3
f 24/33/1 25/29/1 28/34/1
f 22/31/3 23/35/3 26/36/3
f 31/37/1 24/33/1 27/38/1
f 23/35/3 29/39/3 30/40/3
f 37/41/1 31/37/1 33/42/1
f 29/39/3 34/43/3 38/44/3
f 36/45/1 37/41/1 32/46/1
f 34/43/3 35/47/3 39/48/3
f 43/11/1 36/45/1 41/49/1
f 35/47/3 42/16/3 40/50/3
f 45/51/1 46/52/1 2/3/1
f 44/53/3 47/54/3 48/55/3
f 52/56/1 45/51/1 49/57/1
f 47/54/3 50/58/3 53/59/3
f 59/60/1 52/56/1 56/61/1
f 50/58/3 51/62/3 54/63/3
f 58/64/1 59/60/1 55/65/1
f 51/62/3 57/66/3 60/67/3
f 63/68/5 64/69/5 66/22/5
f 93/70/6 98/71/6 69/72/6
f 71/73/4 94/74/4 198/75/4
f 170/76/2 174/77/2 65/78/2
f 98/71/6 95/79/6 73/80/6
f 74/81/7 76/82/7 77/83/7
f 95/79/8 99/84/8 75/85/8
f 82/86/9 77/83/9 76/82/9
f 96/87/10 97/88/10 83/89/10
f 72/90/11 80/91/11 81/92/11
f 94/74/12 71/73/12 83/89/12
f 65/78/13 82/86/13 79/93/13
f 90/94/1 89/95/1 87/96/1
f 91/97/3 88/98/3 84/99/3
f 57/66/3 88/98/3 91/97/3
f 58/64/1 61/100/1 89/95/1
f 74/81/11 92/101/11 80/91/11
f 68/102/5 81/92/5 64/69/5
f 75/85/14 99/84/14 96/87/14
f 62/103/15 13/21/15 67/20/15
f 102/104/3 104/105/3 106/106/3
f 105/107/2 106/108/2 104/109/2
f 105/110/1 103/111/1 101/112/1
f 204/113/3 143/114/3 110/115/3
f 108/116/4 110/117/4 109/118/4
f 107/119/1 109/120/1 142/121/1
f 113/122/3 167/123/3 117/124/3
f 112/125/1 114/126/1 166/127/1
f 120/128/3 117/124/3 116/129/3
f 118/130/1 115/131/1 114/126/1
f 119/132/3 116/129/3 125/133/3
f 121/134/1 122/135/1 115/131/1
f 128/136/3 125/133/3 124/137/3
f 126/138/1 123/139/1 122/135/1
f 127/140/3 124/137/3 131/141/3
f 130/142/1 129/143/1 123/139/1
f 133/144/3 131/141/3 137/145/3
f 138/146/1 134/147/1 129/143/1
f 132/148/3 137/145/3 136/149/3
f 139/150/1 135/151/1 134/147/1
f 141/152/3 136/149/3 143/114/3
f 140/153/1 142/121/1 135/151/1
f 102/104/3 146/154/3 145/155/3
f 148/156/1 147/157/1 144/158/1
f 149/159/3 145/155/3 152/160/3
f 153/161/1 150/162/1 147/157/1
f 156/163/3 152/160/3 159/164/3
f 154/165/1 151/166/1 150/162/1
f 155/167/3 159/164/3 158/168/3
f 160/169/1 157/170/1 151/166/1
f 166/127/16 164/171/16 163/172/16
f 169/173/17 202/174/17 196/175/17
f 198/75/4 197/176/4 173/177/4
f 165/178/2 174/77/2 170/76/2
f 176/179/17 199/180/17 202/174/17
f 180/181/18 179/182/18 177/183/18
f 178/184/19 203/185/19 199/180/19
f 179/182/20 180/181/20 185/186/20
f 186/187/21 201/188/21 200/189/21
f 175/190/22 168/191/22 184/192/22
f 197/176/23 201/188/23 186/187/23
f 182/193/24 185/186/24 165/178/24
f 190/194/3 192/195/3 193/196/3
f 187/197/1 191/198/1 194/199/1
f 157/170/1 160/169/1 194/199/1
f 192/195/3 161/200/3 158/168/3
f 177/183/22 175/190/22 183/201/22
f 168/191/16 163/172/16 164/171/16
f 203/185/25 178/184/25 181/202/25
f 167/123/26 113/122/26 162/203/26
f 6/1/1 2/3/1 46/52/1
f 4/4/2 5/6/2 3/204/2
f 1/7/3 5/9/3 44/53/3
f 10/10/1 100/12/1 8/205/1
f 9/13/4 8/15/4 7/206/4
f 42/16/3 7/18/3 40/50/3
f 17/19/1 13/21/1 20/26/1
f 66/22/3 12/24/3 11/207/3
f 16/25/1 20/26/1 19/30/1
f 14/23/3 18/28/3 12/24/3
f 25/29/1 19/30/1 28/34/1
f 15/27/3 21/32/3 18/28/3
f 24/33/1 28/34/1 27/38/1
f 22/31/3 26/36/3 21/32/3
f 31/37/1 27/38/1 33/42/1
f 23/35/3 30/40/3 26/36/3
f 37/41/1 33/42/1 32/46/1
f 29/39/3 38/44/3 30/40/3
f 36/45/1 32/46/1 41/49/1
f 34/43/3 39/48/3 38/44/3
f 43/11/1 41/49/1 100/12/1
f 35/47/3 40/50/3 39/48/3
f 45/51/1 2/3/1 49/57/1
f 44/53/3 48/55/3 1/7/3
f 52/56/1 49/57/1 56/61/1
f 47/54/3 53/59/3 48/55/3
f 59/60/1 56/61/1 55/65/1
f 50/58/3 54/63/3 53/59/3
f 58/64/1 55/65/1 61/100/1
f 51/62/3 60/67/3 54/63/3
f 63/68/5 66/22/5 11/207/5
f 93/70/6 69/72/6 62/103/6
f 71/73/4 198/75/4 171/208/4
f 170/76/2 65/78/2 70/209/2
f 98/71/6 73/80/6 69/72/6
f 74/81/7 77/83/7 92/101/7
f 95/79/8 75/85/8 73/80/8
f 82/86/9 76/82/9 79/93/9
f 96/87/10 83/89/10 78/210/10
f 72/90/11 81/92/11 68/102/11
f 94/74/12 83/89/12 97/88/12
f 65/78/13 79/93/13 70/209/13
f 90/94/1 87/96/1 85/211/1
f 91/97/3 84/99/3 86/212/3
f 57/66/3 91/97/3 60/67/3
f 58/64/1 89/95/1 90/94/1
f 74/81/11 80/91/11 72/90/11
f 68/102/5 64/69/5 63/68/5
f 75/85/14 96/87/14 78/210/14
f 62/103/15 67/20/15 93/70/15
f 102/104/3 106/106/3 146/154/3
f 105/107/2 104/109/2 103/213/2
f 105/110/1 101/112/1 144/158/1
f 204/113/3 110/115/3 108/214/3
f 108/116/4 109/118/4 107/215/4
f 107/119/1 142/121/1 140/153/1
f 113/122/3 117/124/3 120/128/3
f 112/125/1 166/127/1 111/216/1
f 120/128/3 116/129/3 119/132/3
f 118/130/1 114/126/1 112/125/1
f 119/132/3 125/133/3 128/136/3
f 121/134/1 115/131/1 118/130/1
f 128/136/3 124/137/3 127/140/3
f 126/138/1 122/135/1 121/134/1
f 127/140/3 131/141/3 133/144/3
f 130/142/1 123/139/1 126/138/1
f 133/144/3 137/145/3 132/148/3
f 138/146/1 129/143/1 130/142/1
f 132/148/3 136/149/3 141/152/3
f 139/150/1 134/147/1 138/146/1
f 141/152/3 143/114/3 204/113/3
f 140/153/1 135/151/1 139/150/1
f 102/104/3 145/155/3 149/159/3
f 148/156/1 144/158/1 101/112/1
f 149/159/3 152/160/3 156/163/3
f 153/161/1 147/157/1 148/156/1
f 156/163/3 159/164/3 155/167/3
f 154/165/1 150/162/1 153/161/1
f 155/167/3 158/168/3 161/200/3
f 160/169/1 151/166/1 154/165/1
f 166/127/16 163/172/16 111/216/16
f 169/173/17 196/175/17 162/203/17
f 198/75/4 173/177/4 171/208/4
f 165/178/2 170/76/2 172/217/2
f 176/179/17 202/174/17 169/173/17
f 180/181/18 177/183/18 195/218/18
f 178/184/19 199/180/19 176/179/19
f 179/182/20 185/186/20 182/193/20
f 186/187/21 200/189/21 181/202/21
f 175/190/22 184/192/22 183/201/22
f 197/176/23 186/187/23 173/177/23
f 182/193/24 165/178/24 172/217/24
f 190/194/3 193/196/3 188/219/3
f 187/197/1 194/199/1 189/220/1
f 157/170/1 194/199/1 191/198/1
f 192/195/3 158/168/3 193/196/3
f 177/183/22 183/201/22 195/218/22
f 168/191/16 164/171/16 184/192/16
f 203/185/25 181/202/25 200/189/25
f 167/123/26 162/203/26 196/175/26
