# Blender v2.81 (sub 16) OBJ File: 'Boat2.0 - Joined.blend'
# www.blender.org
v 0.137991 0.013317 -0.148883
v 0.055989 0.132371 -0.043965
v 0.131011 0.060352 -0.034615
v 0.161580 0.015033 -0.047903
v 0.160595 -0.043962 -0.053465
v 0.125193 -0.111962 -0.050526
v 0.066749 -0.150533 -0.007149
v 0.035619 0.127816 0.046345
v 0.066283 0.061021 0.099139
v 0.067314 0.015508 0.100680
v 0.059993 -0.052508 0.089731
v 0.046185 -0.111716 0.069078
v 0.019211 -0.154360 0.028733
v -0.008217 0.128917 0.055167
v -0.004465 0.059882 0.122804
v -0.008961 0.013445 0.132767
v -0.007164 -0.053749 0.130747
v -0.008186 -0.113804 0.099066
v -0.003598 -0.150841 0.057666
v -0.069821 0.130053 0.033984
v -0.105362 0.065252 0.081238
v -0.132081 0.015004 0.107088
v -0.143179 -0.049859 0.116528
v -0.110530 -0.107007 0.091000
v -0.071897 -0.146073 0.043764
v -0.098951 0.137442 -0.026295
v -0.165437 0.070022 -0.032879
v -0.215536 0.020230 -0.042809
v -0.232894 -0.050592 -0.046257
v -0.178250 -0.106993 -0.035404
v -0.082482 -0.145428 -0.016382
v -0.056044 0.138163 -0.087043
v -0.093534 0.070270 -0.139939
v -0.122136 0.020230 -0.182678
v -0.131973 -0.050592 -0.197390
v -0.101007 -0.106993 -0.151076
v -0.046739 -0.145428 -0.069908
v 0.009159 0.138191 -0.115356
v 0.030314 0.072441 -0.166817
v 0.042809 0.020230 -0.215536
v 0.048245 -0.045985 -0.223350
v 0.035404 -0.106993 -0.178250
v 0.016382 -0.145428 -0.082482
v 0.051417 0.135090 -0.102603
v 0.102705 0.076157 -0.130914
v 0.162111 -0.061435 -0.150437
v 0.142868 -0.108587 -0.133892
v 0.067974 -0.146080 -0.049799
v -0.002001 -0.151794 -0.002991
v -0.022375 0.163058 0.006684
v -0.036294 0.165997 -0.007268
v -0.041852 0.166161 -0.021942
v 0.003426 0.161018 -0.016474
v 0.019375 0.162116 -0.041702
v -0.024515 0.166018 -0.049580
v 0.000485 0.165358 -0.067531
v 0.016496 0.164242 -0.060006
v -0.009435 0.163320 -0.031713
v -0.080860 0.166861 -0.076744
v -0.076504 0.185312 -0.077723
v -0.033570 0.157933 -0.041544
v -0.028153 0.177284 -0.043913
v -0.089955 0.171033 -0.063468
v -0.082109 0.186863 -0.064781
v -0.042664 0.162105 -0.028268
v -0.037247 0.181455 -0.030637
v -0.055332 0.161533 -0.061893
v -0.049915 0.180884 -0.064263
v -0.068193 0.167433 -0.043118
v -0.062164 0.183657 -0.047009
v -0.028323 0.158170 -0.027615
v -0.022906 0.177520 -0.029985
v -0.093414 0.169872 -0.075789
v -0.086198 0.186922 -0.076176
v -0.051945 0.166280 -0.068423
v -0.084449 0.176058 -0.086549
v -0.045800 0.172943 -0.070605
v -0.014442 0.168851 -0.035509
v -0.018537 0.159103 -0.022323
v -0.019419 0.158365 -0.035026
v -0.015151 0.171916 -0.023784
v -0.031335 0.176831 -0.020583
v -0.069726 0.175639 -0.041754
v -0.031956 0.166885 -0.021278
v -0.068176 0.186595 -0.038353
v -0.096483 0.188004 -0.067398
v -0.102156 0.181590 -0.076471
v -0.094808 0.177763 -0.070411
v -0.100164 0.186949 -0.076434
v -0.079026 0.181528 -0.089414
v 0.053734 0.184804 -0.073032
v 0.047585 0.200912 -0.069217
v 0.011939 0.162403 -0.044263
v 0.006304 0.179593 -0.039064
v 0.044683 0.185621 -0.085544
v 0.038427 0.199174 -0.078561
v 0.002888 0.163220 -0.056775
v -0.002747 0.180410 -0.051576
v 0.034711 0.173434 -0.056056
v 0.029076 0.190624 -0.050857
v 0.021911 0.174590 -0.073751
v 0.018246 0.189394 -0.067449
v -0.001242 0.158172 -0.044561
v -0.006877 0.175362 -0.039362
v 0.057864 0.189852 -0.085246
v 0.050700 0.204280 -0.079146
v 0.037497 0.179129 -0.050944
v 0.063247 0.196436 -0.070669
v 0.035249 0.185015 -0.044987
v -0.002602 0.168457 -0.030009
v -0.009095 0.156548 -0.037961
v 0.001784 0.159567 -0.034312
v -0.012847 0.167920 -0.034729
v -0.011540 0.172923 -0.049883
v 0.018863 0.181585 -0.075673
v -0.007802 0.164417 -0.050026
v 0.012307 0.190127 -0.075681
v 0.044882 0.206240 -0.097197
v 0.072806 0.207445 -0.095202
v 0.049835 0.197903 -0.094551
v 0.072695 0.213567 -0.095911
v 0.062150 0.201535 -0.065080
vt 0.905621 0.076929
vt 0.900278 0.071586
vt 0.905621 0.071586
vt 0.905621 0.044871
vt 0.900278 0.050214
vt 0.900278 0.044871
vt 0.905621 0.060900
vt 0.900278 0.055557
vt 0.905621 0.055557
vt 0.905621 0.066243
vt 0.900278 0.066243
vt 0.905621 0.050214
vt 0.900278 0.060900
vt 0.894935 0.055557
vt 0.894935 0.071586
vt 0.894935 0.066243
vt 0.894935 0.050214
vt 0.894935 0.060900
vt 0.894935 0.076929
vt 0.894935 0.044871
vt 0.889592 0.050214
vt 0.889592 0.066243
vt 0.889592 0.060900
vt 0.889592 0.076929
vt 0.889592 0.071586
vt 0.889592 0.044871
vt 0.889592 0.055557
vt 0.884249 0.066243
vt 0.884249 0.060900
vt 0.884249 0.071586
vt 0.884249 0.044871
vt 0.884249 0.055557
vt 0.884249 0.050214
vt 0.878906 0.044871
vt 0.878906 0.060900
vt 0.878906 0.055557
vt 0.878906 0.066243
vt 0.878906 0.050214
vt 0.884249 0.076929
vt 0.878906 0.071586
vt 0.873563 0.066243
vt 0.873563 0.050214
vt 0.873563 0.060900
vt 0.878906 0.076929
vt 0.873563 0.071586
vt 0.873563 0.044871
vt 0.873563 0.055557
vt 0.916307 0.050214
vt 0.910964 0.055557
vt 0.910964 0.050214
vt 0.916307 0.060900
vt 0.910964 0.066243
vt 0.910964 0.060900
vt 0.916307 0.071586
vt 0.910964 0.076929
vt 0.910964 0.071586
vt 0.910964 0.044871
vt 0.916307 0.044871
vt 0.916307 0.055557
vt 0.916307 0.066243
vt 0.894929 0.044871
vt 0.885098 0.076929
vt 0.873563 0.076929
vt 0.900278 0.076929
vt 0.900315 0.526192
vt 0.889089 0.531805
vt 0.889089 0.526192
vt 0.900315 0.537418
vt 0.889089 0.543032
vt 0.889089 0.537418
vt 0.889089 0.548645
vt 0.900315 0.554258
vt 0.889089 0.554258
vt 0.900315 0.559871
vt 0.889089 0.565485
vt 0.889089 0.559871
vt 0.908751 0.551467
vt 0.880654 0.548645
vt 0.908751 0.548645
vt 0.908751 0.545823
vt 0.880654 0.545823
vt 0.883476 0.545823
vt 0.905929 0.545823
vt 0.903106 0.545823
vt 0.886298 0.545823
vt 0.900315 0.543032
vt 0.900315 0.520579
vt 0.889089 0.520579
vt 0.903106 0.548645
vt 0.886298 0.548645
vt 0.903106 0.551467
vt 0.886298 0.551467
vt 0.905929 0.551467
vt 0.883476 0.551467
vt 0.880654 0.551467
vt 0.900315 0.531805
vt 0.877863 0.548645
vt 0.911542 0.548645
vt 0.877863 0.543032
vt 0.883476 0.543032
vt 0.905929 0.543032
vt 0.900315 0.548645
vt 0.883476 0.554258
vt 0.911542 0.554258
vt 0.905929 0.554258
vt 0.911542 0.543032
vt 0.877863 0.554258
vt 0.898379 0.529072
vt 0.887119 0.534701
vt 0.887119 0.529072
vt 0.898379 0.540331
vt 0.887119 0.545961
vt 0.887119 0.540331
vt 0.887119 0.551591
vt 0.898379 0.557221
vt 0.887119 0.557221
vt 0.887119 0.562851
vt 0.898379 0.568481
vt 0.887119 0.568481
vt 0.906840 0.554422
vt 0.878658 0.551591
vt 0.906840 0.551591
vt 0.906840 0.548761
vt 0.878658 0.548761
vt 0.904009 0.548761
vt 0.881489 0.548761
vt 0.884320 0.548761
vt 0.901178 0.548761
vt 0.898379 0.545961
vt 0.898379 0.523442
vt 0.887119 0.523442
vt 0.901178 0.551591
vt 0.884320 0.551591
vt 0.901178 0.554422
vt 0.884320 0.554422
vt 0.904009 0.554422
vt 0.881489 0.554422
vt 0.878658 0.554422
vt 0.898379 0.534701
vt 0.875859 0.551591
vt 0.909639 0.551591
vt 0.875859 0.545961
vt 0.881489 0.545961
vt 0.904009 0.545961
vt 0.898379 0.551591
vt 0.881489 0.557221
vt 0.909639 0.557221
vt 0.904009 0.557221
vt 0.909639 0.545961
vt 0.875859 0.557221
vt 0.916307 0.076929
vt 0.900315 0.565485
vt 0.898379 0.562851
vn 0.3297 0.9374 -0.1121
vn 0.6560 0.7504 0.0814
vn 0.5022 0.7767 -0.3802
vn 0.2596 -0.9583 -0.1194
vn 0.7330 -0.6250 0.2683
vn 0.4234 -0.8846 0.1953
vn 0.7816 0.3604 -0.5090
vn 0.9524 -0.1673 0.2547
vn 0.8642 -0.1368 -0.4842
vn 0.6238 0.6457 -0.4404
vn 0.8007 0.5729 0.1748
vn 0.6263 -0.6968 -0.3495
vn 0.9592 0.2322 0.1610
vn 0.6525 -0.2643 0.7102
vn 0.4415 0.7703 0.4600
vn 0.6100 0.3527 0.7095
vn 0.5769 -0.5313 0.6204
vn 0.6519 -0.0429 0.7571
vn 0.3124 0.9325 0.1811
vn 0.1844 -0.9576 0.2211
vn 0.1506 -0.6030 0.7834
vn 0.0040 0.4296 0.9030
vn 0.0746 0.0951 0.9926
vn 0.0204 0.9270 0.3744
vn -0.0295 0.7514 0.6592
vn 0.0993 -0.8974 0.4299
vn 0.1928 -0.2267 0.9547
vn -0.4783 0.6106 0.6311
vn -0.5265 0.3757 0.7626
vn -0.4294 0.7322 0.5287
vn -0.3154 -0.9131 0.2583
vn -0.5673 -0.1782 0.8039
vn -0.3890 -0.6966 0.6028
vn -0.2835 -0.9588 -0.0190
vn -0.8860 0.4624 -0.0340
vn -0.9714 -0.2301 -0.0578
vn -0.7088 0.7053 0.0018
vn -0.6030 -0.7977 -0.0056
vn -0.1783 0.9600 0.2158
vn -0.6213 0.7836 -0.0039
vn -0.4172 0.6958 -0.5846
vn -0.3152 -0.8059 -0.5011
vn -0.4858 0.4625 -0.7417
vn -0.2615 0.9647 -0.0323
vn -0.4122 0.7719 -0.4839
vn -0.1441 -0.9658 -0.2156
vn -0.5180 -0.2395 -0.8212
vn 0.1978 -0.2188 -0.9555
vn 0.0685 -0.7643 -0.6412
vn 0.0745 0.6643 -0.7437
vn 0.1744 0.3899 -0.9041
vn 0.0037 0.9561 -0.2929
vn -0.0012 0.7577 -0.6525
vn 0.0252 -0.9684 -0.2482
vn -0.0384 -0.9982 -0.0456
vn 0.0930 0.9935 0.0649
vn -0.1669 0.9717 -0.1671
vn 0.4244 0.8875 0.1796
vn 0.6039 0.0424 -0.7959
vn 0.5605 -0.7845 -0.2651
vn 0.2979 -0.7146 -0.6329
vn 0.7641 0.3672 0.5304
vn -0.2118 -0.2612 0.9417
vn 0.4541 -0.6207 0.6391
vn -0.6183 -0.1810 0.7648
vn -0.6749 0.6110 0.4136
vn -0.7954 -0.2839 0.5354
vn -0.7369 0.6424 -0.2106
vn -0.2409 -0.4302 -0.8699
vn -0.9962 -0.0437 -0.0757
vn 0.1504 0.9091 0.3883
vn -0.3893 -0.8424 0.3724
vn 0.0011 0.9760 0.2178
vn -0.0490 0.9987 0.0166
vn -0.5900 -0.7913 0.1602
vn -0.4521 -0.8682 0.2045
vn 0.1997 0.9677 -0.1535
vn 0.3489 0.8076 -0.4754
vn -0.4099 -0.9120 -0.0170
vn -0.0046 0.5028 0.8644
vn 0.1422 0.2818 -0.9489
vn 0.5586 0.4551 -0.6934
vn -0.1927 -0.9808 0.0295
vn 0.6701 0.5797 -0.4635
vn -0.2109 -0.8984 0.3851
vn 0.4331 0.9004 0.0397
vn -0.3789 -0.9253 0.0144
vn -0.1788 -0.9545 0.2385
vn 0.9341 0.1328 -0.3313
vn -0.3447 0.7007 0.6246
vn 0.4431 0.2139 0.8706
vn 0.2834 -0.7214 0.6319
vn 0.6527 -0.5452 0.5259
vn -0.8561 0.1070 0.5055
vn -0.6666 -0.5108 -0.5428
vn -0.5242 -0.8292 0.1937
vn -0.4117 -0.3778 -0.8293
vn -0.4111 0.5296 -0.7420
vn 0.0056 -0.4834 -0.8754
vn 0.8159 -0.2927 -0.4987
vn 0.5688 0.4514 0.6875
vn 0.8460 -0.4514 0.2836
vn -0.7227 0.6871 -0.0750
vn 0.0824 -0.8701 -0.4859
vn -0.5041 0.8583 -0.0962
vn -0.3170 0.9460 -0.0681
vn 0.3240 -0.7363 -0.5941
vn -0.2467 0.9422 0.2265
vn 0.2604 -0.8370 -0.4812
vn 0.4537 -0.8157 -0.3589
vn 0.0335 0.8725 0.4874
vn -0.9176 0.2146 -0.3344
vn 0.2627 0.5828 0.7689
vn 0.3572 -0.9178 -0.1736
vn 0.0248 0.5390 0.8419
vn 0.2066 -0.9774 -0.0454
vn -0.4996 0.7525 0.4290
vn 0.3060 -0.9209 -0.2414
vn 0.0548 -0.9352 -0.3497
vn -0.0859 0.1284 0.9880
vn -0.6921 0.4980 -0.5225
vn 0.5785 0.6980 -0.4220
s 1
f 57/1/1 2/2/2 44/3/3
f 48/4/4 6/5/5 7/6/6
f 1/7/7 5/8/8 46/9/9
f 45/10/10 2/2/2 3/11/11
f 47/12/12 5/8/8 6/5/5
f 45/10/10 4/13/13 1/7/7
f 4/13/13 11/14/14 5/8/8
f 3/11/11 8/15/15 9/16/16
f 6/5/5 11/14/14 12/17/17
f 3/11/11 10/18/18 4/13/13
f 2/2/2 53/19/19 8/15/15
f 7/6/6 12/17/17 13/20/20
f 11/14/14 18/21/21 12/17/17
f 10/18/18 15/22/22 16/23/23
f 8/15/15 50/24/24 14/25/25
f 12/17/17 19/26/26 13/20/20
f 11/14/14 16/23/23 17/27/27
f 8/15/15 15/22/22 9/16/16
f 16/23/23 21/28/28 22/29/29
f 50/24/24 20/30/30 14/25/25
f 18/21/21 25/31/31 19/26/26
f 17/27/27 22/29/29 23/32/32
f 14/25/25 21/28/28 15/22/22
f 17/27/27 24/33/33 18/21/21
f 24/33/33 31/34/34 25/31/31
f 23/32/32 28/35/35 29/36/36
f 20/30/30 27/37/37 21/28/28
f 23/32/32 30/38/38 24/33/33
f 22/29/29 27/37/37 28/35/35
f 51/39/39 26/40/40 20/30/30
f 26/40/40 33/41/41 27/37/37
f 29/36/36 36/42/42 30/38/38
f 27/37/37 34/43/43 28/35/35
f 52/44/44 32/45/45 26/40/40
f 31/34/34 36/42/42 37/46/46
f 28/35/35 35/47/47 29/36/36
f 36/48/42 41/49/48 42/50/49
f 34/51/43 39/52/50 40/53/51
f 32/54/45 56/55/52 38/56/53
f 36/48/42 43/57/54 37/58/46
f 34/51/43 41/49/48 35/59/47
f 33/60/41 38/56/53 39/52/50
f 38/56/53 57/1/1 44/3/3
f 43/57/54 47/12/12 48/4/4
f 41/49/48 1/7/7 46/9/9
f 39/52/50 44/3/3 45/10/10
f 42/50/49 46/9/9 47/12/12
f 40/53/51 45/10/10 1/7/7
f 49/61/55 31/34/34 37/58/46
f 19/26/26 49/61/55 13/20/20
f 49/61/55 43/57/54 48/4/4
f 7/6/6 49/61/55 48/4/4
f 58/62/56 56/55/52 55/63/57
f 58/62/56 52/44/44 51/39/39
f 54/64/58 58/62/56 53/19/19
f 50/24/24 58/62/56 51/39/39
f 77/65/59 80/66/60 75/67/61
f 81/68/62 84/69/63 79/70/64
f 83/71/65 86/72/66 88/73/67
f 89/74/68 76/75/69 87/76/70
f 60/77/71 67/78/72 68/79/73
f 62/80/74 67/78/72 61/81/75
f 62/80/74 71/82/76 72/83/77
f 66/84/78 71/82/76 65/85/79
f 82/86/80 83/71/65 84/69/63
f 90/87/81 75/67/61 76/88/69
f 70/89/82 65/85/79 69/90/83
f 64/91/84 69/90/83 63/92/85
f 74/93/86 63/92/85 73/94/87
f 74/93/86 59/95/88 60/77/71
f 88/73/67 89/74/68 87/76/70
f 78/96/89 79/70/64 80/66/60
f 59/95/88 75/97/61 67/78/72
f 62/80/74 77/98/59 68/79/73
f 71/82/76 80/99/60 79/100/64
f 72/83/77 82/86/80 81/101/62
f 65/85/79 83/71/65 69/90/83
f 64/91/84 85/102/90 70/89/82
f 73/94/87 88/73/67 87/103/70
f 74/93/86 90/104/81 89/105/68
f 61/81/75 75/97/61 80/99/60
f 60/77/71 77/98/59 90/104/81
f 63/92/85 83/71/65 88/73/67
f 66/84/78 85/102/90 82/86/80
f 71/82/76 84/69/63 65/85/79
f 72/83/77 78/106/89 62/80/74
f 73/94/87 76/107/69 59/95/88
f 74/93/86 86/72/66 64/91/84
f 109/108/91 112/109/92 107/110/93
f 113/111/94 116/112/95 111/113/96
f 115/114/97 118/115/98 120/116/99
f 119/117/100 122/118/101 108/119/102
f 92/120/103 99/121/104 100/122/105
f 94/123/106 99/121/104 93/124/107
f 104/125/108 93/124/107 103/126/109
f 104/125/108 97/127/110 98/128/111
f 114/129/112 115/114/97 116/112/95
f 122/130/101 107/110/93 108/131/102
f 102/132/113 97/127/110 101/133/114
f 96/134/115 101/133/114 95/135/116
f 106/136/117 95/135/116 105/137/118
f 106/136/117 91/138/119 92/120/103
f 118/115/98 119/117/100 120/116/99
f 110/139/120 111/113/96 112/109/92
f 91/138/119 107/140/93 99/121/104
f 94/123/106 109/141/91 100/122/105
f 103/126/109 112/142/92 111/143/96
f 104/125/108 114/129/112 113/144/94
f 97/127/110 115/114/97 101/133/114
f 96/134/115 117/145/121 102/132/113
f 105/137/118 120/116/99 119/146/100
f 106/136/117 122/147/101 121/148/122
f 93/124/107 107/140/93 112/142/92
f 92/120/103 109/141/91 122/147/101
f 95/135/116 115/114/97 120/116/99
f 98/128/111 117/145/121 114/129/112
f 103/126/109 116/112/95 97/127/110
f 104/125/108 110/149/120 94/123/106
f 105/137/118 108/150/102 91/138/119
f 106/136/117 118/115/98 96/134/115
f 57/1/1 54/64/58 2/2/2
f 48/4/4 47/12/12 6/5/5
f 1/7/7 4/13/13 5/8/8
f 45/10/10 44/3/3 2/2/2
f 47/12/12 46/9/9 5/8/8
f 45/10/10 3/11/11 4/13/13
f 4/13/13 10/18/18 11/14/14
f 3/11/11 2/2/2 8/15/15
f 6/5/5 5/8/8 11/14/14
f 3/11/11 9/16/16 10/18/18
f 2/2/2 54/64/58 53/19/19
f 7/6/6 6/5/5 12/17/17
f 11/14/14 17/27/27 18/21/21
f 10/18/18 9/16/16 15/22/22
f 8/15/15 53/19/19 50/24/24
f 12/17/17 18/21/21 19/26/26
f 11/14/14 10/18/18 16/23/23
f 8/15/15 14/25/25 15/22/22
f 16/23/23 15/22/22 21/28/28
f 50/24/24 51/39/39 20/30/30
f 18/21/21 24/33/33 25/31/31
f 17/27/27 16/23/23 22/29/29
f 14/25/25 20/30/30 21/28/28
f 17/27/27 23/32/32 24/33/33
f 24/33/33 30/38/38 31/34/34
f 23/32/32 22/29/29 28/35/35
f 20/30/30 26/40/40 27/37/37
f 23/32/32 29/36/36 30/38/38
f 22/29/29 21/28/28 27/37/37
f 51/39/39 52/44/44 26/40/40
f 26/40/40 32/45/45 33/41/41
f 29/36/36 35/47/47 36/42/42
f 27/37/37 33/41/41 34/43/43
f 52/44/44 55/63/57 32/45/45
f 31/34/34 30/38/38 36/42/42
f 28/35/35 34/43/43 35/47/47
f 36/48/42 35/59/47 41/49/48
f 34/51/43 33/60/41 39/52/50
f 32/54/45 55/151/57 56/55/52
f 36/48/42 42/50/49 43/57/54
f 34/51/43 40/53/51 41/49/48
f 33/60/41 32/54/45 38/56/53
f 38/56/53 56/55/52 57/1/1
f 43/57/54 42/50/49 47/12/12
f 41/49/48 40/53/51 1/7/7
f 39/52/50 38/56/53 44/3/3
f 42/50/49 41/49/48 46/9/9
f 40/53/51 39/52/50 45/10/10
f 49/61/55 25/31/31 31/34/34
f 19/26/26 25/31/31 49/61/55
f 49/61/55 37/58/46 43/57/54
f 7/6/6 13/20/20 49/61/55
f 58/62/56 57/1/1 56/55/52
f 58/62/56 55/63/57 52/44/44
f 54/64/58 57/1/1 58/62/56
f 50/24/24 53/19/19 58/62/56
f 77/65/59 78/96/89 80/66/60
f 81/68/62 82/86/80 84/69/63
f 83/71/65 85/102/90 86/72/66
f 89/74/68 90/152/81 76/75/69
f 60/77/71 59/95/88 67/78/72
f 62/80/74 68/79/73 67/78/72
f 62/80/74 61/81/75 71/82/76
f 66/84/78 72/83/77 71/82/76
f 82/86/80 85/102/90 83/71/65
f 90/87/81 77/65/59 75/67/61
f 70/89/82 66/84/78 65/85/79
f 64/91/84 70/89/82 69/90/83
f 74/93/86 64/91/84 63/92/85
f 74/93/86 73/94/87 59/95/88
f 88/73/67 86/72/66 89/74/68
f 78/96/89 81/68/62 79/70/64
f 59/95/88 76/107/69 75/97/61
f 62/80/74 78/106/89 77/98/59
f 71/82/76 61/81/75 80/99/60
f 72/83/77 66/84/78 82/86/80
f 65/85/79 84/69/63 83/71/65
f 64/91/84 86/72/66 85/102/90
f 73/94/87 63/92/85 88/73/67
f 74/93/86 60/77/71 90/104/81
f 61/81/75 67/78/72 75/97/61
f 60/77/71 68/79/73 77/98/59
f 63/92/85 69/90/83 83/71/65
f 66/84/78 70/89/82 85/102/90
f 71/82/76 79/100/64 84/69/63
f 72/83/77 81/101/62 78/106/89
f 73/94/87 87/103/70 76/107/69
f 74/93/86 89/105/68 86/72/66
f 109/108/91 110/139/120 112/109/92
f 113/111/94 114/129/112 116/112/95
f 115/114/97 117/145/121 118/115/98
f 119/117/100 121/153/122 122/118/101
f 92/120/103 91/138/119 99/121/104
f 94/123/106 100/122/105 99/121/104
f 104/125/108 94/123/106 93/124/107
f 104/125/108 103/126/109 97/127/110
f 114/129/112 117/145/121 115/114/97
f 122/130/101 109/108/91 107/110/93
f 102/132/113 98/128/111 97/127/110
f 96/134/115 102/132/113 101/133/114
f 106/136/117 96/134/115 95/135/116
f 106/136/117 105/137/118 91/138/119
f 118/115/98 121/153/122 119/117/100
f 110/139/120 113/111/94 111/113/96
f 91/138/119 108/150/102 107/140/93
f 94/123/106 110/149/120 109/141/91
f 103/126/109 93/124/107 112/142/92
f 104/125/108 98/128/111 114/129/112
f 97/127/110 116/112/95 115/114/97
f 96/134/115 118/115/98 117/145/121
f 105/137/118 95/135/116 120/116/99
f 106/136/117 92/120/103 122/147/101
f 93/124/107 99/121/104 107/140/93
f 92/120/103 100/122/105 109/141/91
f 95/135/116 101/133/114 115/114/97
f 98/128/111 102/132/113 117/145/121
f 103/126/109 111/143/96 116/112/95
f 104/125/108 113/144/94 110/149/120
f 105/137/118 119/146/100 108/150/102
f 106/136/117 121/148/122 118/115/98
