# Blender v2.81 (sub 16) OBJ File: 'Boat2.0 - Joined.blend'
# www.blender.org
v 0.404262 0.436364 0.441005
v 0.404262 0.490869 0.441005
v 0.805192 0.436364 0.441005
v 0.805192 0.490869 0.441005
v 0.332416 1.637111 0.520916
v 0.514412 1.478374 0.520916
v 0.332416 1.637111 0.370770
v 0.506925 1.623975 0.370775
v 0.514412 1.478374 0.370770
v 0.673652 0.672197 0.441005
v 0.673652 0.726703 0.441005
v 1.074582 0.672197 0.441005
v 1.074582 0.726703 0.441005
v 0.943043 0.908030 0.441005
v 0.943043 0.962536 0.441005
v 1.343973 0.908030 0.441005
v 1.343973 0.962536 0.441005
v 1.212433 1.143864 0.441005
v 1.212433 1.198369 0.441005
v 1.613364 1.143864 0.441005
v 1.613364 1.198369 0.441005
v 1.481824 1.379697 0.441005
v 1.481824 1.434203 0.441005
v 1.882754 1.379697 0.441005
v 1.882754 1.434203 0.441005
v 1.751215 1.615530 0.441005
v 1.751215 1.670036 0.441005
v 2.152145 1.615530 0.441005
v 2.152145 1.670036 0.441005
v 2.020605 1.851364 0.441005
v 2.020605 1.905869 0.441005
v 2.421535 1.851364 0.441005
v 2.421535 1.905869 0.441005
v 2.289996 2.087197 0.441005
v 2.289996 2.141702 0.441005
v 2.690925 2.087197 0.441005
v 2.690926 2.141702 0.441005
v 2.559386 2.323030 0.441005
v 2.559386 2.377535 0.441005
v 2.960316 2.323030 0.441005
v 2.960316 2.377535 0.441005
v 2.828777 2.558863 0.441005
v 2.828777 2.613369 0.441005
v 3.229707 2.558863 0.441005
v 3.229707 2.613369 0.441005
v 3.098167 2.794696 0.441005
v 3.098167 2.849202 0.441005
v 3.499097 2.794696 0.441005
v 3.499097 2.849202 0.441005
v 3.367558 3.030529 0.441005
v 3.367558 3.085035 0.441005
v 3.768487 3.030529 0.441005
v 3.768488 3.085035 0.441005
v 3.636948 3.266363 0.441005
v 3.636948 3.320868 0.441005
v 4.037879 3.266363 0.441005
v 4.037879 3.320868 0.441005
v 0.108103 1.650108 0.502531
v 0.000000 1.573668 0.502531
v 0.000000 0.000000 0.502531
v 0.108103 1.650108 0.388775
v 0.108103 0.000000 0.388775
v -0.000000 1.573668 0.388775
v -0.000000 0.000000 0.388775
v 0.108103 1.198528 0.388775
v -0.000000 1.198528 0.388775
v 0.108103 1.198528 0.502531
v 0.000000 1.198528 0.502531
v -0.000000 0.852504 0.500328
v 0.108103 0.852504 0.500328
v 0.108103 0.852504 0.390978
v -0.000000 0.852504 0.390978
v 0.084663 1.029934 0.477242
v 0.023439 1.029934 0.477242
v 0.023439 1.029934 0.414064
v 0.084663 1.029934 0.414064
v 0.103467 0.000000 0.494207
v 0.125835 0.371220 0.494207
v 0.427483 0.001073 0.494207
v 0.125835 0.371220 0.397852
v 0.427483 0.001073 0.397852
v 0.134871 0.200531 0.441005
v 0.134871 0.255036 0.441005
v 0.535801 0.200531 0.441005
v 0.535801 0.255036 0.441005
v -0.089402 1.195460 0.520916
v -0.089402 1.318355 0.520916
v 0.147067 1.195460 0.520916
v 0.284291 1.462523 0.310814
v -0.089402 1.195460 0.370770
v -0.089402 1.318355 0.370770
v 0.147067 1.195460 0.370770
v 0.506927 1.623977 0.520916
v 4.557275 5.084808 0.501933
v 4.557275 3.538968 0.501933
v 4.448478 5.084808 0.501933
v 4.448478 3.538968 0.501933
v 4.557275 5.084808 0.387445
v 4.557275 3.538968 0.387445
v 4.448478 5.084808 0.387445
v 4.448478 3.538968 0.387445
v 4.557275 4.703771 0.387445
v 4.448478 4.703771 0.387445
v 4.557275 4.703771 0.501933
v 4.448478 4.703771 0.501933
v 4.448478 4.355522 0.499715
v 4.557275 4.355522 0.499715
v 4.557275 4.355522 0.389662
v 4.448478 4.355522 0.389662
v 4.533685 4.534092 0.476481
v 4.472067 4.534092 0.476481
v 4.472067 4.534092 0.412897
v 4.533685 4.534092 0.412897
v 4.278395 4.950147 0.520916
v 4.103882 4.950147 0.520916
v 4.285882 4.780043 0.520916
v 4.597342 4.950147 0.521231
v 4.597342 4.780043 0.521231
v 4.278395 4.950147 0.370775
v 4.103882 4.950147 0.370770
v 4.285882 4.780043 0.370770
v 4.597342 4.950147 0.370371
v 4.597342 4.780043 0.370371
v 4.448478 3.910311 0.500924
v 4.144797 3.909116 0.494207
v 4.448478 3.910311 0.388453
v 4.144797 3.909116 0.397852
v 3.906339 3.502196 0.441005
v 3.906339 3.556702 0.441005
v 4.307270 3.502196 0.441005
v 4.307270 3.556702 0.441005
v 0.108103 0.371942 0.389736
v -0.000000 0.371942 0.501570
v -0.000000 0.371942 0.389736
v 0.105489 0.371942 0.496877
v -0.000000 0.185971 0.502050
v -0.000000 0.185971 0.389256
v 0.104478 0.185971 0.495542
v 0.276659 0.186147 0.494207
v 0.294809 0.163875 0.397852
v 0.108103 0.177797 0.389234
v 4.557275 3.910311 0.388453
v 4.557275 3.910311 0.500924
v 0.404262 0.436364 -1.750692
v 0.404262 0.490869 -1.750692
v 0.805192 0.436364 -1.750692
v 0.805192 0.490869 -1.750692
v 0.673652 0.672197 -1.750692
v 0.673652 0.726703 -1.750692
v 1.074582 0.672197 -1.750692
v 1.074582 0.726703 -1.750692
v 0.943043 0.908030 -1.750692
v 0.943043 0.962536 -1.750692
v 1.343973 0.908030 -1.750692
v 1.343973 0.962536 -1.750692
v 1.212433 1.143864 -1.750692
v 1.212433 1.198369 -1.750692
v 1.613364 1.143864 -1.750692
v 1.613364 1.198369 -1.750692
v 1.481824 1.379697 -1.750692
v 1.481824 1.434203 -1.750692
v 1.882754 1.379697 -1.750692
v 1.882754 1.434203 -1.750692
v 1.751215 1.615530 -1.750692
v 1.751215 1.670036 -1.750692
v 2.152145 1.615530 -1.750692
v 2.152145 1.670036 -1.750692
v 2.020605 1.851364 -1.750692
v 2.020605 1.905869 -1.750692
v 2.421535 1.851364 -1.750692
v 2.421535 1.905869 -1.750692
v 2.289996 2.087197 -1.750692
v 2.289996 2.141702 -1.750692
v 2.690925 2.087197 -1.750692
v 2.690926 2.141702 -1.750692
v 2.559386 2.323030 -1.750692
v 2.559386 2.377535 -1.750692
v 2.960316 2.323030 -1.750692
v 2.960316 2.377535 -1.750692
v 2.828777 2.558863 -1.750692
v 2.828777 2.613369 -1.750692
v 3.229707 2.558863 -1.750692
v 3.229707 2.613369 -1.750692
v 3.098167 2.794696 -1.750692
v 3.098167 2.849202 -1.750692
v 3.499097 2.794696 -1.750692
v 3.499097 2.849202 -1.750692
v 3.367558 3.030529 -1.750692
v 3.367558 3.085035 -1.750692
v 3.768487 3.030529 -1.750692
v 3.768488 3.085035 -1.750692
v 3.636948 3.266363 -1.750692
v 3.636948 3.320868 -1.750692
v 4.037879 3.266363 -1.750692
v 4.037879 3.320868 -1.750692
v 0.134871 0.200531 -1.750693
v 0.134871 0.255036 -1.750693
v 0.535801 0.200531 -1.750693
v 0.535801 0.255036 -1.750693
v 3.906339 3.502196 -1.750693
v 3.906339 3.556702 -1.750693
v 4.307270 3.502196 -1.750693
v 4.307270 3.556702 -1.750693
vt 0.504392 0.812480
vt 0.504392 0.753461
vt 0.504392 0.753461
vt 0.445372 0.812480
vt 0.504392 0.812480
vt 0.445372 0.812480
vt 0.445372 0.753461
vt 0.445372 0.753461
vt 0.504392 0.753461
vt 0.504392 0.812480
vt 0.504392 0.753461
vt 0.504392 0.753461
vt 0.445372 0.812480
vt 0.445372 0.812480
vt 0.445372 0.753461
vt 0.445372 0.753461
vt 0.504392 0.812480
vt 0.504392 0.753461
vt 0.504392 0.753461
vt 0.445372 0.812480
vt 0.445372 0.812480
vt 0.445372 0.753461
vt 0.445372 0.753461
vt 0.504392 0.812480
vt 0.504392 0.753461
vt 0.504392 0.753461
vt 0.445372 0.812480
vt 0.445372 0.812480
vt 0.445372 0.753461
vt 0.445372 0.753461
vt 0.504392 0.812480
vt 0.504392 0.753461
vt 0.504392 0.753461
vt 0.445372 0.812480
vt 0.445372 0.812480
vt 0.445372 0.753461
vt 0.445372 0.753461
vt 0.504392 0.812480
vt 0.504392 0.753461
vt 0.504392 0.753461
vt 0.445372 0.812480
vt 0.445372 0.812480
vt 0.445372 0.753461
vt 0.445372 0.753461
vt 0.504392 0.812480
vt 0.504392 0.753461
vt 0.504392 0.753461
vt 0.445372 0.812480
vt 0.445372 0.812480
vt 0.445372 0.753461
vt 0.445372 0.753461
vt 0.504392 0.812480
vt 0.504392 0.753461
vt 0.504392 0.753461
vt 0.445372 0.812480
vt 0.445372 0.812480
vt 0.445372 0.753461
vt 0.445372 0.753461
vt 0.504392 0.812480
vt 0.504392 0.753461
vt 0.504392 0.753461
vt 0.445372 0.812480
vt 0.445372 0.812480
vt 0.445372 0.753461
vt 0.445372 0.753461
vt 0.504392 0.812480
vt 0.504392 0.753461
vt 0.504392 0.753461
vt 0.445372 0.812480
vt 0.445372 0.812480
vt 0.445372 0.753461
vt 0.445372 0.753461
vt 0.504392 0.812480
vt 0.504392 0.753461
vt 0.504392 0.753461
vt 0.445372 0.812480
vt 0.445372 0.812480
vt 0.445372 0.753461
vt 0.445372 0.753461
vt 0.504392 0.812480
vt 0.504392 0.753461
vt 0.504392 0.753461
vt 0.445372 0.812480
vt 0.445372 0.812480
vt 0.445372 0.753461
vt 0.445372 0.753461
vt 0.219387 0.804382
vt 0.224450 0.799792
vt 0.219387 0.804382
vt 0.127991 0.639113
vt 0.127991 0.639113
vt 0.127991 0.639113
vt 0.504392 0.812480
vt 0.504392 0.753461
vt 0.504392 0.753461
vt 0.445372 0.812480
vt 0.445372 0.812480
vt 0.445372 0.753461
vt 0.445372 0.753461
vt 0.168566 0.716989
vt 0.216520 0.816171
vt 0.229139 0.808135
vt 0.224630 0.812209
vt 0.229139 0.808135
vt 0.224138 0.806860
vt 0.275539 0.639113
vt 0.255866 0.698133
vt 0.255866 0.639113
vt 0.275539 0.698133
vt 0.255866 0.757152
vt 0.255866 0.698133
vt 0.275539 0.816171
vt 0.255866 0.875190
vt 0.255866 0.816171
vt 0.196846 0.757152
vt 0.216520 0.816171
vt 0.196846 0.816171
vt 0.171564 0.757152
vt 0.189734 0.816171
vt 0.171564 0.816171
vt 0.252309 0.757152
vt 0.248753 0.698133
vt 0.252309 0.698133
vt 0.193290 0.816171
vt 0.189734 0.757152
vt 0.193290 0.757152
vt 0.252309 0.875190
vt 0.252309 0.816171
vt 0.230583 0.757152
vt 0.230583 0.698133
vt 0.248753 0.816171
vt 0.230583 0.875190
vt 0.230583 0.816171
vt 0.248753 0.698133
vt 0.252309 0.639113
vt 0.252309 0.698133
vt 0.248753 0.875190
vt 0.248753 0.639113
vt 0.230583 0.698133
vt 0.230583 0.639113
vt 0.216520 0.757152
vt 0.275539 0.875190
vt 0.504392 0.812480
vt 0.504392 0.753461
vt 0.504392 0.753461
vt 0.445372 0.812480
vt 0.445372 0.812480
vt 0.445372 0.753461
vt 0.445372 0.753461
vt 0.220244 0.816171
vt 0.216520 0.816171
vt 0.216520 0.816171
vt 0.216520 0.806980
vt 0.216520 0.806980
vt 0.228650 0.802387
vt 0.224450 0.799792
vt 0.229139 0.808135
vt 0.224450 0.799792
vt 0.229139 0.808135
vt 0.220244 0.816171
vt 0.228650 0.802387
vt 0.275539 0.639113
vt 0.255866 0.698133
vt 0.255866 0.639113
vt 0.275539 0.698133
vt 0.255866 0.757152
vt 0.255866 0.698133
vt 0.275539 0.816171
vt 0.255866 0.875190
vt 0.255866 0.816171
vt 0.216520 0.757152
vt 0.196846 0.816171
vt 0.196846 0.757152
vt 0.189734 0.757152
vt 0.172159 0.816171
vt 0.172159 0.757152
vt 0.248753 0.757152
vt 0.252309 0.698133
vt 0.252309 0.757152
vt 0.189734 0.816171
vt 0.193290 0.757152
vt 0.193290 0.816171
vt 0.252309 0.875190
vt 0.252309 0.816171
vt 0.248753 0.698133
vt 0.231178 0.757152
vt 0.231178 0.698133
vt 0.248753 0.816171
vt 0.231178 0.875190
vt 0.231178 0.816171
vt 0.252309 0.698133
vt 0.248753 0.639113
vt 0.252309 0.639113
vt 0.248753 0.875190
vt 0.231178 0.698133
vt 0.231178 0.639113
vt 0.275539 0.875190
vt 0.224138 0.806860
vt 0.224630 0.812209
vt 0.271501 0.757152
vt 0.275539 0.757152
vt 0.271501 0.757152
vt 0.275539 0.766215
vt 0.275539 0.757152
vt 0.275539 0.766215
vt 0.271501 0.757152
vt 0.275539 0.757152
vt 0.275539 0.757152
vt 0.226265 0.810731
vt 0.174117 0.727642
vt 0.216520 0.816171
vt 0.216520 0.806980
vt 0.220244 0.816171
vt 0.445372 0.812480
vt 0.445372 0.812480
vt 0.445372 0.753461
vt 0.445372 0.753461
vt 0.271501 0.757152
vt 0.224450 0.799792
vt 0.127991 0.639113
vt 0.223551 0.816171
vt 0.223242 0.875190
vt 0.223551 0.757152
vt 0.223551 0.698133
vt 0.157500 0.757152
vt 0.164532 0.816171
vt 0.157500 0.816171
vt 0.127991 0.639113
vt 0.127991 0.639113
vt 0.127991 0.639113
vt 0.127991 0.639113
vt 0.127991 0.639113
vt 0.216520 0.757152
vt 0.216520 0.698133
vt 0.127991 0.639113
vt 0.127991 0.639113
vt 0.164532 0.757152
vt 0.220244 0.816171
vt 0.127991 0.639113
vt 0.216520 0.816171
vt 0.216520 0.875190
vt 0.127991 0.639113
vt 0.127991 0.639113
vt 0.216520 0.698133
vt 0.216520 0.639113
vt 0.216520 0.875190
vt 0.216520 0.816171
vt 0.216520 0.698133
vt 0.216520 0.757152
vt 0.157500 0.816171
vt 0.157500 0.757152
vt 0.504392 0.753461
vt 0.504392 0.812480
vt 0.504392 0.812480
vt 0.504392 0.812480
vt 0.504392 0.812480
vt 0.504392 0.812480
vt 0.504392 0.812480
vt 0.504392 0.812480
vt 0.504392 0.812480
vt 0.504392 0.812480
vt 0.504392 0.812480
vt 0.504392 0.812480
vt 0.504392 0.812480
vt 0.504392 0.812480
vt 0.504392 0.812480
vt 0.228650 0.802387
vt 0.275539 0.698133
vt 0.275539 0.757152
vt 0.248753 0.757152
vt 0.504392 0.812480
vt 0.275539 0.698133
vt 0.275539 0.757152
vt 0.216520 0.816171
vt 0.248753 0.698133
vt 0.228650 0.802387
vn 0.0000 1.0000 0.0000
vn -1.0000 0.0000 0.0000
vn 0.0000 -1.0000 0.0000
vn 1.0000 0.0000 0.0000
vn 0.6587 -0.7524 0.0000
vn 0.6606 -0.7508 0.0000
vn -0.0047 0.0027 -1.0000
vn -0.6600 0.7513 0.0000
vn 0.0000 0.0000 1.0000
vn 0.0000 0.0000 -1.0000
vn 0.0444 0.0026 0.9990
vn -0.9914 0.1310 0.0000
vn 0.0000 0.1290 0.9916
vn 0.0000 -0.1483 -0.9889
vn 0.0000 0.0026 -1.0000
vn 0.9914 0.1310 0.0000
vn 0.9905 -0.1377 0.0000
vn 0.0000 0.1290 -0.9916
vn 0.0000 -0.1483 0.9889
vn -0.9905 -0.1377 -0.0000
vn 0.9997 -0.0001 0.0244
vn -0.5774 0.8165 0.0000
vn 0.6102 -0.7923 0.0000
vn -0.6029 0.7978 0.0000
vn 0.0000 0.0027 1.0000
vn 0.0000 0.0027 -1.0000
vn -0.0013 0.0000 -1.0000
vn -0.0222 0.0231 0.9995
vn -0.6608 0.7506 0.0000
vn -0.0010 0.0000 1.0000
vn -0.0039 1.0000 0.0000
vn -0.0011 -0.0009 1.0000
vn 0.0802 0.0026 0.9968
vn 0.0402 0.9992 0.0010
vn 0.1299 -0.0078 0.9915
vn 0.0622 0.0026 0.9981
vn 0.4162 0.0024 -0.9093
vn 0.0463 0.0026 -0.9989
vn -0.0015 -0.0012 -1.0000
vn 0.0000 -0.0072 1.0000
vn 1.0000 -0.0054 0.0000
vn -0.0040 0.0027 1.0000
vn 0.0622 -0.0075 0.9980
vn 0.0354 0.9994 0.0000
vn 0.0077 0.0063 1.0000
vn 0.0078 -0.0072 0.9999
vn 0.0444 -0.0074 0.9990
vn -0.0310 0.0319 -0.9990
vn 0.0490 0.0400 -0.9980
vn 0.0283 0.0231 -0.9993
s off
f 149/1/1 13/2/1 151/3/1
f 1/4/2 145/5/2 144/6/2
f 144/6/3 3/7/3 1/4/3
f 146/8/4 4/9/4 3/7/4
f 153/10/1 17/11/1 155/12/1
f 10/13/2 149/1/2 148/14/2
f 148/14/3 12/15/3 10/13/3
f 150/16/4 13/2/4 12/15/4
f 157/17/1 21/18/1 159/19/1
f 14/20/2 153/10/2 152/21/2
f 152/21/3 16/22/3 14/20/3
f 154/23/4 17/11/4 16/22/4
f 161/24/1 25/25/1 163/26/1
f 18/27/2 157/17/2 156/28/2
f 156/28/3 20/29/3 18/27/3
f 158/30/4 21/18/4 20/29/4
f 165/31/1 29/32/1 167/33/1
f 22/34/2 161/24/2 160/35/2
f 160/35/3 24/36/3 22/34/3
f 162/37/4 25/25/4 24/36/4
f 169/38/1 33/39/1 171/40/1
f 26/41/2 165/31/2 164/42/2
f 164/42/3 28/43/3 26/41/3
f 166/44/4 29/32/4 28/43/4
f 173/45/1 37/46/1 175/47/1
f 30/48/2 169/38/2 168/49/2
f 168/49/3 32/50/3 30/48/3
f 170/51/4 33/39/4 32/50/4
f 177/52/1 41/53/1 179/54/1
f 34/55/2 173/45/2 172/56/2
f 172/56/3 36/57/3 34/55/3
f 174/58/4 37/46/4 36/57/4
f 181/59/1 45/60/1 183/61/1
f 38/62/2 177/52/2 176/63/2
f 176/63/3 40/64/3 38/62/3
f 178/65/4 41/53/4 40/64/4
f 185/66/1 49/67/1 187/68/1
f 42/69/2 181/59/2 180/70/2
f 180/70/3 44/71/3 42/69/3
f 182/72/4 45/60/4 44/71/4
f 189/73/1 53/74/1 191/75/1
f 46/76/2 185/66/2 184/77/2
f 184/77/3 48/78/3 46/76/3
f 186/79/4 49/67/4 48/78/4
f 193/80/1 57/81/1 195/82/1
f 50/83/2 189/73/2 188/84/2
f 188/84/3 52/85/3 50/83/3
f 190/86/4 53/74/4 52/85/4
f 9/87/5 116/88/5 6/89/5
f 97/90/6 81/91/6 101/92/6
f 197/93/1 85/94/1 199/95/1
f 54/96/2 193/80/2 192/97/2
f 192/97/3 56/98/3 54/96/3
f 194/99/4 57/81/4 56/98/4
f 101/92/7 140/100/7 126/101/7
f 120/102/8 5/103/8 115/104/8
f 93/105/9 115/104/9 5/103/9
f 61/106/4 67/107/4 65/108/4
f 59/109/2 66/110/2 68/111/2
f 63/112/10 65/113/10 66/114/10
f 67/115/9 59/116/9 68/117/9
f 135/118/11 69/119/11 133/120/11
f 75/121/12 69/122/12 74/123/12
f 74/124/13 70/125/13 73/126/13
f 66/114/14 76/127/14 75/128/14
f 69/122/2 134/129/2 133/130/2
f 72/131/15 132/132/15 134/133/15
f 70/134/16 76/135/16 73/136/16
f 73/136/17 65/108/17 67/107/17
f 72/131/18 76/127/18 71/137/18
f 74/124/19 67/115/19 68/117/19
f 75/121/20 68/111/20 66/110/20
f 71/138/21 135/139/21 132/140/21
f 63/112/22 58/141/22 61/142/22
f 201/143/1 131/144/1 203/145/1
f 82/146/2 197/93/2 196/147/2
f 196/147/3 84/148/3 82/146/3
f 198/149/4 85/94/4 84/148/4
f 87/150/2 90/151/2 86/152/2
f 86/152/3 92/153/3 88/154/3
f 93/155/9 88/154/9 6/156/9
f 86/152/9 5/157/9 87/150/9
f 6/156/23 92/153/23 9/158/23
f 87/150/24 7/159/24 91/160/24
f 90/151/10 7/159/10 8/161/10
f 92/153/10 8/161/10 9/158/10
f 98/162/4 104/163/4 102/164/4
f 96/165/2 103/166/2 105/167/2
f 100/168/10 102/169/10 103/170/10
f 94/171/9 105/172/9 104/173/9
f 107/174/25 124/175/25 143/176/25
f 109/177/12 111/178/12 112/179/12
f 106/180/13 110/181/13 111/182/13
f 103/170/14 113/183/14 112/184/14
f 106/185/2 126/186/2 124/187/2
f 109/188/26 142/189/26 126/190/26
f 110/191/16 108/192/16 113/193/16
f 104/163/17 113/193/17 102/164/17
f 112/184/18 108/194/18 109/188/18
f 111/182/19 104/173/19 105/172/19
f 112/179/20 105/167/20 103/166/20
f 108/192/4 143/195/4 142/196/4
f 100/168/1 94/171/1 98/197/1
f 120/102/10 8/198/10 7/199/10
f 121/200/27 122/201/27 123/202/27
f 115/203/1 119/204/1 120/205/1
f 118/206/4 122/201/4 117/207/4
f 118/206/3 121/200/3 123/202/3
f 117/207/1 119/204/1 114/208/1
f 125/209/28 139/210/28 124/211/28
f 127/212/29 78/213/29 125/209/29
f 128/214/2 201/143/2 200/215/2
f 200/215/3 130/216/3 128/214/3
f 202/217/4 131/144/4 130/216/4
f 117/207/30 116/218/30 118/206/30
f 116/88/9 93/105/9 6/89/9
f 8/198/10 121/219/10 9/87/10
f 124/211/31 127/212/31 125/209/31
f 97/90/32 139/210/32 79/220/32
f 137/221/15 132/132/15 141/222/15
f 133/130/2 137/223/2 136/224/2
f 77/225/33 136/226/33 60/227/33
f 135/228/34 80/229/34 132/230/34
f 138/231/35 78/232/35 135/228/35
f 136/224/2 64/233/2 60/234/2
f 139/235/9 77/236/9 79/220/9
f 138/237/36 133/120/36 136/226/36
f 127/212/10 140/100/10 80/238/10
f 80/229/37 141/239/37 132/230/37
f 64/240/15 141/222/15 62/241/15
f 140/242/38 62/243/38 141/239/38
f 142/196/4 95/244/4 99/245/4
f 126/190/26 99/246/26 101/247/26
f 97/248/2 126/186/2 101/249/2
f 143/176/25 97/250/25 95/251/25
f 145/5/1 4/9/1 147/252/1
f 149/1/1 11/253/1 13/2/1
f 1/4/2 2/254/2 145/5/2
f 144/6/3 146/8/3 3/7/3
f 146/8/4 147/252/4 4/9/4
f 153/10/1 15/255/1 17/11/1
f 10/13/2 11/253/2 149/1/2
f 148/14/3 150/16/3 12/15/3
f 150/16/4 151/3/4 13/2/4
f 157/17/1 19/256/1 21/18/1
f 14/20/2 15/255/2 153/10/2
f 152/21/3 154/23/3 16/22/3
f 154/23/4 155/12/4 17/11/4
f 161/24/1 23/257/1 25/25/1
f 18/27/2 19/256/2 157/17/2
f 156/28/3 158/30/3 20/29/3
f 158/30/4 159/19/4 21/18/4
f 165/31/1 27/258/1 29/32/1
f 22/34/2 23/257/2 161/24/2
f 160/35/3 162/37/3 24/36/3
f 162/37/4 163/26/4 25/25/4
f 169/38/1 31/259/1 33/39/1
f 26/41/2 27/258/2 165/31/2
f 164/42/3 166/44/3 28/43/3
f 166/44/4 167/33/4 29/32/4
f 173/45/1 35/260/1 37/46/1
f 30/48/2 31/259/2 169/38/2
f 168/49/3 170/51/3 32/50/3
f 170/51/4 171/40/4 33/39/4
f 177/52/1 39/261/1 41/53/1
f 34/55/2 35/260/2 173/45/2
f 172/56/3 174/58/3 36/57/3
f 174/58/4 175/47/4 37/46/4
f 181/59/1 43/262/1 45/60/1
f 38/62/2 39/261/2 177/52/2
f 176/63/3 178/65/3 40/64/3
f 178/65/4 179/54/4 41/53/4
f 185/66/1 47/263/1 49/67/1
f 42/69/2 43/262/2 181/59/2
f 180/70/3 182/72/3 44/71/3
f 182/72/4 183/61/4 45/60/4
f 189/73/1 51/264/1 53/74/1
f 46/76/2 47/263/2 185/66/2
f 184/77/3 186/79/3 48/78/3
f 186/79/4 187/68/4 49/67/4
f 193/80/1 55/265/1 57/81/1
f 50/83/2 51/264/2 189/73/2
f 188/84/3 190/86/3 52/85/3
f 190/86/4 191/75/4 53/74/4
f 9/87/5 121/219/5 116/88/5
f 97/90/6 79/220/6 81/91/6
f 197/93/1 83/266/1 85/94/1
f 54/96/2 55/265/2 193/80/2
f 192/97/3 194/99/3 56/98/3
f 194/99/4 195/82/4 57/81/4
f 101/92/39 81/91/39 140/100/39
f 120/102/8 7/199/8 5/103/8
f 93/105/9 114/267/9 115/104/9
f 61/106/4 58/268/4 67/107/4
f 59/109/2 63/269/2 66/110/2
f 63/112/10 61/142/10 65/113/10
f 67/115/9 58/141/9 59/116/9
f 135/118/40 70/125/40 69/119/40
f 75/121/12 72/270/12 69/122/12
f 74/124/13 69/119/13 70/125/13
f 66/114/14 65/113/14 76/127/14
f 69/122/2 72/270/2 134/129/2
f 72/131/15 71/137/15 132/132/15
f 70/134/16 71/138/16 76/135/16
f 73/136/17 76/135/17 65/108/17
f 72/131/18 75/128/18 76/127/18
f 74/124/19 73/126/19 67/115/19
f 75/121/20 74/123/20 68/111/20
f 71/138/41 70/134/41 135/139/41
f 63/112/22 59/109/22 58/141/22
f 201/143/1 129/271/1 131/144/1
f 82/146/2 83/266/2 197/93/2
f 196/147/3 198/149/3 84/148/3
f 198/149/4 199/95/4 85/94/4
f 87/150/2 91/160/2 90/151/2
f 86/152/3 90/151/3 92/153/3
f 93/155/9 86/152/9 88/154/9
f 86/152/9 93/155/9 5/157/9
f 6/156/23 88/154/23 92/153/23
f 87/150/24 5/157/24 7/159/24
f 90/151/10 91/160/10 7/159/10
f 92/153/10 90/151/10 8/161/10
f 98/162/4 94/272/4 104/163/4
f 96/165/2 100/273/2 103/166/2
f 100/168/10 98/197/10 102/169/10
f 94/171/9 96/274/9 105/172/9
f 107/174/25 106/180/25 124/175/25
f 109/177/12 106/185/12 111/178/12
f 106/180/13 107/174/13 110/181/13
f 103/170/14 102/169/14 113/183/14
f 106/185/2 109/177/2 126/186/2
f 109/188/26 108/194/26 142/189/26
f 110/191/16 107/275/16 108/192/16
f 104/163/17 110/191/17 113/193/17
f 112/184/18 113/183/18 108/194/18
f 111/182/19 110/181/19 104/173/19
f 112/179/20 111/178/20 105/167/20
f 108/192/4 107/275/4 143/195/4
f 100/168/1 96/165/1 94/171/1
f 120/102/10 119/276/10 8/198/10
f 121/200/27 119/204/27 122/201/27
f 115/203/1 114/208/1 119/204/1
f 118/206/4 123/202/4 122/201/4
f 118/206/3 116/218/3 121/200/3
f 117/207/1 122/201/1 119/204/1
f 125/209/9 78/213/9 139/210/9
f 127/212/29 80/238/29 78/213/29
f 128/214/2 129/271/2 201/143/2
f 200/215/3 202/217/3 130/216/3
f 202/217/4 203/145/4 131/144/4
f 117/207/30 114/267/30 116/218/30
f 116/88/9 114/267/9 93/105/9
f 8/198/10 119/276/10 121/219/10
f 124/211/31 126/101/31 127/212/31
f 97/90/42 124/211/42 139/210/42
f 137/221/15 134/133/15 132/132/15
f 133/130/2 134/129/2 137/223/2
f 77/225/43 138/237/43 136/226/43
f 135/228/44 78/232/44 80/229/44
f 138/231/45 139/235/45 78/232/45
f 136/224/2 137/223/2 64/233/2
f 139/235/46 138/231/46 77/236/46
f 138/237/47 135/118/47 133/120/47
f 127/212/48 126/101/48 140/100/48
f 80/229/49 140/242/49 141/239/49
f 64/240/15 137/221/15 141/222/15
f 140/242/50 81/91/50 62/243/50
f 142/196/4 143/195/4 95/244/4
f 126/190/26 142/189/26 99/246/26
f 97/248/2 124/187/2 126/186/2
f 143/176/25 124/175/25 97/250/25
f 145/5/1 2/254/1 4/9/1
