# Blender v2.81 (sub 16) OBJ File: 'Boat2.0 - Joined.blend'
# www.blender.org
v 0.404262 0.436364 0.441005
v 0.404262 0.490869 0.441005
v 0.805192 0.436364 0.441005
v 0.805192 0.490869 0.441005
v 0.332416 1.637111 0.520916
v 0.514412 1.478374 0.520916
v 0.332416 1.637111 0.370770
v 0.506925 1.623975 0.370775
v 0.514412 1.478374 0.370770
v 0.673652 0.672197 0.441005
v 0.673652 0.726703 0.441005
v 1.074582 0.672197 0.441005
v 1.074582 0.726703 0.441005
v 0.943043 0.908030 0.441005
v 0.943043 0.962536 0.441005
v 1.343973 0.908030 0.441005
v 1.343973 0.962536 0.441005
v 1.212433 1.143864 0.441005
v 1.212433 1.198369 0.441005
v 1.613364 1.143864 0.441005
v 1.613364 1.198369 0.441005
v 1.481824 1.379697 0.441005
v 1.481824 1.434203 0.441005
v 1.882754 1.379697 0.441005
v 1.882754 1.434203 0.441005
v 1.751215 1.615530 0.441005
v 1.751215 1.670036 0.441005
v 2.152145 1.615530 0.441005
v 2.152145 1.670036 0.441005
v 2.020605 1.851364 0.441005
v 2.020605 1.905869 0.441005
v 2.421535 1.851364 0.441005
v 2.421535 1.905869 0.441005
v 2.289996 2.087197 0.441005
v 2.289996 2.141702 0.441005
v 2.690925 2.087197 0.441005
v 2.690926 2.141702 0.441005
v 2.559386 2.323030 0.441005
v 2.559386 2.377535 0.441005
v 2.960316 2.323030 0.441005
v 2.960316 2.377535 0.441005
v 2.828777 2.558863 0.441005
v 2.828777 2.613369 0.441005
v 3.229707 2.558863 0.441005
v 3.229707 2.613369 0.441005
v 3.098167 2.794696 0.441005
v 3.098167 2.849202 0.441005
v 3.499097 2.794696 0.441005
v 3.499097 2.849202 0.441005
v 3.367558 3.030529 0.441005
v 3.367558 3.085035 0.441005
v 3.768487 3.030529 0.441005
v 3.768488 3.085035 0.441005
v 3.636948 3.266363 0.441005
v 3.636948 3.320868 0.441005
v 4.037879 3.266363 0.441005
v 4.037879 3.320868 0.441005
v 0.108103 1.650108 0.502531
v 0.000000 1.573668 0.502531
v 0.000000 0.000000 0.502531
v 0.108103 1.650108 0.388775
v 0.108103 0.000000 0.388775
v -0.000000 1.573668 0.388775
v -0.000000 0.000000 0.388775
v 0.108103 1.198528 0.388775
v -0.000000 1.198528 0.388775
v 0.108103 1.198528 0.502531
v 0.000000 1.198528 0.502531
v -0.000000 0.852504 0.500328
v 0.108103 0.852504 0.500328
v 0.108103 0.852504 0.390978
v -0.000000 0.852504 0.390978
v 0.084663 1.029934 0.477242
v 0.023439 1.029934 0.477242
v 0.023439 1.029934 0.414064
v 0.084663 1.029934 0.414064
v 0.103467 0.000000 0.494207
v 0.125835 0.371220 0.494207
v 0.427483 0.001073 0.494207
v 0.125835 0.371220 0.397852
v 0.427483 0.001073 0.397852
v 0.134871 0.200531 0.441005
v 0.134871 0.255036 0.441005
v 0.535801 0.200531 0.441005
v 0.535801 0.255036 0.441005
v -0.089402 1.195460 0.520916
v -0.089402 1.318355 0.520916
v 0.147067 1.195460 0.520916
v 0.284291 1.462523 0.310814
v -0.089402 1.195460 0.370770
v -0.089402 1.318355 0.370770
v 0.147067 1.195460 0.370770
v 0.506927 1.623977 0.520916
v 4.557275 5.084808 0.501933
v 4.557275 3.538968 0.501933
v 4.448478 5.084808 0.501933
v 4.448478 3.538968 0.501933
v 4.557275 5.084808 0.387445
v 4.557275 3.538968 0.387445
v 4.448478 5.084808 0.387445
v 4.448478 3.538968 0.387445
v 4.557275 4.703771 0.387445
v 4.448478 4.703771 0.387445
v 4.557275 4.703771 0.501933
v 4.448478 4.703771 0.501933
v 4.448478 4.355522 0.499715
v 4.557275 4.355522 0.499715
v 4.557275 4.355522 0.389662
v 4.448478 4.355522 0.389662
v 4.533685 4.534092 0.476481
v 4.472067 4.534092 0.476481
v 4.472067 4.534092 0.412897
v 4.533685 4.534092 0.412897
v 4.278395 4.950147 0.520916
v 4.103882 4.950147 0.520916
v 4.285882 4.780043 0.520916
v 4.597342 4.950147 0.521231
v 4.597342 4.780043 0.521231
v 4.278395 4.950147 0.370775
v 4.103882 4.950147 0.370770
v 4.285882 4.780043 0.370770
v 4.597342 4.950147 0.370371
v 4.597342 4.780043 0.370371
v 4.448478 3.910311 0.500924
v 4.144797 3.909116 0.494207
v 4.448478 3.910311 0.388453
v 4.144797 3.909116 0.397852
v 3.906339 3.502196 0.441005
v 3.906339 3.556702 0.441005
v 4.307270 3.502196 0.441005
v 4.307270 3.556702 0.441005
v 0.108103 0.371942 0.389736
v -0.000000 0.371942 0.501570
v -0.000000 0.371942 0.389736
v 0.105489 0.371942 0.496877
v -0.000000 0.185971 0.502050
v -0.000000 0.185971 0.389256
v 0.104478 0.185971 0.495542
v 0.276659 0.186147 0.494207
v 0.294809 0.163875 0.397852
v 0.108103 0.177797 0.389234
v 4.557275 3.910311 0.388453
v 4.557275 3.910311 0.500924
v 0.404262 0.436364 -1.750692
v 0.404262 0.490869 -1.750692
v 0.805192 0.436364 -1.750692
v 0.805192 0.490869 -1.750692
v 0.673652 0.672197 -1.750692
v 0.673652 0.726703 -1.750692
v 1.074582 0.672197 -1.750692
v 1.074582 0.726703 -1.750692
v 0.943043 0.908030 -1.750692
v 0.943043 0.962536 -1.750692
v 1.343973 0.908030 -1.750692
v 1.343973 0.962536 -1.750692
v 1.212433 1.143864 -1.750692
v 1.212433 1.198369 -1.750692
v 1.613364 1.143864 -1.750692
v 1.613364 1.198369 -1.750692
v 1.481824 1.379697 -1.750692
v 1.481824 1.434203 -1.750692
v 1.882754 1.379697 -1.750692
v 1.882754 1.434203 -1.750692
v 1.751215 1.615530 -1.750692
v 1.751215 1.670036 -1.750692
v 2.152145 1.615530 -1.750692
v 2.152145 1.670036 -1.750692
v 2.020605 1.851364 -1.750692
v 2.020605 1.905869 -1.750692
v 2.421535 1.851364 -1.750692
v 2.421535 1.905869 -1.750692
v 2.289996 2.087197 -1.750692
v 2.289996 2.141702 -1.750692
v 2.690925 2.087197 -1.750692
v 2.690926 2.141702 -1.750692
v 2.559386 2.323030 -1.750692
v 2.559386 2.377535 -1.750692
v 2.960316 2.323030 -1.750692
v 2.960316 2.377535 -1.750692
v 2.828777 2.558863 -1.750692
v 2.828777 2.613369 -1.750692
v 3.229707 2.558863 -1.750692
v 3.229707 2.613369 -1.750692
v 3.098167 2.794696 -1.750692
v 3.098167 2.849202 -1.750692
v 3.499097 2.794696 -1.750692
v 3.499097 2.849202 -1.750692
v 3.367558 3.030529 -1.750692
v 3.367558 3.085035 -1.750692
v 3.768487 3.030529 -1.750692
v 3.768488 3.085035 -1.750692
v 3.636948 3.266363 -1.750692
v 3.636948 3.320868 -1.750692
v 4.037879 3.266363 -1.750692
v 4.037879 3.320868 -1.750692
v 0.134871 0.200531 -1.750693
v 0.134871 0.255036 -1.750693
v 0.535801 0.200531 -1.750693
v 0.535801 0.255036 -1.750693
v 3.906339 3.502196 -1.750693
v 3.906339 3.556702 -1.750693
v 4.307270 3.502196 -1.750693
v 4.307270 3.556702 -1.750693
vt 0.193095 0.207629
vt 0.076970 0.842426
vt 0.076971 0.207629
vt 0.208881 0.842427
vt 0.193095 0.207629
vt 0.208881 0.207629
vt 0.325005 0.842427
vt 0.061184 0.207629
vt 0.076970 0.842427
vt 0.061184 0.842427
vt 0.193095 0.207629
vt 0.076970 0.842427
vt 0.076971 0.207629
vt 0.208881 0.842427
vt 0.208881 0.207629
vt 0.325006 0.842427
vt 0.061184 0.207629
vt 0.061184 0.842426
vt 0.193095 0.207629
vt 0.076970 0.842426
vt 0.076971 0.207629
vt 0.208881 0.842427
vt 0.208881 0.207629
vt 0.325005 0.842427
vt 0.061184 0.207629
vt 0.061184 0.842427
vt 0.193095 0.207629
vt 0.076970 0.842427
vt 0.076971 0.207629
vt 0.208881 0.842426
vt 0.208881 0.207629
vt 0.325005 0.842426
vt 0.061184 0.207629
vt 0.061184 0.842426
vt 0.193095 0.207629
vt 0.076969 0.842426
vt 0.076970 0.207629
vt 0.208881 0.842427
vt 0.208881 0.207629
vt 0.325006 0.842427
vt 0.061184 0.207629
vt 0.061184 0.842427
vt 0.193095 0.207629
vt 0.076970 0.842427
vt 0.076971 0.207629
vt 0.208881 0.842426
vt 0.208881 0.207629
vt 0.325005 0.842426
vt 0.061184 0.207629
vt 0.061184 0.842426
vt 0.193095 0.207630
vt 0.076970 0.842427
vt 0.076971 0.207629
vt 0.208881 0.842427
vt 0.208881 0.207629
vt 0.325005 0.842427
vt 0.061184 0.207629
vt 0.061184 0.842427
vt 0.193094 0.207629
vt 0.076969 0.842426
vt 0.076970 0.207629
vt 0.208881 0.842427
vt 0.208881 0.207630
vt 0.325005 0.842427
vt 0.061184 0.207629
vt 0.061184 0.842427
vt 0.193095 0.207629
vt 0.076970 0.842427
vt 0.076971 0.207629
vt 0.208880 0.842426
vt 0.208880 0.207629
vt 0.325005 0.842426
vt 0.061183 0.207629
vt 0.061183 0.842426
vt 0.193095 0.207629
vt 0.076970 0.842427
vt 0.076971 0.207629
vt 0.208881 0.842427
vt 0.208881 0.207629
vt 0.325006 0.842427
vt 0.061184 0.207629
vt 0.061184 0.842427
vt 0.193095 0.207630
vt 0.076970 0.842427
vt 0.076971 0.207629
vt 0.208881 0.842427
vt 0.208881 0.207629
vt 0.325005 0.842427
vt 0.061184 0.207629
vt 0.061184 0.842427
vt 0.193095 0.207629
vt 0.076970 0.842426
vt 0.076971 0.207629
vt 0.208881 0.842427
vt 0.208881 0.207630
vt 0.325005 0.842427
vt 0.061184 0.207629
vt 0.061184 0.842427
vt 0.409017 0.823901
vt 0.429874 0.133487
vt 0.428478 0.823043
vt 0.624569 0.105020
vt 0.591299 0.866172
vt 0.608291 0.104626
vt 0.193095 0.207629
vt 0.076970 0.842427
vt 0.076970 0.207629
vt 0.208881 0.842426
vt 0.208881 0.207629
vt 0.325005 0.842426
vt 0.061183 0.207629
vt 0.061183 0.842426
vt 0.759275 0.109252
vt 0.730582 0.868716
vt 0.719766 0.074436
vt 0.476496 0.155765
vt 0.461687 0.828239
vt 0.462079 0.154520
vt 0.443262 0.810881
vt 0.909277 0.513871
vt 0.881069 0.417512
vt 0.904959 0.414565
vt 0.858509 0.498110
vt 0.835597 0.416989
vt 0.859076 0.418005
vt 0.832579 0.497810
vt 0.810867 0.413525
vt 0.885318 0.224647
vt 0.859477 0.328010
vt 0.861207 0.224441
vt 0.841064 0.372914
vt 0.859158 0.374300
vt 0.876683 0.375531
vt 0.824743 0.371996
vt 0.835790 0.224497
vt 0.836868 0.328635
vt 0.811123 0.224806
vt 0.882136 0.329266
vt 0.893529 0.376192
vt 0.813896 0.331052
vt 0.907263 0.332463
vt 0.909277 0.225034
vt 0.858161 0.528289
vt 0.832231 0.527990
vt 0.193094 0.207628
vt 0.076969 0.842426
vt 0.076970 0.207628
vt 0.208881 0.842427
vt 0.208881 0.207629
vt 0.325005 0.842427
vt 0.061183 0.207629
vt 0.061184 0.842427
vt 0.466684 0.892054
vt 0.492374 0.914903
vt 0.456261 0.910829
vt 0.485958 0.971778
vt 0.449845 0.967704
vt 0.433753 0.885974
vt 0.413119 0.887368
vt 0.485523 0.827677
vt 0.481301 0.891358
vt 0.504281 0.809250
vt 0.515444 0.889240
vt 0.520460 0.822054
vt 0.923780 0.577182
vt 0.946871 0.662896
vt 0.920666 0.659289
vt 0.872945 0.577172
vt 0.898091 0.658396
vt 0.874856 0.659352
vt 0.898994 0.576842
vt 0.848115 0.578101
vt 0.852017 0.662272
vt 0.849803 0.744845
vt 0.871254 0.844949
vt 0.846961 0.844255
vt 0.897964 0.749064
vt 0.879902 0.701403
vt 0.898124 0.702559
vt 0.874823 0.748114
vt 0.863511 0.700881
vt 0.915779 0.703740
vt 0.896964 0.845305
vt 0.921779 0.845011
vt 0.943803 0.745700
vt 0.932735 0.704619
vt 0.920447 0.748323
vt 0.947464 0.844409
vt 0.872632 0.552417
vt 0.898681 0.552088
vt 0.508685 0.132515
vt 0.485735 0.062502
vt 0.520460 0.068933
vt 0.487733 0.124673
vt 0.417273 0.072657
vt 0.439551 0.035782
vt 0.448048 0.063076
vt 0.406177 0.136743
vt 0.390000 0.080458
vt 0.450746 0.124886
vt 0.685260 0.170753
vt 0.637693 0.869087
vt 0.665226 0.071024
vt 0.697365 0.170123
vt 0.673497 0.877245
vt 0.208880 0.842426
vt 0.208880 0.207628
vt 0.325005 0.842426
vt 0.061183 0.207628
vt 0.061183 0.842426
vt 0.605001 0.866505
vt 0.835511 0.182093
vt 0.810780 0.180388
vt 0.861292 0.182032
vt 0.885065 0.139509
vt 0.861308 0.139495
vt 0.673655 0.880191
vt 0.689406 0.878313
vt 0.689539 0.881385
vt 0.648535 0.888833
vt 0.835277 0.139562
vt 0.628361 0.901416
vt 0.885242 0.182073
vt 0.717436 0.889418
vt 0.810542 0.139706
vt 0.736591 0.901003
vt 0.949313 0.929274
vt 0.923147 0.929765
vt 0.898288 0.930153
vt 0.868883 0.927865
vt 0.844590 0.927171
vt 0.076971 0.207629
vt 0.193094 0.842427
vt 0.193094 0.842427
vt 0.325005 0.207629
vt 0.193094 0.842427
vt 0.325006 0.207629
vt 0.193094 0.842426
vt 0.325005 0.207629
vt 0.193094 0.842427
vt 0.325005 0.207629
vt 0.193094 0.842426
vt 0.325006 0.207629
vt 0.193094 0.842427
vt 0.325005 0.207629
vt 0.193094 0.842427
vt 0.325005 0.207629
vt 0.193094 0.842426
vt 0.325005 0.207629
vt 0.193094 0.842427
vt 0.325005 0.207629
vt 0.193094 0.842427
vt 0.325006 0.207629
vt 0.193094 0.842427
vt 0.325005 0.207629
vt 0.193094 0.842426
vt 0.325005 0.207630
vt 0.193094 0.842427
vt 0.325005 0.207629
vt 0.759275 0.866666
vt 0.883387 0.514803
vt 0.808004 0.514160
vt 0.193093 0.842426
vt 0.325005 0.207629
vt 0.949313 0.577915
vt 0.408775 0.045364
vt 0.325005 0.207628
vn 0.0000 1.0000 0.0000
vn -1.0000 0.0000 0.0000
vn 0.0000 -1.0000 0.0000
vn 1.0000 0.0000 0.0000
vn 0.6587 -0.7524 0.0000
vn 0.6606 -0.7508 0.0000
vn -0.0047 0.0027 -1.0000
vn -0.6600 0.7513 0.0000
vn 0.0000 0.0000 1.0000
vn 0.0000 0.0000 -1.0000
vn 0.0444 0.0026 0.9990
vn -0.9914 0.1310 0.0000
vn 0.0000 0.1290 0.9916
vn 0.0000 -0.1483 -0.9889
vn 0.0000 0.0026 -1.0000
vn 0.9914 0.1310 0.0000
vn 0.9905 -0.1377 0.0000
vn 0.0000 0.1290 -0.9916
vn 0.0000 -0.1483 0.9889
vn -0.9905 -0.1377 -0.0000
vn 0.9997 -0.0001 0.0244
vn -0.5774 0.8165 0.0000
vn 0.6102 -0.7923 0.0000
vn -0.6029 0.7978 0.0000
vn 0.0000 0.0027 1.0000
vn 0.0000 0.0027 -1.0000
vn -0.0013 0.0000 -1.0000
vn -0.0222 0.0231 0.9995
vn -0.6608 0.7506 0.0000
vn -0.0010 0.0000 1.0000
vn -0.0039 1.0000 0.0000
vn -0.0011 -0.0009 1.0000
vn 0.0802 0.0026 0.9968
vn 0.0402 0.9992 0.0010
vn 0.1299 -0.0078 0.9915
vn 0.0622 0.0026 0.9981
vn 0.4162 0.0024 -0.9093
vn 0.0463 0.0026 -0.9989
vn -0.0015 -0.0012 -1.0000
vn 0.0000 -0.0072 1.0000
vn 1.0000 -0.0054 0.0000
vn -0.0040 0.0027 1.0000
vn 0.0622 -0.0075 0.9980
vn 0.0354 0.9994 0.0000
vn 0.0077 0.0063 1.0000
vn 0.0078 -0.0072 0.9999
vn 0.0444 -0.0074 0.9990
vn -0.0310 0.0319 -0.9990
vn 0.0490 0.0400 -0.9980
vn 0.0283 0.0231 -0.9993
s off
f 149/1/1 13/2/1 151/3/1
f 1/4/2 145/5/2 144/6/2
f 144/6/3 3/7/3 1/4/3
f 146/8/4 4/9/4 3/10/4
f 153/11/1 17/12/1 155/13/1
f 10/14/2 149/1/2 148/15/2
f 148/15/3 12/16/3 10/14/3
f 150/17/4 13/2/4 12/18/4
f 157/19/1 21/20/1 159/21/1
f 14/22/2 153/11/2 152/23/2
f 152/23/3 16/24/3 14/22/3
f 154/25/4 17/12/4 16/26/4
f 161/27/1 25/28/1 163/29/1
f 18/30/2 157/19/2 156/31/2
f 156/31/3 20/32/3 18/30/3
f 158/33/4 21/20/4 20/34/4
f 165/35/1 29/36/1 167/37/1
f 22/38/2 161/27/2 160/39/2
f 160/39/3 24/40/3 22/38/3
f 162/41/4 25/28/4 24/42/4
f 169/43/1 33/44/1 171/45/1
f 26/46/2 165/35/2 164/47/2
f 164/47/3 28/48/3 26/46/3
f 166/49/4 29/36/4 28/50/4
f 173/51/1 37/52/1 175/53/1
f 30/54/2 169/43/2 168/55/2
f 168/55/3 32/56/3 30/54/3
f 170/57/4 33/44/4 32/58/4
f 177/59/1 41/60/1 179/61/1
f 34/62/2 173/51/2 172/63/2
f 172/63/3 36/64/3 34/62/3
f 174/65/4 37/52/4 36/66/4
f 181/67/1 45/68/1 183/69/1
f 38/70/2 177/59/2 176/71/2
f 176/71/3 40/72/3 38/70/3
f 178/73/4 41/60/4 40/74/4
f 185/75/1 49/76/1 187/77/1
f 42/78/2 181/67/2 180/79/2
f 180/79/3 44/80/3 42/78/3
f 182/81/4 45/68/4 44/82/4
f 189/83/1 53/84/1 191/85/1
f 46/86/2 185/75/2 184/87/2
f 184/87/3 48/88/3 46/86/3
f 186/89/4 49/76/4 48/90/4
f 193/91/1 57/92/1 195/93/1
f 50/94/2 189/83/2 188/95/2
f 188/95/3 52/96/3 50/94/3
f 190/97/4 53/84/4 52/98/4
f 9/99/5 116/100/5 6/101/5
f 97/102/6 81/103/6 101/104/6
f 197/105/1 85/106/1 199/107/1
f 54/108/2 193/91/2 192/109/2
f 192/109/3 56/110/3 54/108/3
f 194/111/4 57/92/4 56/112/4
f 101/113/7 140/114/7 126/115/7
f 120/116/8 5/117/8 115/118/8
f 93/119/9 115/118/9 5/117/9
f 61/120/4 67/121/4 65/122/4
f 59/123/2 66/124/2 68/125/2
f 63/126/10 65/127/10 66/124/10
f 67/121/9 59/123/9 68/125/9
f 135/128/11 69/129/11 133/130/11
f 75/131/12 69/129/12 74/132/12
f 69/129/13 73/133/13 74/132/13
f 66/124/14 76/134/14 75/131/14
f 69/129/2 134/135/2 133/130/2
f 72/136/15 132/137/15 134/135/15
f 70/138/16 76/139/16 73/133/16
f 73/133/17 65/122/17 67/121/17
f 75/131/18 71/140/18 72/136/18
f 74/132/19 67/121/19 68/125/19
f 75/131/20 68/125/20 66/124/20
f 71/141/21 135/128/21 132/142/21
f 63/126/22 58/143/22 61/144/22
f 201/145/1 131/146/1 203/147/1
f 82/148/2 197/105/2 196/149/2
f 196/149/3 84/150/3 82/148/3
f 198/151/4 85/106/4 84/152/4
f 87/153/2 90/154/2 86/155/2
f 86/155/3 92/156/3 88/157/3
f 93/119/9 88/158/9 6/101/9
f 86/155/9 5/117/9 87/153/9
f 6/101/23 92/159/23 9/99/23
f 87/153/24 7/160/24 91/161/24
f 90/154/10 7/160/10 8/162/10
f 92/163/10 8/162/10 9/164/10
f 98/165/4 104/166/4 102/167/4
f 96/168/2 103/169/2 105/170/2
f 100/171/10 102/167/10 103/169/10
f 94/172/9 105/170/9 104/173/9
f 107/174/25 124/175/25 143/176/25
f 109/177/12 111/178/12 112/179/12
f 106/180/13 110/181/13 111/178/13
f 103/169/14 113/182/14 112/179/14
f 106/180/2 126/183/2 124/175/2
f 109/177/26 142/184/26 126/183/26
f 107/185/16 113/182/16 110/186/16
f 110/186/17 102/167/17 104/166/17
f 112/179/18 108/187/18 109/177/18
f 111/178/19 104/173/19 105/170/19
f 112/179/20 105/170/20 103/169/20
f 108/187/4 143/188/4 142/184/4
f 100/171/1 94/189/1 98/190/1
f 120/116/10 8/162/10 7/160/10
f 121/191/27 122/192/27 123/193/27
f 115/118/1 119/194/1 120/116/1
f 118/195/4 122/196/4 117/197/4
f 118/195/3 121/198/3 123/199/3
f 117/197/1 119/194/1 114/200/1
f 125/201/28 139/202/28 124/203/28
f 127/204/29 78/205/29 125/201/29
f 128/206/2 201/145/2 200/207/2
f 200/207/3 130/208/3 128/206/3
f 202/209/4 131/146/4 130/210/4
f 117/197/30 116/100/30 118/195/30
f 116/100/9 93/119/9 6/101/9
f 8/162/10 121/191/10 9/164/10
f 124/203/31 127/204/31 125/201/31
f 97/102/32 139/202/32 79/211/32
f 137/212/15 132/137/15 141/213/15
f 133/130/2 137/212/2 136/214/2
f 77/215/33 136/214/33 60/216/33
f 135/217/34 80/218/34 132/219/34
f 138/220/35 78/205/35 135/217/35
f 60/216/2 137/212/2 64/221/2
f 139/202/9 77/222/9 79/211/9
f 138/223/36 133/130/36 136/214/36
f 127/204/10 140/114/10 80/218/10
f 80/218/37 141/224/37 132/219/37
f 64/221/15 141/213/15 62/225/15
f 140/114/38 62/226/38 141/224/38
f 142/184/4 95/227/4 99/228/4
f 126/183/26 99/228/26 101/229/26
f 143/176/25 97/230/25 95/231/25
f 145/5/1 4/9/1 147/232/1
f 149/1/1 11/233/1 13/2/1
f 1/4/2 2/234/2 145/5/2
f 144/6/3 146/235/3 3/7/3
f 146/8/4 147/232/4 4/9/4
f 153/11/1 15/236/1 17/12/1
f 10/14/2 11/233/2 149/1/2
f 148/15/3 150/237/3 12/16/3
f 150/17/4 151/3/4 13/2/4
f 157/19/1 19/238/1 21/20/1
f 14/22/2 15/236/2 153/11/2
f 152/23/3 154/239/3 16/24/3
f 154/25/4 155/13/4 17/12/4
f 161/27/1 23/240/1 25/28/1
f 18/30/2 19/238/2 157/19/2
f 156/31/3 158/241/3 20/32/3
f 158/33/4 159/21/4 21/20/4
f 165/35/1 27/242/1 29/36/1
f 22/38/2 23/240/2 161/27/2
f 160/39/3 162/243/3 24/40/3
f 162/41/4 163/29/4 25/28/4
f 169/43/1 31/244/1 33/44/1
f 26/46/2 27/242/2 165/35/2
f 164/47/3 166/245/3 28/48/3
f 166/49/4 167/37/4 29/36/4
f 173/51/1 35/246/1 37/52/1
f 30/54/2 31/244/2 169/43/2
f 168/55/3 170/247/3 32/56/3
f 170/57/4 171/45/4 33/44/4
f 177/59/1 39/248/1 41/60/1
f 34/62/2 35/246/2 173/51/2
f 172/63/3 174/249/3 36/64/3
f 174/65/4 175/53/4 37/52/4
f 181/67/1 43/250/1 45/68/1
f 38/70/2 39/248/2 177/59/2
f 176/71/3 178/251/3 40/72/3
f 178/73/4 179/61/4 41/60/4
f 185/75/1 47/252/1 49/76/1
f 42/78/2 43/250/2 181/67/2
f 180/79/3 182/253/3 44/80/3
f 182/81/4 183/69/4 45/68/4
f 189/83/1 51/254/1 53/84/1
f 46/86/2 47/252/2 185/75/2
f 184/87/3 186/255/3 48/88/3
f 186/89/4 187/77/4 49/76/4
f 193/91/1 55/256/1 57/92/1
f 50/94/2 51/254/2 189/83/2
f 188/95/3 190/257/3 52/96/3
f 190/97/4 191/85/4 53/84/4
f 9/99/5 121/198/5 116/100/5
f 97/102/6 79/211/6 81/103/6
f 197/105/1 83/258/1 85/106/1
f 54/108/2 55/256/2 193/91/2
f 192/109/3 194/259/3 56/110/3
f 194/111/4 195/93/4 57/92/4
f 101/113/39 81/260/39 140/114/39
f 120/116/8 7/160/8 5/117/8
f 93/119/9 114/200/9 115/118/9
f 61/120/4 58/261/4 67/121/4
f 59/123/2 63/126/2 66/124/2
f 63/126/10 61/262/10 65/127/10
f 67/121/9 58/261/9 59/123/9
f 135/128/40 70/138/40 69/129/40
f 75/131/12 72/136/12 69/129/12
f 69/129/13 70/138/13 73/133/13
f 66/124/14 65/127/14 76/134/14
f 69/129/2 72/136/2 134/135/2
f 72/136/15 71/140/15 132/137/15
f 70/138/16 71/141/16 76/139/16
f 73/133/17 76/139/17 65/122/17
f 75/131/18 76/134/18 71/140/18
f 74/132/19 73/133/19 67/121/19
f 75/131/20 74/132/20 68/125/20
f 71/141/41 70/138/41 135/128/41
f 63/126/22 59/123/22 58/143/22
f 201/145/1 129/263/1 131/146/1
f 82/148/2 83/258/2 197/105/2
f 196/149/3 198/264/3 84/150/3
f 198/151/4 199/107/4 85/106/4
f 87/153/2 91/161/2 90/154/2
f 86/155/3 90/154/3 92/156/3
f 93/119/9 86/155/9 88/158/9
f 86/155/9 93/119/9 5/117/9
f 6/101/23 88/158/23 92/159/23
f 87/153/24 5/117/24 7/160/24
f 90/154/10 91/161/10 7/160/10
f 92/163/10 90/154/10 8/162/10
f 98/165/4 94/265/4 104/166/4
f 96/168/2 100/171/2 103/169/2
f 100/171/10 98/165/10 102/167/10
f 94/172/9 96/168/9 105/170/9
f 107/174/25 106/180/25 124/175/25
f 109/177/12 106/180/12 111/178/12
f 106/180/13 107/174/13 110/181/13
f 103/169/14 102/167/14 113/182/14
f 106/180/2 109/177/2 126/183/2
f 109/177/26 108/187/26 142/184/26
f 107/185/16 108/187/16 113/182/16
f 110/186/17 113/182/17 102/167/17
f 112/179/18 113/182/18 108/187/18
f 111/178/19 110/181/19 104/173/19
f 112/179/20 111/178/20 105/170/20
f 108/187/4 107/185/4 143/188/4
f 100/171/1 96/168/1 94/189/1
f 120/116/10 119/194/10 8/162/10
f 121/191/27 119/194/27 122/192/27
f 115/118/1 114/200/1 119/194/1
f 118/195/4 123/266/4 122/196/4
f 118/195/3 116/100/3 121/198/3
f 117/197/1 122/192/1 119/194/1
f 125/201/9 78/205/9 139/202/9
f 127/204/29 80/218/29 78/205/29
f 128/206/2 129/263/2 201/145/2
f 200/207/3 202/267/3 130/208/3
f 202/209/4 203/147/4 131/146/4
f 117/197/30 114/200/30 116/100/30
f 116/100/9 114/200/9 93/119/9
f 8/162/10 119/194/10 121/191/10
f 124/203/31 126/115/31 127/204/31
f 97/102/42 124/203/42 139/202/42
f 137/212/15 134/135/15 132/137/15
f 133/130/2 134/135/2 137/212/2
f 77/215/43 138/223/43 136/214/43
f 135/217/44 78/205/44 80/218/44
f 138/220/45 139/202/45 78/205/45
f 60/216/2 136/214/2 137/212/2
f 139/202/46 138/220/46 77/222/46
f 138/223/47 135/128/47 133/130/47
f 127/204/48 126/115/48 140/114/48
f 80/218/49 140/114/49 141/224/49
f 64/221/15 137/212/15 141/213/15
f 140/114/50 81/260/50 62/226/50
f 142/184/4 143/188/4 95/227/4
f 126/183/26 142/184/26 99/228/26
f 143/176/25 124/175/25 97/230/25
f 145/5/1 2/234/1 4/9/1
