# Blender v2.81 (sub 16) OBJ File: 'Boat2.0 - Joined.blend'
# www.blender.org
v 0.441005 0.436364 -0.404262
v 0.441005 0.490869 -0.404262
v 0.441005 0.436364 -0.805192
v 0.441005 0.490869 -0.805192
v 0.441005 0.672197 -0.673652
v 0.441005 0.726703 -0.673652
v 0.441005 0.672197 -1.074583
v 0.441005 0.726703 -1.074583
v 0.441005 0.908030 -0.943043
v 0.441005 0.962536 -0.943043
v 0.441005 0.908030 -1.343973
v 0.441005 0.962536 -1.343973
v 0.441005 1.143864 -1.212433
v 0.441005 1.198369 -1.212433
v 0.441005 1.143864 -1.613364
v 0.441005 1.198369 -1.613364
v 0.441005 1.379697 -1.481824
v 0.441005 1.434203 -1.481824
v 0.441005 1.379697 -1.882754
v 0.441005 1.434203 -1.882754
v 0.441005 1.615530 -1.751215
v 0.441005 1.670036 -1.751215
v 0.441005 1.615530 -2.152145
v 0.441005 1.670036 -2.152145
v 0.441005 1.851364 -2.020605
v 0.441005 1.905869 -2.020605
v 0.441005 1.851364 -2.421535
v 0.441005 1.905869 -2.421535
v 0.441005 2.087197 -2.289996
v 0.441005 2.141702 -2.289996
v 0.441005 2.087197 -2.690925
v 0.441005 2.141702 -2.690926
v 0.441005 2.323030 -2.559386
v 0.441005 2.377535 -2.559386
v 0.441005 2.323030 -2.960316
v 0.441005 2.377535 -2.960316
v 0.441005 2.558863 -2.828777
v 0.441005 2.613369 -2.828777
v 0.441005 2.558863 -3.229707
v 0.441005 2.613369 -3.229707
v 0.441005 2.794696 -3.098167
v 0.441005 2.849202 -3.098167
v 0.441005 2.794696 -3.499097
v 0.441005 2.849202 -3.499097
v 0.441005 3.030529 -3.367558
v 0.441005 3.085035 -3.367558
v 0.441005 3.030529 -3.768487
v 0.441005 3.085035 -3.768488
v 0.441005 3.266363 -3.636948
v 0.441005 3.320868 -3.636948
v 0.441005 3.266363 -4.037879
v 0.441005 3.320868 -4.037879
v 0.496614 -0.049441 -0.103467
v 0.496614 0.371220 -0.125835
v 0.496614 -0.048369 -0.427483
v 0.397852 0.371220 -0.125835
v 0.397852 -0.048369 -0.427483
v 0.441005 0.200531 -0.134871
v 0.441005 0.255036 -0.134871
v 0.441005 0.200531 -0.535801
v 0.441005 0.255036 -0.535801
v 0.496613 3.538968 -4.448478
v 0.387444 3.538968 -4.448478
v 0.496613 3.910311 -4.448478
v 0.496613 3.909116 -4.144797
v 0.388453 3.910311 -4.448478
v 0.397851 3.909116 -4.144797
v 0.441005 3.502196 -3.906339
v 0.441005 3.556702 -3.906339
v 0.441005 3.502196 -4.307270
v 0.441005 3.556702 -4.307270
v 0.388775 -0.049441 -0.108103
v -1.750693 0.436364 -0.404261
v -1.750693 0.490869 -0.404261
v -1.750693 0.436364 -0.805192
v -1.750693 0.490869 -0.805192
v -1.750693 0.672197 -0.673652
v -1.750693 0.726703 -0.673652
v -1.750693 0.672197 -1.074582
v -1.750693 0.726703 -1.074582
v -1.750693 0.908030 -0.943042
v -1.750693 0.962536 -0.943042
v -1.750693 0.908030 -1.343972
v -1.750693 0.962536 -1.343973
v -1.750693 1.143864 -1.212433
v -1.750693 1.198369 -1.212433
v -1.750693 1.143864 -1.613363
v -1.750693 1.198369 -1.613363
v -1.750693 1.379697 -1.481823
v -1.750693 1.434203 -1.481823
v -1.750693 1.379697 -1.882753
v -1.750693 1.434203 -1.882753
v -1.750693 1.615530 -1.751214
v -1.750693 1.670036 -1.751214
v -1.750693 1.615530 -2.152145
v -1.750693 1.670036 -2.152145
v -1.750693 1.851364 -2.020604
v -1.750693 1.905869 -2.020604
v -1.750693 1.851364 -2.421535
v -1.750693 1.905869 -2.421535
v -1.750693 2.087197 -2.289995
v -1.750693 2.141702 -2.289995
v -1.750693 2.087197 -2.690925
v -1.750693 2.141702 -2.690926
v -1.750693 2.323030 -2.559386
v -1.750693 2.377535 -2.559386
v -1.750693 2.323030 -2.960316
v -1.750693 2.377535 -2.960316
v -1.750693 2.558863 -2.828777
v -1.750693 2.613369 -2.828777
v -1.750693 2.558863 -3.229707
v -1.750693 2.613369 -3.229707
v -1.750693 2.794696 -3.098167
v -1.750693 2.849202 -3.098167
v -1.750693 2.794696 -3.499097
v -1.750693 2.849202 -3.499097
v -1.750693 3.030529 -3.367558
v -1.750693 3.085035 -3.367558
v -1.750693 3.030529 -3.768487
v -1.750693 3.085035 -3.768488
v -1.750693 3.266363 -3.636948
v -1.750693 3.320868 -3.636948
v -1.750693 3.266363 -4.037878
v -1.750693 3.320868 -4.037878
v -1.750693 0.200531 -0.134871
v -1.750693 0.255036 -0.134871
v -1.750693 0.200531 -0.535801
v -1.750693 0.255036 -0.535801
v -1.750694 3.502196 -3.906339
v -1.750694 3.556702 -3.906339
v -1.750694 3.502196 -4.307269
v -1.750694 3.556702 -4.307269
v -1.806962 -0.049441 -0.108102
v -1.705793 -0.049441 -0.103466
v -1.705793 0.371220 -0.125834
v -1.705793 -0.048369 -0.427483
v -1.806962 0.371220 -0.125834
v -1.806962 -0.048369 -0.427483
v -1.698068 3.538968 -4.448477
v -1.806962 3.538968 -4.448477
v -1.699077 3.910311 -4.448477
v -1.705794 3.909116 -4.144796
v -1.806962 3.910311 -4.448477
v -1.806962 3.909116 -4.144796
vt 0.116631 0.302774
vt 0.204531 0.783285
vt 0.116630 0.783285
vt 0.216481 0.783285
vt 0.204532 0.302774
vt 0.216481 0.302774
vt 0.304381 0.302774
vt 0.304382 0.783285
vt 0.104681 0.302773
vt 0.116630 0.783285
vt 0.104681 0.783285
vt 0.204532 0.302774
vt 0.116630 0.783285
vt 0.116631 0.302774
vt 0.216481 0.783285
vt 0.204532 0.302774
vt 0.216481 0.302774
vt 0.304382 0.783285
vt 0.104681 0.302774
vt 0.104681 0.783285
vt 0.204531 0.302774
vt 0.116630 0.783285
vt 0.116631 0.302774
vt 0.216481 0.783286
vt 0.216481 0.302774
vt 0.304381 0.783285
vt 0.104681 0.302774
vt 0.104681 0.783285
vt 0.204532 0.302774
vt 0.116630 0.783285
vt 0.116631 0.302774
vt 0.216481 0.783285
vt 0.216481 0.302774
vt 0.304382 0.783285
vt 0.104681 0.302774
vt 0.104681 0.783285
vt 0.204532 0.302774
vt 0.116630 0.783285
vt 0.116631 0.302774
vt 0.216481 0.783286
vt 0.216481 0.302774
vt 0.304381 0.783286
vt 0.104681 0.302774
vt 0.104681 0.783285
vt 0.204532 0.302774
vt 0.116630 0.783285
vt 0.116631 0.302774
vt 0.216481 0.783286
vt 0.216481 0.302774
vt 0.304381 0.783286
vt 0.104681 0.302774
vt 0.104681 0.783285
vt 0.204532 0.302774
vt 0.116630 0.783285
vt 0.116631 0.302774
vt 0.216481 0.783285
vt 0.216481 0.302774
vt 0.304382 0.783285
vt 0.104681 0.302774
vt 0.104681 0.783285
vt 0.204531 0.302774
vt 0.116630 0.783285
vt 0.116631 0.302774
vt 0.216481 0.783286
vt 0.216481 0.302774
vt 0.304381 0.783286
vt 0.104681 0.302774
vt 0.104681 0.783285
vt 0.204532 0.302774
vt 0.116630 0.783285
vt 0.116631 0.302774
vt 0.216480 0.783286
vt 0.216480 0.302774
vt 0.304381 0.783286
vt 0.104681 0.302774
vt 0.104681 0.783285
vt 0.204532 0.302774
vt 0.116630 0.783285
vt 0.116631 0.302774
vt 0.216481 0.783286
vt 0.216481 0.302774
vt 0.304381 0.783285
vt 0.104681 0.302774
vt 0.104681 0.783285
vt 0.204532 0.302774
vt 0.116630 0.783285
vt 0.116631 0.302774
vt 0.216481 0.783286
vt 0.216481 0.302774
vt 0.304382 0.783285
vt 0.104681 0.302774
vt 0.104681 0.783285
vt 0.116631 0.302774
vt 0.204531 0.783285
vt 0.116630 0.783285
vt 0.216481 0.783286
vt 0.216481 0.302774
vt 0.304382 0.783286
vt 0.104681 0.302774
vt 0.104681 0.783285
vt 0.856167 0.141796
vt 0.850479 0.876444
vt 0.840855 0.148440
vt 0.204531 0.302774
vt 0.116631 0.783286
vt 0.116631 0.302774
vt 0.216481 0.783285
vt 0.204532 0.302774
vt 0.216481 0.302774
vt 0.304381 0.302774
vt 0.304382 0.783285
vt 0.104681 0.302774
vt 0.104681 0.783285
vt 0.893581 0.107700
vt 0.863939 0.876302
vt 0.204531 0.302774
vt 0.116630 0.783285
vt 0.116631 0.302774
vt 0.216481 0.783286
vt 0.216481 0.302774
vt 0.304381 0.783286
vt 0.104681 0.302774
vt 0.104681 0.783286
vt 0.763722 0.137597
vt 0.720659 0.914373
vt 0.736318 0.106082
vt 0.777304 0.137626
vt 0.762136 0.873928
vt 0.216481 0.783286
vt 0.216481 0.302774
vt 0.304381 0.783286
vt 0.104681 0.302774
vt 0.104681 0.783285
vt 0.817462 0.914103
vt 0.804875 0.106228
vt 0.116631 0.302773
vt 0.204531 0.783285
vt 0.841331 0.150784
vt 0.864065 0.876446
vt 0.848283 0.876610
vt 0.893523 0.111179
vt 0.856274 0.145129
vt 0.763596 0.139937
vt 0.718517 0.914026
vt 0.736355 0.108450
vt 0.777463 0.140005
vt 0.759969 0.873830
vt 0.815312 0.914026
vt 0.773838 0.873898
vt 0.804999 0.108789
vt 0.545090 0.486254
vt 0.551418 0.459263
vt 0.551418 0.486254
vt 0.545655 0.553527
vt 0.518678 0.560009
vt 0.518664 0.553520
vt 0.820149 0.096779
vt 0.204531 0.783285
vt 0.304381 0.302774
vt 0.204531 0.783285
vt 0.304381 0.302774
vt 0.204531 0.783286
vt 0.304381 0.302774
vt 0.204531 0.783285
vt 0.304381 0.302774
vt 0.204531 0.783285
vt 0.304381 0.302774
vt 0.204531 0.783286
vt 0.304381 0.302774
vt 0.204530 0.783286
vt 0.304381 0.302774
vt 0.204531 0.783285
vt 0.304381 0.302774
vt 0.204531 0.783285
vt 0.304381 0.302774
vt 0.204531 0.783286
vt 0.304381 0.302774
vt 0.304381 0.302774
vt 0.204531 0.783286
vt 0.893581 0.909045
vt 0.204531 0.783286
vt 0.304381 0.302774
vt 0.775719 0.873958
vt 0.304381 0.302774
vt 0.893581 0.909045
vt 0.544502 0.459277
vt 0.545655 0.560009
vt 0.818436 0.095238
vn 0.0000 1.0000 -0.0000
vn 0.0000 0.0000 1.0000
vn 0.0000 -1.0000 0.0000
vn -0.0000 0.0000 -1.0000
vn 0.0000 -0.7462 -0.6657
vn 1.0000 0.0000 -0.0000
vn 0.0000 0.7506 0.6608
vn -0.9989 0.0340 0.0310
vn -0.9991 -0.0313 -0.0285
vn 1.0000 0.0027 0.0043
vn 0.9995 0.0227 0.0222
vn -1.0000 -0.0000 0.0000
vn 0.0000 0.0531 0.9986
vn -0.0457 0.0530 0.9975
vn -0.9996 0.0224 0.0197
vn -1.0000 0.0027 0.0050
vn 1.0000 -0.0017 -0.0000
vn -0.0429 0.0430 0.9982
vn 0.0000 0.0421 0.9991
s off
f 80/1/1 6/2/1 8/3/1
f 1/4/2 74/5/2 73/6/2
f 1/4/3 75/7/3 3/8/3
f 75/9/4 4/10/4 3/11/4
f 82/12/1 12/13/1 84/14/1
f 5/15/2 78/16/2 77/17/2
f 77/17/3 7/18/3 5/15/3
f 79/19/4 8/3/4 7/20/4
f 86/21/1 16/22/1 88/23/1
f 9/24/2 82/12/2 81/25/2
f 81/25/3 11/26/3 9/24/3
f 83/27/4 12/13/4 11/28/4
f 90/29/1 20/30/1 92/31/1
f 13/32/2 86/21/2 85/33/2
f 85/33/3 15/34/3 13/32/3
f 87/35/4 16/22/4 15/36/4
f 94/37/1 24/38/1 96/39/1
f 17/40/2 90/29/2 89/41/2
f 89/41/3 19/42/3 17/40/3
f 91/43/4 20/30/4 19/44/4
f 98/45/1 28/46/1 100/47/1
f 21/48/2 94/37/2 93/49/2
f 93/49/3 23/50/3 21/48/3
f 95/51/4 24/38/4 23/52/4
f 102/53/1 32/54/1 104/55/1
f 25/56/2 98/45/2 97/57/2
f 97/57/3 27/58/3 25/56/3
f 99/59/4 28/46/4 27/60/4
f 106/61/1 36/62/1 108/63/1
f 29/64/2 102/53/2 101/65/2
f 101/65/3 31/66/3 29/64/3
f 103/67/4 32/54/4 31/68/4
f 110/69/1 40/70/1 112/71/1
f 33/72/2 106/61/2 105/73/2
f 105/73/3 35/74/3 33/72/3
f 107/75/4 36/62/4 35/76/4
f 114/77/1 44/78/1 116/79/1
f 37/80/2 110/69/2 109/81/2
f 109/81/3 39/82/3 37/80/3
f 111/83/4 40/70/4 39/84/4
f 118/85/1 48/86/1 120/87/1
f 41/88/2 114/77/2 113/89/2
f 113/89/3 43/90/3 41/88/3
f 115/91/4 44/78/4 43/92/4
f 124/93/1 50/94/1 52/95/1
f 45/96/2 118/85/2 117/97/2
f 117/97/3 47/98/3 45/96/3
f 119/99/4 48/86/4 47/100/4
f 62/101/5 57/102/5 63/103/5
f 126/104/1 61/105/1 128/106/1
f 49/107/2 122/108/2 121/109/2
f 49/107/3 123/110/3 51/111/3
f 123/112/4 52/95/4 51/113/4
f 64/114/6 55/115/6 62/101/6
f 130/116/1 71/117/1 132/118/1
f 58/119/2 126/104/2 125/120/2
f 125/120/3 60/121/3 58/119/3
f 127/122/4 61/105/4 60/123/4
f 65/124/6 53/125/6 64/126/6
f 67/127/7 54/128/7 65/124/7
f 68/129/2 130/116/2 129/130/2
f 129/130/3 70/131/3 68/129/3
f 131/132/4 71/117/4 70/133/4
f 72/134/8 67/127/8 66/135/8
f 66/135/9 57/102/9 72/134/9
f 76/136/1 2/137/1 4/10/1
f 140/138/5 136/139/5 138/140/5
f 141/141/10 136/139/10 139/142/10
f 142/143/11 134/144/11 141/145/11
f 144/146/7 135/147/7 142/143/7
f 144/146/12 133/148/12 137/149/12
f 143/150/12 138/140/12 133/148/12
f 56/151/13 53/152/13 54/153/13
f 135/154/14 133/155/14 134/156/14
f 140/138/4 141/157/4 139/142/4
f 66/135/4 62/101/4 63/103/4
f 80/1/1 78/16/1 6/2/1
f 1/4/2 2/137/2 74/5/2
f 1/4/3 73/6/3 75/7/3
f 75/9/4 76/136/4 4/10/4
f 82/12/1 10/158/1 12/13/1
f 5/15/2 6/2/2 78/16/2
f 77/17/3 79/159/3 7/18/3
f 79/19/4 80/1/4 8/3/4
f 86/21/1 14/160/1 16/22/1
f 9/24/2 10/158/2 82/12/2
f 81/25/3 83/161/3 11/26/3
f 83/27/4 84/14/4 12/13/4
f 90/29/1 18/162/1 20/30/1
f 13/32/2 14/160/2 86/21/2
f 85/33/3 87/163/3 15/34/3
f 87/35/4 88/23/4 16/22/4
f 94/37/1 22/164/1 24/38/1
f 17/40/2 18/162/2 90/29/2
f 89/41/3 91/165/3 19/42/3
f 91/43/4 92/31/4 20/30/4
f 98/45/1 26/166/1 28/46/1
f 21/48/2 22/164/2 94/37/2
f 93/49/3 95/167/3 23/50/3
f 95/51/4 96/39/4 24/38/4
f 102/53/1 30/168/1 32/54/1
f 25/56/2 26/166/2 98/45/2
f 97/57/3 99/169/3 27/58/3
f 99/59/4 100/47/4 28/46/4
f 106/61/1 34/170/1 36/62/1
f 29/64/2 30/168/2 102/53/2
f 101/65/3 103/171/3 31/66/3
f 103/67/4 104/55/4 32/54/4
f 110/69/1 38/172/1 40/70/1
f 33/72/2 34/170/2 106/61/2
f 105/73/3 107/173/3 35/74/3
f 107/75/4 108/63/4 36/62/4
f 114/77/1 42/174/1 44/78/1
f 37/80/2 38/172/2 110/69/2
f 109/81/3 111/175/3 39/82/3
f 111/83/4 112/71/4 40/70/4
f 118/85/1 46/176/1 48/86/1
f 41/88/2 42/174/2 114/77/2
f 113/89/3 115/177/3 43/90/3
f 115/91/4 116/79/4 44/78/4
f 124/93/1 122/108/1 50/94/1
f 45/96/2 46/176/2 118/85/2
f 117/97/3 119/178/3 47/98/3
f 119/99/4 120/87/4 48/86/4
f 62/101/5 55/115/5 57/102/5
f 126/104/1 59/179/1 61/105/1
f 49/107/2 50/94/2 122/108/2
f 49/107/3 121/109/3 123/110/3
f 123/112/4 124/93/4 52/95/4
f 64/114/6 53/180/6 55/115/6
f 130/116/1 69/181/1 71/117/1
f 58/119/2 59/179/2 126/104/2
f 125/120/3 127/182/3 60/121/3
f 127/122/4 128/106/4 61/105/4
f 65/124/6 54/128/6 53/125/6
f 67/127/7 56/183/7 54/128/7
f 68/129/2 69/181/2 130/116/2
f 129/130/3 131/184/3 70/131/3
f 131/132/4 132/118/4 71/117/4
f 72/134/15 56/183/15 67/127/15
f 66/135/16 63/103/16 57/102/16
f 76/136/1 74/5/1 2/137/1
f 140/138/5 139/142/5 136/139/5
f 141/141/17 134/185/17 136/139/17
f 142/143/6 135/147/6 134/144/6
f 144/146/7 137/149/7 135/147/7
f 144/146/12 143/150/12 133/148/12
f 143/150/12 140/138/12 138/140/12
f 56/151/18 72/186/18 53/152/18
f 135/154/19 137/187/19 133/155/19
f 140/138/4 143/150/4 141/157/4
f 66/135/4 64/188/4 62/101/4
