# Blender v2.81 (sub 16) OBJ File: 'garbage.blend'
# www.blender.org
v -0.000000 -0.374748 -0.273864
v -0.000000 0.879447 -0.089977
v 0.136932 -0.374748 -0.237174
v 0.044989 0.879447 -0.077922
v 0.237174 -0.374748 -0.136932
v 0.077922 0.879447 -0.044988
v 0.273864 -0.374748 0.000000
v 0.089977 0.879447 0.000000
v 0.237174 -0.374748 0.136932
v 0.077922 0.879447 0.044989
v 0.136932 -0.374748 0.237174
v 0.044989 0.879447 0.077923
v 0.000000 -0.374748 0.273864
v 0.000000 0.879447 0.089977
v -0.136932 -0.374748 0.237174
v -0.044989 0.879447 0.077923
v -0.237174 -0.374748 0.136932
v -0.077922 0.879447 0.044989
v -0.273864 -0.374748 0.000000
v -0.089977 0.879447 0.000000
v -0.237174 -0.374748 -0.136932
v -0.077923 0.879447 -0.044988
v -0.136932 -0.374748 -0.237173
v -0.044989 0.879447 -0.077922
v 0.136932 0.401992 -0.237174
v 0.237174 0.401992 -0.136932
v 0.273864 0.401992 0.000000
v 0.237174 0.401992 0.136932
v 0.136932 0.401992 0.237174
v 0.000000 0.401992 0.273864
v -0.136932 0.401992 0.237174
v -0.237174 0.401992 0.136932
v -0.273864 0.401992 0.000000
v -0.237174 0.401992 -0.136932
v -0.136932 0.401992 -0.237173
v -0.000000 0.401992 -0.273864
v 0.059088 0.879447 -0.102344
v -0.000000 0.879447 -0.118177
v -0.000000 0.860262 -0.118177
v 0.102344 0.879447 -0.059088
v 0.118177 0.879447 0.000000
v 0.102344 0.879447 0.059088
v 0.059088 0.879447 0.102344
v 0.000000 0.879447 0.118177
v -0.059088 0.879447 0.102344
v -0.102344 0.879447 0.059088
v -0.118177 0.879447 0.000000
v -0.102344 0.879447 -0.059088
v -0.059088 0.879447 -0.102344
v 0.059088 0.860262 -0.102344
v 0.102344 0.860262 -0.059088
v 0.118177 0.860262 0.000000
v 0.102344 0.860262 0.059088
v 0.059088 0.860262 0.102344
v 0.000000 0.860262 0.118177
v -0.059088 0.860262 0.102344
v -0.102344 0.860262 0.059088
v -0.118177 0.860262 0.000000
v -0.102344 0.860262 -0.059088
v -0.059088 0.860262 -0.102344
v -0.000000 0.450708 -0.252759
v 0.126380 0.450708 -0.218896
v 0.218896 0.450708 -0.126379
v 0.252759 0.450708 0.000000
v 0.218896 0.450708 0.126380
v 0.126380 0.450708 0.218896
v 0.000000 0.450708 0.252759
v -0.126379 0.450708 0.218896
v -0.218896 0.450708 0.126380
v -0.252759 0.450708 0.000000
v -0.218896 0.450708 -0.126379
v -0.126380 0.450708 -0.218896
v -0.098114 0.853243 0.000000
v 0.084969 0.853243 -0.049057
v -0.049057 0.853243 -0.084969
v -0.084969 0.853243 -0.049057
v 0.084969 0.853243 0.049057
v 0.098114 0.853243 0.000000
v 0.049057 0.853243 -0.084969
v -0.084969 0.853243 0.049057
v -0.000000 0.853243 -0.098114
v -0.049057 0.853243 0.084969
v 0.000000 0.853243 0.098114
v 0.049057 0.853243 0.084969
v -0.000000 -0.374748 0.000000
v 0.118587 -0.374748 0.068466
v -0.118587 -0.374748 -0.068466
v 0.044989 0.854200 -0.077922
v -0.000000 0.854200 -0.089977
v 0.077922 0.854200 -0.044988
v 0.089977 0.854200 0.000000
v 0.077922 0.854200 0.044989
v 0.044989 0.854200 0.077923
v -0.000000 0.854200 0.089977
v -0.044989 0.854200 0.077923
v -0.077922 0.854200 0.044989
v -0.089977 0.854200 0.000000
v -0.077923 0.854200 -0.044988
v -0.044989 0.854200 -0.077922
v 0.050539 0.595202 -0.087537
v 0.061515 0.553178 -0.106546
v 0.087537 0.595202 -0.050539
v 0.106546 0.553178 -0.061515
v 0.101079 0.595202 0.000000
v 0.123029 0.553178 0.000000
v 0.087537 0.595202 0.050539
v 0.106546 0.553178 0.061515
v 0.050539 0.595202 0.087537
v 0.061515 0.553178 0.106547
v 0.000000 0.595202 0.101079
v 0.000000 0.553178 0.123029
v -0.050539 0.595202 0.087537
v -0.061515 0.553178 0.106547
v -0.087537 0.595202 0.050539
v -0.106546 0.553178 0.061515
v -0.101079 0.595202 0.000000
v -0.123029 0.553178 0.000000
v -0.087537 0.595202 -0.050539
v -0.106547 0.553178 -0.061515
v -0.050539 0.595202 -0.087536
v -0.061515 0.553178 -0.106546
v -0.000000 0.553178 -0.123029
v -0.000000 0.595202 -0.101078
vt 0.516666 0.332718
vt 0.517195 0.332649
vt 0.517148 0.332834
vt 0.517302 0.332232
vt 0.517708 0.332566
vt 0.517237 0.332475
vt 0.521043 0.332898
vt 0.520553 0.332787
vt 0.521024 0.332719
vt 0.517674 0.332742
vt 0.517635 0.332928
vt 0.520961 0.332295
vt 0.520535 0.332614
vt 0.520514 0.332370
vt 0.518685 0.332429
vt 0.518181 0.332633
vt 0.518222 0.332386
vt 0.521552 0.332651
vt 0.521524 0.332839
vt 0.518156 0.332810
vt 0.518126 0.332998
vt 0.516186 0.332586
vt 0.515713 0.332238
vt 0.516244 0.332396
vt 0.516390 0.331994
vt 0.515786 0.332031
vt 0.515950 0.331822
vt 0.517812 0.332049
vt 0.517761 0.332320
vt 0.519147 0.332449
vt 0.519602 0.332692
vt 0.519130 0.332697
vt 0.518640 0.332855
vt 0.518620 0.333043
vt 0.523385 0.343365
vt 0.523745 0.344538
vt 0.522822 0.344985
vt 0.516223 0.334475
vt 0.515704 0.334269
vt 0.514963 0.334400
vt 0.514681 0.336059
vt 0.513781 0.335526
vt 0.521551 0.335032
vt 0.523044 0.335722
vt 0.522264 0.336197
vt 0.521517 0.336513
vt 0.520391 0.335356
vt 0.520777 0.336726
vt 0.520039 0.336864
vt 0.519144 0.335474
vt 0.519297 0.336937
vt 0.518509 0.335467
vt 0.518551 0.336952
vt 0.517872 0.335415
vt 0.517801 0.336911
vt 0.516779 0.334643
vt 0.516617 0.335175
vt 0.517044 0.336812
vt 0.516279 0.336649
vt 0.517359 0.334771
vt 0.517239 0.335319
vt 0.517952 0.334859
vt 0.518551 0.334908
vt 0.519148 0.334917
vt 0.519114 0.333062
vt 0.519738 0.334888
vt 0.519605 0.333055
vt 0.520314 0.334821
vt 0.520091 0.333024
vt 0.520865 0.334715
vt 0.521375 0.334570
vt 0.521816 0.334396
vt 0.515703 0.332461
vt 0.515229 0.334034
vt 0.514498 0.336432
vt 0.514528 0.340527
vt 0.513537 0.340310
vt 0.513526 0.335953
vt 0.512553 0.340078
vt 0.522427 0.336540
vt 0.524379 0.340129
vt 0.523394 0.340379
vt 0.521626 0.336847
vt 0.522410 0.340593
vt 0.520850 0.337057
vt 0.521427 0.340762
vt 0.520082 0.337194
vt 0.520443 0.340882
vt 0.519314 0.337268
vt 0.519458 0.340951
vt 0.518543 0.337284
vt 0.518473 0.340967
vt 0.517767 0.337246
vt 0.517487 0.340930
vt 0.516985 0.337150
vt 0.516501 0.340843
vt 0.516189 0.336993
vt 0.515515 0.340707
vt 0.515367 0.336762
vt 0.516770 0.332362
vt 0.516720 0.332535
vt 0.518656 0.332677
vt 0.519124 0.332874
vt 0.519605 0.332868
vt 0.520082 0.332839
vt 0.520071 0.332664
vt 0.521001 0.332545
vt 0.516303 0.332224
vt 0.520062 0.332419
vt 0.519606 0.332445
vt 0.516846 0.332122
vt 0.520571 0.332970
vt 0.521394 0.332189
vt 0.523298 0.336086
vt 0.515497 0.336408
vt 0.524395 0.342668
vt 0.523948 0.341745
vt 0.522450 0.343040
vt 0.520951 0.344335
vt 0.521515 0.342715
vt 0.522078 0.341095
vt 0.521800 0.344911
vt 0.523100 0.341169
vt 0.520505 0.343412
vt 0.520579 0.342389
vt 0.521155 0.341541
vt 0.521337 0.331942
vt 0.520483 0.332104
vt 0.520915 0.332035
vt 0.520045 0.332151
vt 0.519602 0.332175
vt 0.519157 0.332177
vt 0.518709 0.332157
vt 0.518260 0.332114
vt 0.516923 0.331855
vt 0.517366 0.331963
vt 0.516486 0.331722
vt 0.515454 0.334724
vt 0.516017 0.334979
vt 0.519774 0.335438
vt 0.520988 0.335225
vt 0.524321 0.343690
vt 0.522043 0.334757
vt 0.521522 0.332442
vt 0.516050 0.331557
vn 0.0881 -0.9402 -0.3290
vn 0.0000 1.0000 0.0000
vn -0.3290 -0.9402 0.0881
vn 0.2408 -0.9402 -0.2408
vn -0.3290 -0.9402 -0.0881
vn 0.3290 -0.9402 -0.0881
vn -0.2408 -0.9402 -0.2408
vn -0.7071 0.0000 0.7071
vn 0.3290 -0.9402 0.0881
vn 0.0000 -1.0000 0.0000
vn -0.2588 0.0111 -0.9659
vn -0.4476 0.7741 -0.4476
vn -0.6115 0.7741 -0.1638
vn -0.6115 0.7741 0.1638
vn -0.4476 0.7741 0.4476
vn -0.1638 0.7741 0.6115
vn 0.1638 0.7741 0.6115
vn 0.4476 0.7741 0.4476
vn 0.6115 0.7741 0.1638
vn 0.2588 0.0111 -0.9659
vn 0.4476 0.7741 -0.4476
vn 0.7071 0.0111 -0.7071
vn 0.6115 0.7741 -0.1638
vn 0.9659 0.0111 -0.2588
vn 0.9659 0.0111 0.2588
vn 0.7071 0.0111 0.7071
vn 0.2588 0.0111 0.9659
vn -0.2588 0.0111 0.9659
vn -0.7071 0.0111 0.7071
vn -0.9659 0.0111 0.2588
vn -0.9659 0.0111 -0.2588
vn -0.7071 0.0111 -0.7071
vn -0.2588 0.0000 -0.9659
vn -0.7071 0.0000 -0.7071
vn -0.9659 0.0000 -0.2588
vn -0.9659 0.0000 0.2588
vn -0.2588 0.0000 0.9659
vn 0.2588 0.0000 0.9659
vn 0.7071 0.0000 0.7071
vn 0.9659 0.0000 0.2588
vn 0.9659 0.0000 -0.2588
vn 0.7071 0.0000 -0.7071
vn 0.2588 0.0000 -0.9659
vn -0.2408 -0.9402 0.2408
vn -0.0881 -0.9402 0.3290
vn 0.0881 -0.9402 0.3290
vn 0.2408 -0.9402 0.2408
vn -0.0881 -0.9402 -0.3290
vn -0.2388 0.3860 -0.8911
vn -0.6523 0.3860 -0.6523
vn -0.8911 0.3860 -0.2388
vn -0.8911 0.3860 0.2388
vn -0.6523 0.3860 0.6523
vn -0.2388 0.3860 0.8911
vn 0.2388 0.3860 0.8911
vn 0.6523 0.3860 0.6523
vn 0.8911 0.3860 0.2388
vn 0.8911 0.3860 -0.2388
vn 0.6523 0.3860 -0.6523
vn 0.2388 0.3860 -0.8911
vn -0.1638 0.7741 -0.6115
vn 0.2311 0.4505 -0.8624
vn 0.6313 0.4505 -0.6313
vn 0.8624 0.4505 -0.2311
vn 0.8624 0.4505 0.2311
vn 0.6313 0.4505 0.6313
vn 0.2311 0.4505 0.8624
vn -0.2311 0.4505 0.8624
vn -0.6313 0.4505 0.6313
vn -0.8624 0.4505 0.2311
vn -0.8624 0.4505 -0.2311
vn -0.6313 0.4505 -0.6313
vn -0.2311 0.4505 -0.8624
vn 0.1638 0.7741 -0.6115
s off
f 81/1/1 50/2/1 79/3/1
f 4/4/2 40/5/2 37/6/2
f 73/7/3 57/8/3 58/9/3
f 79/3/4 51/10/4 74/11/4
f 20/12/2 46/13/2 18/14/2
f 10/15/2 41/16/2 8/17/2
f 73/7/5 59/18/5 76/19/5
f 74/11/6 52/20/6 78/21/6
f 75/22/7 59/23/7 60/24/7
f 24/25/2 48/26/2 22/27/2
f 4/4/8 90/28/8 6/29/8
f 12/30/2 44/31/2 43/32/2
f 78/21/9 53/33/9 77/34/9
f 86/35/10 11/36/10 13/37/10
f 75/22/11 123/38/11 120/39/11
f 119/40/12 72/41/12 71/42/12
f 117/43/13 71/44/13 70/45/13
f 69/46/14 117/43/14 70/45/14
f 113/47/15 69/46/15 68/48/15
f 67/49/16 113/47/16 68/48/16
f 109/50/17 67/49/17 66/51/17
f 107/52/18 66/51/18 65/53/18
f 105/54/19 65/53/19 64/55/19
f 123/38/20 79/3/20 100/56/20
f 101/57/21 63/58/21 62/59/21
f 100/56/22 74/11/22 102/60/22
f 103/61/23 64/55/23 63/58/23
f 74/11/24 104/62/24 102/60/24
f 78/21/25 106/63/25 104/62/25
f 77/34/26 108/64/26 106/63/26
f 84/65/27 110/66/27 108/64/27
f 83/67/28 112/68/28 110/66/28
f 82/69/29 114/70/29 112/68/29
f 114/70/30 73/7/30 116/71/30
f 116/71/31 76/19/31 118/72/31
f 76/73/32 120/39/32 118/74/32
f 35/75/33 1/76/33 23/77/33
f 34/78/34 23/77/34 21/79/34
f 33/80/35 21/81/35 19/82/35
f 32/83/36 19/82/36 17/84/36
f 31/85/8 17/84/8 15/86/8
f 30/87/37 15/86/37 13/88/37
f 29/89/38 13/88/38 11/90/38
f 28/91/39 11/90/39 9/92/39
f 27/93/40 9/92/40 7/94/40
f 26/95/41 7/94/41 5/96/41
f 25/97/42 5/96/42 3/98/42
f 36/99/43 3/98/43 1/76/43
f 38/100/43 50/2/43 39/101/43
f 37/6/42 51/10/42 50/2/42
f 40/5/41 52/20/41 51/10/41
f 41/16/40 53/33/40 52/20/40
f 42/102/39 54/103/39 53/33/39
f 43/32/38 55/104/38 54/103/38
f 44/31/37 56/105/37 55/104/37
f 45/106/8 57/8/8 56/105/8
f 46/13/36 58/9/36 57/8/36
f 47/107/35 59/18/35 58/9/35
f 48/26/34 60/24/34 59/23/34
f 49/108/33 39/101/33 60/24/33
f 16/109/2 44/31/2 14/110/2
f 2/111/2 49/108/2 24/25/2
f 82/69/44 57/8/44 80/112/44
f 82/69/45 55/104/45 56/105/45
f 12/30/2 42/102/2 10/15/2
f 22/113/2 47/107/2 20/12/2
f 84/65/46 55/104/46 83/67/46
f 6/29/2 41/16/2 40/5/2
f 16/109/2 46/13/2 45/106/2
f 2/111/2 37/6/2 38/100/2
f 77/34/47 54/103/47 84/65/47
f 75/22/48 39/101/48 81/1/48
f 72/41/49 36/99/49 35/75/49
f 71/42/50 35/75/50 34/78/50
f 33/80/51 71/44/51 34/114/51
f 69/46/52 33/80/52 32/83/52
f 68/48/53 32/83/53 31/85/53
f 67/49/54 31/85/54 30/87/54
f 66/51/55 30/87/55 29/89/55
f 65/53/56 29/89/56 28/91/56
f 64/55/57 28/91/57 27/93/57
f 26/95/58 64/55/58 27/93/58
f 62/59/59 26/95/59 25/97/59
f 61/115/60 25/97/60 36/99/60
f 7/116/10 86/35/10 5/117/10
f 85/118/10 17/119/10 87/120/10
f 1/121/10 85/118/10 87/120/10
f 85/118/10 13/37/10 15/122/10
f 5/117/10 85/118/10 3/123/10
f 87/120/10 19/124/10 21/125/10
f 23/126/10 87/120/10 21/125/10
f 20/12/40 98/127/40 22/113/40
f 20/12/41 96/128/41 97/129/41
f 18/14/42 95/130/42 96/128/42
f 16/109/43 94/131/43 95/130/43
f 14/110/33 93/132/33 94/131/33
f 12/30/34 92/133/34 93/132/34
f 10/15/35 91/134/35 92/133/35
f 24/25/38 89/135/38 2/111/38
f 2/111/37 88/136/37 4/4/37
f 6/29/36 91/134/36 8/17/36
f 22/27/39 99/137/39 24/25/39
f 121/138/61 61/115/61 72/41/61
f 123/38/62 101/57/62 122/139/62
f 102/60/63 101/57/63 100/56/63
f 104/62/64 103/61/64 102/60/64
f 106/63/65 105/54/65 104/62/65
f 108/64/66 107/52/66 106/63/66
f 108/64/67 111/140/67 109/50/67
f 110/66/68 113/47/68 111/140/68
f 112/68/69 115/141/69 113/47/69
f 114/70/70 117/43/70 115/141/70
f 118/72/71 117/43/71 116/71/71
f 120/39/72 119/40/72 118/74/72
f 123/38/73 121/138/73 120/39/73
f 122/139/74 62/59/74 61/115/74
f 81/1/1 39/101/1 50/2/1
f 4/4/2 6/29/2 40/5/2
f 73/7/3 80/112/3 57/8/3
f 79/3/4 50/2/4 51/10/4
f 20/12/2 47/107/2 46/13/2
f 10/15/2 42/102/2 41/16/2
f 73/7/5 58/9/5 59/18/5
f 74/11/6 51/10/6 52/20/6
f 75/22/7 76/73/7 59/23/7
f 24/25/2 49/108/2 48/26/2
f 4/4/8 88/136/8 90/28/8
f 12/30/2 14/110/2 44/31/2
f 78/21/9 52/20/9 53/33/9
f 86/35/10 9/142/10 11/36/10
f 75/22/11 81/1/11 123/38/11
f 119/40/12 121/138/12 72/41/12
f 117/43/13 119/143/13 71/44/13
f 69/46/14 115/141/14 117/43/14
f 113/47/15 115/141/15 69/46/15
f 67/49/16 111/140/16 113/47/16
f 109/50/17 111/140/17 67/49/17
f 107/52/18 109/50/18 66/51/18
f 105/54/19 107/52/19 65/53/19
f 123/38/20 81/1/20 79/3/20
f 101/57/21 103/61/21 63/58/21
f 100/56/22 79/3/22 74/11/22
f 103/61/23 105/54/23 64/55/23
f 74/11/24 78/21/24 104/62/24
f 78/21/25 77/34/25 106/63/25
f 77/34/26 84/65/26 108/64/26
f 84/65/27 83/67/27 110/66/27
f 83/67/28 82/69/28 112/68/28
f 82/69/29 80/112/29 114/70/29
f 114/70/30 80/112/30 73/7/30
f 116/71/31 73/7/31 76/19/31
f 76/73/32 75/22/32 120/39/32
f 35/75/33 36/99/33 1/76/33
f 34/78/34 35/75/34 23/77/34
f 33/80/35 34/114/35 21/81/35
f 32/83/36 33/80/36 19/82/36
f 31/85/8 32/83/8 17/84/8
f 30/87/37 31/85/37 15/86/37
f 29/89/38 30/87/38 13/88/38
f 28/91/39 29/89/39 11/90/39
f 27/93/40 28/91/40 9/92/40
f 26/95/41 27/93/41 7/94/41
f 25/97/42 26/95/42 5/96/42
f 36/99/43 25/97/43 3/98/43
f 38/100/43 37/6/43 50/2/43
f 37/6/42 40/5/42 51/10/42
f 40/5/41 41/16/41 52/20/41
f 41/16/40 42/102/40 53/33/40
f 42/102/39 43/32/39 54/103/39
f 43/32/38 44/31/38 55/104/38
f 44/31/37 45/106/37 56/105/37
f 45/106/8 46/13/8 57/8/8
f 46/13/36 47/107/36 58/9/36
f 47/107/35 48/144/35 59/18/35
f 48/26/34 49/108/34 60/24/34
f 49/108/33 38/100/33 39/101/33
f 16/109/2 45/106/2 44/31/2
f 2/111/2 38/100/2 49/108/2
f 82/69/44 56/105/44 57/8/44
f 82/69/45 83/67/45 55/104/45
f 12/30/2 43/32/2 42/102/2
f 22/113/2 48/144/2 47/107/2
f 84/65/46 54/103/46 55/104/46
f 6/29/2 8/17/2 41/16/2
f 16/109/2 18/14/2 46/13/2
f 2/111/2 4/4/2 37/6/2
f 77/34/47 53/33/47 54/103/47
f 75/22/48 60/24/48 39/101/48
f 72/41/49 61/115/49 36/99/49
f 71/42/50 72/41/50 35/75/50
f 33/80/51 70/45/51 71/44/51
f 69/46/52 70/45/52 33/80/52
f 68/48/53 69/46/53 32/83/53
f 67/49/54 68/48/54 31/85/54
f 66/51/55 67/49/55 30/87/55
f 65/53/56 66/51/56 29/89/56
f 64/55/57 65/53/57 28/91/57
f 26/95/58 63/58/58 64/55/58
f 62/59/59 63/58/59 26/95/59
f 61/115/60 62/59/60 25/97/60
f 7/116/10 9/142/10 86/35/10
f 85/118/10 15/122/10 17/119/10
f 1/121/10 3/123/10 85/118/10
f 85/118/10 86/35/10 13/37/10
f 5/117/10 86/35/10 85/118/10
f 87/120/10 17/119/10 19/124/10
f 23/126/10 1/121/10 87/120/10
f 20/12/40 97/129/40 98/127/40
f 20/12/41 18/14/41 96/128/41
f 18/14/42 16/109/42 95/130/42
f 16/109/43 14/110/43 94/131/43
f 14/110/33 12/30/33 93/132/33
f 12/30/34 10/15/34 92/133/34
f 10/15/35 8/17/35 91/134/35
f 24/25/38 99/137/38 89/135/38
f 2/111/37 89/135/37 88/136/37
f 6/29/36 90/28/36 91/134/36
f 22/27/39 98/145/39 99/137/39
f 121/138/61 122/139/61 61/115/61
f 123/38/62 100/56/62 101/57/62
f 102/60/63 103/61/63 101/57/63
f 104/62/64 105/54/64 103/61/64
f 106/63/65 107/52/65 105/54/65
f 108/64/66 109/50/66 107/52/66
f 108/64/67 110/66/67 111/140/67
f 110/66/68 112/68/68 113/47/68
f 112/68/69 114/70/69 115/141/69
f 114/70/70 116/71/70 117/43/70
f 118/72/71 119/143/71 117/43/71
f 120/39/72 121/138/72 119/40/72
f 123/38/73 122/139/73 121/138/73
f 122/139/74 101/57/74 62/59/74
