# Blender v2.81 (sub 16) OBJ File: 'garbage.blend'
# www.blender.org
v -0.415674 0.599516 -0.035273
v -0.412134 0.589150 -0.051562
v -0.411385 0.571906 -0.060911
v -0.413627 0.552405 -0.060815
v -0.418260 0.535873 -0.051300
v -0.402785 0.595630 -0.021921
v -0.389811 0.582419 -0.028435
v -0.385608 0.564134 -0.034206
v -0.391304 0.545675 -0.037688
v -0.405371 0.531987 -0.037948
v -0.396771 0.555711 0.001042
v -0.400971 0.538380 -0.007162
v -0.410953 0.527776 -0.020324
v -0.426837 0.591094 -0.000025
v -0.433711 0.555061 0.009586
v -0.432962 0.537817 0.000237
v -0.429423 0.527451 -0.016052
v -0.439725 0.594980 -0.013377
v -0.453793 0.581292 -0.013637
v -0.459488 0.562833 -0.017119
v -0.455286 0.544548 -0.022890
v -0.442311 0.531337 -0.029404
v -0.434144 0.599191 -0.031001
v -0.444125 0.588586 -0.044163
v -0.448325 0.571255 -0.052367
v -0.445618 0.551842 -0.053416
v -0.436730 0.535548 -0.047028
v -0.408367 0.591419 -0.004297
v -0.399478 0.575125 0.002091
v -0.431469 0.574561 0.009490
v -0.461600 0.586886 0.020747
v -0.463421 0.587435 0.018860
v -0.441488 0.593646 0.008062
v -0.452197 0.565813 0.013971
v -0.447868 0.595570 0.001453
v -0.462093 0.568797 0.003719
v -0.405009 0.581069 0.034258
v -0.412581 0.580936 0.036010
v -0.409324 0.587483 0.024044
v -0.408413 0.568551 0.025246
v -0.412794 0.587422 0.024847
v -0.411893 0.568489 0.026051
vt 0.274240 0.539347
vt 0.265397 0.539709
vt 0.266768 0.532487
vt 0.231414 0.551290
vt 0.214659 0.541092
vt 0.231357 0.542861
vt 0.231940 0.569242
vt 0.215985 0.562822
vt 0.231472 0.559719
vt 0.230890 0.533338
vt 0.220414 0.530957
vt 0.213134 0.552274
vt 0.289666 0.544440
vt 0.282983 0.540904
vt 0.290637 0.536818
vt 0.279682 0.529141
vt 0.275518 0.536619
vt 0.273707 0.532162
vt 0.280945 0.538772
vt 0.286431 0.530872
vt 0.290637 0.551375
vt 0.284312 0.543753
vt 0.278488 0.537315
vt 0.276318 0.541045
vt 0.804698 0.251197
vt 0.792375 0.255919
vt 0.792638 0.252041
vt 0.786357 0.239035
vt 0.792578 0.249274
vt 0.791489 0.249454
vt 0.271776 0.541127
vt 0.760733 0.199751
vt 0.757502 0.209505
vt 0.750621 0.206121
vt 0.278108 0.542645
vt 0.273009 0.544115
vt 0.772804 0.201934
vt 0.766718 0.213101
vt 0.766203 0.208706
vt 0.264007 0.548518
vt 0.277612 0.547903
vt 0.268747 0.555467
vt 0.275021 0.546378
vt 0.280714 0.548498
vt 0.281954 0.545638
vt 0.276612 0.557409
vt 0.240880 0.530957
vt 0.248168 0.561486
vt 0.249693 0.550306
vt 0.246843 0.539760
vt 0.242415 0.571620
vt 0.762287 0.211045
vt 0.762255 0.210544
vt 0.761023 0.221925
vt 0.757316 0.212491
vt 0.750922 0.216572
vt 0.772804 0.220841
vt 0.791613 0.252007
vt 0.791097 0.255536
vt 0.780068 0.250772
vt 0.780487 0.263708
vt 0.804698 0.264828
vt 0.798786 0.238814
vt 0.221949 0.571626
vt 0.283377 0.553479
vn -0.0394 -0.9690 -0.2440
vn 0.7045 -0.0845 -0.7046
vn 0.5794 0.7388 -0.3443
vn 0.5278 -0.5299 -0.6638
vn 0.7223 0.3536 -0.5943
vn 0.7476 0.5524 0.3688
vn 0.6960 -0.7163 0.0493
vn 0.9391 0.1134 0.3245
vn 0.0394 0.9690 0.2440
vn 0.9213 -0.3247 0.2142
vn 0.1424 -0.8207 0.5533
vn -0.6447 -0.4990 0.5791
vn 0.2078 -0.4592 0.8637
vn 0.0145 0.9903 0.1380
vn -0.5794 -0.7388 0.3443
vn -0.6418 0.6668 -0.3789
vn -0.7223 -0.3536 0.5943
vn -0.4593 -0.8675 0.1909
vn -0.7476 -0.5524 -0.3687
vn -0.9213 0.3247 -0.2142
vn -0.9391 -0.1134 -0.3245
vn -0.6960 0.7163 -0.0493
vn -0.1940 -0.4480 -0.8728
vn -0.2078 0.4592 -0.8637
vn -0.2256 0.0212 -0.9740
vn -0.1424 0.8207 -0.5533
vn -0.6964 -0.4818 0.5320
vn -0.0882 0.9304 0.3559
vn 0.4375 0.2933 0.8500
vn 0.2128 0.9740 0.0781
vn -0.9318 0.1865 -0.3114
vn 0.2195 -0.0204 0.9754
vn 0.1892 -0.6070 0.7718
vn 0.1001 0.8611 0.4984
vn 0.9170 0.1071 0.3842
vn 0.1338 -0.8474 0.5138
vn -0.7301 0.4829 0.4835
vn 0.8068 0.5901 0.0297
vn 0.5278 -0.5299 -0.6637
vn -0.6301 0.0762 0.7728
vn -0.6989 0.6359 -0.3273
vn -0.7476 -0.5524 -0.3688
vn -0.9213 0.3246 -0.2142
vn -0.0882 0.9303 0.3559
vn 0.4999 0.3225 0.8038
vn -0.9229 0.3240 -0.2081
vn 0.2794 -0.1787 0.9434
vn 0.8860 -0.4043 0.2271
vn -0.7122 0.6010 0.3628
vn 0.8567 0.5062 0.0992
s off
f 17/1/1 27/2/1 5/3/1
f 3/4/2 9/5/2 4/6/2
f 1/7/3 7/8/3 2/9/3
f 5/10/4 9/5/4 10/11/4
f 2/9/5 8/12/5 3/4/5
f 6/13/6 29/14/6 7/15/6
f 9/16/7 13/17/7 10/18/7
f 7/15/8 11/19/8 8/20/8
f 1/21/9 28/22/9 6/13/9
f 8/20/10 12/23/10 9/16/10
f 13/17/11 16/24/11 17/1/11
f 30/25/12 42/26/12 38/27/12
f 11/19/13 16/24/13 12/23/13
f 28/28/14 41/29/14 39/30/14
f 16/24/15 22/31/15 17/1/15
f 19/32/16 35/33/16 18/34/16
f 15/35/17 21/36/17 16/24/17
f 20/37/18 34/38/18 36/39/18
f 22/31/19 26/40/19 27/2/19
f 19/41/20 25/42/20 20/43/20
f 1/21/9 18/44/9 14/45/9
f 20/43/21 26/40/21 21/36/21
f 18/44/22 24/46/22 19/41/22
f 27/47/23 4/6/23 5/10/23
f 24/48/24 3/4/24 25/49/24
f 25/49/25 4/6/25 26/50/25
f 23/51/26 2/9/26 24/48/26
f 13/17/1 5/3/1 10/18/1
f 31/52/27 36/39/27 34/38/27
f 31/52/28 35/33/28 32/53/28
f 30/54/29 33/55/29 31/52/29
f 18/34/30 33/55/30 14/56/30
f 19/32/31 36/39/31 32/53/31
f 30/54/32 34/38/32 15/57/32
f 37/58/33 42/26/33 40/59/33
f 37/58/34 41/29/34 38/27/34
f 29/60/35 40/59/35 11/61/35
f 11/61/36 42/26/36 15/62/36
f 30/25/37 41/29/37 14/63/37
f 29/60/38 39/30/38 37/58/38
f 17/1/1 22/31/1 27/2/1
f 3/4/2 8/12/2 9/5/2
f 1/7/3 6/64/3 7/8/3
f 5/10/39 4/6/39 9/5/39
f 2/9/5 7/8/5 8/12/5
f 6/13/6 28/22/6 29/14/6
f 9/16/7 12/23/7 13/17/7
f 7/15/8 29/14/8 11/19/8
f 1/21/9 14/45/9 28/22/9
f 8/20/10 11/19/10 12/23/10
f 13/17/11 12/23/11 16/24/11
f 30/25/40 15/62/40 42/26/40
f 11/19/13 15/35/13 16/24/13
f 28/28/14 14/63/14 41/29/14
f 16/24/15 21/36/15 22/31/15
f 19/32/41 32/53/41 35/33/41
f 15/35/17 20/43/17 21/36/17
f 20/37/18 15/57/18 34/38/18
f 22/31/42 21/36/42 26/40/42
f 19/41/43 24/46/43 25/42/43
f 1/21/9 23/65/9 18/44/9
f 20/43/21 25/42/21 26/40/21
f 18/44/22 23/65/22 24/46/22
f 27/47/23 26/50/23 4/6/23
f 24/48/24 2/9/24 3/4/24
f 25/49/25 3/4/25 4/6/25
f 23/51/26 1/7/26 2/9/26
f 13/17/1 17/1/1 5/3/1
f 31/52/27 32/53/27 36/39/27
f 31/52/44 33/55/44 35/33/44
f 30/54/45 14/56/45 33/55/45
f 18/34/30 35/33/30 33/55/30
f 19/32/46 20/37/46 36/39/46
f 30/54/47 31/52/47 34/38/47
f 37/58/33 38/27/33 42/26/33
f 37/58/34 39/30/34 41/29/34
f 29/60/48 37/58/48 40/59/48
f 11/61/36 40/59/36 42/26/36
f 30/25/49 38/27/49 41/29/49
f 29/60/50 28/28/50 39/30/50
