# Blender v2.81 (sub 16) OBJ File: 'garbage.blend'
# www.blender.org
v 0.046570 0.569012 -0.821903
v 0.055426 0.551497 -0.822220
v 0.054819 0.532087 -0.819360
v 0.044912 0.515982 -0.814088
v 0.028359 0.507498 -0.807817
v 0.042687 0.574239 -0.804095
v 0.048702 0.560550 -0.791377
v 0.047055 0.542541 -0.783745
v 0.038188 0.525036 -0.783245
v 0.024477 0.512725 -0.790010
v 0.012345 0.554877 -0.774745
v 0.008128 0.535719 -0.775451
v 0.007121 0.518894 -0.785510
v 0.011859 0.581349 -0.812903
v -0.014601 0.556760 -0.801360
v -0.015208 0.537350 -0.798500
v -0.006352 0.519835 -0.798817
v 0.015742 0.576122 -0.830711
v 0.002030 0.563811 -0.837476
v -0.006837 0.546306 -0.836975
v -0.008484 0.528297 -0.829343
v -0.002469 0.514608 -0.816625
v 0.033097 0.569953 -0.835210
v 0.032090 0.553128 -0.845270
v 0.027873 0.533970 -0.845975
v 0.021576 0.517613 -0.837137
v 0.014886 0.508440 -0.821125
v 0.025332 0.580407 -0.799596
v 0.018642 0.571234 -0.783583
v -0.004694 0.572865 -0.806632
v -0.024024 0.587387 -0.831166
v -0.023476 0.586649 -0.833683
v -0.000891 0.587067 -0.822459
v -0.023285 0.566861 -0.818656
v 0.001031 0.584480 -0.831273
v -0.020304 0.562848 -0.832329
v -0.004429 0.593991 -0.776473
v -0.009952 0.594377 -0.781929
v 0.003156 0.593182 -0.786763
v -0.005514 0.578379 -0.778616
v 0.000625 0.593359 -0.789264
v -0.008053 0.578556 -0.781123
vt 0.274240 0.539347
vt 0.265397 0.539709
vt 0.266768 0.532487
vt 0.231414 0.551290
vt 0.214659 0.541092
vt 0.231357 0.542861
vt 0.231940 0.569242
vt 0.215985 0.562822
vt 0.231472 0.559719
vt 0.230890 0.533338
vt 0.220414 0.530957
vt 0.213134 0.552274
vt 0.289666 0.544440
vt 0.282983 0.540904
vt 0.290637 0.536818
vt 0.279682 0.529141
vt 0.275518 0.536619
vt 0.273707 0.532162
vt 0.280945 0.538772
vt 0.286431 0.530872
vt 0.290637 0.551375
vt 0.284312 0.543753
vt 0.278488 0.537315
vt 0.276318 0.541045
vt 0.804698 0.251197
vt 0.792375 0.255919
vt 0.792638 0.252041
vt 0.786357 0.239035
vt 0.792578 0.249274
vt 0.791489 0.249454
vt 0.271776 0.541127
vt 0.760733 0.199751
vt 0.757502 0.209505
vt 0.750621 0.206121
vt 0.278108 0.542645
vt 0.273009 0.544115
vt 0.772804 0.201934
vt 0.766718 0.213101
vt 0.766203 0.208706
vt 0.264007 0.548518
vt 0.277612 0.547903
vt 0.268747 0.555467
vt 0.275021 0.546378
vt 0.280714 0.548498
vt 0.281954 0.545638
vt 0.276612 0.557409
vt 0.240880 0.530957
vt 0.248168 0.561486
vt 0.249693 0.550306
vt 0.246843 0.539760
vt 0.242415 0.571620
vt 0.762287 0.211045
vt 0.762255 0.210544
vt 0.761023 0.221925
vt 0.757316 0.212491
vt 0.750922 0.216572
vt 0.772804 0.220841
vt 0.791613 0.252007
vt 0.791097 0.255536
vt 0.780068 0.250772
vt 0.780487 0.263708
vt 0.804698 0.264828
vt 0.798786 0.238814
vt 0.221949 0.571626
vt 0.283377 0.553479
vn -0.2773 -0.9366 0.2145
vn 0.8518 -0.4226 0.3097
vn 0.8911 0.4495 0.0623
vn 0.5281 -0.7768 0.3431
vn 0.9771 0.0008 0.2128
vn 0.4023 0.7118 0.5758
vn 0.0392 -0.5145 0.8566
vn 0.3472 0.3388 0.8745
vn 0.2773 0.9366 -0.2144
vn 0.2218 -0.0846 0.9714
vn -0.6704 -0.3508 0.6539
vn -0.9870 -0.1237 -0.1024
vn -0.6926 0.1263 0.7102
vn 0.3472 0.8924 -0.2884
vn -0.8911 -0.4495 -0.0623
vn 0.2008 0.2905 -0.9356
vn -0.9771 -0.0008 -0.2128
vn -0.7729 -0.6343 0.0177
vn -0.4023 -0.7118 -0.5758
vn -0.2218 0.0846 -0.9714
vn 0.2773 0.9366 -0.2145
vn -0.3472 -0.3388 -0.8745
vn -0.0392 0.5145 -0.8566
vn 0.3073 -0.8754 -0.3731
vn 0.6926 -0.1263 -0.7102
vn 0.5673 -0.5497 -0.6132
vn 0.6704 0.3508 -0.6539
vn -0.9752 -0.1397 -0.1716
vn 0.1103 0.9599 -0.2578
vn -0.2233 0.7515 0.6208
vn 0.4930 0.8580 -0.1444
vn -0.2203 -0.0846 -0.9718
vn -0.5714 0.5507 0.6085
vn -0.7036 -0.0484 0.7089
vn 0.0851 0.9963 -0.0156
vn 0.2901 0.3661 0.8842
vn -0.6592 -0.3956 0.6394
vn -0.5353 0.6226 -0.5707
vn 0.6902 0.5544 0.4651
vn -0.2773 -0.9366 0.2144
vn -0.8616 0.4594 -0.2159
vn 0.1191 0.2907 -0.9494
vn -0.0393 0.5145 -0.8566
vn 0.1103 0.9599 -0.2577
vn -0.1430 0.7534 0.6418
vn -0.2273 0.0874 -0.9699
vn -0.5851 0.4066 0.7017
vn 0.0850 0.9963 -0.0156
vn 0.1579 -0.1450 0.9767
vn -0.3885 0.6524 -0.6508
vn 0.6323 0.5282 0.5668
s off
f 17/1/1 27/2/1 5/3/1
f 3/4/2 9/5/2 4/6/2
f 1/7/3 7/8/3 2/9/3
f 5/10/4 9/5/4 10/11/4
f 2/9/5 8/12/5 3/4/5
f 6/13/6 29/14/6 7/15/6
f 9/16/7 13/17/7 10/18/7
f 7/15/8 11/19/8 8/20/8
f 1/21/9 28/22/9 6/13/9
f 8/20/10 12/23/10 9/16/10
f 13/17/11 16/24/11 17/1/11
f 30/25/12 42/26/12 38/27/12
f 11/19/13 16/24/13 12/23/13
f 28/28/14 41/29/14 39/30/14
f 16/24/15 22/31/15 17/1/15
f 19/32/16 35/33/16 18/34/16
f 15/35/17 21/36/17 16/24/17
f 20/37/18 34/38/18 36/39/18
f 22/31/19 26/40/19 27/2/19
f 19/41/20 25/42/20 20/43/20
f 1/21/21 18/44/21 14/45/21
f 20/43/22 26/40/22 21/36/22
f 18/44/23 24/46/23 19/41/23
f 27/47/24 4/6/24 5/10/24
f 24/48/25 3/4/25 25/49/25
f 25/49/26 4/6/26 26/50/26
f 23/51/27 2/9/27 24/48/27
f 13/17/1 5/3/1 10/18/1
f 31/52/28 36/39/28 34/38/28
f 31/52/29 35/33/29 32/53/29
f 30/54/30 33/55/30 31/52/30
f 18/34/31 33/55/31 14/56/31
f 19/32/32 36/39/32 32/53/32
f 30/54/33 34/38/33 15/57/33
f 37/58/34 42/26/34 40/59/34
f 37/58/35 41/29/35 38/27/35
f 29/60/36 40/59/36 11/61/36
f 11/61/37 42/26/37 15/62/37
f 30/25/38 41/29/38 14/63/38
f 29/60/39 39/30/39 37/58/39
f 17/1/40 22/31/40 27/2/40
f 3/4/2 8/12/2 9/5/2
f 1/7/3 6/64/3 7/8/3
f 5/10/4 4/6/4 9/5/4
f 2/9/5 7/8/5 8/12/5
f 6/13/6 28/22/6 29/14/6
f 9/16/7 12/23/7 13/17/7
f 7/15/8 29/14/8 11/19/8
f 1/21/21 14/45/21 28/22/21
f 8/20/10 11/19/10 12/23/10
f 13/17/11 12/23/11 16/24/11
f 30/25/41 15/62/41 42/26/41
f 11/19/13 15/35/13 16/24/13
f 28/28/14 14/63/14 41/29/14
f 16/24/15 21/36/15 22/31/15
f 19/32/42 32/53/42 35/33/42
f 15/35/17 20/43/17 21/36/17
f 20/37/18 15/57/18 34/38/18
f 22/31/19 21/36/19 26/40/19
f 19/41/20 24/46/20 25/42/20
f 1/21/21 23/65/21 18/44/21
f 20/43/22 25/42/22 26/40/22
f 18/44/43 23/65/43 24/46/43
f 27/47/24 26/50/24 4/6/24
f 24/48/25 2/9/25 3/4/25
f 25/49/26 3/4/26 4/6/26
f 23/51/27 1/7/27 2/9/27
f 13/17/40 17/1/40 5/3/40
f 31/52/28 32/53/28 36/39/28
f 31/52/44 33/55/44 35/33/44
f 30/54/45 14/56/45 33/55/45
f 18/34/31 35/33/31 33/55/31
f 19/32/46 20/37/46 36/39/46
f 30/54/47 31/52/47 34/38/47
f 37/58/34 38/27/34 42/26/34
f 37/58/48 39/30/48 41/29/48
f 29/60/49 37/58/49 40/59/49
f 11/61/37 40/59/37 42/26/37
f 30/25/50 38/27/50 41/29/50
f 29/60/51 28/28/51 39/30/51
