# Blender v2.81 (sub 16) OBJ File: 'garbage.blend'
# www.blender.org
v -0.438154 0.581931 0.040835
v -0.435936 0.571209 0.024543
v -0.435753 0.553748 0.015577
v -0.437654 0.534226 0.016340
v -0.441129 0.517874 0.026628
v -0.424044 0.578567 0.053045
v -0.411497 0.565384 0.045692
v -0.407533 0.547021 0.039998
v -0.413215 0.528401 0.037489
v -0.427019 0.514511 0.038838
v -0.415310 0.539330 0.076307
v -0.419949 0.521739 0.068934
v -0.430907 0.510665 0.056993
v -0.445931 0.574239 0.077144
v -0.451306 0.538365 0.088195
v -0.451123 0.520903 0.079229
v -0.448905 0.510182 0.062937
v -0.460041 0.577602 0.064933
v -0.473845 0.563712 0.066282
v -0.479526 0.545091 0.063774
v -0.475562 0.526729 0.058080
v -0.463015 0.513545 0.050726
v -0.456152 0.581448 0.046779
v -0.467110 0.570374 0.034838
v -0.471749 0.552783 0.027465
v -0.468827 0.533390 0.026635
v -0.459127 0.517391 0.032572
v -0.427933 0.574721 0.071200
v -0.418232 0.558722 0.077136
v -0.449406 0.557887 0.087432
v -0.478591 0.570057 0.101092
v -0.480585 0.570533 0.099366
v -0.459828 0.576784 0.086470
v -0.469494 0.548958 0.093990
v -0.466812 0.578449 0.080426
v -0.480327 0.551540 0.084615
v -0.420919 0.565395 0.109524
v -0.428297 0.565197 0.111961
v -0.426249 0.571487 0.099596
v -0.424918 0.552606 0.101160
v -0.429630 0.571396 0.100713
v -0.428309 0.552515 0.102280
vt 0.274240 0.539347
vt 0.265397 0.539709
vt 0.266768 0.532487
vt 0.231414 0.551290
vt 0.214659 0.541092
vt 0.231357 0.542861
vt 0.231940 0.569242
vt 0.215985 0.562822
vt 0.231472 0.559719
vt 0.230890 0.533338
vt 0.220414 0.530957
vt 0.213134 0.552274
vt 0.289666 0.544440
vt 0.282983 0.540904
vt 0.290637 0.536818
vt 0.279682 0.529141
vt 0.275518 0.536619
vt 0.273707 0.532162
vt 0.280945 0.538772
vt 0.286431 0.530872
vt 0.290637 0.551375
vt 0.284312 0.543753
vt 0.278488 0.537315
vt 0.276318 0.541045
vt 0.804698 0.251197
vt 0.792375 0.255919
vt 0.792638 0.252041
vt 0.786357 0.239035
vt 0.792578 0.249274
vt 0.791489 0.249454
vt 0.271776 0.541127
vt 0.760733 0.199751
vt 0.757502 0.209505
vt 0.750621 0.206121
vt 0.278108 0.542645
vt 0.273009 0.544115
vt 0.772804 0.201934
vt 0.766718 0.213101
vt 0.766203 0.208706
vt 0.264007 0.548518
vt 0.277612 0.547903
vt 0.268747 0.555467
vt 0.275021 0.546378
vt 0.280714 0.548498
vt 0.281954 0.545638
vt 0.276612 0.557409
vt 0.240880 0.530957
vt 0.248168 0.561486
vt 0.249693 0.550306
vt 0.246843 0.539760
vt 0.242415 0.571620
vt 0.762287 0.211045
vt 0.762255 0.210544
vt 0.761023 0.221925
vt 0.757316 0.212491
vt 0.750922 0.216572
vt 0.772804 0.220841
vt 0.791613 0.252007
vt 0.791097 0.255536
vt 0.780068 0.250772
vt 0.780487 0.263708
vt 0.804698 0.264828
vt 0.798786 0.238814
vt 0.221949 0.571626
vt 0.283377 0.553479
vn -0.0453 -0.9753 -0.2163
vn 0.6390 -0.0921 -0.7637
vn 0.5334 0.7381 -0.4131
vn 0.4741 -0.5388 -0.6963
vn 0.6594 0.3488 -0.6659
vn 0.7687 0.5722 0.2859
vn 0.7094 -0.7048 0.0026
vn 0.9626 0.1350 0.2348
vn 0.0453 0.9753 0.2163
vn 0.9422 -0.3059 0.1370
vn 0.2056 -0.8044 0.5573
vn -0.5811 -0.4934 0.6472
vn 0.2930 -0.4343 0.8518
vn 0.0105 0.9936 0.1126
vn -0.5334 -0.7381 0.4131
vn -0.6845 0.6477 -0.3346
vn -0.6594 -0.3488 0.6659
vn -0.4257 -0.8689 0.2525
vn -0.7687 -0.5722 -0.2859
vn -0.9422 0.3059 -0.1370
vn -0.9626 -0.1350 -0.2348
vn -0.7094 0.7048 -0.0026
vn -0.2649 -0.4725 -0.8406
vn -0.2930 0.4343 -0.8518
vn -0.3134 -0.0066 -0.9496
vn -0.2056 0.8044 -0.5573
vn -0.6371 -0.4782 0.6045
vn -0.0710 0.9377 0.3402
vn 0.5080 0.3208 0.7994
vn 0.2028 0.9786 0.0352
vn -0.9592 0.1652 -0.2295
vn 0.3074 0.0073 0.9515
vn 0.2685 -0.5847 0.7656
vn 0.1306 0.8748 0.4666
vn 0.9462 0.1299 0.2964
vn 0.1939 -0.8322 0.5195
vn -0.6911 0.4843 0.5364
vn 0.7963 0.6022 -0.0580
vn -0.5586 0.0866 0.8249
vn -0.7362 0.6174 -0.2773
vn -0.6371 -0.4781 0.6045
vn -0.0710 0.9376 0.3403
vn 0.5653 0.3498 0.7470
vn -0.9432 0.3054 -0.1308
vn 0.3668 -0.1508 0.9180
vn 0.2685 -0.5846 0.7656
vn 0.9095 -0.3858 0.1549
vn -0.6862 0.5996 0.4118
vn 0.8536 0.5208 0.0087
s off
f 17/1/1 27/2/1 5/3/1
f 3/4/2 9/5/2 4/6/2
f 1/7/3 7/8/3 2/9/3
f 5/10/4 9/5/4 10/11/4
f 2/9/5 8/12/5 3/4/5
f 6/13/6 29/14/6 7/15/6
f 9/16/7 13/17/7 10/18/7
f 7/15/8 11/19/8 8/20/8
f 1/21/9 28/22/9 6/13/9
f 8/20/10 12/23/10 9/16/10
f 13/17/11 16/24/11 17/1/11
f 30/25/12 42/26/12 38/27/12
f 11/19/13 16/24/13 12/23/13
f 28/28/14 41/29/14 39/30/14
f 16/24/15 22/31/15 17/1/15
f 19/32/16 35/33/16 18/34/16
f 15/35/17 21/36/17 16/24/17
f 20/37/18 34/38/18 36/39/18
f 22/31/19 26/40/19 27/2/19
f 19/41/20 25/42/20 20/43/20
f 1/21/9 18/44/9 14/45/9
f 20/43/21 26/40/21 21/36/21
f 18/44/22 24/46/22 19/41/22
f 27/47/23 4/6/23 5/10/23
f 24/48/24 3/4/24 25/49/24
f 25/49/25 4/6/25 26/50/25
f 23/51/26 2/9/26 24/48/26
f 13/17/1 5/3/1 10/18/1
f 31/52/27 36/39/27 34/38/27
f 31/52/28 35/33/28 32/53/28
f 30/54/29 33/55/29 31/52/29
f 18/34/30 33/55/30 14/56/30
f 19/32/31 36/39/31 32/53/31
f 30/54/32 34/38/32 15/57/32
f 37/58/33 42/26/33 40/59/33
f 37/58/34 41/29/34 38/27/34
f 29/60/35 40/59/35 11/61/35
f 11/61/36 42/26/36 15/62/36
f 30/25/37 41/29/37 14/63/37
f 29/60/38 39/30/38 37/58/38
f 17/1/1 22/31/1 27/2/1
f 3/4/2 8/12/2 9/5/2
f 1/7/3 6/64/3 7/8/3
f 5/10/4 4/6/4 9/5/4
f 2/9/5 7/8/5 8/12/5
f 6/13/6 28/22/6 29/14/6
f 9/16/7 12/23/7 13/17/7
f 7/15/8 29/14/8 11/19/8
f 1/21/9 14/45/9 28/22/9
f 8/20/10 11/19/10 12/23/10
f 13/17/11 12/23/11 16/24/11
f 30/25/39 15/62/39 42/26/39
f 11/19/13 15/35/13 16/24/13
f 28/28/14 14/63/14 41/29/14
f 16/24/15 21/36/15 22/31/15
f 19/32/40 32/53/40 35/33/40
f 15/35/17 20/43/17 21/36/17
f 20/37/18 15/57/18 34/38/18
f 22/31/19 21/36/19 26/40/19
f 19/41/20 24/46/20 25/42/20
f 1/21/9 23/65/9 18/44/9
f 20/43/21 25/42/21 26/40/21
f 18/44/22 23/65/22 24/46/22
f 27/47/23 26/50/23 4/6/23
f 24/48/24 2/9/24 3/4/24
f 25/49/25 3/4/25 4/6/25
f 23/51/26 1/7/26 2/9/26
f 13/17/1 17/1/1 5/3/1
f 31/52/41 32/53/41 36/39/41
f 31/52/42 33/55/42 35/33/42
f 30/54/43 14/56/43 33/55/43
f 18/34/30 35/33/30 33/55/30
f 19/32/44 20/37/44 36/39/44
f 30/54/45 31/52/45 34/38/45
f 37/58/46 38/27/46 42/26/46
f 37/58/34 39/30/34 41/29/34
f 29/60/47 37/58/47 40/59/47
f 11/61/36 40/59/36 42/26/36
f 30/25/48 38/27/48 41/29/48
f 29/60/49 28/28/49 39/30/49
