# Blender v2.81 (sub 16) OBJ File: 'garbage.blend'
# www.blender.org
v -0.143459 0.522311 0.605335
v -0.154958 0.506493 0.607031
v -0.157031 0.486990 0.607828
v -0.149122 0.469027 0.607513
v -0.133350 0.457418 0.606171
v -0.135890 0.523267 0.587978
v -0.141848 0.508148 0.576966
v -0.141892 0.488901 0.573113
v -0.136011 0.470682 0.577449
v -0.125781 0.458374 0.588813
v -0.104640 0.494651 0.568963
v -0.103750 0.475662 0.573855
v -0.107155 0.461249 0.586739
v -0.106208 0.528061 0.601186
v -0.082527 0.498490 0.599529
v -0.084599 0.478986 0.600326
v -0.096098 0.463168 0.602022
v -0.113777 0.527105 0.618543
v -0.103547 0.514797 0.629908
v -0.097666 0.496578 0.634244
v -0.097710 0.477331 0.630390
v -0.103668 0.462213 0.619379
v -0.132403 0.524231 0.620618
v -0.135808 0.509817 0.633501
v -0.134918 0.490829 0.638394
v -0.129971 0.472352 0.633984
v -0.122294 0.459338 0.621454
v -0.117264 0.526142 0.585903
v -0.109587 0.513128 0.573373
v -0.090436 0.516452 0.599843
v -0.073345 0.533102 0.624686
v -0.074414 0.532967 0.627139
v -0.094461 0.533946 0.611862
v -0.075310 0.510720 0.616110
v -0.098208 0.533473 0.620454
v -0.081121 0.509986 0.629437
v -0.082287 0.530852 0.566947
v -0.077755 0.531639 0.573212
v -0.091501 0.533123 0.575551
v -0.084109 0.515995 0.571991
v -0.089424 0.533484 0.578422
v -0.082026 0.516356 0.574871
vt 0.274240 0.539347
vt 0.265397 0.539709
vt 0.266768 0.532487
vt 0.231414 0.551290
vt 0.214659 0.541092
vt 0.231357 0.542861
vt 0.231940 0.569242
vt 0.215985 0.562822
vt 0.231472 0.559719
vt 0.230890 0.533338
vt 0.220414 0.530957
vt 0.213134 0.552274
vt 0.289666 0.544440
vt 0.282983 0.540904
vt 0.290637 0.536818
vt 0.279682 0.529141
vt 0.275518 0.536619
vt 0.273707 0.532162
vt 0.280945 0.538772
vt 0.286431 0.530872
vt 0.290637 0.551375
vt 0.284312 0.543753
vt 0.278488 0.537315
vt 0.276318 0.541045
vt 0.804698 0.251197
vt 0.792375 0.255919
vt 0.792638 0.252041
vt 0.786357 0.239035
vt 0.792578 0.249274
vt 0.791489 0.249454
vt 0.271776 0.541127
vt 0.760733 0.199751
vt 0.757502 0.209505
vt 0.750621 0.206121
vt 0.278108 0.542645
vt 0.273009 0.544115
vt 0.772804 0.201934
vt 0.766718 0.213101
vt 0.766203 0.208706
vt 0.264007 0.548518
vt 0.277612 0.547903
vt 0.268747 0.555467
vt 0.275021 0.546378
vt 0.280714 0.548498
vt 0.281954 0.545638
vt 0.276612 0.557409
vt 0.240880 0.530957
vt 0.248168 0.561486
vt 0.249693 0.550306
vt 0.246843 0.539760
vt 0.242415 0.571620
vt 0.762287 0.211045
vt 0.762255 0.210544
vt 0.761023 0.221925
vt 0.757316 0.212491
vt 0.750922 0.216572
vt 0.772804 0.220841
vt 0.791613 0.252007
vt 0.791097 0.255536
vt 0.780068 0.250772
vt 0.780487 0.263708
vt 0.804698 0.264828
vt 0.798786 0.238814
vt 0.221949 0.571626
vt 0.283377 0.553479
vn 0.1539 -0.9880 0.0127
vn -0.8457 -0.3655 -0.3889
vn -0.7840 0.5364 -0.3124
vn -0.5825 -0.7572 -0.2957
vn -0.9152 0.0811 -0.3947
vn -0.1810 0.6246 -0.7597
vn 0.0205 -0.6690 -0.7430
vn -0.1382 0.1947 -0.9711
vn -0.1539 0.9880 -0.0127
vn -0.0686 -0.2519 -0.9653
vn 0.7037 -0.5586 -0.4390
vn 0.9233 -0.2242 0.3118
vn 0.8118 -0.1097 -0.5735
vn -0.2413 0.9690 0.0529
vn 0.7840 -0.5364 0.3124
vn -0.3033 0.4980 0.8124
vn 0.9152 -0.0811 0.3947
vn 0.6524 -0.7172 0.2450
vn 0.1810 -0.6246 0.7597
vn 0.0686 0.2519 0.9653
vn 0.1382 -0.1947 0.9711
vn -0.0205 0.6690 0.7430
vn -0.5022 -0.7350 0.4556
vn -0.8118 0.1097 0.5735
vn -0.7422 -0.3370 0.5793
vn -0.7037 0.5586 0.4390
vn 0.8978 -0.2241 0.3792
vn 0.0052 0.9983 0.0572
vn 0.4414 0.5749 -0.6890
vn -0.3649 0.9247 -0.1082
vn 0.0398 0.0879 0.9953
vn 0.7456 0.3384 -0.5741
vn 0.7941 -0.2804 -0.5393
vn 0.0756 0.9811 -0.1779
vn -0.0767 0.2120 -0.9743
vn 0.6833 -0.5978 -0.4193
vn 0.5269 0.6530 0.5441
vn -0.5049 0.5308 -0.6807
vn 0.8767 0.3809 0.2938
vn -0.2260 0.4906 0.8415
vn 0.3671 0.5826 -0.7251
vn 0.0747 0.2536 0.9644
vn 0.7511 0.1777 -0.6358
vn 0.0756 0.9811 -0.1780
vn -0.0154 -0.3198 -0.9474
vn 0.3756 0.7167 0.5876
vn -0.4359 0.4774 -0.7629
s off
f 17/1/1 27/2/1 5/3/1
f 3/4/2 9/5/2 4/6/2
f 1/7/3 7/8/3 2/9/3
f 5/10/4 9/5/4 10/11/4
f 2/9/5 8/12/5 3/4/5
f 6/13/6 29/14/6 7/15/6
f 9/16/7 13/17/7 10/18/7
f 7/15/8 11/19/8 8/20/8
f 1/21/9 28/22/9 6/13/9
f 8/20/10 12/23/10 9/16/10
f 13/17/11 16/24/11 17/1/11
f 30/25/12 42/26/12 38/27/12
f 11/19/13 16/24/13 12/23/13
f 28/28/14 41/29/14 39/30/14
f 16/24/15 22/31/15 17/1/15
f 19/32/16 35/33/16 18/34/16
f 15/35/17 21/36/17 16/24/17
f 20/37/18 34/38/18 36/39/18
f 22/31/19 26/40/19 27/2/19
f 19/41/20 25/42/20 20/43/20
f 1/21/9 18/44/9 14/45/9
f 20/43/21 26/40/21 21/36/21
f 18/44/22 24/46/22 19/41/22
f 27/47/23 4/6/23 5/10/23
f 24/48/24 3/4/24 25/49/24
f 25/49/25 4/6/25 26/50/25
f 23/51/26 2/9/26 24/48/26
f 13/17/1 5/3/1 10/18/1
f 31/52/27 36/39/27 34/38/27
f 31/52/28 35/33/28 32/53/28
f 30/54/29 33/55/29 31/52/29
f 18/34/30 33/55/30 14/56/30
f 19/32/31 36/39/31 32/53/31
f 30/54/32 34/38/32 15/57/32
f 37/58/33 42/26/33 40/59/33
f 37/58/34 41/29/34 38/27/34
f 29/60/35 40/59/35 11/61/35
f 11/61/36 42/26/36 15/62/36
f 30/25/37 41/29/37 14/63/37
f 29/60/38 39/30/38 37/58/38
f 17/1/1 22/31/1 27/2/1
f 3/4/2 8/12/2 9/5/2
f 1/7/3 6/64/3 7/8/3
f 5/10/4 4/6/4 9/5/4
f 2/9/5 7/8/5 8/12/5
f 6/13/6 28/22/6 29/14/6
f 9/16/7 12/23/7 13/17/7
f 7/15/8 29/14/8 11/19/8
f 1/21/9 14/45/9 28/22/9
f 8/20/10 11/19/10 12/23/10
f 13/17/11 12/23/11 16/24/11
f 30/25/39 15/62/39 42/26/39
f 11/19/13 15/35/13 16/24/13
f 28/28/14 14/63/14 41/29/14
f 16/24/15 21/36/15 22/31/15
f 19/32/40 32/53/40 35/33/40
f 15/35/17 20/43/17 21/36/17
f 20/37/18 15/57/18 34/38/18
f 22/31/19 21/36/19 26/40/19
f 19/41/20 24/46/20 25/42/20
f 1/21/9 23/65/9 18/44/9
f 20/43/21 25/42/21 26/40/21
f 18/44/22 23/65/22 24/46/22
f 27/47/23 26/50/23 4/6/23
f 24/48/24 2/9/24 3/4/24
f 25/49/25 3/4/25 4/6/25
f 23/51/26 1/7/26 2/9/26
f 13/17/1 17/1/1 5/3/1
f 31/52/27 32/53/27 36/39/27
f 31/52/28 33/55/28 35/33/28
f 30/54/41 14/56/41 33/55/41
f 18/34/30 35/33/30 33/55/30
f 19/32/42 20/37/42 36/39/42
f 30/54/43 31/52/43 34/38/43
f 37/58/33 38/27/33 42/26/33
f 37/58/44 39/30/44 41/29/44
f 29/60/45 37/58/45 40/59/45
f 11/61/36 40/59/36 42/26/36
f 30/25/46 38/27/46 41/29/46
f 29/60/47 28/28/47 39/30/47
