# Blender v2.81 (sub 16) OBJ File: 'garbage.blend'
# www.blender.org
v 0.201368 0.514640 -0.841162
v 0.210274 0.497310 -0.838782
v 0.209309 0.478092 -0.834906
v 0.198732 0.462134 -0.830572
v 0.181376 0.453713 -0.826941
v 0.194227 0.520821 -0.824721
v 0.197905 0.508015 -0.810306
v 0.195027 0.490453 -0.802024
v 0.186363 0.472839 -0.802096
v 0.174235 0.459894 -0.810500
v 0.159153 0.502623 -0.800315
v 0.155295 0.483379 -0.800615
v 0.156298 0.465979 -0.809646
v 0.165494 0.526810 -0.839453
v 0.137561 0.502432 -0.831488
v 0.136596 0.483213 -0.827612
v 0.145502 0.465883 -0.825232
v 0.172635 0.520630 -0.855894
v 0.160507 0.507684 -0.864299
v 0.151843 0.490071 -0.864370
v 0.148965 0.472508 -0.856088
v 0.152643 0.459703 -0.841673
v 0.190572 0.514545 -0.856748
v 0.191575 0.497145 -0.865779
v 0.187717 0.477901 -0.866079
v 0.180033 0.461969 -0.857568
v 0.170580 0.453618 -0.842528
v 0.176290 0.526906 -0.823866
v 0.166837 0.518555 -0.808826
v 0.148138 0.518389 -0.835822
v 0.133544 0.531082 -0.864325
v 0.134553 0.530209 -0.866648
v 0.154678 0.531716 -0.851516
v 0.132132 0.511338 -0.850666
v 0.158212 0.528656 -0.859654
v 0.137615 0.506593 -0.863289
v 0.142666 0.541239 -0.807469
v 0.138240 0.541200 -0.813859
v 0.152024 0.539978 -0.816124
v 0.142122 0.525511 -0.808820
v 0.149996 0.539960 -0.819052
v 0.140088 0.525493 -0.811757
vt 0.274240 0.539347
vt 0.265397 0.539709
vt 0.266768 0.532487
vt 0.231414 0.551290
vt 0.214659 0.541092
vt 0.231357 0.542861
vt 0.231940 0.569242
vt 0.215985 0.562822
vt 0.231472 0.559719
vt 0.230890 0.533338
vt 0.220414 0.530957
vt 0.213134 0.552274
vt 0.289666 0.544440
vt 0.282983 0.540904
vt 0.290637 0.536818
vt 0.279682 0.529141
vt 0.275518 0.536619
vt 0.273707 0.532162
vt 0.280945 0.538772
vt 0.286431 0.530872
vt 0.290637 0.551375
vt 0.284312 0.543753
vt 0.278488 0.537315
vt 0.276318 0.541045
vt 0.804698 0.251197
vt 0.792375 0.255919
vt 0.792638 0.252041
vt 0.786357 0.239035
vt 0.792578 0.249274
vt 0.791489 0.249454
vt 0.271776 0.541127
vt 0.760733 0.199751
vt 0.757502 0.209505
vt 0.750621 0.206121
vt 0.278108 0.542645
vt 0.273009 0.544115
vt 0.772804 0.201934
vt 0.766718 0.213101
vt 0.766203 0.208706
vt 0.264007 0.548518
vt 0.277612 0.547903
vt 0.268747 0.555467
vt 0.275021 0.546378
vt 0.280714 0.548498
vt 0.281954 0.545638
vt 0.276612 0.557409
vt 0.240880 0.530957
vt 0.248168 0.561486
vt 0.249693 0.550306
vt 0.246843 0.539760
vt 0.242415 0.571620
vt 0.762287 0.211045
vt 0.762255 0.210544
vt 0.761023 0.221925
vt 0.757316 0.212491
vt 0.750922 0.216572
vt 0.772804 0.220841
vt 0.791613 0.252007
vt 0.791097 0.255536
vt 0.780068 0.250772
vt 0.780487 0.263708
vt 0.804698 0.264828
vt 0.798786 0.238814
vt 0.221949 0.571626
vt 0.283377 0.553479
vn -0.3044 -0.9276 0.2165
vn 0.7835 -0.3873 0.4859
vn 0.8606 0.4694 0.1974
vn 0.4621 -0.7451 0.4808
vn 0.9211 0.0320 0.3880
vn 0.2834 0.7517 0.5955
vn -0.1151 -0.4628 0.8790
vn 0.1772 0.3958 0.9011
vn 0.3044 0.9276 -0.2165
vn 0.0396 -0.0235 0.9989
vn -0.7765 -0.3249 0.5398
vn -0.9502 -0.1484 -0.2741
vn -0.8127 0.1541 0.5620
vn 0.3871 0.8805 -0.2735
vn -0.8606 -0.4694 -0.1974
vn 0.3675 0.2392 -0.8987
vn -0.9211 -0.0320 -0.3880
vn -0.7577 -0.6469 -0.0859
vn -0.2834 -0.7517 -0.5955
vn -0.0396 0.0235 -0.9989
vn -0.1772 -0.3958 -0.9011
vn 0.1151 0.4628 -0.8790
vn 0.3780 -0.8896 -0.2564
vn 0.8127 -0.1541 -0.5620
vn 0.6751 -0.5735 -0.4641
vn 0.7765 0.3249 -0.5399
vn -0.9257 -0.1682 -0.3388
vn 0.1480 0.9452 -0.2910
vn -0.3400 0.7820 0.5223
vn 0.5041 0.8574 -0.1034
vn -0.0367 -0.1454 -0.9887
vn -0.6782 0.5741 0.4586
vn -0.8218 -0.0205 0.5694
vn 0.0783 0.9951 -0.0603
vn 0.1191 0.4225 0.8985
vn -0.7626 -0.3703 0.5305
vn -0.4260 0.5779 -0.6961
vn 0.5880 0.5937 0.5493
vn -0.1151 -0.4628 0.8789
vn -0.8108 0.4293 -0.3980
vn 0.2897 0.2370 -0.9273
vn 0.7765 0.3249 -0.5398
vn -0.2651 0.7867 0.5576
vn -0.0453 0.0263 -0.9986
vn -0.7077 0.4355 0.5563
vn 0.0783 0.9951 -0.0604
vn -0.0236 -0.0848 0.9961
vn -0.7625 -0.3703 0.5305
vn -0.2672 0.6057 -0.7495
vn 0.5126 0.5724 0.6400
s off
f 17/1/1 27/2/1 5/3/1
f 3/4/2 9/5/2 4/6/2
f 1/7/3 7/8/3 2/9/3
f 5/10/4 9/5/4 10/11/4
f 2/9/5 8/12/5 3/4/5
f 6/13/6 29/14/6 7/15/6
f 9/16/7 13/17/7 10/18/7
f 7/15/8 11/19/8 8/20/8
f 1/21/9 28/22/9 6/13/9
f 8/20/10 12/23/10 9/16/10
f 13/17/11 16/24/11 17/1/11
f 30/25/12 42/26/12 38/27/12
f 11/19/13 16/24/13 12/23/13
f 28/28/14 41/29/14 39/30/14
f 16/24/15 22/31/15 17/1/15
f 19/32/16 35/33/16 18/34/16
f 15/35/17 21/36/17 16/24/17
f 20/37/18 34/38/18 36/39/18
f 22/31/19 26/40/19 27/2/19
f 19/41/20 25/42/20 20/43/20
f 1/21/9 18/44/9 14/45/9
f 20/43/21 26/40/21 21/36/21
f 18/44/22 24/46/22 19/41/22
f 27/47/23 4/6/23 5/10/23
f 24/48/24 3/4/24 25/49/24
f 25/49/25 4/6/25 26/50/25
f 23/51/26 2/9/26 24/48/26
f 13/17/1 5/3/1 10/18/1
f 31/52/27 36/39/27 34/38/27
f 31/52/28 35/33/28 32/53/28
f 30/54/29 33/55/29 31/52/29
f 18/34/30 33/55/30 14/56/30
f 19/32/31 36/39/31 32/53/31
f 30/54/32 34/38/32 15/57/32
f 37/58/33 42/26/33 40/59/33
f 37/58/34 41/29/34 38/27/34
f 29/60/35 40/59/35 11/61/35
f 11/61/36 42/26/36 15/62/36
f 30/25/37 41/29/37 14/63/37
f 29/60/38 39/30/38 37/58/38
f 17/1/1 22/31/1 27/2/1
f 3/4/2 8/12/2 9/5/2
f 1/7/3 6/64/3 7/8/3
f 5/10/4 4/6/4 9/5/4
f 2/9/5 7/8/5 8/12/5
f 6/13/6 28/22/6 29/14/6
f 9/16/39 12/23/39 13/17/39
f 7/15/8 29/14/8 11/19/8
f 1/21/9 14/45/9 28/22/9
f 8/20/10 11/19/10 12/23/10
f 13/17/11 12/23/11 16/24/11
f 30/25/40 15/62/40 42/26/40
f 11/19/13 15/35/13 16/24/13
f 28/28/14 14/63/14 41/29/14
f 16/24/15 21/36/15 22/31/15
f 19/32/41 32/53/41 35/33/41
f 15/35/17 20/43/17 21/36/17
f 20/37/18 15/57/18 34/38/18
f 22/31/19 21/36/19 26/40/19
f 19/41/20 24/46/20 25/42/20
f 1/21/9 23/65/9 18/44/9
f 20/43/21 25/42/21 26/40/21
f 18/44/22 23/65/22 24/46/22
f 27/47/23 26/50/23 4/6/23
f 24/48/24 2/9/24 3/4/24
f 25/49/25 3/4/25 4/6/25
f 23/51/42 1/7/42 2/9/42
f 13/17/1 17/1/1 5/3/1
f 31/52/27 32/53/27 36/39/27
f 31/52/28 33/55/28 35/33/28
f 30/54/43 14/56/43 33/55/43
f 18/34/30 35/33/30 33/55/30
f 19/32/44 20/37/44 36/39/44
f 30/54/45 31/52/45 34/38/45
f 37/58/33 38/27/33 42/26/33
f 37/58/46 39/30/46 41/29/46
f 29/60/47 37/58/47 40/59/47
f 11/61/48 40/59/48 42/26/48
f 30/25/49 38/27/49 41/29/49
f 29/60/50 28/28/50 39/30/50
