# Blender v2.81 (sub 16) OBJ File: 'garbage.blend'
# www.blender.org
v 0.158368 0.593721 0.360043
v 0.153339 0.578345 0.371160
v 0.154513 0.559168 0.375183
v 0.161575 0.541329 0.371033
v 0.172633 0.529609 0.359824
v 0.150964 0.592133 0.342661
v 0.140515 0.575594 0.341053
v 0.139704 0.555992 0.340418
v 0.148750 0.538579 0.340926
v 0.165229 0.528021 0.342441
v 0.161680 0.560986 0.309919
v 0.167782 0.542904 0.314514
v 0.176216 0.530518 0.327192
v 0.180343 0.598715 0.329545
v 0.198463 0.569156 0.314186
v 0.199637 0.549979 0.318209
v 0.194608 0.534603 0.329326
v 0.187747 0.600303 0.346928
v 0.204226 0.589745 0.348443
v 0.213272 0.572332 0.348951
v 0.212461 0.552730 0.348316
v 0.202012 0.536191 0.346708
v 0.176760 0.597806 0.362177
v 0.185194 0.585420 0.374855
v 0.191296 0.567338 0.379450
v 0.193430 0.548405 0.374729
v 0.191025 0.533694 0.361957
v 0.161951 0.594630 0.327412
v 0.159546 0.579919 0.314640
v 0.191401 0.586995 0.318336
v 0.219290 0.607024 0.321076
v 0.220337 0.607249 0.323532
v 0.195480 0.606055 0.327649
v 0.214087 0.583641 0.318950
v 0.199145 0.606841 0.336253
v 0.219772 0.584860 0.332297
v 0.171811 0.596456 0.288626
v 0.179351 0.598131 0.289500
v 0.171450 0.599973 0.300938
v 0.175734 0.582491 0.294878
v 0.174905 0.600740 0.301338
v 0.179200 0.583261 0.295280
vt 0.274240 0.539347
vt 0.265397 0.539709
vt 0.266768 0.532487
vt 0.231414 0.551290
vt 0.214659 0.541092
vt 0.231357 0.542861
vt 0.231940 0.569242
vt 0.215985 0.562822
vt 0.231472 0.559719
vt 0.230890 0.533338
vt 0.220414 0.530957
vt 0.213134 0.552274
vt 0.289666 0.544440
vt 0.282983 0.540904
vt 0.290637 0.536818
vt 0.279682 0.529141
vt 0.275518 0.536619
vt 0.273707 0.532162
vt 0.280945 0.538772
vt 0.286431 0.530872
vt 0.290637 0.551375
vt 0.284312 0.543753
vt 0.278488 0.537315
vt 0.276318 0.541045
vt 0.804698 0.251197
vt 0.792375 0.255919
vt 0.792638 0.252041
vt 0.786357 0.239035
vt 0.792578 0.249274
vt 0.791489 0.249454
vt 0.271776 0.541127
vt 0.760733 0.199751
vt 0.757502 0.209505
vt 0.750621 0.206121
vt 0.278108 0.542645
vt 0.273009 0.544115
vt 0.772804 0.201934
vt 0.766718 0.213101
vt 0.766203 0.208706
vt 0.264007 0.548518
vt 0.277612 0.547903
vt 0.268747 0.555467
vt 0.275021 0.546378
vt 0.280714 0.548498
vt 0.281954 0.545638
vt 0.276612 0.557409
vt 0.240880 0.530957
vt 0.248168 0.561486
vt 0.249693 0.550306
vt 0.246843 0.539760
vt 0.242415 0.571620
vt 0.762287 0.211045
vt 0.762255 0.210544
vt 0.761023 0.221925
vt 0.757316 0.212491
vt 0.750922 0.216572
vt 0.772804 0.220841
vt 0.791613 0.252007
vt 0.791097 0.255536
vt 0.780068 0.250772
vt 0.780487 0.263708
vt 0.804698 0.264828
vt 0.798786 0.238814
vt 0.221949 0.571626
vt 0.283377 0.553479
vn 0.2172 -0.9761 -0.0033
vn -0.8224 -0.4159 0.3883
vn -0.8185 0.4875 0.3041
vn -0.5341 -0.7905 0.2997
vn -0.9206 0.0254 0.3898
vn -0.7360 0.5084 -0.4470
vn -0.4516 -0.7696 -0.4514
vn -0.8143 0.0524 -0.5781
vn -0.2172 0.9761 0.0033
vn -0.7161 -0.3889 -0.5796
vn 0.2247 -0.6181 -0.7533
vn 0.8813 -0.1790 -0.4374
vn 0.1554 -0.1937 -0.9687
vn -0.2279 0.9670 0.1134
vn 0.8185 -0.4875 -0.3041
vn 0.3252 0.6112 0.7216
vn 0.9206 -0.0254 -0.3898
vn 0.6984 -0.6758 -0.2357
vn 0.7360 -0.5084 0.4470
vn 0.7161 0.3889 0.5796
vn 0.8143 -0.0524 0.5781
vn 0.4516 0.7696 0.4514
vn 0.0597 -0.6599 0.7489
vn -0.1554 0.1937 0.9687
vn -0.0572 -0.2476 0.9672
vn -0.2247 0.6181 0.7533
vn 0.9122 -0.1691 -0.3731
vn -0.0588 0.9961 -0.0660
vn -0.2528 0.4679 -0.8468
vn -0.4242 0.9002 0.0984
vn 0.7349 0.2311 0.6376
vn 0.0631 0.2497 -0.9663
vn 0.1856 -0.3576 -0.9152
vn -0.1779 0.9448 -0.2751
vn -0.7761 0.0688 -0.6268
vn 0.2289 -0.6539 -0.7211
vn 0.6856 0.7236 -0.0802
vn -0.8916 0.4279 -0.1484
vn -0.8184 0.4875 0.3041
vn 0.7736 0.4172 -0.4770
vn 0.4000 0.6079 0.6859
vn -0.3306 0.4705 -0.8181
vn 0.7194 0.3905 0.5745
vn 0.0391 0.0818 -0.9959
vn -0.6596 -0.4536 -0.5993
vn 0.2289 -0.6540 -0.7211
vn 0.6065 0.7933 0.0529
vn -0.8979 0.3629 -0.2489
s off
f 17/1/1 27/2/1 5/3/1
f 3/4/2 9/5/2 4/6/2
f 1/7/3 7/8/3 2/9/3
f 5/10/4 9/5/4 10/11/4
f 2/9/5 8/12/5 3/4/5
f 6/13/6 29/14/6 7/15/6
f 9/16/7 13/17/7 10/18/7
f 7/15/8 11/19/8 8/20/8
f 1/21/9 28/22/9 6/13/9
f 8/20/10 12/23/10 9/16/10
f 13/17/11 16/24/11 17/1/11
f 30/25/12 42/26/12 38/27/12
f 11/19/13 16/24/13 12/23/13
f 28/28/14 41/29/14 39/30/14
f 16/24/15 22/31/15 17/1/15
f 19/32/16 35/33/16 18/34/16
f 15/35/17 21/36/17 16/24/17
f 20/37/18 34/38/18 36/39/18
f 22/31/19 26/40/19 27/2/19
f 19/41/20 25/42/20 20/43/20
f 1/21/9 18/44/9 14/45/9
f 20/43/21 26/40/21 21/36/21
f 18/44/22 24/46/22 19/41/22
f 27/47/23 4/6/23 5/10/23
f 24/48/24 3/4/24 25/49/24
f 25/49/25 4/6/25 26/50/25
f 23/51/26 2/9/26 24/48/26
f 13/17/1 5/3/1 10/18/1
f 31/52/27 36/39/27 34/38/27
f 31/52/28 35/33/28 32/53/28
f 30/54/29 33/55/29 31/52/29
f 18/34/30 33/55/30 14/56/30
f 19/32/31 36/39/31 32/53/31
f 30/54/32 34/38/32 15/57/32
f 37/58/33 42/26/33 40/59/33
f 37/58/34 41/29/34 38/27/34
f 29/60/35 40/59/35 11/61/35
f 11/61/36 42/26/36 15/62/36
f 30/25/37 41/29/37 14/63/37
f 29/60/38 39/30/38 37/58/38
f 17/1/1 22/31/1 27/2/1
f 3/4/2 8/12/2 9/5/2
f 1/7/39 6/64/39 7/8/39
f 5/10/4 4/6/4 9/5/4
f 2/9/5 7/8/5 8/12/5
f 6/13/6 28/22/6 29/14/6
f 9/16/7 12/23/7 13/17/7
f 7/15/8 29/14/8 11/19/8
f 1/21/9 14/45/9 28/22/9
f 8/20/10 11/19/10 12/23/10
f 13/17/11 12/23/11 16/24/11
f 30/25/40 15/62/40 42/26/40
f 11/19/13 15/35/13 16/24/13
f 28/28/14 14/63/14 41/29/14
f 16/24/15 21/36/15 22/31/15
f 19/32/41 32/53/41 35/33/41
f 15/35/17 20/43/17 21/36/17
f 20/37/18 15/57/18 34/38/18
f 22/31/19 21/36/19 26/40/19
f 19/41/20 24/46/20 25/42/20
f 1/21/9 23/65/9 18/44/9
f 20/43/21 25/42/21 26/40/21
f 18/44/22 23/65/22 24/46/22
f 27/47/23 26/50/23 4/6/23
f 24/48/24 2/9/24 3/4/24
f 25/49/25 3/4/25 4/6/25
f 23/51/26 1/7/26 2/9/26
f 13/17/1 17/1/1 5/3/1
f 31/52/27 32/53/27 36/39/27
f 31/52/28 33/55/28 35/33/28
f 30/54/42 14/56/42 33/55/42
f 18/34/30 35/33/30 33/55/30
f 19/32/43 20/37/43 36/39/43
f 30/54/44 31/52/44 34/38/44
f 37/58/33 38/27/33 42/26/33
f 37/58/34 39/30/34 41/29/34
f 29/60/45 37/58/45 40/59/45
f 11/61/46 40/59/46 42/26/46
f 30/25/47 38/27/47 41/29/47
f 29/60/48 28/28/48 39/30/48
