# Blender v2.81 (sub 16) OBJ File: 'garbage.blend'
# www.blender.org
v 0.395301 0.471473 -0.826082
v 0.406859 0.456622 -0.820499
v 0.409073 0.437805 -0.815368
v 0.401349 0.420064 -0.812065
v 0.385758 0.408152 -0.811474
v 0.383570 0.476477 -0.812052
v 0.386539 0.465290 -0.796199
v 0.385610 0.447814 -0.787309
v 0.381030 0.428732 -0.787765
v 0.374027 0.413157 -0.797444
v 0.348524 0.451829 -0.794128
v 0.348913 0.432209 -0.793670
v 0.355484 0.415165 -0.800854
v 0.358215 0.475489 -0.832901
v 0.334901 0.445836 -0.829006
v 0.337115 0.427019 -0.823876
v 0.348673 0.412168 -0.818293
v 0.369947 0.470484 -0.846930
v 0.362944 0.454909 -0.856609
v 0.358364 0.435827 -0.857065
v 0.357434 0.418351 -0.848176
v 0.360404 0.407163 -0.832322
v 0.388489 0.468476 -0.843521
v 0.395061 0.451432 -0.850704
v 0.395450 0.431811 -0.850246
v 0.389551 0.414873 -0.842270
v 0.378947 0.405156 -0.828913
v 0.365027 0.478485 -0.815462
v 0.354422 0.468768 -0.802104
v 0.342624 0.463577 -0.832310
v 0.332400 0.471775 -0.864165
v 0.334058 0.471068 -0.866147
v 0.349565 0.477481 -0.847315
v 0.332129 0.452677 -0.849552
v 0.355372 0.475004 -0.854260
v 0.341136 0.448834 -0.860323
v 0.326380 0.485600 -0.807671
v 0.323587 0.484372 -0.814820
v 0.337476 0.486142 -0.814046
v 0.329428 0.470102 -0.807829
v 0.336197 0.485579 -0.817323
v 0.328145 0.469537 -0.811115
vt 0.274240 0.539347
vt 0.265397 0.539709
vt 0.266768 0.532487
vt 0.231414 0.551290
vt 0.214659 0.541092
vt 0.231357 0.542861
vt 0.231940 0.569242
vt 0.215985 0.562822
vt 0.231472 0.559719
vt 0.230890 0.533338
vt 0.220414 0.530957
vt 0.213134 0.552274
vt 0.289666 0.544440
vt 0.282983 0.540904
vt 0.290637 0.536818
vt 0.279682 0.529141
vt 0.275518 0.536619
vt 0.273707 0.532162
vt 0.280945 0.538772
vt 0.286431 0.530872
vt 0.290637 0.551375
vt 0.284312 0.543753
vt 0.278488 0.537315
vt 0.276318 0.541045
vt 0.804698 0.251197
vt 0.792375 0.255919
vt 0.792638 0.252041
vt 0.786357 0.239035
vt 0.792578 0.249274
vt 0.791489 0.249454
vt 0.271776 0.541127
vt 0.760733 0.199751
vt 0.757502 0.209505
vt 0.750621 0.206121
vt 0.278108 0.542645
vt 0.273009 0.544115
vt 0.772804 0.201934
vt 0.766718 0.213101
vt 0.766203 0.208706
vt 0.264007 0.548518
vt 0.277612 0.547903
vt 0.268747 0.555467
vt 0.275021 0.546378
vt 0.280714 0.548498
vt 0.281954 0.545638
vt 0.276612 0.557409
vt 0.240880 0.530957
vt 0.248168 0.561486
vt 0.249693 0.550306
vt 0.246843 0.539760
vt 0.242415 0.571620
vt 0.762287 0.211045
vt 0.762255 0.210544
vt 0.761023 0.221925
vt 0.757316 0.212491
vt 0.750922 0.216572
vt 0.772804 0.220841
vt 0.791613 0.252007
vt 0.791097 0.255536
vt 0.780068 0.250772
vt 0.780487 0.263708
vt 0.804698 0.264828
vt 0.798786 0.238814
vt 0.221949 0.571626
vt 0.283377 0.553479
vn -0.1453 -0.9641 0.2224
vn 0.7192 -0.1886 0.6687
vn 0.6787 0.6539 0.3343
vn 0.4885 -0.6084 0.6255
vn 0.7849 0.2472 0.5681
vn -0.0181 0.8153 0.5787
vn -0.2084 -0.4470 0.8699
vn -0.1131 0.4553 0.8832
vn 0.1453 0.9641 -0.2224
vn -0.1788 0.0194 0.9837
vn -0.7920 -0.4697 0.3901
vn -0.8137 -0.3633 -0.4537
vn -0.9308 -0.0099 0.3653
vn 0.2465 0.9345 -0.2569
vn -0.6787 -0.6539 -0.3343
vn 0.4996 0.2840 -0.8184
vn -0.7849 -0.2473 -0.5681
vn -0.5685 -0.8005 -0.1898
vn 0.0181 -0.8153 -0.5788
vn 0.1788 -0.0194 -0.9837
vn 0.1131 -0.4553 -0.8832
vn 0.2084 0.4470 -0.8700
vn 0.6017 -0.7925 -0.0989
vn 0.9308 0.0099 -0.3653
vn 0.8652 -0.4259 -0.2647
vn 0.7920 0.4697 -0.3901
vn -0.7719 -0.3794 -0.5101
vn 0.0092 0.9442 -0.3291
vn -0.6022 0.7050 0.3747
vn 0.3251 0.9435 -0.0647
vn 0.2144 -0.1830 -0.9594
vn -0.8671 0.4257 0.2587
vn -0.9049 -0.1819 0.3847
vn -0.1187 0.9853 -0.1229
vn -0.1734 0.4684 0.8664
vn -0.7672 -0.5112 0.3875
vn -0.3716 0.4460 -0.8142
vn 0.3152 0.7268 0.6102
vn 0.7849 0.2473 0.5681
vn -0.0181 0.8153 0.5788
vn -0.2084 -0.4470 0.8700
vn -0.7734 0.2265 -0.5920
vn 0.4323 0.2637 -0.8623
vn -0.7849 -0.2472 -0.5681
vn 0.0181 -0.8153 -0.5787
vn 0.7920 0.4697 -0.3900
vn -0.7719 -0.3794 -0.5102
vn -0.5395 0.7272 0.4243
vn 0.1727 -0.0179 -0.9848
vn -0.8881 0.2872 0.3590
vn -0.2257 -0.0543 0.9727
vn -0.2143 0.5064 -0.8353
vn 0.2276 0.6925 0.6845
s off
f 17/1/1 27/2/1 5/3/1
f 3/4/2 9/5/2 4/6/2
f 1/7/3 7/8/3 2/9/3
f 5/10/4 9/5/4 10/11/4
f 2/9/5 8/12/5 3/4/5
f 6/13/6 29/14/6 7/15/6
f 9/16/7 13/17/7 10/18/7
f 7/15/8 11/19/8 8/20/8
f 1/21/9 28/22/9 6/13/9
f 8/20/10 12/23/10 9/16/10
f 13/17/11 16/24/11 17/1/11
f 30/25/12 42/26/12 38/27/12
f 11/19/13 16/24/13 12/23/13
f 28/28/14 41/29/14 39/30/14
f 16/24/15 22/31/15 17/1/15
f 19/32/16 35/33/16 18/34/16
f 15/35/17 21/36/17 16/24/17
f 20/37/18 34/38/18 36/39/18
f 22/31/19 26/40/19 27/2/19
f 19/41/20 25/42/20 20/43/20
f 1/21/9 18/44/9 14/45/9
f 20/43/21 26/40/21 21/36/21
f 18/44/22 24/46/22 19/41/22
f 27/47/23 4/6/23 5/10/23
f 24/48/24 3/4/24 25/49/24
f 25/49/25 4/6/25 26/50/25
f 23/51/26 2/9/26 24/48/26
f 13/17/1 5/3/1 10/18/1
f 31/52/27 36/39/27 34/38/27
f 31/52/28 35/33/28 32/53/28
f 30/54/29 33/55/29 31/52/29
f 18/34/30 33/55/30 14/56/30
f 19/32/31 36/39/31 32/53/31
f 30/54/32 34/38/32 15/57/32
f 37/58/33 42/26/33 40/59/33
f 37/58/34 41/29/34 38/27/34
f 29/60/35 40/59/35 11/61/35
f 11/61/36 42/26/36 15/62/36
f 30/25/37 41/29/37 14/63/37
f 29/60/38 39/30/38 37/58/38
f 17/1/1 22/31/1 27/2/1
f 3/4/2 8/12/2 9/5/2
f 1/7/3 6/64/3 7/8/3
f 5/10/4 4/6/4 9/5/4
f 2/9/39 7/8/39 8/12/39
f 6/13/40 28/22/40 29/14/40
f 9/16/41 12/23/41 13/17/41
f 7/15/8 29/14/8 11/19/8
f 1/21/9 14/45/9 28/22/9
f 8/20/10 11/19/10 12/23/10
f 13/17/11 12/23/11 16/24/11
f 30/25/42 15/62/42 42/26/42
f 11/19/13 15/35/13 16/24/13
f 28/28/14 14/63/14 41/29/14
f 16/24/15 21/36/15 22/31/15
f 19/32/43 32/53/43 35/33/43
f 15/35/44 20/43/44 21/36/44
f 20/37/18 15/57/18 34/38/18
f 22/31/45 21/36/45 26/40/45
f 19/41/20 24/46/20 25/42/20
f 1/21/9 23/65/9 18/44/9
f 20/43/21 25/42/21 26/40/21
f 18/44/22 23/65/22 24/46/22
f 27/47/23 26/50/23 4/6/23
f 24/48/24 2/9/24 3/4/24
f 25/49/25 3/4/25 4/6/25
f 23/51/46 1/7/46 2/9/46
f 13/17/1 17/1/1 5/3/1
f 31/52/47 32/53/47 36/39/47
f 31/52/28 33/55/28 35/33/28
f 30/54/48 14/56/48 33/55/48
f 18/34/30 35/33/30 33/55/30
f 19/32/49 20/37/49 36/39/49
f 30/54/50 31/52/50 34/38/50
f 37/58/33 38/27/33 42/26/33
f 37/58/34 39/30/34 41/29/34
f 29/60/51 37/58/51 40/59/51
f 11/61/36 40/59/36 42/26/36
f 30/25/52 38/27/52 41/29/52
f 29/60/53 28/28/53 39/30/53
