# Blender v2.81 (sub 16) OBJ File: 'garbage.blend'
# www.blender.org
v 0.028318 0.560048 0.516750
v 0.022143 0.543998 0.526215
v 0.023184 0.524646 0.529334
v 0.031161 0.507177 0.525271
v 0.043937 0.496272 0.515114
v 0.023444 0.559324 0.498441
v 0.013701 0.542744 0.494503
v 0.013436 0.523198 0.492716
v 0.022719 0.505923 0.493559
v 0.039063 0.495548 0.496805
v 0.039323 0.530226 0.465912
v 0.045138 0.512009 0.470345
v 0.052006 0.499062 0.483403
v 0.054204 0.567075 0.489946
v 0.074958 0.538701 0.475726
v 0.075998 0.519349 0.478844
v 0.069824 0.503300 0.488310
v 0.059078 0.567799 0.508255
v 0.075422 0.557424 0.511501
v 0.084706 0.540149 0.512343
v 0.084440 0.520603 0.510556
v 0.074698 0.504024 0.506619
v 0.046135 0.564286 0.521657
v 0.053004 0.551338 0.534714
v 0.058819 0.533122 0.539148
v 0.062022 0.514517 0.533769
v 0.061754 0.500510 0.520021
v 0.036387 0.562838 0.485039
v 0.036120 0.548830 0.471290
v 0.066980 0.556170 0.479789
v 0.093751 0.576436 0.487478
v 0.094440 0.576538 0.490066
v 0.069286 0.574738 0.490586
v 0.089430 0.553132 0.483399
v 0.071699 0.575097 0.499649
v 0.093173 0.553688 0.497457
v 0.051506 0.566983 0.448173
v 0.058811 0.568721 0.450184
v 0.049354 0.569799 0.460482
v 0.054839 0.552751 0.454159
v 0.052701 0.570595 0.461404
v 0.058196 0.553549 0.455084
vt 0.274240 0.539347
vt 0.265397 0.539709
vt 0.266768 0.532487
vt 0.231414 0.551290
vt 0.214659 0.541092
vt 0.231357 0.542861
vt 0.231940 0.569242
vt 0.215985 0.562822
vt 0.231472 0.559719
vt 0.230890 0.533338
vt 0.220414 0.530957
vt 0.213134 0.552274
vt 0.289666 0.544440
vt 0.282983 0.540904
vt 0.290637 0.536818
vt 0.279682 0.529141
vt 0.275518 0.536619
vt 0.273707 0.532162
vt 0.280945 0.538772
vt 0.286431 0.530872
vt 0.290637 0.551375
vt 0.284312 0.543753
vt 0.278488 0.537315
vt 0.276318 0.541045
vt 0.804698 0.251197
vt 0.792375 0.255919
vt 0.792638 0.252041
vt 0.786357 0.239035
vt 0.792578 0.249274
vt 0.791489 0.249454
vt 0.271776 0.541127
vt 0.760733 0.199751
vt 0.757502 0.209505
vt 0.750621 0.206121
vt 0.278108 0.542645
vt 0.273009 0.544115
vt 0.772804 0.201934
vt 0.766718 0.213101
vt 0.766203 0.208706
vt 0.264007 0.548518
vt 0.277612 0.547903
vt 0.268747 0.555467
vt 0.275021 0.546378
vt 0.280714 0.548498
vt 0.281954 0.545638
vt 0.276612 0.557409
vt 0.240880 0.530957
vt 0.248168 0.561486
vt 0.249693 0.550306
vt 0.246843 0.539760
vt 0.242415 0.571620
vt 0.762287 0.211045
vt 0.762255 0.210544
vt 0.761023 0.221925
vt 0.757316 0.212491
vt 0.750922 0.216572
vt 0.772804 0.220841
vt 0.791613 0.252007
vt 0.791097 0.255536
vt 0.780068 0.250772
vt 0.780487 0.263708
vt 0.804698 0.264828
vt 0.798786 0.238814
vt 0.221949 0.571626
vt 0.283377 0.553479
vn 0.2378 -0.9710 -0.0249
vn -0.8587 -0.4494 0.2464
vn -0.8637 0.4572 0.2119
vn -0.5524 -0.8141 0.1792
vn -0.9662 -0.0104 0.2576
vn -0.6780 0.5215 -0.5181
vn -0.3666 -0.7499 -0.5507
vn -0.7268 0.0723 -0.6830
vn -0.2378 0.9710 0.0249
vn -0.6193 -0.3667 -0.6943
vn 0.3414 -0.5714 -0.7462
vn 0.9374 -0.1408 -0.3184
vn 0.2931 -0.1367 -0.9463
vn -0.2636 0.9556 0.1317
vn 0.8637 -0.4572 -0.2119
vn 0.2076 0.5747 0.7916
vn 0.9662 0.0104 -0.2576
vn 0.7397 -0.6508 -0.1712
vn 0.6780 -0.5215 0.5181
vn 0.6193 0.3667 0.6943
vn 0.7268 -0.0723 0.6830
vn 0.3666 0.7499 0.5507
vn -0.0301 -0.6999 0.7136
vn -0.2931 0.1367 0.9463
vn -0.1856 -0.3022 0.9350
vn -0.3414 0.5714 0.7462
vn 0.9589 -0.1341 -0.2500
vn -0.0718 0.9972 -0.0204
vn -0.1431 0.5107 -0.8478
vn -0.4542 0.8868 0.0859
vn 0.6335 0.2061 0.7458
vn 0.1913 0.3044 -0.9331
vn 0.3193 -0.3029 -0.8979
vn -0.1595 0.9559 -0.2465
vn -0.6827 0.0920 -0.7249
vn 0.3419 -0.6090 -0.7157
vn 0.6734 0.7372 0.0555
vn -0.8718 0.4219 -0.2489
vn 0.8227 0.4550 -0.3408
vn 0.2866 0.5746 0.7666
vn -0.0718 0.9972 -0.0203
vn -0.2242 0.5105 -0.8301
vn -0.4542 0.8868 0.0858
vn 0.6233 0.3686 0.6897
vn 0.1755 0.1381 -0.9748
vn -0.5592 -0.4293 -0.7093
vn 0.3420 -0.6090 -0.7157
vn 0.5749 0.7982 0.1797
vn -0.8626 0.3626 -0.3527
s off
f 17/1/1 27/2/1 5/3/1
f 3/4/2 9/5/2 4/6/2
f 1/7/3 7/8/3 2/9/3
f 5/10/4 9/5/4 10/11/4
f 2/9/5 8/12/5 3/4/5
f 6/13/6 29/14/6 7/15/6
f 9/16/7 13/17/7 10/18/7
f 7/15/8 11/19/8 8/20/8
f 1/21/9 28/22/9 6/13/9
f 8/20/10 12/23/10 9/16/10
f 13/17/11 16/24/11 17/1/11
f 30/25/12 42/26/12 38/27/12
f 11/19/13 16/24/13 12/23/13
f 28/28/14 41/29/14 39/30/14
f 16/24/15 22/31/15 17/1/15
f 19/32/16 35/33/16 18/34/16
f 15/35/17 21/36/17 16/24/17
f 20/37/18 34/38/18 36/39/18
f 22/31/19 26/40/19 27/2/19
f 19/41/20 25/42/20 20/43/20
f 1/21/9 18/44/9 14/45/9
f 20/43/21 26/40/21 21/36/21
f 18/44/22 24/46/22 19/41/22
f 27/47/23 4/6/23 5/10/23
f 24/48/24 3/4/24 25/49/24
f 25/49/25 4/6/25 26/50/25
f 23/51/26 2/9/26 24/48/26
f 13/17/1 5/3/1 10/18/1
f 31/52/27 36/39/27 34/38/27
f 31/52/28 35/33/28 32/53/28
f 30/54/29 33/55/29 31/52/29
f 18/34/30 33/55/30 14/56/30
f 19/32/31 36/39/31 32/53/31
f 30/54/32 34/38/32 15/57/32
f 37/58/33 42/26/33 40/59/33
f 37/58/34 41/29/34 38/27/34
f 29/60/35 40/59/35 11/61/35
f 11/61/36 42/26/36 15/62/36
f 30/25/37 41/29/37 14/63/37
f 29/60/38 39/30/38 37/58/38
f 17/1/1 22/31/1 27/2/1
f 3/4/2 8/12/2 9/5/2
f 1/7/3 6/64/3 7/8/3
f 5/10/4 4/6/4 9/5/4
f 2/9/5 7/8/5 8/12/5
f 6/13/6 28/22/6 29/14/6
f 9/16/7 12/23/7 13/17/7
f 7/15/8 29/14/8 11/19/8
f 1/21/9 14/45/9 28/22/9
f 8/20/10 11/19/10 12/23/10
f 13/17/11 12/23/11 16/24/11
f 30/25/39 15/62/39 42/26/39
f 11/19/13 15/35/13 16/24/13
f 28/28/14 14/63/14 41/29/14
f 16/24/15 21/36/15 22/31/15
f 19/32/40 32/53/40 35/33/40
f 15/35/17 20/43/17 21/36/17
f 20/37/18 15/57/18 34/38/18
f 22/31/19 21/36/19 26/40/19
f 19/41/20 24/46/20 25/42/20
f 1/21/9 23/65/9 18/44/9
f 20/43/21 25/42/21 26/40/21
f 18/44/22 23/65/22 24/46/22
f 27/47/23 26/50/23 4/6/23
f 24/48/24 2/9/24 3/4/24
f 25/49/25 3/4/25 4/6/25
f 23/51/26 1/7/26 2/9/26
f 13/17/1 17/1/1 5/3/1
f 31/52/27 32/53/27 36/39/27
f 31/52/41 33/55/41 35/33/41
f 30/54/42 14/56/42 33/55/42
f 18/34/43 35/33/43 33/55/43
f 19/32/44 20/37/44 36/39/44
f 30/54/45 31/52/45 34/38/45
f 37/58/33 38/27/33 42/26/33
f 37/58/34 39/30/34 41/29/34
f 29/60/46 37/58/46 40/59/46
f 11/61/47 40/59/47 42/26/47
f 30/25/48 38/27/48 41/29/48
f 29/60/49 28/28/49 39/30/49
