# Blender v2.81 (sub 16) OBJ File: 'garbage.blend'
# www.blender.org
v -0.268304 0.673941 -0.655029
v -0.260958 0.657835 -0.663512
v -0.260016 0.638278 -0.664901
v -0.265729 0.620509 -0.658823
v -0.276568 0.609290 -0.646909
v -0.262281 0.675421 -0.637112
v -0.250526 0.660400 -0.632478
v -0.247969 0.641239 -0.629066
v -0.255297 0.623073 -0.627790
v -0.270544 0.610770 -0.628991
v -0.272810 0.647914 -0.601203
v -0.276809 0.628854 -0.603659
v -0.282965 0.614108 -0.615060
v -0.293145 0.680615 -0.627165
v -0.309697 0.651627 -0.609173
v -0.308754 0.632070 -0.610562
v -0.301408 0.615964 -0.619045
v -0.299168 0.679135 -0.645082
v -0.314416 0.666832 -0.646284
v -0.321744 0.648666 -0.645008
v -0.319187 0.629505 -0.641596
v -0.307432 0.614484 -0.636962
v -0.286748 0.675797 -0.659014
v -0.292904 0.661051 -0.670415
v -0.296903 0.641991 -0.672871
v -0.297674 0.623725 -0.665726
v -0.295011 0.611146 -0.650894
v -0.274702 0.678759 -0.623180
v -0.272038 0.666180 -0.608348
v -0.303984 0.669396 -0.615251
v -0.333268 0.685917 -0.622730
v -0.334119 0.685708 -0.625262
v -0.309000 0.686545 -0.627392
v -0.326130 0.663676 -0.617006
v -0.311981 0.685812 -0.636261
v -0.330755 0.662540 -0.630763
v -0.287931 0.684645 -0.585827
v -0.295492 0.685406 -0.587461
v -0.286855 0.686531 -0.598451
v -0.290007 0.669650 -0.590339
v -0.290321 0.686879 -0.599200
v -0.293483 0.670000 -0.591090
vt 0.274240 0.539347
vt 0.265397 0.539709
vt 0.266768 0.532487
vt 0.231414 0.551290
vt 0.214659 0.541092
vt 0.231357 0.542861
vt 0.231940 0.569242
vt 0.215985 0.562822
vt 0.231472 0.559719
vt 0.230890 0.533338
vt 0.220414 0.530957
vt 0.213134 0.552274
vt 0.289666 0.544440
vt 0.282983 0.540904
vt 0.290637 0.536818
vt 0.279682 0.529141
vt 0.275518 0.536619
vt 0.273707 0.532162
vt 0.280945 0.538772
vt 0.286431 0.530872
vt 0.290637 0.551375
vt 0.284312 0.543753
vt 0.278488 0.537315
vt 0.276318 0.541045
vt 0.804698 0.251197
vt 0.792375 0.255919
vt 0.792638 0.252041
vt 0.786357 0.239035
vt 0.792578 0.249274
vt 0.791489 0.249454
vt 0.271776 0.541127
vt 0.760733 0.199751
vt 0.757502 0.209505
vt 0.750621 0.206121
vt 0.278108 0.542645
vt 0.273009 0.544115
vt 0.772804 0.201934
vt 0.766718 0.213101
vt 0.766203 0.208706
vt 0.264007 0.548518
vt 0.277612 0.547903
vt 0.268747 0.555467
vt 0.275021 0.546378
vt 0.280714 0.548498
vt 0.281954 0.545638
vt 0.276612 0.557409
vt 0.240880 0.530957
vt 0.248168 0.561486
vt 0.249693 0.550306
vt 0.246843 0.539760
vt 0.242415 0.571620
vt 0.762287 0.211045
vt 0.762255 0.210544
vt 0.761023 0.221925
vt 0.757316 0.212491
vt 0.750922 0.216572
vt 0.772804 0.220841
vt 0.791613 0.252007
vt 0.791097 0.255536
vt 0.780068 0.250772
vt 0.780487 0.263708
vt 0.804698 0.264828
vt 0.798786 0.238814
vt 0.221949 0.571626
vt 0.283377 0.553479
vn -0.1258 -0.9843 0.1236
vn 0.8871 -0.3766 -0.2671
vn 0.7928 0.5248 -0.3099
vn 0.6281 -0.7640 -0.1480
vn 0.9439 0.0684 -0.3230
vn 0.6455 0.6357 0.4232
vn 0.4808 -0.6531 0.5851
vn 0.7542 0.2113 0.6217
vn 0.1258 0.9843 -0.1236
vn 0.6973 -0.2337 0.6776
vn -0.2296 -0.5335 0.8140
vn -0.8948 -0.2096 0.3942
vn -0.2182 -0.0796 0.9727
vn 0.1466 0.9620 -0.2303
vn -0.7928 -0.5248 0.3099
vn -0.3180 0.4743 -0.8209
vn -0.9439 -0.0684 0.3230
vn -0.6506 -0.7071 0.2771
vn -0.6455 -0.6357 -0.4232
vn -0.6973 0.2337 -0.6776
vn -0.7542 -0.2113 -0.6217
vn -0.4808 0.6530 -0.5851
vn 0.0649 -0.7553 -0.6522
vn 0.2182 0.0796 -0.9727
vn 0.1613 -0.3654 -0.9168
vn 0.2296 0.5335 -0.8140
vn -0.9210 -0.2114 0.3271
vn -0.0391 0.9968 -0.0692
vn 0.1361 0.5987 0.7893
vn 0.3462 0.9183 -0.1923
vn -0.6965 0.0685 -0.7143
vn -0.1673 0.3668 0.9151
vn -0.2286 -0.2513 0.9405
vn 0.0662 0.9860 0.1529
vn 0.7107 0.2300 0.6648
vn -0.2278 -0.5735 0.7869
vn -0.7537 0.6535 -0.0703
vn 0.8326 0.5330 0.1505
vn 0.6281 -0.7639 -0.1480
vn 0.4808 -0.6530 0.5851
vn -0.8463 0.3945 0.3580
vn -0.3949 0.4681 -0.7905
vn -0.9210 -0.2115 0.3271
vn 0.2155 0.6055 0.7661
vn -0.7012 0.2355 -0.6730
vn -0.1305 0.2076 0.9695
vn -0.2285 -0.2513 0.9405
vn 0.6456 -0.3006 0.7020
vn -0.6704 0.7129 -0.2058
vn 0.8364 0.4829 0.2593
s off
f 17/1/1 27/2/1 5/3/1
f 3/4/2 9/5/2 4/6/2
f 1/7/3 7/8/3 2/9/3
f 5/10/4 9/5/4 10/11/4
f 2/9/5 8/12/5 3/4/5
f 6/13/6 29/14/6 7/15/6
f 9/16/7 13/17/7 10/18/7
f 7/15/8 11/19/8 8/20/8
f 1/21/9 28/22/9 6/13/9
f 8/20/10 12/23/10 9/16/10
f 13/17/11 16/24/11 17/1/11
f 30/25/12 42/26/12 38/27/12
f 11/19/13 16/24/13 12/23/13
f 28/28/14 41/29/14 39/30/14
f 16/24/15 22/31/15 17/1/15
f 19/32/16 35/33/16 18/34/16
f 15/35/17 21/36/17 16/24/17
f 20/37/18 34/38/18 36/39/18
f 22/31/19 26/40/19 27/2/19
f 19/41/20 25/42/20 20/43/20
f 1/21/9 18/44/9 14/45/9
f 20/43/21 26/40/21 21/36/21
f 18/44/22 24/46/22 19/41/22
f 27/47/23 4/6/23 5/10/23
f 24/48/24 3/4/24 25/49/24
f 25/49/25 4/6/25 26/50/25
f 23/51/26 2/9/26 24/48/26
f 13/17/1 5/3/1 10/18/1
f 31/52/27 36/39/27 34/38/27
f 31/52/28 35/33/28 32/53/28
f 30/54/29 33/55/29 31/52/29
f 18/34/30 33/55/30 14/56/30
f 19/32/31 36/39/31 32/53/31
f 30/54/32 34/38/32 15/57/32
f 37/58/33 42/26/33 40/59/33
f 37/58/34 41/29/34 38/27/34
f 29/60/35 40/59/35 11/61/35
f 11/61/36 42/26/36 15/62/36
f 30/25/37 41/29/37 14/63/37
f 29/60/38 39/30/38 37/58/38
f 17/1/1 22/31/1 27/2/1
f 3/4/2 8/12/2 9/5/2
f 1/7/3 6/64/3 7/8/3
f 5/10/39 4/6/39 9/5/39
f 2/9/5 7/8/5 8/12/5
f 6/13/6 28/22/6 29/14/6
f 9/16/40 12/23/40 13/17/40
f 7/15/8 29/14/8 11/19/8
f 1/21/9 14/45/9 28/22/9
f 8/20/10 11/19/10 12/23/10
f 13/17/11 12/23/11 16/24/11
f 30/25/41 15/62/41 42/26/41
f 11/19/13 15/35/13 16/24/13
f 28/28/14 14/63/14 41/29/14
f 16/24/15 21/36/15 22/31/15
f 19/32/42 32/53/42 35/33/42
f 15/35/17 20/43/17 21/36/17
f 20/37/18 15/57/18 34/38/18
f 22/31/19 21/36/19 26/40/19
f 19/41/20 24/46/20 25/42/20
f 1/21/9 23/65/9 18/44/9
f 20/43/21 25/42/21 26/40/21
f 18/44/22 23/65/22 24/46/22
f 27/47/23 26/50/23 4/6/23
f 24/48/24 2/9/24 3/4/24
f 25/49/25 3/4/25 4/6/25
f 23/51/26 1/7/26 2/9/26
f 13/17/1 17/1/1 5/3/1
f 31/52/43 32/53/43 36/39/43
f 31/52/28 33/55/28 35/33/28
f 30/54/44 14/56/44 33/55/44
f 18/34/30 35/33/30 33/55/30
f 19/32/45 20/37/45 36/39/45
f 30/54/46 31/52/46 34/38/46
f 37/58/47 38/27/47 42/26/47
f 37/58/34 39/30/34 41/29/34
f 29/60/48 37/58/48 40/59/48
f 11/61/36 40/59/36 42/26/36
f 30/25/49 38/27/49 41/29/49
f 29/60/50 28/28/50 39/30/50
