# Blender v2.81 (sub 16) OBJ File: 'garbage.blend'
# www.blender.org
v 0.520943 0.626965 -0.241635
v 0.516574 0.614456 -0.227153
v 0.516681 0.596256 -0.219800
v 0.521234 0.577243 -0.221547
v 0.529013 0.562509 -0.231926
v 0.510466 0.623336 -0.257016
v 0.498427 0.608171 -0.253792
v 0.495727 0.588998 -0.250561
v 0.503087 0.570957 -0.248187
v 0.518536 0.558880 -0.247306
v 0.512322 0.585960 -0.284522
v 0.517459 0.568326 -0.277598
v 0.526834 0.557361 -0.264287
v 0.537538 0.623927 -0.275596
v 0.549871 0.590180 -0.287722
v 0.549977 0.571980 -0.280369
v 0.545609 0.559471 -0.265887
v 0.548015 0.627556 -0.260216
v 0.563464 0.615479 -0.259335
v 0.570825 0.597438 -0.256961
v 0.568124 0.578266 -0.253730
v 0.556086 0.563100 -0.250506
v 0.539717 0.629075 -0.243235
v 0.549093 0.618111 -0.229924
v 0.554230 0.600476 -0.223000
v 0.553752 0.580897 -0.224318
v 0.547788 0.564619 -0.233526
v 0.518763 0.621817 -0.273996
v 0.512799 0.605539 -0.283204
v 0.545318 0.609194 -0.285975
v 0.574967 0.625833 -0.291506
v 0.576447 0.626345 -0.289333
v 0.552708 0.628925 -0.281207
v 0.567350 0.603246 -0.288311
v 0.557894 0.630721 -0.273594
v 0.575394 0.606032 -0.276502
v 0.521730 0.615742 -0.313483
v 0.529427 0.616607 -0.314139
v 0.523876 0.621336 -0.302161
v 0.525402 0.602683 -0.305391
v 0.527404 0.621733 -0.302462
v 0.528939 0.603081 -0.305692
vt 0.274240 0.539347
vt 0.265397 0.539709
vt 0.266768 0.532487
vt 0.231414 0.551290
vt 0.214659 0.541092
vt 0.231357 0.542861
vt 0.231940 0.569242
vt 0.215985 0.562822
vt 0.231472 0.559719
vt 0.230890 0.533338
vt 0.220414 0.530957
vt 0.213134 0.552274
vt 0.289666 0.544440
vt 0.282983 0.540904
vt 0.290637 0.536818
vt 0.279682 0.529141
vt 0.275518 0.536619
vt 0.273707 0.532162
vt 0.280945 0.538772
vt 0.286431 0.530872
vt 0.290637 0.551375
vt 0.284312 0.543753
vt 0.278488 0.537315
vt 0.276318 0.541045
vt 0.804698 0.251197
vt 0.792375 0.255919
vt 0.792638 0.252041
vt 0.786357 0.239035
vt 0.792578 0.249274
vt 0.791489 0.249454
vt 0.271776 0.541127
vt 0.760733 0.199751
vt 0.757502 0.209505
vt 0.750621 0.206121
vt 0.278108 0.542645
vt 0.273009 0.544115
vt 0.772804 0.201934
vt 0.766718 0.213101
vt 0.766203 0.208706
vt 0.264007 0.548518
vt 0.277612 0.547903
vt 0.268747 0.555467
vt 0.275021 0.546378
vt 0.280714 0.548498
vt 0.281954 0.545638
vt 0.276612 0.557409
vt 0.240880 0.530957
vt 0.248168 0.561486
vt 0.249693 0.550306
vt 0.246843 0.539760
vt 0.242415 0.571620
vt 0.762287 0.211045
vt 0.762255 0.210544
vt 0.761023 0.221925
vt 0.757316 0.212491
vt 0.750922 0.216572
vt 0.772804 0.220841
vt 0.791613 0.252007
vt 0.791097 0.255536
vt 0.780068 0.250772
vt 0.780487 0.263708
vt 0.804698 0.264828
vt 0.798786 0.238814
vt 0.221949 0.571626
vt 0.283377 0.553479
vn 0.1229 -0.9813 0.1478
vn -0.7752 -0.2394 0.5846
vn -0.7036 0.6288 0.3309
vn -0.5427 -0.6560 0.5245
vn -0.8308 0.2043 0.5177
vn -0.7538 0.5103 -0.4140
vn -0.5929 -0.7745 -0.2204
vn -0.8954 0.0516 -0.4422
vn -0.1229 0.9813 -0.1478
vn -0.8399 -0.3920 -0.3753
vn 0.0303 -0.7609 -0.6481
vn 0.7698 -0.3578 -0.5285
vn -0.0369 -0.3745 -0.9265
vn -0.1148 0.9927 -0.0378
vn 0.7036 -0.6289 -0.3309
vn 0.5024 0.6815 0.5322
vn 0.8308 -0.2043 -0.5177
vn 0.5808 -0.7865 -0.2101
vn 0.7538 -0.5103 0.4140
vn 0.8399 0.3920 0.3753
vn 0.8954 -0.0516 0.4422
vn 0.5929 0.7745 0.2204
vn 0.1306 -0.5239 0.8417
vn 0.0369 0.3745 0.9265
vn 0.0924 -0.0691 0.9933
vn -0.0303 0.7609 0.6481
vn 0.8124 -0.3409 -0.4730
vn 0.0219 0.9696 -0.2437
vn -0.3548 0.3431 -0.8697
vn -0.3158 0.9488 -0.0087
vn 0.8541 0.2454 0.4585
vn -0.0863 0.0706 -0.9938
vn -0.0128 -0.5293 -0.8483
vn -0.1366 0.8982 -0.4179
vn -0.8652 0.0547 -0.4985
vn 0.0368 -0.7910 -0.6107
vn 0.7239 0.6097 -0.3229
vn -0.8608 0.5018 -0.0848
vn 0.7119 0.2314 -0.6631
vn 0.7036 -0.6288 -0.3309
vn 0.5690 0.6630 0.4864
vn 0.1306 -0.5240 0.8417
vn 0.8125 -0.3409 -0.4730
vn -0.4257 0.3600 -0.8302
vn 0.8424 0.3923 0.3695
vn -0.1304 -0.0956 -0.9868
vn -0.1365 0.8982 -0.4179
vn -0.7939 -0.4655 -0.3910
vn 0.6764 0.7104 -0.1946
vn -0.8908 0.4219 -0.1689
s off
f 17/1/1 27/2/1 5/3/1
f 3/4/2 9/5/2 4/6/2
f 1/7/3 7/8/3 2/9/3
f 5/10/4 9/5/4 10/11/4
f 2/9/5 8/12/5 3/4/5
f 6/13/6 29/14/6 7/15/6
f 9/16/7 13/17/7 10/18/7
f 7/15/8 11/19/8 8/20/8
f 1/21/9 28/22/9 6/13/9
f 8/20/10 12/23/10 9/16/10
f 13/17/11 16/24/11 17/1/11
f 30/25/12 42/26/12 38/27/12
f 11/19/13 16/24/13 12/23/13
f 28/28/14 41/29/14 39/30/14
f 16/24/15 22/31/15 17/1/15
f 19/32/16 35/33/16 18/34/16
f 15/35/17 21/36/17 16/24/17
f 20/37/18 34/38/18 36/39/18
f 22/31/19 26/40/19 27/2/19
f 19/41/20 25/42/20 20/43/20
f 1/21/9 18/44/9 14/45/9
f 20/43/21 26/40/21 21/36/21
f 18/44/22 24/46/22 19/41/22
f 27/47/23 4/6/23 5/10/23
f 24/48/24 3/4/24 25/49/24
f 25/49/25 4/6/25 26/50/25
f 23/51/26 2/9/26 24/48/26
f 13/17/1 5/3/1 10/18/1
f 31/52/27 36/39/27 34/38/27
f 31/52/28 35/33/28 32/53/28
f 30/54/29 33/55/29 31/52/29
f 18/34/30 33/55/30 14/56/30
f 19/32/31 36/39/31 32/53/31
f 30/54/32 34/38/32 15/57/32
f 37/58/33 42/26/33 40/59/33
f 37/58/34 41/29/34 38/27/34
f 29/60/35 40/59/35 11/61/35
f 11/61/36 42/26/36 15/62/36
f 30/25/37 41/29/37 14/63/37
f 29/60/38 39/30/38 37/58/38
f 17/1/1 22/31/1 27/2/1
f 3/4/2 8/12/2 9/5/2
f 1/7/3 6/64/3 7/8/3
f 5/10/4 4/6/4 9/5/4
f 2/9/5 7/8/5 8/12/5
f 6/13/6 28/22/6 29/14/6
f 9/16/7 12/23/7 13/17/7
f 7/15/8 29/14/8 11/19/8
f 1/21/9 14/45/9 28/22/9
f 8/20/10 11/19/10 12/23/10
f 13/17/11 12/23/11 16/24/11
f 30/25/39 15/62/39 42/26/39
f 11/19/13 15/35/13 16/24/13
f 28/28/14 14/63/14 41/29/14
f 16/24/40 21/36/40 22/31/40
f 19/32/41 32/53/41 35/33/41
f 15/35/17 20/43/17 21/36/17
f 20/37/18 15/57/18 34/38/18
f 22/31/19 21/36/19 26/40/19
f 19/41/20 24/46/20 25/42/20
f 1/21/9 23/65/9 18/44/9
f 20/43/21 25/42/21 26/40/21
f 18/44/22 23/65/22 24/46/22
f 27/47/42 26/50/42 4/6/42
f 24/48/24 2/9/24 3/4/24
f 25/49/25 3/4/25 4/6/25
f 23/51/26 1/7/26 2/9/26
f 13/17/1 17/1/1 5/3/1
f 31/52/43 32/53/43 36/39/43
f 31/52/28 33/55/28 35/33/28
f 30/54/44 14/56/44 33/55/44
f 18/34/30 35/33/30 33/55/30
f 19/32/45 20/37/45 36/39/45
f 30/54/46 31/52/46 34/38/46
f 37/58/33 38/27/33 42/26/33
f 37/58/47 39/30/47 41/29/47
f 29/60/48 37/58/48 40/59/48
f 11/61/36 40/59/36 42/26/36
f 30/25/49 38/27/49 41/29/49
f 29/60/50 28/28/50 39/30/50
