# Blender v2.81 (sub 16) OBJ File: 'garbage.blend'
# www.blender.org
v -0.358932 0.693472 -0.514817
v -0.355147 0.679486 -0.528059
v -0.354429 0.660503 -0.533004
v -0.356971 0.641610 -0.528324
v -0.362091 0.627869 -0.515275
v -0.346441 0.692771 -0.500570
v -0.333511 0.678272 -0.503384
v -0.329446 0.659101 -0.504510
v -0.335335 0.640396 -0.503648
v -0.349599 0.627168 -0.501029
v -0.341610 0.659435 -0.468595
v -0.345869 0.640685 -0.472545
v -0.355681 0.627335 -0.483071
v -0.371096 0.693806 -0.478901
v -0.378757 0.661172 -0.461173
v -0.378039 0.642189 -0.466117
v -0.374254 0.628203 -0.479360
v -0.383587 0.694507 -0.493148
v -0.397851 0.681279 -0.490528
v -0.403740 0.662574 -0.489666
v -0.399675 0.643403 -0.490793
v -0.386746 0.628904 -0.493606
v -0.377505 0.694340 -0.511105
v -0.387317 0.680990 -0.521632
v -0.391576 0.662239 -0.525581
v -0.389141 0.643114 -0.521897
v -0.380664 0.628737 -0.511564
v -0.352522 0.692938 -0.482612
v -0.344045 0.678561 -0.472280
v -0.376215 0.680065 -0.465852
v -0.406425 0.694988 -0.458700
v -0.408191 0.695087 -0.460713
v -0.385903 0.698346 -0.472066
v -0.397180 0.672825 -0.459993
v -0.392086 0.698693 -0.479118
v -0.406771 0.673363 -0.470931
v -0.350283 0.692062 -0.442623
v -0.357898 0.692418 -0.441102
v -0.354245 0.695889 -0.454187
v -0.353653 0.677784 -0.448482
v -0.357734 0.696053 -0.453490
v -0.357152 0.677948 -0.447783
vt 0.274240 0.539347
vt 0.265397 0.539709
vt 0.266768 0.532487
vt 0.231414 0.551290
vt 0.214659 0.541092
vt 0.231357 0.542861
vt 0.231940 0.569242
vt 0.215985 0.562822
vt 0.231472 0.559719
vt 0.230890 0.533338
vt 0.220414 0.530957
vt 0.213134 0.552274
vt 0.289666 0.544440
vt 0.282983 0.540904
vt 0.290637 0.536818
vt 0.279682 0.529141
vt 0.275518 0.536619
vt 0.273707 0.532162
vt 0.280945 0.538772
vt 0.286431 0.530872
vt 0.290637 0.551375
vt 0.284312 0.543753
vt 0.278488 0.537315
vt 0.276318 0.541045
vt 0.804698 0.251197
vt 0.792375 0.255919
vt 0.792638 0.252041
vt 0.786357 0.239035
vt 0.792578 0.249274
vt 0.791489 0.249454
vt 0.271776 0.541127
vt 0.760733 0.199751
vt 0.757502 0.209505
vt 0.750621 0.206121
vt 0.278108 0.542645
vt 0.273009 0.544115
vt 0.772804 0.201934
vt 0.766718 0.213101
vt 0.766203 0.208706
vt 0.264007 0.548518
vt 0.277612 0.547903
vt 0.268747 0.555467
vt 0.275021 0.546378
vt 0.280714 0.548498
vt 0.281954 0.545638
vt 0.276612 0.557409
vt 0.240880 0.530957
vt 0.248168 0.561486
vt 0.249693 0.550306
vt 0.246843 0.539760
vt 0.242415 0.571620
vt 0.762287 0.211045
vt 0.762255 0.210544
vt 0.761023 0.221925
vt 0.757316 0.212491
vt 0.750922 0.216572
vt 0.772804 0.220841
vt 0.791613 0.252007
vt 0.791097 0.255536
vt 0.780068 0.250772
vt 0.780487 0.263708
vt 0.804698 0.264828
vt 0.798786 0.238814
vt 0.221949 0.571626
vt 0.283377 0.553479
vn -0.0481 -0.9988 -0.0070
vn 0.7205 -0.2565 -0.6443
vn 0.5990 0.6300 -0.4942
vn 0.5360 -0.6777 -0.5034
vn 0.7422 0.1951 -0.6412
vn 0.7465 0.6178 0.2471
vn 0.6836 -0.6900 0.2379
vn 0.9323 0.1792 0.3141
vn 0.0481 0.9988 0.0070
vn 0.9106 -0.2723 0.3109
vn 0.1161 -0.6662 0.7367
vn -0.6665 -0.3406 0.6632
vn 0.1793 -0.2416 0.9537
vn 0.0262 0.9945 -0.1017
vn -0.5990 -0.6300 0.4942
vn -0.6219 0.5627 -0.5446
vn -0.7422 -0.1951 0.6412
vn -0.4771 -0.7927 0.3793
vn -0.7465 -0.6178 -0.2471
vn -0.9106 0.2723 -0.3109
vn -0.9323 -0.1792 -0.3141
vn -0.6836 0.6900 -0.2379
vn -0.1790 -0.6416 -0.7459
vn -0.1793 0.2416 -0.9537
vn -0.2010 -0.2099 -0.9568
vn -0.1161 0.6662 -0.7367
vn -0.7167 -0.3346 0.6119
vn -0.0828 0.9892 0.1213
vn 0.4207 0.4838 0.7674
vn 0.2256 0.9625 -0.1505
vn -0.9208 0.1151 -0.3726
vn 0.1948 0.2110 0.9579
vn 0.1606 -0.4069 0.8992
vn 0.1008 0.9543 0.2814
vn 0.9087 0.1876 0.3730
vn 0.1080 -0.7014 0.7045
vn -0.7345 0.5908 0.3340
vn 0.8147 0.5729 -0.0894
vn -0.6479 0.2641 0.7145
vn -0.6807 0.5456 -0.4888
vn -0.4771 -0.7928 0.3793
vn 0.4846 0.5006 0.7173
vn -0.9124 0.2732 -0.3049
vn 0.2531 0.0492 0.9662
vn 0.1607 -0.4069 0.8992
vn 0.1008 0.9543 0.2813
vn 0.8738 -0.3463 0.3414
vn -0.7117 0.6765 0.1891
vn 0.8616 0.5076 -0.0005
s off
f 17/1/1 27/2/1 5/3/1
f 3/4/2 9/5/2 4/6/2
f 1/7/3 7/8/3 2/9/3
f 5/10/4 9/5/4 10/11/4
f 2/9/5 8/12/5 3/4/5
f 6/13/6 29/14/6 7/15/6
f 9/16/7 13/17/7 10/18/7
f 7/15/8 11/19/8 8/20/8
f 1/21/9 28/22/9 6/13/9
f 8/20/10 12/23/10 9/16/10
f 13/17/11 16/24/11 17/1/11
f 30/25/12 42/26/12 38/27/12
f 11/19/13 16/24/13 12/23/13
f 28/28/14 41/29/14 39/30/14
f 16/24/15 22/31/15 17/1/15
f 19/32/16 35/33/16 18/34/16
f 15/35/17 21/36/17 16/24/17
f 20/37/18 34/38/18 36/39/18
f 22/31/19 26/40/19 27/2/19
f 19/41/20 25/42/20 20/43/20
f 1/21/9 18/44/9 14/45/9
f 20/43/21 26/40/21 21/36/21
f 18/44/22 24/46/22 19/41/22
f 27/47/23 4/6/23 5/10/23
f 24/48/24 3/4/24 25/49/24
f 25/49/25 4/6/25 26/50/25
f 23/51/26 2/9/26 24/48/26
f 13/17/1 5/3/1 10/18/1
f 31/52/27 36/39/27 34/38/27
f 31/52/28 35/33/28 32/53/28
f 30/54/29 33/55/29 31/52/29
f 18/34/30 33/55/30 14/56/30
f 19/32/31 36/39/31 32/53/31
f 30/54/32 34/38/32 15/57/32
f 37/58/33 42/26/33 40/59/33
f 37/58/34 41/29/34 38/27/34
f 29/60/35 40/59/35 11/61/35
f 11/61/36 42/26/36 15/62/36
f 30/25/37 41/29/37 14/63/37
f 29/60/38 39/30/38 37/58/38
f 17/1/1 22/31/1 27/2/1
f 3/4/2 8/12/2 9/5/2
f 1/7/3 6/64/3 7/8/3
f 5/10/4 4/6/4 9/5/4
f 2/9/5 7/8/5 8/12/5
f 6/13/6 28/22/6 29/14/6
f 9/16/7 12/23/7 13/17/7
f 7/15/8 29/14/8 11/19/8
f 1/21/9 14/45/9 28/22/9
f 8/20/10 11/19/10 12/23/10
f 13/17/11 12/23/11 16/24/11
f 30/25/39 15/62/39 42/26/39
f 11/19/13 15/35/13 16/24/13
f 28/28/14 14/63/14 41/29/14
f 16/24/15 21/36/15 22/31/15
f 19/32/40 32/53/40 35/33/40
f 15/35/17 20/43/17 21/36/17
f 20/37/41 15/57/41 34/38/41
f 22/31/19 21/36/19 26/40/19
f 19/41/20 24/46/20 25/42/20
f 1/21/9 23/65/9 18/44/9
f 20/43/21 25/42/21 26/40/21
f 18/44/22 23/65/22 24/46/22
f 27/47/23 26/50/23 4/6/23
f 24/48/24 2/9/24 3/4/24
f 25/49/25 3/4/25 4/6/25
f 23/51/26 1/7/26 2/9/26
f 13/17/1 17/1/1 5/3/1
f 31/52/27 32/53/27 36/39/27
f 31/52/28 33/55/28 35/33/28
f 30/54/42 14/56/42 33/55/42
f 18/34/30 35/33/30 33/55/30
f 19/32/43 20/37/43 36/39/43
f 30/54/44 31/52/44 34/38/44
f 37/58/45 38/27/45 42/26/45
f 37/58/46 39/30/46 41/29/46
f 29/60/47 37/58/47 40/59/47
f 11/61/36 40/59/36 42/26/36
f 30/25/48 38/27/48 41/29/48
f 29/60/49 28/28/49 39/30/49
