# Blender v2.81 (sub 16) OBJ File: 'garbage.blend'
# www.blender.org
v -0.137952 0.633163 -0.751546
v -0.129311 0.616049 -0.755759
v -0.128997 0.596451 -0.754707
v -0.137094 0.579619 -0.748672
v -0.151433 0.570064 -0.739270
v -0.137228 0.636632 -0.732920
v -0.128056 0.622058 -0.723498
v -0.127547 0.603389 -0.717455
v -0.135839 0.585627 -0.716410
v -0.150708 0.573533 -0.720644
v -0.158940 0.613714 -0.698856
v -0.163025 0.594569 -0.700303
v -0.166404 0.578695 -0.711344
v -0.169345 0.643488 -0.732947
v -0.191781 0.617101 -0.717510
v -0.191467 0.597502 -0.716458
v -0.182825 0.580389 -0.720671
v -0.170069 0.640019 -0.751574
v -0.184939 0.627924 -0.755807
v -0.193230 0.610163 -0.754762
v -0.192722 0.591494 -0.748719
v -0.183550 0.576920 -0.739297
v -0.154373 0.634857 -0.760873
v -0.157752 0.618983 -0.771914
v -0.161838 0.599838 -0.773361
v -0.165535 0.582552 -0.764826
v -0.167854 0.571757 -0.748597
v -0.152924 0.641795 -0.723620
v -0.155242 0.631000 -0.707391
v -0.183684 0.633933 -0.723545
v -0.208744 0.649964 -0.740907
v -0.208847 0.649474 -0.743540
v -0.184155 0.649622 -0.738387
v -0.204666 0.628429 -0.731009
v -0.184514 0.647905 -0.747607
v -0.205222 0.625765 -0.745311
v -0.175952 0.652251 -0.692551
v -0.182683 0.652945 -0.696375
v -0.171224 0.652623 -0.704450
v -0.177406 0.636868 -0.695833
v -0.174309 0.652941 -0.706203
v -0.180500 0.637187 -0.697591
vt 0.274240 0.539347
vt 0.265397 0.539709
vt 0.266768 0.532487
vt 0.231414 0.551290
vt 0.214659 0.541092
vt 0.231357 0.542861
vt 0.231940 0.569242
vt 0.215985 0.562822
vt 0.231472 0.559719
vt 0.230890 0.533338
vt 0.220414 0.530957
vt 0.213134 0.552274
vt 0.289666 0.544440
vt 0.282983 0.540904
vt 0.290637 0.536818
vt 0.279682 0.529141
vt 0.275518 0.536619
vt 0.273707 0.532162
vt 0.280945 0.538772
vt 0.286431 0.530872
vt 0.290637 0.551375
vt 0.284312 0.543753
vt 0.278488 0.537315
vt 0.276318 0.541045
vt 0.804698 0.251197
vt 0.792375 0.255919
vt 0.792638 0.252041
vt 0.786357 0.239035
vt 0.792578 0.249274
vt 0.791489 0.249454
vt 0.271776 0.541127
vt 0.760733 0.199751
vt 0.757502 0.209505
vt 0.750621 0.206121
vt 0.278108 0.542645
vt 0.273009 0.544115
vt 0.772804 0.201934
vt 0.766718 0.213101
vt 0.766203 0.208706
vt 0.264007 0.548518
vt 0.277612 0.547903
vt 0.268747 0.555467
vt 0.275021 0.546378
vt 0.280714 0.548498
vt 0.281954 0.545638
vt 0.276612 0.557409
vt 0.240880 0.530957
vt 0.248168 0.561486
vt 0.249693 0.550306
vt 0.246843 0.539760
vt 0.242415 0.571620
vt 0.762287 0.211045
vt 0.762255 0.210544
vt 0.761023 0.221925
vt 0.757316 0.212491
vt 0.750922 0.216572
vt 0.772804 0.220841
vt 0.791613 0.252007
vt 0.791097 0.255536
vt 0.780068 0.250772
vt 0.780487 0.263708
vt 0.804698 0.264828
vt 0.798786 0.238814
vt 0.221949 0.571626
vt 0.283377 0.553479
vn -0.2052 -0.9607 0.1869
vn 0.9063 -0.4205 0.0431
vn 0.8736 0.4711 -0.1217
vn 0.6049 -0.7867 0.1230
vn 0.9990 0.0138 -0.0414
vn 0.5290 0.6698 0.5211
vn 0.2603 -0.5881 0.7658
vn 0.5550 0.2698 0.7869
vn 0.2052 0.9607 -0.1869
vn 0.4622 -0.1645 0.8714
vn -0.4790 -0.4302 0.7652
vn -0.9795 -0.1464 0.1385
vn -0.4905 0.0389 0.8706
vn 0.2545 0.9257 -0.2800
vn -0.8736 -0.4711 0.1217
vn -0.0462 0.3801 -0.9238
vn -0.9990 -0.0138 0.0414
vn -0.7373 -0.6584 0.1513
vn -0.5290 -0.6698 -0.5211
vn -0.4622 0.1645 -0.8714
vn -0.5550 -0.2698 -0.7869
vn -0.2603 0.5881 -0.7658
vn 0.2103 -0.8276 -0.5204
vn 0.4905 -0.0389 -0.8706
vn 0.3977 -0.4732 -0.7861
vn 0.4790 0.4302 -0.7652
vn -0.9855 -0.1557 0.0673
vn 0.0325 0.9823 -0.1843
vn -0.0649 0.6847 0.7259
vn 0.4324 0.8833 -0.1813
vn -0.4593 -0.0039 -0.8883
vn -0.4029 0.4745 0.7827
vn -0.4999 -0.1353 0.8555
vn 0.0693 0.9959 0.0587
vn 0.5020 0.2942 0.8133
vn -0.4715 -0.4732 0.7442
vn -0.6684 0.6536 -0.3551
vn 0.7807 0.5326 0.3269
vn -0.8923 0.4483 0.0532
vn 0.2545 0.9257 -0.2799
vn -0.1288 0.3788 -0.9165
vn 0.0325 0.9823 -0.1842
vn 0.0180 0.6874 0.7261
vn -0.4671 0.1670 -0.8683
vn -0.3912 0.3221 0.8621
vn 0.0694 0.9959 0.0587
vn 0.4023 -0.2272 0.8869
vn -0.5470 0.6952 -0.4663
vn 0.7508 0.4955 0.4368
s off
f 17/1/1 27/2/1 5/3/1
f 3/4/2 9/5/2 4/6/2
f 1/7/3 7/8/3 2/9/3
f 5/10/4 9/5/4 10/11/4
f 2/9/5 8/12/5 3/4/5
f 6/13/6 29/14/6 7/15/6
f 9/16/7 13/17/7 10/18/7
f 7/15/8 11/19/8 8/20/8
f 1/21/9 28/22/9 6/13/9
f 8/20/10 12/23/10 9/16/10
f 13/17/11 16/24/11 17/1/11
f 30/25/12 42/26/12 38/27/12
f 11/19/13 16/24/13 12/23/13
f 28/28/14 41/29/14 39/30/14
f 16/24/15 22/31/15 17/1/15
f 19/32/16 35/33/16 18/34/16
f 15/35/17 21/36/17 16/24/17
f 20/37/18 34/38/18 36/39/18
f 22/31/19 26/40/19 27/2/19
f 19/41/20 25/42/20 20/43/20
f 1/21/9 18/44/9 14/45/9
f 20/43/21 26/40/21 21/36/21
f 18/44/22 24/46/22 19/41/22
f 27/47/23 4/6/23 5/10/23
f 24/48/24 3/4/24 25/49/24
f 25/49/25 4/6/25 26/50/25
f 23/51/26 2/9/26 24/48/26
f 13/17/1 5/3/1 10/18/1
f 31/52/27 36/39/27 34/38/27
f 31/52/28 35/33/28 32/53/28
f 30/54/29 33/55/29 31/52/29
f 18/34/30 33/55/30 14/56/30
f 19/32/31 36/39/31 32/53/31
f 30/54/32 34/38/32 15/57/32
f 37/58/33 42/26/33 40/59/33
f 37/58/34 41/29/34 38/27/34
f 29/60/35 40/59/35 11/61/35
f 11/61/36 42/26/36 15/62/36
f 30/25/37 41/29/37 14/63/37
f 29/60/38 39/30/38 37/58/38
f 17/1/1 22/31/1 27/2/1
f 3/4/2 8/12/2 9/5/2
f 1/7/3 6/64/3 7/8/3
f 5/10/4 4/6/4 9/5/4
f 2/9/5 7/8/5 8/12/5
f 6/13/6 28/22/6 29/14/6
f 9/16/7 12/23/7 13/17/7
f 7/15/8 29/14/8 11/19/8
f 1/21/9 14/45/9 28/22/9
f 8/20/10 11/19/10 12/23/10
f 13/17/11 12/23/11 16/24/11
f 30/25/39 15/62/39 42/26/39
f 11/19/13 15/35/13 16/24/13
f 28/28/40 14/63/40 41/29/40
f 16/24/15 21/36/15 22/31/15
f 19/32/41 32/53/41 35/33/41
f 15/35/17 20/43/17 21/36/17
f 20/37/18 15/57/18 34/38/18
f 22/31/19 21/36/19 26/40/19
f 19/41/20 24/46/20 25/42/20
f 1/21/9 23/65/9 18/44/9
f 20/43/21 25/42/21 26/40/21
f 18/44/22 23/65/22 24/46/22
f 27/47/23 26/50/23 4/6/23
f 24/48/24 2/9/24 3/4/24
f 25/49/25 3/4/25 4/6/25
f 23/51/26 1/7/26 2/9/26
f 13/17/1 17/1/1 5/3/1
f 31/52/27 32/53/27 36/39/27
f 31/52/42 33/55/42 35/33/42
f 30/54/43 14/56/43 33/55/43
f 18/34/30 35/33/30 33/55/30
f 19/32/44 20/37/44 36/39/44
f 30/54/45 31/52/45 34/38/45
f 37/58/33 38/27/33 42/26/33
f 37/58/46 39/30/46 41/29/46
f 29/60/47 37/58/47 40/59/47
f 11/61/36 40/59/36 42/26/36
f 30/25/48 38/27/48 41/29/48
f 29/60/49 28/28/49 39/30/49
