# Blender v2.81 (sub 16) OBJ File: 'garbage.blend'
# www.blender.org
v -0.446373 0.573728 0.079799
v -0.444971 0.562845 0.063524
v -0.445111 0.545286 0.054751
v -0.446757 0.525756 0.055831
v -0.449467 0.509488 0.066476
v -0.431557 0.570646 0.091222
v -0.419308 0.557506 0.083308
v -0.415479 0.539121 0.077596
v -0.421094 0.520417 0.075616
v -0.434651 0.506405 0.077898
v -0.421097 0.531765 0.114370
v -0.425960 0.514046 0.107463
v -0.437460 0.502727 0.096285
v -0.451991 0.566372 0.116573
v -0.456347 0.530573 0.128298
v -0.456487 0.513014 0.119525
v -0.455085 0.502131 0.103249
v -0.466807 0.569454 0.105150
v -0.480363 0.555443 0.107433
v -0.485979 0.536738 0.105453
v -0.482149 0.518353 0.099740
v -0.469901 0.505214 0.091827
v -0.463998 0.573133 0.086763
v -0.475498 0.561814 0.075586
v -0.480361 0.544095 0.068679
v -0.477284 0.524724 0.067893
v -0.467092 0.508892 0.073440
v -0.434366 0.566967 0.109609
v -0.424174 0.551135 0.115155
v -0.454701 0.550103 0.127218
v -0.483191 0.562135 0.142386
v -0.485284 0.562571 0.140771
v -0.465362 0.568883 0.126647
v -0.474287 0.541049 0.135005
v -0.472696 0.570409 0.120993
v -0.485663 0.543415 0.126235
v -0.425086 0.558148 0.147569
v -0.432312 0.557904 0.150424
v -0.431036 0.564073 0.137896
v -0.429418 0.545225 0.139585
v -0.434348 0.563961 0.139205
v -0.432739 0.545113 0.140897
vt 0.274240 0.539347
vt 0.265397 0.539709
vt 0.266768 0.532487
vt 0.231414 0.551290
vt 0.214659 0.541092
vt 0.231357 0.542861
vt 0.231940 0.569242
vt 0.215985 0.562822
vt 0.231472 0.559719
vt 0.230890 0.533338
vt 0.220414 0.530957
vt 0.213134 0.552274
vt 0.289666 0.544440
vt 0.282983 0.540904
vt 0.290637 0.536818
vt 0.279682 0.529141
vt 0.275518 0.536619
vt 0.273707 0.532162
vt 0.280945 0.538772
vt 0.286431 0.530872
vt 0.290637 0.551375
vt 0.284312 0.543753
vt 0.278488 0.537315
vt 0.276318 0.541045
vt 0.804698 0.251197
vt 0.792375 0.255919
vt 0.792638 0.252041
vt 0.786357 0.239035
vt 0.792578 0.249274
vt 0.791489 0.249454
vt 0.271776 0.541127
vt 0.760733 0.199751
vt 0.757502 0.209505
vt 0.750621 0.206121
vt 0.278108 0.542645
vt 0.273009 0.544115
vt 0.772804 0.201934
vt 0.766718 0.213101
vt 0.766203 0.208706
vt 0.264007 0.548518
vt 0.277612 0.547903
vt 0.268747 0.555467
vt 0.275021 0.546378
vt 0.280714 0.548498
vt 0.281954 0.545638
vt 0.276612 0.557409
vt 0.240880 0.530957
vt 0.248168 0.561486
vt 0.249693 0.550306
vt 0.246843 0.539760
vt 0.242415 0.571620
vt 0.762287 0.211045
vt 0.762255 0.210544
vt 0.761023 0.221925
vt 0.757316 0.212491
vt 0.750922 0.216572
vt 0.772804 0.220841
vt 0.791613 0.252007
vt 0.791097 0.255536
vt 0.780068 0.250772
vt 0.780487 0.263708
vt 0.804698 0.264828
vt 0.798786 0.238814
vt 0.221949 0.571626
vt 0.283377 0.553479
vn -0.0471 -0.9781 -0.2029
vn 0.5955 -0.0943 -0.7978
vn 0.5012 0.7387 -0.4507
vn 0.4395 -0.5419 -0.7163
vn 0.6168 0.3479 -0.7061
vn 0.7776 0.5831 0.2354
vn 0.7159 -0.6975 -0.0302
vn 0.9729 0.1473 0.1781
vn 0.0471 0.9781 0.2029
vn 0.9516 -0.2949 0.0864
vn 0.2455 -0.7959 0.5534
vn -0.5381 -0.4919 0.6845
vn 0.3455 -0.4216 0.8384
vn 0.0063 0.9949 0.1011
vn -0.5012 -0.7387 0.4507
vn -0.7092 0.6370 -0.3020
vn -0.6168 -0.3479 0.7061
vn -0.4013 -0.8702 0.2857
vn -0.7776 -0.5831 -0.2354
vn -0.9516 0.2949 -0.0864
vn -0.9729 -0.1473 -0.1781
vn -0.7159 0.6975 0.0302
vn -0.3072 -0.4847 -0.8190
vn -0.3455 0.4216 -0.8384
vn -0.3668 -0.0205 -0.9301
vn -0.2455 0.7959 -0.5534
vn -0.5966 -0.4776 0.6449
vn -0.0615 0.9407 0.3337
vn 0.5491 0.3350 0.7657
vn 0.1940 0.9809 0.0130
vn -0.9724 0.1530 -0.1762
vn 0.3609 0.0212 0.9324
vn 0.3178 -0.5732 0.7553
vn 0.1476 0.8813 0.4490
vn 0.9601 0.1427 0.2406
vn 0.2320 -0.8242 0.5166
vn -0.6647 0.4835 0.5697
vn 0.7852 0.6094 -0.1098
vn -0.0471 -0.9781 -0.2028
vn -0.5117 0.0904 0.8544
vn -0.7573 0.6068 -0.2415
vn 0.0471 0.9781 0.2028
vn -0.0615 0.9407 0.3336
vn 0.6031 0.3639 0.7098
vn -0.9523 0.2944 -0.0801
vn 0.4199 -0.1367 0.8972
vn 0.1476 0.8813 0.4489
vn 0.9209 -0.3748 0.1070
vn -0.6680 0.5974 0.4437
vn 0.8471 0.5294 -0.0455
s off
f 17/1/1 27/2/1 5/3/1
f 3/4/2 9/5/2 4/6/2
f 1/7/3 7/8/3 2/9/3
f 5/10/4 9/5/4 10/11/4
f 2/9/5 8/12/5 3/4/5
f 6/13/6 29/14/6 7/15/6
f 9/16/7 13/17/7 10/18/7
f 7/15/8 11/19/8 8/20/8
f 1/21/9 28/22/9 6/13/9
f 8/20/10 12/23/10 9/16/10
f 13/17/11 16/24/11 17/1/11
f 30/25/12 42/26/12 38/27/12
f 11/19/13 16/24/13 12/23/13
f 28/28/14 41/29/14 39/30/14
f 16/24/15 22/31/15 17/1/15
f 19/32/16 35/33/16 18/34/16
f 15/35/17 21/36/17 16/24/17
f 20/37/18 34/38/18 36/39/18
f 22/31/19 26/40/19 27/2/19
f 19/41/20 25/42/20 20/43/20
f 1/21/9 18/44/9 14/45/9
f 20/43/21 26/40/21 21/36/21
f 18/44/22 24/46/22 19/41/22
f 27/47/23 4/6/23 5/10/23
f 24/48/24 3/4/24 25/49/24
f 25/49/25 4/6/25 26/50/25
f 23/51/26 2/9/26 24/48/26
f 13/17/1 5/3/1 10/18/1
f 31/52/27 36/39/27 34/38/27
f 31/52/28 35/33/28 32/53/28
f 30/54/29 33/55/29 31/52/29
f 18/34/30 33/55/30 14/56/30
f 19/32/31 36/39/31 32/53/31
f 30/54/32 34/38/32 15/57/32
f 37/58/33 42/26/33 40/59/33
f 37/58/34 41/29/34 38/27/34
f 29/60/35 40/59/35 11/61/35
f 11/61/36 42/26/36 15/62/36
f 30/25/37 41/29/37 14/63/37
f 29/60/38 39/30/38 37/58/38
f 17/1/39 22/31/39 27/2/39
f 3/4/2 8/12/2 9/5/2
f 1/7/3 6/64/3 7/8/3
f 5/10/4 4/6/4 9/5/4
f 2/9/5 7/8/5 8/12/5
f 6/13/6 28/22/6 29/14/6
f 9/16/7 12/23/7 13/17/7
f 7/15/8 29/14/8 11/19/8
f 1/21/9 14/45/9 28/22/9
f 8/20/10 11/19/10 12/23/10
f 13/17/11 12/23/11 16/24/11
f 30/25/40 15/62/40 42/26/40
f 11/19/13 15/35/13 16/24/13
f 28/28/14 14/63/14 41/29/14
f 16/24/15 21/36/15 22/31/15
f 19/32/41 32/53/41 35/33/41
f 15/35/17 20/43/17 21/36/17
f 20/37/18 15/57/18 34/38/18
f 22/31/19 21/36/19 26/40/19
f 19/41/20 24/46/20 25/42/20
f 1/21/42 23/65/42 18/44/42
f 20/43/21 25/42/21 26/40/21
f 18/44/22 23/65/22 24/46/22
f 27/47/23 26/50/23 4/6/23
f 24/48/24 2/9/24 3/4/24
f 25/49/25 3/4/25 4/6/25
f 23/51/26 1/7/26 2/9/26
f 13/17/1 17/1/1 5/3/1
f 31/52/27 32/53/27 36/39/27
f 31/52/43 33/55/43 35/33/43
f 30/54/44 14/56/44 33/55/44
f 18/34/30 35/33/30 33/55/30
f 19/32/45 20/37/45 36/39/45
f 30/54/46 31/52/46 34/38/46
f 37/58/33 38/27/33 42/26/33
f 37/58/47 39/30/47 41/29/47
f 29/60/48 37/58/48 40/59/48
f 11/61/36 40/59/36 42/26/36
f 30/25/49 38/27/49 41/29/49
f 29/60/50 28/28/50 39/30/50
