# Blender v2.81 (sub 16) OBJ File: 'garbage.blend'
# www.blender.org
v 0.360995 0.628455 0.049639
v 0.356386 0.614215 0.062339
v 0.357143 0.595360 0.067747
v 0.363062 0.576944 0.064414
v 0.372558 0.563900 0.053234
v 0.351968 0.625921 0.033160
v 0.340751 0.609825 0.033795
v 0.339088 0.590291 0.034787
v 0.347426 0.572554 0.035870
v 0.363531 0.561366 0.036754
v 0.358356 0.591926 0.002167
v 0.364113 0.573970 0.007620
v 0.373165 0.562183 0.020444
v 0.380263 0.630090 0.017019
v 0.395678 0.598630 0.002506
v 0.396434 0.579776 0.007914
v 0.391826 0.565535 0.020614
v 0.389290 0.632625 0.033499
v 0.405394 0.621436 0.034383
v 0.413732 0.603699 0.035466
v 0.412070 0.584166 0.036458
v 0.400853 0.568070 0.037093
v 0.379656 0.631807 0.049809
v 0.388708 0.620021 0.062633
v 0.394464 0.602064 0.068086
v 0.395384 0.582750 0.064708
v 0.391219 0.567252 0.053403
v 0.361602 0.626738 0.016850
v 0.357437 0.611241 0.005545
v 0.389759 0.617047 0.005839
v 0.418574 0.635872 0.004510
v 0.419850 0.636230 0.006839
v 0.395448 0.636536 0.013218
v 0.412249 0.612670 0.004710
v 0.399916 0.637791 0.021376
v 0.419180 0.614616 0.017363
v 0.367926 0.625173 -0.022678
v 0.375576 0.626547 -0.022609
v 0.368840 0.629618 -0.010700
v 0.371834 0.611546 -0.015712
v 0.372346 0.630248 -0.010668
v 0.375351 0.612177 -0.015680
vt 0.274240 0.539347
vt 0.265397 0.539709
vt 0.266768 0.532487
vt 0.231414 0.551290
vt 0.214659 0.541092
vt 0.231357 0.542861
vt 0.231940 0.569242
vt 0.215985 0.562822
vt 0.231472 0.559719
vt 0.230890 0.533338
vt 0.220414 0.530957
vt 0.213134 0.552274
vt 0.289666 0.544440
vt 0.282983 0.540904
vt 0.290637 0.536818
vt 0.279682 0.529141
vt 0.275518 0.536619
vt 0.273707 0.532162
vt 0.280945 0.538772
vt 0.286431 0.530872
vt 0.290637 0.551375
vt 0.284312 0.543753
vt 0.278488 0.537315
vt 0.276318 0.541045
vt 0.804698 0.251197
vt 0.792375 0.255919
vt 0.792638 0.252041
vt 0.786357 0.239035
vt 0.792578 0.249274
vt 0.791489 0.249454
vt 0.271776 0.541127
vt 0.760733 0.199751
vt 0.757502 0.209505
vt 0.750621 0.206121
vt 0.278108 0.542645
vt 0.273009 0.544115
vt 0.772804 0.201934
vt 0.766718 0.213101
vt 0.766203 0.208706
vt 0.264007 0.548518
vt 0.277612 0.547903
vt 0.268747 0.555467
vt 0.275021 0.546378
vt 0.280714 0.548498
vt 0.281954 0.545638
vt 0.276612 0.557409
vt 0.240880 0.530957
vt 0.248168 0.561486
vt 0.249693 0.550306
vt 0.246843 0.539760
vt 0.242415 0.571620
vt 0.762287 0.211045
vt 0.762255 0.210544
vt 0.761023 0.221925
vt 0.757316 0.212491
vt 0.750922 0.216572
vt 0.772804 0.220841
vt 0.791613 0.252007
vt 0.791097 0.255536
vt 0.780068 0.250772
vt 0.780487 0.263708
vt 0.804698 0.264828
vt 0.798786 0.238814
vt 0.221949 0.571626
vt 0.283377 0.553479
vn 0.1761 -0.9829 0.0547
vn -0.7995 -0.3458 0.4911
vn -0.7666 0.5475 0.3357
vn -0.5360 -0.7394 0.4074
vn -0.8791 0.0985 0.4664
vn -0.7526 0.5079 -0.4191
vn -0.5221 -0.7789 -0.3474
vn -0.8611 0.0476 -0.5062
vn -0.1761 0.9829 -0.0547
vn -0.7815 -0.3968 -0.4815
vn 0.1292 -0.6830 -0.7189
vn 0.8294 -0.2532 -0.4980
vn 0.0578 -0.2731 -0.9602
vn -0.1770 0.9826 0.0562
vn 0.7666 -0.5475 -0.3357
vn 0.4147 0.6474 0.6394
vn 0.8791 -0.0985 -0.4664
vn 0.6457 -0.7241 -0.2423
vn 0.7526 -0.5079 0.4191
vn 0.7815 0.3968 0.4815
vn -0.1760 0.9829 -0.0547
vn 0.8611 -0.0476 0.5062
vn 0.5221 0.7789 0.3474
vn 0.1013 -0.6039 0.7906
vn -0.0578 0.2731 0.9602
vn 0.0218 -0.1712 0.9850
vn -0.1292 0.6830 0.7189
vn 0.1760 -0.9829 0.0547
vn 0.8665 -0.2400 -0.4377
vn -0.0240 0.9900 -0.1391
vn -0.3102 0.4145 -0.8555
vn -0.3763 0.9243 0.0640
vn 0.7991 0.2430 0.5499
vn -0.0158 0.1731 -0.9848
vn 0.0861 -0.4338 -0.8969
vn -0.1638 0.9289 -0.3322
vn -0.8269 0.0585 -0.5592
vn 0.1349 -0.7164 -0.6845
vn 0.7042 0.6820 -0.1975
vn -0.8833 0.4575 -0.1024
vn -0.7665 0.5475 0.3357
vn -0.5360 -0.7394 0.4073
vn 0.7429 0.3428 -0.5750
vn 0.7665 -0.5475 -0.3357
vn 0.4857 0.6380 0.5976
vn -0.3849 0.4230 -0.8204
vn 0.7844 0.3978 0.4759
vn -0.0492 0.0048 -0.9988
vn -0.7297 -0.4654 -0.5009
vn 0.6406 0.7652 -0.0638
vn -0.9015 0.3856 -0.1965
s off
f 17/1/1 27/2/1 5/3/1
f 3/4/2 9/5/2 4/6/2
f 1/7/3 7/8/3 2/9/3
f 5/10/4 9/5/4 10/11/4
f 2/9/5 8/12/5 3/4/5
f 6/13/6 29/14/6 7/15/6
f 9/16/7 13/17/7 10/18/7
f 7/15/8 11/19/8 8/20/8
f 1/21/9 28/22/9 6/13/9
f 8/20/10 12/23/10 9/16/10
f 13/17/11 16/24/11 17/1/11
f 30/25/12 42/26/12 38/27/12
f 11/19/13 16/24/13 12/23/13
f 28/28/14 41/29/14 39/30/14
f 16/24/15 22/31/15 17/1/15
f 19/32/16 35/33/16 18/34/16
f 15/35/17 21/36/17 16/24/17
f 20/37/18 34/38/18 36/39/18
f 22/31/19 26/40/19 27/2/19
f 19/41/20 25/42/20 20/43/20
f 1/21/21 18/44/21 14/45/21
f 20/43/22 26/40/22 21/36/22
f 18/44/23 24/46/23 19/41/23
f 27/47/24 4/6/24 5/10/24
f 24/48/25 3/4/25 25/49/25
f 25/49/26 4/6/26 26/50/26
f 23/51/27 2/9/27 24/48/27
f 13/17/28 5/3/28 10/18/28
f 31/52/29 36/39/29 34/38/29
f 31/52/30 35/33/30 32/53/30
f 30/54/31 33/55/31 31/52/31
f 18/34/32 33/55/32 14/56/32
f 19/32/33 36/39/33 32/53/33
f 30/54/34 34/38/34 15/57/34
f 37/58/35 42/26/35 40/59/35
f 37/58/36 41/29/36 38/27/36
f 29/60/37 40/59/37 11/61/37
f 11/61/38 42/26/38 15/62/38
f 30/25/39 41/29/39 14/63/39
f 29/60/40 39/30/40 37/58/40
f 17/1/1 22/31/1 27/2/1
f 3/4/2 8/12/2 9/5/2
f 1/7/41 6/64/41 7/8/41
f 5/10/42 4/6/42 9/5/42
f 2/9/5 7/8/5 8/12/5
f 6/13/6 28/22/6 29/14/6
f 9/16/7 12/23/7 13/17/7
f 7/15/8 29/14/8 11/19/8
f 1/21/9 14/45/9 28/22/9
f 8/20/10 11/19/10 12/23/10
f 13/17/11 12/23/11 16/24/11
f 30/25/43 15/62/43 42/26/43
f 11/19/13 15/35/13 16/24/13
f 28/28/14 14/63/14 41/29/14
f 16/24/44 21/36/44 22/31/44
f 19/32/45 32/53/45 35/33/45
f 15/35/17 20/43/17 21/36/17
f 20/37/18 15/57/18 34/38/18
f 22/31/19 21/36/19 26/40/19
f 19/41/20 24/46/20 25/42/20
f 1/21/21 23/65/21 18/44/21
f 20/43/22 25/42/22 26/40/22
f 18/44/23 23/65/23 24/46/23
f 27/47/24 26/50/24 4/6/24
f 24/48/25 2/9/25 3/4/25
f 25/49/26 3/4/26 4/6/26
f 23/51/27 1/7/27 2/9/27
f 13/17/28 17/1/28 5/3/28
f 31/52/29 32/53/29 36/39/29
f 31/52/30 33/55/30 35/33/30
f 30/54/46 14/56/46 33/55/46
f 18/34/32 35/33/32 33/55/32
f 19/32/47 20/37/47 36/39/47
f 30/54/48 31/52/48 34/38/48
f 37/58/35 38/27/35 42/26/35
f 37/58/36 39/30/36 41/29/36
f 29/60/49 37/58/49 40/59/49
f 11/61/38 40/59/38 42/26/38
f 30/25/50 38/27/50 41/29/50
f 29/60/51 28/28/51 39/30/51
