# Blender v2.81 (sub 16) OBJ File: 'garbage.blend'
# www.blender.org
v 0.133922 0.587867 0.392894
v 0.128778 0.572365 0.403782
v 0.129973 0.553157 0.407645
v 0.137185 0.535389 0.403450
v 0.148484 0.523823 0.392320
v 0.126818 0.586408 0.375375
v 0.116473 0.569839 0.373439
v 0.115764 0.550240 0.372608
v 0.124880 0.532863 0.373107
v 0.141379 0.522364 0.374801
v 0.138224 0.555616 0.342532
v 0.144332 0.537519 0.347060
v 0.152609 0.525053 0.359763
v 0.156382 0.593243 0.362817
v 0.174893 0.563909 0.347492
v 0.176088 0.544701 0.351356
v 0.170944 0.529199 0.362243
v 0.163487 0.594702 0.380336
v 0.179986 0.584203 0.382030
v 0.189102 0.566826 0.382529
v 0.188393 0.547227 0.381698
v 0.178048 0.530658 0.379762
v 0.152257 0.592013 0.395374
v 0.160535 0.579547 0.408077
v 0.166642 0.561450 0.412606
v 0.168942 0.542571 0.407746
v 0.166818 0.527970 0.394800
v 0.138048 0.589096 0.360337
v 0.135924 0.574495 0.347391
v 0.167681 0.581677 0.351687
v 0.195428 0.601804 0.355081
v 0.196432 0.602010 0.357557
v 0.171515 0.600667 0.361244
v 0.190368 0.578418 0.352652
v 0.175032 0.601389 0.369916
v 0.195823 0.579538 0.366102
v 0.148548 0.591329 0.321741
v 0.156065 0.593029 0.322758
v 0.147964 0.594729 0.334077
v 0.152430 0.577323 0.327928
v 0.151409 0.595508 0.334543
v 0.155885 0.578105 0.328396
vt 0.274240 0.539347
vt 0.265397 0.539709
vt 0.266768 0.532487
vt 0.231414 0.551290
vt 0.214659 0.541092
vt 0.231357 0.542861
vt 0.231940 0.569242
vt 0.215985 0.562822
vt 0.231472 0.559719
vt 0.230890 0.533338
vt 0.220414 0.530957
vt 0.213134 0.552274
vt 0.289666 0.544440
vt 0.282983 0.540904
vt 0.290637 0.536818
vt 0.279682 0.529141
vt 0.275518 0.536619
vt 0.273707 0.532162
vt 0.280945 0.538772
vt 0.286431 0.530872
vt 0.290637 0.551375
vt 0.284312 0.543753
vt 0.278488 0.537315
vt 0.276318 0.541045
vt 0.804698 0.251197
vt 0.792375 0.255919
vt 0.792638 0.252041
vt 0.786357 0.239035
vt 0.792578 0.249274
vt 0.791489 0.249454
vt 0.271776 0.541127
vt 0.760733 0.199751
vt 0.757502 0.209505
vt 0.750621 0.206121
vt 0.278108 0.542645
vt 0.273009 0.544115
vt 0.772804 0.201934
vt 0.766718 0.213101
vt 0.766203 0.208706
vt 0.264007 0.548518
vt 0.277612 0.547903
vt 0.268747 0.555467
vt 0.275021 0.546378
vt 0.280714 0.548498
vt 0.281954 0.545638
vt 0.276612 0.557409
vt 0.240880 0.530957
vt 0.248168 0.561486
vt 0.249693 0.550306
vt 0.246843 0.539760
vt 0.242415 0.571620
vt 0.762287 0.211045
vt 0.762255 0.210544
vt 0.761023 0.221925
vt 0.757316 0.212491
vt 0.750922 0.216572
vt 0.772804 0.220841
vt 0.791613 0.252007
vt 0.791097 0.255536
vt 0.780068 0.250772
vt 0.780487 0.263708
vt 0.804698 0.264828
vt 0.798786 0.238814
vt 0.221949 0.571626
vt 0.283377 0.553479
vn 0.2217 -0.9751 -0.0087
vn -0.8268 -0.4231 0.3705
vn -0.8257 0.4810 0.2948
vn -0.5354 -0.7957 0.2834
vn -0.9271 0.0177 0.3745
vn -0.7307 0.5093 -0.4546
vn -0.4404 -0.7673 -0.4661
vn -0.8047 0.0542 -0.5912
vn -0.2217 0.9751 0.0087
vn -0.7045 -0.3867 -0.5952
vn 0.2401 -0.6100 -0.7551
vn 0.8893 -0.1710 -0.4242
vn 0.1725 -0.1839 -0.9677
vn -0.2343 0.9649 0.1185
vn 0.8257 -0.4810 -0.2948
vn 0.3103 0.6058 0.7326
vn 0.9271 -0.0177 -0.3745
vn 0.7054 -0.6704 -0.2302
vn 0.7307 -0.5093 0.4546
vn 0.7045 0.3867 0.5952
vn 0.8047 -0.0542 0.5912
vn 0.4404 0.7674 0.4661
vn 0.0502 -0.6666 0.7437
vn -0.1725 0.1839 0.9677
vn -0.0723 -0.2569 0.9637
vn -0.2401 0.6100 0.7551
vn 0.9191 -0.1615 -0.3593
vn -0.0622 0.9964 -0.0577
vn -0.2408 0.4747 -0.8466
vn -0.4299 0.8974 0.0996
vn 0.7230 0.2283 0.6520
vn 0.0781 0.2590 -0.9627
vn 0.2026 -0.3482 -0.9153
vn -0.1777 0.9465 -0.2693
vn -0.7658 0.0712 -0.6391
vn 0.2440 -0.6462 -0.7232
vn 0.6835 0.7273 -0.0620
vn -0.8909 0.4253 -0.1594
vn -0.4404 -0.7674 -0.4661
vn 0.7796 0.4251 -0.4600
vn 0.3857 0.6033 0.6981
vn 0.4404 0.7673 0.4661
vn 0.9191 -0.1616 -0.3593
vn -0.3190 0.4767 -0.8192
vn 0.7078 0.3883 0.5901
vn 0.0554 0.0913 -0.9943
vn -0.6473 -0.4509 -0.6145
vn 0.6019 0.7955 0.0705
vn -0.8953 0.3613 -0.2606
s off
f 17/1/1 27/2/1 5/3/1
f 3/4/2 9/5/2 4/6/2
f 1/7/3 7/8/3 2/9/3
f 5/10/4 9/5/4 10/11/4
f 2/9/5 8/12/5 3/4/5
f 6/13/6 29/14/6 7/15/6
f 9/16/7 13/17/7 10/18/7
f 7/15/8 11/19/8 8/20/8
f 1/21/9 28/22/9 6/13/9
f 8/20/10 12/23/10 9/16/10
f 13/17/11 16/24/11 17/1/11
f 30/25/12 42/26/12 38/27/12
f 11/19/13 16/24/13 12/23/13
f 28/28/14 41/29/14 39/30/14
f 16/24/15 22/31/15 17/1/15
f 19/32/16 35/33/16 18/34/16
f 15/35/17 21/36/17 16/24/17
f 20/37/18 34/38/18 36/39/18
f 22/31/19 26/40/19 27/2/19
f 19/41/20 25/42/20 20/43/20
f 1/21/9 18/44/9 14/45/9
f 20/43/21 26/40/21 21/36/21
f 18/44/22 24/46/22 19/41/22
f 27/47/23 4/6/23 5/10/23
f 24/48/24 3/4/24 25/49/24
f 25/49/25 4/6/25 26/50/25
f 23/51/26 2/9/26 24/48/26
f 13/17/1 5/3/1 10/18/1
f 31/52/27 36/39/27 34/38/27
f 31/52/28 35/33/28 32/53/28
f 30/54/29 33/55/29 31/52/29
f 18/34/30 33/55/30 14/56/30
f 19/32/31 36/39/31 32/53/31
f 30/54/32 34/38/32 15/57/32
f 37/58/33 42/26/33 40/59/33
f 37/58/34 41/29/34 38/27/34
f 29/60/35 40/59/35 11/61/35
f 11/61/36 42/26/36 15/62/36
f 30/25/37 41/29/37 14/63/37
f 29/60/38 39/30/38 37/58/38
f 17/1/1 22/31/1 27/2/1
f 3/4/2 8/12/2 9/5/2
f 1/7/3 6/64/3 7/8/3
f 5/10/4 4/6/4 9/5/4
f 2/9/5 7/8/5 8/12/5
f 6/13/6 28/22/6 29/14/6
f 9/16/39 12/23/39 13/17/39
f 7/15/8 29/14/8 11/19/8
f 1/21/9 14/45/9 28/22/9
f 8/20/10 11/19/10 12/23/10
f 13/17/11 12/23/11 16/24/11
f 30/25/40 15/62/40 42/26/40
f 11/19/13 15/35/13 16/24/13
f 28/28/14 14/63/14 41/29/14
f 16/24/15 21/36/15 22/31/15
f 19/32/41 32/53/41 35/33/41
f 15/35/17 20/43/17 21/36/17
f 20/37/18 15/57/18 34/38/18
f 22/31/19 21/36/19 26/40/19
f 19/41/20 24/46/20 25/42/20
f 1/21/9 23/65/9 18/44/9
f 20/43/21 25/42/21 26/40/21
f 18/44/42 23/65/42 24/46/42
f 27/47/23 26/50/23 4/6/23
f 24/48/24 2/9/24 3/4/24
f 25/49/25 3/4/25 4/6/25
f 23/51/26 1/7/26 2/9/26
f 13/17/1 17/1/1 5/3/1
f 31/52/43 32/53/43 36/39/43
f 31/52/28 33/55/28 35/33/28
f 30/54/44 14/56/44 33/55/44
f 18/34/30 35/33/30 33/55/30
f 19/32/45 20/37/45 36/39/45
f 30/54/46 31/52/46 34/38/46
f 37/58/33 38/27/33 42/26/33
f 37/58/34 39/30/34 41/29/34
f 29/60/47 37/58/47 40/59/47
f 11/61/36 40/59/36 42/26/36
f 30/25/48 38/27/48 41/29/48
f 29/60/49 28/28/49 39/30/49
