# Blender v2.81 (sub 16) OBJ File: 'garbage.blend'
# www.blender.org
v -0.372090 0.693640 -0.474450
v -0.369492 0.680328 -0.488640
v -0.369037 0.661600 -0.494503
v -0.370848 0.642476 -0.490470
v -0.374438 0.628078 -0.477620
v -0.358207 0.692521 -0.461585
v -0.345446 0.678389 -0.466357
v -0.341271 0.659362 -0.468774
v -0.346802 0.640537 -0.468187
v -0.360555 0.626958 -0.464755
v -0.349725 0.657879 -0.431837
v -0.354123 0.639252 -0.436199
v -0.364782 0.626217 -0.446287
v -0.380543 0.692157 -0.437513
v -0.385944 0.658634 -0.420630
v -0.385489 0.639907 -0.426493
v -0.382892 0.626595 -0.440683
v -0.394426 0.693276 -0.450378
v -0.408179 0.679698 -0.446946
v -0.413710 0.660873 -0.446360
v -0.409535 0.641846 -0.448776
v -0.396775 0.627714 -0.453548
v -0.390199 0.694018 -0.468847
v -0.400858 0.680982 -0.478934
v -0.405257 0.662356 -0.483296
v -0.402215 0.643130 -0.480764
v -0.392548 0.628456 -0.472016
v -0.362433 0.691779 -0.443117
v -0.352766 0.677105 -0.434369
v -0.384133 0.677759 -0.424663
v -0.413648 0.691819 -0.413815
v -0.415610 0.691978 -0.415633
v -0.394635 0.696128 -0.429016
v -0.404299 0.669900 -0.417058
v -0.401507 0.696682 -0.435384
v -0.414958 0.670760 -0.426936
v -0.356130 0.689155 -0.403642
v -0.363554 0.689310 -0.401344
v -0.361295 0.693427 -0.414557
v -0.359894 0.675098 -0.409784
v -0.364697 0.693498 -0.413505
v -0.363306 0.675169 -0.408728
vt 0.274240 0.539347
vt 0.265397 0.539709
vt 0.266768 0.532487
vt 0.231414 0.551290
vt 0.214659 0.541092
vt 0.231357 0.542861
vt 0.231940 0.569242
vt 0.215985 0.562822
vt 0.231472 0.559719
vt 0.230890 0.533338
vt 0.220414 0.530957
vt 0.213134 0.552274
vt 0.289666 0.544440
vt 0.282983 0.540904
vt 0.290637 0.536818
vt 0.279682 0.529141
vt 0.275518 0.536619
vt 0.273707 0.532162
vt 0.280945 0.538772
vt 0.286431 0.530872
vt 0.290637 0.551375
vt 0.284312 0.543753
vt 0.278488 0.537315
vt 0.276318 0.541045
vt 0.804698 0.251197
vt 0.792375 0.255919
vt 0.792638 0.252041
vt 0.786357 0.239035
vt 0.792578 0.249274
vt 0.791489 0.249454
vt 0.271776 0.541127
vt 0.760733 0.199751
vt 0.757502 0.209505
vt 0.750621 0.206121
vt 0.278108 0.542645
vt 0.273009 0.544115
vt 0.772804 0.201934
vt 0.766718 0.213101
vt 0.766203 0.208706
vt 0.264007 0.548518
vt 0.277612 0.547903
vt 0.268747 0.555467
vt 0.275021 0.546378
vt 0.280714 0.548498
vt 0.281954 0.545638
vt 0.276612 0.557409
vt 0.240880 0.530957
vt 0.248168 0.561486
vt 0.249693 0.550306
vt 0.246843 0.539760
vt 0.242415 0.571620
vt 0.762287 0.211045
vt 0.762255 0.210544
vt 0.761023 0.221925
vt 0.757316 0.212491
vt 0.750922 0.216572
vt 0.772804 0.220841
vt 0.791613 0.252007
vt 0.791097 0.255536
vt 0.780068 0.250772
vt 0.780487 0.263708
vt 0.804698 0.264828
vt 0.798786 0.238814
vt 0.221949 0.571626
vt 0.283377 0.553479
vn -0.0358 -0.9982 -0.0483
vn 0.6544 -0.2148 -0.7249
vn 0.5375 0.6618 -0.5225
vn 0.4907 -0.6451 -0.5857
vn 0.6706 0.2364 -0.7031
vn 0.7598 0.6190 0.1987
vn 0.7130 -0.6879 0.1355
vn 0.9571 0.1812 0.2263
vn 0.0358 0.9982 0.0483
vn 0.9409 -0.2700 0.2045
vn 0.1989 -0.6963 0.6896
vn -0.5912 -0.3814 0.7107
vn 0.2783 -0.2808 0.9185
vn 0.0030 0.9983 -0.0577
vn -0.5375 -0.6618 0.5225
vn -0.6812 0.5756 -0.4524
vn -0.6706 -0.2364 0.7031
vn -0.4259 -0.8171 0.3885
vn -0.7598 -0.6190 -0.1987
vn -0.9409 0.2700 -0.2045
vn -0.9571 -0.1812 -0.2263
vn -0.7130 0.6879 -0.1355
vn -0.2457 -0.6106 -0.7528
vn -0.2783 0.2808 -0.9185
vn -0.2945 -0.1704 -0.9403
vn -0.1989 0.6963 -0.6896
vn -0.6464 -0.3741 0.6650
vn -0.0827 0.9811 0.1746
vn 0.4903 0.4563 0.7426
vn 0.1968 0.9721 -0.1278
vn -0.9553 0.1156 -0.2720
vn 0.2885 0.1714 0.9420
vn 0.2564 -0.4439 0.8586
vn 0.1167 0.9424 0.3135
vn 0.9394 0.1865 0.2876
vn 0.1880 -0.7302 0.6569
vn -0.7042 0.5624 0.4334
vn 0.7940 0.5904 -0.1447
vn 0.6545 -0.2149 -0.7249
vn 0.5376 0.6618 -0.5225
vn 0.7130 -0.6879 0.1356
vn 0.9409 -0.2701 0.2045
vn -0.5752 0.2206 0.7877
vn -0.5376 -0.6618 0.5225
vn -0.7338 0.5550 -0.3918
vn -0.0827 0.9812 0.1746
vn 0.5486 0.4764 0.6871
vn -0.9421 0.2706 -0.1983
vn 0.3493 0.0104 0.9369
vn 0.2564 -0.4438 0.8586
vn 0.1167 0.9424 0.3136
vn 0.9083 -0.3460 0.2351
vn -0.6974 0.6549 0.2911
vn 0.8505 0.5221 -0.0640
s off
f 17/1/1 27/2/1 5/3/1
f 3/4/2 9/5/2 4/6/2
f 1/7/3 7/8/3 2/9/3
f 5/10/4 9/5/4 10/11/4
f 2/9/5 8/12/5 3/4/5
f 6/13/6 29/14/6 7/15/6
f 9/16/7 13/17/7 10/18/7
f 7/15/8 11/19/8 8/20/8
f 1/21/9 28/22/9 6/13/9
f 8/20/10 12/23/10 9/16/10
f 13/17/11 16/24/11 17/1/11
f 30/25/12 42/26/12 38/27/12
f 11/19/13 16/24/13 12/23/13
f 28/28/14 41/29/14 39/30/14
f 16/24/15 22/31/15 17/1/15
f 19/32/16 35/33/16 18/34/16
f 15/35/17 21/36/17 16/24/17
f 20/37/18 34/38/18 36/39/18
f 22/31/19 26/40/19 27/2/19
f 19/41/20 25/42/20 20/43/20
f 1/21/9 18/44/9 14/45/9
f 20/43/21 26/40/21 21/36/21
f 18/44/22 24/46/22 19/41/22
f 27/47/23 4/6/23 5/10/23
f 24/48/24 3/4/24 25/49/24
f 25/49/25 4/6/25 26/50/25
f 23/51/26 2/9/26 24/48/26
f 13/17/1 5/3/1 10/18/1
f 31/52/27 36/39/27 34/38/27
f 31/52/28 35/33/28 32/53/28
f 30/54/29 33/55/29 31/52/29
f 18/34/30 33/55/30 14/56/30
f 19/32/31 36/39/31 32/53/31
f 30/54/32 34/38/32 15/57/32
f 37/58/33 42/26/33 40/59/33
f 37/58/34 41/29/34 38/27/34
f 29/60/35 40/59/35 11/61/35
f 11/61/36 42/26/36 15/62/36
f 30/25/37 41/29/37 14/63/37
f 29/60/38 39/30/38 37/58/38
f 17/1/1 22/31/1 27/2/1
f 3/4/39 8/12/39 9/5/39
f 1/7/40 6/64/40 7/8/40
f 5/10/4 4/6/4 9/5/4
f 2/9/5 7/8/5 8/12/5
f 6/13/6 28/22/6 29/14/6
f 9/16/41 12/23/41 13/17/41
f 7/15/8 29/14/8 11/19/8
f 1/21/9 14/45/9 28/22/9
f 8/20/42 11/19/42 12/23/42
f 13/17/11 12/23/11 16/24/11
f 30/25/43 15/62/43 42/26/43
f 11/19/13 15/35/13 16/24/13
f 28/28/14 14/63/14 41/29/14
f 16/24/44 21/36/44 22/31/44
f 19/32/45 32/53/45 35/33/45
f 15/35/17 20/43/17 21/36/17
f 20/37/18 15/57/18 34/38/18
f 22/31/19 21/36/19 26/40/19
f 19/41/20 24/46/20 25/42/20
f 1/21/9 23/65/9 18/44/9
f 20/43/21 25/42/21 26/40/21
f 18/44/22 23/65/22 24/46/22
f 27/47/23 26/50/23 4/6/23
f 24/48/24 2/9/24 3/4/24
f 25/49/25 3/4/25 4/6/25
f 23/51/26 1/7/26 2/9/26
f 13/17/1 17/1/1 5/3/1
f 31/52/27 32/53/27 36/39/27
f 31/52/46 33/55/46 35/33/46
f 30/54/47 14/56/47 33/55/47
f 18/34/30 35/33/30 33/55/30
f 19/32/48 20/37/48 36/39/48
f 30/54/49 31/52/49 34/38/49
f 37/58/50 38/27/50 42/26/50
f 37/58/51 39/30/51 41/29/51
f 29/60/52 37/58/52 40/59/52
f 11/61/36 40/59/36 42/26/36
f 30/25/53 38/27/53 41/29/53
f 29/60/54 28/28/54 39/30/54
