# Blender v2.81 (sub 16) OBJ File: 'garbage.blend'
# www.blender.org
v -0.454681 0.544566 0.239025
v -0.457087 0.532980 0.223364
v -0.458601 0.515027 0.215572
v -0.458819 0.495519 0.217736
v -0.457682 0.479682 0.229278
v -0.437203 0.542691 0.246131
v -0.426813 0.529731 0.235671
v -0.423644 0.511276 0.229783
v -0.428546 0.492270 0.230044
v -0.440204 0.477806 0.236384
v -0.418806 0.505470 0.266943
v -0.424356 0.487242 0.262225
v -0.437785 0.474903 0.254964
v -0.449843 0.538760 0.276186
v -0.448924 0.503415 0.289892
v -0.450439 0.485462 0.282100
v -0.452844 0.473876 0.266438
v -0.467321 0.540636 0.269080
v -0.478980 0.526172 0.275420
v -0.483881 0.507166 0.275681
v -0.480712 0.488711 0.269792
v -0.470322 0.475752 0.259333
v -0.469741 0.543539 0.250500
v -0.483170 0.531200 0.243239
v -0.488719 0.512973 0.238521
v -0.484902 0.493740 0.237611
v -0.472741 0.478655 0.240753
v -0.434784 0.539788 0.264711
v -0.422623 0.524703 0.267853
v -0.448706 0.522923 0.287727
v -0.472718 0.534419 0.309585
v -0.475188 0.534684 0.308581
v -0.460149 0.541170 0.289398
v -0.464966 0.513409 0.300818
v -0.468801 0.542098 0.285880
v -0.478386 0.514849 0.295362
v -0.415216 0.533230 0.299048
v -0.421390 0.532809 0.303752
v -0.423854 0.538414 0.291136
v -0.420807 0.519759 0.292982
v -0.426684 0.538221 0.293292
v -0.423645 0.519565 0.295144
vt 0.274240 0.539347
vt 0.265397 0.539709
vt 0.266768 0.532487
vt 0.231414 0.551290
vt 0.214659 0.541092
vt 0.231357 0.542861
vt 0.231940 0.569242
vt 0.215985 0.562822
vt 0.231472 0.559719
vt 0.230890 0.533338
vt 0.220414 0.530957
vt 0.213134 0.552274
vt 0.289666 0.544440
vt 0.282983 0.540904
vt 0.290637 0.536818
vt 0.279682 0.529141
vt 0.275518 0.536619
vt 0.273707 0.532162
vt 0.280945 0.538772
vt 0.286431 0.530872
vt 0.290637 0.551375
vt 0.284312 0.543753
vt 0.278488 0.537315
vt 0.276318 0.541045
vt 0.804698 0.251197
vt 0.792375 0.255919
vt 0.792638 0.252041
vt 0.786357 0.239035
vt 0.792578 0.249274
vt 0.791489 0.249454
vt 0.271776 0.541127
vt 0.760733 0.199751
vt 0.757502 0.209505
vt 0.750621 0.206121
vt 0.278108 0.542645
vt 0.273009 0.544115
vt 0.772804 0.201934
vt 0.766718 0.213101
vt 0.766203 0.208706
vt 0.264007 0.548518
vt 0.277612 0.547903
vt 0.268747 0.555467
vt 0.275021 0.546378
vt 0.280714 0.548498
vt 0.281954 0.545638
vt 0.276612 0.557409
vt 0.240880 0.530957
vt 0.248168 0.561486
vt 0.249693 0.550306
vt 0.246843 0.539760
vt 0.242415 0.571620
vt 0.762287 0.211045
vt 0.762255 0.210544
vt 0.761023 0.221925
vt 0.757316 0.212491
vt 0.750922 0.216572
vt 0.772804 0.220841
vt 0.791613 0.252007
vt 0.791097 0.255536
vt 0.780068 0.250772
vt 0.780487 0.263708
vt 0.804698 0.264828
vt 0.798786 0.238814
vt 0.221949 0.571626
vt 0.283377 0.553479
vn -0.0457 -0.9879 -0.1484
vn 0.3646 -0.1067 -0.9250
vn 0.3209 0.7372 -0.5947
vn 0.2610 -0.5562 -0.7890
vn 0.3853 0.3399 -0.8579
vn 0.7789 0.6272 -0.0034
vn 0.7190 -0.6662 -0.1977
vn 0.9755 0.1981 -0.0960
vn 0.0457 0.9879 0.1484
vn 0.9548 -0.2485 -0.1631
vn 0.4281 -0.7567 0.4941
vn -0.3074 -0.4812 0.8209
vn 0.5799 -0.3651 0.7283
vn -0.0217 0.9979 0.0609
vn -0.3209 -0.7372 0.5946
vn -0.7982 0.5900 -0.1216
vn -0.3853 -0.3399 0.8579
vn -0.2617 -0.8721 0.4135
vn -0.7789 -0.6272 0.0034
vn -0.9548 0.2485 0.1631
vn -0.9755 -0.1981 0.0960
vn -0.7190 0.6662 0.1977
vn -0.4879 -0.5367 -0.6884
vn -0.5799 0.3651 -0.7283
vn -0.6005 -0.0816 -0.7954
vn -0.4281 0.7567 -0.4941
vn -0.3751 -0.4715 0.7981
vn -0.0218 0.9521 0.3049
vn 0.7146 0.3953 0.5771
vn 0.1361 0.9879 -0.0740
vn -0.9910 0.1016 0.0872
vn 0.5954 0.0820 0.7992
vn 0.5394 -0.5215 0.6611
vn 0.2135 0.9076 0.3615
vn 0.9801 0.1960 -0.0323
vn 0.4067 -0.7873 0.4633
vn -0.5136 0.4810 0.7105
vn 0.6924 0.6371 -0.3386
vn -0.2686 0.1092 0.9570
vn -0.8265 0.5607 -0.0494
vn -0.7191 0.6662 0.1977
vn 0.7500 0.4239 0.5078
vn -0.9538 0.2483 0.1694
vn 0.6515 -0.0746 0.7550
vn 0.9352 -0.3286 -0.1322
vn 0.4068 -0.7873 0.4633
vn -0.5569 0.5884 0.5863
vn 0.7736 0.5631 -0.2907
s off
f 17/1/1 27/2/1 5/3/1
f 3/4/2 9/5/2 4/6/2
f 1/7/3 7/8/3 2/9/3
f 5/10/4 9/5/4 10/11/4
f 2/9/5 8/12/5 3/4/5
f 6/13/6 29/14/6 7/15/6
f 9/16/7 13/17/7 10/18/7
f 7/15/8 11/19/8 8/20/8
f 1/21/9 28/22/9 6/13/9
f 8/20/10 12/23/10 9/16/10
f 13/17/11 16/24/11 17/1/11
f 30/25/12 42/26/12 38/27/12
f 11/19/13 16/24/13 12/23/13
f 28/28/14 41/29/14 39/30/14
f 16/24/15 22/31/15 17/1/15
f 19/32/16 35/33/16 18/34/16
f 15/35/17 21/36/17 16/24/17
f 20/37/18 34/38/18 36/39/18
f 22/31/19 26/40/19 27/2/19
f 19/41/20 25/42/20 20/43/20
f 1/21/9 18/44/9 14/45/9
f 20/43/21 26/40/21 21/36/21
f 18/44/22 24/46/22 19/41/22
f 27/47/23 4/6/23 5/10/23
f 24/48/24 3/4/24 25/49/24
f 25/49/25 4/6/25 26/50/25
f 23/51/26 2/9/26 24/48/26
f 13/17/1 5/3/1 10/18/1
f 31/52/27 36/39/27 34/38/27
f 31/52/28 35/33/28 32/53/28
f 30/54/29 33/55/29 31/52/29
f 18/34/30 33/55/30 14/56/30
f 19/32/31 36/39/31 32/53/31
f 30/54/32 34/38/32 15/57/32
f 37/58/33 42/26/33 40/59/33
f 37/58/34 41/29/34 38/27/34
f 29/60/35 40/59/35 11/61/35
f 11/61/36 42/26/36 15/62/36
f 30/25/37 41/29/37 14/63/37
f 29/60/38 39/30/38 37/58/38
f 17/1/1 22/31/1 27/2/1
f 3/4/2 8/12/2 9/5/2
f 1/7/3 6/64/3 7/8/3
f 5/10/4 4/6/4 9/5/4
f 2/9/5 7/8/5 8/12/5
f 6/13/6 28/22/6 29/14/6
f 9/16/7 12/23/7 13/17/7
f 7/15/8 29/14/8 11/19/8
f 1/21/9 14/45/9 28/22/9
f 8/20/10 11/19/10 12/23/10
f 13/17/11 12/23/11 16/24/11
f 30/25/39 15/62/39 42/26/39
f 11/19/13 15/35/13 16/24/13
f 28/28/14 14/63/14 41/29/14
f 16/24/15 21/36/15 22/31/15
f 19/32/40 32/53/40 35/33/40
f 15/35/17 20/43/17 21/36/17
f 20/37/18 15/57/18 34/38/18
f 22/31/19 21/36/19 26/40/19
f 19/41/20 24/46/20 25/42/20
f 1/21/9 23/65/9 18/44/9
f 20/43/21 25/42/21 26/40/21
f 18/44/41 23/65/41 24/46/41
f 27/47/23 26/50/23 4/6/23
f 24/48/24 2/9/24 3/4/24
f 25/49/25 3/4/25 4/6/25
f 23/51/26 1/7/26 2/9/26
f 13/17/1 17/1/1 5/3/1
f 31/52/27 32/53/27 36/39/27
f 31/52/28 33/55/28 35/33/28
f 30/54/42 14/56/42 33/55/42
f 18/34/30 35/33/30 33/55/30
f 19/32/43 20/37/43 36/39/43
f 30/54/44 31/52/44 34/38/44
f 37/58/33 38/27/33 42/26/33
f 37/58/34 39/30/34 41/29/34
f 29/60/45 37/58/45 40/59/45
f 11/61/46 40/59/46 42/26/46
f 30/25/47 38/27/47 41/29/47
f 29/60/48 28/28/48 39/30/48
