# Blender v2.81 (sub 16) OBJ File: 'garbage.blend'
# www.blender.org
v 0.108844 0.581574 0.425171
v 0.103548 0.565942 0.435797
v 0.104749 0.546701 0.439493
v 0.112126 0.529007 0.435271
v 0.123702 0.517602 0.424261
v 0.102107 0.580260 0.407497
v 0.091878 0.563667 0.405184
v 0.091274 0.544074 0.404145
v 0.100456 0.526732 0.404658
v 0.116964 0.516288 0.406587
v 0.114322 0.549847 0.374590
v 0.120416 0.531732 0.379063
v 0.128488 0.519175 0.391809
v 0.131891 0.587347 0.395616
v 0.150844 0.558248 0.380384
v 0.152045 0.539007 0.384081
v 0.146749 0.523375 0.394706
v 0.138629 0.588660 0.413291
v 0.155136 0.578216 0.415219
v 0.164318 0.560875 0.415732
v 0.163714 0.541282 0.414693
v 0.153486 0.524689 0.412380
v 0.127105 0.585774 0.428068
v 0.135177 0.573216 0.440814
v 0.141271 0.555101 0.445287
v 0.143755 0.536282 0.440289
v 0.141963 0.521802 0.427158
v 0.113630 0.583147 0.392719
v 0.111838 0.568666 0.379589
v 0.143467 0.575941 0.384606
v 0.171048 0.596152 0.388768
v 0.172000 0.596337 0.391266
v 0.147019 0.594851 0.394428
v 0.166144 0.572770 0.386004
v 0.150354 0.595501 0.403176
v 0.171317 0.573779 0.399574
v 0.124909 0.585810 0.354371
v 0.132395 0.587532 0.355559
v 0.124057 0.589084 0.366726
v 0.128726 0.571760 0.360498
v 0.127488 0.589873 0.367270
v 0.132167 0.572552 0.361044
vt 0.274240 0.539347
vt 0.265397 0.539709
vt 0.266768 0.532487
vt 0.231414 0.551290
vt 0.214659 0.541092
vt 0.231357 0.542861
vt 0.231940 0.569242
vt 0.215985 0.562822
vt 0.231472 0.559719
vt 0.230890 0.533338
vt 0.220414 0.530957
vt 0.213134 0.552274
vt 0.289666 0.544440
vt 0.282983 0.540904
vt 0.290637 0.536818
vt 0.279682 0.529141
vt 0.275518 0.536619
vt 0.273707 0.532162
vt 0.280945 0.538772
vt 0.286431 0.530872
vt 0.290637 0.551375
vt 0.284312 0.543753
vt 0.278488 0.537315
vt 0.276318 0.541045
vt 0.804698 0.251197
vt 0.792375 0.255919
vt 0.792638 0.252041
vt 0.786357 0.239035
vt 0.792578 0.249274
vt 0.791489 0.249454
vt 0.271776 0.541127
vt 0.760733 0.199751
vt 0.757502 0.209505
vt 0.750621 0.206121
vt 0.278108 0.542645
vt 0.273009 0.544115
vt 0.772804 0.201934
vt 0.766718 0.213101
vt 0.766203 0.208706
vt 0.264007 0.548518
vt 0.277612 0.547903
vt 0.268747 0.555467
vt 0.275021 0.546378
vt 0.280714 0.548498
vt 0.281954 0.545638
vt 0.276612 0.557409
vt 0.240880 0.530957
vt 0.248168 0.561486
vt 0.249693 0.550306
vt 0.246843 0.539760
vt 0.242415 0.571620
vt 0.762287 0.211045
vt 0.762255 0.210544
vt 0.761023 0.221925
vt 0.757316 0.212491
vt 0.750922 0.216572
vt 0.772804 0.220841
vt 0.791613 0.252007
vt 0.791097 0.255536
vt 0.780068 0.250772
vt 0.780487 0.263708
vt 0.804698 0.264828
vt 0.798786 0.238814
vt 0.221949 0.571626
vt 0.283377 0.553479
vn 0.2262 -0.9740 -0.0139
vn -0.8323 -0.4304 0.3493
vn -0.8337 0.4745 0.2825
vn -0.5375 -0.8007 0.2644
vn -0.9346 0.0100 0.3555
vn -0.7235 0.5107 -0.4644
vn -0.4273 -0.7645 -0.4826
vn -0.7926 0.0566 -0.6070
vn -0.2262 0.9740 0.0139
vn -0.6904 -0.3837 -0.6133
vn 0.2583 -0.6014 -0.7560
vn 0.8986 -0.1629 -0.4075
vn 0.1931 -0.1735 -0.9657
vn -0.2410 0.9627 0.1232
vn 0.8337 -0.4745 -0.2825
vn 0.2925 0.5998 0.7448
vn 0.9346 -0.0100 -0.3555
vn 0.7129 -0.6651 -0.2223
vn 0.7235 -0.5107 0.4644
vn 0.6904 0.3837 0.6133
vn 0.7926 -0.0566 0.6070
vn 0.4273 0.7645 0.4826
vn 0.0379 -0.6738 0.7379
vn -0.1931 0.1735 0.9657
vn -0.0908 -0.2668 0.9595
vn -0.2583 0.6014 0.7561
vn 0.2262 -0.9740 -0.0138
vn 0.9270 -0.1540 -0.3419
vn -0.0655 0.9966 -0.0490
vn -0.2255 0.4821 -0.8466
vn -0.4359 0.8945 0.0997
vn 0.7085 0.2249 0.6689
vn 0.0967 0.2690 -0.9583
vn 0.2228 -0.3382 -0.9143
vn -0.1763 0.9484 -0.2635
vn -0.7529 0.0743 -0.6540
vn 0.2616 -0.6378 -0.7244
vn 0.6814 0.7308 -0.0407
vn -0.8894 0.4230 -0.1734
vn 0.2583 -0.6014 -0.7561
vn 0.7869 0.4330 -0.4397
vn 0.3686 0.5979 0.7118
vn -0.2583 0.6014 0.7560
vn -0.0655 0.9966 -0.0491
vn -0.3043 0.4835 -0.8208
vn 0.6939 0.3854 0.6083
vn 0.0753 0.1015 -0.9920
vn -0.1764 0.9484 -0.2635
vn -0.6326 -0.4475 -0.6321
vn 0.5967 0.7973 0.0907
vn -0.8914 0.3600 -0.2753
s off
f 17/1/1 27/2/1 5/3/1
f 3/4/2 9/5/2 4/6/2
f 1/7/3 7/8/3 2/9/3
f 5/10/4 9/5/4 10/11/4
f 2/9/5 8/12/5 3/4/5
f 6/13/6 29/14/6 7/15/6
f 9/16/7 13/17/7 10/18/7
f 7/15/8 11/19/8 8/20/8
f 1/21/9 28/22/9 6/13/9
f 8/20/10 12/23/10 9/16/10
f 13/17/11 16/24/11 17/1/11
f 30/25/12 42/26/12 38/27/12
f 11/19/13 16/24/13 12/23/13
f 28/28/14 41/29/14 39/30/14
f 16/24/15 22/31/15 17/1/15
f 19/32/16 35/33/16 18/34/16
f 15/35/17 21/36/17 16/24/17
f 20/37/18 34/38/18 36/39/18
f 22/31/19 26/40/19 27/2/19
f 19/41/20 25/42/20 20/43/20
f 1/21/9 18/44/9 14/45/9
f 20/43/21 26/40/21 21/36/21
f 18/44/22 24/46/22 19/41/22
f 27/47/23 4/6/23 5/10/23
f 24/48/24 3/4/24 25/49/24
f 25/49/25 4/6/25 26/50/25
f 23/51/26 2/9/26 24/48/26
f 13/17/27 5/3/27 10/18/27
f 31/52/28 36/39/28 34/38/28
f 31/52/29 35/33/29 32/53/29
f 30/54/30 33/55/30 31/52/30
f 18/34/31 33/55/31 14/56/31
f 19/32/32 36/39/32 32/53/32
f 30/54/33 34/38/33 15/57/33
f 37/58/34 42/26/34 40/59/34
f 37/58/35 41/29/35 38/27/35
f 29/60/36 40/59/36 11/61/36
f 11/61/37 42/26/37 15/62/37
f 30/25/38 41/29/38 14/63/38
f 29/60/39 39/30/39 37/58/39
f 17/1/1 22/31/1 27/2/1
f 3/4/2 8/12/2 9/5/2
f 1/7/3 6/64/3 7/8/3
f 5/10/4 4/6/4 9/5/4
f 2/9/5 7/8/5 8/12/5
f 6/13/6 28/22/6 29/14/6
f 9/16/7 12/23/7 13/17/7
f 7/15/8 29/14/8 11/19/8
f 1/21/9 14/45/9 28/22/9
f 8/20/10 11/19/10 12/23/10
f 13/17/40 12/23/40 16/24/40
f 30/25/41 15/62/41 42/26/41
f 11/19/13 15/35/13 16/24/13
f 28/28/14 14/63/14 41/29/14
f 16/24/15 21/36/15 22/31/15
f 19/32/42 32/53/42 35/33/42
f 15/35/17 20/43/17 21/36/17
f 20/37/18 15/57/18 34/38/18
f 22/31/19 21/36/19 26/40/19
f 19/41/20 24/46/20 25/42/20
f 1/21/9 23/65/9 18/44/9
f 20/43/21 25/42/21 26/40/21
f 18/44/22 23/65/22 24/46/22
f 27/47/23 26/50/23 4/6/23
f 24/48/24 2/9/24 3/4/24
f 25/49/25 3/4/25 4/6/25
f 23/51/43 1/7/43 2/9/43
f 13/17/1 17/1/1 5/3/1
f 31/52/28 32/53/28 36/39/28
f 31/52/44 33/55/44 35/33/44
f 30/54/45 14/56/45 33/55/45
f 18/34/31 35/33/31 33/55/31
f 19/32/46 20/37/46 36/39/46
f 30/54/47 31/52/47 34/38/47
f 37/58/34 38/27/34 42/26/34
f 37/58/48 39/30/48 41/29/48
f 29/60/49 37/58/49 40/59/49
f 11/61/37 40/59/37 42/26/37
f 30/25/50 38/27/50 41/29/50
f 29/60/51 28/28/51 39/30/51
