# Blender v2.81 (sub 16) OBJ File: 'garbage.blend'
# www.blender.org
v -0.386165 0.687952 -0.390928
v -0.386001 0.676082 -0.406561
v -0.386262 0.657990 -0.414172
v -0.386878 0.638524 -0.411721
v -0.387684 0.622900 -0.399866
v -0.370091 0.686216 -0.381024
v -0.358160 0.673075 -0.389407
v -0.354113 0.654518 -0.394363
v -0.359036 0.635517 -0.394567
v -0.371610 0.621164 -0.389962
v -0.355438 0.649390 -0.356814
v -0.360184 0.631076 -0.362048
v -0.372272 0.618600 -0.371187
v -0.387490 0.682824 -0.353379
v -0.388912 0.647734 -0.339074
v -0.389173 0.629642 -0.346684
v -0.389009 0.617772 -0.362317
v -0.403565 0.684560 -0.363283
v -0.416138 0.670206 -0.358679
v -0.421061 0.651206 -0.358882
v -0.417015 0.632649 -0.363839
v -0.405084 0.619508 -0.372221
v -0.402902 0.687124 -0.382058
v -0.414991 0.674648 -0.391197
v -0.419736 0.656334 -0.396431
v -0.415868 0.637090 -0.396357
v -0.404421 0.622072 -0.390996
v -0.370753 0.683652 -0.362250
v -0.359307 0.668634 -0.356888
v -0.388296 0.667199 -0.341524
v -0.415535 0.679075 -0.324103
v -0.417807 0.679321 -0.325503
v -0.399815 0.685466 -0.342079
v -0.406502 0.657914 -0.331103
v -0.407772 0.686325 -0.346981
v -0.418844 0.659247 -0.338708
v -0.357087 0.677730 -0.325060
v -0.363949 0.677390 -0.321423
v -0.364301 0.682764 -0.334371
v -0.361642 0.664148 -0.331715
v -0.367446 0.682608 -0.332704
v -0.364795 0.663992 -0.330044
vt 0.274240 0.539347
vt 0.265397 0.539709
vt 0.266768 0.532487
vt 0.231414 0.551290
vt 0.214659 0.541092
vt 0.231357 0.542861
vt 0.231940 0.569242
vt 0.215985 0.562822
vt 0.231472 0.559719
vt 0.230890 0.533338
vt 0.220414 0.530957
vt 0.213134 0.552274
vt 0.289666 0.544440
vt 0.282983 0.540904
vt 0.290637 0.536818
vt 0.279682 0.529141
vt 0.275518 0.536619
vt 0.273707 0.532162
vt 0.280945 0.538772
vt 0.286431 0.530872
vt 0.290637 0.551375
vt 0.284312 0.543753
vt 0.278488 0.537315
vt 0.276318 0.541045
vt 0.804698 0.251197
vt 0.792375 0.255919
vt 0.792638 0.252041
vt 0.786357 0.239035
vt 0.792578 0.249274
vt 0.791489 0.249454
vt 0.271776 0.541127
vt 0.760733 0.199751
vt 0.757502 0.209505
vt 0.750621 0.206121
vt 0.278108 0.542645
vt 0.273009 0.544115
vt 0.772804 0.201934
vt 0.766718 0.213101
vt 0.766203 0.208706
vt 0.264007 0.548518
vt 0.277612 0.547903
vt 0.268747 0.555467
vt 0.275021 0.546378
vt 0.280714 0.548498
vt 0.281954 0.545638
vt 0.276612 0.557409
vt 0.240880 0.530957
vt 0.248168 0.561486
vt 0.249693 0.550306
vt 0.246843 0.539760
vt 0.242415 0.571620
vt 0.762287 0.211045
vt 0.762255 0.210544
vt 0.761023 0.221925
vt 0.757316 0.212491
vt 0.750922 0.216572
vt 0.772804 0.220841
vt 0.791613 0.252007
vt 0.791097 0.255536
vt 0.780068 0.250772
vt 0.780487 0.263708
vt 0.804698 0.264828
vt 0.798786 0.238814
vt 0.221949 0.571626
vt 0.283377 0.553479
vn -0.0231 -0.9904 -0.1361
vn 0.5109 -0.1233 -0.8508
vn 0.4156 0.7265 -0.5473
vn 0.3854 -0.5703 -0.7254
vn 0.5213 0.3245 -0.7892
vn 0.7704 0.6275 0.1129
vn 0.7401 -0.6693 -0.0653
vn 0.9785 0.1969 0.0614
vn 0.0231 0.9904 0.1361
vn 0.9680 -0.2508 -0.0001
vn 0.3396 -0.7474 0.5710
vn -0.4388 -0.4664 0.7680
vn 0.4519 -0.3514 0.8199
vn -0.0290 0.9988 0.0385
vn -0.4156 -0.7265 0.5473
vn -0.7661 0.5872 -0.2613
vn -0.5213 -0.3245 0.7892
vn -0.3279 -0.8646 0.3807
vn -0.7704 -0.6275 -0.1129
vn -0.9680 0.2508 0.0001
vn -0.9785 -0.1969 -0.0614
vn -0.7401 0.6693 0.0653
vn -0.3699 -0.5494 -0.7492
vn -0.4519 0.3514 -0.8199
vn -0.4624 -0.0963 -0.8814
vn -0.3396 0.7474 -0.5711
vn -0.5018 -0.4571 0.7343
vn -0.0691 0.9575 0.2800
vn 0.6114 0.4062 0.6791
vn 0.1487 0.9865 -0.0685
vn -0.9917 0.1026 -0.0781
vn 0.4568 0.0969 0.8843
vn 0.4226 -0.5091 0.7498
vn 0.1536 0.9141 0.3752
vn 0.9726 0.1960 0.1251
vn 0.3235 -0.7786 0.5378
vn -0.6219 0.4935 0.6081
vn 0.7400 0.6313 -0.2320
vn -0.4214 0.1264 0.8980
vn -0.8059 0.5592 -0.1942
vn -0.3396 0.7474 -0.5710
vn 0.6578 0.4335 0.6160
vn -0.9680 0.2507 0.0064
vn 0.5189 -0.0605 0.8527
vn 0.9434 -0.3304 0.0286
vn -0.6439 0.5986 0.4765
vn 0.8121 0.5582 -0.1702
s off
f 17/1/1 27/2/1 5/3/1
f 3/4/2 9/5/2 4/6/2
f 1/7/3 7/8/3 2/9/3
f 5/10/4 9/5/4 10/11/4
f 2/9/5 8/12/5 3/4/5
f 6/13/6 29/14/6 7/15/6
f 9/16/7 13/17/7 10/18/7
f 7/15/8 11/19/8 8/20/8
f 1/21/9 28/22/9 6/13/9
f 8/20/10 12/23/10 9/16/10
f 13/17/11 16/24/11 17/1/11
f 30/25/12 42/26/12 38/27/12
f 11/19/13 16/24/13 12/23/13
f 28/28/14 41/29/14 39/30/14
f 16/24/15 22/31/15 17/1/15
f 19/32/16 35/33/16 18/34/16
f 15/35/17 21/36/17 16/24/17
f 20/37/18 34/38/18 36/39/18
f 22/31/19 26/40/19 27/2/19
f 19/41/20 25/42/20 20/43/20
f 1/21/9 18/44/9 14/45/9
f 20/43/21 26/40/21 21/36/21
f 18/44/22 24/46/22 19/41/22
f 27/47/23 4/6/23 5/10/23
f 24/48/24 3/4/24 25/49/24
f 25/49/25 4/6/25 26/50/25
f 23/51/26 2/9/26 24/48/26
f 13/17/1 5/3/1 10/18/1
f 31/52/27 36/39/27 34/38/27
f 31/52/28 35/33/28 32/53/28
f 30/54/29 33/55/29 31/52/29
f 18/34/30 33/55/30 14/56/30
f 19/32/31 36/39/31 32/53/31
f 30/54/32 34/38/32 15/57/32
f 37/58/33 42/26/33 40/59/33
f 37/58/34 41/29/34 38/27/34
f 29/60/35 40/59/35 11/61/35
f 11/61/36 42/26/36 15/62/36
f 30/25/37 41/29/37 14/63/37
f 29/60/38 39/30/38 37/58/38
f 17/1/1 22/31/1 27/2/1
f 3/4/2 8/12/2 9/5/2
f 1/7/3 6/64/3 7/8/3
f 5/10/4 4/6/4 9/5/4
f 2/9/5 7/8/5 8/12/5
f 6/13/6 28/22/6 29/14/6
f 9/16/7 12/23/7 13/17/7
f 7/15/8 29/14/8 11/19/8
f 1/21/9 14/45/9 28/22/9
f 8/20/10 11/19/10 12/23/10
f 13/17/11 12/23/11 16/24/11
f 30/25/39 15/62/39 42/26/39
f 11/19/13 15/35/13 16/24/13
f 28/28/14 14/63/14 41/29/14
f 16/24/15 21/36/15 22/31/15
f 19/32/40 32/53/40 35/33/40
f 15/35/17 20/43/17 21/36/17
f 20/37/18 15/57/18 34/38/18
f 22/31/19 21/36/19 26/40/19
f 19/41/20 24/46/20 25/42/20
f 1/21/9 23/65/9 18/44/9
f 20/43/21 25/42/21 26/40/21
f 18/44/22 23/65/22 24/46/22
f 27/47/23 26/50/23 4/6/23
f 24/48/24 2/9/24 3/4/24
f 25/49/25 3/4/25 4/6/25
f 23/51/41 1/7/41 2/9/41
f 13/17/1 17/1/1 5/3/1
f 31/52/27 32/53/27 36/39/27
f 31/52/28 33/55/28 35/33/28
f 30/54/42 14/56/42 33/55/42
f 18/34/30 35/33/30 33/55/30
f 19/32/43 20/37/43 36/39/43
f 30/54/44 31/52/44 34/38/44
f 37/58/33 38/27/33 42/26/33
f 37/58/34 39/30/34 41/29/34
f 29/60/45 37/58/45 40/59/45
f 11/61/36 40/59/36 42/26/36
f 30/25/46 38/27/46 41/29/46
f 29/60/47 28/28/47 39/30/47
