# Blender v2.81 (sub 16) OBJ File: 'garbage.blend'
# www.blender.org
v -0.389882 0.619166 -0.109784
v -0.386102 0.609296 -0.126325
v -0.385157 0.592336 -0.136163
v -0.387301 0.572831 -0.136661
v -0.391958 0.556006 -0.127686
v -0.377129 0.614953 -0.096401
v -0.364013 0.602000 -0.103145
v -0.359651 0.583911 -0.109397
v -0.365212 0.565534 -0.113481
v -0.379205 0.551793 -0.114303
v -0.371177 0.574410 -0.074542
v -0.375193 0.557306 -0.083296
v -0.384968 0.547043 -0.096876
v -0.401408 0.609665 -0.074929
v -0.408209 0.573335 -0.066453
v -0.407264 0.556375 -0.076290
v -0.403484 0.546505 -0.092831
v -0.414161 0.613878 -0.088312
v -0.428155 0.600137 -0.089135
v -0.433716 0.581760 -0.093219
v -0.429354 0.563672 -0.099471
v -0.416238 0.550718 -0.106214
v -0.408398 0.618628 -0.105740
v -0.418173 0.608365 -0.119320
v -0.422190 0.591261 -0.128074
v -0.419372 0.571899 -0.129656
v -0.410475 0.555468 -0.123642
v -0.382892 0.610203 -0.078974
v -0.373995 0.593772 -0.072960
v -0.406066 0.592841 -0.065955
v -0.436387 0.604688 -0.054697
v -0.438189 0.605283 -0.056588
v -0.416165 0.611911 -0.066943
v -0.426799 0.583867 -0.061972
v -0.422477 0.613996 -0.073568
v -0.436591 0.587102 -0.072248
v -0.379927 0.598749 -0.040699
v -0.387518 0.598529 -0.039041
v -0.384156 0.605437 -0.050772
v -0.383162 0.586483 -0.050111
v -0.387635 0.605336 -0.050012
v -0.386651 0.586381 -0.049349
vt 0.274240 0.539347
vt 0.265397 0.539709
vt 0.266768 0.532487
vt 0.231414 0.551290
vt 0.214659 0.541092
vt 0.231357 0.542861
vt 0.231940 0.569242
vt 0.215985 0.562822
vt 0.231472 0.559719
vt 0.230890 0.533338
vt 0.220414 0.530957
vt 0.213134 0.552274
vt 0.289666 0.544440
vt 0.282983 0.540904
vt 0.290637 0.536818
vt 0.279682 0.529141
vt 0.275518 0.536619
vt 0.273707 0.532162
vt 0.280945 0.538772
vt 0.286431 0.530872
vt 0.290637 0.551375
vt 0.284312 0.543753
vt 0.278488 0.537315
vt 0.276318 0.541045
vt 0.804698 0.251197
vt 0.792375 0.255919
vt 0.792638 0.252041
vt 0.786357 0.239035
vt 0.792578 0.249274
vt 0.791489 0.249454
vt 0.271776 0.541127
vt 0.760733 0.199751
vt 0.757502 0.209505
vt 0.750621 0.206121
vt 0.278108 0.542645
vt 0.273009 0.544115
vt 0.772804 0.201934
vt 0.766718 0.213101
vt 0.766203 0.208706
vt 0.264007 0.548518
vt 0.277612 0.547903
vt 0.268747 0.555467
vt 0.275021 0.546378
vt 0.280714 0.548498
vt 0.281954 0.545638
vt 0.276612 0.557409
vt 0.240880 0.530957
vt 0.248168 0.561486
vt 0.249693 0.550306
vt 0.246843 0.539760
vt 0.242415 0.571620
vt 0.762287 0.211045
vt 0.762255 0.210544
vt 0.761023 0.221925
vt 0.757316 0.212491
vt 0.750922 0.216572
vt 0.772804 0.220841
vt 0.791613 0.252007
vt 0.791097 0.255536
vt 0.780068 0.250772
vt 0.780487 0.263708
vt 0.804698 0.264828
vt 0.798786 0.238814
vt 0.221949 0.571626
vt 0.283377 0.553479
vn -0.0316 -0.9616 -0.2726
vn 0.7130 -0.0605 -0.6985
vn 0.5796 0.7512 -0.3158
vn 0.5382 -0.5078 -0.6727
vn 0.7273 0.3742 -0.5753
vn 0.7405 0.5449 0.3934
vn 0.6991 -0.7141 0.0365
vn 0.9347 0.1084 0.3386
vn 0.0316 0.9616 0.2726
vn 0.9204 -0.3264 0.2154
vn 0.1402 -0.8358 0.5308
vn -0.6488 -0.5187 0.5568
vn 0.2002 -0.4832 0.8523
vn 0.0078 0.9859 0.1670
vn -0.5796 -0.7512 0.3158
vn -0.6407 0.6745 -0.3668
vn -0.7273 -0.3742 0.5753
vn -0.4571 -0.8749 0.1602
vn -0.7405 -0.5449 -0.3934
vn -0.9204 0.3264 -0.2154
vn -0.9347 -0.1084 -0.3386
vn -0.6991 0.7141 -0.0365
vn -0.1816 -0.4232 -0.8876
vn -0.2002 0.4832 -0.8523
vn -0.2145 0.0485 -0.9755
vn -0.1402 0.8358 -0.5308
vn -0.7000 -0.5004 0.5095
vn -0.0971 0.9191 0.3818
vn 0.4262 0.2704 0.8633
vn 0.2069 0.9723 0.1089
vn -0.9291 0.1911 -0.3167
vn 0.2083 -0.0478 0.9769
vn 0.1834 -0.6284 0.7560
vn 0.0900 0.8467 0.5244
vn 0.9119 0.1002 0.3979
vn 0.1321 -0.8614 0.4905
vn -0.7381 0.4651 0.4888
vn 0.8034 0.5928 0.0563
vn -0.6394 0.0507 0.7672
vn -0.6983 0.6419 -0.3168
vn 0.4889 0.3013 0.8186
vn -0.9221 0.3255 -0.2093
vn 0.2694 -0.2048 0.9410
vn 0.8853 -0.4066 0.2255
vn 0.1322 -0.8614 0.4905
vn -0.7194 0.5867 0.3718
vn 0.8529 0.5072 0.1240
s off
f 17/1/1 27/2/1 5/3/1
f 3/4/2 9/5/2 4/6/2
f 1/7/3 7/8/3 2/9/3
f 5/10/4 9/5/4 10/11/4
f 2/9/5 8/12/5 3/4/5
f 6/13/6 29/14/6 7/15/6
f 9/16/7 13/17/7 10/18/7
f 7/15/8 11/19/8 8/20/8
f 1/21/9 28/22/9 6/13/9
f 8/20/10 12/23/10 9/16/10
f 13/17/11 16/24/11 17/1/11
f 30/25/12 42/26/12 38/27/12
f 11/19/13 16/24/13 12/23/13
f 28/28/14 41/29/14 39/30/14
f 16/24/15 22/31/15 17/1/15
f 19/32/16 35/33/16 18/34/16
f 15/35/17 21/36/17 16/24/17
f 20/37/18 34/38/18 36/39/18
f 22/31/19 26/40/19 27/2/19
f 19/41/20 25/42/20 20/43/20
f 1/21/9 18/44/9 14/45/9
f 20/43/21 26/40/21 21/36/21
f 18/44/22 24/46/22 19/41/22
f 27/47/23 4/6/23 5/10/23
f 24/48/24 3/4/24 25/49/24
f 25/49/25 4/6/25 26/50/25
f 23/51/26 2/9/26 24/48/26
f 13/17/1 5/3/1 10/18/1
f 31/52/27 36/39/27 34/38/27
f 31/52/28 35/33/28 32/53/28
f 30/54/29 33/55/29 31/52/29
f 18/34/30 33/55/30 14/56/30
f 19/32/31 36/39/31 32/53/31
f 30/54/32 34/38/32 15/57/32
f 37/58/33 42/26/33 40/59/33
f 37/58/34 41/29/34 38/27/34
f 29/60/35 40/59/35 11/61/35
f 11/61/36 42/26/36 15/62/36
f 30/25/37 41/29/37 14/63/37
f 29/60/38 39/30/38 37/58/38
f 17/1/1 22/31/1 27/2/1
f 3/4/2 8/12/2 9/5/2
f 1/7/3 6/64/3 7/8/3
f 5/10/4 4/6/4 9/5/4
f 2/9/5 7/8/5 8/12/5
f 6/13/6 28/22/6 29/14/6
f 9/16/7 12/23/7 13/17/7
f 7/15/8 29/14/8 11/19/8
f 1/21/9 14/45/9 28/22/9
f 8/20/10 11/19/10 12/23/10
f 13/17/11 12/23/11 16/24/11
f 30/25/39 15/62/39 42/26/39
f 11/19/13 15/35/13 16/24/13
f 28/28/14 14/63/14 41/29/14
f 16/24/15 21/36/15 22/31/15
f 19/32/40 32/53/40 35/33/40
f 15/35/17 20/43/17 21/36/17
f 20/37/18 15/57/18 34/38/18
f 22/31/19 21/36/19 26/40/19
f 19/41/20 24/46/20 25/42/20
f 1/21/9 23/65/9 18/44/9
f 20/43/21 25/42/21 26/40/21
f 18/44/22 23/65/22 24/46/22
f 27/47/23 26/50/23 4/6/23
f 24/48/24 2/9/24 3/4/24
f 25/49/25 3/4/25 4/6/25
f 23/51/26 1/7/26 2/9/26
f 13/17/1 17/1/1 5/3/1
f 31/52/27 32/53/27 36/39/27
f 31/52/28 33/55/28 35/33/28
f 30/54/41 14/56/41 33/55/41
f 18/34/30 35/33/30 33/55/30
f 19/32/42 20/37/42 36/39/42
f 30/54/43 31/52/43 34/38/43
f 37/58/33 38/27/33 42/26/33
f 37/58/34 39/30/34 41/29/34
f 29/60/44 37/58/44 40/59/44
f 11/61/45 40/59/45 42/26/45
f 30/25/46 38/27/46 41/29/46
f 29/60/47 28/28/47 39/30/47
