# Blender v2.81 (sub 16) OBJ File: 'garbage.blend'
# www.blender.org
v 0.228846 0.608794 0.259011
v 0.224035 0.593779 0.270703
v 0.225104 0.574695 0.275175
v 0.231767 0.556658 0.271228
v 0.242237 0.544499 0.259922
v 0.220771 0.606871 0.241964
v 0.210050 0.590447 0.241176
v 0.208955 0.570849 0.241081
v 0.217781 0.553327 0.241702
v 0.234163 0.542576 0.242875
v 0.229830 0.574751 0.209664
v 0.235859 0.556706 0.214495
v 0.244600 0.544527 0.227166
v 0.249721 0.612697 0.227594
v 0.266854 0.582501 0.212341
v 0.267923 0.563418 0.216813
v 0.263112 0.548402 0.228505
v 0.257795 0.614620 0.244641
v 0.274177 0.603870 0.245814
v 0.283003 0.586348 0.246435
v 0.281908 0.566749 0.246339
v 0.271186 0.550325 0.245552
v 0.247358 0.612669 0.260349
v 0.256099 0.600490 0.273021
v 0.262128 0.582445 0.277852
v 0.263830 0.563369 0.273547
v 0.260749 0.548374 0.261260
v 0.231209 0.608822 0.226256
v 0.228128 0.593827 0.213969
v 0.260191 0.600538 0.216287
v 0.288428 0.620230 0.217464
v 0.289569 0.620502 0.219873
v 0.264872 0.619769 0.224945
v 0.282837 0.596877 0.216141
v 0.268869 0.620721 0.233383
v 0.289037 0.598354 0.229230
v 0.239623 0.609521 0.187094
v 0.247213 0.611109 0.187643
v 0.239773 0.613354 0.199316
v 0.243593 0.595664 0.193556
v 0.243251 0.614082 0.199567
v 0.247081 0.596394 0.193808
vt 0.274240 0.539347
vt 0.265397 0.539709
vt 0.266768 0.532487
vt 0.231414 0.551290
vt 0.214659 0.541092
vt 0.231357 0.542861
vt 0.231940 0.569242
vt 0.215985 0.562822
vt 0.231472 0.559719
vt 0.230890 0.533338
vt 0.220414 0.530957
vt 0.213134 0.552274
vt 0.289666 0.544440
vt 0.282983 0.540904
vt 0.290637 0.536818
vt 0.279682 0.529141
vt 0.275518 0.536619
vt 0.273707 0.532162
vt 0.280945 0.538772
vt 0.286431 0.530872
vt 0.290637 0.551375
vt 0.284312 0.543753
vt 0.278488 0.537315
vt 0.276318 0.541045
vt 0.804698 0.251197
vt 0.792375 0.255919
vt 0.792638 0.252041
vt 0.786357 0.239035
vt 0.792578 0.249274
vt 0.791489 0.249454
vt 0.271776 0.541127
vt 0.760733 0.199751
vt 0.757502 0.209505
vt 0.750621 0.206121
vt 0.278108 0.542645
vt 0.273009 0.544115
vt 0.772804 0.201934
vt 0.766718 0.213101
vt 0.766203 0.208706
vt 0.264007 0.548518
vt 0.277612 0.547903
vt 0.268747 0.555467
vt 0.275021 0.546378
vt 0.280714 0.548498
vt 0.281954 0.545638
vt 0.276612 0.557409
vt 0.240880 0.530957
vt 0.248168 0.561486
vt 0.249693 0.550306
vt 0.246843 0.539760
vt 0.242415 0.571620
vt 0.762287 0.211045
vt 0.762255 0.210544
vt 0.761023 0.221925
vt 0.757316 0.212491
vt 0.750922 0.216572
vt 0.772804 0.220841
vt 0.791613 0.252007
vt 0.791097 0.255536
vt 0.780068 0.250772
vt 0.780487 0.263708
vt 0.804698 0.264828
vt 0.798786 0.238814
vt 0.221949 0.571626
vt 0.283377 0.553479
vn 0.2039 -0.9789 0.0139
vn -0.8126 -0.3941 0.4294
vn -0.7998 0.5067 0.3217
vn -0.5329 -0.7749 0.3398
vn -0.9048 0.0485 0.4231
vn -0.7455 0.5074 -0.4323
vn -0.4785 -0.7743 -0.4141
vn -0.8347 0.0493 -0.5485
vn -0.2039 0.9789 -0.0139
vn -0.7425 -0.3933 -0.5422
vn 0.1879 -0.6402 -0.7449
vn 0.8617 -0.2026 -0.4652
vn 0.1162 -0.2204 -0.9685
vn -0.2106 0.9728 0.0967
vn 0.7998 -0.5067 -0.3217
vn 0.3603 0.6246 0.6928
vn 0.9048 -0.0485 -0.4231
vn 0.6799 -0.6915 -0.2441
vn 0.7455 -0.5074 0.4323
vn 0.7425 0.3933 0.5422
vn 0.8347 -0.0493 0.5485
vn 0.4785 0.7743 0.4141
vn 0.0791 -0.6415 0.7630
vn -0.1162 0.2204 0.9685
vn -0.0240 -0.2221 0.9747
vn -0.1879 0.6402 0.7449
vn 0.8952 -0.1915 -0.4024
vn -0.0479 0.9948 -0.0896
vn -0.2783 0.4498 -0.8487
vn -0.4081 0.9084 0.0908
vn 0.7614 0.2367 0.6035
vn 0.0300 0.2242 -0.9741
vn 0.1462 -0.3834 -0.9120
vn -0.1756 0.9400 -0.2927
vn -0.7982 0.0639 -0.5990
vn 0.1928 -0.6753 -0.7119
vn 0.6917 0.7114 -0.1245
vn -0.8908 0.4366 -0.1260
vn 0.7606 0.3938 -0.5162
vn 0.4337 0.6194 0.6545
vn -0.0479 0.9948 -0.0895
vn -0.3549 0.4542 -0.8171
vn 0.7457 0.3946 0.5369
vn 0.0026 0.0559 -0.9984
vn 0.1462 -0.3834 -0.9119
vn -0.6877 -0.4592 -0.5623
vn 0.6186 0.7856 0.0097
vn -0.9018 0.3693 -0.2246
s off
f 17/1/1 27/2/1 5/3/1
f 3/4/2 9/5/2 4/6/2
f 1/7/3 7/8/3 2/9/3
f 5/10/4 9/5/4 10/11/4
f 2/9/5 8/12/5 3/4/5
f 6/13/6 29/14/6 7/15/6
f 9/16/7 13/17/7 10/18/7
f 7/15/8 11/19/8 8/20/8
f 1/21/9 28/22/9 6/13/9
f 8/20/10 12/23/10 9/16/10
f 13/17/11 16/24/11 17/1/11
f 30/25/12 42/26/12 38/27/12
f 11/19/13 16/24/13 12/23/13
f 28/28/14 41/29/14 39/30/14
f 16/24/15 22/31/15 17/1/15
f 19/32/16 35/33/16 18/34/16
f 15/35/17 21/36/17 16/24/17
f 20/37/18 34/38/18 36/39/18
f 22/31/19 26/40/19 27/2/19
f 19/41/20 25/42/20 20/43/20
f 1/21/9 18/44/9 14/45/9
f 20/43/21 26/40/21 21/36/21
f 18/44/22 24/46/22 19/41/22
f 27/47/23 4/6/23 5/10/23
f 24/48/24 3/4/24 25/49/24
f 25/49/25 4/6/25 26/50/25
f 23/51/26 2/9/26 24/48/26
f 13/17/1 5/3/1 10/18/1
f 31/52/27 36/39/27 34/38/27
f 31/52/28 35/33/28 32/53/28
f 30/54/29 33/55/29 31/52/29
f 18/34/30 33/55/30 14/56/30
f 19/32/31 36/39/31 32/53/31
f 30/54/32 34/38/32 15/57/32
f 37/58/33 42/26/33 40/59/33
f 37/58/34 41/29/34 38/27/34
f 29/60/35 40/59/35 11/61/35
f 11/61/36 42/26/36 15/62/36
f 30/25/37 41/29/37 14/63/37
f 29/60/38 39/30/38 37/58/38
f 17/1/1 22/31/1 27/2/1
f 3/4/2 8/12/2 9/5/2
f 1/7/3 6/64/3 7/8/3
f 5/10/4 4/6/4 9/5/4
f 2/9/5 7/8/5 8/12/5
f 6/13/6 28/22/6 29/14/6
f 9/16/7 12/23/7 13/17/7
f 7/15/8 29/14/8 11/19/8
f 1/21/9 14/45/9 28/22/9
f 8/20/10 11/19/10 12/23/10
f 13/17/11 12/23/11 16/24/11
f 30/25/39 15/62/39 42/26/39
f 11/19/13 15/35/13 16/24/13
f 28/28/14 14/63/14 41/29/14
f 16/24/15 21/36/15 22/31/15
f 19/32/40 32/53/40 35/33/40
f 15/35/17 20/43/17 21/36/17
f 20/37/18 15/57/18 34/38/18
f 22/31/19 21/36/19 26/40/19
f 19/41/20 24/46/20 25/42/20
f 1/21/9 23/65/9 18/44/9
f 20/43/21 25/42/21 26/40/21
f 18/44/22 23/65/22 24/46/22
f 27/47/23 26/50/23 4/6/23
f 24/48/24 2/9/24 3/4/24
f 25/49/25 3/4/25 4/6/25
f 23/51/26 1/7/26 2/9/26
f 13/17/1 17/1/1 5/3/1
f 31/52/27 32/53/27 36/39/27
f 31/52/41 33/55/41 35/33/41
f 30/54/42 14/56/42 33/55/42
f 18/34/30 35/33/30 33/55/30
f 19/32/43 20/37/43 36/39/43
f 30/54/44 31/52/44 34/38/44
f 37/58/45 38/27/45 42/26/45
f 37/58/34 39/30/34 41/29/34
f 29/60/46 37/58/46 40/59/46
f 11/61/36 40/59/36 42/26/36
f 30/25/47 38/27/47 41/29/47
f 29/60/48 28/28/48 39/30/48
