# Blender v2.81 (sub 16) OBJ File: 'garbage.blend'
# www.blender.org
v 0.083127 0.574894 0.456846
v 0.077637 0.559128 0.467170
v 0.078829 0.539854 0.470691
v 0.086384 0.522237 0.466465
v 0.098277 0.510996 0.455625
v 0.076834 0.573743 0.438997
v 0.066737 0.557135 0.436256
v 0.066243 0.537552 0.434994
v 0.075484 0.520243 0.435551
v 0.091984 0.509845 0.437776
v 0.089989 0.543735 0.406082
v 0.096049 0.525598 0.410512
v 0.103857 0.512937 0.423320
v 0.106873 0.581077 0.427934
v 0.126321 0.552219 0.412867
v 0.127513 0.532945 0.416388
v 0.122023 0.517179 0.426713
v 0.113165 0.582228 0.445783
v 0.129665 0.571830 0.448008
v 0.138906 0.554521 0.448565
v 0.138412 0.534939 0.447303
v 0.128316 0.518330 0.444561
v 0.101292 0.579137 0.460239
v 0.109101 0.566476 0.473047
v 0.115160 0.548338 0.477477
v 0.117848 0.529584 0.472342
v 0.116443 0.515239 0.459017
v 0.088707 0.576835 0.424541
v 0.087302 0.562489 0.411217
v 0.118766 0.569837 0.417093
v 0.146148 0.590112 0.422152
v 0.147038 0.590275 0.424674
v 0.121993 0.588654 0.427200
v 0.141415 0.566742 0.419018
v 0.125108 0.589224 0.436035
v 0.146246 0.567626 0.432723
v 0.100919 0.579955 0.386514
v 0.108366 0.581694 0.387905
v 0.099747 0.583092 0.398878
v 0.104643 0.565855 0.392584
v 0.103161 0.583889 0.399516
v 0.108066 0.566655 0.393224
vt 0.274240 0.539347
vt 0.265397 0.539709
vt 0.266768 0.532487
vt 0.231414 0.551290
vt 0.214659 0.541092
vt 0.231357 0.542861
vt 0.231940 0.569242
vt 0.215985 0.562822
vt 0.231472 0.559719
vt 0.230890 0.533338
vt 0.220414 0.530957
vt 0.213134 0.552274
vt 0.289666 0.544440
vt 0.282983 0.540904
vt 0.290637 0.536818
vt 0.279682 0.529141
vt 0.275518 0.536619
vt 0.273707 0.532162
vt 0.280945 0.538772
vt 0.286431 0.530872
vt 0.290637 0.551375
vt 0.284312 0.543753
vt 0.278488 0.537315
vt 0.276318 0.541045
vt 0.804698 0.251197
vt 0.792375 0.255919
vt 0.792638 0.252041
vt 0.786357 0.239035
vt 0.792578 0.249274
vt 0.791489 0.249454
vt 0.271776 0.541127
vt 0.760733 0.199751
vt 0.757502 0.209505
vt 0.750621 0.206121
vt 0.278108 0.542645
vt 0.273009 0.544115
vt 0.772804 0.201934
vt 0.766718 0.213101
vt 0.766203 0.208706
vt 0.264007 0.548518
vt 0.277612 0.547903
vt 0.268747 0.555467
vt 0.275021 0.546378
vt 0.280714 0.548498
vt 0.281954 0.545638
vt 0.276612 0.557409
vt 0.240880 0.530957
vt 0.248168 0.561486
vt 0.249693 0.550306
vt 0.246843 0.539760
vt 0.242415 0.571620
vt 0.762287 0.211045
vt 0.762255 0.210544
vt 0.761023 0.221925
vt 0.757316 0.212491
vt 0.750922 0.216572
vt 0.772804 0.220841
vt 0.791613 0.252007
vt 0.791097 0.255536
vt 0.780068 0.250772
vt 0.780487 0.263708
vt 0.804698 0.264828
vt 0.798786 0.238814
vt 0.221949 0.571626
vt 0.283377 0.553479
vn 0.2307 -0.9729 -0.0186
vn -0.8389 -0.4374 0.3240
vn -0.8424 0.4681 0.2668
vn -0.5404 -0.8057 0.2425
vn -0.9431 0.0024 0.3324
vn -0.7140 0.5127 -0.4768
vn -0.4120 -0.7610 -0.5011
vn -0.7776 0.0599 -0.6259
vn -0.2307 0.9729 0.0186
vn -0.6733 -0.3799 -0.6343
vn 0.2795 -0.5922 -0.7558
vn 0.9090 -0.1549 -0.3868
vn 0.2177 -0.1624 -0.9624
vn -0.2481 0.9603 0.1274
vn 0.8424 -0.4681 -0.2668
vn 0.2714 0.5930 0.7581
vn 0.9431 -0.0024 -0.3324
vn 0.7210 -0.6598 -0.2117
vn 0.7140 -0.5127 0.4768
vn 0.6733 0.3799 0.6343
vn 0.7776 -0.0599 0.6259
vn 0.4120 0.7610 0.5011
vn 0.0226 -0.6816 0.7314
vn -0.2177 0.1623 0.9624
vn -0.1134 -0.2775 0.9540
vn -0.2795 0.5922 0.7558
vn 0.9358 -0.1466 -0.3205
vn -0.0686 0.9968 -0.0401
vn -0.2066 0.4902 -0.8468
vn -0.4420 0.8916 0.0983
vn 0.6907 0.2206 0.6886
vn 0.1192 0.2796 -0.9527
vn 0.2468 -0.3274 -0.9121
vn -0.1738 0.9505 -0.2576
vn -0.7368 0.0783 -0.6716
vn 0.2822 -0.6290 -0.7244
vn 0.6790 0.7339 -0.0161
vn -0.8866 0.4213 -0.1909
vn -0.6734 -0.3799 -0.6343
vn 0.7957 0.4409 -0.4154
vn 0.3483 0.5917 0.7270
vn 0.0226 -0.6815 0.7314
vn -0.2860 0.4910 -0.8229
vn 0.6769 0.3816 0.6294
vn 0.0994 0.1124 -0.9887
vn -0.1739 0.9505 -0.2577
vn -0.6149 -0.4432 -0.6523
vn 0.5909 0.7987 0.1139
vn -0.8859 0.3593 -0.2935
s off
f 17/1/1 27/2/1 5/3/1
f 3/4/2 9/5/2 4/6/2
f 1/7/3 7/8/3 2/9/3
f 5/10/4 9/5/4 10/11/4
f 2/9/5 8/12/5 3/4/5
f 6/13/6 29/14/6 7/15/6
f 9/16/7 13/17/7 10/18/7
f 7/15/8 11/19/8 8/20/8
f 1/21/9 28/22/9 6/13/9
f 8/20/10 12/23/10 9/16/10
f 13/17/11 16/24/11 17/1/11
f 30/25/12 42/26/12 38/27/12
f 11/19/13 16/24/13 12/23/13
f 28/28/14 41/29/14 39/30/14
f 16/24/15 22/31/15 17/1/15
f 19/32/16 35/33/16 18/34/16
f 15/35/17 21/36/17 16/24/17
f 20/37/18 34/38/18 36/39/18
f 22/31/19 26/40/19 27/2/19
f 19/41/20 25/42/20 20/43/20
f 1/21/9 18/44/9 14/45/9
f 20/43/21 26/40/21 21/36/21
f 18/44/22 24/46/22 19/41/22
f 27/47/23 4/6/23 5/10/23
f 24/48/24 3/4/24 25/49/24
f 25/49/25 4/6/25 26/50/25
f 23/51/26 2/9/26 24/48/26
f 13/17/1 5/3/1 10/18/1
f 31/52/27 36/39/27 34/38/27
f 31/52/28 35/33/28 32/53/28
f 30/54/29 33/55/29 31/52/29
f 18/34/30 33/55/30 14/56/30
f 19/32/31 36/39/31 32/53/31
f 30/54/32 34/38/32 15/57/32
f 37/58/33 42/26/33 40/59/33
f 37/58/34 41/29/34 38/27/34
f 29/60/35 40/59/35 11/61/35
f 11/61/36 42/26/36 15/62/36
f 30/25/37 41/29/37 14/63/37
f 29/60/38 39/30/38 37/58/38
f 17/1/1 22/31/1 27/2/1
f 3/4/2 8/12/2 9/5/2
f 1/7/3 6/64/3 7/8/3
f 5/10/4 4/6/4 9/5/4
f 2/9/5 7/8/5 8/12/5
f 6/13/6 28/22/6 29/14/6
f 9/16/7 12/23/7 13/17/7
f 7/15/8 29/14/8 11/19/8
f 1/21/9 14/45/9 28/22/9
f 8/20/39 11/19/39 12/23/39
f 13/17/11 12/23/11 16/24/11
f 30/25/40 15/62/40 42/26/40
f 11/19/13 15/35/13 16/24/13
f 28/28/14 14/63/14 41/29/14
f 16/24/15 21/36/15 22/31/15
f 19/32/41 32/53/41 35/33/41
f 15/35/17 20/43/17 21/36/17
f 20/37/18 15/57/18 34/38/18
f 22/31/19 21/36/19 26/40/19
f 19/41/20 24/46/20 25/42/20
f 1/21/9 23/65/9 18/44/9
f 20/43/21 25/42/21 26/40/21
f 18/44/22 23/65/22 24/46/22
f 27/47/42 26/50/42 4/6/42
f 24/48/24 2/9/24 3/4/24
f 25/49/25 3/4/25 4/6/25
f 23/51/26 1/7/26 2/9/26
f 13/17/1 17/1/1 5/3/1
f 31/52/27 32/53/27 36/39/27
f 31/52/28 33/55/28 35/33/28
f 30/54/43 14/56/43 33/55/43
f 18/34/30 35/33/30 33/55/30
f 19/32/44 20/37/44 36/39/44
f 30/54/45 31/52/45 34/38/45
f 37/58/33 38/27/33 42/26/33
f 37/58/46 39/30/46 41/29/46
f 29/60/47 37/58/47 40/59/47
f 11/61/36 40/59/36 42/26/36
f 30/25/48 38/27/48 41/29/48
f 29/60/49 28/28/49 39/30/49
