# Blender v2.81 (sub 16) OBJ File: 'garbage.blend'
# www.blender.org
v 0.640800 0.553371 -0.549564
v 0.638709 0.548379 -0.530696
v 0.637921 0.534591 -0.516747
v 0.638647 0.515703 -0.511454
v 0.640692 0.496775 -0.516235
v 0.625975 0.547394 -0.559763
v 0.613032 0.538026 -0.548360
v 0.608272 0.522637 -0.537143
v 0.612970 0.505350 -0.529117
v 0.625867 0.490798 -0.526433
v 0.613922 0.503601 -0.569449
v 0.617863 0.488864 -0.557096
v 0.628692 0.481280 -0.542587
v 0.646450 0.534335 -0.581871
v 0.649220 0.496519 -0.581359
v 0.648432 0.482732 -0.567410
v 0.646341 0.477739 -0.548542
v 0.661274 0.540313 -0.571673
v 0.674172 0.525761 -0.568989
v 0.678869 0.508474 -0.560963
v 0.674109 0.493085 -0.549746
v 0.661166 0.483717 -0.538343
v 0.658449 0.549831 -0.555519
v 0.669279 0.542246 -0.541010
v 0.673220 0.527510 -0.528656
v 0.669216 0.509570 -0.521768
v 0.658341 0.493235 -0.522190
v 0.628800 0.537876 -0.575916
v 0.617925 0.521540 -0.576338
v 0.648495 0.515408 -0.586652
v 0.677684 0.520715 -0.604155
v 0.679779 0.521559 -0.602714
v 0.660031 0.532909 -0.591876
v 0.667709 0.503519 -0.590620
v 0.667369 0.535868 -0.586828
v 0.679091 0.508109 -0.582789
v 0.619513 0.517695 -0.609253
v 0.626749 0.516243 -0.611694
v 0.625636 0.526166 -0.601849
v 0.623140 0.507864 -0.597433
v 0.628952 0.525501 -0.602967
v 0.626466 0.507197 -0.598555
vt 0.274240 0.539347
vt 0.265397 0.539709
vt 0.266768 0.532487
vt 0.231414 0.551290
vt 0.214659 0.541092
vt 0.231357 0.542861
vt 0.231940 0.569242
vt 0.215985 0.562822
vt 0.231472 0.559719
vt 0.230890 0.533338
vt 0.220414 0.530957
vt 0.213134 0.552274
vt 0.289666 0.544440
vt 0.282983 0.540904
vt 0.290637 0.536818
vt 0.279682 0.529141
vt 0.275518 0.536619
vt 0.273707 0.532162
vt 0.280945 0.538772
vt 0.286431 0.530872
vt 0.290637 0.551375
vt 0.284312 0.543753
vt 0.278488 0.537315
vt 0.276318 0.541045
vt 0.804698 0.251197
vt 0.792375 0.255919
vt 0.792638 0.252041
vt 0.786357 0.239035
vt 0.792578 0.249274
vt 0.791489 0.249454
vt 0.271776 0.541127
vt 0.760733 0.199751
vt 0.757502 0.209505
vt 0.750621 0.206121
vt 0.278108 0.542645
vt 0.273009 0.544115
vt 0.772804 0.201934
vt 0.766718 0.213101
vt 0.766203 0.208706
vt 0.264007 0.548518
vt 0.277612 0.547903
vt 0.268747 0.555467
vt 0.275021 0.546378
vt 0.280714 0.548498
vt 0.281954 0.545638
vt 0.276612 0.557409
vt 0.240880 0.530957
vt 0.248168 0.561486
vt 0.249693 0.550306
vt 0.246843 0.539760
vt 0.242415 0.571620
vt 0.762287 0.211045
vt 0.762255 0.210544
vt 0.761023 0.221925
vt 0.757316 0.212491
vt 0.750922 0.216572
vt 0.772804 0.220841
vt 0.791613 0.252007
vt 0.791097 0.255536
vt 0.780068 0.250772
vt 0.780487 0.263708
vt 0.804698 0.264828
vt 0.798786 0.238814
vt 0.221949 0.571626
vt 0.283377 0.553479
vn -0.0016 -0.8617 0.5074
vn -0.6077 0.1926 0.7705
vn -0.4702 0.8647 0.1767
vn -0.4724 -0.2635 0.8411
vn -0.6069 0.5821 0.5411
vn -0.7464 0.5080 -0.4299
vn -0.7486 -0.6202 0.2345
vn -0.9629 0.1225 -0.2406
vn 0.0017 0.8617 -0.5074
vn -0.9636 -0.2671 -0.0112
vn -0.2773 -0.9208 -0.2744
vn 0.5213 -0.7081 -0.4763
vn -0.3563 -0.6544 -0.6669
vn 0.0421 0.9086 -0.4154
vn 0.4702 -0.8647 -0.1767
vn 0.7355 0.6702 0.0992
vn 0.6069 -0.5821 -0.5411
vn 0.3624 -0.9318 0.0193
vn 0.7464 -0.5080 0.4299
vn 0.9636 0.2671 0.0112
vn 0.0016 0.8617 -0.5074
vn 0.9629 -0.1225 0.2406
vn 0.7486 0.6202 -0.2345
vn 0.2751 -0.2074 0.9388
vn 0.3563 0.6544 0.6669
vn 0.3556 0.2648 0.8963
vn 0.2773 0.9208 0.2744
vn -0.0017 -0.8617 0.5074
vn 0.5800 -0.6843 -0.4420
vn 0.1097 0.7797 -0.6165
vn -0.5244 0.0931 -0.8464
vn -0.1470 0.9316 -0.3324
vn 0.9766 0.1609 0.1423
vn -0.3496 -0.2652 -0.8986
vn -0.3367 -0.7721 -0.5389
vn -0.1008 0.6951 -0.7119
vn -0.9496 0.0975 -0.2980
vn -0.2655 -0.9363 -0.2301
vn 0.6929 0.2461 -0.6777
vn -0.7564 0.6445 -0.1118
vn 0.5244 -0.2110 -0.8249
vn 0.7827 0.6201 0.0529
vn 0.0017 0.8617 -0.5075
vn -0.5776 0.1407 -0.8041
vn 0.9644 0.2646 0.0054
vn -0.4165 -0.4008 -0.8161
vn -0.9365 -0.3506 -0.0042
vn 0.7004 0.3942 -0.5950
vn -0.8214 0.5507 -0.1484
s off
f 17/1/1 27/2/1 5/3/1
f 3/4/2 9/5/2 4/6/2
f 1/7/3 7/8/3 2/9/3
f 5/10/4 9/5/4 10/11/4
f 2/9/5 8/12/5 3/4/5
f 6/13/6 29/14/6 7/15/6
f 9/16/7 13/17/7 10/18/7
f 7/15/8 11/19/8 8/20/8
f 1/21/9 28/22/9 6/13/9
f 8/20/10 12/23/10 9/16/10
f 13/17/11 16/24/11 17/1/11
f 30/25/12 42/26/12 38/27/12
f 11/19/13 16/24/13 12/23/13
f 28/28/14 41/29/14 39/30/14
f 16/24/15 22/31/15 17/1/15
f 19/32/16 35/33/16 18/34/16
f 15/35/17 21/36/17 16/24/17
f 20/37/18 34/38/18 36/39/18
f 22/31/19 26/40/19 27/2/19
f 19/41/20 25/42/20 20/43/20
f 1/21/21 18/44/21 14/45/21
f 20/43/22 26/40/22 21/36/22
f 18/44/23 24/46/23 19/41/23
f 27/47/24 4/6/24 5/10/24
f 24/48/25 3/4/25 25/49/25
f 25/49/26 4/6/26 26/50/26
f 23/51/27 2/9/27 24/48/27
f 13/17/28 5/3/28 10/18/28
f 31/52/29 36/39/29 34/38/29
f 31/52/30 35/33/30 32/53/30
f 30/54/31 33/55/31 31/52/31
f 18/34/32 33/55/32 14/56/32
f 19/32/33 36/39/33 32/53/33
f 30/54/34 34/38/34 15/57/34
f 37/58/35 42/26/35 40/59/35
f 37/58/36 41/29/36 38/27/36
f 29/60/37 40/59/37 11/61/37
f 11/61/38 42/26/38 15/62/38
f 30/25/39 41/29/39 14/63/39
f 29/60/40 39/30/40 37/58/40
f 17/1/28 22/31/28 27/2/28
f 3/4/2 8/12/2 9/5/2
f 1/7/3 6/64/3 7/8/3
f 5/10/4 4/6/4 9/5/4
f 2/9/5 7/8/5 8/12/5
f 6/13/6 28/22/6 29/14/6
f 9/16/7 12/23/7 13/17/7
f 7/15/8 29/14/8 11/19/8
f 1/21/9 14/45/9 28/22/9
f 8/20/10 11/19/10 12/23/10
f 13/17/11 12/23/11 16/24/11
f 30/25/41 15/62/41 42/26/41
f 11/19/13 15/35/13 16/24/13
f 28/28/14 14/63/14 41/29/14
f 16/24/15 21/36/15 22/31/15
f 19/32/42 32/53/42 35/33/42
f 15/35/17 20/43/17 21/36/17
f 20/37/18 15/57/18 34/38/18
f 22/31/19 21/36/19 26/40/19
f 19/41/20 24/46/20 25/42/20
f 1/21/43 23/65/43 18/44/43
f 20/43/22 25/42/22 26/40/22
f 18/44/23 23/65/23 24/46/23
f 27/47/24 26/50/24 4/6/24
f 24/48/25 2/9/25 3/4/25
f 25/49/26 3/4/26 4/6/26
f 23/51/27 1/7/27 2/9/27
f 13/17/28 17/1/28 5/3/28
f 31/52/29 32/53/29 36/39/29
f 31/52/30 33/55/30 35/33/30
f 30/54/44 14/56/44 33/55/44
f 18/34/32 35/33/32 33/55/32
f 19/32/45 20/37/45 36/39/45
f 30/54/46 31/52/46 34/38/46
f 37/58/35 38/27/35 42/26/35
f 37/58/36 39/30/36 41/29/36
f 29/60/47 37/58/47 40/59/47
f 11/61/38 40/59/38 42/26/38
f 30/25/48 38/27/48 41/29/48
f 29/60/49 28/28/49 39/30/49
