# Blender v2.81 (sub 16) OBJ File: 'garbage.blend'
# www.blender.org
v 0.382053 0.630235 0.013967
v 0.377466 0.616152 0.026849
v 0.378156 0.597349 0.032442
v 0.383937 0.578865 0.029249
v 0.393262 0.565651 0.018124
v 0.372873 0.627587 -0.002411
v 0.361566 0.611566 -0.001518
v 0.359797 0.592054 -0.000313
v 0.368038 0.574279 0.000882
v 0.384083 0.563004 0.001746
v 0.378800 0.593242 -0.033107
v 0.384496 0.575308 -0.027518
v 0.393584 0.563598 -0.014651
v 0.401056 0.631422 -0.018827
v 0.416163 0.599724 -0.033146
v 0.416853 0.580922 -0.027552
v 0.412266 0.566839 -0.014670
v 0.410236 0.634070 -0.002449
v 0.426280 0.622795 -0.001585
v 0.434522 0.605019 -0.000390
v 0.432752 0.585507 0.000815
v 0.421445 0.569486 0.001707
v 0.400734 0.633476 0.013948
v 0.409823 0.621766 0.026815
v 0.415518 0.603832 0.032404
v 0.416294 0.584479 0.029215
v 0.411943 0.568893 0.018104
v 0.382375 0.628181 -0.018808
v 0.378024 0.612595 -0.029918
v 0.410381 0.618209 -0.029952
v 0.439295 0.636847 -0.031712
v 0.440592 0.637221 -0.029398
v 0.416247 0.637738 -0.022820
v 0.432835 0.613686 -0.031223
v 0.420791 0.639048 -0.014713
v 0.439883 0.615719 -0.018649
v 0.388359 0.626177 -0.058369
v 0.396017 0.627505 -0.058377
v 0.389399 0.630737 -0.046444
v 0.392244 0.612597 -0.051296
v 0.392909 0.631346 -0.046448
v 0.395764 0.613208 -0.051300
vt 0.274240 0.539347
vt 0.265397 0.539709
vt 0.266768 0.532487
vt 0.231414 0.551290
vt 0.214659 0.541092
vt 0.231357 0.542861
vt 0.231940 0.569242
vt 0.215985 0.562822
vt 0.231472 0.559719
vt 0.230890 0.533338
vt 0.220414 0.530957
vt 0.213134 0.552274
vt 0.289666 0.544440
vt 0.282983 0.540904
vt 0.290637 0.536818
vt 0.279682 0.529141
vt 0.275518 0.536619
vt 0.273707 0.532162
vt 0.280945 0.538772
vt 0.286431 0.530872
vt 0.290637 0.551375
vt 0.284312 0.543753
vt 0.278488 0.537315
vt 0.276318 0.541045
vt 0.804698 0.251197
vt 0.792375 0.255919
vt 0.792638 0.252041
vt 0.786357 0.239035
vt 0.792578 0.249274
vt 0.791489 0.249454
vt 0.271776 0.541127
vt 0.760733 0.199751
vt 0.757502 0.209505
vt 0.750621 0.206121
vt 0.278108 0.542645
vt 0.273009 0.544115
vt 0.772804 0.201934
vt 0.766718 0.213101
vt 0.766203 0.208706
vt 0.264007 0.548518
vt 0.277612 0.547903
vt 0.268747 0.555467
vt 0.275021 0.546378
vt 0.280714 0.548498
vt 0.281954 0.545638
vt 0.276612 0.557409
vt 0.240880 0.530957
vt 0.248168 0.561486
vt 0.249693 0.550306
vt 0.246843 0.539760
vt 0.242415 0.571620
vt 0.762287 0.211045
vt 0.762255 0.210544
vt 0.761023 0.221925
vt 0.757316 0.212491
vt 0.750922 0.216572
vt 0.772804 0.220841
vt 0.791613 0.252007
vt 0.791097 0.255536
vt 0.780068 0.250772
vt 0.780487 0.263708
vt 0.804698 0.264828
vt 0.798786 0.238814
vt 0.221949 0.571626
vt 0.283377 0.553479
vn 0.1707 -0.9833 0.0633
vn -0.7974 -0.3360 0.5013
vn -0.7605 0.5554 0.3364
vn -0.5370 -0.7320 0.4193
vn -0.8746 0.1085 0.4726
vn -0.7530 0.5082 -0.4180
vn -0.5296 -0.7793 -0.3351
vn -0.8650 0.0476 -0.4995
vn -0.1707 0.9833 -0.0633
vn -0.7878 -0.3969 -0.4709
vn 0.1192 -0.6910 -0.7130
vn 0.8237 -0.2632 -0.5023
vn 0.0481 -0.2832 -0.9579
vn -0.1707 0.9842 0.0476
vn 0.7605 -0.5554 -0.3364
vn 0.4239 0.6514 0.6293
vn 0.8746 -0.1085 -0.4726
vn 0.6394 -0.7304 -0.2403
vn 0.7530 -0.5082 0.4180
vn 0.7878 0.3969 0.4709
vn 0.8650 -0.0476 0.4995
vn 0.5296 0.7793 0.3351
vn 0.1043 -0.5964 0.7958
vn -0.0481 0.2832 0.9579
vn 0.0290 -0.1614 0.9865
vn -0.1191 0.6910 0.7130
vn 0.8614 -0.2496 -0.4424
vn -0.0193 0.9886 -0.1490
vn -0.3149 0.4076 -0.8571
vn -0.3703 0.9271 0.0577
vn 0.8051 0.2438 0.5407
vn -0.0230 0.1632 -0.9863
vn 0.0760 -0.4434 -0.8931
vn -0.1611 0.9264 -0.3403
vn -0.8312 0.0577 -0.5529
vn 0.1249 -0.7242 -0.6782
vn 0.7066 0.6757 -0.2103
vn -0.8814 0.4618 -0.0997
vn 0.1191 -0.6910 -0.7130
vn 0.7401 0.3325 -0.5846
vn 0.4945 0.6411 0.5870
vn -0.1192 0.6910 0.7130
vn -0.3892 0.4169 -0.8214
vn 0.7907 0.3979 0.4653
vn -0.0575 -0.0050 -0.9983
vn -0.7366 -0.4660 -0.4901
vn 0.6446 0.7607 -0.0769
vn -0.9008 0.3890 -0.1930
s off
f 17/1/1 27/2/1 5/3/1
f 3/4/2 9/5/2 4/6/2
f 1/7/3 7/8/3 2/9/3
f 5/10/4 9/5/4 10/11/4
f 2/9/5 8/12/5 3/4/5
f 6/13/6 29/14/6 7/15/6
f 9/16/7 13/17/7 10/18/7
f 7/15/8 11/19/8 8/20/8
f 1/21/9 28/22/9 6/13/9
f 8/20/10 12/23/10 9/16/10
f 13/17/11 16/24/11 17/1/11
f 30/25/12 42/26/12 38/27/12
f 11/19/13 16/24/13 12/23/13
f 28/28/14 41/29/14 39/30/14
f 16/24/15 22/31/15 17/1/15
f 19/32/16 35/33/16 18/34/16
f 15/35/17 21/36/17 16/24/17
f 20/37/18 34/38/18 36/39/18
f 22/31/19 26/40/19 27/2/19
f 19/41/20 25/42/20 20/43/20
f 1/21/9 18/44/9 14/45/9
f 20/43/21 26/40/21 21/36/21
f 18/44/22 24/46/22 19/41/22
f 27/47/23 4/6/23 5/10/23
f 24/48/24 3/4/24 25/49/24
f 25/49/25 4/6/25 26/50/25
f 23/51/26 2/9/26 24/48/26
f 13/17/1 5/3/1 10/18/1
f 31/52/27 36/39/27 34/38/27
f 31/52/28 35/33/28 32/53/28
f 30/54/29 33/55/29 31/52/29
f 18/34/30 33/55/30 14/56/30
f 19/32/31 36/39/31 32/53/31
f 30/54/32 34/38/32 15/57/32
f 37/58/33 42/26/33 40/59/33
f 37/58/34 41/29/34 38/27/34
f 29/60/35 40/59/35 11/61/35
f 11/61/36 42/26/36 15/62/36
f 30/25/37 41/29/37 14/63/37
f 29/60/38 39/30/38 37/58/38
f 17/1/1 22/31/1 27/2/1
f 3/4/2 8/12/2 9/5/2
f 1/7/3 6/64/3 7/8/3
f 5/10/4 4/6/4 9/5/4
f 2/9/5 7/8/5 8/12/5
f 6/13/6 28/22/6 29/14/6
f 9/16/7 12/23/7 13/17/7
f 7/15/8 29/14/8 11/19/8
f 1/21/9 14/45/9 28/22/9
f 8/20/10 11/19/10 12/23/10
f 13/17/39 12/23/39 16/24/39
f 30/25/40 15/62/40 42/26/40
f 11/19/13 15/35/13 16/24/13
f 28/28/14 14/63/14 41/29/14
f 16/24/15 21/36/15 22/31/15
f 19/32/41 32/53/41 35/33/41
f 15/35/17 20/43/17 21/36/17
f 20/37/18 15/57/18 34/38/18
f 22/31/19 21/36/19 26/40/19
f 19/41/20 24/46/20 25/42/20
f 1/21/9 23/65/9 18/44/9
f 20/43/21 25/42/21 26/40/21
f 18/44/22 23/65/22 24/46/22
f 27/47/23 26/50/23 4/6/23
f 24/48/24 2/9/24 3/4/24
f 25/49/25 3/4/25 4/6/25
f 23/51/42 1/7/42 2/9/42
f 13/17/1 17/1/1 5/3/1
f 31/52/27 32/53/27 36/39/27
f 31/52/28 33/55/28 35/33/28
f 30/54/43 14/56/43 33/55/43
f 18/34/30 35/33/30 33/55/30
f 19/32/44 20/37/44 36/39/44
f 30/54/45 31/52/45 34/38/45
f 37/58/33 38/27/33 42/26/33
f 37/58/34 39/30/34 41/29/34
f 29/60/46 37/58/46 40/59/46
f 11/61/36 40/59/36 42/26/36
f 30/25/47 38/27/47 41/29/47
f 29/60/48 28/28/48 39/30/48
