# Blender v2.81 (sub 16) OBJ File: 'Boat2.0 - Joined.blend'
# www.blender.org
v 0.975455 -0.207473 2.713372
v -1.216820 2.746256 2.616771
v 11.095071 -0.207473 10.585556
v 11.090193 0.907297 10.213878
v 2.240407 -0.207473 5.781617
v 3.505359 -0.207473 7.452280
v 4.770311 -0.207473 8.254171
v 6.035264 -0.207473 8.907275
v 7.300216 -0.207473 9.714831
v 8.565167 -0.207473 10.292785
v 9.830120 -0.207473 10.435464
v 10.595875 0.920895 10.496736
v 9.058687 0.500130 10.640213
v 7.521500 1.807088 10.158099
v 5.984312 2.408774 9.690613
v 4.447124 2.217380 9.129626
v 2.909937 2.944718 8.197578
v 1.372750 3.014305 6.166816
v 0.050133 -0.207473 1.308531
v -2.341284 3.090989 0.909589
v 0.975455 -0.207473 2.320463
v 11.090193 0.907297 9.976268
v 10.595875 0.920895 9.827155
v 9.058687 0.500130 9.685404
v 7.521500 1.807088 9.108307
v 5.984312 2.408774 8.809990
v 4.447124 2.217380 7.990979
v 2.909937 2.944718 6.852706
v 1.372750 3.014305 5.192952
v 2.240407 -0.207473 4.980224
v 3.505359 -0.207473 6.345585
v 4.770311 -0.207473 7.377450
v 6.035264 -0.207473 8.081550
v 7.300216 -0.207473 8.413675
v 8.565167 -0.207473 8.967676
v 9.830120 -0.207473 9.084321
v -1.216820 2.746256 2.139302
v 11.095071 -0.207473 9.207027
v 0.050133 -0.207473 1.171956
v -2.341284 3.090989 0.743621
v 0.975455 -0.207473 -2.713372
v -1.216820 2.746256 -2.616771
v 11.095071 -0.207473 -10.585556
v 11.090193 0.907297 -10.213878
v 2.240407 -0.207473 -5.781617
v 3.505359 -0.207473 -7.452280
v 4.770311 -0.207473 -8.254171
v 6.035264 -0.207473 -8.907275
v 7.300216 -0.207473 -9.714831
v 8.565167 -0.207473 -10.292785
v 9.830120 -0.207473 -10.435464
v 10.595875 0.920895 -10.496736
v 9.058687 0.500130 -10.640213
v 7.521500 1.807088 -10.158099
v 5.984312 2.408774 -9.690613
v 4.447124 2.217380 -9.129626
v 2.909937 2.944718 -8.197578
v 1.372750 3.014305 -6.166816
v 0.975455 -0.207473 0.000000
v -1.810964 2.479958 0.000000
v 0.050133 -0.207473 -1.308531
v -2.341284 3.090989 -0.909589
v 0.050133 -0.207473 0.000000
v -2.341284 3.090989 0.000000
v 0.975455 -0.207473 -2.320463
v 11.090193 0.907297 -9.976268
v 10.595875 0.920895 -9.827155
v 9.058687 0.500130 -9.685404
v 7.521500 1.807088 -9.108307
v 5.984312 2.408774 -8.809990
v 4.447124 2.217380 -7.990979
v 2.909937 2.944718 -6.852706
v 1.372750 3.014305 -5.192952
v 2.240407 -0.207473 -4.980224
v 3.505359 -0.207473 -6.345585
v 4.770311 -0.207473 -7.377450
v 6.035264 -0.207473 -8.081550
v 7.300216 -0.207473 -8.413675
v 8.565167 -0.207473 -8.967676
v 9.830120 -0.207473 -9.084321
v -1.216820 2.746256 -2.139302
v 11.095071 -0.207473 -9.207027
v 0.050133 -0.207473 -1.171956
v -2.341284 3.090989 -0.743621
vt 0.891416 0.073588
vt 0.868086 0.034305
vt 0.940083 0.055428
vt 0.748815 0.590340
vt 0.520432 0.742766
vt 0.566600 0.540503
vt 0.775216 0.632012
vt 0.728945 0.819167
vt 0.894545 0.089610
vt 0.884613 0.073743
vt 0.885800 0.165716
vt 0.871940 0.083752
vt 0.812982 0.249815
vt 0.831558 0.142048
vt 0.853050 0.272957
vt 0.797752 0.319159
vt 0.828105 0.340302
vt 0.772101 0.390222
vt 0.821550 0.427212
vt 0.759460 0.477580
vt 0.793705 0.522628
vt 0.816328 0.080771
vt 0.775400 0.142340
vt 0.722265 0.202731
vt 0.673339 0.271865
vt 0.642245 0.343720
vt 0.609028 0.419984
vt 0.713185 0.928021
vt 0.503154 0.918179
vt 0.517437 0.857450
vt 0.519453 0.849403
vt 0.758519 0.961489
vt 0.741320 0.843505
vt 0.711218 0.918787
vt 0.949609 0.126532
vt 0.945178 0.200336
vt 0.964663 0.355156
vt 0.961289 0.280451
vt 0.959765 0.523035
vt 0.960087 0.434460
vt 0.954040 0.627671
vt 0.940423 0.792366
vt 0.964663 0.914220
vt 0.868086 0.034305
vt 0.891416 0.073588
vt 0.940083 0.055428
vt 0.520432 0.742766
vt 0.748815 0.590340
vt 0.566600 0.540503
vt 0.775216 0.632012
vt 0.728945 0.819167
vt 0.741320 0.843505
vt 0.884613 0.073743
vt 0.894545 0.089610
vt 0.871940 0.083752
vt 0.885800 0.165716
vt 0.812982 0.249815
vt 0.853050 0.272957
vt 0.797752 0.319159
vt 0.828105 0.340302
vt 0.772101 0.390222
vt 0.821550 0.427212
vt 0.759460 0.477580
vt 0.793705 0.522628
vt 0.816328 0.080771
vt 0.831558 0.142048
vt 0.775400 0.142340
vt 0.673339 0.271865
vt 0.722265 0.202731
vt 0.609028 0.419984
vt 0.642245 0.343720
vt 0.713185 0.928021
vt 0.517437 0.857450
vt 0.519453 0.849403
vt 0.711218 0.918787
vt 0.949609 0.126532
vt 0.945178 0.200336
vt 0.961289 0.280451
vt 0.964663 0.355156
vt 0.960087 0.434460
vt 0.959765 0.523035
vt 0.954040 0.627671
vt 0.940423 0.792366
vt 0.713033 0.965695
vn 1.0000 0.0044 0.0000
vn -0.8868 -0.2825 0.3656
vn -0.1030 0.9947 0.0000
vn 0.0275 0.9996 0.0000
vn -0.2640 0.9645 -0.0000
vn 0.6477 0.7619 -0.0000
vn 0.3645 0.9312 0.0000
vn -0.1236 0.9923 0.0000
vn 0.4277 0.9039 0.0000
vn 0.0452 0.9990 0.0000
vn -0.1178 0.0260 0.9927
vn -0.1037 -0.3791 0.9195
vn -0.4107 -0.1527 0.8989
vn -0.5339 -0.1254 0.8362
vn -0.4286 -0.3568 0.8301
vn -0.5011 -0.3522 0.7905
vn -0.7650 -0.2815 0.5792
vn -0.8096 -0.5870 0.0000
vn -0.7155 -0.5157 0.4713
vn 0.5567 0.7912 -0.2531
vn 0.2931 0.9561 0.0000
vn 0.2550 0.5499 -0.7953
vn -0.0869 0.5883 -0.8040
vn 0.5749 0.3495 -0.7398
vn 0.2429 0.2923 -0.9250
vn 0.4309 0.2498 -0.8671
vn 0.6086 0.2699 -0.7461
vn 0.7120 0.2406 -0.6597
vn 0.8715 0.2621 -0.4145
vn 0.8030 0.5960 0.0000
vn -0.8868 -0.2825 -0.3656
vn 0.4827 0.2789 -0.8302
vn 0.1304 -0.1418 -0.9813
vn -0.4122 -0.1535 -0.8981
vn -0.5339 -0.1254 -0.8362
vn -0.2983 -0.2791 -0.9127
vn -0.5011 -0.3522 -0.7905
vn -0.7650 -0.2815 -0.5792
vn -0.7155 -0.5157 -0.4713
vn 0.5567 0.7912 0.2531
vn 0.0832 0.5080 0.8573
vn 0.0667 0.6872 0.7234
vn 0.3871 0.2623 0.8839
vn 0.2429 0.2923 0.9250
vn 0.4676 0.2749 0.8401
vn 0.6086 0.2699 0.7461
vn 0.7120 0.2406 0.6597
vn 0.8715 0.2621 0.4145
vn -0.6856 -0.4913 0.5372
vn 0.4827 0.2789 0.8302
vn 0.1304 -0.1418 0.9813
vn -0.4122 -0.1535 0.8981
vn -0.3760 -0.2725 0.8856
vn -0.2983 -0.2791 0.9127
vn -0.5927 -0.2896 0.7515
vn -0.7708 -0.2762 0.5740
vn -0.7640 -0.5054 0.4012
vn 0.7552 0.6555 0.0000
vn 0.0832 0.5080 -0.8573
vn 0.0667 0.6872 -0.7234
vn 0.3871 0.2623 -0.8839
vn 0.2818 0.2624 -0.9229
vn 0.4676 0.2749 -0.8401
vn 0.6483 0.2388 -0.7230
vn 0.7178 0.2365 -0.6549
vn 0.6599 0.4530 -0.5994
vn 0.6681 0.6927 -0.2718
vn -0.6856 -0.4913 -0.5372
vn -0.1178 0.0260 -0.9927
vn -0.1037 -0.3791 -0.9195
vn -0.4107 -0.1527 -0.8989
vn -0.3760 -0.2725 -0.8856
vn -0.4286 -0.3568 -0.8301
vn -0.5927 -0.2896 -0.7515
vn -0.7708 -0.2762 -0.5740
vn -0.7640 -0.5054 -0.4012
vn 0.2550 0.5499 0.7953
vn -0.0869 0.5883 0.8040
vn 0.5749 0.3495 0.7398
vn 0.2818 0.2624 0.9229
vn 0.4309 0.2498 0.8671
vn 0.6483 0.2388 0.7230
vn 0.7178 0.2365 0.6549
vn 0.6599 0.4530 0.5994
vn 0.6681 0.6927 0.2718
s off
f 22/1/1 3/2/1 38/3/1
f 18/4/2 1/5/2 5/6/2
f 29/7/3 2/8/3 18/4/3
f 23/9/4 4/10/4 22/1/4
f 24/11/5 12/12/5 23/9/5
f 24/11/6 14/13/6 13/14/6
f 25/15/7 15/16/7 14/13/7
f 26/17/8 16/18/8 15/16/8
f 27/19/9 17/20/9 16/18/9
f 28/21/10 18/4/10 17/20/10
f 3/2/11 12/12/11 11/22/11
f 11/22/12 13/14/12 10/23/12
f 10/23/13 14/13/13 9/24/13
f 14/13/14 8/25/14 9/24/14
f 8/25/15 16/18/15 7/26/15
f 16/18/16 6/27/16 7/26/16
f 17/20/17 5/6/17 6/27/17
f 40/28/18 63/29/18 39/30/18
f 2/8/19 19/31/19 1/5/19
f 60/32/20 40/28/20 37/33/20
f 37/33/21 20/34/21 2/8/21
f 20/34/18 39/30/18 19/31/18
f 38/3/22 23/9/22 22/1/22
f 36/35/23 24/11/23 23/9/23
f 35/36/24 25/15/24 24/11/24
f 33/37/25 25/15/25 34/38/25
f 33/37/26 27/19/26 26/17/26
f 31/39/27 27/19/27 32/40/27
f 30/41/28 28/21/28 31/39/28
f 21/42/29 29/7/29 30/41/29
f 59/43/30 37/33/30 21/42/30
f 43/44/1 66/45/1 82/46/1
f 41/47/31 58/48/31 45/49/31
f 73/50/3 42/51/3 81/52/3
f 44/53/4 67/54/4 66/45/4
f 52/55/5 68/56/5 67/54/5
f 68/56/6 54/57/6 69/58/6
f 69/58/7 55/59/7 70/60/7
f 70/60/8 56/61/8 71/62/8
f 71/62/9 57/63/9 72/64/9
f 72/64/10 58/48/10 73/50/10
f 43/44/32 52/55/32 44/53/32
f 51/65/33 53/66/33 52/55/33
f 50/67/34 54/57/34 53/66/34
f 48/68/35 54/57/35 49/69/35
f 48/68/36 56/61/36 55/59/36
f 46/70/37 56/61/37 47/71/37
f 45/49/38 57/63/38 46/70/38
f 63/29/18 84/72/18 83/73/18
f 61/74/39 42/51/39 41/47/39
f 84/72/40 60/32/40 81/52/40
f 62/75/21 81/52/21 42/51/21
f 83/73/18 62/75/18 61/74/18
f 82/46/41 67/54/41 80/76/41
f 80/76/42 68/56/42 79/77/42
f 79/77/43 69/58/43 78/78/43
f 69/58/44 77/79/44 78/78/44
f 77/79/45 71/62/45 76/80/45
f 71/62/46 75/81/46 76/80/46
f 72/64/47 74/82/47 75/81/47
f 73/50/48 65/83/48 74/82/48
f 81/52/30 59/43/30 65/83/30
f 22/1/1 4/10/1 3/2/1
f 18/4/49 2/8/49 1/5/49
f 29/7/3 37/33/3 2/8/3
f 23/9/4 12/12/4 4/10/4
f 24/11/5 13/14/5 12/12/5
f 24/11/6 25/15/6 14/13/6
f 25/15/7 26/17/7 15/16/7
f 26/17/8 27/19/8 16/18/8
f 27/19/9 28/21/9 17/20/9
f 28/21/10 29/7/10 18/4/10
f 3/2/50 4/10/50 12/12/50
f 11/22/51 12/12/51 13/14/51
f 10/23/52 13/14/52 14/13/52
f 14/13/53 15/16/53 8/25/53
f 8/25/54 15/16/54 16/18/54
f 16/18/55 17/20/55 6/27/55
f 17/20/56 18/4/56 5/6/56
f 40/28/18 64/84/18 63/29/18
f 2/8/57 20/34/57 19/31/57
f 60/32/58 64/84/58 40/28/58
f 37/33/21 40/28/21 20/34/21
f 20/34/18 40/28/18 39/30/18
f 38/3/59 36/35/59 23/9/59
f 36/35/60 35/36/60 24/11/60
f 35/36/61 34/38/61 25/15/61
f 33/37/62 26/17/62 25/15/62
f 33/37/63 32/40/63 27/19/63
f 31/39/64 28/21/64 27/19/64
f 30/41/65 29/7/65 28/21/65
f 21/42/66 37/33/66 29/7/66
f 59/43/67 60/32/67 37/33/67
f 43/44/1 44/53/1 66/45/1
f 41/47/68 42/51/68 58/48/68
f 73/50/3 58/48/3 42/51/3
f 44/53/4 52/55/4 67/54/4
f 52/55/5 53/66/5 68/56/5
f 68/56/6 53/66/6 54/57/6
f 69/58/7 54/57/7 55/59/7
f 70/60/8 55/59/8 56/61/8
f 71/62/9 56/61/9 57/63/9
f 72/64/10 57/63/10 58/48/10
f 43/44/69 51/65/69 52/55/69
f 51/65/70 50/67/70 53/66/70
f 50/67/71 49/69/71 54/57/71
f 48/68/72 55/59/72 54/57/72
f 48/68/73 47/71/73 56/61/73
f 46/70/74 57/63/74 56/61/74
f 45/49/75 58/48/75 57/63/75
f 63/29/18 64/84/18 84/72/18
f 61/74/76 62/75/76 42/51/76
f 84/72/58 64/84/58 60/32/58
f 62/75/21 84/72/21 81/52/21
f 83/73/18 84/72/18 62/75/18
f 82/46/77 66/45/77 67/54/77
f 80/76/78 67/54/78 68/56/78
f 79/77/79 68/56/79 69/58/79
f 69/58/80 70/60/80 77/79/80
f 77/79/81 70/60/81 71/62/81
f 71/62/82 72/64/82 75/81/82
f 72/64/83 73/50/83 74/82/83
f 73/50/84 81/52/84 65/83/84
f 81/52/85 60/32/85 59/43/85
