# Blender v2.81 (sub 16) OBJ File: 'garbage.blend'
# www.blender.org
v -0.356077 2.373658 0.056406
v -0.352793 2.361206 0.030798
v -0.348688 2.337647 0.014995
v -0.344861 2.309295 0.013231
v -0.342339 2.283746 0.025979
v -0.332611 2.372293 0.071036
v -0.312148 2.358840 0.056138
v -0.301756 2.334916 0.044255
v -0.304217 2.306930 0.038571
v -0.318873 2.282381 0.040609
v -0.302795 2.317026 0.096650
v -0.305117 2.291437 0.083946
v -0.319392 2.273436 0.066806
v -0.357116 2.355769 0.108800
v -0.350767 2.301868 0.119783
v -0.346662 2.278309 0.103980
v -0.343378 2.265857 0.078373
v -0.380582 2.357134 0.094170
v -0.395238 2.332585 0.096207
v -0.397699 2.304599 0.090523
v -0.387307 2.280674 0.078640
v -0.366845 2.267222 0.063743
v -0.380063 2.366079 0.067973
v -0.394338 2.348078 0.050833
v -0.396660 2.322489 0.038129
v -0.386406 2.296167 0.033266
v -0.366325 2.276167 0.037546
v -0.333130 2.363348 0.097233
v -0.313049 2.343348 0.101513
v -0.354594 2.330220 0.121548
v -0.396879 2.335768 0.148215
v -0.400195 2.335961 0.146147
v -0.375618 2.353477 0.125033
v -0.378652 2.309905 0.132978
v -0.387234 2.354153 0.117791
v -0.396669 2.310953 0.121745
v -0.312389 2.347991 0.149732
v -0.322222 2.344883 0.154474
v -0.323907 2.355959 0.137334
v -0.315573 2.329529 0.136275
v -0.328413 2.354535 0.139507
v -0.320093 2.328101 0.138454
vt 0.274240 0.539347
vt 0.265397 0.539709
vt 0.266768 0.532487
vt 0.231414 0.551290
vt 0.214659 0.541092
vt 0.231357 0.542861
vt 0.231940 0.569242
vt 0.215985 0.562822
vt 0.231472 0.559719
vt 0.230890 0.533338
vt 0.220414 0.530957
vt 0.213134 0.552274
vt 0.289666 0.544440
vt 0.282983 0.540904
vt 0.290637 0.536818
vt 0.279682 0.529141
vt 0.275518 0.536619
vt 0.273707 0.532162
vt 0.280945 0.538772
vt 0.286431 0.530872
vt 0.290637 0.551375
vt 0.284312 0.543753
vt 0.278488 0.537315
vt 0.276318 0.541045
vt 0.804698 0.251197
vt 0.792375 0.255919
vt 0.792638 0.252041
vt 0.786357 0.239035
vt 0.792578 0.249274
vt 0.791489 0.249454
vt 0.271776 0.541127
vt 0.760733 0.199751
vt 0.757502 0.209505
vt 0.750621 0.206121
vt 0.278108 0.542645
vt 0.273009 0.544115
vt 0.772804 0.201934
vt 0.766718 0.213101
vt 0.766203 0.208706
vt 0.264007 0.548518
vt 0.277612 0.547903
vt 0.268747 0.555467
vt 0.275021 0.546378
vt 0.280714 0.548498
vt 0.281954 0.545638
vt 0.276612 0.557409
vt 0.240880 0.530957
vt 0.248168 0.561486
vt 0.249693 0.550306
vt 0.246843 0.539760
vt 0.242415 0.571620
vt 0.762287 0.211045
vt 0.762255 0.210544
vt 0.761023 0.221925
vt 0.757316 0.212491
vt 0.750922 0.216572
vt 0.772804 0.220841
vt 0.791613 0.252007
vt 0.791097 0.255536
vt 0.780068 0.250772
vt 0.780487 0.263708
vt 0.804698 0.264828
vt 0.798786 0.238814
vt 0.221949 0.571626
vt 0.283377 0.553479
vn 0.1432 -0.9375 -0.3172
vn 0.5302 0.1237 -0.8388
vn 0.2925 0.8742 -0.3876
vn 0.4801 -0.3532 -0.8030
vn 0.4654 0.5476 -0.6954
vn 0.6542 0.7117 0.2560
vn 0.8418 -0.5158 -0.1594
vn 0.9315 0.3381 0.1339
vn -0.1432 0.9375 0.3173
vn 0.9963 -0.0857 -0.0095
vn 0.4555 -0.7762 0.4359
vn -0.3603 -0.6676 0.6515
vn 0.4985 -0.4213 0.7576
vn -0.1954 0.9555 0.2210
vn -0.2925 -0.8742 0.3876
vn -0.8514 0.4936 -0.1775
vn -0.4654 -0.5476 0.6954
vn -0.1818 -0.9624 0.2019
vn -0.6542 -0.7117 -0.2560
vn -0.9963 0.0857 0.0095
vn -0.9315 -0.3381 -0.1339
vn -0.8418 0.5158 0.1594
vn -0.2679 -0.4512 -0.8513
vn -0.4985 0.4213 -0.7576
vn -0.4337 -0.0025 -0.9010
vn -0.4555 0.7762 -0.4359
vn 0.1432 -0.9375 -0.3173
vn -0.4237 -0.6625 0.6177
vn -0.2297 0.8635 0.4490
vn 0.5304 0.3649 0.7652
vn -0.0173 0.9926 0.1204
vn -0.9943 -0.0470 -0.0955
vn 0.4281 0.0015 0.9037
vn 0.4963 -0.5657 0.6586
vn -0.0035 0.8397 0.5430
vn 0.9254 0.3243 0.1961
vn 0.4450 -0.8028 0.3968
vn -0.6996 0.2625 0.6645
vn 0.6260 0.7754 -0.0832
vn -0.1432 0.9375 0.3172
vn -0.4428 -0.1151 0.8892
vn -0.8865 0.4473 -0.1182
vn -0.1819 -0.9624 0.2018
vn 0.5720 0.4107 0.7100
vn -0.9963 0.0844 0.0157
vn 0.5158 -0.1349 0.8460
vn 0.4963 -0.5656 0.6586
vn 0.9851 -0.1722 0.0031
vn -0.7380 0.3855 0.5539
vn 0.7088 0.7046 -0.0332
s off
f 17/1/1 27/2/1 5/3/1
f 3/4/2 9/5/2 4/6/2
f 1/7/3 7/8/3 2/9/3
f 5/10/4 9/5/4 10/11/4
f 2/9/5 8/12/5 3/4/5
f 6/13/6 29/14/6 7/15/6
f 9/16/7 13/17/7 10/18/7
f 7/15/8 11/19/8 8/20/8
f 1/21/9 28/22/9 6/13/9
f 8/20/10 12/23/10 9/16/10
f 13/17/11 16/24/11 17/1/11
f 30/25/12 42/26/12 38/27/12
f 11/19/13 16/24/13 12/23/13
f 28/28/14 41/29/14 39/30/14
f 16/24/15 22/31/15 17/1/15
f 19/32/16 35/33/16 18/34/16
f 15/35/17 21/36/17 16/24/17
f 20/37/18 34/38/18 36/39/18
f 22/31/19 26/40/19 27/2/19
f 19/41/20 25/42/20 20/43/20
f 1/21/9 18/44/9 14/45/9
f 20/43/21 26/40/21 21/36/21
f 18/44/22 24/46/22 19/41/22
f 27/47/23 4/6/23 5/10/23
f 24/48/24 3/4/24 25/49/24
f 25/49/25 4/6/25 26/50/25
f 23/51/26 2/9/26 24/48/26
f 13/17/27 5/3/27 10/18/27
f 31/52/28 36/39/28 34/38/28
f 31/52/29 35/33/29 32/53/29
f 30/54/30 33/55/30 31/52/30
f 18/34/31 33/55/31 14/56/31
f 19/32/32 36/39/32 32/53/32
f 30/54/33 34/38/33 15/57/33
f 37/58/34 42/26/34 40/59/34
f 37/58/35 41/29/35 38/27/35
f 29/60/36 40/59/36 11/61/36
f 11/61/37 42/26/37 15/62/37
f 30/25/38 41/29/38 14/63/38
f 29/60/39 39/30/39 37/58/39
f 17/1/27 22/31/27 27/2/27
f 3/4/2 8/12/2 9/5/2
f 1/7/3 6/64/3 7/8/3
f 5/10/4 4/6/4 9/5/4
f 2/9/5 7/8/5 8/12/5
f 6/13/6 28/22/6 29/14/6
f 9/16/7 12/23/7 13/17/7
f 7/15/8 29/14/8 11/19/8
f 1/21/40 14/45/40 28/22/40
f 8/20/10 11/19/10 12/23/10
f 13/17/11 12/23/11 16/24/11
f 30/25/41 15/62/41 42/26/41
f 11/19/13 15/35/13 16/24/13
f 28/28/14 14/63/14 41/29/14
f 16/24/15 21/36/15 22/31/15
f 19/32/42 32/53/42 35/33/42
f 15/35/17 20/43/17 21/36/17
f 20/37/43 15/57/43 34/38/43
f 22/31/19 21/36/19 26/40/19
f 19/41/20 24/46/20 25/42/20
f 1/21/40 23/65/40 18/44/40
f 20/43/21 25/42/21 26/40/21
f 18/44/22 23/65/22 24/46/22
f 27/47/23 26/50/23 4/6/23
f 24/48/24 2/9/24 3/4/24
f 25/49/25 3/4/25 4/6/25
f 23/51/26 1/7/26 2/9/26
f 13/17/1 17/1/1 5/3/1
f 31/52/28 32/53/28 36/39/28
f 31/52/29 33/55/29 35/33/29
f 30/54/44 14/56/44 33/55/44
f 18/34/31 35/33/31 33/55/31
f 19/32/45 20/37/45 36/39/45
f 30/54/46 31/52/46 34/38/46
f 37/58/47 38/27/47 42/26/47
f 37/58/35 39/30/35 41/29/35
f 29/60/48 37/58/48 40/59/48
f 11/61/37 40/59/37 42/26/37
f 30/25/49 38/27/49 41/29/49
f 29/60/50 28/28/50 39/30/50
v 1.613760 1.444640 -1.276029
v 1.614942 1.432323 -1.250174
v 1.612836 1.408974 -1.233682
v 1.608005 1.380851 -1.230970
v 1.601744 1.355489 -1.242766
v 1.587840 1.444502 -1.285762
v 1.570048 1.432084 -1.267032
v 1.560997 1.408698 -1.253147
v 1.563111 1.380612 -1.247827
v 1.575825 1.355351 -1.252499
v 1.550830 1.390879 -1.304580
v 1.554306 1.365180 -1.292370
v 1.570741 1.346441 -1.278216
v 1.603593 1.426820 -1.327462
v 1.592501 1.373335 -1.336547
v 1.590395 1.349987 -1.320054
v 1.591577 1.337669 -1.294199
v 1.629512 1.426958 -1.317730
v 1.642226 1.401697 -1.322401
v 1.644340 1.373611 -1.317082
v 1.635289 1.350225 -1.303197
v 1.617497 1.337807 -1.284467
v 1.634596 1.435868 -1.292013
v 1.651031 1.417129 -1.277859
v 1.654508 1.391430 -1.265649
v 1.644094 1.365658 -1.258655
v 1.622580 1.346717 -1.258750
v 1.582757 1.435592 -1.311478
v 1.561243 1.416651 -1.311574
v 1.597332 1.401458 -1.339259
v 1.633786 1.404890 -1.373745
v 1.637449 1.404910 -1.372370
v 1.618410 1.423618 -1.346989
v 1.617623 1.379963 -1.355019
v 1.631240 1.423686 -1.342171
v 1.637524 1.380069 -1.347546
v 1.551368 1.421413 -1.358763
v 1.559910 1.417817 -1.365316
v 1.565481 1.428760 -1.348930
v 1.556196 1.402788 -1.346042
v 1.569396 1.427112 -1.351933
v 1.560122 1.401135 -1.349054
vt 0.274240 0.539347
vt 0.265397 0.539709
vt 0.266768 0.532487
vt 0.231414 0.551290
vt 0.214659 0.541092
vt 0.231357 0.542861
vt 0.231940 0.569242
vt 0.215985 0.562822
vt 0.231472 0.559719
vt 0.230890 0.533338
vt 0.220414 0.530957
vt 0.213134 0.552274
vt 0.289666 0.544440
vt 0.282983 0.540904
vt 0.290637 0.536818
vt 0.279682 0.529141
vt 0.275518 0.536619
vt 0.273707 0.532162
vt 0.280945 0.538772
vt 0.286431 0.530872
vt 0.290637 0.551375
vt 0.284312 0.543753
vt 0.278488 0.537315
vt 0.276318 0.541045
vt 0.804698 0.251197
vt 0.792375 0.255919
vt 0.792638 0.252041
vt 0.786357 0.239035
vt 0.792578 0.249274
vt 0.791489 0.249454
vt 0.271776 0.541127
vt 0.760733 0.199751
vt 0.757502 0.209505
vt 0.750621 0.206121
vt 0.278108 0.542645
vt 0.273009 0.544115
vt 0.772804 0.201934
vt 0.766718 0.213101
vt 0.766203 0.208706
vt 0.264007 0.548518
vt 0.277612 0.547903
vt 0.268747 0.555467
vt 0.275021 0.546378
vt 0.280714 0.548498
vt 0.281954 0.545638
vt 0.276612 0.557409
vt 0.240880 0.530957
vt 0.248168 0.561486
vt 0.249693 0.550306
vt 0.246843 0.539760
vt 0.242415 0.571620
vt 0.762287 0.211045
vt 0.762255 0.210544
vt 0.761023 0.221925
vt 0.757316 0.212491
vt 0.750922 0.216572
vt 0.772804 0.220841
vt 0.791613 0.252007
vt 0.791097 0.255536
vt 0.780068 0.250772
vt 0.780487 0.263708
vt 0.804698 0.264828
vt 0.798786 0.238814
vt 0.221949 0.571626
vt 0.283377 0.553479
vn -0.1253 -0.9295 0.3468
vn -0.3483 0.1491 0.9255
vn -0.1663 0.8872 0.4303
vn -0.3303 -0.3298 0.8844
vn -0.2917 0.5693 0.7687
vn -0.6550 0.7446 -0.1285
vn -0.8190 -0.4724 0.3256
vn -0.9214 0.3855 0.0486
vn 0.1253 0.9295 -0.3468
vn -0.9781 -0.0347 0.2054
vn -0.5707 -0.7511 -0.3317
vn 0.1913 -0.6839 -0.7041
vn -0.6581 -0.3939 -0.6417
vn 0.1961 0.9447 -0.2628
vn 0.1663 -0.8872 -0.4303
vn 0.8935 0.4491 0.0030
vn 0.2917 -0.5693 -0.7687
vn 0.0899 -0.9700 -0.2258
vn 0.6550 -0.7446 0.1285
vn 0.9781 0.0347 -0.2054
vn 0.9214 -0.3855 -0.0486
vn 0.8190 0.4724 -0.3256
vn 0.4067 -0.4659 0.7858
vn 0.6581 0.3939 0.6417
vn 0.6014 -0.0263 0.7985
vn 0.5707 0.7511 0.3318
vn 0.2602 -0.6821 -0.6834
vn 0.1804 0.8515 -0.4923
vn -0.6512 0.3929 -0.6493
vn 0.0434 0.9906 -0.1296
vn 0.9901 -0.0979 -0.1009
vn -0.5965 0.0251 -0.8022
vn -0.6438 -0.5383 -0.5438
vn -0.0608 0.8395 -0.5399
vn -0.9284 0.3715 -0.0135
vn -0.5542 -0.7783 -0.2953
vn 0.5679 0.2277 -0.7909
vn -0.5576 0.8061 0.1980
vn -0.1663 0.8873 0.4303
vn -0.5707 -0.7511 -0.3318
vn 0.2533 -0.1359 -0.9578
vn 0.9139 0.4013 -0.0616
vn 0.6015 -0.0263 0.7985
vn 0.1803 0.8515 -0.4924
vn -0.6788 0.4407 -0.5874
vn 0.9768 0.0335 -0.2115
vn -0.6780 -0.1067 -0.7273
vn -0.0608 0.8395 -0.5400
vn -0.9739 -0.1216 0.1915
vn -0.5541 -0.7783 -0.2953
vn 0.6334 0.3484 -0.6910
vn -0.6521 0.7398 0.1658
s off
f 59/66/51 69/67/51 47/68/51
f 45/69/52 51/70/52 46/71/52
f 43/72/53 49/73/53 44/74/53
f 47/75/54 51/70/54 52/76/54
f 44/74/55 50/77/55 45/69/55
f 48/78/56 71/79/56 49/80/56
f 51/81/57 55/82/57 52/83/57
f 49/80/58 53/84/58 50/85/58
f 43/86/59 70/87/59 48/78/59
f 50/85/60 54/88/60 51/81/60
f 55/82/61 58/89/61 59/66/61
f 72/90/62 84/91/62 80/92/62
f 53/84/63 58/89/63 54/88/63
f 70/93/64 83/94/64 81/95/64
f 58/89/65 64/96/65 59/66/65
f 61/97/66 77/98/66 60/99/66
f 57/100/67 63/101/67 58/89/67
f 62/102/68 76/103/68 78/104/68
f 64/96/69 68/105/69 69/67/69
f 61/106/70 67/107/70 62/108/70
f 43/86/59 60/109/59 56/110/59
f 62/108/71 68/105/71 63/101/71
f 60/109/72 66/111/72 61/106/72
f 69/112/73 46/71/73 47/75/73
f 66/113/74 45/69/74 67/114/74
f 67/114/75 46/71/75 68/115/75
f 65/116/76 44/74/76 66/113/76
f 55/82/51 47/68/51 52/83/51
f 73/117/77 78/104/77 76/103/77
f 73/117/78 77/98/78 74/118/78
f 72/119/79 75/120/79 73/117/79
f 60/99/80 75/120/80 56/121/80
f 61/97/81 78/104/81 74/118/81
f 72/119/82 76/103/82 57/122/82
f 79/123/83 84/91/83 82/124/83
f 79/123/84 83/94/84 80/92/84
f 71/125/85 82/124/85 53/126/85
f 53/126/86 84/91/86 57/127/86
f 72/90/87 83/94/87 56/128/87
f 71/125/88 81/95/88 79/123/88
f 59/66/51 64/96/51 69/67/51
f 45/69/52 50/77/52 51/70/52
f 43/72/89 48/129/89 49/73/89
f 47/75/54 46/71/54 51/70/54
f 44/74/55 49/73/55 50/77/55
f 48/78/56 70/87/56 71/79/56
f 51/81/57 54/88/57 55/82/57
f 49/80/58 71/79/58 53/84/58
f 43/86/59 56/110/59 70/87/59
f 50/85/60 53/84/60 54/88/60
f 55/82/90 54/88/90 58/89/90
f 72/90/91 57/127/91 84/91/91
f 53/84/63 57/100/63 58/89/63
f 70/93/64 56/128/64 83/94/64
f 58/89/65 63/101/65 64/96/65
f 61/97/92 74/118/92 77/98/92
f 57/100/67 62/108/67 63/101/67
f 62/102/68 57/122/68 76/103/68
f 64/96/69 63/101/69 68/105/69
f 61/106/70 66/111/70 67/107/70
f 43/86/59 65/130/59 60/109/59
f 62/108/71 67/107/71 68/105/71
f 60/109/72 65/130/72 66/111/72
f 69/112/73 68/115/73 46/71/73
f 66/113/74 44/74/74 45/69/74
f 67/114/93 45/69/93 46/71/93
f 65/116/76 43/72/76 44/74/76
f 55/82/51 59/66/51 47/68/51
f 73/117/77 74/118/77 78/104/77
f 73/117/94 75/120/94 77/98/94
f 72/119/95 56/121/95 75/120/95
f 60/99/80 77/98/80 75/120/80
f 61/97/96 62/102/96 78/104/96
f 72/119/97 73/117/97 76/103/97
f 79/123/83 80/92/83 84/91/83
f 79/123/98 81/95/98 83/94/98
f 71/125/99 79/123/99 82/124/99
f 53/126/100 82/124/100 84/91/100
f 72/90/101 80/92/101 83/94/101
f 71/125/102 70/93/102 81/95/102
