# Blender v2.81 (sub 16) OBJ File: 'garbage.blend'
# www.blender.org
v -0.342450 2.439029 -0.094076
v -0.336959 2.428903 -0.120323
v -0.331965 2.406780 -0.137852
v -0.328808 2.378590 -0.141966
v -0.328333 2.351885 -0.131564
v -0.320634 2.435399 -0.077420
v -0.299171 2.422614 -0.091474
v -0.288332 2.399519 -0.104540
v -0.291020 2.372302 -0.113118
v -0.306516 2.348254 -0.114908
v -0.295185 2.376873 -0.054476
v -0.296955 2.352689 -0.069761
v -0.309943 2.336931 -0.089876
v -0.349303 2.416383 -0.044012
v -0.345671 2.361487 -0.037724
v -0.340678 2.339365 -0.055253
v -0.335186 2.329238 -0.081499
v -0.371120 2.420013 -0.060667
v -0.386616 2.395966 -0.062458
v -0.389305 2.368748 -0.071035
v -0.378465 2.345653 -0.084101
v -0.357003 2.332869 -0.098155
v -0.367694 2.431337 -0.085699
v -0.380681 2.415579 -0.105814
v -0.382452 2.391395 -0.121099
v -0.372531 2.365266 -0.127458
v -0.353576 2.344192 -0.123187
v -0.324060 2.424075 -0.052388
v -0.305106 2.403002 -0.048117
v -0.348828 2.389678 -0.033609
v -0.393414 2.394342 -0.010798
v -0.396497 2.394855 -0.013152
v -0.369411 2.413303 -0.029966
v -0.374501 2.369329 -0.026607
v -0.380210 2.415100 -0.038211
v -0.391252 2.372117 -0.039395
v -0.309190 2.403096 0.000156
v -0.319539 2.399942 0.003590
v -0.319158 2.412626 -0.012480
v -0.311534 2.386108 -0.015270
v -0.323901 2.411180 -0.010907
v -0.316291 2.384658 -0.013691
vt 0.274240 0.539347
vt 0.265397 0.539709
vt 0.266768 0.532487
vt 0.231414 0.551290
vt 0.214659 0.541092
vt 0.231357 0.542861
vt 0.231940 0.569242
vt 0.215985 0.562822
vt 0.231472 0.559719
vt 0.230890 0.533338
vt 0.220414 0.530957
vt 0.213134 0.552274
vt 0.289666 0.544440
vt 0.282983 0.540904
vt 0.290637 0.536818
vt 0.279682 0.529141
vt 0.275518 0.536619
vt 0.273707 0.532162
vt 0.280945 0.538772
vt 0.286431 0.530872
vt 0.290637 0.551375
vt 0.284312 0.543753
vt 0.278488 0.537315
vt 0.276318 0.541045
vt 0.804698 0.251197
vt 0.792375 0.255919
vt 0.792638 0.252041
vt 0.786357 0.239035
vt 0.792578 0.249274
vt 0.791489 0.249454
vt 0.271776 0.541127
vt 0.760733 0.199751
vt 0.757502 0.209505
vt 0.750621 0.206121
vt 0.278108 0.542645
vt 0.273009 0.544115
vt 0.772804 0.201934
vt 0.766718 0.213101
vt 0.766203 0.208706
vt 0.264007 0.548518
vt 0.277612 0.547903
vt 0.268747 0.555467
vt 0.275021 0.546378
vt 0.280714 0.548498
vt 0.281954 0.545638
vt 0.276612 0.557409
vt 0.240880 0.530957
vt 0.248168 0.561486
vt 0.249693 0.550306
vt 0.246843 0.539760
vt 0.242415 0.571620
vt 0.762287 0.211045
vt 0.762255 0.210544
vt 0.761023 0.221925
vt 0.757316 0.212491
vt 0.750922 0.216572
vt 0.772804 0.220841
vt 0.791613 0.252007
vt 0.791097 0.255536
vt 0.780068 0.250772
vt 0.780487 0.263708
vt 0.804698 0.264828
vt 0.798786 0.238814
vt 0.221949 0.571626
vt 0.283377 0.553479
vn 0.1472 -0.9086 -0.3909
vn 0.6156 0.1809 -0.7670
vn 0.3556 0.8946 -0.2707
vn 0.5483 -0.2951 -0.7825
vn 0.5491 0.5917 -0.5903
vn 0.6455 0.6588 0.3864
vn 0.8382 -0.5308 -0.1254
vn 0.9227 0.2879 0.2565
vn -0.1472 0.9086 0.3909
vn 0.9892 -0.1229 0.0798
vn 0.3863 -0.8305 0.4013
vn -0.4436 -0.7111 0.5455
vn 0.4068 -0.5092 0.7584
vn -0.1888 0.9376 0.2922
vn -0.3556 -0.8946 0.2707
vn -0.8144 0.5405 -0.2114
vn -0.5491 -0.5917 0.5903
vn -0.2293 -0.9693 0.0891
vn -0.6455 -0.6589 -0.3864
vn -0.9892 0.1229 -0.0798
vn -0.9227 -0.2879 -0.2565
vn -0.8382 0.5308 0.1254
vn -0.1935 -0.3591 -0.9130
vn -0.4068 0.5092 -0.7585
vn -0.3403 0.0984 -0.9352
vn -0.3863 0.8305 -0.4013
vn -0.5031 -0.7004 0.5063
vn -0.2486 0.8261 0.5058
vn 0.4607 0.2711 0.8451
vn -0.0005 0.9769 0.2136
vn -0.9805 0.0006 -0.1965
vn 0.3344 -0.0993 0.9372
vn 0.4105 -0.6434 0.6462
vn -0.0339 0.7849 0.6187
vn 0.9099 0.2685 0.3162
vn 0.3790 -0.8529 0.3590
vn -0.7553 0.2262 0.6151
vn 0.6536 0.7550 0.0538
vn 0.6455 0.6589 0.3864
vn -0.5336 -0.1804 0.8263
vn 0.4068 -0.5091 0.7585
vn -0.3556 -0.8946 0.2708
vn -0.8566 0.4903 -0.1606
vn -0.4068 0.5091 -0.7585
vn 0.5090 0.3203 0.7989
vn -0.9899 0.1210 -0.0738
vn 0.4235 -0.2331 0.8754
vn -0.0339 0.7849 0.6186
vn 0.9743 -0.2096 0.0828
vn -0.7786 0.3604 0.5137
vn 0.7288 0.6767 0.1046
s off
f 17/1/1 27/2/1 5/3/1
f 3/4/2 9/5/2 4/6/2
f 1/7/3 7/8/3 2/9/3
f 5/10/4 9/5/4 10/11/4
f 2/9/5 8/12/5 3/4/5
f 6/13/6 29/14/6 7/15/6
f 9/16/7 13/17/7 10/18/7
f 7/15/8 11/19/8 8/20/8
f 1/21/9 28/22/9 6/13/9
f 8/20/10 12/23/10 9/16/10
f 13/17/11 16/24/11 17/1/11
f 30/25/12 42/26/12 38/27/12
f 11/19/13 16/24/13 12/23/13
f 28/28/14 41/29/14 39/30/14
f 16/24/15 22/31/15 17/1/15
f 19/32/16 35/33/16 18/34/16
f 15/35/17 21/36/17 16/24/17
f 20/37/18 34/38/18 36/39/18
f 22/31/19 26/40/19 27/2/19
f 19/41/20 25/42/20 20/43/20
f 1/21/9 18/44/9 14/45/9
f 20/43/21 26/40/21 21/36/21
f 18/44/22 24/46/22 19/41/22
f 27/47/23 4/6/23 5/10/23
f 24/48/24 3/4/24 25/49/24
f 25/49/25 4/6/25 26/50/25
f 23/51/26 2/9/26 24/48/26
f 13/17/1 5/3/1 10/18/1
f 31/52/27 36/39/27 34/38/27
f 31/52/28 35/33/28 32/53/28
f 30/54/29 33/55/29 31/52/29
f 18/34/30 33/55/30 14/56/30
f 19/32/31 36/39/31 32/53/31
f 30/54/32 34/38/32 15/57/32
f 37/58/33 42/26/33 40/59/33
f 37/58/34 41/29/34 38/27/34
f 29/60/35 40/59/35 11/61/35
f 11/61/36 42/26/36 15/62/36
f 30/25/37 41/29/37 14/63/37
f 29/60/38 39/30/38 37/58/38
f 17/1/1 22/31/1 27/2/1
f 3/4/2 8/12/2 9/5/2
f 1/7/3 6/64/3 7/8/3
f 5/10/4 4/6/4 9/5/4
f 2/9/5 7/8/5 8/12/5
f 6/13/39 28/22/39 29/14/39
f 9/16/7 12/23/7 13/17/7
f 7/15/8 29/14/8 11/19/8
f 1/21/9 14/45/9 28/22/9
f 8/20/10 11/19/10 12/23/10
f 13/17/11 12/23/11 16/24/11
f 30/25/40 15/62/40 42/26/40
f 11/19/41 15/35/41 16/24/41
f 28/28/14 14/63/14 41/29/14
f 16/24/42 21/36/42 22/31/42
f 19/32/43 32/53/43 35/33/43
f 15/35/17 20/43/17 21/36/17
f 20/37/18 15/57/18 34/38/18
f 22/31/19 21/36/19 26/40/19
f 19/41/20 24/46/20 25/42/20
f 1/21/9 23/65/9 18/44/9
f 20/43/21 25/42/21 26/40/21
f 18/44/22 23/65/22 24/46/22
f 27/47/23 26/50/23 4/6/23
f 24/48/44 2/9/44 3/4/44
f 25/49/25 3/4/25 4/6/25
f 23/51/26 1/7/26 2/9/26
f 13/17/1 17/1/1 5/3/1
f 31/52/27 32/53/27 36/39/27
f 31/52/28 33/55/28 35/33/28
f 30/54/45 14/56/45 33/55/45
f 18/34/30 35/33/30 33/55/30
f 19/32/46 20/37/46 36/39/46
f 30/54/47 31/52/47 34/38/47
f 37/58/33 38/27/33 42/26/33
f 37/58/48 39/30/48 41/29/48
f 29/60/49 37/58/49 40/59/49
f 11/61/36 40/59/36 42/26/36
f 30/25/50 38/27/50 41/29/50
f 29/60/51 28/28/51 39/30/51
v 1.645786 1.581667 -1.222889
v 1.644192 1.569045 -1.197203
v 1.641009 1.545398 -1.181320
v 1.637089 1.517062 -1.179494
v 1.633482 1.491631 -1.192215
v 1.621349 1.580588 -1.235859
v 1.601866 1.567175 -1.219669
v 1.592135 1.543239 -1.207261
v 1.594763 1.515193 -1.201959
v 1.609045 1.490551 -1.205186
v 1.589385 1.525741 -1.259725
v 1.592381 1.500039 -1.247395
v 1.607671 1.481803 -1.231418
v 1.643036 1.564169 -1.275353
v 1.635510 1.510402 -1.286249
v 1.632326 1.486755 -1.270365
v 1.630733 1.474133 -1.244680
v 1.667473 1.565249 -1.262383
v 1.681756 1.540607 -1.265609
v 1.684384 1.512561 -1.260308
v 1.674652 1.488625 -1.247900
v 1.655170 1.475212 -1.231709
v 1.668848 1.573998 -1.236150
v 1.684137 1.555761 -1.220173
v 1.687133 1.530059 -1.207843
v 1.677034 1.503778 -1.202464
v 1.656544 1.483961 -1.205477
v 1.619974 1.571839 -1.262091
v 1.599485 1.552022 -1.265104
v 1.639430 1.538738 -1.288074
v 1.679801 1.544173 -1.317581
v 1.683254 1.544325 -1.315748
v 1.660346 1.561863 -1.292850
v 1.662472 1.518331 -1.301295
v 1.672442 1.562397 -1.286430
v 1.681235 1.519160 -1.291336
v 1.595510 1.557036 -1.313126
v 1.604965 1.553892 -1.318563
v 1.607925 1.564824 -1.301504
v 1.599475 1.538450 -1.300054
v 1.612258 1.563383 -1.303996
v 1.603821 1.537004 -1.302553
vt 0.274240 0.539347
vt 0.265397 0.539709
vt 0.266768 0.532487
vt 0.231414 0.551290
vt 0.214659 0.541092
vt 0.231357 0.542861
vt 0.231940 0.569242
vt 0.215985 0.562822
vt 0.231472 0.559719
vt 0.230890 0.533338
vt 0.220414 0.530957
vt 0.213134 0.552274
vt 0.289666 0.544440
vt 0.282983 0.540904
vt 0.290637 0.536818
vt 0.279682 0.529141
vt 0.275518 0.536619
vt 0.273707 0.532162
vt 0.280945 0.538772
vt 0.286431 0.530872
vt 0.290637 0.551375
vt 0.284312 0.543753
vt 0.278488 0.537315
vt 0.276318 0.541045
vt 0.804698 0.251197
vt 0.792375 0.255919
vt 0.792638 0.252041
vt 0.786357 0.239035
vt 0.792578 0.249274
vt 0.791489 0.249454
vt 0.271776 0.541127
vt 0.760733 0.199751
vt 0.757502 0.209505
vt 0.750621 0.206121
vt 0.278108 0.542645
vt 0.273009 0.544115
vt 0.772804 0.201934
vt 0.766718 0.213101
vt 0.766203 0.208706
vt 0.264007 0.548518
vt 0.277612 0.547903
vt 0.268747 0.555467
vt 0.275021 0.546378
vt 0.280714 0.548498
vt 0.281954 0.545638
vt 0.276612 0.557409
vt 0.240880 0.530957
vt 0.248168 0.561486
vt 0.249693 0.550306
vt 0.246843 0.539760
vt 0.242415 0.571620
vt 0.762287 0.211045
vt 0.762255 0.210544
vt 0.761023 0.221925
vt 0.757316 0.212491
vt 0.750922 0.216572
vt 0.772804 0.220841
vt 0.791613 0.252007
vt 0.791097 0.255536
vt 0.780068 0.250772
vt 0.780487 0.263708
vt 0.804698 0.264828
vt 0.798786 0.238814
vt 0.221949 0.571626
vt 0.283377 0.553479
vn -0.1283 -0.9388 0.3198
vn -0.4695 0.1213 0.8745
vn -0.2579 0.8734 0.4132
vn -0.4258 -0.3558 0.8319
vn -0.4115 0.5457 0.7299
vn -0.6648 0.7184 -0.2048
vn -0.8327 -0.5107 0.2140
vn -0.9359 0.3461 -0.0664
vn 0.1283 0.9388 -0.3198
vn -0.9939 -0.0783 0.0782
vn -0.4909 -0.7695 -0.4086
vn 0.3088 -0.6653 -0.6797
vn -0.5533 -0.4118 -0.7240
vn 0.1871 0.9557 -0.2273
vn 0.2579 -0.8734 -0.4132
vn 0.8656 0.4858 0.1212
vn 0.4115 -0.5457 -0.7300
vn 0.1597 -0.9621 -0.2208
vn 0.6648 -0.7184 0.2048
vn 0.9939 0.0783 -0.0782
vn 0.9359 -0.3461 0.0664
vn 0.8327 0.5107 -0.2140
vn 0.3229 -0.4596 0.8273
vn 0.5533 0.4118 0.7240
vn 0.4953 -0.0126 0.8686
vn 0.4909 0.7695 0.4086
vn 0.3744 -0.6609 -0.6504
vn 0.2047 0.8652 -0.4578
vn -0.5795 0.3746 -0.7238
vn 0.0168 0.9933 -0.1143
vn 0.9981 -0.0551 0.0257
vn -0.4899 0.0116 -0.8717
vn -0.5454 -0.5569 -0.6264
vn -0.0276 0.8438 -0.5360
vn -0.9342 0.3326 -0.1289
vn -0.4779 -0.7964 -0.3705
vn 0.6538 0.2623 -0.7097
vn -0.6125 0.7793 0.1321
vn -0.4115 0.5457 0.7300
vn 0.3790 -0.1116 -0.9187
vn 0.8961 0.4398 0.0594
vn 0.2048 0.8652 -0.4578
vn -0.6167 0.4204 -0.6655
vn 0.9934 0.0771 -0.0844
vn -0.5745 -0.1246 -0.8090
vn -0.9842 -0.1648 0.0643
vn 0.7007 0.3842 -0.6012
vn -0.6992 0.7096 0.0874
s off
f 59/66/52 69/67/52 47/68/52
f 45/69/53 51/70/53 46/71/53
f 43/72/54 49/73/54 44/74/54
f 47/75/55 51/70/55 52/76/55
f 44/74/56 50/77/56 45/69/56
f 48/78/57 71/79/57 49/80/57
f 51/81/58 55/82/58 52/83/58
f 49/80/59 53/84/59 50/85/59
f 43/86/60 70/87/60 48/78/60
f 50/85/61 54/88/61 51/81/61
f 55/82/62 58/89/62 59/66/62
f 72/90/63 84/91/63 80/92/63
f 53/84/64 58/89/64 54/88/64
f 70/93/65 83/94/65 81/95/65
f 58/89/66 64/96/66 59/66/66
f 61/97/67 77/98/67 60/99/67
f 57/100/68 63/101/68 58/89/68
f 62/102/69 76/103/69 78/104/69
f 64/96/70 68/105/70 69/67/70
f 61/106/71 67/107/71 62/108/71
f 43/86/60 60/109/60 56/110/60
f 62/108/72 68/105/72 63/101/72
f 60/109/73 66/111/73 61/106/73
f 69/112/74 46/71/74 47/75/74
f 66/113/75 45/69/75 67/114/75
f 67/114/76 46/71/76 68/115/76
f 65/116/77 44/74/77 66/113/77
f 55/82/52 47/68/52 52/83/52
f 73/117/78 78/104/78 76/103/78
f 73/117/79 77/98/79 74/118/79
f 72/119/80 75/120/80 73/117/80
f 60/99/81 75/120/81 56/121/81
f 61/97/82 78/104/82 74/118/82
f 72/119/83 76/103/83 57/122/83
f 79/123/84 84/91/84 82/124/84
f 79/123/85 83/94/85 80/92/85
f 71/125/86 82/124/86 53/126/86
f 53/126/87 84/91/87 57/127/87
f 72/90/88 83/94/88 56/128/88
f 71/125/89 81/95/89 79/123/89
f 59/66/52 64/96/52 69/67/52
f 45/69/53 50/77/53 51/70/53
f 43/72/54 48/129/54 49/73/54
f 47/75/55 46/71/55 51/70/55
f 44/74/90 49/73/90 50/77/90
f 48/78/57 70/87/57 71/79/57
f 51/81/58 54/88/58 55/82/58
f 49/80/59 71/79/59 53/84/59
f 43/86/60 56/110/60 70/87/60
f 50/85/61 53/84/61 54/88/61
f 55/82/62 54/88/62 58/89/62
f 72/90/91 57/127/91 84/91/91
f 53/84/64 57/100/64 58/89/64
f 70/93/65 56/128/65 83/94/65
f 58/89/66 63/101/66 64/96/66
f 61/97/92 74/118/92 77/98/92
f 57/100/68 62/108/68 63/101/68
f 62/102/69 57/122/69 76/103/69
f 64/96/70 63/101/70 68/105/70
f 61/106/71 66/111/71 67/107/71
f 43/86/60 65/130/60 60/109/60
f 62/108/72 67/107/72 68/105/72
f 60/109/73 65/130/73 66/111/73
f 69/112/74 68/115/74 46/71/74
f 66/113/75 44/74/75 45/69/75
f 67/114/76 45/69/76 46/71/76
f 65/116/77 43/72/77 44/74/77
f 55/82/52 59/66/52 47/68/52
f 73/117/78 74/118/78 78/104/78
f 73/117/93 75/120/93 77/98/93
f 72/119/94 56/121/94 75/120/94
f 60/99/81 77/98/81 75/120/81
f 61/97/95 62/102/95 78/104/95
f 72/119/96 73/117/96 76/103/96
f 79/123/84 80/92/84 84/91/84
f 79/123/85 81/95/85 83/94/85
f 71/125/97 79/123/97 82/124/97
f 53/126/87 82/124/87 84/91/87
f 72/90/98 80/92/98 83/94/98
f 71/125/99 70/93/99 81/95/99
