# Blender v2.81 (sub 16) OBJ File: 'garbage.blend'
# www.blender.org
v 2.137360 2.214091 -0.390492
v 2.142863 2.199675 -0.366337
v 2.142088 2.175323 -0.351238
v 2.135244 2.147560 -0.349241
v 2.124165 2.123825 -0.360883
v 2.110068 2.216850 -0.394245
v 2.095591 2.204453 -0.372836
v 2.087503 2.180840 -0.358743
v 2.087972 2.152339 -0.355741
v 2.096873 2.126584 -0.364635
v 2.064852 2.168111 -0.407642
v 2.068356 2.141315 -0.398089
v 2.085547 2.120219 -0.389085
v 2.114710 2.201362 -0.439392
v 2.096786 2.149864 -0.449037
v 2.096012 2.125512 -0.433938
v 2.101514 2.111096 -0.409782
v 2.142002 2.198603 -0.435640
v 2.150902 2.172849 -0.444534
v 2.151371 2.144347 -0.441532
v 2.143284 2.120734 -0.427438
v 2.128807 2.108337 -0.406030
v 2.153327 2.204968 -0.411190
v 2.170518 2.183873 -0.402185
v 2.174022 2.157076 -0.392632
v 2.162900 2.131758 -0.385090
v 2.140132 2.114702 -0.381580
v 2.098742 2.210485 -0.418695
v 2.075975 2.193429 -0.415184
v 2.103630 2.177627 -0.451033
v 2.131990 2.180846 -0.492450
v 2.135847 2.180456 -0.491920
v 2.124607 2.198546 -0.461868
v 2.117880 2.155890 -0.472166
v 2.138117 2.197181 -0.460011
v 2.138835 2.153772 -0.469285
v 2.056711 2.202767 -0.458644
v 2.063257 2.199027 -0.467129
v 2.073252 2.208123 -0.451746
v 2.062325 2.182846 -0.448462
v 2.076252 2.206409 -0.455635
v 2.065334 2.181127 -0.452362
vt 0.274240 0.539347
vt 0.265397 0.539709
vt 0.266768 0.532487
vt 0.231414 0.551290
vt 0.214659 0.541092
vt 0.231357 0.542861
vt 0.231940 0.569242
vt 0.215985 0.562822
vt 0.231472 0.559719
vt 0.230890 0.533338
vt 0.220414 0.530957
vt 0.213134 0.552274
vt 0.289666 0.544440
vt 0.282983 0.540904
vt 0.290637 0.536818
vt 0.279682 0.529141
vt 0.275518 0.536619
vt 0.273707 0.532162
vt 0.280945 0.538772
vt 0.286431 0.530872
vt 0.290637 0.551375
vt 0.284312 0.543753
vt 0.278488 0.537315
vt 0.276318 0.541045
vt 0.804698 0.251197
vt 0.792375 0.255919
vt 0.792638 0.252041
vt 0.786357 0.239035
vt 0.792578 0.249274
vt 0.791489 0.249454
vt 0.271776 0.541127
vt 0.760733 0.199751
vt 0.757502 0.209505
vt 0.750621 0.206121
vt 0.278108 0.542645
vt 0.273009 0.544115
vt 0.772804 0.201934
vt 0.766718 0.213101
vt 0.766203 0.208706
vt 0.264007 0.548518
vt 0.277612 0.547903
vt 0.268747 0.555467
vt 0.275021 0.546378
vt 0.280714 0.548498
vt 0.281954 0.545638
vt 0.276612 0.557409
vt 0.240880 0.530957
vt 0.248168 0.561486
vt 0.249693 0.550306
vt 0.246843 0.539760
vt 0.242415 0.571620
vt 0.762287 0.211045
vt 0.762255 0.210544
vt 0.761023 0.221925
vt 0.757316 0.212491
vt 0.750922 0.216572
vt 0.772804 0.220841
vt 0.791613 0.252007
vt 0.791097 0.255536
vt 0.780068 0.250772
vt 0.780487 0.263708
vt 0.804698 0.264828
vt 0.798786 0.238814
vt 0.221949 0.571626
vt 0.283377 0.553479
vn -0.1376 -0.9411 0.3087
vn -0.1254 0.1019 0.9869
vn 0.0169 0.8603 0.5096
vn -0.1632 -0.3720 0.9138
vn -0.0632 0.5274 0.8473
vn -0.5918 0.8034 0.0650
vn -0.7720 -0.4288 0.4692
vn -0.8476 0.4541 0.2744
vn 0.1376 0.9412 -0.3087
vn -0.9098 0.0286 0.4140
vn -0.6988 -0.6730 -0.2424
vn -0.0316 -0.6383 -0.7692
vn -0.8155 -0.2860 -0.5031
vn 0.2259 0.9437 -0.2417
vn -0.0169 -0.8603 -0.5096
vn 0.9126 0.3731 -0.1672
vn 0.0632 -0.5274 -0.8473
vn -0.0552 -0.9528 -0.2986
vn 0.5918 -0.8034 -0.0650
vn 0.9098 -0.0286 -0.4140
vn 0.1376 0.9411 -0.3087
vn 0.8476 -0.4541 -0.2744
vn 0.7720 0.4288 -0.4692
vn 0.5187 -0.5593 0.6467
vn 0.8155 0.2860 0.5031
vn 0.7533 -0.1395 0.6427
vn 0.6988 0.6730 0.2425
vn 0.0400 -0.6438 -0.7642
vn 0.1523 0.8709 -0.4674
vn -0.7341 0.4957 -0.4641
vn 0.1106 0.9910 -0.0755
vn 0.9310 -0.1698 -0.3231
vn -0.7494 0.1382 -0.6475
vn -0.7947 -0.4385 -0.4197
vn -0.0935 0.8824 -0.4611
vn -0.8690 0.4457 0.2147
vn -0.6775 -0.7042 -0.2123
vn 0.4043 0.2436 -0.8816
vn -0.4211 0.8303 0.3651
vn -0.1376 -0.9412 0.3087
vn 0.0169 0.8603 0.5095
vn -0.6988 -0.6730 -0.2425
vn 0.0274 -0.0784 -0.9965
vn 0.9139 0.3291 -0.2375
vn 0.0632 -0.5273 -0.8473
vn -0.0553 -0.9528 -0.2986
vn 0.6988 0.6730 0.2424
vn 0.0400 -0.6437 -0.7642
vn 0.1523 0.8709 -0.4673
vn -0.7429 0.5405 -0.3949
vn 0.1105 0.9910 -0.0754
vn 0.9072 -0.0293 -0.4197
vn -0.8254 0.0078 -0.5646
vn -0.7947 -0.4385 -0.4198
vn -0.9172 -0.0569 0.3943
vn 0.5011 0.3501 -0.7914
vn -0.5263 0.7747 0.3505
s off
f 17/1/1 27/2/1 5/3/1
f 3/4/2 9/5/2 4/6/2
f 1/7/3 7/8/3 2/9/3
f 5/10/4 9/5/4 10/11/4
f 2/9/5 8/12/5 3/4/5
f 6/13/6 29/14/6 7/15/6
f 9/16/7 13/17/7 10/18/7
f 7/15/8 11/19/8 8/20/8
f 1/21/9 28/22/9 6/13/9
f 8/20/10 12/23/10 9/16/10
f 13/17/11 16/24/11 17/1/11
f 30/25/12 42/26/12 38/27/12
f 11/19/13 16/24/13 12/23/13
f 28/28/14 41/29/14 39/30/14
f 16/24/15 22/31/15 17/1/15
f 19/32/16 35/33/16 18/34/16
f 15/35/17 21/36/17 16/24/17
f 20/37/18 34/38/18 36/39/18
f 22/31/19 26/40/19 27/2/19
f 19/41/20 25/42/20 20/43/20
f 1/21/21 18/44/21 14/45/21
f 20/43/22 26/40/22 21/36/22
f 18/44/23 24/46/23 19/41/23
f 27/47/24 4/6/24 5/10/24
f 24/48/25 3/4/25 25/49/25
f 25/49/26 4/6/26 26/50/26
f 23/51/27 2/9/27 24/48/27
f 13/17/1 5/3/1 10/18/1
f 31/52/28 36/39/28 34/38/28
f 31/52/29 35/33/29 32/53/29
f 30/54/30 33/55/30 31/52/30
f 18/34/31 33/55/31 14/56/31
f 19/32/32 36/39/32 32/53/32
f 30/54/33 34/38/33 15/57/33
f 37/58/34 42/26/34 40/59/34
f 37/58/35 41/29/35 38/27/35
f 29/60/36 40/59/36 11/61/36
f 11/61/37 42/26/37 15/62/37
f 30/25/38 41/29/38 14/63/38
f 29/60/39 39/30/39 37/58/39
f 17/1/40 22/31/40 27/2/40
f 3/4/2 8/12/2 9/5/2
f 1/7/41 6/64/41 7/8/41
f 5/10/4 4/6/4 9/5/4
f 2/9/5 7/8/5 8/12/5
f 6/13/6 28/22/6 29/14/6
f 9/16/7 12/23/7 13/17/7
f 7/15/8 29/14/8 11/19/8
f 1/21/21 14/45/21 28/22/21
f 8/20/10 11/19/10 12/23/10
f 13/17/42 12/23/42 16/24/42
f 30/25/43 15/62/43 42/26/43
f 11/19/13 15/35/13 16/24/13
f 28/28/14 14/63/14 41/29/14
f 16/24/15 21/36/15 22/31/15
f 19/32/44 32/53/44 35/33/44
f 15/35/45 20/43/45 21/36/45
f 20/37/46 15/57/46 34/38/46
f 22/31/19 21/36/19 26/40/19
f 19/41/20 24/46/20 25/42/20
f 1/21/21 23/65/21 18/44/21
f 20/43/22 25/42/22 26/40/22
f 18/44/23 23/65/23 24/46/23
f 27/47/24 26/50/24 4/6/24
f 24/48/25 2/9/25 3/4/25
f 25/49/26 3/4/26 4/6/26
f 23/51/47 1/7/47 2/9/47
f 13/17/1 17/1/1 5/3/1
f 31/52/48 32/53/48 36/39/48
f 31/52/49 33/55/49 35/33/49
f 30/54/50 14/56/50 33/55/50
f 18/34/51 35/33/51 33/55/51
f 19/32/52 20/37/52 36/39/52
f 30/54/53 31/52/53 34/38/53
f 37/58/54 38/27/54 42/26/54
f 37/58/35 39/30/35 41/29/35
f 29/60/55 37/58/55 40/59/55
f 11/61/37 40/59/37 42/26/37
f 30/25/56 38/27/56 41/29/56
f 29/60/57 28/28/57 39/30/57
v 1.043860 1.499858 -0.429141
v 1.036642 1.474367 -0.440082
v 1.038485 1.445765 -0.439692
v 1.048893 1.421717 -0.428076
v 1.065079 1.408665 -0.408346
v 1.070698 1.505118 -0.433457
v 1.083126 1.483478 -0.447557
v 1.092160 1.456286 -0.448324
v 1.095378 1.430828 -0.435552
v 1.091917 1.413926 -0.412662
v 1.124130 1.473279 -0.406426
v 1.123064 1.445545 -0.399267
v 1.107902 1.422422 -0.391713
v 1.075830 1.516851 -0.387243
v 1.102425 1.479751 -0.355897
v 1.104267 1.451149 -0.355507
v 1.097049 1.425658 -0.366448
v 1.048992 1.511590 -0.382927
v 1.045532 1.494688 -0.360037
v 1.048749 1.469229 -0.347265
v 1.057783 1.442037 -0.348032
v 1.070212 1.420397 -0.362132
v 1.033007 1.503094 -0.403876
v 1.017845 1.479971 -0.396322
v 1.016779 1.452237 -0.389162
v 1.030096 1.427321 -0.384316
v 1.054227 1.411901 -0.383081
v 1.086683 1.513615 -0.412508
v 1.110813 1.498195 -0.411273
v 1.092016 1.503799 -0.367513
v 1.070663 1.528319 -0.329136
v 1.066870 1.527576 -0.328526
v 1.070267 1.526529 -0.365187
v 1.084754 1.496802 -0.335568
v 1.056983 1.523925 -0.363050
v 1.064148 1.492762 -0.332254
v 1.135361 1.530508 -0.384810
v 1.130912 1.531834 -0.374452
v 1.117311 1.530645 -0.389713
v 1.131129 1.508098 -0.381358
v 1.115272 1.531253 -0.384966
v 1.129084 1.508707 -0.376597
vt 0.274240 0.539347
vt 0.265397 0.539709
vt 0.266768 0.532487
vt 0.231414 0.551290
vt 0.214659 0.541092
vt 0.231357 0.542861
vt 0.231940 0.569242
vt 0.215985 0.562822
vt 0.231472 0.559719
vt 0.230890 0.533338
vt 0.220414 0.530957
vt 0.213134 0.552274
vt 0.289666 0.544440
vt 0.282983 0.540904
vt 0.290637 0.536818
vt 0.279682 0.529141
vt 0.275518 0.536619
vt 0.273707 0.532162
vt 0.280945 0.538772
vt 0.286431 0.530872
vt 0.290637 0.551375
vt 0.284312 0.543753
vt 0.278488 0.537315
vt 0.276318 0.541045
vt 0.804698 0.251197
vt 0.792375 0.255919
vt 0.792638 0.252041
vt 0.786357 0.239035
vt 0.792578 0.249274
vt 0.791489 0.249454
vt 0.271776 0.541127
vt 0.760733 0.199751
vt 0.757502 0.209505
vt 0.750621 0.206121
vt 0.278108 0.542645
vt 0.273009 0.544115
vt 0.772804 0.201934
vt 0.766718 0.213101
vt 0.766203 0.208706
vt 0.264007 0.548518
vt 0.277612 0.547903
vt 0.268747 0.555467
vt 0.275021 0.546378
vt 0.280714 0.548498
vt 0.281954 0.545638
vt 0.276612 0.557409
vt 0.240880 0.530957
vt 0.248168 0.561486
vt 0.249693 0.550306
vt 0.246843 0.539760
vt 0.242415 0.571620
vt 0.762287 0.211045
vt 0.762255 0.210544
vt 0.761023 0.221925
vt 0.757316 0.212491
vt 0.750922 0.216572
vt 0.772804 0.220841
vt 0.791613 0.252007
vt 0.791097 0.255536
vt 0.780068 0.250772
vt 0.780487 0.263708
vt 0.804698 0.264828
vt 0.798786 0.238814
vt 0.221949 0.571626
vt 0.283377 0.553479
vn 0.2212 -0.9508 0.2168
vn -0.0542 -0.4532 -0.8897
vn -0.2257 0.4375 -0.8704
vn 0.0639 -0.8074 -0.5865
vn -0.1543 -0.0234 -0.9878
vn 0.4493 0.6544 -0.6082
vn 0.7390 -0.5905 -0.3244
vn 0.7156 0.2561 -0.6499
vn -0.2212 0.9508 -0.2168
vn 0.8156 -0.1738 -0.5519
vn 0.8199 -0.4056 0.4041
vn 0.2502 -0.1090 0.9620
vn 0.9199 0.0645 0.3869
vn -0.3188 0.9132 -0.2539
vn 0.2257 -0.4375 0.8704
vn -0.9175 0.3735 0.1371
vn 0.1543 0.0234 0.9878
vn 0.2421 -0.6294 0.7384
vn -0.4493 -0.6544 0.6082
vn -0.8156 0.1738 0.5519
vn -0.7156 -0.2561 0.6499
vn -0.7390 0.5905 0.3244
vn -0.5302 -0.8393 -0.1203
vn -0.9199 -0.0645 -0.3869
vn -0.8198 -0.4944 -0.2889
vn -0.8199 0.4056 -0.4041
vn 0.1803 -0.1187 0.9764
vn -0.1993 0.9788 -0.0464
vn 0.7197 0.6930 -0.0423
vn -0.2404 0.8651 -0.4402
vn -0.8306 0.0053 0.5569
vn 0.8170 0.4958 0.2943
vn 0.9082 -0.1093 0.4041
vn 0.0377 0.9931 -0.1110
vn 0.7475 0.2826 -0.6012
vn 0.7987 -0.4490 0.4006
vn -0.2856 0.6747 0.6806
vn 0.2296 0.5063 -0.8312
vn 0.7390 -0.5905 -0.3243
vn 0.1480 0.4814 0.8639
vn -0.9008 0.3753 0.2183
vn -0.8199 -0.4944 -0.2889
vn 0.7105 0.6926 -0.1247
vn -0.2404 0.8651 -0.4403
vn -0.8120 0.1765 0.5563
vn 0.8966 0.3439 0.2791
vn 0.8385 -0.2342 -0.4919
vn -0.4104 0.7108 0.5712
vn 0.3428 0.4713 -0.8127
s off
f 59/66/58 69/67/58 47/68/58
f 45/69/59 51/70/59 46/71/59
f 43/72/60 49/73/60 44/74/60
f 47/75/61 51/70/61 52/76/61
f 44/74/62 50/77/62 45/69/62
f 48/78/63 71/79/63 49/80/63
f 51/81/64 55/82/64 52/83/64
f 49/80/65 53/84/65 50/85/65
f 43/86/66 70/87/66 48/78/66
f 50/85/67 54/88/67 51/81/67
f 55/82/68 58/89/68 59/66/68
f 72/90/69 84/91/69 80/92/69
f 53/84/70 58/89/70 54/88/70
f 70/93/71 83/94/71 81/95/71
f 58/89/72 64/96/72 59/66/72
f 61/97/73 77/98/73 60/99/73
f 57/100/74 63/101/74 58/89/74
f 62/102/75 76/103/75 78/104/75
f 64/96/76 68/105/76 69/67/76
f 61/106/77 67/107/77 62/108/77
f 43/86/66 60/109/66 56/110/66
f 62/108/78 68/105/78 63/101/78
f 60/109/79 66/111/79 61/106/79
f 69/112/80 46/71/80 47/75/80
f 66/113/81 45/69/81 67/114/81
f 67/114/82 46/71/82 68/115/82
f 65/116/83 44/74/83 66/113/83
f 55/82/58 47/68/58 52/83/58
f 73/117/84 78/104/84 76/103/84
f 73/117/85 77/98/85 74/118/85
f 72/119/86 75/120/86 73/117/86
f 60/99/87 75/120/87 56/121/87
f 61/97/88 78/104/88 74/118/88
f 72/119/89 76/103/89 57/122/89
f 79/123/90 84/91/90 82/124/90
f 79/123/91 83/94/91 80/92/91
f 71/125/92 82/124/92 53/126/92
f 53/126/93 84/91/93 57/127/93
f 72/90/94 83/94/94 56/128/94
f 71/125/95 81/95/95 79/123/95
f 59/66/58 64/96/58 69/67/58
f 45/69/59 50/77/59 51/70/59
f 43/72/60 48/129/60 49/73/60
f 47/75/61 46/71/61 51/70/61
f 44/74/62 49/73/62 50/77/62
f 48/78/63 70/87/63 71/79/63
f 51/81/96 54/88/96 55/82/96
f 49/80/65 71/79/65 53/84/65
f 43/86/66 56/110/66 70/87/66
f 50/85/67 53/84/67 54/88/67
f 55/82/68 54/88/68 58/89/68
f 72/90/97 57/127/97 84/91/97
f 53/84/70 57/100/70 58/89/70
f 70/93/71 56/128/71 83/94/71
f 58/89/72 63/101/72 64/96/72
f 61/97/98 74/118/98 77/98/98
f 57/100/74 62/108/74 63/101/74
f 62/102/75 57/122/75 76/103/75
f 64/96/76 63/101/76 68/105/76
f 61/106/77 66/111/77 67/107/77
f 43/86/66 65/130/66 60/109/66
f 62/108/78 67/107/78 68/105/78
f 60/109/79 65/130/79 66/111/79
f 69/112/80 68/115/80 46/71/80
f 66/113/81 44/74/81 45/69/81
f 67/114/99 45/69/99 46/71/99
f 65/116/83 43/72/83 44/74/83
f 55/82/58 59/66/58 47/68/58
f 73/117/84 74/118/84 78/104/84
f 73/117/85 75/120/85 77/98/85
f 72/119/100 56/121/100 75/120/100
f 60/99/101 77/98/101 75/120/101
f 61/97/102 62/102/102 78/104/102
f 72/119/103 73/117/103 76/103/103
f 79/123/90 80/92/90 84/91/90
f 79/123/91 81/95/91 83/94/91
f 71/125/104 79/123/104 82/124/104
f 53/126/93 82/124/93 84/91/93
f 72/90/105 80/92/105 83/94/105
f 71/125/106 70/93/106 81/95/106
