# Blender v2.81 (sub 16) OBJ File: 'garbage.blend'
# www.blender.org
v 0.307541 2.659377 1.239249
v 0.296455 2.633327 1.234768
v 0.297980 2.604856 1.237718
v 0.311709 2.581594 1.247309
v 0.333962 2.569773 1.260972
v 0.330859 2.662726 1.224703
v 0.336843 2.639128 1.209573
v 0.344617 2.611555 1.208625
v 0.352097 2.587395 1.222114
v 0.357280 2.573123 1.246425
v 0.390160 2.630993 1.233410
v 0.391539 2.604229 1.243578
v 0.380052 2.582841 1.258817
v 0.353084 2.678814 1.264034
v 0.389066 2.643731 1.287287
v 0.390592 2.615261 1.290237
v 0.379505 2.589211 1.285756
v 0.329766 2.675465 1.278581
v 0.334949 2.661192 1.302891
v 0.342429 2.637033 1.316380
v 0.350203 2.609459 1.315433
v 0.356187 2.585861 1.300303
v 0.306994 2.665746 1.266188
v 0.295507 2.644359 1.281427
v 0.296886 2.617595 1.291596
v 0.310762 2.592626 1.293969
v 0.333415 2.576143 1.287910
v 0.353631 2.672445 1.237095
v 0.376285 2.655962 1.231037
v 0.375337 2.666993 1.277696
v 0.370220 2.696404 1.318179
v 0.366925 2.695930 1.320234
v 0.356312 2.690974 1.285314
v 0.380507 2.663686 1.310628
v 0.344769 2.689316 1.292514
v 0.362603 2.661114 1.321797
v 0.409335 2.689442 1.242602
v 0.409111 2.692053 1.253646
v 0.390767 2.690045 1.244773
v 0.406449 2.667759 1.249921
v 0.390664 2.691242 1.249834
v 0.406346 2.668959 1.254997
vt 0.274240 0.539347
vt 0.265397 0.539709
vt 0.266768 0.532487
vt 0.231414 0.551290
vt 0.214659 0.541092
vt 0.231357 0.542861
vt 0.231940 0.569242
vt 0.215985 0.562822
vt 0.231472 0.559719
vt 0.230890 0.533338
vt 0.220414 0.530957
vt 0.213134 0.552274
vt 0.289666 0.544440
vt 0.282983 0.540904
vt 0.290637 0.536818
vt 0.279682 0.529141
vt 0.275518 0.536619
vt 0.273707 0.532162
vt 0.280945 0.538772
vt 0.286431 0.530872
vt 0.290637 0.551375
vt 0.284312 0.543753
vt 0.278488 0.537315
vt 0.276318 0.541045
vt 0.804698 0.251197
vt 0.792375 0.255919
vt 0.792638 0.252041
vt 0.786357 0.239035
vt 0.792578 0.249274
vt 0.791489 0.249454
vt 0.271776 0.541127
vt 0.760733 0.199751
vt 0.757502 0.209505
vt 0.750621 0.206121
vt 0.278108 0.542645
vt 0.273009 0.544115
vt 0.772804 0.201934
vt 0.766718 0.213101
vt 0.766203 0.208706
vt 0.264007 0.548518
vt 0.277612 0.547903
vt 0.268747 0.555467
vt 0.275021 0.546378
vt 0.280714 0.548498
vt 0.281954 0.545638
vt 0.276612 0.557409
vt 0.240880 0.530957
vt 0.248168 0.561486
vt 0.249693 0.550306
vt 0.246843 0.539760
vt 0.242415 0.571620
vt 0.762287 0.211045
vt 0.762255 0.210544
vt 0.761023 0.221925
vt 0.757316 0.212491
vt 0.750922 0.216572
vt 0.772804 0.220841
vt 0.791613 0.252007
vt 0.791097 0.255536
vt 0.780068 0.250772
vt 0.780487 0.263708
vt 0.804698 0.264828
vt 0.798786 0.238814
vt 0.221949 0.571626
vt 0.283377 0.553479
vn 0.2755 -0.9342 0.2265
vn -0.3892 -0.5380 -0.7477
vn -0.5307 0.3580 -0.7683
vn -0.1700 -0.8652 -0.4717
vn -0.5137 -0.1156 -0.8501
vn 0.1958 0.5640 -0.8022
vn 0.5565 -0.6592 -0.5057
vn 0.4225 0.1498 -0.8939
vn -0.2755 0.9342 -0.2265
vn 0.5470 -0.2725 -0.7915
vn 0.9069 -0.4056 0.1143
vn 0.5915 -0.0237 0.8060
vn 0.9985 0.0543 0.0074
vn -0.3802 0.8983 -0.2202
vn 0.5307 -0.3580 0.7683
vn -0.7947 0.4341 0.4243
vn 0.5137 0.1156 0.8501
vn 0.4941 -0.5630 0.6625
vn -0.1959 -0.5640 0.8022
vn -0.5470 0.2725 0.7915
vn -0.4225 -0.1498 0.8939
vn -0.5565 0.6592 0.5057
vn -0.5462 -0.8176 0.1822
vn -0.9985 -0.0543 -0.0074
vn -0.8740 -0.4766 0.0950
vn -0.9069 0.4056 -0.1143
vn 0.5320 -0.0281 0.8463
vn -0.1910 0.9783 -0.0807
vn 0.6592 0.6455 -0.3856
vn -0.3780 0.8274 -0.4154
vn -0.5609 0.1065 0.8210
vn 0.8734 0.4788 -0.0890
vn 0.9921 -0.1160 0.0476
vn 0.0047 0.9732 -0.2300
vn 0.4706 0.1794 -0.8639
vn 0.8854 -0.4479 0.1239
vn -0.0017 0.7548 0.6559
vn -0.0931 0.4059 -0.9091
vn 0.1959 0.5640 -0.8022
vn 0.4667 0.5583 0.6859
vn -0.3802 0.8983 -0.2201
vn -0.7488 0.4433 0.4927
vn -0.1958 -0.5640 0.8022
vn -0.5471 0.2725 0.7915
vn -0.8740 -0.4766 0.0949
vn -0.1909 0.9783 -0.0809
vn 0.6197 0.6372 -0.4581
vn -0.5420 0.2755 0.7940
vn 0.9397 0.3220 -0.1152
vn 0.5901 -0.3276 -0.7379
vn 0.8855 -0.4479 0.1238
vn -0.1580 0.7863 0.5973
vn 0.0183 0.3670 -0.9300
s off
f 17/1/1 27/2/1 5/3/1
f 3/4/2 9/5/2 4/6/2
f 1/7/3 7/8/3 2/9/3
f 5/10/4 9/5/4 10/11/4
f 2/9/5 8/12/5 3/4/5
f 6/13/6 29/14/6 7/15/6
f 9/16/7 13/17/7 10/18/7
f 7/15/8 11/19/8 8/20/8
f 1/21/9 28/22/9 6/13/9
f 8/20/10 12/23/10 9/16/10
f 13/17/11 16/24/11 17/1/11
f 30/25/12 42/26/12 38/27/12
f 11/19/13 16/24/13 12/23/13
f 28/28/14 41/29/14 39/30/14
f 16/24/15 22/31/15 17/1/15
f 19/32/16 35/33/16 18/34/16
f 15/35/17 21/36/17 16/24/17
f 20/37/18 34/38/18 36/39/18
f 22/31/19 26/40/19 27/2/19
f 19/41/20 25/42/20 20/43/20
f 1/21/9 18/44/9 14/45/9
f 20/43/21 26/40/21 21/36/21
f 18/44/22 24/46/22 19/41/22
f 27/47/23 4/6/23 5/10/23
f 24/48/24 3/4/24 25/49/24
f 25/49/25 4/6/25 26/50/25
f 23/51/26 2/9/26 24/48/26
f 13/17/1 5/3/1 10/18/1
f 31/52/27 36/39/27 34/38/27
f 31/52/28 35/33/28 32/53/28
f 30/54/29 33/55/29 31/52/29
f 18/34/30 33/55/30 14/56/30
f 19/32/31 36/39/31 32/53/31
f 30/54/32 34/38/32 15/57/32
f 37/58/33 42/26/33 40/59/33
f 37/58/34 41/29/34 38/27/34
f 29/60/35 40/59/35 11/61/35
f 11/61/36 42/26/36 15/62/36
f 30/25/37 41/29/37 14/63/37
f 29/60/38 39/30/38 37/58/38
f 17/1/1 22/31/1 27/2/1
f 3/4/2 8/12/2 9/5/2
f 1/7/3 6/64/3 7/8/3
f 5/10/4 4/6/4 9/5/4
f 2/9/5 7/8/5 8/12/5
f 6/13/39 28/22/39 29/14/39
f 9/16/7 12/23/7 13/17/7
f 7/15/8 29/14/8 11/19/8
f 1/21/9 14/45/9 28/22/9
f 8/20/10 11/19/10 12/23/10
f 13/17/11 12/23/11 16/24/11
f 30/25/40 15/62/40 42/26/40
f 11/19/13 15/35/13 16/24/13
f 28/28/41 14/63/41 41/29/41
f 16/24/15 21/36/15 22/31/15
f 19/32/42 32/53/42 35/33/42
f 15/35/17 20/43/17 21/36/17
f 20/37/18 15/57/18 34/38/18
f 22/31/43 21/36/43 26/40/43
f 19/41/44 24/46/44 25/42/44
f 1/21/9 23/65/9 18/44/9
f 20/43/21 25/42/21 26/40/21
f 18/44/22 23/65/22 24/46/22
f 27/47/23 26/50/23 4/6/23
f 24/48/24 2/9/24 3/4/24
f 25/49/45 3/4/45 4/6/45
f 23/51/26 1/7/26 2/9/26
f 13/17/1 17/1/1 5/3/1
f 31/52/27 32/53/27 36/39/27
f 31/52/46 33/55/46 35/33/46
f 30/54/47 14/56/47 33/55/47
f 18/34/30 35/33/30 33/55/30
f 19/32/48 20/37/48 36/39/48
f 30/54/49 31/52/49 34/38/49
f 37/58/33 38/27/33 42/26/33
f 37/58/34 39/30/34 41/29/34
f 29/60/50 37/58/50 40/59/50
f 11/61/51 40/59/51 42/26/51
f 30/25/52 38/27/52 41/29/52
f 29/60/53 28/28/53 39/30/53
v 1.046127 1.740482 -1.394428
v 1.056387 1.714360 -1.388600
v 1.052033 1.686331 -1.384479
v 1.034230 1.663904 -1.383171
v 1.007750 1.653089 -1.385025
v 1.030327 1.749659 -1.373626
v 1.029021 1.730254 -1.352570
v 1.020432 1.704684 -1.342876
v 1.006863 1.679798 -1.347141
v 0.991950 1.662266 -1.364223
v 0.970244 1.725594 -1.353370
v 0.963399 1.697907 -1.356230
v 0.966855 1.672721 -1.369471
v 0.995939 1.761393 -1.404922
v 0.951656 1.728151 -1.405468
v 0.947301 1.700122 -1.401348
v 0.957561 1.674000 -1.395519
v 1.011739 1.752216 -1.425724
v 0.996825 1.734684 -1.442806
v 0.983256 1.709798 -1.447072
v 0.974668 1.684227 -1.437377
v 0.973361 1.664823 -1.416321
v 1.036833 1.741761 -1.420477
v 1.040289 1.716575 -1.433718
v 1.033444 1.688888 -1.436577
v 1.018132 1.666119 -1.428289
v 0.998456 1.654368 -1.411074
v 1.005233 1.760114 -1.378873
v 0.985556 1.748363 -1.361659
v 0.969458 1.750578 -1.406777
v 0.960731 1.771204 -1.451814
v 0.962964 1.769907 -1.454754
v 0.985677 1.769859 -1.425757
v 0.951995 1.742168 -1.434098
v 0.993498 1.765317 -1.436054
v 0.964126 1.735122 -1.450069
v 0.952812 1.783553 -1.367701
v 0.949002 1.784077 -1.378380
v 0.969171 1.781122 -1.376439
v 0.951310 1.760721 -1.370614
v 0.967424 1.781362 -1.381333
v 0.949559 1.760962 -1.375522
vt 0.274240 0.539347
vt 0.265397 0.539709
vt 0.266768 0.532487
vt 0.231414 0.551290
vt 0.214659 0.541092
vt 0.231357 0.542861
vt 0.231940 0.569242
vt 0.215985 0.562822
vt 0.231472 0.559719
vt 0.230890 0.533338
vt 0.220414 0.530957
vt 0.213134 0.552274
vt 0.289666 0.544440
vt 0.282983 0.540904
vt 0.290637 0.536818
vt 0.279682 0.529141
vt 0.275518 0.536619
vt 0.273707 0.532162
vt 0.280945 0.538772
vt 0.286431 0.530872
vt 0.290637 0.551375
vt 0.284312 0.543753
vt 0.278488 0.537315
vt 0.276318 0.541045
vt 0.804698 0.251197
vt 0.792375 0.255919
vt 0.792638 0.252041
vt 0.786357 0.239035
vt 0.792578 0.249274
vt 0.791489 0.249454
vt 0.271776 0.541127
vt 0.760733 0.199751
vt 0.757502 0.209505
vt 0.750621 0.206121
vt 0.278108 0.542645
vt 0.273009 0.544115
vt 0.772804 0.201934
vt 0.766718 0.213101
vt 0.766203 0.208706
vt 0.264007 0.548518
vt 0.277612 0.547903
vt 0.268747 0.555467
vt 0.275021 0.546378
vt 0.280714 0.548498
vt 0.281954 0.545638
vt 0.276612 0.557409
vt 0.240880 0.530957
vt 0.248168 0.561486
vt 0.249693 0.550306
vt 0.246843 0.539760
vt 0.242415 0.571620
vt 0.762287 0.211045
vt 0.762255 0.210544
vt 0.761023 0.221925
vt 0.757316 0.212491
vt 0.750922 0.216572
vt 0.772804 0.220841
vt 0.791613 0.252007
vt 0.791097 0.255536
vt 0.780068 0.250772
vt 0.780487 0.263708
vt 0.804698 0.264828
vt 0.798786 0.238814
vt 0.221949 0.571626
vt 0.283377 0.553479
vn -0.4001 -0.9112 0.0980
vn 0.6081 -0.4443 0.6579
vn 0.8040 0.4116 0.4291
vn 0.2801 -0.7815 0.5575
vn 0.7890 -0.0324 0.6136
vn 0.1594 0.7210 0.6743
vn -0.3645 -0.4720 0.8027
vn -0.0417 0.3664 0.9295
vn 0.4001 0.9112 -0.0980
vn -0.2226 -0.0455 0.9738
vn -0.9066 -0.2871 0.3094
vn -0.8530 -0.0842 -0.5151
vn -0.9211 0.1928 0.3381
vn 0.4921 0.8602 -0.1334
vn -0.8040 -0.4116 -0.4292
vn 0.6008 0.2338 -0.7645
vn -0.7890 0.0324 -0.6136
vn -0.7434 -0.5972 -0.3012
vn -0.1594 -0.7210 -0.6743
vn 0.2226 0.0455 -0.9738
vn 0.4001 0.9112 -0.0981
vn 0.0417 -0.3664 -0.9295
vn 0.3645 0.4720 -0.8027
vn 0.3827 -0.9060 -0.1810
vn 0.9211 -0.1928 -0.3381
vn 0.7402 -0.6048 -0.2938
vn 0.9066 0.2871 -0.3094
vn -0.8136 -0.1042 -0.5720
vn 0.2697 0.9398 -0.2097
vn -0.4210 0.7910 0.4438
vn 0.5595 0.8266 0.0603
vn 0.2136 -0.1234 -0.9691
vn -0.7419 0.6057 0.2877
vn -0.9414 0.0189 0.3368
vn 0.1453 0.9894 -0.0033
vn -0.0956 0.3966 0.9130
vn -0.8931 -0.3330 0.3023
vn -0.1985 0.6166 -0.7619
vn 0.4565 0.5455 0.7029
vn -0.4001 -0.9112 0.0981
vn 0.8040 0.4115 0.4292
vn -0.6550 0.4861 -0.5785
vn -0.8040 -0.4115 -0.4292
vn 0.5331 0.2369 -0.8122
vn -0.3576 0.7904 0.4973
vn 0.2172 0.0487 -0.9749
vn -0.8032 0.4672 0.3696
vn -0.9414 0.0190 0.3368
vn -0.2862 -0.1027 0.9527
vn -0.8932 -0.3330 0.3023
vn -0.0300 0.6356 -0.7714
vn 0.3591 0.5271 0.7702
s off
f 59/66/54 69/67/54 47/68/54
f 45/69/55 51/70/55 46/71/55
f 43/72/56 49/73/56 44/74/56
f 47/75/57 51/70/57 52/76/57
f 44/74/58 50/77/58 45/69/58
f 48/78/59 71/79/59 49/80/59
f 51/81/60 55/82/60 52/83/60
f 49/80/61 53/84/61 50/85/61
f 43/86/62 70/87/62 48/78/62
f 50/85/63 54/88/63 51/81/63
f 55/82/64 58/89/64 59/66/64
f 72/90/65 84/91/65 80/92/65
f 53/84/66 58/89/66 54/88/66
f 70/93/67 83/94/67 81/95/67
f 58/89/68 64/96/68 59/66/68
f 61/97/69 77/98/69 60/99/69
f 57/100/70 63/101/70 58/89/70
f 62/102/71 76/103/71 78/104/71
f 64/96/72 68/105/72 69/67/72
f 61/106/73 67/107/73 62/108/73
f 43/86/74 60/109/74 56/110/74
f 62/108/75 68/105/75 63/101/75
f 60/109/76 66/111/76 61/106/76
f 69/112/77 46/71/77 47/75/77
f 66/113/78 45/69/78 67/114/78
f 67/114/79 46/71/79 68/115/79
f 65/116/80 44/74/80 66/113/80
f 55/82/54 47/68/54 52/83/54
f 73/117/81 78/104/81 76/103/81
f 73/117/82 77/98/82 74/118/82
f 72/119/83 75/120/83 73/117/83
f 60/99/84 75/120/84 56/121/84
f 61/97/85 78/104/85 74/118/85
f 72/119/86 76/103/86 57/122/86
f 79/123/87 84/91/87 82/124/87
f 79/123/88 83/94/88 80/92/88
f 71/125/89 82/124/89 53/126/89
f 53/126/90 84/91/90 57/127/90
f 72/90/91 83/94/91 56/128/91
f 71/125/92 81/95/92 79/123/92
f 59/66/93 64/96/93 69/67/93
f 45/69/55 50/77/55 51/70/55
f 43/72/94 48/129/94 49/73/94
f 47/75/57 46/71/57 51/70/57
f 44/74/58 49/73/58 50/77/58
f 48/78/59 70/87/59 71/79/59
f 51/81/60 54/88/60 55/82/60
f 49/80/61 71/79/61 53/84/61
f 43/86/62 56/110/62 70/87/62
f 50/85/63 53/84/63 54/88/63
f 55/82/64 54/88/64 58/89/64
f 72/90/95 57/127/95 84/91/95
f 53/84/66 57/100/66 58/89/66
f 70/93/67 56/128/67 83/94/67
f 58/89/96 63/101/96 64/96/96
f 61/97/97 74/118/97 77/98/97
f 57/100/70 62/108/70 63/101/70
f 62/102/71 57/122/71 76/103/71
f 64/96/72 63/101/72 68/105/72
f 61/106/73 66/111/73 67/107/73
f 43/86/62 65/130/62 60/109/62
f 62/108/75 67/107/75 68/105/75
f 60/109/76 65/130/76 66/111/76
f 69/112/77 68/115/77 46/71/77
f 66/113/78 44/74/78 45/69/78
f 67/114/79 45/69/79 46/71/79
f 65/116/80 43/72/80 44/74/80
f 55/82/54 59/66/54 47/68/54
f 73/117/81 74/118/81 78/104/81
f 73/117/82 75/120/82 77/98/82
f 72/119/98 56/121/98 75/120/98
f 60/99/84 77/98/84 75/120/84
f 61/97/99 62/102/99 78/104/99
f 72/119/100 73/117/100 76/103/100
f 79/123/101 80/92/101 84/91/101
f 79/123/88 81/95/88 83/94/88
f 71/125/102 79/123/102 82/124/102
f 53/126/103 82/124/103 84/91/103
f 72/90/104 80/92/104 83/94/104
f 71/125/105 70/93/105 81/95/105
