# Blender v2.81 (sub 16) OBJ File: 'garbage.blend'
# www.blender.org
v 0.113208 2.570913 1.105259
v 0.103703 2.544879 1.097943
v 0.105616 2.516338 1.099765
v 0.118435 2.492936 1.110234
v 0.138725 2.480944 1.126548
v 0.138337 2.575515 1.094587
v 0.147228 2.552850 1.079458
v 0.155875 2.525542 1.078420
v 0.161961 2.500907 1.091749
v 0.163854 2.485546 1.115875
v 0.196575 2.544723 1.110697
v 0.197208 2.517518 1.119702
v 0.184204 2.495136 1.132014
v 0.153908 2.590094 1.137537
v 0.187016 2.554700 1.164320
v 0.188930 2.526158 1.166141
v 0.179425 2.500125 1.158825
v 0.128778 2.585492 1.148209
v 0.130672 2.570131 1.172335
v 0.136758 2.545496 1.185664
v 0.145405 2.518188 1.184626
v 0.154296 2.495523 1.169497
v 0.108428 2.575901 1.132070
v 0.095425 2.553520 1.144382
v 0.096058 2.526315 1.153387
v 0.110157 2.501576 1.156673
v 0.133946 2.485932 1.153359
v 0.158687 2.585105 1.110725
v 0.182475 2.569462 1.107412
v 0.174197 2.578102 1.153850
v 0.162178 2.605310 1.194411
v 0.158627 2.604660 1.195919
v 0.153536 2.601234 1.159601
v 0.174455 2.573254 1.186995
v 0.141097 2.598956 1.164884
v 0.155160 2.569721 1.195189
v 0.212398 2.603050 1.125396
v 0.210439 2.605095 1.136388
v 0.193705 2.603126 1.124752
v 0.209093 2.580966 1.131178
v 0.192807 2.604063 1.129790
v 0.208193 2.581907 1.136230
vt 0.274240 0.539347
vt 0.265397 0.539709
vt 0.266768 0.532487
vt 0.231414 0.551290
vt 0.214659 0.541092
vt 0.231357 0.542861
vt 0.231940 0.569242
vt 0.215985 0.562822
vt 0.231472 0.559719
vt 0.230890 0.533338
vt 0.220414 0.530957
vt 0.213134 0.552274
vt 0.289666 0.544440
vt 0.282983 0.540904
vt 0.290637 0.536818
vt 0.279682 0.529141
vt 0.275518 0.536619
vt 0.273707 0.532162
vt 0.280945 0.538772
vt 0.286431 0.530872
vt 0.290637 0.551375
vt 0.284312 0.543753
vt 0.278488 0.537315
vt 0.276318 0.541045
vt 0.804698 0.251197
vt 0.792375 0.255919
vt 0.792638 0.252041
vt 0.786357 0.239035
vt 0.792578 0.249274
vt 0.791489 0.249454
vt 0.271776 0.541127
vt 0.760733 0.199751
vt 0.757502 0.209505
vt 0.750621 0.206121
vt 0.278108 0.542645
vt 0.273009 0.544115
vt 0.772804 0.201934
vt 0.766718 0.213101
vt 0.766203 0.208706
vt 0.264007 0.548518
vt 0.277612 0.547903
vt 0.268747 0.555467
vt 0.275021 0.546378
vt 0.280714 0.548498
vt 0.281954 0.545638
vt 0.276612 0.557409
vt 0.240880 0.530957
vt 0.248168 0.561486
vt 0.249693 0.550306
vt 0.246843 0.539760
vt 0.242415 0.571620
vt 0.762287 0.211045
vt 0.762255 0.210544
vt 0.761023 0.221925
vt 0.757316 0.212491
vt 0.750922 0.216572
vt 0.772804 0.220841
vt 0.791613 0.252007
vt 0.791097 0.255536
vt 0.780068 0.250772
vt 0.780487 0.263708
vt 0.804698 0.264828
vt 0.798786 0.238814
vt 0.221949 0.571626
vt 0.283377 0.553479
vn 0.2661 -0.9381 0.2220
vn -0.2562 -0.5082 -0.8223
vn -0.4196 0.3843 -0.8223
vn -0.0713 -0.8439 -0.5317
vn -0.3764 -0.0841 -0.9226
vn 0.2973 0.6080 -0.7362
vn 0.6456 -0.6202 -0.4456
vn 0.5474 0.2042 -0.8116
vn -0.2660 0.9381 -0.2220
vn 0.6677 -0.2199 -0.7112
vn 0.8911 -0.3904 0.2315
vn 0.4641 -0.0510 0.8843
vn 0.9840 0.0763 0.1612
vn -0.3695 0.8995 -0.2333
vn 0.4196 -0.3843 0.8223
vn -0.8621 0.3941 0.3186
vn 0.3764 0.0841 0.9226
vn 0.4055 -0.5844 0.7029
vn -0.2973 -0.6080 0.7362
vn -0.6677 0.2199 0.7112
vn -0.2661 0.9381 -0.2220
vn -0.5474 -0.2042 0.8116
vn -0.6456 0.6202 0.4456
vn -0.5427 -0.8378 0.0591
vn -0.9840 -0.0763 -0.1612
vn -0.8637 -0.5003 -0.0609
vn -0.8911 0.3904 -0.2315
vn 0.3993 -0.0587 0.9149
vn -0.2057 0.9766 -0.0633
vn 0.6901 0.6788 -0.2508
vn -0.3358 0.8386 -0.4290
vn -0.6809 0.0523 0.7305
vn 0.8622 0.5022 0.0668
vn 0.9767 -0.0959 0.1919
vn 0.0102 0.9834 -0.1812
vn 0.5896 0.2333 -0.7733
vn 0.8697 -0.4336 0.2357
vn -0.1228 0.7205 0.6824
vn 0.0325 0.4491 -0.8929
vn 0.3415 0.5333 0.7739
vn -0.3695 0.8995 -0.2332
vn -0.8273 0.4009 0.3936
vn -0.5427 -0.8378 0.0592
vn 0.2661 -0.9381 0.2219
vn 0.3993 -0.0588 0.9149
vn 0.6623 0.6733 -0.3288
vn -0.6631 0.2228 0.7146
vn 0.9363 0.3485 0.0437
vn 0.9767 -0.0959 0.1920
vn 0.7038 -0.2766 -0.6543
vn -0.2694 0.7514 0.6024
vn 0.1470 0.4138 -0.8984
s off
f 17/1/1 27/2/1 5/3/1
f 3/4/2 9/5/2 4/6/2
f 1/7/3 7/8/3 2/9/3
f 5/10/4 9/5/4 10/11/4
f 2/9/5 8/12/5 3/4/5
f 6/13/6 29/14/6 7/15/6
f 9/16/7 13/17/7 10/18/7
f 7/15/8 11/19/8 8/20/8
f 1/21/9 28/22/9 6/13/9
f 8/20/10 12/23/10 9/16/10
f 13/17/11 16/24/11 17/1/11
f 30/25/12 42/26/12 38/27/12
f 11/19/13 16/24/13 12/23/13
f 28/28/14 41/29/14 39/30/14
f 16/24/15 22/31/15 17/1/15
f 19/32/16 35/33/16 18/34/16
f 15/35/17 21/36/17 16/24/17
f 20/37/18 34/38/18 36/39/18
f 22/31/19 26/40/19 27/2/19
f 19/41/20 25/42/20 20/43/20
f 1/21/21 18/44/21 14/45/21
f 20/43/22 26/40/22 21/36/22
f 18/44/23 24/46/23 19/41/23
f 27/47/24 4/6/24 5/10/24
f 24/48/25 3/4/25 25/49/25
f 25/49/26 4/6/26 26/50/26
f 23/51/27 2/9/27 24/48/27
f 13/17/1 5/3/1 10/18/1
f 31/52/28 36/39/28 34/38/28
f 31/52/29 35/33/29 32/53/29
f 30/54/30 33/55/30 31/52/30
f 18/34/31 33/55/31 14/56/31
f 19/32/32 36/39/32 32/53/32
f 30/54/33 34/38/33 15/57/33
f 37/58/34 42/26/34 40/59/34
f 37/58/35 41/29/35 38/27/35
f 29/60/36 40/59/36 11/61/36
f 11/61/37 42/26/37 15/62/37
f 30/25/38 41/29/38 14/63/38
f 29/60/39 39/30/39 37/58/39
f 17/1/1 22/31/1 27/2/1
f 3/4/2 8/12/2 9/5/2
f 1/7/3 6/64/3 7/8/3
f 5/10/4 4/6/4 9/5/4
f 2/9/5 7/8/5 8/12/5
f 6/13/6 28/22/6 29/14/6
f 9/16/7 12/23/7 13/17/7
f 7/15/8 29/14/8 11/19/8
f 1/21/21 14/45/21 28/22/21
f 8/20/10 11/19/10 12/23/10
f 13/17/11 12/23/11 16/24/11
f 30/25/40 15/62/40 42/26/40
f 11/19/13 15/35/13 16/24/13
f 28/28/41 14/63/41 41/29/41
f 16/24/15 21/36/15 22/31/15
f 19/32/42 32/53/42 35/33/42
f 15/35/17 20/43/17 21/36/17
f 20/37/18 15/57/18 34/38/18
f 22/31/19 21/36/19 26/40/19
f 19/41/20 24/46/20 25/42/20
f 1/21/21 23/65/21 18/44/21
f 20/43/22 25/42/22 26/40/22
f 18/44/23 23/65/23 24/46/23
f 27/47/43 26/50/43 4/6/43
f 24/48/25 2/9/25 3/4/25
f 25/49/26 3/4/26 4/6/26
f 23/51/27 1/7/27 2/9/27
f 13/17/44 17/1/44 5/3/44
f 31/52/45 32/53/45 36/39/45
f 31/52/29 33/55/29 35/33/29
f 30/54/46 14/56/46 33/55/46
f 18/34/31 35/33/31 33/55/31
f 19/32/47 20/37/47 36/39/47
f 30/54/48 31/52/48 34/38/48
f 37/58/49 38/27/49 42/26/49
f 37/58/35 39/30/35 41/29/35
f 29/60/50 37/58/50 40/59/50
f 11/61/37 40/59/37 42/26/37
f 30/25/51 38/27/51 41/29/51
f 29/60/52 28/28/52 39/30/52
v 1.141612 1.551619 -1.423031
v 1.152885 1.527450 -1.412526
v 1.150397 1.499609 -1.406179
v 1.134815 1.475556 -1.405691
v 1.110313 1.461736 -1.411193
v 1.121276 1.560855 -1.406669
v 1.117663 1.543447 -1.384185
v 1.109726 1.518081 -1.373454
v 1.099592 1.491553 -1.377351
v 1.089977 1.470972 -1.394831
v 1.060856 1.532218 -1.395321
v 1.057270 1.503796 -1.396288
v 1.065543 1.478040 -1.405764
v 1.092742 1.565756 -1.444898
v 1.052658 1.527883 -1.449913
v 1.050170 1.500042 -1.443566
v 1.061443 1.475873 -1.433060
v 1.113078 1.556520 -1.461260
v 1.103462 1.535939 -1.478741
v 1.093329 1.509411 -1.482637
v 1.085392 1.484045 -1.471906
v 1.081779 1.466637 -1.449422
v 1.137512 1.549451 -1.450327
v 1.145785 1.523695 -1.459803
v 1.142198 1.495274 -1.460770
v 1.127714 1.471801 -1.452969
v 1.106214 1.459568 -1.438489
v 1.096841 1.567924 -1.417602
v 1.075341 1.555690 -1.403123
v 1.068240 1.551936 -1.450400
v 1.066634 1.567228 -1.498291
v 1.069507 1.565922 -1.500604
v 1.086019 1.571074 -1.468084
v 1.057301 1.539155 -1.479368
v 1.096085 1.566502 -1.476184
v 1.072915 1.532063 -1.491931
v 1.041324 1.586309 -1.419010
v 1.039644 1.585421 -1.430200
v 1.059228 1.584920 -1.424243
v 1.042521 1.563281 -1.419582
v 1.058458 1.584513 -1.429371
v 1.041748 1.562873 -1.424726
vt 0.274240 0.539347
vt 0.265397 0.539709
vt 0.266768 0.532487
vt 0.231414 0.551290
vt 0.214659 0.541092
vt 0.231357 0.542861
vt 0.231940 0.569242
vt 0.215985 0.562822
vt 0.231472 0.559719
vt 0.230890 0.533338
vt 0.220414 0.530957
vt 0.213134 0.552274
vt 0.289666 0.544440
vt 0.282983 0.540904
vt 0.290637 0.536818
vt 0.279682 0.529141
vt 0.275518 0.536619
vt 0.273707 0.532162
vt 0.280945 0.538772
vt 0.286431 0.530872
vt 0.290637 0.551375
vt 0.284312 0.543753
vt 0.278488 0.537315
vt 0.276318 0.541045
vt 0.804698 0.251197
vt 0.792375 0.255919
vt 0.792638 0.252041
vt 0.786357 0.239035
vt 0.792578 0.249274
vt 0.791489 0.249454
vt 0.271776 0.541127
vt 0.760733 0.199751
vt 0.757502 0.209505
vt 0.750621 0.206121
vt 0.278108 0.542645
vt 0.273009 0.544115
vt 0.772804 0.201934
vt 0.766718 0.213101
vt 0.766203 0.208706
vt 0.264007 0.548518
vt 0.277612 0.547903
vt 0.268747 0.555467
vt 0.275021 0.546378
vt 0.280714 0.548498
vt 0.281954 0.545638
vt 0.276612 0.557409
vt 0.240880 0.530957
vt 0.248168 0.561486
vt 0.249693 0.550306
vt 0.246843 0.539760
vt 0.242415 0.571620
vt 0.762287 0.211045
vt 0.762255 0.210544
vt 0.761023 0.221925
vt 0.757316 0.212491
vt 0.750922 0.216572
vt 0.772804 0.220841
vt 0.791613 0.252007
vt 0.791097 0.255536
vt 0.780068 0.250772
vt 0.780487 0.263708
vt 0.804698 0.264828
vt 0.798786 0.238814
vt 0.221949 0.571626
vt 0.283377 0.553479
vn -0.3263 -0.9372 0.1234
vn 0.5058 -0.3114 0.8045
vn 0.6634 0.5363 0.5218
vn 0.2361 -0.6908 0.6834
vn 0.6534 0.1123 0.7487
vn -0.0423 0.7933 0.6074
vn -0.4696 -0.4338 0.7690
vn -0.2560 0.4435 0.8589
vn 0.3263 0.9372 -0.1234
vn -0.4036 0.0198 0.9147
vn -0.9194 -0.3565 0.1664
vn -0.7244 -0.2258 -0.6513
vn -0.9832 0.1194 0.1382
vn 0.4278 0.8937 -0.1352
vn -0.6634 -0.5363 -0.5218
vn 0.7147 0.2278 -0.6613
vn -0.6534 -0.1123 -0.7487
vn -0.6122 -0.7014 -0.3649
vn 0.0423 -0.7933 -0.6074
vn 0.4036 -0.0198 -0.9147
vn 0.2560 -0.4435 -0.8589
vn 0.4696 0.4338 -0.7690
vn 0.4921 -0.8705 -0.0048
vn 0.9832 -0.1194 -0.1382
vn 0.8357 -0.5430 -0.0824
vn 0.9194 0.3565 -0.1664
vn -0.6730 -0.2464 -0.6974
vn 0.2182 0.9407 -0.2598
vn -0.5704 0.7767 0.2671
vn 0.4588 0.8858 0.0701
vn 0.4093 -0.1875 -0.8929
vn -0.8361 0.5432 0.0761
vn -0.9868 -0.0551 0.1526
vn 0.0518 0.9949 -0.0868
vn -0.3082 0.4659 0.8294
vn -0.9007 -0.4011 0.1671
vn -0.1014 0.5179 -0.8494
vn 0.2583 0.6553 0.7098
vn 0.5059 -0.3114 0.8045
vn 0.2362 -0.6908 0.6834
vn -0.5710 0.3549 -0.7403
vn 0.4277 0.8937 -0.1352
vn 0.6576 0.2190 -0.7209
vn -0.5189 0.7881 0.3312
vn 0.4587 0.8858 0.0701
vn 0.3982 -0.0174 -0.9171
vn -0.8993 0.4069 0.1601
vn -0.4563 -0.0458 0.8887
vn 0.0633 0.5546 -0.8297
vn 0.1517 0.6325 0.7596
s off
f 59/66/53 69/67/53 47/68/53
f 45/69/54 51/70/54 46/71/54
f 43/72/55 49/73/55 44/74/55
f 47/75/56 51/70/56 52/76/56
f 44/74/57 50/77/57 45/69/57
f 48/78/58 71/79/58 49/80/58
f 51/81/59 55/82/59 52/83/59
f 49/80/60 53/84/60 50/85/60
f 43/86/61 70/87/61 48/78/61
f 50/85/62 54/88/62 51/81/62
f 55/82/63 58/89/63 59/66/63
f 72/90/64 84/91/64 80/92/64
f 53/84/65 58/89/65 54/88/65
f 70/93/66 83/94/66 81/95/66
f 58/89/67 64/96/67 59/66/67
f 61/97/68 77/98/68 60/99/68
f 57/100/69 63/101/69 58/89/69
f 62/102/70 76/103/70 78/104/70
f 64/96/71 68/105/71 69/67/71
f 61/106/72 67/107/72 62/108/72
f 43/86/61 60/109/61 56/110/61
f 62/108/73 68/105/73 63/101/73
f 60/109/74 66/111/74 61/106/74
f 69/112/75 46/71/75 47/75/75
f 66/113/76 45/69/76 67/114/76
f 67/114/77 46/71/77 68/115/77
f 65/116/78 44/74/78 66/113/78
f 55/82/53 47/68/53 52/83/53
f 73/117/79 78/104/79 76/103/79
f 73/117/80 77/98/80 74/118/80
f 72/119/81 75/120/81 73/117/81
f 60/99/82 75/120/82 56/121/82
f 61/97/83 78/104/83 74/118/83
f 72/119/84 76/103/84 57/122/84
f 79/123/85 84/91/85 82/124/85
f 79/123/86 83/94/86 80/92/86
f 71/125/87 82/124/87 53/126/87
f 53/126/88 84/91/88 57/127/88
f 72/90/89 83/94/89 56/128/89
f 71/125/90 81/95/90 79/123/90
f 59/66/53 64/96/53 69/67/53
f 45/69/91 50/77/91 51/70/91
f 43/72/55 48/129/55 49/73/55
f 47/75/92 46/71/92 51/70/92
f 44/74/57 49/73/57 50/77/57
f 48/78/58 70/87/58 71/79/58
f 51/81/59 54/88/59 55/82/59
f 49/80/60 71/79/60 53/84/60
f 43/86/61 56/110/61 70/87/61
f 50/85/62 53/84/62 54/88/62
f 55/82/63 54/88/63 58/89/63
f 72/90/93 57/127/93 84/91/93
f 53/84/65 57/100/65 58/89/65
f 70/93/94 56/128/94 83/94/94
f 58/89/67 63/101/67 64/96/67
f 61/97/95 74/118/95 77/98/95
f 57/100/69 62/108/69 63/101/69
f 62/102/70 57/122/70 76/103/70
f 64/96/71 63/101/71 68/105/71
f 61/106/72 66/111/72 67/107/72
f 43/86/61 65/130/61 60/109/61
f 62/108/73 67/107/73 68/105/73
f 60/109/74 65/130/74 66/111/74
f 69/112/75 68/115/75 46/71/75
f 66/113/76 44/74/76 45/69/76
f 67/114/77 45/69/77 46/71/77
f 65/116/78 43/72/78 44/74/78
f 55/82/53 59/66/53 47/68/53
f 73/117/79 74/118/79 78/104/79
f 73/117/80 75/120/80 77/98/80
f 72/119/96 56/121/96 75/120/96
f 60/99/97 77/98/97 75/120/97
f 61/97/98 62/102/98 78/104/98
f 72/119/99 73/117/99 76/103/99
f 79/123/85 80/92/85 84/91/85
f 79/123/86 81/95/86 83/94/86
f 71/125/100 79/123/100 82/124/100
f 53/126/88 82/124/88 84/91/88
f 72/90/101 80/92/101 83/94/101
f 71/125/102 70/93/102 81/95/102
