# Blender v2.81 (sub 16) OBJ File: 'garbage.blend'
# www.blender.org
v 1.989343 2.518809 0.860990
v 1.974870 2.503434 0.880373
v 1.966505 2.478031 0.890685
v 1.966489 2.449408 0.889163
v 1.974826 2.425234 0.876213
v 1.977648 2.516557 0.835996
v 1.954612 2.499534 0.837083
v 1.943113 2.473528 0.840697
v 1.946231 2.445508 0.845872
v 1.963131 2.422982 0.851219
v 1.974274 2.461509 0.796529
v 1.973217 2.435099 0.807621
v 1.978711 2.416973 0.829135
v 2.020504 2.506790 0.816822
v 2.028825 2.453993 0.802349
v 2.020460 2.428590 0.812661
v 2.005987 2.413215 0.832045
v 2.032199 2.509042 0.841816
v 2.049099 2.486516 0.847163
v 2.052217 2.458496 0.852337
v 2.040717 2.432490 0.855952
v 2.017682 2.415467 0.857039
v 2.016619 2.515051 0.863900
v 2.022113 2.496925 0.885414
v 2.021056 2.470515 0.896505
v 2.013732 2.442899 0.894203
v 2.002102 2.421476 0.879123
v 1.993228 2.510548 0.813912
v 1.981598 2.489125 0.798832
v 2.028841 2.482616 0.803872
v 2.077498 2.495354 0.804350
v 2.079151 2.495673 0.807882
v 2.044891 2.508182 0.813029
v 2.057955 2.466257 0.806509
v 2.050680 2.509296 0.825401
v 2.066935 2.467985 0.825700
v 2.005858 2.498765 0.758021
v 2.017040 2.497224 0.759214
v 2.007782 2.506533 0.774927
v 2.004089 2.479414 0.770450
v 2.012906 2.505827 0.775474
v 2.009229 2.478706 0.770998
vt 0.274240 0.539347
vt 0.265397 0.539709
vt 0.266768 0.532487
vt 0.231414 0.551290
vt 0.214659 0.541092
vt 0.231357 0.542861
vt 0.231940 0.569242
vt 0.215985 0.562822
vt 0.231472 0.559719
vt 0.230890 0.533338
vt 0.220414 0.530957
vt 0.213134 0.552274
vt 0.289666 0.544440
vt 0.282983 0.540904
vt 0.290637 0.536818
vt 0.279682 0.529141
vt 0.275518 0.536619
vt 0.273707 0.532162
vt 0.280945 0.538772
vt 0.286431 0.530872
vt 0.290637 0.551375
vt 0.284312 0.543753
vt 0.278488 0.537315
vt 0.276318 0.541045
vt 0.804698 0.251197
vt 0.792375 0.255919
vt 0.792638 0.252041
vt 0.786357 0.239035
vt 0.792578 0.249274
vt 0.791489 0.249454
vt 0.271776 0.541127
vt 0.760733 0.199751
vt 0.757502 0.209505
vt 0.750621 0.206121
vt 0.278108 0.542645
vt 0.273009 0.544115
vt 0.772804 0.201934
vt 0.766718 0.213101
vt 0.766203 0.208706
vt 0.264007 0.548518
vt 0.277612 0.547903
vt 0.268747 0.555467
vt 0.275021 0.546378
vt 0.280714 0.548498
vt 0.281954 0.545638
vt 0.276612 0.557409
vt 0.240880 0.530957
vt 0.248168 0.561486
vt 0.249693 0.550306
vt 0.246843 0.539760
vt 0.242415 0.571620
vt 0.762287 0.211045
vt 0.762255 0.210544
vt 0.761023 0.221925
vt 0.757316 0.212491
vt 0.750922 0.216572
vt 0.772804 0.220841
vt 0.791613 0.252007
vt 0.791097 0.255536
vt 0.780068 0.250772
vt 0.780487 0.263708
vt 0.804698 0.264828
vt 0.798786 0.238814
vt 0.221949 0.571626
vt 0.283377 0.553479
vn -0.1514 -0.9757 0.1587
vn -0.9048 -0.0221 0.4254
vn -0.5765 0.7927 0.1983
vn -0.7746 -0.4847 0.4062
vn -0.8363 0.4190 0.3536
vn -0.5152 0.6625 -0.5438
vn -0.7134 -0.6150 -0.3360
vn -0.7574 0.2511 -0.6027
vn 0.1514 0.9757 -0.1587
vn -0.8258 -0.1899 -0.5309
vn -0.0379 -0.7689 -0.6382
vn 0.7426 -0.5533 -0.3772
vn 0.0447 -0.3884 -0.9204
vn 0.1415 0.9887 -0.0490
vn 0.5765 -0.7927 -0.1983
vn 0.5467 0.5583 0.6241
vn 0.8363 -0.4190 -0.3536
vn 0.3985 -0.9112 -0.1044
vn 0.5152 -0.6625 0.5438
vn 0.8258 0.1899 0.5309
vn 0.7574 -0.2512 0.6027
vn 0.7134 0.6150 0.3360
vn -0.1603 -0.5085 0.8460
vn -0.0447 0.3884 0.9204
vn -0.1131 -0.0527 0.9922
vn 0.0379 0.7689 0.6382
vn 0.7771 -0.5452 -0.3145
vn 0.3040 0.9256 -0.2256
vn -0.0922 0.3865 -0.9177
vn -0.0660 0.9961 -0.0589
vn 0.7880 0.0474 0.6139
vn 0.1194 0.0527 -0.9914
vn 0.0151 -0.5413 -0.8407
vn 0.1680 0.8884 -0.4273
vn -0.7174 0.2447 -0.6522
vn -0.0459 -0.7983 -0.6006
vn 0.8983 0.4033 -0.1744
vn -0.6802 0.6924 -0.2408
vn -0.1513 -0.9757 0.1587
vn 0.8571 0.0269 -0.5145
vn 0.6140 0.5225 0.5916
vn 0.8363 -0.4189 -0.3536
vn 0.8259 0.1899 0.5309
vn 0.7574 -0.2511 0.6027
vn 0.7770 -0.5452 -0.3145
vn -0.1628 0.4217 -0.8920
vn -0.0660 0.9961 -0.0588
vn 0.8293 0.1893 0.5257
vn 0.0353 -0.0975 -0.9946
vn -0.7973 -0.2729 -0.5384
vn -0.0459 -0.7983 -0.6005
vn 0.8540 0.5172 -0.0565
vn -0.7127 0.6191 -0.3298
s off
f 17/1/1 27/2/1 5/3/1
f 3/4/2 9/5/2 4/6/2
f 1/7/3 7/8/3 2/9/3
f 5/10/4 9/5/4 10/11/4
f 2/9/5 8/12/5 3/4/5
f 6/13/6 29/14/6 7/15/6
f 9/16/7 13/17/7 10/18/7
f 7/15/8 11/19/8 8/20/8
f 1/21/9 28/22/9 6/13/9
f 8/20/10 12/23/10 9/16/10
f 13/17/11 16/24/11 17/1/11
f 30/25/12 42/26/12 38/27/12
f 11/19/13 16/24/13 12/23/13
f 28/28/14 41/29/14 39/30/14
f 16/24/15 22/31/15 17/1/15
f 19/32/16 35/33/16 18/34/16
f 15/35/17 21/36/17 16/24/17
f 20/37/18 34/38/18 36/39/18
f 22/31/19 26/40/19 27/2/19
f 19/41/20 25/42/20 20/43/20
f 1/21/9 18/44/9 14/45/9
f 20/43/21 26/40/21 21/36/21
f 18/44/22 24/46/22 19/41/22
f 27/47/23 4/6/23 5/10/23
f 24/48/24 3/4/24 25/49/24
f 25/49/25 4/6/25 26/50/25
f 23/51/26 2/9/26 24/48/26
f 13/17/1 5/3/1 10/18/1
f 31/52/27 36/39/27 34/38/27
f 31/52/28 35/33/28 32/53/28
f 30/54/29 33/55/29 31/52/29
f 18/34/30 33/55/30 14/56/30
f 19/32/31 36/39/31 32/53/31
f 30/54/32 34/38/32 15/57/32
f 37/58/33 42/26/33 40/59/33
f 37/58/34 41/29/34 38/27/34
f 29/60/35 40/59/35 11/61/35
f 11/61/36 42/26/36 15/62/36
f 30/25/37 41/29/37 14/63/37
f 29/60/38 39/30/38 37/58/38
f 17/1/39 22/31/39 27/2/39
f 3/4/2 8/12/2 9/5/2
f 1/7/3 6/64/3 7/8/3
f 5/10/4 4/6/4 9/5/4
f 2/9/5 7/8/5 8/12/5
f 6/13/6 28/22/6 29/14/6
f 9/16/7 12/23/7 13/17/7
f 7/15/8 29/14/8 11/19/8
f 1/21/9 14/45/9 28/22/9
f 8/20/10 11/19/10 12/23/10
f 13/17/11 12/23/11 16/24/11
f 30/25/40 15/62/40 42/26/40
f 11/19/13 15/35/13 16/24/13
f 28/28/14 14/63/14 41/29/14
f 16/24/15 21/36/15 22/31/15
f 19/32/41 32/53/41 35/33/41
f 15/35/42 20/43/42 21/36/42
f 20/37/18 15/57/18 34/38/18
f 22/31/19 21/36/19 26/40/19
f 19/41/43 24/46/43 25/42/43
f 1/21/9 23/65/9 18/44/9
f 20/43/44 25/42/44 26/40/44
f 18/44/22 23/65/22 24/46/22
f 27/47/23 26/50/23 4/6/23
f 24/48/24 2/9/24 3/4/24
f 25/49/25 3/4/25 4/6/25
f 23/51/26 1/7/26 2/9/26
f 13/17/1 17/1/1 5/3/1
f 31/52/45 32/53/45 36/39/45
f 31/52/28 33/55/28 35/33/28
f 30/54/46 14/56/46 33/55/46
f 18/34/47 35/33/47 33/55/47
f 19/32/48 20/37/48 36/39/48
f 30/54/49 31/52/49 34/38/49
f 37/58/33 38/27/33 42/26/33
f 37/58/34 39/30/34 41/29/34
f 29/60/50 37/58/50 40/59/50
f 11/61/51 40/59/51 42/26/51
f 30/25/52 38/27/52 41/29/52
f 29/60/53 28/28/53 39/30/53
v 0.714977 1.923581 -0.757651
v 0.724568 1.912005 -0.782056
v 0.730752 1.888869 -0.797806
v 0.731870 1.860372 -0.800682
v 0.727625 1.834150 -0.789912
v 0.732566 1.918571 -0.736865
v 0.755033 1.903326 -0.746053
v 0.765930 1.878847 -0.756234
v 0.762336 1.851693 -0.764679
v 0.745214 1.829139 -0.769126
v 0.747029 1.858841 -0.708184
v 0.745967 1.834367 -0.723067
v 0.735764 1.819136 -0.745101
v 0.696076 1.903575 -0.709602
v 0.692949 1.848856 -0.701708
v 0.699133 1.825720 -0.717458
v 0.708724 1.814144 -0.741863
v 0.678486 1.908586 -0.730388
v 0.661365 1.886032 -0.734835
v 0.657771 1.858878 -0.743280
v 0.668667 1.834399 -0.753461
v 0.691134 1.819154 -0.762649
v 0.687937 1.918589 -0.754413
v 0.677734 1.903358 -0.776447
v 0.676672 1.878884 -0.791330
v 0.685036 1.851725 -0.795073
v 0.700585 1.829157 -0.786674
v 0.723116 1.908568 -0.712840
v 0.738665 1.886000 -0.704441
v 0.691830 1.877353 -0.698832
v 0.644272 1.886998 -0.685596
v 0.641787 1.887706 -0.688533
v 0.673367 1.902909 -0.699858
v 0.663398 1.859757 -0.696795
v 0.664660 1.905389 -0.710147
v 0.649893 1.863605 -0.712755
v 0.725062 1.888295 -0.658000
v 0.713977 1.886249 -0.656673
v 0.718805 1.898226 -0.672563
v 0.724179 1.871028 -0.673268
v 0.713725 1.897289 -0.671955
v 0.719084 1.870088 -0.672658
vt 0.274240 0.539347
vt 0.265397 0.539709
vt 0.266768 0.532487
vt 0.231414 0.551290
vt 0.214659 0.541092
vt 0.231357 0.542861
vt 0.231940 0.569242
vt 0.215985 0.562822
vt 0.231472 0.559719
vt 0.230890 0.533338
vt 0.220414 0.530957
vt 0.213134 0.552274
vt 0.289666 0.544440
vt 0.282983 0.540904
vt 0.290637 0.536818
vt 0.279682 0.529141
vt 0.275518 0.536619
vt 0.273707 0.532162
vt 0.280945 0.538772
vt 0.286431 0.530872
vt 0.290637 0.551375
vt 0.284312 0.543753
vt 0.278488 0.537315
vt 0.276318 0.541045
vt 0.804698 0.251197
vt 0.792375 0.255919
vt 0.792638 0.252041
vt 0.786357 0.239035
vt 0.792578 0.249274
vt 0.791489 0.249454
vt 0.271776 0.541127
vt 0.760733 0.199751
vt 0.757502 0.209505
vt 0.750621 0.206121
vt 0.278108 0.542645
vt 0.273009 0.544115
vt 0.772804 0.201934
vt 0.766718 0.213101
vt 0.766203 0.208706
vt 0.264007 0.548518
vt 0.277612 0.547903
vt 0.268747 0.555467
vt 0.275021 0.546378
vt 0.280714 0.548498
vt 0.281954 0.545638
vt 0.276612 0.557409
vt 0.240880 0.530957
vt 0.248168 0.561486
vt 0.249693 0.550306
vt 0.246843 0.539760
vt 0.242415 0.571620
vt 0.762287 0.211045
vt 0.762255 0.210544
vt 0.761023 0.221925
vt 0.757316 0.212491
vt 0.750922 0.216572
vt 0.772804 0.220841
vt 0.791613 0.252007
vt 0.791097 0.255536
vt 0.780068 0.250772
vt 0.780487 0.263708
vt 0.804698 0.264828
vt 0.798786 0.238814
vt 0.221949 0.571626
vt 0.283377 0.553479
vn 0.1319 -0.9325 -0.3364
vn 0.7710 0.0938 -0.6298
vn 0.4889 0.8468 -0.2095
vn 0.6615 -0.3741 -0.6500
vn 0.7114 0.5154 -0.4778
vn 0.6172 0.6101 0.4968
vn 0.7898 -0.6107 0.0564
vn 0.8767 0.2104 0.4325
vn -0.1319 0.9325 0.3364
vn 0.9364 -0.2112 0.2804
vn 0.2146 -0.8471 0.4862
vn -0.6114 -0.6457 0.4574
vn 0.1951 -0.5158 0.8342
vn -0.1498 0.9614 0.2308
vn -0.4889 -0.8468 0.2096
vn -0.6985 0.6055 -0.3815
vn -0.7114 -0.5154 0.4778
vn -0.3369 -0.9397 0.0586
vn -0.6172 -0.6101 -0.4968
vn -0.9364 0.2111 -0.2804
vn -0.8767 -0.2104 -0.4325
vn -0.7898 0.6107 -0.0564
vn -0.0420 -0.3738 -0.9266
vn -0.1951 0.5158 -0.8342
vn -0.1355 0.0942 -0.9863
vn -0.2146 0.8471 -0.4862
vn -0.6605 -0.6310 0.4068
vn -0.2618 0.8641 0.4299
vn 0.3073 0.2588 0.9157
vn 0.0533 0.9801 0.1912
vn -0.9167 0.0843 -0.3907
vn 0.1292 -0.0945 0.9871
vn 0.2078 -0.6539 0.7275
vn -0.0791 0.8075 0.5846
vn 0.8505 0.1946 0.4887
vn 0.2138 -0.8703 0.4437
vn -0.8368 0.3184 0.4454
vn 0.7009 0.6925 0.1711
vn 0.4889 0.8468 -0.2096
vn 0.9364 -0.2111 0.2804
vn -0.7029 -0.0987 0.7045
vn -0.1499 0.9614 0.2308
vn -0.4889 -0.8468 0.2095
vn -0.7547 0.5614 -0.3394
vn -0.9364 0.2112 -0.2804
vn 0.1319 -0.9324 -0.3364
vn 0.3685 0.3015 0.8794
vn -0.9384 0.2096 -0.2746
vn 0.2153 -0.2382 0.9471
vn 0.9126 -0.2960 0.2819
vn -0.8261 0.4503 0.3389
vn 0.7564 0.6095 0.2374
s off
f 59/66/54 69/67/54 47/68/54
f 45/69/55 51/70/55 46/71/55
f 43/72/56 49/73/56 44/74/56
f 47/75/57 51/70/57 52/76/57
f 44/74/58 50/77/58 45/69/58
f 48/78/59 71/79/59 49/80/59
f 51/81/60 55/82/60 52/83/60
f 49/80/61 53/84/61 50/85/61
f 43/86/62 70/87/62 48/78/62
f 50/85/63 54/88/63 51/81/63
f 55/82/64 58/89/64 59/66/64
f 72/90/65 84/91/65 80/92/65
f 53/84/66 58/89/66 54/88/66
f 70/93/67 83/94/67 81/95/67
f 58/89/68 64/96/68 59/66/68
f 61/97/69 77/98/69 60/99/69
f 57/100/70 63/101/70 58/89/70
f 62/102/71 76/103/71 78/104/71
f 64/96/72 68/105/72 69/67/72
f 61/106/73 67/107/73 62/108/73
f 43/86/62 60/109/62 56/110/62
f 62/108/74 68/105/74 63/101/74
f 60/109/75 66/111/75 61/106/75
f 69/112/76 46/71/76 47/75/76
f 66/113/77 45/69/77 67/114/77
f 67/114/78 46/71/78 68/115/78
f 65/116/79 44/74/79 66/113/79
f 55/82/54 47/68/54 52/83/54
f 73/117/80 78/104/80 76/103/80
f 73/117/81 77/98/81 74/118/81
f 72/119/82 75/120/82 73/117/82
f 60/99/83 75/120/83 56/121/83
f 61/97/84 78/104/84 74/118/84
f 72/119/85 76/103/85 57/122/85
f 79/123/86 84/91/86 82/124/86
f 79/123/87 83/94/87 80/92/87
f 71/125/88 82/124/88 53/126/88
f 53/126/89 84/91/89 57/127/89
f 72/90/90 83/94/90 56/128/90
f 71/125/91 81/95/91 79/123/91
f 59/66/54 64/96/54 69/67/54
f 45/69/55 50/77/55 51/70/55
f 43/72/92 48/129/92 49/73/92
f 47/75/57 46/71/57 51/70/57
f 44/74/58 49/73/58 50/77/58
f 48/78/59 70/87/59 71/79/59
f 51/81/60 54/88/60 55/82/60
f 49/80/61 71/79/61 53/84/61
f 43/86/62 56/110/62 70/87/62
f 50/85/93 53/84/93 54/88/93
f 55/82/64 54/88/64 58/89/64
f 72/90/94 57/127/94 84/91/94
f 53/84/66 57/100/66 58/89/66
f 70/93/95 56/128/95 83/94/95
f 58/89/96 63/101/96 64/96/96
f 61/97/97 74/118/97 77/98/97
f 57/100/70 62/108/70 63/101/70
f 62/102/71 57/122/71 76/103/71
f 64/96/72 63/101/72 68/105/72
f 61/106/98 66/111/98 67/107/98
f 43/86/62 65/130/62 60/109/62
f 62/108/74 67/107/74 68/105/74
f 60/109/75 65/130/75 66/111/75
f 69/112/76 68/115/76 46/71/76
f 66/113/77 44/74/77 45/69/77
f 67/114/78 45/69/78 46/71/78
f 65/116/79 43/72/79 44/74/79
f 55/82/99 59/66/99 47/68/99
f 73/117/80 74/118/80 78/104/80
f 73/117/81 75/120/81 77/98/81
f 72/119/100 56/121/100 75/120/100
f 60/99/83 77/98/83 75/120/83
f 61/97/101 62/102/101 78/104/101
f 72/119/102 73/117/102 76/103/102
f 79/123/86 80/92/86 84/91/86
f 79/123/87 81/95/87 83/94/87
f 71/125/103 79/123/103 82/124/103
f 53/126/89 82/124/89 84/91/89
f 72/90/104 80/92/104 83/94/104
f 71/125/105 70/93/105 81/95/105
