# Blender v2.81 (sub 16) OBJ File: 'garbage.blend'
# www.blender.org
v 0.175199 2.600125 1.153926
v 0.165182 2.574045 1.147513
v 0.167016 2.545523 1.149688
v 0.180209 2.522201 1.159867
v 0.201226 2.510327 1.175323
v 0.199784 2.604391 1.141927
v 0.207763 2.581434 1.126730
v 0.216184 2.554055 1.125689
v 0.222790 2.529590 1.139084
v 0.225810 2.514594 1.163324
v 0.258578 2.573461 1.155562
v 0.259504 2.546396 1.164954
v 0.247007 2.524296 1.178260
v 0.217594 2.619530 1.183799
v 0.251804 2.584335 1.209434
v 0.253638 2.555812 1.211608
v 0.243620 2.529733 1.205196
v 0.193010 2.615264 1.195798
v 0.196030 2.600267 1.220038
v 0.202636 2.575802 1.233432
v 0.211057 2.548423 1.232392
v 0.219036 2.525467 1.217195
v 0.171812 2.605561 1.180861
v 0.159316 2.583462 1.194167
v 0.160242 2.556396 1.203559
v 0.174342 2.531617 1.206521
v 0.197839 2.515764 1.202259
v 0.220981 2.614094 1.156863
v 0.244478 2.598240 1.152601
v 0.238611 2.607657 1.199255
v 0.228821 2.635572 1.239935
v 0.225347 2.634969 1.241630
v 0.218405 2.631014 1.205675
v 0.240516 2.603323 1.232417
v 0.206236 2.628902 1.211614
v 0.221640 2.600048 1.241630
v 0.275471 2.631902 1.168516
v 0.274083 2.634131 1.179559
v 0.256770 2.632093 1.168816
v 0.272332 2.609934 1.174807
v 0.256134 2.633115 1.173877
v 0.271694 2.610958 1.179882
vt 0.274240 0.539347
vt 0.265397 0.539709
vt 0.266768 0.532487
vt 0.231414 0.551290
vt 0.214659 0.541092
vt 0.231357 0.542861
vt 0.231940 0.569242
vt 0.215985 0.562822
vt 0.231472 0.559719
vt 0.230890 0.533338
vt 0.220414 0.530957
vt 0.213134 0.552274
vt 0.289666 0.544440
vt 0.282983 0.540904
vt 0.290637 0.536818
vt 0.279682 0.529141
vt 0.275518 0.536619
vt 0.273707 0.532162
vt 0.280945 0.538772
vt 0.286431 0.530872
vt 0.290637 0.551375
vt 0.284312 0.543753
vt 0.278488 0.537315
vt 0.276318 0.541045
vt 0.804698 0.251197
vt 0.792375 0.255919
vt 0.792638 0.252041
vt 0.786357 0.239035
vt 0.792578 0.249274
vt 0.791489 0.249454
vt 0.271776 0.541127
vt 0.760733 0.199751
vt 0.757502 0.209505
vt 0.750621 0.206121
vt 0.278108 0.542645
vt 0.273009 0.544115
vt 0.772804 0.201934
vt 0.766718 0.213101
vt 0.766203 0.208706
vt 0.264007 0.548518
vt 0.277612 0.547903
vt 0.268747 0.555467
vt 0.275021 0.546378
vt 0.280714 0.548498
vt 0.281954 0.545638
vt 0.276612 0.557409
vt 0.240880 0.530957
vt 0.248168 0.561486
vt 0.249693 0.550306
vt 0.246843 0.539760
vt 0.242415 0.571620
vt 0.762287 0.211045
vt 0.762255 0.210544
vt 0.761023 0.221925
vt 0.757316 0.212491
vt 0.750922 0.216572
vt 0.772804 0.220841
vt 0.791613 0.252007
vt 0.791097 0.255536
vt 0.780068 0.250772
vt 0.780487 0.263708
vt 0.804698 0.264828
vt 0.798786 0.238814
vt 0.221949 0.571626
vt 0.283377 0.553479
vn 0.2714 -0.9363 0.2231
vn -0.3004 -0.5192 -0.8001
vn -0.4584 0.3743 -0.8061
vn -0.1031 -0.8516 -0.5140
vn -0.4231 -0.0959 -0.9010
vn 0.2633 0.5945 -0.7598
vn 0.6186 -0.6314 -0.4677
vn 0.5068 0.1879 -0.8413
vn -0.2714 0.9363 -0.2231
vn 0.6295 -0.2354 -0.7405
vn 0.8993 -0.3927 0.1924
vn 0.5079 -0.0404 0.8605
vn 0.9913 0.0721 0.1101
vn -0.3754 0.8982 -0.2285
vn 0.4584 -0.3743 0.8061
vn -0.8425 0.4048 0.3554
vn 0.4231 0.0959 0.9010
vn 0.4371 -0.5761 0.6907
vn -0.2633 -0.5945 0.7598
vn -0.6295 0.2354 0.7405
vn -0.5068 -0.1879 0.8413
vn -0.6186 0.6314 0.4677
vn -0.5440 -0.8331 0.0998
vn -0.9913 -0.0721 -0.1101
vn -0.8686 -0.4954 -0.0092
vn -0.8993 0.3927 -0.1924
vn 0.4448 -0.0472 0.8944
vn -0.2029 0.9768 -0.0683
vn 0.6806 0.6702 -0.2961
vn -0.3521 0.8340 -0.4248
vn -0.6427 0.0682 0.7630
vn 0.8674 0.4973 0.0152
vn 0.9846 -0.0995 0.1439
vn 0.0069 0.9804 -0.1970
vn 0.5511 0.2173 -0.8057
vn 0.8780 -0.4357 0.1983
vn -0.0839 0.7319 0.6763
vn -0.0100 0.4349 -0.9004
vn 0.3833 0.5430 0.7472
vn -0.8039 0.4126 0.4284
vn -0.5440 -0.8331 0.0997
vn 0.4447 -0.0472 0.8944
vn 0.6488 0.6636 -0.3724
vn -0.6248 0.2384 0.7435
vn 0.9394 0.3428 -0.0092
vn 0.6681 -0.2915 -0.6846
vn 0.8779 -0.4357 0.1984
vn -0.2341 0.7625 0.6032
vn 0.1038 0.3988 -0.9112
s off
f 17/1/1 27/2/1 5/3/1
f 3/4/2 9/5/2 4/6/2
f 1/7/3 7/8/3 2/9/3
f 5/10/4 9/5/4 10/11/4
f 2/9/5 8/12/5 3/4/5
f 6/13/6 29/14/6 7/15/6
f 9/16/7 13/17/7 10/18/7
f 7/15/8 11/19/8 8/20/8
f 1/21/9 28/22/9 6/13/9
f 8/20/10 12/23/10 9/16/10
f 13/17/11 16/24/11 17/1/11
f 30/25/12 42/26/12 38/27/12
f 11/19/13 16/24/13 12/23/13
f 28/28/14 41/29/14 39/30/14
f 16/24/15 22/31/15 17/1/15
f 19/32/16 35/33/16 18/34/16
f 15/35/17 21/36/17 16/24/17
f 20/37/18 34/38/18 36/39/18
f 22/31/19 26/40/19 27/2/19
f 19/41/20 25/42/20 20/43/20
f 1/21/9 18/44/9 14/45/9
f 20/43/21 26/40/21 21/36/21
f 18/44/22 24/46/22 19/41/22
f 27/47/23 4/6/23 5/10/23
f 24/48/24 3/4/24 25/49/24
f 25/49/25 4/6/25 26/50/25
f 23/51/26 2/9/26 24/48/26
f 13/17/1 5/3/1 10/18/1
f 31/52/27 36/39/27 34/38/27
f 31/52/28 35/33/28 32/53/28
f 30/54/29 33/55/29 31/52/29
f 18/34/30 33/55/30 14/56/30
f 19/32/31 36/39/31 32/53/31
f 30/54/32 34/38/32 15/57/32
f 37/58/33 42/26/33 40/59/33
f 37/58/34 41/29/34 38/27/34
f 29/60/35 40/59/35 11/61/35
f 11/61/36 42/26/36 15/62/36
f 30/25/37 41/29/37 14/63/37
f 29/60/38 39/30/38 37/58/38
f 17/1/1 22/31/1 27/2/1
f 3/4/2 8/12/2 9/5/2
f 1/7/3 6/64/3 7/8/3
f 5/10/4 4/6/4 9/5/4
f 2/9/5 7/8/5 8/12/5
f 6/13/6 28/22/6 29/14/6
f 9/16/7 12/23/7 13/17/7
f 7/15/8 29/14/8 11/19/8
f 1/21/9 14/45/9 28/22/9
f 8/20/10 11/19/10 12/23/10
f 13/17/11 12/23/11 16/24/11
f 30/25/39 15/62/39 42/26/39
f 11/19/13 15/35/13 16/24/13
f 28/28/14 14/63/14 41/29/14
f 16/24/15 21/36/15 22/31/15
f 19/32/40 32/53/40 35/33/40
f 15/35/17 20/43/17 21/36/17
f 20/37/18 15/57/18 34/38/18
f 22/31/19 21/36/19 26/40/19
f 19/41/20 24/46/20 25/42/20
f 1/21/9 23/65/9 18/44/9
f 20/43/21 25/42/21 26/40/21
f 18/44/22 23/65/22 24/46/22
f 27/47/41 26/50/41 4/6/41
f 24/48/24 2/9/24 3/4/24
f 25/49/25 3/4/25 4/6/25
f 23/51/26 1/7/26 2/9/26
f 13/17/1 17/1/1 5/3/1
f 31/52/42 32/53/42 36/39/42
f 31/52/28 33/55/28 35/33/28
f 30/54/43 14/56/43 33/55/43
f 18/34/30 35/33/30 33/55/30
f 19/32/44 20/37/44 36/39/44
f 30/54/45 31/52/45 34/38/45
f 37/58/33 38/27/33 42/26/33
f 37/58/34 39/30/34 41/29/34
f 29/60/46 37/58/46 40/59/46
f 11/61/47 40/59/47 42/26/47
f 30/25/48 38/27/48 41/29/48
f 29/60/49 28/28/49 39/30/49
v 1.108214 1.609989 -1.416680
v 1.119287 1.585127 -1.407689
v 1.116251 1.557178 -1.402098
v 1.099920 1.533632 -1.401406
v 1.074669 1.520798 -1.405798
v 1.089255 1.619304 -1.398782
v 1.086449 1.601260 -1.376688
v 1.078333 1.575807 -1.366301
v 1.067082 1.549766 -1.370405
v 1.055710 1.530113 -1.387899
v 1.028714 1.592239 -1.384583
v 1.024110 1.563996 -1.386237
v 1.030900 1.538329 -1.397040
v 1.058596 1.626421 -1.434962
v 1.017013 1.590041 -1.438662
v 1.013977 1.562092 -1.433071
v 1.025050 1.537230 -1.424079
v 1.077555 1.617106 -1.452861
v 1.066183 1.597453 -1.470355
v 1.054932 1.571412 -1.474459
v 1.046815 1.545959 -1.464072
v 1.044009 1.527915 -1.441978
v 1.102364 1.608890 -1.443720
v 1.109154 1.583223 -1.454522
v 1.104550 1.554980 -1.456177
v 1.089787 1.531729 -1.448239
v 1.068819 1.519699 -1.432837
v 1.064446 1.627519 -1.407923
v 1.043478 1.615490 -1.392520
v 1.033345 1.613587 -1.439354
v 1.029301 1.630554 -1.486532
v 1.031980 1.629238 -1.489061
v 1.050637 1.632741 -1.457496
v 1.020207 1.602161 -1.467973
v 1.060021 1.628131 -1.466356
v 1.034764 1.595009 -1.481715
v 1.009605 1.647706 -1.405241
v 1.007207 1.647255 -1.416326
v 1.027094 1.645926 -1.411633
v 1.009980 1.624685 -1.406629
v 1.025995 1.645720 -1.416713
v 1.008878 1.624478 -1.411724
vt 0.274240 0.539347
vt 0.265397 0.539709
vt 0.266768 0.532487
vt 0.231414 0.551290
vt 0.214659 0.541092
vt 0.231357 0.542861
vt 0.231940 0.569242
vt 0.215985 0.562822
vt 0.231472 0.559719
vt 0.230890 0.533338
vt 0.220414 0.530957
vt 0.213134 0.552274
vt 0.289666 0.544440
vt 0.282983 0.540904
vt 0.290637 0.536818
vt 0.279682 0.529141
vt 0.275518 0.536619
vt 0.273707 0.532162
vt 0.280945 0.538772
vt 0.286431 0.530872
vt 0.290637 0.551375
vt 0.284312 0.543753
vt 0.278488 0.537315
vt 0.276318 0.541045
vt 0.804698 0.251197
vt 0.792375 0.255919
vt 0.792638 0.252041
vt 0.786357 0.239035
vt 0.792578 0.249274
vt 0.791489 0.249454
vt 0.271776 0.541127
vt 0.760733 0.199751
vt 0.757502 0.209505
vt 0.750621 0.206121
vt 0.278108 0.542645
vt 0.273009 0.544115
vt 0.772804 0.201934
vt 0.766718 0.213101
vt 0.766203 0.208706
vt 0.264007 0.548518
vt 0.277612 0.547903
vt 0.268747 0.555467
vt 0.275021 0.546378
vt 0.280714 0.548498
vt 0.281954 0.545638
vt 0.276612 0.557409
vt 0.240880 0.530957
vt 0.248168 0.561486
vt 0.249693 0.550306
vt 0.246843 0.539760
vt 0.242415 0.571620
vt 0.762287 0.211045
vt 0.762255 0.210544
vt 0.761023 0.221925
vt 0.757316 0.212491
vt 0.750922 0.216572
vt 0.772804 0.220841
vt 0.791613 0.252007
vt 0.791097 0.255536
vt 0.780068 0.250772
vt 0.780487 0.263708
vt 0.804698 0.264828
vt 0.798786 0.238814
vt 0.221949 0.571626
vt 0.283377 0.553479
vn -0.3498 -0.9299 0.1135
vn 0.5437 -0.3548 0.7606
vn 0.7123 0.4966 0.4960
vn 0.2543 -0.7210 0.6446
vn 0.7019 0.0656 0.7093
vn 0.0223 0.7729 0.6341
vn -0.4356 -0.4446 0.7827
vn -0.1872 0.4217 0.8872
vn 0.3498 0.9299 -0.1135
vn -0.3453 0.0013 0.9385
vn -0.9189 -0.3325 0.2123
vn -0.7706 -0.1801 -0.6114
vn -0.9681 0.1459 0.2035
vn 0.4487 0.8837 -0.1330
vn -0.7123 -0.4966 -0.4960
vn 0.6797 0.2274 -0.6973
vn -0.7019 -0.0656 -0.7093
vn -0.6571 -0.6686 -0.3481
vn -0.0223 -0.7729 -0.6341
vn 0.3453 -0.0013 -0.9385
vn 0.1872 -0.4217 -0.8872
vn 0.4356 0.4446 -0.7826
vn 0.4610 -0.8851 -0.0638
vn 0.9681 -0.1459 -0.2035
vn 0.8100 -0.5663 -0.1522
vn 0.9189 0.3324 -0.2123
vn -0.7228 -0.2007 -0.6612
vn 0.2336 0.9416 -0.2426
vn -0.5260 0.7849 0.3274
vn 0.4921 0.8678 0.0696
vn 0.3468 -0.1698 -0.9225
vn -0.8109 0.5667 0.1460
vn -0.9767 -0.0287 0.2125
vn 0.0801 0.9951 -0.0578
vn -0.2403 0.4468 0.8618
vn -0.9017 -0.3776 0.2104
vn -0.1360 0.5497 -0.8242
vn 0.3238 0.6220 0.7129
vn -0.9189 -0.3324 0.2123
vn -0.6032 0.3981 -0.6911
vn 0.6188 0.2225 -0.7534
vn 0.4356 0.4446 -0.7827
vn 0.9189 0.3325 -0.2123
vn -0.4703 0.7924 0.3884
vn 0.3399 0.0013 -0.9404
vn -0.8734 0.4297 0.2294
vn -0.4018 -0.0616 0.9137
vn -0.9017 -0.3776 0.2105
vn 0.0307 0.5804 -0.8138
vn 0.2198 0.6009 0.7685
s off
f 59/66/50 69/67/50 47/68/50
f 45/69/51 51/70/51 46/71/51
f 43/72/52 49/73/52 44/74/52
f 47/75/53 51/70/53 52/76/53
f 44/74/54 50/77/54 45/69/54
f 48/78/55 71/79/55 49/80/55
f 51/81/56 55/82/56 52/83/56
f 49/80/57 53/84/57 50/85/57
f 43/86/58 70/87/58 48/78/58
f 50/85/59 54/88/59 51/81/59
f 55/82/60 58/89/60 59/66/60
f 72/90/61 84/91/61 80/92/61
f 53/84/62 58/89/62 54/88/62
f 70/93/63 83/94/63 81/95/63
f 58/89/64 64/96/64 59/66/64
f 61/97/65 77/98/65 60/99/65
f 57/100/66 63/101/66 58/89/66
f 62/102/67 76/103/67 78/104/67
f 64/96/68 68/105/68 69/67/68
f 61/106/69 67/107/69 62/108/69
f 43/86/58 60/109/58 56/110/58
f 62/108/70 68/105/70 63/101/70
f 60/109/71 66/111/71 61/106/71
f 69/112/72 46/71/72 47/75/72
f 66/113/73 45/69/73 67/114/73
f 67/114/74 46/71/74 68/115/74
f 65/116/75 44/74/75 66/113/75
f 55/82/50 47/68/50 52/83/50
f 73/117/76 78/104/76 76/103/76
f 73/117/77 77/98/77 74/118/77
f 72/119/78 75/120/78 73/117/78
f 60/99/79 75/120/79 56/121/79
f 61/97/80 78/104/80 74/118/80
f 72/119/81 76/103/81 57/122/81
f 79/123/82 84/91/82 82/124/82
f 79/123/83 83/94/83 80/92/83
f 71/125/84 82/124/84 53/126/84
f 53/126/85 84/91/85 57/127/85
f 72/90/86 83/94/86 56/128/86
f 71/125/87 81/95/87 79/123/87
f 59/66/50 64/96/50 69/67/50
f 45/69/51 50/77/51 51/70/51
f 43/72/52 48/129/52 49/73/52
f 47/75/53 46/71/53 51/70/53
f 44/74/54 49/73/54 50/77/54
f 48/78/55 70/87/55 71/79/55
f 51/81/56 54/88/56 55/82/56
f 49/80/57 71/79/57 53/84/57
f 43/86/58 56/110/58 70/87/58
f 50/85/59 53/84/59 54/88/59
f 55/82/88 54/88/88 58/89/88
f 72/90/89 57/127/89 84/91/89
f 53/84/62 57/100/62 58/89/62
f 70/93/63 56/128/63 83/94/63
f 58/89/64 63/101/64 64/96/64
f 61/97/90 74/118/90 77/98/90
f 57/100/66 62/108/66 63/101/66
f 62/102/67 57/122/67 76/103/67
f 64/96/68 63/101/68 68/105/68
f 61/106/69 66/111/69 67/107/69
f 43/86/58 65/130/58 60/109/58
f 62/108/70 67/107/70 68/105/70
f 60/109/91 65/130/91 66/111/91
f 69/112/72 68/115/72 46/71/72
f 66/113/73 44/74/73 45/69/73
f 67/114/74 45/69/74 46/71/74
f 65/116/92 43/72/92 44/74/92
f 55/82/50 59/66/50 47/68/50
f 73/117/76 74/118/76 78/104/76
f 73/117/77 75/120/77 77/98/77
f 72/119/93 56/121/93 75/120/93
f 60/99/79 77/98/79 75/120/79
f 61/97/94 62/102/94 78/104/94
f 72/119/95 73/117/95 76/103/95
f 79/123/82 80/92/82 84/91/82
f 79/123/83 81/95/83 83/94/83
f 71/125/96 79/123/96 82/124/96
f 53/126/97 82/124/97 84/91/97
f 72/90/98 80/92/98 83/94/98
f 71/125/99 70/93/99 81/95/99
