# Blender v2.81 (sub 16) OBJ File: 'garbage.blend'
# www.blender.org
v -0.122738 2.641354 -0.606740
v -0.110059 2.626342 -0.627608
v -0.103912 2.601169 -0.639861
v -0.105944 2.572579 -0.640214
v -0.115609 2.548234 -0.628574
v -0.110442 2.636586 -0.582395
v -0.088762 2.618085 -0.585442
v -0.079320 2.591635 -0.591172
v -0.084646 2.564322 -0.598049
v -0.103313 2.543467 -0.604230
v -0.109843 2.578885 -0.546764
v -0.111080 2.553281 -0.559590
v -0.118575 2.537093 -0.582026
v -0.153260 2.628604 -0.562331
v -0.164957 2.575670 -0.551045
v -0.158810 2.550497 -0.563297
v -0.146132 2.535485 -0.584166
v -0.165556 2.633371 -0.586676
v -0.184223 2.612516 -0.592857
v -0.189549 2.585204 -0.599734
v -0.180107 2.558753 -0.605463
v -0.158428 2.540252 -0.608510
v -0.150295 2.639746 -0.608880
v -0.157790 2.623557 -0.631315
v -0.159026 2.597953 -0.644142
v -0.153674 2.569795 -0.643922
v -0.143166 2.546627 -0.630714
v -0.125703 2.630212 -0.560191
v -0.115195 2.607044 -0.546984
v -0.162926 2.604259 -0.550691
v -0.210509 2.620420 -0.548538
v -0.212247 2.621094 -0.551979
v -0.177346 2.631462 -0.557558
v -0.193229 2.590223 -0.553316
v -0.183432 2.633821 -0.569608
v -0.202670 2.593883 -0.572007
v -0.137362 2.615588 -0.504762
v -0.148659 2.614929 -0.505640
v -0.139253 2.624603 -0.521042
v -0.137415 2.597049 -0.518486
v -0.144430 2.624301 -0.521444
v -0.142607 2.596746 -0.518890
vt 0.274240 0.539347
vt 0.265397 0.539709
vt 0.266768 0.532487
vt 0.231414 0.551290
vt 0.214659 0.541092
vt 0.231357 0.542861
vt 0.231940 0.569242
vt 0.215985 0.562822
vt 0.231472 0.559719
vt 0.230890 0.533338
vt 0.220414 0.530957
vt 0.213134 0.552274
vt 0.289666 0.544440
vt 0.282983 0.540904
vt 0.290637 0.536818
vt 0.279682 0.529141
vt 0.275518 0.536619
vt 0.273707 0.532162
vt 0.280945 0.538772
vt 0.286431 0.530872
vt 0.290637 0.551375
vt 0.284312 0.543753
vt 0.278488 0.537315
vt 0.276318 0.541045
vt 0.804698 0.251197
vt 0.792375 0.255919
vt 0.792638 0.252041
vt 0.786357 0.239035
vt 0.792578 0.249274
vt 0.791489 0.249454
vt 0.271776 0.541127
vt 0.760733 0.199751
vt 0.757502 0.209505
vt 0.750621 0.206121
vt 0.278108 0.542645
vt 0.273009 0.544115
vt 0.772804 0.201934
vt 0.766718 0.213101
vt 0.766203 0.208706
vt 0.264007 0.548518
vt 0.277612 0.547903
vt 0.268747 0.555467
vt 0.275021 0.546378
vt 0.280714 0.548498
vt 0.281954 0.545638
vt 0.276612 0.557409
vt 0.240880 0.530957
vt 0.248168 0.561486
vt 0.249693 0.550306
vt 0.246843 0.539760
vt 0.242415 0.571620
vt 0.762287 0.211045
vt 0.762255 0.210544
vt 0.761023 0.221925
vt 0.757316 0.212491
vt 0.750922 0.216572
vt 0.772804 0.220841
vt 0.791613 0.252007
vt 0.791097 0.255536
vt 0.780068 0.250772
vt 0.780487 0.263708
vt 0.804698 0.264828
vt 0.798786 0.238814
vt 0.221949 0.571626
vt 0.283377 0.553479
vn 0.0743 -0.9709 -0.2277
vn 0.8866 -0.0573 -0.4590
vn 0.6263 0.7614 -0.1672
vn 0.7236 -0.5098 -0.4653
vn 0.8530 0.3816 -0.3561
vn 0.5796 0.5858 0.5665
vn 0.6769 -0.6854 0.2684
vn 0.7927 0.1553 0.5895
vn -0.0743 0.9709 0.2277
vn 0.8263 -0.2836 0.4865
vn 0.0019 -0.8112 0.5847
vn -0.7687 -0.5236 0.3674
vn -0.0434 -0.4458 0.8941
vn -0.0670 0.9907 0.1188
vn -0.6263 -0.7614 0.1672
vn -0.5240 0.6367 -0.5657
vn -0.8530 -0.3816 0.3561
vn -0.4606 -0.8856 0.0593
vn -0.5796 -0.5858 -0.5665
vn -0.8263 0.2836 -0.4865
vn -0.7927 -0.1553 -0.5895
vn -0.6769 0.6854 -0.2685
vn 0.0954 -0.4600 -0.8828
vn 0.0434 0.4458 -0.8941
vn 0.0770 0.0069 -0.9970
vn -0.0019 0.8112 -0.5847
vn -0.8044 -0.5088 0.3067
vn -0.2280 0.9273 0.2968
vn 0.1497 0.3158 0.9369
vn 0.1406 0.9826 0.1214
vn -0.8017 0.1447 -0.5800
vn -0.0833 -0.0064 0.9965
vn -0.0277 -0.5947 0.8035
vn -0.0887 0.8670 0.4904
vn 0.7540 0.1483 0.6399
vn 0.0066 -0.8384 0.5450
vn -0.8603 0.4532 0.2335
vn 0.7364 0.6244 0.2603
vn 0.6769 -0.6854 0.2685
vn 0.7927 0.1553 0.5894
vn -0.0743 0.9709 0.2276
vn -0.8358 0.0526 0.5465
vn -0.0670 0.9907 0.1187
vn -0.5928 0.6037 -0.5331
vn -0.4606 -0.8856 0.0592
vn -0.7927 -0.1553 -0.5894
vn 0.0743 -0.9709 -0.2276
vn 0.2218 0.3475 0.9111
vn -0.8297 0.2830 -0.4812
vn -0.0104 -0.1621 0.9867
vn 0.7920 -0.3647 0.4896
vn -0.8116 0.5714 0.1217
vn 0.7664 0.5431 0.3430
s off
f 17/1/1 27/2/1 5/3/1
f 3/4/2 9/5/2 4/6/2
f 1/7/3 7/8/3 2/9/3
f 5/10/4 9/5/4 10/11/4
f 2/9/5 8/12/5 3/4/5
f 6/13/6 29/14/6 7/15/6
f 9/16/7 13/17/7 10/18/7
f 7/15/8 11/19/8 8/20/8
f 1/21/9 28/22/9 6/13/9
f 8/20/10 12/23/10 9/16/10
f 13/17/11 16/24/11 17/1/11
f 30/25/12 42/26/12 38/27/12
f 11/19/13 16/24/13 12/23/13
f 28/28/14 41/29/14 39/30/14
f 16/24/15 22/31/15 17/1/15
f 19/32/16 35/33/16 18/34/16
f 15/35/17 21/36/17 16/24/17
f 20/37/18 34/38/18 36/39/18
f 22/31/19 26/40/19 27/2/19
f 19/41/20 25/42/20 20/43/20
f 1/21/9 18/44/9 14/45/9
f 20/43/21 26/40/21 21/36/21
f 18/44/22 24/46/22 19/41/22
f 27/47/23 4/6/23 5/10/23
f 24/48/24 3/4/24 25/49/24
f 25/49/25 4/6/25 26/50/25
f 23/51/26 2/9/26 24/48/26
f 13/17/1 5/3/1 10/18/1
f 31/52/27 36/39/27 34/38/27
f 31/52/28 35/33/28 32/53/28
f 30/54/29 33/55/29 31/52/29
f 18/34/30 33/55/30 14/56/30
f 19/32/31 36/39/31 32/53/31
f 30/54/32 34/38/32 15/57/32
f 37/58/33 42/26/33 40/59/33
f 37/58/34 41/29/34 38/27/34
f 29/60/35 40/59/35 11/61/35
f 11/61/36 42/26/36 15/62/36
f 30/25/37 41/29/37 14/63/37
f 29/60/38 39/30/38 37/58/38
f 17/1/1 22/31/1 27/2/1
f 3/4/2 8/12/2 9/5/2
f 1/7/3 6/64/3 7/8/3
f 5/10/4 4/6/4 9/5/4
f 2/9/5 7/8/5 8/12/5
f 6/13/6 28/22/6 29/14/6
f 9/16/39 12/23/39 13/17/39
f 7/15/40 29/14/40 11/19/40
f 1/21/41 14/45/41 28/22/41
f 8/20/10 11/19/10 12/23/10
f 13/17/11 12/23/11 16/24/11
f 30/25/42 15/62/42 42/26/42
f 11/19/13 15/35/13 16/24/13
f 28/28/43 14/63/43 41/29/43
f 16/24/15 21/36/15 22/31/15
f 19/32/44 32/53/44 35/33/44
f 15/35/17 20/43/17 21/36/17
f 20/37/45 15/57/45 34/38/45
f 22/31/19 21/36/19 26/40/19
f 19/41/20 24/46/20 25/42/20
f 1/21/41 23/65/41 18/44/41
f 20/43/46 25/42/46 26/40/46
f 18/44/22 23/65/22 24/46/22
f 27/47/23 26/50/23 4/6/23
f 24/48/24 2/9/24 3/4/24
f 25/49/25 3/4/25 4/6/25
f 23/51/26 1/7/26 2/9/26
f 13/17/47 17/1/47 5/3/47
f 31/52/27 32/53/27 36/39/27
f 31/52/28 33/55/28 35/33/28
f 30/54/48 14/56/48 33/55/48
f 18/34/30 35/33/30 33/55/30
f 19/32/49 20/37/49 36/39/49
f 30/54/50 31/52/50 34/38/50
f 37/58/33 38/27/33 42/26/33
f 37/58/34 39/30/34 41/29/34
f 29/60/51 37/58/51 40/59/51
f 11/61/36 40/59/36 42/26/36
f 30/25/52 38/27/52 41/29/52
f 29/60/53 28/28/53 39/30/53
v 1.737654 1.928670 -0.979140
v 1.727567 1.912046 -0.958081
v 1.721237 1.886022 -0.947869
v 1.720360 1.857571 -0.951241
v 1.725170 1.834316 -0.967294
v 1.720661 1.928174 -1.000993
v 1.698135 1.911188 -0.995931
v 1.687251 1.885031 -0.991575
v 1.690927 1.856713 -0.989092
v 1.708177 1.833821 -0.989147
v 1.707600 1.875974 -1.042271
v 1.708550 1.848869 -1.032996
v 1.718351 1.829292 -1.014495
v 1.758003 1.919612 -1.029837
v 1.761935 1.867907 -1.049262
v 1.755605 1.841883 -1.039050
v 1.745519 1.825259 -1.017990
v 1.774996 1.920108 -1.007984
v 1.792246 1.897216 -1.008039
v 1.795922 1.868898 -1.005556
v 1.785038 1.842741 -1.001200
v 1.762512 1.825754 -0.996137
v 1.764821 1.924636 -0.982636
v 1.774623 1.905060 -0.964135
v 1.775573 1.877955 -0.954859
v 1.767415 1.850585 -0.957295
v 1.752337 1.830283 -0.970789
v 1.730835 1.923646 -1.026342
v 1.715757 1.903344 -1.039836
v 1.762813 1.896358 -1.045890
v 1.810586 1.908883 -1.055422
v 1.812987 1.908953 -1.052334
v 1.780961 1.921185 -1.038867
v 1.791481 1.879766 -1.050894
v 1.789372 1.921431 -1.028050
v 1.804528 1.880147 -1.034115
v 1.730521 1.915686 -1.084296
v 1.741659 1.914032 -1.085729
v 1.736293 1.922270 -1.067767
v 1.731203 1.895534 -1.073094
v 1.741397 1.921512 -1.068424
v 1.736322 1.894774 -1.073753
vt 0.274240 0.539347
vt 0.265397 0.539709
vt 0.266768 0.532487
vt 0.231414 0.551290
vt 0.214659 0.541092
vt 0.231357 0.542861
vt 0.231940 0.569242
vt 0.215985 0.562822
vt 0.231472 0.559719
vt 0.230890 0.533338
vt 0.220414 0.530957
vt 0.213134 0.552274
vt 0.289666 0.544440
vt 0.282983 0.540904
vt 0.290637 0.536818
vt 0.279682 0.529141
vt 0.275518 0.536619
vt 0.273707 0.532162
vt 0.280945 0.538772
vt 0.286431 0.530872
vt 0.290637 0.551375
vt 0.284312 0.543753
vt 0.278488 0.537315
vt 0.276318 0.541045
vt 0.804698 0.251197
vt 0.792375 0.255919
vt 0.792638 0.252041
vt 0.786357 0.239035
vt 0.792578 0.249274
vt 0.791489 0.249454
vt 0.271776 0.541127
vt 0.760733 0.199751
vt 0.757502 0.209505
vt 0.750621 0.206121
vt 0.278108 0.542645
vt 0.273009 0.544115
vt 0.772804 0.201934
vt 0.766718 0.213101
vt 0.766203 0.208706
vt 0.264007 0.548518
vt 0.277612 0.547903
vt 0.268747 0.555467
vt 0.275021 0.546378
vt 0.280714 0.548498
vt 0.281954 0.545638
vt 0.276612 0.557409
vt 0.240880 0.530957
vt 0.248168 0.561486
vt 0.249693 0.550306
vt 0.246843 0.539760
vt 0.242415 0.571620
vt 0.762287 0.211045
vt 0.762255 0.210544
vt 0.761023 0.221925
vt 0.757316 0.212491
vt 0.750922 0.216572
vt 0.772804 0.220841
vt 0.791613 0.252007
vt 0.791097 0.255536
vt 0.780068 0.250772
vt 0.780487 0.263708
vt 0.804698 0.264828
vt 0.798786 0.238814
vt 0.221949 0.571626
vt 0.283377 0.553479
vn -0.1302 -0.9838 0.1235
vn -0.7880 -0.0485 0.6138
vn -0.5034 0.7790 0.3738
vn -0.6739 -0.5091 0.5355
vn -0.7291 0.3963 0.5580
vn -0.6109 0.6998 -0.3702
vn -0.7813 -0.5883 -0.2085
vn -0.8676 0.2942 -0.4008
vn 0.1302 0.9838 -0.1235
vn -0.9265 -0.1505 -0.3450
vn -0.1927 -0.7232 -0.6632
vn 0.6301 -0.5284 -0.5690
vn -0.1679 -0.3244 -0.9309
vn 0.1451 0.9893 -0.0137
vn 0.5034 -0.7790 -0.3738
vn 0.6817 0.5124 0.5222
vn 0.7291 -0.3963 -0.5580
vn 0.3487 -0.9031 -0.2507
vn 0.6109 -0.6998 0.3702
vn 0.9265 0.1505 0.3450
vn 0.8676 -0.2942 0.4008
vn 0.7813 0.5883 0.2085
vn 0.0223 -0.5648 0.8249
vn 0.1679 0.3244 0.9309
vn 0.1091 -0.1203 0.9867
vn 0.1927 0.7232 0.6632
vn 0.6777 -0.5248 -0.5151
vn 0.2632 0.9379 -0.2260
vn -0.2866 0.4489 -0.8464
vn -0.0592 0.9980 0.0234
vn 0.9054 0.0027 0.4247
vn -0.1028 0.1202 -0.9874
vn -0.1819 -0.4825 -0.8568
vn 0.0851 0.9151 -0.3942
vn -0.8398 0.2911 -0.4583
vn -0.1927 -0.7550 -0.6267
vn 0.8444 0.4115 -0.3431
vn -0.7039 0.7094 -0.0368
vn -0.7880 -0.0484 0.6138
vn -0.6738 -0.5091 0.5355
vn 0.7218 0.0595 -0.6896
vn 0.7395 0.4788 0.4732
vn 0.3487 -0.9031 -0.2506
vn 0.8676 -0.2943 0.4008
vn -0.3491 0.4824 -0.8034
vn 0.9287 0.1503 0.3391
vn -0.1882 -0.0292 -0.9817
vn -0.1819 -0.4824 -0.8569
vn -0.9018 -0.2329 -0.3641
vn 0.8295 0.5172 -0.2110
vn -0.7567 0.6424 -0.1210
s off
f 59/66/54 69/67/54 47/68/54
f 45/69/55 51/70/55 46/71/55
f 43/72/56 49/73/56 44/74/56
f 47/75/57 51/70/57 52/76/57
f 44/74/58 50/77/58 45/69/58
f 48/78/59 71/79/59 49/80/59
f 51/81/60 55/82/60 52/83/60
f 49/80/61 53/84/61 50/85/61
f 43/86/62 70/87/62 48/78/62
f 50/85/63 54/88/63 51/81/63
f 55/82/64 58/89/64 59/66/64
f 72/90/65 84/91/65 80/92/65
f 53/84/66 58/89/66 54/88/66
f 70/93/67 83/94/67 81/95/67
f 58/89/68 64/96/68 59/66/68
f 61/97/69 77/98/69 60/99/69
f 57/100/70 63/101/70 58/89/70
f 62/102/71 76/103/71 78/104/71
f 64/96/72 68/105/72 69/67/72
f 61/106/73 67/107/73 62/108/73
f 43/86/62 60/109/62 56/110/62
f 62/108/74 68/105/74 63/101/74
f 60/109/75 66/111/75 61/106/75
f 69/112/76 46/71/76 47/75/76
f 66/113/77 45/69/77 67/114/77
f 67/114/78 46/71/78 68/115/78
f 65/116/79 44/74/79 66/113/79
f 55/82/54 47/68/54 52/83/54
f 73/117/80 78/104/80 76/103/80
f 73/117/81 77/98/81 74/118/81
f 72/119/82 75/120/82 73/117/82
f 60/99/83 75/120/83 56/121/83
f 61/97/84 78/104/84 74/118/84
f 72/119/85 76/103/85 57/122/85
f 79/123/86 84/91/86 82/124/86
f 79/123/87 83/94/87 80/92/87
f 71/125/88 82/124/88 53/126/88
f 53/126/89 84/91/89 57/127/89
f 72/90/90 83/94/90 56/128/90
f 71/125/91 81/95/91 79/123/91
f 59/66/54 64/96/54 69/67/54
f 45/69/92 50/77/92 51/70/92
f 43/72/56 48/129/56 49/73/56
f 47/75/93 46/71/93 51/70/93
f 44/74/58 49/73/58 50/77/58
f 48/78/59 70/87/59 71/79/59
f 51/81/60 54/88/60 55/82/60
f 49/80/61 71/79/61 53/84/61
f 43/86/62 56/110/62 70/87/62
f 50/85/63 53/84/63 54/88/63
f 55/82/64 54/88/64 58/89/64
f 72/90/94 57/127/94 84/91/94
f 53/84/66 57/100/66 58/89/66
f 70/93/67 56/128/67 83/94/67
f 58/89/68 63/101/68 64/96/68
f 61/97/95 74/118/95 77/98/95
f 57/100/70 62/108/70 63/101/70
f 62/102/96 57/122/96 76/103/96
f 64/96/72 63/101/72 68/105/72
f 61/106/73 66/111/73 67/107/73
f 43/86/62 65/130/62 60/109/62
f 62/108/97 67/107/97 68/105/97
f 60/109/75 65/130/75 66/111/75
f 69/112/76 68/115/76 46/71/76
f 66/113/77 44/74/77 45/69/77
f 67/114/78 45/69/78 46/71/78
f 65/116/79 43/72/79 44/74/79
f 55/82/54 59/66/54 47/68/54
f 73/117/80 74/118/80 78/104/80
f 73/117/81 75/120/81 77/98/81
f 72/119/98 56/121/98 75/120/98
f 60/99/83 77/98/83 75/120/83
f 61/97/99 62/102/99 78/104/99
f 72/119/100 73/117/100 76/103/100
f 79/123/101 80/92/101 84/91/101
f 79/123/87 81/95/87 83/94/87
f 71/125/102 79/123/102 82/124/102
f 53/126/89 82/124/89 84/91/89
f 72/90/103 80/92/103 83/94/103
f 71/125/104 70/93/104 81/95/104
