# Blender v2.81 (sub 16) OBJ File: 'garbage.blend'
# www.blender.org
v 1.354514 2.752054 1.335140
v 1.331661 2.738940 1.346426
v 1.318579 2.714965 1.355124
v 1.318774 2.686552 1.358902
v 1.332192 2.661315 1.356750
v 1.357765 2.744930 1.308584
v 1.337292 2.726601 1.300429
v 1.325081 2.700717 1.302011
v 1.324404 2.674213 1.312906
v 1.335443 2.654191 1.330193
v 1.374629 2.684156 1.283653
v 1.367314 2.659871 1.297007
v 1.360217 2.645911 1.321015
v 1.404062 2.735493 1.316782
v 1.417675 2.681844 1.318408
v 1.404593 2.657868 1.327106
v 1.381740 2.644755 1.338392
v 1.400811 2.742618 1.343339
v 1.411850 2.722596 1.360627
v 1.411173 2.696092 1.371521
v 1.398963 2.670208 1.373103
v 1.378489 2.651879 1.364949
v 1.376037 2.750898 1.352518
v 1.368940 2.736938 1.376525
v 1.361626 2.712653 1.389879
v 1.356053 2.684550 1.389001
v 1.353715 2.660159 1.374127
v 1.382539 2.736650 1.299405
v 1.380201 2.712259 1.284531
v 1.417481 2.710256 1.314630
v 1.458774 2.726569 1.338267
v 1.458315 2.727575 1.342020
v 1.426788 2.738107 1.326152
v 1.440444 2.696796 1.334968
v 1.425179 2.741634 1.339297
v 1.437948 2.702266 1.355358
v 1.422572 2.717028 1.261530
v 1.431395 2.716554 1.268654
v 1.415423 2.727537 1.275253
v 1.414093 2.699850 1.274378
v 1.419467 2.727320 1.278518
v 1.418149 2.699632 1.277653
vt 0.274240 0.539347
vt 0.265397 0.539709
vt 0.266768 0.532487
vt 0.231414 0.551290
vt 0.214659 0.541092
vt 0.231357 0.542861
vt 0.231940 0.569242
vt 0.215985 0.562822
vt 0.231472 0.559719
vt 0.230890 0.533338
vt 0.220414 0.530957
vt 0.213134 0.552274
vt 0.289666 0.544440
vt 0.282983 0.540904
vt 0.290637 0.536818
vt 0.279682 0.529141
vt 0.275518 0.536619
vt 0.273707 0.532162
vt 0.280945 0.538772
vt 0.286431 0.530872
vt 0.290637 0.551375
vt 0.284312 0.543753
vt 0.278488 0.537315
vt 0.276318 0.541045
vt 0.804698 0.251197
vt 0.792375 0.255919
vt 0.792638 0.252041
vt 0.786357 0.239035
vt 0.792578 0.249274
vt 0.791489 0.249454
vt 0.271776 0.541127
vt 0.760733 0.199751
vt 0.757502 0.209505
vt 0.750621 0.206121
vt 0.278108 0.542645
vt 0.273009 0.544115
vt 0.772804 0.201934
vt 0.766718 0.213101
vt 0.766203 0.208706
vt 0.264007 0.548518
vt 0.277612 0.547903
vt 0.268747 0.555467
vt 0.275021 0.546378
vt 0.280714 0.548498
vt 0.281954 0.545638
vt 0.276612 0.557409
vt 0.240880 0.530957
vt 0.248168 0.561486
vt 0.249693 0.550306
vt 0.246843 0.539760
vt 0.242415 0.571620
vt 0.762287 0.211045
vt 0.762255 0.210544
vt 0.761023 0.221925
vt 0.757316 0.212491
vt 0.750922 0.216572
vt 0.772804 0.220841
vt 0.791613 0.252007
vt 0.791097 0.255536
vt 0.780068 0.250772
vt 0.780487 0.263708
vt 0.804698 0.264828
vt 0.798786 0.238814
vt 0.221949 0.571626
vt 0.283377 0.553479
vn -0.2327 -0.9461 0.2253
vn -0.9930 -0.0222 -0.1156
vn -0.5774 0.7681 -0.2767
vn -0.8822 -0.4706 0.0183
vn -0.8878 0.4055 -0.2175
vn -0.1357 0.5253 -0.8400
vn -0.4404 -0.7134 -0.5450
vn -0.3186 0.0926 -0.9434
vn 0.2327 0.9461 -0.2253
vn -0.4238 -0.3351 -0.8415
vn 0.2894 -0.8622 -0.4158
vn 0.8180 -0.5487 0.1724
vn 0.5167 -0.5268 -0.6750
vn 0.1666 0.9758 -0.1414
vn 0.5774 -0.7681 0.2768
vn 0.1453 0.6913 0.7078
vn 0.8878 -0.4055 0.2175
vn 0.3743 -0.8831 0.2827
vn 0.1357 -0.5253 0.8400
vn 0.4238 0.3351 0.8415
vn 0.3186 -0.0926 0.9434
vn 0.4404 0.7134 0.5450
vn -0.5941 -0.3765 0.7108
vn -0.5167 0.5268 0.6750
vn -0.6219 0.0991 0.7768
vn -0.2894 0.8622 0.4158
vn 0.8142 -0.5280 0.2413
vn 0.3966 0.8976 -0.1921
vn 0.4152 0.2258 -0.8812
vn -0.0041 0.9657 -0.2596
vn 0.3448 0.2053 0.9160
vn 0.6268 -0.0985 -0.7729
vn 0.4462 -0.6667 -0.5970
vn 0.3871 0.8182 -0.4250
vn -0.2586 0.0813 -0.9626
vn 0.2620 -0.8856 -0.3835
vn 0.8628 0.4371 0.2540
vn -0.4353 0.5909 -0.6792
vn 0.9998 0.0089 0.0155
vn 0.5774 -0.7681 0.2767
vn 0.2190 0.6560 0.7223
vn 0.8142 -0.5281 0.2413
vn 0.3966 0.8976 -0.1922
vn 0.3425 0.2591 -0.9031
vn -0.0041 0.9657 -0.2595
vn 0.4295 0.3339 0.8391
vn 0.5540 -0.2532 -0.7931
vn 0.4461 -0.6667 -0.5970
vn 0.3871 0.8183 -0.4250
vn -0.3973 -0.4158 -0.8181
vn 0.2621 -0.8856 -0.3834
vn 0.7652 0.5648 0.3089
vn -0.4173 0.5020 -0.7576
s off
f 17/1/1 27/2/1 5/3/1
f 3/4/2 9/5/2 4/6/2
f 1/7/3 7/8/3 2/9/3
f 5/10/4 9/5/4 10/11/4
f 2/9/5 8/12/5 3/4/5
f 6/13/6 29/14/6 7/15/6
f 9/16/7 13/17/7 10/18/7
f 7/15/8 11/19/8 8/20/8
f 1/21/9 28/22/9 6/13/9
f 8/20/10 12/23/10 9/16/10
f 13/17/11 16/24/11 17/1/11
f 30/25/12 42/26/12 38/27/12
f 11/19/13 16/24/13 12/23/13
f 28/28/14 41/29/14 39/30/14
f 16/24/15 22/31/15 17/1/15
f 19/32/16 35/33/16 18/34/16
f 15/35/17 21/36/17 16/24/17
f 20/37/18 34/38/18 36/39/18
f 22/31/19 26/40/19 27/2/19
f 19/41/20 25/42/20 20/43/20
f 1/21/9 18/44/9 14/45/9
f 20/43/21 26/40/21 21/36/21
f 18/44/22 24/46/22 19/41/22
f 27/47/23 4/6/23 5/10/23
f 24/48/24 3/4/24 25/49/24
f 25/49/25 4/6/25 26/50/25
f 23/51/26 2/9/26 24/48/26
f 13/17/1 5/3/1 10/18/1
f 31/52/27 36/39/27 34/38/27
f 31/52/28 35/33/28 32/53/28
f 30/54/29 33/55/29 31/52/29
f 18/34/30 33/55/30 14/56/30
f 19/32/31 36/39/31 32/53/31
f 30/54/32 34/38/32 15/57/32
f 37/58/33 42/26/33 40/59/33
f 37/58/34 41/29/34 38/27/34
f 29/60/35 40/59/35 11/61/35
f 11/61/36 42/26/36 15/62/36
f 30/25/37 41/29/37 14/63/37
f 29/60/38 39/30/38 37/58/38
f 17/1/1 22/31/1 27/2/1
f 3/4/2 8/12/2 9/5/2
f 1/7/3 6/64/3 7/8/3
f 5/10/4 4/6/4 9/5/4
f 2/9/5 7/8/5 8/12/5
f 6/13/6 28/22/6 29/14/6
f 9/16/7 12/23/7 13/17/7
f 7/15/8 29/14/8 11/19/8
f 1/21/9 14/45/9 28/22/9
f 8/20/10 11/19/10 12/23/10
f 13/17/11 12/23/11 16/24/11
f 30/25/39 15/62/39 42/26/39
f 11/19/13 15/35/13 16/24/13
f 28/28/14 14/63/14 41/29/14
f 16/24/40 21/36/40 22/31/40
f 19/32/41 32/53/41 35/33/41
f 15/35/17 20/43/17 21/36/17
f 20/37/18 15/57/18 34/38/18
f 22/31/19 21/36/19 26/40/19
f 19/41/20 24/46/20 25/42/20
f 1/21/9 23/65/9 18/44/9
f 20/43/21 25/42/21 26/40/21
f 18/44/22 23/65/22 24/46/22
f 27/47/23 26/50/23 4/6/23
f 24/48/24 2/9/24 3/4/24
f 25/49/25 3/4/25 4/6/25
f 23/51/26 1/7/26 2/9/26
f 13/17/1 17/1/1 5/3/1
f 31/52/42 32/53/42 36/39/42
f 31/52/43 33/55/43 35/33/43
f 30/54/44 14/56/44 33/55/44
f 18/34/45 35/33/45 33/55/45
f 19/32/46 20/37/46 36/39/46
f 30/54/47 31/52/47 34/38/47
f 37/58/48 38/27/48 42/26/48
f 37/58/49 39/30/49 41/29/49
f 29/60/50 37/58/50 40/59/50
f 11/61/51 40/59/51 42/26/51
f 30/25/52 38/27/52 41/29/52
f 29/60/53 28/28/53 39/30/53
v 0.780594 2.323556 -1.096260
v 0.794877 2.301715 -1.108117
v 0.797597 2.273619 -1.113096
v 0.788025 2.246795 -1.109863
v 0.768726 2.228431 -1.099284
v 0.782223 2.322475 -1.068642
v 0.797699 2.299843 -1.060282
v 0.800855 2.271456 -1.057861
v 0.790847 2.244922 -1.062028
v 0.770355 2.227350 -1.071666
v 0.754982 2.276206 -1.027212
v 0.751119 2.249035 -1.035485
v 0.747419 2.229724 -1.056342
v 0.734720 2.328305 -1.065612
v 0.705850 2.283117 -1.051800
v 0.708570 2.255020 -1.056779
v 0.722853 2.233180 -1.068636
v 0.733091 2.329386 -1.093230
v 0.712600 2.311813 -1.102868
v 0.702591 2.285279 -1.107035
v 0.705748 2.256893 -1.104614
v 0.721223 2.234261 -1.096253
v 0.756028 2.327011 -1.108554
v 0.752327 2.307701 -1.129410
v 0.748465 2.280530 -1.137683
v 0.745475 2.252780 -1.131156
v 0.744160 2.231886 -1.111578
v 0.759286 2.324849 -1.053318
v 0.757971 2.303955 -1.033740
v 0.715422 2.309941 -1.055033
v 0.676252 2.335304 -1.073806
v 0.676022 2.335457 -1.077709
v 0.712198 2.336982 -1.070952
v 0.685126 2.302027 -1.066938
v 0.711391 2.337517 -1.084623
v 0.683875 2.302857 -1.088143
v 0.726215 2.326724 -1.005101
v 0.716144 2.328140 -1.010141
v 0.732434 2.331715 -1.022020
v 0.725662 2.305807 -1.014808
v 0.727819 2.332364 -1.024330
v 0.721033 2.306458 -1.017125
vt 0.274240 0.539347
vt 0.265397 0.539709
vt 0.266768 0.532487
vt 0.231414 0.551290
vt 0.214659 0.541092
vt 0.231357 0.542861
vt 0.231940 0.569242
vt 0.215985 0.562822
vt 0.231472 0.559719
vt 0.230890 0.533338
vt 0.220414 0.530957
vt 0.213134 0.552274
vt 0.289666 0.544440
vt 0.282983 0.540904
vt 0.290637 0.536818
vt 0.279682 0.529141
vt 0.275518 0.536619
vt 0.273707 0.532162
vt 0.280945 0.538772
vt 0.286431 0.530872
vt 0.290637 0.551375
vt 0.284312 0.543753
vt 0.278488 0.537315
vt 0.276318 0.541045
vt 0.804698 0.251197
vt 0.792375 0.255919
vt 0.792638 0.252041
vt 0.786357 0.239035
vt 0.792578 0.249274
vt 0.791489 0.249454
vt 0.271776 0.541127
vt 0.760733 0.199751
vt 0.757502 0.209505
vt 0.750621 0.206121
vt 0.278108 0.542645
vt 0.273009 0.544115
vt 0.772804 0.201934
vt 0.766718 0.213101
vt 0.766203 0.208706
vt 0.264007 0.548518
vt 0.277612 0.547903
vt 0.268747 0.555467
vt 0.275021 0.546378
vt 0.280714 0.548498
vt 0.281954 0.545638
vt 0.276612 0.557409
vt 0.240880 0.530957
vt 0.248168 0.561486
vt 0.249693 0.550306
vt 0.246843 0.539760
vt 0.242415 0.571620
vt 0.762287 0.211045
vt 0.762255 0.210544
vt 0.761023 0.221925
vt 0.757316 0.212491
vt 0.750922 0.216572
vt 0.772804 0.220841
vt 0.791613 0.252007
vt 0.791097 0.255536
vt 0.780068 0.250772
vt 0.780487 0.263708
vt 0.804698 0.264828
vt 0.798786 0.238814
vt 0.221949 0.571626
vt 0.283377 0.553479
vn -0.1237 -0.9918 -0.0315
vn 0.9370 -0.3426 -0.0687
vn 0.8298 0.5574 -0.0271
vn 0.6678 -0.7412 -0.0684
vn 0.9929 0.1058 -0.0544
vn 0.4939 0.5778 0.6498
vn 0.3319 -0.7208 0.6085
vn 0.5601 0.1320 0.8178
vn 0.1237 0.9918 0.0315
vn 0.5041 -0.3164 0.8036
vn -0.4169 -0.6289 0.6563
vn -0.9597 -0.2546 0.1187
vn -0.4608 -0.1979 0.8652
vn 0.1722 0.9827 -0.0679
vn -0.8298 -0.5574 0.0271
vn -0.1081 0.5720 -0.8131
vn -0.9929 -0.1058 0.0544
vn -0.6785 -0.7345 0.0113
vn -0.4939 -0.5778 -0.6498
vn -0.5041 0.3163 -0.8036
vn -0.5601 -0.1320 -0.8179
vn -0.3319 0.7208 -0.6085
vn 0.2549 -0.6697 -0.6975
vn 0.4608 0.1979 -0.8652
vn 0.4048 -0.2505 -0.8794
vn 0.4169 0.6289 -0.6563
vn -0.9675 -0.2482 0.0474
vn -0.0499 0.9979 0.0420
vn -0.0917 0.4970 0.8629
vn 0.3563 0.9343 0.0156
vn -0.4889 0.1569 -0.8581
vn -0.4102 0.2520 0.8765
vn -0.4572 -0.3644 0.8113
vn -0.0056 0.9597 0.2810
vn 0.5064 0.1454 0.8500
vn -0.4068 -0.6653 0.6260
vn -0.7290 0.6586 -0.1866
vn 0.7484 0.5089 0.4253
vn 0.5601 0.1320 0.8179
vn 0.5041 -0.3163 0.8036
vn -0.9218 0.3492 0.1685
vn 0.1722 0.9827 -0.0678
vn -0.1901 0.5623 -0.8048
vn -0.5601 -0.1320 -0.8178
vn 0.4049 -0.2505 -0.8794
vn -0.0093 0.5065 0.8622
vn 0.3563 0.9343 0.0155
vn -0.5091 0.3177 -0.7999
vn -0.3840 0.0873 0.9192
vn -0.0057 0.9597 0.2811
vn 0.4499 -0.3857 0.8055
vn -0.4069 -0.6653 0.6259
vn -0.6152 0.7340 -0.2877
vn 0.7254 0.4458 0.5245
s off
f 59/66/54 69/67/54 47/68/54
f 45/69/55 51/70/55 46/71/55
f 43/72/56 49/73/56 44/74/56
f 47/75/57 51/70/57 52/76/57
f 44/74/58 50/77/58 45/69/58
f 48/78/59 71/79/59 49/80/59
f 51/81/60 55/82/60 52/83/60
f 49/80/61 53/84/61 50/85/61
f 43/86/62 70/87/62 48/78/62
f 50/85/63 54/88/63 51/81/63
f 55/82/64 58/89/64 59/66/64
f 72/90/65 84/91/65 80/92/65
f 53/84/66 58/89/66 54/88/66
f 70/93/67 83/94/67 81/95/67
f 58/89/68 64/96/68 59/66/68
f 61/97/69 77/98/69 60/99/69
f 57/100/70 63/101/70 58/89/70
f 62/102/71 76/103/71 78/104/71
f 64/96/72 68/105/72 69/67/72
f 61/106/73 67/107/73 62/108/73
f 43/86/62 60/109/62 56/110/62
f 62/108/74 68/105/74 63/101/74
f 60/109/75 66/111/75 61/106/75
f 69/112/76 46/71/76 47/75/76
f 66/113/77 45/69/77 67/114/77
f 67/114/78 46/71/78 68/115/78
f 65/116/79 44/74/79 66/113/79
f 55/82/54 47/68/54 52/83/54
f 73/117/80 78/104/80 76/103/80
f 73/117/81 77/98/81 74/118/81
f 72/119/82 75/120/82 73/117/82
f 60/99/83 75/120/83 56/121/83
f 61/97/84 78/104/84 74/118/84
f 72/119/85 76/103/85 57/122/85
f 79/123/86 84/91/86 82/124/86
f 79/123/87 83/94/87 80/92/87
f 71/125/88 82/124/88 53/126/88
f 53/126/89 84/91/89 57/127/89
f 72/90/90 83/94/90 56/128/90
f 71/125/91 81/95/91 79/123/91
f 59/66/54 64/96/54 69/67/54
f 45/69/55 50/77/55 51/70/55
f 43/72/56 48/129/56 49/73/56
f 47/75/57 46/71/57 51/70/57
f 44/74/58 49/73/58 50/77/58
f 48/78/59 70/87/59 71/79/59
f 51/81/60 54/88/60 55/82/60
f 49/80/92 71/79/92 53/84/92
f 43/86/62 56/110/62 70/87/62
f 50/85/93 53/84/93 54/88/93
f 55/82/64 54/88/64 58/89/64
f 72/90/94 57/127/94 84/91/94
f 53/84/66 57/100/66 58/89/66
f 70/93/95 56/128/95 83/94/95
f 58/89/68 63/101/68 64/96/68
f 61/97/96 74/118/96 77/98/96
f 57/100/70 62/108/70 63/101/70
f 62/102/71 57/122/71 76/103/71
f 64/96/72 63/101/72 68/105/72
f 61/106/73 66/111/73 67/107/73
f 43/86/62 65/130/62 60/109/62
f 62/108/97 67/107/97 68/105/97
f 60/109/75 65/130/75 66/111/75
f 69/112/76 68/115/76 46/71/76
f 66/113/77 44/74/77 45/69/77
f 67/114/98 45/69/98 46/71/98
f 65/116/79 43/72/79 44/74/79
f 55/82/54 59/66/54 47/68/54
f 73/117/80 74/118/80 78/104/80
f 73/117/81 75/120/81 77/98/81
f 72/119/99 56/121/99 75/120/99
f 60/99/100 77/98/100 75/120/100
f 61/97/101 62/102/101 78/104/101
f 72/119/102 73/117/102 76/103/102
f 79/123/86 80/92/86 84/91/86
f 79/123/103 81/95/103 83/94/103
f 71/125/104 79/123/104 82/124/104
f 53/126/105 82/124/105 84/91/105
f 72/90/106 80/92/106 83/94/106
f 71/125/107 70/93/107 81/95/107
