# Blender v2.81 (sub 16) OBJ File: 'garbage.blend'
# www.blender.org
v 1.197628 2.799637 1.376348
v 1.174033 2.785738 1.384815
v 1.160939 2.761395 1.392402
v 1.161856 2.733130 1.397076
v 1.176537 2.708517 1.397584
v 1.204824 2.792001 1.350726
v 1.186496 2.772511 1.340437
v 1.175331 2.746121 1.341159
v 1.174319 2.719903 1.352698
v 1.183733 2.700880 1.371962
v 1.227617 2.731485 1.330287
v 1.219600 2.707227 1.343282
v 1.209876 2.693562 1.366526
v 1.249914 2.785001 1.365476
v 1.265512 2.732123 1.370658
v 1.252418 2.707779 1.378245
v 1.228823 2.693881 1.386712
v 1.242718 2.792638 1.391098
v 1.252132 2.773615 1.410362
v 1.251120 2.747396 1.421901
v 1.239955 2.721007 1.422623
v 1.221627 2.701517 1.412334
v 1.216575 2.799956 1.396533
v 1.206851 2.786290 1.419778
v 1.198834 2.762033 1.432773
v 1.194674 2.733682 1.432038
v 1.195484 2.708835 1.417770
v 1.230967 2.784683 1.345290
v 1.231777 2.759836 1.331022
v 1.264595 2.760388 1.365984
v 1.301474 2.779255 1.394515
v 1.300457 2.780334 1.398135
v 1.270992 2.788937 1.377777
v 1.285098 2.748565 1.389691
v 1.267430 2.792717 1.390459
v 1.279573 2.754429 1.409363
v 1.276667 2.766036 1.313891
v 1.284435 2.766167 1.322166
v 1.267239 2.776539 1.326165
v 1.267257 2.748806 1.326000
v 1.270799 2.776598 1.329958
v 1.270828 2.748866 1.329804
vt 0.274240 0.539347
vt 0.265397 0.539709
vt 0.266768 0.532487
vt 0.231414 0.551290
vt 0.214659 0.541092
vt 0.231357 0.542861
vt 0.231940 0.569242
vt 0.215985 0.562822
vt 0.231472 0.559719
vt 0.230890 0.533338
vt 0.220414 0.530957
vt 0.213134 0.552274
vt 0.289666 0.544440
vt 0.282983 0.540904
vt 0.290637 0.536818
vt 0.279682 0.529141
vt 0.275518 0.536619
vt 0.273707 0.532162
vt 0.280945 0.538772
vt 0.286431 0.530872
vt 0.290637 0.551375
vt 0.284312 0.543753
vt 0.278488 0.537315
vt 0.276318 0.541045
vt 0.804698 0.251197
vt 0.792375 0.255919
vt 0.792638 0.252041
vt 0.786357 0.239035
vt 0.792578 0.249274
vt 0.791489 0.249454
vt 0.271776 0.541127
vt 0.760733 0.199751
vt 0.757502 0.209505
vt 0.750621 0.206121
vt 0.278108 0.542645
vt 0.273009 0.544115
vt 0.772804 0.201934
vt 0.766718 0.213101
vt 0.766203 0.208706
vt 0.264007 0.548518
vt 0.277612 0.547903
vt 0.268747 0.555467
vt 0.275021 0.546378
vt 0.280714 0.548498
vt 0.281954 0.545638
vt 0.276612 0.557409
vt 0.240880 0.530957
vt 0.248168 0.561486
vt 0.249693 0.550306
vt 0.246843 0.539760
vt 0.242415 0.571620
vt 0.762287 0.211045
vt 0.762255 0.210544
vt 0.761023 0.221925
vt 0.757316 0.212491
vt 0.750922 0.216572
vt 0.772804 0.220841
vt 0.791613 0.252007
vt 0.791097 0.255536
vt 0.780068 0.250772
vt 0.780487 0.263708
vt 0.804698 0.264828
vt 0.798786 0.238814
vt 0.221949 0.571626
vt 0.283377 0.553479
vn -0.2199 -0.9501 0.2214
vn -0.9656 -0.0726 -0.2496
vn -0.5668 0.7323 -0.3775
vn -0.8547 -0.5116 -0.0875
vn -0.8662 0.3569 -0.3497
vn -0.0413 0.4966 -0.8670
vn -0.3292 -0.7474 -0.5771
vn -0.1890 0.0532 -0.9805
vn 0.2199 0.9501 -0.2214
vn -0.2884 -0.3764 -0.8804
vn 0.3816 -0.8577 -0.3446
vn 0.8097 -0.5044 0.3001
vn 0.6275 -0.5185 -0.5808
vn 0.1416 0.9787 -0.1484
vn 0.5668 -0.7323 0.3775
vn 0.0157 0.7153 0.6986
vn 0.8662 -0.3569 0.3497
vn 0.3701 -0.8567 0.3593
vn 0.0413 -0.4966 0.8670
vn 0.2884 0.3764 0.8804
vn 0.1890 -0.0532 0.9805
vn 0.3292 0.7474 0.5771
vn -0.6695 -0.3862 0.6345
vn -0.6275 0.5185 0.5808
vn -0.7269 0.0890 0.6809
vn -0.3816 0.8577 0.3446
vn 0.7955 -0.4822 0.3671
vn 0.3796 0.9103 -0.1648
vn 0.5226 0.2228 -0.8229
vn -0.0105 0.9575 -0.2883
vn 0.2057 0.2448 0.9475
vn 0.7313 -0.0881 -0.6764
vn 0.5531 -0.6597 -0.5088
vn 0.4058 0.8247 -0.3939
vn -0.1265 0.0443 -0.9910
vn 0.3511 -0.8816 -0.3156
vn 0.7995 0.4842 0.3555
vn -0.3628 0.5519 -0.7509
vn -0.8547 -0.5116 -0.0876
vn -0.0413 0.4965 -0.8670
vn 0.9868 0.0571 0.1518
vn 0.1415 0.9788 -0.1483
vn 0.0881 0.6839 0.7242
vn 0.3292 0.7473 0.5771
vn 0.7955 -0.4821 0.3671
vn 0.3796 0.9104 -0.1647
vn 0.4522 0.2521 -0.8555
vn 0.2945 0.3754 0.8788
vn 0.6688 -0.2466 -0.7014
vn -0.2619 -0.4551 -0.8511
vn 0.6897 0.6084 0.3925
vn -0.3303 0.4619 -0.8231
s off
f 17/1/1 27/2/1 5/3/1
f 3/4/2 9/5/2 4/6/2
f 1/7/3 7/8/3 2/9/3
f 5/10/4 9/5/4 10/11/4
f 2/9/5 8/12/5 3/4/5
f 6/13/6 29/14/6 7/15/6
f 9/16/7 13/17/7 10/18/7
f 7/15/8 11/19/8 8/20/8
f 1/21/9 28/22/9 6/13/9
f 8/20/10 12/23/10 9/16/10
f 13/17/11 16/24/11 17/1/11
f 30/25/12 42/26/12 38/27/12
f 11/19/13 16/24/13 12/23/13
f 28/28/14 41/29/14 39/30/14
f 16/24/15 22/31/15 17/1/15
f 19/32/16 35/33/16 18/34/16
f 15/35/17 21/36/17 16/24/17
f 20/37/18 34/38/18 36/39/18
f 22/31/19 26/40/19 27/2/19
f 19/41/20 25/42/20 20/43/20
f 1/21/9 18/44/9 14/45/9
f 20/43/21 26/40/21 21/36/21
f 18/44/22 24/46/22 19/41/22
f 27/47/23 4/6/23 5/10/23
f 24/48/24 3/4/24 25/49/24
f 25/49/25 4/6/25 26/50/25
f 23/51/26 2/9/26 24/48/26
f 13/17/1 5/3/1 10/18/1
f 31/52/27 36/39/27 34/38/27
f 31/52/28 35/33/28 32/53/28
f 30/54/29 33/55/29 31/52/29
f 18/34/30 33/55/30 14/56/30
f 19/32/31 36/39/31 32/53/31
f 30/54/32 34/38/32 15/57/32
f 37/58/33 42/26/33 40/59/33
f 37/58/34 41/29/34 38/27/34
f 29/60/35 40/59/35 11/61/35
f 11/61/36 42/26/36 15/62/36
f 30/25/37 41/29/37 14/63/37
f 29/60/38 39/30/38 37/58/38
f 17/1/1 22/31/1 27/2/1
f 3/4/2 8/12/2 9/5/2
f 1/7/3 6/64/3 7/8/3
f 5/10/39 4/6/39 9/5/39
f 2/9/5 7/8/5 8/12/5
f 6/13/40 28/22/40 29/14/40
f 9/16/7 12/23/7 13/17/7
f 7/15/8 29/14/8 11/19/8
f 1/21/9 14/45/9 28/22/9
f 8/20/10 11/19/10 12/23/10
f 13/17/11 12/23/11 16/24/11
f 30/25/41 15/62/41 42/26/41
f 11/19/13 15/35/13 16/24/13
f 28/28/42 14/63/42 41/29/42
f 16/24/15 21/36/15 22/31/15
f 19/32/43 32/53/43 35/33/43
f 15/35/17 20/43/17 21/36/17
f 20/37/18 15/57/18 34/38/18
f 22/31/19 21/36/19 26/40/19
f 19/41/20 24/46/20 25/42/20
f 1/21/9 23/65/9 18/44/9
f 20/43/21 25/42/21 26/40/21
f 18/44/44 23/65/44 24/46/44
f 27/47/23 26/50/23 4/6/23
f 24/48/24 2/9/24 3/4/24
f 25/49/25 3/4/25 4/6/25
f 23/51/26 1/7/26 2/9/26
f 13/17/1 17/1/1 5/3/1
f 31/52/45 32/53/45 36/39/45
f 31/52/46 33/55/46 35/33/46
f 30/54/47 14/56/47 33/55/47
f 18/34/30 35/33/30 33/55/30
f 19/32/48 20/37/48 36/39/48
f 30/54/49 31/52/49 34/38/49
f 37/58/33 38/27/33 42/26/33
f 37/58/34 39/30/34 41/29/34
f 29/60/50 37/58/50 40/59/50
f 11/61/36 40/59/36 42/26/36
f 30/25/51 38/27/51 41/29/51
f 29/60/52 28/28/52 39/30/52
v 0.819519 2.337299 -1.159453
v 0.833192 2.313629 -1.168078
v 0.834085 2.285121 -1.170923
v 0.821959 2.259414 -1.167226
v 0.800062 2.243395 -1.157978
v 0.817792 2.338091 -1.131832
v 0.830200 2.315001 -1.120236
v 0.830630 2.286705 -1.115679
v 0.818967 2.260785 -1.119384
v 0.798334 2.244187 -1.130356
v 0.782041 2.297157 -1.091265
v 0.776887 2.269836 -1.098241
v 0.774039 2.249413 -1.118149
v 0.770929 2.347751 -1.135039
v 0.736906 2.306024 -1.122095
v 0.737799 2.277516 -1.124940
v 0.751472 2.253846 -1.133564
v 0.772657 2.346959 -1.162661
v 0.752024 2.330360 -1.173633
v 0.740360 2.304440 -1.177338
v 0.740790 2.276145 -1.172782
v 0.753199 2.253055 -1.161186
v 0.796951 2.341733 -1.174868
v 0.794104 2.321309 -1.194776
v 0.788950 2.293989 -1.201752
v 0.782871 2.267093 -1.193925
v 0.777494 2.247829 -1.173393
v 0.793497 2.343317 -1.119625
v 0.788120 2.324052 -1.099092
v 0.749032 2.331732 -1.125791
v 0.714636 2.358605 -1.150786
v 0.714880 2.358493 -1.154690
v 0.750009 2.357722 -1.143641
v 0.719785 2.325327 -1.140817
v 0.750864 2.357330 -1.157314
v 0.721112 2.324719 -1.162025
v 0.755263 2.351195 -1.076055
v 0.746012 2.353013 -1.082374
v 0.763830 2.354461 -1.092358
v 0.754083 2.329737 -1.084434
v 0.759590 2.355294 -1.095255
v 0.749831 2.330572 -1.087338
vt 0.274240 0.539347
vt 0.265397 0.539709
vt 0.266768 0.532487
vt 0.231414 0.551290
vt 0.214659 0.541092
vt 0.231357 0.542861
vt 0.231940 0.569242
vt 0.215985 0.562822
vt 0.231472 0.559719
vt 0.230890 0.533338
vt 0.220414 0.530957
vt 0.213134 0.552274
vt 0.289666 0.544440
vt 0.282983 0.540904
vt 0.290637 0.536818
vt 0.279682 0.529141
vt 0.275518 0.536619
vt 0.273707 0.532162
vt 0.280945 0.538772
vt 0.286431 0.530872
vt 0.290637 0.551375
vt 0.284312 0.543753
vt 0.278488 0.537315
vt 0.276318 0.541045
vt 0.804698 0.251197
vt 0.792375 0.255919
vt 0.792638 0.252041
vt 0.786357 0.239035
vt 0.792578 0.249274
vt 0.791489 0.249454
vt 0.271776 0.541127
vt 0.760733 0.199751
vt 0.757502 0.209505
vt 0.750621 0.206121
vt 0.278108 0.542645
vt 0.273009 0.544115
vt 0.772804 0.201934
vt 0.766718 0.213101
vt 0.766203 0.208706
vt 0.264007 0.548518
vt 0.277612 0.547903
vt 0.268747 0.555467
vt 0.275021 0.546378
vt 0.280714 0.548498
vt 0.281954 0.545638
vt 0.276612 0.557409
vt 0.240880 0.530957
vt 0.248168 0.561486
vt 0.249693 0.550306
vt 0.246843 0.539760
vt 0.242415 0.571620
vt 0.762287 0.211045
vt 0.762255 0.210544
vt 0.761023 0.221925
vt 0.757316 0.212491
vt 0.750922 0.216572
vt 0.772804 0.220841
vt 0.791613 0.252007
vt 0.791097 0.255536
vt 0.780068 0.250772
vt 0.780487 0.263708
vt 0.804698 0.264828
vt 0.798786 0.238814
vt 0.221949 0.571626
vt 0.283377 0.553479
vn -0.2029 -0.9791 0.0154
vn 0.9061 -0.4175 0.0686
vn 0.8715 0.4887 0.0405
vn 0.6059 -0.7932 0.0607
vn 0.9978 0.0251 0.0617
vn 0.4613 0.5836 0.6683
vn 0.1957 -0.6984 0.6884
vn 0.4692 0.1473 0.8707
vn 0.2029 0.9791 -0.0154
vn 0.3775 -0.2953 0.8777
vn -0.5430 -0.5461 0.6379
vn -0.9851 -0.1711 0.0153
vn -0.5745 -0.0991 0.8125
vn 0.2617 0.9592 -0.1073
vn -0.8715 -0.4887 -0.0405
vn 0.0372 0.5185 -0.8543
vn -0.9978 -0.0251 -0.0617
vn -0.7350 -0.6776 -0.0265
vn -0.4613 -0.5835 -0.6683
vn -0.3775 0.2953 -0.8777
vn -0.4692 -0.1473 -0.8707
vn -0.1957 0.6984 -0.6884
vn 0.2774 -0.7358 -0.6178
vn 0.5745 0.0991 -0.8125
vn 0.4827 -0.3436 -0.8056
vn 0.5430 0.5461 -0.6379
vn -0.9839 -0.1692 -0.0567
vn 0.0303 0.9992 -0.0266
vn -0.1500 0.5635 0.8123
vn 0.4299 0.9029 0.0010
vn -0.3695 0.1316 -0.9199
vn -0.4876 0.3453 0.8019
vn -0.5787 -0.2688 0.7699
vn 0.0428 0.9750 0.2179
vn 0.4134 0.1670 0.8951
vn -0.5326 -0.5852 0.6114
vn -0.6435 0.6974 -0.3156
vn 0.7337 0.4794 0.4816
vn 0.6059 -0.7932 0.0606
vn 0.4613 0.5835 0.6683
vn 0.1957 -0.6984 0.6885
vn -0.9022 0.4301 0.0317
vn -0.0457 0.5157 -0.8555
vn -0.4613 -0.5836 -0.6683
vn 0.2029 0.9791 -0.0153
vn -0.1957 0.6984 -0.6885
vn 0.0303 0.9992 -0.0267
vn -0.0676 0.5666 0.8212
vn -0.3827 0.2972 -0.8747
vn -0.4806 0.1826 0.8577
vn 0.3177 -0.3600 0.8772
vn -0.5126 0.7564 -0.4064
vn 0.6938 0.4255 0.5810
s off
f 59/66/53 69/67/53 47/68/53
f 45/69/54 51/70/54 46/71/54
f 43/72/55 49/73/55 44/74/55
f 47/75/56 51/70/56 52/76/56
f 44/74/57 50/77/57 45/69/57
f 48/78/58 71/79/58 49/80/58
f 51/81/59 55/82/59 52/83/59
f 49/80/60 53/84/60 50/85/60
f 43/86/61 70/87/61 48/78/61
f 50/85/62 54/88/62 51/81/62
f 55/82/63 58/89/63 59/66/63
f 72/90/64 84/91/64 80/92/64
f 53/84/65 58/89/65 54/88/65
f 70/93/66 83/94/66 81/95/66
f 58/89/67 64/96/67 59/66/67
f 61/97/68 77/98/68 60/99/68
f 57/100/69 63/101/69 58/89/69
f 62/102/70 76/103/70 78/104/70
f 64/96/71 68/105/71 69/67/71
f 61/106/72 67/107/72 62/108/72
f 43/86/61 60/109/61 56/110/61
f 62/108/73 68/105/73 63/101/73
f 60/109/74 66/111/74 61/106/74
f 69/112/75 46/71/75 47/75/75
f 66/113/76 45/69/76 67/114/76
f 67/114/77 46/71/77 68/115/77
f 65/116/78 44/74/78 66/113/78
f 55/82/53 47/68/53 52/83/53
f 73/117/79 78/104/79 76/103/79
f 73/117/80 77/98/80 74/118/80
f 72/119/81 75/120/81 73/117/81
f 60/99/82 75/120/82 56/121/82
f 61/97/83 78/104/83 74/118/83
f 72/119/84 76/103/84 57/122/84
f 79/123/85 84/91/85 82/124/85
f 79/123/86 83/94/86 80/92/86
f 71/125/87 82/124/87 53/126/87
f 53/126/88 84/91/88 57/127/88
f 72/90/89 83/94/89 56/128/89
f 71/125/90 81/95/90 79/123/90
f 59/66/53 64/96/53 69/67/53
f 45/69/54 50/77/54 51/70/54
f 43/72/55 48/129/55 49/73/55
f 47/75/91 46/71/91 51/70/91
f 44/74/57 49/73/57 50/77/57
f 48/78/92 70/87/92 71/79/92
f 51/81/93 54/88/93 55/82/93
f 49/80/60 71/79/60 53/84/60
f 43/86/61 56/110/61 70/87/61
f 50/85/62 53/84/62 54/88/62
f 55/82/63 54/88/63 58/89/63
f 72/90/94 57/127/94 84/91/94
f 53/84/65 57/100/65 58/89/65
f 70/93/66 56/128/66 83/94/66
f 58/89/67 63/101/67 64/96/67
f 61/97/95 74/118/95 77/98/95
f 57/100/69 62/108/69 63/101/69
f 62/102/70 57/122/70 76/103/70
f 64/96/96 63/101/96 68/105/96
f 61/106/72 66/111/72 67/107/72
f 43/86/97 65/130/97 60/109/97
f 62/108/73 67/107/73 68/105/73
f 60/109/98 65/130/98 66/111/98
f 69/112/75 68/115/75 46/71/75
f 66/113/76 44/74/76 45/69/76
f 67/114/77 45/69/77 46/71/77
f 65/116/78 43/72/78 44/74/78
f 55/82/53 59/66/53 47/68/53
f 73/117/79 74/118/79 78/104/79
f 73/117/99 75/120/99 77/98/99
f 72/119/100 56/121/100 75/120/100
f 60/99/82 77/98/82 75/120/82
f 61/97/101 62/102/101 78/104/101
f 72/119/102 73/117/102 76/103/102
f 79/123/85 80/92/85 84/91/85
f 79/123/86 81/95/86 83/94/86
f 71/125/103 79/123/103 82/124/103
f 53/126/88 82/124/88 84/91/88
f 72/90/104 80/92/104 83/94/104
f 71/125/105 70/93/105 81/95/105
