# Blender v2.81 (sub 16) OBJ File: 'garbage.blend'
# www.blender.org
v 2.225945 2.404376 0.249737
v 2.222173 2.388110 0.273034
v 2.218160 2.362345 0.284936
v 2.214981 2.333985 0.282253
v 2.213487 2.310629 0.265704
v 2.202987 2.404792 0.234267
v 2.182408 2.388830 0.246240
v 2.172244 2.363177 0.253997
v 2.175216 2.334705 0.255459
v 2.190529 2.311045 0.250234
v 2.175356 2.353492 0.199565
v 2.177911 2.326318 0.208320
v 2.192085 2.306202 0.223019
v 2.229057 2.394692 0.195305
v 2.224384 2.342976 0.176073
v 2.220371 2.317210 0.187975
v 2.216599 2.300944 0.211273
v 2.252015 2.394276 0.210775
v 2.267328 2.370615 0.205551
v 2.270300 2.342144 0.207013
v 2.260136 2.316490 0.214770
v 2.239557 2.300528 0.226743
v 2.250459 2.399118 0.237991
v 2.264633 2.379002 0.252690
v 2.267188 2.351828 0.261444
v 2.257440 2.324877 0.261909
v 2.238001 2.305371 0.253958
v 2.204543 2.399950 0.207051
v 2.185104 2.380443 0.199101
v 2.227564 2.371336 0.178756
v 2.270509 2.381706 0.154713
v 2.273754 2.381647 0.156899
v 2.248107 2.395260 0.179562
v 2.252460 2.353473 0.165219
v 2.259471 2.395054 0.187219
v 2.270087 2.353153 0.177097
v 2.185832 2.392355 0.152148
v 2.195882 2.390199 0.147332
v 2.196758 2.398569 0.166000
v 2.189050 2.372127 0.162756
v 2.201364 2.397581 0.163793
v 2.193669 2.371137 0.160542
vt 0.274240 0.539347
vt 0.265397 0.539709
vt 0.266768 0.532487
vt 0.231414 0.551290
vt 0.214659 0.541092
vt 0.231357 0.542861
vt 0.231940 0.569242
vt 0.215985 0.562822
vt 0.231472 0.559719
vt 0.230890 0.533338
vt 0.220414 0.530957
vt 0.213134 0.552274
vt 0.289666 0.544440
vt 0.282983 0.540904
vt 0.290637 0.536818
vt 0.279682 0.529141
vt 0.275518 0.536619
vt 0.273707 0.532162
vt 0.280945 0.538772
vt 0.286431 0.530872
vt 0.290637 0.551375
vt 0.284312 0.543753
vt 0.278488 0.537315
vt 0.276318 0.541045
vt 0.804698 0.251197
vt 0.792375 0.255919
vt 0.792638 0.252041
vt 0.786357 0.239035
vt 0.792578 0.249274
vt 0.791489 0.249454
vt 0.271776 0.541127
vt 0.760733 0.199751
vt 0.757502 0.209505
vt 0.750621 0.206121
vt 0.278108 0.542645
vt 0.273009 0.544115
vt 0.772804 0.201934
vt 0.766718 0.213101
vt 0.766203 0.208706
vt 0.264007 0.548518
vt 0.277612 0.547903
vt 0.268747 0.555467
vt 0.275021 0.546378
vt 0.280714 0.548498
vt 0.281954 0.545638
vt 0.276612 0.557409
vt 0.240880 0.530957
vt 0.248168 0.561486
vt 0.249693 0.550306
vt 0.246843 0.539760
vt 0.242415 0.571620
vt 0.762287 0.211045
vt 0.762255 0.210544
vt 0.761023 0.221925
vt 0.757316 0.212491
vt 0.750922 0.216572
vt 0.772804 0.220841
vt 0.791613 0.252007
vt 0.791097 0.255536
vt 0.780068 0.250772
vt 0.780487 0.263708
vt 0.804698 0.264828
vt 0.798786 0.238814
vt 0.221949 0.571626
vt 0.283377 0.553479
vn -0.1299 -0.9775 0.1665
vn -0.5589 -0.0158 0.8291
vn -0.3259 0.7991 0.5052
vn -0.4960 -0.4807 0.7231
vn -0.5002 0.4261 0.7538
vn -0.6633 0.7293 -0.1677
vn -0.8333 -0.5505 0.0503
vn -0.9349 0.3362 -0.1133
vn 0.1299 0.9775 -0.1665
vn -0.9937 -0.1057 -0.0380
vn -0.4224 -0.7097 -0.5639
vn 0.3968 -0.5535 -0.7323
vn -0.4641 -0.3109 -0.8294
vn 0.1785 0.9817 -0.0669
vn 0.3259 -0.7991 -0.5052
vn 0.8330 0.4774 0.2795
vn 0.5002 -0.4261 -0.7538
vn 0.2117 -0.9167 -0.3389
vn 0.6633 -0.7293 0.1677
vn 0.9937 0.1057 0.0380
vn 0.1299 0.9774 -0.1665
vn 0.9350 -0.3362 0.1133
vn 0.8334 0.5504 -0.0503
vn 0.2523 -0.5701 0.7819
vn 0.4641 0.3109 0.8294
vn 0.4054 -0.1310 0.9047
vn 0.4224 0.7097 0.5639
vn -0.1299 -0.9774 0.1665
vn 0.4589 -0.5524 -0.6959
vn 0.2222 0.9261 -0.3048
vn -0.5152 0.4666 -0.7190
vn -0.0034 0.9995 0.0320
vn 0.9917 -0.0414 0.1216
vn -0.3996 0.1306 -0.9073
vn -0.4615 -0.4685 -0.7534
vn -0.0003 0.9125 -0.4091
vn -0.9266 0.3321 -0.1766
vn -0.4125 -0.7417 -0.5289
vn 0.7133 0.3742 -0.5925
vn -0.6472 0.7412 0.1780
vn -0.4960 -0.4807 0.7232
vn -0.9350 0.3362 -0.1133
vn 0.4730 0.0303 -0.8805
vn 0.8711 0.4415 0.2151
vn 0.9349 -0.3362 0.1133
vn 0.8333 0.5505 -0.0503
vn 0.4224 0.7096 0.5639
vn 0.2222 0.9261 -0.3049
vn -0.5596 0.5027 -0.6589
vn 0.9939 0.1054 0.0317
vn -0.4858 -0.0147 -0.8740
vn -0.0003 0.9125 -0.4092
vn -0.9799 -0.1890 -0.0632
vn -0.4125 -0.7416 -0.5290
vn 0.7451 0.4797 -0.4633
vn -0.7267 0.6773 0.1150
s off
f 17/1/1 27/2/1 5/3/1
f 3/4/2 9/5/2 4/6/2
f 1/7/3 7/8/3 2/9/3
f 5/10/4 9/5/4 10/11/4
f 2/9/5 8/12/5 3/4/5
f 6/13/6 29/14/6 7/15/6
f 9/16/7 13/17/7 10/18/7
f 7/15/8 11/19/8 8/20/8
f 1/21/9 28/22/9 6/13/9
f 8/20/10 12/23/10 9/16/10
f 13/17/11 16/24/11 17/1/11
f 30/25/12 42/26/12 38/27/12
f 11/19/13 16/24/13 12/23/13
f 28/28/14 41/29/14 39/30/14
f 16/24/15 22/31/15 17/1/15
f 19/32/16 35/33/16 18/34/16
f 15/35/17 21/36/17 16/24/17
f 20/37/18 34/38/18 36/39/18
f 22/31/19 26/40/19 27/2/19
f 19/41/20 25/42/20 20/43/20
f 1/21/21 18/44/21 14/45/21
f 20/43/22 26/40/22 21/36/22
f 18/44/23 24/46/23 19/41/23
f 27/47/24 4/6/24 5/10/24
f 24/48/25 3/4/25 25/49/25
f 25/49/26 4/6/26 26/50/26
f 23/51/27 2/9/27 24/48/27
f 13/17/28 5/3/28 10/18/28
f 31/52/29 36/39/29 34/38/29
f 31/52/30 35/33/30 32/53/30
f 30/54/31 33/55/31 31/52/31
f 18/34/32 33/55/32 14/56/32
f 19/32/33 36/39/33 32/53/33
f 30/54/34 34/38/34 15/57/34
f 37/58/35 42/26/35 40/59/35
f 37/58/36 41/29/36 38/27/36
f 29/60/37 40/59/37 11/61/37
f 11/61/38 42/26/38 15/62/38
f 30/25/39 41/29/39 14/63/39
f 29/60/40 39/30/40 37/58/40
f 17/1/1 22/31/1 27/2/1
f 3/4/2 8/12/2 9/5/2
f 1/7/3 6/64/3 7/8/3
f 5/10/41 4/6/41 9/5/41
f 2/9/5 7/8/5 8/12/5
f 6/13/6 28/22/6 29/14/6
f 9/16/7 12/23/7 13/17/7
f 7/15/42 29/14/42 11/19/42
f 1/21/9 14/45/9 28/22/9
f 8/20/10 11/19/10 12/23/10
f 13/17/11 12/23/11 16/24/11
f 30/25/43 15/62/43 42/26/43
f 11/19/13 15/35/13 16/24/13
f 28/28/14 14/63/14 41/29/14
f 16/24/15 21/36/15 22/31/15
f 19/32/44 32/53/44 35/33/44
f 15/35/17 20/43/17 21/36/17
f 20/37/18 15/57/18 34/38/18
f 22/31/19 21/36/19 26/40/19
f 19/41/20 24/46/20 25/42/20
f 1/21/21 23/65/21 18/44/21
f 20/43/45 25/42/45 26/40/45
f 18/44/46 23/65/46 24/46/46
f 27/47/24 26/50/24 4/6/24
f 24/48/25 2/9/25 3/4/25
f 25/49/26 3/4/26 4/6/26
f 23/51/47 1/7/47 2/9/47
f 13/17/1 17/1/1 5/3/1
f 31/52/29 32/53/29 36/39/29
f 31/52/48 33/55/48 35/33/48
f 30/54/49 14/56/49 33/55/49
f 18/34/32 35/33/32 33/55/32
f 19/32/50 20/37/50 36/39/50
f 30/54/51 31/52/51 34/38/51
f 37/58/35 38/27/35 42/26/35
f 37/58/52 39/30/52 41/29/52
f 29/60/53 37/58/53 40/59/53
f 11/61/54 40/59/54 42/26/54
f 30/25/55 38/27/55 41/29/55
f 29/60/56 28/28/56 39/30/56
v 0.835289 1.523573 -0.576316
v 0.836194 1.503881 -0.597125
v 0.839550 1.476643 -0.605397
v 0.844457 1.449157 -0.598915
v 0.849601 1.428787 -0.579415
v 0.860313 1.526980 -0.564969
v 0.879537 1.509783 -0.577471
v 0.889597 1.483457 -0.582702
v 0.887799 1.455058 -0.579261
v 0.874625 1.432194 -0.568068
v 0.895388 1.482531 -0.527640
v 0.892814 1.454256 -0.531575
v 0.877520 1.431731 -0.540537
v 0.841080 1.522647 -0.521254
v 0.851131 1.474791 -0.495272
v 0.854487 1.447553 -0.503544
v 0.855392 1.427861 -0.524353
v 0.816056 1.519240 -0.532601
v 0.802882 1.496376 -0.521409
v 0.801084 1.467976 -0.517967
v 0.811144 1.441651 -0.523198
v 0.830368 1.424454 -0.535700
v 0.813161 1.519703 -0.560132
v 0.797867 1.497178 -0.569094
v 0.795293 1.468902 -0.573029
v 0.806129 1.442453 -0.570883
v 0.827472 1.424917 -0.563232
v 0.863209 1.526517 -0.537438
v 0.884552 1.508981 -0.529786
v 0.846224 1.502277 -0.501755
v 0.807056 1.515376 -0.473044
v 0.803520 1.514895 -0.474648
v 0.824683 1.525291 -0.502945
v 0.824598 1.486245 -0.481819
v 0.812296 1.523604 -0.508562
v 0.805384 1.483629 -0.490531
v 0.890509 1.528227 -0.485727
v 0.881437 1.526640 -0.479093
v 0.877292 1.531895 -0.498444
v 0.886663 1.506495 -0.492435
v 0.873134 1.531168 -0.495404
v 0.882494 1.505766 -0.489386
vt 0.274240 0.539347
vt 0.265397 0.539709
vt 0.266768 0.532487
vt 0.231414 0.551290
vt 0.214659 0.541092
vt 0.231357 0.542861
vt 0.231940 0.569242
vt 0.215985 0.562822
vt 0.231472 0.559719
vt 0.230890 0.533338
vt 0.220414 0.530957
vt 0.213134 0.552274
vt 0.289666 0.544440
vt 0.282983 0.540904
vt 0.290637 0.536818
vt 0.279682 0.529141
vt 0.275518 0.536619
vt 0.273707 0.532162
vt 0.280945 0.538772
vt 0.286431 0.530872
vt 0.290637 0.551375
vt 0.284312 0.543753
vt 0.278488 0.537315
vt 0.276318 0.541045
vt 0.804698 0.251197
vt 0.792375 0.255919
vt 0.792638 0.252041
vt 0.786357 0.239035
vt 0.792578 0.249274
vt 0.791489 0.249454
vt 0.271776 0.541127
vt 0.760733 0.199751
vt 0.757502 0.209505
vt 0.750621 0.206121
vt 0.278108 0.542645
vt 0.273009 0.544115
vt 0.772804 0.201934
vt 0.766718 0.213101
vt 0.766203 0.208706
vt 0.264007 0.548518
vt 0.277612 0.547903
vt 0.268747 0.555467
vt 0.275021 0.546378
vt 0.280714 0.548498
vt 0.281954 0.545638
vt 0.276612 0.557409
vt 0.240880 0.530957
vt 0.248168 0.561486
vt 0.249693 0.550306
vt 0.246843 0.539760
vt 0.242415 0.571620
vt 0.762287 0.211045
vt 0.762255 0.210544
vt 0.761023 0.221925
vt 0.757316 0.212491
vt 0.750922 0.216572
vt 0.772804 0.220841
vt 0.791613 0.252007
vt 0.791097 0.255536
vt 0.780068 0.250772
vt 0.780487 0.263708
vt 0.804698 0.264828
vt 0.798786 0.238814
vt 0.221949 0.571626
vt 0.283377 0.553479
vn 0.1492 -0.9883 -0.0323
vn 0.4244 -0.1354 -0.8953
vn 0.2055 0.7153 -0.6679
vn 0.4009 -0.5787 -0.7102
vn 0.3570 0.3114 -0.8807
vn 0.6456 0.7617 -0.0551
vn 0.8410 -0.5323 -0.0974
vn 0.9241 0.3712 -0.0909
vn -0.1492 0.9883 0.0323
vn 0.9915 -0.0756 -0.1055
vn 0.5378 -0.6006 0.5917
vn -0.2521 -0.4382 0.8628
vn 0.6009 -0.1636 0.7824
vn -0.2128 0.9754 -0.0577
vn -0.2055 -0.7153 0.6679
vn -0.8880 0.4075 -0.2129
vn -0.3570 -0.3114 0.8807
vn -0.1128 -0.8553 0.5057
vn -0.6456 -0.7617 0.0551
vn -0.9915 0.0756 0.1055
vn -0.9241 -0.3712 0.0909
vn -0.8410 0.5323 0.0974
vn -0.3424 -0.6934 -0.6340
vn -0.6009 0.1636 -0.7824
vn -0.5334 -0.2832 -0.7970
vn -0.5378 0.6006 -0.5917
vn -0.3191 -0.4443 0.8371
vn -0.2165 0.9576 0.1899
vn 0.5970 0.5871 0.5466
vn -0.0493 0.9813 -0.1859
vn -0.9955 -0.0829 0.0464
vn 0.5281 0.2831 0.8006
vn 0.5941 -0.3314 0.7330
vn 0.0198 0.9659 0.2581
vn 0.9258 0.3771 -0.0272
vn 0.5242 -0.6379 0.5642
vn -0.6304 0.4478 0.6341
vn 0.5758 0.7178 -0.3914
vn -0.3324 0.1599 0.9295
vn -0.9140 0.3814 -0.1386
vn -0.9915 0.0756 0.1056
vn 0.6299 0.6142 0.4754
vn -0.9908 0.0763 0.1118
vn 0.6149 0.1363 0.7767
vn 0.9859 -0.1541 -0.0660
vn -0.6868 0.5305 0.4969
vn 0.6670 0.6666 -0.3328
s off
f 59/66/57 69/67/57 47/68/57
f 45/69/58 51/70/58 46/71/58
f 43/72/59 49/73/59 44/74/59
f 47/75/60 51/70/60 52/76/60
f 44/74/61 50/77/61 45/69/61
f 48/78/62 71/79/62 49/80/62
f 51/81/63 55/82/63 52/83/63
f 49/80/64 53/84/64 50/85/64
f 43/86/65 70/87/65 48/78/65
f 50/85/66 54/88/66 51/81/66
f 55/82/67 58/89/67 59/66/67
f 72/90/68 84/91/68 80/92/68
f 53/84/69 58/89/69 54/88/69
f 70/93/70 83/94/70 81/95/70
f 58/89/71 64/96/71 59/66/71
f 61/97/72 77/98/72 60/99/72
f 57/100/73 63/101/73 58/89/73
f 62/102/74 76/103/74 78/104/74
f 64/96/75 68/105/75 69/67/75
f 61/106/76 67/107/76 62/108/76
f 43/86/65 60/109/65 56/110/65
f 62/108/77 68/105/77 63/101/77
f 60/109/78 66/111/78 61/106/78
f 69/112/79 46/71/79 47/75/79
f 66/113/80 45/69/80 67/114/80
f 67/114/81 46/71/81 68/115/81
f 65/116/82 44/74/82 66/113/82
f 55/82/57 47/68/57 52/83/57
f 73/117/83 78/104/83 76/103/83
f 73/117/84 77/98/84 74/118/84
f 72/119/85 75/120/85 73/117/85
f 60/99/86 75/120/86 56/121/86
f 61/97/87 78/104/87 74/118/87
f 72/119/88 76/103/88 57/122/88
f 79/123/89 84/91/89 82/124/89
f 79/123/90 83/94/90 80/92/90
f 71/125/91 82/124/91 53/126/91
f 53/126/92 84/91/92 57/127/92
f 72/90/93 83/94/93 56/128/93
f 71/125/94 81/95/94 79/123/94
f 59/66/57 64/96/57 69/67/57
f 45/69/58 50/77/58 51/70/58
f 43/72/59 48/129/59 49/73/59
f 47/75/60 46/71/60 51/70/60
f 44/74/61 49/73/61 50/77/61
f 48/78/62 70/87/62 71/79/62
f 51/81/63 54/88/63 55/82/63
f 49/80/64 71/79/64 53/84/64
f 43/86/65 56/110/65 70/87/65
f 50/85/66 53/84/66 54/88/66
f 55/82/67 54/88/67 58/89/67
f 72/90/95 57/127/95 84/91/95
f 53/84/69 57/100/69 58/89/69
f 70/93/70 56/128/70 83/94/70
f 58/89/71 63/101/71 64/96/71
f 61/97/96 74/118/96 77/98/96
f 57/100/73 62/108/73 63/101/73
f 62/102/74 57/122/74 76/103/74
f 64/96/75 63/101/75 68/105/75
f 61/106/97 66/111/97 67/107/97
f 43/86/65 65/130/65 60/109/65
f 62/108/77 67/107/77 68/105/77
f 60/109/78 65/130/78 66/111/78
f 69/112/79 68/115/79 46/71/79
f 66/113/80 44/74/80 45/69/80
f 67/114/81 45/69/81 46/71/81
f 65/116/82 43/72/82 44/74/82
f 55/82/57 59/66/57 47/68/57
f 73/117/83 74/118/83 78/104/83
f 73/117/84 75/120/84 77/98/84
f 72/119/98 56/121/98 75/120/98
f 60/99/86 77/98/86 75/120/86
f 61/97/99 62/102/99 78/104/99
f 72/119/100 73/117/100 76/103/100
f 79/123/89 80/92/89 84/91/89
f 79/123/90 81/95/90 83/94/90
f 71/125/101 79/123/101 82/124/101
f 53/126/92 82/124/92 84/91/92
f 72/90/102 80/92/102 83/94/102
f 71/125/103 70/93/103 81/95/103
