# Blender v2.81 (sub 16) OBJ File: 'garbage.blend'
# www.blender.org
v -0.015695 2.670755 -0.738631
v -0.001952 2.653571 -0.757001
v 0.003568 2.627289 -0.767019
v -0.000612 2.598950 -0.766001
v -0.013374 2.576149 -0.754219
v -0.006614 2.666720 -0.712789
v 0.013777 2.646583 -0.712241
v 0.021731 2.619219 -0.715335
v 0.015117 2.591961 -0.721241
v -0.004293 2.572114 -0.728377
v -0.014475 2.611544 -0.674147
v -0.016238 2.585315 -0.685571
v -0.022396 2.568276 -0.707783
v -0.051901 2.663080 -0.697443
v -0.068844 2.611940 -0.684643
v -0.063323 2.585657 -0.694661
v -0.049580 2.568474 -0.713031
v -0.060983 2.667115 -0.723285
v -0.080392 2.647267 -0.730421
v -0.087006 2.620010 -0.736327
v -0.079052 2.592646 -0.739421
v -0.058661 2.572509 -0.738873
v -0.042880 2.670953 -0.743879
v -0.049037 2.653914 -0.766091
v -0.050800 2.627684 -0.777515
v -0.047697 2.599293 -0.775091
v -0.040558 2.576346 -0.759467
v -0.024717 2.662883 -0.692195
v -0.017579 2.639936 -0.676571
v -0.064663 2.640278 -0.685661
v -0.110796 2.659848 -0.689987
v -0.112080 2.660419 -0.693639
v -0.076078 2.667926 -0.695681
v -0.095473 2.628266 -0.691011
v -0.080573 2.669923 -0.708472
v -0.102446 2.631364 -0.710853
v -0.043617 2.652729 -0.637772
v -0.054761 2.652810 -0.639923
v -0.042967 2.660783 -0.654641
v -0.043561 2.633391 -0.650345
v -0.048074 2.660820 -0.655627
v -0.048683 2.633428 -0.651334
vt 0.274240 0.539347
vt 0.265397 0.539709
vt 0.266768 0.532487
vt 0.231414 0.551290
vt 0.214659 0.541092
vt 0.231357 0.542861
vt 0.231940 0.569242
vt 0.215985 0.562822
vt 0.231472 0.559719
vt 0.230890 0.533338
vt 0.220414 0.530957
vt 0.213134 0.552274
vt 0.289666 0.544440
vt 0.282983 0.540904
vt 0.290637 0.536818
vt 0.279682 0.529141
vt 0.275518 0.536619
vt 0.273707 0.532162
vt 0.280945 0.538772
vt 0.286431 0.530872
vt 0.290637 0.551375
vt 0.284312 0.543753
vt 0.278488 0.537315
vt 0.276318 0.541045
vt 0.804698 0.251197
vt 0.792375 0.255919
vt 0.792638 0.252041
vt 0.786357 0.239035
vt 0.792578 0.249274
vt 0.791489 0.249454
vt 0.271776 0.541127
vt 0.760733 0.199751
vt 0.757502 0.209505
vt 0.750621 0.206121
vt 0.278108 0.542645
vt 0.273009 0.544115
vt 0.772804 0.201934
vt 0.766718 0.213101
vt 0.766203 0.208706
vt 0.264007 0.548518
vt 0.277612 0.547903
vt 0.268747 0.555467
vt 0.275021 0.546378
vt 0.280714 0.548498
vt 0.281954 0.545638
vt 0.276612 0.557409
vt 0.240880 0.530957
vt 0.248168 0.561486
vt 0.249693 0.550306
vt 0.246843 0.539760
vt 0.242415 0.571620
vt 0.762287 0.211045
vt 0.762255 0.210544
vt 0.761023 0.221925
vt 0.757316 0.212491
vt 0.750922 0.216572
vt 0.772804 0.220841
vt 0.791613 0.252007
vt 0.791097 0.255536
vt 0.780068 0.250772
vt 0.780487 0.263708
vt 0.804698 0.264828
vt 0.798786 0.238814
vt 0.221949 0.571626
vt 0.283377 0.553479
vn 0.0242 -0.9864 -0.1625
vn 0.9254 -0.1490 -0.3485
vn 0.6980 0.7031 -0.1355
vn 0.7297 -0.5884 -0.3483
vn 0.9145 0.2969 -0.2750
vn 0.5558 0.5790 0.5965
vn 0.5875 -0.7125 0.3837
vn 0.7312 0.1370 0.6683
vn -0.0242 0.9864 0.1625
vn 0.7421 -0.3090 0.5948
vn -0.1264 -0.7699 0.6256
vn -0.8432 -0.4434 0.3040
vn -0.1778 -0.3829 0.9065
vn -0.0032 0.9985 0.0542
vn -0.6980 -0.7031 0.1355
vn -0.4065 0.6341 -0.6578
vn -0.9145 -0.2969 0.2750
vn -0.5314 -0.8454 0.0547
vn -0.5558 -0.5790 -0.5965
vn -0.7421 0.3090 -0.5948
vn -0.7312 -0.1370 -0.6683
vn -0.5875 0.7125 -0.3837
vn 0.1581 -0.5217 -0.8384
vn 0.1778 0.3829 -0.9065
vn 0.1887 -0.0631 -0.9800
vn 0.1264 0.7699 -0.6256
vn -0.8706 -0.4302 0.2388
vn -0.1876 0.9583 0.2156
vn 0.0675 0.3645 0.9288
vn 0.2016 0.9761 0.0816
vn -0.7180 0.1629 -0.6768
vn -0.1949 0.0639 0.9787
vn -0.1636 -0.5381 0.8269
vn -0.0759 0.9010 0.4272
vn 0.6866 0.1360 0.7142
vn -0.1194 -0.7998 0.5882
vn -0.8435 0.5267 0.1057
vn 0.7486 0.5867 0.3089
vn -0.1264 -0.7698 0.6256
vn -0.8853 0.1465 0.4414
vn -0.0032 0.9985 0.0543
vn -0.4808 0.6081 -0.6317
vn -0.1876 0.9583 0.2155
vn 0.1443 0.3893 0.9097
vn 0.2016 0.9761 0.0815
vn -0.7461 0.3088 -0.5899
vn -0.1335 -0.0968 0.9863
vn -0.1635 -0.5381 0.8269
vn -0.0760 0.9009 0.4272
vn 0.7015 -0.3870 0.5984
vn -0.1194 -0.7999 0.5882
vn -0.7736 0.6337 -0.0062
vn 0.7627 0.5090 0.3991
s off
f 17/1/1 27/2/1 5/3/1
f 3/4/2 9/5/2 4/6/2
f 1/7/3 7/8/3 2/9/3
f 5/10/4 9/5/4 10/11/4
f 2/9/5 8/12/5 3/4/5
f 6/13/6 29/14/6 7/15/6
f 9/16/7 13/17/7 10/18/7
f 7/15/8 11/19/8 8/20/8
f 1/21/9 28/22/9 6/13/9
f 8/20/10 12/23/10 9/16/10
f 13/17/11 16/24/11 17/1/11
f 30/25/12 42/26/12 38/27/12
f 11/19/13 16/24/13 12/23/13
f 28/28/14 41/29/14 39/30/14
f 16/24/15 22/31/15 17/1/15
f 19/32/16 35/33/16 18/34/16
f 15/35/17 21/36/17 16/24/17
f 20/37/18 34/38/18 36/39/18
f 22/31/19 26/40/19 27/2/19
f 19/41/20 25/42/20 20/43/20
f 1/21/9 18/44/9 14/45/9
f 20/43/21 26/40/21 21/36/21
f 18/44/22 24/46/22 19/41/22
f 27/47/23 4/6/23 5/10/23
f 24/48/24 3/4/24 25/49/24
f 25/49/25 4/6/25 26/50/25
f 23/51/26 2/9/26 24/48/26
f 13/17/1 5/3/1 10/18/1
f 31/52/27 36/39/27 34/38/27
f 31/52/28 35/33/28 32/53/28
f 30/54/29 33/55/29 31/52/29
f 18/34/30 33/55/30 14/56/30
f 19/32/31 36/39/31 32/53/31
f 30/54/32 34/38/32 15/57/32
f 37/58/33 42/26/33 40/59/33
f 37/58/34 41/29/34 38/27/34
f 29/60/35 40/59/35 11/61/35
f 11/61/36 42/26/36 15/62/36
f 30/25/37 41/29/37 14/63/37
f 29/60/38 39/30/38 37/58/38
f 17/1/1 22/31/1 27/2/1
f 3/4/2 8/12/2 9/5/2
f 1/7/3 6/64/3 7/8/3
f 5/10/4 4/6/4 9/5/4
f 2/9/5 7/8/5 8/12/5
f 6/13/6 28/22/6 29/14/6
f 9/16/7 12/23/7 13/17/7
f 7/15/8 29/14/8 11/19/8
f 1/21/9 14/45/9 28/22/9
f 8/20/10 11/19/10 12/23/10
f 13/17/39 12/23/39 16/24/39
f 30/25/40 15/62/40 42/26/40
f 11/19/13 15/35/13 16/24/13
f 28/28/41 14/63/41 41/29/41
f 16/24/15 21/36/15 22/31/15
f 19/32/42 32/53/42 35/33/42
f 15/35/17 20/43/17 21/36/17
f 20/37/18 15/57/18 34/38/18
f 22/31/19 21/36/19 26/40/19
f 19/41/20 24/46/20 25/42/20
f 1/21/9 23/65/9 18/44/9
f 20/43/21 25/42/21 26/40/21
f 18/44/22 23/65/22 24/46/22
f 27/47/23 26/50/23 4/6/23
f 24/48/24 2/9/24 3/4/24
f 25/49/25 3/4/25 4/6/25
f 23/51/26 1/7/26 2/9/26
f 13/17/1 17/1/1 5/3/1
f 31/52/27 32/53/27 36/39/27
f 31/52/43 33/55/43 35/33/43
f 30/54/44 14/56/44 33/55/44
f 18/34/45 35/33/45 33/55/45
f 19/32/46 20/37/46 36/39/46
f 30/54/47 31/52/47 34/38/47
f 37/58/48 38/27/48 42/26/48
f 37/58/49 39/30/49 41/29/49
f 29/60/50 37/58/50 40/59/50
f 11/61/51 40/59/51 42/26/51
f 30/25/52 38/27/52 41/29/52
f 29/60/53 28/28/53 39/30/53
v 1.742363 1.999623 -0.917037
v 1.729782 1.983654 -0.896831
v 1.722343 1.957946 -0.886567
v 1.722041 1.929387 -0.888995
v 1.728956 1.905630 -0.903464
v 1.728268 1.998198 -0.940826
v 1.705369 1.981186 -0.938033
v 1.694153 1.955096 -0.934143
v 1.697628 1.926919 -0.930197
v 1.714861 1.904205 -0.927252
v 1.720786 1.944457 -0.981511
v 1.720693 1.917706 -0.971219
v 1.728178 1.898885 -0.950936
v 1.768996 1.988984 -0.964406
v 1.775609 1.936668 -0.981303
v 1.768171 1.910959 -0.971039
v 1.755589 1.894990 -0.950832
v 1.783091 1.990409 -0.940618
v 1.800324 1.967694 -0.937673
v 1.803799 1.939517 -0.933727
v 1.792584 1.913427 -0.929837
v 1.769684 1.896415 -0.927044
v 1.769774 1.995728 -0.916934
v 1.777259 1.976908 -0.896651
v 1.777166 1.950156 -0.886359
v 1.769519 1.922641 -0.888815
v 1.756368 1.901735 -0.903360
v 1.741585 1.992879 -0.964510
v 1.728433 1.971973 -0.979055
v 1.775911 1.965227 -0.978875
v 1.824442 1.977863 -0.982757
v 1.826434 1.978065 -0.979395
v 1.792902 1.990457 -0.970522
v 1.805064 1.948743 -0.979625
v 1.799879 1.991162 -0.958747
v 1.815886 1.949837 -0.961361
v 1.748632 1.982885 -1.021716
v 1.759869 1.981288 -1.021674
v 1.752236 1.990101 -1.004840
v 1.747994 1.963146 -1.009799
v 1.757387 1.989369 -1.004821
v 1.753159 1.962412 -1.009779
vt 0.274240 0.539347
vt 0.265397 0.539709
vt 0.266768 0.532487
vt 0.231414 0.551290
vt 0.214659 0.541092
vt 0.231357 0.542861
vt 0.231940 0.569242
vt 0.215985 0.562822
vt 0.231472 0.559719
vt 0.230890 0.533338
vt 0.220414 0.530957
vt 0.213134 0.552274
vt 0.289666 0.544440
vt 0.282983 0.540904
vt 0.290637 0.536818
vt 0.279682 0.529141
vt 0.275518 0.536619
vt 0.273707 0.532162
vt 0.280945 0.538772
vt 0.286431 0.530872
vt 0.290637 0.551375
vt 0.284312 0.543753
vt 0.278488 0.537315
vt 0.276318 0.541045
vt 0.804698 0.251197
vt 0.792375 0.255919
vt 0.792638 0.252041
vt 0.786357 0.239035
vt 0.792578 0.249274
vt 0.791489 0.249454
vt 0.271776 0.541127
vt 0.760733 0.199751
vt 0.757502 0.209505
vt 0.750621 0.206121
vt 0.278108 0.542645
vt 0.273009 0.544115
vt 0.772804 0.201934
vt 0.766718 0.213101
vt 0.766203 0.208706
vt 0.264007 0.548518
vt 0.277612 0.547903
vt 0.268747 0.555467
vt 0.275021 0.546378
vt 0.280714 0.548498
vt 0.281954 0.545638
vt 0.276612 0.557409
vt 0.240880 0.530957
vt 0.248168 0.561486
vt 0.249693 0.550306
vt 0.246843 0.539760
vt 0.242415 0.571620
vt 0.762287 0.211045
vt 0.762255 0.210544
vt 0.761023 0.221925
vt 0.757316 0.212491
vt 0.750922 0.216572
vt 0.772804 0.220841
vt 0.791613 0.252007
vt 0.791097 0.255536
vt 0.780068 0.250772
vt 0.780487 0.263708
vt 0.804698 0.264828
vt 0.798786 0.238814
vt 0.221949 0.571626
vt 0.283377 0.553479
vn -0.1398 -0.9800 0.1415
vn -0.8589 -0.0344 0.5110
vn -0.5505 0.7868 0.2791
vn -0.7335 -0.4963 0.4643
vn -0.7957 0.4087 0.4470
vn -0.5628 0.6805 -0.4693
vn -0.7458 -0.6026 -0.2840
vn -0.8115 0.2717 -0.5173
vn 0.1398 0.9800 -0.1415
vn -0.8747 -0.1713 -0.4533
vn -0.1038 -0.7479 -0.6557
vn 0.6995 -0.5421 -0.4656
vn -0.0474 -0.3585 -0.9323
vn 0.1407 0.9896 -0.0310
vn 0.5505 -0.7868 -0.2791
vn 0.6077 0.5369 0.5851
vn 0.7957 -0.4087 -0.4470
vn 0.3820 -0.9080 -0.1720
vn 0.5628 -0.6805 0.4693
vn 0.8747 0.1713 0.4533
vn 0.8115 -0.2717 0.5173
vn 0.7458 0.6026 0.2840
vn -0.0792 -0.5353 0.8410
vn 0.0474 0.3585 0.9323
vn -0.0158 -0.0845 0.9963
vn 0.1038 0.7479 0.6557
vn 0.7399 -0.5361 -0.4063
vn 0.2849 0.9318 -0.2246
vn -0.1796 0.4161 -0.8914
vn -0.0667 0.9976 -0.0202
vn 0.8445 0.0263 0.5350
vn 0.0221 0.0845 -0.9962
vn -0.0698 -0.5140 -0.8550
vn 0.1296 0.9014 -0.4131
vn -0.7766 0.2668 -0.5707
vn -0.1083 -0.7784 -0.6184
vn 0.8789 0.4072 -0.2486
vn -0.6971 0.7009 -0.1508
vn -0.8589 -0.0343 0.5110
vn -0.7335 -0.4963 0.4644
vn 0.8028 0.0421 -0.5948
vn 0.6714 0.5021 0.5450
vn 0.2849 0.9319 -0.2246
vn -0.2472 0.4505 -0.8579
vn 0.8777 0.1709 0.4477
vn -0.0626 -0.0654 -0.9959
vn -0.0698 -0.5139 -0.8550
vn -0.8474 -0.2541 -0.4662
vn -0.1082 -0.7784 -0.6184
vn 0.8469 0.5173 -0.1233
vn -0.7386 0.6306 -0.2385
s off
f 59/66/54 69/67/54 47/68/54
f 45/69/55 51/70/55 46/71/55
f 43/72/56 49/73/56 44/74/56
f 47/75/57 51/70/57 52/76/57
f 44/74/58 50/77/58 45/69/58
f 48/78/59 71/79/59 49/80/59
f 51/81/60 55/82/60 52/83/60
f 49/80/61 53/84/61 50/85/61
f 43/86/62 70/87/62 48/78/62
f 50/85/63 54/88/63 51/81/63
f 55/82/64 58/89/64 59/66/64
f 72/90/65 84/91/65 80/92/65
f 53/84/66 58/89/66 54/88/66
f 70/93/67 83/94/67 81/95/67
f 58/89/68 64/96/68 59/66/68
f 61/97/69 77/98/69 60/99/69
f 57/100/70 63/101/70 58/89/70
f 62/102/71 76/103/71 78/104/71
f 64/96/72 68/105/72 69/67/72
f 61/106/73 67/107/73 62/108/73
f 43/86/62 60/109/62 56/110/62
f 62/108/74 68/105/74 63/101/74
f 60/109/75 66/111/75 61/106/75
f 69/112/76 46/71/76 47/75/76
f 66/113/77 45/69/77 67/114/77
f 67/114/78 46/71/78 68/115/78
f 65/116/79 44/74/79 66/113/79
f 55/82/54 47/68/54 52/83/54
f 73/117/80 78/104/80 76/103/80
f 73/117/81 77/98/81 74/118/81
f 72/119/82 75/120/82 73/117/82
f 60/99/83 75/120/83 56/121/83
f 61/97/84 78/104/84 74/118/84
f 72/119/85 76/103/85 57/122/85
f 79/123/86 84/91/86 82/124/86
f 79/123/87 83/94/87 80/92/87
f 71/125/88 82/124/88 53/126/88
f 53/126/89 84/91/89 57/127/89
f 72/90/90 83/94/90 56/128/90
f 71/125/91 81/95/91 79/123/91
f 59/66/54 64/96/54 69/67/54
f 45/69/92 50/77/92 51/70/92
f 43/72/56 48/129/56 49/73/56
f 47/75/93 46/71/93 51/70/93
f 44/74/58 49/73/58 50/77/58
f 48/78/59 70/87/59 71/79/59
f 51/81/60 54/88/60 55/82/60
f 49/80/61 71/79/61 53/84/61
f 43/86/62 56/110/62 70/87/62
f 50/85/63 53/84/63 54/88/63
f 55/82/64 54/88/64 58/89/64
f 72/90/94 57/127/94 84/91/94
f 53/84/66 57/100/66 58/89/66
f 70/93/67 56/128/67 83/94/67
f 58/89/68 63/101/68 64/96/68
f 61/97/95 74/118/95 77/98/95
f 57/100/70 62/108/70 63/101/70
f 62/102/71 57/122/71 76/103/71
f 64/96/72 63/101/72 68/105/72
f 61/106/73 66/111/73 67/107/73
f 43/86/62 65/130/62 60/109/62
f 62/108/74 67/107/74 68/105/74
f 60/109/75 65/130/75 66/111/75
f 69/112/76 68/115/76 46/71/76
f 66/113/77 44/74/77 45/69/77
f 67/114/78 45/69/78 46/71/78
f 65/116/79 43/72/79 44/74/79
f 55/82/54 59/66/54 47/68/54
f 73/117/80 74/118/80 78/104/80
f 73/117/96 75/120/96 77/98/96
f 72/119/97 56/121/97 75/120/97
f 60/99/83 77/98/83 75/120/83
f 61/97/98 62/102/98 78/104/98
f 72/119/99 73/117/99 76/103/99
f 79/123/100 80/92/100 84/91/100
f 79/123/87 81/95/87 83/94/87
f 71/125/101 79/123/101 82/124/101
f 53/126/102 82/124/102 84/91/102
f 72/90/103 80/92/103 83/94/103
f 71/125/104 70/93/104 81/95/104
