# Blender v2.81 (sub 16) OBJ File: 'garbage.blend'
# www.blender.org
v 2.062430 2.179792 -0.535172
v 2.069894 2.163741 -0.512628
v 2.069478 2.138634 -0.498805
v 2.061294 2.111199 -0.497407
v 2.047535 2.088787 -0.508809
v 2.035096 2.184189 -0.535438
v 2.022549 2.171356 -0.513089
v 2.014809 2.147428 -0.499337
v 2.013950 2.118814 -0.497868
v 2.020201 2.093184 -0.509075
v 1.985819 2.138739 -0.545709
v 1.988844 2.111290 -0.538027
v 2.005706 2.088840 -0.532261
v 2.033440 2.171103 -0.581544
v 2.011498 2.121257 -0.591548
v 2.011082 2.096150 -0.577725
v 2.018545 2.080099 -0.555180
v 2.060775 2.166707 -0.581278
v 2.067026 2.141076 -0.592485
v 2.066166 2.112463 -0.591016
v 2.058426 2.088534 -0.577264
v 2.045880 2.075702 -0.554914
v 2.075269 2.171051 -0.558092
v 2.092132 2.148601 -0.552326
v 2.095156 2.121152 -0.544644
v 2.083532 2.096059 -0.537105
v 2.060374 2.080046 -0.531728
v 2.020601 2.179844 -0.558624
v 1.997443 2.163831 -0.553248
v 2.019682 2.148691 -0.592946
v 2.043080 2.152798 -0.637281
v 2.046942 2.152177 -0.637244
v 2.040425 2.169072 -0.605170
v 2.030024 2.127490 -0.616731
v 2.053955 2.166895 -0.605038
v 2.051011 2.124115 -0.616526
v 1.973755 2.176652 -0.593516
v 1.979019 2.173069 -0.602913
v 1.991283 2.180728 -0.588414
v 1.979351 2.155911 -0.585117
v 1.993695 2.179086 -0.592720
v 1.981770 2.154264 -0.589436
vt 0.274240 0.539347
vt 0.265397 0.539709
vt 0.266768 0.532487
vt 0.231414 0.551290
vt 0.214659 0.541092
vt 0.231357 0.542861
vt 0.231940 0.569242
vt 0.215985 0.562822
vt 0.231472 0.559719
vt 0.230890 0.533338
vt 0.220414 0.530957
vt 0.213134 0.552274
vt 0.289666 0.544440
vt 0.282983 0.540904
vt 0.290637 0.536818
vt 0.279682 0.529141
vt 0.275518 0.536619
vt 0.273707 0.532162
vt 0.280945 0.538772
vt 0.286431 0.530872
vt 0.290637 0.551375
vt 0.284312 0.543753
vt 0.278488 0.537315
vt 0.276318 0.541045
vt 0.804698 0.251197
vt 0.792375 0.255919
vt 0.792638 0.252041
vt 0.786357 0.239035
vt 0.792578 0.249274
vt 0.791489 0.249454
vt 0.271776 0.541127
vt 0.760733 0.199751
vt 0.757502 0.209505
vt 0.750621 0.206121
vt 0.278108 0.542645
vt 0.273009 0.544115
vt 0.772804 0.201934
vt 0.766718 0.213101
vt 0.766203 0.208706
vt 0.264007 0.548518
vt 0.277612 0.547903
vt 0.268747 0.555467
vt 0.275021 0.546378
vt 0.280714 0.548498
vt 0.281954 0.545638
vt 0.276612 0.557409
vt 0.240880 0.530957
vt 0.248168 0.561486
vt 0.249693 0.550306
vt 0.246843 0.539760
vt 0.242415 0.571620
vt 0.762287 0.211045
vt 0.762255 0.210544
vt 0.761023 0.221925
vt 0.757316 0.212491
vt 0.750922 0.216572
vt 0.772804 0.220841
vt 0.791613 0.252007
vt 0.791097 0.255536
vt 0.780068 0.250772
vt 0.780487 0.263708
vt 0.804698 0.264828
vt 0.798786 0.238814
vt 0.221949 0.571626
vt 0.283377 0.553479
vn -0.1553 -0.9489 0.2749
vn -0.0015 0.0513 0.9987
vn 0.1278 0.8274 0.5468
vn -0.0756 -0.4149 0.9067
vn 0.0687 0.4803 0.8744
vn -0.5316 0.8283 0.1772
vn -0.7349 -0.4141 0.5370
vn -0.7809 0.4814 0.3980
vn 0.1553 0.9489 -0.2749
vn -0.8512 0.0524 0.5223
vn -0.7610 -0.6203 -0.1897
vn -0.1600 -0.5904 -0.7911
vn -0.8848 -0.2134 -0.4143
vn 0.2509 0.9429 -0.2190
vn -0.1278 -0.8274 -0.5468
vn 0.9068 0.3338 -0.2576
vn -0.0687 -0.4803 -0.8744
vn -0.1463 -0.9298 -0.3378
vn 0.5316 -0.8283 -0.1771
vn 0.8512 -0.0524 -0.5223
vn 0.7809 -0.4814 -0.3980
vn 0.7349 0.4141 -0.5370
vn 0.5577 -0.6220 0.5496
vn 0.8848 0.2134 0.4143
vn 0.8146 -0.2156 0.5385
vn 0.7610 0.6203 0.1897
vn -0.1553 -0.9488 0.2749
vn -0.0887 -0.5999 -0.7951
vn 0.1470 0.8871 -0.4375
vn -0.7533 0.5594 -0.3458
vn 0.1591 0.9865 -0.0378
vn 0.8746 -0.1994 -0.4419
vn -0.8114 0.2143 -0.5438
vn -0.8632 -0.3714 -0.3419
vn -0.0952 0.9112 -0.4008
vn -0.8097 0.4776 0.3410
vn -0.7382 -0.6543 -0.1640
vn 0.3108 0.2725 -0.9106
vn -0.3253 0.8288 0.4552
vn -0.5316 0.8283 0.1771
vn 0.1553 0.9488 -0.2749
vn -0.0954 -0.0222 -0.9952
vn 0.2510 0.9429 -0.2190
vn 0.8972 0.2939 -0.3297
vn 0.7809 -0.4813 -0.3980
vn 0.8146 -0.2155 0.5385
vn -0.0888 -0.5999 -0.7952
vn 0.1470 0.8872 -0.4374
vn -0.7513 0.6005 -0.2737
vn 0.8478 -0.0526 -0.5277
vn -0.8845 0.0835 -0.4591
vn -0.8658 -0.0314 0.4993
vn -0.7382 -0.6544 -0.1640
vn 0.4237 0.3684 -0.8275
vn -0.4345 0.7797 0.4508
s off
f 17/1/1 27/2/1 5/3/1
f 3/4/2 9/5/2 4/6/2
f 1/7/3 7/8/3 2/9/3
f 5/10/4 9/5/4 10/11/4
f 2/9/5 8/12/5 3/4/5
f 6/13/6 29/14/6 7/15/6
f 9/16/7 13/17/7 10/18/7
f 7/15/8 11/19/8 8/20/8
f 1/21/9 28/22/9 6/13/9
f 8/20/10 12/23/10 9/16/10
f 13/17/11 16/24/11 17/1/11
f 30/25/12 42/26/12 38/27/12
f 11/19/13 16/24/13 12/23/13
f 28/28/14 41/29/14 39/30/14
f 16/24/15 22/31/15 17/1/15
f 19/32/16 35/33/16 18/34/16
f 15/35/17 21/36/17 16/24/17
f 20/37/18 34/38/18 36/39/18
f 22/31/19 26/40/19 27/2/19
f 19/41/20 25/42/20 20/43/20
f 1/21/9 18/44/9 14/45/9
f 20/43/21 26/40/21 21/36/21
f 18/44/22 24/46/22 19/41/22
f 27/47/23 4/6/23 5/10/23
f 24/48/24 3/4/24 25/49/24
f 25/49/25 4/6/25 26/50/25
f 23/51/26 2/9/26 24/48/26
f 13/17/27 5/3/27 10/18/27
f 31/52/28 36/39/28 34/38/28
f 31/52/29 35/33/29 32/53/29
f 30/54/30 33/55/30 31/52/30
f 18/34/31 33/55/31 14/56/31
f 19/32/32 36/39/32 32/53/32
f 30/54/33 34/38/33 15/57/33
f 37/58/34 42/26/34 40/59/34
f 37/58/35 41/29/35 38/27/35
f 29/60/36 40/59/36 11/61/36
f 11/61/37 42/26/37 15/62/37
f 30/25/38 41/29/38 14/63/38
f 29/60/39 39/30/39 37/58/39
f 17/1/1 22/31/1 27/2/1
f 3/4/2 8/12/2 9/5/2
f 1/7/3 6/64/3 7/8/3
f 5/10/4 4/6/4 9/5/4
f 2/9/5 7/8/5 8/12/5
f 6/13/40 28/22/40 29/14/40
f 9/16/7 12/23/7 13/17/7
f 7/15/8 29/14/8 11/19/8
f 1/21/41 14/45/41 28/22/41
f 8/20/10 11/19/10 12/23/10
f 13/17/11 12/23/11 16/24/11
f 30/25/42 15/62/42 42/26/42
f 11/19/13 15/35/13 16/24/13
f 28/28/43 14/63/43 41/29/43
f 16/24/15 21/36/15 22/31/15
f 19/32/44 32/53/44 35/33/44
f 15/35/17 20/43/17 21/36/17
f 20/37/18 15/57/18 34/38/18
f 22/31/19 21/36/19 26/40/19
f 19/41/20 24/46/20 25/42/20
f 1/21/9 23/65/9 18/44/9
f 20/43/45 25/42/45 26/40/45
f 18/44/22 23/65/22 24/46/22
f 27/47/23 26/50/23 4/6/23
f 24/48/24 2/9/24 3/4/24
f 25/49/46 3/4/46 4/6/46
f 23/51/26 1/7/26 2/9/26
f 13/17/1 17/1/1 5/3/1
f 31/52/47 32/53/47 36/39/47
f 31/52/48 33/55/48 35/33/48
f 30/54/49 14/56/49 33/55/49
f 18/34/31 35/33/31 33/55/31
f 19/32/50 20/37/50 36/39/50
f 30/54/51 31/52/51 34/38/51
f 37/58/34 38/27/34 42/26/34
f 37/58/35 39/30/35 41/29/35
f 29/60/52 37/58/52 40/59/52
f 11/61/53 40/59/53 42/26/53
f 30/25/54 38/27/54 41/29/54
f 29/60/55 28/28/55 39/30/55
v 1.097595 1.536547 -0.413880
v 1.089069 1.510727 -0.422950
v 1.090710 1.482144 -0.421571
v 1.102077 1.458456 -0.410114
v 1.120126 1.446010 -0.391649
v 1.123878 1.541297 -0.421174
v 1.134593 1.518954 -0.435582
v 1.143276 1.491644 -0.436158
v 1.147601 1.466683 -0.422747
v 1.146409 1.450760 -0.398942
v 1.179577 1.509913 -0.398545
v 1.179039 1.482505 -0.390173
v 1.164559 1.459895 -0.380136
v 1.133896 1.554816 -0.376267
v 1.163311 1.518683 -0.346345
v 1.164952 1.490099 -0.344967
v 1.156426 1.464280 -0.354036
v 1.107612 1.550066 -0.368974
v 1.106420 1.534144 -0.345170
v 1.110745 1.509183 -0.331759
v 1.119428 1.481872 -0.332335
v 1.130143 1.459530 -0.346743
v 1.089462 1.540932 -0.387781
v 1.074983 1.518322 -0.377744
v 1.074444 1.490913 -0.369372
v 1.087991 1.466050 -0.364909
v 1.111993 1.450395 -0.365550
v 1.142028 1.550431 -0.402367
v 1.166030 1.534776 -0.403008
v 1.151944 1.542371 -0.357802
v 1.134908 1.568679 -0.318462
v 1.131194 1.568008 -0.317431
v 1.130742 1.565444 -0.354172
v 1.147995 1.536756 -0.325014
v 1.117732 1.563092 -0.350562
v 1.127815 1.533109 -0.319415
v 1.193465 1.567822 -0.380596
v 1.190131 1.569620 -0.369896
v 1.175004 1.567985 -0.383600
v 1.189434 1.545624 -0.375799
v 1.173476 1.568809 -0.378696
v 1.187901 1.546450 -0.370881
vt 0.274240 0.539347
vt 0.265397 0.539709
vt 0.266768 0.532487
vt 0.231414 0.551290
vt 0.214659 0.541092
vt 0.231357 0.542861
vt 0.231940 0.569242
vt 0.215985 0.562822
vt 0.231472 0.559719
vt 0.230890 0.533338
vt 0.220414 0.530957
vt 0.213134 0.552274
vt 0.289666 0.544440
vt 0.282983 0.540904
vt 0.290637 0.536818
vt 0.279682 0.529141
vt 0.275518 0.536619
vt 0.273707 0.532162
vt 0.280945 0.538772
vt 0.286431 0.530872
vt 0.290637 0.551375
vt 0.284312 0.543753
vt 0.278488 0.537315
vt 0.276318 0.541045
vt 0.804698 0.251197
vt 0.792375 0.255919
vt 0.792638 0.252041
vt 0.786357 0.239035
vt 0.792578 0.249274
vt 0.791489 0.249454
vt 0.271776 0.541127
vt 0.760733 0.199751
vt 0.757502 0.209505
vt 0.750621 0.206121
vt 0.278108 0.542645
vt 0.273009 0.544115
vt 0.772804 0.201934
vt 0.766718 0.213101
vt 0.766203 0.208706
vt 0.264007 0.548518
vt 0.277612 0.547903
vt 0.268747 0.555467
vt 0.275021 0.546378
vt 0.280714 0.548498
vt 0.281954 0.545638
vt 0.276612 0.557409
vt 0.240880 0.530957
vt 0.248168 0.561486
vt 0.249693 0.550306
vt 0.246843 0.539760
vt 0.242415 0.571620
vt 0.762287 0.211045
vt 0.762255 0.210544
vt 0.761023 0.221925
vt 0.757316 0.212491
vt 0.750922 0.216572
vt 0.772804 0.220841
vt 0.791613 0.252007
vt 0.791097 0.255536
vt 0.780068 0.250772
vt 0.780487 0.263708
vt 0.804698 0.264828
vt 0.798786 0.238814
vt 0.221949 0.571626
vt 0.283377 0.553479
vn 0.2349 -0.9440 0.2318
vn -0.1504 -0.4880 -0.8598
vn -0.3117 0.4049 -0.8596
vn -0.0041 -0.8311 -0.5561
vn -0.2566 -0.0612 -0.9646
vn 0.3887 0.6237 -0.6781
vn 0.6963 -0.6122 -0.3746
vn 0.6460 0.2208 -0.7307
vn -0.2349 0.9440 -0.2318
vn 0.7522 -0.2060 -0.6259
vn 0.8542 -0.3991 0.3332
vn 0.3482 -0.0733 0.9345
vn 0.9557 0.0687 0.2863
vn -0.3361 0.9061 -0.2570
vn 0.3117 -0.4049 0.8596
vn -0.8951 0.3900 0.2160
vn 0.2566 0.0612 0.9646
vn 0.3127 -0.6021 0.7346
vn -0.3887 -0.6237 0.6781
vn -0.7522 0.2060 0.6259
vn -0.6460 -0.2208 0.7307
vn -0.6963 0.6122 0.3746
vn -0.5466 -0.8368 -0.0297
vn -0.9557 -0.0687 -0.2863
vn -0.8495 -0.4954 -0.1815
vn -0.8542 0.3991 -0.3332
vn 0.2801 -0.0815 0.9565
vn -0.1951 0.9786 -0.0659
vn 0.7170 0.6817 -0.1454
vn -0.2779 0.8496 -0.4483
vn -0.7679 0.0380 0.6394
vn 0.8473 0.4971 0.1872
vn 0.9444 -0.1041 0.3118
vn 0.0340 0.9873 -0.1553
vn 0.6830 0.2489 -0.6867
vn 0.8325 -0.4423 0.3337
vn -0.2076 0.7050 0.6781
vn 0.1458 0.4695 -0.8708
vn 0.2412 0.5139 0.8233
vn -0.8701 0.3949 0.2950
vn 0.3127 -0.6021 0.7347
vn 0.6992 0.6781 -0.2264
vn -0.7481 0.2088 0.6299
vn 0.9235 0.3437 0.1701
vn 0.0340 0.9873 -0.1552
vn 0.7808 -0.2642 -0.5662
vn -0.3428 0.7383 0.5809
vn 0.2600 0.4339 -0.8626
s off
f 59/66/56 69/67/56 47/68/56
f 45/69/57 51/70/57 46/71/57
f 43/72/58 49/73/58 44/74/58
f 47/75/59 51/70/59 52/76/59
f 44/74/60 50/77/60 45/69/60
f 48/78/61 71/79/61 49/80/61
f 51/81/62 55/82/62 52/83/62
f 49/80/63 53/84/63 50/85/63
f 43/86/64 70/87/64 48/78/64
f 50/85/65 54/88/65 51/81/65
f 55/82/66 58/89/66 59/66/66
f 72/90/67 84/91/67 80/92/67
f 53/84/68 58/89/68 54/88/68
f 70/93/69 83/94/69 81/95/69
f 58/89/70 64/96/70 59/66/70
f 61/97/71 77/98/71 60/99/71
f 57/100/72 63/101/72 58/89/72
f 62/102/73 76/103/73 78/104/73
f 64/96/74 68/105/74 69/67/74
f 61/106/75 67/107/75 62/108/75
f 43/86/64 60/109/64 56/110/64
f 62/108/76 68/105/76 63/101/76
f 60/109/77 66/111/77 61/106/77
f 69/112/78 46/71/78 47/75/78
f 66/113/79 45/69/79 67/114/79
f 67/114/80 46/71/80 68/115/80
f 65/116/81 44/74/81 66/113/81
f 55/82/56 47/68/56 52/83/56
f 73/117/82 78/104/82 76/103/82
f 73/117/83 77/98/83 74/118/83
f 72/119/84 75/120/84 73/117/84
f 60/99/85 75/120/85 56/121/85
f 61/97/86 78/104/86 74/118/86
f 72/119/87 76/103/87 57/122/87
f 79/123/88 84/91/88 82/124/88
f 79/123/89 83/94/89 80/92/89
f 71/125/90 82/124/90 53/126/90
f 53/126/91 84/91/91 57/127/91
f 72/90/92 83/94/92 56/128/92
f 71/125/93 81/95/93 79/123/93
f 59/66/56 64/96/56 69/67/56
f 45/69/57 50/77/57 51/70/57
f 43/72/58 48/129/58 49/73/58
f 47/75/59 46/71/59 51/70/59
f 44/74/60 49/73/60 50/77/60
f 48/78/61 70/87/61 71/79/61
f 51/81/62 54/88/62 55/82/62
f 49/80/63 71/79/63 53/84/63
f 43/86/64 56/110/64 70/87/64
f 50/85/65 53/84/65 54/88/65
f 55/82/66 54/88/66 58/89/66
f 72/90/94 57/127/94 84/91/94
f 53/84/68 57/100/68 58/89/68
f 70/93/69 56/128/69 83/94/69
f 58/89/70 63/101/70 64/96/70
f 61/97/95 74/118/95 77/98/95
f 57/100/72 62/108/72 63/101/72
f 62/102/96 57/122/96 76/103/96
f 64/96/74 63/101/74 68/105/74
f 61/106/75 66/111/75 67/107/75
f 43/86/64 65/130/64 60/109/64
f 62/108/76 67/107/76 68/105/76
f 60/109/77 65/130/77 66/111/77
f 69/112/78 68/115/78 46/71/78
f 66/113/79 44/74/79 45/69/79
f 67/114/80 45/69/80 46/71/80
f 65/116/81 43/72/81 44/74/81
f 55/82/56 59/66/56 47/68/56
f 73/117/82 74/118/82 78/104/82
f 73/117/83 75/120/83 77/98/83
f 72/119/97 56/121/97 75/120/97
f 60/99/85 77/98/85 75/120/85
f 61/97/98 62/102/98 78/104/98
f 72/119/99 73/117/99 76/103/99
f 79/123/88 80/92/88 84/91/88
f 79/123/100 81/95/100 83/94/100
f 71/125/101 79/123/101 82/124/101
f 53/126/91 82/124/91 84/91/91
f 72/90/102 80/92/102 83/94/102
f 71/125/103 70/93/103 81/95/103
