# Blender v2.81 (sub 16) OBJ File: 'garbage.blend'
# www.blender.org
v 0.108004 2.683014 -0.858397
v 0.122318 2.663569 -0.873844
v 0.126750 2.636296 -0.881470
v 0.120110 2.608502 -0.879231
v 0.104178 2.587635 -0.867727
v 0.113609 2.680151 -0.831435
v 0.132027 2.658612 -0.827145
v 0.137960 2.630572 -0.827546
v 0.129818 2.603545 -0.832531
v 0.109783 2.584773 -0.840765
v 0.096643 2.628628 -0.790731
v 0.094036 2.601862 -0.800649
v 0.089124 2.583801 -0.822358
v 0.066686 2.681070 -0.821583
v 0.044114 2.632409 -0.807840
v 0.048545 2.605136 -0.815466
v 0.062860 2.585691 -0.830912
v 0.061081 2.683932 -0.848545
v 0.041045 2.665160 -0.856779
v 0.032904 2.638133 -0.861764
v 0.038837 2.610093 -0.862165
v 0.057255 2.588553 -0.857874
v 0.081739 2.684904 -0.866952
v 0.076828 2.666843 -0.888661
v 0.074221 2.640077 -0.898579
v 0.074619 2.611776 -0.894048
v 0.077914 2.589525 -0.876282
v 0.092950 2.679180 -0.813028
v 0.096245 2.656929 -0.795262
v 0.050754 2.660203 -0.810079
v 0.007261 2.682866 -0.821245
v 0.006469 2.683271 -0.825055
v 0.042964 2.687853 -0.823110
v 0.019888 2.650218 -0.818430
v 0.040189 2.689270 -0.836456
v 0.015584 2.652416 -0.839131
v 0.066991 2.674397 -0.760823
v 0.056224 2.675172 -0.764330
v 0.070296 2.681155 -0.777947
v 0.066900 2.654264 -0.772079
v 0.065362 2.681511 -0.779555
v 0.061951 2.654620 -0.773691
vt 0.274240 0.539347
vt 0.265397 0.539709
vt 0.266768 0.532487
vt 0.231414 0.551290
vt 0.214659 0.541092
vt 0.231357 0.542861
vt 0.231940 0.569242
vt 0.215985 0.562822
vt 0.231472 0.559719
vt 0.230890 0.533338
vt 0.220414 0.530957
vt 0.213134 0.552274
vt 0.289666 0.544440
vt 0.282983 0.540904
vt 0.290637 0.536818
vt 0.279682 0.529141
vt 0.275518 0.536619
vt 0.273707 0.532162
vt 0.280945 0.538772
vt 0.286431 0.530872
vt 0.290637 0.551375
vt 0.284312 0.543753
vt 0.278488 0.537315
vt 0.276318 0.541045
vt 0.804698 0.251197
vt 0.792375 0.255919
vt 0.792638 0.252041
vt 0.786357 0.239035
vt 0.792578 0.249274
vt 0.791489 0.249454
vt 0.271776 0.541127
vt 0.760733 0.199751
vt 0.757502 0.209505
vt 0.750621 0.206121
vt 0.278108 0.542645
vt 0.273009 0.544115
vt 0.772804 0.201934
vt 0.766718 0.213101
vt 0.766203 0.208706
vt 0.264007 0.548518
vt 0.277612 0.547903
vt 0.268747 0.555467
vt 0.275021 0.546378
vt 0.280714 0.548498
vt 0.281954 0.545638
vt 0.276612 0.557409
vt 0.240880 0.530957
vt 0.248168 0.561486
vt 0.249693 0.550306
vt 0.246843 0.539760
vt 0.242415 0.571620
vt 0.762287 0.211045
vt 0.762255 0.210544
vt 0.761023 0.221925
vt 0.757316 0.212491
vt 0.750922 0.216572
vt 0.772804 0.220841
vt 0.791613 0.252007
vt 0.791097 0.255536
vt 0.780068 0.250772
vt 0.780487 0.263708
vt 0.804698 0.264828
vt 0.798786 0.238814
vt 0.221949 0.571626
vt 0.283377 0.553479
vn -0.0399 -0.9945 -0.0973
vn 0.9441 -0.2434 -0.2221
vn 0.7658 0.6365 -0.0916
vn 0.7135 -0.6655 -0.2190
vn 0.9622 0.2061 -0.1781
vn 0.5285 0.5761 0.6235
vn 0.4763 -0.7259 0.4962
vn 0.6564 0.1283 0.7434
vn 0.0399 0.9945 0.0973
vn 0.6384 -0.3213 0.6995
vn -0.2634 -0.7115 0.6515
vn -0.9074 -0.3552 0.2247
vn -0.3148 -0.3027 0.8996
vn 0.0744 0.9972 -0.0081
vn -0.7658 -0.6365 0.0916
vn -0.2715 0.6146 -0.7406
vn -0.9622 -0.2061 0.1781
vn -0.6033 -0.7964 0.0409
vn -0.5285 -0.5761 -0.6235
vn -0.6384 0.3213 -0.6995
vn -0.6564 -0.1283 -0.7434
vn -0.4763 0.7259 -0.4962
vn 0.2112 -0.5906 -0.7789
vn 0.3148 0.3027 -0.8996
vn 0.2968 -0.1469 -0.9436
vn 0.2634 0.7115 -0.6515
vn -0.9257 -0.3446 0.1559
vn -0.1304 0.9827 0.1315
vn -0.0118 0.4235 0.9058
vn 0.2719 0.9612 0.0455
vn -0.6171 0.1684 -0.7687
vn -0.3026 0.1481 0.9415
vn -0.3044 -0.4638 0.8320
vn -0.0496 0.9323 0.3583
vn 0.6068 0.1340 0.7835
vn -0.2546 -0.7445 0.6172
vn -0.8027 0.5955 -0.0315
vn 0.7537 0.5486 0.3620
vn -0.9156 0.2445 0.3192
vn -0.7658 -0.6366 0.0916
vn -0.3503 0.5964 -0.7223
vn -0.6383 0.3213 -0.6995
vn 0.2112 -0.5906 -0.7788
vn -0.9257 -0.3446 0.1558
vn -0.1304 0.9827 0.1314
vn 0.0685 0.4410 0.8949
vn -0.6429 0.3219 -0.6951
vn -0.2563 -0.0158 0.9665
vn 0.5912 -0.3956 0.7028
vn -0.7114 0.6886 -0.1403
vn 0.7505 0.4766 0.4578
s off
f 17/1/1 27/2/1 5/3/1
f 3/4/2 9/5/2 4/6/2
f 1/7/3 7/8/3 2/9/3
f 5/10/4 9/5/4 10/11/4
f 2/9/5 8/12/5 3/4/5
f 6/13/6 29/14/6 7/15/6
f 9/16/7 13/17/7 10/18/7
f 7/15/8 11/19/8 8/20/8
f 1/21/9 28/22/9 6/13/9
f 8/20/10 12/23/10 9/16/10
f 13/17/11 16/24/11 17/1/11
f 30/25/12 42/26/12 38/27/12
f 11/19/13 16/24/13 12/23/13
f 28/28/14 41/29/14 39/30/14
f 16/24/15 22/31/15 17/1/15
f 19/32/16 35/33/16 18/34/16
f 15/35/17 21/36/17 16/24/17
f 20/37/18 34/38/18 36/39/18
f 22/31/19 26/40/19 27/2/19
f 19/41/20 25/42/20 20/43/20
f 1/21/9 18/44/9 14/45/9
f 20/43/21 26/40/21 21/36/21
f 18/44/22 24/46/22 19/41/22
f 27/47/23 4/6/23 5/10/23
f 24/48/24 3/4/24 25/49/24
f 25/49/25 4/6/25 26/50/25
f 23/51/26 2/9/26 24/48/26
f 13/17/1 5/3/1 10/18/1
f 31/52/27 36/39/27 34/38/27
f 31/52/28 35/33/28 32/53/28
f 30/54/29 33/55/29 31/52/29
f 18/34/30 33/55/30 14/56/30
f 19/32/31 36/39/31 32/53/31
f 30/54/32 34/38/32 15/57/32
f 37/58/33 42/26/33 40/59/33
f 37/58/34 41/29/34 38/27/34
f 29/60/35 40/59/35 11/61/35
f 11/61/36 42/26/36 15/62/36
f 30/25/37 41/29/37 14/63/37
f 29/60/38 39/30/38 37/58/38
f 17/1/1 22/31/1 27/2/1
f 3/4/2 8/12/2 9/5/2
f 1/7/3 6/64/3 7/8/3
f 5/10/4 4/6/4 9/5/4
f 2/9/5 7/8/5 8/12/5
f 6/13/6 28/22/6 29/14/6
f 9/16/7 12/23/7 13/17/7
f 7/15/8 29/14/8 11/19/8
f 1/21/9 14/45/9 28/22/9
f 8/20/10 11/19/10 12/23/10
f 13/17/11 12/23/11 16/24/11
f 30/25/39 15/62/39 42/26/39
f 11/19/13 15/35/13 16/24/13
f 28/28/14 14/63/14 41/29/14
f 16/24/40 21/36/40 22/31/40
f 19/32/41 32/53/41 35/33/41
f 15/35/17 20/43/17 21/36/17
f 20/37/18 15/57/18 34/38/18
f 22/31/19 21/36/19 26/40/19
f 19/41/42 24/46/42 25/42/42
f 1/21/9 23/65/9 18/44/9
f 20/43/21 25/42/21 26/40/21
f 18/44/22 23/65/22 24/46/22
f 27/47/43 26/50/43 4/6/43
f 24/48/24 2/9/24 3/4/24
f 25/49/25 3/4/25 4/6/25
f 23/51/26 1/7/26 2/9/26
f 13/17/1 17/1/1 5/3/1
f 31/52/44 32/53/44 36/39/44
f 31/52/45 33/55/45 35/33/45
f 30/54/46 14/56/46 33/55/46
f 18/34/30 35/33/30 33/55/30
f 19/32/47 20/37/47 36/39/47
f 30/54/48 31/52/48 34/38/48
f 37/58/33 38/27/33 42/26/33
f 37/58/34 39/30/34 41/29/34
f 29/60/49 37/58/49 40/59/49
f 11/61/36 40/59/36 42/26/36
f 30/25/50 38/27/50 41/29/50
f 29/60/51 28/28/51 39/30/51
v 1.742238 2.060242 -0.857249
v 1.727445 2.044975 -0.838023
v 1.718915 2.019629 -0.827705
v 1.718933 1.990998 -0.829061
v 1.727495 1.966752 -0.841727
v 1.730965 2.057840 -0.882423
v 1.707920 2.040814 -0.881625
v 1.696369 2.014825 -0.878052
v 1.699408 1.986838 -0.872663
v 1.716222 1.964350 -0.866901
v 1.728272 2.002561 -0.921619
v 1.727036 1.976216 -0.910393
v 1.732173 1.958218 -0.888684
v 1.774140 2.047978 -0.900816
v 1.782720 1.995101 -0.914839
v 1.774190 1.969755 -0.904521
v 1.759397 1.954488 -0.885294
v 1.785413 2.050380 -0.875643
v 1.802227 2.027892 -0.869881
v 1.805266 1.999905 -0.864491
v 1.793715 1.973916 -0.860919
v 1.770670 1.956890 -0.860120
v 1.769462 2.056512 -0.853859
v 1.774599 2.038514 -0.832151
v 1.773363 2.012169 -0.820924
v 1.766087 1.984537 -0.823189
v 1.754719 1.963022 -0.838337
v 1.746916 2.051708 -0.904207
v 1.735548 2.030193 -0.919355
v 1.782702 2.023732 -0.913483
v 1.831340 2.036493 -0.912261
v 1.832933 2.036832 -0.908703
v 1.798588 2.049357 -0.904207
v 1.811772 2.007400 -0.910261
v 1.804168 2.050546 -0.891746
v 1.820427 2.009244 -0.890932
v 1.760488 2.039605 -0.959808
v 1.771649 2.038075 -0.958418
v 1.762125 2.047472 -0.942917
v 1.758517 2.020326 -0.947298
v 1.767240 2.046772 -0.942280
v 1.763646 2.019624 -0.946659
vt 0.274240 0.539347
vt 0.265397 0.539709
vt 0.266768 0.532487
vt 0.231414 0.551290
vt 0.214659 0.541092
vt 0.231357 0.542861
vt 0.231940 0.569242
vt 0.215985 0.562822
vt 0.231472 0.559719
vt 0.230890 0.533338
vt 0.220414 0.530957
vt 0.213134 0.552274
vt 0.289666 0.544440
vt 0.282983 0.540904
vt 0.290637 0.536818
vt 0.279682 0.529141
vt 0.275518 0.536619
vt 0.273707 0.532162
vt 0.280945 0.538772
vt 0.286431 0.530872
vt 0.290637 0.551375
vt 0.284312 0.543753
vt 0.278488 0.537315
vt 0.276318 0.541045
vt 0.804698 0.251197
vt 0.792375 0.255919
vt 0.792638 0.252041
vt 0.786357 0.239035
vt 0.792578 0.249274
vt 0.791489 0.249454
vt 0.271776 0.541127
vt 0.760733 0.199751
vt 0.757502 0.209505
vt 0.750621 0.206121
vt 0.278108 0.542645
vt 0.273009 0.544115
vt 0.772804 0.201934
vt 0.766718 0.213101
vt 0.766203 0.208706
vt 0.264007 0.548518
vt 0.277612 0.547903
vt 0.268747 0.555467
vt 0.275021 0.546378
vt 0.280714 0.548498
vt 0.281954 0.545638
vt 0.276612 0.557409
vt 0.240880 0.530957
vt 0.248168 0.561486
vt 0.249693 0.550306
vt 0.246843 0.539760
vt 0.242415 0.571620
vt 0.762287 0.211045
vt 0.762255 0.210544
vt 0.761023 0.221925
vt 0.757316 0.212491
vt 0.750922 0.216572
vt 0.772804 0.220841
vt 0.791613 0.252007
vt 0.791097 0.255536
vt 0.780068 0.250772
vt 0.780487 0.263708
vt 0.804698 0.264828
vt 0.798786 0.238814
vt 0.221949 0.571626
vt 0.283377 0.553479
vn -0.1537 -0.9748 0.1618
vn -0.9118 -0.0200 0.4102
vn -0.5800 0.7936 0.1840
vn -0.7812 -0.4827 0.3959
vn -0.8423 0.4207 0.3370
vn -0.5062 0.6591 -0.5562
vn -0.7075 -0.6172 -0.3443
vn -0.7472 0.2473 -0.6168
vn 0.1537 0.9748 -0.1619
vn -0.8167 -0.1934 -0.5436
vn -0.0269 -0.7727 -0.6343
vn 0.7490 -0.5552 -0.3615
vn 0.0603 -0.3937 -0.9173
vn 0.1419 0.9885 -0.0524
vn 0.5800 -0.7936 -0.1840
vn 0.5359 0.5621 0.6300
vn 0.8423 -0.4207 -0.3370
vn 0.4005 -0.9116 -0.0924
vn 0.5062 -0.6591 0.5562
vn 0.8167 0.1934 0.5436
vn 0.7472 -0.2473 0.6168
vn 0.7075 0.6172 0.3443
vn -0.1744 -0.5036 0.8461
vn -0.0603 0.3937 0.9173
vn -0.1298 -0.0470 0.9904
vn 0.0269 0.7727 0.6342
vn 0.7824 -0.5467 -0.2982
vn 0.3075 0.9243 -0.2259
vn -0.0768 0.3812 -0.9213
vn -0.0653 0.9957 -0.0658
vn 0.7775 0.0513 0.6268
vn 0.1361 0.0470 -0.9896
vn 0.0294 -0.5462 -0.8371
vn 0.1749 0.8859 -0.4296
vn -0.7064 0.2406 -0.6656
vn -0.0356 -0.8018 -0.5966
vn 0.9010 0.4026 -0.1617
vn -0.6762 0.6907 -0.2562
vn 0.1537 0.9748 -0.1618
vn -0.0269 -0.7727 -0.6342
vn 0.8656 0.0242 -0.5002
vn 0.1420 0.9885 -0.0524
vn 0.6038 0.5262 0.5988
vn -0.1744 -0.5036 0.8462
vn 0.7824 -0.5468 -0.2982
vn -0.1479 0.4164 -0.8971
vn 0.8203 0.1928 0.5385
vn 0.0521 -0.1033 -0.9933
vn -0.7880 -0.2764 -0.5501
vn 0.8547 0.5172 -0.0451
vn -0.7073 0.6169 -0.3454
s off
f 59/66/52 69/67/52 47/68/52
f 45/69/53 51/70/53 46/71/53
f 43/72/54 49/73/54 44/74/54
f 47/75/55 51/70/55 52/76/55
f 44/74/56 50/77/56 45/69/56
f 48/78/57 71/79/57 49/80/57
f 51/81/58 55/82/58 52/83/58
f 49/80/59 53/84/59 50/85/59
f 43/86/60 70/87/60 48/78/60
f 50/85/61 54/88/61 51/81/61
f 55/82/62 58/89/62 59/66/62
f 72/90/63 84/91/63 80/92/63
f 53/84/64 58/89/64 54/88/64
f 70/93/65 83/94/65 81/95/65
f 58/89/66 64/96/66 59/66/66
f 61/97/67 77/98/67 60/99/67
f 57/100/68 63/101/68 58/89/68
f 62/102/69 76/103/69 78/104/69
f 64/96/70 68/105/70 69/67/70
f 61/106/71 67/107/71 62/108/71
f 43/86/60 60/109/60 56/110/60
f 62/108/72 68/105/72 63/101/72
f 60/109/73 66/111/73 61/106/73
f 69/112/74 46/71/74 47/75/74
f 66/113/75 45/69/75 67/114/75
f 67/114/76 46/71/76 68/115/76
f 65/116/77 44/74/77 66/113/77
f 55/82/52 47/68/52 52/83/52
f 73/117/78 78/104/78 76/103/78
f 73/117/79 77/98/79 74/118/79
f 72/119/80 75/120/80 73/117/80
f 60/99/81 75/120/81 56/121/81
f 61/97/82 78/104/82 74/118/82
f 72/119/83 76/103/83 57/122/83
f 79/123/84 84/91/84 82/124/84
f 79/123/85 83/94/85 80/92/85
f 71/125/86 82/124/86 53/126/86
f 53/126/87 84/91/87 57/127/87
f 72/90/88 83/94/88 56/128/88
f 71/125/89 81/95/89 79/123/89
f 59/66/52 64/96/52 69/67/52
f 45/69/53 50/77/53 51/70/53
f 43/72/54 48/129/54 49/73/54
f 47/75/55 46/71/55 51/70/55
f 44/74/56 49/73/56 50/77/56
f 48/78/57 70/87/57 71/79/57
f 51/81/58 54/88/58 55/82/58
f 49/80/59 71/79/59 53/84/59
f 43/86/90 56/110/90 70/87/90
f 50/85/61 53/84/61 54/88/61
f 55/82/91 54/88/91 58/89/91
f 72/90/92 57/127/92 84/91/92
f 53/84/64 57/100/64 58/89/64
f 70/93/93 56/128/93 83/94/93
f 58/89/66 63/101/66 64/96/66
f 61/97/94 74/118/94 77/98/94
f 57/100/68 62/108/68 63/101/68
f 62/102/69 57/122/69 76/103/69
f 64/96/70 63/101/70 68/105/70
f 61/106/71 66/111/71 67/107/71
f 43/86/90 65/130/90 60/109/90
f 62/108/72 67/107/72 68/105/72
f 60/109/73 65/130/73 66/111/73
f 69/112/95 68/115/95 46/71/95
f 66/113/75 44/74/75 45/69/75
f 67/114/76 45/69/76 46/71/76
f 65/116/77 43/72/77 44/74/77
f 55/82/52 59/66/52 47/68/52
f 73/117/96 74/118/96 78/104/96
f 73/117/79 75/120/79 77/98/79
f 72/119/97 56/121/97 75/120/97
f 60/99/81 77/98/81 75/120/81
f 61/97/98 62/102/98 78/104/98
f 72/119/99 73/117/99 76/103/99
f 79/123/84 80/92/84 84/91/84
f 79/123/85 81/95/85 83/94/85
f 71/125/100 79/123/100 82/124/100
f 53/126/87 82/124/87 84/91/87
f 72/90/101 80/92/101 83/94/101
f 71/125/102 70/93/102 81/95/102
