# Blender v2.81 (sub 16) OBJ File: 'garbage.blend'
# www.blender.org
v 1.705653 2.626307 1.146472
v 1.686286 2.612643 1.162590
v 1.675169 2.588223 1.172673
v 1.675281 2.559591 1.174021
v 1.686592 2.534419 1.166272
v 1.701199 2.621437 1.119583
v 1.678571 2.604207 1.116017
v 1.666261 2.578482 1.118896
v 1.667567 2.551156 1.127448
v 1.682138 2.529549 1.139383
v 1.708168 2.562764 1.086293
v 1.703859 2.537543 1.099213
v 1.703092 2.521690 1.123081
v 1.747560 2.610589 1.113869
v 1.758983 2.556786 1.107467
v 1.747866 2.532366 1.117551
v 1.728499 2.518701 1.133669
v 1.752014 2.615459 1.140757
v 1.766586 2.593853 1.152692
v 1.767891 2.566526 1.161245
v 1.755581 2.540801 1.164124
v 1.732953 2.523571 1.160558
v 1.731061 2.623318 1.157059
v 1.730293 2.607465 1.180927
v 1.725984 2.582244 1.193848
v 1.719288 2.554414 1.192359
v 1.711999 2.531430 1.176859
v 1.722153 2.613578 1.103281
v 1.714864 2.590595 1.087782
v 1.758871 2.585417 1.106119
v 1.805677 2.598975 1.118586
v 1.806306 2.599663 1.122386
v 1.772070 2.612023 1.116747
v 1.785994 2.569894 1.118183
v 1.774275 2.614434 1.130057
v 1.789414 2.573633 1.138828
v 1.749435 2.596638 1.054385
v 1.759852 2.595412 1.058725
v 1.746751 2.606044 1.070328
v 1.744148 2.578559 1.067698
v 1.751524 2.605483 1.072317
v 1.748935 2.577996 1.069693
vt 0.274240 0.539347
vt 0.265397 0.539709
vt 0.266768 0.532487
vt 0.231414 0.551290
vt 0.214659 0.541092
vt 0.231357 0.542861
vt 0.231940 0.569242
vt 0.215985 0.562822
vt 0.231472 0.559719
vt 0.230890 0.533338
vt 0.220414 0.530957
vt 0.213134 0.552274
vt 0.289666 0.544440
vt 0.282983 0.540904
vt 0.290637 0.536818
vt 0.279682 0.529141
vt 0.275518 0.536619
vt 0.273707 0.532162
vt 0.280945 0.538772
vt 0.286431 0.530872
vt 0.290637 0.551375
vt 0.284312 0.543753
vt 0.278488 0.537315
vt 0.276318 0.541045
vt 0.804698 0.251197
vt 0.792375 0.255919
vt 0.792638 0.252041
vt 0.786357 0.239035
vt 0.792578 0.249274
vt 0.791489 0.249454
vt 0.271776 0.541127
vt 0.760733 0.199751
vt 0.757502 0.209505
vt 0.750621 0.206121
vt 0.278108 0.542645
vt 0.273009 0.544115
vt 0.772804 0.201934
vt 0.766718 0.213101
vt 0.766203 0.208706
vt 0.264007 0.548518
vt 0.277612 0.547903
vt 0.268747 0.555467
vt 0.275021 0.546378
vt 0.280714 0.548498
vt 0.281954 0.545638
vt 0.276612 0.557409
vt 0.240880 0.530957
vt 0.248168 0.561486
vt 0.249693 0.550306
vt 0.246843 0.539760
vt 0.242415 0.571620
vt 0.762287 0.211045
vt 0.762255 0.210544
vt 0.761023 0.221925
vt 0.757316 0.212491
vt 0.750922 0.216572
vt 0.772804 0.220841
vt 0.791613 0.252007
vt 0.791097 0.255536
vt 0.780068 0.250772
vt 0.780487 0.263708
vt 0.804698 0.264828
vt 0.798786 0.238814
vt 0.221949 0.571626
vt 0.283377 0.553479
vn -0.1987 -0.9581 0.2064
vn -0.9867 0.0038 0.1627
vn -0.6007 0.7982 -0.0451
vn -0.8609 -0.4562 0.2252
vn -0.8968 0.4369 0.0694
vn -0.3406 0.5976 -0.7259
vn -0.6008 -0.6569 -0.4556
vn -0.5616 0.1784 -0.8079
vn 0.1987 0.9581 -0.2065
vn -0.6515 -0.2548 -0.7146
vn 0.1300 -0.8279 -0.5457
vn 0.8118 -0.5746 -0.1044
vn 0.2902 -0.4751 -0.8307
vn 0.1594 0.9816 -0.1055
vn 0.6007 -0.7982 0.0451
vn 0.3612 0.6256 0.6915
vn 0.8968 -0.4369 -0.0694
vn 0.4027 -0.9100 0.0981
vn 0.3406 -0.5976 0.7259
vn 0.6515 0.2548 0.7146
vn 0.1987 0.9581 -0.2064
vn 0.5617 -0.1784 0.8079
vn 0.6008 0.6569 0.4556
vn -0.3902 -0.4265 0.8160
vn -0.2902 0.4752 0.8307
vn -0.3801 0.0420 0.9240
vn -0.1300 0.8278 0.5457
vn -0.1987 -0.9581 0.2065
vn 0.8278 -0.5598 -0.0357
vn 0.3634 0.9043 -0.2241
vn 0.1656 0.2939 -0.9414
vn -0.0374 0.9844 -0.1721
vn 0.5910 0.1203 0.7976
vn 0.3859 -0.0419 -0.9216
vn 0.2385 -0.6201 -0.7474
vn 0.2871 0.8454 -0.4504
vn -0.5097 0.1678 -0.8438
vn 0.1117 -0.8535 -0.5090
vn 0.9158 0.3998 0.0383
vn -0.5817 0.6539 -0.4838
vn -0.3406 0.5975 -0.7259
vn -0.5617 0.1784 -0.8079
vn 0.1300 -0.8278 -0.5457
vn 0.9652 -0.0085 -0.2615
vn 0.1594 0.9816 -0.1054
vn 0.4345 0.5880 0.6822
vn 0.4027 -0.9101 0.0981
vn 0.5616 -0.1784 0.8079
vn 0.6008 0.6568 0.4556
vn -0.2902 0.4751 0.8307
vn -0.1300 0.8279 0.5457
vn 0.8279 -0.5598 -0.0357
vn 0.3634 0.9043 -0.2240
vn 0.0910 0.3301 -0.9395
vn 0.6563 0.2537 0.7106
vn 0.3044 -0.1931 -0.9328
vn 0.2871 0.8454 -0.4505
vn -0.6228 -0.3376 -0.7058
vn 0.1116 -0.8535 -0.5090
vn 0.8422 0.5238 0.1279
vn -0.5894 0.5718 -0.5707
s off
f 17/1/1 27/2/1 5/3/1
f 3/4/2 9/5/2 4/6/2
f 1/7/3 7/8/3 2/9/3
f 5/10/4 9/5/4 10/11/4
f 2/9/5 8/12/5 3/4/5
f 6/13/6 29/14/6 7/15/6
f 9/16/7 13/17/7 10/18/7
f 7/15/8 11/19/8 8/20/8
f 1/21/9 28/22/9 6/13/9
f 8/20/10 12/23/10 9/16/10
f 13/17/11 16/24/11 17/1/11
f 30/25/12 42/26/12 38/27/12
f 11/19/13 16/24/13 12/23/13
f 28/28/14 41/29/14 39/30/14
f 16/24/15 22/31/15 17/1/15
f 19/32/16 35/33/16 18/34/16
f 15/35/17 21/36/17 16/24/17
f 20/37/18 34/38/18 36/39/18
f 22/31/19 26/40/19 27/2/19
f 19/41/20 25/42/20 20/43/20
f 1/21/21 18/44/21 14/45/21
f 20/43/22 26/40/22 21/36/22
f 18/44/23 24/46/23 19/41/23
f 27/47/24 4/6/24 5/10/24
f 24/48/25 3/4/25 25/49/25
f 25/49/26 4/6/26 26/50/26
f 23/51/27 2/9/27 24/48/27
f 13/17/28 5/3/28 10/18/28
f 31/52/29 36/39/29 34/38/29
f 31/52/30 35/33/30 32/53/30
f 30/54/31 33/55/31 31/52/31
f 18/34/32 33/55/32 14/56/32
f 19/32/33 36/39/33 32/53/33
f 30/54/34 34/38/34 15/57/34
f 37/58/35 42/26/35 40/59/35
f 37/58/36 41/29/36 38/27/36
f 29/60/37 40/59/37 11/61/37
f 11/61/38 42/26/38 15/62/38
f 30/25/39 41/29/39 14/63/39
f 29/60/40 39/30/40 37/58/40
f 17/1/1 22/31/1 27/2/1
f 3/4/2 8/12/2 9/5/2
f 1/7/3 6/64/3 7/8/3
f 5/10/4 4/6/4 9/5/4
f 2/9/5 7/8/5 8/12/5
f 6/13/41 28/22/41 29/14/41
f 9/16/7 12/23/7 13/17/7
f 7/15/42 29/14/42 11/19/42
f 1/21/21 14/45/21 28/22/21
f 8/20/10 11/19/10 12/23/10
f 13/17/43 12/23/43 16/24/43
f 30/25/44 15/62/44 42/26/44
f 11/19/13 15/35/13 16/24/13
f 28/28/45 14/63/45 41/29/45
f 16/24/15 21/36/15 22/31/15
f 19/32/46 32/53/46 35/33/46
f 15/35/17 20/43/17 21/36/17
f 20/37/47 15/57/47 34/38/47
f 22/31/19 21/36/19 26/40/19
f 19/41/20 24/46/20 25/42/20
f 1/21/9 23/65/9 18/44/9
f 20/43/48 25/42/48 26/40/48
f 18/44/49 23/65/49 24/46/49
f 27/47/24 26/50/24 4/6/24
f 24/48/50 2/9/50 3/4/50
f 25/49/26 3/4/26 4/6/26
f 23/51/51 1/7/51 2/9/51
f 13/17/1 17/1/1 5/3/1
f 31/52/52 32/53/52 36/39/52
f 31/52/53 33/55/53 35/33/53
f 30/54/54 14/56/54 33/55/54
f 18/34/32 35/33/32 33/55/32
f 19/32/55 20/37/55 36/39/55
f 30/54/56 31/52/56 34/38/56
f 37/58/35 38/27/35 42/26/35
f 37/58/57 39/30/57 41/29/57
f 29/60/58 37/58/58 40/59/58
f 11/61/59 40/59/59 42/26/59
f 30/25/60 38/27/60 41/29/60
f 29/60/61 28/28/61 39/30/61
v 0.712977 2.178640 -0.922491
v 0.726397 2.162234 -0.941787
v 0.732188 2.136333 -0.952612
v 0.728799 2.107875 -0.952064
v 0.717138 2.084488 -0.940290
v 0.723219 2.174299 -0.897137
v 0.744137 2.154716 -0.897873
v 0.752673 2.127652 -0.901904
v 0.746539 2.100358 -0.908149
v 0.727380 2.080147 -0.914936
v 0.718411 2.118114 -0.859461
v 0.716867 2.092098 -0.871393
v 0.710249 2.075378 -0.893715
v 0.678715 2.169102 -0.880048
v 0.663664 2.117257 -0.867726
v 0.669455 2.091356 -0.878551
v 0.682875 2.074950 -0.897847
v 0.668472 2.173443 -0.905402
v 0.649313 2.153232 -0.912188
v 0.643179 2.125938 -0.918434
v 0.651715 2.098873 -0.922465
v 0.672633 2.079290 -0.923201
v 0.685604 2.178211 -0.926623
v 0.678985 2.161492 -0.948945
v 0.677442 2.135476 -0.960877
v 0.681387 2.107133 -0.959221
v 0.689764 2.084059 -0.944422
v 0.706088 2.169530 -0.875915
v 0.714465 2.146456 -0.861117
v 0.667053 2.145714 -0.868274
v 0.620283 2.164112 -0.870278
v 0.618835 2.164725 -0.873861
v 0.654513 2.173250 -0.877195
v 0.636375 2.132987 -0.872637
v 0.649443 2.175398 -0.889745
v 0.628511 2.136320 -0.892103
v 0.689723 2.157701 -0.821012
v 0.678501 2.157526 -0.822706
v 0.689465 2.166130 -0.837708
v 0.689768 2.138647 -0.834010
v 0.684321 2.166050 -0.838484
v 0.684610 2.138566 -0.834789
vt 0.274240 0.539347
vt 0.265397 0.539709
vt 0.266768 0.532487
vt 0.231414 0.551290
vt 0.214659 0.541092
vt 0.231357 0.542861
vt 0.231940 0.569242
vt 0.215985 0.562822
vt 0.231472 0.559719
vt 0.230890 0.533338
vt 0.220414 0.530957
vt 0.213134 0.552274
vt 0.289666 0.544440
vt 0.282983 0.540904
vt 0.290637 0.536818
vt 0.279682 0.529141
vt 0.275518 0.536619
vt 0.273707 0.532162
vt 0.280945 0.538772
vt 0.286431 0.530872
vt 0.290637 0.551375
vt 0.284312 0.543753
vt 0.278488 0.537315
vt 0.276318 0.541045
vt 0.804698 0.251197
vt 0.792375 0.255919
vt 0.792638 0.252041
vt 0.786357 0.239035
vt 0.792578 0.249274
vt 0.791489 0.249454
vt 0.271776 0.541127
vt 0.760733 0.199751
vt 0.757502 0.209505
vt 0.750621 0.206121
vt 0.278108 0.542645
vt 0.273009 0.544115
vt 0.772804 0.201934
vt 0.766718 0.213101
vt 0.766203 0.208706
vt 0.264007 0.548518
vt 0.277612 0.547903
vt 0.268747 0.555467
vt 0.275021 0.546378
vt 0.280714 0.548498
vt 0.281954 0.545638
vt 0.276612 0.557409
vt 0.240880 0.530957
vt 0.248168 0.561486
vt 0.249693 0.550306
vt 0.246843 0.539760
vt 0.242415 0.571620
vt 0.762287 0.211045
vt 0.762255 0.210544
vt 0.761023 0.221925
vt 0.757316 0.212491
vt 0.750922 0.216572
vt 0.772804 0.220841
vt 0.791613 0.252007
vt 0.791097 0.255536
vt 0.780068 0.250772
vt 0.780487 0.263708
vt 0.804698 0.264828
vt 0.798786 0.238814
vt 0.221949 0.571626
vt 0.283377 0.553479
vn 0.0434 -0.9817 -0.1856
vn 0.9138 -0.1163 -0.3891
vn 0.6731 0.7246 -0.1479
vn 0.7299 -0.5607 -0.3909
vn 0.8942 0.3275 -0.3052
vn 0.5645 0.5810 0.5863
vn 0.6214 -0.7043 0.3433
vn 0.7543 0.1424 0.6409
vn -0.0434 0.9817 0.1856
vn 0.7739 -0.3014 0.5570
vn -0.0802 -0.7862 0.6127
vn -0.8180 -0.4726 0.3280
vn -0.1301 -0.4069 0.9041
vn -0.0272 0.9967 0.0768
vn -0.6731 -0.7246 0.1479
vn -0.4498 0.6367 -0.6263
vn -0.8942 -0.3275 0.3052
vn -0.5063 -0.8605 0.0572
vn -0.5645 -0.5810 -0.5863
vn -0.7739 0.3014 -0.5570
vn -0.7543 -0.1424 -0.6409
vn -0.6213 0.7043 -0.3433
vn 0.1370 -0.4991 -0.8557
vn 0.1301 0.4069 -0.9041
vn 0.1497 -0.0369 -0.9880
vn 0.0802 0.7862 -0.6127
vn -0.8484 -0.4587 0.2642
vn -0.2036 0.9480 0.2446
vn 0.0962 0.3461 0.9332
vn 0.1791 0.9792 0.0953
vn -0.7493 0.1578 -0.6432
vn -0.1560 0.0376 0.9870
vn -0.1151 -0.5600 0.8205
vn -0.0819 0.8892 0.4502
vn 0.7117 0.1393 0.6886
vn -0.0740 -0.8152 0.5744
vn -0.8519 0.5012 0.1517
vn 0.7450 0.6000 0.2914
vn 0.6213 -0.7043 0.3433
vn -0.8699 0.1129 0.4802
vn -0.0272 0.9967 0.0769
vn -0.5223 0.6082 -0.5977
vn -0.2037 0.9480 0.2445
vn 0.1715 0.3734 0.9117
vn 0.1790 0.9792 0.0953
vn -0.7777 0.3011 -0.5519
vn -0.0902 -0.1215 0.9885
vn -0.0819 0.8892 0.4501
vn 0.7355 -0.3806 0.5605
vn -0.0739 -0.8152 0.5745
vn -0.7895 0.6124 0.0396
vn 0.7648 0.5208 0.3791
s off
f 59/66/62 69/67/62 47/68/62
f 45/69/63 51/70/63 46/71/63
f 43/72/64 49/73/64 44/74/64
f 47/75/65 51/70/65 52/76/65
f 44/74/66 50/77/66 45/69/66
f 48/78/67 71/79/67 49/80/67
f 51/81/68 55/82/68 52/83/68
f 49/80/69 53/84/69 50/85/69
f 43/86/70 70/87/70 48/78/70
f 50/85/71 54/88/71 51/81/71
f 55/82/72 58/89/72 59/66/72
f 72/90/73 84/91/73 80/92/73
f 53/84/74 58/89/74 54/88/74
f 70/93/75 83/94/75 81/95/75
f 58/89/76 64/96/76 59/66/76
f 61/97/77 77/98/77 60/99/77
f 57/100/78 63/101/78 58/89/78
f 62/102/79 76/103/79 78/104/79
f 64/96/80 68/105/80 69/67/80
f 61/106/81 67/107/81 62/108/81
f 43/86/70 60/109/70 56/110/70
f 62/108/82 68/105/82 63/101/82
f 60/109/83 66/111/83 61/106/83
f 69/112/84 46/71/84 47/75/84
f 66/113/85 45/69/85 67/114/85
f 67/114/86 46/71/86 68/115/86
f 65/116/87 44/74/87 66/113/87
f 55/82/62 47/68/62 52/83/62
f 73/117/88 78/104/88 76/103/88
f 73/117/89 77/98/89 74/118/89
f 72/119/90 75/120/90 73/117/90
f 60/99/91 75/120/91 56/121/91
f 61/97/92 78/104/92 74/118/92
f 72/119/93 76/103/93 57/122/93
f 79/123/94 84/91/94 82/124/94
f 79/123/95 83/94/95 80/92/95
f 71/125/96 82/124/96 53/126/96
f 53/126/97 84/91/97 57/127/97
f 72/90/98 83/94/98 56/128/98
f 71/125/99 81/95/99 79/123/99
f 59/66/62 64/96/62 69/67/62
f 45/69/63 50/77/63 51/70/63
f 43/72/64 48/129/64 49/73/64
f 47/75/65 46/71/65 51/70/65
f 44/74/66 49/73/66 50/77/66
f 48/78/67 70/87/67 71/79/67
f 51/81/100 54/88/100 55/82/100
f 49/80/69 71/79/69 53/84/69
f 43/86/70 56/110/70 70/87/70
f 50/85/71 53/84/71 54/88/71
f 55/82/72 54/88/72 58/89/72
f 72/90/101 57/127/101 84/91/101
f 53/84/74 57/100/74 58/89/74
f 70/93/102 56/128/102 83/94/102
f 58/89/76 63/101/76 64/96/76
f 61/97/103 74/118/103 77/98/103
f 57/100/78 62/108/78 63/101/78
f 62/102/79 57/122/79 76/103/79
f 64/96/80 63/101/80 68/105/80
f 61/106/81 66/111/81 67/107/81
f 43/86/70 65/130/70 60/109/70
f 62/108/82 67/107/82 68/105/82
f 60/109/83 65/130/83 66/111/83
f 69/112/84 68/115/84 46/71/84
f 66/113/85 44/74/85 45/69/85
f 67/114/86 45/69/86 46/71/86
f 65/116/87 43/72/87 44/74/87
f 55/82/62 59/66/62 47/68/62
f 73/117/88 74/118/88 78/104/88
f 73/117/104 75/120/104 77/98/104
f 72/119/105 56/121/105 75/120/105
f 60/99/106 77/98/106 75/120/106
f 61/97/107 62/102/107 78/104/107
f 72/119/108 73/117/108 76/103/108
f 79/123/94 80/92/94 84/91/94
f 79/123/109 81/95/109 83/94/109
f 71/125/110 79/123/110 82/124/110
f 53/126/111 82/124/111 84/91/111
f 72/90/112 80/92/112 83/94/112
f 71/125/113 70/93/113 81/95/113
